<?xml version="1.0" encoding="utf-8" ?><svg version="1.1" xmlns = 'http://www.w3.org/2000/svg'><defs><font id='web' horiz-adv-x="1000">
<font-face font-family="web" descent="-252" cap-height="658" units-per-em="1000" bbox="-124,-320,1102,1003" x-height="462" ascent="748" />
<missing-glyph horiz-adv-x="500" d="M 50 -252 L 450 -252 L 450 748 L 50 748 L 50 -252 Z M 100 -202 L 100 698 L 400 698 L 400 -202 L 100 -202 Z" /><glyph horiz-adv-x="200" d="" unicode=" " />
<glyph horiz-adv-x="184" d="M 92 165 L 92 716 L 100 716 L 100 165 L 92 165 Z M 80 0 L 80 24 L 104 24 L 104 0 L 80 0 Z" unicode="!" />
<glyph horiz-adv-x="208" d="M 64 560 L 64 724 L 72 724 L 72 560 L 64 560 Z M 136 560 L 136 724 L 144 724 L 144 560 L 136 560 Z" unicode="&#x22;" />
<glyph horiz-adv-x="496" d="M 141 -31 L 162 147 L 32 147 L 32 154 L 163 154 L 183 320 L 48 320 L 48 327 L 184 327 L 205 504 L 212 504 L 191 327 L 337 327 L 358 504 L 365 504 L 344 327 L 464 327 L 464 320 L 343 320 L 323 154 L 449 154 L 449 147 L 322 147 L 301 -31 L 294 -31 L 315 147 L 169 147 L 148 -31 L 141 -31 Z M 170 154 L 316 154 L 336 320 L 190 320 L 170 154 Z" unicode="#" />
<glyph horiz-adv-x="488" d="M 242 345 L 242 748 L 249 748 L 249 343 L 242 345 Z M 242 -90 L 242 343 L 249 341 L 249 -90 L 242 -90 Z M 248 -9 C 214 -9 181 -3 148 7 C 115 18 87 33 64 51 L 64 60 C 88 41 117 26 149 15 C 181 3 214 -2 248 -2 C 298 -2 340 13 372 44 C 404 74 420 114 420 162 C 420 205 407 240 382 267 C 356 293 314 317 256 338 L 239 344 C 181 364 141 387 117 413 C 93 438 82 472 82 514 C 82 560 98 597 130 625 C 162 653 204 667 257 667 C 283 667 310 663 338 655 C 366 647 393 635 419 619 L 419 611 C 392 627 365 640 338 648 C 310 656 283 660 257 660 C 207 660 166 646 136 620 C 105 593 90 558 90 514 C 90 474 101 441 125 417 C 148 392 187 370 241 352 L 258 346 C 320 324 363 299 389 271 C 415 243 428 206 428 162 C 428 112 411 71 377 39 C 343 7 300 -9 248 -9 Z" unicode="$" />
<glyph horiz-adv-x="786" d="M 192 352 C 148 352 113 369 89 404 C 64 438 52 484 52 540 C 52 596 64 641 89 676 C 113 710 148 728 192 728 C 236 728 270 710 295 676 C 319 641 332 596 332 540 C 332 484 319 438 295 404 C 270 369 236 352 192 352 Z M 192 359 C 234 359 266 375 289 409 C 312 442 324 486 324 540 C 324 594 312 637 289 671 C 266 704 234 721 192 721 C 150 721 117 704 94 671 C 71 637 60 594 60 540 C 60 486 71 442 94 409 C 117 375 150 359 192 359 Z M 263 0 L 519 724 L 527 724 L 271 0 L 263 0 Z M 598 -8 C 554 -8 519 9 495 44 C 470 78 458 124 458 180 C 458 236 470 281 495 316 C 519 350 554 368 598 368 C 642 368 676 350 701 316 C 725 281 738 236 738 180 C 738 124 725 78 701 44 C 676 9 642 -8 598 -8 Z M 598 -1 C 640 -1 672 15 695 49 C 718 82 730 126 730 180 C 730 234 718 277 695 311 C 672 344 640 361 598 361 C 556 361 523 344 500 311 C 477 277 466 234 466 180 C 466 126 477 82 500 49 C 523 15 556 -1 598 -1 Z" unicode="%" />
<glyph horiz-adv-x="563" d="M 241 -8 C 179 -8 128 9 90 44 C 51 79 32 125 32 181 C 32 223 44 261 70 295 C 96 328 129 354 170 372 L 163 379 C 143 400 129 421 119 443 C 109 465 104 488 104 512 C 104 554 118 590 148 620 C 178 650 217 666 266 666 C 294 666 322 659 350 646 C 378 633 402 614 424 590 L 424 580 C 403 603 379 622 351 637 C 323 651 295 659 266 659 C 220 659 182 644 154 616 C 126 587 112 552 112 512 C 112 487 117 464 127 444 C 137 424 151 404 169 384 L 428 94 C 447 120 461 153 470 192 C 478 231 483 282 483 345 L 490 345 C 490 280 485 228 476 188 C 467 148 452 115 432 88 L 511 0 L 500 0 L 427 82 C 406 54 378 32 344 16 C 309 0 275 -8 241 -8 Z M 40 181 C 40 127 58 83 95 49 C 132 15 181 -1 241 -1 C 275 -1 308 7 342 23 C 376 39 403 60 423 87 L 175 366 C 131 346 97 320 74 287 C 51 254 40 219 40 181 Z" unicode="&#x26;" />
<glyph horiz-adv-x="136" d="M 64 560 L 64 724 L 72 724 L 72 560 L 64 560 Z" unicode="'" />
<glyph horiz-adv-x="330" d="M 249 -220 C 193 -150 150 -75 122 5 C 94 85 80 167 80 252 C 80 337 94 419 122 499 C 150 579 193 654 249 724 L 258 724 C 202 654 159 579 131 499 C 102 419 88 336 88 252 C 88 166 102 84 131 4 C 159 -75 202 -150 258 -220 L 249 -220 Z" unicode="(" />
<glyph horiz-adv-x="331" d="M 72 -220 C 128 -150 170 -75 199 4 C 228 84 243 166 243 252 C 243 336 228 419 199 499 C 170 579 128 654 72 724 L 81 724 C 137 654 179 579 208 499 C 236 419 251 337 251 252 C 251 167 236 85 208 5 C 179 -75 137 -150 81 -220 L 72 -220 Z" unicode=")" />
<glyph horiz-adv-x="544" d="M 140 83 L 133 88 L 266 270 L 52 339 L 54 347 L 269 276 L 268 508 L 276 508 L 275 276 L 490 349 L 492 341 L 278 270 L 411 84 L 404 80 L 272 267 L 140 83 Z" unicode="*" />
<glyph horiz-adv-x="532" d="M 262 66 L 262 284 L 52 284 L 52 291 L 262 291 L 262 508 L 270 508 L 270 291 L 480 291 L 480 284 L 270 284 L 270 66 L 262 66 Z" unicode="+" />
<glyph horiz-adv-x="138" d="M 74 61 L 74 5 C 74 -15 72 -34 68 -53 C 64 -72 54 -92 38 -113 L 32 -109 C 44 -90 53 -72 58 -55 C 63 -37 66 -17 66 5 L 66 61 L 74 61 Z" unicode="," />
<glyph horiz-adv-x="368" d="M 52 209 L 52 216 L 316 216 L 316 209 L 52 209 Z" unicode="-" />
<glyph horiz-adv-x="146" d="M 58 0 L 58 22 L 80 22 L 80 0 L 58 0 Z" unicode="." />
<glyph horiz-adv-x="327" d="M 16 0 L 303 724 L 311 724 L 24 0 L 16 0 Z" unicode="/" />
<glyph horiz-adv-x="542" d="M 271 -8 C 199 -8 145 22 109 84 C 72 146 54 227 54 327 C 54 427 72 509 109 572 C 145 634 199 666 271 666 C 342 666 396 634 433 572 C 469 509 488 427 488 327 C 488 227 469 146 433 84 C 396 22 342 -8 271 -8 Z M 271 -1 C 333 -1 383 26 422 82 C 460 138 480 219 480 327 C 480 435 460 518 422 574 C 383 630 333 659 271 659 C 209 659 158 630 120 574 C 81 518 62 435 62 327 C 62 219 81 138 120 82 C 158 26 209 -1 271 -1 Z" unicode="0" />
<glyph horiz-adv-x="345" d="M 189 0 L 189 664 L 48 634 L 48 641 L 197 673 L 197 0 L 189 0 Z" unicode="1" />
<glyph horiz-adv-x="490" d="M 54 0 L 54 8 L 192 140 C 279 223 338 288 370 335 C 401 382 417 429 417 475 C 417 531 400 575 368 609 C 335 642 293 659 241 659 C 211 659 180 653 149 642 C 117 631 89 617 65 599 L 65 608 C 87 624 115 638 147 649 C 179 660 210 666 241 666 C 295 666 339 648 373 614 C 407 579 425 533 425 475 C 425 427 409 380 377 332 C 345 284 285 218 197 134 L 65 8 L 436 8 L 436 0 L 54 0 Z" unicode="2" />
<glyph horiz-adv-x="493" d="M 248 -8 C 214 -8 180 -1 146 10 C 111 22 82 39 58 60 L 58 69 C 82 47 112 30 147 18 C 181 5 215 -1 248 -1 C 302 -1 345 14 379 44 C 412 74 429 115 429 165 C 429 215 409 256 371 288 C 333 320 283 336 221 336 L 195 336 L 195 343 L 221 343 C 281 343 329 358 367 388 C 404 418 423 457 423 506 C 423 552 408 589 378 617 C 348 645 309 659 261 659 C 231 659 201 653 171 643 C 141 632 114 617 92 599 L 92 608 C 112 624 138 638 169 649 C 199 660 230 666 261 666 C 311 666 352 651 384 622 C 415 592 431 554 431 506 C 431 461 415 424 385 394 C 354 364 313 346 262 340 C 315 333 357 314 389 283 C 421 251 437 212 437 165 C 437 113 419 71 384 39 C 349 7 304 -8 248 -8 Z" unicode="3" />
<glyph horiz-adv-x="526" d="M 363 0 L 363 200 L 44 200 L 44 207 L 364 674 L 371 674 L 371 207 L 474 207 L 474 200 L 371 200 L 371 0 L 363 0 Z M 363 207 L 363 660 L 52 207 L 363 207 Z" unicode="4" />
<glyph horiz-adv-x="493" d="M 236 -8 C 200 -8 166 -1 135 13 C 104 27 78 45 56 67 L 56 78 C 78 54 104 35 136 21 C 167 6 200 -1 236 -1 C 294 -1 340 16 376 51 C 411 85 429 131 429 187 C 429 242 409 287 371 321 C 332 355 281 372 219 372 C 196 372 175 371 156 369 C 136 367 115 364 93 361 L 118 658 L 421 658 L 421 650 L 125 650 L 101 370 C 120 372 139 374 158 376 C 176 378 197 379 219 379 C 284 379 337 361 377 326 C 417 290 437 244 437 187 C 437 129 418 82 381 46 C 344 10 296 -8 236 -8 Z" unicode="5" />
<glyph horiz-adv-x="519" d="M 268 -8 C 202 -8 150 16 114 65 C 78 113 60 179 60 261 C 60 393 81 494 124 563 C 167 631 230 666 314 666 C 334 666 356 663 378 657 C 400 651 420 644 438 636 L 438 629 C 419 637 399 644 377 650 C 355 656 334 659 314 659 C 237 659 178 628 137 568 C 95 507 73 417 69 299 C 79 331 103 359 140 381 C 176 403 218 414 264 414 C 322 414 369 395 405 357 C 441 319 459 269 459 207 C 459 143 441 91 406 51 C 370 11 324 -8 268 -8 Z M 268 -1 C 322 -1 366 18 400 56 C 434 94 451 145 451 207 C 451 267 433 315 399 352 C 365 388 320 407 264 407 C 211 407 165 392 126 363 C 87 334 68 300 68 261 C 68 179 85 115 121 69 C 156 22 205 -1 268 -1 Z" unicode="6" />
<glyph horiz-adv-x="492" d="M 176 0 L 428 650 L 56 650 L 56 658 L 436 658 L 436 650 L 184 0 L 176 0 Z" unicode="7" />
<glyph horiz-adv-x="500" d="M 249 -8 C 193 -8 147 6 112 36 C 77 65 60 104 60 152 C 60 191 75 226 105 258 C 135 289 180 316 238 339 L 231 341 C 178 357 138 379 111 407 C 84 435 71 469 71 509 C 71 555 87 593 120 622 C 153 651 197 666 251 666 C 304 666 347 651 380 623 C 412 595 429 558 429 512 C 429 476 414 443 386 414 C 358 385 317 360 263 340 L 266 339 C 323 321 366 297 396 266 C 425 235 440 199 440 158 C 440 108 422 67 387 37 C 352 7 306 -8 249 -8 Z M 234 349 L 252 343 L 256 345 C 310 365 351 390 379 418 C 407 446 421 477 421 512 C 421 556 405 591 374 618 C 342 645 301 659 251 659 C 199 659 157 645 126 617 C 94 589 79 553 79 509 C 79 471 92 439 118 412 C 144 385 182 364 234 349 Z M 68 152 C 68 106 84 69 118 41 C 151 13 195 -1 249 -1 C 303 -1 347 13 381 42 C 415 71 432 110 432 158 C 432 197 417 231 389 261 C 361 291 319 314 264 331 L 249 335 L 245 334 C 187 312 143 285 113 255 C 83 224 68 190 68 152 Z" unicode="8" />
<glyph horiz-adv-x="519" d="M 205 -8 C 184 -8 162 -5 140 0 C 118 6 98 13 81 22 L 81 29 C 99 20 119 13 141 7 C 163 1 184 -1 205 -1 C 281 -1 340 29 382 90 C 423 150 446 240 450 359 C 439 326 415 299 379 277 C 342 255 301 244 255 244 C 197 244 150 263 114 301 C 78 339 60 389 60 451 C 60 515 77 566 113 606 C 148 646 194 666 251 666 C 317 666 368 641 404 593 C 440 544 459 479 459 397 C 459 264 437 163 394 95 C 351 26 288 -8 205 -8 Z M 255 251 C 307 251 353 265 392 294 C 431 323 451 357 451 397 C 451 478 433 542 398 589 C 362 635 313 659 251 659 C 197 659 153 639 119 601 C 85 563 68 513 68 451 C 68 391 85 342 119 306 C 153 269 199 251 255 251 Z" unicode="9" />
<glyph horiz-adv-x="138" d="M 58 316 L 58 338 L 80 338 L 80 316 L 58 316 Z M 58 0 L 58 22 L 80 22 L 80 0 L 58 0 Z" unicode=":" />
<glyph horiz-adv-x="136" d="M 70 61 L 70 5 C 70 -15 68 -34 64 -53 C 60 -72 50 -92 34 -113 L 28 -109 C 40 -90 49 -72 54 -55 C 59 -37 62 -17 62 5 L 62 61 L 70 61 Z M 60 316 L 60 338 L 82 338 L 82 316 L 60 316 Z" unicode=";" />
<glyph horiz-adv-x="399" d="M 316 79 L 72 277 L 316 475 L 327 475 L 83 277 L 327 79 L 316 79 Z" unicode="&#x3C;" />
<glyph horiz-adv-x="556" d="M 64 343 L 64 350 L 492 350 L 492 343 L 64 343 Z M 64 215 L 64 222 L 492 222 L 492 215 L 64 215 Z" unicode="=" />
<glyph horiz-adv-x="399" d="M 72 79 L 316 277 L 72 475 L 83 475 L 327 277 L 83 79 L 72 79 Z" unicode="&#x3E;" />
<glyph horiz-adv-x="428" d="M 197 165 C 197 209 203 246 217 277 C 230 308 255 345 291 387 C 320 421 341 451 355 479 C 369 507 376 536 376 567 C 376 609 360 645 329 677 C 297 709 255 725 202 725 C 173 725 144 719 115 708 C 86 696 62 681 44 663 L 44 673 C 62 691 86 705 115 716 C 144 726 173 732 202 732 C 257 732 301 715 334 682 C 367 649 384 611 384 567 C 384 534 377 504 363 476 C 349 448 327 417 297 382 C 261 341 237 306 224 276 C 211 246 205 209 205 165 L 197 165 Z M 190 0 L 190 22 L 212 22 L 212 0 L 190 0 Z" unicode="?" />
<glyph horiz-adv-x="823" d="M 401 -62 C 303 -62 222 -29 159 35 C 95 100 64 182 64 282 C 64 384 99 467 169 532 C 239 597 320 630 412 630 C 505 630 586 600 655 542 C 724 484 759 407 759 313 C 759 259 746 213 720 173 C 694 133 661 114 619 114 C 588 114 562 127 542 153 C 522 179 513 214 515 257 C 503 210 483 174 456 150 C 428 126 398 114 364 114 C 325 114 294 127 270 153 C 246 179 235 214 235 257 C 235 321 257 372 302 411 C 347 450 400 470 460 470 C 472 470 487 469 503 467 C 519 465 534 463 547 461 L 523 279 C 517 237 522 200 540 168 C 557 136 583 121 619 121 C 655 121 686 138 712 173 C 738 208 752 254 752 312 C 752 400 719 474 653 534 C 587 593 507 623 412 623 C 312 623 230 588 166 519 C 102 450 71 371 71 282 C 71 187 101 107 162 42 C 222 -22 302 -55 401 -55 C 433 -55 465 -51 495 -44 C 525 -37 553 -27 579 -13 L 579 -21 C 552 -34 524 -44 494 -51 C 464 -58 433 -62 401 -62 Z M 364 121 C 406 121 440 137 467 171 C 494 205 511 249 518 303 L 538 455 C 527 457 514 459 500 461 C 485 462 472 463 460 463 C 395 463 343 442 303 401 C 263 360 243 312 243 257 C 243 216 254 183 276 158 C 298 133 328 121 364 121 Z" unicode="@" />
<glyph horiz-adv-x="576" d="M 24 0 L 285 670 L 291 670 L 552 0 L 543 0 L 441 263 L 134 263 L 32 0 L 24 0 Z M 265 598 L 137 270 L 438 270 L 310 598 L 288 657 L 265 598 Z" unicode="A" />
<glyph horiz-adv-x="515" d="M 92 0 L 92 658 L 231 658 C 287 658 332 643 367 613 C 401 583 419 543 419 495 C 419 453 405 417 379 389 C 353 361 318 343 274 337 C 325 331 366 313 397 284 C 427 254 443 218 443 174 C 443 122 425 80 389 48 C 353 16 307 0 249 0 L 92 0 Z M 100 340 L 236 340 C 288 340 330 354 362 383 C 394 411 411 449 411 495 C 411 541 394 579 361 608 C 328 636 285 651 231 651 L 100 651 L 100 340 Z M 100 7 L 249 7 C 305 7 350 22 384 53 C 418 83 435 124 435 174 C 435 221 416 259 380 289 C 343 318 295 333 236 333 L 100 333 L 100 7 Z" unicode="B" />
<glyph horiz-adv-x="651" d="M 395 -8 C 295 -8 214 22 152 84 C 90 146 60 227 60 328 C 60 428 90 510 152 572 C 214 634 295 666 395 666 C 430 666 465 662 499 655 C 533 647 567 636 600 622 L 600 614 C 567 628 534 639 500 647 C 466 655 431 659 395 659 C 297 659 218 628 158 568 C 98 507 68 427 68 328 C 68 230 98 150 158 90 C 218 29 297 -1 395 -1 C 432 -1 468 3 504 13 C 540 22 574 36 607 55 L 607 47 C 574 29 540 15 504 6 C 468 -3 431 -8 395 -8 Z" unicode="C" />
<glyph horiz-adv-x="680" d="M 92 0 L 92 658 L 263 658 C 369 658 455 628 521 569 C 587 510 620 433 620 337 C 620 236 586 155 519 93 C 451 31 363 0 255 0 L 92 0 Z M 100 7 L 256 7 C 362 7 448 37 514 98 C 579 158 612 238 612 337 C 612 430 580 506 516 564 C 452 622 368 651 264 651 L 100 651 L 100 7 Z" unicode="D" />
<glyph horiz-adv-x="483" d="M 92 0 L 92 658 L 407 658 L 407 651 L 100 651 L 100 337 L 391 337 L 391 330 L 100 330 L 100 7 L 419 7 L 419 0 L 92 0 Z" unicode="E" />
<glyph horiz-adv-x="432" d="M 92 0 L 92 658 L 400 658 L 400 651 L 100 651 L 100 337 L 367 337 L 367 330 L 100 330 L 100 0 L 92 0 Z" unicode="F" />
<glyph horiz-adv-x="686" d="M 388 -8 C 291 -8 212 23 151 85 C 90 147 60 229 60 330 C 60 430 90 511 152 573 C 214 635 294 666 392 666 C 427 666 462 662 496 655 C 530 647 564 636 597 622 L 597 614 C 564 628 530 639 495 647 C 460 655 426 659 392 659 C 296 659 218 628 158 568 C 98 507 68 428 68 330 C 68 231 97 151 157 90 C 217 29 294 -1 388 -1 C 427 -1 465 2 503 9 C 540 15 575 26 608 40 L 608 293 L 447 293 L 447 300 L 616 300 L 616 36 C 582 21 546 10 508 3 C 469 -4 429 -8 388 -8 Z" unicode="G" />
<glyph horiz-adv-x="665" d="M 92 0 L 92 658 L 100 658 L 100 339 L 565 339 L 565 658 L 573 658 L 573 0 L 565 0 L 565 332 L 100 332 L 100 0 L 92 0 Z" unicode="H" />
<glyph horiz-adv-x="192" d="M 92 0 L 92 658 L 100 658 L 100 0 L 92 0 Z" unicode="I" />
<glyph horiz-adv-x="205" d="M 8 -204 L 0 -204 L 0 -197 L 8 -197 C 36 -197 60 -187 78 -168 C 96 -149 105 -124 105 -94 L 105 658 L 113 658 L 113 -94 C 113 -126 103 -153 84 -173 C 64 -193 39 -204 8 -204 Z" unicode="J" />
<glyph horiz-adv-x="503" d="M 92 0 L 92 658 L 100 658 L 100 341 L 430 658 L 441 658 L 105 335 L 451 0 L 439 0 L 100 329 L 100 0 L 92 0 Z" unicode="K" />
<glyph horiz-adv-x="441" d="M 92 0 L 92 658 L 100 658 L 100 7 L 417 7 L 417 0 L 92 0 Z" unicode="L" />
<glyph horiz-adv-x="726" d="M 92 0 L 92 658 L 102 658 L 364 135 L 625 658 L 634 658 L 634 0 L 626 0 L 626 644 L 366 124 L 360 124 L 99 646 L 99 0 L 92 0 Z" unicode="M" />
<glyph horiz-adv-x="704" d="M 92 0 L 92 658 L 102 658 L 558 71 L 605 11 L 605 658 L 612 658 L 612 0 L 603 0 L 147 587 L 99 649 L 99 0 L 92 0 Z" unicode="N" />
<glyph horiz-adv-x="768" d="M 384 -8 C 287 -8 209 23 149 85 C 89 147 60 228 60 329 C 60 429 89 511 149 573 C 209 635 287 666 384 666 C 480 666 558 635 618 573 C 678 511 708 429 708 329 C 708 228 678 147 618 85 C 558 23 480 -8 384 -8 Z M 384 -1 C 478 -1 555 29 613 90 C 671 150 700 230 700 329 C 700 428 671 508 613 568 C 555 628 478 659 384 659 C 289 659 213 628 155 568 C 97 508 68 428 68 329 C 68 230 97 150 155 90 C 213 29 289 -1 384 -1 Z" unicode="O" />
<glyph horiz-adv-x="456" d="M 92 0 L 92 658 L 177 658 C 243 658 296 640 336 605 C 376 570 396 524 396 468 C 396 412 376 366 336 332 C 296 298 243 281 177 281 L 100 281 L 100 0 L 92 0 Z M 100 288 L 177 288 C 240 288 291 304 330 337 C 368 370 388 414 388 468 C 388 522 368 566 330 600 C 291 634 240 651 176 651 L 100 651 L 100 288 Z" unicode="P" />
<glyph horiz-adv-x="768" d="M 694 -120 C 644 -107 598 -90 556 -70 C 514 -50 476 -26 444 0 L 455 1 C 485 -23 520 -45 560 -64 C 600 -83 645 -99 694 -112 L 694 -120 Z M 384 -8 C 287 -8 209 23 149 85 C 89 147 60 228 60 329 C 60 429 89 511 149 573 C 209 635 287 666 384 666 C 480 666 558 635 618 573 C 678 511 708 429 708 329 C 708 228 678 147 618 85 C 558 23 480 -8 384 -8 Z M 384 -1 C 478 -1 555 29 613 90 C 671 150 700 230 700 329 C 700 428 671 508 613 568 C 555 628 478 659 384 659 C 289 659 213 628 155 568 C 97 508 68 428 68 329 C 68 230 97 150 155 90 C 213 29 289 -1 384 -1 Z" unicode="Q" />
<glyph horiz-adv-x="511" d="M 450 0 L 361 231 C 348 264 329 289 305 306 C 280 323 250 332 214 332 L 100 332 L 100 0 L 92 0 L 92 658 L 212 658 C 272 658 319 642 353 612 C 387 581 404 541 404 493 C 404 449 388 412 358 383 C 328 354 291 338 249 335 C 276 331 300 321 320 304 C 340 286 357 262 369 232 L 459 0 L 450 0 Z M 100 339 L 226 339 C 276 339 317 354 349 384 C 380 414 396 451 396 493 C 396 539 379 577 347 607 C 315 636 270 651 212 651 L 100 651 L 100 339 Z" unicode="R" />
<glyph horiz-adv-x="508" d="M 256 -9 C 222 -9 189 -3 156 7 C 123 18 95 33 72 51 L 72 60 C 96 41 125 26 157 15 C 189 3 222 -2 256 -2 C 306 -2 348 13 380 44 C 412 74 428 114 428 162 C 428 205 415 240 390 267 C 364 293 322 317 264 338 L 247 344 C 189 364 149 387 125 413 C 101 438 90 472 90 514 C 90 560 106 597 138 625 C 170 653 212 667 265 667 C 291 667 318 663 346 655 C 374 647 401 635 427 619 L 427 611 C 400 627 373 640 346 648 C 318 656 291 660 265 660 C 215 660 174 646 144 620 C 113 593 98 558 98 514 C 98 474 109 441 133 417 C 156 392 195 370 249 352 L 266 346 C 328 324 371 299 397 271 C 423 243 436 206 436 162 C 436 112 419 71 385 39 C 351 7 308 -9 256 -9 Z" unicode="S" />
<glyph horiz-adv-x="536" d="M 264 0 L 264 651 L 20 651 L 20 658 L 516 658 L 516 651 L 272 651 L 272 0 L 264 0 Z" unicode="T" />
<glyph horiz-adv-x="663" d="M 331 -9 C 257 -9 198 15 152 63 C 106 111 84 174 84 252 L 84 658 L 92 658 L 92 252 C 92 176 114 115 158 69 C 202 22 259 -1 331 -1 C 403 -1 461 22 505 69 C 549 115 571 176 571 252 L 571 658 L 579 658 L 579 252 C 579 174 556 111 510 63 C 464 15 405 -9 331 -9 Z" unicode="U" />
<glyph horiz-adv-x="581" d="M 287 0 L 24 658 L 33 658 L 267 71 L 291 10 L 315 71 L 549 658 L 557 658 L 294 0 L 287 0 Z" unicode="V" />
<glyph horiz-adv-x="888" d="M 233 0 L 24 658 L 33 658 L 219 71 L 237 13 L 255 71 L 442 658 L 449 658 L 634 71 L 652 12 L 670 71 L 857 658 L 864 658 L 655 0 L 648 0 L 463 588 L 445 647 L 427 588 L 240 0 L 233 0 Z" unicode="W" />
<glyph horiz-adv-x="573" d="M 52 0 L 282 337 L 66 658 L 75 658 L 251 397 L 287 343 L 322 397 L 498 658 L 507 658 L 291 337 L 291 337 L 521 0 L 512 0 L 320 281 L 286 331 L 253 281 L 61 0 L 52 0 Z" unicode="X" />
<glyph horiz-adv-x="519" d="M 255 0 L 255 309 L 20 658 L 30 658 L 231 360 L 260 317 L 289 361 L 490 658 L 499 658 L 263 309 L 263 0 L 255 0 Z" unicode="Y" />
<glyph horiz-adv-x="604" d="M 76 0 L 76 7 L 481 597 L 518 651 L 76 651 L 76 658 L 528 658 L 528 651 L 123 61 L 86 7 L 528 7 L 528 0 L 76 0 Z" unicode="Z" />
<glyph horiz-adv-x="296" d="M 96 -220 L 96 724 L 232 724 L 232 717 L 104 717 L 104 -213 L 232 -213 L 232 -220 L 96 -220 Z" unicode="[" />
<glyph horiz-adv-x="327" d="M 303 0 L 16 724 L 24 724 L 311 0 L 303 0 Z" unicode="\" />
<glyph horiz-adv-x="296" d="M 64 -220 L 64 -213 L 192 -213 L 192 717 L 64 717 L 64 724 L 200 724 L 200 -220 L 64 -220 Z" unicode="]" />
<glyph horiz-adv-x="384" d="M 101 524 L 92 524 L 189 643 L 195 643 L 292 524 L 282 524 L 192 636 L 101 524 Z" unicode="^" />
<glyph horiz-adv-x="350" d="M 0 -220 L 0 -213 L 350 -213 L 350 -220 L 0 -220 Z" unicode="_" />
<glyph horiz-adv-x="237" d="M 168 524 L 68 649 L 78 649 L 177 524 L 168 524 Z" unicode="`" />
<glyph horiz-adv-x="416" d="M 192 -8 C 151 -8 117 3 91 27 C 65 50 52 81 52 119 C 52 155 66 185 94 210 C 122 235 158 250 204 255 L 336 270 L 336 326 C 336 368 324 401 300 426 C 276 450 245 463 207 463 C 185 463 161 458 136 450 C 110 441 88 429 70 415 L 70 424 C 88 438 110 449 135 457 C 160 465 184 470 207 470 C 248 470 281 457 306 431 C 331 405 344 370 344 326 L 344 0 L 338 0 L 336 67 C 319 42 298 23 274 11 C 250 -1 222 -8 192 -8 Z M 192 -1 C 222 -1 249 5 274 19 C 298 32 319 51 336 77 L 336 263 L 205 248 C 161 243 125 229 99 205 C 73 181 60 153 60 119 C 60 83 72 54 97 32 C 121 10 153 -1 192 -1 Z" unicode="a" />
<glyph horiz-adv-x="489" d="M 219 -9 C 196 -9 171 -6 145 -2 C 119 2 96 9 76 17 L 76 724 L 84 724 L 84 412 C 106 430 129 445 155 455 C 180 465 207 470 235 470 C 297 470 346 448 383 405 C 420 361 439 305 439 235 C 439 162 418 103 378 58 C 338 13 285 -9 219 -9 Z M 219 -2 C 282 -2 333 19 372 63 C 411 107 431 164 431 235 C 431 303 413 358 377 400 C 341 442 294 463 235 463 C 207 463 181 457 155 447 C 129 437 106 422 84 402 L 84 22 C 104 14 126 8 151 4 C 176 0 199 -2 219 -2 Z" unicode="b" />
<glyph horiz-adv-x="469" d="M 275 -8 C 207 -8 153 13 112 57 C 70 101 50 158 50 230 C 50 301 70 359 110 403 C 150 447 203 470 269 470 C 294 470 319 466 345 459 C 370 452 394 442 417 430 L 417 422 C 393 435 368 445 343 452 C 318 459 293 463 269 463 C 205 463 154 441 116 398 C 77 355 58 299 58 230 C 58 160 78 104 118 62 C 158 20 210 -1 275 -1 C 297 -1 322 3 348 11 C 374 19 397 30 417 43 L 417 35 C 397 22 375 12 350 4 C 324 -4 299 -8 275 -8 Z" unicode="c" />
<glyph horiz-adv-x="498" d="M 255 -8 C 194 -8 145 14 107 58 C 69 102 50 160 50 232 C 50 303 69 360 109 404 C 149 448 199 470 261 470 C 289 470 317 464 344 454 C 370 443 394 429 414 411 L 414 724 L 422 724 L 422 0 L 416 0 L 414 67 C 395 44 372 26 345 12 C 317 -1 287 -8 255 -8 Z M 255 -1 C 284 -1 313 5 341 18 C 369 31 393 50 414 76 L 414 402 C 391 422 367 437 341 447 C 315 457 288 463 261 463 C 202 463 153 441 115 399 C 77 357 58 301 58 232 C 58 162 76 106 113 63 C 149 20 197 -1 255 -1 Z" unicode="d" />
<glyph horiz-adv-x="492" d="M 262 -8 C 198 -8 147 14 108 58 C 69 102 50 161 50 233 C 50 304 68 361 105 405 C 142 448 192 470 254 470 C 308 470 353 450 387 410 C 421 370 438 317 438 252 L 438 250 L 58 250 C 58 248 58 245 58 243 C 58 241 58 238 58 236 L 58 231 C 58 161 76 105 114 63 C 152 20 201 -1 262 -1 C 292 -1 320 3 348 13 C 376 22 402 35 426 52 L 426 43 C 401 26 375 13 347 5 C 319 -3 290 -8 262 -8 Z M 254 463 C 198 463 152 444 117 406 C 81 368 62 319 59 257 L 430 257 C 430 319 413 368 381 406 C 348 444 306 463 254 463 Z" unicode="e" />
<glyph horiz-adv-x="232" d="M 110 0 L 110 455 L 22 455 L 22 462 L 110 462 L 110 593 C 110 638 121 672 144 696 C 166 720 196 732 234 732 C 247 732 260 730 274 727 C 287 724 300 720 312 714 L 312 707 C 300 713 287 717 274 720 C 260 723 247 725 234 725 C 199 725 171 713 150 691 C 128 668 118 635 118 593 L 118 462 L 216 462 L 216 455 L 118 455 L 118 0 L 110 0 Z" unicode="f" />
<glyph horiz-adv-x="500" d="M 225 -228 C 199 -228 171 -222 143 -212 C 114 -202 89 -189 67 -174 L 67 -166 C 89 -182 115 -195 144 -205 C 173 -215 200 -221 225 -221 C 283 -221 329 -202 364 -165 C 398 -128 416 -79 416 -17 L 416 67 C 397 44 374 26 347 12 C 319 -1 289 -8 257 -8 C 196 -8 147 14 109 58 C 71 102 52 160 52 232 C 52 303 71 360 111 404 C 151 448 201 470 263 470 C 291 470 319 464 346 454 C 372 443 396 429 416 411 L 418 462 L 424 462 L 424 -17 C 424 -81 405 -132 369 -170 C 333 -208 285 -228 225 -228 Z M 257 -1 C 286 -1 315 5 343 18 C 371 31 395 50 416 76 L 416 402 C 393 422 369 437 343 447 C 317 457 290 463 263 463 C 204 463 155 441 117 399 C 79 357 60 301 60 232 C 60 162 78 106 115 63 C 151 20 199 -1 257 -1 Z" unicode="g" />
<glyph horiz-adv-x="462" d="M 76 0 L 76 724 L 84 724 L 84 384 C 98 410 118 430 145 446 C 171 462 201 470 233 470 C 279 470 316 455 346 425 C 375 395 390 355 390 307 L 390 0 L 382 0 L 382 307 C 382 353 368 391 340 420 C 312 448 277 463 233 463 C 201 463 171 454 144 437 C 117 420 97 398 84 370 L 84 0 L 76 0 Z" unicode="h" />
<glyph horiz-adv-x="172" d="M 76 658 L 76 678 L 96 678 L 96 658 L 76 658 Z M 82 0 L 82 462 L 90 462 L 90 0 L 82 0 Z" unicode="i" />
<glyph horiz-adv-x="164" d="M 72 658 L 72 678 L 92 678 L 92 658 L 72 658 Z M -36 -204 L -44 -204 L -44 -197 L -36 -197 C -2 -197 25 -185 46 -162 C 67 -138 78 -108 78 -70 L 78 462 L 86 462 L 86 -70 C 86 -110 74 -142 52 -167 C 29 -191 0 -204 -36 -204 Z" unicode="j" />
<glyph horiz-adv-x="411" d="M 76 0 L 76 724 L 84 724 L 84 244 L 338 462 L 350 462 L 91 241 L 375 0 L 362 0 L 84 236 L 84 0 L 76 0 Z" unicode="k" />
<glyph horiz-adv-x="160" d="M 76 0 L 76 724 L 84 724 L 84 0 L 76 0 Z" unicode="l" />
<glyph horiz-adv-x="752" d="M 76 0 L 76 462 L 84 462 L 84 384 C 98 410 118 430 144 446 C 170 462 198 470 229 470 C 266 470 298 459 325 439 C 352 418 370 389 378 351 C 388 390 406 420 432 440 C 457 460 489 470 527 470 C 572 470 609 455 637 425 C 665 395 680 355 680 307 L 680 0 L 672 0 L 672 307 C 672 353 658 391 631 420 C 604 448 569 463 527 463 C 489 463 457 452 432 430 C 406 408 389 376 381 333 C 381 332 381 331 381 331 C 381 330 381 329 381 329 C 381 323 382 319 382 317 C 382 315 382 312 382 309 L 382 0 L 374 0 L 374 307 C 374 353 360 391 334 420 C 308 448 273 463 229 463 C 198 463 169 454 143 437 C 117 420 97 398 84 370 L 84 0 L 76 0 Z" unicode="m" />
<glyph horiz-adv-x="462" d="M 76 0 L 76 462 L 84 462 L 84 384 C 98 410 118 430 145 446 C 171 462 201 470 233 470 C 279 470 316 455 346 425 C 375 395 390 355 390 307 L 390 0 L 382 0 L 382 307 C 382 353 368 391 340 420 C 312 448 276 463 233 463 C 201 463 171 454 144 437 C 117 420 97 398 84 370 L 84 0 L 76 0 Z" unicode="n" />
<glyph horiz-adv-x="548" d="M 274 -8 C 207 -8 153 14 112 58 C 70 102 50 159 50 231 C 50 302 70 360 112 404 C 153 448 207 470 274 470 C 340 470 394 448 436 404 C 477 360 498 302 498 231 C 498 159 477 102 436 58 C 394 14 340 -8 274 -8 Z M 274 -1 C 338 -1 390 20 430 63 C 470 105 490 161 490 231 C 490 300 470 356 430 399 C 390 441 338 463 274 463 C 209 463 157 441 117 399 C 77 356 58 300 58 231 C 58 161 77 105 117 63 C 157 20 209 -1 274 -1 Z" unicode="o" />
<glyph horiz-adv-x="489" d="M 76 -220 L 76 462 L 84 462 L 84 412 C 106 430 129 445 155 455 C 180 465 207 470 235 470 C 297 470 346 448 383 405 C 420 361 439 305 439 235 C 439 162 419 103 379 58 C 339 13 290 -9 230 -9 C 205 -9 179 -4 152 6 C 125 16 102 29 84 45 L 84 -220 L 76 -220 Z M 230 -2 C 288 -2 336 19 374 63 C 412 106 431 163 431 235 C 431 303 413 358 377 400 C 341 442 294 463 235 463 C 207 463 181 457 155 447 C 129 437 106 422 84 402 L 84 55 C 102 38 125 24 152 14 C 179 3 205 -2 230 -2 Z" unicode="p" />
<glyph horiz-adv-x="498" d="M 414 -220 L 414 67 C 395 44 372 26 345 12 C 317 -1 287 -8 255 -8 C 194 -8 145 14 107 58 C 69 102 50 160 50 232 C 50 303 69 360 109 404 C 149 448 199 470 261 470 C 289 470 317 464 343 453 C 369 442 393 428 414 411 L 416 462 L 422 462 L 422 -220 L 414 -220 Z M 255 -1 C 284 -1 313 5 341 18 C 369 31 393 50 414 76 L 414 402 C 391 422 367 437 341 447 C 315 457 288 463 261 463 C 202 463 153 441 115 399 C 77 357 58 301 58 232 C 58 162 76 106 113 63 C 149 20 197 -1 255 -1 Z" unicode="q" />
<glyph horiz-adv-x="272" d="M 76 0 L 76 462 L 84 462 L 84 381 C 98 410 114 432 134 447 C 154 462 175 470 199 470 C 209 470 219 469 229 467 C 239 465 249 462 260 459 L 260 451 C 250 455 239 458 229 460 C 219 462 208 463 198 463 C 175 463 154 454 134 438 C 114 422 98 398 84 366 L 84 0 L 76 0 Z" unicode="r" />
<glyph horiz-adv-x="379" d="M 186 -8 C 161 -8 137 -3 114 5 C 90 13 70 25 54 39 L 54 48 C 72 32 94 20 118 12 C 142 3 164 -1 186 -1 C 224 -1 255 9 280 30 C 304 51 317 77 317 108 C 317 138 308 163 290 183 C 272 203 242 220 200 234 L 182 240 C 140 254 110 270 92 289 C 74 307 65 332 65 362 C 65 392 77 418 102 439 C 126 459 159 470 200 470 C 220 470 241 466 263 460 C 285 454 305 446 322 437 L 322 428 C 305 438 285 446 263 453 C 240 459 219 463 200 463 C 162 463 131 453 108 434 C 84 414 73 390 73 362 C 73 334 81 311 98 294 C 115 276 144 261 184 248 L 202 242 C 246 227 277 209 296 188 C 315 167 325 140 325 108 C 325 75 311 47 285 25 C 259 3 226 -8 186 -8 Z" unicode="s" />
<glyph horiz-adv-x="298" d="M 188 -8 C 165 -8 147 0 133 13 C 119 27 112 48 112 76 L 112 455 L 32 455 L 32 462 L 112 462 L 112 624 L 120 624 L 120 462 L 254 462 L 254 455 L 120 455 L 120 76 C 120 53 125 34 137 20 C 148 6 165 -1 188 -1 C 200 -1 212 1 226 6 C 240 10 252 16 262 23 L 262 14 C 252 7 240 2 226 -2 C 212 -6 200 -8 188 -8 Z" unicode="t" />
<glyph horiz-adv-x="462" d="M 229 -8 C 183 -8 145 7 116 37 C 86 67 72 106 72 155 L 72 462 L 80 462 L 80 155 C 80 108 93 70 121 42 C 149 13 185 -1 229 -1 C 261 -1 291 7 318 24 C 344 41 364 64 378 92 L 378 462 L 386 462 L 386 0 L 380 0 L 378 78 C 364 52 343 31 316 15 C 289 0 260 -8 229 -8 Z" unicode="u" />
<glyph horiz-adv-x="418" d="M 205 0 L 16 462 L 25 462 L 185 71 L 210 10 L 234 71 L 394 462 L 402 462 L 213 0 L 205 0 Z" unicode="v" />
<glyph horiz-adv-x="687" d="M 180 0 L 20 462 L 29 462 L 164 71 L 184 11 L 205 71 L 340 462 L 348 462 L 483 71 L 503 11 L 524 71 L 659 462 L 667 462 L 507 0 L 499 0 L 364 391 L 344 452 L 323 391 L 188 0 L 180 0 Z" unicode="w" />
<glyph horiz-adv-x="420" d="M 36 0 L 206 240 L 53 462 L 63 462 L 173 301 L 211 246 L 248 301 L 360 462 L 369 462 L 215 241 L 384 0 L 374 0 L 246 184 L 210 234 L 175 184 L 45 0 L 36 0 Z" unicode="x" />
<glyph horiz-adv-x="418" d="M -4 -220 L -12 -220 L -12 -213 L -4 -213 C 39 -213 77 -196 109 -163 C 141 -130 174 -76 206 -1 L 205 1 L 16 462 L 25 462 L 185 71 L 210 10 L 234 71 L 394 462 L 402 462 L 213 0 C 180 -78 147 -135 114 -169 C 80 -203 41 -220 -4 -220 Z" unicode="y" />
<glyph horiz-adv-x="419" d="M 52 0 L 52 7 L 327 410 L 358 455 L 52 455 L 52 462 L 367 462 L 367 455 L 92 52 L 61 7 L 367 7 L 367 0 L 52 0 Z" unicode="z" />
<glyph horiz-adv-x="491" d="M 396 -220 C 342 -220 299 -203 269 -169 C 238 -135 224 -90 228 -34 L 236 88 C 238 128 228 163 204 192 C 180 221 144 239 96 247 L 96 256 C 144 262 180 280 204 310 C 228 339 238 374 236 416 L 228 538 C 224 594 238 639 269 673 C 299 707 341 724 395 724 L 427 724 L 427 717 L 395 717 C 344 717 304 700 275 667 C 245 634 232 591 236 538 L 244 416 C 246 370 235 334 210 306 C 185 278 151 259 109 251 C 151 243 185 224 210 196 C 235 168 246 132 244 88 L 236 -34 C 232 -87 245 -130 275 -163 C 304 -196 344 -213 396 -213 L 427 -213 L 427 -220 L 396 -220 Z" unicode="{" />
<glyph horiz-adv-x="168" d="M 80 -220 L 80 724 L 88 724 L 88 -220 L 80 -220 Z" unicode="|" />
<glyph horiz-adv-x="491" d="M 64 -220 L 64 -213 L 96 -213 C 146 -213 186 -196 216 -163 C 245 -130 258 -87 255 -34 L 247 88 C 244 133 255 170 280 198 C 305 226 339 244 382 253 C 339 261 305 279 280 307 C 255 335 244 372 247 416 L 255 538 C 258 591 245 634 216 667 C 186 700 146 717 95 717 L 64 717 L 64 724 L 95 724 C 149 724 191 707 222 673 C 252 639 266 594 263 538 L 255 416 C 252 375 262 340 286 311 C 310 282 346 264 395 257 L 395 248 C 346 241 310 223 286 194 C 262 164 252 129 255 88 L 263 -34 C 266 -90 252 -135 222 -169 C 191 -203 149 -220 96 -220 L 64 -220 Z" unicode="}" />
<glyph horiz-adv-x="384" d="M 75 170 L 68 170 C 70 190 77 204 88 213 C 98 222 111 227 127 227 C 137 227 147 224 156 220 C 165 216 177 208 192 196 C 206 184 218 176 226 172 C 234 168 243 166 253 166 C 267 166 278 170 287 179 C 295 187 301 201 305 219 L 312 219 C 308 197 301 182 291 173 C 281 163 268 159 253 159 C 242 159 232 161 223 165 C 214 169 202 178 188 190 C 173 201 161 209 153 213 C 145 217 136 220 127 220 C 113 220 101 215 92 207 C 83 199 77 186 75 170 Z" unicode="~" />
<glyph horiz-adv-x="182" d="M 80 486 L 80 508 L 102 508 L 102 486 L 80 486 Z M 87 -208 L 87 343 L 95 343 L 95 -208 L 87 -208 Z" unicode="¡" />
<glyph horiz-adv-x="469" d="M 250 -98 L 250 562 L 257 562 L 257 -98 L 250 -98 Z M 275 -8 C 207 -8 153 13 112 57 C 70 101 50 158 50 230 C 50 301 70 359 110 403 C 150 447 203 470 269 470 C 294 470 319 466 345 459 C 370 452 394 442 417 430 L 417 422 C 393 435 368 445 343 452 C 318 459 293 463 269 463 C 205 463 154 441 116 398 C 77 355 58 299 58 230 C 58 160 78 104 118 62 C 158 20 210 -1 275 -1 C 297 -1 322 3 348 11 C 374 19 397 30 417 43 L 417 35 C 397 22 375 12 350 4 C 324 -4 299 -8 275 -8 Z" unicode="¢" />
<glyph horiz-adv-x="512" d="M 60 0 L 60 8 C 102 34 134 74 158 126 C 181 178 183 243 165 320 L 159 345 L 52 345 L 52 352 L 157 352 L 148 389 C 126 471 130 538 160 589 C 190 640 240 666 312 666 C 339 666 364 662 388 654 C 412 646 436 634 460 620 L 460 611 C 434 627 409 639 385 647 C 361 655 336 659 312 659 C 244 659 195 634 167 585 C 139 535 135 471 156 391 L 166 352 L 371 352 L 371 345 L 167 345 L 173 322 C 189 252 188 190 170 136 C 151 82 119 39 73 8 L 444 8 L 444 0 L 60 0 Z" unicode="£" />
<glyph horiz-adv-x="546" d="M 57 40 L 52 45 L 157 150 C 139 166 126 186 116 209 C 106 231 102 255 102 281 C 102 306 106 330 116 353 C 126 375 139 395 157 411 L 52 516 L 57 521 L 163 415 C 177 427 193 436 212 443 C 230 450 251 454 273 454 C 295 454 315 450 334 443 C 352 436 369 427 384 415 L 489 520 L 494 515 L 389 410 C 406 394 419 374 429 352 C 439 329 444 305 444 281 C 444 255 439 231 429 209 C 419 186 406 167 389 151 L 494 46 L 489 41 L 384 146 C 369 134 352 124 334 117 C 315 110 295 107 273 107 C 251 107 230 110 212 117 C 193 124 177 134 163 146 L 57 40 Z M 273 114 C 317 114 355 129 387 160 C 419 190 436 231 436 281 C 436 331 419 371 387 401 C 355 431 317 447 273 447 C 229 447 190 431 158 401 C 126 371 110 331 110 281 C 110 231 126 190 158 160 C 190 129 229 114 273 114 Z" unicode="¤" />
<glyph horiz-adv-x="531" d="M 139 245 L 139 252 L 395 252 L 395 245 L 139 245 Z M 139 153 L 139 160 L 395 160 L 395 153 L 139 153 Z M 267 0 L 267 309 L 32 658 L 42 658 L 243 360 L 272 317 L 301 361 L 502 658 L 511 658 L 275 309 L 275 0 L 267 0 Z" unicode="¥" />
<glyph horiz-adv-x="168" d="M 80 316 L 80 724 L 88 724 L 88 316 L 80 316 Z M 80 -220 L 80 188 L 88 188 L 88 -220 L 80 -220 Z" unicode="¦" />
<glyph horiz-adv-x="392" d="M 183 0 C 159 0 137 3 117 10 C 96 17 77 27 60 40 L 60 49 C 78 35 98 24 119 17 C 139 10 161 7 183 7 C 219 7 248 17 270 37 C 292 57 303 83 303 116 C 303 142 294 163 278 180 C 261 197 238 210 210 220 L 195 225 C 151 239 119 256 101 275 C 83 294 74 317 74 344 C 74 370 83 393 103 414 C 123 434 146 448 173 456 C 148 466 128 479 113 497 C 97 514 90 535 90 559 C 90 591 102 616 127 636 C 152 656 181 666 215 666 C 237 666 257 663 275 657 C 293 651 312 642 332 632 L 332 623 C 312 635 293 644 274 650 C 255 656 235 659 215 659 C 180 659 152 649 130 629 C 108 609 98 585 98 559 C 98 536 105 516 121 499 C 137 482 160 468 191 458 L 206 453 C 250 438 281 421 299 402 C 317 383 327 360 327 334 C 327 308 317 284 297 263 C 277 242 254 228 228 222 C 252 212 272 198 288 180 C 303 162 311 141 311 116 C 311 81 299 53 275 32 C 251 10 221 0 183 0 Z M 214 227 L 216 226 C 246 233 271 247 290 267 C 309 287 319 310 319 334 C 319 359 310 380 292 398 C 274 416 244 432 202 446 L 187 451 L 185 452 C 154 444 129 430 110 410 C 91 390 82 368 82 344 C 82 318 91 297 109 279 C 127 261 157 246 199 232 L 214 227 Z" unicode="§" />
<glyph horiz-adv-x="264" d="M 56 548 L 56 568 L 76 568 L 76 548 L 56 548 Z M 188 548 L 188 568 L 208 568 L 208 548 L 188 548 Z" unicode="¨" />
<glyph horiz-adv-x="648" d="M 324 132 C 242 132 177 158 127 212 C 77 266 52 329 52 402 C 52 475 77 539 127 594 C 177 648 242 676 324 676 C 405 676 471 648 521 594 C 571 539 596 475 596 402 C 596 329 571 266 521 212 C 471 158 405 132 324 132 Z M 324 139 C 394 139 456 163 509 211 C 561 259 588 323 588 402 C 588 481 561 545 509 595 C 456 644 394 669 324 669 C 252 669 190 644 138 595 C 86 545 60 481 60 402 C 60 323 86 259 138 211 C 190 163 252 139 324 139 Z M 323 231 C 275 231 237 246 208 278 C 178 310 164 352 164 404 C 164 456 178 499 208 532 C 237 564 276 581 324 581 C 340 581 357 578 376 572 C 395 566 412 559 427 550 L 427 541 C 412 551 395 559 377 565 C 358 571 340 574 324 574 C 278 574 242 558 214 527 C 186 495 172 454 172 404 C 172 354 185 313 213 283 C 241 253 277 238 323 238 C 341 238 360 241 380 247 C 400 253 417 261 432 271 L 432 263 C 417 253 400 246 380 240 C 360 234 341 231 323 231 Z" unicode="©" />
<glyph horiz-adv-x="394" d="M 76 269 L 76 276 L 318 276 L 318 269 L 76 269 Z M 181 352 C 150 352 125 361 106 380 C 86 398 77 423 77 454 C 77 482 88 507 111 527 C 133 547 163 560 199 564 L 293 574 L 293 615 C 293 647 284 672 266 692 C 248 711 224 721 196 721 C 178 721 159 717 139 711 C 119 705 101 696 85 686 L 85 695 C 101 705 119 713 139 719 C 159 725 178 728 196 728 C 227 728 252 717 272 697 C 291 676 301 649 301 615 L 301 360 L 295 360 L 293 415 C 282 395 266 380 246 369 C 225 357 203 352 181 352 Z M 181 359 C 205 359 228 365 249 379 C 269 392 284 409 293 430 L 293 567 L 200 557 C 164 553 136 541 116 522 C 95 503 85 480 85 454 C 85 425 93 402 111 385 C 129 367 152 359 181 359 Z" unicode="ª" />
<glyph horiz-adv-x="412" d="M 195 71 L 40 226 L 195 382 L 205 382 L 50 226 L 205 71 L 195 71 Z M 330 71 L 175 226 L 330 382 L 340 382 L 185 226 L 340 71 L 330 71 Z" unicode="«" />
<glyph horiz-adv-x="393" d="M 322 191 L 322 289 L 40 289 L 40 296 L 329 296 L 329 191 L 322 191 Z" unicode="¬" />
<glyph horiz-adv-x="360" d="M 52 209 L 52 216 L 316 216 L 316 209 L 52 209 Z" unicode="­" />
<glyph horiz-adv-x="648" d="M 324 132 C 242 132 177 159 127 213 C 77 267 52 330 52 404 C 52 477 77 541 127 595 C 177 649 242 676 324 676 C 405 676 471 649 521 595 C 571 541 596 477 596 404 C 596 330 571 267 521 213 C 471 159 405 132 324 132 Z M 324 139 C 394 139 456 163 509 212 C 561 260 588 324 588 404 C 588 483 561 547 509 596 C 456 644 394 669 324 669 C 252 669 190 644 138 596 C 86 547 60 483 60 404 C 60 324 86 260 138 212 C 190 163 252 139 324 139 Z M 249 231 L 249 581 L 314 581 C 342 581 365 572 383 556 C 401 540 410 518 410 492 C 410 467 402 446 386 430 C 370 414 349 405 323 403 C 332 400 341 395 349 388 C 357 380 365 370 373 358 L 452 231 L 443 231 L 365 357 C 355 371 345 382 334 390 C 323 398 311 402 298 402 L 257 402 L 257 231 L 249 231 Z M 257 409 L 313 409 C 339 409 361 416 377 432 C 393 447 402 467 402 492 C 402 516 394 536 378 551 C 362 566 340 574 314 574 L 257 574 L 257 409 Z" unicode="®" />
<glyph horiz-adv-x="386" d="M 96 556 L 96 563 L 290 563 L 290 556 L 96 556 Z" unicode="¯" />
<glyph horiz-adv-x="324" d="M 166 496 C 133 496 106 506 84 528 C 62 550 52 578 52 612 C 52 646 62 673 84 695 C 106 717 133 728 166 728 C 198 728 225 717 247 695 C 269 673 280 646 280 612 C 280 578 269 550 247 528 C 225 506 198 496 166 496 Z M 166 503 C 196 503 222 513 242 534 C 262 554 272 580 272 612 C 272 643 262 669 242 690 C 222 710 196 721 166 721 C 135 721 110 710 90 690 C 70 669 60 643 60 612 C 60 580 70 554 90 534 C 110 513 135 503 166 503 Z" unicode="°" />
<glyph horiz-adv-x="532" d="M 48 -19 L 48 -12 L 476 -12 L 476 -19 L 48 -19 Z M 262 66 L 262 284 L 52 284 L 52 291 L 262 291 L 262 508 L 270 508 L 270 291 L 480 291 L 480 284 L 270 284 L 270 66 L 262 66 Z" unicode="±" />
<glyph horiz-adv-x="318" d="M 40 440 L 40 446 C 115 493 170 538 205 580 C 239 622 257 661 257 697 C 257 729 247 754 229 773 C 211 791 186 801 154 801 C 137 801 119 798 101 792 C 82 786 66 778 54 769 L 54 778 C 66 786 82 793 101 799 C 119 805 137 808 154 808 C 188 808 215 798 235 778 C 255 758 265 731 265 697 C 265 659 247 619 212 577 C 177 535 125 492 57 448 L 278 448 L 278 440 L 40 440 Z" unicode="²" />
<glyph horiz-adv-x="291" d="M 144 432 C 125 432 106 435 88 442 C 70 449 54 459 40 472 L 40 481 C 53 468 69 458 87 450 C 105 442 124 439 144 439 C 174 439 198 447 216 465 C 234 482 243 504 243 530 C 243 558 233 580 213 597 C 193 614 164 623 126 623 L 111 623 L 111 630 L 125 630 C 158 630 185 638 205 654 C 225 670 236 691 236 718 C 236 742 228 762 212 778 C 196 793 174 801 148 801 C 132 801 116 797 99 791 C 81 785 66 777 54 767 L 54 776 C 66 785 81 793 99 799 C 116 805 132 808 148 808 C 176 808 199 799 217 783 C 235 766 244 744 244 718 C 244 694 236 674 220 658 C 204 642 183 631 157 627 C 185 622 208 612 225 596 C 242 580 251 558 251 530 C 251 502 241 478 222 460 C 202 441 176 432 144 432 Z" unicode="³" />
<glyph horiz-adv-x="233" d="M 69 524 L 60 524 L 159 649 L 169 649 L 69 524 Z" unicode="´" />
<glyph horiz-adv-x="373" d="M 120 0 L 120 586 C 108 586 98 589 91 596 C 83 602 80 611 80 622 C 80 632 83 641 91 648 C 98 654 108 658 120 658 L 273 658 L 273 0 L 265 0 L 265 651 L 128 651 L 128 0 L 120 0 Z" unicode="¶" />
<glyph horiz-adv-x="142" d="M 54 194 L 54 216 L 76 216 L 76 194 L 54 194 Z" unicode="·" />
<glyph horiz-adv-x="226" d="M 109 -176 C 99 -176 90 -174 80 -172 C 70 -169 62 -166 56 -162 L 56 -154 C 63 -158 71 -162 81 -165 C 91 -167 100 -169 109 -169 C 127 -169 142 -163 153 -152 C 164 -141 170 -127 170 -111 C 170 -93 163 -80 151 -70 C 139 -60 123 -55 103 -55 L 97 -55 L 97 -48 L 103 -48 C 125 -48 143 -53 157 -65 C 171 -77 178 -92 178 -111 C 178 -129 171 -145 159 -157 C 146 -169 129 -176 109 -176 Z" unicode="¸" />
<glyph horiz-adv-x="275" d="M 33 440 L 33 447 L 136 447 L 136 803 L 32 777 L 32 784 L 144 812 L 144 447 L 247 447 L 247 440 L 33 440 Z" unicode="¹" />
<glyph horiz-adv-x="504" d="M 80 269 L 80 276 L 424 276 L 424 269 L 80 269 Z M 252 354 C 201 354 159 371 126 406 C 92 440 76 486 76 542 C 76 598 92 643 126 678 C 159 712 201 730 252 730 C 302 730 344 712 378 678 C 411 643 428 598 428 542 C 428 486 411 440 378 406 C 344 371 302 354 252 354 Z M 252 361 C 300 361 340 377 372 411 C 404 444 420 488 420 542 C 420 596 404 639 372 673 C 340 706 300 723 252 723 C 204 723 164 706 132 673 C 100 639 84 596 84 542 C 84 488 100 444 132 411 C 164 377 204 361 252 361 Z" unicode="º" />
<glyph horiz-adv-x="414" d="M 72 71 L 227 226 L 72 382 L 82 382 L 237 226 L 82 71 L 72 71 Z M 209 71 L 364 226 L 209 382 L 219 382 L 374 226 L 219 71 L 209 71 Z" unicode="»" />
<glyph horiz-adv-x="648" d="M 538 0 L 538 108 L 366 108 L 366 116 L 537 360 L 546 360 L 546 116 L 612 116 L 612 108 L 546 108 L 546 0 L 538 0 Z M 538 116 L 538 348 L 375 116 L 538 116 Z M 208 0 L 464 724 L 472 724 L 216 0 L 208 0 Z M 33 360 L 33 367 L 136 367 L 136 723 L 32 697 L 32 704 L 144 732 L 144 367 L 247 367 L 247 360 L 33 360 Z M 33 360 L 33 367 L 136 367 L 136 723 L 32 697 L 32 704 L 144 732 L 144 367 L 247 367 L 247 360 L 33 360 Z" unicode="¼" />
<glyph horiz-adv-x="684" d="M 406 0 L 406 6 C 481 53 536 98 571 140 C 605 182 623 221 623 257 C 623 289 613 314 595 333 C 577 351 552 361 520 361 C 503 361 485 358 467 352 C 448 346 432 338 420 329 L 420 338 C 432 346 448 353 467 359 C 485 365 503 368 520 368 C 554 368 581 358 601 338 C 621 318 631 291 631 257 C 631 219 613 179 578 137 C 543 95 491 52 423 8 L 644 8 L 644 0 L 406 0 Z M 208 0 L 464 724 L 472 724 L 216 0 L 208 0 Z M 33 360 L 33 367 L 136 367 L 136 723 L 32 697 L 32 704 L 144 732 L 144 367 L 247 367 L 247 360 L 33 360 Z M 33 360 L 33 367 L 136 367 L 136 723 L 32 697 L 32 704 L 144 732 L 144 367 L 247 367 L 247 360 L 33 360 Z" unicode="½" />
<glyph horiz-adv-x="672" d="M 562 0 L 562 108 L 390 108 L 390 116 L 561 360 L 570 360 L 570 116 L 636 116 L 636 108 L 570 108 L 570 0 L 562 0 Z M 562 116 L 562 348 L 399 116 L 562 116 Z M 223 0 L 479 724 L 487 724 L 231 0 L 223 0 Z M 144 352 C 125 352 106 355 88 362 C 70 369 54 379 40 392 L 40 401 C 53 388 69 378 87 370 C 105 362 124 359 144 359 C 174 359 198 367 216 385 C 234 402 243 424 243 450 C 243 478 233 500 213 517 C 193 534 164 543 126 543 L 111 543 L 111 550 L 125 550 C 158 550 185 558 205 574 C 225 590 236 611 236 638 C 236 662 228 682 212 698 C 196 713 174 721 148 721 C 132 721 116 717 99 711 C 81 705 66 697 54 687 L 54 696 C 66 705 81 713 99 719 C 116 725 132 728 148 728 C 176 728 199 719 217 703 C 235 686 244 664 244 638 C 244 614 236 594 220 578 C 204 562 183 551 157 547 C 185 542 208 532 225 516 C 242 500 251 478 251 450 C 251 422 241 398 222 380 C 202 361 176 352 144 352 Z" unicode="¾" />
<glyph horiz-adv-x="428" d="M 216 491 L 216 513 L 238 513 L 238 491 L 216 491 Z M 226 -219 C 170 -219 126 -202 93 -169 C 60 -136 44 -98 44 -54 C 44 -21 50 8 64 36 C 78 64 100 95 131 131 C 166 171 190 207 203 237 C 216 267 223 304 223 348 L 231 348 C 231 304 224 266 211 235 C 197 204 173 168 137 126 C 107 92 86 61 72 33 C 58 5 52 -23 52 -54 C 52 -96 67 -132 99 -164 C 130 -196 172 -212 226 -212 C 254 -212 283 -206 312 -195 C 341 -183 365 -168 384 -150 L 384 -160 C 365 -178 341 -192 312 -203 C 283 -213 254 -219 226 -219 Z" unicode="¿" />
<glyph horiz-adv-x="576" d="M 24 0 L 285 670 L 291 670 L 552 0 L 543 0 L 441 263 L 134 263 L 32 0 L 24 0 Z M 265 598 L 137 270 L 438 270 L 310 598 L 288 657 L 265 598 Z M 303 724 L 203 849 L 213 849 L 312 724 L 303 724 Z" unicode="À" />
<glyph horiz-adv-x="576" d="M 24 0 L 285 670 L 291 670 L 552 0 L 543 0 L 441 263 L 134 263 L 32 0 L 24 0 Z M 265 598 L 137 270 L 438 270 L 310 598 L 288 657 L 265 598 Z M 272 724 L 263 724 L 362 849 L 372 849 L 272 724 Z" unicode="Á" />
<glyph horiz-adv-x="576" d="M 24 0 L 285 670 L 291 670 L 552 0 L 543 0 L 441 263 L 134 263 L 32 0 L 24 0 Z M 265 598 L 137 270 L 438 270 L 310 598 L 288 657 L 265 598 Z M 196 724 L 187 724 L 284 843 L 290 843 L 387 724 L 377 724 L 287 836 L 196 724 Z" unicode="Â" />
<glyph horiz-adv-x="576" d="M 24 0 L 285 670 L 291 670 L 552 0 L 543 0 L 441 263 L 134 263 L 32 0 L 24 0 Z M 265 598 L 137 270 L 438 270 L 310 598 L 288 657 L 265 598 Z M 170 728 L 163 728 C 165 748 172 762 183 771 C 193 780 206 785 222 785 C 232 785 242 782 251 778 C 260 774 272 766 287 754 C 301 742 313 734 321 730 C 329 726 338 724 348 724 C 362 724 373 728 382 737 C 390 745 396 759 400 777 L 407 777 C 403 755 396 740 386 731 C 376 721 363 717 348 717 C 337 717 327 719 318 723 C 309 727 297 736 283 748 C 268 759 256 767 248 771 C 240 775 231 778 222 778 C 208 778 196 773 187 765 C 178 757 172 744 170 728 Z" unicode="Ã" />
<glyph horiz-adv-x="576" d="M 24 0 L 285 670 L 291 670 L 552 0 L 543 0 L 441 263 L 134 263 L 32 0 L 24 0 Z M 265 598 L 137 270 L 438 270 L 310 598 L 288 657 L 265 598 Z M 211 724 L 211 744 L 231 744 L 231 724 L 211 724 Z M 343 724 L 343 744 L 363 744 L 363 724 L 343 724 Z" unicode="Ä" />
<glyph horiz-adv-x="576" d="M 24 0 L 285 670 L 291 670 L 552 0 L 543 0 L 441 263 L 134 263 L 32 0 L 24 0 Z M 265 598 L 137 270 L 438 270 L 310 598 L 288 657 L 265 598 Z M 287 667 C 271 667 257 672 247 682 C 236 692 231 706 231 722 C 231 738 236 751 247 761 C 257 771 271 777 287 777 C 303 777 316 771 327 761 C 337 751 343 738 343 722 C 343 706 337 692 327 682 C 316 672 303 667 287 667 Z M 287 674 C 301 674 312 678 321 688 C 330 697 335 708 335 722 C 335 735 330 746 321 756 C 312 765 301 770 287 770 C 273 770 261 765 252 756 C 243 746 239 735 239 722 C 239 708 243 697 252 688 C 261 678 273 674 287 674 Z" unicode="Å" />
<glyph horiz-adv-x="797" d="M 16 0 L 398 658 L 721 658 L 721 651 L 408 651 L 408 337 L 705 337 L 705 330 L 408 330 L 408 7 L 733 7 L 733 0 L 400 0 L 400 255 L 172 255 L 24 0 L 16 0 Z M 371 598 L 176 262 L 400 262 L 400 648 L 371 598 Z" unicode="Æ" />
<glyph horiz-adv-x="651" d="M 395 -8 C 295 -8 214 22 152 84 C 90 146 60 227 60 328 C 60 428 90 510 152 572 C 214 634 295 666 395 666 C 430 666 465 662 499 655 C 533 647 567 636 600 622 L 600 614 C 567 628 534 639 500 647 C 466 655 431 659 395 659 C 297 659 218 628 158 568 C 98 507 68 427 68 328 C 68 230 98 150 158 90 C 218 29 297 -1 395 -1 C 432 -1 468 3 504 13 C 540 22 574 36 607 55 L 607 47 C 574 29 540 15 504 6 C 468 -3 431 -8 395 -8 Z M 390 -176 C 380 -176 371 -174 361 -172 C 351 -169 343 -166 337 -162 L 337 -154 C 344 -158 352 -162 362 -165 C 372 -167 381 -169 390 -169 C 408 -169 423 -163 434 -152 C 445 -141 451 -127 451 -111 C 451 -93 444 -80 432 -70 C 420 -60 404 -55 384 -55 L 378 -55 L 378 -48 L 384 -48 C 406 -48 424 -53 438 -65 C 452 -77 459 -92 459 -111 C 459 -129 452 -145 440 -157 C 427 -169 410 -176 390 -176 Z" unicode="Ç" />
<glyph horiz-adv-x="483" d="M 92 0 L 92 658 L 407 658 L 407 651 L 100 651 L 100 337 L 391 337 L 391 330 L 100 330 L 100 7 L 419 7 L 419 0 L 92 0 Z M 270 724 L 170 849 L 180 849 L 279 724 L 270 724 Z" unicode="È" />
<glyph horiz-adv-x="483" d="M 92 0 L 92 658 L 407 658 L 407 651 L 100 651 L 100 337 L 391 337 L 391 330 L 100 330 L 100 7 L 419 7 L 419 0 L 92 0 Z M 239 724 L 230 724 L 329 849 L 339 849 L 239 724 Z" unicode="É" />
<glyph horiz-adv-x="483" d="M 92 0 L 92 658 L 407 658 L 407 651 L 100 651 L 100 337 L 391 337 L 391 330 L 100 330 L 100 7 L 419 7 L 419 0 L 92 0 Z M 163 724 L 154 724 L 251 843 L 257 843 L 354 724 L 344 724 L 254 836 L 163 724 Z" unicode="Ê" />
<glyph horiz-adv-x="483" d="M 92 0 L 92 658 L 407 658 L 407 651 L 100 651 L 100 337 L 391 337 L 391 330 L 100 330 L 100 7 L 419 7 L 419 0 L 92 0 Z M 178 724 L 178 744 L 198 744 L 198 724 L 178 724 Z M 310 724 L 310 744 L 330 744 L 330 724 L 310 724 Z" unicode="Ë" />
<glyph horiz-adv-x="192" d="M 92 0 L 92 658 L 100 658 L 100 0 L 92 0 Z M 112 724 L 12 849 L 22 849 L 121 724 L 112 724 Z" unicode="Ì" />
<glyph horiz-adv-x="192" d="M 92 0 L 92 658 L 100 658 L 100 0 L 92 0 Z M 81 724 L 72 724 L 171 849 L 181 849 L 81 724 Z" unicode="Í" />
<glyph horiz-adv-x="192" d="M 92 0 L 92 658 L 100 658 L 100 0 L 92 0 Z M 5 724 L -4 724 L 93 843 L 99 843 L 196 724 L 186 724 L 96 836 L 5 724 Z" unicode="Î" />
<glyph horiz-adv-x="192" d="M 92 0 L 92 658 L 100 658 L 100 0 L 92 0 Z M 20 724 L 20 744 L 40 744 L 40 724 L 20 724 Z M 152 724 L 152 744 L 172 744 L 172 724 L 152 724 Z" unicode="Ï" />
<glyph horiz-adv-x="684" d="M 12 332 L 12 339 L 252 339 L 252 332 L 12 332 Z M 96 0 L 96 658 L 267 658 C 373 658 459 628 525 569 C 591 510 624 433 624 337 C 624 236 590 155 523 93 C 455 31 367 0 259 0 L 96 0 Z M 104 7 L 260 7 C 366 7 452 37 518 98 C 583 158 616 238 616 337 C 616 430 584 506 520 564 C 456 622 372 651 268 651 L 104 651 L 104 7 Z" unicode="Ð" />
<glyph horiz-adv-x="704" d="M 92 0 L 92 658 L 102 658 L 558 71 L 605 11 L 605 658 L 612 658 L 612 0 L 603 0 L 147 587 L 99 649 L 99 0 L 92 0 Z M 236 728 L 229 728 C 231 748 238 762 249 771 C 259 780 272 785 288 785 C 298 785 308 782 317 778 C 326 774 338 766 353 754 C 367 742 379 734 387 730 C 395 726 404 724 414 724 C 428 724 439 728 448 737 C 456 745 462 759 466 777 L 473 777 C 469 755 462 740 452 731 C 442 721 429 717 414 717 C 403 717 393 719 384 723 C 375 727 363 736 349 748 C 334 759 322 767 314 771 C 306 775 297 778 288 778 C 274 778 262 773 253 765 C 244 757 238 744 236 728 Z" unicode="Ñ" />
<glyph horiz-adv-x="768" d="M 384 -8 C 287 -8 209 23 149 85 C 89 147 60 228 60 329 C 60 429 89 511 149 573 C 209 635 287 666 384 666 C 480 666 558 635 618 573 C 678 511 708 429 708 329 C 708 228 678 147 618 85 C 558 23 480 -8 384 -8 Z M 384 -1 C 478 -1 555 29 613 90 C 671 150 700 230 700 329 C 700 428 671 508 613 568 C 555 628 478 659 384 659 C 289 659 213 628 155 568 C 97 508 68 428 68 329 C 68 230 97 150 155 90 C 213 29 289 -1 384 -1 Z M 400 724 L 300 849 L 310 849 L 409 724 L 400 724 Z" unicode="Ò" />
<glyph horiz-adv-x="768" d="M 384 -8 C 287 -8 209 23 149 85 C 89 147 60 228 60 329 C 60 429 89 511 149 573 C 209 635 287 666 384 666 C 480 666 558 635 618 573 C 678 511 708 429 708 329 C 708 228 678 147 618 85 C 558 23 480 -8 384 -8 Z M 384 -1 C 478 -1 555 29 613 90 C 671 150 700 230 700 329 C 700 428 671 508 613 568 C 555 628 478 659 384 659 C 289 659 213 628 155 568 C 97 508 68 428 68 329 C 68 230 97 150 155 90 C 213 29 289 -1 384 -1 Z M 369 724 L 360 724 L 459 849 L 469 849 L 369 724 Z" unicode="Ó" />
<glyph horiz-adv-x="768" d="M 384 -8 C 287 -8 209 23 149 85 C 89 147 60 228 60 329 C 60 429 89 511 149 573 C 209 635 287 666 384 666 C 480 666 558 635 618 573 C 678 511 708 429 708 329 C 708 228 678 147 618 85 C 558 23 480 -8 384 -8 Z M 384 -1 C 478 -1 555 29 613 90 C 671 150 700 230 700 329 C 700 428 671 508 613 568 C 555 628 478 659 384 659 C 289 659 213 628 155 568 C 97 508 68 428 68 329 C 68 230 97 150 155 90 C 213 29 289 -1 384 -1 Z M 293 724 L 284 724 L 381 843 L 387 843 L 484 724 L 474 724 L 384 836 L 293 724 Z" unicode="Ô" />
<glyph horiz-adv-x="768" d="M 384 -8 C 287 -8 209 23 149 85 C 89 147 60 228 60 329 C 60 429 89 511 149 573 C 209 635 287 666 384 666 C 480 666 558 635 618 573 C 678 511 708 429 708 329 C 708 228 678 147 618 85 C 558 23 480 -8 384 -8 Z M 384 -1 C 478 -1 555 29 613 90 C 671 150 700 230 700 329 C 700 428 671 508 613 568 C 555 628 478 659 384 659 C 289 659 213 628 155 568 C 97 508 68 428 68 329 C 68 230 97 150 155 90 C 213 29 289 -1 384 -1 Z M 267 728 L 260 728 C 262 748 269 762 280 771 C 290 780 303 785 319 785 C 329 785 339 782 348 778 C 357 774 369 766 384 754 C 398 742 410 734 418 730 C 426 726 435 724 445 724 C 459 724 470 728 479 737 C 487 745 493 759 497 777 L 504 777 C 500 755 493 740 483 731 C 473 721 460 717 445 717 C 434 717 424 719 415 723 C 406 727 394 736 380 748 C 365 759 353 767 345 771 C 337 775 328 778 319 778 C 305 778 293 773 284 765 C 275 757 269 744 267 728 Z" unicode="Õ" />
<glyph horiz-adv-x="768" d="M 384 -8 C 287 -8 209 23 149 85 C 89 147 60 228 60 329 C 60 429 89 511 149 573 C 209 635 287 666 384 666 C 480 666 558 635 618 573 C 678 511 708 429 708 329 C 708 228 678 147 618 85 C 558 23 480 -8 384 -8 Z M 384 -1 C 478 -1 555 29 613 90 C 671 150 700 230 700 329 C 700 428 671 508 613 568 C 555 628 478 659 384 659 C 289 659 213 628 155 568 C 97 508 68 428 68 329 C 68 230 97 150 155 90 C 213 29 289 -1 384 -1 Z M 308 724 L 308 744 L 328 744 L 328 724 L 308 724 Z M 440 724 L 440 744 L 460 744 L 460 724 L 440 724 Z" unicode="Ö" />
<glyph horiz-adv-x="482" d="M 77 126 L 72 131 L 233 291 L 73 453 L 78 458 L 238 296 L 398 456 L 403 451 L 243 291 L 410 125 L 405 120 L 238 286 L 77 126 Z" unicode="×" />
<glyph horiz-adv-x="768" d="M 151 -48 L 614 706 L 622 706 L 159 -48 L 151 -48 Z M 384 -8 C 287 -8 209 23 149 85 C 89 147 60 228 60 329 C 60 429 89 511 149 573 C 209 635 287 666 384 666 C 480 666 558 635 618 573 C 678 511 708 429 708 329 C 708 228 678 147 618 85 C 558 23 480 -8 384 -8 Z M 384 -1 C 478 -1 555 29 613 90 C 671 150 700 230 700 329 C 700 428 671 508 613 568 C 555 628 478 659 384 659 C 289 659 213 628 155 568 C 97 508 68 428 68 329 C 68 230 97 150 155 90 C 213 29 289 -1 384 -1 Z" unicode="Ø" />
<glyph horiz-adv-x="663" d="M 331 -9 C 257 -9 198 15 152 63 C 106 111 84 174 84 252 L 84 658 L 92 658 L 92 252 C 92 176 114 115 158 69 C 202 22 259 -1 331 -1 C 403 -1 461 22 505 69 C 549 115 571 176 571 252 L 571 658 L 579 658 L 579 252 C 579 174 556 111 510 63 C 464 15 405 -9 331 -9 Z M 351 724 L 251 849 L 261 849 L 360 724 L 351 724 Z" unicode="Ù" />
<glyph horiz-adv-x="663" d="M 331 -9 C 257 -9 198 15 152 63 C 106 111 84 174 84 252 L 84 658 L 92 658 L 92 252 C 92 176 114 115 158 69 C 202 22 259 -1 331 -1 C 403 -1 461 22 505 69 C 549 115 571 176 571 252 L 571 658 L 579 658 L 579 252 C 579 174 556 111 510 63 C 464 15 405 -9 331 -9 Z M 320 724 L 311 724 L 410 849 L 420 849 L 320 724 Z" unicode="Ú" />
<glyph horiz-adv-x="663" d="M 331 -9 C 257 -9 198 15 152 63 C 106 111 84 174 84 252 L 84 658 L 92 658 L 92 252 C 92 176 114 115 158 69 C 202 22 259 -1 331 -1 C 403 -1 461 22 505 69 C 549 115 571 176 571 252 L 571 658 L 579 658 L 579 252 C 579 174 556 111 510 63 C 464 15 405 -9 331 -9 Z M 244 724 L 235 724 L 332 843 L 338 843 L 435 724 L 425 724 L 335 836 L 244 724 Z" unicode="Û" />
<glyph horiz-adv-x="663" d="M 331 -9 C 257 -9 198 15 152 63 C 106 111 84 174 84 252 L 84 658 L 92 658 L 92 252 C 92 176 114 115 158 69 C 202 22 259 -1 331 -1 C 403 -1 461 22 505 69 C 549 115 571 176 571 252 L 571 658 L 579 658 L 579 252 C 579 174 556 111 510 63 C 464 15 405 -9 331 -9 Z M 259 724 L 259 744 L 279 744 L 279 724 L 259 724 Z M 391 724 L 391 744 L 411 744 L 411 724 L 391 724 Z" unicode="Ü" />
<glyph horiz-adv-x="519" d="M 255 0 L 255 309 L 20 658 L 30 658 L 231 360 L 260 317 L 289 361 L 490 658 L 499 658 L 263 309 L 263 0 L 255 0 Z M 245 724 L 236 724 L 335 849 L 345 849 L 245 724 Z" unicode="Ý" />
<glyph horiz-adv-x="463" d="M 92 0 L 92 658 L 100 658 L 100 514 L 179 514 C 242 514 293 497 332 464 C 371 431 391 388 391 335 C 391 281 371 238 332 205 C 293 172 242 156 179 156 L 100 156 L 100 0 L 92 0 Z M 100 163 L 179 163 C 239 163 288 178 326 210 C 364 242 383 283 383 335 C 383 386 364 427 326 459 C 288 491 239 507 178 507 L 100 507 L 100 163 Z" unicode="Þ" />
<glyph horiz-adv-x="508" d="M 80 0 L 80 527 C 80 588 96 637 130 675 C 164 713 208 732 262 732 C 316 732 359 712 393 673 C 426 634 443 583 443 519 C 443 507 442 495 441 483 C 440 471 439 458 437 442 C 417 449 399 454 383 458 C 366 461 349 463 332 463 C 294 463 264 453 242 435 C 220 416 209 392 209 362 C 209 335 218 312 236 292 C 254 272 280 257 315 246 L 330 241 C 374 226 405 208 425 188 C 444 167 454 140 454 108 C 454 74 442 46 418 25 C 394 3 363 -7 325 -7 C 303 -7 280 -3 256 4 C 232 11 211 21 194 33 L 194 42 C 211 29 232 19 256 11 C 280 3 303 0 325 0 C 361 0 390 9 412 29 C 434 49 446 75 446 108 C 446 138 436 163 418 183 C 400 202 370 219 328 233 L 313 238 C 276 250 248 267 229 288 C 210 308 201 333 201 362 C 201 394 212 420 236 440 C 260 460 292 470 332 470 C 348 470 364 468 380 466 C 396 463 413 458 431 452 C 443 531 434 596 403 648 C 371 699 324 725 262 725 C 210 725 168 706 136 670 C 104 634 88 586 88 527 L 88 0 L 80 0 Z" unicode="ß" />
<glyph horiz-adv-x="416" d="M 192 -8 C 151 -8 117 3 91 27 C 65 50 52 81 52 119 C 52 155 66 185 94 210 C 122 235 158 250 204 255 L 336 270 L 336 326 C 336 368 324 401 300 426 C 276 450 245 463 207 463 C 185 463 161 458 136 450 C 110 441 88 429 70 415 L 70 424 C 88 438 110 449 135 457 C 160 465 184 470 207 470 C 248 470 281 457 306 431 C 331 405 344 370 344 326 L 344 0 L 338 0 L 336 67 C 319 42 298 23 274 11 C 250 -1 222 -8 192 -8 Z M 192 -1 C 222 -1 249 5 274 19 C 298 32 319 51 336 77 L 336 263 L 205 248 C 161 243 125 229 99 205 C 73 181 60 153 60 119 C 60 83 72 54 97 32 C 121 10 153 -1 192 -1 Z M 223 524 L 123 649 L 133 649 L 232 524 L 223 524 Z" unicode="à" />
<glyph horiz-adv-x="416" d="M 192 -8 C 151 -8 117 3 91 27 C 65 50 52 81 52 119 C 52 155 66 185 94 210 C 122 235 158 250 204 255 L 336 270 L 336 326 C 336 368 324 401 300 426 C 276 450 245 463 207 463 C 185 463 161 458 136 450 C 110 441 88 429 70 415 L 70 424 C 88 438 110 449 135 457 C 160 465 184 470 207 470 C 248 470 281 457 306 431 C 331 405 344 370 344 326 L 344 0 L 338 0 L 336 67 C 319 42 298 23 274 11 C 250 -1 222 -8 192 -8 Z M 192 -1 C 222 -1 249 5 274 19 C 298 32 319 51 336 77 L 336 263 L 205 248 C 161 243 125 229 99 205 C 73 181 60 153 60 119 C 60 83 72 54 97 32 C 121 10 153 -1 192 -1 Z M 192 524 L 183 524 L 282 649 L 292 649 L 192 524 Z" unicode="á" />
<glyph horiz-adv-x="416" d="M 192 -8 C 151 -8 117 3 91 27 C 65 50 52 81 52 119 C 52 155 66 185 94 210 C 122 235 158 250 204 255 L 336 270 L 336 326 C 336 368 324 401 300 426 C 276 450 245 463 207 463 C 185 463 161 458 136 450 C 110 441 88 429 70 415 L 70 424 C 88 438 110 449 135 457 C 160 465 184 470 207 470 C 248 470 281 457 306 431 C 331 405 344 370 344 326 L 344 0 L 338 0 L 336 67 C 319 42 298 23 274 11 C 250 -1 222 -8 192 -8 Z M 192 -1 C 222 -1 249 5 274 19 C 298 32 319 51 336 77 L 336 263 L 205 248 C 161 243 125 229 99 205 C 73 181 60 153 60 119 C 60 83 72 54 97 32 C 121 10 153 -1 192 -1 Z M 116 524 L 107 524 L 204 643 L 210 643 L 307 524 L 297 524 L 207 636 L 116 524 Z" unicode="â" />
<glyph horiz-adv-x="416" d="M 192 -8 C 151 -8 117 3 91 27 C 65 50 52 81 52 119 C 52 155 66 185 94 210 C 122 235 158 250 204 255 L 336 270 L 336 326 C 336 368 324 401 300 426 C 276 450 245 463 207 463 C 185 463 161 458 136 450 C 110 441 88 429 70 415 L 70 424 C 88 438 110 449 135 457 C 160 465 184 470 207 470 C 248 470 281 457 306 431 C 331 405 344 370 344 326 L 344 0 L 338 0 L 336 67 C 319 42 298 23 274 11 C 250 -1 222 -8 192 -8 Z M 192 -1 C 222 -1 249 5 274 19 C 298 32 319 51 336 77 L 336 263 L 205 248 C 161 243 125 229 99 205 C 73 181 60 153 60 119 C 60 83 72 54 97 32 C 121 10 153 -1 192 -1 Z M 90 548 L 83 548 C 85 568 92 582 103 591 C 113 600 126 605 142 605 C 152 605 162 602 171 598 C 180 594 192 586 207 574 C 221 562 233 554 241 550 C 249 546 258 544 268 544 C 282 544 293 548 302 557 C 310 565 316 579 320 597 L 327 597 C 323 575 316 560 306 551 C 296 541 283 537 268 537 C 257 537 247 539 238 543 C 229 547 217 556 203 568 C 188 579 176 587 168 591 C 160 595 151 598 142 598 C 128 598 116 593 107 585 C 98 577 92 564 90 548 Z" unicode="ã" />
<glyph horiz-adv-x="416" d="M 192 -8 C 151 -8 117 3 91 27 C 65 50 52 81 52 119 C 52 155 66 185 94 210 C 122 235 158 250 204 255 L 336 270 L 336 326 C 336 368 324 401 300 426 C 276 450 245 463 207 463 C 185 463 161 458 136 450 C 110 441 88 429 70 415 L 70 424 C 88 438 110 449 135 457 C 160 465 184 470 207 470 C 248 470 281 457 306 431 C 331 405 344 370 344 326 L 344 0 L 338 0 L 336 67 C 319 42 298 23 274 11 C 250 -1 222 -8 192 -8 Z M 192 -1 C 222 -1 249 5 274 19 C 298 32 319 51 336 77 L 336 263 L 205 248 C 161 243 125 229 99 205 C 73 181 60 153 60 119 C 60 83 72 54 97 32 C 121 10 153 -1 192 -1 Z M 131 548 L 131 568 L 151 568 L 151 548 L 131 548 Z M 263 548 L 263 568 L 283 568 L 283 548 L 263 548 Z" unicode="ä" />
<glyph horiz-adv-x="416" d="M 192 -8 C 151 -8 117 3 91 27 C 65 50 52 81 52 119 C 52 155 66 185 94 210 C 122 235 158 250 204 255 L 336 270 L 336 326 C 336 368 324 401 300 426 C 276 450 245 463 207 463 C 185 463 161 458 136 450 C 110 441 88 429 70 415 L 70 424 C 88 438 110 449 135 457 C 160 465 184 470 207 470 C 248 470 281 457 306 431 C 331 405 344 370 344 326 L 344 0 L 338 0 L 336 67 C 319 42 298 23 274 11 C 250 -1 222 -8 192 -8 Z M 192 -1 C 222 -1 249 5 274 19 C 298 32 319 51 336 77 L 336 263 L 205 248 C 161 243 125 229 99 205 C 73 181 60 153 60 119 C 60 83 72 54 97 32 C 121 10 153 -1 192 -1 Z M 207 513 C 191 513 177 518 167 528 C 156 538 151 552 151 568 C 151 584 156 597 167 607 C 177 617 191 623 207 623 C 223 623 236 617 247 607 C 257 597 263 584 263 568 C 263 552 257 538 247 528 C 236 518 223 513 207 513 Z M 207 520 C 221 520 232 524 241 534 C 250 543 255 554 255 568 C 255 581 250 592 241 602 C 232 611 221 616 207 616 C 193 616 181 611 172 602 C 163 592 159 581 159 568 C 159 554 163 543 172 534 C 181 524 193 520 207 520 Z" unicode="å" />
<glyph horiz-adv-x="765" d="M 184 -8 C 146 -8 114 3 89 27 C 64 50 52 81 52 119 C 52 163 66 196 96 218 C 126 240 165 252 213 252 L 336 252 L 336 307 C 336 358 324 397 300 423 C 276 449 245 463 207 463 C 185 463 161 458 136 450 C 110 441 88 429 70 415 L 70 424 C 88 438 110 449 135 457 C 160 465 184 470 207 470 C 246 470 278 456 303 430 C 328 404 341 365 343 313 C 355 364 378 403 411 430 C 443 456 482 470 527 470 C 582 470 626 450 660 410 C 694 370 711 317 711 252 L 711 245 L 344 245 L 344 244 L 344 218 C 344 162 359 112 391 67 C 422 21 470 -1 535 -1 C 565 -1 593 3 621 13 C 649 23 675 36 700 53 L 700 44 C 674 26 647 13 619 5 C 591 -3 563 -8 535 -8 C 483 -8 440 7 407 38 C 374 69 352 111 342 164 C 338 112 321 71 290 39 C 259 7 224 -8 184 -8 Z M 527 463 C 473 463 429 443 396 405 C 362 366 345 315 344 252 L 703 252 C 703 315 686 366 654 405 C 622 443 579 463 527 463 Z M 184 -1 C 228 -1 264 17 293 54 C 321 90 336 133 336 183 L 336 245 L 214 245 C 163 245 125 233 99 210 C 73 187 60 157 60 119 C 60 83 71 54 95 32 C 118 10 148 -1 184 -1 Z" unicode="æ" />
<glyph horiz-adv-x="469" d="M 275 -8 C 207 -8 153 13 112 57 C 70 101 50 158 50 230 C 50 301 70 359 110 403 C 150 447 203 470 269 470 C 294 470 319 466 345 459 C 370 452 394 442 417 430 L 417 422 C 393 435 368 445 343 452 C 318 459 293 463 269 463 C 205 463 154 441 116 398 C 77 355 58 299 58 230 C 58 160 78 104 118 62 C 158 20 210 -1 275 -1 C 297 -1 322 3 348 11 C 374 19 397 30 417 43 L 417 35 C 397 22 375 12 350 4 C 324 -4 299 -8 275 -8 Z M 232 -176 C 222 -176 213 -174 203 -172 C 193 -169 185 -166 179 -162 L 179 -154 C 186 -158 194 -162 204 -165 C 214 -167 223 -169 232 -169 C 250 -169 265 -163 276 -152 C 287 -141 293 -127 293 -111 C 293 -93 286 -80 274 -70 C 262 -60 246 -55 226 -55 L 220 -55 L 220 -48 L 226 -48 C 248 -48 266 -53 280 -65 C 294 -77 301 -92 301 -111 C 301 -129 294 -145 282 -157 C 269 -169 252 -176 232 -176 Z" unicode="ç" />
<glyph horiz-adv-x="492" d="M 262 -8 C 198 -8 147 14 108 58 C 69 102 50 161 50 233 C 50 304 68 361 105 405 C 142 448 192 470 254 470 C 308 470 353 450 387 410 C 421 370 438 317 438 252 L 438 250 L 58 250 C 58 248 58 245 58 243 C 58 241 58 238 58 236 L 58 231 C 58 161 76 105 114 63 C 152 20 201 -1 262 -1 C 292 -1 320 3 348 13 C 376 22 402 35 426 52 L 426 43 C 401 26 375 13 347 5 C 319 -3 290 -8 262 -8 Z M 254 463 C 198 463 152 444 117 406 C 81 368 62 319 59 257 L 430 257 C 430 319 413 368 381 406 C 348 444 306 463 254 463 Z M 267 524 L 167 649 L 177 649 L 276 524 L 267 524 Z" unicode="è" />
<glyph horiz-adv-x="492" d="M 262 -8 C 198 -8 147 14 108 58 C 69 102 50 161 50 233 C 50 304 68 361 105 405 C 142 448 192 470 254 470 C 308 470 353 450 387 410 C 421 370 438 317 438 252 L 438 250 L 58 250 C 58 248 58 245 58 243 C 58 241 58 238 58 236 L 58 231 C 58 161 76 105 114 63 C 152 20 201 -1 262 -1 C 292 -1 320 3 348 13 C 376 22 402 35 426 52 L 426 43 C 401 26 375 13 347 5 C 319 -3 290 -8 262 -8 Z M 254 463 C 198 463 152 444 117 406 C 81 368 62 319 59 257 L 430 257 C 430 319 413 368 381 406 C 348 444 306 463 254 463 Z M 236 524 L 227 524 L 326 649 L 336 649 L 236 524 Z" unicode="é" />
<glyph horiz-adv-x="492" d="M 262 -8 C 198 -8 147 14 108 58 C 69 102 50 161 50 233 C 50 304 68 361 105 405 C 142 448 192 470 254 470 C 308 470 353 450 387 410 C 421 370 438 317 438 252 L 438 250 L 58 250 C 58 248 58 245 58 243 C 58 241 58 238 58 236 L 58 231 C 58 161 76 105 114 63 C 152 20 201 -1 262 -1 C 292 -1 320 3 348 13 C 376 22 402 35 426 52 L 426 43 C 401 26 375 13 347 5 C 319 -3 290 -8 262 -8 Z M 254 463 C 198 463 152 444 117 406 C 81 368 62 319 59 257 L 430 257 C 430 319 413 368 381 406 C 348 444 306 463 254 463 Z M 160 524 L 151 524 L 248 643 L 254 643 L 351 524 L 341 524 L 251 636 L 160 524 Z" unicode="ê" />
<glyph horiz-adv-x="492" d="M 262 -8 C 198 -8 147 14 108 58 C 69 102 50 161 50 233 C 50 304 68 361 105 405 C 142 448 192 470 254 470 C 308 470 353 450 387 410 C 421 370 438 317 438 252 L 438 250 L 58 250 C 58 248 58 245 58 243 C 58 241 58 238 58 236 L 58 231 C 58 161 76 105 114 63 C 152 20 201 -1 262 -1 C 292 -1 320 3 348 13 C 376 22 402 35 426 52 L 426 43 C 401 26 375 13 347 5 C 319 -3 290 -8 262 -8 Z M 254 463 C 198 463 152 444 117 406 C 81 368 62 319 59 257 L 430 257 C 430 319 413 368 381 406 C 348 444 306 463 254 463 Z M 175 548 L 175 568 L 195 568 L 195 548 L 175 548 Z M 307 548 L 307 568 L 327 568 L 327 548 L 307 548 Z" unicode="ë" />
<glyph horiz-adv-x="160" d="M 76 0 L 76 462 L 84 462 L 84 0 L 76 0 Z M 95 524 L -5 649 L 5 649 L 104 524 L 95 524 Z" unicode="ì" />
<glyph horiz-adv-x="160" d="M 76 0 L 76 462 L 84 462 L 84 0 L 76 0 Z M 64 524 L 55 524 L 154 649 L 164 649 L 64 524 Z" unicode="í" />
<glyph horiz-adv-x="160" d="M 76 0 L 76 462 L 84 462 L 84 0 L 76 0 Z M -12 524 L -21 524 L 76 643 L 82 643 L 179 524 L 169 524 L 79 636 L -12 524 Z" unicode="î" />
<glyph horiz-adv-x="160" d="M 76 0 L 76 462 L 84 462 L 84 0 L 76 0 Z M 3 548 L 3 568 L 23 568 L 23 548 L 3 548 Z M 135 548 L 135 568 L 155 568 L 155 548 L 135 548 Z" unicode="ï" />
<glyph horiz-adv-x="550" d="M 267 -8 C 202 -8 150 14 110 58 C 70 102 50 159 50 231 C 50 302 71 360 113 404 C 155 448 210 470 278 470 C 337 470 386 451 424 414 C 462 377 485 332 491 278 C 490 347 477 412 451 473 C 425 534 388 590 338 642 L 246 611 L 244 618 L 332 647 C 316 663 299 678 281 693 C 263 708 243 722 223 736 L 228 742 C 248 727 268 712 287 697 C 305 681 323 666 339 650 L 426 679 L 428 672 L 345 644 C 395 592 433 534 459 472 C 485 409 498 343 498 274 C 498 190 476 122 434 70 C 392 18 336 -8 267 -8 Z M 267 -1 C 334 -1 388 24 428 75 C 468 125 489 187 489 261 C 481 325 458 374 419 410 C 380 445 333 463 278 463 C 212 463 158 441 118 399 C 78 356 58 300 58 231 C 58 161 77 105 116 63 C 154 20 205 -1 267 -1 Z" unicode="ð" />
<glyph horiz-adv-x="462" d="M 76 0 L 76 462 L 84 462 L 84 384 C 98 410 118 430 145 446 C 171 462 201 470 233 470 C 279 470 316 455 346 425 C 375 395 390 355 390 307 L 390 0 L 382 0 L 382 307 C 382 353 368 391 340 420 C 312 448 276 463 233 463 C 201 463 171 454 144 437 C 117 420 97 398 84 370 L 84 0 L 76 0 Z M 105 548 L 98 548 C 100 568 107 582 118 591 C 128 600 141 605 157 605 C 167 605 177 602 186 598 C 195 594 207 586 222 574 C 236 562 248 554 256 550 C 264 546 273 544 283 544 C 297 544 308 548 317 557 C 325 565 331 579 335 597 L 342 597 C 338 575 331 560 321 551 C 311 541 298 537 283 537 C 272 537 262 539 253 543 C 244 547 232 556 218 568 C 203 579 191 587 183 591 C 175 595 166 598 157 598 C 143 598 131 593 122 585 C 113 577 107 564 105 548 Z" unicode="ñ" />
<glyph horiz-adv-x="548" d="M 274 -8 C 207 -8 153 14 112 58 C 70 102 50 159 50 231 C 50 302 70 360 112 404 C 153 448 207 470 274 470 C 340 470 394 448 436 404 C 477 360 498 302 498 231 C 498 159 477 102 436 58 C 394 14 340 -8 274 -8 Z M 274 -1 C 338 -1 390 20 430 63 C 470 105 490 161 490 231 C 490 300 470 356 430 399 C 390 441 338 463 274 463 C 209 463 157 441 117 399 C 77 356 58 300 58 231 C 58 161 77 105 117 63 C 157 20 209 -1 274 -1 Z M 290 524 L 190 649 L 200 649 L 299 524 L 290 524 Z" unicode="ò" />
<glyph horiz-adv-x="548" d="M 274 -8 C 207 -8 153 14 112 58 C 70 102 50 159 50 231 C 50 302 70 360 112 404 C 153 448 207 470 274 470 C 340 470 394 448 436 404 C 477 360 498 302 498 231 C 498 159 477 102 436 58 C 394 14 340 -8 274 -8 Z M 274 -1 C 338 -1 390 20 430 63 C 470 105 490 161 490 231 C 490 300 470 356 430 399 C 390 441 338 463 274 463 C 209 463 157 441 117 399 C 77 356 58 300 58 231 C 58 161 77 105 117 63 C 157 20 209 -1 274 -1 Z M 259 524 L 250 524 L 349 649 L 359 649 L 259 524 Z" unicode="ó" />
<glyph horiz-adv-x="548" d="M 274 -8 C 207 -8 153 14 112 58 C 70 102 50 159 50 231 C 50 302 70 360 112 404 C 153 448 207 470 274 470 C 340 470 394 448 436 404 C 477 360 498 302 498 231 C 498 159 477 102 436 58 C 394 14 340 -8 274 -8 Z M 274 -1 C 338 -1 390 20 430 63 C 470 105 490 161 490 231 C 490 300 470 356 430 399 C 390 441 338 463 274 463 C 209 463 157 441 117 399 C 77 356 58 300 58 231 C 58 161 77 105 117 63 C 157 20 209 -1 274 -1 Z M 183 524 L 174 524 L 271 643 L 277 643 L 374 524 L 364 524 L 274 636 L 183 524 Z" unicode="ô" />
<glyph horiz-adv-x="548" d="M 274 -8 C 207 -8 153 14 112 58 C 70 102 50 159 50 231 C 50 302 70 360 112 404 C 153 448 207 470 274 470 C 340 470 394 448 436 404 C 477 360 498 302 498 231 C 498 159 477 102 436 58 C 394 14 340 -8 274 -8 Z M 274 -1 C 338 -1 390 20 430 63 C 470 105 490 161 490 231 C 490 300 470 356 430 399 C 390 441 338 463 274 463 C 209 463 157 441 117 399 C 77 356 58 300 58 231 C 58 161 77 105 117 63 C 157 20 209 -1 274 -1 Z M 157 548 L 150 548 C 152 568 159 582 170 591 C 180 600 193 605 209 605 C 219 605 229 602 238 598 C 247 594 259 586 274 574 C 288 562 300 554 308 550 C 316 546 325 544 335 544 C 349 544 360 548 369 557 C 377 565 383 579 387 597 L 394 597 C 390 575 383 560 373 551 C 363 541 350 537 335 537 C 324 537 314 539 305 543 C 296 547 284 556 270 568 C 255 579 243 587 235 591 C 227 595 218 598 209 598 C 195 598 183 593 174 585 C 165 577 159 564 157 548 Z" unicode="õ" />
<glyph horiz-adv-x="548" d="M 274 -8 C 207 -8 153 14 112 58 C 70 102 50 159 50 231 C 50 302 70 360 112 404 C 153 448 207 470 274 470 C 340 470 394 448 436 404 C 477 360 498 302 498 231 C 498 159 477 102 436 58 C 394 14 340 -8 274 -8 Z M 274 -1 C 338 -1 390 20 430 63 C 470 105 490 161 490 231 C 490 300 470 356 430 399 C 390 441 338 463 274 463 C 209 463 157 441 117 399 C 77 356 58 300 58 231 C 58 161 77 105 117 63 C 157 20 209 -1 274 -1 Z M 198 548 L 198 568 L 218 568 L 218 548 L 198 548 Z M 330 548 L 330 568 L 350 568 L 350 548 L 330 548 Z" unicode="ö" />
<glyph horiz-adv-x="532" d="M 257 453 L 257 473 L 277 473 L 277 453 L 257 453 Z M 52 284 L 52 291 L 480 291 L 480 284 L 52 284 Z M 257 102 L 257 122 L 277 122 L 277 102 L 257 102 Z" unicode="÷" />
<glyph horiz-adv-x="548" d="M 101 -48 L 438 510 L 446 510 L 109 -48 L 101 -48 Z M 274 -8 C 207 -8 153 14 112 58 C 70 102 50 159 50 231 C 50 302 70 360 112 404 C 153 448 207 470 274 470 C 340 470 394 448 436 404 C 477 360 498 302 498 231 C 498 159 477 102 436 58 C 394 14 340 -8 274 -8 Z M 274 -1 C 338 -1 390 20 430 63 C 470 105 490 161 490 231 C 490 300 470 356 430 399 C 390 441 338 463 274 463 C 209 463 157 441 117 399 C 77 356 58 300 58 231 C 58 161 77 105 117 63 C 157 20 209 -1 274 -1 Z" unicode="ø" />
<glyph horiz-adv-x="462" d="M 229 -8 C 183 -8 145 7 116 37 C 86 67 72 106 72 155 L 72 462 L 80 462 L 80 155 C 80 108 93 70 121 42 C 149 13 185 -1 229 -1 C 261 -1 291 7 318 24 C 344 41 364 64 378 92 L 378 462 L 386 462 L 386 0 L 380 0 L 378 78 C 364 52 343 31 316 15 C 289 0 260 -8 229 -8 Z M 243 524 L 143 649 L 153 649 L 252 524 L 243 524 Z" unicode="ù" />
<glyph horiz-adv-x="462" d="M 229 -8 C 183 -8 145 7 116 37 C 86 67 72 106 72 155 L 72 462 L 80 462 L 80 155 C 80 108 93 70 121 42 C 149 13 185 -1 229 -1 C 261 -1 291 7 318 24 C 344 41 364 64 378 92 L 378 462 L 386 462 L 386 0 L 380 0 L 378 78 C 364 52 343 31 316 15 C 289 0 260 -8 229 -8 Z M 212 524 L 203 524 L 302 649 L 312 649 L 212 524 Z" unicode="ú" />
<glyph horiz-adv-x="462" d="M 229 -8 C 183 -8 145 7 116 37 C 86 67 72 106 72 155 L 72 462 L 80 462 L 80 155 C 80 108 93 70 121 42 C 149 13 185 -1 229 -1 C 261 -1 291 7 318 24 C 344 41 364 64 378 92 L 378 462 L 386 462 L 386 0 L 380 0 L 378 78 C 364 52 343 31 316 15 C 289 0 260 -8 229 -8 Z M 136 524 L 127 524 L 224 643 L 230 643 L 327 524 L 317 524 L 227 636 L 136 524 Z" unicode="û" />
<glyph horiz-adv-x="462" d="M 229 -8 C 183 -8 145 7 116 37 C 86 67 72 106 72 155 L 72 462 L 80 462 L 80 155 C 80 108 93 70 121 42 C 149 13 185 -1 229 -1 C 261 -1 291 7 318 24 C 344 41 364 64 378 92 L 378 462 L 386 462 L 386 0 L 380 0 L 378 78 C 364 52 343 31 316 15 C 289 0 260 -8 229 -8 Z M 151 548 L 151 568 L 171 568 L 171 548 L 151 548 Z M 283 548 L 283 568 L 303 568 L 303 548 L 283 548 Z" unicode="ü" />
<glyph horiz-adv-x="418" d="M -4 -220 L -12 -220 L -12 -213 L -4 -213 C 39 -213 77 -196 109 -163 C 141 -130 174 -76 206 -1 L 205 1 L 16 462 L 25 462 L 185 71 L 210 10 L 234 71 L 394 462 L 402 462 L 213 0 C 180 -78 147 -135 114 -169 C 80 -203 41 -220 -4 -220 Z M 204 524 L 195 524 L 294 649 L 304 649 L 204 524 Z" unicode="ý" />
<glyph horiz-adv-x="489" d="M 76 -220 L 76 724 L 84 724 L 84 412 C 106 430 129 445 155 455 C 180 465 207 470 235 470 C 297 470 346 448 383 405 C 420 361 439 305 439 235 C 439 162 419 103 379 58 C 339 13 290 -9 230 -9 C 205 -9 179 -4 152 6 C 125 16 102 29 84 45 L 84 -220 L 76 -220 Z M 230 -2 C 288 -2 336 19 374 63 C 412 106 431 163 431 235 C 431 303 413 358 377 400 C 341 442 294 463 235 463 C 207 463 181 457 155 447 C 129 437 106 422 84 402 L 84 55 C 102 38 125 24 152 14 C 179 3 205 -2 230 -2 Z" unicode="þ" />
<glyph horiz-adv-x="418" d="M -4 -220 L -12 -220 L -12 -213 L -4 -213 C 39 -213 77 -196 109 -163 C 141 -130 174 -76 206 -1 L 205 1 L 16 462 L 25 462 L 185 71 L 210 10 L 234 71 L 394 462 L 402 462 L 213 0 C 180 -78 147 -135 114 -169 C 80 -203 41 -220 -4 -220 Z M 143 548 L 143 568 L 163 568 L 163 548 L 143 548 Z M 275 548 L 275 568 L 295 568 L 295 548 L 275 548 Z" unicode="ÿ" />
<glyph horiz-adv-x="576" d="M 24 0 L 285 670 L 291 670 L 552 0 L 543 0 L 441 263 L 134 263 L 32 0 L 24 0 Z M 265 598 L 137 270 L 438 270 L 310 598 L 288 657 L 265 598 Z M 191 732 L 191 739 L 385 739 L 385 732 L 191 732 Z" unicode="Ā" />
<glyph horiz-adv-x="416" d="M 192 -8 C 151 -8 117 3 91 27 C 65 50 52 81 52 119 C 52 155 66 185 94 210 C 122 235 158 250 204 255 L 336 270 L 336 326 C 336 368 324 401 300 426 C 276 450 245 463 207 463 C 185 463 161 458 136 450 C 110 441 88 429 70 415 L 70 424 C 88 438 110 449 135 457 C 160 465 184 470 207 470 C 248 470 281 457 306 431 C 331 405 344 370 344 326 L 344 0 L 338 0 L 336 67 C 319 42 298 23 274 11 C 250 -1 222 -8 192 -8 Z M 192 -1 C 222 -1 249 5 274 19 C 298 32 319 51 336 77 L 336 263 L 205 248 C 161 243 125 229 99 205 C 73 181 60 153 60 119 C 60 83 72 54 97 32 C 121 10 153 -1 192 -1 Z M 111 556 L 111 563 L 305 563 L 305 556 L 111 556 Z" unicode="ā" />
<glyph horiz-adv-x="576" d="M 24 0 L 285 670 L 291 670 L 552 0 L 543 0 L 441 263 L 134 263 L 32 0 L 24 0 Z M 265 598 L 137 270 L 438 270 L 310 598 L 288 657 L 265 598 Z M 288 716 C 256 716 231 727 212 749 C 192 771 183 801 183 837 L 190 837 C 190 803 199 775 217 755 C 235 734 258 724 288 724 C 317 724 341 734 359 755 C 377 775 386 803 386 837 L 393 837 C 393 801 383 771 364 749 C 344 727 319 716 288 716 Z" unicode="Ă" />
<glyph horiz-adv-x="416" d="M 192 -8 C 151 -8 117 3 91 27 C 65 50 52 81 52 119 C 52 155 66 185 94 210 C 122 235 158 250 204 255 L 336 270 L 336 326 C 336 368 324 401 300 426 C 276 450 245 463 207 463 C 185 463 161 458 136 450 C 110 441 88 429 70 415 L 70 424 C 88 438 110 449 135 457 C 160 465 184 470 207 470 C 248 470 281 457 306 431 C 331 405 344 370 344 326 L 344 0 L 338 0 L 336 67 C 319 42 298 23 274 11 C 250 -1 222 -8 192 -8 Z M 192 -1 C 222 -1 249 5 274 19 C 298 32 319 51 336 77 L 336 263 L 205 248 C 161 243 125 229 99 205 C 73 181 60 153 60 119 C 60 83 72 54 97 32 C 121 10 153 -1 192 -1 Z M 208 516 C 176 516 151 527 132 549 C 112 571 103 601 103 637 L 110 637 C 110 603 119 575 137 555 C 155 534 178 524 208 524 C 237 524 261 534 279 555 C 297 575 306 603 306 637 L 313 637 C 313 601 303 571 284 549 C 264 527 239 516 208 516 Z" unicode="ă" />
<glyph horiz-adv-x="576" d="M 24 0 L 285 670 L 291 670 L 552 0 L 543 0 L 441 263 L 134 263 L 32 0 L 24 0 Z M 265 598 L 137 270 L 438 270 L 310 598 L 288 657 L 265 598 Z M 558 -220 C 518 -220 486 -209 462 -189 C 437 -169 425 -142 425 -110 C 425 -79 436 -53 458 -32 C 480 -11 510 1 546 7 L 546 0 C 513 -4 486 -17 465 -37 C 443 -57 433 -81 433 -110 C 433 -140 444 -165 467 -184 C 490 -203 520 -213 558 -213 L 558 -220 Z" unicode="Ą" />
<glyph horiz-adv-x="416" d="M 192 -8 C 151 -8 117 3 91 27 C 65 50 52 81 52 119 C 52 155 66 185 94 210 C 122 235 158 250 204 255 L 336 270 L 336 326 C 336 368 324 401 300 426 C 276 450 245 463 207 463 C 185 463 161 458 136 450 C 110 441 88 429 70 415 L 70 424 C 88 438 110 449 135 457 C 160 465 184 470 207 470 C 248 470 281 457 306 431 C 331 405 344 370 344 326 L 344 0 L 338 0 L 336 67 C 319 42 298 23 274 11 C 250 -1 222 -8 192 -8 Z M 192 -1 C 222 -1 249 5 274 19 C 298 32 319 51 336 77 L 336 263 L 205 248 C 161 243 125 229 99 205 C 73 181 60 153 60 119 C 60 83 72 54 97 32 C 121 10 153 -1 192 -1 Z M 348 -220 C 318 -220 293 -212 275 -196 C 257 -180 248 -160 248 -136 C 248 -110 255 -87 269 -68 C 283 -49 308 -24 343 6 L 348 0 C 314 -29 290 -53 276 -72 C 262 -91 256 -112 256 -136 C 256 -159 265 -177 283 -191 C 301 -205 323 -212 348 -212 L 348 -220 Z" unicode="ą" />
<glyph horiz-adv-x="651" d="M 395 -8 C 295 -8 214 22 152 84 C 90 146 60 227 60 328 C 60 428 90 510 152 572 C 214 634 295 666 395 666 C 430 666 465 662 499 655 C 533 647 567 636 600 622 L 600 614 C 567 628 534 639 500 647 C 466 655 431 659 395 659 C 297 659 218 628 158 568 C 98 507 68 427 68 328 C 68 230 98 150 158 90 C 218 29 297 -1 395 -1 C 432 -1 468 3 504 13 C 540 22 574 36 607 55 L 607 47 C 574 29 540 15 504 6 C 468 -3 431 -8 395 -8 Z M 379 724 L 370 724 L 469 849 L 479 849 L 379 724 Z" unicode="Ć" />
<glyph horiz-adv-x="469" d="M 275 -8 C 207 -8 153 13 112 57 C 70 101 50 158 50 230 C 50 301 70 359 110 403 C 150 447 203 470 269 470 C 294 470 319 466 345 459 C 370 452 394 442 417 430 L 417 422 C 393 435 368 445 343 452 C 318 459 293 463 269 463 C 205 463 154 441 116 398 C 77 355 58 299 58 230 C 58 160 78 104 118 62 C 158 20 210 -1 275 -1 C 297 -1 322 3 348 11 C 374 19 397 30 417 43 L 417 35 C 397 22 375 12 350 4 C 324 -4 299 -8 275 -8 Z M 249 524 L 240 524 L 339 649 L 349 649 L 249 524 Z" unicode="ć" />
<glyph horiz-adv-x="651" d="M 395 -8 C 295 -8 214 22 152 84 C 90 146 60 227 60 328 C 60 428 90 510 152 572 C 214 634 295 666 395 666 C 430 666 465 662 499 655 C 533 647 567 636 600 622 L 600 614 C 567 628 534 639 500 647 C 466 655 431 659 395 659 C 297 659 218 628 158 568 C 98 507 68 427 68 328 C 68 230 98 150 158 90 C 218 29 297 -1 395 -1 C 432 -1 468 3 504 13 C 540 22 574 36 607 55 L 607 47 C 574 29 540 15 504 6 C 468 -3 431 -8 395 -8 Z M 303 724 L 294 724 L 391 843 L 397 843 L 494 724 L 484 724 L 394 836 L 303 724 Z" unicode="Ĉ" />
<glyph horiz-adv-x="469" d="M 275 -8 C 207 -8 153 13 112 57 C 70 101 50 158 50 230 C 50 301 70 359 110 403 C 150 447 203 470 269 470 C 294 470 319 466 345 459 C 370 452 394 442 417 430 L 417 422 C 393 435 368 445 343 452 C 318 459 293 463 269 463 C 205 463 154 441 116 398 C 77 355 58 299 58 230 C 58 160 78 104 118 62 C 158 20 210 -1 275 -1 C 297 -1 322 3 348 11 C 374 19 397 30 417 43 L 417 35 C 397 22 375 12 350 4 C 324 -4 299 -8 275 -8 Z M 173 524 L 164 524 L 261 643 L 267 643 L 364 524 L 354 524 L 264 636 L 173 524 Z" unicode="ĉ" />
<glyph horiz-adv-x="651" d="M 395 -8 C 295 -8 214 22 152 84 C 90 146 60 227 60 328 C 60 428 90 510 152 572 C 214 634 295 666 395 666 C 430 666 465 662 499 655 C 533 647 567 636 600 622 L 600 614 C 567 628 534 639 500 647 C 466 655 431 659 395 659 C 297 659 218 628 158 568 C 98 507 68 427 68 328 C 68 230 98 150 158 90 C 218 29 297 -1 395 -1 C 432 -1 468 3 504 13 C 540 22 574 36 607 55 L 607 47 C 574 29 540 15 504 6 C 468 -3 431 -8 395 -8 Z M 382 724 L 382 744 L 402 744 L 402 724 L 382 724 Z" unicode="Ċ" />
<glyph horiz-adv-x="469" d="M 275 -8 C 207 -8 153 13 112 57 C 70 101 50 158 50 230 C 50 301 70 359 110 403 C 150 447 203 470 269 470 C 294 470 319 466 345 459 C 370 452 394 442 417 430 L 417 422 C 393 435 368 445 343 452 C 318 459 293 463 269 463 C 205 463 154 441 116 398 C 77 355 58 299 58 230 C 58 160 78 104 118 62 C 158 20 210 -1 275 -1 C 297 -1 322 3 348 11 C 374 19 397 30 417 43 L 417 35 C 397 22 375 12 350 4 C 324 -4 299 -8 275 -8 Z M 256 548 L 256 568 L 276 568 L 276 548 L 256 548 Z" unicode="ċ" />
<glyph horiz-adv-x="651" d="M 395 -8 C 295 -8 214 22 152 84 C 90 146 60 227 60 328 C 60 428 90 510 152 572 C 214 634 295 666 395 666 C 430 666 465 662 499 655 C 533 647 567 636 600 622 L 600 614 C 567 628 534 639 500 647 C 466 655 431 659 395 659 C 297 659 218 628 158 568 C 98 507 68 427 68 328 C 68 230 98 150 158 90 C 218 29 297 -1 395 -1 C 432 -1 468 3 504 13 C 540 22 574 36 607 55 L 607 47 C 574 29 540 15 504 6 C 468 -3 431 -8 395 -8 Z M 391 716 L 294 835 L 304 835 L 395 722 L 487 835 L 496 835 L 399 716 L 391 716 Z" unicode="Č" />
<glyph horiz-adv-x="469" d="M 275 -8 C 207 -8 153 13 112 57 C 70 101 50 158 50 230 C 50 301 70 359 110 403 C 150 447 203 470 269 470 C 294 470 319 466 345 459 C 370 452 394 442 417 430 L 417 422 C 393 435 368 445 343 452 C 318 459 293 463 269 463 C 205 463 154 441 116 398 C 77 355 58 299 58 230 C 58 160 78 104 118 62 C 158 20 210 -1 275 -1 C 297 -1 322 3 348 11 C 374 19 397 30 417 43 L 417 35 C 397 22 375 12 350 4 C 324 -4 299 -8 275 -8 Z M 261 524 L 164 643 L 174 643 L 265 530 L 357 643 L 366 643 L 269 524 L 261 524 Z" unicode="č" />
<glyph horiz-adv-x="680" d="M 92 0 L 92 658 L 263 658 C 369 658 455 628 521 569 C 587 510 620 433 620 337 C 620 236 586 155 519 93 C 451 31 363 0 255 0 L 92 0 Z M 100 7 L 256 7 C 362 7 448 37 514 98 C 579 158 612 238 612 337 C 612 430 580 506 516 564 C 452 622 368 651 264 651 L 100 651 L 100 7 Z M 282 716 L 185 835 L 195 835 L 286 722 L 378 835 L 387 835 L 290 716 L 282 716 Z" unicode="Ď" />
<glyph horiz-adv-x="604" d="M 255 -8 C 194 -8 145 14 107 58 C 69 102 50 160 50 232 C 50 303 69 360 109 404 C 149 448 199 470 261 470 C 289 470 317 464 344 454 C 370 443 394 429 414 411 L 414 724 L 422 724 L 422 0 L 416 0 L 414 67 C 395 44 372 26 345 12 C 317 -1 287 -8 255 -8 Z M 255 -1 C 284 -1 313 5 341 18 C 369 31 393 50 414 76 L 414 402 C 391 422 367 437 341 447 C 315 457 288 463 261 463 C 202 463 153 441 115 399 C 77 357 58 301 58 232 C 58 162 76 106 113 63 C 149 20 197 -1 255 -1 Z M 494 572 L 489 577 C 505 595 516 614 522 633 C 528 651 532 672 532 694 L 532 724 L 540 724 L 540 694 C 540 670 537 649 531 631 C 525 612 512 592 494 572 Z" unicode="ď" />
<glyph horiz-adv-x="680" d="M 14 332 L 14 339 L 254 339 L 254 332 L 14 332 Z M 98 0 L 98 658 L 269 658 C 375 658 461 628 527 569 C 593 510 626 433 626 337 C 626 236 592 155 525 93 C 457 31 369 0 261 0 L 98 0 Z M 106 7 L 262 7 C 368 7 454 37 520 98 C 585 158 618 238 618 337 C 618 430 586 506 522 564 C 458 622 374 651 270 651 L 106 651 L 106 7 Z" unicode="Đ" />
<glyph horiz-adv-x="498" d="M 311 606 L 311 614 L 496 614 L 496 606 L 311 606 Z M 255 -8 C 194 -8 145 14 107 58 C 69 102 50 160 50 232 C 50 303 69 360 109 404 C 149 448 199 470 261 470 C 289 470 317 464 344 454 C 370 443 394 429 414 411 L 414 724 L 422 724 L 422 0 L 416 0 L 414 67 C 395 44 372 26 345 12 C 317 -1 287 -8 255 -8 Z M 255 -1 C 284 -1 313 5 341 18 C 369 31 393 50 414 76 L 414 402 C 391 422 367 437 341 447 C 315 457 288 463 261 463 C 202 463 153 441 115 399 C 77 357 58 301 58 232 C 58 162 76 106 113 63 C 149 20 197 -1 255 -1 Z" unicode="đ" />
<glyph horiz-adv-x="483" d="M 92 0 L 92 658 L 407 658 L 407 651 L 100 651 L 100 337 L 391 337 L 391 330 L 100 330 L 100 7 L 419 7 L 419 0 L 92 0 Z M 158 732 L 158 739 L 352 739 L 352 732 L 158 732 Z" unicode="Ē" />
<glyph horiz-adv-x="492" d="M 262 -8 C 198 -8 147 14 108 58 C 69 102 50 161 50 233 C 50 304 68 361 105 405 C 142 448 192 470 254 470 C 308 470 353 450 387 410 C 421 370 438 317 438 252 L 438 250 L 58 250 C 58 248 58 245 58 243 C 58 241 58 238 58 236 L 58 231 C 58 161 76 105 114 63 C 152 20 201 -1 262 -1 C 292 -1 320 3 348 13 C 376 22 402 35 426 52 L 426 43 C 401 26 375 13 347 5 C 319 -3 290 -8 262 -8 Z M 254 463 C 198 463 152 444 117 406 C 81 368 62 319 59 257 L 430 257 C 430 319 413 368 381 406 C 348 444 306 463 254 463 Z M 155 556 L 155 563 L 349 563 L 349 556 L 155 556 Z" unicode="ē" />
<glyph horiz-adv-x="483" d="M 92 0 L 92 658 L 407 658 L 407 651 L 100 651 L 100 337 L 391 337 L 391 330 L 100 330 L 100 7 L 419 7 L 419 0 L 92 0 Z M 255 716 C 223 716 198 727 179 749 C 159 771 150 801 150 837 L 157 837 C 157 803 166 775 184 755 C 202 734 225 724 255 724 C 284 724 308 734 326 755 C 344 775 353 803 353 837 L 360 837 C 360 801 350 771 331 749 C 311 727 286 716 255 716 Z" unicode="Ĕ" />
<glyph horiz-adv-x="492" d="M 262 -8 C 198 -8 147 14 108 58 C 69 102 50 161 50 233 C 50 304 68 361 105 405 C 142 448 192 470 254 470 C 308 470 353 450 387 410 C 421 370 438 317 438 252 L 438 250 L 58 250 C 58 248 58 245 58 243 C 58 241 58 238 58 236 L 58 231 C 58 161 76 105 114 63 C 152 20 201 -1 262 -1 C 292 -1 320 3 348 13 C 376 22 402 35 426 52 L 426 43 C 401 26 375 13 347 5 C 319 -3 290 -8 262 -8 Z M 254 463 C 198 463 152 444 117 406 C 81 368 62 319 59 257 L 430 257 C 430 319 413 368 381 406 C 348 444 306 463 254 463 Z M 252 516 C 220 516 195 527 176 549 C 156 571 147 601 147 637 L 154 637 C 154 603 163 575 181 555 C 199 534 222 524 252 524 C 281 524 305 534 323 555 C 341 575 350 603 350 637 L 357 637 C 357 601 347 571 328 549 C 308 527 283 516 252 516 Z" unicode="ĕ" />
<glyph horiz-adv-x="483" d="M 92 0 L 92 658 L 407 658 L 407 651 L 100 651 L 100 337 L 391 337 L 391 330 L 100 330 L 100 7 L 419 7 L 419 0 L 92 0 Z M 242 724 L 242 744 L 262 744 L 262 724 L 242 724 Z" unicode="Ė" />
<glyph horiz-adv-x="492" d="M 262 -8 C 198 -8 147 14 108 58 C 69 102 50 161 50 233 C 50 304 68 361 105 405 C 142 448 192 470 254 470 C 308 470 353 450 387 410 C 421 370 438 317 438 252 L 438 250 L 58 250 C 58 248 58 245 58 243 C 58 241 58 238 58 236 L 58 231 C 58 161 76 105 114 63 C 152 20 201 -1 262 -1 C 292 -1 320 3 348 13 C 376 22 402 35 426 52 L 426 43 C 401 26 375 13 347 5 C 319 -3 290 -8 262 -8 Z M 254 463 C 198 463 152 444 117 406 C 81 368 62 319 59 257 L 430 257 C 430 319 413 368 381 406 C 348 444 306 463 254 463 Z M 243 548 L 243 568 L 263 568 L 263 548 L 243 548 Z" unicode="ė" />
<glyph horiz-adv-x="483" d="M 92 0 L 92 658 L 407 658 L 407 651 L 100 651 L 100 337 L 391 337 L 391 330 L 100 330 L 100 7 L 419 7 L 419 0 L 92 0 Z M 432 -220 C 392 -220 360 -209 336 -189 C 311 -169 299 -142 299 -110 C 299 -79 310 -53 332 -32 C 354 -11 384 1 420 7 L 420 0 C 387 -4 360 -17 339 -37 C 317 -57 307 -81 307 -110 C 307 -140 318 -165 341 -184 C 364 -203 394 -213 432 -213 L 432 -220 Z" unicode="Ę" />
<glyph horiz-adv-x="503" d="M 449 -220 C 393 -220 351 -208 324 -185 C 297 -162 284 -132 284 -95 C 284 -74 288 -55 297 -39 C 306 -22 319 -8 337 2 C 325 -1 312 -3 300 -5 C 287 -7 274 -8 262 -8 C 198 -8 147 14 108 58 C 69 102 50 161 50 233 C 50 304 68 361 105 405 C 142 448 192 470 254 470 C 308 470 353 450 387 410 C 421 370 438 317 438 252 L 438 250 L 58 250 C 58 248 58 245 58 243 C 58 241 58 238 58 236 L 58 231 C 58 161 76 105 114 63 C 152 20 201 -1 262 -1 C 292 -1 320 3 348 13 C 376 22 402 35 426 52 L 426 43 C 414 35 404 29 396 25 C 388 21 377 16 364 10 C 340 0 322 -15 310 -33 C 298 -51 292 -72 292 -95 C 292 -129 304 -157 330 -179 C 356 -201 395 -212 449 -212 L 449 -220 Z M 254 463 C 198 463 152 444 117 406 C 81 368 62 319 59 257 L 430 257 C 430 319 413 368 381 406 C 348 444 306 463 254 463 Z" unicode="ę" />
<glyph horiz-adv-x="483" d="M 92 0 L 92 658 L 407 658 L 407 651 L 100 651 L 100 337 L 391 337 L 391 330 L 100 330 L 100 7 L 419 7 L 419 0 L 92 0 Z M 251 716 L 154 835 L 164 835 L 255 722 L 347 835 L 356 835 L 259 716 L 251 716 Z" unicode="Ě" />
<glyph horiz-adv-x="492" d="M 262 -8 C 198 -8 147 14 108 58 C 69 102 50 161 50 233 C 50 304 68 361 105 405 C 142 448 192 470 254 470 C 308 470 353 450 387 410 C 421 370 438 317 438 252 L 438 250 L 58 250 C 58 248 58 245 58 243 C 58 241 58 238 58 236 L 58 231 C 58 161 76 105 114 63 C 152 20 201 -1 262 -1 C 292 -1 320 3 348 13 C 376 22 402 35 426 52 L 426 43 C 401 26 375 13 347 5 C 319 -3 290 -8 262 -8 Z M 254 463 C 198 463 152 444 117 406 C 81 368 62 319 59 257 L 430 257 C 430 319 413 368 381 406 C 348 444 306 463 254 463 Z M 248 524 L 151 643 L 161 643 L 252 530 L 344 643 L 353 643 L 256 524 L 248 524 Z" unicode="ě" />
<glyph horiz-adv-x="686" d="M 388 -8 C 291 -8 212 23 151 85 C 90 147 60 229 60 330 C 60 430 90 511 152 573 C 214 635 294 666 392 666 C 427 666 462 662 496 655 C 530 647 564 636 597 622 L 597 614 C 564 628 530 639 495 647 C 460 655 426 659 392 659 C 296 659 218 628 158 568 C 98 507 68 428 68 330 C 68 231 97 151 157 90 C 217 29 294 -1 388 -1 C 427 -1 465 2 503 9 C 540 15 575 26 608 40 L 608 293 L 447 293 L 447 300 L 616 300 L 616 36 C 582 21 546 10 508 3 C 469 -4 429 -8 388 -8 Z M 296 724 L 287 724 L 384 843 L 390 843 L 487 724 L 477 724 L 387 836 L 296 724 Z" unicode="Ĝ" />
<glyph horiz-adv-x="500" d="M 225 -228 C 199 -228 171 -222 143 -212 C 114 -202 89 -189 67 -174 L 67 -166 C 89 -182 115 -195 144 -205 C 173 -215 200 -221 225 -221 C 283 -221 329 -202 364 -165 C 398 -128 416 -79 416 -17 L 416 67 C 397 44 374 26 347 12 C 319 -1 289 -8 257 -8 C 196 -8 147 14 109 58 C 71 102 52 160 52 232 C 52 303 71 360 111 404 C 151 448 201 470 263 470 C 291 470 319 464 346 454 C 372 443 396 429 416 411 L 418 462 L 424 462 L 424 -17 C 424 -81 405 -132 369 -170 C 333 -208 285 -228 225 -228 Z M 257 -1 C 286 -1 315 5 343 18 C 371 31 395 50 416 76 L 416 402 C 393 422 369 437 343 447 C 317 457 290 463 263 463 C 204 463 155 441 117 399 C 79 357 60 301 60 232 C 60 162 78 106 115 63 C 151 20 199 -1 257 -1 Z M 167 524 L 158 524 L 255 643 L 261 643 L 358 524 L 348 524 L 258 636 L 167 524 Z" unicode="ĝ" />
<glyph horiz-adv-x="686" d="M 388 -8 C 291 -8 212 23 151 85 C 90 147 60 229 60 330 C 60 430 90 511 152 573 C 214 635 294 666 392 666 C 427 666 462 662 496 655 C 530 647 564 636 597 622 L 597 614 C 564 628 530 639 495 647 C 460 655 426 659 392 659 C 296 659 218 628 158 568 C 98 507 68 428 68 330 C 68 231 97 151 157 90 C 217 29 294 -1 388 -1 C 427 -1 465 2 503 9 C 540 15 575 26 608 40 L 608 293 L 447 293 L 447 300 L 616 300 L 616 36 C 582 21 546 10 508 3 C 469 -4 429 -8 388 -8 Z M 388 716 C 356 716 331 727 312 749 C 292 771 283 801 283 837 L 290 837 C 290 803 299 775 317 755 C 335 734 358 724 388 724 C 417 724 441 734 459 755 C 477 775 486 803 486 837 L 493 837 C 493 801 483 771 464 749 C 444 727 419 716 388 716 Z" unicode="Ğ" />
<glyph horiz-adv-x="500" d="M 225 -228 C 199 -228 171 -222 143 -212 C 114 -202 89 -189 67 -174 L 67 -166 C 89 -182 115 -195 144 -205 C 173 -215 200 -221 225 -221 C 283 -221 329 -202 364 -165 C 398 -128 416 -79 416 -17 L 416 67 C 397 44 374 26 347 12 C 319 -1 289 -8 257 -8 C 196 -8 147 14 109 58 C 71 102 52 160 52 232 C 52 303 71 360 111 404 C 151 448 201 470 263 470 C 291 470 319 464 346 454 C 372 443 396 429 416 411 L 418 462 L 424 462 L 424 -17 C 424 -81 405 -132 369 -170 C 333 -208 285 -228 225 -228 Z M 257 -1 C 286 -1 315 5 343 18 C 371 31 395 50 416 76 L 416 402 C 393 422 369 437 343 447 C 317 457 290 463 263 463 C 204 463 155 441 117 399 C 79 357 60 301 60 232 C 60 162 78 106 115 63 C 151 20 199 -1 257 -1 Z M 259 516 C 227 516 202 527 183 549 C 163 571 154 601 154 637 L 161 637 C 161 603 170 575 188 555 C 206 534 229 524 259 524 C 288 524 312 534 330 555 C 348 575 357 603 357 637 L 364 637 C 364 601 354 571 335 549 C 315 527 290 516 259 516 Z" unicode="ğ" />
<glyph horiz-adv-x="686" d="M 388 -8 C 291 -8 212 23 151 85 C 90 147 60 229 60 330 C 60 430 90 511 152 573 C 214 635 294 666 392 666 C 427 666 462 662 496 655 C 530 647 564 636 597 622 L 597 614 C 564 628 530 639 495 647 C 460 655 426 659 392 659 C 296 659 218 628 158 568 C 98 507 68 428 68 330 C 68 231 97 151 157 90 C 217 29 294 -1 388 -1 C 427 -1 465 2 503 9 C 540 15 575 26 608 40 L 608 293 L 447 293 L 447 300 L 616 300 L 616 36 C 582 21 546 10 508 3 C 469 -4 429 -8 388 -8 Z M 375 724 L 375 744 L 395 744 L 395 724 L 375 724 Z" unicode="Ġ" />
<glyph horiz-adv-x="500" d="M 225 -228 C 199 -228 171 -222 143 -212 C 114 -202 89 -189 67 -174 L 67 -166 C 89 -182 115 -195 144 -205 C 173 -215 200 -221 225 -221 C 283 -221 329 -202 364 -165 C 398 -128 416 -79 416 -17 L 416 67 C 397 44 374 26 347 12 C 319 -1 289 -8 257 -8 C 196 -8 147 14 109 58 C 71 102 52 160 52 232 C 52 303 71 360 111 404 C 151 448 201 470 263 470 C 291 470 319 464 346 454 C 372 443 396 429 416 411 L 418 462 L 424 462 L 424 -17 C 424 -81 405 -132 369 -170 C 333 -208 285 -228 225 -228 Z M 257 -1 C 286 -1 315 5 343 18 C 371 31 395 50 416 76 L 416 402 C 393 422 369 437 343 447 C 317 457 290 463 263 463 C 204 463 155 441 117 399 C 79 357 60 301 60 232 C 60 162 78 106 115 63 C 151 20 199 -1 257 -1 Z M 250 548 L 250 568 L 270 568 L 270 548 L 250 548 Z" unicode="ġ" />
<glyph horiz-adv-x="686" d="M 388 -8 C 291 -8 212 23 151 85 C 90 147 60 229 60 330 C 60 430 90 511 152 573 C 214 635 294 666 392 666 C 427 666 462 662 496 655 C 530 647 564 636 597 622 L 597 614 C 564 628 530 639 495 647 C 460 655 426 659 392 659 C 296 659 218 628 158 568 C 98 507 68 428 68 330 C 68 231 97 151 157 90 C 217 29 294 -1 388 -1 C 427 -1 465 2 503 9 C 540 15 575 26 608 40 L 608 293 L 447 293 L 447 300 L 616 300 L 616 36 C 582 21 546 10 508 3 C 469 -4 429 -8 388 -8 Z M 345 -200 L 340 -195 C 356 -176 367 -157 373 -139 C 379 -120 383 -100 383 -78 L 383 -48 L 391 -48 L 391 -78 C 391 -101 388 -122 382 -141 C 376 -159 363 -179 345 -200 Z" unicode="Ģ" />
<glyph horiz-adv-x="500" d="M 225 -228 C 199 -228 171 -222 143 -212 C 114 -202 89 -189 67 -174 L 67 -166 C 89 -182 115 -195 144 -205 C 173 -215 200 -221 225 -221 C 283 -221 329 -202 364 -165 C 398 -128 416 -79 416 -17 L 416 67 C 397 44 374 26 347 12 C 319 -1 289 -8 257 -8 C 196 -8 147 14 109 58 C 71 102 52 160 52 232 C 52 303 71 360 111 404 C 151 448 201 470 263 470 C 291 470 319 464 346 454 C 372 443 396 429 416 411 L 418 462 L 424 462 L 424 -17 C 424 -81 405 -132 369 -170 C 333 -208 285 -228 225 -228 Z M 257 -1 C 286 -1 315 5 343 18 C 371 31 395 50 416 76 L 416 402 C 393 422 369 437 343 447 C 317 457 290 463 263 463 C 204 463 155 441 117 399 C 79 357 60 301 60 232 C 60 162 78 106 115 63 C 151 20 199 -1 257 -1 Z M 300 676 L 305 671 C 289 652 277 633 271 615 C 265 596 262 576 262 554 L 262 524 L 254 524 L 254 554 C 254 577 257 598 263 617 C 269 635 281 655 300 676 Z" unicode="ģ" />
<glyph horiz-adv-x="665" d="M 92 0 L 92 658 L 100 658 L 100 339 L 565 339 L 565 658 L 573 658 L 573 0 L 565 0 L 565 332 L 100 332 L 100 0 L 92 0 Z M 241 724 L 232 724 L 329 843 L 335 843 L 432 724 L 422 724 L 332 836 L 241 724 Z" unicode="Ĥ" />
<glyph horiz-adv-x="462" d="M 76 0 L 76 724 L 84 724 L 84 384 C 98 410 118 430 145 446 C 171 462 201 470 233 470 C 279 470 316 455 346 425 C 375 395 390 355 390 307 L 390 0 L 382 0 L 382 307 C 382 353 368 391 340 420 C 312 448 277 463 233 463 C 201 463 171 454 144 437 C 117 420 97 398 84 370 L 84 0 L 76 0 Z M -11 724 L -20 724 L 77 843 L 83 843 L 180 724 L 170 724 L 80 836 L -11 724 Z" unicode="ĥ" />
<glyph horiz-adv-x="657" d="M 88 0 L 88 508 L 32 508 L 32 515 L 88 515 L 88 658 L 96 658 L 96 515 L 561 515 L 561 658 L 569 658 L 569 515 L 625 515 L 625 508 L 569 508 L 569 0 L 561 0 L 561 332 L 96 332 L 96 0 L 88 0 Z M 96 339 L 561 339 L 561 508 L 96 508 L 96 339 Z" unicode="Ħ" />
<glyph horiz-adv-x="462" d="M 14 606 L 14 613 L 199 613 L 199 606 L 14 606 Z M 76 0 L 76 724 L 84 724 L 84 384 C 98 410 118 430 145 446 C 171 462 201 470 233 470 C 279 470 316 455 346 425 C 375 395 390 355 390 307 L 390 0 L 382 0 L 382 307 C 382 353 368 391 340 420 C 312 448 277 463 233 463 C 201 463 171 454 144 437 C 117 420 97 398 84 370 L 84 0 L 76 0 Z" unicode="ħ" />
<glyph horiz-adv-x="192" d="M 92 0 L 92 658 L 100 658 L 100 0 L 92 0 Z M -21 728 L -28 728 C -25 748 -18 762 -8 771 C 2 780 15 785 31 785 C 41 785 51 782 60 778 C 69 774 81 766 96 754 C 110 742 122 734 130 730 C 138 726 147 724 157 724 C 171 724 182 728 191 737 C 199 745 205 759 209 777 L 216 777 C 212 755 205 740 195 731 C 185 721 172 717 157 717 C 146 717 136 719 127 723 C 118 727 106 736 92 748 C 77 759 65 767 57 771 C 49 775 40 778 31 778 C 17 778 5 773 -3 765 C -12 757 -18 744 -21 728 Z" unicode="Ĩ" />
<glyph horiz-adv-x="160" d="M 76 0 L 76 462 L 84 462 L 84 0 L 76 0 Z M -38 548 L -45 548 C -42 568 -35 582 -25 591 C -14 600 -1 605 14 605 C 24 605 34 602 43 598 C 52 594 64 586 79 574 C 93 562 105 554 113 550 C 121 546 130 544 140 544 C 154 544 165 548 174 557 C 182 565 188 579 192 597 L 199 597 C 195 575 188 560 178 551 C 168 541 155 537 140 537 C 129 537 119 539 110 543 C 101 547 89 556 75 568 C 60 579 48 587 40 591 C 32 595 23 598 14 598 C 0 598 -11 593 -20 585 C -29 577 -35 564 -38 548 Z" unicode="ĩ" />
<glyph horiz-adv-x="192" d="M 92 0 L 92 658 L 100 658 L 100 0 L 92 0 Z M 0 732 L 0 739 L 194 739 L 194 732 L 0 732 Z" unicode="Ī" />
<glyph horiz-adv-x="160" d="M 76 0 L 76 462 L 84 462 L 84 0 L 76 0 Z M -17 556 L -17 563 L 177 563 L 177 556 L -17 556 Z" unicode="ī" />
<glyph horiz-adv-x="192" d="M 92 0 L 92 658 L 100 658 L 100 0 L 92 0 Z M 97 716 C 65 716 40 727 21 749 C 1 771 -8 801 -8 837 L -1 837 C -1 803 8 775 26 755 C 44 734 67 724 97 724 C 126 724 150 734 168 755 C 186 775 195 803 195 837 L 202 837 C 202 801 192 771 173 749 C 153 727 128 716 97 716 Z" unicode="Ĭ" />
<glyph horiz-adv-x="160" d="M 76 0 L 76 462 L 84 462 L 84 0 L 76 0 Z M 80 516 C 48 516 23 527 4 549 C -15 571 -25 601 -25 637 L -18 637 C -18 603 -9 575 9 555 C 27 534 50 524 80 524 C 109 524 133 534 151 555 C 169 575 178 603 178 637 L 185 637 C 185 601 175 571 156 549 C 136 527 111 516 80 516 Z" unicode="ĭ" />
<glyph horiz-adv-x="192" d="M 92 0 L 92 658 L 100 658 L 100 0 L 92 0 Z M 98 -220 C 68 -220 43 -212 25 -196 C 7 -180 -2 -160 -2 -136 C -2 -110 5 -87 19 -68 C 33 -49 58 -24 93 6 L 98 0 C 64 -29 40 -53 26 -72 C 12 -91 6 -112 6 -136 C 6 -159 15 -177 33 -191 C 51 -205 73 -212 98 -212 L 98 -220 Z" unicode="Į" />
<glyph horiz-adv-x="172" d="M 76 658 L 76 678 L 96 678 L 96 658 L 76 658 Z M 82 0 L 82 462 L 90 462 L 90 0 L 82 0 Z M 90 -220 C 60 -220 35 -212 17 -196 C 0 -180 -10 -160 -10 -136 C -10 -110 -2 -87 11 -68 C 25 -49 50 -24 85 6 L 90 0 C 56 -29 32 -53 18 -72 C 4 -91 -2 -112 -2 -136 C -2 -159 7 -177 25 -191 C 43 -205 65 -212 90 -212 L 90 -220 Z" unicode="į" />
<glyph horiz-adv-x="192" d="M 92 0 L 92 658 L 100 658 L 100 0 L 92 0 Z M 84 724 L 84 744 L 104 744 L 104 724 L 84 724 Z" unicode="İ" />
<glyph horiz-adv-x="160" d="M 76 0 L 76 462 L 84 462 L 84 0 L 76 0 Z" unicode="ı" />
<glyph horiz-adv-x="205" d="M 8 -204 L 0 -204 L 0 -197 L 8 -197 C 36 -197 60 -187 78 -168 C 96 -149 105 -124 105 -94 L 105 658 L 113 658 L 113 -94 C 113 -126 103 -153 84 -173 C 64 -193 39 -204 8 -204 Z M 18 724 L 9 724 L 106 843 L 112 843 L 209 724 L 199 724 L 109 836 L 18 724 Z" unicode="Ĵ" />
<glyph horiz-adv-x="158" d="M -36 -204 L -44 -204 L -44 -197 L -36 -197 C -2 -197 25 -185 46 -161 C 67 -137 78 -104 78 -63 L 78 462 L 86 462 L 86 -63 C 86 -106 74 -140 52 -166 C 29 -191 0 -204 -36 -204 Z M -9 524 L -18 524 L 79 643 L 85 643 L 182 524 L 172 524 L 82 636 L -9 524 Z" unicode="ĵ" />
<glyph horiz-adv-x="503" d="M 92 0 L 92 658 L 100 658 L 100 341 L 430 658 L 441 658 L 105 335 L 451 0 L 439 0 L 100 329 L 100 0 L 92 0 Z M 227 -200 L 222 -195 C 238 -176 249 -157 255 -139 C 261 -120 265 -100 265 -78 L 265 -48 L 273 -48 L 273 -78 C 273 -101 270 -122 264 -141 C 258 -159 245 -179 227 -200 Z" unicode="Ķ" />
<glyph horiz-adv-x="411" d="M 76 0 L 76 724 L 84 724 L 84 244 L 338 462 L 350 462 L 91 241 L 375 0 L 362 0 L 84 236 L 84 0 L 76 0 Z M 178 -200 L 173 -195 C 189 -176 200 -157 206 -139 C 212 -120 216 -100 216 -78 L 216 -48 L 224 -48 L 224 -78 C 224 -101 221 -122 215 -141 C 209 -159 196 -179 178 -200 Z" unicode="ķ" />
<glyph horiz-adv-x="441" d="M 92 0 L 92 658 L 100 658 L 100 7 L 417 7 L 417 0 L 92 0 Z M 101 724 L 92 724 L 191 849 L 201 849 L 101 724 Z" unicode="Ĺ" />
<glyph horiz-adv-x="160" d="M 76 0 L 76 724 L 84 724 L 84 0 L 76 0 Z M 65 786 L 56 786 L 155 911 L 165 911 L 65 786 Z" unicode="ĺ" />
<glyph horiz-adv-x="441" d="M 92 0 L 92 658 L 100 658 L 100 7 L 417 7 L 417 0 L 92 0 Z M 213 -200 L 208 -195 C 224 -176 235 -157 241 -139 C 247 -120 251 -100 251 -78 L 251 -48 L 259 -48 L 259 -78 C 259 -101 256 -122 250 -141 C 244 -159 231 -179 213 -200 Z" unicode="Ļ" />
<glyph horiz-adv-x="160" d="M 76 0 L 76 724 L 84 724 L 84 0 L 76 0 Z M 37 -200 L 32 -195 C 48 -176 59 -157 65 -139 C 71 -120 75 -100 75 -78 L 75 -48 L 83 -48 L 83 -78 C 83 -101 80 -122 74 -141 C 68 -159 55 -179 37 -200 Z" unicode="ļ" />
<glyph horiz-adv-x="441" d="M 92 0 L 92 658 L 100 658 L 100 7 L 417 7 L 417 0 L 92 0 Z M 243 506 L 238 511 C 254 529 265 548 271 567 C 277 585 281 606 281 628 L 281 658 L 289 658 L 289 628 C 289 604 286 583 280 565 C 274 546 261 526 243 506 Z" unicode="Ľ" />
<glyph horiz-adv-x="264" d="M 76 0 L 76 724 L 84 724 L 84 0 L 76 0 Z M 154 572 L 149 577 C 165 595 176 614 182 633 C 188 651 192 672 192 694 L 192 724 L 200 724 L 200 694 C 200 670 197 649 191 631 C 185 612 172 592 154 572 Z" unicode="ľ" />
<glyph horiz-adv-x="441" d="M 92 0 L 92 658 L 100 658 L 100 7 L 417 7 L 417 0 L 92 0 Z M 297 326 L 297 348 L 319 348 L 319 326 L 297 326 Z" unicode="Ŀ" />
<glyph horiz-adv-x="160" d="M 76 0 L 76 724 L 84 724 L 84 0 L 76 0 Z M 148 340 L 148 362 L 170 362 L 170 340 L 148 340 Z" unicode="ŀ" />
<glyph horiz-adv-x="440" d="M 4 293 L 4 301 L 217 392 L 217 384 L 4 293 Z M 91 0 L 91 658 L 99 658 L 99 7 L 416 7 L 416 0 L 91 0 Z" unicode="Ł" />
<glyph horiz-adv-x="160" d="M 4 351 L 4 358 L 156 401 L 156 394 L 4 351 Z M 76 0 L 76 724 L 84 724 L 84 0 L 76 0 Z" unicode="ł" />
<glyph horiz-adv-x="704" d="M 92 0 L 92 658 L 102 658 L 558 71 L 605 11 L 605 658 L 612 658 L 612 0 L 603 0 L 147 587 L 99 649 L 99 0 L 92 0 Z M 338 724 L 329 724 L 428 849 L 438 849 L 338 724 Z" unicode="Ń" />
<glyph horiz-adv-x="462" d="M 76 0 L 76 462 L 84 462 L 84 384 C 98 410 118 430 145 446 C 171 462 201 470 233 470 C 279 470 316 455 346 425 C 375 395 390 355 390 307 L 390 0 L 382 0 L 382 307 C 382 353 368 391 340 420 C 312 448 276 463 233 463 C 201 463 171 454 144 437 C 117 420 97 398 84 370 L 84 0 L 76 0 Z M 207 524 L 198 524 L 297 649 L 307 649 L 207 524 Z" unicode="ń" />
<glyph horiz-adv-x="704" d="M 92 0 L 92 658 L 102 658 L 558 71 L 605 11 L 605 658 L 612 658 L 612 0 L 603 0 L 147 587 L 99 649 L 99 0 L 92 0 Z M 309 -216 L 304 -211 C 320 -192 331 -173 337 -155 C 343 -136 347 -116 347 -94 L 347 -64 L 355 -64 L 355 -94 C 355 -117 352 -138 346 -157 C 340 -175 327 -195 309 -216 Z" unicode="Ņ" />
<glyph horiz-adv-x="462" d="M 76 0 L 76 462 L 84 462 L 84 384 C 98 410 118 430 145 446 C 171 462 201 470 233 470 C 279 470 316 455 346 425 C 375 395 390 355 390 307 L 390 0 L 382 0 L 382 307 C 382 353 368 391 340 420 C 312 448 276 463 233 463 C 201 463 171 454 144 437 C 117 420 97 398 84 370 L 84 0 L 76 0 Z M 188 -200 L 183 -195 C 199 -176 210 -157 216 -139 C 222 -120 226 -100 226 -78 L 226 -48 L 234 -48 L 234 -78 C 234 -101 231 -122 225 -141 C 219 -159 206 -179 188 -200 Z" unicode="ņ" />
<glyph horiz-adv-x="704" d="M 92 0 L 92 658 L 102 658 L 558 71 L 605 11 L 605 658 L 612 658 L 612 0 L 603 0 L 147 587 L 99 649 L 99 0 L 92 0 Z M 350 716 L 253 835 L 263 835 L 354 722 L 446 835 L 455 835 L 358 716 L 350 716 Z" unicode="Ň" />
<glyph horiz-adv-x="462" d="M 76 0 L 76 462 L 84 462 L 84 384 C 98 410 118 430 145 446 C 171 462 201 470 233 470 C 279 470 316 455 346 425 C 375 395 390 355 390 307 L 390 0 L 382 0 L 382 307 C 382 353 368 391 340 420 C 312 448 276 463 233 463 C 201 463 171 454 144 437 C 117 420 97 398 84 370 L 84 0 L 76 0 Z M 219 524 L 122 643 L 132 643 L 223 530 L 315 643 L 324 643 L 227 524 L 219 524 Z" unicode="ň" />
<glyph horiz-adv-x="704" d="M 92 0 L 92 658 L 102 658 L 560 71 L 605 13 L 605 658 L 612 658 L 612 -96 C 612 -132 601 -162 581 -185 C 560 -208 533 -220 499 -220 L 491 -220 L 491 -213 L 499 -213 C 531 -213 556 -202 576 -181 C 595 -159 605 -131 605 -96 L 605 0 L 147 587 L 99 649 L 99 0 L 92 0 Z" unicode="Ŋ" />
<glyph horiz-adv-x="462" d="M 267 -220 L 259 -220 L 259 -213 L 267 -213 C 301 -213 328 -202 350 -180 C 371 -158 382 -129 382 -94 L 382 307 C 382 353 368 391 340 420 C 312 448 276 463 233 463 C 201 463 171 454 144 437 C 117 420 97 398 84 370 L 84 0 L 76 0 L 76 462 L 84 462 L 84 384 C 98 410 118 430 145 446 C 171 462 201 470 233 470 C 279 470 316 455 346 425 C 375 395 390 355 390 307 L 390 -94 C 390 -132 378 -162 356 -185 C 333 -208 303 -220 267 -220 Z" unicode="ŋ" />
<glyph horiz-adv-x="768" d="M 384 -8 C 287 -8 209 23 149 85 C 89 147 60 228 60 329 C 60 429 89 511 149 573 C 209 635 287 666 384 666 C 480 666 558 635 618 573 C 678 511 708 429 708 329 C 708 228 678 147 618 85 C 558 23 480 -8 384 -8 Z M 384 -1 C 478 -1 555 29 613 90 C 671 150 700 230 700 329 C 700 428 671 508 613 568 C 555 628 478 659 384 659 C 289 659 213 628 155 568 C 97 508 68 428 68 329 C 68 230 97 150 155 90 C 213 29 289 -1 384 -1 Z M 288 732 L 288 739 L 482 739 L 482 732 L 288 732 Z" unicode="Ō" />
<glyph horiz-adv-x="548" d="M 274 -8 C 207 -8 153 14 112 58 C 70 102 50 159 50 231 C 50 302 70 360 112 404 C 153 448 207 470 274 470 C 340 470 394 448 436 404 C 477 360 498 302 498 231 C 498 159 477 102 436 58 C 394 14 340 -8 274 -8 Z M 274 -1 C 338 -1 390 20 430 63 C 470 105 490 161 490 231 C 490 300 470 356 430 399 C 390 441 338 463 274 463 C 209 463 157 441 117 399 C 77 356 58 300 58 231 C 58 161 77 105 117 63 C 157 20 209 -1 274 -1 Z M 178 556 L 178 563 L 372 563 L 372 556 L 178 556 Z" unicode="ō" />
<glyph horiz-adv-x="768" d="M 384 -8 C 287 -8 209 23 149 85 C 89 147 60 228 60 329 C 60 429 89 511 149 573 C 209 635 287 666 384 666 C 480 666 558 635 618 573 C 678 511 708 429 708 329 C 708 228 678 147 618 85 C 558 23 480 -8 384 -8 Z M 384 -1 C 478 -1 555 29 613 90 C 671 150 700 230 700 329 C 700 428 671 508 613 568 C 555 628 478 659 384 659 C 289 659 213 628 155 568 C 97 508 68 428 68 329 C 68 230 97 150 155 90 C 213 29 289 -1 384 -1 Z M 385 716 C 353 716 328 727 309 749 C 289 771 280 801 280 837 L 287 837 C 287 803 296 775 314 755 C 332 734 355 724 385 724 C 414 724 438 734 456 755 C 474 775 483 803 483 837 L 490 837 C 490 801 480 771 461 749 C 441 727 416 716 385 716 Z" unicode="Ŏ" />
<glyph horiz-adv-x="548" d="M 274 -8 C 207 -8 153 14 112 58 C 70 102 50 159 50 231 C 50 302 70 360 112 404 C 153 448 207 470 274 470 C 340 470 394 448 436 404 C 477 360 498 302 498 231 C 498 159 477 102 436 58 C 394 14 340 -8 274 -8 Z M 274 -1 C 338 -1 390 20 430 63 C 470 105 490 161 490 231 C 490 300 470 356 430 399 C 390 441 338 463 274 463 C 209 463 157 441 117 399 C 77 356 58 300 58 231 C 58 161 77 105 117 63 C 157 20 209 -1 274 -1 Z M 275 516 C 243 516 218 527 199 549 C 179 571 170 601 170 637 L 177 637 C 177 603 186 575 204 555 C 222 534 245 524 275 524 C 304 524 328 534 346 555 C 364 575 373 603 373 637 L 380 637 C 380 601 370 571 351 549 C 331 527 306 516 275 516 Z" unicode="ŏ" />
<glyph horiz-adv-x="768" d="M 384 -8 C 287 -8 209 23 149 85 C 89 147 60 228 60 329 C 60 429 89 511 149 573 C 209 635 287 666 384 666 C 480 666 558 635 618 573 C 678 511 708 429 708 329 C 708 228 678 147 618 85 C 558 23 480 -8 384 -8 Z M 384 -1 C 478 -1 555 29 613 90 C 671 150 700 230 700 329 C 700 428 671 508 613 568 C 555 628 478 659 384 659 C 289 659 213 628 155 568 C 97 508 68 428 68 329 C 68 230 97 150 155 90 C 213 29 289 -1 384 -1 Z M 324 724 L 418 841 L 428 841 L 333 724 L 324 724 Z M 428 724 L 522 841 L 532 841 L 437 724 L 428 724 Z" unicode="Ő" />
<glyph horiz-adv-x="548" d="M 274 -8 C 207 -8 153 14 112 58 C 70 102 50 159 50 231 C 50 302 70 360 112 404 C 153 448 207 470 274 470 C 340 470 394 448 436 404 C 477 360 498 302 498 231 C 498 159 477 102 436 58 C 394 14 340 -8 274 -8 Z M 274 -1 C 338 -1 390 20 430 63 C 470 105 490 161 490 231 C 490 300 470 356 430 399 C 390 441 338 463 274 463 C 209 463 157 441 117 399 C 77 356 58 300 58 231 C 58 161 77 105 117 63 C 157 20 209 -1 274 -1 Z M 214 524 L 308 641 L 318 641 L 223 524 L 214 524 Z M 318 524 L 412 641 L 422 641 L 327 524 L 318 524 Z" unicode="ő" />
<glyph horiz-adv-x="885" d="M 391 0 C 291 0 211 30 151 92 C 90 153 60 233 60 333 C 60 430 90 508 152 568 C 214 628 294 658 394 658 L 809 658 L 809 651 L 502 651 L 502 337 L 793 337 L 793 330 L 502 330 L 502 7 L 821 7 L 821 0 L 391 0 Z M 391 7 L 494 7 L 494 651 L 394 651 C 296 651 218 621 158 563 C 98 505 68 428 68 333 C 68 235 97 157 157 97 C 216 37 294 7 391 7 Z" unicode="Œ" />
<glyph horiz-adv-x="916" d="M 266 -8 C 199 -8 146 14 108 58 C 69 102 50 159 50 231 C 50 302 69 360 108 404 C 146 448 199 470 266 470 C 324 470 371 453 408 419 C 445 385 468 341 478 285 C 486 341 508 385 544 419 C 579 453 624 470 678 470 C 732 470 777 450 811 410 C 845 370 862 317 862 252 L 862 250 L 482 250 C 482 248 482 245 482 243 C 482 241 482 238 482 236 L 482 231 C 482 161 500 105 538 63 C 576 20 625 -1 686 -1 C 716 -1 744 3 772 13 C 800 22 826 35 850 52 L 850 43 C 825 26 799 13 771 5 C 743 -3 714 -8 686 -8 C 630 -8 584 9 547 43 C 510 77 487 122 478 179 C 469 122 446 77 409 43 C 371 9 324 -8 266 -8 Z M 678 463 C 622 463 576 444 541 406 C 505 368 486 319 483 257 L 854 257 C 854 319 837 368 805 406 C 772 444 730 463 678 463 Z M 266 -1 C 330 -1 381 20 418 63 C 455 105 474 161 474 231 C 474 300 455 356 418 399 C 381 441 330 463 266 463 C 201 463 150 441 113 399 C 76 356 58 300 58 231 C 58 161 76 105 113 63 C 150 20 201 -1 266 -1 Z" unicode="œ" />
<glyph horiz-adv-x="511" d="M 450 0 L 361 231 C 348 264 329 289 305 306 C 280 323 250 332 214 332 L 100 332 L 100 0 L 92 0 L 92 658 L 212 658 C 272 658 319 642 353 612 C 387 581 404 541 404 493 C 404 449 388 412 358 383 C 328 354 291 338 249 335 C 276 331 300 321 320 304 C 340 286 357 262 369 232 L 459 0 L 450 0 Z M 100 339 L 226 339 C 276 339 317 354 349 384 C 380 414 396 451 396 493 C 396 539 379 577 347 607 C 315 636 270 651 212 651 L 100 651 L 100 339 Z M 219 724 L 210 724 L 309 849 L 319 849 L 219 724 Z" unicode="Ŕ" />
<glyph horiz-adv-x="272" d="M 76 0 L 76 462 L 84 462 L 84 381 C 98 410 114 432 134 447 C 154 462 175 470 199 470 C 209 470 219 469 229 467 C 239 465 249 462 260 459 L 260 451 C 250 455 239 458 229 460 C 219 462 208 463 198 463 C 175 463 154 454 134 438 C 114 422 98 398 84 366 L 84 0 L 76 0 Z M 148 524 L 139 524 L 238 649 L 248 649 L 148 524 Z" unicode="ŕ" />
<glyph horiz-adv-x="511" d="M 450 0 L 361 231 C 348 264 329 289 305 306 C 280 323 250 332 214 332 L 100 332 L 100 0 L 92 0 L 92 658 L 212 658 C 272 658 319 642 353 612 C 387 581 404 541 404 493 C 404 449 388 412 358 383 C 328 354 291 338 249 335 C 276 331 300 321 320 304 C 340 286 357 262 369 232 L 459 0 L 450 0 Z M 100 339 L 226 339 C 276 339 317 354 349 384 C 380 414 396 451 396 493 C 396 539 379 577 347 607 C 315 636 270 651 212 651 L 100 651 L 100 339 Z M 224 -200 L 219 -195 C 235 -176 246 -157 252 -139 C 258 -120 262 -100 262 -78 L 262 -48 L 270 -48 L 270 -78 C 270 -101 267 -122 261 -141 C 255 -159 242 -179 224 -200 Z" unicode="Ŗ" />
<glyph horiz-adv-x="272" d="M 76 0 L 76 462 L 84 462 L 84 381 C 98 410 114 432 134 447 C 154 462 175 470 199 470 C 209 470 219 469 229 467 C 239 465 249 462 260 459 L 260 451 C 250 455 239 458 229 460 C 219 462 208 463 198 463 C 175 463 154 454 134 438 C 114 422 98 398 84 366 L 84 0 L 76 0 Z M 37 -200 L 32 -195 C 48 -176 59 -157 65 -139 C 71 -120 75 -100 75 -78 L 75 -48 L 83 -48 L 83 -78 C 83 -101 80 -122 74 -141 C 68 -159 55 -179 37 -200 Z" unicode="ŗ" />
<glyph horiz-adv-x="511" d="M 450 0 L 361 231 C 348 264 329 289 305 306 C 280 323 250 332 214 332 L 100 332 L 100 0 L 92 0 L 92 658 L 212 658 C 272 658 319 642 353 612 C 387 581 404 541 404 493 C 404 449 388 412 358 383 C 328 354 291 338 249 335 C 276 331 300 321 320 304 C 340 286 357 262 369 232 L 459 0 L 450 0 Z M 100 339 L 226 339 C 276 339 317 354 349 384 C 380 414 396 451 396 493 C 396 539 379 577 347 607 C 315 636 270 651 212 651 L 100 651 L 100 339 Z M 231 716 L 134 835 L 144 835 L 235 722 L 327 835 L 336 835 L 239 716 L 231 716 Z" unicode="Ř" />
<glyph horiz-adv-x="272" d="M 76 0 L 76 462 L 84 462 L 84 381 C 98 410 114 432 134 447 C 154 462 175 470 199 470 C 209 470 219 469 229 467 C 239 465 249 462 260 459 L 260 451 C 250 455 239 458 229 460 C 219 462 208 463 198 463 C 175 463 154 454 134 438 C 114 422 98 398 84 366 L 84 0 L 76 0 Z M 160 524 L 63 643 L 73 643 L 164 530 L 256 643 L 265 643 L 168 524 L 160 524 Z" unicode="ř" />
<glyph horiz-adv-x="508" d="M 256 -9 C 222 -9 189 -3 156 7 C 123 18 95 33 72 51 L 72 60 C 96 41 125 26 157 15 C 189 3 222 -2 256 -2 C 306 -2 348 13 380 44 C 412 74 428 114 428 162 C 428 205 415 240 390 267 C 364 293 322 317 264 338 L 247 344 C 189 364 149 387 125 413 C 101 438 90 472 90 514 C 90 560 106 597 138 625 C 170 653 212 667 265 667 C 291 667 318 663 346 655 C 374 647 401 635 427 619 L 427 611 C 400 627 373 640 346 648 C 318 656 291 660 265 660 C 215 660 174 646 144 620 C 113 593 98 558 98 514 C 98 474 109 441 133 417 C 156 392 195 370 249 352 L 266 346 C 328 324 371 299 397 271 C 423 243 436 206 436 162 C 436 112 419 71 385 39 C 351 7 308 -9 256 -9 Z M 249 724 L 240 724 L 339 849 L 349 849 L 249 724 Z" unicode="Ś" />
<glyph horiz-adv-x="379" d="M 186 -8 C 161 -8 137 -3 114 5 C 90 13 70 25 54 39 L 54 48 C 72 32 94 20 118 12 C 142 3 164 -1 186 -1 C 224 -1 255 9 280 30 C 304 51 317 77 317 108 C 317 138 308 163 290 183 C 272 203 242 220 200 234 L 182 240 C 140 254 110 270 92 289 C 74 307 65 332 65 362 C 65 392 77 418 102 439 C 126 459 159 470 200 470 C 220 470 241 466 263 460 C 285 454 305 446 322 437 L 322 428 C 305 438 285 446 263 453 C 240 459 219 463 200 463 C 162 463 131 453 108 434 C 84 414 73 390 73 362 C 73 334 81 311 98 294 C 115 276 144 261 184 248 L 202 242 C 246 227 277 209 296 188 C 315 167 325 140 325 108 C 325 75 311 47 285 25 C 259 3 226 -8 186 -8 Z M 181 524 L 172 524 L 271 649 L 281 649 L 181 524 Z" unicode="ś" />
<glyph horiz-adv-x="508" d="M 256 -9 C 222 -9 189 -3 156 7 C 123 18 95 33 72 51 L 72 60 C 96 41 125 26 157 15 C 189 3 222 -2 256 -2 C 306 -2 348 13 380 44 C 412 74 428 114 428 162 C 428 205 415 240 390 267 C 364 293 322 317 264 338 L 247 344 C 189 364 149 387 125 413 C 101 438 90 472 90 514 C 90 560 106 597 138 625 C 170 653 212 667 265 667 C 291 667 318 663 346 655 C 374 647 401 635 427 619 L 427 611 C 400 627 373 640 346 648 C 318 656 291 660 265 660 C 215 660 174 646 144 620 C 113 593 98 558 98 514 C 98 474 109 441 133 417 C 156 392 195 370 249 352 L 266 346 C 328 324 371 299 397 271 C 423 243 436 206 436 162 C 436 112 419 71 385 39 C 351 7 308 -9 256 -9 Z M 173 724 L 164 724 L 261 843 L 267 843 L 364 724 L 354 724 L 264 836 L 173 724 Z" unicode="Ŝ" />
<glyph horiz-adv-x="379" d="M 186 -8 C 161 -8 137 -3 114 5 C 90 13 70 25 54 39 L 54 48 C 72 32 94 20 118 12 C 142 3 164 -1 186 -1 C 224 -1 255 9 280 30 C 304 51 317 77 317 108 C 317 138 308 163 290 183 C 272 203 242 220 200 234 L 182 240 C 140 254 110 270 92 289 C 74 307 65 332 65 362 C 65 392 77 418 102 439 C 126 459 159 470 200 470 C 220 470 241 466 263 460 C 285 454 305 446 322 437 L 322 428 C 305 438 285 446 263 453 C 240 459 219 463 200 463 C 162 463 131 453 108 434 C 84 414 73 390 73 362 C 73 334 81 311 98 294 C 115 276 144 261 184 248 L 202 242 C 246 227 277 209 296 188 C 315 167 325 140 325 108 C 325 75 311 47 285 25 C 259 3 226 -8 186 -8 Z M 105 524 L 96 524 L 193 643 L 199 643 L 296 524 L 286 524 L 196 636 L 105 524 Z" unicode="ŝ" />
<glyph horiz-adv-x="508" d="M 256 -9 C 222 -9 189 -3 156 7 C 123 18 95 33 72 51 L 72 60 C 96 41 125 26 157 15 C 189 3 222 -2 256 -2 C 306 -2 348 13 380 44 C 412 74 428 114 428 162 C 428 205 415 240 390 267 C 364 293 322 317 264 338 L 247 344 C 189 364 149 387 125 413 C 101 438 90 472 90 514 C 90 560 106 597 138 625 C 170 653 212 667 265 667 C 291 667 318 663 346 655 C 374 647 401 635 427 619 L 427 611 C 400 627 373 640 346 648 C 318 656 291 660 265 660 C 215 660 174 646 144 620 C 113 593 98 558 98 514 C 98 474 109 441 133 417 C 156 392 195 370 249 352 L 266 346 C 328 324 371 299 397 271 C 423 243 436 206 436 162 C 436 112 419 71 385 39 C 351 7 308 -9 256 -9 Z M 247 -176 C 237 -176 228 -174 218 -172 C 208 -169 200 -166 194 -162 L 194 -154 C 201 -158 209 -162 219 -165 C 229 -167 238 -169 247 -169 C 265 -169 280 -163 291 -152 C 302 -141 308 -127 308 -111 C 308 -93 301 -80 289 -70 C 277 -60 261 -55 241 -55 L 235 -55 L 235 -48 L 241 -48 C 263 -48 281 -53 295 -65 C 309 -77 316 -92 316 -111 C 316 -129 309 -145 297 -157 C 284 -169 267 -176 247 -176 Z" unicode="Ş" />
<glyph horiz-adv-x="379" d="M 186 -8 C 161 -8 137 -3 114 5 C 90 13 70 25 54 39 L 54 48 C 72 32 94 20 118 12 C 142 3 164 -1 186 -1 C 224 -1 255 9 280 30 C 304 51 317 77 317 108 C 317 138 308 163 290 183 C 272 203 242 220 200 234 L 182 240 C 140 254 110 270 92 289 C 74 307 65 332 65 362 C 65 392 77 418 102 439 C 126 459 159 470 200 470 C 220 470 241 466 263 460 C 285 454 305 446 322 437 L 322 428 C 305 438 285 446 263 453 C 240 459 219 463 200 463 C 162 463 131 453 108 434 C 84 414 73 390 73 362 C 73 334 81 311 98 294 C 115 276 144 261 184 248 L 202 242 C 246 227 277 209 296 188 C 315 167 325 140 325 108 C 325 75 311 47 285 25 C 259 3 226 -8 186 -8 Z M 190 -176 C 180 -176 171 -174 161 -172 C 151 -169 143 -166 137 -162 L 137 -154 C 144 -158 152 -162 162 -165 C 172 -167 181 -169 190 -169 C 208 -169 223 -163 234 -152 C 245 -141 251 -127 251 -111 C 251 -93 244 -80 232 -70 C 220 -60 204 -55 184 -55 L 178 -55 L 178 -48 L 184 -48 C 206 -48 224 -53 238 -65 C 252 -77 259 -92 259 -111 C 259 -129 252 -145 240 -157 C 227 -169 210 -176 190 -176 Z" unicode="ş" />
<glyph horiz-adv-x="508" d="M 256 -9 C 222 -9 189 -3 156 7 C 123 18 95 33 72 51 L 72 60 C 96 41 125 26 157 15 C 189 3 222 -2 256 -2 C 306 -2 348 13 380 44 C 412 74 428 114 428 162 C 428 205 415 240 390 267 C 364 293 322 317 264 338 L 247 344 C 189 364 149 387 125 413 C 101 438 90 472 90 514 C 90 560 106 597 138 625 C 170 653 212 667 265 667 C 291 667 318 663 346 655 C 374 647 401 635 427 619 L 427 611 C 400 627 373 640 346 648 C 318 656 291 660 265 660 C 215 660 174 646 144 620 C 113 593 98 558 98 514 C 98 474 109 441 133 417 C 156 392 195 370 249 352 L 266 346 C 328 324 371 299 397 271 C 423 243 436 206 436 162 C 436 112 419 71 385 39 C 351 7 308 -9 256 -9 Z M 261 716 L 164 835 L 174 835 L 265 722 L 357 835 L 366 835 L 269 716 L 261 716 Z" unicode="Š" />
<glyph horiz-adv-x="379" d="M 186 -8 C 161 -8 137 -3 114 5 C 90 13 70 25 54 39 L 54 48 C 72 32 94 20 118 12 C 142 3 164 -1 186 -1 C 224 -1 255 9 280 30 C 304 51 317 77 317 108 C 317 138 308 163 290 183 C 272 203 242 220 200 234 L 182 240 C 140 254 110 270 92 289 C 74 307 65 332 65 362 C 65 392 77 418 102 439 C 126 459 159 470 200 470 C 220 470 241 466 263 460 C 285 454 305 446 322 437 L 322 428 C 305 438 285 446 263 453 C 240 459 219 463 200 463 C 162 463 131 453 108 434 C 84 414 73 390 73 362 C 73 334 81 311 98 294 C 115 276 144 261 184 248 L 202 242 C 246 227 277 209 296 188 C 315 167 325 140 325 108 C 325 75 311 47 285 25 C 259 3 226 -8 186 -8 Z M 193 524 L 96 643 L 106 643 L 197 530 L 289 643 L 298 643 L 201 524 L 193 524 Z" unicode="š" />
<glyph horiz-adv-x="536" d="M 264 0 L 264 651 L 20 651 L 20 658 L 516 658 L 516 651 L 272 651 L 272 0 L 264 0 Z M 265 -176 C 255 -176 246 -174 236 -172 C 226 -169 218 -166 212 -162 L 212 -154 C 219 -158 227 -162 237 -165 C 247 -167 256 -169 265 -169 C 283 -169 298 -163 309 -152 C 320 -141 326 -127 326 -111 C 326 -93 319 -80 307 -70 C 295 -60 279 -55 259 -55 L 253 -55 L 253 -48 L 259 -48 C 281 -48 299 -53 313 -65 C 327 -77 334 -92 334 -111 C 334 -129 327 -145 315 -157 C 302 -169 285 -176 265 -176 Z" unicode="Ţ" />
<glyph horiz-adv-x="298" d="M 188 -8 C 165 -8 147 0 133 13 C 119 27 112 48 112 76 L 112 455 L 32 455 L 32 462 L 112 462 L 112 624 L 120 624 L 120 462 L 254 462 L 254 455 L 120 455 L 120 76 C 120 53 125 34 137 20 C 148 6 165 -1 188 -1 C 200 -1 212 1 226 6 C 240 10 252 16 262 23 L 262 14 C 252 7 240 2 226 -2 C 212 -6 200 -8 188 -8 Z M 184 -176 C 174 -176 165 -174 155 -172 C 145 -169 137 -166 131 -162 L 131 -154 C 138 -158 146 -162 156 -165 C 166 -167 175 -169 184 -169 C 202 -169 217 -163 228 -152 C 239 -141 245 -127 245 -111 C 245 -93 238 -80 226 -70 C 214 -60 198 -55 178 -55 L 172 -55 L 172 -48 L 178 -48 C 200 -48 218 -53 232 -65 C 246 -77 253 -92 253 -111 C 253 -129 246 -145 234 -157 C 221 -169 204 -176 184 -176 Z" unicode="ţ" />
<glyph horiz-adv-x="536" d="M 264 0 L 264 651 L 20 651 L 20 658 L 516 658 L 516 651 L 272 651 L 272 0 L 264 0 Z M 266 716 L 169 835 L 179 835 L 270 722 L 362 835 L 371 835 L 274 716 L 266 716 Z" unicode="Ť" />
<glyph horiz-adv-x="298" d="M 188 -8 C 165 -8 147 0 133 13 C 119 27 112 48 112 76 L 112 455 L 32 455 L 32 462 L 112 462 L 112 624 L 120 624 L 120 462 L 254 462 L 254 455 L 120 455 L 120 76 C 120 53 125 34 137 20 C 148 6 165 -1 188 -1 C 200 -1 212 1 226 6 C 240 10 252 16 262 23 L 262 14 C 252 7 240 2 226 -2 C 212 -6 200 -8 188 -8 Z M 211 572 L 206 577 C 222 595 233 614 239 633 C 245 651 249 672 249 694 L 249 724 L 257 724 L 257 694 C 257 670 254 649 248 631 C 242 612 229 592 211 572 Z" unicode="ť" />
<glyph horiz-adv-x="536" d="M 116 367 L 116 374 L 420 374 L 420 367 L 116 367 Z M 264 0 L 264 651 L 20 651 L 20 658 L 516 658 L 516 651 L 272 651 L 272 0 L 264 0 Z" unicode="Ŧ" />
<glyph horiz-adv-x="298" d="M 48 307 L 48 314 L 202 314 L 202 307 L 48 307 Z M 188 -8 C 165 -8 147 0 133 13 C 119 27 112 48 112 76 L 112 455 L 32 455 L 32 462 L 112 462 L 112 624 L 120 624 L 120 462 L 254 462 L 254 455 L 120 455 L 120 76 C 120 53 125 34 137 20 C 148 6 165 -1 188 -1 C 200 -1 212 1 226 6 C 240 10 252 16 262 23 L 262 14 C 252 7 240 2 226 -2 C 212 -6 200 -8 188 -8 Z" unicode="ŧ" />
<glyph horiz-adv-x="663" d="M 331 -9 C 257 -9 198 15 152 63 C 106 111 84 174 84 252 L 84 658 L 92 658 L 92 252 C 92 176 114 115 158 69 C 202 22 259 -1 331 -1 C 403 -1 461 22 505 69 C 549 115 571 176 571 252 L 571 658 L 579 658 L 579 252 C 579 174 556 111 510 63 C 464 15 405 -9 331 -9 Z M 218 728 L 211 728 C 213 748 220 762 231 771 C 241 780 254 785 270 785 C 280 785 290 782 299 778 C 308 774 320 766 335 754 C 349 742 361 734 369 730 C 377 726 386 724 396 724 C 410 724 421 728 430 737 C 438 745 444 759 448 777 L 455 777 C 451 755 444 740 434 731 C 424 721 411 717 396 717 C 385 717 375 719 366 723 C 357 727 345 736 331 748 C 316 759 304 767 296 771 C 288 775 279 778 270 778 C 256 778 244 773 235 765 C 226 757 220 744 218 728 Z" unicode="Ũ" />
<glyph horiz-adv-x="462" d="M 229 -8 C 183 -8 145 7 116 37 C 86 67 72 106 72 155 L 72 462 L 80 462 L 80 155 C 80 108 93 70 121 42 C 149 13 185 -1 229 -1 C 261 -1 291 7 318 24 C 344 41 364 64 378 92 L 378 462 L 386 462 L 386 0 L 380 0 L 378 78 C 364 52 343 31 316 15 C 289 0 260 -8 229 -8 Z M 110 548 L 103 548 C 105 568 112 582 123 591 C 133 600 146 605 162 605 C 172 605 182 602 191 598 C 200 594 212 586 227 574 C 241 562 253 554 261 550 C 269 546 278 544 288 544 C 302 544 313 548 322 557 C 330 565 336 579 340 597 L 347 597 C 343 575 336 560 326 551 C 316 541 303 537 288 537 C 277 537 267 539 258 543 C 249 547 237 556 223 568 C 208 579 196 587 188 591 C 180 595 171 598 162 598 C 148 598 136 593 127 585 C 118 577 112 564 110 548 Z" unicode="ũ" />
<glyph horiz-adv-x="663" d="M 331 -9 C 257 -9 198 15 152 63 C 106 111 84 174 84 252 L 84 658 L 92 658 L 92 252 C 92 176 114 115 158 69 C 202 22 259 -1 331 -1 C 403 -1 461 22 505 69 C 549 115 571 176 571 252 L 571 658 L 579 658 L 579 252 C 579 174 556 111 510 63 C 464 15 405 -9 331 -9 Z M 239 732 L 239 739 L 433 739 L 433 732 L 239 732 Z" unicode="Ū" />
<glyph horiz-adv-x="462" d="M 229 -8 C 183 -8 145 7 116 37 C 86 67 72 106 72 155 L 72 462 L 80 462 L 80 155 C 80 108 93 70 121 42 C 149 13 185 -1 229 -1 C 261 -1 291 7 318 24 C 344 41 364 64 378 92 L 378 462 L 386 462 L 386 0 L 380 0 L 378 78 C 364 52 343 31 316 15 C 289 0 260 -8 229 -8 Z M 131 556 L 131 563 L 325 563 L 325 556 L 131 556 Z" unicode="ū" />
<glyph horiz-adv-x="663" d="M 331 -9 C 257 -9 198 15 152 63 C 106 111 84 174 84 252 L 84 658 L 92 658 L 92 252 C 92 176 114 115 158 69 C 202 22 259 -1 331 -1 C 403 -1 461 22 505 69 C 549 115 571 176 571 252 L 571 658 L 579 658 L 579 252 C 579 174 556 111 510 63 C 464 15 405 -9 331 -9 Z M 336 716 C 304 716 279 727 260 749 C 240 771 231 801 231 837 L 238 837 C 238 803 247 775 265 755 C 283 734 306 724 336 724 C 365 724 389 734 407 755 C 425 775 434 803 434 837 L 441 837 C 441 801 431 771 412 749 C 392 727 367 716 336 716 Z" unicode="Ŭ" />
<glyph horiz-adv-x="462" d="M 229 -8 C 183 -8 145 7 116 37 C 86 67 72 106 72 155 L 72 462 L 80 462 L 80 155 C 80 108 93 70 121 42 C 149 13 185 -1 229 -1 C 261 -1 291 7 318 24 C 344 41 364 64 378 92 L 378 462 L 386 462 L 386 0 L 380 0 L 378 78 C 364 52 343 31 316 15 C 289 0 260 -8 229 -8 Z M 228 516 C 196 516 171 527 152 549 C 132 571 123 601 123 637 L 130 637 C 130 603 139 575 157 555 C 175 534 198 524 228 524 C 257 524 281 534 299 555 C 317 575 326 603 326 637 L 333 637 C 333 601 323 571 304 549 C 284 527 259 516 228 516 Z" unicode="ŭ" />
<glyph horiz-adv-x="663" d="M 331 -9 C 257 -9 198 15 152 63 C 106 111 84 174 84 252 L 84 658 L 92 658 L 92 252 C 92 176 114 115 158 69 C 202 22 259 -1 331 -1 C 403 -1 461 22 505 69 C 549 115 571 176 571 252 L 571 658 L 579 658 L 579 252 C 579 174 556 111 510 63 C 464 15 405 -9 331 -9 Z M 335 667 C 319 667 305 672 295 682 C 284 692 279 706 279 722 C 279 738 284 751 295 761 C 305 771 319 777 335 777 C 351 777 364 771 375 761 C 385 751 391 738 391 722 C 391 706 385 692 375 682 C 364 672 351 667 335 667 Z M 335 674 C 349 674 360 678 369 688 C 378 697 383 708 383 722 C 383 735 378 746 369 756 C 360 765 349 770 335 770 C 321 770 309 765 300 756 C 291 746 287 735 287 722 C 287 708 291 697 300 688 C 309 678 321 674 335 674 Z" unicode="Ů" />
<glyph horiz-adv-x="462" d="M 229 -8 C 183 -8 145 7 116 37 C 86 67 72 106 72 155 L 72 462 L 80 462 L 80 155 C 80 108 93 70 121 42 C 149 13 185 -1 229 -1 C 261 -1 291 7 318 24 C 344 41 364 64 378 92 L 378 462 L 386 462 L 386 0 L 380 0 L 378 78 C 364 52 343 31 316 15 C 289 0 260 -8 229 -8 Z M 227 513 C 211 513 197 518 187 528 C 176 538 171 552 171 568 C 171 584 176 597 187 607 C 197 617 211 623 227 623 C 243 623 256 617 267 607 C 277 597 283 584 283 568 C 283 552 277 538 267 528 C 256 518 243 513 227 513 Z M 227 520 C 241 520 252 524 261 534 C 270 543 275 554 275 568 C 275 581 270 592 261 602 C 252 611 241 616 227 616 C 213 616 201 611 192 602 C 183 592 179 581 179 568 C 179 554 183 543 192 534 C 201 524 213 520 227 520 Z" unicode="ů" />
<glyph horiz-adv-x="663" d="M 331 -9 C 257 -9 198 15 152 63 C 106 111 84 174 84 252 L 84 658 L 92 658 L 92 252 C 92 176 114 115 158 69 C 202 22 259 -1 331 -1 C 403 -1 461 22 505 69 C 549 115 571 176 571 252 L 571 658 L 579 658 L 579 252 C 579 174 556 111 510 63 C 464 15 405 -9 331 -9 Z M 275 724 L 369 841 L 379 841 L 284 724 L 275 724 Z M 379 724 L 473 841 L 483 841 L 388 724 L 379 724 Z" unicode="Ű" />
<glyph horiz-adv-x="462" d="M 229 -8 C 183 -8 145 7 116 37 C 86 67 72 106 72 155 L 72 462 L 80 462 L 80 155 C 80 108 93 70 121 42 C 149 13 185 -1 229 -1 C 261 -1 291 7 318 24 C 344 41 364 64 378 92 L 378 462 L 386 462 L 386 0 L 380 0 L 378 78 C 364 52 343 31 316 15 C 289 0 260 -8 229 -8 Z M 167 524 L 261 641 L 271 641 L 176 524 L 167 524 Z M 271 524 L 365 641 L 375 641 L 280 524 L 271 524 Z" unicode="ű" />
<glyph horiz-adv-x="663" d="M 498 -220 C 454 -220 418 -208 391 -186 C 363 -163 350 -134 350 -98 C 350 -77 354 -58 363 -41 C 372 -24 386 -10 404 0 C 393 -2 381 -4 369 -6 C 357 -8 344 -9 331 -9 C 257 -9 198 15 152 63 C 106 111 84 174 84 252 L 84 658 L 92 658 L 92 252 C 92 176 114 115 158 69 C 202 22 259 -1 331 -1 C 403 -1 461 22 505 69 C 549 115 571 176 571 252 L 571 658 L 579 658 L 579 252 C 579 194 566 144 540 102 C 514 60 480 29 436 11 C 412 1 393 -13 379 -32 C 365 -51 358 -73 358 -98 C 358 -132 371 -159 397 -180 C 423 -201 456 -212 498 -212 L 498 -220 Z" unicode="Ų" />
<glyph horiz-adv-x="462" d="M 229 -8 C 183 -8 145 7 116 37 C 86 67 72 106 72 155 L 72 462 L 80 462 L 80 155 C 80 108 93 70 121 42 C 149 13 185 -1 229 -1 C 261 -1 291 7 318 24 C 344 41 364 64 378 92 L 378 462 L 386 462 L 386 0 L 380 0 L 378 78 C 364 52 343 31 316 15 C 289 0 260 -8 229 -8 Z M 388 -220 C 358 -220 333 -212 315 -196 C 297 -180 288 -160 288 -136 C 288 -110 295 -87 309 -68 C 323 -49 348 -24 383 6 L 388 0 C 354 -29 330 -53 316 -72 C 302 -91 296 -112 296 -136 C 296 -159 305 -177 323 -191 C 341 -205 363 -212 388 -212 L 388 -220 Z" unicode="ų" />
<glyph horiz-adv-x="888" d="M 233 0 L 24 658 L 33 658 L 219 71 L 237 13 L 255 71 L 442 658 L 449 658 L 634 71 L 652 12 L 670 71 L 857 658 L 864 658 L 655 0 L 648 0 L 463 588 L 445 647 L 427 588 L 240 0 L 233 0 Z M 354 724 L 345 724 L 442 843 L 448 843 L 545 724 L 535 724 L 445 836 L 354 724 Z" unicode="Ŵ" />
<glyph horiz-adv-x="687" d="M 180 0 L 20 462 L 29 462 L 164 71 L 184 11 L 205 71 L 340 462 L 348 462 L 483 71 L 503 11 L 524 71 L 659 462 L 667 462 L 507 0 L 499 0 L 364 391 L 344 452 L 323 391 L 188 0 L 180 0 Z M 252 524 L 243 524 L 340 643 L 346 643 L 443 524 L 433 524 L 343 636 L 252 524 Z" unicode="ŵ" />
<glyph horiz-adv-x="519" d="M 255 0 L 255 309 L 20 658 L 30 658 L 231 360 L 260 317 L 289 361 L 490 658 L 499 658 L 263 309 L 263 0 L 255 0 Z M 169 724 L 160 724 L 257 843 L 263 843 L 360 724 L 350 724 L 260 836 L 169 724 Z" unicode="Ŷ" />
<glyph horiz-adv-x="418" d="M -4 -220 L -12 -220 L -12 -213 L -4 -213 C 39 -213 77 -196 109 -163 C 141 -130 174 -76 206 -1 L 205 1 L 16 462 L 25 462 L 185 71 L 210 10 L 234 71 L 394 462 L 402 462 L 213 0 C 180 -78 147 -135 114 -169 C 80 -203 41 -220 -4 -220 Z M 128 524 L 119 524 L 216 643 L 222 643 L 319 524 L 309 524 L 219 636 L 128 524 Z" unicode="ŷ" />
<glyph horiz-adv-x="519" d="M 255 0 L 255 309 L 20 658 L 30 658 L 231 360 L 260 317 L 289 361 L 490 658 L 499 658 L 263 309 L 263 0 L 255 0 Z M 184 724 L 184 744 L 204 744 L 204 724 L 184 724 Z M 316 724 L 316 744 L 336 744 L 336 724 L 316 724 Z" unicode="Ÿ" />
<glyph horiz-adv-x="604" d="M 76 0 L 76 7 L 481 597 L 518 651 L 76 651 L 76 658 L 528 658 L 528 651 L 123 61 L 86 7 L 528 7 L 528 0 L 76 0 Z M 285 724 L 276 724 L 375 849 L 385 849 L 285 724 Z" unicode="Ź" />
<glyph horiz-adv-x="419" d="M 52 0 L 52 7 L 327 410 L 358 455 L 52 455 L 52 462 L 367 462 L 367 455 L 92 52 L 61 7 L 367 7 L 367 0 L 52 0 Z M 196 524 L 187 524 L 286 649 L 296 649 L 196 524 Z" unicode="ź" />
<glyph horiz-adv-x="604" d="M 76 0 L 76 7 L 481 597 L 518 651 L 76 651 L 76 658 L 528 658 L 528 651 L 123 61 L 86 7 L 528 7 L 528 0 L 76 0 Z M 288 724 L 288 744 L 308 744 L 308 724 L 288 724 Z" unicode="Ż" />
<glyph horiz-adv-x="419" d="M 52 0 L 52 7 L 327 410 L 358 455 L 52 455 L 52 462 L 367 462 L 367 455 L 92 52 L 61 7 L 367 7 L 367 0 L 52 0 Z M 203 548 L 203 568 L 223 568 L 223 548 L 203 548 Z" unicode="ż" />
<glyph horiz-adv-x="604" d="M 76 0 L 76 7 L 481 597 L 518 651 L 76 651 L 76 658 L 528 658 L 528 651 L 123 61 L 86 7 L 528 7 L 528 0 L 76 0 Z M 297 716 L 200 835 L 210 835 L 301 722 L 393 835 L 402 835 L 305 716 L 297 716 Z" unicode="Ž" />
<glyph horiz-adv-x="419" d="M 52 0 L 52 7 L 327 410 L 358 455 L 52 455 L 52 462 L 367 462 L 367 455 L 92 52 L 61 7 L 367 7 L 367 0 L 52 0 Z M 208 524 L 111 643 L 121 643 L 212 530 L 304 643 L 313 643 L 216 524 L 208 524 Z" unicode="ž" />
<glyph horiz-adv-x="506" d="M 47 -220 C 30 -220 14 -217 0 -213 C -15 -208 -28 -202 -40 -194 L -40 -186 C -28 -194 -14 -200 0 -205 C 15 -210 31 -213 47 -213 C 78 -213 105 -201 127 -178 C 149 -155 162 -125 167 -89 L 243 455 L 107 455 L 107 462 L 244 462 L 262 594 C 268 637 283 671 308 695 C 333 719 365 732 405 732 C 419 732 435 729 453 725 C 471 720 487 714 502 707 L 502 699 C 488 707 472 713 454 718 C 436 722 420 725 405 725 C 367 725 337 713 314 690 C 290 667 276 635 270 594 L 252 462 L 402 462 L 402 455 L 251 455 L 175 -90 C 169 -128 155 -160 132 -184 C 109 -208 81 -220 47 -220 Z" unicode="ƒ" />
<glyph horiz-adv-x="686" d="M 388 -8 C 291 -8 212 23 151 85 C 90 147 60 229 60 330 C 60 430 90 511 152 573 C 214 635 294 666 392 666 C 427 666 462 662 496 655 C 530 647 564 636 597 622 L 597 614 C 564 628 530 639 495 647 C 460 655 426 659 392 659 C 296 659 218 628 158 568 C 98 507 68 428 68 330 C 68 231 97 151 157 90 C 217 29 294 -1 388 -1 C 427 -1 465 2 503 9 C 540 15 575 26 608 40 L 608 293 L 447 293 L 447 300 L 616 300 L 616 36 C 582 21 546 10 508 3 C 469 -4 429 -8 388 -8 Z M 384 716 L 287 835 L 297 835 L 388 722 L 480 835 L 489 835 L 392 716 L 384 716 Z" unicode="Ǧ" />
<glyph horiz-adv-x="500" d="M 225 -228 C 199 -228 171 -222 143 -212 C 114 -202 89 -189 67 -174 L 67 -166 C 89 -182 115 -195 144 -205 C 173 -215 200 -221 225 -221 C 283 -221 329 -202 364 -165 C 398 -128 416 -79 416 -17 L 416 67 C 397 44 374 26 347 12 C 319 -1 289 -8 257 -8 C 196 -8 147 14 109 58 C 71 102 52 160 52 232 C 52 303 71 360 111 404 C 151 448 201 470 263 470 C 291 470 319 464 346 454 C 372 443 396 429 416 411 L 418 462 L 424 462 L 424 -17 C 424 -81 405 -132 369 -170 C 333 -208 285 -228 225 -228 Z M 257 -1 C 286 -1 315 5 343 18 C 371 31 395 50 416 76 L 416 402 C 393 422 369 437 343 447 C 317 457 290 463 263 463 C 204 463 155 441 117 399 C 79 357 60 301 60 232 C 60 162 78 106 115 63 C 151 20 199 -1 257 -1 Z M 255 524 L 158 643 L 168 643 L 259 530 L 351 643 L 360 643 L 263 524 L 255 524 Z" unicode="ǧ" />
<glyph horiz-adv-x="576" d="M 24 0 L 285 670 L 291 670 L 552 0 L 543 0 L 441 263 L 134 263 L 32 0 L 24 0 Z M 265 598 L 137 270 L 438 270 L 310 598 L 288 657 L 265 598 Z M 272 778 L 328 858 L 338 858 L 281 778 L 272 778 Z M 286 667 C 272 667 261 671 252 680 C 243 689 239 700 239 714 C 239 727 243 738 252 747 C 261 756 272 761 286 761 C 299 761 310 756 319 747 C 328 738 333 727 333 714 C 333 700 328 689 319 680 C 310 671 299 667 286 667 Z M 286 674 C 296 674 305 677 313 685 C 321 693 325 702 325 714 C 325 725 321 734 313 742 C 305 750 296 754 286 754 C 275 754 266 750 258 742 C 250 734 247 725 247 714 C 247 702 250 693 258 685 C 266 677 275 674 286 674 Z" unicode="Ǻ" />
<glyph horiz-adv-x="416" d="M 192 -8 C 151 -8 117 3 91 27 C 65 50 52 81 52 119 C 52 155 66 185 94 210 C 122 235 158 250 204 255 L 336 270 L 336 326 C 336 368 324 401 300 426 C 276 450 245 463 207 463 C 185 463 161 458 136 450 C 110 441 88 429 70 415 L 70 424 C 88 438 110 449 135 457 C 160 465 184 470 207 470 C 248 470 281 457 306 431 C 331 405 344 370 344 326 L 344 0 L 338 0 L 336 67 C 319 42 298 23 274 11 C 250 -1 222 -8 192 -8 Z M 192 -1 C 222 -1 249 5 274 19 C 298 32 319 51 336 77 L 336 263 L 205 248 C 161 243 125 229 99 205 C 73 181 60 153 60 119 C 60 83 72 54 97 32 C 121 10 153 -1 192 -1 Z M 192 644 L 248 724 L 258 724 L 201 644 L 192 644 Z M 206 517 C 192 517 181 521 172 530 C 163 539 159 550 159 564 C 159 577 163 588 172 597 C 181 606 192 611 206 611 C 219 611 230 606 239 597 C 248 588 253 577 253 564 C 253 550 248 539 239 530 C 230 521 219 517 206 517 Z M 206 524 C 216 524 225 527 233 535 C 241 543 245 552 245 564 C 245 575 241 584 233 592 C 225 600 216 604 206 604 C 195 604 186 600 178 592 C 170 584 167 575 167 564 C 167 552 170 543 178 535 C 186 527 195 524 206 524 Z" unicode="ǻ" />
<glyph horiz-adv-x="797" d="M 16 0 L 398 658 L 721 658 L 721 651 L 408 651 L 408 337 L 705 337 L 705 330 L 408 330 L 408 7 L 733 7 L 733 0 L 400 0 L 400 255 L 172 255 L 24 0 L 16 0 Z M 371 598 L 176 262 L 400 262 L 400 648 L 371 598 Z M 493 724 L 484 724 L 583 849 L 593 849 L 493 724 Z" unicode="Ǽ" />
<glyph horiz-adv-x="765" d="M 184 -8 C 146 -8 114 3 89 27 C 64 50 52 81 52 119 C 52 163 66 196 96 218 C 126 240 165 252 213 252 L 336 252 L 336 307 C 336 358 324 397 300 423 C 276 449 245 463 207 463 C 185 463 161 458 136 450 C 110 441 88 429 70 415 L 70 424 C 88 438 110 449 135 457 C 160 465 184 470 207 470 C 246 470 278 456 303 430 C 328 404 341 365 343 313 C 355 364 378 403 411 430 C 443 456 482 470 527 470 C 582 470 626 450 660 410 C 694 370 711 317 711 252 L 711 245 L 344 245 L 344 244 L 344 218 C 344 162 359 112 391 67 C 422 21 470 -1 535 -1 C 565 -1 593 3 621 13 C 649 23 675 36 700 53 L 700 44 C 674 26 647 13 619 5 C 591 -3 563 -8 535 -8 C 483 -8 440 7 407 38 C 374 69 352 111 342 164 C 338 112 321 71 290 39 C 259 7 224 -8 184 -8 Z M 527 463 C 473 463 429 443 396 405 C 362 366 345 315 344 252 L 703 252 C 703 315 686 366 654 405 C 622 443 579 463 527 463 Z M 184 -1 C 228 -1 264 17 293 54 C 321 90 336 133 336 183 L 336 245 L 214 245 C 163 245 125 233 99 210 C 73 187 60 157 60 119 C 60 83 71 54 95 32 C 118 10 148 -1 184 -1 Z M 358 524 L 349 524 L 448 649 L 458 649 L 358 524 Z" unicode="ǽ" />
<glyph horiz-adv-x="768" d="M 151 -48 L 614 706 L 622 706 L 159 -48 L 151 -48 Z M 384 -8 C 287 -8 209 23 149 85 C 89 147 60 228 60 329 C 60 429 89 511 149 573 C 209 635 287 666 384 666 C 480 666 558 635 618 573 C 678 511 708 429 708 329 C 708 228 678 147 618 85 C 558 23 480 -8 384 -8 Z M 384 -1 C 478 -1 555 29 613 90 C 671 150 700 230 700 329 C 700 428 671 508 613 568 C 555 628 478 659 384 659 C 289 659 213 628 155 568 C 97 508 68 428 68 329 C 68 230 97 150 155 90 C 213 29 289 -1 384 -1 Z M 373 724 L 364 724 L 463 849 L 473 849 L 373 724 Z" unicode="Ǿ" />
<glyph horiz-adv-x="548" d="M 101 -48 L 438 510 L 446 510 L 109 -48 L 101 -48 Z M 274 -8 C 207 -8 153 14 112 58 C 70 102 50 159 50 231 C 50 302 70 360 112 404 C 153 448 207 470 274 470 C 340 470 394 448 436 404 C 477 360 498 302 498 231 C 498 159 477 102 436 58 C 394 14 340 -8 274 -8 Z M 274 -1 C 338 -1 390 20 430 63 C 470 105 490 161 490 231 C 490 300 470 356 430 399 C 390 441 338 463 274 463 C 209 463 157 441 117 399 C 77 356 58 300 58 231 C 58 161 77 105 117 63 C 157 20 209 -1 274 -1 Z M 257 524 L 248 524 L 347 649 L 357 649 L 257 524 Z" unicode="ǿ" />
<glyph horiz-adv-x="508" d="M 256 -9 C 222 -9 189 -3 156 7 C 123 18 95 33 72 51 L 72 60 C 96 41 125 26 157 15 C 189 3 222 -2 256 -2 C 306 -2 348 13 380 44 C 412 74 428 114 428 162 C 428 205 415 240 390 267 C 364 293 322 317 264 338 L 247 344 C 189 364 149 387 125 413 C 101 438 90 472 90 514 C 90 560 106 597 138 625 C 170 653 212 667 265 667 C 291 667 318 663 346 655 C 374 647 401 635 427 619 L 427 611 C 400 627 373 640 346 648 C 318 656 291 660 265 660 C 215 660 174 646 144 620 C 113 593 98 558 98 514 C 98 474 109 441 133 417 C 156 392 195 370 249 352 L 266 346 C 328 324 371 299 397 271 C 423 243 436 206 436 162 C 436 112 419 71 385 39 C 351 7 308 -9 256 -9 Z M 207 -200 L 202 -195 C 218 -176 229 -157 235 -139 C 241 -120 245 -100 245 -78 L 245 -48 L 253 -48 L 253 -78 C 253 -101 250 -122 244 -141 C 238 -159 225 -179 207 -200 Z" unicode="Ș" />
<glyph horiz-adv-x="379" d="M 186 -8 C 161 -8 137 -3 114 5 C 90 13 70 25 54 39 L 54 48 C 72 32 94 20 118 12 C 142 3 164 -1 186 -1 C 224 -1 255 9 280 30 C 304 51 317 77 317 108 C 317 138 308 163 290 183 C 272 203 242 220 200 234 L 182 240 C 140 254 110 270 92 289 C 74 307 65 332 65 362 C 65 392 77 418 102 439 C 126 459 159 470 200 470 C 220 470 241 466 263 460 C 285 454 305 446 322 437 L 322 428 C 305 438 285 446 263 453 C 240 459 219 463 200 463 C 162 463 131 453 108 434 C 84 414 73 390 73 362 C 73 334 81 311 98 294 C 115 276 144 261 184 248 L 202 242 C 246 227 277 209 296 188 C 315 167 325 140 325 108 C 325 75 311 47 285 25 C 259 3 226 -8 186 -8 Z M 150 -200 L 145 -195 C 161 -176 172 -157 178 -139 C 184 -120 188 -100 188 -78 L 188 -48 L 196 -48 L 196 -78 C 196 -101 193 -122 187 -141 C 181 -159 168 -179 150 -200 Z" unicode="ș" />
<glyph horiz-adv-x="536" d="M 264 0 L 264 651 L 20 651 L 20 658 L 516 658 L 516 651 L 272 651 L 272 0 L 264 0 Z M 225 -200 L 220 -195 C 236 -176 247 -157 253 -139 C 259 -120 263 -100 263 -78 L 263 -48 L 271 -48 L 271 -78 C 271 -101 268 -122 262 -141 C 256 -159 243 -179 225 -200 Z" unicode="Ț" />
<glyph horiz-adv-x="298" d="M 188 -8 C 165 -8 147 0 133 13 C 119 27 112 48 112 76 L 112 455 L 32 455 L 32 462 L 112 462 L 112 624 L 120 624 L 120 462 L 254 462 L 254 455 L 120 455 L 120 76 C 120 53 125 34 137 20 C 148 6 165 -1 188 -1 C 200 -1 212 1 226 6 C 240 10 252 16 262 23 L 262 14 C 252 7 240 2 226 -2 C 212 -6 200 -8 188 -8 Z M 144 -200 L 139 -195 C 155 -176 166 -157 172 -139 C 178 -120 182 -100 182 -78 L 182 -48 L 190 -48 L 190 -78 C 190 -101 187 -122 181 -141 C 175 -159 162 -179 144 -200 Z" unicode="ț" />
<glyph horiz-adv-x="158" d="M -36 -204 L -44 -204 L -44 -197 L -36 -197 C -2 -197 25 -185 46 -161 C 67 -137 78 -104 78 -63 L 78 462 L 86 462 L 86 -63 C 86 -106 74 -140 52 -166 C 29 -191 0 -204 -36 -204 Z" unicode="ȷ" />
<glyph horiz-adv-x="496" d="M 236 -7 C 181 -7 137 13 103 53 C 69 93 52 145 52 211 L 52 213 L 432 213 C 432 215 432 217 432 219 C 432 221 432 224 432 227 L 432 232 C 432 301 413 357 375 400 C 337 442 288 464 228 464 C 198 464 169 459 141 450 C 113 440 88 427 64 411 L 64 420 C 88 436 115 449 143 458 C 171 466 199 471 228 471 C 291 471 342 448 381 404 C 420 360 440 302 440 230 C 440 159 421 102 383 58 C 345 14 296 -7 236 -7 Z M 236 0 C 292 0 337 18 373 56 C 408 94 427 144 431 206 L 60 206 C 60 144 76 94 109 56 C 141 18 184 0 236 0 Z" unicode="ə" />
<glyph horiz-adv-x="320" d="M 69 524 L 60 524 L 157 643 L 163 643 L 260 524 L 250 524 L 160 636 L 69 524 Z" unicode="ˆ" />
<glyph horiz-adv-x="322" d="M 157 524 L 60 643 L 70 643 L 161 530 L 253 643 L 262 643 L 165 524 L 157 524 Z" unicode="ˇ" />
<glyph horiz-adv-x="362" d="M 181 516 C 149 516 124 527 105 549 C 85 571 76 601 76 637 L 83 637 C 83 603 92 575 110 555 C 128 534 151 524 181 524 C 210 524 234 534 252 555 C 270 575 279 603 279 637 L 286 637 C 286 601 276 571 257 549 C 237 527 212 516 181 516 Z" unicode="˘" />
<glyph horiz-adv-x="136" d="M 60 548 L 60 568 L 80 568 L 80 548 L 60 548 Z" unicode="˙" />
<glyph horiz-adv-x="224" d="M 112 513 C 96 513 82 518 72 528 C 61 538 56 552 56 568 C 56 584 61 597 72 607 C 82 617 96 623 112 623 C 128 623 141 617 152 607 C 162 597 168 584 168 568 C 168 552 162 538 152 528 C 141 518 128 513 112 513 Z M 112 520 C 126 520 137 524 146 534 C 155 543 160 554 160 568 C 160 581 155 592 146 602 C 137 611 126 616 112 616 C 98 616 86 611 77 602 C 68 592 64 581 64 568 C 64 554 68 543 77 534 C 86 524 98 520 112 520 Z" unicode="˚" />
<glyph horiz-adv-x="237" d="M 197 -220 C 157 -220 125 -209 101 -189 C 76 -169 64 -142 64 -110 C 64 -79 75 -53 97 -32 C 119 -11 149 1 185 7 L 185 0 C 152 -4 125 -17 104 -37 C 82 -57 72 -81 72 -110 C 72 -140 83 -165 106 -184 C 129 -203 159 -213 197 -213 L 197 -220 Z" unicode="˛" />
<glyph horiz-adv-x="328" d="M 47 548 L 40 548 C 42 568 49 582 60 591 C 70 600 83 605 99 605 C 109 605 119 602 128 598 C 137 594 149 586 164 574 C 178 562 190 554 198 550 C 206 546 215 544 225 544 C 239 544 250 548 259 557 C 267 565 273 579 277 597 L 284 597 C 280 575 273 560 263 551 C 253 541 240 537 225 537 C 214 537 204 539 195 543 C 186 547 174 556 160 568 C 145 579 133 587 125 591 C 117 595 108 598 99 598 C 85 598 73 593 64 585 C 55 577 49 564 47 548 Z" unicode="˜" />
<glyph horiz-adv-x="388" d="M 100 524 L 194 641 L 204 641 L 109 524 L 100 524 Z M 204 524 L 298 641 L 308 641 L 213 524 L 204 524 Z" unicode="˝" />
<glyph horiz-adv-x="0" d="M 16 524 L -84 649 L -74 649 L 25 524 L 16 524 Z" unicode="̀" />
<glyph horiz-adv-x="0" d="M -15 524 L -24 524 L 75 649 L 85 649 L -15 524 Z" unicode="́" />
<glyph horiz-adv-x="0" d="M -91 524 L -100 524 L -3 643 L 3 643 L 100 524 L 90 524 L 0 636 L -91 524 Z" unicode="̂" />
<glyph horiz-adv-x="0" d="M -117 728 L -124 728 C -121 748 -114 762 -104 771 C -93 780 -80 785 -65 785 C -54 785 -44 782 -35 778 C -26 774 -14 766 0 754 C 14 742 26 734 34 730 C 42 726 51 724 61 724 C 75 724 86 728 95 737 C 103 745 109 759 113 777 L 120 777 C 116 755 109 740 99 731 C 89 721 76 717 61 717 C 50 717 40 719 31 723 C 22 727 10 736 -4 748 C -18 759 -30 767 -38 771 C -46 775 -55 778 -65 778 C -79 778 -90 773 -99 765 C -108 757 -114 744 -117 728 Z" unicode="̃" />
<glyph horiz-adv-x="0" d="M -96 556 L -96 563 L 98 563 L 98 556 L -96 556 Z" unicode="̄" />
<glyph horiz-adv-x="0" d="M 1 516 C -30 516 -55 527 -75 549 C -94 571 -104 601 -104 637 L -97 637 C -97 603 -88 575 -70 555 C -52 534 -28 524 1 524 C 30 524 54 534 72 555 C 90 575 99 603 99 637 L 106 637 C 106 601 96 571 77 549 C 57 527 32 516 1 516 Z" unicode="̆" />
<glyph horiz-adv-x="0" d="M -12 724 L -12 744 L 8 744 L 8 724 L -12 724 Z" unicode="̇" />
<glyph horiz-adv-x="0" d="M -76 548 L -76 568 L -56 568 L -56 548 L -76 548 Z M 56 548 L 56 568 L 76 568 L 76 548 L 56 548 Z" unicode="̈" />
<glyph horiz-adv-x="0" d="M 0 667 C -16 667 -29 672 -40 682 C -50 692 -56 706 -56 722 C -56 738 -50 751 -40 761 C -29 771 -16 777 0 777 C 16 777 29 771 40 761 C 50 751 56 738 56 722 C 56 706 50 692 40 682 C 29 672 16 667 0 667 Z M 0 674 C 14 674 25 678 34 688 C 43 697 48 708 48 722 C 48 735 43 746 34 756 C 25 765 14 770 0 770 C -14 770 -25 765 -34 756 C -43 746 -48 735 -48 722 C -48 708 -43 697 -34 688 C -25 678 -14 674 0 674 Z" unicode="̊" />
<glyph horiz-adv-x="0" d="M -60 524 L 34 641 L 44 641 L -51 524 L -60 524 Z M 44 524 L 138 641 L 148 641 L 53 524 L 44 524 Z" unicode="̋" />
<glyph horiz-adv-x="0" d="M -3 524 L -100 643 L -90 643 L 1 530 L 93 643 L 102 643 L 5 524 L -3 524 Z" unicode="̌" />
<glyph horiz-adv-x="0" d="M 42 676 L 47 671 C 31 652 19 633 13 615 C 7 596 4 576 4 554 L 4 524 L -4 524 L -4 554 C -4 577 -1 598 5 617 C 11 635 23 655 42 676 Z" unicode="̒" />
<glyph horiz-adv-x="0" d="M -43 -192 L -48 -187 C -32 -168 -20 -149 -14 -131 C -8 -113 -5 -92 -5 -70 L -5 -40 L 3 -40 L 3 -70 C 3 -93 0 -114 -6 -133 C -12 -151 -24 -171 -43 -192 Z" unicode="̦" />
<glyph horiz-adv-x="0" d="M -3 -176 C -12 -176 -21 -174 -31 -172 C -41 -169 -49 -166 -56 -162 L -56 -154 C -48 -158 -40 -162 -30 -165 C -20 -167 -11 -169 -3 -169 C 15 -169 30 -163 41 -152 C 52 -141 58 -127 58 -111 C 58 -93 51 -80 39 -70 C 27 -60 11 -55 -9 -55 L -15 -55 L -15 -48 L -9 -48 C 13 -48 31 -53 45 -65 C 59 -77 66 -92 66 -111 C 66 -129 59 -145 47 -157 C 34 -169 17 -176 -3 -176 Z" unicode="̧" />
<glyph horiz-adv-x="0" d="M 9 -220 C -30 -220 -62 -209 -87 -189 C -111 -169 -124 -142 -124 -110 C -124 -79 -112 -53 -90 -32 C -68 -11 -39 1 -3 7 L -3 0 C -35 -4 -62 -17 -84 -37 C -105 -57 -116 -81 -116 -110 C -116 -140 -104 -165 -81 -184 C -58 -203 -28 -213 9 -213 L 9 -220 Z" unicode="̨" />
<glyph horiz-adv-x="551" d="M 32 0 L 260 682 L 268 682 L 495 0 L 32 0 Z M 42 8 L 484 8 L 263 672 L 42 8 Z" unicode="Δ" />
<glyph horiz-adv-x="462" d="M 80 -220 L 72 -220 L 72 462 L 80 462 L 80 155 C 80 108 93 70 121 42 C 149 13 185 -1 229 -1 C 261 -1 291 7 318 24 C 344 41 364 64 378 92 L 378 462 L 386 462 L 386 0 L 380 0 L 378 78 C 364 52 343 31 316 15 C 289 0 260 -8 229 -8 C 192 -8 160 1 134 20 C 108 39 90 65 80 98 L 80 -220 Z" unicode="μ" />
<glyph horiz-adv-x="501" d="M 124 0 L 124 455 L 44 455 L 44 462 L 457 462 L 457 455 L 377 455 L 377 0 L 369 0 L 369 455 L 132 455 L 132 0 L 124 0 Z" unicode="π" />
<glyph horiz-adv-x="888" d="M 233 0 L 24 658 L 33 658 L 219 71 L 237 13 L 255 71 L 442 658 L 449 658 L 634 71 L 652 12 L 670 71 L 857 658 L 864 658 L 655 0 L 648 0 L 463 588 L 445 647 L 427 588 L 240 0 L 233 0 Z M 461 724 L 361 849 L 371 849 L 470 724 L 461 724 Z" unicode="Ẁ" />
<glyph horiz-adv-x="687" d="M 180 0 L 20 462 L 29 462 L 164 71 L 184 11 L 205 71 L 340 462 L 348 462 L 483 71 L 503 11 L 524 71 L 659 462 L 667 462 L 507 0 L 499 0 L 364 391 L 344 452 L 323 391 L 188 0 L 180 0 Z M 359 524 L 259 649 L 269 649 L 368 524 L 359 524 Z" unicode="ẁ" />
<glyph horiz-adv-x="888" d="M 233 0 L 24 658 L 33 658 L 219 71 L 237 13 L 255 71 L 442 658 L 449 658 L 634 71 L 652 12 L 670 71 L 857 658 L 864 658 L 655 0 L 648 0 L 463 588 L 445 647 L 427 588 L 240 0 L 233 0 Z M 430 724 L 421 724 L 520 849 L 530 849 L 430 724 Z" unicode="Ẃ" />
<glyph horiz-adv-x="687" d="M 180 0 L 20 462 L 29 462 L 164 71 L 184 11 L 205 71 L 340 462 L 348 462 L 483 71 L 503 11 L 524 71 L 659 462 L 667 462 L 507 0 L 499 0 L 364 391 L 344 452 L 323 391 L 188 0 L 180 0 Z M 328 524 L 319 524 L 418 649 L 428 649 L 328 524 Z" unicode="ẃ" />
<glyph horiz-adv-x="888" d="M 233 0 L 24 658 L 33 658 L 219 71 L 237 13 L 255 71 L 442 658 L 449 658 L 634 71 L 652 12 L 670 71 L 857 658 L 864 658 L 655 0 L 648 0 L 463 588 L 445 647 L 427 588 L 240 0 L 233 0 Z M 369 724 L 369 744 L 389 744 L 389 724 L 369 724 Z M 501 724 L 501 744 L 521 744 L 521 724 L 501 724 Z" unicode="Ẅ" />
<glyph horiz-adv-x="687" d="M 180 0 L 20 462 L 29 462 L 164 71 L 184 11 L 205 71 L 340 462 L 348 462 L 483 71 L 503 11 L 524 71 L 659 462 L 667 462 L 507 0 L 499 0 L 364 391 L 344 452 L 323 391 L 188 0 L 180 0 Z M 267 548 L 267 568 L 287 568 L 287 548 L 267 548 Z M 399 548 L 399 568 L 419 568 L 419 548 L 399 548 Z" unicode="ẅ" />
<glyph horiz-adv-x="519" d="M 255 0 L 255 309 L 20 658 L 30 658 L 231 360 L 260 317 L 289 361 L 490 658 L 499 658 L 263 309 L 263 0 L 255 0 Z M 276 724 L 176 849 L 186 849 L 285 724 L 276 724 Z" unicode="Ỳ" />
<glyph horiz-adv-x="418" d="M -4 -220 L -12 -220 L -12 -213 L -4 -213 C 39 -213 77 -196 109 -163 C 141 -130 174 -76 206 -1 L 205 1 L 16 462 L 25 462 L 185 71 L 210 10 L 234 71 L 394 462 L 402 462 L 213 0 C 180 -78 147 -135 114 -169 C 80 -203 41 -220 -4 -220 Z M 235 524 L 135 649 L 145 649 L 244 524 L 235 524 Z" unicode="ỳ" />
<glyph horiz-adv-x="500" d="" unicode=" " />
<glyph horiz-adv-x="1000" d="" unicode=" " />
<glyph horiz-adv-x="650" d="" unicode=" " />
<glyph horiz-adv-x="0" d="" unicode=" " />
<glyph horiz-adv-x="650" d="M 107 272 L 107 279 L 543 279 L 543 272 L 107 272 Z" unicode="‒" />
<glyph horiz-adv-x="540" d="M 52 216 L 52 223 L 488 223 L 488 216 L 52 216 Z" unicode="–" />
<glyph horiz-adv-x="1040" d="M 52 216 L 52 223 L 988 223 L 988 216 L 52 216 Z" unicode="—" />
<glyph horiz-adv-x="360" d="M 52 209 L 52 216 L 316 216 L 316 209 L 52 209 Z" unicode="―" />
<glyph horiz-adv-x="138" d="M 64 560 L 64 608 C 64 628 66 647 70 666 C 74 685 84 705 100 726 L 106 722 C 93 703 84 685 79 668 C 74 650 72 630 72 608 L 72 560 L 64 560 Z" unicode="‘" />
<glyph horiz-adv-x="138" d="M 38 558 L 32 562 C 44 580 53 598 58 616 C 63 633 66 653 66 676 L 66 724 L 74 724 L 74 676 C 74 656 72 636 68 617 C 64 598 54 578 38 558 Z" unicode="’" />
<glyph horiz-adv-x="138" d="M 74 61 L 74 5 C 74 -15 72 -34 68 -53 C 64 -72 54 -92 38 -113 L 32 -109 C 44 -90 53 -72 58 -55 C 63 -37 66 -17 66 5 L 66 61 L 74 61 Z" unicode="‚" />
<glyph horiz-adv-x="210" d="M 64 560 L 64 608 C 64 628 66 647 70 666 C 74 685 84 705 100 726 L 106 722 C 93 703 84 685 79 668 C 74 650 72 630 72 608 L 72 560 L 64 560 Z M 136 560 L 136 608 C 136 628 138 647 142 666 C 146 685 156 705 172 726 L 178 722 C 165 703 156 685 151 668 C 146 650 144 630 144 608 L 144 560 L 136 560 Z" unicode="“" />
<glyph horiz-adv-x="210" d="M 38 558 L 32 562 C 44 580 53 598 58 616 C 63 633 66 653 66 676 L 66 724 L 74 724 L 74 676 C 74 656 72 636 68 617 C 64 598 54 578 38 558 Z M 110 558 L 104 562 C 116 580 125 598 130 616 C 135 633 138 653 138 676 L 138 724 L 146 724 L 146 676 C 146 656 144 636 140 617 C 136 598 126 578 110 558 Z" unicode="”" />
<glyph horiz-adv-x="210" d="M 74 61 L 74 5 C 74 -15 72 -34 68 -53 C 64 -72 54 -92 38 -113 L 32 -109 C 44 -90 53 -72 58 -55 C 63 -37 66 -17 66 5 L 66 61 L 74 61 Z M 146 61 L 146 5 C 146 -15 144 -34 140 -53 C 136 -72 126 -92 110 -113 L 104 -109 C 116 -90 125 -72 130 -55 C 135 -37 138 -17 138 5 L 138 61 L 146 61 Z" unicode="„" />
<glyph horiz-adv-x="468" d="M 230 0 L 230 501 L 64 501 L 64 508 L 230 508 L 230 724 L 238 724 L 238 508 L 404 508 L 404 501 L 238 501 L 238 0 L 230 0 Z" unicode="†" />
<glyph horiz-adv-x="468" d="M 230 0 L 230 224 L 64 224 L 64 231 L 230 231 L 230 501 L 64 501 L 64 508 L 230 508 L 230 724 L 238 724 L 238 508 L 404 508 L 404 501 L 238 501 L 238 231 L 404 231 L 404 224 L 238 224 L 238 0 L 230 0 Z" unicode="‡" />
<glyph horiz-adv-x="240" d="M 96 194 L 96 242 L 144 242 L 144 194 L 96 194 Z" unicode="•" />
<glyph horiz-adv-x="466" d="M 54 0 L 54 22 L 76 22 L 76 0 L 54 0 Z M 216 0 L 216 22 L 238 22 L 238 0 L 216 0 Z M 378 0 L 378 22 L 400 22 L 400 0 L 378 0 Z" unicode="…" />
<glyph horiz-adv-x="1150" d="M 962 -8 C 918 -8 883 9 859 44 C 834 78 822 124 822 180 C 822 236 834 281 859 316 C 883 350 918 368 962 368 C 1006 368 1040 350 1065 316 C 1089 281 1102 236 1102 180 C 1102 124 1089 78 1065 44 C 1040 9 1006 -8 962 -8 Z M 962 -1 C 1004 -1 1036 15 1059 49 C 1082 82 1094 126 1094 180 C 1094 234 1082 277 1059 311 C 1036 344 1004 361 962 361 C 920 361 887 344 864 311 C 841 277 830 234 830 180 C 830 126 841 82 864 49 C 887 15 920 -1 962 -1 Z M 192 352 C 148 352 113 369 89 404 C 64 438 52 484 52 540 C 52 596 64 641 89 676 C 113 710 148 728 192 728 C 236 728 270 710 295 676 C 319 641 332 596 332 540 C 332 484 319 438 295 404 C 270 369 236 352 192 352 Z M 192 359 C 234 359 266 375 289 409 C 312 442 324 486 324 540 C 324 594 312 637 289 671 C 266 704 234 721 192 721 C 150 721 117 704 94 671 C 71 637 60 594 60 540 C 60 486 71 442 94 409 C 117 375 150 359 192 359 Z M 263 1 L 519 725 L 527 725 L 271 1 L 263 1 Z M 598 -8 C 554 -8 519 9 495 44 C 470 78 458 124 458 180 C 458 236 470 281 495 316 C 519 350 554 368 598 368 C 642 368 676 350 701 316 C 725 281 738 236 738 180 C 738 124 725 78 701 44 C 676 9 642 -8 598 -8 Z M 598 -1 C 640 -1 672 15 695 49 C 718 82 730 126 730 180 C 730 234 718 277 695 311 C 672 344 640 361 598 361 C 556 361 523 344 500 311 C 477 277 466 234 466 180 C 466 126 477 82 500 49 C 523 15 556 -1 598 -1 Z" unicode="‰" />
<glyph horiz-adv-x="136" d="M 64 552 L 64 716 L 72 716 L 72 552 L 64 552 Z" unicode="′" />
<glyph horiz-adv-x="208" d="M 64 552 L 64 716 L 72 716 L 72 552 L 64 552 Z M 136 552 L 136 716 L 144 716 L 144 552 L 136 552 Z" unicode="″" />
<glyph horiz-adv-x="277" d="M 195 71 L 40 226 L 195 382 L 205 382 L 50 226 L 205 71 L 195 71 Z" unicode="‹" />
<glyph horiz-adv-x="277" d="M 72 71 L 227 226 L 72 382 L 82 382 L 237 226 L 82 71 L 72 71 Z" unicode="›" />
<glyph horiz-adv-x="112" d="M -76 0 L 180 724 L 188 724 L -68 0 L -76 0 Z" unicode="⁄" />
<glyph horiz-adv-x="380" d="M 192 432 C 148 432 113 449 89 484 C 64 518 52 564 52 620 C 52 676 64 721 89 756 C 113 790 148 808 192 808 C 236 808 270 790 295 756 C 319 721 332 676 332 620 C 332 564 319 518 295 484 C 270 449 236 432 192 432 Z M 192 439 C 234 439 266 455 289 489 C 312 522 324 566 324 620 C 324 674 312 717 289 751 C 266 784 234 801 192 801 C 150 801 117 784 94 751 C 71 717 60 674 60 620 C 60 566 71 522 94 489 C 117 455 150 439 192 439 Z" unicode="⁰" />
<glyph horiz-adv-x="318" d="M 208 440 L 208 548 L 36 548 L 36 556 L 207 800 L 216 800 L 216 556 L 282 556 L 282 548 L 216 548 L 216 440 L 208 440 Z M 208 556 L 208 788 L 45 556 L 208 556 Z" unicode="⁴" />
<glyph horiz-adv-x="296" d="M 144 432 C 125 432 106 435 88 441 C 69 447 53 457 40 470 L 40 480 C 52 467 68 457 86 450 C 104 442 123 439 144 439 C 174 439 198 448 218 468 C 238 487 248 513 248 545 C 248 574 238 598 218 616 C 198 634 172 644 140 644 C 125 644 110 642 95 640 C 80 637 66 634 54 630 L 67 800 L 241 800 L 241 792 L 73 792 L 61 640 C 74 643 87 646 101 648 C 115 650 128 651 140 651 C 174 651 202 641 224 622 C 245 602 256 577 256 545 C 256 511 245 483 224 463 C 203 442 176 432 144 432 Z" unicode="⁵" />
<glyph horiz-adv-x="314" d="M 158 432 C 122 432 93 446 72 475 C 50 504 40 540 40 582 C 40 656 52 712 77 750 C 102 788 139 808 187 808 C 201 808 215 806 228 804 C 241 801 253 797 264 793 L 264 785 C 251 790 238 794 226 797 C 213 799 200 801 187 801 C 145 801 112 785 88 753 C 64 721 51 675 49 613 C 57 633 70 649 90 661 C 109 673 131 679 157 679 C 192 679 220 668 242 646 C 263 624 274 595 274 560 C 274 522 263 491 241 467 C 219 443 192 432 158 432 Z M 158 439 C 190 439 216 450 236 472 C 256 494 266 523 266 559 C 266 593 256 620 236 641 C 216 661 190 672 157 672 C 128 672 103 664 83 648 C 63 632 51 612 48 587 L 48 586 C 48 542 59 506 79 479 C 99 452 125 439 158 439 Z" unicode="⁶" />
<glyph horiz-adv-x="315" d="M 114 440 L 267 793 L 40 793 L 40 800 L 275 800 L 275 793 L 122 440 L 114 440 Z" unicode="⁷" />
<glyph horiz-adv-x="292" d="M 146 432 C 113 432 87 440 68 457 C 49 474 40 497 40 525 C 40 547 47 568 63 586 C 78 604 99 617 127 626 C 100 635 80 648 66 664 C 52 680 45 699 45 721 C 45 747 54 768 72 784 C 90 800 114 808 145 808 C 175 808 200 800 218 784 C 236 768 245 746 245 720 C 245 699 236 680 220 663 C 204 646 182 634 156 626 C 188 615 212 601 228 583 C 244 565 252 545 252 523 C 252 495 242 473 223 457 C 204 440 178 432 146 432 Z M 133 633 L 144 630 C 172 636 194 648 211 665 C 228 681 237 700 237 720 C 237 744 228 764 212 779 C 195 793 173 801 145 801 C 117 801 94 793 78 779 C 61 764 53 745 53 721 C 53 701 59 683 73 668 C 86 653 106 641 133 633 Z M 48 525 C 48 499 56 478 74 462 C 91 446 115 439 146 439 C 176 439 200 446 218 462 C 235 477 244 497 244 523 C 244 545 236 564 221 580 C 205 596 182 609 150 619 L 139 622 C 110 614 88 602 72 584 C 56 566 48 547 48 525 Z" unicode="⁸" />
<glyph horiz-adv-x="314" d="M 127 432 C 112 432 98 433 85 436 C 72 438 60 442 50 447 L 50 455 C 62 449 75 445 88 443 C 100 440 113 439 127 439 C 169 439 201 454 225 486 C 249 518 262 565 265 627 C 257 606 243 590 224 578 C 204 566 182 561 157 561 C 121 561 93 572 72 594 C 50 616 40 644 40 680 C 40 718 50 748 72 772 C 94 796 122 808 156 808 C 192 808 220 793 242 764 C 263 735 274 700 274 658 C 274 584 261 527 236 489 C 211 451 175 432 127 432 Z M 157 568 C 185 568 210 575 230 591 C 250 607 262 627 266 653 L 266 654 C 265 698 255 733 235 760 C 215 787 188 801 156 801 C 124 801 98 790 78 768 C 58 746 48 717 48 681 C 48 647 57 619 77 599 C 97 578 123 568 157 568 Z" unicode="⁹" />
<glyph horiz-adv-x="354" d="M 56 440 L 56 800 L 64 800 L 64 752 C 75 766 91 779 111 791 C 131 802 154 808 179 808 C 214 808 243 796 265 772 C 287 748 298 718 298 680 L 298 440 L 290 440 L 290 680 C 290 716 279 745 259 767 C 239 789 212 801 179 801 C 156 801 134 795 114 784 C 93 773 76 758 64 740 L 64 440 L 56 440 Z" unicode="ⁿ" />
<glyph horiz-adv-x="380" d="M 192 -178 C 148 -178 113 -160 89 -126 C 64 -91 52 -46 52 10 C 52 66 64 111 89 146 C 113 180 148 198 192 198 C 236 198 270 180 295 146 C 319 111 332 66 332 10 C 332 -46 319 -91 295 -126 C 270 -160 236 -178 192 -178 Z M 192 -171 C 234 -171 266 -154 289 -121 C 312 -87 324 -44 324 10 C 324 64 312 107 289 141 C 266 174 234 191 192 191 C 150 191 117 174 94 141 C 71 107 60 64 60 10 C 60 -44 71 -87 94 -121 C 117 -154 150 -171 192 -171 Z" unicode="₀" />
<glyph horiz-adv-x="275" d="M 33 -170 L 33 -163 L 136 -163 L 136 193 L 32 167 L 32 174 L 144 202 L 144 -163 L 247 -163 L 247 -170 L 33 -170 Z" unicode="₁" />
<glyph horiz-adv-x="318" d="M 40 -170 L 40 -164 C 115 -116 170 -72 205 -30 C 239 12 257 51 257 87 C 257 119 247 144 229 163 C 211 181 186 191 154 191 C 137 191 119 188 101 182 C 82 176 66 168 54 159 L 54 168 C 66 176 82 183 101 189 C 119 195 137 198 154 198 C 188 198 215 188 235 168 C 255 148 265 121 265 87 C 265 49 247 9 212 -32 C 177 -74 125 -118 57 -162 L 278 -162 L 278 -170 L 40 -170 Z" unicode="₂" />
<glyph horiz-adv-x="291" d="M 144 -178 C 125 -178 106 -174 88 -167 C 70 -160 54 -150 40 -138 L 40 -129 C 53 -141 69 -151 87 -159 C 105 -167 124 -171 144 -171 C 174 -171 198 -162 216 -145 C 234 -127 243 -106 243 -80 C 243 -52 233 -29 213 -12 C 193 4 164 13 126 13 L 111 13 L 111 20 L 125 20 C 158 20 185 28 205 44 C 225 60 236 81 236 108 C 236 132 228 152 212 168 C 196 183 174 191 148 191 C 132 191 116 187 99 181 C 81 175 66 167 54 157 L 54 166 C 66 175 81 183 99 189 C 116 195 132 198 148 198 C 176 198 199 189 217 173 C 235 156 244 134 244 108 C 244 84 236 64 220 48 C 204 32 183 21 157 17 C 185 12 208 2 225 -14 C 242 -30 251 -52 251 -80 C 251 -108 241 -131 222 -150 C 202 -168 176 -178 144 -178 Z" unicode="₃" />
<glyph horiz-adv-x="318" d="M 208 -170 L 208 -62 L 36 -62 L 36 -54 L 207 190 L 216 190 L 216 -54 L 282 -54 L 282 -62 L 216 -62 L 216 -170 L 208 -170 Z M 208 -54 L 208 178 L 45 -54 L 208 -54 Z" unicode="₄" />
<glyph horiz-adv-x="296" d="M 144 -178 C 125 -178 106 -174 88 -168 C 69 -162 53 -152 40 -140 L 40 -130 C 52 -142 68 -152 86 -160 C 104 -167 123 -171 144 -171 C 174 -171 198 -161 218 -142 C 238 -122 248 -97 248 -65 C 248 -35 238 -11 218 6 C 198 24 172 34 140 34 C 125 34 110 32 95 30 C 80 27 66 24 54 20 L 67 190 L 241 190 L 241 182 L 73 182 L 61 30 C 74 33 87 36 101 38 C 115 40 128 41 140 41 C 174 41 202 31 224 12 C 245 -7 256 -33 256 -65 C 256 -99 245 -126 224 -147 C 203 -167 176 -178 144 -178 Z" unicode="₅" />
<glyph horiz-adv-x="314" d="M 158 -178 C 122 -178 93 -163 72 -134 C 50 -105 40 -70 40 -28 C 40 46 52 102 77 140 C 102 178 139 198 187 198 C 201 198 215 196 228 194 C 241 191 253 187 264 183 L 264 175 C 251 180 238 184 226 187 C 213 189 200 191 187 191 C 145 191 112 175 88 143 C 64 111 51 65 49 3 C 57 23 70 39 90 51 C 109 63 131 69 157 69 C 192 69 220 58 242 36 C 263 14 274 -14 274 -50 C 274 -88 263 -118 241 -142 C 219 -166 192 -178 158 -178 Z M 158 -171 C 190 -171 216 -160 236 -138 C 256 -116 266 -87 266 -51 C 266 -17 256 10 236 31 C 216 51 190 62 157 62 C 128 62 103 54 83 38 C 63 22 51 2 48 -23 L 48 -24 C 48 -68 59 -103 79 -130 C 99 -157 125 -171 158 -171 Z" unicode="₆" />
<glyph horiz-adv-x="315" d="M 114 -170 L 267 183 L 40 183 L 40 190 L 275 190 L 275 183 L 122 -170 L 114 -170 Z" unicode="₇" />
<glyph horiz-adv-x="292" d="M 146 -178 C 113 -178 87 -169 68 -152 C 49 -135 40 -113 40 -85 C 40 -62 47 -42 63 -24 C 78 -6 99 7 127 16 C 100 25 80 38 66 54 C 52 70 45 89 45 111 C 45 137 54 158 72 174 C 90 190 114 198 145 198 C 175 198 200 190 218 174 C 236 158 245 136 245 110 C 245 89 236 70 220 53 C 204 36 182 24 156 16 C 188 5 212 -8 228 -26 C 244 -44 252 -64 252 -87 C 252 -114 242 -136 223 -153 C 204 -169 178 -178 146 -178 Z M 133 23 L 144 20 C 172 26 194 38 211 55 C 228 71 237 90 237 110 C 237 134 228 154 212 169 C 195 183 173 191 145 191 C 117 191 94 183 78 169 C 61 154 53 135 53 111 C 53 91 59 73 73 58 C 86 43 106 31 133 23 Z M 48 -85 C 48 -111 56 -131 74 -147 C 91 -163 115 -171 146 -171 C 176 -171 200 -163 218 -148 C 235 -132 244 -112 244 -87 C 244 -64 236 -45 221 -29 C 205 -13 182 -1 150 9 L 139 12 C 110 4 88 -7 72 -25 C 56 -43 48 -63 48 -85 Z" unicode="₈" />
<glyph horiz-adv-x="314" d="M 127 -178 C 112 -178 98 -176 85 -174 C 72 -171 60 -167 50 -163 L 50 -155 C 62 -160 75 -164 88 -167 C 100 -169 113 -171 127 -171 C 169 -171 201 -155 225 -123 C 249 -91 262 -45 265 17 C 257 -3 243 -19 224 -31 C 204 -43 182 -49 157 -49 C 121 -49 93 -38 72 -16 C 50 6 40 34 40 70 C 40 108 50 138 72 162 C 94 186 122 198 156 198 C 192 198 220 183 242 154 C 263 125 274 90 274 48 C 274 -26 261 -82 236 -120 C 211 -158 175 -178 127 -178 Z M 157 -42 C 185 -42 210 -34 230 -18 C 250 -2 262 17 266 43 L 266 44 C 265 88 255 123 235 150 C 215 177 188 191 156 191 C 124 191 98 180 78 158 C 58 136 48 107 48 71 C 48 37 57 9 77 -11 C 97 -31 123 -42 157 -42 Z" unicode="₉" />
<glyph horiz-adv-x="706" d="M 40 372 L 40 379 L 324 379 L 324 372 L 40 372 Z M 40 280 L 40 287 L 326 287 L 326 280 L 40 280 Z M 454 -8 C 354 -8 273 22 211 84 C 149 146 119 227 119 328 C 119 428 149 510 211 572 C 273 634 354 666 454 666 C 489 666 524 662 558 655 C 592 647 626 636 659 622 L 659 614 C 626 628 593 639 559 647 C 525 655 490 659 454 659 C 356 659 277 628 217 568 C 157 507 127 427 127 328 C 127 230 157 150 217 90 C 277 29 356 -1 454 -1 C 491 -1 527 3 563 13 C 599 22 633 36 666 55 L 666 47 C 633 29 599 15 563 6 C 527 -3 490 -8 454 -8 Z" unicode="€" />
<glyph horiz-adv-x="511" d="M 198 654 L 198 786 L 206 786 L 206 654 L 198 654 Z M 255 654 L 255 786 L 263 786 L 263 654 L 255 654 Z M 198 -124 L 198 4 L 206 4 L 206 -124 L 198 -124 Z M 255 -124 L 255 4 L 263 4 L 263 -124 L 255 -124 Z M 92 0 L 92 658 L 231 658 C 287 658 332 643 367 613 C 401 583 419 543 419 495 C 419 453 405 417 379 389 C 353 361 318 343 274 337 C 325 331 366 313 397 284 C 427 254 443 218 443 174 C 443 122 425 80 389 48 C 353 16 307 0 249 0 L 92 0 Z M 100 340 L 236 340 C 288 340 330 354 362 383 C 394 411 411 449 411 495 C 411 541 394 579 361 608 C 328 636 285 651 231 651 L 100 651 L 100 340 Z M 100 7 L 249 7 C 305 7 350 22 384 53 C 418 83 435 124 435 174 C 435 221 416 259 380 289 C 343 318 295 333 236 333 L 100 333 L 100 7 Z" unicode="₿" />
<glyph horiz-adv-x="640" d="M 324 132 C 242 132 177 158 127 212 C 77 266 52 329 52 402 C 52 475 77 539 127 594 C 177 648 242 676 324 676 C 405 676 471 648 521 594 C 571 539 596 475 596 402 C 596 329 571 266 521 212 C 471 158 405 132 324 132 Z M 324 139 C 394 139 456 163 509 211 C 561 259 588 323 588 402 C 588 481 561 545 509 595 C 456 644 394 669 324 669 C 252 669 190 644 138 595 C 86 545 60 481 60 402 C 60 323 86 259 138 211 C 190 163 252 139 324 139 Z M 258 231 L 258 581 L 318 581 C 352 581 379 571 400 553 C 420 535 431 511 431 481 C 431 451 420 426 400 408 C 379 390 352 381 318 381 L 266 381 L 266 231 L 258 231 Z M 266 388 L 318 388 C 350 388 375 396 394 413 C 413 430 423 453 423 481 C 423 509 413 531 394 548 C 375 565 350 574 318 574 L 266 574 L 266 388 Z" unicode="℗" />
<glyph horiz-adv-x="544" d="M 114 462 L 114 717 L 20 717 L 20 724 L 216 724 L 216 717 L 122 717 L 122 462 L 114 462 Z M 250 462 L 250 724 L 260 724 L 372 516 L 483 724 L 492 724 L 492 462 L 484 462 L 484 711 L 375 507 L 367 507 L 257 713 L 257 462 L 250 462 Z" unicode="™" />
<glyph horiz-adv-x="499" d="M 249 -8 C 190 -8 142 10 106 48 C 70 86 52 135 52 197 C 52 261 70 314 107 354 C 144 394 193 414 253 414 C 298 414 337 403 370 381 C 403 359 426 328 439 286 C 435 397 403 487 343 555 C 282 623 194 658 79 658 L 79 665 C 189 665 277 631 345 564 C 413 496 447 397 447 267 C 447 183 429 117 393 67 C 357 17 309 -8 249 -8 Z M 249 -1 C 305 -1 350 22 385 70 C 420 117 438 179 438 257 C 430 301 411 337 379 365 C 347 393 305 407 253 407 C 195 407 148 387 113 349 C 77 310 60 259 60 197 C 60 137 77 89 112 53 C 146 17 192 -1 249 -1 Z" unicode="∂" />
<glyph horiz-adv-x="474" d="M 92 0 L 92 658 L 382 658 L 382 0 L 374 0 L 374 651 L 100 651 L 100 0 L 92 0 Z" unicode="∏" />
<glyph horiz-adv-x="463" d="M 41 0 L 41 8 L 316 332 L 40 651 L 40 658 L 421 658 L 421 651 L 51 651 L 326 332 L 51 8 L 423 8 L 423 0 L 41 0 Z" unicode="∑" />
<glyph horiz-adv-x="508" d="M 40 283 L 40 290 L 468 290 L 468 283 L 40 283 Z" unicode="−" />
<glyph horiz-adv-x="541" d="M 204 0 L 16 462 L 25 462 L 209 8 L 501 726 L 509 726 L 213 0 L 204 0 Z" unicode="√" />
<glyph horiz-adv-x="787" d="M 204 73 C 162 73 128 86 102 114 C 76 141 64 177 64 221 C 64 265 76 300 102 328 C 128 356 161 370 202 370 C 236 370 267 359 294 338 C 321 316 352 283 386 239 L 394 228 C 430 278 462 315 492 337 C 522 359 552 370 584 370 C 626 370 659 356 685 329 C 710 301 723 266 723 222 C 723 178 710 142 685 114 C 660 86 627 73 586 73 C 550 73 519 83 493 105 C 466 126 436 159 402 204 L 394 215 C 358 165 326 128 296 106 C 266 84 236 73 204 73 Z M 408 209 C 441 165 470 132 496 111 C 522 90 552 80 586 80 C 625 80 656 93 680 119 C 704 145 716 180 716 222 C 716 264 704 298 680 324 C 656 350 624 363 584 363 C 553 363 523 352 495 330 C 466 308 434 272 398 222 L 408 209 Z M 72 221 C 72 179 84 145 108 119 C 132 93 164 80 204 80 C 235 80 265 90 293 112 C 321 133 354 169 390 221 L 380 234 C 347 277 317 309 291 331 C 265 352 235 363 202 363 C 163 363 132 349 108 323 C 84 297 72 263 72 221 Z" unicode="∞" />
<glyph horiz-adv-x="499" d="M 41 -220 C 25 -220 11 -217 -3 -213 C -17 -209 -29 -203 -40 -195 L -40 -186 C -28 -194 -16 -201 -2 -206 C 12 -210 26 -213 41 -213 C 77 -213 106 -199 128 -172 C 150 -144 164 -104 172 -50 L 259 563 C 267 619 282 661 306 689 C 329 717 360 732 398 732 C 413 732 428 729 442 725 C 456 721 468 715 479 707 L 479 698 C 467 706 455 713 441 718 C 427 722 412 725 398 725 C 362 725 333 711 311 684 C 289 656 274 616 267 562 L 180 -51 C 172 -107 156 -149 133 -177 C 109 -205 79 -220 41 -220 Z" unicode="∫" />
<glyph horiz-adv-x="369" d="M 70 323 L 64 328 C 74 343 85 354 95 360 C 105 366 117 370 131 370 C 141 370 150 368 159 364 C 168 360 178 353 189 345 C 199 336 209 330 217 326 C 225 322 232 321 239 321 C 251 321 261 324 271 330 C 280 336 289 346 299 360 L 305 355 C 294 340 284 329 274 323 C 264 316 252 313 239 313 C 231 313 223 315 215 319 C 207 323 197 329 185 338 C 174 346 164 352 156 356 C 148 360 139 362 131 362 C 118 362 107 359 98 353 C 88 347 79 337 70 323 Z M 70 205 L 64 210 C 74 225 85 236 95 242 C 105 248 117 252 131 252 C 141 252 150 250 159 246 C 168 242 178 235 189 227 C 199 218 209 212 217 208 C 225 204 232 203 239 203 C 251 203 261 206 271 212 C 280 218 289 228 299 242 L 305 237 C 294 222 284 211 274 205 C 264 198 252 195 239 195 C 231 195 223 197 215 201 C 207 205 197 211 185 220 C 174 228 164 234 156 238 C 148 242 139 244 131 244 C 118 244 107 241 98 235 C 88 229 79 219 70 205 Z" unicode="≈" />
<glyph horiz-adv-x="508" d="M 158 80 L 303 488 L 311 488 L 166 80 L 158 80 Z M 40 343 L 40 350 L 468 350 L 468 343 L 40 343 Z M 40 215 L 40 222 L 468 222 L 468 215 L 40 215 Z" unicode="≠" />
<glyph horiz-adv-x="399" d="M 316 79 L 72 277 L 316 475 L 327 475 L 83 277 L 327 79 L 316 79 Z M 80 -20 L 80 -13 L 319 -13 L 319 -20 L 80 -20 Z" unicode="≤" />
<glyph horiz-adv-x="399" d="M 72 79 L 316 277 L 72 475 L 83 475 L 327 277 L 83 79 L 72 79 Z M 80 -20 L 80 -13 L 319 -13 L 319 -20 L 80 -20 Z" unicode="≥" />
<glyph horiz-adv-x="608" d="M 304 -11 L 44 338 L 304 687 L 564 338 L 304 -11 Z M 304 1 L 555 338 L 304 675 L 53 338 L 304 1 Z" unicode="◊" />
<glyph horiz-adv-x="541" d="M 204 0 L 16 462 L 25 462 L 209 10 L 501 726 L 509 726 L 213 0 L 204 0 Z" unicode="✓" />
<glyph horiz-adv-x="694" d="M 72 0 L 72 8 L 304 8 L 304 85 C 228 99 167 132 121 182 C 75 232 52 295 52 371 C 52 457 81 528 139 583 C 197 638 267 666 347 666 C 427 666 496 638 554 583 C 612 528 642 457 642 371 C 642 295 618 232 571 182 C 523 132 462 99 387 85 L 387 8 L 619 8 L 619 0 L 380 0 L 380 91 C 455 104 516 135 563 185 C 610 234 634 296 634 371 C 634 455 605 524 548 578 C 491 632 424 659 347 659 C 269 659 202 632 145 578 C 88 524 60 455 60 371 C 60 297 83 236 129 186 C 175 136 235 104 311 91 L 311 0 L 72 0 Z" unicode="Ꞷ" />
<glyph horiz-adv-x="147" d="M 29 -192 L 24 -187 C 40 -168 51 -149 57 -131 C 63 -113 67 -92 67 -70 L 67 -40 L 75 -40 L 75 -70 C 75 -93 72 -114 66 -133 C 60 -151 47 -171 29 -192 Z" unicode="" />
<glyph horiz-adv-x="664" d="M 0 0 L 0 658 L 664 658 L 664 0 L 0 0 Z M 225 77 L 233 77 L 233 575 L 375 575 L 375 77 L 383 77 L 383 309 L 418 309 C 461 309 496 321 523 347 C 549 372 563 405 563 446 C 563 486 549 519 523 544 C 496 569 461 582 418 582 L 100 582 L 100 575 L 225 575 L 225 77 Z" unicode="" />
<glyph horiz-adv-x="403" d="M 110 0 L 110 455 L 22 455 L 22 462 L 110 462 L 110 596 C 110 640 121 674 144 699 C 166 723 196 736 234 736 C 249 736 263 735 276 733 C 288 731 302 728 317 724 L 317 716 C 301 720 287 724 275 726 C 262 728 248 729 234 729 C 199 729 171 717 150 693 C 128 669 118 637 118 596 L 118 462 L 208 462 L 208 455 L 118 455 L 118 0 L 110 0 Z M 319 0 L 319 462 L 327 462 L 327 0 L 319 0 Z" unicode="ﬁ" />
<glyph horiz-adv-x="403" d="M 110 0 L 110 455 L 22 455 L 22 462 L 110 462 L 110 596 C 110 640 121 674 144 699 C 166 723 196 736 234 736 C 249 736 263 735 276 733 C 288 731 302 728 317 724 L 317 716 C 301 720 287 724 275 726 C 262 728 248 729 234 729 C 199 729 171 717 150 693 C 128 669 118 637 118 596 L 118 462 L 208 462 L 208 455 L 118 455 L 118 0 L 110 0 Z M 319 0 L 319 724 L 327 724 L 327 0 L 319 0 Z" unicode="ﬂ" />
</font>
</defs>
</svg>
