<?xml version="1.0" encoding="utf-8" ?><svg version="1.1" xmlns = 'http://www.w3.org/2000/svg'><defs><font id='web' horiz-adv-x="1000">
<font-face font-family="web" descent="-252" cap-height="658" units-per-em="1000" bbox="-156,-324,1225,1000" x-height="464" ascent="748" />
<missing-glyph horiz-adv-x="500" d="M 50 -252 L 450 -252 L 450 748 L 50 748 L 50 -252 Z M 100 -202 L 100 698 L 400 698 L 400 -202 L 100 -202 Z" /><glyph horiz-adv-x="200" d="" unicode=" " />
<glyph horiz-adv-x="189" d="M 93 177 L 168 712 L 221 712 L 146 177 L 93 177 Z M 64 0 L 73 60 L 133 60 L 124 0 L 64 0 Z" unicode="!" />
<glyph horiz-adv-x="279" d="M 138 537 L 164 722 L 214 722 L 188 537 L 138 537 Z M 243 537 L 269 722 L 319 722 L 293 537 L 243 537 Z" unicode="&#x22;" />
<glyph horiz-adv-x="533" d="M 121 -33 L 161 120 L 57 120 L 64 171 L 175 171 L 210 306 L 99 306 L 107 357 L 224 357 L 264 509 L 314 509 L 274 357 L 387 357 L 427 509 L 477 509 L 437 357 L 537 357 L 529 306 L 423 306 L 387 171 L 496 171 L 489 120 L 374 120 L 333 -33 L 284 -33 L 324 120 L 211 120 L 170 -33 L 121 -33 Z M 224 171 L 338 171 L 373 306 L 260 306 L 224 171 Z" unicode="#" />
<glyph horiz-adv-x="501" d="M 216 -93 L 227 -15 C 196 -13 167 -7 139 2 C 111 11 86 23 63 38 L 72 101 C 92 82 117 67 145 57 C 173 46 202 40 234 38 L 273 316 C 223 336 187 361 165 389 C 143 417 132 449 132 486 C 132 536 148 579 182 615 C 215 651 262 671 323 674 L 334 751 L 384 751 L 373 672 C 397 669 421 663 444 655 C 467 647 488 636 507 624 L 499 560 C 480 578 459 591 437 601 C 415 610 391 616 366 619 L 328 355 C 378 333 413 308 435 279 C 457 250 468 218 468 182 C 468 128 450 82 414 46 C 378 10 333 -10 277 -15 L 266 -93 L 216 -93 Z M 189 491 C 189 467 196 446 210 428 C 224 409 248 391 281 375 L 316 620 C 278 616 247 603 224 580 C 200 556 189 527 189 491 Z M 410 177 C 410 200 403 221 389 241 C 375 260 352 278 320 295 L 285 39 C 318 43 347 57 372 81 C 397 105 410 137 410 177 Z" unicode="$" />
<glyph horiz-adv-x="860" d="M 256 352 C 211 352 176 367 151 397 C 126 427 114 465 114 512 C 114 574 129 626 161 667 C 192 707 235 728 291 728 C 337 728 372 713 397 683 C 421 653 434 616 434 570 C 434 507 418 455 386 414 C 354 372 311 352 256 352 Z M 263 0 L 642 722 L 692 722 L 314 0 L 263 0 Z M 258 397 C 296 397 326 412 349 443 C 372 473 384 515 384 567 C 384 603 375 631 358 652 C 340 672 317 683 289 683 C 251 683 221 668 198 638 C 175 608 164 567 164 515 C 164 478 172 449 189 428 C 206 407 229 397 258 397 Z M 669 -8 C 624 -8 589 7 564 37 C 539 67 527 105 527 152 C 527 214 542 266 574 307 C 605 347 648 368 704 368 C 750 368 785 353 810 323 C 834 293 847 256 847 210 C 847 147 831 95 799 54 C 767 12 724 -8 669 -8 Z M 671 37 C 709 37 739 52 762 83 C 785 113 797 155 797 207 C 797 243 788 271 771 292 C 753 312 730 323 702 323 C 664 323 634 308 611 278 C 588 248 577 207 577 155 C 577 118 585 89 602 68 C 619 47 642 37 671 37 Z" unicode="%" />
<glyph horiz-adv-x="604" d="M 492 -111 C 463 -111 440 -102 423 -86 C 406 -69 400 -46 405 -16 L 414 52 L 427 106 C 409 68 384 38 352 18 C 319 -1 285 -12 251 -12 C 204 -12 164 2 131 30 C 97 58 81 99 81 151 C 81 194 94 233 122 269 C 150 305 190 329 242 341 C 210 352 186 371 168 397 C 150 423 141 454 141 489 C 141 547 161 594 202 628 C 243 662 295 679 358 679 C 382 679 408 676 435 671 C 462 665 489 656 517 644 L 509 590 C 485 602 460 612 435 619 C 409 625 384 629 359 629 C 308 629 268 615 239 588 C 210 560 196 526 196 486 C 196 451 208 422 233 398 C 257 374 291 362 333 362 L 459 362 L 479 506 L 533 506 L 513 362 L 633 362 L 626 313 L 506 313 L 462 1 C 459 -17 462 -32 470 -44 C 478 -56 491 -62 508 -62 C 519 -62 531 -59 544 -55 C 556 -51 567 -45 576 -39 L 570 -90 C 558 -96 545 -101 531 -105 C 517 -109 504 -111 492 -111 Z M 265 39 C 307 39 345 55 378 89 C 410 123 431 168 439 224 L 452 313 L 321 313 C 264 313 219 298 187 269 C 154 240 138 203 138 159 C 138 125 149 96 171 73 C 193 50 225 39 265 39 Z" unicode="&#x26;" />
<glyph horiz-adv-x="176" d="M 138 536 L 164 722 L 216 722 L 190 536 L 138 536 Z" unicode="'" />
<glyph horiz-adv-x="316" d="M 215 -218 C 178 -154 149 -87 129 -19 C 108 48 98 119 98 192 C 98 290 118 386 158 480 C 198 573 255 654 329 722 L 394 722 C 317 652 258 570 216 477 C 174 383 153 289 153 193 C 153 123 163 54 184 -14 C 205 -82 236 -150 276 -218 L 215 -218 Z" unicode="(" />
<glyph horiz-adv-x="316" d="M -7 -218 C 69 -148 128 -66 170 27 C 212 120 233 215 233 311 C 233 380 222 449 202 518 C 181 586 151 654 111 722 L 172 722 C 208 658 236 591 257 523 C 278 455 289 384 289 312 C 289 214 268 118 228 24 C 187 -70 130 -150 58 -218 L -7 -218 Z" unicode=")" />
<glyph horiz-adv-x="566" d="M 172 57 L 129 92 L 283 260 L 91 316 L 117 373 L 302 301 L 323 508 L 382 508 L 344 300 L 550 373 L 560 316 L 353 260 L 461 92 L 406 57 L 315 235 L 172 57 Z" unicode="*" />
<glyph horiz-adv-x="520" d="M 243 71 L 271 265 L 84 265 L 91 313 L 278 313 L 305 506 L 355 506 L 327 313 L 514 313 L 507 265 L 320 265 L 293 71 L 243 71 Z" unicode="+" />
<glyph horiz-adv-x="173" d="M 55 -138 L 21 -110 C 37 -90 50 -70 58 -51 C 66 -32 72 -12 75 10 L 84 77 L 137 77 L 128 12 C 123 -16 115 -43 104 -68 C 93 -92 77 -116 55 -138 Z" unicode="," />
<glyph horiz-adv-x="352" d="M 66 206 L 73 255 L 353 255 L 346 206 L 66 206 Z" unicode="-" />
<glyph horiz-adv-x="169" d="M 53 0 L 62 62 L 124 62 L 115 0 L 53 0 Z" unicode="." />
<glyph horiz-adv-x="381" d="M 17 0 L 408 722 L 466 722 L 75 0 L 17 0 Z" unicode="/" />
<glyph horiz-adv-x="572" d="M 299 -13 C 241 -13 192 7 153 47 C 114 87 95 152 95 241 C 95 349 118 448 164 537 C 210 626 277 671 365 671 C 424 671 473 650 512 609 C 550 568 570 504 570 417 C 570 308 547 209 501 120 C 455 31 387 -13 299 -13 Z M 299 38 C 369 38 422 77 458 157 C 494 237 512 322 512 413 C 512 484 498 536 470 569 C 442 602 408 619 366 619 C 295 619 242 579 206 499 C 170 419 152 334 152 244 C 152 173 166 121 194 88 C 222 54 257 38 299 38 Z" unicode="0" />
<glyph horiz-adv-x="345" d="M 170 0 L 257 613 L 123 589 L 130 640 L 320 672 L 226 0 L 170 0 Z" unicode="1" />
<glyph horiz-adv-x="491" d="M 51 0 L 62 78 L 190 171 C 277 229 340 283 379 331 C 417 379 437 430 437 483 C 437 521 425 554 402 580 C 378 606 347 619 307 619 C 274 619 243 613 215 602 C 186 591 158 575 131 555 L 139 617 C 167 635 195 649 223 657 C 251 665 280 670 311 670 C 365 670 409 653 443 621 C 477 589 495 544 495 487 C 495 425 474 367 433 313 C 391 259 326 201 236 141 L 115 56 L 446 56 L 439 0 L 51 0 Z" unicode="2" />
<glyph horiz-adv-x="472" d="M 233 -12 C 193 -12 157 -6 127 4 C 96 15 68 31 44 53 L 53 116 C 75 90 102 70 133 58 C 163 45 197 39 233 39 C 280 39 319 51 349 77 C 379 103 395 137 395 181 C 395 222 380 254 352 276 C 323 298 282 310 228 310 L 198 310 L 206 363 L 232 363 C 286 363 332 376 370 404 C 408 432 427 468 427 514 C 427 548 416 574 396 592 C 376 610 347 619 310 619 C 280 619 250 613 222 603 C 193 592 166 577 140 557 L 148 617 C 175 634 203 647 231 656 C 259 665 289 670 319 670 C 372 670 413 657 442 631 C 470 605 485 569 485 521 C 485 478 469 439 439 405 C 409 371 370 348 322 338 C 360 331 391 314 415 287 C 439 259 451 224 451 180 C 451 124 431 78 392 42 C 352 6 299 -12 233 -12 Z" unicode="3" />
<glyph horiz-adv-x="537" d="M 340 0 L 366 184 L 69 184 L 75 225 L 430 670 L 490 670 L 429 234 L 529 234 L 522 184 L 422 184 L 396 0 L 340 0 Z M 373 234 L 422 583 L 144 234 L 373 234 Z" unicode="4" />
<glyph horiz-adv-x="504" d="M 234 -12 C 198 -12 165 -6 137 4 C 109 14 83 31 61 53 L 70 115 C 90 90 114 71 142 59 C 170 46 202 40 238 40 C 290 40 332 55 366 86 C 399 116 416 156 416 204 C 416 246 402 280 375 305 C 348 329 311 342 265 342 C 240 342 214 340 188 336 C 161 332 136 326 114 320 L 185 658 L 508 658 L 500 604 L 226 604 L 179 380 C 193 384 209 388 227 390 C 245 392 262 393 279 393 C 339 393 386 376 422 343 C 457 310 475 266 475 210 C 475 145 452 92 407 50 C 361 8 304 -12 234 -12 Z" unicode="5" />
<glyph horiz-adv-x="538" d="M 285 -12 C 225 -12 177 7 143 46 C 108 84 91 138 91 207 C 91 347 121 460 182 544 C 243 628 320 670 413 670 C 435 670 457 667 479 663 C 501 658 521 652 540 644 L 533 586 C 516 595 496 603 474 609 C 452 615 431 619 411 619 C 343 619 285 590 239 533 C 193 475 164 399 152 305 C 170 340 196 367 230 387 C 263 407 298 417 336 417 C 388 417 430 400 464 367 C 497 333 514 288 514 232 C 514 161 492 103 448 57 C 404 11 350 -12 285 -12 Z M 286 38 C 335 38 376 56 408 92 C 440 128 457 173 457 227 C 457 267 445 301 422 327 C 398 353 367 367 328 367 C 285 367 245 350 207 318 C 169 285 149 244 147 194 C 146 150 159 113 185 83 C 211 53 244 38 286 38 Z" unicode="6" />
<glyph horiz-adv-x="469" d="M 138 0 L 445 604 L 129 604 L 136 658 L 517 658 L 512 621 L 197 0 L 138 0 Z" unicode="7" />
<glyph horiz-adv-x="510" d="M 266 -13 C 208 -13 162 2 129 32 C 95 62 79 100 79 146 C 78 188 92 226 122 260 C 152 294 191 321 239 340 C 205 357 179 378 159 404 C 139 430 130 458 130 490 C 129 542 148 586 188 620 C 227 654 276 671 334 671 C 386 671 428 656 460 627 C 492 597 508 563 508 523 C 508 484 494 449 468 419 C 441 389 404 364 356 345 C 396 325 426 301 448 273 C 469 245 480 214 480 180 C 480 124 460 77 418 41 C 376 5 326 -13 266 -13 Z M 294 371 L 305 367 C 352 383 388 403 413 429 C 437 455 450 484 450 517 C 449 545 438 569 416 590 C 394 610 366 621 332 621 C 291 621 257 608 229 584 C 201 559 187 529 188 493 C 188 467 197 444 217 422 C 236 400 262 383 294 371 Z M 138 152 C 138 118 150 90 174 69 C 198 47 230 37 269 37 C 311 37 347 50 377 77 C 407 103 421 136 421 176 C 421 206 410 232 389 255 C 367 277 338 297 300 313 L 289 317 C 245 302 208 280 180 251 C 152 221 138 188 138 152 Z" unicode="8" />
<glyph horiz-adv-x="537" d="M 218 -12 C 196 -12 173 -9 150 -4 C 127 0 107 6 90 14 L 97 72 C 113 62 133 54 155 48 C 177 42 199 39 219 39 C 286 39 343 67 389 125 C 435 182 465 258 477 352 C 459 317 433 290 399 270 C 365 250 330 241 294 241 C 242 241 199 257 166 291 C 132 324 116 369 116 426 C 116 495 138 553 183 600 C 227 646 283 670 350 670 C 408 670 454 650 488 612 C 522 573 539 520 539 452 C 539 310 508 198 448 114 C 387 30 310 -12 218 -12 Z M 303 291 C 345 291 384 307 422 340 C 460 373 480 415 483 465 C 483 509 471 545 446 575 C 421 605 389 620 349 620 C 299 620 257 601 223 565 C 189 529 173 484 173 430 C 173 390 184 356 208 330 C 231 304 263 291 303 291 Z" unicode="9" />
<glyph horiz-adv-x="171" d="M 98 309 L 107 371 L 169 371 L 160 309 L 98 309 Z M 53 0 L 62 62 L 124 62 L 115 0 L 53 0 Z" unicode=":" />
<glyph horiz-adv-x="176" d="M 109 309 L 118 371 L 180 371 L 171 309 L 109 309 Z M 55 -138 L 21 -110 C 37 -90 50 -70 58 -51 C 66 -32 72 -12 75 10 L 84 77 L 137 77 L 128 12 C 123 -16 115 -43 104 -68 C 93 -92 77 -116 55 -138 Z" unicode=";" />
<glyph horiz-adv-x="436" d="M 310 80 L 100 282 L 367 484 L 445 484 L 175 281 L 384 80 L 310 80 Z" unicode="&#x3C;" />
<glyph horiz-adv-x="534" d="M 101 334 L 108 382 L 537 382 L 530 334 L 101 334 Z M 81 189 L 87 237 L 516 237 L 509 189 L 81 189 Z" unicode="=" />
<glyph horiz-adv-x="436" d="M 71 80 L 341 283 L 132 484 L 206 484 L 416 282 L 149 80 L 71 80 Z" unicode="&#x3E;" />
<glyph horiz-adv-x="405" d="M 183 177 C 189 226 202 267 220 301 C 238 335 267 370 305 406 C 338 438 362 467 378 495 C 394 522 402 549 402 577 C 402 609 392 635 372 653 C 352 671 323 681 285 681 C 257 681 229 676 201 667 C 173 657 147 644 125 626 L 134 687 C 156 700 182 711 210 719 C 238 727 266 731 295 731 C 345 731 384 718 414 692 C 444 666 459 630 459 583 C 459 549 448 515 428 482 C 408 448 379 414 343 378 C 309 344 283 313 267 284 C 250 254 239 219 234 177 L 183 177 Z M 153 0 L 162 60 L 222 60 L 214 0 L 153 0 Z" unicode="?" />
<glyph horiz-adv-x="776" d="M 376 -70 C 290 -70 219 -41 162 14 C 104 70 76 142 76 230 C 76 351 113 447 189 518 C 264 589 358 625 471 625 C 559 625 632 599 691 547 C 750 495 780 426 780 341 C 780 267 765 210 735 169 C 705 127 669 107 625 107 C 597 107 572 114 552 130 C 531 146 517 172 511 208 C 497 170 476 143 449 129 C 422 114 397 107 374 107 C 338 107 308 119 286 143 C 263 167 252 199 252 240 C 252 303 272 355 314 396 C 356 437 408 458 470 458 C 484 458 500 457 518 455 C 536 453 553 449 570 445 L 548 272 C 543 233 547 202 561 180 C 574 157 596 146 626 146 C 660 146 687 164 707 200 C 727 236 737 283 737 340 C 737 407 713 464 665 512 C 617 560 553 584 471 584 C 362 584 276 550 213 482 C 150 414 119 330 119 230 C 119 156 143 95 191 45 C 239 -5 301 -30 376 -30 C 408 -30 439 -26 469 -19 C 499 -11 529 -1 557 12 L 554 -33 C 525 -45 496 -55 466 -61 C 436 -67 406 -70 376 -70 Z M 380 147 C 403 147 428 158 455 181 C 482 204 502 263 515 359 L 522 413 C 514 414 505 415 496 417 C 486 418 476 419 466 419 C 417 419 376 402 344 368 C 312 334 296 293 296 243 C 296 214 303 191 318 173 C 333 155 354 147 380 147 Z" unicode="@" />
<glyph horiz-adv-x="615" d="M 19 0 L 374 667 L 427 667 L 596 0 L 539 0 L 483 225 L 195 225 L 76 0 L 19 0 Z M 221 275 L 471 275 L 403 547 L 391 599 L 365 547 L 221 275 Z" unicode="A" />
<glyph horiz-adv-x="520" d="M 76 0 L 168 658 L 327 658 C 389 658 435 643 465 615 C 495 587 510 550 510 506 C 510 467 498 431 476 398 C 453 364 415 343 361 335 C 410 328 445 311 465 283 C 485 255 495 225 495 192 C 495 136 475 90 435 54 C 395 18 336 0 258 0 L 76 0 Z M 183 359 L 284 359 C 336 359 378 370 408 394 C 438 418 453 452 453 497 C 453 532 441 559 419 579 C 396 598 364 608 322 608 L 218 608 L 183 359 Z M 140 50 L 264 50 C 318 50 361 62 391 88 C 421 113 437 147 437 191 C 437 228 424 257 399 278 C 374 299 337 310 287 310 L 175 310 L 140 50 Z" unicode="B" />
<glyph horiz-adv-x="671" d="M 420 -13 C 320 -13 242 15 184 73 C 126 131 98 203 98 289 C 98 397 135 488 209 561 C 283 634 376 671 488 671 C 526 671 563 666 599 657 C 635 648 671 634 706 616 L 698 559 C 666 578 632 593 596 603 C 560 613 523 619 485 619 C 391 619 312 588 250 526 C 187 464 156 385 156 291 C 156 216 180 155 230 109 C 280 62 344 39 424 39 C 462 39 499 44 535 54 C 571 64 606 80 642 100 L 633 41 C 597 22 562 8 527 0 C 491 -8 456 -13 420 -13 Z" unicode="C" />
<glyph horiz-adv-x="693" d="M 76 0 L 168 658 L 359 658 C 460 658 540 631 600 578 C 659 524 689 456 689 374 C 689 266 650 177 573 106 C 496 35 393 0 265 0 L 76 0 Z M 140 52 L 270 52 C 380 52 468 82 533 143 C 598 203 631 280 631 372 C 631 440 606 496 557 540 C 507 584 441 606 357 606 L 217 606 L 140 52 Z" unicode="D" />
<glyph horiz-adv-x="489" d="M 76 0 L 168 658 L 506 658 L 499 606 L 217 606 L 182 359 L 457 359 L 450 307 L 175 307 L 139 52 L 439 52 L 432 0 L 76 0 Z" unicode="E" />
<glyph horiz-adv-x="444" d="M 76 0 L 168 658 L 502 658 L 495 606 L 217 606 L 182 360 L 449 360 L 441 308 L 175 308 L 132 0 L 76 0 Z" unicode="F" />
<glyph horiz-adv-x="686" d="M 412 -13 C 315 -13 238 15 182 72 C 126 128 98 200 98 287 C 98 401 134 494 208 565 C 282 635 373 671 483 671 C 521 671 557 667 591 659 C 625 651 657 639 688 625 L 681 570 C 650 586 618 599 585 607 C 552 615 517 619 481 619 C 386 619 308 588 247 527 C 186 466 156 387 156 289 C 156 215 180 154 229 108 C 278 62 340 39 414 39 C 444 39 473 41 501 47 C 529 52 555 62 581 77 L 608 268 L 468 268 L 476 320 L 672 320 L 633 40 C 595 20 557 6 518 -1 C 478 -9 443 -13 412 -13 Z" unicode="G" />
<glyph horiz-adv-x="678" d="M 76 0 L 168 658 L 225 658 L 183 364 L 596 364 L 637 658 L 694 658 L 602 0 L 545 0 L 590 312 L 177 312 L 133 0 L 76 0 Z" unicode="H" />
<glyph horiz-adv-x="209" d="M 76 0 L 168 658 L 225 658 L 133 0 L 76 0 Z" unicode="I" />
<glyph horiz-adv-x="221" d="M -36 -212 L -44 -212 L -37 -160 L -29 -160 C 0 -160 23 -151 43 -135 C 62 -119 74 -94 79 -61 L 180 658 L 236 658 L 135 -61 C 128 -111 109 -149 78 -174 C 47 -199 9 -212 -36 -212 Z" unicode="J" />
<glyph horiz-adv-x="527" d="M 76 0 L 168 658 L 225 658 L 182 354 L 520 658 L 591 658 L 233 336 L 511 0 L 440 0 L 177 320 L 132 0 L 76 0 Z" unicode="K" />
<glyph horiz-adv-x="447" d="M 76 0 L 168 658 L 225 658 L 140 52 L 434 52 L 426 0 L 76 0 Z" unicode="L" />
<glyph horiz-adv-x="744" d="M 76 0 L 168 658 L 246 658 L 380 244 L 395 188 L 425 244 L 677 658 L 760 658 L 668 0 L 612 0 L 688 539 L 697 595 L 665 539 L 414 125 L 361 125 L 226 539 L 211 593 L 204 539 L 129 0 L 76 0 Z" unicode="M" />
<glyph horiz-adv-x="702" d="M 76 0 L 168 658 L 230 658 L 558 121 L 584 75 L 590 121 L 665 658 L 717 658 L 625 0 L 565 0 L 236 539 L 210 584 L 204 539 L 129 0 L 76 0 Z" unicode="N" />
<glyph horiz-adv-x="772" d="M 402 -14 C 308 -14 234 14 180 71 C 125 127 98 199 98 287 C 98 395 131 486 197 560 C 263 634 351 672 462 672 C 554 672 628 643 683 587 C 738 530 766 458 766 370 C 766 263 732 172 666 98 C 600 23 512 -14 402 -14 Z M 403 37 C 493 37 566 68 623 131 C 680 194 709 273 709 369 C 709 439 686 499 642 548 C 598 596 538 621 462 621 C 371 621 297 589 241 527 C 184 465 156 385 156 289 C 156 218 177 158 221 110 C 265 61 325 37 403 37 Z" unicode="O" />
<glyph horiz-adv-x="466" d="M 76 0 L 168 658 L 278 658 C 342 658 393 641 431 609 C 469 576 488 530 488 472 C 488 405 465 351 420 310 C 375 269 315 249 239 249 L 167 249 L 132 0 L 76 0 Z M 173 299 L 241 299 C 299 299 345 314 379 345 C 413 375 430 416 430 468 C 430 509 416 542 390 568 C 364 594 325 607 275 607 L 217 607 L 173 299 Z" unicode="P" />
<glyph horiz-adv-x="773" d="M 402 -14 C 308 -14 234 14 180 71 C 125 127 98 199 98 287 C 98 395 131 486 197 560 C 263 634 351 672 462 672 C 554 672 628 643 683 587 C 738 530 766 458 766 370 C 766 282 743 205 698 138 C 652 70 591 25 513 2 C 535 -15 561 -31 590 -45 C 619 -59 652 -71 688 -82 L 676 -136 C 628 -123 584 -106 544 -86 C 504 -65 469 -40 440 -12 C 433 -12 427 -13 421 -13 C 415 -13 408 -14 402 -14 Z M 403 37 C 493 37 566 68 623 131 C 680 194 709 273 709 369 C 709 439 686 499 642 548 C 598 596 538 621 462 621 C 371 621 297 589 241 527 C 184 465 156 385 156 289 C 156 218 177 158 221 110 C 265 61 325 37 403 37 Z" unicode="Q" />
<glyph horiz-adv-x="498" d="M 77 0 L 169 658 L 310 658 C 364 658 406 644 437 616 C 467 588 483 551 483 503 C 483 454 467 413 437 381 C 407 348 368 328 320 321 C 338 315 352 305 363 291 C 374 277 383 259 391 239 L 482 0 L 423 0 L 337 225 C 328 249 316 269 302 283 C 287 297 268 304 244 304 L 176 304 L 133 0 L 77 0 Z M 182 353 L 271 353 C 317 353 353 366 381 394 C 409 422 423 456 423 497 C 423 531 412 557 391 577 C 370 597 342 607 306 607 L 218 607 L 182 353 Z" unicode="R" />
<glyph horiz-adv-x="502" d="M 256 -16 C 220 -16 185 -11 153 -2 C 120 7 90 20 64 38 L 73 101 C 95 80 123 64 155 53 C 187 42 222 37 258 37 C 296 37 331 48 363 72 C 395 96 411 131 411 177 C 411 203 401 227 383 249 C 365 271 334 291 291 309 L 278 314 C 226 335 188 360 166 388 C 144 416 133 448 133 486 C 133 537 150 581 186 618 C 221 655 271 674 336 674 C 368 674 399 669 429 661 C 458 653 484 640 508 624 L 500 560 C 477 581 452 596 425 606 C 397 616 367 621 335 621 C 292 621 257 609 230 585 C 203 561 190 529 190 491 C 190 464 199 440 218 420 C 237 399 268 380 310 363 L 322 358 C 374 336 411 311 434 282 C 457 252 469 219 469 182 C 469 124 448 76 408 39 C 368 2 317 -16 256 -16 Z" unicode="S" />
<glyph horiz-adv-x="542" d="M 243 0 L 328 606 L 105 606 L 112 658 L 614 658 L 607 606 L 384 606 L 299 0 L 243 0 Z" unicode="T" />
<glyph horiz-adv-x="664" d="M 348 -12 C 260 -12 196 12 154 60 C 112 108 96 172 107 250 L 165 658 L 221 658 L 163 249 C 154 184 166 133 198 96 C 230 59 281 41 349 41 C 407 41 458 60 500 98 C 542 136 567 186 576 249 L 633 658 L 685 658 L 628 248 C 616 166 584 103 532 57 C 480 11 419 -12 348 -12 Z" unicode="U" />
<glyph horiz-adv-x="610" d="M 276 0 L 102 658 L 161 658 L 302 119 L 313 70 L 338 119 L 631 658 L 689 658 L 330 0 L 276 0 Z" unicode="V" />
<glyph horiz-adv-x="922" d="M 223 0 L 108 658 L 166 658 L 259 119 L 264 77 L 281 119 L 525 658 L 584 658 L 677 119 L 682 78 L 698 119 L 940 658 L 998 658 L 699 0 L 641 0 L 549 540 L 543 582 L 526 540 L 282 0 L 223 0 Z" unicode="W" />
<glyph horiz-adv-x="562" d="M 16 0 L 294 339 L 120 658 L 185 658 L 312 422 L 333 381 L 366 422 L 558 658 L 625 658 L 360 337 L 546 0 L 481 0 L 342 257 L 322 294 L 292 257 L 83 0 L 16 0 Z" unicode="X" />
<glyph horiz-adv-x="565" d="M 253 0 L 294 295 L 106 658 L 169 658 L 310 389 L 330 345 L 362 389 L 576 658 L 642 658 L 350 293 L 309 0 L 253 0 Z" unicode="Y" />
<glyph horiz-adv-x="570" d="M 48 0 L 53 31 L 488 568 L 519 606 L 133 606 L 141 658 L 612 658 L 608 629 L 171 90 L 140 52 L 528 52 L 521 0 L 48 0 Z" unicode="Z" />
<glyph horiz-adv-x="329" d="M 49 -218 L 182 722 L 371 722 L 364 675 L 229 675 L 110 -170 L 245 -170 L 238 -218 L 49 -218 Z" unicode="[" />
<glyph horiz-adv-x="462" d="M 391 0 L 119 722 L 172 722 L 445 0 L 391 0 Z" unicode="\" />
<glyph horiz-adv-x="320" d="M 20 -218 L 27 -170 L 162 -170 L 281 675 L 146 675 L 152 722 L 341 722 L 209 -218 L 20 -218 Z" unicode="]" />
<glyph horiz-adv-x="376" d="M 141 524 L 258 650 L 301 650 L 383 524 L 330 524 L 275 606 L 197 524 L 141 524 Z" unicode="^" />
<glyph horiz-adv-x="383" d="M -31 -218 L -24 -169 L 359 -169 L 353 -218 L -31 -218 Z" unicode="_" />
<glyph horiz-adv-x="234" d="M 211 524 L 116 655 L 179 655 L 270 524 L 211 524 Z" unicode="`" />
<glyph horiz-adv-x="510" d="M 234 -10 C 187 -10 148 7 117 42 C 85 76 70 121 70 177 C 70 259 97 329 153 387 C 209 445 276 474 356 474 C 379 474 403 472 428 468 C 452 464 477 459 503 451 L 457 117 C 454 97 452 77 450 58 C 448 39 448 20 448 0 L 393 0 C 393 14 393 30 395 46 C 396 62 398 78 400 93 L 404 128 C 385 78 360 42 328 21 C 296 0 265 -10 234 -10 Z M 244 39 C 275 39 310 56 349 91 C 387 125 415 208 433 338 L 443 413 C 428 417 413 420 398 422 C 383 424 367 425 351 425 C 289 425 235 401 191 353 C 146 305 124 247 124 181 C 124 135 136 99 161 75 C 185 51 213 39 244 39 Z" unicode="a" />
<glyph horiz-adv-x="515" d="M 230 -10 C 205 -10 179 -8 153 -5 C 127 -2 99 2 71 9 L 171 722 L 226 722 L 178 380 L 167 326 C 185 382 211 421 243 442 C 275 463 307 474 341 474 C 388 474 427 456 458 422 C 489 387 505 343 505 290 C 505 206 478 135 424 77 C 370 19 306 -10 230 -10 Z M 234 39 C 292 39 343 63 386 111 C 429 159 451 217 451 285 C 451 325 439 359 417 385 C 394 411 365 425 330 425 C 297 425 262 407 226 372 C 189 337 161 255 142 126 L 131 50 C 146 46 162 44 180 42 C 198 40 216 39 234 39 Z" unicode="b" />
<glyph horiz-adv-x="463" d="M 280 -10 C 216 -10 166 8 129 46 C 91 83 73 132 73 194 C 73 275 97 342 145 395 C 193 447 255 474 331 474 C 359 474 385 470 408 462 C 431 454 455 444 479 431 L 471 377 C 448 393 425 404 402 412 C 379 420 354 424 328 424 C 268 424 219 402 182 360 C 145 317 127 263 127 198 C 127 150 141 112 170 83 C 198 54 237 40 285 40 C 311 40 337 44 361 52 C 385 60 409 72 431 89 L 423 32 C 400 17 377 6 353 0 C 329 -6 304 -10 280 -10 Z" unicode="c" />
<glyph horiz-adv-x="518" d="M 242 -10 C 195 -10 156 7 124 42 C 92 77 77 122 77 177 C 77 259 104 329 159 387 C 213 445 278 474 353 474 C 370 474 387 472 405 468 C 422 464 439 457 456 449 L 495 722 L 549 722 L 464 117 C 461 97 459 77 457 58 C 455 39 455 20 455 0 L 401 0 C 401 14 401 30 403 46 C 404 62 405 77 407 93 L 411 126 C 393 75 368 40 336 20 C 304 0 273 -10 242 -10 Z M 252 39 C 282 39 317 56 355 90 C 393 124 421 207 441 338 L 449 397 C 434 406 418 413 401 418 C 384 422 366 425 348 425 C 290 425 240 401 197 353 C 153 305 132 247 132 181 C 132 135 144 99 168 75 C 192 51 220 39 252 39 Z" unicode="d" />
<glyph horiz-adv-x="476" d="M 278 -10 C 213 -10 163 9 128 48 C 92 87 75 139 75 205 C 75 281 98 345 144 397 C 190 448 247 474 316 474 C 359 474 394 463 420 442 C 446 420 460 392 460 358 C 460 311 440 276 400 252 C 360 228 296 214 208 209 L 130 204 C 130 151 144 110 170 82 C 196 53 234 39 282 39 C 311 39 338 44 364 54 C 390 64 415 79 441 101 L 432 40 C 407 22 382 9 358 1 C 333 -6 306 -10 278 -10 Z M 312 426 C 264 426 223 408 191 373 C 158 338 139 296 133 247 L 210 252 C 277 256 326 267 357 283 C 388 299 404 323 404 356 C 404 377 395 394 379 407 C 363 419 340 426 312 426 Z" unicode="e" />
<glyph horiz-adv-x="251" d="M 92 0 L 150 415 L 75 415 L 82 464 L 157 464 L 171 568 C 177 616 196 656 227 686 C 258 716 296 732 342 732 C 358 732 375 729 394 725 C 413 720 430 714 444 706 L 436 652 C 423 660 408 667 391 673 C 373 678 357 681 343 681 C 311 681 284 670 264 649 C 243 628 230 601 226 567 L 211 464 L 299 464 L 292 415 L 204 415 L 146 0 L 92 0 Z" unicode="f" />
<glyph horiz-adv-x="510" d="M 213 -226 C 181 -226 152 -222 124 -216 C 96 -209 69 -199 43 -187 L 51 -131 C 75 -146 100 -157 128 -165 C 156 -173 184 -177 213 -177 C 257 -177 295 -163 328 -136 C 361 -108 382 -60 392 8 L 409 126 C 391 74 366 39 334 19 C 302 0 271 -10 240 -10 C 193 -10 154 7 123 42 C 91 77 76 122 76 177 C 76 259 103 329 159 387 C 215 445 282 474 362 474 C 385 474 409 472 434 468 C 459 464 484 459 510 451 L 447 11 C 435 -73 408 -133 366 -170 C 324 -207 273 -226 213 -226 Z M 250 39 C 281 39 316 56 354 90 C 392 124 420 207 439 338 L 450 413 C 435 417 420 420 405 422 C 390 424 374 425 358 425 C 296 425 242 401 197 353 C 152 305 130 247 130 181 C 130 135 142 99 167 75 C 191 51 219 39 250 39 Z" unicode="g" />
<glyph horiz-adv-x="493" d="M 69 0 L 171 722 L 225 722 L 189 463 C 186 443 183 422 180 400 C 176 378 172 356 168 335 C 187 387 213 423 245 443 C 277 463 308 474 339 474 C 384 474 420 458 446 426 C 472 394 481 352 471 298 L 440 127 C 436 104 433 83 432 63 C 430 43 430 22 430 0 L 375 0 C 375 21 375 42 377 63 C 379 83 382 105 386 127 L 416 288 C 424 332 418 365 400 389 C 381 412 356 424 324 424 C 295 424 262 407 224 374 C 186 341 159 260 142 131 L 123 0 L 69 0 Z" unicode="h" />
<glyph horiz-adv-x="204" d="M 158 624 L 166 683 L 226 683 L 218 624 L 158 624 Z M 81 0 C 81 21 82 42 84 64 C 86 86 88 106 91 126 L 138 464 L 193 464 L 145 126 C 142 106 140 85 138 63 C 136 41 135 20 135 0 L 81 0 Z" unicode="i" />
<glyph horiz-adv-x="195" d="M 155 624 L 163 683 L 223 683 L 215 624 L 155 624 Z M -55 -212 L -63 -212 L -56 -161 L -48 -161 C -18 -161 5 -151 25 -131 C 45 -111 57 -84 62 -50 L 135 464 L 189 464 L 117 -50 C 109 -104 90 -144 60 -171 C 29 -198 -9 -212 -55 -212 Z" unicode="j" />
<glyph horiz-adv-x="445" d="M 69 0 L 171 722 L 225 722 L 160 257 C 208 289 252 322 293 355 C 333 388 371 424 405 464 L 469 464 C 430 418 390 378 350 343 C 309 307 265 273 217 241 L 424 0 L 356 0 L 157 236 L 123 0 L 69 0 Z" unicode="k" />
<glyph horiz-adv-x="196" d="M 80 0 C 79 21 80 44 82 68 C 84 92 86 113 89 133 L 172 722 L 227 722 L 143 127 C 140 106 138 85 136 64 C 134 42 134 21 134 0 L 80 0 Z" unicode="l" />
<glyph horiz-adv-x="805" d="M 76 0 L 126 353 C 128 373 130 393 132 411 C 133 429 134 447 134 464 L 188 464 C 188 450 187 434 187 417 C 186 400 184 384 182 370 L 176 336 C 195 387 220 423 251 443 C 282 463 312 474 342 474 C 376 474 407 463 435 442 C 462 420 476 386 477 338 C 499 392 526 428 559 446 C 592 464 622 474 649 474 C 695 474 731 458 757 427 C 783 396 791 353 782 298 L 753 127 C 749 104 746 82 744 62 C 742 42 742 21 742 0 L 687 0 C 687 21 688 42 690 62 C 692 82 694 104 698 127 L 726 288 C 733 330 728 363 711 387 C 694 411 668 424 634 424 C 588 424 549 399 518 350 C 487 300 465 227 452 131 L 434 0 L 379 0 L 420 288 C 426 330 420 363 403 387 C 386 411 361 424 327 424 C 281 424 243 399 213 350 C 183 300 162 227 149 131 L 131 0 L 76 0 Z" unicode="m" />
<glyph horiz-adv-x="492" d="M 76 0 L 126 353 C 128 373 130 393 132 411 C 133 429 134 447 134 464 L 188 464 C 188 450 187 434 186 416 C 185 398 184 382 182 370 L 177 336 C 195 387 219 423 249 443 C 279 463 308 474 337 474 C 386 474 422 457 446 424 C 470 390 477 348 468 298 L 438 127 C 434 104 431 83 430 63 C 429 43 429 22 429 0 L 374 0 C 374 21 374 42 375 63 C 376 83 379 105 383 127 L 413 288 C 420 330 415 363 397 387 C 379 411 354 424 322 424 C 294 424 262 406 227 370 C 191 334 165 255 149 131 L 131 0 L 76 0 Z" unicode="n" />
<glyph horiz-adv-x="525" d="M 279 -10 C 218 -10 168 8 130 45 C 92 82 73 133 73 199 C 73 276 96 341 142 394 C 188 447 244 474 312 474 C 372 474 422 455 460 418 C 498 380 518 329 518 265 C 518 187 495 122 449 69 C 403 16 346 -10 279 -10 Z M 280 39 C 332 39 375 60 410 103 C 445 146 463 199 463 262 C 463 312 449 351 421 381 C 393 410 356 425 310 425 C 258 425 214 403 179 360 C 144 317 127 264 127 201 C 127 151 141 112 169 83 C 197 53 234 39 280 39 Z" unicode="o" />
<glyph horiz-adv-x="523" d="M 47 -218 L 126 350 C 128 372 130 392 132 410 C 133 428 134 446 134 464 L 188 464 C 188 449 187 433 186 417 C 185 400 184 384 182 370 L 175 325 C 193 383 218 422 250 443 C 282 463 315 474 348 474 C 395 474 434 456 466 422 C 497 387 513 342 513 286 C 513 204 487 134 437 76 C 386 18 321 -10 242 -10 C 221 -10 202 -8 185 -5 C 167 -1 150 4 133 12 L 101 -218 L 47 -218 Z M 244 38 C 306 38 358 62 398 110 C 438 158 459 215 459 281 C 459 327 446 362 422 387 C 397 411 369 424 338 424 C 307 424 272 407 234 375 C 196 343 168 259 150 125 L 141 60 C 157 52 173 46 190 43 C 207 39 225 38 244 38 Z" unicode="p" />
<glyph horiz-adv-x="502" d="M 356 -218 L 405 126 C 387 75 362 40 330 20 C 298 0 267 -10 236 -10 C 189 -10 150 7 118 42 C 86 76 71 121 71 177 C 71 259 99 329 155 387 C 211 445 278 474 358 474 C 380 474 404 472 428 468 C 452 464 478 458 505 451 L 411 -218 L 356 -218 Z M 245 39 C 276 39 311 56 350 91 C 388 125 416 208 434 338 L 445 412 C 428 416 413 420 399 422 C 385 424 369 425 353 425 C 291 425 237 401 192 353 C 147 305 125 247 125 181 C 125 135 137 99 162 75 C 186 51 214 39 245 39 Z" unicode="q" />
<glyph horiz-adv-x="329" d="M 76 0 L 126 353 C 128 371 130 390 132 408 C 133 426 134 445 134 464 L 188 464 C 188 450 187 434 187 418 C 186 401 184 385 182 369 L 177 336 C 195 388 217 424 244 444 C 270 464 296 474 321 474 C 329 474 337 473 347 471 C 357 469 366 467 375 465 L 367 408 C 358 411 349 414 339 416 C 329 418 321 419 313 419 C 294 419 267 404 231 375 C 195 346 167 265 149 131 L 131 0 L 76 0 Z" unicode="r" />
<glyph horiz-adv-x="373" d="M 184 -10 C 163 -10 140 -6 114 0 C 88 6 66 15 48 26 L 56 80 C 72 67 93 57 117 49 C 141 41 164 37 186 37 C 216 37 242 44 262 59 C 282 74 293 95 293 122 C 293 141 286 158 272 172 C 258 186 237 200 207 213 L 193 218 C 159 232 134 248 118 268 C 102 288 94 313 94 344 C 94 381 108 412 136 437 C 164 461 202 474 250 474 C 268 474 290 471 314 465 C 338 459 359 452 377 444 L 369 391 C 354 401 335 410 312 417 C 289 423 268 427 250 427 C 220 427 196 420 177 406 C 157 392 148 372 148 348 C 148 329 153 313 165 301 C 176 288 194 276 220 266 L 234 261 C 273 245 302 226 320 205 C 338 184 347 158 347 128 C 347 88 332 55 303 29 C 273 3 234 -10 184 -10 Z" unicode="s" />
<glyph horiz-adv-x="292" d="M 189 -9 C 157 -9 134 0 119 19 C 103 38 98 65 103 101 L 147 414 L 75 414 L 82 464 L 155 464 L 176 617 L 231 617 L 209 464 L 329 464 L 322 414 L 201 414 L 158 105 C 155 83 158 66 166 56 C 174 46 186 41 204 41 C 215 41 226 42 238 46 C 249 50 260 55 272 63 L 265 12 C 253 5 241 0 228 -3 C 214 -7 201 -9 189 -9 Z" unicode="t" />
<glyph horiz-adv-x="494" d="M 222 -12 C 176 -12 140 4 114 36 C 88 68 79 111 88 166 L 117 340 C 121 362 123 383 125 403 C 127 423 128 443 128 464 L 182 464 C 182 442 181 422 179 402 C 177 382 174 361 171 339 L 145 176 C 137 130 143 96 161 73 C 179 50 204 39 237 39 C 265 39 297 56 334 90 C 370 124 397 199 414 316 L 434 464 L 489 464 L 439 112 C 436 91 434 71 433 53 C 431 34 431 16 431 0 L 377 0 C 377 14 377 29 378 46 C 378 62 380 78 383 93 L 388 128 C 369 76 344 39 313 19 C 282 -1 252 -12 222 -12 Z" unicode="u" />
<glyph horiz-adv-x="431" d="M 187 0 L 81 464 L 136 464 L 218 108 L 225 64 C 260 118 293 177 324 242 C 355 306 385 380 413 464 L 468 464 C 432 362 395 273 357 199 C 319 125 279 58 238 0 L 187 0 Z" unicode="v" />
<glyph horiz-adv-x="716" d="M 179 0 L 81 464 L 135 464 L 213 108 L 219 64 C 251 122 282 184 312 251 C 342 317 372 388 400 464 L 454 464 L 525 108 L 532 65 C 564 125 594 188 623 256 C 651 323 678 392 702 464 L 754 464 C 726 380 694 299 659 221 C 623 143 586 69 546 0 L 493 0 L 424 346 L 417 386 C 389 314 359 246 328 181 C 296 116 265 56 233 0 L 179 0 Z" unicode="w" />
<glyph horiz-adv-x="432" d="M 21 0 L 222 239 L 103 464 L 165 464 L 241 320 L 259 282 L 289 320 L 409 464 L 472 464 L 284 239 L 410 0 L 349 0 L 263 163 L 247 196 L 221 163 L 85 0 L 21 0 Z" unicode="x" />
<glyph horiz-adv-x="451" d="M 276 -14 C 228 -83 176 -134 122 -168 C 68 -201 10 -218 -52 -218 L -60 -218 L -53 -168 L -45 -168 C 3 -168 49 -154 95 -127 C 140 -99 178 -64 209 -22 L 82 464 L 139 464 L 233 108 L 249 26 C 285 86 319 154 350 229 C 380 304 407 382 431 464 L 487 464 C 454 358 420 266 385 187 C 350 108 314 41 276 -14 Z" unicode="y" />
<glyph horiz-adv-x="427" d="M 42 0 L 47 34 L 336 384 L 362 414 L 105 414 L 112 464 L 446 464 L 441 429 L 153 79 L 127 50 L 392 50 L 385 0 L 42 0 Z" unicode="z" />
<glyph horiz-adv-x="419" d="M 318 -218 C 252 -218 204 -202 174 -171 C 144 -139 135 -92 148 -28 L 173 90 C 180 128 174 159 155 181 C 135 203 105 218 63 225 L 71 279 C 115 285 149 300 175 322 C 200 344 214 375 218 415 L 226 533 C 230 597 252 644 291 675 C 329 706 382 722 448 722 L 475 722 L 468 674 L 440 674 C 392 674 354 662 326 638 C 298 614 283 577 280 528 L 273 415 C 270 370 256 334 231 308 C 206 281 174 263 134 253 L 134 252 C 170 240 197 220 215 193 C 232 166 236 132 228 90 L 204 -23 C 194 -72 199 -109 220 -133 C 241 -157 275 -170 323 -170 L 352 -170 L 345 -218 L 318 -218 Z" unicode="{" />
<glyph horiz-adv-x="172" d="M 31 -218 L 163 722 L 212 722 L 80 -218 L 31 -218 Z" unicode="|" />
<glyph horiz-adv-x="419" d="M 15 -218 L 22 -170 L 51 -170 C 98 -170 135 -157 163 -133 C 191 -109 206 -72 210 -23 L 218 90 C 220 130 233 164 257 192 C 281 220 313 240 355 252 L 355 253 C 319 264 292 284 275 312 C 257 340 253 375 262 415 L 286 528 C 296 577 291 614 270 638 C 248 662 214 674 167 674 L 138 674 L 145 722 L 173 722 C 239 722 287 706 317 675 C 347 644 355 597 342 533 L 318 415 C 310 375 315 344 335 322 C 354 300 385 285 427 279 L 419 225 C 375 218 340 203 315 181 C 289 159 275 128 273 90 L 265 -28 C 260 -92 238 -139 200 -171 C 161 -202 109 -218 43 -218 L 15 -218 Z" unicode="}" />
<glyph horiz-adv-x="349" d="M 94 146 L 54 146 C 60 178 71 201 86 217 C 101 233 121 241 146 241 C 158 241 170 238 182 233 C 194 227 206 219 220 208 C 230 199 239 192 247 188 C 254 184 261 182 268 182 C 280 182 290 186 299 195 C 308 203 315 216 319 233 L 359 233 C 352 201 341 178 326 162 C 310 146 291 138 268 138 C 254 138 241 140 230 146 C 218 151 206 160 194 172 C 184 180 175 187 167 191 C 159 195 152 198 145 198 C 132 198 121 193 113 184 C 104 175 98 162 94 146 Z" unicode="~" />
<glyph horiz-adv-x="204" d="M 135 449 L 144 510 L 204 510 L 196 449 L 135 449 Z M 48 -207 L 124 333 L 177 333 L 101 -207 L 48 -207 Z" unicode="¡" />
<glyph horiz-adv-x="462" d="M 221 -103 L 235 -6 C 185 2 145 24 116 60 C 87 95 73 140 73 194 C 73 269 94 332 136 384 C 178 436 233 465 301 472 L 315 568 L 362 568 L 349 473 C 373 471 395 467 416 460 C 436 452 457 443 479 431 L 471 377 C 450 391 429 402 408 410 C 387 418 365 422 342 424 L 288 40 C 314 40 339 44 363 52 C 387 60 409 72 431 89 L 423 32 C 400 17 377 6 353 0 C 329 -6 305 -10 281 -10 L 268 -103 L 221 -103 Z M 127 198 C 127 158 137 124 157 97 C 177 70 206 53 242 45 L 295 422 C 244 414 203 389 173 348 C 142 307 127 257 127 198 Z" unicode="¢" />
<glyph horiz-adv-x="515" d="M 57 0 L 65 53 C 107 77 139 110 162 153 C 184 196 194 247 190 306 L 189 312 L 93 312 L 99 362 L 185 362 L 182 401 C 176 484 191 550 229 599 C 266 647 322 672 397 672 C 426 672 454 668 481 661 C 507 653 532 643 554 631 L 546 574 C 524 590 500 602 474 610 C 448 618 422 622 396 622 C 342 622 300 602 272 564 C 243 525 231 472 237 404 L 240 362 L 418 362 L 411 312 L 244 312 L 244 309 C 248 257 241 208 224 164 C 207 119 178 82 138 54 L 461 54 L 454 0 L 57 0 Z" unicode="£" />
<glyph horiz-adv-x="588" d="M 98 47 L 63 89 L 180 192 C 172 203 167 215 163 229 C 159 243 157 257 157 272 C 157 298 161 323 169 345 C 177 367 188 386 202 403 L 119 498 L 166 540 L 249 443 C 263 451 278 458 296 463 C 313 468 331 471 350 471 C 370 471 390 467 408 461 C 426 454 443 445 458 434 L 577 538 L 612 497 L 494 393 C 502 381 508 368 512 354 C 516 340 519 325 519 310 C 519 283 515 259 507 237 C 499 215 489 195 475 179 L 553 89 L 505 47 L 427 139 C 413 130 397 123 380 118 C 363 113 345 111 327 111 C 305 111 284 114 266 121 C 247 128 230 138 216 151 L 98 47 Z M 331 160 C 370 160 403 173 429 201 C 455 229 468 263 468 303 C 468 336 456 364 433 387 C 409 410 380 422 345 422 C 305 422 273 408 247 380 C 221 352 209 319 209 279 C 209 245 220 217 244 194 C 267 171 296 160 331 160 Z" unicode="¤" />
<glyph horiz-adv-x="565" d="M 168 135 L 174 178 L 278 178 L 286 238 L 182 238 L 188 281 L 292 281 L 294 295 L 106 658 L 169 658 L 310 389 L 330 345 L 362 389 L 576 658 L 642 658 L 350 293 L 348 281 L 451 281 L 445 238 L 342 238 L 334 178 L 437 178 L 431 135 L 328 135 L 309 0 L 253 0 L 272 135 L 168 135 Z" unicode="¥" />
<glyph horiz-adv-x="172" d="M 106 314 L 163 722 L 212 722 L 155 314 L 106 314 Z M 31 -218 L 88 190 L 137 190 L 80 -218 L 31 -218 Z" unicode="¦" />
<glyph horiz-adv-x="399" d="M 196 -12 C 170 -12 146 -8 124 -2 C 102 4 81 14 62 27 L 69 80 C 87 64 107 52 128 44 C 148 36 171 32 197 32 C 231 32 257 40 277 57 C 296 74 306 98 306 128 C 306 148 299 165 285 181 C 271 196 248 209 218 221 L 204 226 C 172 238 148 253 132 271 C 115 289 107 312 107 341 C 107 363 112 384 123 404 C 134 424 150 439 170 451 C 158 461 149 473 143 486 C 137 499 134 514 134 531 C 134 573 147 606 175 632 C 202 657 240 670 290 670 C 312 670 334 667 356 662 C 377 656 397 648 416 638 L 408 587 C 391 599 373 609 353 616 C 333 622 311 626 289 626 C 257 626 232 618 214 602 C 196 586 187 564 187 538 C 187 521 192 506 204 494 C 215 481 234 470 261 460 L 276 455 C 312 441 339 423 358 403 C 377 383 387 357 387 327 C 387 303 382 281 372 263 C 362 245 346 230 326 219 C 337 208 345 196 351 182 C 357 168 360 153 360 137 C 360 91 345 55 316 28 C 287 1 247 -12 196 -12 Z M 247 265 C 255 262 262 259 270 256 C 277 252 284 249 291 245 C 305 252 315 262 322 275 C 329 287 333 302 333 320 C 333 338 326 355 313 371 C 299 386 277 399 247 410 L 232 416 C 227 417 223 419 219 421 C 215 423 211 424 207 426 C 192 418 180 408 172 394 C 164 380 160 364 160 348 C 160 331 165 316 177 303 C 188 290 207 279 233 271 L 247 265 Z" unicode="§" />
<glyph horiz-adv-x="266" d="M 111 538 L 119 598 L 179 598 L 171 538 L 111 538 Z M 249 538 L 258 598 L 318 598 L 309 538 L 249 538 Z" unicode="¨" />
<glyph horiz-adv-x="647" d="M 360 120 C 286 120 225 144 176 194 C 127 244 103 305 103 379 C 103 462 130 534 184 595 C 238 656 309 687 396 687 C 469 687 530 662 580 613 C 629 563 654 502 654 429 C 654 345 626 273 572 212 C 518 150 447 120 360 120 Z M 361 157 C 429 157 488 182 539 233 C 590 283 616 348 616 428 C 616 492 594 545 552 587 C 509 629 457 650 396 650 C 327 650 267 624 217 574 C 166 524 141 459 141 379 C 141 315 162 262 205 220 C 247 178 299 157 361 157 Z M 367 230 C 322 230 286 244 259 273 C 232 301 219 337 219 379 C 219 436 236 483 271 521 C 306 559 351 578 407 578 C 425 578 443 575 460 571 C 477 567 493 560 509 552 L 503 508 C 488 518 472 526 456 532 C 439 537 422 540 405 540 C 361 540 326 525 300 495 C 274 465 261 427 261 381 C 261 349 271 322 291 301 C 311 279 337 269 369 269 C 387 269 406 272 424 278 C 442 284 459 292 475 304 L 468 260 C 452 250 435 243 417 238 C 399 232 383 230 367 230 Z" unicode="©" />
<glyph horiz-adv-x="433" d="M 256 354 C 220 354 190 367 166 394 C 142 421 131 456 131 500 C 131 564 152 618 196 664 C 239 709 291 732 351 732 C 371 732 391 730 411 727 C 430 723 449 718 469 712 L 433 458 C 431 441 429 425 427 410 C 425 394 425 379 425 363 L 379 363 C 379 374 379 386 380 398 C 381 410 382 422 383 434 L 386 458 C 372 420 352 393 328 377 C 304 361 280 354 256 354 Z M 266 397 C 288 397 314 409 343 434 C 372 459 394 522 409 623 L 417 678 C 404 682 392 685 381 687 C 370 688 358 689 346 689 C 302 689 263 670 229 634 C 195 597 179 554 179 504 C 179 470 187 443 205 425 C 223 406 243 397 266 397 Z M 98 245 L 104 291 L 413 291 L 406 245 L 98 245 Z" unicode="ª" />
<glyph horiz-adv-x="456" d="M 361 69 L 230 226 L 405 384 L 470 384 L 295 226 L 426 69 L 361 69 Z M 203 69 L 72 226 L 247 384 L 312 384 L 138 226 L 268 69 L 203 69 Z" unicode="«" />
<glyph horiz-adv-x="388" d="M 329 175 L 342 268 L 67 268 L 74 316 L 394 316 L 374 175 L 329 175 Z" unicode="¬" />
<glyph horiz-adv-x="355" d="M 66 206 L 73 255 L 353 255 L 346 206 L 66 206 Z" unicode="­" />
<glyph horiz-adv-x="647" d="M 360 120 C 286 120 225 144 176 194 C 127 244 103 305 103 379 C 103 462 130 534 184 595 C 238 656 309 687 396 687 C 469 687 530 662 580 613 C 629 563 654 502 654 429 C 654 345 626 273 572 212 C 518 150 447 120 360 120 Z M 361 157 C 429 157 488 182 539 233 C 590 283 616 348 616 428 C 616 492 594 545 552 587 C 509 629 457 650 396 650 C 327 650 267 624 217 574 C 166 524 141 459 141 379 C 141 315 162 262 205 220 C 247 178 299 157 361 157 Z M 262 232 L 311 579 L 396 579 C 424 579 448 571 466 556 C 484 540 493 520 493 496 C 493 472 484 450 467 432 C 449 413 428 402 402 400 C 411 397 419 391 426 382 C 433 373 439 363 444 353 L 494 232 L 448 232 L 402 340 C 396 354 389 366 380 374 C 371 382 360 386 348 386 L 325 386 L 304 232 L 262 232 Z M 331 423 L 373 423 C 397 423 415 429 429 442 C 443 454 450 470 450 490 C 450 504 444 517 434 527 C 423 537 408 543 390 543 L 348 543 L 331 423 Z" unicode="®" />
<glyph horiz-adv-x="383" d="M 163 532 L 169 578 L 379 578 L 373 532 L 163 532 Z" unicode="¯" />
<glyph horiz-adv-x="336" d="M 243 486 C 209 486 183 496 164 517 C 145 538 136 563 136 593 C 136 632 149 664 175 690 C 201 715 231 728 267 728 C 300 728 326 717 346 696 C 365 675 375 650 375 620 C 375 581 361 549 335 524 C 308 498 277 486 243 486 Z M 245 526 C 269 526 290 535 307 553 C 324 571 333 593 333 617 C 333 637 326 654 313 668 C 300 681 284 688 265 688 C 240 688 219 678 202 660 C 185 642 177 621 177 597 C 177 576 183 559 196 546 C 209 532 225 526 245 526 Z" unicode="°" />
<glyph horiz-adv-x="520" d="M 243 71 L 271 265 L 84 265 L 91 313 L 278 313 L 305 506 L 355 506 L 327 313 L 514 313 L 507 265 L 320 265 L 293 71 L 243 71 Z M 42 -48 L 48 0 L 476 0 L 470 -48 L 42 -48 Z" unicode="±" />
<glyph horiz-adv-x="307" d="M 95 440 L 104 503 C 185 545 242 581 274 611 C 306 640 322 668 322 696 C 322 717 315 734 303 746 C 290 758 271 764 247 764 C 229 764 212 761 194 755 C 176 749 158 740 142 730 L 149 781 C 165 789 182 796 200 801 C 218 805 237 808 257 808 C 293 808 321 799 342 781 C 362 763 373 738 373 704 C 373 666 354 630 318 596 C 281 562 223 525 144 486 L 345 486 L 339 440 L 95 440 Z" unicode="²" />
<glyph horiz-adv-x="294" d="M 209 432 C 188 432 168 435 150 441 C 131 447 114 456 99 467 L 106 518 C 119 504 134 493 152 486 C 170 479 188 476 207 476 C 233 476 252 482 266 495 C 280 507 287 523 287 542 C 287 560 279 575 265 587 C 250 599 229 605 202 605 L 186 605 L 191 647 L 206 647 C 237 647 261 653 278 667 C 294 680 303 696 303 715 C 303 729 297 741 287 750 C 277 759 263 764 246 764 C 228 764 210 761 194 756 C 178 750 162 742 148 731 L 155 779 C 171 789 187 796 204 801 C 220 805 237 808 254 808 C 288 808 313 800 330 784 C 347 768 356 747 356 722 C 356 700 348 681 333 663 C 318 645 297 633 271 626 C 292 621 308 611 320 596 C 332 580 338 563 338 543 C 338 511 326 484 304 463 C 282 442 250 432 209 432 Z" unicode="³" />
<glyph horiz-adv-x="237" d="M 121 524 L 231 655 L 295 655 L 182 524 L 121 524 Z" unicode="´" />
<glyph horiz-adv-x="407" d="M 132 0 L 198 472 C 171 472 150 479 134 494 C 118 509 110 529 110 554 C 110 582 121 607 143 627 C 165 647 195 658 233 658 L 424 658 L 332 0 L 278 0 L 363 609 L 271 609 L 186 0 L 132 0 Z" unicode="¶" />
<glyph horiz-adv-x="168" d="M 80 191 L 89 251 L 150 251 L 141 191 L 80 191 Z" unicode="·" />
<glyph horiz-adv-x="226" d="M 91 -197 C 81 -197 71 -195 61 -192 C 51 -189 41 -185 33 -181 L 39 -142 C 45 -148 53 -152 63 -155 C 72 -158 82 -160 92 -160 C 105 -160 116 -156 124 -149 C 132 -142 137 -132 137 -120 C 137 -109 133 -100 125 -93 C 117 -86 108 -83 96 -83 L 90 -83 L 94 -46 L 100 -46 C 124 -46 143 -52 157 -66 C 171 -79 178 -96 178 -117 C 178 -141 170 -160 154 -175 C 138 -189 117 -197 91 -197 Z" unicode="¸" />
<glyph horiz-adv-x="282" d="M 105 440 L 110 483 L 191 483 L 230 759 L 137 743 L 144 790 L 288 815 L 241 483 L 322 483 L 316 440 L 105 440 Z" unicode="¹" />
<glyph horiz-adv-x="458" d="M 286 355 C 239 355 202 369 175 399 C 148 429 135 469 135 519 C 135 573 151 622 183 666 C 215 710 263 733 325 733 C 371 733 408 718 436 688 C 463 658 477 619 477 569 C 477 515 460 465 428 421 C 395 377 348 355 286 355 Z M 289 399 C 331 399 365 415 390 447 C 415 479 428 518 428 565 C 428 603 418 633 399 655 C 380 677 354 689 322 689 C 279 689 245 672 220 640 C 195 608 183 569 183 523 C 183 485 192 454 211 432 C 230 410 256 399 289 399 Z M 97 245 L 103 291 L 421 291 L 415 245 L 97 245 Z" unicode="º" />
<glyph horiz-adv-x="457" d="M 45 69 L 219 226 L 88 384 L 153 384 L 285 226 L 110 69 L 45 69 Z M 202 69 L 377 226 L 246 384 L 310 384 L 442 226 L 267 69 L 202 69 Z" unicode="»" />
<glyph horiz-adv-x="676" d="M 94 360 L 99 403 L 180 403 L 219 679 L 126 663 L 133 710 L 277 735 L 230 403 L 311 403 L 305 360 L 94 360 Z M 181 0 L 560 722 L 610 722 L 232 0 L 181 0 Z M 537 0 L 550 92 L 384 92 L 389 126 L 573 360 L 637 360 L 604 134 L 661 134 L 655 92 L 598 92 L 585 0 L 537 0 Z M 556 134 L 581 310 L 441 134 L 556 134 Z" unicode="¼" />
<glyph horiz-adv-x="684" d="M 94 360 L 99 403 L 180 403 L 219 679 L 126 663 L 133 710 L 277 735 L 230 403 L 311 403 L 305 360 L 94 360 Z M 172 0 L 551 722 L 601 722 L 223 0 L 172 0 Z M 407 0 L 416 63 C 497 105 554 141 586 171 C 618 200 634 228 634 256 C 634 277 627 294 615 306 C 602 318 583 324 559 324 C 541 324 524 321 506 315 C 488 309 470 300 454 290 L 461 341 C 477 349 494 356 512 361 C 530 365 549 368 569 368 C 605 368 633 359 654 341 C 674 323 685 298 685 264 C 685 226 666 190 630 156 C 593 122 535 85 456 46 L 657 46 L 651 0 L 407 0 Z" unicode="½" />
<glyph horiz-adv-x="656" d="M 198 352 C 177 352 157 355 139 361 C 120 367 103 376 88 387 L 95 438 C 108 424 123 413 141 406 C 159 399 177 396 196 396 C 222 396 241 402 255 415 C 269 427 276 443 276 462 C 276 480 268 495 254 507 C 239 519 218 525 191 525 L 175 525 L 180 567 L 195 567 C 226 567 250 573 267 587 C 283 600 292 616 292 635 C 292 649 286 661 276 670 C 266 679 252 684 235 684 C 217 684 199 681 183 676 C 167 670 151 662 137 651 L 144 699 C 160 709 176 716 193 721 C 209 725 226 728 243 728 C 277 728 302 720 319 704 C 336 688 345 667 345 642 C 345 620 337 601 322 583 C 307 565 286 553 260 546 C 281 541 297 531 309 516 C 321 500 327 483 327 463 C 327 431 315 404 293 383 C 271 362 239 352 198 352 Z M 179 0 L 558 722 L 608 722 L 230 0 L 179 0 Z M 527 0 L 540 92 L 374 92 L 379 126 L 563 360 L 627 360 L 594 134 L 651 134 L 645 92 L 588 92 L 575 0 L 527 0 Z M 546 134 L 571 310 L 431 134 L 546 134 Z" unicode="¾" />
<glyph horiz-adv-x="415" d="M 271 451 L 279 510 L 338 510 L 330 451 L 271 451 Z M 197 -215 C 147 -215 108 -201 79 -174 C 49 -146 35 -111 35 -67 C 35 -33 45 0 65 34 C 85 67 114 102 151 138 C 185 170 210 201 227 230 C 243 259 254 294 260 336 L 311 336 C 304 288 291 247 273 214 C 255 180 227 146 189 110 C 155 78 131 48 115 21 C 99 -6 92 -33 92 -61 C 92 -90 101 -115 121 -135 C 141 -155 169 -165 206 -165 C 234 -165 263 -160 292 -151 C 320 -141 346 -128 369 -110 L 360 -171 C 337 -184 312 -195 284 -203 C 256 -211 227 -215 197 -215 Z" unicode="¿" />
<glyph horiz-adv-x="615" d="M 394 720 L 302 847 L 361 847 L 449 720 L 394 720 Z M 19 0 L 374 667 L 427 667 L 596 0 L 539 0 L 483 225 L 195 225 L 76 0 L 19 0 Z M 221 275 L 471 275 L 403 547 L 391 599 L 365 547 L 221 275 Z" unicode="À" />
<glyph horiz-adv-x="615" d="M 362 720 L 469 847 L 531 847 L 420 720 L 362 720 Z M 19 0 L 374 667 L 427 667 L 596 0 L 539 0 L 483 225 L 195 225 L 76 0 L 19 0 Z M 221 275 L 471 275 L 403 547 L 391 599 L 365 547 L 221 275 Z" unicode="Á" />
<glyph horiz-adv-x="615" d="M 287 720 L 402 843 L 441 843 L 522 720 L 473 720 L 418 801 L 340 720 L 287 720 Z M 19 0 L 374 667 L 427 667 L 596 0 L 539 0 L 483 225 L 195 225 L 76 0 L 19 0 Z M 221 275 L 471 275 L 403 547 L 391 599 L 365 547 L 221 275 Z" unicode="Â" />
<glyph horiz-adv-x="615" d="M 300 720 L 263 720 C 269 750 280 773 295 789 C 309 804 328 812 352 812 C 364 812 376 809 388 804 C 400 799 412 791 425 779 C 435 770 443 764 451 760 C 458 756 465 754 472 754 C 484 754 494 758 503 766 C 512 774 519 787 523 805 L 560 805 C 553 774 542 751 528 735 C 513 719 494 712 472 712 C 458 712 446 714 435 720 C 423 725 411 733 399 745 C 389 753 381 760 373 764 C 365 768 358 771 351 771 C 339 771 328 767 320 759 C 311 751 304 738 300 720 Z M 19 0 L 374 667 L 427 667 L 596 0 L 539 0 L 483 225 L 195 225 L 76 0 L 19 0 Z M 221 275 L 471 275 L 403 547 L 391 599 L 365 547 L 221 275 Z" unicode="Ã" />
<glyph horiz-adv-x="615" d="M 310 720 L 318 777 L 376 777 L 368 720 L 310 720 Z M 444 720 L 453 777 L 510 777 L 502 720 L 444 720 Z M 19 0 L 374 667 L 427 667 L 596 0 L 539 0 L 483 225 L 195 225 L 76 0 L 19 0 Z M 221 275 L 471 275 L 403 547 L 391 599 L 365 547 L 221 275 Z" unicode="Ä" />
<glyph horiz-adv-x="615" d="M 19 0 L 362 644 C 351 650 343 658 337 669 C 331 680 328 692 328 705 C 328 729 336 750 352 767 C 368 783 389 792 413 792 C 435 792 453 785 467 771 C 480 757 487 739 487 719 C 487 700 482 683 472 669 C 462 655 450 645 434 639 L 596 0 L 539 0 L 483 225 L 195 225 L 76 0 L 19 0 Z M 403 667 C 417 667 428 671 437 681 C 446 691 451 703 451 717 C 451 729 447 739 439 746 C 431 753 422 757 411 757 C 398 757 387 752 378 742 C 368 732 364 721 364 707 C 364 695 367 685 375 678 C 383 670 392 667 403 667 Z M 221 275 L 471 275 L 403 547 L 391 599 L 365 547 L 221 275 Z" unicode="Å" />
<glyph horiz-adv-x="819" d="M 10 0 L 465 658 L 836 658 L 829 606 L 546 606 L 512 359 L 787 359 L 780 307 L 505 307 L 469 52 L 769 52 L 762 0 L 406 0 L 437 225 L 228 225 L 71 0 L 10 0 Z M 262 276 L 444 276 L 491 607 L 458 556 L 262 276 Z" unicode="Æ" />
<glyph horiz-adv-x="671" d="M 420 -13 C 320 -13 242 15 184 73 C 126 131 98 203 98 289 C 98 397 135 488 209 561 C 283 634 376 671 488 671 C 526 671 563 666 599 657 C 635 648 671 634 706 616 L 698 559 C 666 578 632 593 596 603 C 560 613 523 619 485 619 C 391 619 312 588 250 526 C 187 464 156 385 156 291 C 156 216 180 155 230 109 C 280 62 344 39 424 39 C 462 39 499 44 535 54 C 571 64 606 80 642 100 L 633 41 C 597 22 562 8 527 0 C 491 -8 456 -13 420 -13 Z M 389 -194 C 379 -194 369 -192 359 -190 C 349 -187 340 -183 332 -179 L 337 -141 C 343 -147 351 -151 360 -154 C 369 -157 379 -159 389 -159 C 402 -159 413 -155 421 -148 C 429 -141 433 -132 433 -120 C 433 -109 429 -100 421 -93 C 413 -86 403 -83 391 -83 L 385 -83 L 390 -48 L 396 -48 C 418 -48 437 -54 451 -67 C 465 -79 472 -96 472 -117 C 472 -140 464 -159 449 -173 C 433 -187 413 -194 389 -194 Z" unicode="Ç" />
<glyph horiz-adv-x="489" d="M 341 720 L 249 847 L 308 847 L 396 720 L 341 720 Z M 76 0 L 168 658 L 506 658 L 499 606 L 217 606 L 182 359 L 457 359 L 450 307 L 175 307 L 139 52 L 439 52 L 432 0 L 76 0 Z" unicode="È" />
<glyph horiz-adv-x="489" d="M 309 720 L 416 847 L 478 847 L 367 720 L 309 720 Z M 76 0 L 168 658 L 506 658 L 499 606 L 217 606 L 182 359 L 457 359 L 450 307 L 175 307 L 139 52 L 439 52 L 432 0 L 76 0 Z" unicode="É" />
<glyph horiz-adv-x="489" d="M 234 720 L 349 843 L 388 843 L 469 720 L 420 720 L 365 801 L 287 720 L 234 720 Z M 76 0 L 168 658 L 506 658 L 499 606 L 217 606 L 182 359 L 457 359 L 450 307 L 175 307 L 139 52 L 439 52 L 432 0 L 76 0 Z" unicode="Ê" />
<glyph horiz-adv-x="489" d="M 257 720 L 265 777 L 323 777 L 315 720 L 257 720 Z M 391 720 L 400 777 L 457 777 L 449 720 L 391 720 Z M 76 0 L 168 658 L 506 658 L 499 606 L 217 606 L 182 359 L 457 359 L 450 307 L 175 307 L 139 52 L 439 52 L 432 0 L 76 0 Z" unicode="Ë" />
<glyph horiz-adv-x="209" d="M 193 720 L 101 847 L 160 847 L 248 720 L 193 720 Z M 76 0 L 168 658 L 225 658 L 133 0 L 76 0 Z" unicode="Ì" />
<glyph horiz-adv-x="209" d="M 161 720 L 268 847 L 330 847 L 219 720 L 161 720 Z M 76 0 L 168 658 L 225 658 L 133 0 L 76 0 Z" unicode="Í" />
<glyph horiz-adv-x="209" d="M 86 720 L 201 843 L 240 843 L 321 720 L 272 720 L 217 801 L 139 720 L 86 720 Z M 76 0 L 168 658 L 225 658 L 133 0 L 76 0 Z" unicode="Î" />
<glyph horiz-adv-x="209" d="M 109 720 L 117 777 L 175 777 L 167 720 L 109 720 Z M 243 720 L 252 777 L 309 777 L 301 720 L 243 720 Z M 76 0 L 168 658 L 225 658 L 133 0 L 76 0 Z" unicode="Ï" />
<glyph horiz-adv-x="699" d="M 80 0 L 123 307 L 67 307 L 74 356 L 130 356 L 172 658 L 363 658 C 464 658 544 631 604 578 C 663 524 693 456 693 374 C 693 266 654 177 577 106 C 500 35 397 0 269 0 L 80 0 Z M 144 52 L 274 52 C 384 52 472 82 537 143 C 602 203 635 280 635 372 C 635 440 610 496 561 540 C 511 584 445 606 361 606 L 221 606 L 186 356 L 322 356 L 315 307 L 179 307 L 144 52 Z" unicode="Ð" />
<glyph horiz-adv-x="702" d="M 336 720 L 299 720 C 305 750 316 773 331 789 C 345 804 364 812 388 812 C 400 812 412 809 424 804 C 436 799 448 791 461 779 C 471 770 479 764 487 760 C 494 756 501 754 508 754 C 520 754 530 758 539 766 C 548 774 555 787 559 805 L 596 805 C 589 774 578 751 564 735 C 549 719 530 712 508 712 C 494 712 482 714 471 720 C 459 725 447 733 435 745 C 425 753 417 760 409 764 C 401 768 394 771 387 771 C 375 771 364 767 356 759 C 347 751 340 738 336 720 Z M 76 0 L 168 658 L 230 658 L 558 121 L 584 75 L 590 121 L 665 658 L 717 658 L 625 0 L 565 0 L 236 539 L 210 584 L 204 539 L 129 0 L 76 0 Z" unicode="Ñ" />
<glyph horiz-adv-x="772" d="M 461 728 L 369 855 L 428 855 L 516 728 L 461 728 Z M 402 -14 C 308 -14 234 14 180 71 C 125 127 98 199 98 287 C 98 395 131 486 197 560 C 263 634 351 672 462 672 C 554 672 628 643 683 587 C 738 530 766 458 766 370 C 766 263 732 172 666 98 C 600 23 512 -14 402 -14 Z M 403 37 C 493 37 566 68 623 131 C 680 194 709 273 709 369 C 709 439 686 499 642 548 C 598 596 538 621 462 621 C 371 621 297 589 241 527 C 184 465 156 385 156 289 C 156 218 177 158 221 110 C 265 61 325 37 403 37 Z" unicode="Ò" />
<glyph horiz-adv-x="772" d="M 429 728 L 536 855 L 598 855 L 487 728 L 429 728 Z M 402 -14 C 308 -14 234 14 180 71 C 125 127 98 199 98 287 C 98 395 131 486 197 560 C 263 634 351 672 462 672 C 554 672 628 643 683 587 C 738 530 766 458 766 370 C 766 263 732 172 666 98 C 600 23 512 -14 402 -14 Z M 403 37 C 493 37 566 68 623 131 C 680 194 709 273 709 369 C 709 439 686 499 642 548 C 598 596 538 621 462 621 C 371 621 297 589 241 527 C 184 465 156 385 156 289 C 156 218 177 158 221 110 C 265 61 325 37 403 37 Z" unicode="Ó" />
<glyph horiz-adv-x="772" d="M 354 728 L 469 851 L 508 851 L 589 728 L 540 728 L 485 809 L 407 728 L 354 728 Z M 402 -14 C 308 -14 234 14 180 71 C 125 127 98 199 98 287 C 98 395 131 486 197 560 C 263 634 351 672 462 672 C 554 672 628 643 683 587 C 738 530 766 458 766 370 C 766 263 732 172 666 98 C 600 23 512 -14 402 -14 Z M 403 37 C 493 37 566 68 623 131 C 680 194 709 273 709 369 C 709 439 686 499 642 548 C 598 596 538 621 462 621 C 371 621 297 589 241 527 C 184 465 156 385 156 289 C 156 218 177 158 221 110 C 265 61 325 37 403 37 Z" unicode="Ô" />
<glyph horiz-adv-x="772" d="M 367 728 L 330 728 C 336 758 347 781 362 797 C 376 812 395 820 419 820 C 431 820 443 817 455 812 C 467 807 479 799 492 787 C 502 778 510 772 518 768 C 525 764 532 762 539 762 C 551 762 561 766 570 774 C 579 782 586 795 590 813 L 627 813 C 620 782 609 759 595 743 C 580 727 561 720 539 720 C 525 720 513 722 502 728 C 490 733 478 741 466 753 C 456 761 448 768 440 772 C 432 776 425 779 418 779 C 406 779 395 775 387 767 C 378 759 371 746 367 728 Z M 402 -14 C 308 -14 234 14 180 71 C 125 127 98 199 98 287 C 98 395 131 486 197 560 C 263 634 351 672 462 672 C 554 672 628 643 683 587 C 738 530 766 458 766 370 C 766 263 732 172 666 98 C 600 23 512 -14 402 -14 Z M 403 37 C 493 37 566 68 623 131 C 680 194 709 273 709 369 C 709 439 686 499 642 548 C 598 596 538 621 462 621 C 371 621 297 589 241 527 C 184 465 156 385 156 289 C 156 218 177 158 221 110 C 265 61 325 37 403 37 Z" unicode="Õ" />
<glyph horiz-adv-x="772" d="M 377 728 L 385 785 L 443 785 L 435 728 L 377 728 Z M 511 728 L 520 785 L 577 785 L 569 728 L 511 728 Z M 402 -14 C 308 -14 234 14 180 71 C 125 127 98 199 98 287 C 98 395 131 486 197 560 C 263 634 351 672 462 672 C 554 672 628 643 683 587 C 738 530 766 458 766 370 C 766 263 732 172 666 98 C 600 23 512 -14 402 -14 Z M 403 37 C 493 37 566 68 623 131 C 680 194 709 273 709 369 C 709 439 686 499 642 548 C 598 596 538 621 462 621 C 371 621 297 589 241 527 C 184 465 156 385 156 289 C 156 218 177 158 221 110 C 265 61 325 37 403 37 Z" unicode="Ö" />
<glyph horiz-adv-x="495" d="M 121 105 L 87 143 L 251 288 L 124 437 L 161 470 L 290 321 L 458 468 L 491 430 L 323 283 L 450 135 L 413 102 L 285 249 L 121 105 Z" unicode="×" />
<glyph horiz-adv-x="772" d="M 152 -48 L 213 43 C 177 69 148 104 128 146 C 108 188 98 236 98 288 C 98 396 131 487 197 561 C 263 635 351 673 462 673 C 490 673 516 670 542 664 C 567 658 590 650 611 640 L 655 706 L 713 706 L 653 615 C 689 588 716 554 736 512 C 756 470 766 423 766 371 C 766 264 732 173 666 99 C 600 24 512 -13 402 -13 C 374 -13 347 -10 322 -5 C 297 0 274 8 254 19 L 210 -48 L 152 -48 Z M 156 290 C 156 248 163 210 178 176 C 193 141 215 112 244 90 L 581 595 C 564 603 546 610 526 615 C 506 619 484 622 462 622 C 371 622 297 590 241 528 C 184 466 156 386 156 290 Z M 403 38 C 493 38 566 69 623 132 C 680 195 709 274 709 370 C 709 410 701 448 686 483 C 671 517 650 546 622 569 L 285 64 C 301 55 319 48 339 44 C 359 40 380 38 403 38 Z" unicode="Ø" />
<glyph horiz-adv-x="664" d="M 421 720 L 329 847 L 388 847 L 476 720 L 421 720 Z M 348 -12 C 260 -12 196 12 154 60 C 112 108 96 172 107 250 L 165 658 L 221 658 L 163 249 C 154 184 166 133 198 96 C 230 59 281 41 349 41 C 407 41 458 60 500 98 C 542 136 567 186 576 249 L 633 658 L 685 658 L 628 248 C 616 166 584 103 532 57 C 480 11 419 -12 348 -12 Z" unicode="Ù" />
<glyph horiz-adv-x="664" d="M 389 720 L 496 847 L 558 847 L 447 720 L 389 720 Z M 348 -12 C 260 -12 196 12 154 60 C 112 108 96 172 107 250 L 165 658 L 221 658 L 163 249 C 154 184 166 133 198 96 C 230 59 281 41 349 41 C 407 41 458 60 500 98 C 542 136 567 186 576 249 L 633 658 L 685 658 L 628 248 C 616 166 584 103 532 57 C 480 11 419 -12 348 -12 Z" unicode="Ú" />
<glyph horiz-adv-x="664" d="M 314 720 L 429 843 L 468 843 L 549 720 L 500 720 L 445 801 L 367 720 L 314 720 Z M 348 -12 C 260 -12 196 12 154 60 C 112 108 96 172 107 250 L 165 658 L 221 658 L 163 249 C 154 184 166 133 198 96 C 230 59 281 41 349 41 C 407 41 458 60 500 98 C 542 136 567 186 576 249 L 633 658 L 685 658 L 628 248 C 616 166 584 103 532 57 C 480 11 419 -12 348 -12 Z" unicode="Û" />
<glyph horiz-adv-x="664" d="M 337 720 L 345 777 L 403 777 L 395 720 L 337 720 Z M 471 720 L 480 777 L 537 777 L 529 720 L 471 720 Z M 348 -12 C 260 -12 196 12 154 60 C 112 108 96 172 107 250 L 165 658 L 221 658 L 163 249 C 154 184 166 133 198 96 C 230 59 281 41 349 41 C 407 41 458 60 500 98 C 542 136 567 186 576 249 L 633 658 L 685 658 L 628 248 C 616 166 584 103 532 57 C 480 11 419 -12 348 -12 Z" unicode="Ü" />
<glyph horiz-adv-x="565" d="M 325 720 L 432 847 L 494 847 L 383 720 L 325 720 Z M 253 0 L 294 295 L 106 658 L 169 658 L 310 389 L 330 345 L 362 389 L 576 658 L 642 658 L 350 293 L 309 0 L 253 0 Z" unicode="Ý" />
<glyph horiz-adv-x="472" d="M 76 0 L 168 658 L 225 658 L 208 536 L 262 536 C 326 536 377 520 415 490 C 453 460 472 417 472 361 C 472 292 448 237 401 195 C 354 153 295 133 223 133 L 151 133 L 132 0 L 76 0 Z M 159 184 L 226 184 C 283 184 329 200 363 232 C 397 264 415 304 415 353 C 415 393 401 425 375 449 C 349 473 310 485 260 485 L 201 485 L 159 184 Z" unicode="Þ" />
<glyph horiz-adv-x="521" d="M 62 0 L 135 512 C 145 585 167 640 203 678 C 239 715 286 734 345 734 C 399 734 443 714 475 675 C 507 636 523 584 523 518 C 523 498 521 477 519 455 C 516 433 513 414 510 398 C 491 407 472 414 454 419 C 435 424 415 427 395 427 C 365 427 341 419 324 405 C 306 391 298 371 298 347 C 298 327 304 310 316 298 C 328 286 345 275 368 266 L 382 261 C 420 246 448 228 467 207 C 485 185 495 159 495 129 C 495 87 480 54 451 28 C 422 2 383 -10 333 -10 C 313 -10 290 -6 265 0 C 240 5 218 14 200 24 L 208 78 C 224 66 243 56 267 48 C 291 40 313 37 334 37 C 365 37 391 44 411 59 C 431 74 441 95 441 122 C 441 143 433 161 418 175 C 403 189 382 201 355 213 L 341 218 C 308 231 284 247 268 267 C 252 286 245 311 245 341 C 245 381 258 414 284 438 C 310 462 346 474 390 474 C 404 474 419 472 433 470 C 447 468 459 464 470 460 C 480 535 472 591 447 629 C 422 667 387 686 343 686 C 299 686 265 671 239 641 C 213 611 197 568 189 511 L 117 0 L 62 0 Z" unicode="ß" />
<glyph horiz-adv-x="510" d="M 343 524 L 248 655 L 311 655 L 402 524 L 343 524 Z M 234 -10 C 187 -10 148 7 117 42 C 85 76 70 121 70 177 C 70 259 97 329 153 387 C 209 445 276 474 356 474 C 379 474 403 472 428 468 C 452 464 477 459 503 451 L 457 117 C 454 97 452 77 450 58 C 448 39 448 20 448 0 L 393 0 C 393 14 393 30 395 46 C 396 62 398 78 400 93 L 404 128 C 385 78 360 42 328 21 C 296 0 265 -10 234 -10 Z M 244 39 C 275 39 310 56 349 91 C 387 125 415 208 433 338 L 443 413 C 428 417 413 420 398 422 C 383 424 367 425 351 425 C 289 425 235 401 191 353 C 146 305 124 247 124 181 C 124 135 136 99 161 75 C 185 51 213 39 244 39 Z" unicode="à" />
<glyph horiz-adv-x="510" d="M 311 524 L 421 655 L 485 655 L 372 524 L 311 524 Z M 234 -10 C 187 -10 148 7 117 42 C 85 76 70 121 70 177 C 70 259 97 329 153 387 C 209 445 276 474 356 474 C 379 474 403 472 428 468 C 452 464 477 459 503 451 L 457 117 C 454 97 452 77 450 58 C 448 39 448 20 448 0 L 393 0 C 393 14 393 30 395 46 C 396 62 398 78 400 93 L 404 128 C 385 78 360 42 328 21 C 296 0 265 -10 234 -10 Z M 244 39 C 275 39 310 56 349 91 C 387 125 415 208 433 338 L 443 413 C 428 417 413 420 398 422 C 383 424 367 425 351 425 C 289 425 235 401 191 353 C 146 305 124 247 124 181 C 124 135 136 99 161 75 C 185 51 213 39 244 39 Z" unicode="á" />
<glyph horiz-adv-x="510" d="M 237 524 L 354 650 L 397 650 L 479 524 L 426 524 L 371 606 L 293 524 L 237 524 Z M 234 -10 C 187 -10 148 7 117 42 C 85 76 70 121 70 177 C 70 259 97 329 153 387 C 209 445 276 474 356 474 C 379 474 403 472 428 468 C 452 464 477 459 503 451 L 457 117 C 454 97 452 77 450 58 C 448 39 448 20 448 0 L 393 0 C 393 14 393 30 395 46 C 396 62 398 78 400 93 L 404 128 C 385 78 360 42 328 21 C 296 0 265 -10 234 -10 Z M 244 39 C 275 39 310 56 349 91 C 387 125 415 208 433 338 L 443 413 C 428 417 413 420 398 422 C 383 424 367 425 351 425 C 289 425 235 401 191 353 C 146 305 124 247 124 181 C 124 135 136 99 161 75 C 185 51 213 39 244 39 Z" unicode="â" />
<glyph horiz-adv-x="510" d="M 254 524 L 214 524 C 220 556 231 579 246 595 C 261 611 281 619 306 619 C 318 619 330 616 342 611 C 354 605 366 597 380 586 C 390 577 399 570 407 566 C 414 562 421 560 428 560 C 440 560 450 564 459 573 C 468 581 475 594 479 611 L 519 611 C 512 579 501 556 486 540 C 470 524 451 516 428 516 C 414 516 401 518 390 524 C 378 529 366 538 354 550 C 344 558 335 565 327 569 C 319 573 312 576 305 576 C 292 576 281 571 273 562 C 264 553 258 540 254 524 Z M 234 -10 C 187 -10 148 7 117 42 C 85 76 70 121 70 177 C 70 259 97 329 153 387 C 209 445 276 474 356 474 C 379 474 403 472 428 468 C 452 464 477 459 503 451 L 457 117 C 454 97 452 77 450 58 C 448 39 448 20 448 0 L 393 0 C 393 14 393 30 395 46 C 396 62 398 78 400 93 L 404 128 C 385 78 360 42 328 21 C 296 0 265 -10 234 -10 Z M 244 39 C 275 39 310 56 349 91 C 387 125 415 208 433 338 L 443 413 C 428 417 413 420 398 422 C 383 424 367 425 351 425 C 289 425 235 401 191 353 C 146 305 124 247 124 181 C 124 135 136 99 161 75 C 185 51 213 39 244 39 Z" unicode="ã" />
<glyph horiz-adv-x="510" d="M 260 537 L 268 597 L 328 597 L 320 537 L 260 537 Z M 398 537 L 407 597 L 467 597 L 458 537 L 398 537 Z M 234 -10 C 187 -10 148 7 117 42 C 85 76 70 121 70 177 C 70 259 97 329 153 387 C 209 445 276 474 356 474 C 379 474 403 472 428 468 C 452 464 477 459 503 451 L 457 117 C 454 97 452 77 450 58 C 448 39 448 20 448 0 L 393 0 C 393 14 393 30 395 46 C 396 62 398 78 400 93 L 404 128 C 385 78 360 42 328 21 C 296 0 265 -10 234 -10 Z M 244 39 C 275 39 310 56 349 91 C 387 125 415 208 433 338 L 443 413 C 428 417 413 420 398 422 C 383 424 367 425 351 425 C 289 425 235 401 191 353 C 146 305 124 247 124 181 C 124 135 136 99 161 75 C 185 51 213 39 244 39 Z" unicode="ä" />
<glyph horiz-adv-x="510" d="M 358 476 C 335 476 317 483 303 498 C 289 512 282 530 282 551 C 282 575 290 596 307 614 C 324 631 345 640 370 640 C 392 640 411 632 425 618 C 439 603 446 585 446 565 C 446 540 437 519 421 502 C 405 484 384 476 358 476 Z M 359 512 C 373 512 384 516 394 526 C 403 536 408 548 408 563 C 408 575 404 585 396 593 C 388 600 379 604 368 604 C 354 604 343 599 334 589 C 324 579 320 567 320 553 C 320 540 323 530 331 523 C 339 515 348 512 359 512 Z M 234 -10 C 187 -10 148 7 117 42 C 85 76 70 121 70 177 C 70 259 97 329 153 387 C 209 445 276 474 356 474 C 379 474 403 472 428 468 C 452 464 477 459 503 451 L 457 117 C 454 97 452 77 450 58 C 448 39 448 20 448 0 L 393 0 C 393 14 393 30 395 46 C 396 62 398 78 400 93 L 404 128 C 385 78 360 42 328 21 C 296 0 265 -10 234 -10 Z M 244 39 C 275 39 310 56 349 91 C 387 125 415 208 433 338 L 443 413 C 428 417 413 420 398 422 C 383 424 367 425 351 425 C 289 425 235 401 191 353 C 146 305 124 247 124 181 C 124 135 136 99 161 75 C 185 51 213 39 244 39 Z" unicode="å" />
<glyph horiz-adv-x="747" d="M 199 -10 C 153 -10 118 2 94 26 C 70 50 59 78 59 110 C 59 154 75 189 107 215 C 139 240 182 254 238 257 L 353 262 L 361 320 C 365 356 358 383 340 400 C 322 417 297 426 266 426 C 238 426 211 422 185 415 C 159 407 134 396 110 381 L 118 435 C 143 447 168 457 194 464 C 220 470 246 474 273 474 C 311 474 341 465 364 449 C 386 432 400 409 405 380 C 425 408 451 431 483 448 C 514 465 549 474 587 474 C 631 474 666 463 692 442 C 718 420 731 392 731 358 C 731 311 711 278 671 259 C 631 240 568 228 481 224 L 403 220 L 402 211 C 401 157 414 114 440 84 C 466 54 503 39 553 39 C 582 39 609 44 635 54 C 661 64 686 79 712 101 L 703 40 C 678 22 653 9 629 1 C 604 -6 577 -10 549 -10 C 501 -10 461 1 431 23 C 400 45 379 76 367 114 C 354 76 332 45 302 23 C 271 1 237 -10 199 -10 Z M 583 428 C 538 428 500 412 468 380 C 436 348 416 310 408 264 L 481 267 C 549 270 598 278 629 290 C 659 302 675 325 675 357 C 675 378 666 395 650 408 C 634 421 611 428 583 428 Z M 207 36 C 241 36 271 47 295 70 C 319 93 333 124 339 163 L 347 219 L 239 213 C 204 211 175 202 151 186 C 127 170 115 146 115 114 C 115 91 123 72 140 58 C 156 43 179 36 207 36 Z" unicode="æ" />
<glyph horiz-adv-x="463" d="M 280 -10 C 216 -10 166 8 129 46 C 91 83 73 132 73 194 C 73 275 97 342 145 395 C 193 447 255 474 331 474 C 359 474 385 470 408 462 C 431 454 455 444 479 431 L 471 377 C 448 393 425 404 402 412 C 379 420 354 424 328 424 C 268 424 219 402 182 360 C 145 317 127 263 127 198 C 127 150 141 112 170 83 C 198 54 237 40 285 40 C 311 40 337 44 361 52 C 385 60 409 72 431 89 L 423 32 C 400 17 377 6 353 0 C 329 -6 304 -10 280 -10 Z M 219 -197 C 209 -197 199 -195 189 -192 C 179 -189 169 -185 161 -181 L 167 -142 C 173 -148 181 -152 191 -155 C 200 -158 210 -160 220 -160 C 233 -160 244 -156 252 -149 C 260 -142 265 -132 265 -120 C 265 -109 261 -100 253 -93 C 245 -86 236 -83 224 -83 L 218 -83 L 222 -46 L 228 -46 C 252 -46 271 -52 285 -66 C 299 -79 306 -96 306 -117 C 306 -141 298 -160 282 -175 C 266 -189 245 -197 219 -197 Z" unicode="ç" />
<glyph horiz-adv-x="476" d="M 293 524 L 198 655 L 261 655 L 352 524 L 293 524 Z M 278 -10 C 213 -10 163 9 128 48 C 92 87 75 139 75 205 C 75 281 98 345 144 397 C 190 448 247 474 316 474 C 359 474 394 463 420 442 C 446 420 460 392 460 358 C 460 311 440 276 400 252 C 360 228 296 214 208 209 L 130 204 C 130 151 144 110 170 82 C 196 53 234 39 282 39 C 311 39 338 44 364 54 C 390 64 415 79 441 101 L 432 40 C 407 22 382 9 358 1 C 333 -6 306 -10 278 -10 Z M 312 426 C 264 426 223 408 191 373 C 158 338 139 296 133 247 L 210 252 C 277 256 326 267 357 283 C 388 299 404 323 404 356 C 404 377 395 394 379 407 C 363 419 340 426 312 426 Z" unicode="è" />
<glyph horiz-adv-x="476" d="M 261 524 L 371 655 L 435 655 L 322 524 L 261 524 Z M 278 -10 C 213 -10 163 9 128 48 C 92 87 75 139 75 205 C 75 281 98 345 144 397 C 190 448 247 474 316 474 C 359 474 394 463 420 442 C 446 420 460 392 460 358 C 460 311 440 276 400 252 C 360 228 296 214 208 209 L 130 204 C 130 151 144 110 170 82 C 196 53 234 39 282 39 C 311 39 338 44 364 54 C 390 64 415 79 441 101 L 432 40 C 407 22 382 9 358 1 C 333 -6 306 -10 278 -10 Z M 312 426 C 264 426 223 408 191 373 C 158 338 139 296 133 247 L 210 252 C 277 256 326 267 357 283 C 388 299 404 323 404 356 C 404 377 395 394 379 407 C 363 419 340 426 312 426 Z" unicode="é" />
<glyph horiz-adv-x="476" d="M 187 524 L 304 650 L 347 650 L 429 524 L 376 524 L 321 606 L 243 524 L 187 524 Z M 278 -10 C 213 -10 163 9 128 48 C 92 87 75 139 75 205 C 75 281 98 345 144 397 C 190 448 247 474 316 474 C 359 474 394 463 420 442 C 446 420 460 392 460 358 C 460 311 440 276 400 252 C 360 228 296 214 208 209 L 130 204 C 130 151 144 110 170 82 C 196 53 234 39 282 39 C 311 39 338 44 364 54 C 390 64 415 79 441 101 L 432 40 C 407 22 382 9 358 1 C 333 -6 306 -10 278 -10 Z M 312 426 C 264 426 223 408 191 373 C 158 338 139 296 133 247 L 210 252 C 277 256 326 267 357 283 C 388 299 404 323 404 356 C 404 377 395 394 379 407 C 363 419 340 426 312 426 Z" unicode="ê" />
<glyph horiz-adv-x="476" d="M 210 537 L 218 597 L 278 597 L 270 537 L 210 537 Z M 348 537 L 357 597 L 417 597 L 408 537 L 348 537 Z M 278 -10 C 213 -10 163 9 128 48 C 92 87 75 139 75 205 C 75 281 98 345 144 397 C 190 448 247 474 316 474 C 359 474 394 463 420 442 C 446 420 460 392 460 358 C 460 311 440 276 400 252 C 360 228 296 214 208 209 L 130 204 C 130 151 144 110 170 82 C 196 53 234 39 282 39 C 311 39 338 44 364 54 C 390 64 415 79 441 101 L 432 40 C 407 22 382 9 358 1 C 333 -6 306 -10 278 -10 Z M 312 426 C 264 426 223 408 191 373 C 158 338 139 296 133 247 L 210 252 C 277 256 326 267 357 283 C 388 299 404 323 404 356 C 404 377 395 394 379 407 C 363 419 340 426 312 426 Z" unicode="ë" />
<glyph horiz-adv-x="201" d="M 157 524 L 62 655 L 125 655 L 216 524 L 157 524 Z M 78 0 C 78 18 79 39 81 61 C 83 83 85 104 88 126 L 136 464 L 190 464 L 143 126 C 140 105 137 83 135 61 C 133 39 132 18 132 0 L 78 0 Z" unicode="ì" />
<glyph horiz-adv-x="201" d="M 125 524 L 235 655 L 299 655 L 186 524 L 125 524 Z M 78 0 C 78 18 79 39 81 61 C 83 83 85 104 88 126 L 136 464 L 190 464 L 143 126 C 140 105 137 83 135 61 C 133 39 132 18 132 0 L 78 0 Z" unicode="í" />
<glyph horiz-adv-x="201" d="M 51 524 L 168 650 L 211 650 L 293 524 L 240 524 L 185 606 L 107 524 L 51 524 Z M 78 0 C 78 18 79 39 81 61 C 83 83 85 104 88 126 L 136 464 L 190 464 L 143 126 C 140 105 137 83 135 61 C 133 39 132 18 132 0 L 78 0 Z" unicode="î" />
<glyph horiz-adv-x="201" d="M 74 537 L 82 597 L 142 597 L 134 537 L 74 537 Z M 212 537 L 221 597 L 281 597 L 272 537 L 212 537 Z M 78 0 C 78 18 79 39 81 61 C 83 83 85 104 88 126 L 136 464 L 190 464 L 143 126 C 140 105 137 83 135 61 C 133 39 132 18 132 0 L 78 0 Z" unicode="ï" />
<glyph horiz-adv-x="542" d="M 285 -10 C 219 -10 168 11 130 53 C 92 95 74 146 74 204 C 74 281 98 345 146 397 C 194 448 255 474 327 474 C 363 474 394 467 421 453 C 448 439 469 418 484 390 C 477 430 464 470 446 508 C 427 546 402 582 371 616 L 271 585 L 266 631 L 335 653 C 321 665 306 678 290 690 C 274 702 256 714 238 726 L 295 746 C 313 734 329 721 345 709 C 361 696 375 683 389 670 L 482 699 L 486 652 L 424 633 C 464 585 493 532 512 476 C 530 420 540 361 540 299 C 540 209 515 135 467 77 C 418 19 357 -10 285 -10 Z M 286 40 C 342 40 388 62 425 106 C 462 150 481 205 481 271 C 475 325 458 364 430 388 C 401 412 367 424 329 424 C 272 424 224 403 186 361 C 148 319 129 268 129 206 C 129 158 143 118 173 87 C 202 55 240 40 286 40 Z" unicode="ð" />
<glyph horiz-adv-x="492" d="M 232 524 L 192 524 C 198 556 209 579 224 595 C 239 611 259 619 284 619 C 296 619 308 616 320 611 C 332 605 344 597 358 586 C 368 577 377 570 385 566 C 392 562 399 560 406 560 C 418 560 428 564 437 573 C 446 581 453 594 457 611 L 497 611 C 490 579 479 556 464 540 C 448 524 429 516 406 516 C 392 516 379 518 368 524 C 356 529 344 538 332 550 C 322 558 313 565 305 569 C 297 573 290 576 283 576 C 270 576 259 571 251 562 C 242 553 236 540 232 524 Z M 76 0 L 126 353 C 128 373 130 393 132 411 C 133 429 134 447 134 464 L 188 464 C 188 450 187 434 186 416 C 185 398 184 382 182 370 L 177 336 C 195 387 219 423 249 443 C 279 463 308 474 337 474 C 386 474 422 457 446 424 C 470 390 477 348 468 298 L 438 127 C 434 104 431 83 430 63 C 429 43 429 22 429 0 L 374 0 C 374 21 374 42 375 63 C 376 83 379 105 383 127 L 413 288 C 420 330 415 363 397 387 C 379 411 354 424 322 424 C 294 424 262 406 227 370 C 191 334 165 255 149 131 L 131 0 L 76 0 Z" unicode="ñ" />
<glyph horiz-adv-x="526" d="M 321 524 L 226 655 L 289 655 L 380 524 L 321 524 Z M 279 -10 C 218 -10 168 8 130 45 C 92 82 73 133 73 199 C 73 276 96 341 142 394 C 188 447 244 474 312 474 C 372 474 422 455 460 418 C 498 380 518 329 518 265 C 518 187 495 122 449 69 C 403 16 346 -10 279 -10 Z M 280 39 C 332 39 375 60 410 103 C 445 146 463 199 463 262 C 463 312 449 351 421 381 C 393 410 356 425 310 425 C 258 425 214 403 179 360 C 144 317 127 264 127 201 C 127 151 141 112 169 83 C 197 53 234 39 280 39 Z" unicode="ò" />
<glyph horiz-adv-x="526" d="M 289 524 L 399 655 L 463 655 L 350 524 L 289 524 Z M 279 -10 C 218 -10 168 8 130 45 C 92 82 73 133 73 199 C 73 276 96 341 142 394 C 188 447 244 474 312 474 C 372 474 422 455 460 418 C 498 380 518 329 518 265 C 518 187 495 122 449 69 C 403 16 346 -10 279 -10 Z M 280 39 C 332 39 375 60 410 103 C 445 146 463 199 463 262 C 463 312 449 351 421 381 C 393 410 356 425 310 425 C 258 425 214 403 179 360 C 144 317 127 264 127 201 C 127 151 141 112 169 83 C 197 53 234 39 280 39 Z" unicode="ó" />
<glyph horiz-adv-x="526" d="M 215 524 L 332 650 L 375 650 L 457 524 L 404 524 L 349 606 L 271 524 L 215 524 Z M 279 -10 C 218 -10 168 8 130 45 C 92 82 73 133 73 199 C 73 276 96 341 142 394 C 188 447 244 474 312 474 C 372 474 422 455 460 418 C 498 380 518 329 518 265 C 518 187 495 122 449 69 C 403 16 346 -10 279 -10 Z M 280 39 C 332 39 375 60 410 103 C 445 146 463 199 463 262 C 463 312 449 351 421 381 C 393 410 356 425 310 425 C 258 425 214 403 179 360 C 144 317 127 264 127 201 C 127 151 141 112 169 83 C 197 53 234 39 280 39 Z" unicode="ô" />
<glyph horiz-adv-x="526" d="M 232 524 L 192 524 C 198 556 209 579 224 595 C 239 611 259 619 284 619 C 296 619 308 616 320 611 C 332 605 344 597 358 586 C 368 577 377 570 385 566 C 392 562 399 560 406 560 C 418 560 428 564 437 573 C 446 581 453 594 457 611 L 497 611 C 490 579 479 556 464 540 C 448 524 429 516 406 516 C 392 516 379 518 368 524 C 356 529 344 538 332 550 C 322 558 313 565 305 569 C 297 573 290 576 283 576 C 270 576 259 571 251 562 C 242 553 236 540 232 524 Z M 279 -10 C 218 -10 168 8 130 45 C 92 82 73 133 73 199 C 73 276 96 341 142 394 C 188 447 244 474 312 474 C 372 474 422 455 460 418 C 498 380 518 329 518 265 C 518 187 495 122 449 69 C 403 16 346 -10 279 -10 Z M 280 39 C 332 39 375 60 410 103 C 445 146 463 199 463 262 C 463 312 449 351 421 381 C 393 410 356 425 310 425 C 258 425 214 403 179 360 C 144 317 127 264 127 201 C 127 151 141 112 169 83 C 197 53 234 39 280 39 Z" unicode="õ" />
<glyph horiz-adv-x="526" d="M 238 537 L 246 597 L 306 597 L 298 537 L 238 537 Z M 376 537 L 385 597 L 445 597 L 436 537 L 376 537 Z M 279 -10 C 218 -10 168 8 130 45 C 92 82 73 133 73 199 C 73 276 96 341 142 394 C 188 447 244 474 312 474 C 372 474 422 455 460 418 C 498 380 518 329 518 265 C 518 187 495 122 449 69 C 403 16 346 -10 279 -10 Z M 280 39 C 332 39 375 60 410 103 C 445 146 463 199 463 262 C 463 312 449 351 421 381 C 393 410 356 425 310 425 C 258 425 214 403 179 360 C 144 317 127 264 127 201 C 127 151 141 112 169 83 C 197 53 234 39 280 39 Z" unicode="ö" />
<glyph horiz-adv-x="526" d="M 277 427 L 286 485 L 343 485 L 335 427 L 277 427 Z M 84 265 L 91 313 L 520 313 L 513 265 L 84 265 Z M 241 92 L 249 150 L 306 150 L 298 92 L 241 92 Z" unicode="÷" />
<glyph horiz-adv-x="527" d="M 88 -48 L 142 34 C 120 52 103 75 91 103 C 79 131 73 163 73 199 C 73 276 96 341 142 394 C 188 447 244 474 312 474 C 332 474 350 472 368 468 C 386 464 402 458 417 450 L 458 512 L 509 512 L 452 426 C 472 408 488 385 500 358 C 512 330 518 299 518 265 C 518 187 495 122 449 69 C 403 16 346 -10 279 -10 C 260 -10 242 -8 225 -4 C 208 0 192 4 178 12 L 139 -48 L 88 -48 Z M 127 201 C 127 175 130 151 138 131 C 146 111 157 93 172 79 L 388 407 C 377 413 365 417 352 420 C 338 423 324 425 310 425 C 258 425 214 403 179 360 C 144 317 127 264 127 201 Z M 280 39 C 332 39 375 60 410 103 C 445 146 463 199 463 262 C 463 286 459 309 452 329 C 444 349 434 366 422 381 L 207 55 C 217 49 229 45 241 43 C 253 40 266 39 280 39 Z" unicode="ø" />
<glyph horiz-adv-x="494" d="M 300 525 L 205 656 L 268 656 L 359 525 L 300 525 Z M 222 -12 C 176 -12 140 4 114 36 C 88 68 79 111 88 166 L 117 340 C 121 362 123 383 125 403 C 127 423 128 443 128 464 L 182 464 C 182 442 181 422 179 402 C 177 382 174 361 171 339 L 145 176 C 137 130 143 96 161 73 C 179 50 204 39 237 39 C 265 39 297 56 334 90 C 370 124 397 199 414 316 L 434 464 L 489 464 L 439 112 C 436 91 434 71 433 53 C 431 34 431 16 431 0 L 377 0 C 377 14 377 29 378 46 C 378 62 380 78 383 93 L 388 128 C 369 76 344 39 313 19 C 282 -1 252 -12 222 -12 Z" unicode="ù" />
<glyph horiz-adv-x="494" d="M 268 525 L 378 656 L 442 656 L 329 525 L 268 525 Z M 222 -12 C 176 -12 140 4 114 36 C 88 68 79 111 88 166 L 117 340 C 121 362 123 383 125 403 C 127 423 128 443 128 464 L 182 464 C 182 442 181 422 179 402 C 177 382 174 361 171 339 L 145 176 C 137 130 143 96 161 73 C 179 50 204 39 237 39 C 265 39 297 56 334 90 C 370 124 397 199 414 316 L 434 464 L 489 464 L 439 112 C 436 91 434 71 433 53 C 431 34 431 16 431 0 L 377 0 C 377 14 377 29 378 46 C 378 62 380 78 383 93 L 388 128 C 369 76 344 39 313 19 C 282 -1 252 -12 222 -12 Z" unicode="ú" />
<glyph horiz-adv-x="494" d="M 194 525 L 311 651 L 354 651 L 436 525 L 383 525 L 328 607 L 250 525 L 194 525 Z M 222 -12 C 176 -12 140 4 114 36 C 88 68 79 111 88 166 L 117 340 C 121 362 123 383 125 403 C 127 423 128 443 128 464 L 182 464 C 182 442 181 422 179 402 C 177 382 174 361 171 339 L 145 176 C 137 130 143 96 161 73 C 179 50 204 39 237 39 C 265 39 297 56 334 90 C 370 124 397 199 414 316 L 434 464 L 489 464 L 439 112 C 436 91 434 71 433 53 C 431 34 431 16 431 0 L 377 0 C 377 14 377 29 378 46 C 378 62 380 78 383 93 L 388 128 C 369 76 344 39 313 19 C 282 -1 252 -12 222 -12 Z" unicode="û" />
<glyph horiz-adv-x="494" d="M 217 538 L 225 598 L 285 598 L 277 538 L 217 538 Z M 355 538 L 364 598 L 424 598 L 415 538 L 355 538 Z M 222 -12 C 176 -12 140 4 114 36 C 88 68 79 111 88 166 L 117 340 C 121 362 123 383 125 403 C 127 423 128 443 128 464 L 182 464 C 182 442 181 422 179 402 C 177 382 174 361 171 339 L 145 176 C 137 130 143 96 161 73 C 179 50 204 39 237 39 C 265 39 297 56 334 90 C 370 124 397 199 414 316 L 434 464 L 489 464 L 439 112 C 436 91 434 71 433 53 C 431 34 431 16 431 0 L 377 0 C 377 14 377 29 378 46 C 378 62 380 78 383 93 L 388 128 C 369 76 344 39 313 19 C 282 -1 252 -12 222 -12 Z" unicode="ü" />
<glyph horiz-adv-x="469" d="M 266 524 L 376 655 L 440 655 L 327 524 L 266 524 Z M 276 -14 C 228 -83 176 -134 122 -168 C 68 -201 10 -218 -52 -218 L -60 -218 L -53 -168 L -45 -168 C 3 -168 49 -154 95 -127 C 140 -99 178 -64 209 -22 L 82 464 L 139 464 L 233 108 L 249 26 C 285 86 319 154 350 229 C 380 304 407 382 431 464 L 487 464 C 454 358 420 266 385 187 C 350 108 314 41 276 -14 Z" unicode="ý" />
<glyph horiz-adv-x="516" d="M 39 -218 L 171 722 L 226 722 L 178 382 C 176 372 175 363 173 353 C 171 343 169 334 167 325 C 185 383 211 422 243 443 C 275 463 308 474 341 474 C 387 474 426 456 458 422 C 490 387 506 342 506 286 C 506 204 480 134 429 76 C 378 18 313 -10 234 -10 C 213 -10 194 -8 177 -5 C 159 -1 142 4 126 12 L 94 -218 L 39 -218 Z M 237 38 C 299 38 351 62 391 110 C 431 158 451 215 451 281 C 451 327 438 362 414 387 C 389 411 361 424 331 424 C 300 424 265 407 227 375 C 189 342 161 259 143 125 L 134 60 C 150 52 166 46 183 43 C 200 39 218 38 237 38 Z" unicode="þ" />
<glyph horiz-adv-x="469" d="M 215 537 L 223 597 L 283 597 L 275 537 L 215 537 Z M 353 537 L 362 597 L 422 597 L 413 537 L 353 537 Z M 276 -14 C 228 -83 176 -134 122 -168 C 68 -201 10 -218 -52 -218 L -60 -218 L -53 -168 L -45 -168 C 3 -168 49 -154 95 -127 C 140 -99 178 -64 209 -22 L 82 464 L 139 464 L 233 108 L 249 26 C 285 86 319 154 350 229 C 380 304 407 382 431 464 L 487 464 C 454 358 420 266 385 187 C 350 108 314 41 276 -14 Z" unicode="ÿ" />
<glyph horiz-adv-x="615" d="M 307 720 L 313 763 L 517 763 L 511 720 L 307 720 Z M 19 0 L 374 667 L 427 667 L 596 0 L 539 0 L 483 225 L 195 225 L 76 0 L 19 0 Z M 221 275 L 471 275 L 403 547 L 391 599 L 365 547 L 221 275 Z" unicode="Ā" />
<glyph horiz-adv-x="510" d="M 255 532 L 261 578 L 471 578 L 465 532 L 255 532 Z M 234 -10 C 187 -10 148 7 117 42 C 85 76 70 121 70 177 C 70 259 97 329 153 387 C 209 445 276 474 356 474 C 379 474 403 472 428 468 C 452 464 477 459 503 451 L 457 117 C 454 97 452 77 450 58 C 448 39 448 20 448 0 L 393 0 C 393 14 393 30 395 46 C 396 62 398 78 400 93 L 404 128 C 385 78 360 42 328 21 C 296 0 265 -10 234 -10 Z M 244 39 C 275 39 310 56 349 91 C 387 125 415 208 433 338 L 443 413 C 428 417 413 420 398 422 C 383 424 367 425 351 425 C 289 425 235 401 191 353 C 146 305 124 247 124 181 C 124 135 136 99 161 75 C 185 51 213 39 244 39 Z" unicode="ā" />
<glyph horiz-adv-x="615" d="M 408 710 C 372 710 345 722 327 746 C 309 770 301 799 304 834 L 343 834 C 342 807 347 786 358 772 C 369 757 386 750 410 750 C 430 750 447 757 461 772 C 474 786 481 807 483 834 L 522 834 C 518 793 506 762 484 741 C 462 720 437 710 408 710 Z M 19 0 L 374 667 L 427 667 L 596 0 L 539 0 L 483 225 L 195 225 L 76 0 L 19 0 Z M 221 275 L 471 275 L 403 547 L 391 599 L 365 547 L 221 275 Z" unicode="Ă" />
<glyph horiz-adv-x="510" d="M 360 516 C 324 516 296 528 277 552 C 258 576 250 607 253 643 L 294 643 C 293 616 298 595 309 580 C 320 565 338 558 362 558 C 382 558 399 565 413 580 C 427 595 434 616 436 643 L 477 643 C 473 601 461 569 439 548 C 417 526 390 516 360 516 Z M 234 -10 C 187 -10 148 7 117 42 C 85 76 70 121 70 177 C 70 259 97 329 153 387 C 209 445 276 474 356 474 C 379 474 403 472 428 468 C 452 464 477 459 503 451 L 457 117 C 454 97 452 77 450 58 C 448 39 448 20 448 0 L 393 0 C 393 14 393 30 395 46 C 396 62 398 78 400 93 L 404 128 C 385 78 360 42 328 21 C 296 0 265 -10 234 -10 Z M 244 39 C 275 39 310 56 349 91 C 387 125 415 208 433 338 L 443 413 C 428 417 413 420 398 422 C 383 424 367 425 351 425 C 289 425 235 401 191 353 C 146 305 124 247 124 181 C 124 135 136 99 161 75 C 185 51 213 39 244 39 Z" unicode="ă" />
<glyph horiz-adv-x="615" d="M 19 0 L 374 667 L 427 667 L 596 0 L 592 0 C 562 0 536 -9 516 -28 C 496 -46 486 -70 486 -100 C 486 -123 494 -141 511 -154 C 528 -167 550 -174 576 -174 L 570 -220 C 529 -220 497 -209 473 -188 C 449 -166 437 -139 437 -107 C 437 -76 446 -49 464 -27 C 482 -4 506 11 534 21 L 483 225 L 195 225 L 76 0 L 19 0 Z M 221 275 L 471 275 L 403 547 L 391 599 L 365 547 L 221 275 Z" unicode="Ą" />
<glyph horiz-adv-x="510" d="M 234 -10 C 187 -10 148 7 117 42 C 85 76 70 121 70 177 C 70 259 97 329 153 387 C 209 445 276 474 356 474 C 379 474 403 472 428 468 C 452 464 477 459 503 451 L 457 117 C 454 97 452 77 450 58 C 448 39 448 20 448 0 L 445 0 C 403 -22 376 -42 362 -58 C 348 -74 341 -92 341 -112 C 341 -130 348 -145 364 -155 C 379 -165 401 -171 431 -171 L 425 -218 C 381 -218 348 -210 325 -194 C 302 -178 291 -155 291 -124 C 291 -99 299 -76 315 -55 C 331 -34 357 -12 393 11 C 393 24 394 38 396 52 C 397 66 398 80 400 93 L 404 128 C 385 78 360 42 328 21 C 296 0 265 -10 234 -10 Z M 244 39 C 275 39 310 56 349 91 C 387 125 415 208 433 338 L 443 413 C 428 417 413 420 398 422 C 383 424 367 425 351 425 C 289 425 235 401 191 353 C 146 305 124 247 124 181 C 124 135 136 99 161 75 C 185 51 213 39 244 39 Z" unicode="ą" />
<glyph horiz-adv-x="671" d="M 451 728 L 558 855 L 620 855 L 509 728 L 451 728 Z M 420 -13 C 320 -13 242 15 184 73 C 126 131 98 203 98 289 C 98 397 135 488 209 561 C 283 634 376 671 488 671 C 526 671 563 666 599 657 C 635 648 671 634 706 616 L 698 559 C 666 578 632 593 596 603 C 560 613 523 619 485 619 C 391 619 312 588 250 526 C 187 464 156 385 156 291 C 156 216 180 155 230 109 C 280 62 344 39 424 39 C 462 39 499 44 535 54 C 571 64 606 80 642 100 L 633 41 C 597 22 562 8 527 0 C 491 -8 456 -13 420 -13 Z" unicode="Ć" />
<glyph horiz-adv-x="463" d="M 273 524 L 383 655 L 447 655 L 334 524 L 273 524 Z M 280 -10 C 216 -10 166 8 129 46 C 91 83 73 132 73 194 C 73 275 97 342 145 395 C 193 447 255 474 331 474 C 359 474 385 470 408 462 C 431 454 455 444 479 431 L 471 377 C 448 393 425 404 402 412 C 379 420 354 424 328 424 C 268 424 219 402 182 360 C 145 317 127 263 127 198 C 127 150 141 112 170 83 C 198 54 237 40 285 40 C 311 40 337 44 361 52 C 385 60 409 72 431 89 L 423 32 C 400 17 377 6 353 0 C 329 -6 304 -10 280 -10 Z" unicode="ć" />
<glyph horiz-adv-x="671" d="M 376 728 L 491 851 L 530 851 L 611 728 L 562 728 L 507 809 L 429 728 L 376 728 Z M 420 -13 C 320 -13 242 15 184 73 C 126 131 98 203 98 289 C 98 397 135 488 209 561 C 283 634 376 671 488 671 C 526 671 563 666 599 657 C 635 648 671 634 706 616 L 698 559 C 666 578 632 593 596 603 C 560 613 523 619 485 619 C 391 619 312 588 250 526 C 187 464 156 385 156 291 C 156 216 180 155 230 109 C 280 62 344 39 424 39 C 462 39 499 44 535 54 C 571 64 606 80 642 100 L 633 41 C 597 22 562 8 527 0 C 491 -8 456 -13 420 -13 Z" unicode="Ĉ" />
<glyph horiz-adv-x="463" d="M 199 524 L 316 650 L 359 650 L 441 524 L 388 524 L 333 606 L 255 524 L 199 524 Z M 280 -10 C 216 -10 166 8 129 46 C 91 83 73 132 73 194 C 73 275 97 342 145 395 C 193 447 255 474 331 474 C 359 474 385 470 408 462 C 431 454 455 444 479 431 L 471 377 C 448 393 425 404 402 412 C 379 420 354 424 328 424 C 268 424 219 402 182 360 C 145 317 127 263 127 198 C 127 150 141 112 170 83 C 198 54 237 40 285 40 C 311 40 337 44 361 52 C 385 60 409 72 431 89 L 423 32 C 400 17 377 6 353 0 C 329 -6 304 -10 280 -10 Z" unicode="ĉ" />
<glyph horiz-adv-x="671" d="M 464 728 L 473 790 L 535 790 L 527 728 L 464 728 Z M 420 -13 C 320 -13 242 15 184 73 C 126 131 98 203 98 289 C 98 397 135 488 209 561 C 283 634 376 671 488 671 C 526 671 563 666 599 657 C 635 648 671 634 706 616 L 698 559 C 666 578 632 593 596 603 C 560 613 523 619 485 619 C 391 619 312 588 250 526 C 187 464 156 385 156 291 C 156 216 180 155 230 109 C 280 62 344 39 424 39 C 462 39 499 44 535 54 C 571 64 606 80 642 100 L 633 41 C 597 22 562 8 527 0 C 491 -8 456 -13 420 -13 Z" unicode="Ċ" />
<glyph horiz-adv-x="463" d="M 289 536 L 298 602 L 363 602 L 354 536 L 289 536 Z M 280 -10 C 216 -10 166 8 129 46 C 91 83 73 132 73 194 C 73 275 97 342 145 395 C 193 447 255 474 331 474 C 359 474 385 470 408 462 C 431 454 455 444 479 431 L 471 377 C 448 393 425 404 402 412 C 379 420 354 424 328 424 C 268 424 219 402 182 360 C 145 317 127 263 127 198 C 127 150 141 112 170 83 C 198 54 237 40 285 40 C 311 40 337 44 361 52 C 385 60 409 72 431 89 L 423 32 C 400 17 377 6 353 0 C 329 -6 304 -10 280 -10 Z" unicode="ċ" />
<glyph horiz-adv-x="671" d="M 476 720 L 395 843 L 444 843 L 499 761 L 576 843 L 630 843 L 516 720 L 476 720 Z M 420 -13 C 320 -13 242 15 184 73 C 126 131 98 203 98 289 C 98 397 135 488 209 561 C 283 634 376 671 488 671 C 526 671 563 666 599 657 C 635 648 671 634 706 616 L 698 559 C 666 578 632 593 596 603 C 560 613 523 619 485 619 C 391 619 312 588 250 526 C 187 464 156 385 156 291 C 156 216 180 155 230 109 C 280 62 344 39 424 39 C 462 39 499 44 535 54 C 571 64 606 80 642 100 L 633 41 C 597 22 562 8 527 0 C 491 -8 456 -13 420 -13 Z" unicode="Č" />
<glyph horiz-adv-x="463" d="M 299 524 L 216 650 L 268 650 L 324 568 L 402 650 L 458 650 L 341 524 L 299 524 Z M 280 -10 C 216 -10 166 8 129 46 C 91 83 73 132 73 194 C 73 275 97 342 145 395 C 193 447 255 474 331 474 C 359 474 385 470 408 462 C 431 454 455 444 479 431 L 471 377 C 448 393 425 404 402 412 C 379 420 354 424 328 424 C 268 424 219 402 182 360 C 145 317 127 263 127 198 C 127 150 141 112 170 83 C 198 54 237 40 285 40 C 311 40 337 44 361 52 C 385 60 409 72 431 89 L 423 32 C 400 17 377 6 353 0 C 329 -6 304 -10 280 -10 Z" unicode="č" />
<glyph horiz-adv-x="693" d="M 346 712 L 265 835 L 314 835 L 369 753 L 446 835 L 500 835 L 386 712 L 346 712 Z M 76 0 L 168 658 L 359 658 C 460 658 540 631 600 578 C 659 524 689 456 689 374 C 689 266 650 177 573 106 C 496 35 393 0 265 0 L 76 0 Z M 140 52 L 270 52 C 380 52 468 82 533 143 C 598 203 631 280 631 372 C 631 440 606 496 557 540 C 507 584 441 606 357 606 L 217 606 L 140 52 Z" unicode="Ď" />
<glyph horiz-adv-x="632" d="M 242 -10 C 195 -10 156 7 124 42 C 92 77 77 122 77 177 C 77 259 104 329 159 387 C 213 445 278 474 353 474 C 370 474 387 472 405 468 C 422 464 439 457 456 449 L 495 722 L 549 722 L 464 117 C 461 97 459 77 457 58 C 455 39 455 20 455 0 L 401 0 C 401 14 401 30 403 46 C 404 62 405 77 407 93 L 411 126 C 393 75 368 40 336 20 C 304 0 273 -10 242 -10 Z M 617 546 L 581 567 C 597 586 608 605 616 623 C 623 641 628 661 631 682 L 636 722 L 686 722 L 681 682 C 677 657 671 634 662 612 C 652 590 637 568 617 546 Z M 252 39 C 282 39 317 56 355 90 C 393 124 421 207 441 338 L 449 397 C 434 406 418 413 401 418 C 384 422 366 425 348 425 C 290 425 240 401 197 353 C 153 305 132 247 132 181 C 132 135 144 99 168 75 C 192 51 220 39 252 39 Z" unicode="ď" />
<glyph horiz-adv-x="698" d="M 79 0 L 122 307 L 66 307 L 73 356 L 129 356 L 171 658 L 362 658 C 463 658 543 631 603 578 C 662 524 692 456 692 374 C 692 266 653 177 576 106 C 499 35 396 0 268 0 L 79 0 Z M 143 52 L 273 52 C 383 52 471 82 536 143 C 601 203 634 280 634 372 C 634 440 609 496 560 540 C 510 584 444 606 360 606 L 220 606 L 185 356 L 321 356 L 314 307 L 178 307 L 143 52 Z" unicode="Đ" />
<glyph horiz-adv-x="512" d="M 242 -10 C 195 -10 156 7 124 42 C 92 77 77 122 77 177 C 77 259 104 329 159 387 C 213 445 278 474 353 474 C 370 474 387 472 405 468 C 422 464 439 457 456 449 L 475 579 L 389 579 L 396 626 L 481 626 L 495 722 L 549 722 L 536 626 L 593 626 L 586 579 L 529 579 L 464 117 C 461 97 459 77 457 58 C 455 39 455 20 455 0 L 401 0 C 401 14 401 30 403 46 C 404 62 405 77 407 93 L 411 126 C 393 75 368 40 336 20 C 304 0 273 -10 242 -10 Z M 252 39 C 282 39 317 56 355 90 C 393 124 421 207 441 338 L 449 397 C 434 406 418 413 401 418 C 384 422 366 425 348 425 C 290 425 240 401 197 353 C 153 305 132 247 132 181 C 132 135 144 99 168 75 C 192 51 220 39 252 39 Z" unicode="đ" />
<glyph horiz-adv-x="489" d="M 254 720 L 260 763 L 464 763 L 458 720 L 254 720 Z M 76 0 L 168 658 L 506 658 L 499 606 L 217 606 L 182 359 L 457 359 L 450 307 L 175 307 L 139 52 L 439 52 L 432 0 L 76 0 Z" unicode="Ē" />
<glyph horiz-adv-x="476" d="M 205 532 L 211 578 L 421 578 L 415 532 L 205 532 Z M 278 -10 C 213 -10 163 9 128 48 C 92 87 75 139 75 205 C 75 281 98 345 144 397 C 190 448 247 474 316 474 C 359 474 394 463 420 442 C 446 420 460 392 460 358 C 460 311 440 276 400 252 C 360 228 296 214 208 209 L 130 204 C 130 151 144 110 170 82 C 196 53 234 39 282 39 C 311 39 338 44 364 54 C 390 64 415 79 441 101 L 432 40 C 407 22 382 9 358 1 C 333 -6 306 -10 278 -10 Z M 312 426 C 264 426 223 408 191 373 C 158 338 139 296 133 247 L 210 252 C 277 256 326 267 357 283 C 388 299 404 323 404 356 C 404 377 395 394 379 407 C 363 419 340 426 312 426 Z" unicode="ē" />
<glyph horiz-adv-x="489" d="M 355 710 C 319 710 292 722 274 746 C 256 770 248 799 251 834 L 290 834 C 289 807 294 786 305 772 C 316 757 333 750 357 750 C 377 750 394 757 408 772 C 421 786 428 807 430 834 L 469 834 C 465 793 453 762 431 741 C 409 720 384 710 355 710 Z M 76 0 L 168 658 L 506 658 L 499 606 L 217 606 L 182 359 L 457 359 L 450 307 L 175 307 L 139 52 L 439 52 L 432 0 L 76 0 Z" unicode="Ĕ" />
<glyph horiz-adv-x="476" d="M 310 516 C 274 516 246 528 227 552 C 208 576 200 607 203 643 L 244 643 C 243 616 248 595 259 580 C 270 565 288 558 312 558 C 332 558 349 565 363 580 C 377 595 384 616 386 643 L 427 643 C 423 601 411 569 389 548 C 367 526 340 516 310 516 Z M 278 -10 C 213 -10 163 9 128 48 C 92 87 75 139 75 205 C 75 281 98 345 144 397 C 190 448 247 474 316 474 C 359 474 394 463 420 442 C 446 420 460 392 460 358 C 460 311 440 276 400 252 C 360 228 296 214 208 209 L 130 204 C 130 151 144 110 170 82 C 196 53 234 39 282 39 C 311 39 338 44 364 54 C 390 64 415 79 441 101 L 432 40 C 407 22 382 9 358 1 C 333 -6 306 -10 278 -10 Z M 312 426 C 264 426 223 408 191 373 C 158 338 139 296 133 247 L 210 252 C 277 256 326 267 357 283 C 388 299 404 323 404 356 C 404 377 395 394 379 407 C 363 419 340 426 312 426 Z" unicode="ĕ" />
<glyph horiz-adv-x="489" d="M 322 720 L 331 782 L 393 782 L 385 720 L 322 720 Z M 76 0 L 168 658 L 506 658 L 499 606 L 217 606 L 182 359 L 457 359 L 450 307 L 175 307 L 139 52 L 439 52 L 432 0 L 76 0 Z" unicode="Ė" />
<glyph horiz-adv-x="476" d="M 277 536 L 286 602 L 351 602 L 342 536 L 277 536 Z M 278 -10 C 213 -10 163 9 128 48 C 92 87 75 139 75 205 C 75 281 98 345 144 397 C 190 448 247 474 316 474 C 359 474 394 463 420 442 C 446 420 460 392 460 358 C 460 311 440 276 400 252 C 360 228 296 214 208 209 L 130 204 C 130 151 144 110 170 82 C 196 53 234 39 282 39 C 311 39 338 44 364 54 C 390 64 415 79 441 101 L 432 40 C 407 22 382 9 358 1 C 333 -6 306 -10 278 -10 Z M 312 426 C 264 426 223 408 191 373 C 158 338 139 296 133 247 L 210 252 C 277 256 326 267 357 283 C 388 299 404 323 404 356 C 404 377 395 394 379 407 C 363 419 340 426 312 426 Z" unicode="ė" />
<glyph horiz-adv-x="489" d="M 76 0 L 168 658 L 506 658 L 499 606 L 217 606 L 182 359 L 457 359 L 450 307 L 175 307 L 139 52 L 439 52 L 432 0 L 427 0 C 397 0 371 -9 351 -28 C 331 -46 321 -70 321 -100 C 321 -123 329 -141 346 -154 C 363 -167 385 -174 411 -174 L 405 -220 C 364 -220 332 -209 308 -188 C 284 -166 272 -139 272 -107 C 272 -84 277 -63 287 -45 C 297 -27 310 -12 327 0 L 76 0 Z" unicode="Ę" />
<glyph horiz-adv-x="487" d="M 405 -218 C 361 -218 326 -206 300 -183 C 274 -160 262 -131 262 -97 C 262 -80 264 -64 270 -50 C 276 -35 284 -22 295 -10 L 278 -10 C 213 -10 163 9 128 48 C 92 87 75 139 75 205 C 75 281 98 345 144 397 C 190 448 247 474 316 474 C 359 474 394 463 420 442 C 446 420 460 392 460 358 C 460 311 440 276 400 252 C 360 228 296 214 208 209 L 130 204 C 130 151 144 110 170 82 C 196 53 234 39 282 39 C 311 39 338 44 364 54 C 390 64 415 79 441 101 L 432 40 C 423 33 414 27 406 23 C 397 18 388 13 379 9 C 357 0 341 -13 329 -31 C 317 -49 312 -68 312 -89 C 312 -115 321 -135 340 -150 C 359 -165 383 -173 412 -173 L 405 -218 Z M 312 426 C 264 426 223 408 191 373 C 158 338 139 296 133 247 L 210 252 C 277 256 326 267 357 283 C 388 299 404 323 404 356 C 404 377 395 394 379 407 C 363 419 340 426 312 426 Z" unicode="ę" />
<glyph horiz-adv-x="489" d="M 334 712 L 253 835 L 302 835 L 357 753 L 434 835 L 488 835 L 374 712 L 334 712 Z M 76 0 L 168 658 L 506 658 L 499 606 L 217 606 L 182 359 L 457 359 L 450 307 L 175 307 L 139 52 L 439 52 L 432 0 L 76 0 Z" unicode="Ě" />
<glyph horiz-adv-x="476" d="M 287 524 L 204 650 L 256 650 L 312 568 L 390 650 L 446 650 L 329 524 L 287 524 Z M 278 -10 C 213 -10 163 9 128 48 C 92 87 75 139 75 205 C 75 281 98 345 144 397 C 190 448 247 474 316 474 C 359 474 394 463 420 442 C 446 420 460 392 460 358 C 460 311 440 276 400 252 C 360 228 296 214 208 209 L 130 204 C 130 151 144 110 170 82 C 196 53 234 39 282 39 C 311 39 338 44 364 54 C 390 64 415 79 441 101 L 432 40 C 407 22 382 9 358 1 C 333 -6 306 -10 278 -10 Z M 312 426 C 264 426 223 408 191 373 C 158 338 139 296 133 247 L 210 252 C 277 256 326 267 357 283 C 388 299 404 323 404 356 C 404 377 395 394 379 407 C 363 419 340 426 312 426 Z" unicode="ě" />
<glyph horiz-adv-x="686" d="M 364 728 L 479 851 L 518 851 L 599 728 L 550 728 L 495 809 L 417 728 L 364 728 Z M 412 -13 C 315 -13 238 15 182 72 C 126 128 98 200 98 287 C 98 401 134 494 208 565 C 282 635 373 671 483 671 C 521 671 557 667 591 659 C 625 651 657 639 688 625 L 681 570 C 650 586 618 599 585 607 C 552 615 517 619 481 619 C 386 619 308 588 247 527 C 186 466 156 387 156 289 C 156 215 180 154 229 108 C 278 62 340 39 414 39 C 444 39 473 41 501 47 C 529 52 555 62 581 77 L 608 268 L 468 268 L 476 320 L 672 320 L 633 40 C 595 20 557 6 518 -1 C 478 -9 443 -13 412 -13 Z" unicode="Ĝ" />
<glyph horiz-adv-x="510" d="M 215 524 L 332 650 L 375 650 L 457 524 L 404 524 L 349 606 L 271 524 L 215 524 Z M 213 -226 C 181 -226 152 -222 124 -216 C 96 -209 69 -199 43 -187 L 51 -131 C 75 -146 100 -157 128 -165 C 156 -173 184 -177 213 -177 C 257 -177 295 -163 328 -136 C 361 -108 382 -60 392 8 L 409 126 C 391 74 366 39 334 19 C 302 0 271 -10 240 -10 C 193 -10 154 7 123 42 C 91 77 76 122 76 177 C 76 259 103 329 159 387 C 215 445 282 474 362 474 C 385 474 409 472 434 468 C 459 464 484 459 510 451 L 447 11 C 435 -73 408 -133 366 -170 C 324 -207 273 -226 213 -226 Z M 250 39 C 281 39 316 56 354 90 C 392 124 420 207 439 338 L 450 413 C 435 417 420 420 405 422 C 390 424 374 425 358 425 C 296 425 242 401 197 353 C 152 305 130 247 130 181 C 130 135 142 99 167 75 C 191 51 219 39 250 39 Z" unicode="ĝ" />
<glyph horiz-adv-x="686" d="M 485 718 C 449 718 422 730 404 754 C 386 778 378 807 381 842 L 420 842 C 419 815 424 794 435 780 C 446 765 463 758 487 758 C 507 758 524 765 538 780 C 551 794 558 815 560 842 L 599 842 C 595 801 583 770 561 749 C 539 728 514 718 485 718 Z M 412 -13 C 315 -13 238 15 182 72 C 126 128 98 200 98 287 C 98 401 134 494 208 565 C 282 635 373 671 483 671 C 521 671 557 667 591 659 C 625 651 657 639 688 625 L 681 570 C 650 586 618 599 585 607 C 552 615 517 619 481 619 C 386 619 308 588 247 527 C 186 466 156 387 156 289 C 156 215 180 154 229 108 C 278 62 340 39 414 39 C 444 39 473 41 501 47 C 529 52 555 62 581 77 L 608 268 L 468 268 L 476 320 L 672 320 L 633 40 C 595 20 557 6 518 -1 C 478 -9 443 -13 412 -13 Z" unicode="Ğ" />
<glyph horiz-adv-x="510" d="M 338 516 C 302 516 274 528 255 552 C 236 576 228 607 231 643 L 272 643 C 271 616 276 595 287 580 C 298 565 316 558 340 558 C 360 558 377 565 391 580 C 405 595 412 616 414 643 L 455 643 C 451 601 439 569 417 548 C 395 526 368 516 338 516 Z M 213 -226 C 181 -226 152 -222 124 -216 C 96 -209 69 -199 43 -187 L 51 -131 C 75 -146 100 -157 128 -165 C 156 -173 184 -177 213 -177 C 257 -177 295 -163 328 -136 C 361 -108 382 -60 392 8 L 409 126 C 391 74 366 39 334 19 C 302 0 271 -10 240 -10 C 193 -10 154 7 123 42 C 91 77 76 122 76 177 C 76 259 103 329 159 387 C 215 445 282 474 362 474 C 385 474 409 472 434 468 C 459 464 484 459 510 451 L 447 11 C 435 -73 408 -133 366 -170 C 324 -207 273 -226 213 -226 Z M 250 39 C 281 39 316 56 354 90 C 392 124 420 207 439 338 L 450 413 C 435 417 420 420 405 422 C 390 424 374 425 358 425 C 296 425 242 401 197 353 C 152 305 130 247 130 181 C 130 135 142 99 167 75 C 191 51 219 39 250 39 Z" unicode="ğ" />
<glyph horiz-adv-x="686" d="M 452 728 L 461 790 L 523 790 L 515 728 L 452 728 Z M 412 -13 C 315 -13 238 15 182 72 C 126 128 98 200 98 287 C 98 401 134 494 208 565 C 282 635 373 671 483 671 C 521 671 557 667 591 659 C 625 651 657 639 688 625 L 681 570 C 650 586 618 599 585 607 C 552 615 517 619 481 619 C 386 619 308 588 247 527 C 186 466 156 387 156 289 C 156 215 180 154 229 108 C 278 62 340 39 414 39 C 444 39 473 41 501 47 C 529 52 555 62 581 77 L 608 268 L 468 268 L 476 320 L 672 320 L 633 40 C 595 20 557 6 518 -1 C 478 -9 443 -13 412 -13 Z" unicode="Ġ" />
<glyph horiz-adv-x="510" d="M 305 536 L 314 602 L 379 602 L 370 536 L 305 536 Z M 213 -226 C 181 -226 152 -222 124 -216 C 96 -209 69 -199 43 -187 L 51 -131 C 75 -146 100 -157 128 -165 C 156 -173 184 -177 213 -177 C 257 -177 295 -163 328 -136 C 361 -108 382 -60 392 8 L 409 126 C 391 74 366 39 334 19 C 302 0 271 -10 240 -10 C 193 -10 154 7 123 42 C 91 77 76 122 76 177 C 76 259 103 329 159 387 C 215 445 282 474 362 474 C 385 474 409 472 434 468 C 459 464 484 459 510 451 L 447 11 C 435 -73 408 -133 366 -170 C 324 -207 273 -226 213 -226 Z M 250 39 C 281 39 316 56 354 90 C 392 124 420 207 439 338 L 450 413 C 435 417 420 420 405 422 C 390 424 374 425 358 425 C 296 425 242 401 197 353 C 152 305 130 247 130 181 C 130 135 142 99 167 75 C 191 51 219 39 250 39 Z" unicode="ġ" />
<glyph horiz-adv-x="686" d="M 412 -13 C 315 -13 238 15 182 72 C 126 128 98 200 98 287 C 98 401 134 494 208 565 C 282 635 373 671 483 671 C 521 671 557 667 591 659 C 625 651 657 639 688 625 L 681 570 C 650 586 618 599 585 607 C 552 615 517 619 481 619 C 386 619 308 588 247 527 C 186 466 156 387 156 289 C 156 215 180 154 229 108 C 278 62 340 39 414 39 C 444 39 473 41 501 47 C 529 52 555 62 581 77 L 608 268 L 468 268 L 476 320 L 672 320 L 633 40 C 595 20 557 6 518 -1 C 478 -9 443 -13 412 -13 Z M 361 -226 L 327 -207 C 342 -188 353 -169 361 -151 C 368 -133 373 -114 376 -95 L 381 -56 L 428 -56 L 423 -95 C 420 -118 414 -140 405 -162 C 395 -184 381 -205 361 -226 Z" unicode="Ģ" />
<glyph horiz-adv-x="510" d="M 379 693 L 415 672 C 399 652 387 633 380 615 C 372 597 367 577 365 557 L 359 518 L 309 518 L 315 557 C 317 581 323 605 333 627 C 343 649 358 671 379 693 Z M 213 -226 C 181 -226 152 -222 124 -216 C 96 -209 69 -199 43 -187 L 51 -131 C 75 -146 100 -157 128 -165 C 156 -173 184 -177 213 -177 C 257 -177 295 -163 328 -136 C 361 -108 382 -60 392 8 L 409 126 C 391 74 366 39 334 19 C 302 0 271 -10 240 -10 C 193 -10 154 7 123 42 C 91 77 76 122 76 177 C 76 259 103 329 159 387 C 215 445 282 474 362 474 C 385 474 409 472 434 468 C 459 464 484 459 510 451 L 447 11 C 435 -73 408 -133 366 -170 C 324 -207 273 -226 213 -226 Z M 250 39 C 281 39 316 56 354 90 C 392 124 420 207 439 338 L 450 413 C 435 417 420 420 405 422 C 390 424 374 425 358 425 C 296 425 242 401 197 353 C 152 305 130 247 130 181 C 130 135 142 99 167 75 C 191 51 219 39 250 39 Z" unicode="ģ" />
<glyph horiz-adv-x="678" d="M 320 719 L 435 842 L 474 842 L 555 719 L 506 719 L 451 800 L 373 719 L 320 719 Z M 76 0 L 168 658 L 225 658 L 183 364 L 596 364 L 637 658 L 694 658 L 602 0 L 545 0 L 590 312 L 177 312 L 133 0 L 76 0 Z" unicode="Ĥ" />
<glyph horiz-adv-x="493" d="M 78 729 L 195 855 L 238 855 L 320 729 L 267 729 L 212 811 L 134 729 L 78 729 Z M 69 0 L 171 722 L 225 722 L 189 463 C 186 443 183 422 180 400 C 176 378 172 356 168 335 C 187 387 213 423 245 443 C 277 463 308 474 339 474 C 384 474 420 458 446 426 C 472 394 481 352 471 298 L 440 127 C 436 104 433 83 432 63 C 430 43 430 22 430 0 L 375 0 C 375 21 375 42 377 63 C 379 83 382 105 386 127 L 416 288 C 424 332 418 365 400 389 C 381 412 356 424 324 424 C 295 424 262 407 224 374 C 186 341 159 260 142 131 L 123 0 L 69 0 Z" unicode="ĥ" />
<glyph horiz-adv-x="679" d="M 75 0 L 142 480 L 92 480 L 99 529 L 149 529 L 167 658 L 223 658 L 205 529 L 618 529 L 636 658 L 692 658 L 674 529 L 724 529 L 718 480 L 667 480 L 600 0 L 544 0 L 588 310 L 175 310 L 131 0 L 75 0 Z M 181 362 L 594 362 L 611 480 L 198 480 L 181 362 Z" unicode="Ħ" />
<glyph horiz-adv-x="493" d="M 69 0 L 151 579 L 97 579 L 104 626 L 157 626 L 171 722 L 225 722 L 212 626 L 300 626 L 293 579 L 205 579 L 189 463 C 186 443 183 422 180 400 C 176 378 172 356 168 335 C 187 387 213 423 245 443 C 277 463 308 474 339 474 C 384 474 420 458 446 426 C 472 394 481 352 471 298 L 440 127 C 436 104 433 83 432 63 C 430 43 430 22 430 0 L 375 0 C 375 21 375 42 377 63 C 379 83 382 105 386 127 L 416 288 C 424 332 418 365 400 389 C 381 412 356 424 324 424 C 295 424 262 407 224 374 C 186 341 159 260 142 131 L 123 0 L 69 0 Z" unicode="ħ" />
<glyph horiz-adv-x="209" d="M 99 720 L 62 720 C 68 750 79 773 94 789 C 108 804 127 812 151 812 C 163 812 175 809 187 804 C 199 799 211 791 224 779 C 234 770 242 764 250 760 C 257 756 264 754 271 754 C 283 754 293 758 302 766 C 311 774 318 787 322 805 L 359 805 C 352 774 341 751 327 735 C 312 719 293 712 271 712 C 257 712 245 714 234 720 C 222 725 210 733 198 745 C 188 753 180 760 172 764 C 164 768 157 771 150 771 C 138 771 127 767 119 759 C 110 751 103 738 99 720 Z M 76 0 L 168 658 L 225 658 L 133 0 L 76 0 Z" unicode="Ĩ" />
<glyph horiz-adv-x="201" d="M 68 524 L 28 524 C 34 556 45 579 60 595 C 75 611 95 619 120 619 C 132 619 144 616 156 611 C 168 605 180 597 194 586 C 204 577 213 570 221 566 C 228 562 235 560 242 560 C 254 560 264 564 273 573 C 282 581 289 594 293 611 L 333 611 C 326 579 315 556 300 540 C 284 524 265 516 242 516 C 228 516 215 518 204 524 C 192 529 180 538 168 550 C 158 558 149 565 141 569 C 133 573 126 576 119 576 C 106 576 95 571 87 562 C 78 553 72 540 68 524 Z M 78 0 C 78 18 79 39 81 61 C 83 83 85 104 88 126 L 136 464 L 190 464 L 143 126 C 140 105 137 83 135 61 C 133 39 132 18 132 0 L 78 0 Z" unicode="ĩ" />
<glyph horiz-adv-x="209" d="M 106 720 L 112 763 L 316 763 L 310 720 L 106 720 Z M 76 0 L 168 658 L 225 658 L 133 0 L 76 0 Z" unicode="Ī" />
<glyph horiz-adv-x="201" d="M 69 532 L 75 578 L 285 578 L 279 532 L 69 532 Z M 78 0 C 78 18 79 39 81 61 C 83 83 85 104 88 126 L 136 464 L 190 464 L 143 126 C 140 105 137 83 135 61 C 133 39 132 18 132 0 L 78 0 Z" unicode="ī" />
<glyph horiz-adv-x="209" d="M 207 710 C 171 710 144 722 126 746 C 108 770 100 799 103 834 L 142 834 C 141 807 146 786 157 772 C 168 757 185 750 209 750 C 229 750 246 757 260 772 C 273 786 280 807 282 834 L 321 834 C 317 793 305 762 283 741 C 261 720 236 710 207 710 Z M 76 0 L 168 658 L 225 658 L 133 0 L 76 0 Z" unicode="Ĭ" />
<glyph horiz-adv-x="201" d="M 174 516 C 138 516 110 528 91 552 C 72 576 64 607 67 643 L 108 643 C 107 616 112 595 123 580 C 134 565 152 558 176 558 C 196 558 213 565 227 580 C 241 595 248 616 250 643 L 291 643 C 287 601 275 569 253 548 C 231 526 204 516 174 516 Z M 78 0 C 78 18 79 39 81 61 C 83 83 85 104 88 126 L 136 464 L 190 464 L 143 126 C 140 105 137 83 135 61 C 133 39 132 18 132 0 L 78 0 Z" unicode="ĭ" />
<glyph horiz-adv-x="209" d="M 109 -218 C 65 -218 32 -210 9 -194 C -13 -178 -25 -155 -25 -124 C -25 -99 -17 -76 -1 -55 C 15 -34 41 -12 78 11 L 168 658 L 225 658 L 133 0 L 129 0 C 87 -22 60 -42 46 -58 C 32 -74 25 -92 25 -112 C 25 -130 32 -145 48 -155 C 63 -165 85 -171 115 -171 L 109 -218 Z" unicode="Į" />
<glyph horiz-adv-x="204" d="M 158 624 L 166 683 L 226 683 L 218 624 L 158 624 Z M 81 0 C 81 21 82 42 84 64 C 86 86 88 106 91 126 L 138 464 L 193 464 L 145 126 C 142 106 140 85 138 63 C 136 41 135 20 135 0 L 81 0 Z" unicode="į" />
<glyph horiz-adv-x="209" d="M 174 720 L 183 782 L 245 782 L 237 720 L 174 720 Z M 76 0 L 168 658 L 225 658 L 133 0 L 76 0 Z" unicode="İ" />
<glyph horiz-adv-x="201" d="M 78 0 C 78 18 79 39 81 61 C 83 83 85 104 88 126 L 136 464 L 190 464 L 143 126 C 140 105 137 83 135 61 C 133 39 132 18 132 0 L 78 0 Z" unicode="ı" />
<glyph horiz-adv-x="221" d="M 98 720 L 213 843 L 252 843 L 333 720 L 284 720 L 229 801 L 151 720 L 98 720 Z M -36 -212 L -44 -212 L -37 -160 L -29 -160 C 0 -160 23 -151 43 -135 C 62 -119 74 -94 79 -61 L 180 658 L 236 658 L 135 -61 C 128 -111 109 -149 78 -174 C 47 -199 9 -212 -36 -212 Z" unicode="Ĵ" />
<glyph horiz-adv-x="191" d="M 50 524 L 167 650 L 210 650 L 292 524 L 239 524 L 184 606 L 106 524 L 50 524 Z M -55 -212 L -63 -212 L -56 -161 L -48 -161 C -18 -161 5 -151 25 -131 C 45 -111 57 -84 62 -50 L 135 464 L 189 464 L 117 -50 C 109 -100 90 -139 60 -168 C 29 -197 -9 -212 -55 -212 Z" unicode="ĵ" />
<glyph horiz-adv-x="527" d="M 76 0 L 168 658 L 225 658 L 182 354 L 520 658 L 591 658 L 233 336 L 511 0 L 440 0 L 177 320 L 132 0 L 76 0 Z M 231 -218 L 197 -199 C 212 -180 223 -161 231 -143 C 238 -125 243 -106 246 -87 L 251 -48 L 298 -48 L 293 -87 C 290 -110 284 -132 275 -154 C 265 -176 251 -197 231 -218 Z" unicode="Ķ" />
<glyph horiz-adv-x="445" d="M 69 0 L 171 722 L 225 722 L 160 257 C 208 289 252 322 293 355 C 333 388 371 424 405 464 L 469 464 C 430 418 390 378 350 343 C 309 307 265 273 217 241 L 424 0 L 356 0 L 157 236 L 123 0 L 69 0 Z M 190 -230 L 154 -209 C 169 -189 180 -170 188 -152 C 196 -134 201 -114 204 -94 L 209 -54 L 259 -54 L 254 -94 C 250 -118 244 -142 235 -164 C 225 -186 210 -208 190 -230 Z" unicode="ķ" />
<glyph horiz-adv-x="447" d="M 173 720 L 280 847 L 342 847 L 231 720 L 173 720 Z M 76 0 L 168 658 L 225 658 L 140 52 L 434 52 L 426 0 L 76 0 Z" unicode="Ĺ" />
<glyph horiz-adv-x="196" d="M 124 779 L 234 910 L 298 910 L 185 779 L 124 779 Z M 80 0 C 79 21 80 44 82 68 C 84 92 86 113 89 133 L 172 722 L 227 722 L 143 127 C 140 106 138 85 136 64 C 134 42 134 21 134 0 L 80 0 Z" unicode="ĺ" />
<glyph horiz-adv-x="447" d="M 76 0 L 168 658 L 225 658 L 140 52 L 434 52 L 426 0 L 76 0 Z M 213 -218 L 179 -199 C 194 -180 205 -161 213 -143 C 220 -125 225 -106 228 -87 L 233 -48 L 280 -48 L 275 -87 C 272 -110 266 -132 257 -154 C 247 -176 233 -197 213 -218 Z" unicode="Ļ" />
<glyph horiz-adv-x="198" d="M 79 0 C 78 21 79 44 81 68 C 83 92 85 113 88 133 L 171 722 L 226 722 L 142 127 C 139 106 137 85 135 64 C 133 42 133 21 133 0 L 79 0 Z M 53 -230 L 17 -209 C 32 -189 43 -170 51 -152 C 59 -134 64 -114 67 -94 L 72 -54 L 122 -54 L 117 -94 C 113 -118 107 -142 98 -164 C 88 -186 73 -208 53 -230 Z" unicode="ļ" />
<glyph horiz-adv-x="447" d="M 76 0 L 168 658 L 225 658 L 140 52 L 434 52 L 426 0 L 76 0 Z M 352 482 L 317 503 C 332 523 343 542 351 560 C 359 578 364 598 367 619 L 372 658 L 422 658 L 417 619 C 413 594 407 570 397 548 C 387 526 372 504 352 482 Z" unicode="Ľ" />
<glyph horiz-adv-x="310" d="M 80 0 C 79 21 80 44 82 68 C 84 92 86 113 89 133 L 172 722 L 227 722 L 143 127 C 140 106 138 85 136 64 C 134 42 134 21 134 0 L 80 0 Z M 297 546 L 261 567 C 277 586 288 605 296 623 C 303 641 308 661 311 682 L 316 722 L 366 722 L 361 682 C 357 657 351 634 342 612 C 332 590 317 568 297 546 Z" unicode="ľ" />
<glyph horiz-adv-x="447" d="M 76 0 L 168 658 L 225 658 L 140 52 L 434 52 L 426 0 L 76 0 Z M 355 321 L 364 381 L 425 381 L 416 321 L 355 321 Z" unicode="Ŀ" />
<glyph horiz-adv-x="232" d="M 80 0 C 79 21 80 44 82 68 C 84 92 86 113 89 133 L 172 722 L 227 722 L 143 127 C 140 106 138 85 136 64 C 134 42 134 21 134 0 L 80 0 Z M 226 324 L 235 384 L 296 384 L 287 324 L 226 324 Z" unicode="ŀ" />
<glyph horiz-adv-x="448" d="M 77 0 L 120 310 L 42 282 L 49 334 L 128 362 L 169 658 L 226 658 L 187 383 L 282 417 L 275 364 L 180 331 L 141 52 L 435 52 L 427 0 L 77 0 Z" unicode="Ł" />
<glyph horiz-adv-x="196" d="M 79 0 C 78 21 79 44 81 68 C 83 92 85 113 88 133 L 116 334 L 58 318 L 64 369 L 124 385 L 171 722 L 226 722 L 181 400 L 250 419 L 243 368 L 173 349 L 142 127 C 139 106 137 85 135 64 C 133 42 133 21 133 0 L 79 0 Z" unicode="ł" />
<glyph horiz-adv-x="702" d="M 398 720 L 505 847 L 567 847 L 456 720 L 398 720 Z M 76 0 L 168 658 L 230 658 L 558 121 L 584 75 L 590 121 L 665 658 L 717 658 L 625 0 L 565 0 L 236 539 L 210 584 L 204 539 L 129 0 L 76 0 Z" unicode="Ń" />
<glyph horiz-adv-x="492" d="M 289 524 L 399 655 L 463 655 L 350 524 L 289 524 Z M 76 0 L 126 353 C 128 373 130 393 132 411 C 133 429 134 447 134 464 L 188 464 C 188 450 187 434 186 416 C 185 398 184 382 182 370 L 177 336 C 195 387 219 423 249 443 C 279 463 308 474 337 474 C 386 474 422 457 446 424 C 470 390 477 348 468 298 L 438 127 C 434 104 431 83 430 63 C 429 43 429 22 429 0 L 374 0 C 374 21 374 42 375 63 C 376 83 379 105 383 127 L 413 288 C 420 330 415 363 397 387 C 379 411 354 424 322 424 C 294 424 262 406 227 370 C 191 334 165 255 149 131 L 131 0 L 76 0 Z" unicode="ń" />
<glyph horiz-adv-x="702" d="M 76 0 L 168 658 L 230 658 L 558 121 L 584 75 L 590 121 L 665 658 L 717 658 L 625 0 L 565 0 L 236 539 L 210 584 L 204 539 L 129 0 L 76 0 Z M 304 -218 L 270 -199 C 285 -180 296 -161 304 -143 C 311 -125 316 -106 319 -87 L 324 -48 L 371 -48 L 366 -87 C 363 -110 357 -132 348 -154 C 338 -176 324 -197 304 -218 Z" unicode="Ņ" />
<glyph horiz-adv-x="492" d="M 76 0 L 126 353 C 128 373 130 393 132 411 C 133 429 134 447 134 464 L 188 464 C 188 450 187 434 186 416 C 185 398 184 382 182 370 L 177 336 C 195 387 219 423 249 443 C 279 463 308 474 337 474 C 386 474 422 457 446 424 C 470 390 477 348 468 298 L 438 127 C 434 104 431 83 430 63 C 429 43 429 22 429 0 L 374 0 C 374 21 374 42 375 63 C 376 83 379 105 383 127 L 413 288 C 420 330 415 363 397 387 C 379 411 354 424 322 424 C 294 424 262 406 227 370 C 191 334 165 255 149 131 L 131 0 L 76 0 Z M 203 -230 L 167 -209 C 182 -189 193 -170 201 -152 C 209 -134 214 -114 217 -94 L 222 -54 L 272 -54 L 267 -94 C 263 -118 257 -142 248 -164 C 238 -186 223 -208 203 -230 Z" unicode="ņ" />
<glyph horiz-adv-x="702" d="M 423 712 L 342 835 L 391 835 L 446 753 L 523 835 L 577 835 L 463 712 L 423 712 Z M 76 0 L 168 658 L 230 658 L 558 121 L 584 75 L 590 121 L 665 658 L 717 658 L 625 0 L 565 0 L 236 539 L 210 584 L 204 539 L 129 0 L 76 0 Z" unicode="Ň" />
<glyph horiz-adv-x="492" d="M 315 524 L 232 650 L 284 650 L 340 568 L 418 650 L 474 650 L 357 524 L 315 524 Z M 76 0 L 126 353 C 128 373 130 393 132 411 C 133 429 134 447 134 464 L 188 464 C 188 450 187 434 186 416 C 185 398 184 382 182 370 L 177 336 C 195 387 219 423 249 443 C 279 463 308 474 337 474 C 386 474 422 457 446 424 C 470 390 477 348 468 298 L 438 127 C 434 104 431 83 430 63 C 429 43 429 22 429 0 L 374 0 C 374 21 374 42 375 63 C 376 83 379 105 383 127 L 413 288 C 420 330 415 363 397 387 C 379 411 354 424 322 424 C 294 424 262 406 227 370 C 191 334 165 255 149 131 L 131 0 L 76 0 Z" unicode="ň" />
<glyph horiz-adv-x="703" d="M 76 0 L 168 658 L 227 658 L 564 124 L 585 83 L 590 124 L 665 658 L 717 658 L 615 -73 C 608 -119 590 -154 560 -180 C 530 -205 491 -218 445 -218 L 437 -218 L 444 -168 L 452 -168 C 480 -168 505 -159 525 -142 C 545 -125 558 -102 563 -73 L 574 0 L 235 537 L 210 582 L 204 537 L 129 0 L 76 0 Z" unicode="Ŋ" />
<glyph horiz-adv-x="499" d="M 253 -218 L 245 -218 L 252 -168 L 260 -168 C 290 -168 315 -157 336 -137 C 356 -117 369 -90 374 -56 L 422 288 C 428 332 422 365 404 388 C 386 411 360 423 328 423 C 300 423 267 406 230 374 C 193 341 166 260 148 131 L 130 0 L 75 0 L 125 353 C 127 373 129 393 131 411 C 133 429 134 447 134 464 L 188 464 C 188 450 187 434 186 416 C 184 398 183 383 181 370 L 176 336 C 194 387 219 423 251 443 C 283 463 313 474 343 474 C 389 474 424 458 450 426 C 476 394 485 352 478 298 L 428 -57 C 421 -107 402 -146 371 -175 C 339 -203 300 -218 253 -218 Z" unicode="ŋ" />
<glyph horiz-adv-x="772" d="M 374 728 L 380 771 L 584 771 L 578 728 L 374 728 Z M 402 -14 C 308 -14 234 14 180 71 C 125 127 98 199 98 287 C 98 395 131 486 197 560 C 263 634 351 672 462 672 C 554 672 628 643 683 587 C 738 530 766 458 766 370 C 766 263 732 172 666 98 C 600 23 512 -14 402 -14 Z M 403 37 C 493 37 566 68 623 131 C 680 194 709 273 709 369 C 709 439 686 499 642 548 C 598 596 538 621 462 621 C 371 621 297 589 241 527 C 184 465 156 385 156 289 C 156 218 177 158 221 110 C 265 61 325 37 403 37 Z" unicode="Ō" />
<glyph horiz-adv-x="526" d="M 233 532 L 239 578 L 449 578 L 443 532 L 233 532 Z M 279 -10 C 218 -10 168 8 130 45 C 92 82 73 133 73 199 C 73 276 96 341 142 394 C 188 447 244 474 312 474 C 372 474 422 455 460 418 C 498 380 518 329 518 265 C 518 187 495 122 449 69 C 403 16 346 -10 279 -10 Z M 280 39 C 332 39 375 60 410 103 C 445 146 463 199 463 262 C 463 312 449 351 421 381 C 393 410 356 425 310 425 C 258 425 214 403 179 360 C 144 317 127 264 127 201 C 127 151 141 112 169 83 C 197 53 234 39 280 39 Z" unicode="ō" />
<glyph horiz-adv-x="772" d="M 475 718 C 439 718 412 730 394 754 C 376 778 368 807 371 842 L 410 842 C 409 815 414 794 425 780 C 436 765 453 758 477 758 C 497 758 514 765 528 780 C 541 794 548 815 550 842 L 589 842 C 585 801 573 770 551 749 C 529 728 504 718 475 718 Z M 402 -14 C 308 -14 234 14 180 71 C 125 127 98 199 98 287 C 98 395 131 486 197 560 C 263 634 351 672 462 672 C 554 672 628 643 683 587 C 738 530 766 458 766 370 C 766 263 732 172 666 98 C 600 23 512 -14 402 -14 Z M 403 37 C 493 37 566 68 623 131 C 680 194 709 273 709 369 C 709 439 686 499 642 548 C 598 596 538 621 462 621 C 371 621 297 589 241 527 C 184 465 156 385 156 289 C 156 218 177 158 221 110 C 265 61 325 37 403 37 Z" unicode="Ŏ" />
<glyph horiz-adv-x="526" d="M 338 516 C 302 516 274 528 255 552 C 236 576 228 607 231 643 L 272 643 C 271 616 276 595 287 580 C 298 565 316 558 340 558 C 360 558 377 565 391 580 C 405 595 412 616 414 643 L 455 643 C 451 601 439 569 417 548 C 395 526 368 516 338 516 Z M 279 -10 C 218 -10 168 8 130 45 C 92 82 73 133 73 199 C 73 276 96 341 142 394 C 188 447 244 474 312 474 C 372 474 422 455 460 418 C 498 380 518 329 518 265 C 518 187 495 122 449 69 C 403 16 346 -10 279 -10 Z M 280 39 C 332 39 375 60 410 103 C 445 146 463 199 463 262 C 463 312 449 351 421 381 C 393 410 356 425 310 425 C 258 425 214 403 179 360 C 144 317 127 264 127 201 C 127 151 141 112 169 83 C 197 53 234 39 280 39 Z" unicode="ŏ" />
<glyph horiz-adv-x="772" d="M 383 728 L 481 850 L 535 850 L 434 728 L 383 728 Z M 506 728 L 607 850 L 660 850 L 557 728 L 506 728 Z M 402 -14 C 308 -14 234 14 180 71 C 125 127 98 199 98 287 C 98 395 131 486 197 560 C 263 634 351 672 462 672 C 554 672 628 643 683 587 C 738 530 766 458 766 370 C 766 263 732 172 666 98 C 600 23 512 -14 402 -14 Z M 403 37 C 493 37 566 68 623 131 C 680 194 709 273 709 369 C 709 439 686 499 642 548 C 598 596 538 621 462 621 C 371 621 297 589 241 527 C 184 465 156 385 156 289 C 156 218 177 158 221 110 C 265 61 325 37 403 37 Z" unicode="Ő" />
<glyph horiz-adv-x="526" d="M 244 524 L 345 649 L 401 649 L 298 524 L 244 524 Z M 371 524 L 474 649 L 531 649 L 425 524 L 371 524 Z M 279 -10 C 218 -10 168 8 130 45 C 92 82 73 133 73 199 C 73 276 96 341 142 394 C 188 447 244 474 312 474 C 372 474 422 455 460 418 C 498 380 518 329 518 265 C 518 187 495 122 449 69 C 403 16 346 -10 279 -10 Z M 280 39 C 332 39 375 60 410 103 C 445 146 463 199 463 262 C 463 312 449 351 421 381 C 393 410 356 425 310 425 C 258 425 214 403 179 360 C 144 317 127 264 127 201 C 127 151 141 112 169 83 C 197 53 234 39 280 39 Z" unicode="ő" />
<glyph horiz-adv-x="895" d="M 417 0 C 315 0 237 27 182 83 C 126 139 99 208 99 290 C 99 398 134 486 206 555 C 278 623 375 658 498 658 L 913 658 L 905 606 L 622 606 L 587 359 L 863 359 L 856 307 L 580 307 L 545 52 L 845 52 L 838 0 L 417 0 Z M 418 52 L 489 52 L 566 606 L 490 606 C 387 606 306 576 246 518 C 186 459 156 384 156 292 C 156 223 179 166 226 120 C 272 74 336 52 418 52 Z" unicode="Œ" />
<glyph horiz-adv-x="850" d="M 272 -10 C 212 -10 164 9 128 47 C 92 85 74 135 74 199 C 74 276 96 341 140 394 C 184 447 239 474 307 474 C 351 474 389 463 421 441 C 453 419 475 389 489 353 C 509 389 537 418 572 440 C 606 462 645 474 689 474 C 733 474 768 463 794 442 C 820 420 834 392 834 358 C 834 311 814 276 774 252 C 734 228 670 214 582 209 L 504 204 C 504 151 518 110 544 82 C 570 53 608 39 656 39 C 685 39 712 44 738 54 C 764 64 789 79 814 101 L 806 40 C 781 22 756 9 732 1 C 707 -6 680 -10 652 -10 C 604 -10 565 1 534 23 C 502 45 480 75 467 113 C 447 75 420 45 386 23 C 352 1 314 -10 272 -10 Z M 686 426 C 638 426 597 408 565 373 C 532 338 513 296 507 247 L 584 252 C 651 256 700 267 731 283 C 762 299 778 323 778 356 C 778 377 769 394 753 407 C 737 419 714 426 686 426 Z M 276 39 C 327 39 369 60 403 103 C 436 146 453 199 453 262 C 453 312 440 351 414 381 C 388 410 352 425 306 425 C 254 425 211 403 178 360 C 144 317 128 264 128 201 C 128 151 141 112 167 83 C 193 53 229 39 276 39 Z" unicode="œ" />
<glyph horiz-adv-x="498" d="M 286 720 L 393 847 L 455 847 L 344 720 L 286 720 Z M 77 0 L 169 658 L 310 658 C 364 658 406 644 437 616 C 467 588 483 551 483 503 C 483 454 467 413 437 381 C 407 348 368 328 320 321 C 338 315 352 305 363 291 C 374 277 383 259 391 239 L 482 0 L 423 0 L 337 225 C 328 249 316 269 302 283 C 287 297 268 304 244 304 L 176 304 L 133 0 L 77 0 Z M 182 353 L 271 353 C 317 353 353 366 381 394 C 409 422 423 456 423 497 C 423 531 412 557 391 577 C 370 597 342 607 306 607 L 218 607 L 182 353 Z" unicode="Ŕ" />
<glyph horiz-adv-x="329" d="M 205 524 L 315 655 L 379 655 L 266 524 L 205 524 Z M 76 0 L 126 353 C 128 371 130 390 132 408 C 133 426 134 445 134 464 L 188 464 C 188 450 187 434 187 418 C 186 401 184 385 182 369 L 177 336 C 195 388 217 424 244 444 C 270 464 296 474 321 474 C 329 474 337 473 347 471 C 357 469 366 467 375 465 L 367 408 C 358 411 349 414 339 416 C 329 418 321 419 313 419 C 294 419 267 404 231 375 C 195 346 167 265 149 131 L 131 0 L 76 0 Z" unicode="ŕ" />
<glyph horiz-adv-x="498" d="M 77 0 L 169 658 L 310 658 C 364 658 406 644 437 616 C 467 588 483 551 483 503 C 483 454 467 413 437 381 C 407 348 368 328 320 321 C 338 315 352 305 363 291 C 374 277 383 259 391 239 L 482 0 L 423 0 L 337 225 C 328 249 316 269 302 283 C 287 297 268 304 244 304 L 176 304 L 133 0 L 77 0 Z M 182 353 L 271 353 C 317 353 353 366 381 394 C 409 422 423 456 423 497 C 423 531 412 557 391 577 C 370 597 342 607 306 607 L 218 607 L 182 353 Z M 230 -218 L 196 -199 C 211 -180 222 -161 230 -143 C 237 -125 242 -106 245 -87 L 250 -48 L 297 -48 L 292 -87 C 289 -110 283 -132 274 -154 C 264 -176 250 -197 230 -218 Z" unicode="Ŗ" />
<glyph horiz-adv-x="329" d="M 76 0 L 126 353 C 128 371 130 390 132 408 C 133 426 134 445 134 464 L 188 464 C 188 450 187 434 187 418 C 186 401 184 385 182 369 L 177 336 C 195 388 217 424 244 444 C 270 464 296 474 321 474 C 329 474 337 473 347 471 C 357 469 366 467 375 465 L 367 408 C 358 411 349 414 339 416 C 329 418 321 419 313 419 C 294 419 267 404 231 375 C 195 346 167 265 149 131 L 131 0 L 76 0 Z M 53 -230 L 17 -209 C 32 -189 43 -170 51 -152 C 59 -134 64 -114 67 -94 L 72 -54 L 122 -54 L 117 -94 C 113 -118 107 -142 98 -164 C 88 -186 73 -208 53 -230 Z" unicode="ŗ" />
<glyph horiz-adv-x="498" d="M 311 712 L 230 835 L 279 835 L 334 753 L 411 835 L 465 835 L 351 712 L 311 712 Z M 77 0 L 169 658 L 310 658 C 364 658 406 644 437 616 C 467 588 483 551 483 503 C 483 454 467 413 437 381 C 407 348 368 328 320 321 C 338 315 352 305 363 291 C 374 277 383 259 391 239 L 482 0 L 423 0 L 337 225 C 328 249 316 269 302 283 C 287 297 268 304 244 304 L 176 304 L 133 0 L 77 0 Z M 182 353 L 271 353 C 317 353 353 366 381 394 C 409 422 423 456 423 497 C 423 531 412 557 391 577 C 370 597 342 607 306 607 L 218 607 L 182 353 Z" unicode="Ř" />
<glyph horiz-adv-x="329" d="M 231 524 L 148 650 L 200 650 L 256 568 L 334 650 L 390 650 L 273 524 L 231 524 Z M 76 0 L 126 353 C 128 371 130 390 132 408 C 133 426 134 445 134 464 L 188 464 C 188 450 187 434 187 418 C 186 401 184 385 182 369 L 177 336 C 195 388 217 424 244 444 C 270 464 296 474 321 474 C 329 474 337 473 347 471 C 357 469 366 467 375 465 L 367 408 C 358 411 349 414 339 416 C 329 418 321 419 313 419 C 294 419 267 404 231 375 C 195 346 167 265 149 131 L 131 0 L 76 0 Z" unicode="ř" />
<glyph horiz-adv-x="502" d="M 299 728 L 406 855 L 468 855 L 357 728 L 299 728 Z M 256 -16 C 220 -16 185 -11 153 -2 C 120 7 90 20 64 38 L 73 101 C 95 80 123 64 155 53 C 187 42 222 37 258 37 C 296 37 331 48 363 72 C 395 96 411 131 411 177 C 411 203 401 227 383 249 C 365 271 334 291 291 309 L 278 314 C 226 335 188 360 166 388 C 144 416 133 448 133 486 C 133 537 150 581 186 618 C 221 655 271 674 336 674 C 368 674 399 669 429 661 C 458 653 484 640 508 624 L 500 560 C 477 581 452 596 425 606 C 397 616 367 621 335 621 C 292 621 257 609 230 585 C 203 561 190 529 190 491 C 190 464 199 440 218 420 C 237 399 268 380 310 363 L 322 358 C 374 336 411 311 434 282 C 457 252 469 219 469 182 C 469 124 448 76 408 39 C 368 2 317 -16 256 -16 Z" unicode="Ś" />
<glyph horiz-adv-x="373" d="M 201 524 L 311 655 L 375 655 L 262 524 L 201 524 Z M 184 -10 C 163 -10 140 -6 114 0 C 88 6 66 15 48 26 L 56 80 C 72 67 93 57 117 49 C 141 41 164 37 186 37 C 216 37 242 44 262 59 C 282 74 293 95 293 122 C 293 141 286 158 272 172 C 258 186 237 200 207 213 L 193 218 C 159 232 134 248 118 268 C 102 288 94 313 94 344 C 94 381 108 412 136 437 C 164 461 202 474 250 474 C 268 474 290 471 314 465 C 338 459 359 452 377 444 L 369 391 C 354 401 335 410 312 417 C 289 423 268 427 250 427 C 220 427 196 420 177 406 C 157 392 148 372 148 348 C 148 329 153 313 165 301 C 176 288 194 276 220 266 L 234 261 C 273 245 302 226 320 205 C 338 184 347 158 347 128 C 347 88 332 55 303 29 C 273 3 234 -10 184 -10 Z" unicode="ś" />
<glyph horiz-adv-x="502" d="M 224 728 L 339 851 L 378 851 L 459 728 L 410 728 L 355 809 L 277 728 L 224 728 Z M 256 -16 C 220 -16 185 -11 153 -2 C 120 7 90 20 64 38 L 73 101 C 95 80 123 64 155 53 C 187 42 222 37 258 37 C 296 37 331 48 363 72 C 395 96 411 131 411 177 C 411 203 401 227 383 249 C 365 271 334 291 291 309 L 278 314 C 226 335 188 360 166 388 C 144 416 133 448 133 486 C 133 537 150 581 186 618 C 221 655 271 674 336 674 C 368 674 399 669 429 661 C 458 653 484 640 508 624 L 500 560 C 477 581 452 596 425 606 C 397 616 367 621 335 621 C 292 621 257 609 230 585 C 203 561 190 529 190 491 C 190 464 199 440 218 420 C 237 399 268 380 310 363 L 322 358 C 374 336 411 311 434 282 C 457 252 469 219 469 182 C 469 124 448 76 408 39 C 368 2 317 -16 256 -16 Z" unicode="Ŝ" />
<glyph horiz-adv-x="373" d="M 127 524 L 244 650 L 287 650 L 369 524 L 316 524 L 261 606 L 183 524 L 127 524 Z M 184 -10 C 163 -10 140 -6 114 0 C 88 6 66 15 48 26 L 56 80 C 72 67 93 57 117 49 C 141 41 164 37 186 37 C 216 37 242 44 262 59 C 282 74 293 95 293 122 C 293 141 286 158 272 172 C 258 186 237 200 207 213 L 193 218 C 159 232 134 248 118 268 C 102 288 94 313 94 344 C 94 381 108 412 136 437 C 164 461 202 474 250 474 C 268 474 290 471 314 465 C 338 459 359 452 377 444 L 369 391 C 354 401 335 410 312 417 C 289 423 268 427 250 427 C 220 427 196 420 177 406 C 157 392 148 372 148 348 C 148 329 153 313 165 301 C 176 288 194 276 220 266 L 234 261 C 273 245 302 226 320 205 C 338 184 347 158 347 128 C 347 88 332 55 303 29 C 273 3 234 -10 184 -10 Z" unicode="ŝ" />
<glyph horiz-adv-x="502" d="M 256 -16 C 220 -16 185 -11 153 -2 C 120 7 90 20 64 38 L 73 101 C 95 80 123 64 155 53 C 187 42 222 37 258 37 C 296 37 331 48 363 72 C 395 96 411 131 411 177 C 411 203 401 227 383 249 C 365 271 334 291 291 309 L 278 314 C 226 335 188 360 166 388 C 144 416 133 448 133 486 C 133 537 150 581 186 618 C 221 655 271 674 336 674 C 368 674 399 669 429 661 C 458 653 484 640 508 624 L 500 560 C 477 581 452 596 425 606 C 397 616 367 621 335 621 C 292 621 257 609 230 585 C 203 561 190 529 190 491 C 190 464 199 440 218 420 C 237 399 268 380 310 363 L 322 358 C 374 336 411 311 434 282 C 457 252 469 219 469 182 C 469 124 448 76 408 39 C 368 2 317 -16 256 -16 Z M 245 -194 C 235 -194 225 -192 215 -190 C 205 -187 196 -183 188 -179 L 193 -141 C 199 -147 207 -151 216 -154 C 225 -157 235 -159 245 -159 C 258 -159 269 -155 277 -148 C 285 -141 289 -132 289 -120 C 289 -109 285 -100 277 -93 C 269 -86 259 -83 247 -83 L 241 -83 L 246 -48 L 252 -48 C 274 -48 293 -54 307 -67 C 321 -79 328 -96 328 -117 C 328 -140 320 -159 305 -173 C 289 -187 269 -194 245 -194 Z" unicode="Ş" />
<glyph horiz-adv-x="373" d="M 184 -10 C 163 -10 140 -6 114 0 C 88 6 66 15 48 26 L 56 80 C 72 67 93 57 117 49 C 141 41 164 37 186 37 C 216 37 242 44 262 59 C 282 74 293 95 293 122 C 293 141 286 158 272 172 C 258 186 237 200 207 213 L 193 218 C 159 232 134 248 118 268 C 102 288 94 313 94 344 C 94 381 108 412 136 437 C 164 461 202 474 250 474 C 268 474 290 471 314 465 C 338 459 359 452 377 444 L 369 391 C 354 401 335 410 312 417 C 289 423 268 427 250 427 C 220 427 196 420 177 406 C 157 392 148 372 148 348 C 148 329 153 313 165 301 C 176 288 194 276 220 266 L 234 261 C 273 245 302 226 320 205 C 338 184 347 158 347 128 C 347 88 332 55 303 29 C 273 3 234 -10 184 -10 Z M 163 -197 C 153 -197 143 -195 133 -192 C 123 -189 113 -185 105 -181 L 111 -142 C 117 -148 125 -152 135 -155 C 144 -158 154 -160 164 -160 C 177 -160 188 -156 196 -149 C 204 -142 209 -132 209 -120 C 209 -109 205 -100 197 -93 C 189 -86 180 -83 168 -83 L 162 -83 L 166 -46 L 172 -46 C 196 -46 215 -52 229 -66 C 243 -79 250 -96 250 -117 C 250 -141 242 -160 226 -175 C 210 -189 189 -197 163 -197 Z" unicode="ş" />
<glyph horiz-adv-x="502" d="M 324 720 L 243 843 L 292 843 L 347 761 L 424 843 L 478 843 L 364 720 L 324 720 Z M 256 -16 C 220 -16 185 -11 153 -2 C 120 7 90 20 64 38 L 73 101 C 95 80 123 64 155 53 C 187 42 222 37 258 37 C 296 37 331 48 363 72 C 395 96 411 131 411 177 C 411 203 401 227 383 249 C 365 271 334 291 291 309 L 278 314 C 226 335 188 360 166 388 C 144 416 133 448 133 486 C 133 537 150 581 186 618 C 221 655 271 674 336 674 C 368 674 399 669 429 661 C 458 653 484 640 508 624 L 500 560 C 477 581 452 596 425 606 C 397 616 367 621 335 621 C 292 621 257 609 230 585 C 203 561 190 529 190 491 C 190 464 199 440 218 420 C 237 399 268 380 310 363 L 322 358 C 374 336 411 311 434 282 C 457 252 469 219 469 182 C 469 124 448 76 408 39 C 368 2 317 -16 256 -16 Z" unicode="Š" />
<glyph horiz-adv-x="373" d="M 227 524 L 144 650 L 196 650 L 252 568 L 330 650 L 386 650 L 269 524 L 227 524 Z M 184 -10 C 163 -10 140 -6 114 0 C 88 6 66 15 48 26 L 56 80 C 72 67 93 57 117 49 C 141 41 164 37 186 37 C 216 37 242 44 262 59 C 282 74 293 95 293 122 C 293 141 286 158 272 172 C 258 186 237 200 207 213 L 193 218 C 159 232 134 248 118 268 C 102 288 94 313 94 344 C 94 381 108 412 136 437 C 164 461 202 474 250 474 C 268 474 290 471 314 465 C 338 459 359 452 377 444 L 369 391 C 354 401 335 410 312 417 C 289 423 268 427 250 427 C 220 427 196 420 177 406 C 157 392 148 372 148 348 C 148 329 153 313 165 301 C 176 288 194 276 220 266 L 234 261 C 273 245 302 226 320 205 C 338 184 347 158 347 128 C 347 88 332 55 303 29 C 273 3 234 -10 184 -10 Z" unicode="š" />
<glyph horiz-adv-x="542" d="M 243 0 L 328 606 L 105 606 L 112 658 L 614 658 L 607 606 L 384 606 L 299 0 L 243 0 Z M 256 -192 C 246 -192 236 -190 226 -188 C 216 -185 207 -181 199 -177 L 204 -139 C 210 -145 218 -149 227 -152 C 236 -155 246 -157 256 -157 C 269 -157 280 -153 288 -146 C 296 -139 300 -130 300 -118 C 300 -107 296 -98 288 -91 C 280 -84 270 -81 258 -81 L 252 -81 L 257 -46 L 263 -46 C 285 -46 304 -52 318 -65 C 332 -77 339 -94 339 -115 C 339 -138 331 -157 316 -171 C 300 -185 280 -192 256 -192 Z" unicode="Ţ" />
<glyph horiz-adv-x="292" d="M 189 -9 C 157 -9 134 0 119 19 C 103 38 98 65 103 101 L 147 414 L 75 414 L 82 464 L 155 464 L 176 617 L 231 617 L 209 464 L 329 464 L 322 414 L 201 414 L 158 105 C 155 83 158 66 166 56 C 174 46 186 41 204 41 C 215 41 226 42 238 46 C 249 50 260 55 272 63 L 265 12 C 253 5 241 0 228 -3 C 214 -7 201 -9 189 -9 Z M 164 -199 C 154 -199 144 -197 134 -194 C 124 -191 114 -187 106 -183 L 112 -144 C 118 -150 126 -154 136 -157 C 145 -160 155 -162 165 -162 C 178 -162 189 -158 197 -151 C 205 -144 210 -134 210 -122 C 210 -111 206 -102 198 -95 C 190 -88 181 -85 169 -85 L 163 -85 L 167 -48 L 173 -48 C 197 -48 216 -54 230 -68 C 244 -81 251 -98 251 -119 C 251 -143 243 -162 227 -177 C 211 -191 190 -199 164 -199 Z" unicode="ţ" />
<glyph horiz-adv-x="542" d="M 351 712 L 270 835 L 319 835 L 374 753 L 451 835 L 505 835 L 391 712 L 351 712 Z M 243 0 L 328 606 L 105 606 L 112 658 L 614 658 L 607 606 L 384 606 L 299 0 L 243 0 Z" unicode="Ť" />
<glyph horiz-adv-x="341" d="M 326 547 L 290 568 C 306 587 317 606 325 624 C 332 642 337 662 340 683 L 345 723 L 395 723 L 390 683 C 386 658 380 635 371 613 C 361 591 346 569 326 547 Z M 189 -9 C 157 -9 134 0 119 19 C 103 38 98 65 103 101 L 147 414 L 75 414 L 82 464 L 155 464 L 176 617 L 231 617 L 209 464 L 329 464 L 322 414 L 201 414 L 158 105 C 155 83 158 66 166 56 C 174 46 186 41 204 41 C 215 41 226 42 238 46 C 249 50 260 55 272 63 L 265 12 C 253 5 241 0 228 -3 C 214 -7 201 -9 189 -9 Z" unicode="ť" />
<glyph horiz-adv-x="542" d="M 243 0 L 290 333 L 159 333 L 166 382 L 297 382 L 328 606 L 105 606 L 112 658 L 614 658 L 607 606 L 384 606 L 353 382 L 484 382 L 477 333 L 346 333 L 299 0 L 243 0 Z" unicode="Ŧ" />
<glyph horiz-adv-x="292" d="M 189 -9 C 157 -9 134 0 119 19 C 103 38 98 65 103 101 L 126 264 L 65 264 L 72 310 L 132 310 L 147 414 L 75 414 L 82 464 L 155 464 L 176 617 L 231 617 L 209 464 L 329 464 L 322 414 L 201 414 L 187 310 L 274 310 L 268 264 L 180 264 L 158 105 C 155 83 158 66 166 56 C 174 46 186 41 204 41 C 215 41 226 42 238 46 C 249 50 260 55 272 63 L 265 12 C 253 5 241 0 228 -3 C 214 -7 201 -9 189 -9 Z" unicode="ŧ" />
<glyph horiz-adv-x="664" d="M 327 720 L 290 720 C 296 750 307 773 322 789 C 336 804 355 812 379 812 C 391 812 403 809 415 804 C 427 799 439 791 452 779 C 462 770 470 764 478 760 C 485 756 492 754 499 754 C 511 754 521 758 530 766 C 539 774 546 787 550 805 L 587 805 C 580 774 569 751 555 735 C 540 719 521 712 499 712 C 485 712 473 714 462 720 C 450 725 438 733 426 745 C 416 753 408 760 400 764 C 392 768 385 771 378 771 C 366 771 355 767 347 759 C 338 751 331 738 327 720 Z M 348 -12 C 260 -12 196 12 154 60 C 112 108 96 172 107 250 L 165 658 L 221 658 L 163 249 C 154 184 166 133 198 96 C 230 59 281 41 349 41 C 407 41 458 60 500 98 C 542 136 567 186 576 249 L 633 658 L 685 658 L 628 248 C 616 166 584 103 532 57 C 480 11 419 -12 348 -12 Z" unicode="Ũ" />
<glyph horiz-adv-x="494" d="M 211 525 L 171 525 C 177 557 188 580 203 596 C 218 612 238 620 263 620 C 275 620 287 617 299 612 C 311 606 323 598 337 587 C 347 578 356 571 364 567 C 371 563 378 561 385 561 C 397 561 407 565 416 574 C 425 582 432 595 436 612 L 476 612 C 469 580 458 557 443 541 C 427 525 408 517 385 517 C 371 517 358 519 347 525 C 335 530 323 539 311 551 C 301 559 292 566 284 570 C 276 574 269 577 262 577 C 249 577 238 572 230 563 C 221 554 215 541 211 525 Z M 222 -12 C 176 -12 140 4 114 36 C 88 68 79 111 88 166 L 117 340 C 121 362 123 383 125 403 C 127 423 128 443 128 464 L 182 464 C 182 442 181 422 179 402 C 177 382 174 361 171 339 L 145 176 C 137 130 143 96 161 73 C 179 50 204 39 237 39 C 265 39 297 56 334 90 C 370 124 397 199 414 316 L 434 464 L 489 464 L 439 112 C 436 91 434 71 433 53 C 431 34 431 16 431 0 L 377 0 C 377 14 377 29 378 46 C 378 62 380 78 383 93 L 388 128 C 369 76 344 39 313 19 C 282 -1 252 -12 222 -12 Z" unicode="ũ" />
<glyph horiz-adv-x="664" d="M 334 720 L 340 763 L 544 763 L 538 720 L 334 720 Z M 348 -12 C 260 -12 196 12 154 60 C 112 108 96 172 107 250 L 165 658 L 221 658 L 163 249 C 154 184 166 133 198 96 C 230 59 281 41 349 41 C 407 41 458 60 500 98 C 542 136 567 186 576 249 L 633 658 L 685 658 L 628 248 C 616 166 584 103 532 57 C 480 11 419 -12 348 -12 Z" unicode="Ū" />
<glyph horiz-adv-x="494" d="M 212 533 L 218 579 L 428 579 L 422 533 L 212 533 Z M 222 -12 C 176 -12 140 4 114 36 C 88 68 79 111 88 166 L 117 340 C 121 362 123 383 125 403 C 127 423 128 443 128 464 L 182 464 C 182 442 181 422 179 402 C 177 382 174 361 171 339 L 145 176 C 137 130 143 96 161 73 C 179 50 204 39 237 39 C 265 39 297 56 334 90 C 370 124 397 199 414 316 L 434 464 L 489 464 L 439 112 C 436 91 434 71 433 53 C 431 34 431 16 431 0 L 377 0 C 377 14 377 29 378 46 C 378 62 380 78 383 93 L 388 128 C 369 76 344 39 313 19 C 282 -1 252 -12 222 -12 Z" unicode="ū" />
<glyph horiz-adv-x="664" d="M 435 710 C 399 710 372 722 354 746 C 336 770 328 799 331 834 L 370 834 C 369 807 374 786 385 772 C 396 757 413 750 437 750 C 457 750 474 757 488 772 C 501 786 508 807 510 834 L 549 834 C 545 793 533 762 511 741 C 489 720 464 710 435 710 Z M 348 -12 C 260 -12 196 12 154 60 C 112 108 96 172 107 250 L 165 658 L 221 658 L 163 249 C 154 184 166 133 198 96 C 230 59 281 41 349 41 C 407 41 458 60 500 98 C 542 136 567 186 576 249 L 633 658 L 685 658 L 628 248 C 616 166 584 103 532 57 C 480 11 419 -12 348 -12 Z" unicode="Ŭ" />
<glyph horiz-adv-x="494" d="M 317 517 C 281 517 253 529 234 553 C 215 577 207 608 210 644 L 251 644 C 250 617 255 596 266 581 C 277 566 295 559 319 559 C 339 559 356 566 370 581 C 384 596 391 617 393 644 L 434 644 C 430 602 418 570 396 549 C 374 527 347 517 317 517 Z M 222 -12 C 176 -12 140 4 114 36 C 88 68 79 111 88 166 L 117 340 C 121 362 123 383 125 403 C 127 423 128 443 128 464 L 182 464 C 182 442 181 422 179 402 C 177 382 174 361 171 339 L 145 176 C 137 130 143 96 161 73 C 179 50 204 39 237 39 C 265 39 297 56 334 90 C 370 124 397 199 414 316 L 434 464 L 489 464 L 439 112 C 436 91 434 71 433 53 C 431 34 431 16 431 0 L 377 0 C 377 14 377 29 378 46 C 378 62 380 78 383 93 L 388 128 C 369 76 344 39 313 19 C 282 -1 252 -12 222 -12 Z" unicode="ŭ" />
<glyph horiz-adv-x="664" d="M 429 633 C 406 633 388 640 375 654 C 361 668 355 685 355 705 C 355 729 363 750 379 767 C 395 783 416 792 440 792 C 462 792 480 785 494 771 C 507 757 514 739 514 719 C 514 695 506 674 490 658 C 474 641 453 633 429 633 Z M 430 667 C 444 667 455 671 464 681 C 473 691 478 703 478 717 C 478 729 474 739 466 746 C 458 753 449 757 438 757 C 425 757 414 752 405 742 C 395 732 391 721 391 707 C 391 695 394 685 402 678 C 410 670 419 667 430 667 Z M 348 -12 C 260 -12 196 12 154 60 C 112 108 96 172 107 250 L 165 658 L 221 658 L 163 249 C 154 184 166 133 198 96 C 230 59 281 41 349 41 C 407 41 458 60 500 98 C 542 136 567 186 576 249 L 633 658 L 685 658 L 628 248 C 616 166 584 103 532 57 C 480 11 419 -12 348 -12 Z" unicode="Ů" />
<glyph horiz-adv-x="494" d="M 317 501 C 294 501 276 508 262 523 C 248 537 241 555 241 576 C 241 600 249 621 266 639 C 283 656 304 665 329 665 C 351 665 370 657 384 643 C 398 628 405 610 405 590 C 405 565 396 544 380 527 C 364 509 343 501 317 501 Z M 318 537 C 332 537 343 541 353 551 C 362 561 367 573 367 588 C 367 600 363 610 355 618 C 347 625 338 629 327 629 C 313 629 302 624 293 614 C 283 604 279 592 279 578 C 279 565 282 555 290 548 C 298 540 307 537 318 537 Z M 222 -12 C 176 -12 140 4 114 36 C 88 68 79 111 88 166 L 117 340 C 121 362 123 383 125 403 C 127 423 128 443 128 464 L 182 464 C 182 442 181 422 179 402 C 177 382 174 361 171 339 L 145 176 C 137 130 143 96 161 73 C 179 50 204 39 237 39 C 265 39 297 56 334 90 C 370 124 397 199 414 316 L 434 464 L 489 464 L 439 112 C 436 91 434 71 433 53 C 431 34 431 16 431 0 L 377 0 C 377 14 377 29 378 46 C 378 62 380 78 383 93 L 388 128 C 369 76 344 39 313 19 C 282 -1 252 -12 222 -12 Z" unicode="ů" />
<glyph horiz-adv-x="664" d="M 343 720 L 441 842 L 495 842 L 394 720 L 343 720 Z M 466 720 L 567 842 L 620 842 L 517 720 L 466 720 Z M 348 -12 C 260 -12 196 12 154 60 C 112 108 96 172 107 250 L 165 658 L 221 658 L 163 249 C 154 184 166 133 198 96 C 230 59 281 41 349 41 C 407 41 458 60 500 98 C 542 136 567 186 576 249 L 633 658 L 685 658 L 628 248 C 616 166 584 103 532 57 C 480 11 419 -12 348 -12 Z" unicode="Ű" />
<glyph horiz-adv-x="494" d="M 223 525 L 324 650 L 380 650 L 277 525 L 223 525 Z M 350 525 L 453 650 L 510 650 L 404 525 L 350 525 Z M 222 -12 C 176 -12 140 4 114 36 C 88 68 79 111 88 166 L 117 340 C 121 362 123 383 125 403 C 127 423 128 443 128 464 L 182 464 C 182 442 181 422 179 402 C 177 382 174 361 171 339 L 145 176 C 137 130 143 96 161 73 C 179 50 204 39 237 39 C 265 39 297 56 334 90 C 370 124 397 199 414 316 L 434 464 L 489 464 L 439 112 C 436 91 434 71 433 53 C 431 34 431 16 431 0 L 377 0 C 377 14 377 29 378 46 C 378 62 380 78 383 93 L 388 128 C 369 76 344 39 313 19 C 282 -1 252 -12 222 -12 Z" unicode="ű" />
<glyph horiz-adv-x="664" d="M 460 -220 C 416 -220 382 -208 357 -186 C 332 -164 320 -136 320 -102 C 320 -84 323 -68 329 -53 C 335 -37 344 -24 355 -12 L 344 -12 C 258 -12 194 11 153 59 C 111 106 96 169 107 249 L 165 658 L 221 658 L 163 248 C 154 183 165 132 197 96 C 229 59 278 41 346 41 C 406 41 457 59 499 97 C 541 135 567 185 576 247 L 633 658 L 685 658 L 627 247 C 618 185 597 133 565 92 C 532 50 492 21 446 5 C 422 -3 403 -16 389 -34 C 375 -52 369 -71 369 -93 C 369 -118 378 -138 396 -152 C 414 -166 438 -174 466 -174 L 460 -220 Z" unicode="Ų" />
<glyph horiz-adv-x="494" d="M 222 -12 C 176 -12 140 4 114 36 C 88 68 79 111 88 166 L 117 340 C 121 362 123 383 125 403 C 127 423 128 443 128 464 L 182 464 C 182 442 181 422 179 402 C 177 382 174 361 171 339 L 145 176 C 137 130 143 96 161 73 C 179 50 204 39 237 39 C 265 39 297 56 334 90 C 370 124 397 199 414 316 L 434 464 L 489 464 L 439 112 C 436 92 434 74 433 56 C 431 38 431 22 431 6 L 433 0 C 391 -22 364 -42 350 -58 C 336 -74 329 -92 329 -112 C 329 -130 336 -145 352 -155 C 367 -165 389 -171 419 -171 L 413 -218 C 369 -218 336 -210 313 -194 C 290 -178 279 -155 279 -124 C 279 -100 286 -77 302 -56 C 317 -35 342 -13 377 9 C 377 21 377 35 378 51 C 379 66 381 80 383 93 L 388 128 C 369 76 344 39 313 19 C 282 -1 252 -12 222 -12 Z" unicode="ų" />
<glyph horiz-adv-x="922" d="M 427 720 L 542 843 L 581 843 L 662 720 L 613 720 L 558 801 L 480 720 L 427 720 Z M 223 0 L 108 658 L 166 658 L 259 119 L 264 77 L 281 119 L 525 658 L 584 658 L 677 119 L 682 78 L 698 119 L 940 658 L 998 658 L 699 0 L 641 0 L 549 540 L 543 582 L 526 540 L 282 0 L 223 0 Z" unicode="Ŵ" />
<glyph horiz-adv-x="708" d="M 311 524 L 428 650 L 471 650 L 553 524 L 500 524 L 445 606 L 367 524 L 311 524 Z M 179 0 L 81 464 L 135 464 L 213 108 L 219 64 C 251 122 282 184 312 251 C 342 317 372 388 400 464 L 454 464 L 525 108 L 532 65 C 564 125 594 188 623 256 C 651 323 678 392 702 464 L 754 464 C 726 380 694 299 659 221 C 623 143 586 69 546 0 L 493 0 L 424 346 L 417 386 C 389 314 359 246 328 181 C 296 116 265 56 233 0 L 179 0 Z" unicode="ŵ" />
<glyph horiz-adv-x="565" d="M 250 720 L 365 843 L 404 843 L 485 720 L 436 720 L 381 801 L 303 720 L 250 720 Z M 253 0 L 294 295 L 106 658 L 169 658 L 310 389 L 330 345 L 362 389 L 576 658 L 642 658 L 350 293 L 309 0 L 253 0 Z" unicode="Ŷ" />
<glyph horiz-adv-x="469" d="M 192 524 L 309 650 L 352 650 L 434 524 L 381 524 L 326 606 L 248 524 L 192 524 Z M 276 -14 C 228 -83 176 -134 122 -168 C 68 -201 10 -218 -52 -218 L -60 -218 L -53 -168 L -45 -168 C 3 -168 49 -154 95 -127 C 140 -99 178 -64 209 -22 L 82 464 L 139 464 L 233 108 L 249 26 C 285 86 319 154 350 229 C 380 304 407 382 431 464 L 487 464 C 454 358 420 266 385 187 C 350 108 314 41 276 -14 Z" unicode="ŷ" />
<glyph horiz-adv-x="565" d="M 273 720 L 281 777 L 339 777 L 331 720 L 273 720 Z M 407 720 L 416 777 L 473 777 L 465 720 L 407 720 Z M 253 0 L 294 295 L 106 658 L 169 658 L 310 389 L 330 345 L 362 389 L 576 658 L 642 658 L 350 293 L 309 0 L 253 0 Z" unicode="Ÿ" />
<glyph horiz-adv-x="570" d="M 330 720 L 437 847 L 499 847 L 388 720 L 330 720 Z M 48 0 L 53 31 L 488 568 L 519 606 L 133 606 L 141 658 L 612 658 L 608 629 L 171 90 L 140 52 L 528 52 L 521 0 L 48 0 Z" unicode="Ź" />
<glyph horiz-adv-x="427" d="M 231 524 L 341 655 L 405 655 L 292 524 L 231 524 Z M 42 0 L 47 34 L 336 384 L 362 414 L 105 414 L 112 464 L 446 464 L 441 429 L 153 79 L 127 50 L 392 50 L 385 0 L 42 0 Z" unicode="ź" />
<glyph horiz-adv-x="570" d="M 343 720 L 352 782 L 414 782 L 406 720 L 343 720 Z M 48 0 L 53 31 L 488 568 L 519 606 L 133 606 L 141 658 L 612 658 L 608 629 L 171 90 L 140 52 L 528 52 L 521 0 L 48 0 Z" unicode="Ż" />
<glyph horiz-adv-x="427" d="M 247 536 L 256 602 L 321 602 L 312 536 L 247 536 Z M 42 0 L 47 34 L 336 384 L 362 414 L 105 414 L 112 464 L 446 464 L 441 429 L 153 79 L 127 50 L 392 50 L 385 0 L 42 0 Z" unicode="ż" />
<glyph horiz-adv-x="570" d="M 355 712 L 274 835 L 323 835 L 378 753 L 455 835 L 509 835 L 395 712 L 355 712 Z M 48 0 L 53 31 L 488 568 L 519 606 L 133 606 L 141 658 L 612 658 L 608 629 L 171 90 L 140 52 L 528 52 L 521 0 L 48 0 Z" unicode="Ž" />
<glyph horiz-adv-x="427" d="M 257 524 L 174 650 L 226 650 L 282 568 L 360 650 L 416 650 L 299 524 L 257 524 Z M 42 0 L 47 34 L 336 384 L 362 414 L 105 414 L 112 464 L 446 464 L 441 429 L 153 79 L 127 50 L 392 50 L 385 0 L 42 0 Z" unicode="ž" />
<glyph horiz-adv-x="409" d="M 48 -220 C 32 -220 16 -218 2 -214 C -12 -210 -26 -204 -40 -197 L -32 -141 C -19 -149 -6 -156 7 -160 C 21 -164 36 -167 52 -167 C 80 -167 103 -156 121 -134 C 139 -112 150 -84 155 -48 L 219 414 L 104 414 L 111 464 L 226 464 L 239 560 C 247 618 266 661 296 689 C 325 717 361 732 405 732 C 421 732 436 730 452 726 C 467 722 483 717 499 711 L 491 656 C 476 664 461 671 447 675 C 433 679 418 681 403 681 C 372 681 347 670 329 649 C 310 627 298 598 294 560 L 281 464 L 421 464 L 414 414 L 274 414 L 209 -49 C 201 -106 183 -149 154 -177 C 125 -205 90 -220 48 -220 Z" unicode="ƒ" />
<glyph horiz-adv-x="686" d="M 464 720 L 383 843 L 432 843 L 487 761 L 564 843 L 618 843 L 504 720 L 464 720 Z M 412 -13 C 315 -13 238 15 182 72 C 126 128 98 200 98 287 C 98 401 134 494 208 565 C 282 635 373 671 483 671 C 521 671 557 667 591 659 C 625 651 657 639 688 625 L 681 570 C 650 586 618 599 585 607 C 552 615 517 619 481 619 C 386 619 308 588 247 527 C 186 466 156 387 156 289 C 156 215 180 154 229 108 C 278 62 340 39 414 39 C 444 39 473 41 501 47 C 529 52 555 62 581 77 L 608 268 L 468 268 L 476 320 L 672 320 L 633 40 C 595 20 557 6 518 -1 C 478 -9 443 -13 412 -13 Z" unicode="Ǧ" />
<glyph horiz-adv-x="510" d="M 315 524 L 232 650 L 284 650 L 340 568 L 418 650 L 474 650 L 357 524 L 315 524 Z M 213 -226 C 181 -226 152 -222 124 -216 C 96 -209 69 -199 43 -187 L 51 -131 C 75 -146 100 -157 128 -165 C 156 -173 184 -177 213 -177 C 257 -177 295 -163 328 -136 C 361 -108 382 -60 392 8 L 409 126 C 391 74 366 39 334 19 C 302 0 271 -10 240 -10 C 193 -10 154 7 123 42 C 91 77 76 122 76 177 C 76 259 103 329 159 387 C 215 445 282 474 362 474 C 385 474 409 472 434 468 C 459 464 484 459 510 451 L 447 11 C 435 -73 408 -133 366 -170 C 324 -207 273 -226 213 -226 Z M 250 39 C 281 39 316 56 354 90 C 392 124 420 207 439 338 L 450 413 C 435 417 420 420 405 422 C 390 424 374 425 358 425 C 296 425 242 401 197 353 C 152 305 130 247 130 181 C 130 135 142 99 167 75 C 191 51 219 39 250 39 Z" unicode="ǧ" />
<glyph horiz-adv-x="615" d="M 388 809 L 454 889 L 503 889 L 435 809 L 388 809 Z M 19 0 L 361 642 C 350 648 342 656 336 667 C 330 677 327 689 327 703 C 327 727 335 746 351 762 C 367 777 387 785 411 785 C 431 785 448 778 462 766 C 475 753 482 736 482 716 C 482 698 477 683 469 669 C 460 655 448 646 434 640 L 596 0 L 539 0 L 483 225 L 195 225 L 76 0 L 19 0 Z M 401 667 C 413 667 424 671 433 680 C 441 689 446 700 446 713 C 446 723 442 732 435 740 C 428 747 419 751 408 751 C 395 751 384 746 376 738 C 368 729 364 718 364 705 C 364 694 367 685 374 678 C 380 670 389 667 401 667 Z M 221 275 L 471 275 L 403 547 L 391 599 L 365 547 L 221 275 Z" unicode="Ǻ" />
<glyph horiz-adv-x="510" d="M 339 626 L 407 708 L 458 708 L 388 626 L 339 626 Z M 234 -10 C 187 -10 148 7 117 42 C 85 76 70 121 70 177 C 70 248 91 311 134 365 C 177 419 231 453 295 467 C 289 473 284 481 281 489 C 277 497 276 506 276 516 C 276 540 284 561 301 577 C 317 593 338 602 363 602 C 384 602 401 595 415 581 C 429 567 436 550 436 530 C 436 518 434 507 430 497 C 426 487 420 478 413 471 C 427 469 442 466 457 463 C 472 459 487 455 503 451 L 457 117 C 454 97 452 77 450 58 C 448 39 448 20 448 0 L 393 0 C 393 14 393 30 395 46 C 396 62 398 78 400 93 L 404 128 C 385 78 360 42 328 21 C 296 0 265 -10 234 -10 Z M 352 481 C 365 481 376 485 385 494 C 393 503 398 514 398 528 C 398 539 394 548 387 555 C 379 562 370 566 360 566 C 347 566 336 561 327 552 C 318 542 314 531 314 518 C 314 507 317 498 325 491 C 333 484 342 481 352 481 Z M 244 39 C 275 39 310 56 349 91 C 387 125 415 208 433 338 L 443 413 C 428 417 413 420 398 422 C 383 424 367 425 351 425 C 289 425 235 401 191 353 C 146 305 124 247 124 181 C 124 135 136 99 161 75 C 185 51 213 39 244 39 Z" unicode="ǻ" />
<glyph horiz-adv-x="819" d="M 551 720 L 658 847 L 720 847 L 609 720 L 551 720 Z M 10 0 L 465 658 L 836 658 L 829 606 L 546 606 L 512 359 L 787 359 L 780 307 L 505 307 L 469 52 L 769 52 L 762 0 L 406 0 L 437 225 L 228 225 L 71 0 L 10 0 Z M 262 276 L 444 276 L 491 607 L 458 556 L 262 276 Z" unicode="Ǽ" />
<glyph horiz-adv-x="747" d="M 384 524 L 494 655 L 558 655 L 445 524 L 384 524 Z M 199 -10 C 153 -10 118 2 94 26 C 70 50 59 78 59 110 C 59 154 75 189 107 215 C 139 240 182 254 238 257 L 353 262 L 361 320 C 365 356 358 383 340 400 C 322 417 297 426 266 426 C 238 426 211 422 185 415 C 159 407 134 396 110 381 L 118 435 C 143 447 168 457 194 464 C 220 470 246 474 273 474 C 311 474 341 465 364 449 C 386 432 400 409 405 380 C 425 408 451 431 483 448 C 514 465 549 474 587 474 C 631 474 666 463 692 442 C 718 420 731 392 731 358 C 731 311 711 278 671 259 C 631 240 568 228 481 224 L 403 220 L 402 211 C 401 157 414 114 440 84 C 466 54 503 39 553 39 C 582 39 609 44 635 54 C 661 64 686 79 712 101 L 703 40 C 678 22 653 9 629 1 C 604 -6 577 -10 549 -10 C 501 -10 461 1 431 23 C 400 45 379 76 367 114 C 354 76 332 45 302 23 C 271 1 237 -10 199 -10 Z M 583 428 C 538 428 500 412 468 380 C 436 348 416 310 408 264 L 481 267 C 549 270 598 278 629 290 C 659 302 675 325 675 357 C 675 378 666 395 650 408 C 634 421 611 428 583 428 Z M 207 36 C 241 36 271 47 295 70 C 319 93 333 124 339 163 L 347 219 L 239 213 C 204 211 175 202 151 186 C 127 170 115 146 115 114 C 115 91 123 72 140 58 C 156 43 179 36 207 36 Z" unicode="ǽ" />
<glyph horiz-adv-x="772" d="M 440 730 L 547 857 L 609 857 L 498 730 L 440 730 Z M 152 -48 L 213 43 C 177 69 148 104 128 146 C 108 188 98 236 98 288 C 98 396 131 487 197 561 C 263 635 351 673 462 673 C 490 673 516 670 542 664 C 567 658 590 650 611 640 L 655 706 L 713 706 L 653 615 C 689 588 716 554 736 512 C 756 470 766 423 766 371 C 766 264 732 173 666 99 C 600 24 512 -13 402 -13 C 374 -13 347 -10 322 -5 C 297 0 274 8 254 19 L 210 -48 L 152 -48 Z M 156 290 C 156 248 163 210 178 176 C 193 141 215 112 244 90 L 581 595 C 564 603 546 610 526 615 C 506 619 484 622 462 622 C 371 622 297 590 241 528 C 184 466 156 386 156 290 Z M 403 38 C 493 38 566 69 623 132 C 680 195 709 274 709 370 C 709 410 701 448 686 483 C 671 517 650 546 622 569 L 285 64 C 301 55 319 48 339 44 C 359 40 380 38 403 38 Z" unicode="Ǿ" />
<glyph horiz-adv-x="527" d="M 284 524 L 394 655 L 458 655 L 345 524 L 284 524 Z M 88 -48 L 142 34 C 120 52 103 75 91 103 C 79 131 73 163 73 199 C 73 276 96 341 142 394 C 188 447 244 474 312 474 C 332 474 350 472 368 468 C 386 464 402 458 417 450 L 458 512 L 509 512 L 452 426 C 472 408 488 385 500 358 C 512 330 518 299 518 265 C 518 187 495 122 449 69 C 403 16 346 -10 279 -10 C 260 -10 242 -8 225 -4 C 208 0 192 4 178 12 L 139 -48 L 88 -48 Z M 127 201 C 127 175 130 151 138 131 C 146 111 157 93 172 79 L 388 407 C 377 413 365 417 352 420 C 338 423 324 425 310 425 C 258 425 214 403 179 360 C 144 317 127 264 127 201 Z M 280 39 C 332 39 375 60 410 103 C 445 146 463 199 463 262 C 463 286 459 309 452 329 C 444 349 434 366 422 381 L 207 55 C 217 49 229 45 241 43 C 253 40 266 39 280 39 Z" unicode="ǿ" />
<glyph horiz-adv-x="502" d="M 256 -16 C 220 -16 185 -11 153 -2 C 120 7 90 20 64 38 L 73 101 C 95 80 123 64 155 53 C 187 42 222 37 258 37 C 296 37 331 48 363 72 C 395 96 411 131 411 177 C 411 203 401 227 383 249 C 365 271 334 291 291 309 L 278 314 C 226 335 188 360 166 388 C 144 416 133 448 133 486 C 133 537 150 581 186 618 C 221 655 271 674 336 674 C 368 674 399 669 429 661 C 458 653 484 640 508 624 L 500 560 C 477 581 452 596 425 606 C 397 616 367 621 335 621 C 292 621 257 609 230 585 C 203 561 190 529 190 491 C 190 464 199 440 218 420 C 237 399 268 380 310 363 L 322 358 C 374 336 411 311 434 282 C 457 252 469 219 469 182 C 469 124 448 76 408 39 C 368 2 317 -16 256 -16 Z M 211 -220 L 177 -201 C 192 -182 203 -163 211 -145 C 218 -127 223 -108 226 -89 L 231 -50 L 278 -50 L 273 -89 C 270 -112 264 -134 255 -156 C 245 -178 231 -199 211 -220 Z" unicode="Ș" />
<glyph horiz-adv-x="373" d="M 184 -10 C 163 -10 140 -6 114 0 C 88 6 66 15 48 26 L 56 80 C 72 67 93 57 117 49 C 141 41 164 37 186 37 C 216 37 242 44 262 59 C 282 74 293 95 293 122 C 293 141 286 158 272 172 C 258 186 237 200 207 213 L 193 218 C 159 232 134 248 118 268 C 102 288 94 313 94 344 C 94 381 108 412 136 437 C 164 461 202 474 250 474 C 268 474 290 471 314 465 C 338 459 359 452 377 444 L 369 391 C 354 401 335 410 312 417 C 289 423 268 427 250 427 C 220 427 196 420 177 406 C 157 392 148 372 148 348 C 148 329 153 313 165 301 C 176 288 194 276 220 266 L 234 261 C 273 245 302 226 320 205 C 338 184 347 158 347 128 C 347 88 332 55 303 29 C 273 3 234 -10 184 -10 Z M 133 -230 L 97 -209 C 112 -189 123 -170 131 -152 C 139 -134 144 -114 147 -94 L 152 -54 L 202 -54 L 197 -94 C 193 -118 187 -142 178 -164 C 168 -186 153 -208 133 -230 Z" unicode="ș" />
<glyph horiz-adv-x="542" d="M 243 0 L 328 606 L 105 606 L 112 658 L 614 658 L 607 606 L 384 606 L 299 0 L 243 0 Z M 222 -218 L 188 -199 C 203 -180 214 -161 222 -143 C 229 -125 234 -106 237 -87 L 242 -48 L 289 -48 L 284 -87 C 281 -110 275 -132 266 -154 C 256 -176 242 -197 222 -218 Z" unicode="Ț" />
<glyph horiz-adv-x="292" d="M 189 -9 C 157 -9 134 0 119 19 C 103 38 98 65 103 101 L 147 414 L 75 414 L 82 464 L 155 464 L 176 617 L 231 617 L 209 464 L 329 464 L 322 414 L 201 414 L 158 105 C 155 83 158 66 166 56 C 174 46 186 41 204 41 C 215 41 226 42 238 46 C 249 50 260 55 272 63 L 265 12 C 253 5 241 0 228 -3 C 214 -7 201 -9 189 -9 Z M 134 -232 L 98 -211 C 113 -191 124 -172 132 -154 C 140 -136 145 -116 148 -96 L 153 -56 L 203 -56 L 198 -96 C 194 -120 188 -144 179 -166 C 169 -188 154 -210 134 -232 Z" unicode="ț" />
<glyph horiz-adv-x="191" d="M -55 -212 L -63 -212 L -56 -161 L -48 -161 C -18 -161 5 -151 25 -131 C 45 -111 57 -84 62 -50 L 135 464 L 189 464 L 117 -50 C 109 -100 90 -139 60 -168 C 29 -197 -9 -212 -55 -212 Z" unicode="ȷ" />
<glyph horiz-adv-x="471" d="M 219 -10 C 175 -10 139 0 113 22 C 86 43 73 71 73 106 C 73 152 92 187 132 211 C 171 235 235 249 325 255 L 402 259 C 402 311 389 352 363 381 C 337 410 300 425 252 425 C 221 425 193 420 168 410 C 142 400 117 384 92 363 L 101 424 C 125 442 151 454 177 462 C 203 470 229 474 256 474 C 320 474 369 454 405 415 C 440 376 458 324 458 259 C 458 181 435 117 391 66 C 346 15 289 -10 219 -10 Z M 128 108 C 128 86 136 69 153 57 C 169 44 192 38 221 38 C 267 38 307 55 341 91 C 374 126 393 168 399 216 L 323 212 C 255 207 205 196 174 180 C 143 164 128 140 128 108 Z" unicode="ə" />
<glyph horiz-adv-x="315" d="M 112 524 L 229 650 L 272 650 L 354 524 L 301 524 L 246 606 L 168 524 L 112 524 Z" unicode="ˆ" />
<glyph horiz-adv-x="315" d="M 209 524 L 126 650 L 178 650 L 234 568 L 312 650 L 368 650 L 251 524 L 209 524 Z" unicode="ˇ" />
<glyph horiz-adv-x="359" d="M 256 516 C 220 516 192 528 173 552 C 154 576 146 607 149 643 L 190 643 C 189 616 194 595 205 580 C 216 565 234 558 258 558 C 278 558 295 565 309 580 C 323 595 330 616 332 643 L 373 643 C 369 601 357 569 335 548 C 313 526 286 516 256 516 Z" unicode="˘" />
<glyph horiz-adv-x="147" d="M 117 536 L 126 602 L 191 602 L 182 536 L 117 536 Z" unicode="˙" />
<glyph horiz-adv-x="218" d="M 183 476 C 160 476 142 483 128 498 C 114 512 107 530 107 551 C 107 575 115 596 132 614 C 149 631 170 640 195 640 C 217 640 236 632 250 618 C 264 603 271 585 271 565 C 271 540 262 519 246 502 C 230 484 209 476 183 476 Z M 184 512 C 198 512 209 516 219 526 C 228 536 233 548 233 563 C 233 575 229 585 221 593 C 213 600 204 604 193 604 C 179 604 168 599 159 589 C 149 579 145 567 145 553 C 145 540 148 530 156 523 C 164 515 173 512 184 512 Z" unicode="˚" />
<glyph horiz-adv-x="241" d="M 172 -220 C 131 -220 99 -209 75 -187 C 51 -165 40 -138 40 -106 C 40 -68 54 -36 82 -10 C 110 15 144 28 183 29 L 194 0 C 164 0 139 -9 119 -28 C 98 -46 88 -70 88 -99 C 88 -123 96 -141 113 -154 C 130 -167 152 -174 178 -174 L 172 -220 Z" unicode="˛" />
<glyph horiz-adv-x="326" d="M 134 524 L 94 524 C 100 556 111 579 126 595 C 141 611 161 619 186 619 C 198 619 210 616 222 611 C 234 605 246 597 260 586 C 270 577 279 570 287 566 C 294 562 301 560 308 560 C 320 560 330 564 339 573 C 348 581 355 594 359 611 L 399 611 C 392 579 381 556 366 540 C 350 524 331 516 308 516 C 294 516 281 518 270 524 C 258 529 246 538 234 550 C 224 558 215 565 207 569 C 199 573 192 576 185 576 C 172 576 161 571 153 562 C 144 553 138 540 134 524 Z" unicode="˜" />
<glyph horiz-adv-x="398" d="M 141 524 L 242 649 L 298 649 L 195 524 L 141 524 Z M 268 524 L 371 649 L 428 649 L 322 524 L 268 524 Z" unicode="˝" />
<glyph horiz-adv-x="0" d="M 59 524 L -36 655 L 27 655 L 118 524 L 59 524 Z" unicode="̀" />
<glyph horiz-adv-x="0" d="M 27 524 L 137 655 L 201 655 L 88 524 L 27 524 Z" unicode="́" />
<glyph horiz-adv-x="0" d="M -47 524 L 70 650 L 113 650 L 195 524 L 142 524 L 87 606 L 9 524 L -47 524 Z" unicode="̂" />
<glyph horiz-adv-x="0" d="M -30 524 L -70 524 C -63 556 -52 579 -37 595 C -22 611 -2 619 22 619 C 34 619 46 616 58 611 C 70 605 82 597 96 586 C 106 577 115 570 123 566 C 130 562 137 560 144 560 C 156 560 166 564 175 573 C 184 581 191 594 195 611 L 235 611 C 228 579 217 556 202 540 C 186 524 167 516 144 516 C 130 516 117 518 106 524 C 94 529 82 538 70 550 C 60 558 51 565 43 569 C 35 573 28 576 21 576 C 8 576 -2 571 -11 562 C -19 553 -26 540 -30 524 Z" unicode="̃" />
<glyph horiz-adv-x="0" d="M -29 532 L -23 578 L 187 578 L 181 532 L -29 532 Z" unicode="̄" />
<glyph horiz-adv-x="0" d="M 75 516 C 39 516 11 528 -7 552 C -26 576 -34 607 -32 643 L 9 643 C 8 616 13 595 24 580 C 35 565 53 558 77 558 C 97 558 114 565 128 580 C 142 595 149 616 151 643 L 192 643 C 188 601 176 569 154 548 C 132 526 105 516 75 516 Z" unicode="̆" />
<glyph horiz-adv-x="0" d="M 43 536 L 52 602 L 117 602 L 108 536 L 43 536 Z" unicode="̇" />
<glyph horiz-adv-x="0" d="M -24 537 L -16 597 L 44 597 L 36 537 L -24 537 Z M 114 537 L 123 597 L 183 597 L 174 537 L 114 537 Z" unicode="̈" />
<glyph horiz-adv-x="0" d="M 74 476 C 51 476 33 483 19 498 C 5 512 -2 530 -2 551 C -2 575 6 596 23 614 C 40 631 61 640 86 640 C 108 640 127 632 141 618 C 155 603 162 585 162 565 C 162 540 153 519 137 502 C 121 484 100 476 74 476 Z M 75 512 C 89 512 100 516 110 526 C 119 536 124 548 124 563 C 124 575 120 585 112 593 C 104 600 95 604 84 604 C 70 604 59 599 50 589 C 40 579 36 567 36 553 C 36 540 39 530 47 523 C 55 515 64 512 75 512 Z" unicode="̊" />
<glyph horiz-adv-x="0" d="M -18 524 L 83 649 L 139 649 L 36 524 L -18 524 Z M 109 524 L 212 649 L 269 649 L 163 524 L 109 524 Z" unicode="̋" />
<glyph horiz-adv-x="0" d="M 53 524 L -30 650 L 22 650 L 78 568 L 156 650 L 212 650 L 95 524 L 53 524 Z" unicode="̌" />
<glyph horiz-adv-x="0" d="M 117 693 L 153 672 C 137 652 125 633 118 615 C 110 597 105 577 103 557 L 97 518 L 47 518 L 53 557 C 55 581 61 605 71 627 C 81 649 96 671 117 693 Z" unicode="̒" />
<glyph horiz-adv-x="0" d="M -49 -215 L -85 -195 C -69 -175 -58 -155 -50 -137 C -42 -119 -37 -99 -35 -79 L -30 -40 L 20 -40 L 15 -79 C 11 -103 5 -127 -4 -149 C -13 -171 -28 -193 -49 -215 Z" unicode="̦" />
<glyph horiz-adv-x="0" d="M -21 -197 C -31 -197 -41 -195 -51 -192 C -61 -189 -70 -185 -79 -181 L -73 -142 C -66 -148 -58 -152 -49 -155 C -39 -158 -30 -160 -20 -160 C -6 -160 4 -156 12 -149 C 20 -142 25 -132 25 -120 C 25 -109 21 -100 13 -93 C 5 -86 -4 -83 -16 -83 L -22 -83 L -18 -46 L -12 -46 C 12 -46 31 -52 45 -66 C 59 -79 66 -96 66 -117 C 66 -141 58 -160 42 -175 C 26 -189 5 -197 -21 -197 Z" unicode="̧" />
<glyph horiz-adv-x="0" d="M -23 -220 C -63 -220 -95 -209 -119 -187 C -143 -165 -155 -138 -155 -106 C -155 -68 -140 -36 -112 -10 C -84 15 -50 28 -12 29 L -1 0 C -30 0 -55 -9 -76 -28 C -96 -46 -107 -70 -107 -99 C -107 -123 -98 -141 -81 -154 C -64 -167 -43 -174 -17 -174 L -23 -220 Z" unicode="̨" />
<glyph horiz-adv-x="577" d="M 32 0 L 357 677 L 414 677 L 548 0 L 32 0 Z M 112 52 L 479 52 L 373 599 L 112 52 Z" unicode="Δ" />
<glyph horiz-adv-x="500" d="M 82 -214 L 32 -214 L 123 340 C 127 362 130 383 132 403 C 134 423 135 443 135 464 L 189 464 C 189 442 188 422 186 402 C 184 382 181 361 178 339 L 151 176 C 143 130 149 96 167 73 C 185 50 210 39 243 39 C 271 39 303 56 340 90 C 376 124 403 199 420 316 L 440 464 L 495 464 L 446 112 C 443 91 441 71 439 53 C 437 34 437 16 437 0 L 383 0 C 383 14 383 30 384 48 C 385 65 387 81 389 97 L 395 128 C 376 76 351 39 320 19 C 289 -1 259 -12 229 -12 C 203 -12 181 -6 162 4 C 142 15 128 31 118 51 L 82 -214 Z" unicode="μ" />
<glyph horiz-adv-x="492" d="M 108 0 L 166 414 L 96 414 L 103 464 L 520 464 L 513 414 L 443 414 L 404 137 C 400 111 398 86 396 63 C 394 40 394 19 394 0 L 339 0 C 339 20 339 42 341 64 C 343 86 346 110 350 137 L 388 414 L 220 414 L 162 0 L 108 0 Z" unicode="π" />
<glyph horiz-adv-x="922" d="M 534 720 L 442 847 L 501 847 L 589 720 L 534 720 Z M 223 0 L 108 658 L 166 658 L 259 119 L 264 77 L 281 119 L 525 658 L 584 658 L 677 119 L 682 78 L 698 119 L 940 658 L 998 658 L 699 0 L 641 0 L 549 540 L 543 582 L 526 540 L 282 0 L 223 0 Z" unicode="Ẁ" />
<glyph horiz-adv-x="708" d="M 417 524 L 322 655 L 385 655 L 476 524 L 417 524 Z M 179 0 L 81 464 L 135 464 L 213 108 L 219 64 C 251 122 282 184 312 251 C 342 317 372 388 400 464 L 454 464 L 525 108 L 532 65 C 564 125 594 188 623 256 C 651 323 678 392 702 464 L 754 464 C 726 380 694 299 659 221 C 623 143 586 69 546 0 L 493 0 L 424 346 L 417 386 C 389 314 359 246 328 181 C 296 116 265 56 233 0 L 179 0 Z" unicode="ẁ" />
<glyph horiz-adv-x="922" d="M 502 720 L 609 847 L 671 847 L 560 720 L 502 720 Z M 223 0 L 108 658 L 166 658 L 259 119 L 264 77 L 281 119 L 525 658 L 584 658 L 677 119 L 682 78 L 698 119 L 940 658 L 998 658 L 699 0 L 641 0 L 549 540 L 543 582 L 526 540 L 282 0 L 223 0 Z" unicode="Ẃ" />
<glyph horiz-adv-x="708" d="M 385 524 L 495 655 L 559 655 L 446 524 L 385 524 Z M 179 0 L 81 464 L 135 464 L 213 108 L 219 64 C 251 122 282 184 312 251 C 342 317 372 388 400 464 L 454 464 L 525 108 L 532 65 C 564 125 594 188 623 256 C 651 323 678 392 702 464 L 754 464 C 726 380 694 299 659 221 C 623 143 586 69 546 0 L 493 0 L 424 346 L 417 386 C 389 314 359 246 328 181 C 296 116 265 56 233 0 L 179 0 Z" unicode="ẃ" />
<glyph horiz-adv-x="922" d="M 450 720 L 458 777 L 516 777 L 508 720 L 450 720 Z M 584 720 L 593 777 L 650 777 L 642 720 L 584 720 Z M 223 0 L 108 658 L 166 658 L 259 119 L 264 77 L 281 119 L 525 658 L 584 658 L 677 119 L 682 78 L 698 119 L 940 658 L 998 658 L 699 0 L 641 0 L 549 540 L 543 582 L 526 540 L 282 0 L 223 0 Z" unicode="Ẅ" />
<glyph horiz-adv-x="708" d="M 334 537 L 342 597 L 402 597 L 394 537 L 334 537 Z M 472 537 L 481 597 L 541 597 L 532 537 L 472 537 Z M 179 0 L 81 464 L 135 464 L 213 108 L 219 64 C 251 122 282 184 312 251 C 342 317 372 388 400 464 L 454 464 L 525 108 L 532 65 C 564 125 594 188 623 256 C 651 323 678 392 702 464 L 754 464 C 726 380 694 299 659 221 C 623 143 586 69 546 0 L 493 0 L 424 346 L 417 386 C 389 314 359 246 328 181 C 296 116 265 56 233 0 L 179 0 Z" unicode="ẅ" />
<glyph horiz-adv-x="565" d="M 357 720 L 265 847 L 324 847 L 412 720 L 357 720 Z M 253 0 L 294 295 L 106 658 L 169 658 L 310 389 L 330 345 L 362 389 L 576 658 L 642 658 L 350 293 L 309 0 L 253 0 Z" unicode="Ỳ" />
<glyph horiz-adv-x="469" d="M 298 524 L 203 655 L 266 655 L 357 524 L 298 524 Z M 276 -14 C 228 -83 176 -134 122 -168 C 68 -201 10 -218 -52 -218 L -60 -218 L -53 -168 L -45 -168 C 3 -168 49 -154 95 -127 C 140 -99 178 -64 209 -22 L 82 464 L 139 464 L 233 108 L 249 26 C 285 86 319 154 350 229 C 380 304 407 382 431 464 L 487 464 C 454 358 420 266 385 187 C 350 108 314 41 276 -14 Z" unicode="ỳ" />
<glyph horiz-adv-x="500" d="" unicode=" " />
<glyph horiz-adv-x="1000" d="" unicode=" " />
<glyph horiz-adv-x="650" d="" unicode=" " />
<glyph horiz-adv-x="0" d="" unicode=" " />
<glyph horiz-adv-x="650" d="M 147 262 L 154 311 L 583 311 L 576 262 L 147 262 Z" unicode="‒" />
<glyph horiz-adv-x="500" d="M 66 206 L 73 255 L 502 255 L 495 206 L 66 206 Z" unicode="–" />
<glyph horiz-adv-x="1000" d="M 66 206 L 73 255 L 1002 255 L 995 206 L 66 206 Z" unicode="—" />
<glyph horiz-adv-x="367" d="M 75 206 L 82 255 L 362 255 L 355 206 L 75 206 Z" unicode="―" />
<glyph horiz-adv-x="185" d="M 137 524 L 146 589 C 150 615 157 640 169 665 C 181 689 197 712 218 733 L 256 713 C 240 693 227 673 219 654 C 210 635 204 614 201 591 L 192 524 L 137 524 Z" unicode="‘" />
<glyph horiz-adv-x="173" d="M 146 511 L 111 531 C 127 551 139 570 148 590 C 156 610 162 631 166 655 L 175 722 L 228 722 L 219 657 C 215 630 207 604 195 579 C 183 554 166 531 146 511 Z" unicode="’" />
<glyph horiz-adv-x="173" d="M 55 -135 L 20 -115 C 36 -94 48 -74 57 -54 C 66 -34 72 -13 75 10 L 85 77 L 137 77 L 128 12 C 124 -14 116 -40 104 -66 C 92 -91 75 -114 55 -135 Z" unicode="‚" />
<glyph horiz-adv-x="300" d="M 137 528 L 146 589 C 150 615 157 640 169 665 C 181 689 197 712 218 733 L 256 714 C 240 693 227 673 219 654 C 210 635 204 614 201 591 L 192 528 L 137 528 Z M 252 528 L 260 589 C 264 615 271 640 283 665 C 295 689 311 712 332 733 L 370 714 C 354 693 341 673 333 654 C 324 635 318 614 316 591 L 307 528 L 252 528 Z" unicode="“" />
<glyph horiz-adv-x="283" d="M 146 511 L 111 531 C 127 551 139 570 148 590 C 156 610 162 631 166 655 L 175 722 L 228 722 L 219 657 C 215 630 207 604 195 579 C 183 554 166 531 146 511 Z M 255 511 L 220 531 C 236 551 248 570 257 590 C 266 610 272 631 275 655 L 285 722 L 338 722 L 328 657 C 324 630 316 604 304 579 C 292 554 275 531 255 511 Z" unicode="”" />
<glyph horiz-adv-x="282" d="M 55 -135 L 20 -115 C 36 -94 48 -74 57 -54 C 66 -34 72 -13 75 10 L 85 77 L 137 77 L 128 12 C 124 -14 116 -40 104 -66 C 92 -91 75 -114 55 -135 Z M 163 -135 L 128 -115 C 144 -94 156 -74 165 -54 C 174 -34 180 -13 183 10 L 193 77 L 246 77 L 236 12 C 232 -14 225 -40 213 -66 C 201 -91 184 -114 163 -135 Z" unicode="„" />
<glyph horiz-adv-x="463" d="M 204 0 L 272 471 L 120 469 L 127 519 L 278 517 L 305 722 L 359 722 L 329 517 L 481 519 L 474 469 L 323 471 L 259 0 L 204 0 Z" unicode="†" />
<glyph horiz-adv-x="463" d="M 205 0 L 236 212 L 84 211 L 91 261 L 243 259 L 273 471 L 121 469 L 128 519 L 279 517 L 306 722 L 360 722 L 330 517 L 482 519 L 475 469 L 323 471 L 293 259 L 445 261 L 438 211 L 287 212 L 259 0 L 205 0 Z" unicode="‡" />
<glyph horiz-adv-x="254" d="M 89 183 L 106 311 L 234 311 L 216 183 L 89 183 Z" unicode="•" />
<glyph horiz-adv-x="517" d="M 53 0 L 62 60 L 123 60 L 114 0 L 53 0 Z M 227 0 L 236 60 L 297 60 L 288 0 L 227 0 Z M 402 0 L 411 60 L 472 60 L 463 0 L 402 0 Z" unicode="…" />
<glyph horiz-adv-x="1238" d="M 256 352 C 211 352 176 367 151 397 C 126 427 114 465 114 512 C 114 574 129 626 161 667 C 192 707 235 728 291 728 C 337 728 372 713 397 683 C 421 653 434 616 434 570 C 434 507 418 455 386 414 C 354 372 311 352 256 352 Z M 261 0 L 640 722 L 690 722 L 312 0 L 261 0 Z M 258 397 C 296 397 326 412 349 443 C 372 473 384 515 384 567 C 384 603 375 631 358 652 C 340 672 317 683 289 683 C 251 683 221 668 198 638 C 175 608 164 567 164 515 C 164 478 172 449 189 428 C 206 407 229 397 258 397 Z M 665 -8 C 620 -8 585 7 560 37 C 535 67 523 105 523 152 C 523 214 538 266 570 307 C 601 347 644 368 700 368 C 746 368 781 353 806 323 C 830 293 843 256 843 210 C 843 147 827 95 795 54 C 763 12 720 -8 665 -8 Z M 1047 -8 C 1002 -8 967 7 942 37 C 917 67 905 105 905 152 C 905 214 920 266 952 307 C 983 347 1026 368 1082 368 C 1128 368 1163 353 1188 323 C 1212 293 1225 256 1225 210 C 1225 147 1209 95 1177 54 C 1145 12 1102 -8 1047 -8 Z M 667 37 C 705 37 735 52 758 83 C 781 113 793 155 793 207 C 793 243 784 271 767 292 C 749 312 726 323 698 323 C 660 323 630 308 607 278 C 584 248 573 207 573 155 C 573 118 581 89 598 68 C 615 47 638 37 667 37 Z M 1049 37 C 1087 37 1117 52 1140 83 C 1163 113 1175 155 1175 207 C 1175 243 1166 271 1149 292 C 1131 312 1108 323 1080 323 C 1042 323 1012 308 989 278 C 966 248 955 207 955 155 C 955 118 963 89 980 68 C 997 47 1020 37 1049 37 Z" unicode="‰" />
<glyph horiz-adv-x="176" d="M 138 534 L 164 720 L 215 720 L 189 534 L 138 534 Z" unicode="′" />
<glyph horiz-adv-x="279" d="M 138 534 L 164 720 L 213 720 L 187 534 L 138 534 Z M 242 534 L 269 720 L 318 720 L 292 534 L 242 534 Z" unicode="″" />
<glyph horiz-adv-x="298" d="M 203 69 L 72 226 L 247 384 L 312 384 L 138 226 L 268 69 L 203 69 Z" unicode="‹" />
<glyph horiz-adv-x="298" d="M 44 69 L 218 226 L 88 384 L 153 384 L 284 226 L 109 69 L 44 69 Z" unicode="›" />
<glyph horiz-adv-x="138" d="M -95 0 L 284 722 L 334 722 L -44 0 L -95 0 Z" unicode="⁄" />
<glyph horiz-adv-x="392" d="M 265 432 C 220 432 185 447 160 477 C 135 507 123 545 123 592 C 123 654 138 706 170 747 C 201 787 244 808 300 808 C 346 808 381 793 406 763 C 430 733 443 696 443 650 C 443 587 427 535 395 494 C 363 452 320 432 265 432 Z M 267 477 C 305 477 335 492 358 523 C 381 553 393 595 393 647 C 393 683 384 711 367 732 C 349 752 326 763 298 763 C 260 763 230 748 207 718 C 184 688 173 647 173 595 C 173 558 181 529 198 508 C 215 487 238 477 267 477 Z" unicode="⁰" />
<glyph horiz-adv-x="318" d="M 251 440 L 264 532 L 98 532 L 103 566 L 287 800 L 351 800 L 318 574 L 375 574 L 369 532 L 312 532 L 299 440 L 251 440 Z M 270 574 L 295 750 L 155 574 L 270 574 Z" unicode="⁴" />
<glyph horiz-adv-x="297" d="M 204 432 C 183 432 164 435 146 441 C 128 447 113 456 99 468 L 106 518 C 118 504 133 494 149 486 C 165 478 183 475 202 475 C 228 475 249 482 265 496 C 281 510 289 529 289 551 C 289 571 282 588 269 600 C 255 612 237 619 214 619 C 201 619 188 618 174 616 C 160 614 143 610 125 604 L 165 800 L 354 800 L 348 754 L 198 754 L 178 654 C 186 656 194 657 202 659 C 210 660 218 661 226 661 C 262 661 289 651 309 631 C 329 611 339 586 339 555 C 339 521 327 492 303 468 C 279 444 246 432 204 432 Z" unicode="⁵" />
<glyph horiz-adv-x="335" d="M 242 432 C 204 432 173 444 151 470 C 129 495 118 530 118 574 C 118 641 134 697 168 741 C 201 785 246 808 302 808 C 315 808 329 806 344 804 C 359 801 373 797 385 793 L 378 747 C 367 752 355 756 341 760 C 327 763 313 765 300 765 C 263 765 233 751 210 725 C 186 698 172 661 166 615 C 176 633 190 648 209 660 C 228 672 248 678 270 678 C 304 678 330 668 350 648 C 369 628 379 602 379 569 C 379 529 365 496 337 470 C 309 444 278 432 242 432 Z M 243 474 C 267 474 288 482 305 499 C 322 516 331 538 331 565 C 331 587 324 605 312 619 C 299 632 282 639 261 639 C 238 639 218 631 201 616 C 183 601 172 581 167 556 C 166 534 172 515 184 499 C 196 482 216 474 243 474 Z" unicode="⁶" />
<glyph horiz-adv-x="303" d="M 143 440 L 320 753 L 138 753 L 144 800 L 383 800 L 377 760 L 196 440 L 143 440 Z" unicode="⁷" />
<glyph horiz-adv-x="311" d="M 226 432 C 190 432 161 440 141 457 C 121 473 111 495 111 521 C 111 542 118 561 133 579 C 147 597 168 612 195 625 C 176 635 162 647 152 661 C 142 674 138 690 138 708 C 138 736 149 760 172 779 C 195 798 223 808 256 808 C 288 808 314 800 333 785 C 351 770 361 750 361 724 C 361 705 355 687 343 671 C 331 655 312 641 286 629 C 306 618 321 605 332 589 C 342 573 348 556 348 537 C 348 505 336 479 314 460 C 291 441 262 432 226 432 Z M 240 649 L 247 646 C 269 654 285 665 297 678 C 309 690 315 704 315 719 C 315 733 309 745 298 755 C 287 764 273 769 255 769 C 235 769 219 763 206 752 C 192 740 186 726 186 710 C 186 696 190 684 200 674 C 209 664 222 655 240 649 Z M 158 526 C 158 510 164 496 177 486 C 189 476 206 471 227 471 C 249 471 267 477 280 489 C 293 501 300 516 300 535 C 300 551 294 564 284 575 C 274 586 258 596 238 605 L 234 607 C 211 599 193 587 179 573 C 165 558 158 542 158 526 Z" unicode="⁸" />
<glyph horiz-adv-x="334" d="M 207 432 C 193 432 178 433 163 436 C 148 438 135 442 124 447 L 130 493 C 140 487 153 483 167 480 C 181 476 195 475 208 475 C 244 475 274 488 298 514 C 322 540 336 577 342 623 C 332 604 317 589 299 578 C 280 566 260 561 238 561 C 204 561 177 570 158 590 C 138 610 129 637 129 671 C 129 711 143 743 171 769 C 199 795 231 808 267 808 C 305 808 335 795 357 770 C 379 744 391 710 391 666 C 391 598 374 542 340 498 C 306 454 262 432 207 432 Z M 248 600 C 270 600 290 607 307 622 C 324 637 335 657 341 683 C 341 704 335 723 323 740 C 311 757 291 766 265 766 C 240 766 219 757 202 740 C 185 723 177 701 177 675 C 177 651 183 633 196 620 C 208 606 226 600 248 600 Z" unicode="⁹" />
<glyph horiz-adv-x="380" d="M 109 440 L 147 711 C 149 725 150 741 152 757 C 153 773 154 787 154 800 L 201 800 C 201 788 200 775 199 761 C 198 747 197 736 195 727 L 192 703 C 206 742 226 769 251 785 C 275 801 299 809 322 809 C 360 809 389 796 408 772 C 427 747 433 714 427 672 L 405 539 C 402 521 400 504 398 488 C 396 472 396 456 396 440 L 350 440 C 350 458 350 475 351 491 C 352 507 354 523 357 539 L 378 661 C 383 693 379 718 366 736 C 353 754 333 764 307 764 C 273 764 244 746 221 710 C 198 674 181 617 171 541 L 156 440 L 109 440 Z" unicode="ⁿ" />
<glyph horiz-adv-x="392" d="M 179 -176 C 134 -176 99 -161 74 -131 C 49 -101 37 -62 37 -16 C 37 46 52 98 84 139 C 115 179 158 200 214 200 C 260 200 295 185 320 155 C 344 125 357 88 357 42 C 357 -20 341 -72 309 -114 C 277 -155 234 -176 179 -176 Z M 181 -131 C 219 -131 249 -115 272 -85 C 295 -54 307 -13 307 39 C 307 75 298 103 281 124 C 263 144 240 155 212 155 C 174 155 144 140 121 110 C 98 80 87 39 87 -13 C 87 -49 95 -78 112 -99 C 129 -120 152 -131 181 -131 Z" unicode="₀" />
<glyph horiz-adv-x="283" d="M 20 -170 L 25 -127 L 106 -127 L 145 149 L 52 133 L 59 180 L 203 205 L 156 -127 L 237 -127 L 231 -170 L 20 -170 Z" unicode="₁" />
<glyph horiz-adv-x="310" d="M 9 -170 L 18 -107 C 99 -64 156 -28 188 1 C 220 30 236 58 236 86 C 236 107 229 124 217 136 C 204 148 185 154 161 154 C 143 154 126 151 108 145 C 90 139 72 130 56 120 L 63 171 C 79 179 96 186 114 191 C 132 195 151 198 171 198 C 207 198 235 189 256 171 C 276 153 287 128 287 94 C 287 56 268 20 232 -13 C 195 -47 137 -84 58 -124 L 259 -124 L 253 -170 L 9 -170 Z" unicode="₂" />
<glyph horiz-adv-x="298" d="M 124 -178 C 103 -178 83 -174 65 -168 C 46 -162 29 -153 14 -143 L 21 -92 C 34 -106 49 -116 67 -123 C 85 -130 103 -134 122 -134 C 148 -134 167 -127 181 -115 C 195 -102 202 -86 202 -68 C 202 -49 194 -34 180 -22 C 165 -10 144 -5 117 -5 L 101 -5 L 106 37 L 121 37 C 152 37 176 43 193 57 C 209 70 218 86 218 105 C 218 119 212 131 202 140 C 192 149 178 154 161 154 C 143 154 125 151 109 146 C 93 140 77 132 63 121 L 70 169 C 86 179 102 186 119 191 C 135 195 152 198 169 198 C 203 198 228 190 245 174 C 262 158 271 137 271 112 C 271 90 263 71 248 53 C 233 35 212 23 186 16 C 207 11 223 1 235 -14 C 247 -29 253 -47 253 -67 C 253 -99 241 -125 219 -146 C 197 -167 165 -178 124 -178 Z" unicode="₃" />
<glyph horiz-adv-x="318" d="M 165 -170 L 178 -78 L 12 -78 L 17 -44 L 201 190 L 265 190 L 232 -36 L 289 -36 L 283 -78 L 226 -78 L 213 -170 L 165 -170 Z M 184 -36 L 209 140 L 69 -36 L 184 -36 Z" unicode="₄" />
<glyph horiz-adv-x="297" d="M 119 -178 C 98 -178 79 -175 61 -169 C 43 -163 28 -154 14 -142 L 21 -92 C 33 -105 48 -115 64 -123 C 80 -131 98 -135 117 -135 C 143 -135 164 -127 180 -113 C 196 -99 204 -81 204 -59 C 204 -38 197 -21 184 -9 C 170 2 152 9 129 9 C 116 9 103 8 89 6 C 75 4 58 0 40 -6 L 80 190 L 269 190 L 263 144 L 113 144 L 93 44 C 101 46 109 47 117 49 C 125 50 133 51 141 51 C 177 51 204 41 224 21 C 244 1 254 -23 254 -55 C 254 -89 242 -118 218 -142 C 194 -166 161 -178 119 -178 Z" unicode="₅" />
<glyph horiz-adv-x="335" d="M 156 -178 C 118 -178 87 -165 65 -140 C 43 -114 32 -80 32 -36 C 32 31 48 87 82 131 C 115 175 160 198 216 198 C 229 198 243 196 258 194 C 273 191 287 187 299 183 L 292 137 C 281 142 269 146 255 150 C 241 153 227 155 214 155 C 177 155 147 141 124 115 C 100 88 86 51 80 5 C 90 23 104 38 123 50 C 142 62 162 68 184 68 C 218 68 244 58 264 38 C 283 18 293 -7 293 -41 C 293 -81 279 -113 251 -139 C 223 -165 192 -178 156 -178 Z M 157 -136 C 181 -136 202 -127 219 -110 C 236 -93 245 -71 245 -45 C 245 -22 238 -4 226 9 C 213 22 196 29 175 29 C 152 29 132 21 115 6 C 97 -8 86 -28 81 -54 C 80 -75 86 -94 98 -111 C 110 -127 130 -136 157 -136 Z" unicode="₆" />
<glyph horiz-adv-x="300" d="M 58 -170 L 235 143 L 53 143 L 59 190 L 298 190 L 292 150 L 111 -170 L 58 -170 Z" unicode="₇" />
<glyph horiz-adv-x="310" d="M 140 -178 C 104 -178 75 -169 55 -153 C 35 -136 25 -115 25 -89 C 25 -67 32 -48 47 -30 C 61 -12 82 2 109 15 C 90 25 76 37 66 51 C 56 64 52 80 52 98 C 52 126 63 150 86 169 C 109 188 137 198 170 198 C 202 198 228 190 247 175 C 265 160 275 140 275 114 C 275 95 269 77 257 61 C 245 45 226 31 200 19 C 220 8 235 -4 246 -20 C 256 -36 262 -53 262 -73 C 262 -105 250 -130 228 -149 C 205 -168 176 -178 140 -178 Z M 154 39 L 161 36 C 183 44 199 55 211 68 C 223 80 229 94 229 109 C 229 123 223 135 212 145 C 201 154 187 159 169 159 C 149 159 133 153 120 142 C 106 130 100 116 100 100 C 100 86 104 74 114 64 C 123 54 136 45 154 39 Z M 72 -84 C 72 -100 78 -113 91 -123 C 103 -133 120 -139 141 -139 C 163 -139 181 -133 194 -121 C 207 -109 214 -93 214 -75 C 214 -59 208 -45 198 -34 C 188 -23 172 -13 152 -5 L 148 -3 C 125 -11 107 -22 93 -37 C 79 -51 72 -67 72 -84 Z" unicode="₈" />
<glyph horiz-adv-x="334" d="M 121 -178 C 107 -178 92 -176 77 -174 C 62 -171 49 -167 38 -163 L 44 -117 C 54 -122 67 -126 81 -130 C 95 -133 109 -135 122 -135 C 158 -135 188 -121 212 -95 C 236 -69 250 -33 256 13 C 246 -5 231 -20 213 -32 C 194 -43 174 -49 152 -49 C 118 -49 91 -39 72 -19 C 52 0 43 27 43 61 C 43 101 57 133 85 159 C 113 185 145 198 181 198 C 219 198 249 185 271 160 C 293 134 305 100 305 56 C 305 -11 288 -67 254 -111 C 220 -155 176 -178 121 -178 Z M 162 -10 C 184 -10 204 -2 221 12 C 238 27 249 47 255 73 C 255 94 249 113 237 130 C 225 147 205 156 179 156 C 154 156 133 147 116 130 C 99 113 91 91 91 65 C 91 41 97 23 110 10 C 122 -3 140 -10 162 -10 Z" unicode="₉" />
<glyph horiz-adv-x="731" d="M 64 258 L 70 301 L 146 301 C 146 311 147 322 148 332 C 149 342 150 351 152 361 L 79 361 L 85 404 L 162 404 C 185 483 230 547 298 597 C 365 646 444 671 536 671 C 574 671 611 666 647 657 C 683 648 719 634 754 616 L 746 559 C 714 578 680 593 644 603 C 608 613 571 619 533 619 C 459 619 394 599 338 559 C 282 519 244 468 222 404 L 380 404 L 374 361 L 211 361 C 209 351 207 342 206 332 C 205 322 204 311 204 301 L 366 301 L 360 258 L 206 258 C 213 192 241 139 289 99 C 337 59 398 39 472 39 C 510 39 547 44 583 54 C 619 64 654 80 690 100 L 681 41 C 645 22 610 8 575 0 C 539 -8 504 -13 468 -13 C 374 -13 299 12 242 64 C 185 115 153 180 147 258 L 64 258 Z" unicode="€" />
<glyph horiz-adv-x="515" d="M 76 0 L 168 658 L 258 658 L 276 786 L 320 786 L 302 658 L 327 658 C 332 658 337 658 343 658 C 349 658 354 657 359 657 L 377 786 L 421 786 L 403 649 C 439 638 465 620 483 595 C 501 569 510 540 510 506 C 510 467 498 431 476 398 C 453 364 415 343 361 335 C 410 328 445 311 465 283 C 485 255 495 225 495 192 C 495 142 479 101 448 67 C 417 33 372 11 312 3 L 294 -124 L 250 -124 L 267 0 C 265 0 264 0 262 0 C 260 0 259 0 258 0 L 210 0 L 193 -124 L 149 -124 L 166 0 L 76 0 Z M 183 359 L 284 359 C 336 359 378 370 408 394 C 438 418 453 452 453 497 C 453 532 441 559 419 579 C 396 598 364 608 322 608 L 218 608 L 183 359 Z M 140 50 L 264 50 C 318 50 361 62 391 88 C 421 113 437 147 437 191 C 437 228 424 257 399 278 C 374 299 337 310 287 310 L 175 310 L 140 50 Z" unicode="₿" />
<glyph horiz-adv-x="643" d="M 360 120 C 286 120 225 144 176 194 C 127 244 103 305 103 379 C 103 462 130 534 184 595 C 238 656 309 687 396 687 C 469 687 530 662 580 613 C 629 563 654 502 654 429 C 654 345 626 273 572 212 C 518 150 447 120 360 120 Z M 361 157 C 429 157 488 182 539 233 C 590 283 616 348 616 428 C 616 492 594 545 552 587 C 509 629 457 650 396 650 C 327 650 267 624 217 574 C 166 524 141 459 141 379 C 141 315 162 262 205 220 C 247 178 299 157 361 157 Z M 278 232 L 326 579 L 407 579 C 440 579 467 571 487 555 C 507 539 518 517 518 490 C 518 450 504 418 478 396 C 452 373 418 362 376 362 L 337 362 L 319 232 L 278 232 Z M 342 398 L 381 398 C 413 398 436 406 452 422 C 468 438 476 458 476 482 C 476 498 469 512 457 524 C 444 536 425 542 401 542 L 362 542 L 342 398 Z" unicode="℗" />
<glyph horiz-adv-x="557" d="M 167 460 L 198 684 L 118 684 L 123 722 L 327 722 L 321 684 L 241 684 L 209 460 L 167 460 Z M 318 460 L 355 722 L 420 722 L 469 568 L 560 722 L 626 722 L 589 460 L 547 460 L 578 680 L 474 509 L 444 509 L 387 684 L 356 460 L 318 460 Z" unicode="™" />
<glyph horiz-adv-x="515" d="M 267 -12 C 209 -12 162 5 125 41 C 88 77 70 127 70 190 C 70 258 91 316 135 362 C 178 408 231 431 295 431 C 335 431 370 421 400 401 C 430 381 450 354 461 322 C 463 416 440 490 392 542 C 343 594 267 621 165 621 L 173 675 C 307 675 397 639 445 567 C 493 495 517 419 517 340 C 517 233 493 148 447 84 C 401 20 341 -11 267 -12 Z M 270 38 C 316 38 356 56 390 94 C 423 131 443 181 451 243 C 450 281 435 314 407 340 C 379 366 344 380 302 380 C 252 380 210 362 177 326 C 144 290 128 246 128 192 C 128 148 141 111 167 82 C 193 52 227 38 270 38 Z" unicode="∂" />
<glyph horiz-adv-x="483" d="M 63 0 L 156 658 L 512 658 L 420 0 L 364 0 L 451 607 L 204 607 L 119 0 L 63 0 Z" unicode="∏" />
<glyph horiz-adv-x="477" d="M 41 0 L 48 49 L 336 338 L 128 612 L 134 658 L 528 658 L 521 607 L 204 607 L 405 339 L 126 56 L 445 56 L 437 0 L 41 0 Z" unicode="∑" />
<glyph horiz-adv-x="526" d="M 84 265 L 91 313 L 520 313 L 513 265 L 84 265 Z" unicode="−" />
<glyph horiz-adv-x="549" d="M 201 -8 L 81 483 L 137 483 L 240 60 L 585 723 L 638 723 L 256 -8 L 201 -8 Z" unicode="√" />
<glyph horiz-adv-x="806" d="M 216 47 C 173 47 139 61 113 90 C 87 118 74 158 74 208 C 74 264 91 311 127 348 C 163 385 207 404 261 404 C 301 404 336 393 365 372 C 393 350 419 318 442 274 C 476 316 510 348 543 370 C 575 391 609 402 645 402 C 689 402 724 388 752 360 C 779 332 793 293 793 245 C 793 188 775 141 741 103 C 706 65 662 47 610 47 C 568 47 533 57 505 79 C 477 101 450 135 426 183 C 390 137 355 102 321 80 C 287 58 252 47 216 47 Z M 127 211 C 127 177 135 149 153 128 C 171 107 195 97 226 97 C 254 97 282 107 311 127 C 339 147 371 180 405 228 L 404 229 C 381 275 358 307 334 326 C 310 344 284 354 256 354 C 219 354 188 340 164 313 C 139 285 127 251 127 211 Z M 464 228 C 488 178 512 144 534 125 C 556 106 583 97 615 97 C 651 97 680 110 704 138 C 728 166 740 200 740 241 C 740 275 730 302 712 322 C 694 342 669 353 637 353 C 610 353 583 343 556 324 C 529 305 498 273 463 229 L 464 228 Z" unicode="∞" />
<glyph horiz-adv-x="473" d="M 46 -226 C 30 -226 15 -224 1 -220 C -12 -216 -26 -211 -39 -203 L -32 -150 C -20 -158 -7 -164 5 -168 C 18 -172 32 -175 48 -175 C 77 -175 100 -164 118 -142 C 136 -120 147 -91 152 -55 L 233 560 C 240 618 259 661 289 689 C 319 717 357 732 401 732 C 417 732 432 730 448 726 C 463 722 478 717 493 711 L 485 656 C 471 664 458 671 444 675 C 430 679 416 681 402 681 C 369 681 343 670 324 649 C 304 627 292 598 287 560 L 206 -56 C 199 -113 181 -156 152 -184 C 123 -212 88 -226 46 -226 Z" unicode="∫" />
<glyph horiz-adv-x="376" d="M 110 294 L 101 335 C 111 348 123 358 139 366 C 154 373 168 377 182 377 C 192 377 203 374 213 370 C 223 366 233 361 243 357 C 252 351 261 346 270 342 C 278 338 289 336 301 336 C 312 336 323 339 334 345 C 344 351 354 359 363 369 L 372 328 C 362 314 349 304 335 297 C 320 289 306 286 293 286 C 282 286 271 288 261 293 C 251 297 241 302 232 307 C 223 311 214 316 206 320 C 197 324 186 327 174 327 C 162 327 151 324 141 318 C 130 312 120 304 110 294 Z M 88 139 L 79 180 C 88 193 100 203 116 211 C 131 218 145 222 159 222 C 170 222 181 219 191 215 C 201 211 211 206 221 201 C 230 196 239 191 248 187 C 257 183 267 181 279 181 C 290 181 301 184 312 190 C 322 196 332 204 341 214 L 350 173 C 340 159 328 149 314 142 C 299 134 285 131 271 131 C 260 131 249 133 239 138 C 229 142 219 147 210 152 C 201 156 192 161 183 165 C 174 169 164 172 152 172 C 140 172 129 169 119 163 C 108 157 98 149 88 139 Z" unicode="≈" />
<glyph horiz-adv-x="534" d="M 108 66 L 200 189 L 81 189 L 87 237 L 236 237 L 308 334 L 101 334 L 108 382 L 344 382 L 436 505 L 491 505 L 399 382 L 537 382 L 530 334 L 363 334 L 291 237 L 516 237 L 509 189 L 255 189 L 163 66 L 108 66 Z" unicode="≠" />
<glyph horiz-adv-x="436" d="M 310 80 L 100 282 L 367 484 L 445 484 L 175 281 L 384 80 L 310 80 Z M 61 -48 L 68 0 L 364 0 L 358 -48 L 61 -48 Z" unicode="≤" />
<glyph horiz-adv-x="436" d="M 71 80 L 341 283 L 132 484 L 206 484 L 416 282 L 149 80 L 71 80 Z M 62 -48 L 69 0 L 368 0 L 361 -48 L 62 -48 Z" unicode="≥" />
<glyph horiz-adv-x="608" d="M 302 -18 L 92 327 L 400 673 L 610 327 L 302 -18 Z M 310 62 L 548 330 L 390 592 L 153 324 L 310 62 Z" unicode="◊" />
<glyph horiz-adv-x="553" d="M 204 -8 L 84 483 L 141 483 L 243 60 L 588 727 L 641 727 L 259 -8 L 204 -8 Z" unicode="✓" />
<glyph horiz-adv-x="697" d="M 60 0 L 67 54 L 279 54 L 285 94 C 231 108 186 138 148 184 C 110 230 92 286 92 354 C 92 447 124 523 189 583 C 254 642 331 672 420 672 C 504 672 573 646 627 596 C 681 545 709 476 709 390 C 709 314 683 248 631 193 C 579 137 515 103 439 91 L 434 54 L 644 54 L 637 0 L 382 0 L 400 132 C 478 140 540 169 585 218 C 629 267 652 324 652 388 C 652 453 631 508 590 553 C 549 597 492 620 419 620 C 339 620 274 593 224 539 C 174 485 149 424 149 355 C 149 299 166 250 200 209 C 234 167 278 142 334 133 L 316 0 L 60 0 Z" unicode="Ꞷ" />
<glyph horiz-adv-x="148" d="M 23 -215 L -13 -195 C 2 -175 13 -155 21 -137 C 29 -119 34 -99 37 -79 L 42 -40 L 92 -40 L 87 -79 C 83 -103 77 -127 68 -149 C 58 -171 43 -193 23 -215 Z" unicode="" />
<glyph horiz-adv-x="690" d="M 13 0 L 105 658 L 768 658 L 676 0 L 13 0 Z M 224 77 L 270 77 L 336 541 L 431 541 L 365 77 L 411 77 L 444 309 L 481 309 C 535 309 579 323 612 352 C 644 380 661 418 661 465 C 661 497 648 525 623 548 C 598 570 562 582 514 582 L 190 582 L 184 541 L 289 541 L 224 77 Z" unicode="" />
<glyph horiz-adv-x="449" d="M 93 0 L 151 415 L 75 415 L 82 464 L 158 464 L 172 568 C 178 616 197 656 228 686 C 259 716 297 732 343 732 C 359 732 376 730 396 726 C 415 722 432 716 447 708 L 439 654 C 424 662 408 669 391 674 C 374 678 358 681 344 681 C 312 681 285 670 264 649 C 243 628 230 601 226 567 L 212 464 L 300 464 L 293 415 L 205 415 L 147 0 L 93 0 Z M 325 0 C 325 18 326 39 328 61 C 330 83 332 104 335 126 L 383 464 L 437 464 L 390 126 C 387 105 384 83 382 61 C 380 39 379 18 379 0 L 325 0 Z" unicode="ﬁ" />
<glyph horiz-adv-x="449" d="M 93 0 L 151 415 L 75 415 L 82 464 L 158 464 L 172 568 C 178 616 197 656 228 686 C 259 716 297 732 343 732 C 354 732 366 731 380 729 C 393 727 406 724 419 720 L 419 722 L 474 722 L 390 127 C 387 106 385 85 383 64 C 381 42 381 21 381 0 L 327 0 C 326 21 327 44 329 68 C 331 92 333 113 336 133 L 411 668 C 400 672 389 676 377 678 C 365 680 354 681 344 681 C 312 681 285 670 264 649 C 243 628 230 601 226 567 L 212 464 L 300 464 L 293 415 L 205 415 L 147 0 L 93 0 Z" unicode="ﬂ" />
</font>
</defs>
</svg>
