<?xml version="1.0" encoding="utf-8" ?><svg version="1.1" xmlns = 'http://www.w3.org/2000/svg'><defs><font id='web' horiz-adv-x="1000">
<font-face font-family="web" descent="-252" cap-height="658" units-per-em="1000" bbox="-124,-320,1102,1003" x-height="462" ascent="748" />
<missing-glyph horiz-adv-x="500" d="M 50 -252 L 450 -252 L 450 748 L 50 748 L 50 -252 Z M 100 -202 L 100 698 L 400 698 L 400 -202 L 100 -202 Z" /><glyph horiz-adv-x="200" d="" unicode=" " />
<glyph horiz-adv-x="184" d="M 92 165 L 100 165 L 100 716 L 92 716 L 92 165 Z M 80 0 L 104 0 L 104 24 L 80 24 L 80 0 Z" unicode="!" />
<glyph horiz-adv-x="208" d="M 64 560 L 72 560 L 72 724 L 64 724 L 64 560 Z M 136 560 L 144 560 L 144 724 L 136 724 L 136 560 Z" unicode="&#x22;" />
<glyph horiz-adv-x="496" d="M 141 -31 L 148 -31 L 169 147 L 315 147 L 294 -31 L 301 -31 L 322 147 L 449 147 L 449 154 L 323 154 L 343 320 L 464 320 L 464 327 L 344 327 L 365 504 L 358 504 L 337 327 L 191 327 L 212 504 L 205 504 L 184 327 L 48 327 L 48 320 L 183 320 L 163 154 L 32 154 L 32 147 L 162 147 L 141 -31 Z M 170 154 L 190 320 L 336 320 L 316 154 L 170 154 Z" unicode="#" />
<glyph horiz-adv-x="488" d="M 248 -9 L 254 -9 L 254 -90 L 261 -90 L 261 -9 C 310 -6 350 10 381 42 C 412 74 428 114 428 162 C 428 206 415 242 390 270 C 364 298 321 323 261 345 L 261 660 C 285 660 311 656 338 648 C 365 640 392 627 419 611 L 419 619 C 393 634 367 646 341 654 C 314 662 287 666 261 667 L 261 748 L 254 748 L 254 667 C 202 667 161 653 129 625 C 97 597 82 560 82 514 C 82 472 93 438 117 413 C 141 387 181 364 239 344 L 254 339 L 254 -2 C 253 -2 252 -2 251 -2 C 249 -2 248 -2 248 -2 C 214 -2 181 3 149 15 C 117 26 88 41 64 60 L 64 51 C 87 33 115 18 148 7 C 181 -3 214 -9 248 -9 Z M 241 352 C 187 370 148 392 125 417 C 101 441 90 474 90 514 C 90 557 105 592 135 619 C 165 645 204 659 254 660 L 254 347 L 241 352 Z M 420 162 C 420 116 405 77 376 47 C 346 17 308 0 261 -2 L 261 336 C 317 316 357 292 382 266 C 407 240 420 205 420 162 Z" unicode="$" />
<glyph horiz-adv-x="786" d="M 192 352 C 236 352 270 369 295 404 C 319 438 332 484 332 540 C 332 596 319 641 295 676 C 270 710 236 728 192 728 C 148 728 113 710 89 676 C 64 641 52 596 52 540 C 52 484 64 438 89 404 C 113 369 148 352 192 352 Z M 263 0 L 271 0 L 527 724 L 519 724 L 263 0 Z M 192 359 C 150 359 117 375 94 409 C 71 442 60 486 60 540 C 60 594 71 637 94 671 C 117 704 150 721 192 721 C 234 721 266 704 289 671 C 312 637 324 594 324 540 C 324 486 312 442 289 409 C 266 375 234 359 192 359 Z M 598 -8 C 642 -8 676 9 701 44 C 725 78 738 124 738 180 C 738 236 725 281 701 316 C 676 350 642 368 598 368 C 554 368 519 350 495 316 C 470 281 458 236 458 180 C 458 124 470 78 495 44 C 519 9 554 -8 598 -8 Z M 598 -1 C 556 -1 523 15 500 49 C 477 82 466 126 466 180 C 466 234 477 277 500 311 C 523 344 556 361 598 361 C 640 361 672 344 695 311 C 718 277 730 234 730 180 C 730 126 718 82 695 49 C 672 15 640 -1 598 -1 Z" unicode="%" />
<glyph horiz-adv-x="563" d="M 241 -8 C 275 -8 309 0 344 16 C 378 32 406 54 427 82 L 500 0 L 511 0 L 432 88 C 452 115 467 148 476 188 C 485 228 490 280 490 345 L 483 345 C 483 282 478 231 470 192 C 461 153 447 120 428 94 L 169 384 C 151 404 137 424 127 444 C 117 464 112 487 112 512 C 112 552 126 587 154 616 C 182 644 220 659 266 659 C 295 659 323 651 351 637 C 379 622 403 603 424 580 L 424 590 C 402 614 378 633 350 646 C 322 659 294 666 266 666 C 217 666 178 650 148 620 C 118 590 104 554 104 512 C 104 488 109 465 119 443 C 129 421 143 400 163 379 L 170 372 C 129 354 96 328 70 295 C 44 261 32 223 32 181 C 32 125 51 79 90 44 C 128 9 179 -8 241 -8 Z M 40 181 C 40 219 51 254 74 287 C 97 320 131 346 175 366 L 423 87 C 403 60 376 39 342 23 C 308 7 275 -1 241 -1 C 181 -1 132 15 95 49 C 58 83 40 127 40 181 Z" unicode="&#x26;" />
<glyph horiz-adv-x="136" d="M 64 560 L 72 560 L 72 724 L 64 724 L 64 560 Z" unicode="'" />
<glyph horiz-adv-x="330" d="M 249 -220 L 258 -220 C 202 -150 159 -75 131 4 C 102 84 88 166 88 252 C 88 336 102 419 131 499 C 159 579 202 654 258 724 L 249 724 C 193 654 150 579 122 499 C 94 419 80 337 80 252 C 80 167 94 85 122 5 C 150 -75 193 -150 249 -220 Z" unicode="(" />
<glyph horiz-adv-x="331" d="M 72 -220 L 81 -220 C 137 -150 179 -75 208 5 C 236 85 251 167 251 252 C 251 337 236 419 208 499 C 179 579 137 654 81 724 L 72 724 C 128 654 170 579 199 499 C 228 419 243 336 243 252 C 243 166 228 84 199 4 C 170 -75 128 -150 72 -220 Z" unicode=")" />
<glyph horiz-adv-x="544" d="M 140 83 L 272 267 L 404 80 L 411 84 L 278 270 L 492 341 L 490 349 L 275 276 L 276 508 L 268 508 L 269 276 L 54 347 L 52 339 L 266 270 L 133 88 L 140 83 Z" unicode="*" />
<glyph horiz-adv-x="532" d="M 262 66 L 270 66 L 270 284 L 480 284 L 480 291 L 270 291 L 270 508 L 262 508 L 262 291 L 52 291 L 52 284 L 262 284 L 262 66 Z" unicode="+" />
<glyph horiz-adv-x="138" d="M 74 61 L 66 61 L 66 5 C 66 -17 63 -37 58 -55 C 53 -72 44 -90 32 -109 L 38 -113 C 54 -92 64 -72 68 -53 C 72 -34 74 -15 74 5 L 74 61 Z" unicode="," />
<glyph horiz-adv-x="368" d="M 52 209 L 316 209 L 316 216 L 52 216 L 52 209 Z" unicode="-" />
<glyph horiz-adv-x="146" d="M 58 0 L 80 0 L 80 22 L 58 22 L 58 0 Z" unicode="." />
<glyph horiz-adv-x="327" d="M 16 0 L 24 0 L 311 724 L 303 724 L 16 0 Z" unicode="/" />
<glyph horiz-adv-x="542" d="M 271 -8 C 342 -8 396 22 433 84 C 469 146 488 227 488 327 C 488 427 469 509 433 572 C 396 634 342 666 271 666 C 199 666 145 634 109 572 C 72 509 54 427 54 327 C 54 227 72 146 109 84 C 145 22 199 -8 271 -8 Z M 271 -1 C 209 -1 158 26 120 82 C 81 138 62 219 62 327 C 62 435 81 518 120 574 C 158 630 209 659 271 659 C 333 659 383 630 422 574 C 460 518 480 435 480 327 C 480 219 460 138 422 82 C 383 26 333 -1 271 -1 Z" unicode="0" />
<glyph horiz-adv-x="345" d="M 189 0 L 197 0 L 197 673 L 48 641 L 48 634 L 189 664 L 189 0 Z" unicode="1" />
<glyph horiz-adv-x="490" d="M 54 0 L 436 0 L 436 8 L 65 8 L 197 134 C 285 218 345 284 377 332 C 409 380 425 427 425 475 C 425 533 407 579 373 614 C 339 648 295 666 241 666 C 210 666 179 660 147 649 C 115 638 87 624 65 608 L 65 599 C 89 617 117 631 149 642 C 180 653 211 659 241 659 C 293 659 335 642 368 609 C 400 575 417 531 417 475 C 417 429 401 382 370 335 C 338 288 279 223 192 140 L 54 8 L 54 0 Z" unicode="2" />
<glyph horiz-adv-x="493" d="M 248 -8 C 304 -8 349 7 384 39 C 419 71 437 113 437 165 C 437 212 421 251 389 283 C 357 314 315 333 262 340 C 313 346 354 364 385 394 C 415 424 431 461 431 506 C 431 554 415 592 384 622 C 352 651 311 666 261 666 C 230 666 199 660 169 649 C 138 638 112 624 92 608 L 92 599 C 114 617 141 632 171 643 C 201 653 231 659 261 659 C 309 659 348 645 378 617 C 408 589 423 552 423 506 C 423 457 404 418 367 388 C 329 358 281 343 221 343 L 195 343 L 195 336 L 221 336 C 283 336 333 320 371 288 C 409 256 429 215 429 165 C 429 115 412 74 379 44 C 345 14 302 -1 248 -1 C 215 -1 181 5 147 18 C 112 30 82 47 58 69 L 58 60 C 82 39 111 22 146 10 C 180 -1 214 -8 248 -8 Z" unicode="3" />
<glyph horiz-adv-x="526" d="M 363 0 L 371 0 L 371 200 L 474 200 L 474 207 L 371 207 L 371 674 L 364 674 L 44 207 L 44 200 L 363 200 L 363 0 Z M 363 207 L 52 207 L 363 660 L 363 207 Z" unicode="4" />
<glyph horiz-adv-x="493" d="M 236 -8 C 296 -8 344 10 381 46 C 418 82 437 129 437 187 C 437 244 417 290 377 326 C 337 361 284 379 219 379 C 197 379 176 378 158 376 C 139 374 120 372 101 370 L 125 650 L 421 650 L 421 658 L 118 658 L 93 361 C 115 364 136 367 156 369 C 175 371 196 372 219 372 C 281 372 332 355 371 321 C 409 287 429 242 429 187 C 429 131 411 85 376 51 C 340 16 294 -1 236 -1 C 200 -1 167 6 136 21 C 104 35 78 54 56 78 L 56 67 C 78 45 104 27 135 13 C 166 -1 200 -8 236 -8 Z" unicode="5" />
<glyph horiz-adv-x="519" d="M 268 -8 C 324 -8 370 11 406 51 C 441 91 459 143 459 207 C 459 269 441 319 405 357 C 369 395 322 414 264 414 C 218 414 176 403 140 381 C 103 359 79 331 69 299 C 73 417 95 507 137 568 C 178 628 237 659 314 659 C 334 659 355 656 377 650 C 399 644 419 637 438 629 L 438 636 C 420 644 400 651 378 657 C 356 663 334 666 314 666 C 230 666 167 631 124 563 C 81 494 60 393 60 261 C 60 179 78 113 114 65 C 150 16 202 -8 268 -8 Z M 268 -1 C 205 -1 156 22 121 69 C 85 115 68 179 68 261 C 68 300 87 334 126 363 C 165 392 211 407 264 407 C 320 407 365 388 399 352 C 433 315 451 267 451 207 C 451 145 434 94 400 56 C 366 18 322 -1 268 -1 Z" unicode="6" />
<glyph horiz-adv-x="492" d="M 176 0 L 184 0 L 436 650 L 436 658 L 56 658 L 56 650 L 428 650 L 176 0 Z" unicode="7" />
<glyph horiz-adv-x="500" d="M 249 -8 C 306 -8 352 7 387 37 C 422 67 440 108 440 158 C 440 199 425 235 396 266 C 366 297 323 321 266 339 L 263 340 C 317 360 358 385 386 414 C 414 443 429 476 429 512 C 429 558 412 595 380 623 C 347 651 304 666 251 666 C 197 666 153 651 120 622 C 87 593 71 555 71 509 C 71 469 84 435 111 407 C 138 379 178 357 231 341 L 238 339 C 180 316 135 289 105 258 C 75 226 60 191 60 152 C 60 104 77 65 112 36 C 147 6 193 -8 249 -8 Z M 234 349 C 182 364 144 385 118 412 C 92 439 79 471 79 509 C 79 553 94 589 126 617 C 157 645 199 659 251 659 C 301 659 342 645 374 618 C 405 591 421 556 421 512 C 421 477 407 446 379 418 C 351 390 310 365 256 345 L 252 343 L 234 349 Z M 68 152 C 68 190 83 224 113 255 C 143 285 187 312 245 334 L 249 335 L 264 331 C 319 314 361 291 389 261 C 417 231 432 197 432 158 C 432 110 415 71 381 42 C 347 13 303 -1 249 -1 C 195 -1 151 13 118 41 C 84 69 68 106 68 152 Z" unicode="8" />
<glyph horiz-adv-x="519" d="M 205 -8 C 288 -8 351 26 394 95 C 437 163 459 264 459 397 C 459 479 440 544 404 593 C 368 641 317 666 251 666 C 194 666 148 646 113 606 C 77 566 60 515 60 451 C 60 389 78 339 114 301 C 150 263 197 244 255 244 C 301 244 342 255 379 277 C 415 299 439 326 450 359 C 446 240 423 150 382 90 C 340 29 281 -1 205 -1 C 184 -1 163 1 141 7 C 119 13 99 20 81 29 L 81 22 C 98 13 118 6 140 0 C 162 -5 184 -8 205 -8 Z M 255 251 C 199 251 153 269 119 306 C 85 342 68 391 68 451 C 68 513 85 563 119 601 C 153 639 197 659 251 659 C 313 659 362 635 398 589 C 433 542 451 478 451 397 C 451 357 431 323 392 294 C 353 265 307 251 255 251 Z" unicode="9" />
<glyph horiz-adv-x="138" d="M 58 316 L 80 316 L 80 338 L 58 338 L 58 316 Z M 58 0 L 80 0 L 80 22 L 58 22 L 58 0 Z" unicode=":" />
<glyph horiz-adv-x="136" d="M 60 316 L 82 316 L 82 338 L 60 338 L 60 316 Z M 70 61 L 62 61 L 62 5 C 62 -17 59 -37 54 -55 C 49 -72 40 -90 28 -109 L 34 -113 C 50 -92 60 -72 64 -53 C 68 -34 70 -15 70 5 L 70 61 Z" unicode=";" />
<glyph horiz-adv-x="399" d="M 316 79 L 327 79 L 83 277 L 327 475 L 316 475 L 72 277 L 316 79 Z" unicode="&#x3C;" />
<glyph horiz-adv-x="556" d="M 64 343 L 492 343 L 492 350 L 64 350 L 64 343 Z M 64 215 L 492 215 L 492 222 L 64 222 L 64 215 Z" unicode="=" />
<glyph horiz-adv-x="399" d="M 72 79 L 83 79 L 327 277 L 83 475 L 72 475 L 316 277 L 72 79 Z" unicode="&#x3E;" />
<glyph horiz-adv-x="428" d="M 197 165 L 205 165 C 205 209 211 246 224 276 C 237 306 261 341 297 382 C 327 417 349 448 363 476 C 377 504 384 534 384 567 C 384 611 367 649 334 682 C 301 715 257 732 202 732 C 173 732 144 726 115 716 C 86 705 62 691 44 673 L 44 663 C 62 681 86 696 115 708 C 144 719 173 725 202 725 C 255 725 297 709 329 677 C 360 645 376 609 376 567 C 376 536 369 507 355 479 C 341 451 320 421 291 387 C 255 345 230 308 217 277 C 203 246 197 209 197 165 Z M 190 0 L 212 0 L 212 22 L 190 22 L 190 0 Z" unicode="?" />
<glyph horiz-adv-x="823" d="M 401 -62 C 433 -62 464 -58 494 -51 C 524 -44 552 -34 579 -21 L 579 -13 C 553 -27 525 -37 495 -44 C 465 -51 433 -55 401 -55 C 302 -55 222 -22 162 42 C 101 107 71 187 71 282 C 71 371 102 450 166 519 C 230 588 312 623 412 623 C 507 623 587 593 653 534 C 719 474 752 400 752 312 C 752 254 738 208 712 173 C 686 138 655 121 619 121 C 583 121 557 136 540 168 C 522 200 517 237 523 279 L 547 461 C 534 463 519 465 503 467 C 487 469 472 470 460 470 C 400 470 347 450 302 411 C 257 372 235 321 235 257 C 235 214 246 179 270 153 C 294 127 325 114 364 114 C 398 114 428 126 456 150 C 483 174 503 210 515 257 C 513 214 522 179 542 153 C 562 127 588 114 619 114 C 661 114 694 133 720 173 C 746 213 759 259 759 313 C 759 407 724 484 655 542 C 586 600 505 630 412 630 C 320 630 239 597 169 532 C 99 467 64 384 64 282 C 64 182 95 100 159 35 C 222 -29 303 -62 401 -62 Z M 364 121 C 328 121 298 133 276 158 C 254 183 243 216 243 257 C 243 312 263 360 303 401 C 343 442 395 463 460 463 C 472 463 485 462 500 461 C 514 459 527 457 538 455 L 518 303 C 511 249 494 205 467 171 C 440 137 406 121 364 121 Z" unicode="@" />
<glyph horiz-adv-x="576" d="M 24 0 L 32 0 L 134 263 L 441 263 L 543 0 L 552 0 L 291 670 L 285 670 L 24 0 Z M 137 270 L 265 598 L 287 658 L 310 598 L 438 270 L 137 270 Z" unicode="A" />
<glyph horiz-adv-x="515" d="M 92 0 L 249 0 C 307 0 353 16 389 48 C 425 80 443 122 443 174 C 443 218 427 254 397 284 C 366 313 325 331 274 337 C 318 343 353 361 379 389 C 405 417 419 453 419 495 C 419 543 401 583 367 613 C 332 643 287 658 231 658 L 92 658 L 92 0 Z M 100 340 L 100 651 L 231 651 C 285 651 328 636 361 608 C 394 579 411 541 411 495 C 411 449 394 411 362 383 C 330 354 288 340 236 340 L 100 340 Z M 100 7 L 100 333 L 236 333 C 295 333 343 318 380 289 C 416 259 435 221 435 174 C 435 124 418 83 384 53 C 350 22 305 7 249 7 L 100 7 Z" unicode="B" />
<glyph horiz-adv-x="651" d="M 395 -8 C 431 -8 468 -3 504 6 C 540 15 574 29 607 47 L 607 55 C 574 36 540 22 504 13 C 468 3 432 -1 395 -1 C 297 -1 218 29 158 90 C 98 150 68 230 68 328 C 68 427 98 507 158 568 C 218 628 297 659 395 659 C 431 659 466 655 500 647 C 534 639 567 628 600 614 L 600 622 C 567 636 533 647 499 655 C 465 662 430 666 395 666 C 295 666 214 634 152 572 C 90 510 60 428 60 328 C 60 227 90 146 152 84 C 214 22 295 -8 395 -8 Z" unicode="C" />
<glyph horiz-adv-x="680" d="M 92 0 L 255 0 C 363 0 451 31 519 93 C 586 155 620 236 620 337 C 620 433 587 510 521 569 C 455 628 369 658 263 658 L 92 658 L 92 0 Z M 100 7 L 100 651 L 264 651 C 368 651 452 622 516 564 C 580 506 612 430 612 337 C 612 238 579 158 514 98 C 448 37 362 7 256 7 L 100 7 Z" unicode="D" />
<glyph horiz-adv-x="483" d="M 92 0 L 419 0 L 419 7 L 100 7 L 100 330 L 391 330 L 391 337 L 100 337 L 100 651 L 407 651 L 407 658 L 92 658 L 92 0 Z" unicode="E" />
<glyph horiz-adv-x="432" d="M 92 0 L 100 0 L 100 330 L 367 330 L 367 337 L 100 337 L 100 651 L 400 651 L 400 658 L 92 658 L 92 0 Z" unicode="F" />
<glyph horiz-adv-x="686" d="M 388 -8 C 429 -8 469 -4 508 3 C 546 10 582 21 616 36 L 616 300 L 447 300 L 447 293 L 608 293 L 608 40 C 575 26 540 15 503 9 C 465 2 427 -1 388 -1 C 294 -1 217 29 157 90 C 97 151 68 231 68 330 C 68 428 98 507 158 568 C 218 628 296 659 392 659 C 426 659 460 655 495 647 C 530 639 564 628 597 614 L 597 622 C 564 636 530 647 496 655 C 462 662 427 666 392 666 C 294 666 214 635 152 573 C 90 511 60 430 60 330 C 60 229 90 147 151 85 C 212 23 291 -8 388 -8 Z" unicode="G" />
<glyph horiz-adv-x="665" d="M 92 0 L 100 0 L 100 332 L 565 332 L 565 0 L 573 0 L 573 658 L 565 658 L 565 339 L 100 339 L 100 658 L 92 658 L 92 0 Z" unicode="H" />
<glyph horiz-adv-x="192" d="M 92 0 L 100 0 L 100 658 L 92 658 L 92 0 Z" unicode="I" />
<glyph horiz-adv-x="205" d="M 8 -204 C 39 -204 64 -193 84 -173 C 103 -153 113 -126 113 -94 L 113 658 L 105 658 L 105 -94 C 105 -124 96 -149 78 -168 C 60 -187 36 -197 8 -197 L 0 -197 L 0 -204 L 8 -204 Z" unicode="J" />
<glyph horiz-adv-x="503" d="M 92 0 L 100 0 L 100 329 L 439 0 L 451 0 L 105 335 L 441 658 L 430 658 L 100 341 L 100 658 L 92 658 L 92 0 Z" unicode="K" />
<glyph horiz-adv-x="441" d="M 92 0 L 417 0 L 417 7 L 100 7 L 100 658 L 92 658 L 92 0 Z" unicode="L" />
<glyph horiz-adv-x="726" d="M 92 0 L 99 0 L 99 646 L 360 124 L 366 124 L 626 644 L 626 0 L 634 0 L 634 658 L 625 658 L 364 135 L 102 658 L 92 658 L 92 0 Z" unicode="M" />
<glyph horiz-adv-x="704" d="M 92 0 L 99 0 L 99 649 L 147 587 L 603 0 L 612 0 L 612 658 L 605 658 L 605 11 L 558 71 L 102 658 L 92 658 L 92 0 Z" unicode="N" />
<glyph horiz-adv-x="768" d="M 384 -8 C 480 -8 558 23 618 85 C 678 147 708 228 708 329 C 708 429 678 511 618 573 C 558 635 480 666 384 666 C 287 666 209 635 149 573 C 89 511 60 429 60 329 C 60 228 89 147 149 85 C 209 23 287 -8 384 -8 Z M 384 -1 C 289 -1 213 29 155 90 C 97 150 68 230 68 329 C 68 428 97 508 155 568 C 213 628 289 659 384 659 C 478 659 555 628 613 568 C 671 508 700 428 700 329 C 700 230 671 150 613 90 C 555 29 478 -1 384 -1 Z" unicode="O" />
<glyph horiz-adv-x="456" d="M 92 0 L 100 0 L 100 281 L 177 281 C 243 281 296 298 336 332 C 376 366 396 412 396 468 C 396 524 376 570 336 605 C 296 640 243 658 177 658 L 92 658 L 92 0 Z M 100 288 L 100 651 L 176 651 C 240 651 291 634 330 600 C 368 566 388 522 388 468 C 388 414 368 370 330 337 C 291 304 240 288 177 288 L 100 288 Z" unicode="P" />
<glyph horiz-adv-x="768" d="M 384 -8 C 394 -8 405 -7 416 -6 C 426 -5 437 -4 448 -3 C 478 -27 514 -50 556 -70 C 598 -90 644 -107 694 -120 L 694 -112 C 646 -99 602 -83 562 -65 C 522 -46 487 -25 458 -1 C 533 13 593 50 639 109 C 685 168 708 241 708 329 C 708 429 678 511 618 573 C 558 635 480 666 384 666 C 287 666 209 635 149 573 C 89 511 60 429 60 329 C 60 228 89 147 149 85 C 209 23 287 -8 384 -8 Z M 384 -1 C 289 -1 213 29 155 90 C 97 150 68 230 68 329 C 68 428 97 508 155 568 C 213 628 289 659 384 659 C 478 659 555 628 613 568 C 671 508 700 428 700 329 C 700 230 671 150 613 90 C 555 29 478 -1 384 -1 Z" unicode="Q" />
<glyph horiz-adv-x="511" d="M 450 0 L 459 0 L 369 232 C 357 262 340 286 320 304 C 300 321 276 331 249 335 C 291 338 328 354 358 383 C 388 412 404 449 404 493 C 404 541 387 581 353 612 C 319 642 272 658 212 658 L 92 658 L 92 0 L 100 0 L 100 332 L 214 332 C 250 332 280 323 305 306 C 329 289 348 264 361 231 L 450 0 Z M 100 339 L 100 651 L 212 651 C 270 651 315 636 347 607 C 379 577 396 539 396 493 C 396 451 380 414 349 384 C 317 354 276 339 226 339 L 100 339 Z" unicode="R" />
<glyph horiz-adv-x="508" d="M 256 -9 C 308 -9 351 7 385 39 C 419 71 436 112 436 162 C 436 206 423 243 397 271 C 371 299 328 324 266 346 L 249 352 C 195 370 156 392 133 417 C 109 441 98 474 98 514 C 98 558 113 593 144 620 C 174 646 215 660 265 660 C 291 660 318 656 346 648 C 373 640 400 627 427 611 L 427 619 C 401 635 374 647 346 655 C 318 663 291 667 265 667 C 212 667 170 653 138 625 C 106 597 90 560 90 514 C 90 472 101 438 125 413 C 149 387 189 364 247 344 L 264 338 C 322 317 364 293 390 267 C 415 240 428 205 428 162 C 428 114 412 74 380 44 C 348 13 306 -2 256 -2 C 222 -2 189 3 157 15 C 125 26 96 41 72 60 L 72 51 C 95 33 123 18 156 7 C 189 -3 222 -9 256 -9 Z" unicode="S" />
<glyph horiz-adv-x="536" d="M 264 0 L 272 0 L 272 651 L 516 651 L 516 658 L 20 658 L 20 651 L 264 651 L 264 0 Z" unicode="T" />
<glyph horiz-adv-x="663" d="M 331 -9 C 405 -9 464 15 510 63 C 556 111 579 174 579 252 L 579 658 L 571 658 L 571 252 C 571 176 549 115 505 69 C 461 22 403 -1 331 -1 C 259 -1 202 22 158 69 C 114 115 92 176 92 252 L 92 658 L 84 658 L 84 252 C 84 174 106 111 152 63 C 198 15 257 -9 331 -9 Z" unicode="U" />
<glyph horiz-adv-x="581" d="M 287 0 L 294 0 L 557 658 L 549 658 L 315 71 L 291 10 L 267 71 L 33 658 L 24 658 L 287 0 Z" unicode="V" />
<glyph horiz-adv-x="888" d="M 233 0 L 240 0 L 427 588 L 445 647 L 463 588 L 648 0 L 655 0 L 864 658 L 857 658 L 670 71 L 652 12 L 634 71 L 449 658 L 442 658 L 255 71 L 237 13 L 219 71 L 33 658 L 24 658 L 233 0 Z" unicode="W" />
<glyph horiz-adv-x="573" d="M 52 0 L 61 0 L 253 281 L 286 331 L 320 281 L 512 0 L 521 0 L 291 337 L 507 658 L 498 658 L 322 397 L 287 343 L 251 397 L 75 658 L 66 658 L 282 337 L 52 0 Z" unicode="X" />
<glyph horiz-adv-x="519" d="M 255 0 L 263 0 L 263 309 L 499 658 L 490 658 L 289 361 L 260 317 L 231 360 L 30 658 L 20 658 L 255 309 L 255 0 Z" unicode="Y" />
<glyph horiz-adv-x="604" d="M 76 0 L 528 0 L 528 7 L 86 7 L 123 61 L 528 651 L 528 658 L 76 658 L 76 651 L 518 651 L 481 597 L 76 7 L 76 0 Z" unicode="Z" />
<glyph horiz-adv-x="296" d="M 96 -220 L 232 -220 L 232 -213 L 104 -213 L 104 717 L 232 717 L 232 724 L 96 724 L 96 -220 Z" unicode="[" />
<glyph horiz-adv-x="327" d="M 303 0 L 311 0 L 24 724 L 16 724 L 303 0 Z" unicode="\" />
<glyph horiz-adv-x="296" d="M 64 -220 L 200 -220 L 200 724 L 64 724 L 64 717 L 192 717 L 192 -213 L 64 -213 L 64 -220 Z" unicode="]" />
<glyph horiz-adv-x="384" d="M 101 524 L 192 636 L 282 524 L 292 524 L 195 643 L 189 643 L 92 524 L 101 524 Z" unicode="^" />
<glyph horiz-adv-x="350" d="M 0 -220 L 350 -220 L 350 -213 L 0 -213 L 0 -220 Z" unicode="_" />
<glyph horiz-adv-x="237" d="M 168 524 L 177 524 L 78 649 L 68 649 L 168 524 Z" unicode="`" />
<glyph horiz-adv-x="416" d="M 192 -8 C 222 -8 250 -1 274 11 C 298 23 319 42 336 67 L 338 0 L 344 0 L 344 326 C 344 370 331 405 306 431 C 281 457 248 470 207 470 C 184 470 160 465 135 457 C 110 449 88 438 70 424 L 70 415 C 88 429 110 441 136 450 C 161 458 185 463 207 463 C 245 463 276 450 300 426 C 324 401 336 368 336 326 L 336 270 L 204 255 C 158 250 122 235 94 210 C 66 185 52 155 52 119 C 52 81 65 50 91 27 C 117 3 151 -8 192 -8 Z M 192 -1 C 153 -1 121 10 97 32 C 72 54 60 83 60 119 C 60 153 73 181 99 205 C 125 229 161 243 205 248 L 336 263 L 336 77 C 319 51 298 32 274 19 C 249 5 222 -1 192 -1 Z" unicode="a" />
<glyph horiz-adv-x="489" d="M 219 -9 C 285 -9 338 13 378 58 C 418 103 439 162 439 235 C 439 305 420 361 383 405 C 346 448 297 470 235 470 C 207 470 180 465 155 455 C 129 445 106 430 84 412 L 84 724 L 76 724 L 76 17 C 96 9 119 2 145 -2 C 171 -6 196 -9 219 -9 Z M 219 -2 C 199 -2 176 0 151 4 C 126 8 104 14 84 22 L 84 402 C 106 422 129 437 155 447 C 181 457 207 463 235 463 C 294 463 341 442 377 400 C 413 358 431 303 431 235 C 431 164 411 107 372 63 C 333 19 282 -2 219 -2 Z" unicode="b" />
<glyph horiz-adv-x="469" d="M 275 -8 C 299 -8 324 -4 350 4 C 375 12 397 22 417 35 L 417 43 C 397 30 374 19 348 11 C 322 3 297 -1 275 -1 C 210 -1 158 20 118 62 C 78 104 58 160 58 230 C 58 299 77 355 116 398 C 154 441 205 463 269 463 C 293 463 318 459 343 452 C 368 445 393 435 417 422 L 417 430 C 394 442 370 452 345 459 C 319 466 294 470 269 470 C 203 470 150 447 110 403 C 70 359 50 301 50 230 C 50 158 70 101 112 57 C 153 13 207 -8 275 -8 Z" unicode="c" />
<glyph horiz-adv-x="498" d="M 255 -8 C 287 -8 317 -1 345 12 C 372 26 395 44 414 67 L 416 0 L 422 0 L 422 724 L 414 724 L 414 411 C 394 429 370 443 344 454 C 317 464 289 470 261 470 C 199 470 149 448 109 404 C 69 360 50 303 50 232 C 50 160 69 102 107 58 C 145 14 194 -8 255 -8 Z M 255 -1 C 197 -1 149 20 113 63 C 76 106 58 162 58 232 C 58 301 77 357 115 399 C 153 441 202 463 261 463 C 288 463 315 457 341 447 C 367 437 391 422 414 402 L 414 76 C 393 50 369 31 341 18 C 313 5 284 -1 255 -1 Z" unicode="d" />
<glyph horiz-adv-x="492" d="M 262 -8 C 290 -8 319 -3 347 5 C 375 13 401 26 426 43 L 426 52 C 402 35 376 22 348 13 C 320 3 292 -1 262 -1 C 201 -1 152 20 114 63 C 76 105 58 161 58 231 L 58 250 L 438 250 L 438 252 C 438 317 421 370 387 410 C 353 450 308 470 254 470 C 192 470 142 448 105 405 C 68 361 50 304 50 233 C 50 161 69 102 108 58 C 147 14 198 -8 262 -8 Z M 254 463 C 306 463 348 444 381 406 C 413 368 430 319 430 257 L 59 257 C 62 319 81 368 117 406 C 152 444 198 463 254 463 Z" unicode="e" />
<glyph horiz-adv-x="232" d="M 110 0 L 118 0 L 118 455 L 216 455 L 216 462 L 118 462 L 118 593 C 118 635 128 668 150 691 C 171 713 199 725 234 725 C 247 725 260 723 274 720 C 287 717 300 713 312 707 L 312 714 C 300 720 287 724 274 727 C 260 730 247 732 234 732 C 196 732 166 720 144 696 C 121 672 110 638 110 593 L 110 462 L 22 462 L 22 455 L 110 455 L 110 0 Z" unicode="f" />
<glyph horiz-adv-x="500" d="M 225 -228 C 285 -228 333 -208 369 -170 C 405 -132 424 -81 424 -17 L 424 462 L 418 462 L 416 411 C 396 429 372 443 346 454 C 319 464 291 470 263 470 C 201 470 151 448 111 404 C 71 360 52 303 52 232 C 52 160 71 102 109 58 C 147 14 196 -8 257 -8 C 289 -8 319 -1 347 12 C 374 26 397 44 416 67 L 416 -17 C 416 -79 398 -128 364 -165 C 329 -202 283 -221 225 -221 C 200 -221 173 -215 144 -205 C 115 -195 89 -182 67 -166 L 67 -174 C 89 -189 114 -202 143 -212 C 171 -222 199 -228 225 -228 Z M 257 -1 C 199 -1 151 20 115 63 C 78 106 60 162 60 232 C 60 301 79 357 117 399 C 155 441 204 463 263 463 C 290 463 317 457 343 447 C 369 437 393 422 416 402 L 416 76 C 395 50 371 31 343 18 C 315 5 286 -1 257 -1 Z" unicode="g" />
<glyph horiz-adv-x="462" d="M 76 0 L 84 0 L 84 370 C 97 398 117 420 144 437 C 171 454 201 463 233 463 C 277 463 312 448 340 420 C 368 391 382 353 382 307 L 382 0 L 390 0 L 390 307 C 390 355 375 395 346 425 C 316 455 279 470 233 470 C 201 470 171 462 145 446 C 118 430 98 410 84 384 L 84 724 L 76 724 L 76 0 Z" unicode="h" />
<glyph horiz-adv-x="172" d="M 76 658 L 96 658 L 96 678 L 76 678 L 76 658 Z M 82 0 L 90 0 L 90 462 L 82 462 L 82 0 Z" unicode="i" />
<glyph horiz-adv-x="164" d="M 72 658 L 92 658 L 92 678 L 72 678 L 72 658 Z M -36 -204 C 0 -204 29 -191 52 -167 C 74 -142 86 -110 86 -70 L 86 462 L 78 462 L 78 -70 C 78 -108 67 -138 46 -162 C 25 -185 -2 -197 -36 -197 L -44 -197 L -44 -204 L -36 -204 Z" unicode="j" />
<glyph horiz-adv-x="411" d="M 76 0 L 84 0 L 84 236 L 362 0 L 375 0 L 91 241 L 350 462 L 338 462 L 84 244 L 84 724 L 76 724 L 76 0 Z" unicode="k" />
<glyph horiz-adv-x="160" d="M 76 0 L 84 0 L 84 724 L 76 724 L 76 0 Z" unicode="l" />
<glyph horiz-adv-x="752" d="M 76 0 L 84 0 L 84 370 C 97 398 117 420 143 437 C 169 454 198 463 229 463 C 273 463 308 448 334 420 C 360 391 374 353 374 307 L 374 0 L 382 0 L 382 309 C 382 312 382 315 382 317 C 382 319 381 323 381 329 L 381 333 C 389 376 406 408 432 430 C 457 452 489 463 527 463 C 569 463 604 448 631 420 C 658 391 672 353 672 307 L 672 0 L 680 0 L 680 307 C 680 355 665 395 637 425 C 609 455 572 470 527 470 C 489 470 457 460 432 440 C 406 420 388 390 378 351 C 370 389 352 418 325 439 C 298 459 266 470 229 470 C 198 470 170 462 144 446 C 118 430 98 410 84 384 L 84 462 L 76 462 L 76 0 Z" unicode="m" />
<glyph horiz-adv-x="462" d="M 76 0 L 84 0 L 84 370 C 97 398 117 420 144 437 C 171 454 201 463 233 463 C 276 463 312 448 340 420 C 368 391 382 353 382 307 L 382 0 L 390 0 L 390 307 C 390 355 375 395 346 425 C 316 455 279 470 233 470 C 201 470 171 462 145 446 C 118 430 98 410 84 384 L 84 462 L 76 462 L 76 0 Z" unicode="n" />
<glyph horiz-adv-x="548" d="M 274 -8 C 340 -8 394 14 436 58 C 477 102 498 159 498 231 C 498 302 477 360 436 404 C 394 448 340 470 274 470 C 207 470 153 448 112 404 C 70 360 50 302 50 231 C 50 159 70 102 112 58 C 153 14 207 -8 274 -8 Z M 274 -1 C 209 -1 157 20 117 63 C 77 105 58 161 58 231 C 58 300 77 356 117 399 C 157 441 209 463 274 463 C 338 463 390 441 430 399 C 470 356 490 300 490 231 C 490 161 470 105 430 63 C 390 20 338 -1 274 -1 Z" unicode="o" />
<glyph horiz-adv-x="489" d="M 76 -220 L 84 -220 L 84 45 C 102 29 125 16 152 6 C 179 -4 205 -9 230 -9 C 290 -9 339 13 379 58 C 419 103 439 162 439 235 C 439 305 420 361 383 405 C 346 448 297 470 235 470 C 207 470 180 465 155 455 C 129 445 106 430 84 412 L 84 462 L 76 462 L 76 -220 Z M 230 -2 C 205 -2 179 3 152 14 C 125 24 102 38 84 55 L 84 402 C 106 422 129 437 155 447 C 181 457 207 463 235 463 C 294 463 341 442 377 400 C 413 358 431 303 431 235 C 431 163 412 106 374 63 C 336 19 288 -2 230 -2 Z" unicode="p" />
<glyph horiz-adv-x="498" d="M 414 -220 L 422 -220 L 422 462 L 416 462 L 414 411 C 393 428 369 442 343 453 C 317 464 289 470 261 470 C 199 470 149 448 109 404 C 69 360 50 303 50 232 C 50 160 69 102 107 58 C 145 14 194 -8 255 -8 C 287 -8 317 -1 345 12 C 372 26 395 44 414 67 L 414 -220 Z M 255 -1 C 197 -1 149 20 113 63 C 76 106 58 162 58 232 C 58 301 77 357 115 399 C 153 441 202 463 261 463 C 288 463 315 457 341 447 C 367 437 391 422 414 402 L 414 76 C 393 50 369 31 341 18 C 313 5 284 -1 255 -1 Z" unicode="q" />
<glyph horiz-adv-x="272" d="M 76 0 L 84 0 L 84 366 C 98 398 114 422 134 438 C 154 454 175 463 198 463 C 208 463 219 462 229 460 C 239 458 250 455 260 451 L 260 459 C 249 462 239 465 229 467 C 219 469 209 470 199 470 C 175 470 154 462 134 447 C 114 432 98 410 84 381 L 84 462 L 76 462 L 76 0 Z" unicode="r" />
<glyph horiz-adv-x="379" d="M 186 -8 C 226 -8 259 3 285 25 C 311 47 325 75 325 108 C 325 140 315 167 296 188 C 277 209 246 227 202 242 L 184 248 C 144 261 115 276 98 294 C 81 311 73 334 73 362 C 73 390 84 414 108 434 C 131 453 162 463 200 463 C 219 463 240 459 263 453 C 285 446 305 438 322 428 L 322 437 C 305 446 285 454 263 460 C 241 466 220 470 200 470 C 159 470 126 459 102 439 C 77 418 65 392 65 362 C 65 332 74 307 92 289 C 110 270 140 254 182 240 L 200 234 C 242 220 272 203 290 183 C 308 163 317 138 317 108 C 317 77 304 51 280 30 C 255 9 224 -1 186 -1 C 164 -1 142 3 118 12 C 94 20 72 32 54 48 L 54 39 C 70 25 90 13 114 5 C 137 -3 161 -8 186 -8 Z" unicode="s" />
<glyph horiz-adv-x="298" d="M 188 -8 C 200 -8 212 -6 226 -2 C 240 2 252 7 262 14 L 262 23 C 252 16 240 10 226 6 C 212 1 200 -1 188 -1 C 165 -1 148 6 137 20 C 125 34 120 53 120 76 L 120 455 L 254 455 L 254 462 L 120 462 L 120 624 L 112 624 L 112 462 L 32 462 L 32 455 L 112 455 L 112 76 C 112 48 119 27 133 13 C 147 0 165 -8 188 -8 Z" unicode="t" />
<glyph horiz-adv-x="462" d="M 229 -8 C 260 -8 289 0 316 15 C 343 31 364 52 378 78 L 380 0 L 386 0 L 386 462 L 378 462 L 378 92 C 364 64 344 41 318 24 C 291 7 261 -1 229 -1 C 185 -1 149 13 121 42 C 93 70 80 108 80 155 L 80 462 L 72 462 L 72 155 C 72 106 86 67 116 37 C 145 7 183 -8 229 -8 Z" unicode="u" />
<glyph horiz-adv-x="418" d="M 205 0 L 213 0 L 402 462 L 394 462 L 234 71 L 210 10 L 185 71 L 25 462 L 16 462 L 205 0 Z" unicode="v" />
<glyph horiz-adv-x="687" d="M 180 0 L 188 0 L 323 391 L 344 452 L 364 391 L 499 0 L 507 0 L 667 462 L 659 462 L 524 71 L 503 11 L 483 71 L 348 462 L 340 462 L 205 71 L 184 11 L 164 71 L 29 462 L 20 462 L 180 0 Z" unicode="w" />
<glyph horiz-adv-x="420" d="M 36 0 L 45 0 L 175 184 L 210 234 L 246 184 L 374 0 L 384 0 L 215 241 L 369 462 L 360 462 L 248 301 L 211 246 L 173 301 L 63 462 L 53 462 L 206 240 L 36 0 Z" unicode="x" />
<glyph horiz-adv-x="418" d="M -4 -220 C 41 -220 80 -203 114 -169 C 147 -135 180 -78 213 0 L 402 462 L 394 462 L 234 71 L 210 10 L 185 71 L 25 462 L 16 462 L 205 1 L 206 -1 C 174 -76 141 -130 109 -163 C 77 -196 39 -213 -4 -213 L -12 -213 L -12 -220 L -4 -220 Z" unicode="y" />
<glyph horiz-adv-x="419" d="M 52 0 L 367 0 L 367 7 L 61 7 L 92 52 L 367 455 L 367 462 L 52 462 L 52 455 L 358 455 L 327 410 L 52 7 L 52 0 Z" unicode="z" />
<glyph horiz-adv-x="491" d="M 396 -220 L 427 -220 L 427 -213 L 396 -213 C 344 -213 304 -196 275 -163 C 245 -130 232 -87 236 -34 L 244 88 C 246 132 235 168 210 196 C 185 224 151 243 109 251 C 151 259 185 278 210 306 C 235 334 246 370 244 416 L 236 538 C 232 591 245 634 275 667 C 304 700 344 717 395 717 L 427 717 L 427 724 L 395 724 C 341 724 299 707 269 673 C 238 639 224 594 228 538 L 236 416 C 238 374 228 339 204 310 C 180 280 144 262 96 256 L 96 247 C 144 239 180 221 204 192 C 228 163 238 128 236 88 L 228 -34 C 224 -90 238 -135 269 -169 C 299 -203 342 -220 396 -220 Z" unicode="{" />
<glyph horiz-adv-x="168" d="M 80 -220 L 88 -220 L 88 724 L 80 724 L 80 -220 Z" unicode="|" />
<glyph horiz-adv-x="491" d="M 64 -220 L 96 -220 C 149 -220 191 -203 222 -169 C 252 -135 266 -90 263 -34 L 255 88 C 252 129 262 164 286 194 C 310 223 346 241 395 248 L 395 257 C 346 264 310 282 286 311 C 262 340 252 375 255 416 L 263 538 C 266 594 252 639 222 673 C 191 707 149 724 95 724 L 64 724 L 64 717 L 95 717 C 146 717 186 700 216 667 C 245 634 258 591 255 538 L 247 416 C 244 372 255 335 280 307 C 305 279 339 261 382 253 C 339 244 305 226 280 198 C 255 170 244 133 247 88 L 255 -34 C 258 -87 245 -130 216 -163 C 186 -196 146 -213 96 -213 L 64 -213 L 64 -220 Z" unicode="}" />
<glyph horiz-adv-x="384" d="M 75 170 C 77 186 83 199 92 207 C 101 215 113 220 127 220 C 136 220 145 217 153 213 C 161 209 173 201 188 190 C 202 178 214 169 223 165 C 232 161 242 159 253 159 C 268 159 281 163 291 173 C 301 182 308 197 312 219 L 305 219 C 301 201 295 187 287 179 C 278 170 267 166 253 166 C 243 166 234 168 226 172 C 218 176 206 184 192 196 C 177 208 165 216 156 220 C 147 224 137 227 127 227 C 111 227 98 222 88 213 C 77 204 70 190 68 170 L 75 170 Z" unicode="~" />
<glyph horiz-adv-x="182" d="M 80 486 L 102 486 L 102 508 L 80 508 L 80 486 Z M 87 -208 L 95 -208 L 95 343 L 87 343 L 87 -208 Z" unicode="¡" />
<glyph horiz-adv-x="469" d="M 250 -98 L 257 -98 L 257 -7 C 259 -7 262 -8 266 -8 C 269 -8 272 -8 275 -8 C 299 -8 324 -4 350 4 C 375 12 397 22 417 35 L 417 43 C 397 30 374 19 348 11 C 322 3 297 -1 275 -1 C 272 -1 269 -1 266 -1 C 262 -1 259 0 257 0 L 257 463 C 259 463 261 463 263 463 C 265 463 267 463 269 463 C 293 463 318 459 343 452 C 368 445 393 435 417 422 L 417 430 C 394 442 370 452 345 459 C 319 466 294 470 269 470 C 267 470 265 470 263 470 C 261 470 259 470 257 470 L 257 562 L 250 562 L 250 469 C 190 464 141 440 105 397 C 68 353 50 298 50 230 C 50 163 68 108 105 65 C 141 22 190 -1 250 -7 L 250 -98 Z M 58 230 C 58 296 75 350 110 392 C 145 434 192 457 250 462 L 250 0 C 192 5 145 28 110 70 C 75 112 58 165 58 230 Z" unicode="¢" />
<glyph horiz-adv-x="512" d="M 60 0 L 444 0 L 444 8 L 73 8 C 119 39 151 82 170 136 C 188 190 189 252 173 322 L 167 345 L 371 345 L 371 352 L 166 352 L 156 391 C 135 471 139 535 167 585 C 195 634 244 659 312 659 C 336 659 361 655 385 647 C 409 639 434 627 460 611 L 460 620 C 436 634 412 646 388 654 C 364 662 339 666 312 666 C 240 666 190 640 160 589 C 130 538 126 471 148 389 L 157 352 L 52 352 L 52 345 L 159 345 L 165 320 C 183 243 181 178 158 126 C 134 74 102 34 60 8 L 60 0 Z" unicode="£" />
<glyph horiz-adv-x="546" d="M 57 40 L 163 146 C 177 134 193 124 212 117 C 230 110 251 107 273 107 C 295 107 315 110 334 117 C 352 124 369 134 384 146 L 489 41 L 494 46 L 389 151 C 406 167 419 186 429 209 C 439 231 444 255 444 281 C 444 305 439 329 429 352 C 419 374 406 394 389 410 L 494 515 L 489 520 L 384 415 C 384 414 385 413 386 412 C 387 411 388 410 389 410 L 386 407 L 381 412 L 384 415 C 369 427 352 436 334 443 C 315 450 295 454 273 454 C 251 454 230 450 212 443 C 193 436 177 427 163 415 L 165 413 L 160 408 L 157 411 C 157 411 158 412 160 413 C 161 413 162 414 163 415 L 57 521 L 52 516 L 157 411 C 139 395 126 375 116 353 C 106 330 102 306 102 281 C 102 255 106 231 116 209 C 126 186 139 166 157 150 L 52 45 L 57 40 Z M 273 114 C 229 114 190 129 158 160 C 126 190 110 231 110 281 C 110 331 126 371 158 401 C 190 431 229 447 273 447 C 317 447 355 431 387 401 C 419 371 436 331 436 281 C 436 231 419 190 387 160 C 355 129 317 114 273 114 Z" unicode="¤" />
<glyph horiz-adv-x="531" d="M 139 153 L 267 153 L 267 0 L 275 0 L 275 153 L 395 153 L 395 160 L 275 160 L 275 245 L 395 245 L 395 252 L 275 252 L 275 309 L 511 658 L 502 658 L 301 361 L 272 317 L 243 360 L 42 658 L 32 658 L 267 309 L 267 252 L 139 252 L 139 245 L 267 245 L 267 160 L 139 160 L 139 153 Z" unicode="¥" />
<glyph horiz-adv-x="168" d="M 80 316 L 88 316 L 88 724 L 80 724 L 80 316 Z M 80 -220 L 88 -220 L 88 188 L 80 188 L 80 -220 Z" unicode="¦" />
<glyph horiz-adv-x="392" d="M 183 0 C 221 0 251 10 275 32 C 299 53 311 81 311 116 C 311 141 303 162 288 180 C 272 198 252 212 228 222 C 254 228 277 242 297 263 C 317 284 327 308 327 334 C 327 360 317 383 299 402 C 281 421 250 438 206 453 L 191 458 C 160 468 137 482 121 499 C 105 516 98 536 98 559 C 98 585 108 609 130 629 C 152 649 180 659 215 659 C 235 659 255 656 274 650 C 293 644 312 635 332 623 L 332 632 C 312 642 293 651 275 657 C 257 663 237 666 215 666 C 181 666 152 656 127 636 C 102 616 90 591 90 559 C 90 535 97 514 113 497 C 128 479 148 466 173 456 C 146 448 123 434 103 414 C 83 393 74 370 74 344 C 74 317 83 294 101 275 C 119 256 151 239 195 225 L 210 220 C 238 210 261 197 278 180 C 294 163 303 142 303 116 C 303 83 292 57 270 37 C 248 17 219 7 183 7 C 161 7 139 10 119 17 C 98 24 78 35 60 49 L 60 40 C 77 27 96 17 117 10 C 137 3 159 0 183 0 Z M 214 227 L 199 232 C 157 246 127 261 109 279 C 91 297 82 318 82 344 C 82 368 91 390 110 410 C 129 430 154 444 185 452 C 185 452 185 451 185 451 C 185 451 186 451 187 451 L 202 446 C 244 432 274 416 292 398 C 310 380 319 359 319 334 C 319 310 309 287 290 267 C 271 247 246 233 216 226 L 214 227 Z" unicode="§" />
<glyph horiz-adv-x="264" d="M 56 548 L 76 548 L 76 568 L 56 568 L 56 548 Z M 188 548 L 208 548 L 208 568 L 188 568 L 188 548 Z" unicode="¨" />
<glyph horiz-adv-x="648" d="M 324 132 C 405 132 471 158 521 212 C 571 266 596 329 596 402 C 596 475 571 539 521 594 C 471 648 405 676 324 676 C 242 676 177 648 127 594 C 77 539 52 475 52 402 C 52 329 77 266 127 212 C 177 158 242 132 324 132 Z M 324 139 C 252 139 190 163 138 211 C 86 259 60 323 60 402 C 60 481 86 545 138 595 C 190 644 252 669 324 669 C 394 669 456 644 509 595 C 561 545 588 481 588 402 C 588 323 561 259 509 211 C 456 163 394 139 324 139 Z M 323 231 C 341 231 360 234 380 240 C 400 246 417 253 432 263 L 432 271 C 417 261 400 253 380 247 C 360 241 341 238 323 238 C 277 238 241 253 213 283 C 185 313 172 354 172 404 C 172 454 186 495 214 527 C 242 558 278 574 324 574 C 340 574 358 571 377 565 C 395 559 412 551 427 541 L 427 550 C 412 559 395 566 376 572 C 357 578 340 581 324 581 C 276 581 237 564 208 532 C 178 499 164 456 164 404 C 164 352 178 310 208 278 C 237 246 275 231 323 231 Z" unicode="©" />
<glyph horiz-adv-x="394" d="M 181 352 C 203 352 225 357 246 369 C 266 380 282 395 293 415 L 295 360 L 301 360 L 301 615 C 301 649 291 676 272 697 C 252 717 227 728 196 728 C 178 728 159 725 139 719 C 119 713 101 705 85 695 L 85 686 C 101 696 119 705 139 711 C 159 717 178 721 196 721 C 224 721 248 711 266 692 C 284 672 293 647 293 615 L 293 574 L 199 564 C 163 560 133 547 111 527 C 88 507 77 482 77 454 C 77 423 86 398 106 380 C 125 361 150 352 181 352 Z M 181 359 C 152 359 129 367 111 385 C 93 402 85 425 85 454 C 85 480 95 503 116 522 C 136 541 164 553 200 557 L 293 567 L 293 430 C 284 409 269 392 249 379 C 228 365 205 359 181 359 Z M 76 269 L 318 269 L 318 276 L 76 276 L 76 269 Z" unicode="ª" />
<glyph horiz-adv-x="412" d="M 195 71 L 205 71 L 50 226 L 205 382 L 195 382 L 40 226 L 195 71 Z M 330 71 L 340 71 L 185 226 L 340 382 L 330 382 L 175 226 L 330 71 Z" unicode="«" />
<glyph horiz-adv-x="393" d="M 322 191 L 329 191 L 329 296 L 40 296 L 40 289 L 322 289 L 322 191 Z" unicode="¬" />
<glyph horiz-adv-x="360" d="M 52 209 L 316 209 L 316 216 L 52 216 L 52 209 Z" unicode="­" />
<glyph horiz-adv-x="648" d="M 324 132 C 405 132 471 159 521 213 C 571 267 596 330 596 404 C 596 477 571 541 521 595 C 471 649 405 676 324 676 C 242 676 177 649 127 595 C 77 541 52 477 52 404 C 52 330 77 267 127 213 C 177 159 242 132 324 132 Z M 324 139 C 252 139 190 163 138 212 C 86 260 60 324 60 404 C 60 483 86 547 138 596 C 190 644 252 669 324 669 C 394 669 456 644 509 596 C 561 547 588 483 588 404 C 588 324 561 260 509 212 C 456 163 394 139 324 139 Z M 249 231 L 257 231 L 257 402 L 298 402 C 311 402 323 398 334 390 C 345 382 355 371 365 357 L 443 231 L 452 231 L 373 358 C 365 370 357 380 349 388 C 341 395 332 400 323 403 C 349 405 370 414 386 430 C 402 446 410 467 410 492 C 410 518 401 540 383 556 C 365 572 342 581 314 581 L 249 581 L 249 231 Z M 257 409 L 257 574 L 314 574 C 340 574 362 566 378 551 C 394 536 402 516 402 492 C 402 467 393 447 377 432 C 361 416 339 409 313 409 L 257 409 Z" unicode="®" />
<glyph horiz-adv-x="386" d="M 96 556 L 290 556 L 290 563 L 96 563 L 96 556 Z" unicode="¯" />
<glyph horiz-adv-x="324" d="M 166 496 C 198 496 225 506 247 528 C 269 550 280 578 280 612 C 280 646 269 673 247 695 C 225 717 198 728 166 728 C 133 728 106 717 84 695 C 62 673 52 646 52 612 C 52 578 62 550 84 528 C 106 506 133 496 166 496 Z M 166 503 C 135 503 110 513 90 534 C 70 554 60 580 60 612 C 60 643 70 669 90 690 C 110 710 135 721 166 721 C 196 721 222 710 242 690 C 262 669 272 643 272 612 C 272 580 262 554 242 534 C 222 513 196 503 166 503 Z" unicode="°" />
<glyph horiz-adv-x="532" d="M 262 66 L 270 66 L 270 284 L 480 284 L 480 291 L 270 291 L 270 508 L 262 508 L 262 291 L 52 291 L 52 284 L 262 284 L 262 66 Z M 48 -19 L 476 -19 L 476 -12 L 48 -12 L 48 -19 Z" unicode="±" />
<glyph horiz-adv-x="318" d="M 40 440 L 278 440 L 278 448 L 57 448 C 125 492 177 535 212 577 C 247 619 265 659 265 697 C 265 731 255 758 235 778 C 215 798 188 808 154 808 C 137 808 119 805 101 799 C 82 793 66 786 54 778 L 54 769 C 66 778 82 786 101 792 C 119 798 137 801 154 801 C 186 801 211 791 229 773 C 247 754 257 729 257 697 C 257 661 239 622 205 580 C 170 538 115 493 40 446 L 40 440 Z" unicode="²" />
<glyph horiz-adv-x="291" d="M 144 432 C 176 432 202 441 222 460 C 241 478 251 502 251 530 C 251 558 242 580 225 596 C 208 612 185 622 157 627 C 183 631 204 642 220 658 C 236 674 244 694 244 718 C 244 744 235 766 217 783 C 199 799 176 808 148 808 C 132 808 116 805 99 799 C 81 793 66 785 54 776 L 54 767 C 66 777 81 785 99 791 C 116 797 132 801 148 801 C 174 801 196 793 212 778 C 228 762 236 742 236 718 C 236 691 225 670 205 654 C 185 638 158 630 125 630 L 111 630 L 111 623 L 126 623 C 164 623 193 614 213 597 C 233 580 243 558 243 530 C 243 504 234 482 216 465 C 198 447 174 439 144 439 C 124 439 105 442 87 450 C 69 458 53 468 40 481 L 40 472 C 54 459 70 449 88 442 C 106 435 125 432 144 432 Z" unicode="³" />
<glyph horiz-adv-x="233" d="M 69 524 L 169 649 L 159 649 L 60 524 L 69 524 Z" unicode="´" />
<glyph horiz-adv-x="373" d="M 120 0 L 128 0 L 128 651 L 265 651 L 265 0 L 273 0 L 273 658 L 120 658 C 108 658 98 654 91 648 C 83 641 80 632 80 622 C 80 611 83 602 91 596 C 98 589 108 586 120 586 L 120 0 Z" unicode="¶" />
<glyph horiz-adv-x="142" d="M 54 194 L 76 194 L 76 216 L 54 216 L 54 194 Z" unicode="·" />
<glyph horiz-adv-x="226" d="M 109 -176 C 129 -176 146 -169 159 -157 C 171 -145 178 -129 178 -111 C 178 -92 171 -77 157 -65 C 143 -53 125 -48 103 -48 L 97 -48 L 97 -55 L 103 -55 C 123 -55 139 -60 151 -70 C 163 -80 170 -93 170 -111 C 170 -127 164 -141 153 -152 C 142 -163 127 -169 109 -169 C 100 -169 91 -167 81 -165 C 71 -162 63 -158 56 -154 L 56 -162 C 62 -166 70 -169 80 -172 C 90 -174 99 -176 109 -176 Z" unicode="¸" />
<glyph horiz-adv-x="275" d="M 33 440 L 247 440 L 247 447 L 144 447 L 144 812 L 32 784 L 32 777 L 136 803 L 136 447 L 33 447 L 33 440 Z" unicode="¹" />
<glyph horiz-adv-x="504" d="M 252 354 C 302 354 344 371 378 406 C 411 440 428 486 428 542 C 428 598 411 643 378 678 C 344 712 302 730 252 730 C 201 730 159 712 126 678 C 92 643 76 598 76 542 C 76 486 92 440 126 406 C 159 371 201 354 252 354 Z M 252 361 C 204 361 164 377 132 411 C 100 444 84 488 84 542 C 84 596 100 639 132 673 C 164 706 204 723 252 723 C 300 723 340 706 372 673 C 404 639 420 596 420 542 C 420 488 404 444 372 411 C 340 377 300 361 252 361 Z M 80 269 L 424 269 L 424 276 L 80 276 L 80 269 Z" unicode="º" />
<glyph horiz-adv-x="414" d="M 72 71 L 82 71 L 237 226 L 82 382 L 72 382 L 227 226 L 72 71 Z M 209 71 L 219 71 L 374 226 L 219 382 L 209 382 L 364 226 L 209 71 Z" unicode="»" />
<glyph horiz-adv-x="648" d="M 33 360 L 247 360 L 247 367 L 144 367 L 144 732 L 32 704 L 32 697 L 136 723 L 136 367 L 33 367 L 33 360 Z M 208 0 L 216 0 L 472 724 L 464 724 L 208 0 Z M 538 0 L 546 0 L 546 108 L 612 108 L 612 116 L 546 116 L 546 360 L 537 360 L 366 116 L 366 108 L 538 108 L 538 0 Z M 538 116 L 375 116 L 538 348 L 538 116 Z" unicode="¼" />
<glyph horiz-adv-x="684" d="M 33 360 L 247 360 L 247 367 L 144 367 L 144 732 L 32 704 L 32 697 L 136 723 L 136 367 L 33 367 L 33 360 Z M 208 0 L 216 0 L 472 724 L 464 724 L 208 0 Z M 406 0 L 644 0 L 644 8 L 423 8 C 491 52 543 95 578 137 C 613 179 631 219 631 257 C 631 291 621 318 601 338 C 581 358 554 368 520 368 C 503 368 485 365 467 359 C 448 353 432 346 420 338 L 420 329 C 432 338 448 346 467 352 C 485 358 503 361 520 361 C 552 361 577 351 595 333 C 613 314 623 289 623 257 C 623 221 605 182 571 140 C 536 98 481 53 406 6 L 406 0 Z" unicode="½" />
<glyph horiz-adv-x="672" d="M 144 352 C 176 352 202 361 222 380 C 241 398 251 422 251 450 C 251 478 242 500 225 516 C 208 532 185 542 157 547 C 183 551 204 562 220 578 C 236 594 244 614 244 638 C 244 664 235 686 217 703 C 199 719 176 728 148 728 C 132 728 116 725 99 719 C 81 713 66 705 54 696 L 54 687 C 66 697 81 705 99 711 C 116 717 132 721 148 721 C 174 721 196 713 212 698 C 228 682 236 662 236 638 C 236 611 225 590 205 574 C 185 558 158 550 125 550 L 111 550 L 111 543 L 126 543 C 164 543 193 534 213 517 C 233 500 243 478 243 450 C 243 424 234 402 216 385 C 198 367 174 359 144 359 C 124 359 105 362 87 370 C 69 378 53 388 40 401 L 40 392 C 54 379 70 369 88 362 C 106 355 125 352 144 352 Z M 223 0 L 231 0 L 487 724 L 479 724 L 223 0 Z M 562 0 L 570 0 L 570 108 L 636 108 L 636 116 L 570 116 L 570 360 L 561 360 L 390 116 L 390 108 L 562 108 L 562 0 Z M 562 116 L 399 116 L 562 348 L 562 116 Z" unicode="¾" />
<glyph horiz-adv-x="428" d="M 216 491 L 238 491 L 238 513 L 216 513 L 216 491 Z M 226 -219 C 254 -219 283 -213 312 -203 C 341 -192 365 -178 384 -160 L 384 -150 C 365 -168 341 -183 312 -195 C 283 -206 254 -212 226 -212 C 172 -212 130 -196 99 -164 C 67 -132 52 -96 52 -54 C 52 -23 58 5 72 33 C 86 61 107 92 137 126 C 173 168 197 204 211 235 C 224 266 231 304 231 348 L 223 348 C 223 304 216 267 203 237 C 190 207 166 171 131 131 C 100 95 78 64 64 36 C 50 8 44 -21 44 -54 C 44 -98 60 -136 93 -169 C 126 -202 170 -219 226 -219 Z" unicode="¿" />
<glyph horiz-adv-x="576" d="M 303 724 L 312 724 L 213 849 L 203 849 L 303 724 Z M 24 0 L 32 0 L 134 263 L 441 263 L 543 0 L 552 0 L 291 670 L 285 670 L 24 0 Z M 137 270 L 265 598 L 287 658 L 310 598 L 438 270 L 137 270 Z" unicode="À" />
<glyph horiz-adv-x="576" d="M 272 724 L 372 849 L 362 849 L 263 724 L 272 724 Z M 24 0 L 32 0 L 134 263 L 441 263 L 543 0 L 552 0 L 291 670 L 285 670 L 24 0 Z M 137 270 L 265 598 L 287 658 L 310 598 L 438 270 L 137 270 Z" unicode="Á" />
<glyph horiz-adv-x="576" d="M 196 724 L 287 836 L 377 724 L 387 724 L 290 843 L 284 843 L 187 724 L 196 724 Z M 24 0 L 32 0 L 134 263 L 441 263 L 543 0 L 552 0 L 291 670 L 285 670 L 24 0 Z M 137 270 L 265 598 L 287 658 L 310 598 L 438 270 L 137 270 Z" unicode="Â" />
<glyph horiz-adv-x="576" d="M 170 728 C 172 744 178 757 187 765 C 196 773 208 778 222 778 C 231 778 240 775 248 771 C 256 767 268 759 283 748 C 297 736 309 727 318 723 C 327 719 337 717 348 717 C 363 717 376 721 386 731 C 396 740 403 755 407 777 L 400 777 C 396 759 390 745 382 737 C 373 728 362 724 348 724 C 338 724 329 726 321 730 C 313 734 301 742 287 754 C 272 766 260 774 251 778 C 242 782 232 785 222 785 C 206 785 193 780 183 771 C 172 762 165 748 163 728 L 170 728 Z M 24 0 L 32 0 L 134 263 L 441 263 L 543 0 L 552 0 L 291 670 L 285 670 L 24 0 Z M 137 270 L 265 598 L 287 658 L 310 598 L 438 270 L 137 270 Z" unicode="Ã" />
<glyph horiz-adv-x="576" d="M 211 724 L 231 724 L 231 744 L 211 744 L 211 724 Z M 343 724 L 363 724 L 363 744 L 343 744 L 343 724 Z M 24 0 L 32 0 L 134 263 L 441 263 L 543 0 L 552 0 L 291 670 L 285 670 L 24 0 Z M 137 270 L 265 598 L 287 658 L 310 598 L 438 270 L 137 270 Z" unicode="Ä" />
<glyph horiz-adv-x="576" d="M 24 0 L 32 0 L 134 263 L 441 263 L 543 0 L 552 0 L 292 667 C 305 667 317 672 327 682 C 337 692 343 706 343 722 C 343 738 337 751 327 761 C 316 771 303 777 287 777 C 271 777 257 771 247 761 C 236 751 231 738 231 722 C 231 706 236 693 246 683 C 256 673 268 667 284 667 L 24 0 Z M 287 674 C 273 674 261 678 252 688 C 243 697 239 708 239 722 C 239 735 243 746 252 756 C 261 765 273 770 287 770 C 301 770 312 765 321 756 C 330 746 335 735 335 722 C 335 708 330 697 321 688 C 312 678 301 674 287 674 Z M 137 270 L 265 598 L 287 658 L 310 598 L 438 270 L 137 270 Z" unicode="Å" />
<glyph horiz-adv-x="797" d="M 16 0 L 24 0 L 172 255 L 400 255 L 400 0 L 733 0 L 733 7 L 408 7 L 408 330 L 705 330 L 705 337 L 408 337 L 408 651 L 721 651 L 721 658 L 398 658 L 16 0 Z M 176 262 L 371 598 L 400 648 L 400 262 L 176 262 Z" unicode="Æ" />
<glyph horiz-adv-x="651" d="M 395 -8 C 431 -8 468 -3 504 6 C 540 15 574 29 607 47 L 607 55 C 574 36 540 22 504 13 C 468 3 432 -1 395 -1 C 297 -1 218 29 158 90 C 98 150 68 230 68 328 C 68 427 98 507 158 568 C 218 628 297 659 395 659 C 431 659 466 655 500 647 C 534 639 567 628 600 614 L 600 622 C 567 636 533 647 499 655 C 465 662 430 666 395 666 C 295 666 214 634 152 572 C 90 510 60 428 60 328 C 60 227 90 146 152 84 C 214 22 295 -8 395 -8 Z M 390 -176 C 410 -176 427 -169 440 -157 C 452 -145 459 -129 459 -111 C 459 -92 452 -77 438 -65 C 424 -53 406 -48 384 -48 L 378 -48 L 378 -55 L 384 -55 C 404 -55 420 -60 432 -70 C 444 -80 451 -93 451 -111 C 451 -127 445 -141 434 -152 C 423 -163 408 -169 390 -169 C 381 -169 372 -167 362 -165 C 352 -162 344 -158 337 -154 L 337 -162 C 343 -166 351 -169 361 -172 C 371 -174 380 -176 390 -176 Z" unicode="Ç" />
<glyph horiz-adv-x="483" d="M 270 724 L 279 724 L 180 849 L 170 849 L 270 724 Z M 92 0 L 419 0 L 419 7 L 100 7 L 100 330 L 391 330 L 391 337 L 100 337 L 100 651 L 407 651 L 407 658 L 92 658 L 92 0 Z" unicode="È" />
<glyph horiz-adv-x="483" d="M 239 724 L 339 849 L 329 849 L 230 724 L 239 724 Z M 92 0 L 419 0 L 419 7 L 100 7 L 100 330 L 391 330 L 391 337 L 100 337 L 100 651 L 407 651 L 407 658 L 92 658 L 92 0 Z" unicode="É" />
<glyph horiz-adv-x="483" d="M 163 724 L 254 836 L 344 724 L 354 724 L 257 843 L 251 843 L 154 724 L 163 724 Z M 92 0 L 419 0 L 419 7 L 100 7 L 100 330 L 391 330 L 391 337 L 100 337 L 100 651 L 407 651 L 407 658 L 92 658 L 92 0 Z" unicode="Ê" />
<glyph horiz-adv-x="483" d="M 178 724 L 198 724 L 198 744 L 178 744 L 178 724 Z M 310 724 L 330 724 L 330 744 L 310 744 L 310 724 Z M 92 0 L 419 0 L 419 7 L 100 7 L 100 330 L 391 330 L 391 337 L 100 337 L 100 651 L 407 651 L 407 658 L 92 658 L 92 0 Z" unicode="Ë" />
<glyph horiz-adv-x="192" d="M 112 724 L 121 724 L 22 849 L 12 849 L 112 724 Z M 92 0 L 100 0 L 100 658 L 92 658 L 92 0 Z" unicode="Ì" />
<glyph horiz-adv-x="192" d="M 81 724 L 181 849 L 171 849 L 72 724 L 81 724 Z M 92 0 L 100 0 L 100 658 L 92 658 L 92 0 Z" unicode="Í" />
<glyph horiz-adv-x="192" d="M 5 724 L 96 836 L 186 724 L 196 724 L 99 843 L 93 843 L -4 724 L 5 724 Z M 92 0 L 100 0 L 100 658 L 92 658 L 92 0 Z" unicode="Î" />
<glyph horiz-adv-x="192" d="M 20 724 L 40 724 L 40 744 L 20 744 L 20 724 Z M 152 724 L 172 724 L 172 744 L 152 744 L 152 724 Z M 92 0 L 100 0 L 100 658 L 92 658 L 92 0 Z" unicode="Ï" />
<glyph horiz-adv-x="684" d="M 96 0 L 259 0 C 367 0 455 31 523 93 C 590 155 624 236 624 337 C 624 433 591 510 525 569 C 459 628 373 658 267 658 L 96 658 L 96 339 L 12 339 L 12 332 L 96 332 L 96 0 Z M 104 7 L 104 332 L 252 332 L 252 339 L 104 339 L 104 651 L 268 651 C 372 651 456 622 520 564 C 584 506 616 430 616 337 C 616 238 583 158 518 98 C 452 37 366 7 260 7 L 104 7 Z" unicode="Ð" />
<glyph horiz-adv-x="704" d="M 236 728 C 238 744 244 757 253 765 C 262 773 274 778 288 778 C 297 778 306 775 314 771 C 322 767 334 759 349 748 C 363 736 375 727 384 723 C 393 719 403 717 414 717 C 429 717 442 721 452 731 C 462 740 469 755 473 777 L 466 777 C 462 759 456 745 448 737 C 439 728 428 724 414 724 C 404 724 395 726 387 730 C 379 734 367 742 353 754 C 338 766 326 774 317 778 C 308 782 298 785 288 785 C 272 785 259 780 249 771 C 238 762 231 748 229 728 L 236 728 Z M 92 0 L 99 0 L 99 649 L 147 587 L 603 0 L 612 0 L 612 658 L 605 658 L 605 11 L 558 71 L 102 658 L 92 658 L 92 0 Z" unicode="Ñ" />
<glyph horiz-adv-x="768" d="M 400 724 L 409 724 L 310 849 L 300 849 L 400 724 Z M 384 -8 C 480 -8 558 23 618 85 C 678 147 708 228 708 329 C 708 429 678 511 618 573 C 558 635 480 666 384 666 C 287 666 209 635 149 573 C 89 511 60 429 60 329 C 60 228 89 147 149 85 C 209 23 287 -8 384 -8 Z M 384 -1 C 289 -1 213 29 155 90 C 97 150 68 230 68 329 C 68 428 97 508 155 568 C 213 628 289 659 384 659 C 478 659 555 628 613 568 C 671 508 700 428 700 329 C 700 230 671 150 613 90 C 555 29 478 -1 384 -1 Z" unicode="Ò" />
<glyph horiz-adv-x="768" d="M 369 724 L 469 849 L 459 849 L 360 724 L 369 724 Z M 384 -8 C 480 -8 558 23 618 85 C 678 147 708 228 708 329 C 708 429 678 511 618 573 C 558 635 480 666 384 666 C 287 666 209 635 149 573 C 89 511 60 429 60 329 C 60 228 89 147 149 85 C 209 23 287 -8 384 -8 Z M 384 -1 C 289 -1 213 29 155 90 C 97 150 68 230 68 329 C 68 428 97 508 155 568 C 213 628 289 659 384 659 C 478 659 555 628 613 568 C 671 508 700 428 700 329 C 700 230 671 150 613 90 C 555 29 478 -1 384 -1 Z" unicode="Ó" />
<glyph horiz-adv-x="768" d="M 293 724 L 384 836 L 474 724 L 484 724 L 387 843 L 381 843 L 284 724 L 293 724 Z M 384 -8 C 480 -8 558 23 618 85 C 678 147 708 228 708 329 C 708 429 678 511 618 573 C 558 635 480 666 384 666 C 287 666 209 635 149 573 C 89 511 60 429 60 329 C 60 228 89 147 149 85 C 209 23 287 -8 384 -8 Z M 384 -1 C 289 -1 213 29 155 90 C 97 150 68 230 68 329 C 68 428 97 508 155 568 C 213 628 289 659 384 659 C 478 659 555 628 613 568 C 671 508 700 428 700 329 C 700 230 671 150 613 90 C 555 29 478 -1 384 -1 Z" unicode="Ô" />
<glyph horiz-adv-x="768" d="M 267 728 C 269 744 275 757 284 765 C 293 773 305 778 319 778 C 328 778 337 775 345 771 C 353 767 365 759 380 748 C 394 736 406 727 415 723 C 424 719 434 717 445 717 C 460 717 473 721 483 731 C 493 740 500 755 504 777 L 497 777 C 493 759 487 745 479 737 C 470 728 459 724 445 724 C 435 724 426 726 418 730 C 410 734 398 742 384 754 C 369 766 357 774 348 778 C 339 782 329 785 319 785 C 303 785 290 780 280 771 C 269 762 262 748 260 728 L 267 728 Z M 384 -8 C 480 -8 558 23 618 85 C 678 147 708 228 708 329 C 708 429 678 511 618 573 C 558 635 480 666 384 666 C 287 666 209 635 149 573 C 89 511 60 429 60 329 C 60 228 89 147 149 85 C 209 23 287 -8 384 -8 Z M 384 -1 C 289 -1 213 29 155 90 C 97 150 68 230 68 329 C 68 428 97 508 155 568 C 213 628 289 659 384 659 C 478 659 555 628 613 568 C 671 508 700 428 700 329 C 700 230 671 150 613 90 C 555 29 478 -1 384 -1 Z" unicode="Õ" />
<glyph horiz-adv-x="768" d="M 308 724 L 328 724 L 328 744 L 308 744 L 308 724 Z M 440 724 L 460 724 L 460 744 L 440 744 L 440 724 Z M 384 -8 C 480 -8 558 23 618 85 C 678 147 708 228 708 329 C 708 429 678 511 618 573 C 558 635 480 666 384 666 C 287 666 209 635 149 573 C 89 511 60 429 60 329 C 60 228 89 147 149 85 C 209 23 287 -8 384 -8 Z M 384 -1 C 289 -1 213 29 155 90 C 97 150 68 230 68 329 C 68 428 97 508 155 568 C 213 628 289 659 384 659 C 478 659 555 628 613 568 C 671 508 700 428 700 329 C 700 230 671 150 613 90 C 555 29 478 -1 384 -1 Z" unicode="Ö" />
<glyph horiz-adv-x="482" d="M 77 126 L 238 286 L 405 120 L 410 125 L 243 291 L 403 451 L 398 456 L 238 296 L 78 458 L 73 453 L 233 291 L 72 131 L 77 126 Z" unicode="×" />
<glyph horiz-adv-x="768" d="M 151 -48 L 159 -48 L 211 36 C 235 22 261 11 291 3 C 320 -4 351 -8 384 -8 C 480 -8 558 23 618 85 C 678 147 708 228 708 329 C 708 393 695 449 670 499 C 645 549 611 588 567 616 L 622 706 L 614 706 L 561 620 C 536 634 509 646 479 654 C 449 662 418 666 384 666 C 287 666 209 635 149 573 C 89 511 60 429 60 329 C 60 264 72 207 98 157 C 124 107 159 68 205 40 L 151 -48 Z M 68 329 C 68 428 97 508 155 568 C 213 628 289 659 384 659 C 416 659 447 655 477 647 C 506 639 533 628 557 614 L 209 46 C 165 73 130 111 105 160 C 80 208 68 265 68 329 Z M 384 -1 C 351 -1 320 2 292 10 C 264 17 238 28 214 42 L 563 610 C 605 582 639 544 663 496 C 687 448 700 392 700 329 C 700 230 671 150 613 90 C 555 29 478 -1 384 -1 Z" unicode="Ø" />
<glyph horiz-adv-x="663" d="M 351 724 L 360 724 L 261 849 L 251 849 L 351 724 Z M 331 -9 C 405 -9 464 15 510 63 C 556 111 579 174 579 252 L 579 658 L 571 658 L 571 252 C 571 176 549 115 505 69 C 461 22 403 -1 331 -1 C 259 -1 202 22 158 69 C 114 115 92 176 92 252 L 92 658 L 84 658 L 84 252 C 84 174 106 111 152 63 C 198 15 257 -9 331 -9 Z" unicode="Ù" />
<glyph horiz-adv-x="663" d="M 320 724 L 420 849 L 410 849 L 311 724 L 320 724 Z M 331 -9 C 405 -9 464 15 510 63 C 556 111 579 174 579 252 L 579 658 L 571 658 L 571 252 C 571 176 549 115 505 69 C 461 22 403 -1 331 -1 C 259 -1 202 22 158 69 C 114 115 92 176 92 252 L 92 658 L 84 658 L 84 252 C 84 174 106 111 152 63 C 198 15 257 -9 331 -9 Z" unicode="Ú" />
<glyph horiz-adv-x="663" d="M 244 724 L 335 836 L 425 724 L 435 724 L 338 843 L 332 843 L 235 724 L 244 724 Z M 331 -9 C 405 -9 464 15 510 63 C 556 111 579 174 579 252 L 579 658 L 571 658 L 571 252 C 571 176 549 115 505 69 C 461 22 403 -1 331 -1 C 259 -1 202 22 158 69 C 114 115 92 176 92 252 L 92 658 L 84 658 L 84 252 C 84 174 106 111 152 63 C 198 15 257 -9 331 -9 Z" unicode="Û" />
<glyph horiz-adv-x="663" d="M 259 724 L 279 724 L 279 744 L 259 744 L 259 724 Z M 391 724 L 411 724 L 411 744 L 391 744 L 391 724 Z M 331 -9 C 405 -9 464 15 510 63 C 556 111 579 174 579 252 L 579 658 L 571 658 L 571 252 C 571 176 549 115 505 69 C 461 22 403 -1 331 -1 C 259 -1 202 22 158 69 C 114 115 92 176 92 252 L 92 658 L 84 658 L 84 252 C 84 174 106 111 152 63 C 198 15 257 -9 331 -9 Z" unicode="Ü" />
<glyph horiz-adv-x="519" d="M 245 724 L 345 849 L 335 849 L 236 724 L 245 724 Z M 255 0 L 263 0 L 263 309 L 499 658 L 490 658 L 289 361 L 260 317 L 231 360 L 30 658 L 20 658 L 255 309 L 255 0 Z" unicode="Ý" />
<glyph horiz-adv-x="463" d="M 92 0 L 100 0 L 100 156 L 179 156 C 242 156 293 172 332 205 C 371 238 391 281 391 335 C 391 388 371 431 332 464 C 293 497 242 514 179 514 L 100 514 L 100 658 L 92 658 L 92 0 Z M 100 163 L 100 507 L 178 507 C 239 507 288 491 326 459 C 364 427 383 386 383 335 C 383 283 364 242 326 210 C 288 178 239 163 179 163 L 100 163 Z" unicode="Þ" />
<glyph horiz-adv-x="508" d="M 80 0 L 88 0 L 88 527 C 88 586 104 634 136 670 C 168 706 210 725 262 725 C 324 725 371 699 403 648 C 434 596 443 531 431 452 C 413 458 396 463 380 466 C 364 468 348 470 332 470 C 292 470 260 460 236 440 C 212 420 201 394 201 362 C 201 333 210 308 229 288 C 248 267 276 250 313 238 L 328 233 C 370 219 400 202 418 183 C 436 163 446 138 446 108 C 446 75 434 49 412 29 C 390 9 361 0 325 0 C 303 0 280 3 256 11 C 232 19 211 29 194 42 L 194 33 C 211 21 232 11 256 4 C 280 -3 303 -7 325 -7 C 363 -7 394 3 418 25 C 442 46 454 74 454 108 C 454 140 444 167 425 188 C 405 208 374 226 330 241 L 315 246 C 280 257 254 272 236 292 C 218 312 209 335 209 362 C 209 392 220 416 242 435 C 264 453 294 463 332 463 C 349 463 366 461 383 458 C 399 454 417 449 437 442 C 439 458 440 471 441 483 C 442 495 443 507 443 519 C 443 583 426 634 393 673 C 359 712 316 732 262 732 C 208 732 164 713 130 675 C 96 637 80 588 80 527 L 80 0 Z" unicode="ß" />
<glyph horiz-adv-x="416" d="M 223 524 L 232 524 L 133 649 L 123 649 L 223 524 Z M 192 -8 C 222 -8 250 -1 274 11 C 298 23 319 42 336 67 L 338 0 L 344 0 L 344 326 C 344 370 331 405 306 431 C 281 457 248 470 207 470 C 184 470 160 465 135 457 C 110 449 88 438 70 424 L 70 415 C 88 429 110 441 136 450 C 161 458 185 463 207 463 C 245 463 276 450 300 426 C 324 401 336 368 336 326 L 336 270 L 204 255 C 158 250 122 235 94 210 C 66 185 52 155 52 119 C 52 81 65 50 91 27 C 117 3 151 -8 192 -8 Z M 192 -1 C 153 -1 121 10 97 32 C 72 54 60 83 60 119 C 60 153 73 181 99 205 C 125 229 161 243 205 248 L 336 263 L 336 77 C 319 51 298 32 274 19 C 249 5 222 -1 192 -1 Z" unicode="à" />
<glyph horiz-adv-x="416" d="M 192 524 L 292 649 L 282 649 L 183 524 L 192 524 Z M 192 -8 C 222 -8 250 -1 274 11 C 298 23 319 42 336 67 L 338 0 L 344 0 L 344 326 C 344 370 331 405 306 431 C 281 457 248 470 207 470 C 184 470 160 465 135 457 C 110 449 88 438 70 424 L 70 415 C 88 429 110 441 136 450 C 161 458 185 463 207 463 C 245 463 276 450 300 426 C 324 401 336 368 336 326 L 336 270 L 204 255 C 158 250 122 235 94 210 C 66 185 52 155 52 119 C 52 81 65 50 91 27 C 117 3 151 -8 192 -8 Z M 192 -1 C 153 -1 121 10 97 32 C 72 54 60 83 60 119 C 60 153 73 181 99 205 C 125 229 161 243 205 248 L 336 263 L 336 77 C 319 51 298 32 274 19 C 249 5 222 -1 192 -1 Z" unicode="á" />
<glyph horiz-adv-x="416" d="M 116 524 L 207 636 L 297 524 L 307 524 L 210 643 L 204 643 L 107 524 L 116 524 Z M 192 -8 C 222 -8 250 -1 274 11 C 298 23 319 42 336 67 L 338 0 L 344 0 L 344 326 C 344 370 331 405 306 431 C 281 457 248 470 207 470 C 184 470 160 465 135 457 C 110 449 88 438 70 424 L 70 415 C 88 429 110 441 136 450 C 161 458 185 463 207 463 C 245 463 276 450 300 426 C 324 401 336 368 336 326 L 336 270 L 204 255 C 158 250 122 235 94 210 C 66 185 52 155 52 119 C 52 81 65 50 91 27 C 117 3 151 -8 192 -8 Z M 192 -1 C 153 -1 121 10 97 32 C 72 54 60 83 60 119 C 60 153 73 181 99 205 C 125 229 161 243 205 248 L 336 263 L 336 77 C 319 51 298 32 274 19 C 249 5 222 -1 192 -1 Z" unicode="â" />
<glyph horiz-adv-x="416" d="M 90 548 C 92 564 98 577 107 585 C 116 593 128 598 142 598 C 151 598 160 595 168 591 C 176 587 188 579 203 568 C 217 556 229 547 238 543 C 247 539 257 537 268 537 C 283 537 296 541 306 551 C 316 560 323 575 327 597 L 320 597 C 316 579 310 565 302 557 C 293 548 282 544 268 544 C 258 544 249 546 241 550 C 233 554 221 562 207 574 C 192 586 180 594 171 598 C 162 602 152 605 142 605 C 126 605 113 600 103 591 C 92 582 85 568 83 548 L 90 548 Z M 192 -8 C 222 -8 250 -1 274 11 C 298 23 319 42 336 67 L 338 0 L 344 0 L 344 326 C 344 370 331 405 306 431 C 281 457 248 470 207 470 C 184 470 160 465 135 457 C 110 449 88 438 70 424 L 70 415 C 88 429 110 441 136 450 C 161 458 185 463 207 463 C 245 463 276 450 300 426 C 324 401 336 368 336 326 L 336 270 L 204 255 C 158 250 122 235 94 210 C 66 185 52 155 52 119 C 52 81 65 50 91 27 C 117 3 151 -8 192 -8 Z M 192 -1 C 153 -1 121 10 97 32 C 72 54 60 83 60 119 C 60 153 73 181 99 205 C 125 229 161 243 205 248 L 336 263 L 336 77 C 319 51 298 32 274 19 C 249 5 222 -1 192 -1 Z" unicode="ã" />
<glyph horiz-adv-x="416" d="M 131 548 L 151 548 L 151 568 L 131 568 L 131 548 Z M 263 548 L 283 548 L 283 568 L 263 568 L 263 548 Z M 192 -8 C 222 -8 250 -1 274 11 C 298 23 319 42 336 67 L 338 0 L 344 0 L 344 326 C 344 370 331 405 306 431 C 281 457 248 470 207 470 C 184 470 160 465 135 457 C 110 449 88 438 70 424 L 70 415 C 88 429 110 441 136 450 C 161 458 185 463 207 463 C 245 463 276 450 300 426 C 324 401 336 368 336 326 L 336 270 L 204 255 C 158 250 122 235 94 210 C 66 185 52 155 52 119 C 52 81 65 50 91 27 C 117 3 151 -8 192 -8 Z M 192 -1 C 153 -1 121 10 97 32 C 72 54 60 83 60 119 C 60 153 73 181 99 205 C 125 229 161 243 205 248 L 336 263 L 336 77 C 319 51 298 32 274 19 C 249 5 222 -1 192 -1 Z" unicode="ä" />
<glyph horiz-adv-x="416" d="M 207 513 C 223 513 236 518 247 528 C 257 538 263 552 263 568 C 263 584 257 597 247 607 C 236 617 223 623 207 623 C 191 623 177 617 167 607 C 156 597 151 584 151 568 C 151 552 156 538 167 528 C 177 518 191 513 207 513 Z M 207 520 C 193 520 181 524 172 534 C 163 543 159 554 159 568 C 159 581 163 592 172 602 C 181 611 193 616 207 616 C 221 616 232 611 241 602 C 250 592 255 581 255 568 C 255 554 250 543 241 534 C 232 524 221 520 207 520 Z M 192 -8 C 222 -8 250 -1 274 11 C 298 23 319 42 336 67 L 338 0 L 344 0 L 344 326 C 344 370 331 405 306 431 C 281 457 248 470 207 470 C 184 470 160 465 135 457 C 110 449 88 438 70 424 L 70 415 C 88 429 110 441 136 450 C 161 458 185 463 207 463 C 245 463 276 450 300 426 C 324 401 336 368 336 326 L 336 270 L 204 255 C 158 250 122 235 94 210 C 66 185 52 155 52 119 C 52 81 65 50 91 27 C 117 3 151 -8 192 -8 Z M 192 -1 C 153 -1 121 10 97 32 C 72 54 60 83 60 119 C 60 153 73 181 99 205 C 125 229 161 243 205 248 L 336 263 L 336 77 C 319 51 298 32 274 19 C 249 5 222 -1 192 -1 Z" unicode="å" />
<glyph horiz-adv-x="765" d="M 184 -8 C 224 -8 259 7 290 39 C 321 71 338 112 342 164 C 352 111 374 69 407 38 C 440 7 483 -8 535 -8 C 563 -8 591 -3 619 5 C 647 13 674 26 700 44 L 700 53 C 675 36 649 23 621 13 C 593 3 565 -1 535 -1 C 470 -1 422 21 391 67 C 359 112 344 162 344 218 L 344 245 L 711 245 L 711 252 C 711 317 694 370 660 410 C 626 450 582 470 527 470 C 482 470 443 456 411 430 C 378 403 355 364 343 313 C 341 365 328 404 303 430 C 278 456 246 470 207 470 C 184 470 160 465 135 457 C 110 449 88 438 70 424 L 70 415 C 88 429 110 441 136 450 C 161 458 185 463 207 463 C 245 463 276 449 300 423 C 324 397 336 358 336 307 L 336 252 L 213 252 C 165 252 126 240 96 218 C 66 196 52 163 52 119 C 52 81 64 50 89 27 C 114 3 146 -8 184 -8 Z M 527 463 C 579 463 622 443 654 405 C 686 366 703 315 703 252 L 344 252 C 345 315 362 366 396 405 C 429 443 473 463 527 463 Z M 184 -1 C 148 -1 118 10 95 32 C 71 54 60 83 60 119 C 60 157 73 187 99 210 C 125 233 163 245 214 245 L 336 245 L 336 183 C 336 133 321 90 293 54 C 264 17 228 -1 184 -1 Z" unicode="æ" />
<glyph horiz-adv-x="469" d="M 275 -8 C 299 -8 324 -4 350 4 C 375 12 397 22 417 35 L 417 43 C 397 30 374 19 348 11 C 322 3 297 -1 275 -1 C 210 -1 158 20 118 62 C 78 104 58 160 58 230 C 58 299 77 355 116 398 C 154 441 205 463 269 463 C 293 463 318 459 343 452 C 368 445 393 435 417 422 L 417 430 C 394 442 370 452 345 459 C 319 466 294 470 269 470 C 203 470 150 447 110 403 C 70 359 50 301 50 230 C 50 158 70 101 112 57 C 153 13 207 -8 275 -8 Z M 232 -176 C 252 -176 269 -169 282 -157 C 294 -145 301 -129 301 -111 C 301 -92 294 -77 280 -65 C 266 -53 248 -48 226 -48 L 220 -48 L 220 -55 L 226 -55 C 246 -55 262 -60 274 -70 C 286 -80 293 -93 293 -111 C 293 -127 287 -141 276 -152 C 265 -163 250 -169 232 -169 C 223 -169 214 -167 204 -165 C 194 -162 186 -158 179 -154 L 179 -162 C 185 -166 193 -169 203 -172 C 213 -174 222 -176 232 -176 Z" unicode="ç" />
<glyph horiz-adv-x="492" d="M 267 524 L 276 524 L 177 649 L 167 649 L 267 524 Z M 262 -8 C 290 -8 319 -3 347 5 C 375 13 401 26 426 43 L 426 52 C 402 35 376 22 348 13 C 320 3 292 -1 262 -1 C 201 -1 152 20 114 63 C 76 105 58 161 58 231 L 58 250 L 438 250 L 438 252 C 438 317 421 370 387 410 C 353 450 308 470 254 470 C 192 470 142 448 105 405 C 68 361 50 304 50 233 C 50 161 69 102 108 58 C 147 14 198 -8 262 -8 Z M 254 463 C 306 463 348 444 381 406 C 413 368 430 319 430 257 L 59 257 C 62 319 81 368 117 406 C 152 444 198 463 254 463 Z" unicode="è" />
<glyph horiz-adv-x="492" d="M 236 524 L 336 649 L 326 649 L 227 524 L 236 524 Z M 262 -8 C 290 -8 319 -3 347 5 C 375 13 401 26 426 43 L 426 52 C 402 35 376 22 348 13 C 320 3 292 -1 262 -1 C 201 -1 152 20 114 63 C 76 105 58 161 58 231 L 58 250 L 438 250 L 438 252 C 438 317 421 370 387 410 C 353 450 308 470 254 470 C 192 470 142 448 105 405 C 68 361 50 304 50 233 C 50 161 69 102 108 58 C 147 14 198 -8 262 -8 Z M 254 463 C 306 463 348 444 381 406 C 413 368 430 319 430 257 L 59 257 C 62 319 81 368 117 406 C 152 444 198 463 254 463 Z" unicode="é" />
<glyph horiz-adv-x="492" d="M 160 524 L 251 636 L 341 524 L 351 524 L 254 643 L 248 643 L 151 524 L 160 524 Z M 262 -8 C 290 -8 319 -3 347 5 C 375 13 401 26 426 43 L 426 52 C 402 35 376 22 348 13 C 320 3 292 -1 262 -1 C 201 -1 152 20 114 63 C 76 105 58 161 58 231 L 58 250 L 438 250 L 438 252 C 438 317 421 370 387 410 C 353 450 308 470 254 470 C 192 470 142 448 105 405 C 68 361 50 304 50 233 C 50 161 69 102 108 58 C 147 14 198 -8 262 -8 Z M 254 463 C 306 463 348 444 381 406 C 413 368 430 319 430 257 L 59 257 C 62 319 81 368 117 406 C 152 444 198 463 254 463 Z" unicode="ê" />
<glyph horiz-adv-x="492" d="M 175 548 L 195 548 L 195 568 L 175 568 L 175 548 Z M 307 548 L 327 548 L 327 568 L 307 568 L 307 548 Z M 262 -8 C 290 -8 319 -3 347 5 C 375 13 401 26 426 43 L 426 52 C 402 35 376 22 348 13 C 320 3 292 -1 262 -1 C 201 -1 152 20 114 63 C 76 105 58 161 58 231 L 58 250 L 438 250 L 438 252 C 438 317 421 370 387 410 C 353 450 308 470 254 470 C 192 470 142 448 105 405 C 68 361 50 304 50 233 C 50 161 69 102 108 58 C 147 14 198 -8 262 -8 Z M 254 463 C 306 463 348 444 381 406 C 413 368 430 319 430 257 L 59 257 C 62 319 81 368 117 406 C 152 444 198 463 254 463 Z" unicode="ë" />
<glyph horiz-adv-x="160" d="M 95 524 L 104 524 L 5 649 L -5 649 L 95 524 Z M 76 0 L 84 0 L 84 462 L 76 462 L 76 0 Z" unicode="ì" />
<glyph horiz-adv-x="160" d="M 64 524 L 164 649 L 154 649 L 55 524 L 64 524 Z M 76 0 L 84 0 L 84 462 L 76 462 L 76 0 Z" unicode="í" />
<glyph horiz-adv-x="160" d="M -12 524 L 79 636 L 169 524 L 179 524 L 82 643 L 76 643 L -21 524 L -12 524 Z M 76 0 L 84 0 L 84 462 L 76 462 L 76 0 Z" unicode="î" />
<glyph horiz-adv-x="160" d="M 3 548 L 23 548 L 23 568 L 3 568 L 3 548 Z M 135 548 L 155 548 L 155 568 L 135 568 L 135 548 Z M 76 0 L 84 0 L 84 462 L 76 462 L 76 0 Z" unicode="ï" />
<glyph horiz-adv-x="550" d="M 267 -8 C 336 -8 392 18 434 70 C 476 122 498 190 498 274 C 498 343 485 409 459 472 C 433 534 395 592 345 644 L 428 672 L 426 679 L 339 650 C 323 666 305 681 287 697 C 268 712 248 727 228 742 L 223 736 C 243 722 263 708 281 693 C 299 678 316 663 332 647 L 244 618 L 246 611 L 338 642 C 388 590 425 534 451 473 C 477 412 490 347 491 278 C 485 332 462 378 424 415 C 386 451 337 470 278 470 C 210 470 155 448 113 404 C 71 360 50 302 50 231 C 50 159 70 102 110 58 C 150 14 202 -8 267 -8 Z M 267 -1 C 205 -1 154 20 116 63 C 77 105 58 161 58 231 C 58 300 78 356 118 399 C 158 441 212 463 278 463 C 333 463 380 445 419 410 C 458 374 481 325 489 261 C 489 187 468 125 428 75 C 388 24 334 -1 267 -1 Z" unicode="ð" />
<glyph horiz-adv-x="462" d="M 105 548 C 107 564 113 577 122 585 C 131 593 143 598 157 598 C 166 598 175 595 183 591 C 191 587 203 579 218 568 C 232 556 244 547 253 543 C 262 539 272 537 283 537 C 298 537 311 541 321 551 C 331 560 338 575 342 597 L 335 597 C 331 579 325 565 317 557 C 308 548 297 544 283 544 C 273 544 264 546 256 550 C 248 554 236 562 222 574 C 207 586 195 594 186 598 C 177 602 167 605 157 605 C 141 605 128 600 118 591 C 107 582 100 568 98 548 L 105 548 Z M 76 0 L 84 0 L 84 370 C 97 398 117 420 144 437 C 171 454 201 463 233 463 C 276 463 312 448 340 420 C 368 391 382 353 382 307 L 382 0 L 390 0 L 390 307 C 390 355 375 395 346 425 C 316 455 279 470 233 470 C 201 470 171 462 145 446 C 118 430 98 410 84 384 L 84 462 L 76 462 L 76 0 Z" unicode="ñ" />
<glyph horiz-adv-x="548" d="M 290 524 L 299 524 L 200 649 L 190 649 L 290 524 Z M 274 -8 C 340 -8 394 14 436 58 C 477 102 498 159 498 231 C 498 302 477 360 436 404 C 394 448 340 470 274 470 C 207 470 153 448 112 404 C 70 360 50 302 50 231 C 50 159 70 102 112 58 C 153 14 207 -8 274 -8 Z M 274 -1 C 209 -1 157 20 117 63 C 77 105 58 161 58 231 C 58 300 77 356 117 399 C 157 441 209 463 274 463 C 338 463 390 441 430 399 C 470 356 490 300 490 231 C 490 161 470 105 430 63 C 390 20 338 -1 274 -1 Z" unicode="ò" />
<glyph horiz-adv-x="548" d="M 259 524 L 359 649 L 349 649 L 250 524 L 259 524 Z M 274 -8 C 340 -8 394 14 436 58 C 477 102 498 159 498 231 C 498 302 477 360 436 404 C 394 448 340 470 274 470 C 207 470 153 448 112 404 C 70 360 50 302 50 231 C 50 159 70 102 112 58 C 153 14 207 -8 274 -8 Z M 274 -1 C 209 -1 157 20 117 63 C 77 105 58 161 58 231 C 58 300 77 356 117 399 C 157 441 209 463 274 463 C 338 463 390 441 430 399 C 470 356 490 300 490 231 C 490 161 470 105 430 63 C 390 20 338 -1 274 -1 Z" unicode="ó" />
<glyph horiz-adv-x="548" d="M 183 524 L 274 636 L 364 524 L 374 524 L 277 643 L 271 643 L 174 524 L 183 524 Z M 274 -8 C 340 -8 394 14 436 58 C 477 102 498 159 498 231 C 498 302 477 360 436 404 C 394 448 340 470 274 470 C 207 470 153 448 112 404 C 70 360 50 302 50 231 C 50 159 70 102 112 58 C 153 14 207 -8 274 -8 Z M 274 -1 C 209 -1 157 20 117 63 C 77 105 58 161 58 231 C 58 300 77 356 117 399 C 157 441 209 463 274 463 C 338 463 390 441 430 399 C 470 356 490 300 490 231 C 490 161 470 105 430 63 C 390 20 338 -1 274 -1 Z" unicode="ô" />
<glyph horiz-adv-x="548" d="M 157 548 C 159 564 165 577 174 585 C 183 593 195 598 209 598 C 218 598 227 595 235 591 C 243 587 255 579 270 568 C 284 556 296 547 305 543 C 314 539 324 537 335 537 C 350 537 363 541 373 551 C 383 560 390 575 394 597 L 387 597 C 383 579 377 565 369 557 C 360 548 349 544 335 544 C 325 544 316 546 308 550 C 300 554 288 562 274 574 C 259 586 247 594 238 598 C 229 602 219 605 209 605 C 193 605 180 600 170 591 C 159 582 152 568 150 548 L 157 548 Z M 274 -8 C 340 -8 394 14 436 58 C 477 102 498 159 498 231 C 498 302 477 360 436 404 C 394 448 340 470 274 470 C 207 470 153 448 112 404 C 70 360 50 302 50 231 C 50 159 70 102 112 58 C 153 14 207 -8 274 -8 Z M 274 -1 C 209 -1 157 20 117 63 C 77 105 58 161 58 231 C 58 300 77 356 117 399 C 157 441 209 463 274 463 C 338 463 390 441 430 399 C 470 356 490 300 490 231 C 490 161 470 105 430 63 C 390 20 338 -1 274 -1 Z" unicode="õ" />
<glyph horiz-adv-x="548" d="M 198 548 L 218 548 L 218 568 L 198 568 L 198 548 Z M 330 548 L 350 548 L 350 568 L 330 568 L 330 548 Z M 274 -8 C 340 -8 394 14 436 58 C 477 102 498 159 498 231 C 498 302 477 360 436 404 C 394 448 340 470 274 470 C 207 470 153 448 112 404 C 70 360 50 302 50 231 C 50 159 70 102 112 58 C 153 14 207 -8 274 -8 Z M 274 -1 C 209 -1 157 20 117 63 C 77 105 58 161 58 231 C 58 300 77 356 117 399 C 157 441 209 463 274 463 C 338 463 390 441 430 399 C 470 356 490 300 490 231 C 490 161 470 105 430 63 C 390 20 338 -1 274 -1 Z" unicode="ö" />
<glyph horiz-adv-x="532" d="M 257 453 L 277 453 L 277 473 L 257 473 L 257 453 Z M 52 284 L 480 284 L 480 291 L 52 291 L 52 284 Z M 257 102 L 277 102 L 277 122 L 257 122 L 257 102 Z" unicode="÷" />
<glyph horiz-adv-x="548" d="M 101 -48 L 109 -48 L 153 24 C 169 13 188 5 209 0 C 229 -5 251 -8 274 -8 C 340 -8 394 14 436 58 C 477 102 498 159 498 231 C 498 276 489 316 472 351 C 454 386 430 414 400 434 L 446 510 L 438 510 L 395 438 C 378 448 359 456 339 462 C 318 467 296 470 274 470 C 207 470 153 448 112 404 C 70 360 50 302 50 231 C 50 185 58 145 75 110 C 92 75 116 48 147 28 L 101 -48 Z M 58 231 C 58 300 77 356 117 399 C 157 441 209 463 274 463 C 296 463 317 460 337 455 C 356 449 374 442 391 432 L 151 34 C 121 53 98 80 82 114 C 66 148 58 187 58 231 Z M 274 -1 C 251 -1 230 1 210 7 C 190 12 172 20 156 31 L 397 428 C 425 408 448 382 465 348 C 481 314 490 275 490 231 C 490 161 470 105 430 63 C 390 20 338 -1 274 -1 Z" unicode="ø" />
<glyph horiz-adv-x="462" d="M 243 524 L 252 524 L 153 649 L 143 649 L 243 524 Z M 229 -8 C 260 -8 289 0 316 15 C 343 31 364 52 378 78 L 380 0 L 386 0 L 386 462 L 378 462 L 378 92 C 364 64 344 41 318 24 C 291 7 261 -1 229 -1 C 185 -1 149 13 121 42 C 93 70 80 108 80 155 L 80 462 L 72 462 L 72 155 C 72 106 86 67 116 37 C 145 7 183 -8 229 -8 Z" unicode="ù" />
<glyph horiz-adv-x="462" d="M 212 524 L 312 649 L 302 649 L 203 524 L 212 524 Z M 229 -8 C 260 -8 289 0 316 15 C 343 31 364 52 378 78 L 380 0 L 386 0 L 386 462 L 378 462 L 378 92 C 364 64 344 41 318 24 C 291 7 261 -1 229 -1 C 185 -1 149 13 121 42 C 93 70 80 108 80 155 L 80 462 L 72 462 L 72 155 C 72 106 86 67 116 37 C 145 7 183 -8 229 -8 Z" unicode="ú" />
<glyph horiz-adv-x="462" d="M 136 524 L 227 636 L 317 524 L 327 524 L 230 643 L 224 643 L 127 524 L 136 524 Z M 229 -8 C 260 -8 289 0 316 15 C 343 31 364 52 378 78 L 380 0 L 386 0 L 386 462 L 378 462 L 378 92 C 364 64 344 41 318 24 C 291 7 261 -1 229 -1 C 185 -1 149 13 121 42 C 93 70 80 108 80 155 L 80 462 L 72 462 L 72 155 C 72 106 86 67 116 37 C 145 7 183 -8 229 -8 Z" unicode="û" />
<glyph horiz-adv-x="462" d="M 151 548 L 171 548 L 171 568 L 151 568 L 151 548 Z M 283 548 L 303 548 L 303 568 L 283 568 L 283 548 Z M 229 -8 C 260 -8 289 0 316 15 C 343 31 364 52 378 78 L 380 0 L 386 0 L 386 462 L 378 462 L 378 92 C 364 64 344 41 318 24 C 291 7 261 -1 229 -1 C 185 -1 149 13 121 42 C 93 70 80 108 80 155 L 80 462 L 72 462 L 72 155 C 72 106 86 67 116 37 C 145 7 183 -8 229 -8 Z" unicode="ü" />
<glyph horiz-adv-x="418" d="M 204 524 L 304 649 L 294 649 L 195 524 L 204 524 Z M -4 -220 C 41 -220 80 -203 114 -169 C 147 -135 180 -78 213 0 L 402 462 L 394 462 L 234 71 L 210 10 L 185 71 L 25 462 L 16 462 L 205 1 L 206 -1 C 174 -76 141 -130 109 -163 C 77 -196 39 -213 -4 -213 L -12 -213 L -12 -220 L -4 -220 Z" unicode="ý" />
<glyph horiz-adv-x="489" d="M 76 -220 L 84 -220 L 84 45 C 102 29 125 16 152 6 C 179 -4 205 -9 230 -9 C 290 -9 339 13 379 58 C 419 103 439 162 439 235 C 439 305 420 361 383 405 C 346 448 297 470 235 470 C 207 470 180 465 155 455 C 129 445 106 430 84 412 L 84 724 L 76 724 L 76 -220 Z M 230 -2 C 205 -2 179 3 152 14 C 125 24 102 38 84 55 L 84 402 C 106 422 129 437 155 447 C 181 457 207 463 235 463 C 294 463 341 442 377 400 C 413 358 431 303 431 235 C 431 163 412 106 374 63 C 336 19 288 -2 230 -2 Z" unicode="þ" />
<glyph horiz-adv-x="418" d="M 143 548 L 163 548 L 163 568 L 143 568 L 143 548 Z M 275 548 L 295 548 L 295 568 L 275 568 L 275 548 Z M -4 -220 C 41 -220 80 -203 114 -169 C 147 -135 180 -78 213 0 L 402 462 L 394 462 L 234 71 L 210 10 L 185 71 L 25 462 L 16 462 L 205 1 L 206 -1 C 174 -76 141 -130 109 -163 C 77 -196 39 -213 -4 -213 L -12 -213 L -12 -220 L -4 -220 Z" unicode="ÿ" />
<glyph horiz-adv-x="576" d="M 191 732 L 385 732 L 385 739 L 191 739 L 191 732 Z M 24 0 L 32 0 L 134 263 L 441 263 L 543 0 L 552 0 L 291 670 L 285 670 L 24 0 Z M 137 270 L 265 598 L 287 658 L 310 598 L 438 270 L 137 270 Z" unicode="Ā" />
<glyph horiz-adv-x="416" d="M 111 556 L 305 556 L 305 563 L 111 563 L 111 556 Z M 192 -8 C 222 -8 250 -1 274 11 C 298 23 319 42 336 67 L 338 0 L 344 0 L 344 326 C 344 370 331 405 306 431 C 281 457 248 470 207 470 C 184 470 160 465 135 457 C 110 449 88 438 70 424 L 70 415 C 88 429 110 441 136 450 C 161 458 185 463 207 463 C 245 463 276 450 300 426 C 324 401 336 368 336 326 L 336 270 L 204 255 C 158 250 122 235 94 210 C 66 185 52 155 52 119 C 52 81 65 50 91 27 C 117 3 151 -8 192 -8 Z M 192 -1 C 153 -1 121 10 97 32 C 72 54 60 83 60 119 C 60 153 73 181 99 205 C 125 229 161 243 205 248 L 336 263 L 336 77 C 319 51 298 32 274 19 C 249 5 222 -1 192 -1 Z" unicode="ā" />
<glyph horiz-adv-x="576" d="M 288 716 C 319 716 344 727 364 749 C 383 771 393 801 393 837 L 386 837 C 386 803 377 775 359 755 C 341 734 317 724 288 724 C 258 724 235 734 217 755 C 199 775 190 803 190 837 L 183 837 C 183 801 192 771 212 749 C 231 727 256 716 288 716 Z M 24 0 L 32 0 L 134 263 L 441 263 L 543 0 L 552 0 L 291 670 L 285 670 L 24 0 Z M 137 270 L 265 598 L 287 658 L 310 598 L 438 270 L 137 270 Z" unicode="Ă" />
<glyph horiz-adv-x="416" d="M 208 516 C 239 516 264 527 284 549 C 303 571 313 601 313 637 L 306 637 C 306 603 297 575 279 555 C 261 534 237 524 208 524 C 178 524 155 534 137 555 C 119 575 110 603 110 637 L 103 637 C 103 601 112 571 132 549 C 151 527 176 516 208 516 Z M 192 -8 C 222 -8 250 -1 274 11 C 298 23 319 42 336 67 L 338 0 L 344 0 L 344 326 C 344 370 331 405 306 431 C 281 457 248 470 207 470 C 184 470 160 465 135 457 C 110 449 88 438 70 424 L 70 415 C 88 429 110 441 136 450 C 161 458 185 463 207 463 C 245 463 276 450 300 426 C 324 401 336 368 336 326 L 336 270 L 204 255 C 158 250 122 235 94 210 C 66 185 52 155 52 119 C 52 81 65 50 91 27 C 117 3 151 -8 192 -8 Z M 192 -1 C 153 -1 121 10 97 32 C 72 54 60 83 60 119 C 60 153 73 181 99 205 C 125 229 161 243 205 248 L 336 263 L 336 77 C 319 51 298 32 274 19 C 249 5 222 -1 192 -1 Z" unicode="ă" />
<glyph horiz-adv-x="576" d="M 24 0 L 32 0 L 134 263 L 441 263 L 541 6 C 507 1 479 -11 457 -32 C 435 -53 425 -79 425 -110 C 425 -142 437 -169 462 -189 C 486 -209 518 -220 558 -220 L 558 -213 C 520 -213 490 -203 467 -184 C 444 -165 433 -140 433 -110 C 433 -81 443 -57 465 -37 C 486 -17 513 -4 546 0 L 552 0 L 291 670 L 285 670 L 24 0 Z M 137 270 L 265 598 L 287 658 L 310 598 L 438 270 L 137 270 Z" unicode="Ą" />
<glyph horiz-adv-x="416" d="M 192 -8 C 222 -8 250 -1 274 11 C 298 23 319 42 336 67 L 338 2 C 305 -26 282 -50 268 -69 C 254 -87 248 -110 248 -136 C 248 -160 257 -180 275 -196 C 293 -212 318 -220 348 -220 L 348 -212 C 323 -212 301 -205 283 -191 C 265 -177 256 -159 256 -136 C 256 -112 262 -91 276 -72 C 290 -53 314 -29 348 0 L 344 5 L 344 326 C 344 370 331 405 306 431 C 281 457 248 470 207 470 C 184 470 160 465 135 457 C 110 449 88 438 70 424 L 70 415 C 88 429 110 441 136 450 C 161 458 185 463 207 463 C 245 463 276 450 300 426 C 324 401 336 368 336 326 L 336 270 L 204 255 C 158 250 122 235 94 210 C 66 185 52 155 52 119 C 52 81 65 50 91 27 C 117 3 151 -8 192 -8 Z M 192 -1 C 153 -1 121 10 97 32 C 72 54 60 83 60 119 C 60 153 73 181 99 205 C 125 229 161 243 205 248 L 336 263 L 336 77 C 319 51 298 32 274 19 C 249 5 222 -1 192 -1 Z" unicode="ą" />
<glyph horiz-adv-x="651" d="M 379 724 L 479 849 L 469 849 L 370 724 L 379 724 Z M 395 -8 C 431 -8 468 -3 504 6 C 540 15 574 29 607 47 L 607 55 C 574 36 540 22 504 13 C 468 3 432 -1 395 -1 C 297 -1 218 29 158 90 C 98 150 68 230 68 328 C 68 427 98 507 158 568 C 218 628 297 659 395 659 C 431 659 466 655 500 647 C 534 639 567 628 600 614 L 600 622 C 567 636 533 647 499 655 C 465 662 430 666 395 666 C 295 666 214 634 152 572 C 90 510 60 428 60 328 C 60 227 90 146 152 84 C 214 22 295 -8 395 -8 Z" unicode="Ć" />
<glyph horiz-adv-x="469" d="M 249 524 L 349 649 L 339 649 L 240 524 L 249 524 Z M 275 -8 C 299 -8 324 -4 350 4 C 375 12 397 22 417 35 L 417 43 C 397 30 374 19 348 11 C 322 3 297 -1 275 -1 C 210 -1 158 20 118 62 C 78 104 58 160 58 230 C 58 299 77 355 116 398 C 154 441 205 463 269 463 C 293 463 318 459 343 452 C 368 445 393 435 417 422 L 417 430 C 394 442 370 452 345 459 C 319 466 294 470 269 470 C 203 470 150 447 110 403 C 70 359 50 301 50 230 C 50 158 70 101 112 57 C 153 13 207 -8 275 -8 Z" unicode="ć" />
<glyph horiz-adv-x="651" d="M 303 724 L 394 836 L 484 724 L 494 724 L 397 843 L 391 843 L 294 724 L 303 724 Z M 395 -8 C 431 -8 468 -3 504 6 C 540 15 574 29 607 47 L 607 55 C 574 36 540 22 504 13 C 468 3 432 -1 395 -1 C 297 -1 218 29 158 90 C 98 150 68 230 68 328 C 68 427 98 507 158 568 C 218 628 297 659 395 659 C 431 659 466 655 500 647 C 534 639 567 628 600 614 L 600 622 C 567 636 533 647 499 655 C 465 662 430 666 395 666 C 295 666 214 634 152 572 C 90 510 60 428 60 328 C 60 227 90 146 152 84 C 214 22 295 -8 395 -8 Z" unicode="Ĉ" />
<glyph horiz-adv-x="469" d="M 173 524 L 264 636 L 354 524 L 364 524 L 267 643 L 261 643 L 164 524 L 173 524 Z M 275 -8 C 299 -8 324 -4 350 4 C 375 12 397 22 417 35 L 417 43 C 397 30 374 19 348 11 C 322 3 297 -1 275 -1 C 210 -1 158 20 118 62 C 78 104 58 160 58 230 C 58 299 77 355 116 398 C 154 441 205 463 269 463 C 293 463 318 459 343 452 C 368 445 393 435 417 422 L 417 430 C 394 442 370 452 345 459 C 319 466 294 470 269 470 C 203 470 150 447 110 403 C 70 359 50 301 50 230 C 50 158 70 101 112 57 C 153 13 207 -8 275 -8 Z" unicode="ĉ" />
<glyph horiz-adv-x="651" d="M 382 724 L 402 724 L 402 744 L 382 744 L 382 724 Z M 395 -8 C 431 -8 468 -3 504 6 C 540 15 574 29 607 47 L 607 55 C 574 36 540 22 504 13 C 468 3 432 -1 395 -1 C 297 -1 218 29 158 90 C 98 150 68 230 68 328 C 68 427 98 507 158 568 C 218 628 297 659 395 659 C 431 659 466 655 500 647 C 534 639 567 628 600 614 L 600 622 C 567 636 533 647 499 655 C 465 662 430 666 395 666 C 295 666 214 634 152 572 C 90 510 60 428 60 328 C 60 227 90 146 152 84 C 214 22 295 -8 395 -8 Z" unicode="Ċ" />
<glyph horiz-adv-x="469" d="M 256 548 L 276 548 L 276 568 L 256 568 L 256 548 Z M 275 -8 C 299 -8 324 -4 350 4 C 375 12 397 22 417 35 L 417 43 C 397 30 374 19 348 11 C 322 3 297 -1 275 -1 C 210 -1 158 20 118 62 C 78 104 58 160 58 230 C 58 299 77 355 116 398 C 154 441 205 463 269 463 C 293 463 318 459 343 452 C 368 445 393 435 417 422 L 417 430 C 394 442 370 452 345 459 C 319 466 294 470 269 470 C 203 470 150 447 110 403 C 70 359 50 301 50 230 C 50 158 70 101 112 57 C 153 13 207 -8 275 -8 Z" unicode="ċ" />
<glyph horiz-adv-x="651" d="M 391 716 L 399 716 L 496 835 L 487 835 L 395 722 L 304 835 L 294 835 L 391 716 Z M 395 -8 C 431 -8 468 -3 504 6 C 540 15 574 29 607 47 L 607 55 C 574 36 540 22 504 13 C 468 3 432 -1 395 -1 C 297 -1 218 29 158 90 C 98 150 68 230 68 328 C 68 427 98 507 158 568 C 218 628 297 659 395 659 C 431 659 466 655 500 647 C 534 639 567 628 600 614 L 600 622 C 567 636 533 647 499 655 C 465 662 430 666 395 666 C 295 666 214 634 152 572 C 90 510 60 428 60 328 C 60 227 90 146 152 84 C 214 22 295 -8 395 -8 Z" unicode="Č" />
<glyph horiz-adv-x="469" d="M 261 524 L 269 524 L 366 643 L 357 643 L 265 530 L 174 643 L 164 643 L 261 524 Z M 275 -8 C 299 -8 324 -4 350 4 C 375 12 397 22 417 35 L 417 43 C 397 30 374 19 348 11 C 322 3 297 -1 275 -1 C 210 -1 158 20 118 62 C 78 104 58 160 58 230 C 58 299 77 355 116 398 C 154 441 205 463 269 463 C 293 463 318 459 343 452 C 368 445 393 435 417 422 L 417 430 C 394 442 370 452 345 459 C 319 466 294 470 269 470 C 203 470 150 447 110 403 C 70 359 50 301 50 230 C 50 158 70 101 112 57 C 153 13 207 -8 275 -8 Z" unicode="č" />
<glyph horiz-adv-x="680" d="M 282 716 L 290 716 L 387 835 L 378 835 L 286 722 L 195 835 L 185 835 L 282 716 Z M 92 0 L 255 0 C 363 0 451 31 519 93 C 586 155 620 236 620 337 C 620 433 587 510 521 569 C 455 628 369 658 263 658 L 92 658 L 92 0 Z M 100 7 L 100 651 L 264 651 C 368 651 452 622 516 564 C 580 506 612 430 612 337 C 612 238 579 158 514 98 C 448 37 362 7 256 7 L 100 7 Z" unicode="Ď" />
<glyph horiz-adv-x="604" d="M 255 -8 C 287 -8 317 -1 345 12 C 372 26 395 44 414 67 L 416 0 L 422 0 L 422 724 L 414 724 L 414 411 C 394 429 370 443 344 454 C 317 464 289 470 261 470 C 199 470 149 448 109 404 C 69 360 50 303 50 232 C 50 160 69 102 107 58 C 145 14 194 -8 255 -8 Z M 494 572 C 512 592 525 612 531 631 C 537 649 540 670 540 694 L 540 724 L 532 724 L 532 694 C 532 672 528 651 522 633 C 516 614 505 595 489 577 L 494 572 Z M 255 -1 C 197 -1 149 20 113 63 C 76 106 58 162 58 232 C 58 301 77 357 115 399 C 153 441 202 463 261 463 C 288 463 315 457 341 447 C 367 437 391 422 414 402 L 414 76 C 393 50 369 31 341 18 C 313 5 284 -1 255 -1 Z" unicode="ď" />
<glyph horiz-adv-x="680" d="M 98 0 L 261 0 C 369 0 457 31 525 93 C 592 155 626 236 626 337 C 626 433 593 510 527 569 C 461 628 375 658 269 658 L 98 658 L 98 339 L 14 339 L 14 332 L 98 332 L 98 0 Z M 106 7 L 106 332 L 254 332 L 254 339 L 106 339 L 106 651 L 270 651 C 374 651 458 622 522 564 C 586 506 618 430 618 337 C 618 238 585 158 520 98 C 454 37 368 7 262 7 L 106 7 Z" unicode="Đ" />
<glyph horiz-adv-x="498" d="M 255 -8 C 287 -8 317 -1 345 12 C 372 26 395 44 414 67 L 416 0 L 422 0 L 422 606 L 496 606 L 496 614 L 422 614 L 422 724 L 414 724 L 414 614 L 311 614 L 311 606 L 414 606 L 414 411 C 394 429 370 443 344 454 C 317 464 289 470 261 470 C 199 470 149 448 109 404 C 69 360 50 303 50 232 C 50 160 69 102 107 58 C 145 14 194 -8 255 -8 Z M 255 -1 C 197 -1 149 20 113 63 C 76 106 58 162 58 232 C 58 301 77 357 115 399 C 153 441 202 463 261 463 C 288 463 315 457 341 447 C 367 437 391 422 414 402 L 414 76 C 393 50 369 31 341 18 C 313 5 284 -1 255 -1 Z" unicode="đ" />
<glyph horiz-adv-x="483" d="M 158 732 L 352 732 L 352 739 L 158 739 L 158 732 Z M 92 0 L 419 0 L 419 7 L 100 7 L 100 330 L 391 330 L 391 337 L 100 337 L 100 651 L 407 651 L 407 658 L 92 658 L 92 0 Z" unicode="Ē" />
<glyph horiz-adv-x="492" d="M 155 556 L 349 556 L 349 563 L 155 563 L 155 556 Z M 262 -8 C 290 -8 319 -3 347 5 C 375 13 401 26 426 43 L 426 52 C 402 35 376 22 348 13 C 320 3 292 -1 262 -1 C 201 -1 152 20 114 63 C 76 105 58 161 58 231 L 58 250 L 438 250 L 438 252 C 438 317 421 370 387 410 C 353 450 308 470 254 470 C 192 470 142 448 105 405 C 68 361 50 304 50 233 C 50 161 69 102 108 58 C 147 14 198 -8 262 -8 Z M 254 463 C 306 463 348 444 381 406 C 413 368 430 319 430 257 L 59 257 C 62 319 81 368 117 406 C 152 444 198 463 254 463 Z" unicode="ē" />
<glyph horiz-adv-x="483" d="M 255 716 C 286 716 311 727 331 749 C 350 771 360 801 360 837 L 353 837 C 353 803 344 775 326 755 C 308 734 284 724 255 724 C 225 724 202 734 184 755 C 166 775 157 803 157 837 L 150 837 C 150 801 159 771 179 749 C 198 727 223 716 255 716 Z M 92 0 L 419 0 L 419 7 L 100 7 L 100 330 L 391 330 L 391 337 L 100 337 L 100 651 L 407 651 L 407 658 L 92 658 L 92 0 Z" unicode="Ĕ" />
<glyph horiz-adv-x="492" d="M 252 516 C 283 516 308 527 328 549 C 347 571 357 601 357 637 L 350 637 C 350 603 341 575 323 555 C 305 534 281 524 252 524 C 222 524 199 534 181 555 C 163 575 154 603 154 637 L 147 637 C 147 601 156 571 176 549 C 195 527 220 516 252 516 Z M 262 -8 C 290 -8 319 -3 347 5 C 375 13 401 26 426 43 L 426 52 C 402 35 376 22 348 13 C 320 3 292 -1 262 -1 C 201 -1 152 20 114 63 C 76 105 58 161 58 231 L 58 250 L 438 250 L 438 252 C 438 317 421 370 387 410 C 353 450 308 470 254 470 C 192 470 142 448 105 405 C 68 361 50 304 50 233 C 50 161 69 102 108 58 C 147 14 198 -8 262 -8 Z M 254 463 C 306 463 348 444 381 406 C 413 368 430 319 430 257 L 59 257 C 62 319 81 368 117 406 C 152 444 198 463 254 463 Z" unicode="ĕ" />
<glyph horiz-adv-x="483" d="M 242 724 L 262 724 L 262 744 L 242 744 L 242 724 Z M 92 0 L 419 0 L 419 7 L 100 7 L 100 330 L 391 330 L 391 337 L 100 337 L 100 651 L 407 651 L 407 658 L 92 658 L 92 0 Z" unicode="Ė" />
<glyph horiz-adv-x="492" d="M 243 548 L 263 548 L 263 568 L 243 568 L 243 548 Z M 262 -8 C 290 -8 319 -3 347 5 C 375 13 401 26 426 43 L 426 52 C 402 35 376 22 348 13 C 320 3 292 -1 262 -1 C 201 -1 152 20 114 63 C 76 105 58 161 58 231 L 58 250 L 438 250 L 438 252 C 438 317 421 370 387 410 C 353 450 308 470 254 470 C 192 470 142 448 105 405 C 68 361 50 304 50 233 C 50 161 69 102 108 58 C 147 14 198 -8 262 -8 Z M 254 463 C 306 463 348 444 381 406 C 413 368 430 319 430 257 L 59 257 C 62 319 81 368 117 406 C 152 444 198 463 254 463 Z" unicode="ė" />
<glyph horiz-adv-x="483" d="M 92 0 L 389 0 C 361 -8 339 -22 323 -41 C 307 -60 299 -83 299 -110 C 299 -142 311 -169 336 -189 C 360 -209 392 -220 432 -220 L 432 -213 C 394 -213 364 -203 341 -184 C 318 -165 307 -140 307 -110 C 307 -81 317 -57 339 -37 C 360 -17 387 -4 420 0 L 420 7 L 419 7 L 419 7 L 100 7 L 100 330 L 391 330 L 391 337 L 100 337 L 100 651 L 407 651 L 407 658 L 92 658 L 92 0 Z" unicode="Ę" />
<glyph horiz-adv-x="503" d="M 449 -220 L 449 -212 C 395 -212 356 -201 330 -179 C 304 -157 292 -129 292 -95 C 292 -72 298 -51 310 -33 C 322 -15 340 0 364 10 C 377 16 388 21 396 25 C 404 29 414 35 426 43 L 426 52 C 402 35 376 22 348 13 C 320 3 292 -1 262 -1 C 201 -1 152 20 114 63 C 76 105 58 161 58 231 L 58 250 L 438 250 L 438 252 C 438 317 421 370 387 410 C 353 450 308 470 254 470 C 192 470 142 448 105 405 C 68 361 50 304 50 233 C 50 161 69 102 108 58 C 147 14 198 -8 262 -8 C 274 -8 287 -7 300 -5 C 312 -3 325 -1 337 2 C 319 -8 306 -22 297 -39 C 288 -55 284 -74 284 -95 C 284 -132 297 -162 324 -185 C 351 -208 393 -220 449 -220 Z M 254 463 C 306 463 348 444 381 406 C 413 368 430 319 430 257 L 59 257 C 62 319 81 368 117 406 C 152 444 198 463 254 463 Z" unicode="ę" />
<glyph horiz-adv-x="483" d="M 251 716 L 259 716 L 356 835 L 347 835 L 255 722 L 164 835 L 154 835 L 251 716 Z M 92 0 L 419 0 L 419 7 L 100 7 L 100 330 L 391 330 L 391 337 L 100 337 L 100 651 L 407 651 L 407 658 L 92 658 L 92 0 Z" unicode="Ě" />
<glyph horiz-adv-x="492" d="M 248 524 L 256 524 L 353 643 L 344 643 L 252 530 L 161 643 L 151 643 L 248 524 Z M 262 -8 C 290 -8 319 -3 347 5 C 375 13 401 26 426 43 L 426 52 C 402 35 376 22 348 13 C 320 3 292 -1 262 -1 C 201 -1 152 20 114 63 C 76 105 58 161 58 231 L 58 250 L 438 250 L 438 252 C 438 317 421 370 387 410 C 353 450 308 470 254 470 C 192 470 142 448 105 405 C 68 361 50 304 50 233 C 50 161 69 102 108 58 C 147 14 198 -8 262 -8 Z M 254 463 C 306 463 348 444 381 406 C 413 368 430 319 430 257 L 59 257 C 62 319 81 368 117 406 C 152 444 198 463 254 463 Z" unicode="ě" />
<glyph horiz-adv-x="686" d="M 296 724 L 387 836 L 477 724 L 487 724 L 390 843 L 384 843 L 287 724 L 296 724 Z M 388 -8 C 429 -8 469 -4 508 3 C 546 10 582 21 616 36 L 616 300 L 447 300 L 447 293 L 608 293 L 608 40 C 575 26 540 15 503 9 C 465 2 427 -1 388 -1 C 294 -1 217 29 157 90 C 97 151 68 231 68 330 C 68 428 98 507 158 568 C 218 628 296 659 392 659 C 426 659 460 655 495 647 C 530 639 564 628 597 614 L 597 622 C 564 636 530 647 496 655 C 462 662 427 666 392 666 C 294 666 214 635 152 573 C 90 511 60 430 60 330 C 60 229 90 147 151 85 C 212 23 291 -8 388 -8 Z" unicode="Ĝ" />
<glyph horiz-adv-x="500" d="M 167 524 L 258 636 L 348 524 L 358 524 L 261 643 L 255 643 L 158 524 L 167 524 Z M 225 -228 C 285 -228 333 -208 369 -170 C 405 -132 424 -81 424 -17 L 424 462 L 418 462 L 416 411 C 396 429 372 443 346 454 C 319 464 291 470 263 470 C 201 470 151 448 111 404 C 71 360 52 303 52 232 C 52 160 71 102 109 58 C 147 14 196 -8 257 -8 C 289 -8 319 -1 347 12 C 374 26 397 44 416 67 L 416 -17 C 416 -79 398 -128 364 -165 C 329 -202 283 -221 225 -221 C 200 -221 173 -215 144 -205 C 115 -195 89 -182 67 -166 L 67 -174 C 89 -189 114 -202 143 -212 C 171 -222 199 -228 225 -228 Z M 257 -1 C 199 -1 151 20 115 63 C 78 106 60 162 60 232 C 60 301 79 357 117 399 C 155 441 204 463 263 463 C 290 463 317 457 343 447 C 369 437 393 422 416 402 L 416 76 C 395 50 371 31 343 18 C 315 5 286 -1 257 -1 Z" unicode="ĝ" />
<glyph horiz-adv-x="686" d="M 388 716 C 419 716 444 727 464 749 C 483 771 493 801 493 837 L 486 837 C 486 803 477 775 459 755 C 441 734 417 724 388 724 C 358 724 335 734 317 755 C 299 775 290 803 290 837 L 283 837 C 283 801 292 771 312 749 C 331 727 356 716 388 716 Z M 388 -8 C 429 -8 469 -4 508 3 C 546 10 582 21 616 36 L 616 300 L 447 300 L 447 293 L 608 293 L 608 40 C 575 26 540 15 503 9 C 465 2 427 -1 388 -1 C 294 -1 217 29 157 90 C 97 151 68 231 68 330 C 68 428 98 507 158 568 C 218 628 296 659 392 659 C 426 659 460 655 495 647 C 530 639 564 628 597 614 L 597 622 C 564 636 530 647 496 655 C 462 662 427 666 392 666 C 294 666 214 635 152 573 C 90 511 60 430 60 330 C 60 229 90 147 151 85 C 212 23 291 -8 388 -8 Z" unicode="Ğ" />
<glyph horiz-adv-x="500" d="M 259 516 C 290 516 315 527 335 549 C 354 571 364 601 364 637 L 357 637 C 357 603 348 575 330 555 C 312 534 288 524 259 524 C 229 524 206 534 188 555 C 170 575 161 603 161 637 L 154 637 C 154 601 163 571 183 549 C 202 527 227 516 259 516 Z M 225 -228 C 285 -228 333 -208 369 -170 C 405 -132 424 -81 424 -17 L 424 462 L 418 462 L 416 411 C 396 429 372 443 346 454 C 319 464 291 470 263 470 C 201 470 151 448 111 404 C 71 360 52 303 52 232 C 52 160 71 102 109 58 C 147 14 196 -8 257 -8 C 289 -8 319 -1 347 12 C 374 26 397 44 416 67 L 416 -17 C 416 -79 398 -128 364 -165 C 329 -202 283 -221 225 -221 C 200 -221 173 -215 144 -205 C 115 -195 89 -182 67 -166 L 67 -174 C 89 -189 114 -202 143 -212 C 171 -222 199 -228 225 -228 Z M 257 -1 C 199 -1 151 20 115 63 C 78 106 60 162 60 232 C 60 301 79 357 117 399 C 155 441 204 463 263 463 C 290 463 317 457 343 447 C 369 437 393 422 416 402 L 416 76 C 395 50 371 31 343 18 C 315 5 286 -1 257 -1 Z" unicode="ğ" />
<glyph horiz-adv-x="686" d="M 375 724 L 395 724 L 395 744 L 375 744 L 375 724 Z M 388 -8 C 429 -8 469 -4 508 3 C 546 10 582 21 616 36 L 616 300 L 447 300 L 447 293 L 608 293 L 608 40 C 575 26 540 15 503 9 C 465 2 427 -1 388 -1 C 294 -1 217 29 157 90 C 97 151 68 231 68 330 C 68 428 98 507 158 568 C 218 628 296 659 392 659 C 426 659 460 655 495 647 C 530 639 564 628 597 614 L 597 622 C 564 636 530 647 496 655 C 462 662 427 666 392 666 C 294 666 214 635 152 573 C 90 511 60 430 60 330 C 60 229 90 147 151 85 C 212 23 291 -8 388 -8 Z" unicode="Ġ" />
<glyph horiz-adv-x="500" d="M 250 548 L 270 548 L 270 568 L 250 568 L 250 548 Z M 225 -228 C 285 -228 333 -208 369 -170 C 405 -132 424 -81 424 -17 L 424 462 L 418 462 L 416 411 C 396 429 372 443 346 454 C 319 464 291 470 263 470 C 201 470 151 448 111 404 C 71 360 52 303 52 232 C 52 160 71 102 109 58 C 147 14 196 -8 257 -8 C 289 -8 319 -1 347 12 C 374 26 397 44 416 67 L 416 -17 C 416 -79 398 -128 364 -165 C 329 -202 283 -221 225 -221 C 200 -221 173 -215 144 -205 C 115 -195 89 -182 67 -166 L 67 -174 C 89 -189 114 -202 143 -212 C 171 -222 199 -228 225 -228 Z M 257 -1 C 199 -1 151 20 115 63 C 78 106 60 162 60 232 C 60 301 79 357 117 399 C 155 441 204 463 263 463 C 290 463 317 457 343 447 C 369 437 393 422 416 402 L 416 76 C 395 50 371 31 343 18 C 315 5 286 -1 257 -1 Z" unicode="ġ" />
<glyph horiz-adv-x="686" d="M 388 -8 C 429 -8 469 -4 508 3 C 546 10 582 21 616 36 L 616 300 L 447 300 L 447 293 L 608 293 L 608 40 C 575 26 540 15 503 9 C 465 2 427 -1 388 -1 C 294 -1 217 29 157 90 C 97 151 68 231 68 330 C 68 428 98 507 158 568 C 218 628 296 659 392 659 C 426 659 460 655 495 647 C 530 639 564 628 597 614 L 597 622 C 564 636 530 647 496 655 C 462 662 427 666 392 666 C 294 666 214 635 152 573 C 90 511 60 430 60 330 C 60 229 90 147 151 85 C 212 23 291 -8 388 -8 Z M 345 -200 C 363 -179 376 -159 382 -141 C 388 -122 391 -101 391 -78 L 391 -48 L 383 -48 L 383 -78 C 383 -100 379 -120 373 -139 C 367 -157 356 -176 340 -195 L 345 -200 Z" unicode="Ģ" />
<glyph horiz-adv-x="500" d="M 300 676 C 281 655 269 635 263 617 C 257 598 254 577 254 554 L 254 524 L 262 524 L 262 554 C 262 576 265 596 271 615 C 277 633 289 652 305 671 L 300 676 Z M 225 -228 C 285 -228 333 -208 369 -170 C 405 -132 424 -81 424 -17 L 424 462 L 418 462 L 416 411 C 396 429 372 443 346 454 C 319 464 291 470 263 470 C 201 470 151 448 111 404 C 71 360 52 303 52 232 C 52 160 71 102 109 58 C 147 14 196 -8 257 -8 C 289 -8 319 -1 347 12 C 374 26 397 44 416 67 L 416 -17 C 416 -79 398 -128 364 -165 C 329 -202 283 -221 225 -221 C 200 -221 173 -215 144 -205 C 115 -195 89 -182 67 -166 L 67 -174 C 89 -189 114 -202 143 -212 C 171 -222 199 -228 225 -228 Z M 257 -1 C 199 -1 151 20 115 63 C 78 106 60 162 60 232 C 60 301 79 357 117 399 C 155 441 204 463 263 463 C 290 463 317 457 343 447 C 369 437 393 422 416 402 L 416 76 C 395 50 371 31 343 18 C 315 5 286 -1 257 -1 Z" unicode="ģ" />
<glyph horiz-adv-x="665" d="M 241 724 L 332 836 L 422 724 L 432 724 L 335 843 L 329 843 L 232 724 L 241 724 Z M 92 0 L 100 0 L 100 332 L 565 332 L 565 0 L 573 0 L 573 658 L 565 658 L 565 339 L 100 339 L 100 658 L 92 658 L 92 0 Z" unicode="Ĥ" />
<glyph horiz-adv-x="462" d="M -11 724 L 80 836 L 170 724 L 180 724 L 83 843 L 77 843 L -20 724 L -11 724 Z M 76 0 L 84 0 L 84 370 C 97 398 117 420 144 437 C 171 454 201 463 233 463 C 277 463 312 448 340 420 C 368 391 382 353 382 307 L 382 0 L 390 0 L 390 307 C 390 355 375 395 346 425 C 316 455 279 470 233 470 C 201 470 171 462 145 446 C 118 430 98 410 84 384 L 84 724 L 76 724 L 76 0 Z" unicode="ĥ" />
<glyph horiz-adv-x="657" d="M 88 0 L 96 0 L 96 332 L 561 332 L 561 0 L 569 0 L 569 508 L 625 508 L 625 515 L 569 515 L 569 658 L 561 658 L 561 515 L 96 515 L 96 658 L 88 658 L 88 515 L 32 515 L 32 508 L 88 508 L 88 0 Z M 96 339 L 96 508 L 561 508 L 561 339 L 96 339 Z" unicode="Ħ" />
<glyph horiz-adv-x="462" d="M 76 0 L 84 0 L 84 370 C 97 398 117 420 144 437 C 171 454 201 463 233 463 C 277 463 312 448 340 420 C 368 391 382 353 382 307 L 382 0 L 390 0 L 390 307 C 390 355 375 395 346 425 C 316 455 279 470 233 470 C 201 470 171 462 145 446 C 118 430 98 410 84 384 L 84 606 L 199 606 L 199 613 L 84 613 L 84 724 L 76 724 L 76 613 L 14 613 L 14 606 L 76 606 L 76 0 Z" unicode="ħ" />
<glyph horiz-adv-x="192" d="M -21 728 C -18 744 -12 757 -3 765 C 5 773 17 778 31 778 C 40 778 49 775 57 771 C 65 767 77 759 92 748 C 106 736 118 727 127 723 C 136 719 146 717 157 717 C 172 717 185 721 195 731 C 205 740 212 755 216 777 L 209 777 C 205 759 199 745 191 737 C 182 728 171 724 157 724 C 147 724 138 726 130 730 C 122 734 110 742 96 754 C 81 766 69 774 60 778 C 51 782 41 785 31 785 C 15 785 2 780 -8 771 C -18 762 -25 748 -28 728 L -21 728 Z M 92 0 L 100 0 L 100 658 L 92 658 L 92 0 Z" unicode="Ĩ" />
<glyph horiz-adv-x="160" d="M -38 548 C -35 564 -29 577 -20 585 C -11 593 0 598 14 598 C 23 598 32 595 40 591 C 48 587 60 579 75 568 C 89 556 101 547 110 543 C 119 539 129 537 140 537 C 155 537 168 541 178 551 C 188 560 195 575 199 597 L 192 597 C 188 579 182 565 174 557 C 165 548 154 544 140 544 C 130 544 121 546 113 550 C 105 554 93 562 79 574 C 64 586 52 594 43 598 C 34 602 24 605 14 605 C -1 605 -14 600 -25 591 C -35 582 -42 568 -45 548 L -38 548 Z M 76 0 L 84 0 L 84 462 L 76 462 L 76 0 Z" unicode="ĩ" />
<glyph horiz-adv-x="192" d="M 0 732 L 194 732 L 194 739 L 0 739 L 0 732 Z M 92 0 L 100 0 L 100 658 L 92 658 L 92 0 Z" unicode="Ī" />
<glyph horiz-adv-x="160" d="M -17 556 L 177 556 L 177 563 L -17 563 L -17 556 Z M 76 0 L 84 0 L 84 462 L 76 462 L 76 0 Z" unicode="ī" />
<glyph horiz-adv-x="192" d="M 97 716 C 128 716 153 727 173 749 C 192 771 202 801 202 837 L 195 837 C 195 803 186 775 168 755 C 150 734 126 724 97 724 C 67 724 44 734 26 755 C 8 775 -1 803 -1 837 L -8 837 C -8 801 1 771 21 749 C 40 727 65 716 97 716 Z M 92 0 L 100 0 L 100 658 L 92 658 L 92 0 Z" unicode="Ĭ" />
<glyph horiz-adv-x="160" d="M 80 516 C 111 516 136 527 156 549 C 175 571 185 601 185 637 L 178 637 C 178 603 169 575 151 555 C 133 534 109 524 80 524 C 50 524 27 534 9 555 C -9 575 -18 603 -18 637 L -25 637 C -25 601 -15 571 4 549 C 23 527 48 516 80 516 Z M 76 0 L 84 0 L 84 462 L 76 462 L 76 0 Z" unicode="ĭ" />
<glyph horiz-adv-x="192" d="M 98 -220 L 98 -212 C 73 -212 51 -205 33 -191 C 15 -177 6 -159 6 -136 C 6 -112 12 -91 26 -72 C 40 -53 64 -29 98 0 L 100 0 L 100 658 L 92 658 L 92 5 C 58 -25 33 -50 19 -69 C 5 -87 -2 -110 -2 -136 C -2 -160 7 -180 25 -196 C 43 -212 68 -220 98 -220 Z" unicode="Į" />
<glyph horiz-adv-x="172" d="M 76 658 L 96 658 L 96 678 L 76 678 L 76 658 Z M 90 -220 L 90 -212 C 65 -212 43 -205 25 -191 C 7 -177 -2 -159 -2 -136 C -2 -112 4 -91 18 -72 C 32 -53 56 -29 90 0 L 90 462 L 82 462 L 82 3 C 48 -26 25 -50 11 -69 C -3 -87 -10 -110 -10 -136 C -10 -160 0 -180 17 -196 C 35 -212 60 -220 90 -220 Z" unicode="į" />
<glyph horiz-adv-x="192" d="M 84 724 L 104 724 L 104 744 L 84 744 L 84 724 Z M 92 0 L 100 0 L 100 658 L 92 658 L 92 0 Z" unicode="İ" />
<glyph horiz-adv-x="160" d="M 76 0 L 84 0 L 84 462 L 76 462 L 76 0 Z" unicode="ı" />
<glyph horiz-adv-x="205" d="M 18 724 L 109 836 L 199 724 L 209 724 L 112 843 L 106 843 L 9 724 L 18 724 Z M 8 -204 C 39 -204 64 -193 84 -173 C 103 -153 113 -126 113 -94 L 113 658 L 105 658 L 105 -94 C 105 -124 96 -149 78 -168 C 60 -187 36 -197 8 -197 L 0 -197 L 0 -204 L 8 -204 Z" unicode="Ĵ" />
<glyph horiz-adv-x="158" d="M -9 524 L 82 636 L 172 524 L 182 524 L 85 643 L 79 643 L -18 524 L -9 524 Z M -36 -204 C 0 -204 29 -191 52 -166 C 74 -140 86 -106 86 -63 L 86 462 L 78 462 L 78 -63 C 78 -104 67 -137 46 -161 C 25 -185 -2 -197 -36 -197 L -44 -197 L -44 -204 L -36 -204 Z" unicode="ĵ" />
<glyph horiz-adv-x="503" d="M 92 0 L 100 0 L 100 329 L 439 0 L 451 0 L 105 335 L 441 658 L 430 658 L 100 341 L 100 658 L 92 658 L 92 0 Z M 227 -200 C 245 -179 258 -159 264 -141 C 270 -122 273 -101 273 -78 L 273 -48 L 265 -48 L 265 -78 C 265 -100 261 -120 255 -139 C 249 -157 238 -176 222 -195 L 227 -200 Z" unicode="Ķ" />
<glyph horiz-adv-x="411" d="M 76 0 L 84 0 L 84 236 L 362 0 L 375 0 L 91 241 L 350 462 L 338 462 L 84 244 L 84 724 L 76 724 L 76 0 Z M 178 -200 C 196 -179 209 -159 215 -141 C 221 -122 224 -101 224 -78 L 224 -48 L 216 -48 L 216 -78 C 216 -100 212 -120 206 -139 C 200 -157 189 -176 173 -195 L 178 -200 Z" unicode="ķ" />
<glyph horiz-adv-x="441" d="M 101 724 L 201 849 L 191 849 L 92 724 L 101 724 Z M 92 0 L 417 0 L 417 7 L 100 7 L 100 658 L 92 658 L 92 0 Z" unicode="Ĺ" />
<glyph horiz-adv-x="160" d="M 65 786 L 165 911 L 155 911 L 56 786 L 65 786 Z M 76 0 L 84 0 L 84 724 L 76 724 L 76 0 Z" unicode="ĺ" />
<glyph horiz-adv-x="441" d="M 92 0 L 417 0 L 417 7 L 100 7 L 100 658 L 92 658 L 92 0 Z M 213 -200 C 231 -179 244 -159 250 -141 C 256 -122 259 -101 259 -78 L 259 -48 L 251 -48 L 251 -78 C 251 -100 247 -120 241 -139 C 235 -157 224 -176 208 -195 L 213 -200 Z" unicode="Ļ" />
<glyph horiz-adv-x="160" d="M 76 0 L 84 0 L 84 724 L 76 724 L 76 0 Z M 37 -200 C 55 -179 68 -159 74 -141 C 80 -122 83 -101 83 -78 L 83 -48 L 75 -48 L 75 -78 C 75 -100 71 -120 65 -139 C 59 -157 48 -176 32 -195 L 37 -200 Z" unicode="ļ" />
<glyph horiz-adv-x="441" d="M 92 0 L 417 0 L 417 7 L 100 7 L 100 658 L 92 658 L 92 0 Z M 243 506 C 261 526 274 546 280 565 C 286 583 289 604 289 628 L 289 658 L 281 658 L 281 628 C 281 606 277 585 271 567 C 265 548 254 529 238 511 L 243 506 Z" unicode="Ľ" />
<glyph horiz-adv-x="264" d="M 76 0 L 84 0 L 84 724 L 76 724 L 76 0 Z M 154 572 C 172 592 185 612 191 631 C 197 649 200 670 200 694 L 200 724 L 192 724 L 192 694 C 192 672 188 651 182 633 C 176 614 165 595 149 577 L 154 572 Z" unicode="ľ" />
<glyph horiz-adv-x="441" d="M 92 0 L 417 0 L 417 7 L 100 7 L 100 658 L 92 658 L 92 0 Z M 297 326 L 319 326 L 319 348 L 297 348 L 297 326 Z" unicode="Ŀ" />
<glyph horiz-adv-x="160" d="M 76 0 L 84 0 L 84 724 L 76 724 L 76 0 Z M 148 340 L 170 340 L 170 362 L 148 362 L 148 340 Z" unicode="ŀ" />
<glyph horiz-adv-x="440" d="M 91 0 L 416 0 L 416 7 L 99 7 L 99 334 L 217 384 L 217 392 L 99 342 L 99 658 L 91 658 L 91 338 L 4 301 L 4 293 L 91 330 L 91 0 Z" unicode="Ł" />
<glyph horiz-adv-x="160" d="M 76 0 L 84 0 L 84 374 L 156 394 L 156 401 L 84 381 L 84 724 L 76 724 L 76 378 L 4 358 L 4 351 L 76 371 L 76 0 Z" unicode="ł" />
<glyph horiz-adv-x="704" d="M 338 724 L 438 849 L 428 849 L 329 724 L 338 724 Z M 92 0 L 99 0 L 99 649 L 147 587 L 603 0 L 612 0 L 612 658 L 605 658 L 605 11 L 558 71 L 102 658 L 92 658 L 92 0 Z" unicode="Ń" />
<glyph horiz-adv-x="462" d="M 207 524 L 307 649 L 297 649 L 198 524 L 207 524 Z M 76 0 L 84 0 L 84 370 C 97 398 117 420 144 437 C 171 454 201 463 233 463 C 276 463 312 448 340 420 C 368 391 382 353 382 307 L 382 0 L 390 0 L 390 307 C 390 355 375 395 346 425 C 316 455 279 470 233 470 C 201 470 171 462 145 446 C 118 430 98 410 84 384 L 84 462 L 76 462 L 76 0 Z" unicode="ń" />
<glyph horiz-adv-x="704" d="M 92 0 L 99 0 L 99 649 L 147 587 L 603 0 L 612 0 L 612 658 L 605 658 L 605 11 L 558 71 L 102 658 L 92 658 L 92 0 Z M 309 -216 C 327 -195 340 -175 346 -157 C 352 -138 355 -117 355 -94 L 355 -64 L 347 -64 L 347 -94 C 347 -116 343 -136 337 -155 C 331 -173 320 -192 304 -211 L 309 -216 Z" unicode="Ņ" />
<glyph horiz-adv-x="462" d="M 76 0 L 84 0 L 84 370 C 97 398 117 420 144 437 C 171 454 201 463 233 463 C 276 463 312 448 340 420 C 368 391 382 353 382 307 L 382 0 L 390 0 L 390 307 C 390 355 375 395 346 425 C 316 455 279 470 233 470 C 201 470 171 462 145 446 C 118 430 98 410 84 384 L 84 462 L 76 462 L 76 0 Z M 188 -200 C 206 -179 219 -159 225 -141 C 231 -122 234 -101 234 -78 L 234 -48 L 226 -48 L 226 -78 C 226 -100 222 -120 216 -139 C 210 -157 199 -176 183 -195 L 188 -200 Z" unicode="ņ" />
<glyph horiz-adv-x="704" d="M 350 716 L 358 716 L 455 835 L 446 835 L 354 722 L 263 835 L 253 835 L 350 716 Z M 92 0 L 99 0 L 99 649 L 147 587 L 603 0 L 612 0 L 612 658 L 605 658 L 605 11 L 558 71 L 102 658 L 92 658 L 92 0 Z" unicode="Ň" />
<glyph horiz-adv-x="462" d="M 219 524 L 227 524 L 324 643 L 315 643 L 223 530 L 132 643 L 122 643 L 219 524 Z M 76 0 L 84 0 L 84 370 C 97 398 117 420 144 437 C 171 454 201 463 233 463 C 276 463 312 448 340 420 C 368 391 382 353 382 307 L 382 0 L 390 0 L 390 307 C 390 355 375 395 346 425 C 316 455 279 470 233 470 C 201 470 171 462 145 446 C 118 430 98 410 84 384 L 84 462 L 76 462 L 76 0 Z" unicode="ň" />
<glyph horiz-adv-x="704" d="M 92 0 L 99 0 L 99 649 L 147 587 L 605 0 L 605 -96 C 605 -131 595 -159 576 -181 C 556 -202 531 -213 499 -213 L 491 -213 L 491 -220 L 499 -220 C 533 -220 560 -208 581 -185 C 601 -162 612 -132 612 -96 L 612 658 L 605 658 L 605 13 L 560 71 L 102 658 L 92 658 L 92 0 Z" unicode="Ŋ" />
<glyph horiz-adv-x="462" d="M 267 -220 C 303 -220 333 -208 356 -185 C 378 -162 390 -132 390 -94 L 390 307 C 390 355 375 395 346 425 C 316 455 279 470 233 470 C 201 470 171 462 145 446 C 118 430 98 410 84 384 L 84 462 L 76 462 L 76 0 L 84 0 L 84 370 C 97 398 117 420 144 437 C 171 454 201 463 233 463 C 276 463 312 448 340 420 C 368 391 382 353 382 307 L 382 -94 C 382 -129 371 -158 350 -180 C 328 -202 301 -213 267 -213 L 259 -213 L 259 -220 L 267 -220 Z" unicode="ŋ" />
<glyph horiz-adv-x="768" d="M 288 732 L 482 732 L 482 739 L 288 739 L 288 732 Z M 384 -8 C 480 -8 558 23 618 85 C 678 147 708 228 708 329 C 708 429 678 511 618 573 C 558 635 480 666 384 666 C 287 666 209 635 149 573 C 89 511 60 429 60 329 C 60 228 89 147 149 85 C 209 23 287 -8 384 -8 Z M 384 -1 C 289 -1 213 29 155 90 C 97 150 68 230 68 329 C 68 428 97 508 155 568 C 213 628 289 659 384 659 C 478 659 555 628 613 568 C 671 508 700 428 700 329 C 700 230 671 150 613 90 C 555 29 478 -1 384 -1 Z" unicode="Ō" />
<glyph horiz-adv-x="548" d="M 178 556 L 372 556 L 372 563 L 178 563 L 178 556 Z M 274 -8 C 340 -8 394 14 436 58 C 477 102 498 159 498 231 C 498 302 477 360 436 404 C 394 448 340 470 274 470 C 207 470 153 448 112 404 C 70 360 50 302 50 231 C 50 159 70 102 112 58 C 153 14 207 -8 274 -8 Z M 274 -1 C 209 -1 157 20 117 63 C 77 105 58 161 58 231 C 58 300 77 356 117 399 C 157 441 209 463 274 463 C 338 463 390 441 430 399 C 470 356 490 300 490 231 C 490 161 470 105 430 63 C 390 20 338 -1 274 -1 Z" unicode="ō" />
<glyph horiz-adv-x="768" d="M 385 716 C 416 716 441 727 461 749 C 480 771 490 801 490 837 L 483 837 C 483 803 474 775 456 755 C 438 734 414 724 385 724 C 355 724 332 734 314 755 C 296 775 287 803 287 837 L 280 837 C 280 801 289 771 309 749 C 328 727 353 716 385 716 Z M 384 -8 C 480 -8 558 23 618 85 C 678 147 708 228 708 329 C 708 429 678 511 618 573 C 558 635 480 666 384 666 C 287 666 209 635 149 573 C 89 511 60 429 60 329 C 60 228 89 147 149 85 C 209 23 287 -8 384 -8 Z M 384 -1 C 289 -1 213 29 155 90 C 97 150 68 230 68 329 C 68 428 97 508 155 568 C 213 628 289 659 384 659 C 478 659 555 628 613 568 C 671 508 700 428 700 329 C 700 230 671 150 613 90 C 555 29 478 -1 384 -1 Z" unicode="Ŏ" />
<glyph horiz-adv-x="548" d="M 275 516 C 306 516 331 527 351 549 C 370 571 380 601 380 637 L 373 637 C 373 603 364 575 346 555 C 328 534 304 524 275 524 C 245 524 222 534 204 555 C 186 575 177 603 177 637 L 170 637 C 170 601 179 571 199 549 C 218 527 243 516 275 516 Z M 274 -8 C 340 -8 394 14 436 58 C 477 102 498 159 498 231 C 498 302 477 360 436 404 C 394 448 340 470 274 470 C 207 470 153 448 112 404 C 70 360 50 302 50 231 C 50 159 70 102 112 58 C 153 14 207 -8 274 -8 Z M 274 -1 C 209 -1 157 20 117 63 C 77 105 58 161 58 231 C 58 300 77 356 117 399 C 157 441 209 463 274 463 C 338 463 390 441 430 399 C 470 356 490 300 490 231 C 490 161 470 105 430 63 C 390 20 338 -1 274 -1 Z" unicode="ŏ" />
<glyph horiz-adv-x="768" d="M 324 724 L 333 724 L 428 841 L 418 841 L 324 724 Z M 428 724 L 437 724 L 532 841 L 522 841 L 428 724 Z M 384 -8 C 480 -8 558 23 618 85 C 678 147 708 228 708 329 C 708 429 678 511 618 573 C 558 635 480 666 384 666 C 287 666 209 635 149 573 C 89 511 60 429 60 329 C 60 228 89 147 149 85 C 209 23 287 -8 384 -8 Z M 384 -1 C 289 -1 213 29 155 90 C 97 150 68 230 68 329 C 68 428 97 508 155 568 C 213 628 289 659 384 659 C 478 659 555 628 613 568 C 671 508 700 428 700 329 C 700 230 671 150 613 90 C 555 29 478 -1 384 -1 Z" unicode="Ő" />
<glyph horiz-adv-x="548" d="M 214 524 L 223 524 L 318 641 L 308 641 L 214 524 Z M 318 524 L 327 524 L 422 641 L 412 641 L 318 524 Z M 274 -8 C 340 -8 394 14 436 58 C 477 102 498 159 498 231 C 498 302 477 360 436 404 C 394 448 340 470 274 470 C 207 470 153 448 112 404 C 70 360 50 302 50 231 C 50 159 70 102 112 58 C 153 14 207 -8 274 -8 Z M 274 -1 C 209 -1 157 20 117 63 C 77 105 58 161 58 231 C 58 300 77 356 117 399 C 157 441 209 463 274 463 C 338 463 390 441 430 399 C 470 356 490 300 490 231 C 490 161 470 105 430 63 C 390 20 338 -1 274 -1 Z" unicode="ő" />
<glyph horiz-adv-x="885" d="M 391 0 L 821 0 L 821 7 L 502 7 L 502 330 L 793 330 L 793 337 L 502 337 L 502 651 L 809 651 L 809 658 L 394 658 C 294 658 214 628 152 568 C 90 508 60 430 60 333 C 60 233 90 153 151 92 C 211 30 291 0 391 0 Z M 391 7 C 294 7 216 37 157 97 C 97 157 68 235 68 333 C 68 428 98 505 158 563 C 218 621 296 651 394 651 L 494 651 L 494 7 L 391 7 Z" unicode="Œ" />
<glyph horiz-adv-x="916" d="M 266 -8 C 324 -8 371 9 409 43 C 446 77 469 122 478 179 C 487 122 510 77 547 43 C 584 9 630 -8 686 -8 C 714 -8 743 -3 771 5 C 799 13 825 26 850 43 L 850 52 C 826 35 800 22 772 13 C 744 3 716 -1 686 -1 C 625 -1 576 20 538 63 C 500 105 482 161 482 231 L 482 250 L 862 250 L 862 252 C 862 317 845 370 811 410 C 777 450 732 470 678 470 C 624 470 579 453 544 419 C 508 385 486 341 478 285 C 468 341 445 385 408 419 C 371 453 324 470 266 470 C 199 470 146 448 108 404 C 69 360 50 302 50 231 C 50 159 69 102 108 58 C 146 14 199 -8 266 -8 Z M 678 463 C 730 463 772 444 805 406 C 837 368 854 319 854 257 L 483 257 C 486 319 505 368 541 406 C 576 444 622 463 678 463 Z M 266 -1 C 201 -1 150 20 113 63 C 76 105 58 161 58 231 C 58 300 76 356 113 399 C 150 441 201 463 266 463 C 330 463 381 441 418 399 C 455 356 474 300 474 231 C 474 161 455 105 418 63 C 381 20 330 -1 266 -1 Z" unicode="œ" />
<glyph horiz-adv-x="511" d="M 219 724 L 319 849 L 309 849 L 210 724 L 219 724 Z M 450 0 L 459 0 L 369 232 C 357 262 340 286 320 304 C 300 321 276 331 249 335 C 291 338 328 354 358 383 C 388 412 404 449 404 493 C 404 541 387 581 353 612 C 319 642 272 658 212 658 L 92 658 L 92 0 L 100 0 L 100 332 L 214 332 C 250 332 280 323 305 306 C 329 289 348 264 361 231 L 450 0 Z M 100 339 L 100 651 L 212 651 C 270 651 315 636 347 607 C 379 577 396 539 396 493 C 396 451 380 414 349 384 C 317 354 276 339 226 339 L 100 339 Z" unicode="Ŕ" />
<glyph horiz-adv-x="272" d="M 148 524 L 248 649 L 238 649 L 139 524 L 148 524 Z M 76 0 L 84 0 L 84 366 C 98 398 114 422 134 438 C 154 454 175 463 198 463 C 208 463 219 462 229 460 C 239 458 250 455 260 451 L 260 459 C 249 462 239 465 229 467 C 219 469 209 470 199 470 C 175 470 154 462 134 447 C 114 432 98 410 84 381 L 84 462 L 76 462 L 76 0 Z" unicode="ŕ" />
<glyph horiz-adv-x="511" d="M 450 0 L 459 0 L 369 232 C 357 262 340 286 320 304 C 300 321 276 331 249 335 C 291 338 328 354 358 383 C 388 412 404 449 404 493 C 404 541 387 581 353 612 C 319 642 272 658 212 658 L 92 658 L 92 0 L 100 0 L 100 332 L 214 332 C 250 332 280 323 305 306 C 329 289 348 264 361 231 L 450 0 Z M 100 339 L 100 651 L 212 651 C 270 651 315 636 347 607 C 379 577 396 539 396 493 C 396 451 380 414 349 384 C 317 354 276 339 226 339 L 100 339 Z M 224 -200 C 242 -179 255 -159 261 -141 C 267 -122 270 -101 270 -78 L 270 -48 L 262 -48 L 262 -78 C 262 -100 258 -120 252 -139 C 246 -157 235 -176 219 -195 L 224 -200 Z" unicode="Ŗ" />
<glyph horiz-adv-x="272" d="M 76 0 L 84 0 L 84 366 C 98 398 114 422 134 438 C 154 454 175 463 198 463 C 208 463 219 462 229 460 C 239 458 250 455 260 451 L 260 459 C 249 462 239 465 229 467 C 219 469 209 470 199 470 C 175 470 154 462 134 447 C 114 432 98 410 84 381 L 84 462 L 76 462 L 76 0 Z M 37 -200 C 55 -179 68 -159 74 -141 C 80 -122 83 -101 83 -78 L 83 -48 L 75 -48 L 75 -78 C 75 -100 71 -120 65 -139 C 59 -157 48 -176 32 -195 L 37 -200 Z" unicode="ŗ" />
<glyph horiz-adv-x="511" d="M 231 716 L 239 716 L 336 835 L 327 835 L 235 722 L 144 835 L 134 835 L 231 716 Z M 450 0 L 459 0 L 369 232 C 357 262 340 286 320 304 C 300 321 276 331 249 335 C 291 338 328 354 358 383 C 388 412 404 449 404 493 C 404 541 387 581 353 612 C 319 642 272 658 212 658 L 92 658 L 92 0 L 100 0 L 100 332 L 214 332 C 250 332 280 323 305 306 C 329 289 348 264 361 231 L 450 0 Z M 100 339 L 100 651 L 212 651 C 270 651 315 636 347 607 C 379 577 396 539 396 493 C 396 451 380 414 349 384 C 317 354 276 339 226 339 L 100 339 Z" unicode="Ř" />
<glyph horiz-adv-x="272" d="M 160 524 L 168 524 L 265 643 L 256 643 L 164 530 L 73 643 L 63 643 L 160 524 Z M 76 0 L 84 0 L 84 366 C 98 398 114 422 134 438 C 154 454 175 463 198 463 C 208 463 219 462 229 460 C 239 458 250 455 260 451 L 260 459 C 249 462 239 465 229 467 C 219 469 209 470 199 470 C 175 470 154 462 134 447 C 114 432 98 410 84 381 L 84 462 L 76 462 L 76 0 Z" unicode="ř" />
<glyph horiz-adv-x="508" d="M 249 724 L 349 849 L 339 849 L 240 724 L 249 724 Z M 256 -9 C 308 -9 351 7 385 39 C 419 71 436 112 436 162 C 436 206 423 243 397 271 C 371 299 328 324 266 346 L 249 352 C 195 370 156 392 133 417 C 109 441 98 474 98 514 C 98 558 113 593 144 620 C 174 646 215 660 265 660 C 291 660 318 656 346 648 C 373 640 400 627 427 611 L 427 619 C 401 635 374 647 346 655 C 318 663 291 667 265 667 C 212 667 170 653 138 625 C 106 597 90 560 90 514 C 90 472 101 438 125 413 C 149 387 189 364 247 344 L 264 338 C 322 317 364 293 390 267 C 415 240 428 205 428 162 C 428 114 412 74 380 44 C 348 13 306 -2 256 -2 C 222 -2 189 3 157 15 C 125 26 96 41 72 60 L 72 51 C 95 33 123 18 156 7 C 189 -3 222 -9 256 -9 Z" unicode="Ś" />
<glyph horiz-adv-x="379" d="M 181 524 L 281 649 L 271 649 L 172 524 L 181 524 Z M 186 -8 C 226 -8 259 3 285 25 C 311 47 325 75 325 108 C 325 140 315 167 296 188 C 277 209 246 227 202 242 L 184 248 C 144 261 115 276 98 294 C 81 311 73 334 73 362 C 73 390 84 414 108 434 C 131 453 162 463 200 463 C 219 463 240 459 263 453 C 285 446 305 438 322 428 L 322 437 C 305 446 285 454 263 460 C 241 466 220 470 200 470 C 159 470 126 459 102 439 C 77 418 65 392 65 362 C 65 332 74 307 92 289 C 110 270 140 254 182 240 L 200 234 C 242 220 272 203 290 183 C 308 163 317 138 317 108 C 317 77 304 51 280 30 C 255 9 224 -1 186 -1 C 164 -1 142 3 118 12 C 94 20 72 32 54 48 L 54 39 C 70 25 90 13 114 5 C 137 -3 161 -8 186 -8 Z" unicode="ś" />
<glyph horiz-adv-x="508" d="M 173 724 L 264 836 L 354 724 L 364 724 L 267 843 L 261 843 L 164 724 L 173 724 Z M 256 -9 C 308 -9 351 7 385 39 C 419 71 436 112 436 162 C 436 206 423 243 397 271 C 371 299 328 324 266 346 L 249 352 C 195 370 156 392 133 417 C 109 441 98 474 98 514 C 98 558 113 593 144 620 C 174 646 215 660 265 660 C 291 660 318 656 346 648 C 373 640 400 627 427 611 L 427 619 C 401 635 374 647 346 655 C 318 663 291 667 265 667 C 212 667 170 653 138 625 C 106 597 90 560 90 514 C 90 472 101 438 125 413 C 149 387 189 364 247 344 L 264 338 C 322 317 364 293 390 267 C 415 240 428 205 428 162 C 428 114 412 74 380 44 C 348 13 306 -2 256 -2 C 222 -2 189 3 157 15 C 125 26 96 41 72 60 L 72 51 C 95 33 123 18 156 7 C 189 -3 222 -9 256 -9 Z" unicode="Ŝ" />
<glyph horiz-adv-x="379" d="M 105 524 L 196 636 L 286 524 L 296 524 L 199 643 L 193 643 L 96 524 L 105 524 Z M 186 -8 C 226 -8 259 3 285 25 C 311 47 325 75 325 108 C 325 140 315 167 296 188 C 277 209 246 227 202 242 L 184 248 C 144 261 115 276 98 294 C 81 311 73 334 73 362 C 73 390 84 414 108 434 C 131 453 162 463 200 463 C 219 463 240 459 263 453 C 285 446 305 438 322 428 L 322 437 C 305 446 285 454 263 460 C 241 466 220 470 200 470 C 159 470 126 459 102 439 C 77 418 65 392 65 362 C 65 332 74 307 92 289 C 110 270 140 254 182 240 L 200 234 C 242 220 272 203 290 183 C 308 163 317 138 317 108 C 317 77 304 51 280 30 C 255 9 224 -1 186 -1 C 164 -1 142 3 118 12 C 94 20 72 32 54 48 L 54 39 C 70 25 90 13 114 5 C 137 -3 161 -8 186 -8 Z" unicode="ŝ" />
<glyph horiz-adv-x="508" d="M 256 -9 C 308 -9 351 7 385 39 C 419 71 436 112 436 162 C 436 206 423 243 397 271 C 371 299 328 324 266 346 L 249 352 C 195 370 156 392 133 417 C 109 441 98 474 98 514 C 98 558 113 593 144 620 C 174 646 215 660 265 660 C 291 660 318 656 346 648 C 373 640 400 627 427 611 L 427 619 C 401 635 374 647 346 655 C 318 663 291 667 265 667 C 212 667 170 653 138 625 C 106 597 90 560 90 514 C 90 472 101 438 125 413 C 149 387 189 364 247 344 L 264 338 C 322 317 364 293 390 267 C 415 240 428 205 428 162 C 428 114 412 74 380 44 C 348 13 306 -2 256 -2 C 222 -2 189 3 157 15 C 125 26 96 41 72 60 L 72 51 C 95 33 123 18 156 7 C 189 -3 222 -9 256 -9 Z M 247 -176 C 267 -176 284 -169 297 -157 C 309 -145 316 -129 316 -111 C 316 -92 309 -77 295 -65 C 281 -53 263 -48 241 -48 L 235 -48 L 235 -55 L 241 -55 C 261 -55 277 -60 289 -70 C 301 -80 308 -93 308 -111 C 308 -127 302 -141 291 -152 C 280 -163 265 -169 247 -169 C 238 -169 229 -167 219 -165 C 209 -162 201 -158 194 -154 L 194 -162 C 200 -166 208 -169 218 -172 C 228 -174 237 -176 247 -176 Z" unicode="Ş" />
<glyph horiz-adv-x="379" d="M 186 -8 C 226 -8 259 3 285 25 C 311 47 325 75 325 108 C 325 140 315 167 296 188 C 277 209 246 227 202 242 L 184 248 C 144 261 115 276 98 294 C 81 311 73 334 73 362 C 73 390 84 414 108 434 C 131 453 162 463 200 463 C 219 463 240 459 263 453 C 285 446 305 438 322 428 L 322 437 C 305 446 285 454 263 460 C 241 466 220 470 200 470 C 159 470 126 459 102 439 C 77 418 65 392 65 362 C 65 332 74 307 92 289 C 110 270 140 254 182 240 L 200 234 C 242 220 272 203 290 183 C 308 163 317 138 317 108 C 317 77 304 51 280 30 C 255 9 224 -1 186 -1 C 164 -1 142 3 118 12 C 94 20 72 32 54 48 L 54 39 C 70 25 90 13 114 5 C 137 -3 161 -8 186 -8 Z M 190 -176 C 210 -176 227 -169 240 -157 C 252 -145 259 -129 259 -111 C 259 -92 252 -77 238 -65 C 224 -53 206 -48 184 -48 L 178 -48 L 178 -55 L 184 -55 C 204 -55 220 -60 232 -70 C 244 -80 251 -93 251 -111 C 251 -127 245 -141 234 -152 C 223 -163 208 -169 190 -169 C 181 -169 172 -167 162 -165 C 152 -162 144 -158 137 -154 L 137 -162 C 143 -166 151 -169 161 -172 C 171 -174 180 -176 190 -176 Z" unicode="ş" />
<glyph horiz-adv-x="508" d="M 261 716 L 269 716 L 366 835 L 357 835 L 265 722 L 174 835 L 164 835 L 261 716 Z M 256 -9 C 308 -9 351 7 385 39 C 419 71 436 112 436 162 C 436 206 423 243 397 271 C 371 299 328 324 266 346 L 249 352 C 195 370 156 392 133 417 C 109 441 98 474 98 514 C 98 558 113 593 144 620 C 174 646 215 660 265 660 C 291 660 318 656 346 648 C 373 640 400 627 427 611 L 427 619 C 401 635 374 647 346 655 C 318 663 291 667 265 667 C 212 667 170 653 138 625 C 106 597 90 560 90 514 C 90 472 101 438 125 413 C 149 387 189 364 247 344 L 264 338 C 322 317 364 293 390 267 C 415 240 428 205 428 162 C 428 114 412 74 380 44 C 348 13 306 -2 256 -2 C 222 -2 189 3 157 15 C 125 26 96 41 72 60 L 72 51 C 95 33 123 18 156 7 C 189 -3 222 -9 256 -9 Z" unicode="Š" />
<glyph horiz-adv-x="379" d="M 193 524 L 201 524 L 298 643 L 289 643 L 197 530 L 106 643 L 96 643 L 193 524 Z M 186 -8 C 226 -8 259 3 285 25 C 311 47 325 75 325 108 C 325 140 315 167 296 188 C 277 209 246 227 202 242 L 184 248 C 144 261 115 276 98 294 C 81 311 73 334 73 362 C 73 390 84 414 108 434 C 131 453 162 463 200 463 C 219 463 240 459 263 453 C 285 446 305 438 322 428 L 322 437 C 305 446 285 454 263 460 C 241 466 220 470 200 470 C 159 470 126 459 102 439 C 77 418 65 392 65 362 C 65 332 74 307 92 289 C 110 270 140 254 182 240 L 200 234 C 242 220 272 203 290 183 C 308 163 317 138 317 108 C 317 77 304 51 280 30 C 255 9 224 -1 186 -1 C 164 -1 142 3 118 12 C 94 20 72 32 54 48 L 54 39 C 70 25 90 13 114 5 C 137 -3 161 -8 186 -8 Z" unicode="š" />
<glyph horiz-adv-x="536" d="M 264 0 L 272 0 L 272 651 L 516 651 L 516 658 L 20 658 L 20 651 L 264 651 L 264 0 Z M 265 -176 C 285 -176 302 -169 315 -157 C 327 -145 334 -129 334 -111 C 334 -92 327 -77 313 -65 C 299 -53 281 -48 259 -48 L 253 -48 L 253 -55 L 259 -55 C 279 -55 295 -60 307 -70 C 319 -80 326 -93 326 -111 C 326 -127 320 -141 309 -152 C 298 -163 283 -169 265 -169 C 256 -169 247 -167 237 -165 C 227 -162 219 -158 212 -154 L 212 -162 C 218 -166 226 -169 236 -172 C 246 -174 255 -176 265 -176 Z" unicode="Ţ" />
<glyph horiz-adv-x="298" d="M 188 -8 C 200 -8 212 -6 226 -2 C 240 2 252 7 262 14 L 262 23 C 252 16 240 10 226 6 C 212 1 200 -1 188 -1 C 165 -1 148 6 137 20 C 125 34 120 53 120 76 L 120 455 L 254 455 L 254 462 L 120 462 L 120 624 L 112 624 L 112 462 L 32 462 L 32 455 L 112 455 L 112 76 C 112 48 119 27 133 13 C 147 0 165 -8 188 -8 Z M 184 -176 C 204 -176 221 -169 234 -157 C 246 -145 253 -129 253 -111 C 253 -92 246 -77 232 -65 C 218 -53 200 -48 178 -48 L 172 -48 L 172 -55 L 178 -55 C 198 -55 214 -60 226 -70 C 238 -80 245 -93 245 -111 C 245 -127 239 -141 228 -152 C 217 -163 202 -169 184 -169 C 175 -169 166 -167 156 -165 C 146 -162 138 -158 131 -154 L 131 -162 C 137 -166 145 -169 155 -172 C 165 -174 174 -176 184 -176 Z" unicode="ţ" />
<glyph horiz-adv-x="536" d="M 266 716 L 274 716 L 371 835 L 362 835 L 270 722 L 179 835 L 169 835 L 266 716 Z M 264 0 L 272 0 L 272 651 L 516 651 L 516 658 L 20 658 L 20 651 L 264 651 L 264 0 Z" unicode="Ť" />
<glyph horiz-adv-x="298" d="M 211 572 C 229 592 242 612 248 631 C 254 649 257 670 257 694 L 257 724 L 249 724 L 249 694 C 249 672 245 651 239 633 C 233 614 222 595 206 577 L 211 572 Z M 188 -8 C 200 -8 212 -6 226 -2 C 240 2 252 7 262 14 L 262 23 C 252 16 240 10 226 6 C 212 1 200 -1 188 -1 C 165 -1 148 6 137 20 C 125 34 120 53 120 76 L 120 455 L 254 455 L 254 462 L 120 462 L 120 624 L 112 624 L 112 462 L 32 462 L 32 455 L 112 455 L 112 76 C 112 48 119 27 133 13 C 147 0 165 -8 188 -8 Z" unicode="ť" />
<glyph horiz-adv-x="536" d="M 264 0 L 272 0 L 272 367 L 420 367 L 420 374 L 272 374 L 272 651 L 516 651 L 516 658 L 20 658 L 20 651 L 264 651 L 264 374 L 116 374 L 116 367 L 264 367 L 264 0 Z" unicode="Ŧ" />
<glyph horiz-adv-x="298" d="M 188 -8 C 200 -8 212 -6 226 -2 C 240 2 252 7 262 14 L 262 23 C 252 16 240 10 226 6 C 212 1 200 -1 188 -1 C 165 -1 148 6 137 20 C 125 34 120 53 120 76 L 120 307 L 202 307 L 202 314 L 120 314 L 120 455 L 254 455 L 254 462 L 120 462 L 120 624 L 112 624 L 112 462 L 32 462 L 32 455 L 112 455 L 112 314 L 48 314 L 48 307 L 112 307 L 112 76 C 112 48 119 27 133 13 C 147 0 165 -8 188 -8 Z" unicode="ŧ" />
<glyph horiz-adv-x="663" d="M 218 728 C 220 744 226 757 235 765 C 244 773 256 778 270 778 C 279 778 288 775 296 771 C 304 767 316 759 331 748 C 345 736 357 727 366 723 C 375 719 385 717 396 717 C 411 717 424 721 434 731 C 444 740 451 755 455 777 L 448 777 C 444 759 438 745 430 737 C 421 728 410 724 396 724 C 386 724 377 726 369 730 C 361 734 349 742 335 754 C 320 766 308 774 299 778 C 290 782 280 785 270 785 C 254 785 241 780 231 771 C 220 762 213 748 211 728 L 218 728 Z M 331 -9 C 405 -9 464 15 510 63 C 556 111 579 174 579 252 L 579 658 L 571 658 L 571 252 C 571 176 549 115 505 69 C 461 22 403 -1 331 -1 C 259 -1 202 22 158 69 C 114 115 92 176 92 252 L 92 658 L 84 658 L 84 252 C 84 174 106 111 152 63 C 198 15 257 -9 331 -9 Z" unicode="Ũ" />
<glyph horiz-adv-x="462" d="M 110 548 C 112 564 118 577 127 585 C 136 593 148 598 162 598 C 171 598 180 595 188 591 C 196 587 208 579 223 568 C 237 556 249 547 258 543 C 267 539 277 537 288 537 C 303 537 316 541 326 551 C 336 560 343 575 347 597 L 340 597 C 336 579 330 565 322 557 C 313 548 302 544 288 544 C 278 544 269 546 261 550 C 253 554 241 562 227 574 C 212 586 200 594 191 598 C 182 602 172 605 162 605 C 146 605 133 600 123 591 C 112 582 105 568 103 548 L 110 548 Z M 229 -8 C 260 -8 289 0 316 15 C 343 31 364 52 378 78 L 380 0 L 386 0 L 386 462 L 378 462 L 378 92 C 364 64 344 41 318 24 C 291 7 261 -1 229 -1 C 185 -1 149 13 121 42 C 93 70 80 108 80 155 L 80 462 L 72 462 L 72 155 C 72 106 86 67 116 37 C 145 7 183 -8 229 -8 Z" unicode="ũ" />
<glyph horiz-adv-x="663" d="M 239 732 L 433 732 L 433 739 L 239 739 L 239 732 Z M 331 -9 C 405 -9 464 15 510 63 C 556 111 579 174 579 252 L 579 658 L 571 658 L 571 252 C 571 176 549 115 505 69 C 461 22 403 -1 331 -1 C 259 -1 202 22 158 69 C 114 115 92 176 92 252 L 92 658 L 84 658 L 84 252 C 84 174 106 111 152 63 C 198 15 257 -9 331 -9 Z" unicode="Ū" />
<glyph horiz-adv-x="462" d="M 131 556 L 325 556 L 325 563 L 131 563 L 131 556 Z M 229 -8 C 260 -8 289 0 316 15 C 343 31 364 52 378 78 L 380 0 L 386 0 L 386 462 L 378 462 L 378 92 C 364 64 344 41 318 24 C 291 7 261 -1 229 -1 C 185 -1 149 13 121 42 C 93 70 80 108 80 155 L 80 462 L 72 462 L 72 155 C 72 106 86 67 116 37 C 145 7 183 -8 229 -8 Z" unicode="ū" />
<glyph horiz-adv-x="663" d="M 336 716 C 367 716 392 727 412 749 C 431 771 441 801 441 837 L 434 837 C 434 803 425 775 407 755 C 389 734 365 724 336 724 C 306 724 283 734 265 755 C 247 775 238 803 238 837 L 231 837 C 231 801 240 771 260 749 C 279 727 304 716 336 716 Z M 331 -9 C 405 -9 464 15 510 63 C 556 111 579 174 579 252 L 579 658 L 571 658 L 571 252 C 571 176 549 115 505 69 C 461 22 403 -1 331 -1 C 259 -1 202 22 158 69 C 114 115 92 176 92 252 L 92 658 L 84 658 L 84 252 C 84 174 106 111 152 63 C 198 15 257 -9 331 -9 Z" unicode="Ŭ" />
<glyph horiz-adv-x="462" d="M 228 516 C 259 516 284 527 304 549 C 323 571 333 601 333 637 L 326 637 C 326 603 317 575 299 555 C 281 534 257 524 228 524 C 198 524 175 534 157 555 C 139 575 130 603 130 637 L 123 637 C 123 601 132 571 152 549 C 171 527 196 516 228 516 Z M 229 -8 C 260 -8 289 0 316 15 C 343 31 364 52 378 78 L 380 0 L 386 0 L 386 462 L 378 462 L 378 92 C 364 64 344 41 318 24 C 291 7 261 -1 229 -1 C 185 -1 149 13 121 42 C 93 70 80 108 80 155 L 80 462 L 72 462 L 72 155 C 72 106 86 67 116 37 C 145 7 183 -8 229 -8 Z" unicode="ŭ" />
<glyph horiz-adv-x="663" d="M 335 667 C 351 667 364 672 375 682 C 385 692 391 706 391 722 C 391 738 385 751 375 761 C 364 771 351 777 335 777 C 319 777 305 771 295 761 C 284 751 279 738 279 722 C 279 706 284 692 295 682 C 305 672 319 667 335 667 Z M 335 674 C 321 674 309 678 300 688 C 291 697 287 708 287 722 C 287 735 291 746 300 756 C 309 765 321 770 335 770 C 349 770 360 765 369 756 C 378 746 383 735 383 722 C 383 708 378 697 369 688 C 360 678 349 674 335 674 Z M 331 -9 C 405 -9 464 15 510 63 C 556 111 579 174 579 252 L 579 658 L 571 658 L 571 252 C 571 176 549 115 505 69 C 461 22 403 -1 331 -1 C 259 -1 202 22 158 69 C 114 115 92 176 92 252 L 92 658 L 84 658 L 84 252 C 84 174 106 111 152 63 C 198 15 257 -9 331 -9 Z" unicode="Ů" />
<glyph horiz-adv-x="462" d="M 227 505 C 243 505 256 510 267 520 C 277 530 283 544 283 560 C 283 576 277 589 267 599 C 256 609 243 615 227 615 C 211 615 197 609 187 599 C 176 589 171 576 171 560 C 171 544 176 530 187 520 C 197 510 211 505 227 505 Z M 227 512 C 213 512 201 516 192 526 C 183 535 179 546 179 560 C 179 573 183 584 192 594 C 201 603 213 608 227 608 C 241 608 252 603 261 594 C 270 584 275 573 275 560 C 275 546 270 535 261 526 C 252 516 241 512 227 512 Z M 229 -8 C 260 -8 289 0 316 15 C 343 31 364 52 378 78 L 380 0 L 386 0 L 386 462 L 378 462 L 378 92 C 364 64 344 41 318 24 C 291 7 261 -1 229 -1 C 185 -1 149 13 121 42 C 93 70 80 108 80 155 L 80 462 L 72 462 L 72 155 C 72 106 86 67 116 37 C 145 7 183 -8 229 -8 Z" unicode="ů" />
<glyph horiz-adv-x="663" d="M 275 724 L 284 724 L 379 841 L 369 841 L 275 724 Z M 379 724 L 388 724 L 483 841 L 473 841 L 379 724 Z M 331 -9 C 405 -9 464 15 510 63 C 556 111 579 174 579 252 L 579 658 L 571 658 L 571 252 C 571 176 549 115 505 69 C 461 22 403 -1 331 -1 C 259 -1 202 22 158 69 C 114 115 92 176 92 252 L 92 658 L 84 658 L 84 252 C 84 174 106 111 152 63 C 198 15 257 -9 331 -9 Z" unicode="Ű" />
<glyph horiz-adv-x="462" d="M 167 524 L 176 524 L 271 641 L 261 641 L 167 524 Z M 271 524 L 280 524 L 375 641 L 365 641 L 271 524 Z M 229 -8 C 260 -8 289 0 316 15 C 343 31 364 52 378 78 L 380 0 L 386 0 L 386 462 L 378 462 L 378 92 C 364 64 344 41 318 24 C 291 7 261 -1 229 -1 C 185 -1 149 13 121 42 C 93 70 80 108 80 155 L 80 462 L 72 462 L 72 155 C 72 106 86 67 116 37 C 145 7 183 -8 229 -8 Z" unicode="ű" />
<glyph horiz-adv-x="663" d="M 498 -220 L 498 -212 C 456 -212 423 -201 397 -180 C 371 -159 358 -132 358 -98 C 358 -73 365 -51 379 -32 C 393 -13 412 1 436 11 C 480 29 514 60 540 102 C 566 144 579 194 579 252 L 579 658 L 571 658 L 571 252 C 571 176 549 115 505 69 C 461 22 403 -1 331 -1 C 259 -1 202 22 158 69 C 114 115 92 176 92 252 L 92 658 L 84 658 L 84 252 C 84 174 106 111 152 63 C 198 15 257 -9 331 -9 C 344 -9 357 -8 369 -6 C 381 -4 393 -2 404 0 C 386 -10 372 -24 363 -41 C 354 -58 350 -77 350 -98 C 350 -134 363 -163 391 -186 C 418 -208 454 -220 498 -220 Z" unicode="Ų" />
<glyph horiz-adv-x="462" d="M 229 -8 C 260 -8 289 0 316 15 C 343 31 364 52 378 78 L 380 3 C 346 -26 323 -50 309 -69 C 295 -87 288 -110 288 -136 C 288 -160 297 -180 315 -196 C 333 -212 358 -220 388 -220 L 388 -212 C 363 -212 341 -205 323 -191 C 305 -177 296 -159 296 -136 C 296 -112 302 -91 316 -72 C 330 -53 354 -29 388 0 L 386 2 L 386 462 L 378 462 L 378 92 C 364 64 344 41 318 24 C 291 7 261 -1 229 -1 C 185 -1 149 13 121 42 C 93 70 80 108 80 155 L 80 462 L 72 462 L 72 155 C 72 106 86 67 116 37 C 145 7 183 -8 229 -8 Z" unicode="ų" />
<glyph horiz-adv-x="888" d="M 354 724 L 445 836 L 535 724 L 545 724 L 448 843 L 442 843 L 345 724 L 354 724 Z M 233 0 L 240 0 L 427 588 L 445 647 L 463 588 L 648 0 L 655 0 L 864 658 L 857 658 L 670 71 L 652 12 L 634 71 L 449 658 L 442 658 L 255 71 L 237 13 L 219 71 L 33 658 L 24 658 L 233 0 Z" unicode="Ŵ" />
<glyph horiz-adv-x="687" d="M 252 524 L 343 636 L 433 524 L 443 524 L 346 643 L 340 643 L 243 524 L 252 524 Z M 180 0 L 188 0 L 323 391 L 344 452 L 364 391 L 499 0 L 507 0 L 667 462 L 659 462 L 524 71 L 503 11 L 483 71 L 348 462 L 340 462 L 205 71 L 184 11 L 164 71 L 29 462 L 20 462 L 180 0 Z" unicode="ŵ" />
<glyph horiz-adv-x="519" d="M 169 724 L 260 836 L 350 724 L 360 724 L 263 843 L 257 843 L 160 724 L 169 724 Z M 255 0 L 263 0 L 263 309 L 499 658 L 490 658 L 289 361 L 260 317 L 231 360 L 30 658 L 20 658 L 255 309 L 255 0 Z" unicode="Ŷ" />
<glyph horiz-adv-x="418" d="M 128 524 L 219 636 L 309 524 L 319 524 L 222 643 L 216 643 L 119 524 L 128 524 Z M -4 -220 C 41 -220 80 -203 114 -169 C 147 -135 180 -78 213 0 L 402 462 L 394 462 L 234 71 L 210 10 L 185 71 L 25 462 L 16 462 L 205 1 L 206 -1 C 174 -76 141 -130 109 -163 C 77 -196 39 -213 -4 -213 L -12 -213 L -12 -220 L -4 -220 Z" unicode="ŷ" />
<glyph horiz-adv-x="519" d="M 184 724 L 204 724 L 204 744 L 184 744 L 184 724 Z M 316 724 L 336 724 L 336 744 L 316 744 L 316 724 Z M 255 0 L 263 0 L 263 309 L 499 658 L 490 658 L 289 361 L 260 317 L 231 360 L 30 658 L 20 658 L 255 309 L 255 0 Z" unicode="Ÿ" />
<glyph horiz-adv-x="604" d="M 285 724 L 385 849 L 375 849 L 276 724 L 285 724 Z M 76 0 L 528 0 L 528 7 L 86 7 L 123 61 L 528 651 L 528 658 L 76 658 L 76 651 L 518 651 L 481 597 L 76 7 L 76 0 Z" unicode="Ź" />
<glyph horiz-adv-x="419" d="M 196 524 L 296 649 L 286 649 L 187 524 L 196 524 Z M 52 0 L 367 0 L 367 7 L 61 7 L 92 52 L 367 455 L 367 462 L 52 462 L 52 455 L 358 455 L 327 410 L 52 7 L 52 0 Z" unicode="ź" />
<glyph horiz-adv-x="604" d="M 288 724 L 308 724 L 308 744 L 288 744 L 288 724 Z M 76 0 L 528 0 L 528 7 L 86 7 L 123 61 L 528 651 L 528 658 L 76 658 L 76 651 L 518 651 L 481 597 L 76 7 L 76 0 Z" unicode="Ż" />
<glyph horiz-adv-x="419" d="M 203 548 L 223 548 L 223 568 L 203 568 L 203 548 Z M 52 0 L 367 0 L 367 7 L 61 7 L 92 52 L 367 455 L 367 462 L 52 462 L 52 455 L 358 455 L 327 410 L 52 7 L 52 0 Z" unicode="ż" />
<glyph horiz-adv-x="604" d="M 297 716 L 305 716 L 402 835 L 393 835 L 301 722 L 210 835 L 200 835 L 297 716 Z M 76 0 L 528 0 L 528 7 L 86 7 L 123 61 L 528 651 L 528 658 L 76 658 L 76 651 L 518 651 L 481 597 L 76 7 L 76 0 Z" unicode="Ž" />
<glyph horiz-adv-x="419" d="M 208 524 L 216 524 L 313 643 L 304 643 L 212 530 L 121 643 L 111 643 L 208 524 Z M 52 0 L 367 0 L 367 7 L 61 7 L 92 52 L 367 455 L 367 462 L 52 462 L 52 455 L 358 455 L 327 410 L 52 7 L 52 0 Z" unicode="ž" />
<glyph horiz-adv-x="506" d="M 47 -220 C 81 -220 109 -208 132 -184 C 155 -160 169 -128 175 -90 L 251 455 L 402 455 L 402 462 L 252 462 L 270 594 C 276 635 290 667 314 690 C 337 713 367 725 405 725 C 420 725 436 722 454 718 C 472 713 488 707 502 699 L 502 707 C 487 714 471 720 453 725 C 435 729 419 732 405 732 C 365 732 333 719 308 695 C 283 671 268 637 262 594 L 244 462 L 107 462 L 107 455 L 243 455 L 167 -89 C 162 -125 149 -155 127 -178 C 105 -201 78 -213 47 -213 C 31 -213 15 -210 0 -205 C -14 -200 -28 -194 -40 -186 L -40 -194 C -28 -202 -15 -208 0 -213 C 14 -217 30 -220 47 -220 Z" unicode="ƒ" />
<glyph horiz-adv-x="686" d="M 384 716 L 392 716 L 489 835 L 480 835 L 388 722 L 297 835 L 287 835 L 384 716 Z M 388 -8 C 429 -8 469 -4 508 3 C 546 10 582 21 616 36 L 616 300 L 447 300 L 447 293 L 608 293 L 608 40 C 575 26 540 15 503 9 C 465 2 427 -1 388 -1 C 294 -1 217 29 157 90 C 97 151 68 231 68 330 C 68 428 98 507 158 568 C 218 628 296 659 392 659 C 426 659 460 655 495 647 C 530 639 564 628 597 614 L 597 622 C 564 636 530 647 496 655 C 462 662 427 666 392 666 C 294 666 214 635 152 573 C 90 511 60 430 60 330 C 60 229 90 147 151 85 C 212 23 291 -8 388 -8 Z" unicode="Ǧ" />
<glyph horiz-adv-x="500" d="M 255 524 L 263 524 L 360 643 L 351 643 L 259 530 L 168 643 L 158 643 L 255 524 Z M 225 -228 C 285 -228 333 -208 369 -170 C 405 -132 424 -81 424 -17 L 424 462 L 418 462 L 416 411 C 396 429 372 443 346 454 C 319 464 291 470 263 470 C 201 470 151 448 111 404 C 71 360 52 303 52 232 C 52 160 71 102 109 58 C 147 14 196 -8 257 -8 C 289 -8 319 -1 347 12 C 374 26 397 44 416 67 L 416 -17 C 416 -79 398 -128 364 -165 C 329 -202 283 -221 225 -221 C 200 -221 173 -215 144 -205 C 115 -195 89 -182 67 -166 L 67 -174 C 89 -189 114 -202 143 -212 C 171 -222 199 -228 225 -228 Z M 257 -1 C 199 -1 151 20 115 63 C 78 106 60 162 60 232 C 60 301 79 357 117 399 C 155 441 204 463 263 463 C 290 463 317 457 343 447 C 369 437 393 422 416 402 L 416 76 C 395 50 371 31 343 18 C 315 5 286 -1 257 -1 Z" unicode="ǧ" />
<glyph horiz-adv-x="576" d="M 272 778 L 281 778 L 338 858 L 328 858 L 272 778 Z M 24 0 L 32 0 L 134 263 L 441 263 L 543 0 L 552 0 L 292 667 C 304 668 313 673 321 682 C 329 690 333 701 333 714 C 333 727 328 738 319 747 C 310 756 299 761 286 761 C 272 761 261 756 252 747 C 243 738 239 727 239 714 C 239 701 243 690 252 681 C 260 672 271 667 284 667 L 24 0 Z M 286 674 C 275 674 266 677 258 685 C 250 693 247 702 247 714 C 247 725 250 734 258 742 C 266 750 275 754 286 754 C 296 754 305 750 313 742 C 321 734 325 725 325 714 C 325 702 321 693 313 685 C 305 677 296 674 286 674 Z M 137 270 L 265 598 L 287 658 L 310 598 L 438 270 L 137 270 Z" unicode="Ǻ" />
<glyph horiz-adv-x="416" d="M 192 644 L 201 644 L 258 724 L 248 724 L 192 644 Z M 206 517 C 219 517 230 521 239 530 C 248 539 253 550 253 564 C 253 577 248 588 239 597 C 230 606 219 611 206 611 C 192 611 181 606 172 597 C 163 588 159 577 159 564 C 159 550 163 539 172 530 C 181 521 192 517 206 517 Z M 206 524 C 195 524 186 527 178 535 C 170 543 167 552 167 564 C 167 575 170 584 178 592 C 186 600 195 604 206 604 C 216 604 225 600 233 592 C 241 584 245 575 245 564 C 245 552 241 543 233 535 C 225 527 216 524 206 524 Z M 192 -8 C 222 -8 250 -1 274 11 C 298 23 319 42 336 67 L 338 0 L 344 0 L 344 326 C 344 370 331 405 306 431 C 281 457 248 470 207 470 C 184 470 160 465 135 457 C 110 449 88 438 70 424 L 70 415 C 88 429 110 441 136 450 C 161 458 185 463 207 463 C 245 463 276 450 300 426 C 324 401 336 368 336 326 L 336 270 L 204 255 C 158 250 122 235 94 210 C 66 185 52 155 52 119 C 52 81 65 50 91 27 C 117 3 151 -8 192 -8 Z M 192 -1 C 153 -1 121 10 97 32 C 72 54 60 83 60 119 C 60 153 73 181 99 205 C 125 229 161 243 205 248 L 336 263 L 336 77 C 319 51 298 32 274 19 C 249 5 222 -1 192 -1 Z" unicode="ǻ" />
<glyph horiz-adv-x="797" d="M 493 724 L 593 849 L 583 849 L 484 724 L 493 724 Z M 16 0 L 24 0 L 172 255 L 400 255 L 400 0 L 733 0 L 733 7 L 408 7 L 408 330 L 705 330 L 705 337 L 408 337 L 408 651 L 721 651 L 721 658 L 398 658 L 16 0 Z M 176 262 L 371 598 L 400 648 L 400 262 L 176 262 Z" unicode="Ǽ" />
<glyph horiz-adv-x="765" d="M 358 524 L 458 649 L 448 649 L 349 524 L 358 524 Z M 184 -8 C 224 -8 259 7 290 39 C 321 71 338 112 342 164 C 352 111 374 69 407 38 C 440 7 483 -8 535 -8 C 563 -8 591 -3 619 5 C 647 13 674 26 700 44 L 700 53 C 675 36 649 23 621 13 C 593 3 565 -1 535 -1 C 470 -1 422 21 391 67 C 359 112 344 162 344 218 L 344 245 L 711 245 L 711 252 C 711 317 694 370 660 410 C 626 450 582 470 527 470 C 482 470 443 456 411 430 C 378 403 355 364 343 313 C 341 365 328 404 303 430 C 278 456 246 470 207 470 C 184 470 160 465 135 457 C 110 449 88 438 70 424 L 70 415 C 88 429 110 441 136 450 C 161 458 185 463 207 463 C 245 463 276 449 300 423 C 324 397 336 358 336 307 L 336 252 L 213 252 C 165 252 126 240 96 218 C 66 196 52 163 52 119 C 52 81 64 50 89 27 C 114 3 146 -8 184 -8 Z M 527 463 C 579 463 622 443 654 405 C 686 366 703 315 703 252 L 344 252 C 345 315 362 366 396 405 C 429 443 473 463 527 463 Z M 184 -1 C 148 -1 118 10 95 32 C 71 54 60 83 60 119 C 60 157 73 187 99 210 C 125 233 163 245 214 245 L 336 245 L 336 183 C 336 133 321 90 293 54 C 264 17 228 -1 184 -1 Z" unicode="ǽ" />
<glyph horiz-adv-x="768" d="M 373 724 L 473 849 L 463 849 L 364 724 L 373 724 Z M 151 -48 L 159 -48 L 211 36 C 235 22 261 11 291 3 C 320 -4 351 -8 384 -8 C 480 -8 558 23 618 85 C 678 147 708 228 708 329 C 708 393 695 449 670 499 C 645 549 611 588 567 616 L 622 706 L 614 706 L 561 620 C 536 634 509 646 479 654 C 449 662 418 666 384 666 C 287 666 209 635 149 573 C 89 511 60 429 60 329 C 60 264 72 207 98 157 C 124 107 159 68 205 40 L 151 -48 Z M 68 329 C 68 428 97 508 155 568 C 213 628 289 659 384 659 C 416 659 447 655 477 647 C 506 639 533 628 557 614 L 209 46 C 165 73 130 111 105 160 C 80 208 68 265 68 329 Z M 384 -1 C 351 -1 320 2 292 10 C 264 17 238 28 214 42 L 563 610 C 605 582 639 544 663 496 C 687 448 700 392 700 329 C 700 230 671 150 613 90 C 555 29 478 -1 384 -1 Z" unicode="Ǿ" />
<glyph horiz-adv-x="548" d="M 257 524 L 357 649 L 347 649 L 248 524 L 257 524 Z M 101 -48 L 109 -48 L 153 24 C 169 13 188 5 209 0 C 229 -5 251 -8 274 -8 C 340 -8 394 14 436 58 C 477 102 498 159 498 231 C 498 276 489 316 472 351 C 454 386 430 414 400 434 L 446 510 L 438 510 L 395 438 C 378 448 359 456 339 462 C 318 467 296 470 274 470 C 207 470 153 448 112 404 C 70 360 50 302 50 231 C 50 185 58 145 75 110 C 92 75 116 48 147 28 L 101 -48 Z M 58 231 C 58 300 77 356 117 399 C 157 441 209 463 274 463 C 296 463 317 460 337 455 C 356 449 374 442 391 432 L 151 34 C 121 53 98 80 82 114 C 66 148 58 187 58 231 Z M 274 -1 C 251 -1 230 1 210 7 C 190 12 172 20 156 31 L 397 428 C 425 408 448 382 465 348 C 481 314 490 275 490 231 C 490 161 470 105 430 63 C 390 20 338 -1 274 -1 Z" unicode="ǿ" />
<glyph horiz-adv-x="508" d="M 256 -9 C 308 -9 351 7 385 39 C 419 71 436 112 436 162 C 436 206 423 243 397 271 C 371 299 328 324 266 346 L 249 352 C 195 370 156 392 133 417 C 109 441 98 474 98 514 C 98 558 113 593 144 620 C 174 646 215 660 265 660 C 291 660 318 656 346 648 C 373 640 400 627 427 611 L 427 619 C 401 635 374 647 346 655 C 318 663 291 667 265 667 C 212 667 170 653 138 625 C 106 597 90 560 90 514 C 90 472 101 438 125 413 C 149 387 189 364 247 344 L 264 338 C 322 317 364 293 390 267 C 415 240 428 205 428 162 C 428 114 412 74 380 44 C 348 13 306 -2 256 -2 C 222 -2 189 3 157 15 C 125 26 96 41 72 60 L 72 51 C 95 33 123 18 156 7 C 189 -3 222 -9 256 -9 Z M 207 -200 C 225 -179 238 -159 244 -141 C 250 -122 253 -101 253 -78 L 253 -48 L 245 -48 L 245 -78 C 245 -100 241 -120 235 -139 C 229 -157 218 -176 202 -195 L 207 -200 Z" unicode="Ș" />
<glyph horiz-adv-x="379" d="M 186 -8 C 226 -8 259 3 285 25 C 311 47 325 75 325 108 C 325 140 315 167 296 188 C 277 209 246 227 202 242 L 184 248 C 144 261 115 276 98 294 C 81 311 73 334 73 362 C 73 390 84 414 108 434 C 131 453 162 463 200 463 C 219 463 240 459 263 453 C 285 446 305 438 322 428 L 322 437 C 305 446 285 454 263 460 C 241 466 220 470 200 470 C 159 470 126 459 102 439 C 77 418 65 392 65 362 C 65 332 74 307 92 289 C 110 270 140 254 182 240 L 200 234 C 242 220 272 203 290 183 C 308 163 317 138 317 108 C 317 77 304 51 280 30 C 255 9 224 -1 186 -1 C 164 -1 142 3 118 12 C 94 20 72 32 54 48 L 54 39 C 70 25 90 13 114 5 C 137 -3 161 -8 186 -8 Z M 150 -200 C 168 -179 181 -159 187 -141 C 193 -122 196 -101 196 -78 L 196 -48 L 188 -48 L 188 -78 C 188 -100 184 -120 178 -139 C 172 -157 161 -176 145 -195 L 150 -200 Z" unicode="ș" />
<glyph horiz-adv-x="536" d="M 264 0 L 272 0 L 272 651 L 516 651 L 516 658 L 20 658 L 20 651 L 264 651 L 264 0 Z M 225 -200 C 243 -179 256 -159 262 -141 C 268 -122 271 -101 271 -78 L 271 -48 L 263 -48 L 263 -78 C 263 -100 259 -120 253 -139 C 247 -157 236 -176 220 -195 L 225 -200 Z" unicode="Ț" />
<glyph horiz-adv-x="298" d="M 188 -8 C 200 -8 212 -6 226 -2 C 240 2 252 7 262 14 L 262 23 C 252 16 240 10 226 6 C 212 1 200 -1 188 -1 C 165 -1 148 6 137 20 C 125 34 120 53 120 76 L 120 455 L 254 455 L 254 462 L 120 462 L 120 624 L 112 624 L 112 462 L 32 462 L 32 455 L 112 455 L 112 76 C 112 48 119 27 133 13 C 147 0 165 -8 188 -8 Z M 144 -200 C 162 -179 175 -159 181 -141 C 187 -122 190 -101 190 -78 L 190 -48 L 182 -48 L 182 -78 C 182 -100 178 -120 172 -139 C 166 -157 155 -176 139 -195 L 144 -200 Z" unicode="ț" />
<glyph horiz-adv-x="158" d="M -36 -204 C 0 -204 29 -191 52 -166 C 74 -140 86 -106 86 -63 L 86 462 L 78 462 L 78 -63 C 78 -104 67 -137 46 -161 C 25 -185 -2 -197 -36 -197 L -44 -197 L -44 -204 L -36 -204 Z" unicode="ȷ" />
<glyph horiz-adv-x="496" d="M 236 -7 C 296 -7 345 14 383 58 C 421 102 440 159 440 230 C 440 302 420 360 381 404 C 342 448 291 471 228 471 C 199 471 171 466 143 458 C 115 449 88 436 64 420 L 64 411 C 88 427 113 440 141 450 C 169 459 198 464 228 464 C 288 464 337 442 375 400 C 413 357 432 301 432 232 L 432 213 L 52 213 L 52 211 C 52 145 69 93 103 53 C 137 13 181 -7 236 -7 Z M 236 0 C 184 0 141 18 109 56 C 76 94 60 144 60 206 L 431 206 C 427 144 408 94 373 56 C 337 18 292 0 236 0 Z" unicode="ə" />
<glyph horiz-adv-x="320" d="M 69 524 L 160 636 L 250 524 L 260 524 L 163 643 L 157 643 L 60 524 L 69 524 Z" unicode="ˆ" />
<glyph horiz-adv-x="322" d="M 157 524 L 165 524 L 262 643 L 253 643 L 161 530 L 70 643 L 60 643 L 157 524 Z" unicode="ˇ" />
<glyph horiz-adv-x="362" d="M 181 516 C 212 516 237 527 257 549 C 276 571 286 601 286 637 L 279 637 C 279 603 270 575 252 555 C 234 534 210 524 181 524 C 151 524 128 534 110 555 C 92 575 83 603 83 637 L 76 637 C 76 601 85 571 105 549 C 124 527 149 516 181 516 Z" unicode="˘" />
<glyph horiz-adv-x="136" d="M 60 548 L 80 548 L 80 568 L 60 568 L 60 548 Z" unicode="˙" />
<glyph horiz-adv-x="224" d="M 112 513 C 128 513 141 518 152 528 C 162 538 168 552 168 568 C 168 584 162 597 152 607 C 141 617 128 623 112 623 C 96 623 82 617 72 607 C 61 597 56 584 56 568 C 56 552 61 538 72 528 C 82 518 96 513 112 513 Z M 112 520 C 98 520 86 524 77 534 C 68 543 64 554 64 568 C 64 581 68 592 77 602 C 86 611 98 616 112 616 C 126 616 137 611 146 602 C 155 592 160 581 160 568 C 160 554 155 543 146 534 C 137 524 126 520 112 520 Z" unicode="˚" />
<glyph horiz-adv-x="237" d="M 197 -220 L 197 -213 C 159 -213 129 -203 106 -184 C 83 -165 72 -140 72 -110 C 72 -81 82 -57 104 -37 C 125 -17 152 -4 185 0 L 185 7 C 149 1 119 -11 97 -32 C 75 -53 64 -79 64 -110 C 64 -142 76 -169 101 -189 C 125 -209 157 -220 197 -220 Z" unicode="˛" />
<glyph horiz-adv-x="328" d="M 47 548 C 49 564 55 577 64 585 C 73 593 85 598 99 598 C 108 598 117 595 125 591 C 133 587 145 579 160 568 C 174 556 186 547 195 543 C 204 539 214 537 225 537 C 240 537 253 541 263 551 C 273 560 280 575 284 597 L 277 597 C 273 579 267 565 259 557 C 250 548 239 544 225 544 C 215 544 206 546 198 550 C 190 554 178 562 164 574 C 149 586 137 594 128 598 C 119 602 109 605 99 605 C 83 605 70 600 60 591 C 49 582 42 568 40 548 L 47 548 Z" unicode="˜" />
<glyph horiz-adv-x="388" d="M 100 524 L 109 524 L 204 641 L 194 641 L 100 524 Z M 204 524 L 213 524 L 308 641 L 298 641 L 204 524 Z" unicode="˝" />
<glyph horiz-adv-x="0" d="M 16 524 L 25 524 L -74 649 L -84 649 L 16 524 Z" unicode="̀" />
<glyph horiz-adv-x="0" d="M -15 524 L 85 649 L 75 649 L -24 524 L -15 524 Z" unicode="́" />
<glyph horiz-adv-x="0" d="M -91 524 L 0 636 L 90 524 L 100 524 L 3 643 L -3 643 L -100 524 L -91 524 Z" unicode="̂" />
<glyph horiz-adv-x="0" d="M -117 728 C -114 744 -108 757 -99 765 C -90 773 -79 778 -65 778 C -55 778 -46 775 -38 771 C -30 767 -18 759 -4 748 C 10 736 22 727 31 723 C 40 719 50 717 61 717 C 76 717 89 721 99 731 C 109 740 116 755 120 777 L 113 777 C 109 759 103 745 95 737 C 86 728 75 724 61 724 C 51 724 42 726 34 730 C 26 734 14 742 0 754 C -14 766 -26 774 -35 778 C -44 782 -54 785 -65 785 C -80 785 -93 780 -104 771 C -114 762 -121 748 -124 728 L -117 728 Z" unicode="̃" />
<glyph horiz-adv-x="0" d="M -96 556 L 98 556 L 98 563 L -96 563 L -96 556 Z" unicode="̄" />
<glyph horiz-adv-x="0" d="M 1 516 C 32 516 57 527 77 549 C 96 571 106 601 106 637 L 99 637 C 99 603 90 575 72 555 C 54 534 30 524 1 524 C -28 524 -52 534 -70 555 C -88 575 -97 603 -97 637 L -104 637 C -104 601 -94 571 -75 549 C -55 527 -30 516 1 516 Z" unicode="̆" />
<glyph horiz-adv-x="0" d="M -12 724 L 8 724 L 8 744 L -12 744 L -12 724 Z" unicode="̇" />
<glyph horiz-adv-x="0" d="M -76 548 L -56 548 L -56 568 L -76 568 L -76 548 Z M 56 548 L 76 548 L 76 568 L 56 568 L 56 548 Z" unicode="̈" />
<glyph horiz-adv-x="0" d="M 0 667 C 16 667 29 672 40 682 C 50 692 56 706 56 722 C 56 738 50 751 40 761 C 29 771 16 777 0 777 C -16 777 -29 771 -40 761 C -50 751 -56 738 -56 722 C -56 706 -50 692 -40 682 C -29 672 -16 667 0 667 Z M 0 674 C -14 674 -25 678 -34 688 C -43 697 -48 708 -48 722 C -48 735 -43 746 -34 756 C -25 765 -14 770 0 770 C 14 770 25 765 34 756 C 43 746 48 735 48 722 C 48 708 43 697 34 688 C 25 678 14 674 0 674 Z" unicode="̊" />
<glyph horiz-adv-x="0" d="M -60 524 L -51 524 L 44 641 L 34 641 L -60 524 Z M 44 524 L 53 524 L 148 641 L 138 641 L 44 524 Z" unicode="̋" />
<glyph horiz-adv-x="0" d="M -3 524 L 5 524 L 102 643 L 93 643 L 1 530 L -90 643 L -100 643 L -3 524 Z" unicode="̌" />
<glyph horiz-adv-x="0" d="M 42 676 C 23 655 11 635 5 617 C -1 598 -4 577 -4 554 L -4 524 L 4 524 L 4 554 C 4 576 7 596 13 615 C 19 633 31 652 47 671 L 42 676 Z" unicode="̒" />
<glyph horiz-adv-x="0" d="M -43 -192 C -24 -171 -12 -151 -6 -133 C 0 -114 3 -93 3 -70 L 3 -40 L -5 -40 L -5 -70 C -5 -92 -8 -113 -14 -131 C -20 -149 -32 -168 -48 -187 L -43 -192 Z" unicode="̦" />
<glyph horiz-adv-x="0" d="M -3 -176 C 17 -176 34 -169 47 -157 C 59 -145 66 -129 66 -111 C 66 -92 59 -77 45 -65 C 31 -53 13 -48 -9 -48 L -15 -48 L -15 -55 L -9 -55 C 11 -55 27 -60 39 -70 C 51 -80 58 -93 58 -111 C 58 -127 52 -141 41 -152 C 30 -163 15 -169 -3 -169 C -11 -169 -20 -167 -30 -165 C -40 -162 -48 -158 -56 -154 L -56 -162 C -49 -166 -41 -169 -31 -172 C -21 -174 -12 -176 -3 -176 Z" unicode="̧" />
<glyph horiz-adv-x="0" d="M 9 -220 L 9 -213 C -28 -213 -58 -203 -81 -184 C -104 -165 -116 -140 -116 -110 C -116 -81 -105 -57 -84 -37 C -62 -17 -35 -4 -3 0 L -3 7 C -39 1 -68 -11 -90 -32 C -112 -53 -124 -79 -124 -110 C -124 -142 -111 -169 -87 -189 C -62 -209 -30 -220 9 -220 Z" unicode="̨" />
<glyph horiz-adv-x="551" d="M 32 0 L 495 0 L 268 682 L 260 682 L 32 0 Z M 42 8 L 263 672 L 484 8 L 42 8 Z" unicode="Δ" />
<glyph horiz-adv-x="462" d="M 80 -220 L 80 98 C 90 65 108 39 134 20 C 160 1 192 -8 229 -8 C 260 -8 289 0 316 15 C 343 31 364 52 378 78 L 380 0 L 386 0 L 386 462 L 378 462 L 378 92 C 364 64 344 41 318 24 C 291 7 261 -1 229 -1 C 185 -1 149 13 121 42 C 93 70 80 108 80 155 L 80 462 L 72 462 L 72 -220 L 80 -220 Z" unicode="μ" />
<glyph horiz-adv-x="501" d="M 124 0 L 132 0 L 132 455 L 369 455 L 369 0 L 377 0 L 377 455 L 457 455 L 457 462 L 44 462 L 44 455 L 124 455 L 124 0 Z" unicode="π" />
<glyph horiz-adv-x="888" d="M 461 724 L 470 724 L 371 849 L 361 849 L 461 724 Z M 233 0 L 240 0 L 427 588 L 445 647 L 463 588 L 648 0 L 655 0 L 864 658 L 857 658 L 670 71 L 652 12 L 634 71 L 449 658 L 442 658 L 255 71 L 237 13 L 219 71 L 33 658 L 24 658 L 233 0 Z" unicode="Ẁ" />
<glyph horiz-adv-x="687" d="M 359 524 L 368 524 L 269 649 L 259 649 L 359 524 Z M 180 0 L 188 0 L 323 391 L 344 452 L 364 391 L 499 0 L 507 0 L 667 462 L 659 462 L 524 71 L 503 11 L 483 71 L 348 462 L 340 462 L 205 71 L 184 11 L 164 71 L 29 462 L 20 462 L 180 0 Z" unicode="ẁ" />
<glyph horiz-adv-x="888" d="M 430 724 L 530 849 L 520 849 L 421 724 L 430 724 Z M 233 0 L 240 0 L 427 588 L 445 647 L 463 588 L 648 0 L 655 0 L 864 658 L 857 658 L 670 71 L 652 12 L 634 71 L 449 658 L 442 658 L 255 71 L 237 13 L 219 71 L 33 658 L 24 658 L 233 0 Z" unicode="Ẃ" />
<glyph horiz-adv-x="687" d="M 328 524 L 428 649 L 418 649 L 319 524 L 328 524 Z M 180 0 L 188 0 L 323 391 L 344 452 L 364 391 L 499 0 L 507 0 L 667 462 L 659 462 L 524 71 L 503 11 L 483 71 L 348 462 L 340 462 L 205 71 L 184 11 L 164 71 L 29 462 L 20 462 L 180 0 Z" unicode="ẃ" />
<glyph horiz-adv-x="888" d="M 369 724 L 389 724 L 389 744 L 369 744 L 369 724 Z M 501 724 L 521 724 L 521 744 L 501 744 L 501 724 Z M 233 0 L 240 0 L 427 588 L 445 647 L 463 588 L 648 0 L 655 0 L 864 658 L 857 658 L 670 71 L 652 12 L 634 71 L 449 658 L 442 658 L 255 71 L 237 13 L 219 71 L 33 658 L 24 658 L 233 0 Z" unicode="Ẅ" />
<glyph horiz-adv-x="687" d="M 267 548 L 287 548 L 287 568 L 267 568 L 267 548 Z M 399 548 L 419 548 L 419 568 L 399 568 L 399 548 Z M 180 0 L 188 0 L 323 391 L 344 452 L 364 391 L 499 0 L 507 0 L 667 462 L 659 462 L 524 71 L 503 11 L 483 71 L 348 462 L 340 462 L 205 71 L 184 11 L 164 71 L 29 462 L 20 462 L 180 0 Z" unicode="ẅ" />
<glyph horiz-adv-x="519" d="M 276 724 L 285 724 L 186 849 L 176 849 L 276 724 Z M 255 0 L 263 0 L 263 309 L 499 658 L 490 658 L 289 361 L 260 317 L 231 360 L 30 658 L 20 658 L 255 309 L 255 0 Z" unicode="Ỳ" />
<glyph horiz-adv-x="418" d="M 235 524 L 244 524 L 145 649 L 135 649 L 235 524 Z M -4 -220 C 41 -220 80 -203 114 -169 C 147 -135 180 -78 213 0 L 402 462 L 394 462 L 234 71 L 210 10 L 185 71 L 25 462 L 16 462 L 205 1 L 206 -1 C 174 -76 141 -130 109 -163 C 77 -196 39 -213 -4 -213 L -12 -213 L -12 -220 L -4 -220 Z" unicode="ỳ" />
<glyph horiz-adv-x="500" d="" unicode=" " />
<glyph horiz-adv-x="1000" d="" unicode=" " />
<glyph horiz-adv-x="650" d="" unicode=" " />
<glyph horiz-adv-x="0" d="" unicode=" " />
<glyph horiz-adv-x="650" d="M 107 272 L 543 272 L 543 279 L 107 279 L 107 272 Z" unicode="‒" />
<glyph horiz-adv-x="540" d="M 52 216 L 488 216 L 488 223 L 52 223 L 52 216 Z" unicode="–" />
<glyph horiz-adv-x="1040" d="M 52 216 L 988 216 L 988 223 L 52 223 L 52 216 Z" unicode="—" />
<glyph horiz-adv-x="360" d="M 52 209 L 316 209 L 316 216 L 52 216 L 52 209 Z" unicode="―" />
<glyph horiz-adv-x="138" d="M 64 560 L 72 560 L 72 608 C 72 630 74 650 79 668 C 84 685 93 703 106 722 L 100 726 C 84 705 74 685 70 666 C 66 647 64 628 64 608 L 64 560 Z" unicode="‘" />
<glyph horiz-adv-x="138" d="M 38 558 C 54 578 64 598 68 617 C 72 636 74 656 74 676 L 74 724 L 66 724 L 66 676 C 66 653 63 633 58 616 C 53 598 44 580 32 562 L 38 558 Z" unicode="’" />
<glyph horiz-adv-x="138" d="M 74 61 L 66 61 L 66 5 C 66 -17 63 -37 58 -55 C 53 -72 44 -90 32 -109 L 38 -113 C 54 -92 64 -72 68 -53 C 72 -34 74 -15 74 5 L 74 61 Z" unicode="‚" />
<glyph horiz-adv-x="210" d="M 64 560 L 72 560 L 72 608 C 72 630 74 650 79 668 C 84 685 93 703 106 722 L 100 726 C 84 705 74 685 70 666 C 66 647 64 628 64 608 L 64 560 Z M 136 560 L 144 560 L 144 608 C 144 630 146 650 151 668 C 156 685 165 703 178 722 L 172 726 C 156 705 146 685 142 666 C 138 647 136 628 136 608 L 136 560 Z" unicode="“" />
<glyph horiz-adv-x="210" d="M 38 558 C 54 578 64 598 68 617 C 72 636 74 656 74 676 L 74 724 L 66 724 L 66 676 C 66 653 63 633 58 616 C 53 598 44 580 32 562 L 38 558 Z M 110 558 C 126 578 136 598 140 617 C 144 636 146 656 146 676 L 146 724 L 138 724 L 138 676 C 138 653 135 633 130 616 C 125 598 116 580 104 562 L 110 558 Z" unicode="”" />
<glyph horiz-adv-x="210" d="M 74 61 L 66 61 L 66 5 C 66 -17 63 -37 58 -55 C 53 -72 44 -90 32 -109 L 38 -113 C 54 -92 64 -72 68 -53 C 72 -34 74 -15 74 5 L 74 61 Z M 146 61 L 138 61 L 138 5 C 138 -17 135 -37 130 -55 C 125 -72 116 -90 104 -109 L 110 -113 C 126 -92 136 -72 140 -53 C 144 -34 146 -15 146 5 L 146 61 Z" unicode="„" />
<glyph horiz-adv-x="468" d="M 230 0 L 238 0 L 238 501 L 404 501 L 404 508 L 238 508 L 238 724 L 230 724 L 230 508 L 64 508 L 64 501 L 230 501 L 230 0 Z" unicode="†" />
<glyph horiz-adv-x="468" d="M 230 0 L 238 0 L 238 224 L 404 224 L 404 231 L 238 231 L 238 501 L 404 501 L 404 508 L 238 508 L 238 724 L 230 724 L 230 508 L 64 508 L 64 501 L 230 501 L 230 231 L 64 231 L 64 224 L 230 224 L 230 0 Z" unicode="‡" />
<glyph horiz-adv-x="240" d="M 96 194 L 144 194 L 144 242 L 96 242 L 96 194 Z" unicode="•" />
<glyph horiz-adv-x="466" d="M 54 0 L 76 0 L 76 22 L 54 22 L 54 0 Z M 216 0 L 238 0 L 238 22 L 216 22 L 216 0 Z M 378 0 L 400 0 L 400 22 L 378 22 L 378 0 Z" unicode="…" />
<glyph horiz-adv-x="1150" d="M 192 352 C 236 352 270 369 295 404 C 319 438 332 484 332 540 C 332 596 319 641 295 676 C 270 710 236 728 192 728 C 148 728 113 710 89 676 C 64 641 52 596 52 540 C 52 484 64 438 89 404 C 113 369 148 352 192 352 Z M 263 1 L 271 1 L 527 725 L 519 725 L 263 1 Z M 192 359 C 150 359 117 375 94 409 C 71 442 60 486 60 540 C 60 594 71 637 94 671 C 117 704 150 721 192 721 C 234 721 266 704 289 671 C 312 637 324 594 324 540 C 324 486 312 442 289 409 C 266 375 234 359 192 359 Z M 962 -8 C 1006 -8 1040 9 1065 44 C 1089 78 1102 124 1102 180 C 1102 236 1089 281 1065 316 C 1040 350 1006 368 962 368 C 918 368 883 350 859 316 C 834 281 822 236 822 180 C 822 124 834 78 859 44 C 883 9 918 -8 962 -8 Z M 598 -8 C 642 -8 676 9 701 44 C 725 78 738 124 738 180 C 738 236 725 281 701 316 C 676 350 642 368 598 368 C 554 368 519 350 495 316 C 470 281 458 236 458 180 C 458 124 470 78 495 44 C 519 9 554 -8 598 -8 Z M 962 -1 C 920 -1 887 15 864 49 C 841 82 830 126 830 180 C 830 234 841 277 864 311 C 887 344 920 361 962 361 C 1004 361 1036 344 1059 311 C 1082 277 1094 234 1094 180 C 1094 126 1082 82 1059 49 C 1036 15 1004 -1 962 -1 Z M 598 -1 C 556 -1 523 15 500 49 C 477 82 466 126 466 180 C 466 234 477 277 500 311 C 523 344 556 361 598 361 C 640 361 672 344 695 311 C 718 277 730 234 730 180 C 730 126 718 82 695 49 C 672 15 640 -1 598 -1 Z" unicode="‰" />
<glyph horiz-adv-x="136" d="M 64 552 L 72 552 L 72 716 L 64 716 L 64 552 Z" unicode="′" />
<glyph horiz-adv-x="208" d="M 64 552 L 72 552 L 72 716 L 64 716 L 64 552 Z M 136 552 L 144 552 L 144 716 L 136 716 L 136 552 Z" unicode="″" />
<glyph horiz-adv-x="277" d="M 195 71 L 205 71 L 50 226 L 205 382 L 195 382 L 40 226 L 195 71 Z" unicode="‹" />
<glyph horiz-adv-x="277" d="M 72 71 L 82 71 L 237 226 L 82 382 L 72 382 L 227 226 L 72 71 Z" unicode="›" />
<glyph horiz-adv-x="112" d="M -76 0 L -68 0 L 188 724 L 180 724 L -76 0 Z" unicode="⁄" />
<glyph horiz-adv-x="380" d="M 192 432 C 236 432 270 449 295 484 C 319 518 332 564 332 620 C 332 676 319 721 295 756 C 270 790 236 808 192 808 C 148 808 113 790 89 756 C 64 721 52 676 52 620 C 52 564 64 518 89 484 C 113 449 148 432 192 432 Z M 192 439 C 150 439 117 455 94 489 C 71 522 60 566 60 620 C 60 674 71 717 94 751 C 117 784 150 801 192 801 C 234 801 266 784 289 751 C 312 717 324 674 324 620 C 324 566 312 522 289 489 C 266 455 234 439 192 439 Z" unicode="⁰" />
<glyph horiz-adv-x="318" d="M 208 440 L 216 440 L 216 548 L 282 548 L 282 556 L 216 556 L 216 800 L 207 800 L 36 556 L 36 548 L 208 548 L 208 440 Z M 208 556 L 45 556 L 208 788 L 208 556 Z" unicode="⁴" />
<glyph horiz-adv-x="296" d="M 144 432 C 176 432 203 442 224 463 C 245 483 256 511 256 545 C 256 577 245 602 224 622 C 202 641 174 651 140 651 C 128 651 115 650 101 648 C 87 646 74 643 61 640 L 73 792 L 241 792 L 241 800 L 67 800 L 54 630 C 66 634 80 637 95 640 C 110 642 125 644 140 644 C 172 644 198 634 218 616 C 238 598 248 574 248 545 C 248 513 238 487 218 468 C 198 448 174 439 144 439 C 123 439 104 442 86 450 C 68 457 52 467 40 480 L 40 470 C 53 457 69 447 88 441 C 106 435 125 432 144 432 Z" unicode="⁵" />
<glyph horiz-adv-x="314" d="M 158 432 C 192 432 219 443 241 467 C 263 491 274 522 274 560 C 274 595 263 624 242 646 C 220 668 192 679 157 679 C 131 679 109 673 90 661 C 70 649 57 633 49 613 C 51 675 64 721 88 753 C 112 785 145 801 187 801 C 200 801 213 799 226 797 C 238 794 251 790 264 785 L 264 793 C 253 797 241 801 228 804 C 215 806 201 808 187 808 C 139 808 102 788 77 750 C 52 712 40 656 40 582 C 40 540 50 504 72 475 C 93 446 122 432 158 432 Z M 158 439 C 125 439 99 452 79 479 C 59 506 48 541 48 585 L 48 587 C 51 612 63 632 83 648 C 103 664 128 672 157 672 C 190 672 216 661 236 641 C 256 620 266 593 266 559 C 266 523 256 494 236 472 C 216 450 190 439 158 439 Z" unicode="⁶" />
<glyph horiz-adv-x="315" d="M 114 440 L 122 440 L 275 793 L 275 800 L 40 800 L 40 793 L 267 793 L 114 440 Z" unicode="⁷" />
<glyph horiz-adv-x="292" d="M 146 432 C 178 432 204 440 223 457 C 242 473 252 495 252 523 C 252 545 244 565 228 583 C 212 601 188 615 156 626 C 182 634 204 646 220 663 C 236 680 245 699 245 720 C 245 746 236 768 218 784 C 200 800 175 808 145 808 C 114 808 90 800 72 784 C 54 768 45 747 45 721 C 45 699 52 680 66 664 C 80 648 100 635 127 626 C 99 617 78 604 63 586 C 47 568 40 547 40 525 C 40 497 49 474 68 457 C 87 440 113 432 146 432 Z M 133 633 C 106 641 86 653 73 668 C 59 683 53 701 53 721 C 53 745 61 764 78 779 C 94 793 117 801 145 801 C 173 801 195 793 212 779 C 228 764 237 744 237 720 C 237 700 228 681 211 665 C 194 648 172 636 144 630 L 133 633 Z M 48 525 C 48 547 56 566 72 584 C 88 602 110 614 139 622 L 150 619 C 182 609 205 596 221 580 C 236 564 244 545 244 523 C 244 497 235 477 218 462 C 200 446 176 439 146 439 C 115 439 91 446 74 462 C 56 478 48 499 48 525 Z" unicode="⁸" />
<glyph horiz-adv-x="314" d="M 127 432 C 175 432 211 451 236 489 C 261 527 274 584 274 658 C 274 700 263 735 242 764 C 220 793 192 808 156 808 C 122 808 94 796 72 772 C 50 748 40 718 40 680 C 40 644 50 616 72 594 C 93 572 121 561 157 561 C 182 561 204 566 224 578 C 243 590 257 606 265 627 C 262 565 249 518 225 486 C 201 454 169 439 127 439 C 113 439 100 440 88 443 C 75 445 62 449 50 455 L 50 447 C 60 442 72 438 85 436 C 98 433 112 432 127 432 Z M 157 568 C 123 568 97 578 77 599 C 57 619 48 647 48 681 C 48 717 58 746 78 768 C 98 790 124 801 156 801 C 188 801 215 787 235 760 C 255 733 265 698 266 655 L 266 653 C 262 627 250 607 230 591 C 210 575 185 568 157 568 Z" unicode="⁹" />
<glyph horiz-adv-x="354" d="M 56 440 L 64 440 L 64 740 C 76 758 93 773 114 784 C 134 795 156 801 179 801 C 212 801 239 789 259 767 C 279 745 290 716 290 680 L 290 440 L 298 440 L 298 680 C 298 718 287 748 265 772 C 243 796 214 808 179 808 C 154 808 131 802 111 791 C 91 779 75 766 64 752 L 64 800 L 56 800 L 56 440 Z" unicode="ⁿ" />
<glyph horiz-adv-x="380" d="M 192 -178 C 236 -178 270 -160 295 -126 C 319 -91 332 -46 332 10 C 332 66 319 111 295 146 C 270 180 236 198 192 198 C 148 198 113 180 89 146 C 64 111 52 66 52 10 C 52 -46 64 -91 89 -126 C 113 -160 148 -178 192 -178 Z M 192 -171 C 150 -171 117 -154 94 -121 C 71 -87 60 -44 60 10 C 60 64 71 107 94 141 C 117 174 150 191 192 191 C 234 191 266 174 289 141 C 312 107 324 64 324 10 C 324 -44 312 -87 289 -121 C 266 -154 234 -171 192 -171 Z" unicode="₀" />
<glyph horiz-adv-x="275" d="M 33 -170 L 247 -170 L 247 -163 L 144 -163 L 144 202 L 32 174 L 32 167 L 136 193 L 136 -163 L 33 -163 L 33 -170 Z" unicode="₁" />
<glyph horiz-adv-x="318" d="M 40 -170 L 278 -170 L 278 -162 L 57 -162 C 125 -118 177 -74 212 -32 C 247 9 265 49 265 87 C 265 121 255 148 235 168 C 215 188 188 198 154 198 C 137 198 119 195 101 189 C 82 183 66 176 54 168 L 54 159 C 66 168 82 176 101 182 C 119 188 137 191 154 191 C 186 191 211 181 229 163 C 247 144 257 119 257 87 C 257 51 239 12 205 -30 C 170 -72 115 -116 40 -164 L 40 -170 Z" unicode="₂" />
<glyph horiz-adv-x="291" d="M 144 -178 C 176 -178 202 -168 222 -150 C 241 -131 251 -108 251 -80 C 251 -52 242 -30 225 -14 C 208 2 185 12 157 17 C 183 21 204 32 220 48 C 236 64 244 84 244 108 C 244 134 235 156 217 173 C 199 189 176 198 148 198 C 132 198 116 195 99 189 C 81 183 66 175 54 166 L 54 157 C 66 167 81 175 99 181 C 116 187 132 191 148 191 C 174 191 196 183 212 168 C 228 152 236 132 236 108 C 236 81 225 60 205 44 C 185 28 158 20 125 20 L 111 20 L 111 13 L 126 13 C 164 13 193 4 213 -12 C 233 -29 243 -52 243 -80 C 243 -106 234 -127 216 -145 C 198 -162 174 -171 144 -171 C 124 -171 105 -167 87 -159 C 69 -151 53 -141 40 -129 L 40 -138 C 54 -150 70 -160 88 -167 C 106 -174 125 -178 144 -178 Z" unicode="₃" />
<glyph horiz-adv-x="318" d="M 208 -170 L 216 -170 L 216 -62 L 282 -62 L 282 -54 L 216 -54 L 216 190 L 207 190 L 36 -54 L 36 -62 L 208 -62 L 208 -170 Z M 208 -54 L 45 -54 L 208 178 L 208 -54 Z" unicode="₄" />
<glyph horiz-adv-x="296" d="M 144 -178 C 176 -178 203 -167 224 -147 C 245 -126 256 -99 256 -65 C 256 -33 245 -7 224 12 C 202 31 174 41 140 41 C 128 41 115 40 101 38 C 87 36 74 33 61 30 L 73 182 L 241 182 L 241 190 L 67 190 L 54 20 C 66 24 80 27 95 30 C 110 32 125 34 140 34 C 172 34 198 24 218 6 C 238 -11 248 -35 248 -65 C 248 -97 238 -122 218 -142 C 198 -161 174 -171 144 -171 C 123 -171 104 -167 86 -160 C 68 -152 52 -142 40 -130 L 40 -140 C 53 -152 69 -162 88 -168 C 106 -174 125 -178 144 -178 Z" unicode="₅" />
<glyph horiz-adv-x="314" d="M 158 -178 C 192 -178 219 -166 241 -142 C 263 -118 274 -88 274 -50 C 274 -14 263 14 242 36 C 220 58 192 69 157 69 C 131 69 109 63 90 51 C 70 39 57 23 49 3 C 51 65 64 111 88 143 C 112 175 145 191 187 191 C 200 191 213 189 226 187 C 238 184 251 180 264 175 L 264 183 C 253 187 241 191 228 194 C 215 196 201 198 187 198 C 139 198 102 178 77 140 C 52 102 40 46 40 -28 C 40 -70 50 -105 72 -134 C 93 -163 122 -178 158 -178 Z M 158 -171 C 125 -171 99 -157 79 -130 C 59 -103 48 -68 48 -25 L 48 -23 C 51 2 63 22 83 38 C 103 54 128 62 157 62 C 190 62 216 51 236 31 C 256 10 266 -17 266 -51 C 266 -87 256 -116 236 -138 C 216 -160 190 -171 158 -171 Z" unicode="₆" />
<glyph horiz-adv-x="315" d="M 114 -170 L 122 -170 L 275 183 L 275 190 L 40 190 L 40 183 L 267 183 L 114 -170 Z" unicode="₇" />
<glyph horiz-adv-x="292" d="M 146 -178 C 178 -178 204 -169 223 -153 C 242 -136 252 -114 252 -87 C 252 -64 244 -44 228 -26 C 212 -8 188 5 156 16 C 182 24 204 36 220 53 C 236 70 245 89 245 110 C 245 136 236 158 218 174 C 200 190 175 198 145 198 C 114 198 90 190 72 174 C 54 158 45 137 45 111 C 45 89 52 70 66 54 C 80 38 100 25 127 16 C 99 7 78 -6 63 -24 C 47 -42 40 -62 40 -85 C 40 -113 49 -135 68 -152 C 87 -169 113 -178 146 -178 Z M 133 23 C 106 31 86 43 73 58 C 59 73 53 91 53 111 C 53 135 61 154 78 169 C 94 183 117 191 145 191 C 173 191 195 183 212 169 C 228 154 237 134 237 110 C 237 90 228 71 211 55 C 194 38 172 26 144 20 L 133 23 Z M 48 -85 C 48 -63 56 -43 72 -25 C 88 -7 110 4 139 12 L 150 9 C 182 -1 205 -13 221 -29 C 236 -45 244 -64 244 -87 C 244 -112 235 -132 218 -148 C 200 -163 176 -171 146 -171 C 115 -171 91 -163 74 -147 C 56 -131 48 -111 48 -85 Z" unicode="₈" />
<glyph horiz-adv-x="314" d="M 127 -178 C 175 -178 211 -158 236 -120 C 261 -82 274 -26 274 48 C 274 90 263 125 242 154 C 220 183 192 198 156 198 C 122 198 94 186 72 162 C 50 138 40 108 40 70 C 40 34 50 6 72 -16 C 93 -38 121 -49 157 -49 C 182 -49 204 -43 224 -31 C 243 -19 257 -3 265 17 C 262 -45 249 -91 225 -123 C 201 -155 169 -171 127 -171 C 113 -171 100 -169 88 -167 C 75 -164 62 -160 50 -155 L 50 -163 C 60 -167 72 -171 85 -174 C 98 -176 112 -178 127 -178 Z M 157 -42 C 123 -42 97 -31 77 -11 C 57 9 48 37 48 71 C 48 107 58 136 78 158 C 98 180 124 191 156 191 C 188 191 215 177 235 150 C 255 123 265 88 266 45 L 266 43 C 262 17 250 -2 230 -18 C 210 -34 185 -42 157 -42 Z" unicode="₉" />
<glyph horiz-adv-x="706" d="M 40 280 L 122 280 C 131 192 166 122 226 70 C 286 18 362 -8 454 -8 C 490 -8 527 -3 563 6 C 599 15 633 29 666 47 L 666 55 C 633 36 599 22 563 13 C 527 3 491 -1 454 -1 C 364 -1 290 24 232 76 C 173 127 139 195 130 280 L 326 280 L 326 287 L 129 287 C 128 293 127 300 127 307 C 127 314 127 321 127 328 C 127 335 127 342 127 350 C 127 358 128 365 129 372 L 324 372 L 324 379 L 130 379 C 140 463 175 531 233 582 C 291 633 364 659 454 659 C 490 659 525 655 559 647 C 593 639 626 628 659 614 L 659 622 C 626 636 592 647 558 655 C 524 662 489 666 454 666 C 362 666 287 639 227 587 C 167 535 132 465 122 379 L 40 379 L 40 372 L 121 372 C 120 365 119 358 119 350 C 119 342 119 335 119 328 C 119 321 119 314 119 307 C 119 300 120 293 121 287 L 40 287 L 40 280 Z" unicode="€" />
<glyph horiz-adv-x="511" d="M 92 0 L 198 0 L 198 -124 L 206 -124 L 206 0 L 249 0 L 255 0 L 255 -124 L 263 -124 L 263 0 C 317 2 360 19 393 51 C 426 83 443 124 443 174 C 443 218 427 254 397 284 C 366 313 325 331 274 337 C 318 343 353 361 379 389 C 405 417 419 453 419 495 C 419 539 404 575 376 604 C 348 633 310 650 263 656 L 263 786 L 255 786 L 255 657 C 251 657 247 658 243 658 C 239 658 235 658 231 658 L 206 658 L 206 786 L 198 786 L 198 658 L 92 658 L 92 0 Z M 100 340 L 100 651 L 231 651 C 285 651 328 636 361 608 C 394 579 411 541 411 495 C 411 449 394 411 362 383 C 330 354 288 340 236 340 L 100 340 Z M 100 7 L 100 333 L 236 333 C 295 333 343 318 380 289 C 416 259 435 221 435 174 C 435 124 418 83 384 53 C 350 22 305 7 249 7 L 100 7 Z" unicode="₿" />
<glyph horiz-adv-x="640" d="M 324 132 C 405 132 471 158 521 212 C 571 266 596 329 596 402 C 596 475 571 539 521 594 C 471 648 405 676 324 676 C 242 676 177 648 127 594 C 77 539 52 475 52 402 C 52 329 77 266 127 212 C 177 158 242 132 324 132 Z M 324 139 C 252 139 190 163 138 211 C 86 259 60 323 60 402 C 60 481 86 545 138 595 C 190 644 252 669 324 669 C 394 669 456 644 509 595 C 561 545 588 481 588 402 C 588 323 561 259 509 211 C 456 163 394 139 324 139 Z M 258 231 L 266 231 L 266 381 L 318 381 C 352 381 379 390 400 408 C 420 426 431 451 431 481 C 431 511 420 535 400 553 C 379 571 352 581 318 581 L 258 581 L 258 231 Z M 266 388 L 266 574 L 318 574 C 350 574 375 565 394 548 C 413 531 423 509 423 481 C 423 453 413 430 394 413 C 375 396 350 388 318 388 L 266 388 Z" unicode="℗" />
<glyph horiz-adv-x="544" d="M 114 462 L 122 462 L 122 717 L 216 717 L 216 724 L 20 724 L 20 717 L 114 717 L 114 462 Z M 250 462 L 257 462 L 257 713 L 367 507 L 375 507 L 484 711 L 484 462 L 492 462 L 492 724 L 483 724 L 372 516 L 260 724 L 250 724 L 250 462 Z" unicode="™" />
<glyph horiz-adv-x="499" d="M 249 -8 C 309 -8 357 17 393 67 C 429 117 447 183 447 267 C 447 397 413 496 345 564 C 277 631 189 665 79 665 L 79 658 C 194 658 282 623 343 555 C 403 487 435 397 439 286 C 426 328 403 359 370 381 C 337 403 298 414 253 414 C 193 414 144 394 107 354 C 70 314 52 261 52 197 C 52 135 70 86 106 48 C 142 10 190 -8 249 -8 Z M 249 -1 C 192 -1 146 17 112 53 C 77 89 60 137 60 197 C 60 259 77 310 113 349 C 148 387 195 407 253 407 C 305 407 347 393 379 365 C 411 337 430 301 438 257 C 438 179 420 117 385 70 C 350 22 305 -1 249 -1 Z" unicode="∂" />
<glyph horiz-adv-x="474" d="M 92 0 L 100 0 L 100 651 L 374 651 L 374 0 L 382 0 L 382 658 L 92 658 L 92 0 Z" unicode="∏" />
<glyph horiz-adv-x="463" d="M 41 0 L 423 0 L 423 8 L 51 8 L 326 332 L 51 651 L 421 651 L 421 658 L 40 658 L 40 651 L 316 332 L 41 8 L 41 0 Z" unicode="∑" />
<glyph horiz-adv-x="508" d="M 40 283 L 468 283 L 468 290 L 40 290 L 40 283 Z" unicode="−" />
<glyph horiz-adv-x="541" d="M 204 0 L 213 0 L 509 726 L 501 726 L 209 8 L 25 462 L 16 462 L 204 0 Z" unicode="√" />
<glyph horiz-adv-x="787" d="M 204 73 C 236 73 266 84 296 106 C 326 128 358 165 394 215 L 402 204 C 436 159 466 126 493 105 C 519 83 550 73 586 73 C 627 73 660 86 685 114 C 710 142 723 178 723 222 C 723 266 710 301 685 329 C 659 356 626 370 584 370 C 552 370 522 359 492 337 C 462 315 430 278 394 228 L 386 239 C 352 283 321 316 294 338 C 267 359 236 370 202 370 C 161 370 128 356 102 328 C 76 300 64 265 64 221 C 64 177 76 141 102 114 C 128 86 162 73 204 73 Z M 72 221 C 72 263 84 297 108 323 C 132 349 163 363 202 363 C 235 363 265 352 291 331 C 317 309 347 277 380 234 L 390 221 C 354 169 321 133 293 112 C 265 90 235 80 204 80 C 164 80 132 93 108 119 C 84 145 72 179 72 221 Z M 408 209 L 398 222 C 433 272 465 308 494 330 C 523 352 553 363 584 363 C 624 363 656 350 680 324 C 704 298 716 264 716 222 C 716 180 704 145 680 119 C 656 93 625 80 586 80 C 552 80 522 90 496 111 C 470 132 441 165 408 209 Z" unicode="∞" />
<glyph horiz-adv-x="499" d="M 41 -220 C 79 -220 109 -205 133 -177 C 156 -149 172 -107 180 -51 L 267 562 C 274 616 289 656 311 684 C 333 711 362 725 398 725 C 412 725 427 722 441 718 C 455 713 467 706 479 698 L 479 707 C 468 715 456 721 442 725 C 428 729 413 732 398 732 C 360 732 329 717 306 689 C 282 661 267 619 259 563 L 172 -50 C 164 -104 150 -144 128 -172 C 106 -199 77 -213 41 -213 C 26 -213 12 -210 -2 -206 C -16 -201 -28 -194 -40 -186 L -40 -195 C -29 -203 -17 -209 -3 -213 C 11 -217 25 -220 41 -220 Z" unicode="∫" />
<glyph horiz-adv-x="369" d="M 70 323 C 79 337 88 347 98 353 C 107 359 118 362 131 362 C 139 362 148 360 156 356 C 164 352 174 346 185 338 C 197 329 207 323 215 319 C 223 315 231 313 239 313 C 252 313 264 316 274 323 C 284 329 294 340 305 355 L 299 360 C 289 346 280 336 271 330 C 261 324 251 321 239 321 C 232 321 225 322 217 326 C 209 330 199 336 189 345 C 178 353 168 360 159 364 C 150 368 141 370 131 370 C 117 370 105 366 95 360 C 85 354 74 343 64 328 L 70 323 Z M 70 205 C 79 219 88 229 98 235 C 107 241 118 244 131 244 C 139 244 148 242 156 238 C 164 234 174 228 185 220 C 197 211 207 205 215 201 C 223 197 231 195 239 195 C 252 195 264 198 274 205 C 284 211 294 222 305 237 L 299 242 C 289 228 280 218 271 212 C 261 206 251 203 239 203 C 232 203 225 204 217 208 C 209 212 199 218 189 227 C 178 235 168 242 159 246 C 150 250 141 252 131 252 C 117 252 105 248 95 242 C 85 236 74 225 64 210 L 70 205 Z" unicode="≈" />
<glyph horiz-adv-x="508" d="M 158 80 L 166 80 L 214 215 L 468 215 L 468 222 L 216 222 L 259 343 L 468 343 L 468 350 L 262 350 L 311 488 L 303 488 L 254 350 L 40 350 L 40 343 L 251 343 L 208 222 L 40 222 L 40 215 L 206 215 L 158 80 Z" unicode="≠" />
<glyph horiz-adv-x="399" d="M 316 79 L 327 79 L 83 277 L 327 475 L 316 475 L 72 277 L 316 79 Z M 80 -20 L 319 -20 L 319 -13 L 80 -13 L 80 -20 Z" unicode="≤" />
<glyph horiz-adv-x="399" d="M 72 79 L 83 79 L 327 277 L 83 475 L 72 475 L 316 277 L 72 79 Z M 80 -20 L 319 -20 L 319 -13 L 80 -13 L 80 -20 Z" unicode="≥" />
<glyph horiz-adv-x="608" d="M 304 -11 L 564 338 L 304 687 L 44 338 L 304 -11 Z M 304 1 L 53 338 L 304 675 L 555 338 L 304 1 Z" unicode="◊" />
<glyph horiz-adv-x="541" d="M 204 0 L 213 0 L 509 726 L 501 726 L 209 10 L 25 462 L 16 462 L 204 0 Z" unicode="✓" />
<glyph horiz-adv-x="694" d="M 72 0 L 311 0 L 311 91 C 235 104 175 136 129 186 C 83 236 60 297 60 371 C 60 455 88 524 145 578 C 202 632 269 659 347 659 C 424 659 491 632 548 578 C 605 524 634 455 634 371 C 634 296 610 234 563 185 C 516 135 455 104 380 91 L 380 0 L 619 0 L 619 8 L 387 8 L 387 85 C 462 99 523 132 571 182 C 618 232 642 295 642 371 C 642 457 612 528 554 583 C 496 638 427 666 347 666 C 267 666 197 638 139 583 C 81 528 52 457 52 371 C 52 295 75 232 121 182 C 167 132 228 99 304 85 L 304 8 L 72 8 L 72 0 Z" unicode="Ꞷ" />
<glyph horiz-adv-x="147" d="M 29 -192 C 47 -171 60 -151 66 -133 C 72 -114 75 -93 75 -70 L 75 -40 L 67 -40 L 67 -70 C 67 -92 63 -113 57 -131 C 51 -149 40 -168 24 -187 L 29 -192 Z" unicode="" />
<glyph horiz-adv-x="664" d="M 0 0 L 664 0 L 664 658 L 0 658 L 0 0 Z M 225 77 L 225 575 L 100 575 L 100 582 L 418 582 C 461 582 496 569 523 544 C 549 519 563 486 563 446 C 563 405 549 372 523 347 C 496 321 461 309 418 309 L 383 309 L 383 77 L 375 77 L 375 575 L 233 575 L 233 77 L 225 77 Z" unicode="" />
<glyph horiz-adv-x="403" d="M 110 0 L 118 0 L 118 455 L 208 455 L 208 462 L 118 462 L 118 596 C 118 637 128 669 150 693 C 171 717 199 729 234 729 C 248 729 262 728 275 726 C 287 724 301 720 317 716 L 317 724 C 302 728 288 731 276 733 C 263 735 249 736 234 736 C 196 736 166 723 144 699 C 121 674 110 640 110 596 L 110 462 L 22 462 L 22 455 L 110 455 L 110 0 Z M 319 0 L 327 0 L 327 462 L 319 462 L 319 0 Z" unicode="ﬁ" />
<glyph horiz-adv-x="403" d="M 110 0 L 118 0 L 118 455 L 208 455 L 208 462 L 118 462 L 118 596 C 118 637 128 669 150 693 C 171 717 199 729 234 729 C 248 729 262 728 275 726 C 287 724 301 720 317 716 L 317 724 C 302 728 288 731 276 733 C 263 735 249 736 234 736 C 196 736 166 723 144 699 C 121 674 110 640 110 596 L 110 462 L 22 462 L 22 455 L 110 455 L 110 0 Z M 319 0 L 327 0 L 327 724 L 319 724 L 319 0 Z" unicode="ﬂ" />
</font>
</defs>
</svg>
