<?xml version="1.0" encoding="utf-8" ?><svg version="1.1" xmlns = 'http://www.w3.org/2000/svg'><defs><font id='web' horiz-adv-x="1000">
<font-face font-family="web" units-per-em="1000" x-height="490" bbox="-212,-341,1284,976" descent="-268" ascent="732" cap-height="658" />
<missing-glyph horiz-adv-x="500" d="M 50 -268 L 450 -268 L 450 732 L 50 732 L 50 -268 Z M 100 -218 L 100 682 L 400 682 L 400 -218 L 100 -218 Z" /><glyph unicode=" " d="" horiz-adv-x="200" />
<glyph unicode="!" d="M 84 228 L 153 716 L 357 716 L 288 228 L 84 228 Z M 53 0 L 77 172 L 281 172 L 257 0 L 53 0 Z" horiz-adv-x="309" />
<glyph unicode="&#x22;" d="M 113 418 L 155 716 L 339 716 L 297 418 L 113 418 Z M 350 418 L 392 716 L 576 716 L 534 418 L 350 418 Z" horiz-adv-x="530" />
<glyph unicode="#" d="M 85 0 L 110 92 L 59 92 L 83 260 L 156 260 L 177 337 L 110 337 L 134 509 L 224 509 L 249 599 L 399 599 L 374 509 L 439 509 L 464 599 L 614 599 L 589 509 L 646 509 L 622 337 L 542 337 L 521 260 L 596 260 L 572 92 L 475 92 L 450 0 L 300 0 L 325 92 L 260 92 L 235 0 L 85 0 Z M 306 260 L 371 260 L 392 337 L 327 337 L 306 260 Z" horiz-adv-x="623" />
<glyph unicode="$" d="M 218 -102 L 231 -11 C 203 -8 176 -3 148 2 C 120 8 93 17 66 27 L 93 222 C 127 204 161 191 196 183 C 231 175 266 171 300 171 C 322 171 339 173 349 178 C 359 183 365 190 365 200 C 365 207 362 213 356 217 C 350 221 340 225 328 229 L 310 234 C 241 250 190 275 157 307 C 123 339 107 380 107 431 C 107 491 126 542 164 584 C 202 625 256 652 326 665 L 339 762 L 507 762 L 494 669 C 518 667 541 663 565 659 C 589 655 613 649 637 643 L 609 445 C 579 459 548 471 516 479 C 484 487 452 491 422 491 C 401 491 386 488 376 483 C 366 478 362 471 362 462 C 362 454 365 448 371 444 C 377 440 386 436 399 433 L 417 428 C 484 412 534 388 568 356 C 602 324 619 283 619 231 C 619 172 600 121 563 79 C 525 36 471 8 400 -6 L 386 -102 L 218 -102 Z" horiz-adv-x="635" />
<glyph unicode="%" d="M 278 347 C 222 347 178 362 148 393 C 117 424 102 465 102 515 C 102 579 121 630 159 670 C 197 710 247 730 309 730 C 365 730 408 714 439 683 C 469 652 485 611 485 561 C 485 497 465 446 427 406 C 389 366 339 347 278 347 Z M 216 0 L 631 716 L 787 716 L 372 0 L 216 0 Z M 288 482 C 300 482 311 488 319 501 C 327 514 331 532 331 554 C 331 566 327 576 321 584 C 315 591 307 595 299 595 C 286 595 276 588 268 575 C 260 562 256 545 256 523 C 256 510 259 500 265 493 C 271 485 279 482 288 482 Z M 696 -13 C 640 -13 596 2 566 33 C 535 64 520 105 520 155 C 520 219 539 270 577 310 C 615 350 665 370 727 370 C 783 370 826 354 857 323 C 887 292 903 251 903 201 C 903 137 883 86 845 46 C 807 6 757 -13 696 -13 Z M 706 122 C 718 122 729 128 737 141 C 745 154 749 172 749 194 C 749 206 745 216 739 224 C 733 231 725 235 717 235 C 704 235 694 228 686 215 C 678 202 674 185 674 163 C 674 150 677 140 683 133 C 689 125 697 122 706 122 Z" horiz-adv-x="905" />
<glyph unicode="&#x26;" d="M 547 -74 C 501 -74 464 -61 437 -37 C 409 -13 398 18 402 57 L 403 67 L 406 89 C 392 54 369 28 339 10 C 308 -7 275 -16 239 -16 C 183 -16 138 0 106 32 C 73 64 57 104 57 150 C 57 186 67 221 89 253 C 111 285 147 310 199 327 C 169 346 146 368 131 394 C 116 419 109 447 109 478 C 109 528 131 573 175 614 C 219 655 292 676 394 676 C 427 676 459 673 491 667 C 523 661 555 653 587 641 L 575 556 L 688 556 L 669 426 L 744 426 L 720 254 L 645 254 L 631 148 C 629 136 631 127 636 120 C 640 113 647 110 657 110 C 665 110 672 111 680 114 C 688 117 695 121 702 127 L 677 -52 C 656 -59 635 -64 614 -68 C 592 -72 570 -74 547 -74 Z M 413 423 L 441 423 L 452 501 C 447 501 442 502 438 503 C 433 503 429 504 425 504 C 406 504 392 500 382 492 C 372 484 367 473 367 461 C 367 450 371 441 379 434 C 387 426 398 423 413 423 Z M 359 170 C 373 170 385 175 395 185 C 405 195 411 210 414 228 L 417 254 L 386 254 C 366 254 350 249 338 240 C 326 231 321 219 321 204 C 321 193 324 185 331 179 C 337 173 347 170 359 170 Z" horiz-adv-x="721" />
<glyph unicode="'" d="M 113 418 L 155 716 L 339 716 L 297 418 L 113 418 Z" horiz-adv-x="293" />
<glyph unicode="(" d="M 178 -220 C 146 -161 123 -98 107 -32 C 91 34 83 103 83 174 C 83 270 103 366 143 461 C 183 555 241 640 318 716 L 549 716 C 470 634 410 546 368 452 C 326 358 306 266 306 178 C 306 110 314 43 331 -24 C 348 -91 374 -156 409 -220 L 178 -220 Z" horiz-adv-x="473" />
<glyph unicode=")" d="M -7 -220 C 72 -138 132 -50 174 43 C 215 137 236 229 236 319 C 236 386 227 453 210 520 C 193 587 167 652 133 716 L 361 716 C 393 657 417 594 434 528 C 450 462 459 393 459 322 C 459 226 439 130 400 35 C 360 -59 302 -144 226 -220 L -7 -220 Z" horiz-adv-x="473" />
<glyph unicode="*" d="M 237 -23 L 81 104 L 206 202 L 60 215 L 156 419 L 272 343 L 259 490 L 474 490 L 421 343 L 559 419 L 596 215 L 446 201 L 545 103 L 354 -23 L 314 114 L 237 -23 Z" horiz-adv-x="596" />
<glyph unicode="+" d="M 183 66 L 201 193 L 79 193 L 106 381 L 228 381 L 245 508 L 433 508 L 416 381 L 538 381 L 511 193 L 389 193 L 371 66 L 183 66 Z" horiz-adv-x="538" />
<glyph unicode="," d="M 181 -162 L 5 -134 C 25 -95 41 -60 51 -28 C 61 4 69 43 76 89 L 92 206 L 312 206 L 296 90 C 287 28 273 -22 253 -62 C 233 -101 209 -134 181 -162 Z" horiz-adv-x="334" />
<glyph unicode="-" d="M 65 160 L 87 316 L 367 316 L 345 160 L 65 160 Z" horiz-adv-x="364" />
<glyph unicode="." d="M 50 0 L 79 206 L 295 206 L 266 0 L 50 0 Z" horiz-adv-x="316" />
<glyph unicode="/" d="M 22 0 L 420 716 L 618 716 L 220 0 L 22 0 Z" horiz-adv-x="531" />
<glyph unicode="0" d="M 366 -18 C 278 -18 209 7 157 58 C 105 108 79 179 79 271 C 79 396 110 495 174 568 C 237 641 323 678 432 678 C 519 678 589 652 641 602 C 693 551 719 479 719 387 C 719 265 687 167 624 93 C 560 19 474 -18 366 -18 Z M 382 191 C 405 191 424 209 440 246 C 455 282 463 328 463 383 C 463 412 459 434 452 448 C 444 462 432 470 416 470 C 391 470 371 450 356 412 C 341 373 334 327 334 273 C 334 245 337 225 345 211 C 353 197 365 191 382 191 Z" horiz-adv-x="705" />
<glyph unicode="1" d="M 112 0 L 173 438 L 87 434 L 118 651 L 451 673 L 356 0 L 112 0 Z" horiz-adv-x="424" />
<glyph unicode="2" d="M 36 0 L 72 258 L 127 274 C 203 296 259 318 293 342 C 327 365 344 390 344 417 C 344 433 337 445 324 455 C 311 464 293 469 271 469 C 244 469 216 464 186 456 C 156 447 129 436 104 422 L 134 639 C 160 650 194 660 234 668 C 274 676 314 680 353 680 C 432 680 493 662 536 628 C 578 594 600 548 600 491 C 600 423 569 363 508 311 C 446 259 374 224 291 208 L 560 208 L 531 0 L 36 0 Z" horiz-adv-x="570" />
<glyph unicode="3" d="M 272 -12 C 229 -12 189 -8 151 -1 C 113 5 76 16 40 31 L 69 233 C 97 219 125 208 152 201 C 179 194 207 191 236 191 C 261 191 281 194 295 200 C 309 206 316 215 316 227 C 316 237 310 245 299 251 C 287 257 271 260 250 260 L 173 260 L 193 408 L 263 408 C 288 408 307 411 321 418 C 334 424 341 434 341 447 C 341 457 335 464 325 469 C 314 474 299 477 279 477 C 251 477 222 473 193 467 C 164 460 136 451 110 439 L 139 642 C 176 653 213 662 249 668 C 285 674 325 678 368 678 C 441 678 498 662 540 632 C 581 602 602 561 602 511 C 602 469 588 433 562 401 C 536 369 501 347 457 334 C 491 323 517 305 536 281 C 554 257 564 228 564 194 C 564 132 538 82 488 44 C 438 6 366 -12 272 -12 Z" horiz-adv-x="575" />
<glyph unicode="4" d="M 316 0 L 331 108 L 51 108 L 76 283 L 322 666 L 648 666 L 595 293 L 659 293 L 633 106 L 569 106 L 554 0 L 316 0 Z M 357 294 L 382 468 L 272 294 L 357 294 Z" horiz-adv-x="652" />
<glyph unicode="5" d="M 243 -12 C 209 -12 174 -9 139 -5 C 104 0 72 6 43 14 L 70 207 C 98 197 125 190 153 186 C 180 182 210 180 242 180 C 270 180 291 183 305 190 C 319 197 326 207 326 219 C 326 230 319 239 307 246 C 294 253 275 257 251 257 C 221 257 192 255 162 251 C 132 247 103 243 73 238 L 154 666 L 617 666 L 586 449 L 302 448 L 293 399 C 301 399 311 400 321 401 C 331 402 341 403 351 403 C 420 403 475 387 515 356 C 555 325 576 284 576 232 C 576 156 546 96 486 53 C 426 9 345 -12 243 -12 Z" horiz-adv-x="582" />
<glyph unicode="6" d="M 358 -12 C 270 -12 201 12 151 60 C 100 108 75 177 75 265 C 75 393 112 495 186 570 C 260 644 357 682 477 682 C 512 682 547 679 582 673 C 616 667 648 658 678 646 L 652 461 C 625 474 598 484 570 491 C 542 498 516 502 491 502 C 449 502 414 492 387 472 C 359 452 339 423 326 387 C 340 405 359 419 382 429 C 405 438 433 443 465 443 C 521 443 566 426 601 393 C 635 360 653 316 653 261 C 653 183 624 118 568 66 C 511 14 441 -12 358 -12 Z M 355 171 C 369 171 382 178 392 192 C 402 206 407 224 407 246 C 407 260 403 272 396 281 C 389 290 380 295 368 295 C 357 295 347 290 337 282 C 327 273 319 261 313 245 C 309 222 311 204 319 191 C 327 177 339 171 355 171 Z" horiz-adv-x="655" />
<glyph unicode="7" d="M 77 0 L 346 440 L 94 440 L 126 666 L 651 666 L 627 497 L 342 0 L 77 0 Z" horiz-adv-x="592" />
<glyph unicode="8" d="M 332 -16 C 248 -16 182 0 134 29 C 86 59 62 103 62 159 C 62 194 72 225 94 252 C 116 279 147 302 187 321 C 162 339 143 360 129 385 C 115 410 108 438 108 469 C 108 532 133 583 184 623 C 235 662 306 682 398 682 C 479 682 544 666 592 636 C 640 605 665 564 665 512 C 665 481 655 453 637 429 C 618 404 591 383 556 366 C 583 348 604 326 619 301 C 634 276 642 248 642 218 C 642 148 614 92 559 49 C 503 5 428 -16 332 -16 Z M 393 422 L 396 421 C 408 429 418 439 425 450 C 432 460 436 471 436 483 C 436 497 431 507 423 515 C 414 523 402 527 388 527 C 373 527 361 522 352 513 C 342 503 338 491 338 477 C 338 463 343 451 353 441 C 363 431 376 424 393 422 Z M 297 197 C 297 183 301 171 311 163 C 321 155 334 151 351 151 C 368 151 382 156 393 167 C 403 177 409 191 409 208 C 409 220 403 232 391 242 C 379 252 362 260 342 264 L 337 265 C 324 256 314 246 307 234 C 300 222 297 209 297 197 Z" horiz-adv-x="650" />
<glyph unicode="9" d="M 275 -12 C 239 -12 203 -8 169 -2 C 135 3 103 12 73 24 L 99 209 C 125 196 152 186 179 179 C 205 171 231 168 256 168 C 297 168 331 177 358 196 C 385 215 406 242 421 278 C 406 261 387 248 365 240 C 343 231 317 227 287 227 C 231 227 185 243 151 276 C 116 309 99 354 99 410 C 99 487 127 552 185 604 C 242 656 313 682 399 682 C 484 682 551 658 601 612 C 651 565 676 496 676 405 C 676 276 638 174 564 100 C 490 25 393 -12 275 -12 Z M 384 376 C 394 376 404 380 414 389 C 424 397 432 409 438 425 C 441 447 439 465 432 479 C 424 492 413 499 397 499 C 382 499 370 491 360 477 C 350 463 345 445 345 425 C 345 410 348 398 355 389 C 362 380 372 376 384 376 Z" horiz-adv-x="657" />
<glyph unicode=":" d="M 90 282 L 119 488 L 335 488 L 306 282 L 90 282 Z M 50 0 L 79 206 L 295 206 L 266 0 L 50 0 Z" horiz-adv-x="316" />
<glyph unicode=";" d="M 97 282 L 126 488 L 342 488 L 313 282 L 97 282 Z M 175 -162 L -1 -134 C 19 -95 35 -60 45 -28 C 55 4 63 43 70 89 L 86 206 L 306 206 L 290 90 C 281 28 267 -22 247 -62 C 227 -101 203 -134 175 -162 Z" horiz-adv-x="327" />
<glyph unicode="&#x3C;" d="M 257 68 L 94 297 L 323 525 L 570 525 L 340 298 L 505 68 L 257 68 Z" horiz-adv-x="548" />
<glyph unicode="=" d="M 100 329 L 127 517 L 559 517 L 532 329 L 100 329 Z M 68 89 L 94 277 L 526 277 L 500 89 L 68 89 Z" horiz-adv-x="539" />
<glyph unicode="&#x3E;" d="M 62 68 L 291 298 L 126 525 L 373 525 L 537 297 L 310 68 L 62 68 Z" horiz-adv-x="548" />
<glyph unicode="?" d="M 150 229 C 154 265 164 297 180 325 C 195 352 218 378 249 404 C 265 418 277 430 285 442 C 293 453 297 464 297 475 C 297 487 291 497 279 505 C 267 512 252 516 234 516 C 210 516 187 513 164 508 C 140 502 116 494 90 483 L 116 666 C 149 676 183 685 217 691 C 251 697 288 700 328 700 C 401 700 458 686 498 660 C 538 634 558 596 558 546 C 558 511 548 478 529 447 C 509 416 476 382 428 345 C 406 327 389 309 377 291 C 365 272 357 251 354 229 L 150 229 Z M 111 1 L 135 173 L 355 173 L 331 1 L 111 1 Z" horiz-adv-x="512" />
<glyph unicode="@" d="M 399 -83 C 301 -83 223 -55 163 0 C 103 55 74 130 74 226 C 74 342 114 439 194 517 C 274 595 375 634 495 634 C 587 634 664 608 726 557 C 788 506 820 437 820 350 C 820 272 800 211 761 166 C 722 120 674 98 616 98 C 592 98 570 103 549 113 C 528 123 512 139 502 160 C 488 140 470 125 449 115 C 428 105 406 101 384 101 C 346 101 315 112 292 135 C 268 158 257 191 257 235 C 257 297 279 350 324 394 C 368 438 422 461 486 461 C 508 461 531 458 555 452 C 579 446 601 439 621 430 L 591 278 C 587 257 588 240 596 228 C 603 215 614 209 630 209 C 650 209 665 221 677 246 C 689 271 695 302 695 340 C 695 392 676 435 640 469 C 604 503 554 520 492 520 C 404 520 334 492 280 438 C 226 384 199 316 199 235 C 199 175 217 127 254 89 C 291 51 342 33 406 33 C 437 33 468 36 500 44 C 531 51 561 61 589 74 L 571 -55 C 543 -63 515 -70 486 -75 C 457 -80 428 -83 399 -83 Z M 426 226 C 434 226 443 231 452 243 C 460 254 467 269 471 287 L 481 336 C 476 336 472 337 470 337 C 468 337 464 338 460 338 C 442 338 427 330 415 316 C 403 301 397 283 397 263 C 397 251 399 242 405 236 C 410 229 417 226 426 226 Z" horiz-adv-x="812" />
<glyph unicode="A" d="M 12 0 L 324 658 L 607 658 L 734 0 L 489 0 L 474 93 L 281 93 L 241 0 L 12 0 Z M 344 239 L 452 239 L 443 296 L 426 428 L 370 296 L 344 239 Z" horiz-adv-x="746" />
<glyph unicode="B" d="M 52 0 L 144 658 L 466 658 C 531 658 582 645 620 619 C 657 593 676 556 676 508 C 676 463 664 425 642 395 C 620 365 588 343 546 330 C 578 320 602 304 620 281 C 638 257 647 229 647 197 C 647 137 624 89 579 53 C 533 17 472 0 395 0 L 52 0 Z M 342 401 L 371 401 C 391 401 406 406 418 418 C 430 429 436 444 436 463 C 436 477 431 489 423 497 C 414 505 402 510 387 510 L 358 510 L 342 401 Z M 308 157 L 347 157 C 368 157 385 162 397 174 C 409 185 416 200 416 219 C 416 234 411 246 401 254 C 391 262 378 266 362 266 L 323 266 L 308 157 Z" horiz-adv-x="650" />
<glyph unicode="C" d="M 419 -14 C 315 -14 232 12 170 64 C 108 116 77 192 77 290 C 77 407 117 500 197 569 C 277 637 378 672 499 672 C 533 672 565 669 595 664 C 625 658 653 650 681 639 L 651 424 C 625 437 600 447 576 453 C 551 459 525 463 499 463 C 450 463 411 448 381 419 C 351 390 336 354 336 310 C 336 274 347 246 370 226 C 393 206 425 196 465 196 C 492 196 519 199 547 206 C 575 212 602 223 630 237 L 600 21 C 572 9 542 0 512 -5 C 482 -11 451 -14 419 -14 Z" horiz-adv-x="634" />
<glyph unicode="D" d="M 52 0 L 144 658 L 417 658 C 519 658 600 631 660 579 C 719 526 749 457 749 373 C 749 261 710 170 632 102 C 554 34 452 0 327 0 L 52 0 Z M 325 203 L 351 203 C 393 203 427 217 453 247 C 478 277 491 313 491 356 C 491 386 482 411 464 429 C 446 447 420 456 387 456 L 361 456 L 325 203 Z" horiz-adv-x="732" />
<glyph unicode="E" d="M 52 0 L 145 658 L 604 658 L 577 466 L 363 466 L 354 405 L 561 405 L 540 255 L 333 255 L 324 192 L 546 192 L 519 0 L 52 0 Z" horiz-adv-x="561" />
<glyph unicode="F" d="M 52 0 L 145 658 L 574 658 L 547 466 L 361 466 L 352 402 L 515 402 L 490 217 L 327 217 L 296 0 L 52 0 Z" horiz-adv-x="507" />
<glyph unicode="G" d="M 428 -14 C 313 -14 226 11 166 62 C 106 112 76 184 76 276 C 76 398 115 495 193 566 C 271 636 373 672 497 673 C 541 673 583 670 624 664 C 665 658 703 649 739 639 L 711 438 C 676 450 642 460 608 466 C 574 472 543 475 515 475 C 457 475 412 457 381 423 C 350 388 335 344 335 292 C 335 257 343 230 360 210 C 377 190 400 181 429 181 C 437 181 446 181 454 182 C 462 183 470 185 478 188 L 486 249 L 417 249 L 439 401 L 750 401 L 700 43 C 652 24 604 10 558 0 C 512 -9 468 -14 428 -14 Z" horiz-adv-x="734" />
<glyph unicode="H" d="M 52 0 L 144 658 L 388 658 L 356 427 L 494 427 L 526 658 L 770 658 L 678 0 L 434 0 L 466 224 L 328 224 L 296 0 L 52 0 Z" horiz-adv-x="730" />
<glyph unicode="I" d="M 52 0 L 144 658 L 388 658 L 296 0 L 52 0 Z" horiz-adv-x="348" />
<glyph unicode="J" d="M -18 -220 L -55 -220 L -30 -42 L -18 -42 C 4 -42 21 -36 35 -24 C 49 -12 57 6 61 34 L 149 658 L 393 658 L 306 38 C 294 -47 260 -111 205 -155 C 149 -198 75 -220 -18 -220 Z" horiz-adv-x="353" />
<glyph unicode="K" d="M 52 0 L 145 658 L 389 658 L 349 372 L 544 658 L 813 658 L 573 330 L 714 0 L 447 0 L 337 289 L 296 0 L 52 0 Z" horiz-adv-x="737" />
<glyph unicode="L" d="M 52 0 L 144 658 L 388 658 L 325 204 L 520 204 L 492 0 L 52 0 Z" horiz-adv-x="514" />
<glyph unicode="M" d="M 52 0 L 144 658 L 477 658 L 508 458 L 520 346 L 565 458 L 651 658 L 988 658 L 896 0 L 659 0 L 701 296 L 723 419 L 670 296 L 549 23 L 374 23 L 329 297 L 313 419 L 300 296 L 258 0 L 52 0 Z" horiz-adv-x="948" />
<glyph unicode="N" d="M 52 0 L 144 658 L 418 658 L 517 417 L 557 309 L 567 417 L 601 658 L 811 658 L 719 0 L 448 0 L 347 242 L 307 354 L 296 242 L 262 0 L 52 0 Z" horiz-adv-x="771" />
<glyph unicode="O" d="M 405 -17 C 304 -17 224 9 165 63 C 106 116 77 191 77 289 C 77 403 115 496 191 568 C 267 640 361 676 472 676 C 572 676 652 649 711 596 C 769 542 799 467 800 370 C 800 260 763 168 689 94 C 614 20 519 -17 405 -17 Z M 423 189 C 457 189 486 205 509 238 C 531 271 543 312 543 362 C 543 395 535 421 519 441 C 503 460 482 470 455 470 C 420 470 391 453 368 420 C 345 387 334 346 334 298 C 334 264 341 238 357 218 C 373 198 395 189 423 189 Z" horiz-adv-x="785" />
<glyph unicode="P" d="M 52 0 L 144 658 L 427 658 C 509 658 574 638 622 598 C 669 558 693 502 693 428 C 693 342 661 275 599 225 C 537 175 458 150 364 150 L 317 150 L 296 0 L 52 0 Z M 343 333 L 371 333 C 393 333 410 340 424 354 C 438 368 445 389 445 415 C 445 431 440 445 431 456 C 422 466 408 472 390 472 L 362 472 L 343 333 Z" horiz-adv-x="658" />
<glyph unicode="Q" d="M 604 -171 C 565 -155 527 -133 491 -106 C 454 -79 421 -49 392 -17 C 294 -14 217 13 161 66 C 105 119 77 193 77 289 C 77 403 115 496 191 568 C 267 640 361 676 472 676 C 572 676 652 649 711 596 C 769 542 799 467 800 370 C 800 302 786 240 756 184 C 726 128 686 83 635 49 C 653 36 672 24 692 14 C 711 4 731 -4 751 -11 L 604 -171 Z M 423 189 C 457 189 486 205 509 238 C 531 271 543 312 543 362 C 543 395 535 421 519 441 C 503 460 482 470 455 470 C 420 470 391 453 368 420 C 345 387 334 346 334 298 C 334 264 341 238 357 218 C 373 198 395 189 423 189 Z" horiz-adv-x="786" />
<glyph unicode="R" d="M 52 0 L 144 658 L 484 658 C 550 658 600 643 636 613 C 671 583 689 541 689 487 C 689 445 676 409 650 379 C 624 349 588 327 542 315 C 572 304 596 289 614 269 C 632 249 643 225 648 197 L 678 0 L 429 0 L 404 187 C 401 205 395 219 386 227 C 376 235 363 239 347 239 L 330 239 L 296 0 L 52 0 Z M 350 383 L 377 383 C 397 383 414 389 427 401 C 440 413 447 429 447 450 C 447 464 442 476 433 485 C 424 493 411 498 394 498 L 367 498 L 350 383 Z" horiz-adv-x="694" />
<glyph unicode="S" d="M 288 -15 C 249 -15 210 -11 171 -4 C 131 2 92 13 54 27 L 81 222 C 115 204 149 191 184 183 C 219 175 254 171 288 171 C 310 171 327 173 337 178 C 347 183 353 190 353 200 C 353 207 350 213 344 217 C 338 221 328 225 316 229 L 298 234 C 229 250 178 275 145 307 C 111 339 95 380 95 431 C 95 503 122 562 176 606 C 230 650 306 673 404 673 C 440 673 477 670 514 665 C 551 660 588 653 625 643 L 597 445 C 567 459 536 471 504 479 C 472 487 440 491 410 491 C 389 491 374 488 364 483 C 354 478 350 471 350 462 C 350 454 353 448 359 444 C 365 440 374 436 387 433 L 405 428 C 472 412 522 388 556 356 C 590 324 607 283 607 231 C 607 159 580 100 526 54 C 472 8 392 -15 288 -15 Z" horiz-adv-x="610" />
<glyph unicode="T" d="M 165 0 L 229 454 L 84 454 L 112 658 L 646 658 L 618 454 L 473 454 L 409 0 L 165 0 Z" horiz-adv-x="575" />
<glyph unicode="U" d="M 373 -15 C 272 -15 196 9 145 59 C 93 108 74 175 86 259 L 141 658 L 391 658 L 338 276 C 335 253 339 235 349 221 C 359 207 374 201 396 201 C 418 201 436 207 450 221 C 464 235 473 253 476 276 L 529 658 L 760 658 L 705 259 C 693 175 657 108 598 59 C 538 9 463 -15 373 -15 Z" horiz-adv-x="716" />
<glyph unicode="V" d="M 220 0 L 100 658 L 357 658 L 395 362 L 406 241 L 451 362 L 571 658 L 806 658 L 503 0 L 220 0 Z" horiz-adv-x="726" />
<glyph unicode="W" d="M 157 0 L 100 658 L 347 658 L 361 362 L 363 226 L 405 362 L 502 658 L 768 658 L 781 361 L 785 231 L 826 361 L 923 658 L 1151 658 L 907 0 L 604 0 L 589 238 L 585 378 L 540 238 L 457 0 L 157 0 Z" horiz-adv-x="1071" />
<glyph unicode="X" d="M 17 0 L 248 321 L 110 658 L 382 658 L 423 544 L 441 482 L 475 544 L 549 658 L 798 658 L 574 339 L 712 0 L 440 0 L 399 119 L 381 185 L 344 119 L 267 0 L 17 0 Z" horiz-adv-x="727" />
<glyph unicode="Y" d="M 233 0 L 262 205 L 100 658 L 364 658 L 402 512 L 419 431 L 459 512 L 537 658 L 794 658 L 505 200 L 477 0 L 233 0 Z" horiz-adv-x="714" />
<glyph unicode="Z" d="M 44 0 L 62 126 L 290 390 L 350 454 L 111 454 L 139 658 L 714 658 L 697 532 L 473 269 L 412 204 L 650 204 L 622 0 L 44 0 Z" horiz-adv-x="664" />
<glyph unicode="[" d="M 31 -220 L 163 716 L 482 716 L 459 550 L 355 550 L 270 -54 L 375 -54 L 352 -220 L 31 -220 Z" horiz-adv-x="425" />
<glyph unicode="\" d="M 313 0 L 117 716 L 315 716 L 511 0 L 313 0 Z" horiz-adv-x="533" />
<glyph unicode="]" d="M 11 -220 L 34 -54 L 138 -54 L 222 550 L 118 550 L 141 716 L 460 716 L 329 -220 L 11 -220 Z" horiz-adv-x="424" />
<glyph unicode="^" d="M 86 541 L 200 716 L 404 716 L 472 541 L 314 541 L 289 611 L 245 541 L 86 541 Z" horiz-adv-x="404" />
<glyph unicode="_" d="M -30 -210 L -11 -78 L 385 -78 L 367 -210 L -30 -210 Z" horiz-adv-x="396" />
<glyph unicode="`" d="M 190 541 L 81 708 L 297 708 L 370 541 L 190 541 Z" horiz-adv-x="302" />
<glyph unicode="a" d="M 214 -12 C 166 -12 126 5 96 39 C 66 73 51 121 51 185 C 51 273 84 348 151 409 C 218 469 303 500 406 500 C 439 500 474 498 511 494 C 548 490 585 484 622 478 L 580 179 C 576 152 573 122 572 90 C 570 58 570 28 570 0 L 365 0 L 365 90 C 348 56 327 30 301 13 C 275 -3 246 -12 214 -12 Z M 315 174 C 325 174 334 180 344 194 C 354 208 362 237 369 282 L 375 326 C 371 327 367 328 363 329 C 359 329 356 330 352 330 C 335 330 319 319 304 299 C 288 279 281 254 281 226 C 281 211 284 199 290 189 C 296 179 304 174 315 174 Z" horiz-adv-x="606" />
<glyph unicode="b" d="M 272 -11 C 230 -11 189 -8 150 -3 C 111 1 75 8 41 18 L 139 717 L 366 717 L 334 492 L 327 440 C 342 459 361 474 383 485 C 405 496 429 502 457 502 C 503 502 539 485 567 453 C 594 420 608 374 608 314 C 608 220 576 143 514 81 C 452 19 371 -11 272 -11 Z M 318 157 C 334 157 349 166 362 185 C 375 203 382 231 382 267 C 382 283 379 296 373 306 C 367 316 360 322 351 322 C 338 322 326 313 314 297 C 302 280 294 251 288 209 L 282 162 C 285 160 290 159 297 158 C 304 157 311 157 318 157 Z" horiz-adv-x="591" />
<glyph unicode="c" d="M 294 -12 C 225 -12 169 9 125 51 C 81 93 59 148 59 218 C 59 301 86 369 142 422 C 197 475 269 502 357 502 C 378 502 401 499 425 495 C 449 491 471 485 493 477 L 466 287 C 451 294 436 300 420 305 C 404 309 387 312 371 312 C 346 312 327 305 313 292 C 299 279 292 261 292 239 C 292 220 297 205 309 194 C 321 183 337 178 358 178 C 374 178 391 180 408 186 C 425 192 442 200 458 210 L 431 22 C 412 11 391 3 367 -3 C 343 -9 318 -12 294 -12 Z" horiz-adv-x="456" />
<glyph unicode="d" d="M 216 -12 C 168 -12 129 4 99 38 C 69 71 54 119 54 181 C 54 275 83 352 142 411 C 201 470 275 500 364 500 C 369 500 374 499 380 499 C 385 499 390 498 395 498 L 425 716 L 658 716 L 582 179 C 578 152 576 122 574 90 C 572 58 572 28 572 0 L 367 0 L 367 90 C 350 55 329 29 303 13 C 277 -3 248 -12 216 -12 Z M 312 177 C 324 177 336 185 346 201 C 356 217 364 247 370 289 L 377 335 C 373 336 368 337 363 338 C 358 339 353 340 349 340 C 332 340 316 329 302 308 C 287 287 280 260 280 227 C 280 212 282 200 288 191 C 293 181 301 177 312 177 Z" horiz-adv-x="610" />
<glyph unicode="e" d="M 323 -18 C 239 -18 173 3 127 47 C 81 91 58 147 58 216 C 58 298 85 367 139 423 C 193 479 269 508 367 508 C 429 508 479 493 518 464 C 556 434 576 397 576 353 C 576 307 557 269 521 240 C 484 210 419 194 326 192 L 292 191 C 294 174 303 162 317 154 C 331 146 354 142 385 142 C 411 142 439 146 467 154 C 495 162 521 175 547 191 L 522 18 C 491 6 459 -3 425 -9 C 391 -15 357 -18 323 -18 Z M 356 372 C 342 372 330 365 322 351 C 313 337 306 318 302 293 L 327 294 C 342 294 355 299 367 307 C 379 315 385 326 385 341 C 385 351 382 358 377 364 C 371 369 364 372 356 372 Z" horiz-adv-x="548" />
<glyph unicode="f" d="M 76 0 L 120 318 L 69 318 L 93 490 L 145 490 L 149 523 C 157 581 184 630 230 668 C 276 706 338 726 416 726 C 442 726 467 724 493 720 C 519 716 542 711 564 704 L 540 532 C 522 539 504 544 488 548 C 472 551 457 553 443 553 C 424 553 408 548 396 539 C 383 529 375 516 373 500 L 371 490 L 444 490 L 420 318 L 347 318 L 303 0 L 76 0 Z" horiz-adv-x="397" />
<glyph unicode="g" d="M 243 -220 C 211 -220 177 -217 139 -212 C 101 -207 65 -200 29 -190 L 54 -11 C 77 -26 103 -37 131 -45 C 159 -53 185 -57 211 -57 C 241 -57 268 -50 292 -37 C 315 -24 328 -5 332 19 L 336 45 C 317 25 299 10 281 2 C 263 -5 241 -10 217 -10 C 169 -10 129 7 99 41 C 69 75 54 123 54 187 C 54 278 84 353 146 412 C 208 470 294 500 404 500 C 438 500 473 498 510 494 C 546 490 585 484 625 478 L 559 4 C 548 -74 514 -131 457 -167 C 399 -202 328 -220 243 -220 Z M 316 164 C 328 164 339 172 349 189 C 359 205 367 235 374 277 L 380 324 C 376 325 371 326 367 327 C 362 328 357 329 353 329 C 336 329 320 318 305 297 C 290 275 283 248 283 214 C 283 199 285 187 291 178 C 297 168 305 164 316 164 Z" horiz-adv-x="596" />
<glyph unicode="h" d="M 38 0 L 139 716 L 366 716 L 335 494 C 333 484 332 471 330 457 C 328 442 326 428 324 415 C 340 443 362 465 389 481 C 416 496 444 504 474 504 C 522 504 558 488 582 457 C 606 426 614 384 606 332 L 572 130 C 568 108 565 85 563 62 C 561 39 560 18 560 0 L 332 0 C 332 19 333 40 335 62 C 337 84 340 107 344 130 L 372 284 C 374 295 372 303 368 308 C 364 312 359 315 353 315 C 341 315 329 308 319 295 C 309 282 302 260 298 230 L 265 0 L 38 0 Z" horiz-adv-x="594" />
<glyph unicode="i" d="M 115 546 L 139 716 L 366 716 L 342 546 L 115 546 Z M 46 0 C 46 18 47 39 49 63 C 51 87 54 109 57 130 L 107 490 L 334 490 L 284 130 C 280 106 278 84 276 63 C 274 42 273 21 273 0 L 46 0 Z" horiz-adv-x="311" />
<glyph unicode="j" d="M 114 546 L 137 716 L 365 716 L 341 546 L 114 546 Z M -61 -220 L -69 -220 L -44 -47 L -36 -47 C -15 -47 1 -40 15 -28 C 29 -15 37 3 41 27 L 106 490 L 333 490 L 268 27 C 257 -50 224 -110 168 -154 C 112 -198 36 -220 -61 -220 Z" horiz-adv-x="303" />
<glyph unicode="k" d="M 38 0 L 139 716 L 366 716 L 306 292 C 330 320 352 352 374 386 C 395 420 414 455 430 490 L 661 490 C 642 445 619 401 591 357 C 563 313 535 276 508 246 L 599 0 L 351 0 L 289 178 L 265 0 L 38 0 Z" horiz-adv-x="610" />
<glyph unicode="l" d="M 51 0 C 50 20 50 42 51 67 C 52 91 54 112 57 130 L 139 716 L 366 716 L 284 130 C 281 112 279 91 278 67 C 277 43 277 20 278 0 L 51 0 Z" horiz-adv-x="316" />
<glyph unicode="m" d="M 48 0 L 98 359 C 100 379 102 400 104 423 C 106 445 107 468 107 490 L 334 490 C 334 481 334 472 334 462 C 334 452 333 442 333 432 L 332 415 C 349 443 371 465 398 481 C 424 496 452 504 481 504 C 515 504 544 495 568 479 C 592 463 608 438 616 406 C 638 442 663 467 691 482 C 718 496 745 504 773 504 C 821 504 857 488 882 457 C 907 426 915 384 907 332 L 872 130 C 868 106 865 84 863 62 C 861 40 860 20 860 0 L 632 0 C 632 18 633 39 635 61 C 637 83 640 106 645 130 L 672 284 C 674 294 673 302 669 307 C 665 312 660 315 652 315 C 640 315 630 308 620 295 C 610 282 602 260 598 230 L 567 0 L 340 0 L 380 284 C 381 295 380 303 376 308 C 372 312 367 315 361 315 C 349 315 338 308 328 295 C 318 282 311 260 307 230 L 275 0 L 48 0 Z" horiz-adv-x="894" />
<glyph unicode="n" d="M 49 0 L 100 359 C 102 378 104 399 105 423 C 106 447 107 469 107 490 L 334 490 L 334 415 C 352 444 374 466 401 481 C 428 496 456 504 485 504 C 533 504 569 488 593 457 C 617 426 625 384 617 332 L 583 130 C 579 108 576 85 574 62 C 572 39 571 18 571 0 L 343 0 C 343 19 344 40 346 62 C 348 84 351 107 355 130 L 383 284 C 385 295 383 303 379 308 C 375 312 370 315 364 315 C 352 315 340 308 330 295 C 320 282 313 260 309 230 L 276 0 L 49 0 Z" horiz-adv-x="605" />
<glyph unicode="o" d="M 300 -20 C 225 -20 166 0 122 42 C 78 83 57 139 57 209 C 57 298 86 370 145 426 C 203 482 276 510 362 510 C 436 510 495 489 539 448 C 582 406 604 351 604 281 C 604 191 574 119 516 63 C 457 7 385 -20 300 -20 Z M 321 163 C 337 163 350 173 362 193 C 374 213 380 239 380 272 C 380 288 376 302 369 312 C 362 322 353 327 341 327 C 324 327 310 317 299 297 C 287 277 282 251 282 219 C 282 201 285 188 292 178 C 298 168 308 163 321 163 Z" horiz-adv-x="592" />
<glyph unicode="p" d="M 20 -207 L 99 359 C 101 379 103 401 105 423 C 106 445 107 467 107 490 L 301 490 L 301 402 C 321 434 344 459 372 476 C 400 493 431 502 465 502 C 511 502 548 485 576 452 C 604 419 618 373 618 313 C 618 223 591 147 537 83 C 483 19 416 -12 336 -12 C 325 -12 314 -11 304 -10 C 293 -9 283 -8 275 -7 L 247 -207 L 20 -207 Z M 331 147 C 348 147 363 156 376 176 C 389 195 396 223 396 259 C 396 275 393 288 387 298 C 381 308 374 314 364 314 C 351 314 339 305 327 289 C 315 272 307 243 302 201 L 295 152 C 299 150 304 149 311 148 C 317 147 324 147 331 147 Z" horiz-adv-x="602" />
<glyph unicode="q" d="M 302 -207 L 337 45 C 321 25 302 10 282 1 C 262 -7 240 -12 217 -12 C 169 -12 129 5 99 39 C 69 73 54 121 54 185 C 54 275 86 350 152 410 C 218 470 303 500 408 500 C 442 500 477 498 514 494 C 551 490 588 484 625 478 L 529 -207 L 302 -207 Z M 312 169 C 324 169 336 177 346 193 C 356 209 364 239 371 281 L 377 327 C 373 328 368 329 364 330 C 360 331 355 332 351 332 C 332 332 315 320 301 298 C 287 275 280 249 280 221 C 280 205 282 192 288 183 C 294 173 302 169 312 169 Z" horiz-adv-x="596" />
<glyph unicode="r" d="M 47 0 L 98 363 C 100 383 102 405 104 427 C 106 449 107 470 107 490 L 332 490 L 332 409 C 350 445 369 470 389 483 C 409 495 430 502 454 502 C 464 502 473 501 483 499 C 492 497 501 495 510 492 L 478 271 C 465 277 452 283 440 287 C 427 291 415 293 404 293 C 382 293 360 284 339 268 C 318 251 305 220 299 176 L 274 0 L 47 0 Z" horiz-adv-x="453" />
<glyph unicode="s" d="M 224 -16 C 193 -16 162 -14 131 -10 C 100 -6 69 0 39 9 L 59 161 C 85 148 111 139 137 133 C 163 127 190 124 219 124 C 231 124 241 125 249 129 C 256 132 260 137 260 143 C 260 147 257 151 252 155 C 247 159 241 161 234 163 L 191 173 C 151 182 120 199 100 224 C 79 248 69 278 69 314 C 69 369 88 415 127 451 C 166 487 227 505 310 505 C 342 505 374 503 405 499 C 436 495 467 489 498 481 L 479 334 C 456 346 433 356 409 362 C 385 368 361 372 338 372 C 323 372 312 370 306 366 C 299 362 296 357 296 351 C 296 346 297 342 301 339 C 304 336 310 334 319 332 L 362 322 C 402 312 432 294 454 268 C 475 242 486 211 486 175 C 486 119 465 74 423 38 C 381 2 314 -16 224 -16 Z" horiz-adv-x="483" />
<glyph unicode="t" d="M 250 -12 C 196 -12 155 3 129 34 C 103 64 93 106 101 158 L 123 318 L 67 318 L 91 490 L 147 490 L 166 621 L 393 621 L 374 490 L 453 490 L 429 318 L 350 318 L 335 209 C 333 196 335 186 341 180 C 347 173 354 170 364 170 C 371 170 378 171 386 173 C 394 175 401 178 409 182 L 385 9 C 364 1 342 -3 320 -7 C 298 -10 274 -12 250 -12 Z" horiz-adv-x="411" />
<glyph unicode="u" d="M 194 -14 C 146 -14 109 1 84 32 C 59 63 51 105 60 158 L 94 360 C 97 382 100 405 102 428 C 104 450 106 471 106 490 L 334 490 C 334 470 333 450 331 428 C 329 406 326 383 322 360 L 294 206 C 292 194 293 186 298 182 C 302 177 308 175 314 175 C 325 175 336 181 346 195 C 356 208 363 230 368 261 L 401 490 L 628 490 L 577 131 C 574 112 572 91 571 67 C 570 43 570 20 570 0 L 343 0 L 343 75 C 323 44 301 21 276 7 C 251 -6 224 -14 194 -14 Z" horiz-adv-x="607" />
<glyph unicode="v" d="M 129 0 L 81 490 L 309 490 L 317 321 L 319 180 C 336 226 352 274 367 326 C 382 377 396 432 410 490 L 612 490 C 588 396 560 311 529 233 C 498 155 462 77 420 0 L 129 0 Z" horiz-adv-x="558" />
<glyph unicode="w" d="M 124 0 L 81 490 L 304 490 L 313 320 L 314 193 C 330 238 344 285 358 335 C 372 384 385 436 399 490 L 608 490 L 618 321 L 622 200 C 640 248 657 296 671 344 C 685 392 697 440 708 490 L 905 490 C 882 402 854 317 821 234 C 788 151 752 73 712 0 L 471 0 L 462 130 L 460 212 C 448 178 436 143 422 107 C 408 71 393 36 377 0 L 124 0 Z" horiz-adv-x="851" />
<glyph unicode="x" d="M 11 0 L 172 245 L 84 490 L 338 490 L 362 400 L 369 375 L 381 400 L 431 490 L 655 490 L 501 256 L 590 0 L 330 0 L 309 87 L 302 119 L 286 87 L 239 0 L 11 0 Z" horiz-adv-x="603" />
<glyph unicode="y" d="M 441 -7 C 388 -77 324 -130 250 -166 C 175 -202 91 -220 -1 -220 L -18 -220 L 8 -42 L 24 -42 C 58 -42 91 -37 121 -28 C 151 -19 178 -6 203 10 L 130 23 L 79 490 L 315 490 L 326 320 L 332 139 C 352 188 369 241 383 298 C 397 354 410 418 422 490 L 628 490 C 610 384 585 290 554 208 C 523 125 485 53 441 -7 Z" horiz-adv-x="580" />
<glyph unicode="z" d="M 28 0 L 42 100 L 177 253 L 232 312 L 74 312 L 99 490 L 579 490 L 565 391 L 428 237 L 373 178 L 540 178 L 515 0 L 28 0 Z" horiz-adv-x="547" />
<glyph unicode="{" d="M 356 -220 C 281 -220 225 -202 189 -167 C 152 -131 140 -85 153 -27 L 174 76 C 179 102 173 123 156 139 C 139 155 113 164 78 167 L 101 329 C 137 331 165 340 186 356 C 207 372 219 393 222 421 L 231 523 C 235 581 260 627 305 663 C 350 698 410 716 485 716 L 544 716 L 522 556 L 506 556 C 490 556 475 549 463 537 C 451 524 444 505 443 480 L 438 405 C 435 366 421 333 397 306 C 372 278 339 259 298 249 L 297 247 C 335 235 362 216 380 188 C 397 160 401 128 393 92 L 376 16 C 370 -9 371 -28 381 -41 C 391 -53 404 -60 421 -60 L 437 -60 L 415 -220 L 356 -220 Z" horiz-adv-x="488" />
<glyph unicode="|" d="M 19 -220 L 151 716 L 335 716 L 203 -220 L 19 -220 Z" horiz-adv-x="282" />
<glyph unicode="}" d="M 15 -220 L 37 -60 L 53 -60 C 69 -60 84 -53 97 -41 C 109 -28 116 -9 118 16 L 123 91 C 125 128 139 160 163 188 C 187 216 220 235 261 247 L 262 249 C 224 259 196 277 179 305 C 161 333 157 366 166 405 L 183 480 C 189 505 187 524 177 537 C 167 549 155 556 139 556 L 123 556 L 145 716 L 204 716 C 278 716 334 698 371 663 C 407 627 419 580 407 522 L 386 420 C 380 393 386 372 403 356 C 420 340 446 331 481 329 L 459 168 C 423 164 394 155 373 140 C 352 124 340 103 338 76 L 329 -26 C 324 -84 299 -131 254 -167 C 209 -202 149 -220 74 -220 L 15 -220 Z" horiz-adv-x="488" />
<glyph unicode="~" d="M 138 163 L 27 163 C 34 218 50 260 76 288 C 101 316 134 331 175 331 C 193 331 209 328 223 324 C 236 319 249 311 262 300 C 268 295 273 291 277 289 C 281 287 285 286 290 286 C 297 286 303 289 308 295 C 312 301 316 311 318 324 L 429 324 C 421 269 405 227 380 199 C 354 171 322 157 282 157 C 263 157 247 159 233 164 C 219 168 206 176 194 188 C 188 192 184 196 180 198 C 176 200 171 201 167 201 C 158 201 151 198 147 192 C 142 186 139 176 138 163 Z" horiz-adv-x="392" />
<glyph unicode="¡" d="M 102 352 L 126 524 L 330 524 L 306 352 L 102 352 Z M 26 -193 L 94 296 L 298 296 L 230 -193 L 26 -193 Z" horiz-adv-x="309" />
<glyph unicode="¢" d="M 172 -105 L 188 9 C 148 25 117 52 94 88 C 70 124 59 168 59 218 C 59 284 76 341 112 389 C 147 437 195 470 255 488 L 270 592 L 434 592 L 420 496 C 432 494 445 491 457 488 C 469 485 481 481 493 477 L 466 287 C 451 294 436 300 420 305 C 404 309 387 312 371 312 C 346 312 327 305 313 292 C 299 279 292 261 292 239 C 292 220 297 205 309 194 C 321 183 337 178 358 178 C 374 178 391 180 408 186 C 425 192 442 200 458 210 L 431 22 C 419 15 407 9 393 4 C 379 0 364 -4 350 -7 L 336 -105 L 172 -105 Z" horiz-adv-x="458" />
<glyph unicode="£" d="M 60 0 L 83 164 C 106 176 125 191 141 208 C 157 225 167 245 172 268 L 94 268 L 115 422 L 171 422 C 173 500 201 562 255 608 C 309 654 385 677 485 677 C 517 677 549 674 580 668 C 610 662 640 653 669 642 L 641 439 C 620 451 598 461 576 468 C 554 475 530 479 504 479 C 478 479 457 474 441 465 C 425 456 415 442 411 422 L 520 422 L 498 268 L 410 268 C 408 258 405 249 401 241 C 397 232 393 223 388 215 L 610 215 L 579 0 L 60 0 Z" horiz-adv-x="634" />
<glyph unicode="¤" d="M 199 -13 L 67 141 L 189 247 C 187 255 186 263 185 271 C 184 279 184 287 184 296 C 184 317 186 338 190 358 C 194 378 201 396 209 414 L 114 525 L 289 678 L 383 568 C 397 572 411 576 426 578 C 441 580 456 582 471 582 C 485 582 500 580 514 578 C 528 576 542 572 555 568 L 680 678 L 811 525 L 686 416 C 686 409 687 402 688 395 C 689 388 690 381 690 374 C 690 350 687 328 682 306 C 676 284 669 264 659 246 L 751 139 L 576 -14 L 477 101 C 465 97 452 95 440 93 C 427 91 414 91 402 91 C 389 91 376 91 364 93 C 352 95 340 97 329 101 L 199 -13 Z M 427 262 C 450 262 470 270 486 287 C 502 304 511 324 511 346 C 511 362 505 377 493 390 C 481 402 465 409 447 409 C 423 409 403 400 387 383 C 371 365 363 346 363 324 C 363 307 368 292 380 280 C 392 268 407 262 427 262 Z" horiz-adv-x="777" />
<glyph unicode="¥" d="M 138 90 L 152 190 L 274 190 L 276 205 L 267 230 L 157 230 L 171 330 L 231 330 L 114 658 L 378 658 L 416 512 L 433 431 L 473 512 L 551 658 L 808 658 L 601 330 L 665 330 L 651 230 L 538 230 L 519 200 L 518 190 L 646 190 L 632 90 L 504 90 L 491 0 L 247 0 L 260 90 L 138 90 Z" horiz-adv-x="743" />
<glyph unicode="¦" d="M 94 314 L 151 716 L 335 716 L 278 314 L 94 314 Z M 20 -220 L 76 183 L 260 183 L 204 -220 L 20 -220 Z" horiz-adv-x="282" />
<glyph unicode="§" d="M 266 -12 C 228 -12 191 -9 157 -4 C 122 0 88 7 54 17 L 75 169 C 103 156 133 146 164 139 C 194 132 226 129 258 129 C 270 129 280 130 287 133 C 293 136 297 141 297 147 C 297 151 295 155 291 158 C 287 161 281 163 273 165 L 230 174 C 182 184 148 200 127 223 C 106 245 96 272 96 304 C 96 329 102 352 116 373 C 130 394 148 411 172 424 C 156 436 143 450 135 468 C 127 486 123 506 123 530 C 123 583 147 626 196 658 C 245 690 309 707 389 707 C 421 707 453 704 487 700 C 521 695 554 688 588 680 L 568 538 C 541 548 514 556 486 562 C 458 568 431 571 405 571 C 392 571 382 569 375 567 C 367 564 364 559 364 553 C 364 549 365 546 368 543 C 370 540 375 538 381 538 L 424 529 C 472 518 507 500 531 476 C 555 451 567 422 567 388 C 567 363 560 341 548 321 C 536 301 518 284 496 270 C 509 258 519 243 526 226 C 533 208 537 188 537 166 C 537 113 512 70 462 37 C 412 4 346 -12 266 -12 Z M 333 322 L 357 319 C 359 323 362 327 364 332 C 366 336 367 341 367 346 C 367 354 363 361 356 367 C 349 372 339 376 327 379 L 304 383 C 301 379 299 374 297 369 C 295 364 294 359 294 355 C 294 345 297 338 303 333 C 309 327 319 324 333 322 Z" horiz-adv-x="559" />
<glyph unicode="¨" d="M 100 541 L 121 691 L 271 691 L 250 541 L 100 541 Z M 297 541 L 318 691 L 468 691 L 447 541 L 297 541 Z" horiz-adv-x="391" />
<glyph unicode="©" d="M 406 86 C 312 86 236 112 179 166 C 121 219 93 290 93 379 C 93 477 127 559 195 625 C 263 691 345 724 441 724 C 535 724 610 697 668 644 C 725 590 754 519 754 431 C 754 332 719 250 651 184 C 583 118 501 86 406 86 Z M 405 189 C 472 189 528 211 574 255 C 619 299 642 355 642 422 C 642 483 624 531 588 567 C 552 603 503 621 442 621 C 374 621 318 598 272 554 C 226 509 204 454 204 388 C 204 326 222 278 258 242 C 294 206 343 189 405 189 Z M 410 233 C 362 233 323 246 293 274 C 263 302 249 339 249 387 C 249 446 268 493 307 528 C 345 562 394 580 452 580 C 471 580 489 578 507 574 C 525 570 541 563 556 554 L 540 437 C 527 446 513 453 499 458 C 484 462 468 465 452 465 C 430 465 412 458 400 446 C 387 434 381 417 381 397 C 381 381 385 369 395 360 C 404 351 417 347 435 347 C 453 347 470 349 486 354 C 502 359 519 367 535 377 L 519 260 C 500 250 482 243 465 239 C 447 235 429 233 410 233 Z" horiz-adv-x="733" />
<glyph unicode="ª" d="M 239 366 C 206 366 178 378 155 402 C 131 426 120 461 120 507 C 120 577 145 635 195 680 C 245 724 309 747 387 747 C 411 747 437 745 465 742 C 492 738 520 733 548 727 L 518 516 C 515 495 513 472 511 446 C 509 420 509 397 509 376 L 350 376 L 350 439 C 336 414 320 396 302 384 C 284 372 263 366 239 366 Z M 315 507 C 323 507 330 512 337 522 C 343 532 350 554 357 588 L 361 613 C 358 613 355 614 352 615 C 348 615 345 616 343 616 C 328 616 316 608 306 594 C 296 579 291 561 291 541 C 291 531 293 522 297 516 C 301 510 307 507 315 507 Z M 104 205 L 121 321 L 510 321 L 493 205 L 104 205 Z" horiz-adv-x="513" />
<glyph unicode="«" d="M 438 51 L 340 226 L 487 402 L 705 402 L 559 226 L 656 51 L 438 51 Z M 149 51 L 51 226 L 198 402 L 416 402 L 270 226 L 367 51 L 149 51 Z" horiz-adv-x="679" />
<glyph unicode="¬" d="M 277 103 L 291 206 L 73 206 L 99 386 L 497 386 L 457 103 L 277 103 Z" horiz-adv-x="489" />
<glyph unicode="­" d="M 65 160 L 87 316 L 367 316 L 345 160 L 65 160 Z" horiz-adv-x="364" />
<glyph unicode="®" d="M 406 86 C 312 86 236 112 179 166 C 121 219 93 290 93 379 C 93 477 127 559 195 625 C 263 691 345 724 441 724 C 535 724 610 697 668 644 C 725 590 754 519 754 431 C 754 332 719 250 651 184 C 583 118 501 86 406 86 Z M 405 189 C 472 189 528 211 574 255 C 619 299 642 355 642 422 C 642 483 624 531 588 567 C 552 603 503 621 442 621 C 374 621 318 598 272 554 C 226 509 204 454 204 388 C 204 326 222 278 258 242 C 294 206 343 189 405 189 Z M 268 246 L 314 571 L 444 571 C 481 571 510 564 531 550 C 552 536 563 516 563 492 C 563 468 555 449 539 433 C 523 417 502 407 478 404 C 494 401 506 396 515 390 C 523 384 529 375 532 363 L 559 246 L 444 246 L 426 339 C 424 347 421 354 417 358 C 413 362 407 364 401 364 L 395 364 L 378 246 L 268 246 Z M 406 442 L 418 442 C 428 442 436 445 442 451 C 448 457 451 464 451 474 C 451 480 448 485 444 489 C 440 493 434 495 426 495 L 414 495 L 406 442 Z" horiz-adv-x="733" />
<glyph unicode="¯" d="M 98 545 L 116 673 L 378 673 L 360 545 L 98 545 Z" horiz-adv-x="303" />
<glyph unicode="°" d="M 262 426 C 216 426 179 439 149 465 C 119 491 104 527 104 571 C 104 622 121 664 155 698 C 189 731 232 748 282 748 C 327 748 365 734 395 708 C 425 682 440 647 440 603 C 440 552 422 510 388 476 C 354 442 312 426 262 426 Z M 270 548 C 282 548 291 552 299 560 C 307 568 311 579 311 592 C 311 602 307 610 301 617 C 294 623 285 627 275 627 C 263 627 253 622 245 614 C 237 606 234 596 234 584 C 234 574 237 565 244 558 C 250 551 259 548 270 548 Z" horiz-adv-x="382" />
<glyph unicode="±" d="M 183 66 L 201 193 L 79 193 L 106 381 L 228 381 L 245 508 L 433 508 L 416 381 L 538 381 L 511 193 L 389 193 L 371 66 L 183 66 Z M 13 -166 L 39 22 L 471 22 L 444 -166 L 13 -166 Z" horiz-adv-x="538" />
<glyph unicode="²" d="M 84 440 L 105 589 C 159 601 199 612 224 624 C 248 635 261 648 261 663 C 261 671 257 678 249 682 C 241 686 229 688 213 688 C 198 688 182 685 166 681 C 149 677 134 671 120 665 L 138 790 C 158 796 180 801 203 805 C 225 809 248 811 270 811 C 317 811 354 801 382 783 C 409 765 423 740 423 710 C 423 676 409 647 383 623 C 356 598 316 577 264 561 L 400 561 L 383 440 L 84 440 Z" horiz-adv-x="349" />
<glyph unicode="³" d="M 226 426 C 200 426 176 427 153 430 C 130 432 107 436 84 442 L 101 560 C 116 554 132 550 148 547 C 164 544 182 543 200 543 C 214 543 226 544 234 547 C 242 550 247 555 247 562 C 247 568 242 572 233 575 C 223 578 210 580 192 580 L 165 580 L 176 658 L 197 658 C 217 658 231 659 241 663 C 250 666 255 671 255 678 C 255 682 251 686 245 689 C 239 692 230 694 218 694 C 202 694 186 692 171 690 C 156 687 141 683 125 677 L 142 796 C 162 800 183 804 205 806 C 226 808 247 810 269 810 C 317 810 355 802 382 787 C 408 771 422 749 422 721 C 422 695 412 673 394 655 C 376 637 352 626 322 620 C 348 615 369 605 383 591 C 397 577 405 559 405 539 C 405 504 389 476 357 456 C 325 436 281 426 226 426 Z" horiz-adv-x="352" />
<glyph unicode="´" d="M 94 541 L 213 708 L 428 708 L 273 541 L 94 541 Z" horiz-adv-x="305" />
<glyph unicode="¶" d="M 159 0 L 213 382 C 180 382 152 393 130 417 C 107 441 96 469 96 503 C 96 548 112 585 145 614 C 177 643 220 658 273 658 L 606 658 L 514 0 L 366 0 L 440 529 L 382 529 L 307 0 L 159 0 Z" horiz-adv-x="590" />
<glyph unicode="·" d="M 74 184 L 95 336 L 248 336 L 226 184 L 74 184 Z" horiz-adv-x="250" />
<glyph unicode="¸" d="M 80 -255 C 66 -255 53 -254 41 -252 C 28 -250 17 -247 8 -244 L 21 -149 C 29 -153 38 -157 46 -159 C 54 -161 62 -163 70 -163 C 80 -163 88 -160 94 -156 C 100 -151 103 -145 103 -137 C 103 -131 100 -126 96 -123 C 91 -119 85 -118 78 -118 L 67 -118 L 78 -40 L 95 -40 C 131 -40 161 -49 185 -67 C 208 -85 220 -109 220 -139 C 220 -173 207 -200 181 -222 C 155 -244 122 -255 80 -255 Z" horiz-adv-x="237" />
<glyph unicode="¹" d="M 86 440 L 103 558 L 152 558 L 168 674 L 118 670 L 135 789 L 353 807 L 319 558 L 367 558 L 350 440 L 86 440 Z" horiz-adv-x="313" />
<glyph unicode="º" d="M 310 358 C 254 358 208 373 174 403 C 140 433 123 474 123 526 C 123 593 143 646 183 686 C 223 726 275 746 340 746 C 397 746 443 731 478 701 C 513 671 531 631 531 581 C 531 512 510 458 470 418 C 429 378 376 358 310 358 Z M 321 493 C 333 493 343 500 351 515 C 359 530 363 549 363 572 C 363 584 360 594 354 601 C 348 607 341 611 333 611 C 320 611 310 603 302 588 C 294 573 291 554 291 532 C 291 520 293 510 299 503 C 304 496 311 493 321 493 Z M 101 205 L 117 321 L 489 321 L 473 205 L 101 205 Z" horiz-adv-x="501" />
<glyph unicode="»" d="M 37 50 L 184 225 L 86 401 L 304 401 L 403 225 L 255 50 L 37 50 Z M 328 50 L 475 225 L 377 401 L 595 401 L 694 225 L 546 50 L 328 50 Z" horiz-adv-x="692" />
<glyph unicode="¼" d="M 75 360 L 92 478 L 141 478 L 157 594 L 107 590 L 124 709 L 342 727 L 308 478 L 356 478 L 339 360 L 75 360 Z M 193 0 L 608 716 L 764 716 L 349 0 L 193 0 Z M 651 0 L 658 50 L 509 50 L 524 155 L 670 356 L 843 356 L 814 151 L 849 151 L 835 49 L 800 49 L 793 0 L 651 0 Z M 672 151 L 687 255 L 614 151 L 672 151 Z" horiz-adv-x="846" />
<glyph unicode="½" d="M 75 360 L 92 478 L 141 478 L 157 594 L 107 590 L 124 709 L 342 727 L 308 478 L 356 478 L 339 360 L 75 360 Z M 181 0 L 596 716 L 752 716 L 337 0 L 181 0 Z M 539 1 L 560 150 C 614 162 654 173 679 185 C 703 196 716 209 716 224 C 716 232 712 239 704 243 C 696 247 684 249 668 249 C 653 249 637 246 621 242 C 604 238 589 232 575 226 L 593 351 C 613 357 635 362 658 366 C 680 370 703 372 725 372 C 772 372 809 362 837 344 C 864 326 878 301 878 271 C 878 237 864 208 838 184 C 811 159 771 138 719 122 L 855 122 L 838 1 L 539 1 Z" horiz-adv-x="863" />
<glyph unicode="¾" d="M 215 346 C 189 346 165 347 142 350 C 119 352 96 356 73 362 L 90 480 C 105 474 121 470 137 467 C 153 464 171 463 189 463 C 203 463 215 464 223 467 C 231 470 236 475 236 482 C 236 488 231 492 222 495 C 212 498 199 500 181 500 L 154 500 L 165 578 L 186 578 C 206 578 220 579 230 583 C 239 586 244 591 244 598 C 244 602 240 606 234 609 C 228 612 219 614 207 614 C 191 614 175 612 160 610 C 145 607 130 603 114 597 L 131 716 C 151 720 172 724 194 726 C 215 728 236 730 258 730 C 306 730 344 722 371 707 C 397 691 411 669 411 641 C 411 615 401 593 383 575 C 365 557 341 546 311 540 C 337 535 358 525 372 511 C 386 497 394 479 394 459 C 394 424 378 396 346 376 C 314 356 270 346 215 346 Z M 199 0 L 614 716 L 770 716 L 355 0 L 199 0 Z M 647 0 L 654 50 L 505 50 L 520 155 L 666 356 L 839 356 L 810 151 L 845 151 L 831 49 L 796 49 L 789 0 L 647 0 Z M 668 151 L 683 255 L 610 151 L 668 151 Z" horiz-adv-x="841" />
<glyph unicode="¿" d="M 225 352 L 249 524 L 469 524 L 445 352 L 225 352 Z M 252 -175 C 178 -175 121 -161 81 -135 C 41 -109 21 -71 21 -21 C 21 13 30 46 50 78 C 70 109 104 143 152 181 C 173 198 190 216 202 234 C 214 252 222 273 226 296 L 430 296 C 424 259 414 227 399 200 C 384 172 361 146 331 121 C 314 107 302 94 294 83 C 286 71 283 60 283 50 C 283 37 288 27 300 20 C 311 12 326 9 346 9 C 368 9 391 11 415 17 C 438 22 463 30 489 42 L 464 -141 C 430 -151 395 -160 361 -166 C 327 -172 290 -175 252 -175 Z" horiz-adv-x="504" />
<glyph unicode="À" d="M 388 706 L 290 855 L 487 855 L 552 706 L 388 706 Z M 12 0 L 324 658 L 607 658 L 734 0 L 489 0 L 474 93 L 281 93 L 241 0 L 12 0 Z M 344 239 L 452 239 L 443 296 L 426 428 L 370 296 L 344 239 Z" horiz-adv-x="746" />
<glyph unicode="Á" d="M 389 706 L 496 855 L 693 855 L 554 706 L 389 706 Z M 12 0 L 324 658 L 607 658 L 734 0 L 489 0 L 474 93 L 281 93 L 241 0 L 12 0 Z M 344 239 L 452 239 L 443 296 L 426 428 L 370 296 L 344 239 Z" horiz-adv-x="746" />
<glyph unicode="Â" d="M 307 706 L 408 862 L 577 862 L 636 706 L 501 706 L 479 769 L 441 706 L 307 706 Z M 12 0 L 324 658 L 607 658 L 734 0 L 489 0 L 474 93 L 281 93 L 241 0 L 12 0 Z M 344 239 L 452 239 L 443 296 L 426 428 L 370 296 L 344 239 Z" horiz-adv-x="746" />
<glyph unicode="Ã" d="M 399 706 L 299 706 C 305 755 320 792 343 818 C 365 844 395 857 432 857 C 448 857 463 854 475 850 C 487 846 499 839 511 830 C 515 825 519 822 523 820 C 527 818 531 817 536 817 C 542 817 548 819 552 825 C 556 830 559 839 561 851 L 661 851 C 654 801 639 764 617 738 C 594 712 564 700 528 700 C 511 700 497 702 485 706 C 473 710 461 718 450 728 C 444 732 440 735 436 737 C 432 739 429 740 425 740 C 417 740 412 737 408 732 C 404 726 401 718 399 706 Z M 12 0 L 324 658 L 607 658 L 734 0 L 489 0 L 474 93 L 281 93 L 241 0 L 12 0 Z M 344 239 L 452 239 L 443 296 L 426 428 L 370 296 L 344 239 Z" horiz-adv-x="746" />
<glyph unicode="Ä" d="M 311 711 L 330 846 L 466 846 L 447 711 L 311 711 Z M 492 711 L 511 846 L 646 846 L 627 711 L 492 711 Z M 12 0 L 324 658 L 607 658 L 734 0 L 489 0 L 474 93 L 281 93 L 241 0 L 12 0 Z M 344 239 L 452 239 L 443 296 L 426 428 L 370 296 L 344 239 Z" horiz-adv-x="746" />
<glyph unicode="Å" d="M 12 0 L 324 658 L 338 658 C 337 662 336 667 336 672 C 335 677 335 682 335 687 C 335 727 348 760 376 787 C 404 814 438 828 479 828 C 514 828 544 817 568 796 C 592 774 604 746 604 710 C 604 700 603 691 601 683 C 599 674 597 666 595 658 L 607 658 L 734 0 L 489 0 L 474 93 L 281 93 L 241 0 L 12 0 Z M 467 658 C 479 658 490 662 499 670 C 507 678 512 689 512 702 C 512 712 508 720 501 728 C 493 735 484 739 473 739 C 460 739 449 735 441 727 C 432 719 428 708 428 696 C 428 685 431 676 439 669 C 446 661 455 658 467 658 Z M 344 239 L 452 239 L 443 296 L 426 428 L 370 296 L 344 239 Z" horiz-adv-x="746" />
<glyph unicode="Æ" d="M 12 0 L 404 658 L 1006 658 L 979 464 L 765 464 L 757 407 L 960 407 L 938 251 L 735 251 L 727 194 L 950 194 L 923 0 L 456 0 L 471 108 L 312 108 L 248 0 L 12 0 Z M 405 271 L 494 271 L 523 478 L 458 362 L 405 271 Z" horiz-adv-x="964" />
<glyph unicode="Ç" d="M 419 -14 C 315 -14 232 12 170 64 C 108 116 77 192 77 290 C 77 407 117 500 197 569 C 277 637 378 672 499 672 C 533 672 565 669 595 664 C 625 658 653 650 681 639 L 651 424 C 625 437 600 447 576 453 C 551 459 525 463 499 463 C 450 463 411 448 381 419 C 351 390 336 354 336 310 C 336 274 347 246 370 226 C 393 206 425 196 465 196 C 492 196 519 199 547 206 C 575 212 602 223 630 237 L 600 21 C 572 9 542 0 512 -5 C 482 -11 451 -14 419 -14 Z M 348 -251 C 336 -251 324 -250 312 -248 C 300 -246 289 -243 280 -240 L 293 -148 C 301 -152 309 -156 317 -158 C 325 -160 333 -162 342 -162 C 352 -162 359 -159 365 -155 C 370 -150 373 -144 373 -137 C 373 -131 370 -126 365 -123 C 360 -119 354 -118 347 -118 L 337 -118 L 347 -46 L 363 -46 C 397 -46 424 -54 445 -72 C 466 -89 477 -111 477 -139 C 477 -171 465 -198 442 -219 C 419 -240 388 -251 348 -251 Z" horiz-adv-x="635" />
<glyph unicode="È" d="M 297 706 L 199 855 L 396 855 L 461 706 L 297 706 Z M 52 0 L 145 658 L 604 658 L 577 466 L 363 466 L 354 405 L 561 405 L 540 255 L 333 255 L 324 192 L 546 192 L 519 0 L 52 0 Z" horiz-adv-x="561" />
<glyph unicode="É" d="M 298 706 L 405 855 L 602 855 L 463 706 L 298 706 Z M 52 0 L 145 658 L 604 658 L 577 466 L 363 466 L 354 405 L 561 405 L 540 255 L 333 255 L 324 192 L 546 192 L 519 0 L 52 0 Z" horiz-adv-x="561" />
<glyph unicode="Ê" d="M 216 706 L 317 862 L 486 862 L 545 706 L 410 706 L 388 769 L 350 706 L 216 706 Z M 52 0 L 145 658 L 604 658 L 577 466 L 363 466 L 354 405 L 561 405 L 540 255 L 333 255 L 324 192 L 546 192 L 519 0 L 52 0 Z" horiz-adv-x="561" />
<glyph unicode="Ë" d="M 220 711 L 239 846 L 375 846 L 356 711 L 220 711 Z M 401 711 L 420 846 L 555 846 L 536 711 L 401 711 Z M 52 0 L 145 658 L 604 658 L 577 466 L 363 466 L 354 405 L 561 405 L 540 255 L 333 255 L 324 192 L 546 192 L 519 0 L 52 0 Z" horiz-adv-x="561" />
<glyph unicode="Ì" d="M 193 706 L 95 855 L 292 855 L 357 706 L 193 706 Z M 52 0 L 144 658 L 388 658 L 296 0 L 52 0 Z" horiz-adv-x="348" />
<glyph unicode="Í" d="M 194 706 L 301 855 L 498 855 L 359 706 L 194 706 Z M 52 0 L 144 658 L 388 658 L 296 0 L 52 0 Z" horiz-adv-x="348" />
<glyph unicode="Î" d="M 112 706 L 213 862 L 382 862 L 441 706 L 306 706 L 284 769 L 246 706 L 112 706 Z M 52 0 L 144 658 L 388 658 L 296 0 L 52 0 Z" horiz-adv-x="348" />
<glyph unicode="Ï" d="M 116 711 L 135 846 L 271 846 L 252 711 L 116 711 Z M 297 711 L 316 846 L 451 846 L 432 711 L 297 711 Z M 52 0 L 144 658 L 388 658 L 296 0 L 52 0 Z" horiz-adv-x="348" />
<glyph unicode="Ð" d="M 68 0 L 105 268 L 66 268 L 84 396 L 123 396 L 160 658 L 433 658 C 535 658 616 631 676 579 C 735 526 765 457 765 373 C 765 261 726 170 648 102 C 570 34 468 0 343 0 L 68 0 Z M 341 203 L 367 203 C 409 203 443 217 469 247 C 494 277 507 313 507 356 C 507 386 498 411 480 429 C 462 447 436 456 403 456 L 377 456 L 368 396 L 417 396 L 399 268 L 350 268 L 341 203 Z" horiz-adv-x="750" />
<glyph unicode="Ñ" d="M 416 706 L 316 706 C 322 755 337 792 360 818 C 382 844 412 857 449 857 C 465 857 480 854 492 850 C 504 846 516 839 528 830 C 532 825 536 822 540 820 C 544 818 548 817 553 817 C 559 817 565 819 569 825 C 573 830 576 839 578 851 L 678 851 C 671 801 656 764 634 738 C 611 712 581 700 545 700 C 528 700 514 702 502 706 C 490 710 478 718 467 728 C 461 732 457 735 453 737 C 449 739 446 740 442 740 C 434 740 429 737 425 732 C 421 726 418 718 416 706 Z M 52 0 L 144 658 L 418 658 L 517 417 L 557 309 L 567 417 L 601 658 L 811 658 L 719 0 L 448 0 L 347 242 L 307 354 L 296 242 L 262 0 L 52 0 Z" horiz-adv-x="771" />
<glyph unicode="Ò" d="M 393 719 L 295 868 L 492 868 L 557 719 L 393 719 Z M 405 -17 C 304 -17 224 9 165 63 C 106 116 77 191 77 289 C 77 403 115 496 191 568 C 267 640 361 676 472 676 C 572 676 652 649 711 596 C 769 542 799 467 800 370 C 800 260 763 168 689 94 C 614 20 519 -17 405 -17 Z M 423 189 C 457 189 486 205 509 238 C 531 271 543 312 543 362 C 543 395 535 421 519 441 C 503 460 482 470 455 470 C 420 470 391 453 368 420 C 345 387 334 346 334 298 C 334 264 341 238 357 218 C 373 198 395 189 423 189 Z" horiz-adv-x="785" />
<glyph unicode="Ó" d="M 394 719 L 501 868 L 698 868 L 559 719 L 394 719 Z M 405 -17 C 304 -17 224 9 165 63 C 106 116 77 191 77 289 C 77 403 115 496 191 568 C 267 640 361 676 472 676 C 572 676 652 649 711 596 C 769 542 799 467 800 370 C 800 260 763 168 689 94 C 614 20 519 -17 405 -17 Z M 423 189 C 457 189 486 205 509 238 C 531 271 543 312 543 362 C 543 395 535 421 519 441 C 503 460 482 470 455 470 C 420 470 391 453 368 420 C 345 387 334 346 334 298 C 334 264 341 238 357 218 C 373 198 395 189 423 189 Z" horiz-adv-x="785" />
<glyph unicode="Ô" d="M 312 719 L 413 875 L 582 875 L 641 719 L 506 719 L 484 782 L 446 719 L 312 719 Z M 405 -17 C 304 -17 224 9 165 63 C 106 116 77 191 77 289 C 77 403 115 496 191 568 C 267 640 361 676 472 676 C 572 676 652 649 711 596 C 769 542 799 467 800 370 C 800 260 763 168 689 94 C 614 20 519 -17 405 -17 Z M 423 189 C 457 189 486 205 509 238 C 531 271 543 312 543 362 C 543 395 535 421 519 441 C 503 460 482 470 455 470 C 420 470 391 453 368 420 C 345 387 334 346 334 298 C 334 264 341 238 357 218 C 373 198 395 189 423 189 Z" horiz-adv-x="785" />
<glyph unicode="Õ" d="M 404 719 L 304 719 C 310 768 325 805 348 831 C 370 857 400 870 437 870 C 453 870 468 867 480 863 C 492 859 504 852 516 843 C 520 838 524 835 528 833 C 532 831 536 830 541 830 C 547 830 553 832 557 838 C 561 843 564 852 566 864 L 666 864 C 659 814 644 777 622 751 C 599 725 569 713 533 713 C 516 713 502 715 490 719 C 478 723 466 731 455 741 C 449 745 445 748 441 750 C 437 752 434 753 430 753 C 422 753 417 750 413 745 C 409 739 406 731 404 719 Z M 405 -17 C 304 -17 224 9 165 63 C 106 116 77 191 77 289 C 77 403 115 496 191 568 C 267 640 361 676 472 676 C 572 676 652 649 711 596 C 769 542 799 467 800 370 C 800 260 763 168 689 94 C 614 20 519 -17 405 -17 Z M 423 189 C 457 189 486 205 509 238 C 531 271 543 312 543 362 C 543 395 535 421 519 441 C 503 460 482 470 455 470 C 420 470 391 453 368 420 C 345 387 334 346 334 298 C 334 264 341 238 357 218 C 373 198 395 189 423 189 Z" horiz-adv-x="785" />
<glyph unicode="Ö" d="M 316 724 L 335 859 L 471 859 L 452 724 L 316 724 Z M 497 724 L 516 859 L 651 859 L 632 724 L 497 724 Z M 405 -17 C 304 -17 224 9 165 63 C 106 116 77 191 77 289 C 77 403 115 496 191 568 C 267 640 361 676 472 676 C 572 676 652 649 711 596 C 769 542 799 467 800 370 C 800 260 763 168 689 94 C 614 20 519 -17 405 -17 Z M 423 189 C 457 189 486 205 509 238 C 531 271 543 312 543 362 C 543 395 535 421 519 441 C 503 460 482 470 455 470 C 420 470 391 453 368 420 C 345 387 334 346 334 298 C 334 264 341 238 357 218 C 373 198 395 189 423 189 Z" horiz-adv-x="785" />
<glyph unicode="×" d="M 183 59 L 69 192 L 178 288 L 94 384 L 245 517 L 328 420 L 437 515 L 551 382 L 443 287 L 526 190 L 375 58 L 292 155 L 183 59 Z" horiz-adv-x="540" />
<glyph unicode="Ø" d="M 112 -48 L 178 51 C 145 77 120 110 103 150 C 85 190 77 237 77 289 C 77 403 115 496 191 568 C 267 640 361 676 472 676 C 492 676 512 674 532 672 C 551 670 569 666 587 662 L 616 706 L 767 706 L 700 606 C 732 580 756 547 773 507 C 790 467 799 422 800 370 C 800 260 763 168 689 94 C 614 20 519 -17 405 -17 C 384 -17 364 -16 346 -14 C 327 -12 309 -8 293 -4 L 263 -48 L 112 -48 Z M 423 189 C 457 189 486 205 509 238 C 531 271 543 312 543 362 C 543 395 535 421 519 441 C 503 460 482 470 455 470 C 420 470 391 453 368 420 C 345 387 334 346 334 298 C 334 264 341 238 357 218 C 373 198 395 189 423 189 Z" horiz-adv-x="785" />
<glyph unicode="Ù" d="M 386 706 L 288 855 L 485 855 L 550 706 L 386 706 Z M 373 -15 C 272 -15 196 9 145 59 C 93 108 74 175 86 259 L 141 658 L 391 658 L 338 276 C 335 253 339 235 349 221 C 359 207 374 201 396 201 C 418 201 436 207 450 221 C 464 235 473 253 476 276 L 529 658 L 760 658 L 705 259 C 693 175 657 108 598 59 C 538 9 463 -15 373 -15 Z" horiz-adv-x="716" />
<glyph unicode="Ú" d="M 387 706 L 494 855 L 691 855 L 552 706 L 387 706 Z M 373 -15 C 272 -15 196 9 145 59 C 93 108 74 175 86 259 L 141 658 L 391 658 L 338 276 C 335 253 339 235 349 221 C 359 207 374 201 396 201 C 418 201 436 207 450 221 C 464 235 473 253 476 276 L 529 658 L 760 658 L 705 259 C 693 175 657 108 598 59 C 538 9 463 -15 373 -15 Z" horiz-adv-x="716" />
<glyph unicode="Û" d="M 305 706 L 406 862 L 575 862 L 634 706 L 499 706 L 477 769 L 439 706 L 305 706 Z M 373 -15 C 272 -15 196 9 145 59 C 93 108 74 175 86 259 L 141 658 L 391 658 L 338 276 C 335 253 339 235 349 221 C 359 207 374 201 396 201 C 418 201 436 207 450 221 C 464 235 473 253 476 276 L 529 658 L 760 658 L 705 259 C 693 175 657 108 598 59 C 538 9 463 -15 373 -15 Z" horiz-adv-x="716" />
<glyph unicode="Ü" d="M 309 711 L 328 846 L 464 846 L 445 711 L 309 711 Z M 490 711 L 509 846 L 644 846 L 625 711 L 490 711 Z M 373 -15 C 272 -15 196 9 145 59 C 93 108 74 175 86 259 L 141 658 L 391 658 L 338 276 C 335 253 339 235 349 221 C 359 207 374 201 396 201 C 418 201 436 207 450 221 C 464 235 473 253 476 276 L 529 658 L 760 658 L 705 259 C 693 175 657 108 598 59 C 538 9 463 -15 373 -15 Z" horiz-adv-x="716" />
<glyph unicode="Ý" d="M 373 706 L 480 855 L 677 855 L 538 706 L 373 706 Z M 233 0 L 262 205 L 100 658 L 364 658 L 402 512 L 419 431 L 459 512 L 537 658 L 794 658 L 505 200 L 477 0 L 233 0 Z" horiz-adv-x="714" />
<glyph unicode="Þ" d="M 52 0 L 144 658 L 388 658 L 378 585 L 413 585 C 498 585 564 564 610 522 C 656 480 679 427 679 361 C 679 277 649 210 589 158 C 529 106 450 81 354 81 L 308 81 L 296 0 L 52 0 Z M 335 269 L 359 269 C 379 269 397 275 411 289 C 425 303 433 320 433 340 C 433 356 427 370 417 380 C 406 390 392 395 376 395 L 352 395 L 335 269 Z" horiz-adv-x="650" />
<glyph unicode="ß" d="M 34 0 L 88 384 C 104 498 145 585 211 643 C 276 701 358 730 458 730 C 539 730 602 709 648 669 C 693 629 716 570 716 493 C 716 471 713 448 709 422 C 705 396 699 371 691 347 C 673 351 655 355 637 358 C 619 361 601 363 584 363 C 566 363 553 360 545 356 C 537 351 533 346 533 340 C 533 335 534 331 538 328 C 541 325 546 323 553 322 L 587 314 C 629 304 661 287 681 261 C 701 235 711 206 711 172 C 711 116 691 71 651 37 C 611 3 554 -14 480 -14 C 447 -14 415 -12 383 -8 C 351 -4 320 2 289 10 L 310 157 C 335 145 360 135 386 129 C 412 123 439 120 467 120 C 476 120 483 121 489 125 C 494 128 497 133 497 140 C 497 144 494 148 490 152 C 485 156 477 159 466 162 L 435 169 C 396 177 367 193 348 217 C 329 241 320 269 320 302 C 320 358 337 403 373 438 C 409 473 456 491 514 491 C 520 491 528 490 537 490 C 545 489 553 488 560 486 C 560 508 552 525 536 538 C 520 550 496 557 465 557 C 417 557 379 541 351 511 C 323 481 305 438 297 383 L 244 0 L 34 0 Z" horiz-adv-x="710" />
<glyph unicode="à" d="M 314 553 L 205 720 L 421 720 L 494 553 L 314 553 Z M 214 -12 C 166 -12 126 5 96 39 C 66 73 51 121 51 185 C 51 273 84 348 151 409 C 218 469 303 500 406 500 C 439 500 474 498 511 494 C 548 490 585 484 622 478 L 580 179 C 576 152 573 122 572 90 C 570 58 570 28 570 0 L 365 0 L 365 90 C 348 56 327 30 301 13 C 275 -3 246 -12 214 -12 Z M 315 174 C 325 174 334 180 344 194 C 354 208 362 237 369 282 L 375 326 C 371 327 367 328 363 329 C 359 329 356 330 352 330 C 335 330 319 319 304 299 C 288 279 281 254 281 226 C 281 211 284 199 290 189 C 296 179 304 174 315 174 Z" horiz-adv-x="606" />
<glyph unicode="á" d="M 312 553 L 431 720 L 646 720 L 491 553 L 312 553 Z M 214 -12 C 166 -12 126 5 96 39 C 66 73 51 121 51 185 C 51 273 84 348 151 409 C 218 469 303 500 406 500 C 439 500 474 498 511 494 C 548 490 585 484 622 478 L 580 179 C 576 152 573 122 572 90 C 570 58 570 28 570 0 L 365 0 L 365 90 C 348 56 327 30 301 13 C 275 -3 246 -12 214 -12 Z M 315 174 C 325 174 334 180 344 194 C 354 208 362 237 369 282 L 375 326 C 371 327 367 328 363 329 C 359 329 356 330 352 330 C 335 330 319 319 304 299 C 288 279 281 254 281 226 C 281 211 284 199 290 189 C 296 179 304 174 315 174 Z" horiz-adv-x="606" />
<glyph unicode="â" d="M 210 553 L 324 728 L 528 728 L 596 553 L 438 553 L 413 623 L 369 553 L 210 553 Z M 214 -12 C 166 -12 126 5 96 39 C 66 73 51 121 51 185 C 51 273 84 348 151 409 C 218 469 303 500 406 500 C 439 500 474 498 511 494 C 548 490 585 484 622 478 L 580 179 C 576 152 573 122 572 90 C 570 58 570 28 570 0 L 365 0 L 365 90 C 348 56 327 30 301 13 C 275 -3 246 -12 214 -12 Z M 315 174 C 325 174 334 180 344 194 C 354 208 362 237 369 282 L 375 326 C 371 327 367 328 363 329 C 359 329 356 330 352 330 C 335 330 319 319 304 299 C 288 279 281 254 281 226 C 281 211 284 199 290 189 C 296 179 304 174 315 174 Z" horiz-adv-x="606" />
<glyph unicode="ã" d="M 321 553 L 210 553 C 217 608 233 650 259 678 C 284 706 317 721 358 721 C 376 721 392 718 406 714 C 419 709 432 701 445 690 C 451 685 456 681 460 679 C 464 677 468 676 473 676 C 480 676 486 679 491 685 C 495 691 499 701 501 714 L 612 714 C 604 659 588 617 563 589 C 537 561 505 547 465 547 C 446 547 430 549 416 554 C 402 558 389 566 377 578 C 371 582 367 586 363 588 C 359 590 354 591 350 591 C 341 591 334 588 330 582 C 325 576 322 566 321 553 Z M 214 -12 C 166 -12 126 5 96 39 C 66 73 51 121 51 185 C 51 273 84 348 151 409 C 218 469 303 500 406 500 C 439 500 474 498 511 494 C 548 490 585 484 622 478 L 580 179 C 576 152 573 122 572 90 C 570 58 570 28 570 0 L 365 0 L 365 90 C 348 56 327 30 301 13 C 275 -3 246 -12 214 -12 Z M 315 174 C 325 174 334 180 344 194 C 354 208 362 237 369 282 L 375 326 C 371 327 367 328 363 329 C 359 329 356 330 352 330 C 335 330 319 319 304 299 C 288 279 281 254 281 226 C 281 211 284 199 290 189 C 296 179 304 174 315 174 Z" horiz-adv-x="606" />
<glyph unicode="ä" d="M 230 553 L 251 703 L 401 703 L 380 553 L 230 553 Z M 427 553 L 448 703 L 598 703 L 577 553 L 427 553 Z M 214 -12 C 166 -12 126 5 96 39 C 66 73 51 121 51 185 C 51 273 84 348 151 409 C 218 469 303 500 406 500 C 439 500 474 498 511 494 C 548 490 585 484 622 478 L 580 179 C 576 152 573 122 572 90 C 570 58 570 28 570 0 L 365 0 L 365 90 C 348 56 327 30 301 13 C 275 -3 246 -12 214 -12 Z M 315 174 C 325 174 334 180 344 194 C 354 208 362 237 369 282 L 375 326 C 371 327 367 328 363 329 C 359 329 356 330 352 330 C 335 330 319 319 304 299 C 288 279 281 254 281 226 C 281 211 284 199 290 189 C 296 179 304 174 315 174 Z" horiz-adv-x="606" />
<glyph unicode="å" d="M 214 -12 C 166 -12 126 5 96 39 C 66 73 51 121 51 185 C 51 255 72 318 116 372 C 160 426 217 463 289 484 C 278 495 270 508 264 524 C 258 539 256 556 256 574 C 256 618 271 655 301 685 C 331 715 369 730 415 730 C 457 730 491 717 517 693 C 543 668 556 636 556 598 C 556 577 552 558 546 540 C 539 522 529 507 517 494 C 534 492 551 489 569 487 C 587 484 604 481 622 478 L 580 179 C 576 152 573 122 572 90 C 570 58 570 28 570 0 L 365 0 L 365 90 C 348 56 327 30 301 13 C 275 -3 246 -12 214 -12 Z M 404 541 C 418 541 429 545 439 554 C 448 562 453 574 453 588 C 453 600 448 611 440 619 C 432 627 421 631 409 631 C 395 631 383 626 374 617 C 364 608 360 597 360 584 C 360 571 364 561 372 553 C 380 545 391 541 404 541 Z M 315 174 C 325 174 334 180 344 194 C 354 208 362 237 369 282 L 375 326 C 371 327 367 328 363 329 C 359 329 356 330 352 330 C 335 330 319 319 304 299 C 288 279 281 254 281 226 C 281 211 284 199 290 189 C 296 179 304 174 315 174 Z" horiz-adv-x="606" />
<glyph unicode="æ" d="M 207 -12 C 154 -12 113 1 85 27 C 56 53 42 88 42 130 C 42 179 61 218 99 248 C 137 277 189 292 255 293 L 345 294 L 347 312 C 349 328 344 340 331 348 C 317 356 296 361 267 361 C 236 361 206 357 177 350 C 147 343 119 334 91 323 L 113 477 C 145 486 177 493 210 499 C 243 505 278 508 314 508 C 347 508 376 503 400 495 C 424 486 445 475 461 461 C 482 475 507 487 536 495 C 564 503 596 508 632 508 C 694 508 744 493 783 464 C 821 434 841 397 841 352 C 841 306 822 270 786 244 C 749 218 684 205 591 204 L 556 204 C 556 181 564 165 578 156 C 592 146 616 142 650 142 C 676 142 703 145 731 153 C 758 160 784 171 810 187 L 787 18 C 756 5 724 -4 691 -10 C 657 -16 624 -19 592 -19 C 540 -19 497 -10 463 6 C 429 22 404 45 386 74 C 365 47 339 26 308 11 C 276 -4 243 -12 207 -12 Z M 622 372 C 608 372 597 365 588 351 C 578 337 572 317 568 293 L 592 293 C 607 293 621 298 633 306 C 645 314 651 325 651 340 C 651 350 648 358 643 364 C 637 369 630 372 622 372 Z M 285 134 C 296 134 305 137 313 145 C 320 153 325 163 327 176 L 331 203 L 301 203 C 287 202 276 198 267 192 C 258 185 254 176 254 165 C 254 155 257 148 263 142 C 269 136 276 134 285 134 Z" horiz-adv-x="813" />
<glyph unicode="ç" d="M 294 -12 C 225 -12 169 9 125 51 C 81 93 59 148 59 218 C 59 301 86 369 142 422 C 197 475 269 502 357 502 C 378 502 401 499 425 495 C 449 491 471 485 493 477 L 466 287 C 451 294 436 300 420 305 C 404 309 387 312 371 312 C 346 312 327 305 313 292 C 299 279 292 261 292 239 C 292 220 297 205 309 194 C 321 183 337 178 358 178 C 374 178 391 180 408 186 C 425 192 442 200 458 210 L 431 22 C 412 11 391 3 367 -3 C 343 -9 318 -12 294 -12 Z M 231 -263 C 217 -263 204 -262 192 -260 C 179 -258 168 -255 159 -252 L 172 -157 C 180 -161 189 -165 197 -167 C 205 -169 213 -171 221 -171 C 231 -171 239 -168 245 -164 C 251 -159 254 -153 254 -145 C 254 -139 251 -134 247 -131 C 242 -127 236 -126 229 -126 L 218 -126 L 229 -48 L 246 -48 C 282 -48 312 -57 336 -75 C 359 -93 371 -117 371 -147 C 371 -181 358 -208 332 -230 C 306 -252 273 -263 231 -263 Z" horiz-adv-x="456" />
<glyph unicode="è" d="M 270 553 L 161 720 L 377 720 L 450 553 L 270 553 Z M 323 -18 C 239 -18 173 3 127 47 C 81 91 58 147 58 216 C 58 298 85 367 139 423 C 193 479 269 508 367 508 C 429 508 479 493 518 464 C 556 434 576 397 576 353 C 576 307 557 269 521 240 C 484 210 419 194 326 192 L 292 191 C 294 174 303 162 317 154 C 331 146 354 142 385 142 C 411 142 439 146 467 154 C 495 162 521 175 547 191 L 522 18 C 491 6 459 -3 425 -9 C 391 -15 357 -18 323 -18 Z M 356 372 C 342 372 330 365 322 351 C 313 337 306 318 302 293 L 327 294 C 342 294 355 299 367 307 C 379 315 385 326 385 341 C 385 351 382 358 377 364 C 371 369 364 372 356 372 Z" horiz-adv-x="548" />
<glyph unicode="é" d="M 268 553 L 387 720 L 602 720 L 447 553 L 268 553 Z M 323 -18 C 239 -18 173 3 127 47 C 81 91 58 147 58 216 C 58 298 85 367 139 423 C 193 479 269 508 367 508 C 429 508 479 493 518 464 C 556 434 576 397 576 353 C 576 307 557 269 521 240 C 484 210 419 194 326 192 L 292 191 C 294 174 303 162 317 154 C 331 146 354 142 385 142 C 411 142 439 146 467 154 C 495 162 521 175 547 191 L 522 18 C 491 6 459 -3 425 -9 C 391 -15 357 -18 323 -18 Z M 356 372 C 342 372 330 365 322 351 C 313 337 306 318 302 293 L 327 294 C 342 294 355 299 367 307 C 379 315 385 326 385 341 C 385 351 382 358 377 364 C 371 369 364 372 356 372 Z" horiz-adv-x="548" />
<glyph unicode="ê" d="M 166 553 L 280 728 L 484 728 L 552 553 L 394 553 L 369 623 L 325 553 L 166 553 Z M 323 -18 C 239 -18 173 3 127 47 C 81 91 58 147 58 216 C 58 298 85 367 139 423 C 193 479 269 508 367 508 C 429 508 479 493 518 464 C 556 434 576 397 576 353 C 576 307 557 269 521 240 C 484 210 419 194 326 192 L 292 191 C 294 174 303 162 317 154 C 331 146 354 142 385 142 C 411 142 439 146 467 154 C 495 162 521 175 547 191 L 522 18 C 491 6 459 -3 425 -9 C 391 -15 357 -18 323 -18 Z M 356 372 C 342 372 330 365 322 351 C 313 337 306 318 302 293 L 327 294 C 342 294 355 299 367 307 C 379 315 385 326 385 341 C 385 351 382 358 377 364 C 371 369 364 372 356 372 Z" horiz-adv-x="548" />
<glyph unicode="ë" d="M 186 553 L 207 703 L 357 703 L 336 553 L 186 553 Z M 383 553 L 404 703 L 554 703 L 533 553 L 383 553 Z M 323 -18 C 239 -18 173 3 127 47 C 81 91 58 147 58 216 C 58 298 85 367 139 423 C 193 479 269 508 367 508 C 429 508 479 493 518 464 C 556 434 576 397 576 353 C 576 307 557 269 521 240 C 484 210 419 194 326 192 L 292 191 C 294 174 303 162 317 154 C 331 146 354 142 385 142 C 411 142 439 146 467 154 C 495 162 521 175 547 191 L 522 18 C 491 6 459 -3 425 -9 C 391 -15 357 -18 323 -18 Z M 356 372 C 342 372 330 365 322 351 C 313 337 306 318 302 293 L 327 294 C 342 294 355 299 367 307 C 379 315 385 326 385 341 C 385 351 382 358 377 364 C 371 369 364 372 356 372 Z" horiz-adv-x="548" />
<glyph unicode="ì" d="M 142 541 L 33 708 L 249 708 L 322 541 L 142 541 Z M 46 0 C 46 18 47 39 49 63 C 51 87 54 109 57 130 L 107 490 L 334 490 L 284 130 C 280 106 278 84 276 63 C 274 42 273 21 273 0 L 46 0 Z" horiz-adv-x="311" />
<glyph unicode="í" d="M 140 541 L 259 708 L 474 708 L 319 541 L 140 541 Z M 46 0 C 46 18 47 39 49 63 C 51 87 54 109 57 130 L 107 490 L 334 490 L 284 130 C 280 106 278 84 276 63 C 274 42 273 21 273 0 L 46 0 Z" horiz-adv-x="311" />
<glyph unicode="î" d="M 38 541 L 152 716 L 356 716 L 424 541 L 266 541 L 241 611 L 197 541 L 38 541 Z M 46 0 C 46 18 47 39 49 63 C 51 87 54 109 57 130 L 107 490 L 334 490 L 284 130 C 280 106 278 84 276 63 C 274 42 273 21 273 0 L 46 0 Z" horiz-adv-x="311" />
<glyph unicode="ï" d="M 58 541 L 79 691 L 229 691 L 208 541 L 58 541 Z M 255 541 L 276 691 L 426 691 L 405 541 L 255 541 Z M 46 0 C 46 18 47 39 49 63 C 51 87 54 109 57 130 L 107 490 L 334 490 L 284 130 C 280 106 278 84 276 63 C 274 42 273 21 273 0 L 46 0 Z" horiz-adv-x="311" />
<glyph unicode="ð" d="M 312 -20 C 234 -20 172 0 126 41 C 80 82 58 138 58 208 C 58 291 81 357 129 406 C 176 455 236 480 310 480 C 330 480 348 478 366 474 C 383 470 399 465 413 457 C 408 470 402 483 396 496 C 389 508 381 521 373 533 L 265 500 L 241 600 L 294 616 C 282 625 269 634 255 643 C 241 651 227 660 213 668 L 411 749 C 426 739 441 729 456 717 C 470 705 484 692 497 679 L 599 711 L 622 610 L 564 592 C 584 557 601 519 613 479 C 625 438 631 396 631 352 C 631 237 601 146 542 80 C 483 13 406 -20 312 -20 Z M 332 166 C 348 166 362 175 372 193 C 382 211 387 236 387 266 C 387 282 383 294 376 304 C 369 313 359 318 347 318 C 331 318 318 308 308 289 C 297 270 292 247 292 219 C 292 202 295 189 303 180 C 310 170 320 166 332 166 Z" horiz-adv-x="611" />
<glyph unicode="ñ" d="M 287 545 L 176 545 C 183 600 199 642 225 670 C 250 698 283 713 324 713 C 342 713 358 710 372 706 C 385 701 398 693 411 682 C 417 677 422 673 426 671 C 430 669 434 668 439 668 C 446 668 452 671 457 677 C 461 683 465 693 467 706 L 578 706 C 570 651 554 609 529 581 C 503 553 471 539 431 539 C 412 539 396 541 382 546 C 368 550 355 558 343 570 C 337 574 333 578 329 580 C 325 582 320 583 316 583 C 307 583 300 580 296 574 C 291 568 288 558 287 545 Z M 49 0 L 100 359 C 102 378 104 399 105 423 C 106 447 107 469 107 490 L 334 490 L 334 415 C 352 444 374 466 401 481 C 428 496 456 504 485 504 C 533 504 569 488 593 457 C 617 426 625 384 617 332 L 583 130 C 579 108 576 85 574 62 C 572 39 571 18 571 0 L 343 0 C 343 19 344 40 346 62 C 348 84 351 107 355 130 L 383 284 C 385 295 383 303 379 308 C 375 312 370 315 364 315 C 352 315 340 308 330 295 C 320 282 313 260 309 230 L 276 0 L 49 0 Z" horiz-adv-x="605" />
<glyph unicode="ò" d="M 282 553 L 173 720 L 389 720 L 462 553 L 282 553 Z M 300 -20 C 225 -20 166 0 122 42 C 78 83 57 139 57 209 C 57 298 86 370 145 426 C 203 482 276 510 362 510 C 436 510 495 489 539 448 C 582 406 604 351 604 281 C 604 191 574 119 516 63 C 457 7 385 -20 300 -20 Z M 321 163 C 337 163 350 173 362 193 C 374 213 380 239 380 272 C 380 288 376 302 369 312 C 362 322 353 327 341 327 C 324 327 310 317 299 297 C 287 277 282 251 282 219 C 282 201 285 188 292 178 C 298 168 308 163 321 163 Z" horiz-adv-x="592" />
<glyph unicode="ó" d="M 280 553 L 399 720 L 614 720 L 459 553 L 280 553 Z M 300 -20 C 225 -20 166 0 122 42 C 78 83 57 139 57 209 C 57 298 86 370 145 426 C 203 482 276 510 362 510 C 436 510 495 489 539 448 C 582 406 604 351 604 281 C 604 191 574 119 516 63 C 457 7 385 -20 300 -20 Z M 321 163 C 337 163 350 173 362 193 C 374 213 380 239 380 272 C 380 288 376 302 369 312 C 362 322 353 327 341 327 C 324 327 310 317 299 297 C 287 277 282 251 282 219 C 282 201 285 188 292 178 C 298 168 308 163 321 163 Z" horiz-adv-x="592" />
<glyph unicode="ô" d="M 178 553 L 292 728 L 496 728 L 564 553 L 406 553 L 381 623 L 337 553 L 178 553 Z M 300 -20 C 225 -20 166 0 122 42 C 78 83 57 139 57 209 C 57 298 86 370 145 426 C 203 482 276 510 362 510 C 436 510 495 489 539 448 C 582 406 604 351 604 281 C 604 191 574 119 516 63 C 457 7 385 -20 300 -20 Z M 321 163 C 337 163 350 173 362 193 C 374 213 380 239 380 272 C 380 288 376 302 369 312 C 362 322 353 327 341 327 C 324 327 310 317 299 297 C 287 277 282 251 282 219 C 282 201 285 188 292 178 C 298 168 308 163 321 163 Z" horiz-adv-x="592" />
<glyph unicode="õ" d="M 289 553 L 178 553 C 185 608 201 650 227 678 C 252 706 285 721 326 721 C 344 721 360 718 374 714 C 387 709 400 701 413 690 C 419 685 424 681 428 679 C 432 677 436 676 441 676 C 448 676 454 679 459 685 C 463 691 467 701 469 714 L 580 714 C 572 659 556 617 531 589 C 505 561 473 547 433 547 C 414 547 398 549 384 554 C 370 558 357 566 345 578 C 339 582 335 586 331 588 C 327 590 322 591 318 591 C 309 591 302 588 298 582 C 293 576 290 566 289 553 Z M 300 -20 C 225 -20 166 0 122 42 C 78 83 57 139 57 209 C 57 298 86 370 145 426 C 203 482 276 510 362 510 C 436 510 495 489 539 448 C 582 406 604 351 604 281 C 604 191 574 119 516 63 C 457 7 385 -20 300 -20 Z M 321 163 C 337 163 350 173 362 193 C 374 213 380 239 380 272 C 380 288 376 302 369 312 C 362 322 353 327 341 327 C 324 327 310 317 299 297 C 287 277 282 251 282 219 C 282 201 285 188 292 178 C 298 168 308 163 321 163 Z" horiz-adv-x="592" />
<glyph unicode="ö" d="M 198 553 L 219 703 L 369 703 L 348 553 L 198 553 Z M 395 553 L 416 703 L 566 703 L 545 553 L 395 553 Z M 300 -20 C 225 -20 166 0 122 42 C 78 83 57 139 57 209 C 57 298 86 370 145 426 C 203 482 276 510 362 510 C 436 510 495 489 539 448 C 582 406 604 351 604 281 C 604 191 574 119 516 63 C 457 7 385 -20 300 -20 Z M 321 163 C 337 163 350 173 362 193 C 374 213 380 239 380 272 C 380 288 376 302 369 312 C 362 322 353 327 341 327 C 324 327 310 317 299 297 C 287 277 282 251 282 219 C 282 201 285 188 292 178 C 298 168 308 163 321 163 Z" horiz-adv-x="592" />
<glyph unicode="÷" d="M 249 425 L 271 581 L 427 581 L 405 425 L 249 425 Z M 77 192 L 104 380 L 536 380 L 509 192 L 77 192 Z M 188 -9 L 210 147 L 366 147 L 344 -9 L 188 -9 Z" horiz-adv-x="533" />
<glyph unicode="ø" d="M 73 -48 L 127 37 C 104 57 87 81 75 111 C 63 140 57 173 57 209 C 57 298 86 370 145 426 C 203 482 276 510 362 510 C 373 510 384 509 395 508 C 406 507 417 506 427 504 L 449 538 L 592 538 L 536 451 C 558 431 574 407 586 378 C 598 349 604 317 604 281 C 604 191 574 119 516 63 C 457 7 385 -20 300 -20 C 289 -20 278 -19 268 -18 C 257 -17 247 -16 237 -14 L 216 -48 L 73 -48 Z M 321 163 C 337 163 350 173 362 193 C 374 213 380 239 380 272 C 380 288 376 302 369 312 C 362 322 353 327 341 327 C 324 327 310 317 299 297 C 287 277 282 251 282 219 C 282 201 285 188 292 178 C 298 168 308 163 321 163 Z" horiz-adv-x="592" />
<glyph unicode="ù" d="M 287 541 L 178 708 L 394 708 L 467 541 L 287 541 Z M 194 -14 C 146 -14 109 1 84 32 C 59 63 51 105 60 158 L 94 360 C 97 382 100 405 102 428 C 104 450 106 471 106 490 L 334 490 C 334 470 333 450 331 428 C 329 406 326 383 322 360 L 294 206 C 292 194 293 186 298 182 C 302 177 308 175 314 175 C 325 175 336 181 346 195 C 356 208 363 230 368 261 L 401 490 L 628 490 L 577 131 C 574 112 572 91 571 67 C 570 43 570 20 570 0 L 343 0 L 343 75 C 323 44 301 21 276 7 C 251 -6 224 -14 194 -14 Z" horiz-adv-x="607" />
<glyph unicode="ú" d="M 285 541 L 404 708 L 619 708 L 464 541 L 285 541 Z M 194 -14 C 146 -14 109 1 84 32 C 59 63 51 105 60 158 L 94 360 C 97 382 100 405 102 428 C 104 450 106 471 106 490 L 334 490 C 334 470 333 450 331 428 C 329 406 326 383 322 360 L 294 206 C 292 194 293 186 298 182 C 302 177 308 175 314 175 C 325 175 336 181 346 195 C 356 208 363 230 368 261 L 401 490 L 628 490 L 577 131 C 574 112 572 91 571 67 C 570 43 570 20 570 0 L 343 0 L 343 75 C 323 44 301 21 276 7 C 251 -6 224 -14 194 -14 Z" horiz-adv-x="607" />
<glyph unicode="û" d="M 183 541 L 297 716 L 501 716 L 569 541 L 411 541 L 386 611 L 342 541 L 183 541 Z M 194 -14 C 146 -14 109 1 84 32 C 59 63 51 105 60 158 L 94 360 C 97 382 100 405 102 428 C 104 450 106 471 106 490 L 334 490 C 334 470 333 450 331 428 C 329 406 326 383 322 360 L 294 206 C 292 194 293 186 298 182 C 302 177 308 175 314 175 C 325 175 336 181 346 195 C 356 208 363 230 368 261 L 401 490 L 628 490 L 577 131 C 574 112 572 91 571 67 C 570 43 570 20 570 0 L 343 0 L 343 75 C 323 44 301 21 276 7 C 251 -6 224 -14 194 -14 Z" horiz-adv-x="607" />
<glyph unicode="ü" d="M 203 541 L 224 691 L 374 691 L 353 541 L 203 541 Z M 400 541 L 421 691 L 571 691 L 550 541 L 400 541 Z M 194 -14 C 146 -14 109 1 84 32 C 59 63 51 105 60 158 L 94 360 C 97 382 100 405 102 428 C 104 450 106 471 106 490 L 334 490 C 334 470 333 450 331 428 C 329 406 326 383 322 360 L 294 206 C 292 194 293 186 298 182 C 302 177 308 175 314 175 C 325 175 336 181 346 195 C 356 208 363 230 368 261 L 401 490 L 628 490 L 577 131 C 574 112 572 91 571 67 C 570 43 570 20 570 0 L 343 0 L 343 75 C 323 44 301 21 276 7 C 251 -6 224 -14 194 -14 Z" horiz-adv-x="607" />
<glyph unicode="ý" d="M 287 541 L 406 708 L 621 708 L 466 541 L 287 541 Z M 441 -7 C 388 -77 324 -130 250 -166 C 175 -202 91 -220 -1 -220 L -18 -220 L 8 -42 L 24 -42 C 58 -42 91 -37 121 -28 C 151 -19 178 -6 203 10 L 130 23 L 79 490 L 315 490 L 326 320 L 332 139 C 352 188 369 241 383 298 C 397 354 410 418 422 490 L 628 490 C 610 384 585 290 554 208 C 523 125 485 53 441 -7 Z" horiz-adv-x="581" />
<glyph unicode="þ" d="M 11 -199 L 139 716 L 356 716 L 327 519 C 324 503 320 485 315 467 C 310 449 305 430 300 411 C 314 439 336 462 364 478 C 392 494 423 502 455 502 C 501 502 538 485 566 452 C 594 419 608 373 608 313 C 608 225 580 149 525 85 C 470 21 404 -11 326 -11 C 315 -11 305 -10 295 -9 C 285 -8 275 -7 265 -6 L 238 -199 L 11 -199 Z M 322 147 C 338 147 353 156 366 176 C 379 195 386 223 386 259 C 386 275 383 288 377 298 C 371 308 364 314 355 314 C 342 314 330 305 318 289 C 306 272 298 243 292 201 L 286 152 C 289 150 294 149 301 148 C 308 147 315 147 322 147 Z" horiz-adv-x="592" />
<glyph unicode="ÿ" d="M 205 541 L 226 691 L 376 691 L 355 541 L 205 541 Z M 402 541 L 423 691 L 573 691 L 552 541 L 402 541 Z M 441 -7 C 388 -77 324 -130 250 -166 C 175 -202 91 -220 -1 -220 L -18 -220 L 8 -42 L 24 -42 C 58 -42 91 -37 121 -28 C 151 -19 178 -6 203 10 L 130 23 L 79 490 L 315 490 L 326 320 L 332 139 C 352 188 369 241 383 298 C 397 354 410 418 422 490 L 628 490 C 610 384 585 290 554 208 C 523 125 485 53 441 -7 Z" horiz-adv-x="581" />
<glyph unicode="Ā" d="M 339 706 L 355 821 L 622 821 L 606 706 L 339 706 Z M 12 0 L 324 658 L 607 658 L 734 0 L 489 0 L 474 93 L 281 93 L 241 0 L 12 0 Z M 344 239 L 452 239 L 443 296 L 426 428 L 370 296 L 344 239 Z" horiz-adv-x="746" />
<glyph unicode="ā" d="M 272 557 L 290 685 L 552 685 L 534 557 L 272 557 Z M 214 -12 C 166 -12 126 5 96 39 C 66 73 51 121 51 185 C 51 273 84 348 151 409 C 218 469 303 500 406 500 C 439 500 474 498 511 494 C 548 490 585 484 622 478 L 580 179 C 576 152 573 122 572 90 C 570 58 570 28 570 0 L 365 0 L 365 90 C 348 56 327 30 301 13 C 275 -3 246 -12 214 -12 Z M 315 174 C 325 174 334 180 344 194 C 354 208 362 237 369 282 L 375 326 C 371 327 367 328 363 329 C 359 329 356 330 352 330 C 335 330 319 319 304 299 C 288 279 281 254 281 226 C 281 211 284 199 290 189 C 296 179 304 174 315 174 Z" horiz-adv-x="606" />
<glyph unicode="Ă" d="M 473 706 C 428 706 394 719 371 747 C 347 775 339 812 346 858 L 456 858 C 454 845 455 835 461 827 C 466 819 474 816 485 816 C 495 816 504 819 512 827 C 519 835 524 845 526 858 L 635 858 C 628 812 610 775 581 747 C 551 719 515 706 473 706 Z M 12 0 L 324 658 L 607 658 L 734 0 L 489 0 L 474 93 L 281 93 L 241 0 L 12 0 Z M 344 239 L 452 239 L 443 296 L 426 428 L 370 296 L 344 239 Z" horiz-adv-x="746" />
<glyph unicode="ă" d="M 404 548 C 354 548 316 563 290 594 C 264 624 255 665 263 717 L 385 717 C 383 702 384 690 390 682 C 396 674 405 670 417 670 C 428 670 438 674 446 682 C 454 690 460 702 462 717 L 583 717 C 576 665 556 624 524 594 C 491 563 451 548 404 548 Z M 214 -12 C 166 -12 126 5 96 39 C 66 73 51 121 51 185 C 51 273 84 348 151 409 C 218 469 303 500 406 500 C 439 500 474 498 511 494 C 548 490 585 484 622 478 L 580 179 C 576 152 573 122 572 90 C 570 58 570 28 570 0 L 365 0 L 365 90 C 348 56 327 30 301 13 C 275 -3 246 -12 214 -12 Z M 315 174 C 325 174 334 180 344 194 C 354 208 362 237 369 282 L 375 326 C 371 327 367 328 363 329 C 359 329 356 330 352 330 C 335 330 319 319 304 299 C 288 279 281 254 281 226 C 281 211 284 199 290 189 C 296 179 304 174 315 174 Z" horiz-adv-x="606" />
<glyph unicode="Ą" d="M 12 0 L 324 658 L 607 658 L 734 0 L 657 0 C 636 0 620 -5 608 -15 C 596 -25 590 -38 590 -55 C 590 -67 594 -78 604 -86 C 613 -94 626 -99 643 -99 L 626 -220 C 570 -220 525 -208 492 -185 C 459 -161 443 -130 443 -92 C 443 -74 446 -57 454 -41 C 462 -25 473 -10 488 4 L 474 93 L 281 93 L 241 0 L 12 0 Z M 344 239 L 452 239 L 443 296 L 426 428 L 370 296 L 344 239 Z" horiz-adv-x="746" />
<glyph unicode="ą" d="M 214 -12 C 166 -12 126 5 96 39 C 66 73 51 121 51 185 C 51 273 84 348 151 409 C 218 469 303 500 406 500 C 439 500 474 498 511 494 C 548 490 585 484 622 478 L 580 179 C 576 152 573 122 572 90 C 570 58 570 28 570 0 L 537 0 C 516 0 500 -5 488 -15 C 476 -25 470 -38 470 -55 C 470 -67 474 -78 484 -86 C 493 -94 506 -99 523 -99 L 506 -220 C 450 -220 405 -208 372 -185 C 339 -161 323 -130 323 -92 C 323 -75 326 -59 334 -43 C 341 -27 351 -12 365 1 L 365 90 C 348 56 327 30 301 13 C 275 -3 246 -12 214 -12 Z M 315 174 C 325 174 334 180 344 194 C 354 208 362 237 369 282 L 375 326 C 371 327 367 328 363 329 C 359 329 356 330 352 330 C 335 330 319 319 304 299 C 288 279 281 254 281 226 C 281 211 284 199 290 189 C 296 179 304 174 315 174 Z" horiz-adv-x="606" />
<glyph unicode="Ć" d="M 404 718 L 511 867 L 708 867 L 569 718 L 404 718 Z M 419 -14 C 315 -14 232 12 170 64 C 108 116 77 192 77 290 C 77 407 117 500 197 569 C 277 637 378 672 499 672 C 533 672 565 669 595 664 C 625 658 653 650 681 639 L 651 424 C 625 437 600 447 576 453 C 551 459 525 463 499 463 C 450 463 411 448 381 419 C 351 390 336 354 336 310 C 336 274 347 246 370 226 C 393 206 425 196 465 196 C 492 196 519 199 547 206 C 575 212 602 223 630 237 L 600 21 C 572 9 542 0 512 -5 C 482 -11 451 -14 419 -14 Z" horiz-adv-x="635" />
<glyph unicode="ć" d="M 251 547 L 370 714 L 585 714 L 430 547 L 251 547 Z M 294 -12 C 225 -12 169 9 125 51 C 81 93 59 148 59 218 C 59 301 86 369 142 422 C 197 475 269 502 357 502 C 378 502 401 499 425 495 C 449 491 471 485 493 477 L 466 287 C 451 294 436 300 420 305 C 404 309 387 312 371 312 C 346 312 327 305 313 292 C 299 279 292 261 292 239 C 292 220 297 205 309 194 C 321 183 337 178 358 178 C 374 178 391 180 408 186 C 425 192 442 200 458 210 L 431 22 C 412 11 391 3 367 -3 C 343 -9 318 -12 294 -12 Z" horiz-adv-x="456" />
<glyph unicode="Ĉ" d="M 322 718 L 423 874 L 592 874 L 651 718 L 516 718 L 494 781 L 456 718 L 322 718 Z M 419 -14 C 315 -14 232 12 170 64 C 108 116 77 192 77 290 C 77 407 117 500 197 569 C 277 637 378 672 499 672 C 533 672 565 669 595 664 C 625 658 653 650 681 639 L 651 424 C 625 437 600 447 576 453 C 551 459 525 463 499 463 C 450 463 411 448 381 419 C 351 390 336 354 336 310 C 336 274 347 246 370 226 C 393 206 425 196 465 196 C 492 196 519 199 547 206 C 575 212 602 223 630 237 L 600 21 C 572 9 542 0 512 -5 C 482 -11 451 -14 419 -14 Z" horiz-adv-x="635" />
<glyph unicode="ĉ" d="M 149 547 L 263 722 L 467 722 L 535 547 L 377 547 L 352 617 L 308 547 L 149 547 Z M 294 -12 C 225 -12 169 9 125 51 C 81 93 59 148 59 218 C 59 301 86 369 142 422 C 197 475 269 502 357 502 C 378 502 401 499 425 495 C 449 491 471 485 493 477 L 466 287 C 451 294 436 300 420 305 C 404 309 387 312 371 312 C 346 312 327 305 313 292 C 299 279 292 261 292 239 C 292 220 297 205 309 194 C 321 183 337 178 358 178 C 374 178 391 180 408 186 C 425 192 442 200 458 210 L 431 22 C 412 11 391 3 367 -3 C 343 -9 318 -12 294 -12 Z" horiz-adv-x="456" />
<glyph unicode="Ċ" d="M 418 718 L 438 855 L 575 855 L 555 718 L 418 718 Z M 419 -14 C 315 -14 232 12 170 64 C 108 116 77 192 77 290 C 77 407 117 500 197 569 C 277 637 378 672 499 672 C 533 672 565 669 595 664 C 625 658 653 650 681 639 L 651 424 C 625 437 600 447 576 453 C 551 459 525 463 499 463 C 450 463 411 448 381 419 C 351 390 336 354 336 310 C 336 274 347 246 370 226 C 393 206 425 196 465 196 C 492 196 519 199 547 206 C 575 212 602 223 630 237 L 600 21 C 572 9 542 0 512 -5 C 482 -11 451 -14 419 -14 Z" horiz-adv-x="635" />
<glyph unicode="ċ" d="M 265 547 L 287 699 L 439 699 L 417 547 L 265 547 Z M 294 -12 C 225 -12 169 9 125 51 C 81 93 59 148 59 218 C 59 301 86 369 142 422 C 197 475 269 502 357 502 C 378 502 401 499 425 495 C 449 491 471 485 493 477 L 466 287 C 451 294 436 300 420 305 C 404 309 387 312 371 312 C 346 312 327 305 313 292 C 299 279 292 261 292 239 C 292 220 297 205 309 194 C 321 183 337 178 358 178 C 374 178 391 180 408 186 C 425 192 442 200 458 210 L 431 22 C 412 11 391 3 367 -3 C 343 -9 318 -12 294 -12 Z" horiz-adv-x="456" />
<glyph unicode="Č" d="M 395 718 L 334 875 L 476 875 L 498 812 L 538 875 L 680 875 L 578 718 L 395 718 Z M 419 -14 C 315 -14 232 12 170 64 C 108 116 77 192 77 290 C 77 407 117 500 197 569 C 277 637 378 672 499 672 C 533 672 565 669 595 664 C 625 658 653 650 681 639 L 651 424 C 625 437 600 447 576 453 C 551 459 525 463 499 463 C 450 463 411 448 381 419 C 351 390 336 354 336 310 C 336 274 347 246 370 226 C 393 206 425 196 465 196 C 492 196 519 199 547 206 C 575 212 602 223 630 237 L 600 21 C 572 9 542 0 512 -5 C 482 -11 451 -14 419 -14 Z" horiz-adv-x="635" />
<glyph unicode="č" d="M 237 547 L 169 721 L 328 721 L 352 651 L 397 721 L 555 721 L 441 547 L 237 547 Z M 294 -12 C 225 -12 169 9 125 51 C 81 93 59 148 59 218 C 59 301 86 369 142 422 C 197 475 269 502 357 502 C 378 502 401 499 425 495 C 449 491 471 485 493 477 L 466 287 C 451 294 436 300 420 305 C 404 309 387 312 371 312 C 346 312 327 305 313 292 C 299 279 292 261 292 239 C 292 220 297 205 309 194 C 321 183 337 178 358 178 C 374 178 391 180 408 186 C 425 192 442 200 458 210 L 431 22 C 412 11 391 3 367 -3 C 343 -9 318 -12 294 -12 Z" horiz-adv-x="456" />
<glyph unicode="Ď" d="M 314 706 L 253 863 L 395 863 L 417 800 L 457 863 L 599 863 L 497 706 L 314 706 Z M 52 0 L 144 658 L 417 658 C 519 658 600 631 660 579 C 719 526 749 457 749 373 C 749 261 710 170 632 102 C 554 34 452 0 327 0 L 52 0 Z M 325 203 L 351 203 C 393 203 427 217 453 247 C 478 277 491 313 491 356 C 491 386 482 411 464 429 C 446 447 420 456 387 456 L 361 456 L 325 203 Z" horiz-adv-x="732" />
<glyph unicode="ď" d="M 216 -12 C 168 -12 129 4 99 38 C 69 71 54 119 54 181 C 54 275 83 352 142 411 C 201 470 275 500 364 500 C 369 500 374 499 380 499 C 385 499 390 498 395 498 L 425 716 L 658 716 L 582 179 C 578 152 576 122 574 90 C 572 58 572 28 572 0 L 367 0 L 367 90 C 350 55 329 29 303 13 C 277 -3 248 -12 216 -12 Z M 787 488 L 667 525 C 682 549 694 572 702 594 C 710 616 716 640 720 668 L 727 716 L 879 716 L 872 668 C 867 630 858 597 845 569 C 831 540 812 513 787 488 Z M 312 177 C 324 177 336 185 346 201 C 356 217 364 247 370 289 L 377 335 C 373 336 368 337 363 338 C 358 339 353 340 349 340 C 332 340 316 329 302 308 C 287 287 280 260 280 227 C 280 212 282 200 288 191 C 293 181 301 177 312 177 Z" horiz-adv-x="828" />
<glyph unicode="Đ" d="M 66 0 L 103 268 L 64 268 L 82 396 L 121 396 L 158 658 L 431 658 C 533 658 614 631 674 579 C 733 526 763 457 763 373 C 763 261 724 170 646 102 C 568 34 466 0 341 0 L 66 0 Z M 339 203 L 365 203 C 407 203 441 217 467 247 C 492 277 505 313 505 356 C 505 386 496 411 478 429 C 460 447 434 456 401 456 L 375 456 L 366 396 L 415 396 L 397 268 L 348 268 L 339 203 Z" horiz-adv-x="748" />
<glyph unicode="đ" d="M 216 -12 C 168 -12 129 4 99 38 C 69 71 54 119 54 181 C 54 275 83 352 142 411 C 201 470 275 500 364 500 C 369 500 374 499 380 499 C 385 499 390 498 395 498 L 401 538 L 354 538 L 371 658 L 417 658 L 425 716 L 658 716 L 650 658 L 689 658 L 672 538 L 633 538 L 582 179 C 578 152 576 122 574 90 C 572 58 572 28 572 0 L 367 0 L 367 90 C 350 55 329 29 303 13 C 277 -3 248 -12 216 -12 Z M 312 177 C 324 177 336 185 346 201 C 356 217 364 247 370 289 L 377 335 C 373 336 368 337 363 338 C 358 339 353 340 349 340 C 332 340 316 329 302 308 C 287 287 280 260 280 227 C 280 212 282 200 288 191 C 293 181 301 177 312 177 Z" horiz-adv-x="610" />
<glyph unicode="Ē" d="M 248 706 L 264 821 L 531 821 L 515 706 L 248 706 Z M 52 0 L 145 658 L 604 658 L 577 466 L 363 466 L 354 405 L 561 405 L 540 255 L 333 255 L 324 192 L 546 192 L 519 0 L 52 0 Z" horiz-adv-x="561" />
<glyph unicode="ē" d="M 228 557 L 246 685 L 508 685 L 490 557 L 228 557 Z M 323 -18 C 239 -18 173 3 127 47 C 81 91 58 147 58 216 C 58 298 85 367 139 423 C 193 479 269 508 367 508 C 429 508 479 493 518 464 C 556 434 576 397 576 353 C 576 307 557 269 521 240 C 484 210 419 194 326 192 L 292 191 C 294 174 303 162 317 154 C 331 146 354 142 385 142 C 411 142 439 146 467 154 C 495 162 521 175 547 191 L 522 18 C 491 6 459 -3 425 -9 C 391 -15 357 -18 323 -18 Z M 356 372 C 342 372 330 365 322 351 C 313 337 306 318 302 293 L 327 294 C 342 294 355 299 367 307 C 379 315 385 326 385 341 C 385 351 382 358 377 364 C 371 369 364 372 356 372 Z" horiz-adv-x="548" />
<glyph unicode="Ĕ" d="M 382 706 C 337 706 303 719 280 747 C 256 775 248 812 255 858 L 365 858 C 363 845 364 835 370 827 C 375 819 383 816 394 816 C 404 816 413 819 421 827 C 428 835 433 845 435 858 L 544 858 C 537 812 519 775 490 747 C 460 719 424 706 382 706 Z M 52 0 L 145 658 L 604 658 L 577 466 L 363 466 L 354 405 L 561 405 L 540 255 L 333 255 L 324 192 L 546 192 L 519 0 L 52 0 Z" horiz-adv-x="561" />
<glyph unicode="ĕ" d="M 360 548 C 310 548 272 563 246 594 C 220 624 211 665 219 717 L 341 717 C 339 702 340 690 346 682 C 352 674 361 670 373 670 C 384 670 394 674 402 682 C 410 690 416 702 418 717 L 539 717 C 532 665 512 624 480 594 C 447 563 407 548 360 548 Z M 323 -18 C 239 -18 173 3 127 47 C 81 91 58 147 58 216 C 58 298 85 367 139 423 C 193 479 269 508 367 508 C 429 508 479 493 518 464 C 556 434 576 397 576 353 C 576 307 557 269 521 240 C 484 210 419 194 326 192 L 292 191 C 294 174 303 162 317 154 C 331 146 354 142 385 142 C 411 142 439 146 467 154 C 495 162 521 175 547 191 L 522 18 C 491 6 459 -3 425 -9 C 391 -15 357 -18 323 -18 Z M 356 372 C 342 372 330 365 322 351 C 313 337 306 318 302 293 L 327 294 C 342 294 355 299 367 307 C 379 315 385 326 385 341 C 385 351 382 358 377 364 C 371 369 364 372 356 372 Z" horiz-adv-x="548" />
<glyph unicode="Ė" d="M 312 706 L 332 843 L 469 843 L 449 706 L 312 706 Z M 52 0 L 145 658 L 604 658 L 577 466 L 363 466 L 354 405 L 561 405 L 540 255 L 333 255 L 324 192 L 546 192 L 519 0 L 52 0 Z" horiz-adv-x="561" />
<glyph unicode="ė" d="M 282 553 L 304 705 L 456 705 L 434 553 L 282 553 Z M 323 -18 C 239 -18 173 3 127 47 C 81 91 58 147 58 216 C 58 298 85 367 139 423 C 193 479 269 508 367 508 C 429 508 479 493 518 464 C 556 434 576 397 576 353 C 576 307 557 269 521 240 C 484 210 419 194 326 192 L 292 191 C 294 174 303 162 317 154 C 331 146 354 142 385 142 C 411 142 439 146 467 154 C 495 162 521 175 547 191 L 522 18 C 491 6 459 -3 425 -9 C 391 -15 357 -18 323 -18 Z M 356 372 C 342 372 330 365 322 351 C 313 337 306 318 302 293 L 327 294 C 342 294 355 299 367 307 C 379 315 385 326 385 341 C 385 351 382 358 377 364 C 371 369 364 372 356 372 Z" horiz-adv-x="548" />
<glyph unicode="Ę" d="M 52 0 L 145 658 L 604 658 L 577 466 L 363 466 L 354 405 L 561 405 L 540 255 L 333 255 L 324 192 L 546 192 L 519 0 L 517 0 C 496 0 480 -5 468 -15 C 456 -25 450 -38 450 -55 C 450 -67 454 -78 464 -86 C 473 -94 486 -99 503 -99 L 486 -220 C 430 -220 385 -208 352 -185 C 319 -161 303 -130 303 -92 C 303 -75 306 -59 314 -43 C 321 -27 331 -13 344 0 L 52 0 Z" horiz-adv-x="561" />
<glyph unicode="ę" d="M 484 -220 C 426 -220 381 -208 348 -184 C 314 -160 298 -127 298 -86 C 298 -74 299 -63 303 -51 C 307 -39 312 -28 319 -18 C 235 -17 171 4 126 48 C 80 92 58 148 58 216 C 58 298 85 367 139 423 C 193 479 269 508 367 508 C 429 508 479 493 518 464 C 556 434 576 397 576 353 C 576 307 557 269 521 240 C 484 210 419 194 326 192 L 292 191 C 294 174 303 162 317 154 C 331 146 354 142 385 142 C 411 142 439 146 467 154 C 495 162 521 175 547 191 L 522 18 C 517 16 512 15 507 13 C 501 11 496 10 492 8 C 477 2 465 -5 457 -15 C 449 -25 445 -37 445 -52 C 445 -66 450 -76 461 -84 C 471 -92 485 -96 502 -96 L 484 -220 Z M 356 372 C 342 372 330 365 322 351 C 313 337 306 318 302 293 L 327 294 C 342 294 355 299 367 307 C 379 315 385 326 385 341 C 385 351 382 358 377 364 C 371 369 364 372 356 372 Z" horiz-adv-x="548" />
<glyph unicode="Ě" d="M 289 706 L 228 863 L 370 863 L 392 800 L 432 863 L 574 863 L 472 706 L 289 706 Z M 52 0 L 145 658 L 604 658 L 577 466 L 363 466 L 354 405 L 561 405 L 540 255 L 333 255 L 324 192 L 546 192 L 519 0 L 52 0 Z" horiz-adv-x="561" />
<glyph unicode="ě" d="M 254 553 L 186 727 L 345 727 L 369 657 L 414 727 L 572 727 L 458 553 L 254 553 Z M 323 -18 C 239 -18 173 3 127 47 C 81 91 58 147 58 216 C 58 298 85 367 139 423 C 193 479 269 508 367 508 C 429 508 479 493 518 464 C 556 434 576 397 576 353 C 576 307 557 269 521 240 C 484 210 419 194 326 192 L 292 191 C 294 174 303 162 317 154 C 331 146 354 142 385 142 C 411 142 439 146 467 154 C 495 162 521 175 547 191 L 522 18 C 491 6 459 -3 425 -9 C 391 -15 357 -18 323 -18 Z M 356 372 C 342 372 330 365 322 351 C 313 337 306 318 302 293 L 327 294 C 342 294 355 299 367 307 C 379 315 385 326 385 341 C 385 351 382 358 377 364 C 371 369 364 372 356 372 Z" horiz-adv-x="548" />
<glyph unicode="Ĝ" d="M 337 718 L 438 874 L 607 874 L 666 718 L 531 718 L 509 781 L 471 718 L 337 718 Z M 428 -14 C 313 -14 226 11 166 62 C 106 112 76 184 76 276 C 76 398 115 495 193 566 C 271 636 373 672 497 673 C 541 673 583 670 624 664 C 665 658 703 649 739 639 L 711 438 C 676 450 642 460 608 466 C 574 472 543 475 515 475 C 457 475 412 457 381 423 C 350 388 335 344 335 292 C 335 257 343 230 360 210 C 377 190 400 181 429 181 C 437 181 446 181 454 182 C 462 183 470 185 478 188 L 486 249 L 417 249 L 439 401 L 750 401 L 700 43 C 652 24 604 10 558 0 C 512 -9 468 -14 428 -14 Z" horiz-adv-x="734" />
<glyph unicode="ĝ" d="M 203 549 L 317 724 L 521 724 L 589 549 L 431 549 L 406 619 L 362 549 L 203 549 Z M 243 -220 C 211 -220 177 -217 139 -212 C 101 -207 65 -200 29 -190 L 54 -11 C 77 -26 103 -37 131 -45 C 159 -53 185 -57 211 -57 C 241 -57 268 -50 292 -37 C 315 -24 328 -5 332 19 L 336 45 C 317 25 299 10 281 2 C 263 -5 241 -10 217 -10 C 169 -10 129 7 99 41 C 69 75 54 123 54 187 C 54 278 84 353 146 412 C 208 470 294 500 404 500 C 438 500 473 498 510 494 C 546 490 585 484 625 478 L 559 4 C 548 -74 514 -131 457 -167 C 399 -202 328 -220 243 -220 Z M 316 164 C 328 164 339 172 349 189 C 359 205 367 235 374 277 L 380 324 C 376 325 371 326 367 327 C 362 328 357 329 353 329 C 336 329 320 318 305 297 C 290 275 283 248 283 214 C 283 199 285 187 291 178 C 297 168 305 164 316 164 Z" horiz-adv-x="596" />
<glyph unicode="Ğ" d="M 503 718 C 458 718 424 731 401 759 C 377 787 369 824 376 870 L 486 870 C 484 857 485 847 491 839 C 496 831 504 828 515 828 C 525 828 534 831 542 839 C 549 847 554 857 556 870 L 665 870 C 658 824 640 787 611 759 C 581 731 545 718 503 718 Z M 428 -14 C 313 -14 226 11 166 62 C 106 112 76 184 76 276 C 76 398 115 495 193 566 C 271 636 373 672 497 673 C 541 673 583 670 624 664 C 665 658 703 649 739 639 L 711 438 C 676 450 642 460 608 466 C 574 472 543 475 515 475 C 457 475 412 457 381 423 C 350 388 335 344 335 292 C 335 257 343 230 360 210 C 377 190 400 181 429 181 C 437 181 446 181 454 182 C 462 183 470 185 478 188 L 486 249 L 417 249 L 439 401 L 750 401 L 700 43 C 652 24 604 10 558 0 C 512 -9 468 -14 428 -14 Z" horiz-adv-x="734" />
<glyph unicode="ğ" d="M 397 544 C 347 544 309 559 283 590 C 257 620 248 661 256 713 L 378 713 C 376 698 377 686 383 678 C 389 670 398 666 410 666 C 421 666 431 670 439 678 C 447 686 453 698 455 713 L 576 713 C 569 661 549 620 517 590 C 484 559 444 544 397 544 Z M 243 -220 C 211 -220 177 -217 139 -212 C 101 -207 65 -200 29 -190 L 54 -11 C 77 -26 103 -37 131 -45 C 159 -53 185 -57 211 -57 C 241 -57 268 -50 292 -37 C 315 -24 328 -5 332 19 L 336 45 C 317 25 299 10 281 2 C 263 -5 241 -10 217 -10 C 169 -10 129 7 99 41 C 69 75 54 123 54 187 C 54 278 84 353 146 412 C 208 470 294 500 404 500 C 438 500 473 498 510 494 C 546 490 585 484 625 478 L 559 4 C 548 -74 514 -131 457 -167 C 399 -202 328 -220 243 -220 Z M 316 164 C 328 164 339 172 349 189 C 359 205 367 235 374 277 L 380 324 C 376 325 371 326 367 327 C 362 328 357 329 353 329 C 336 329 320 318 305 297 C 290 275 283 248 283 214 C 283 199 285 187 291 178 C 297 168 305 164 316 164 Z" horiz-adv-x="596" />
<glyph unicode="Ġ" d="M 433 718 L 453 855 L 590 855 L 570 718 L 433 718 Z M 428 -14 C 313 -14 226 11 166 62 C 106 112 76 184 76 276 C 76 398 115 495 193 566 C 271 636 373 672 497 673 C 541 673 583 670 624 664 C 665 658 703 649 739 639 L 711 438 C 676 450 642 460 608 466 C 574 472 543 475 515 475 C 457 475 412 457 381 423 C 350 388 335 344 335 292 C 335 257 343 230 360 210 C 377 190 400 181 429 181 C 437 181 446 181 454 182 C 462 183 470 185 478 188 L 486 249 L 417 249 L 439 401 L 750 401 L 700 43 C 652 24 604 10 558 0 C 512 -9 468 -14 428 -14 Z" horiz-adv-x="734" />
<glyph unicode="ġ" d="M 319 549 L 341 701 L 493 701 L 471 549 L 319 549 Z M 243 -220 C 211 -220 177 -217 139 -212 C 101 -207 65 -200 29 -190 L 54 -11 C 77 -26 103 -37 131 -45 C 159 -53 185 -57 211 -57 C 241 -57 268 -50 292 -37 C 315 -24 328 -5 332 19 L 336 45 C 317 25 299 10 281 2 C 263 -5 241 -10 217 -10 C 169 -10 129 7 99 41 C 69 75 54 123 54 187 C 54 278 84 353 146 412 C 208 470 294 500 404 500 C 438 500 473 498 510 494 C 546 490 585 484 625 478 L 559 4 C 548 -74 514 -131 457 -167 C 399 -202 328 -220 243 -220 Z M 316 164 C 328 164 339 172 349 189 C 359 205 367 235 374 277 L 380 324 C 376 325 371 326 367 327 C 362 328 357 329 353 329 C 336 329 320 318 305 297 C 290 275 283 248 283 214 C 283 199 285 187 291 178 C 297 168 305 164 316 164 Z" horiz-adv-x="596" />
<glyph unicode="Ģ" d="M 428 -14 C 313 -14 226 11 166 62 C 106 112 76 184 76 276 C 76 398 115 495 193 566 C 271 636 373 672 497 673 C 541 673 583 670 624 664 C 665 658 703 649 739 639 L 711 438 C 676 450 642 460 608 466 C 574 472 543 475 515 475 C 457 475 412 457 381 423 C 350 388 335 344 335 292 C 335 257 343 230 360 210 C 377 190 400 181 429 181 C 437 181 446 181 454 182 C 462 183 470 185 478 188 L 486 249 L 417 249 L 439 401 L 750 401 L 700 43 C 652 24 604 10 558 0 C 512 -9 468 -14 428 -14 Z M 406 -264 L 303 -229 C 316 -207 326 -186 334 -166 C 341 -146 346 -123 350 -99 L 356 -56 L 493 -56 L 487 -99 C 483 -133 474 -162 462 -187 C 450 -211 431 -237 406 -264 Z" horiz-adv-x="734" />
<glyph unicode="ģ" d="M 420 779 L 531 745 C 516 721 505 697 497 675 C 489 653 483 628 479 601 L 472 553 L 320 553 L 326 601 C 331 638 341 670 355 698 C 369 726 391 753 420 779 Z M 243 -220 C 211 -220 177 -217 139 -212 C 101 -207 65 -200 29 -190 L 54 -11 C 77 -26 103 -37 131 -45 C 159 -53 185 -57 211 -57 C 241 -57 268 -50 292 -37 C 315 -24 328 -5 332 19 L 336 45 C 317 25 299 10 281 2 C 263 -5 241 -10 217 -10 C 169 -10 129 7 99 41 C 69 75 54 123 54 187 C 54 278 84 353 146 412 C 208 470 294 500 404 500 C 438 500 473 498 510 494 C 546 490 585 484 625 478 L 559 4 C 548 -74 514 -131 457 -167 C 399 -202 328 -220 243 -220 Z M 316 164 C 328 164 339 172 349 189 C 359 205 367 235 374 277 L 380 324 C 376 325 371 326 367 327 C 362 328 357 329 353 329 C 336 329 320 318 305 297 C 290 275 283 248 283 214 C 283 199 285 187 291 178 C 297 168 305 164 316 164 Z" horiz-adv-x="596" />
<glyph unicode="Ĥ" d="M 300 706 L 401 862 L 570 862 L 629 706 L 494 706 L 472 769 L 434 706 L 300 706 Z M 52 0 L 144 658 L 388 658 L 356 427 L 494 427 L 526 658 L 770 658 L 678 0 L 434 0 L 466 224 L 328 224 L 296 0 L 52 0 Z" horiz-adv-x="730" />
<glyph unicode="ĥ" d="M 70 753 L 184 928 L 388 928 L 456 753 L 298 753 L 273 823 L 229 753 L 70 753 Z M 38 0 L 139 716 L 366 716 L 335 494 C 333 484 332 471 330 457 C 328 442 326 428 324 415 C 340 443 362 465 389 481 C 416 496 444 504 474 504 C 522 504 558 488 582 457 C 606 426 614 384 606 332 L 572 130 C 568 108 565 85 563 62 C 561 39 560 18 560 0 L 332 0 C 332 19 333 40 335 62 C 337 84 340 107 344 130 L 372 284 C 374 295 372 303 368 308 C 364 312 359 315 353 315 C 341 315 329 308 319 295 C 309 282 302 260 298 230 L 265 0 L 38 0 Z" horiz-adv-x="594" />
<glyph unicode="Ħ" d="M 57 0 L 123 473 L 79 473 L 96 600 L 141 600 L 149 658 L 405 658 L 397 600 L 523 600 L 531 658 L 787 658 L 779 600 L 823 600 L 805 473 L 761 473 L 695 0 L 439 0 L 467 202 L 341 202 L 313 0 L 57 0 Z M 372 424 L 498 424 L 505 473 L 379 473 L 372 424 Z" horiz-adv-x="751" />
<glyph unicode="ħ" d="M 38 0 L 114 538 L 78 538 L 95 658 L 131 658 L 139 716 L 366 716 L 358 658 L 399 658 L 382 538 L 341 538 L 335 494 C 333 484 332 471 330 457 C 328 442 326 428 324 415 C 340 443 362 465 389 481 C 416 496 444 504 474 504 C 522 504 558 488 582 457 C 606 426 614 384 606 332 L 572 130 C 568 108 565 85 563 62 C 561 39 560 18 560 0 L 332 0 C 332 19 333 40 335 62 C 337 84 340 107 344 130 L 372 284 C 374 295 372 303 368 308 C 364 312 359 315 353 315 C 341 315 329 308 319 295 C 309 282 302 260 298 230 L 265 0 L 38 0 Z" horiz-adv-x="594" />
<glyph unicode="Ĩ" d="M 204 706 L 104 706 C 110 755 125 792 148 818 C 170 844 200 857 237 857 C 253 857 268 854 280 850 C 292 846 304 839 316 830 C 320 825 324 822 328 820 C 332 818 336 817 341 817 C 347 817 353 819 357 825 C 361 830 364 839 366 851 L 466 851 C 459 801 444 764 422 738 C 399 712 369 700 333 700 C 316 700 302 702 290 706 C 278 710 266 718 255 728 C 249 732 245 735 241 737 C 237 739 234 740 230 740 C 222 740 217 737 213 732 C 209 726 206 718 204 706 Z M 52 0 L 144 658 L 388 658 L 296 0 L 52 0 Z" horiz-adv-x="348" />
<glyph unicode="ĩ" d="M 149 541 L 38 541 C 45 596 61 638 87 666 C 112 694 145 709 186 709 C 204 709 220 706 234 702 C 247 697 260 689 273 678 C 279 673 284 669 288 667 C 292 665 296 664 301 664 C 308 664 314 667 319 673 C 323 679 327 689 329 702 L 440 702 C 432 647 416 605 391 577 C 365 549 333 535 293 535 C 274 535 258 537 244 542 C 230 546 217 554 205 566 C 199 570 195 574 191 576 C 187 578 182 579 178 579 C 169 579 162 576 158 570 C 153 564 150 554 149 541 Z M 46 0 C 46 18 47 39 49 63 C 51 87 54 109 57 130 L 107 490 L 334 490 L 284 130 C 280 106 278 84 276 63 C 274 42 273 21 273 0 L 46 0 Z" horiz-adv-x="311" />
<glyph unicode="Ī" d="M 144 706 L 160 821 L 427 821 L 411 706 L 144 706 Z M 52 0 L 144 658 L 388 658 L 296 0 L 52 0 Z" horiz-adv-x="348" />
<glyph unicode="ī" d="M 100 545 L 118 673 L 380 673 L 362 545 L 100 545 Z M 46 0 C 46 18 47 39 49 63 C 51 87 54 109 57 130 L 107 490 L 334 490 L 284 130 C 280 106 278 84 276 63 C 274 42 273 21 273 0 L 46 0 Z" horiz-adv-x="311" />
<glyph unicode="Ĭ" d="M 278 706 C 233 706 199 719 176 747 C 152 775 144 812 151 858 L 261 858 C 259 845 260 835 266 827 C 271 819 279 816 290 816 C 300 816 309 819 317 827 C 324 835 329 845 331 858 L 440 858 C 433 812 415 775 386 747 C 356 719 320 706 278 706 Z M 52 0 L 144 658 L 388 658 L 296 0 L 52 0 Z" horiz-adv-x="348" />
<glyph unicode="ĭ" d="M 232 536 C 182 536 144 551 118 582 C 92 612 83 653 91 705 L 213 705 C 211 690 212 678 218 670 C 224 662 233 658 245 658 C 256 658 266 662 274 670 C 282 678 288 690 290 705 L 411 705 C 404 653 384 612 352 582 C 319 551 279 536 232 536 Z M 46 0 C 46 18 47 39 49 63 C 51 87 54 109 57 130 L 107 490 L 334 490 L 284 130 C 280 106 278 84 276 63 C 274 42 273 21 273 0 L 46 0 Z" horiz-adv-x="311" />
<glyph unicode="Į" d="M 191 -220 C 135 -220 90 -208 57 -185 C 24 -161 8 -130 8 -92 C 8 -74 11 -58 19 -42 C 27 -26 38 -11 52 3 L 144 658 L 388 658 L 296 0 L 222 0 C 201 0 185 -5 173 -15 C 161 -25 155 -38 155 -55 C 155 -67 159 -78 169 -86 C 178 -94 191 -99 208 -99 L 191 -220 Z" horiz-adv-x="348" />
<glyph unicode="į" d="M 115 546 L 139 716 L 366 716 L 342 546 L 115 546 Z M 186 -220 C 130 -220 85 -208 52 -185 C 19 -161 3 -130 3 -92 C 3 -74 6 -58 14 -42 C 21 -26 32 -12 46 2 C 46 20 47 40 49 64 C 51 87 54 109 57 130 L 107 490 L 334 490 L 284 130 C 280 106 278 84 276 63 C 274 42 273 21 273 0 L 217 0 C 196 0 180 -5 168 -15 C 156 -25 150 -38 150 -55 C 150 -67 154 -78 164 -86 C 173 -94 186 -99 203 -99 L 186 -220 Z" horiz-adv-x="311" />
<glyph unicode="İ" d="M 208 706 L 228 843 L 365 843 L 345 706 L 208 706 Z M 52 0 L 144 658 L 388 658 L 296 0 L 52 0 Z" horiz-adv-x="348" />
<glyph unicode="ı" d="M 46 0 C 46 18 47 39 49 63 C 51 87 54 109 57 130 L 107 490 L 334 490 L 284 130 C 280 106 278 84 276 63 C 274 42 273 21 273 0 L 46 0 Z" horiz-adv-x="311" />
<glyph unicode="Ĵ" d="M 116 706 L 217 862 L 386 862 L 445 706 L 310 706 L 288 769 L 250 706 L 116 706 Z M -18 -220 L -55 -220 L -30 -42 L -18 -42 C 4 -42 21 -36 35 -24 C 49 -12 57 6 61 34 L 149 658 L 393 658 L 306 38 C 294 -47 260 -111 205 -155 C 149 -198 75 -220 -18 -220 Z" horiz-adv-x="353" />
<glyph unicode="ĵ" d="M 34 541 L 148 716 L 352 716 L 420 541 L 262 541 L 237 611 L 193 541 L 34 541 Z M -51 -220 L -69 -220 L -45 -47 L -33 -47 C -15 -47 0 -41 14 -29 C 27 -17 35 1 39 27 L 104 490 L 331 490 L 266 27 C 255 -50 223 -110 169 -154 C 115 -198 41 -220 -51 -220 Z" horiz-adv-x="300" />
<glyph unicode="Ķ" d="M 52 0 L 145 658 L 389 658 L 349 372 L 544 658 L 813 658 L 573 330 L 714 0 L 447 0 L 337 289 L 296 0 L 52 0 Z M 343 -256 L 240 -221 C 253 -199 263 -178 271 -158 C 278 -138 283 -115 287 -91 L 293 -48 L 430 -48 L 424 -91 C 420 -125 411 -154 399 -179 C 387 -203 368 -229 343 -256 Z" horiz-adv-x="737" />
<glyph unicode="ķ" d="M 38 0 L 139 716 L 366 716 L 306 292 C 330 320 352 352 374 386 C 395 420 414 455 430 490 L 661 490 C 642 445 619 401 591 357 C 563 313 535 276 508 246 L 599 0 L 351 0 L 289 178 L 265 0 L 38 0 Z M 282 -262 L 172 -224 C 186 -202 198 -181 206 -161 C 214 -141 219 -118 223 -94 L 229 -48 L 374 -48 L 368 -93 C 363 -127 354 -157 341 -183 C 328 -209 308 -235 282 -262 Z" horiz-adv-x="610" />
<glyph unicode="Ĺ" d="M 194 706 L 301 855 L 498 855 L 359 706 L 194 706 Z M 52 0 L 144 658 L 388 658 L 325 204 L 520 204 L 492 0 L 52 0 Z" horiz-adv-x="514" />
<glyph unicode="ĺ" d="M 136 767 L 255 934 L 470 934 L 315 767 L 136 767 Z M 51 0 C 50 20 50 42 51 67 C 52 91 54 112 57 130 L 139 716 L 366 716 L 284 130 C 281 112 279 91 278 67 C 277 43 277 20 278 0 L 51 0 Z" horiz-adv-x="316" />
<glyph unicode="Ļ" d="M 52 0 L 144 658 L 388 658 L 325 204 L 520 204 L 492 0 L 52 0 Z M 253 -256 L 150 -221 C 163 -199 173 -178 181 -158 C 188 -138 193 -115 197 -91 L 203 -48 L 340 -48 L 334 -91 C 330 -125 321 -154 309 -179 C 297 -203 278 -229 253 -256 Z" horiz-adv-x="514" />
<glyph unicode="ļ" d="M 51 0 C 50 20 50 42 51 67 C 52 91 54 112 57 130 L 139 716 L 366 716 L 284 130 C 281 112 279 91 278 67 C 277 43 277 20 278 0 L 51 0 Z M 136 -261 L 26 -223 C 40 -201 52 -180 60 -160 C 68 -140 73 -117 77 -93 L 83 -47 L 228 -47 L 222 -92 C 217 -126 208 -156 195 -182 C 182 -208 162 -234 136 -261 Z" horiz-adv-x="316" />
<glyph unicode="Ľ" d="M 52 0 L 144 658 L 388 658 L 325 204 L 520 204 L 492 0 L 52 0 Z M 525 433 L 413 467 C 428 491 440 514 448 536 C 456 558 462 582 466 610 L 473 658 L 625 658 L 618 610 C 612 572 602 540 588 512 C 573 484 552 458 525 433 Z" horiz-adv-x="514" />
<glyph unicode="ľ" d="M 51 0 C 50 20 50 42 51 67 C 52 91 54 112 57 130 L 139 716 L 366 716 L 284 130 C 281 112 279 91 278 67 C 277 43 277 20 278 0 L 51 0 Z M 500 488 L 380 525 C 395 549 407 572 415 594 C 423 616 429 640 433 668 L 440 716 L 592 716 L 585 668 C 580 630 571 597 558 569 C 544 540 525 513 500 488 Z" horiz-adv-x="541" />
<glyph unicode="Ŀ" d="M 52 0 L 144 658 L 388 658 L 325 204 L 520 204 L 492 0 L 52 0 Z M 405 298 L 426 450 L 579 450 L 557 298 L 405 298 Z" horiz-adv-x="514" />
<glyph unicode="ŀ" d="M 51 0 C 50 20 50 42 51 67 C 52 91 54 112 57 130 L 139 716 L 366 716 L 284 130 C 281 112 279 91 278 67 C 277 43 277 20 278 0 L 51 0 Z M 357 281 L 378 433 L 531 433 L 509 281 L 357 281 Z" horiz-adv-x="484" />
<glyph unicode="Ł" d="M 67 0 L 106 277 L 58 267 L 82 440 L 130 450 L 159 658 L 403 658 L 382 504 L 440 517 L 416 344 L 358 331 L 340 204 L 535 204 L 507 0 L 67 0 Z" horiz-adv-x="529" />
<glyph unicode="ł" d="M 51 0 C 50 20 50 42 51 67 C 52 91 54 112 57 130 L 76 264 L 27 254 L 51 426 L 100 436 L 139 716 L 366 716 L 333 483 L 386 494 L 362 322 L 309 311 L 284 130 C 281 112 279 91 278 67 C 277 43 277 20 278 0 L 51 0 Z" horiz-adv-x="316" />
<glyph unicode="Ń" d="M 406 706 L 513 855 L 710 855 L 571 706 L 406 706 Z M 52 0 L 144 658 L 418 658 L 517 417 L 557 309 L 567 417 L 601 658 L 811 658 L 719 0 L 448 0 L 347 242 L 307 354 L 296 242 L 262 0 L 52 0 Z" horiz-adv-x="771" />
<glyph unicode="ń" d="M 278 545 L 397 712 L 612 712 L 457 545 L 278 545 Z M 49 0 L 100 359 C 102 378 104 399 105 423 C 106 447 107 469 107 490 L 334 490 L 334 415 C 352 444 374 466 401 481 C 428 496 456 504 485 504 C 533 504 569 488 593 457 C 617 426 625 384 617 332 L 583 130 C 579 108 576 85 574 62 C 572 39 571 18 571 0 L 343 0 C 343 19 344 40 346 62 C 348 84 351 107 355 130 L 383 284 C 385 295 383 303 379 308 C 375 312 370 315 364 315 C 352 315 340 308 330 295 C 320 282 313 260 309 230 L 276 0 L 49 0 Z" horiz-adv-x="605" />
<glyph unicode="Ņ" d="M 52 0 L 144 658 L 418 658 L 517 417 L 557 309 L 567 417 L 601 658 L 811 658 L 719 0 L 448 0 L 347 242 L 307 354 L 296 242 L 262 0 L 52 0 Z M 366 -264 L 263 -229 C 276 -207 286 -186 294 -166 C 301 -146 306 -123 310 -99 L 316 -56 L 453 -56 L 447 -99 C 443 -133 434 -162 422 -187 C 410 -211 391 -237 366 -264 Z" horiz-adv-x="771" />
<glyph unicode="ņ" d="M 49 0 L 100 359 C 102 378 104 399 105 423 C 106 447 107 469 107 490 L 334 490 L 334 415 C 352 444 374 466 401 481 C 428 496 456 504 485 504 C 533 504 569 488 593 457 C 617 426 625 384 617 332 L 583 130 C 579 108 576 85 574 62 C 572 39 571 18 571 0 L 343 0 C 343 19 344 40 346 62 C 348 84 351 107 355 130 L 383 284 C 385 295 383 303 379 308 C 375 312 370 315 364 315 C 352 315 340 308 330 295 C 320 282 313 260 309 230 L 276 0 L 49 0 Z M 284 -262 L 174 -224 C 188 -202 200 -181 208 -161 C 216 -141 221 -118 225 -94 L 231 -48 L 376 -48 L 370 -93 C 365 -127 356 -157 343 -183 C 330 -209 310 -235 284 -262 Z" horiz-adv-x="605" />
<glyph unicode="Ň" d="M 397 706 L 336 863 L 478 863 L 500 800 L 540 863 L 682 863 L 580 706 L 397 706 Z M 52 0 L 144 658 L 418 658 L 517 417 L 557 309 L 567 417 L 601 658 L 811 658 L 719 0 L 448 0 L 347 242 L 307 354 L 296 242 L 262 0 L 52 0 Z" horiz-adv-x="771" />
<glyph unicode="ň" d="M 264 545 L 196 719 L 355 719 L 379 649 L 424 719 L 582 719 L 468 545 L 264 545 Z M 49 0 L 100 359 C 102 378 104 399 105 423 C 106 447 107 469 107 490 L 334 490 L 334 415 C 352 444 374 466 401 481 C 428 496 456 504 485 504 C 533 504 569 488 593 457 C 617 426 625 384 617 332 L 583 130 C 579 108 576 85 574 62 C 572 39 571 18 571 0 L 343 0 C 343 19 344 40 346 62 C 348 84 351 107 355 130 L 383 284 C 385 295 383 303 379 308 C 375 312 370 315 364 315 C 352 315 340 308 330 295 C 320 282 313 260 309 230 L 276 0 L 49 0 Z" horiz-adv-x="605" />
<glyph unicode="Ŋ" d="M 52 0 L 144 658 L 418 658 L 517 417 L 557 309 L 567 417 L 601 658 L 811 658 L 719 0 C 708 -73 678 -128 630 -165 C 582 -201 518 -220 438 -220 L 413 -220 L 435 -63 L 453 -63 C 475 -63 491 -57 503 -47 C 515 -37 522 -24 524 -8 L 525 0 L 448 0 L 347 242 L 307 354 L 296 242 L 262 0 L 52 0 Z" horiz-adv-x="771" />
<glyph unicode="ŋ" d="M 274 -210 L 235 -210 L 259 -43 L 267 -43 C 287 -43 303 -37 317 -27 C 331 -16 339 1 343 26 L 381 284 C 382 295 381 303 377 308 C 373 312 368 315 362 315 C 350 315 340 308 330 295 C 320 282 313 260 309 230 L 276 0 L 49 0 L 99 359 C 101 378 103 399 105 422 C 106 444 107 467 107 490 L 333 490 L 333 415 C 350 443 372 465 399 481 C 426 496 454 504 484 504 C 531 504 566 488 590 457 C 614 426 622 384 615 332 L 570 20 C 559 -56 528 -114 478 -152 C 428 -190 360 -210 274 -210 Z" horiz-adv-x="603" />
<glyph unicode="Ō" d="M 344 719 L 360 834 L 627 834 L 611 719 L 344 719 Z M 405 -17 C 304 -17 224 9 165 63 C 106 116 77 191 77 289 C 77 403 115 496 191 568 C 267 640 361 676 472 676 C 572 676 652 649 711 596 C 769 542 799 467 800 370 C 800 260 763 168 689 94 C 614 20 519 -17 405 -17 Z M 423 189 C 457 189 486 205 509 238 C 531 271 543 312 543 362 C 543 395 535 421 519 441 C 503 460 482 470 455 470 C 420 470 391 453 368 420 C 345 387 334 346 334 298 C 334 264 341 238 357 218 C 373 198 395 189 423 189 Z" horiz-adv-x="785" />
<glyph unicode="ō" d="M 240 557 L 258 685 L 520 685 L 502 557 L 240 557 Z M 300 -20 C 225 -20 166 0 122 42 C 78 83 57 139 57 209 C 57 298 86 370 145 426 C 203 482 276 510 362 510 C 436 510 495 489 539 448 C 582 406 604 351 604 281 C 604 191 574 119 516 63 C 457 7 385 -20 300 -20 Z M 321 163 C 337 163 350 173 362 193 C 374 213 380 239 380 272 C 380 288 376 302 369 312 C 362 322 353 327 341 327 C 324 327 310 317 299 297 C 287 277 282 251 282 219 C 282 201 285 188 292 178 C 298 168 308 163 321 163 Z" horiz-adv-x="592" />
<glyph unicode="Ŏ" d="M 478 719 C 433 719 399 732 376 760 C 352 788 344 825 351 871 L 461 871 C 459 858 460 848 466 840 C 471 832 479 829 490 829 C 500 829 509 832 517 840 C 524 848 529 858 531 871 L 640 871 C 633 825 615 788 586 760 C 556 732 520 719 478 719 Z M 405 -17 C 304 -17 224 9 165 63 C 106 116 77 191 77 289 C 77 403 115 496 191 568 C 267 640 361 676 472 676 C 572 676 652 649 711 596 C 769 542 799 467 800 370 C 800 260 763 168 689 94 C 614 20 519 -17 405 -17 Z M 423 189 C 457 189 486 205 509 238 C 531 271 543 312 543 362 C 543 395 535 421 519 441 C 503 460 482 470 455 470 C 420 470 391 453 368 420 C 345 387 334 346 334 298 C 334 264 341 238 357 218 C 373 198 395 189 423 189 Z" horiz-adv-x="785" />
<glyph unicode="ŏ" d="M 372 548 C 322 548 284 563 258 594 C 232 624 223 665 231 717 L 353 717 C 351 702 352 690 358 682 C 364 674 373 670 385 670 C 396 670 406 674 414 682 C 422 690 428 702 430 717 L 551 717 C 544 665 524 624 492 594 C 459 563 419 548 372 548 Z M 300 -20 C 225 -20 166 0 122 42 C 78 83 57 139 57 209 C 57 298 86 370 145 426 C 203 482 276 510 362 510 C 436 510 495 489 539 448 C 582 406 604 351 604 281 C 604 191 574 119 516 63 C 457 7 385 -20 300 -20 Z M 321 163 C 337 163 350 173 362 193 C 374 213 380 239 380 272 C 380 288 376 302 369 312 C 362 322 353 327 341 327 C 324 327 310 317 299 297 C 287 277 282 251 282 219 C 282 201 285 188 292 178 C 298 168 308 163 321 163 Z" horiz-adv-x="592" />
<glyph unicode="Ő" d="M 314 719 L 414 868 L 558 868 L 451 719 L 314 719 Z M 496 719 L 602 868 L 746 868 L 633 719 L 496 719 Z M 405 -17 C 304 -17 224 9 165 63 C 106 116 77 191 77 289 C 77 403 115 496 191 568 C 267 640 361 676 472 676 C 572 676 652 649 711 596 C 769 542 799 467 800 370 C 800 260 763 168 689 94 C 614 20 519 -17 405 -17 Z M 423 189 C 457 189 486 205 509 238 C 531 271 543 312 543 362 C 543 395 535 421 519 441 C 503 460 482 470 455 470 C 420 470 391 453 368 420 C 345 387 334 346 334 298 C 334 264 341 238 357 218 C 373 198 395 189 423 189 Z" horiz-adv-x="785" />
<glyph unicode="ő" d="M 192 557 L 304 724 L 464 724 L 345 557 L 192 557 Z M 395 557 L 513 724 L 673 724 L 547 557 L 395 557 Z M 300 -20 C 225 -20 166 0 122 42 C 78 83 57 139 57 209 C 57 298 86 370 145 426 C 203 482 276 510 362 510 C 436 510 495 489 539 448 C 582 406 604 351 604 281 C 604 191 574 119 516 63 C 457 7 385 -20 300 -20 Z M 321 163 C 337 163 350 173 362 193 C 374 213 380 239 380 272 C 380 288 376 302 369 312 C 362 322 353 327 341 327 C 324 327 310 317 299 297 C 287 277 282 251 282 219 C 282 201 285 188 292 178 C 298 168 308 163 321 163 Z" horiz-adv-x="592" />
<glyph unicode="Œ" d="M 418 0 C 309 0 225 25 166 76 C 107 126 78 197 78 289 C 78 403 116 493 193 559 C 270 625 375 658 508 658 L 975 658 L 948 464 L 739 464 L 731 407 L 929 407 L 907 251 L 709 251 L 701 194 L 919 194 L 892 0 L 418 0 Z M 434 204 L 458 204 L 494 459 L 470 459 C 430 459 397 444 373 416 C 348 388 336 351 336 305 C 336 273 344 248 362 230 C 379 212 403 204 434 204 Z" horiz-adv-x="934" />
<glyph unicode="œ" d="M 303 -20 C 227 -20 167 0 123 40 C 79 80 57 136 57 210 C 57 299 85 371 143 427 C 200 482 270 510 352 510 C 383 510 411 505 436 496 C 461 487 483 475 501 460 C 522 474 546 486 574 495 C 601 503 632 508 666 508 C 728 508 778 493 817 464 C 855 434 875 397 875 353 C 875 307 856 269 820 240 C 783 210 718 194 625 192 L 591 191 C 593 174 602 162 616 154 C 630 146 653 142 684 142 C 710 142 738 146 766 154 C 794 162 820 175 846 191 L 821 18 C 790 6 758 -3 724 -9 C 690 -15 657 -18 625 -18 C 590 -18 559 -13 532 -4 C 505 5 482 18 464 34 C 442 17 417 4 390 -5 C 363 -15 334 -20 303 -20 Z M 655 372 C 641 372 629 365 621 351 C 612 337 605 318 601 293 L 626 294 C 641 294 654 299 666 307 C 678 315 684 326 684 341 C 684 351 681 358 676 364 C 670 369 663 372 655 372 Z M 316 163 C 332 163 346 173 357 194 C 367 214 373 241 373 275 C 373 291 369 304 363 313 C 356 322 347 327 335 327 C 318 327 304 316 294 296 C 283 275 278 248 278 215 C 278 198 281 185 288 176 C 294 167 304 163 316 163 Z" horiz-adv-x="847" />
<glyph unicode="Ŕ" d="M 321 706 L 428 855 L 625 855 L 486 706 L 321 706 Z M 52 0 L 144 658 L 484 658 C 550 658 600 643 636 613 C 671 583 689 541 689 487 C 689 445 676 409 650 379 C 624 349 588 327 542 315 C 572 304 596 289 614 269 C 632 249 643 225 648 197 L 678 0 L 429 0 L 404 187 C 401 205 395 219 386 227 C 376 235 363 239 347 239 L 330 239 L 296 0 L 52 0 Z M 350 383 L 377 383 C 397 383 414 389 427 401 C 440 413 447 429 447 450 C 447 464 442 476 433 485 C 424 493 411 498 394 498 L 367 498 L 350 383 Z" horiz-adv-x="694" />
<glyph unicode="ŕ" d="M 217 541 L 336 708 L 551 708 L 396 541 L 217 541 Z M 47 0 L 98 363 C 100 383 102 405 104 427 C 106 449 107 470 107 490 L 332 490 L 332 409 C 350 445 369 470 389 483 C 409 495 430 502 454 502 C 464 502 473 501 483 499 C 492 497 501 495 510 492 L 478 271 C 465 277 452 283 440 287 C 427 291 415 293 404 293 C 382 293 360 284 339 268 C 318 251 305 220 299 176 L 274 0 L 47 0 Z" horiz-adv-x="453" />
<glyph unicode="Ŗ" d="M 52 0 L 144 658 L 484 658 C 550 658 600 643 636 613 C 671 583 689 541 689 487 C 689 445 676 409 650 379 C 624 349 588 327 542 315 C 572 304 596 289 614 269 C 632 249 643 225 648 197 L 678 0 L 429 0 L 404 187 C 401 205 395 219 386 227 C 376 235 363 239 347 239 L 330 239 L 296 0 L 52 0 Z M 350 383 L 377 383 C 397 383 414 389 427 401 C 440 413 447 429 447 450 C 447 464 442 476 433 485 C 424 493 411 498 394 498 L 367 498 L 350 383 Z M 338 -256 L 235 -221 C 248 -199 258 -178 266 -158 C 273 -138 278 -115 282 -91 L 288 -48 L 425 -48 L 419 -91 C 415 -125 406 -154 394 -179 C 382 -203 363 -229 338 -256 Z" horiz-adv-x="694" />
<glyph unicode="ŗ" d="M 47 0 L 98 363 C 100 383 102 405 104 427 C 106 449 107 470 107 490 L 332 490 L 332 409 C 350 445 369 470 389 483 C 409 495 430 502 454 502 C 464 502 473 501 483 499 C 492 497 501 495 510 492 L 478 271 C 465 277 452 283 440 287 C 427 291 415 293 404 293 C 382 293 360 284 339 268 C 318 251 305 220 299 176 L 274 0 L 47 0 Z M 142 -261 L 32 -223 C 46 -201 58 -180 66 -160 C 74 -140 79 -117 83 -93 L 89 -47 L 234 -47 L 228 -92 C 223 -126 214 -156 201 -182 C 188 -208 168 -234 142 -261 Z" horiz-adv-x="453" />
<glyph unicode="Ř" d="M 312 706 L 251 863 L 393 863 L 415 800 L 455 863 L 597 863 L 495 706 L 312 706 Z M 52 0 L 144 658 L 484 658 C 550 658 600 643 636 613 C 671 583 689 541 689 487 C 689 445 676 409 650 379 C 624 349 588 327 542 315 C 572 304 596 289 614 269 C 632 249 643 225 648 197 L 678 0 L 429 0 L 404 187 C 401 205 395 219 386 227 C 376 235 363 239 347 239 L 330 239 L 296 0 L 52 0 Z M 350 383 L 377 383 C 397 383 414 389 427 401 C 440 413 447 429 447 450 C 447 464 442 476 433 485 C 424 493 411 498 394 498 L 367 498 L 350 383 Z" horiz-adv-x="694" />
<glyph unicode="ř" d="M 203 541 L 135 715 L 294 715 L 318 645 L 363 715 L 521 715 L 407 541 L 203 541 Z M 47 0 L 98 363 C 100 383 102 405 104 427 C 106 449 107 470 107 490 L 332 490 L 332 409 C 350 445 369 470 389 483 C 409 495 430 502 454 502 C 464 502 473 501 483 499 C 492 497 501 495 510 492 L 478 271 C 465 277 452 283 440 287 C 427 291 415 293 404 293 C 382 293 360 284 339 268 C 318 251 305 220 299 176 L 274 0 L 47 0 Z" horiz-adv-x="453" />
<glyph unicode="Ś" d="M 309 716 L 416 865 L 613 865 L 474 716 L 309 716 Z M 288 -15 C 249 -15 210 -11 171 -4 C 131 2 92 13 54 27 L 81 222 C 115 204 149 191 184 183 C 219 175 254 171 288 171 C 310 171 327 173 337 178 C 347 183 353 190 353 200 C 353 207 350 213 344 217 C 338 221 328 225 316 229 L 298 234 C 229 250 178 275 145 307 C 111 339 95 380 95 431 C 95 503 122 562 176 606 C 230 650 306 673 404 673 C 440 673 477 670 514 665 C 551 660 588 653 625 643 L 597 445 C 567 459 536 471 504 479 C 472 487 440 491 410 491 C 389 491 374 488 364 483 C 354 478 350 471 350 462 C 350 454 353 448 359 444 C 365 440 374 436 387 433 L 405 428 C 472 412 522 388 556 356 C 590 324 607 283 607 231 C 607 159 580 100 526 54 C 472 8 392 -15 288 -15 Z" horiz-adv-x="610" />
<glyph unicode="ś" d="M 222 549 L 341 716 L 556 716 L 401 549 L 222 549 Z M 224 -16 C 193 -16 162 -14 131 -10 C 100 -6 69 0 39 9 L 59 161 C 85 148 111 139 137 133 C 163 127 190 124 219 124 C 231 124 241 125 249 129 C 256 132 260 137 260 143 C 260 147 257 151 252 155 C 247 159 241 161 234 163 L 191 173 C 151 182 120 199 100 224 C 79 248 69 278 69 314 C 69 369 88 415 127 451 C 166 487 227 505 310 505 C 342 505 374 503 405 499 C 436 495 467 489 498 481 L 479 334 C 456 346 433 356 409 362 C 385 368 361 372 338 372 C 323 372 312 370 306 366 C 299 362 296 357 296 351 C 296 346 297 342 301 339 C 304 336 310 334 319 332 L 362 322 C 402 312 432 294 454 268 C 475 242 486 211 486 175 C 486 119 465 74 423 38 C 381 2 314 -16 224 -16 Z" horiz-adv-x="485" />
<glyph unicode="Ŝ" d="M 227 716 L 328 872 L 497 872 L 556 716 L 421 716 L 399 779 L 361 716 L 227 716 Z M 288 -15 C 249 -15 210 -11 171 -4 C 131 2 92 13 54 27 L 81 222 C 115 204 149 191 184 183 C 219 175 254 171 288 171 C 310 171 327 173 337 178 C 347 183 353 190 353 200 C 353 207 350 213 344 217 C 338 221 328 225 316 229 L 298 234 C 229 250 178 275 145 307 C 111 339 95 380 95 431 C 95 503 122 562 176 606 C 230 650 306 673 404 673 C 440 673 477 670 514 665 C 551 660 588 653 625 643 L 597 445 C 567 459 536 471 504 479 C 472 487 440 491 410 491 C 389 491 374 488 364 483 C 354 478 350 471 350 462 C 350 454 353 448 359 444 C 365 440 374 436 387 433 L 405 428 C 472 412 522 388 556 356 C 590 324 607 283 607 231 C 607 159 580 100 526 54 C 472 8 392 -15 288 -15 Z" horiz-adv-x="610" />
<glyph unicode="ŝ" d="M 120 549 L 234 724 L 438 724 L 506 549 L 348 549 L 323 619 L 279 549 L 120 549 Z M 224 -16 C 193 -16 162 -14 131 -10 C 100 -6 69 0 39 9 L 59 161 C 85 148 111 139 137 133 C 163 127 190 124 219 124 C 231 124 241 125 249 129 C 256 132 260 137 260 143 C 260 147 257 151 252 155 C 247 159 241 161 234 163 L 191 173 C 151 182 120 199 100 224 C 79 248 69 278 69 314 C 69 369 88 415 127 451 C 166 487 227 505 310 505 C 342 505 374 503 405 499 C 436 495 467 489 498 481 L 479 334 C 456 346 433 356 409 362 C 385 368 361 372 338 372 C 323 372 312 370 306 366 C 299 362 296 357 296 351 C 296 346 297 342 301 339 C 304 336 310 334 319 332 L 362 322 C 402 312 432 294 454 268 C 475 242 486 211 486 175 C 486 119 465 74 423 38 C 381 2 314 -16 224 -16 Z" horiz-adv-x="485" />
<glyph unicode="Ş" d="M 288 -15 C 249 -15 210 -11 171 -4 C 131 2 92 13 54 27 L 81 222 C 115 204 149 191 184 183 C 219 175 254 171 288 171 C 310 171 327 173 337 178 C 347 183 353 190 353 200 C 353 207 350 213 344 217 C 338 221 328 225 316 229 L 298 234 C 229 250 178 275 145 307 C 111 339 95 380 95 431 C 95 503 122 562 176 606 C 230 650 306 673 404 673 C 440 673 477 670 514 665 C 551 660 588 653 625 643 L 597 445 C 567 459 536 471 504 479 C 472 487 440 491 410 491 C 389 491 374 488 364 483 C 354 478 350 471 350 462 C 350 454 353 448 359 444 C 365 440 374 436 387 433 L 405 428 C 472 412 522 388 556 356 C 590 324 607 283 607 231 C 607 159 580 100 526 54 C 472 8 392 -15 288 -15 Z M 295 -253 C 283 -253 271 -252 259 -250 C 247 -248 236 -245 227 -242 L 240 -150 C 248 -154 256 -158 264 -160 C 272 -162 280 -164 289 -164 C 299 -164 306 -161 312 -157 C 317 -152 320 -146 320 -139 C 320 -133 317 -128 312 -125 C 307 -121 301 -120 294 -120 L 284 -120 L 294 -48 L 310 -48 C 344 -48 371 -56 392 -74 C 413 -91 424 -113 424 -141 C 424 -173 412 -200 389 -221 C 366 -242 335 -253 295 -253 Z" horiz-adv-x="610" />
<glyph unicode="ş" d="M 224 -16 C 193 -16 162 -14 131 -10 C 100 -6 69 0 39 9 L 59 161 C 85 148 111 139 137 133 C 163 127 190 124 219 124 C 231 124 241 125 249 129 C 256 132 260 137 260 143 C 260 147 257 151 252 155 C 247 159 241 161 234 163 L 191 173 C 151 182 120 199 100 224 C 79 248 69 278 69 314 C 69 369 88 415 127 451 C 166 487 227 505 310 505 C 342 505 374 503 405 499 C 436 495 467 489 498 481 L 479 334 C 456 346 433 356 409 362 C 385 368 361 372 338 372 C 323 372 312 370 306 366 C 299 362 296 357 296 351 C 296 346 297 342 301 339 C 304 336 310 334 319 332 L 362 322 C 402 312 432 294 454 268 C 475 242 486 211 486 175 C 486 119 465 74 423 38 C 381 2 314 -16 224 -16 Z M 226 -261 C 212 -261 199 -260 187 -258 C 174 -256 163 -253 154 -250 L 167 -155 C 175 -159 184 -163 192 -165 C 200 -167 208 -169 216 -169 C 226 -169 234 -166 240 -162 C 246 -157 249 -151 249 -143 C 249 -137 246 -132 242 -129 C 237 -125 231 -124 224 -124 L 213 -124 L 224 -46 L 241 -46 C 277 -46 307 -55 331 -73 C 354 -91 366 -115 366 -145 C 366 -179 353 -206 327 -228 C 301 -250 268 -261 226 -261 Z" horiz-adv-x="485" />
<glyph unicode="Š" d="M 300 716 L 239 873 L 381 873 L 403 810 L 443 873 L 585 873 L 483 716 L 300 716 Z M 288 -15 C 249 -15 210 -11 171 -4 C 131 2 92 13 54 27 L 81 222 C 115 204 149 191 184 183 C 219 175 254 171 288 171 C 310 171 327 173 337 178 C 347 183 353 190 353 200 C 353 207 350 213 344 217 C 338 221 328 225 316 229 L 298 234 C 229 250 178 275 145 307 C 111 339 95 380 95 431 C 95 503 122 562 176 606 C 230 650 306 673 404 673 C 440 673 477 670 514 665 C 551 660 588 653 625 643 L 597 445 C 567 459 536 471 504 479 C 472 487 440 491 410 491 C 389 491 374 488 364 483 C 354 478 350 471 350 462 C 350 454 353 448 359 444 C 365 440 374 436 387 433 L 405 428 C 472 412 522 388 556 356 C 590 324 607 283 607 231 C 607 159 580 100 526 54 C 472 8 392 -15 288 -15 Z" horiz-adv-x="610" />
<glyph unicode="š" d="M 208 549 L 140 723 L 299 723 L 323 653 L 368 723 L 526 723 L 412 549 L 208 549 Z M 224 -16 C 193 -16 162 -14 131 -10 C 100 -6 69 0 39 9 L 59 161 C 85 148 111 139 137 133 C 163 127 190 124 219 124 C 231 124 241 125 249 129 C 256 132 260 137 260 143 C 260 147 257 151 252 155 C 247 159 241 161 234 163 L 191 173 C 151 182 120 199 100 224 C 79 248 69 278 69 314 C 69 369 88 415 127 451 C 166 487 227 505 310 505 C 342 505 374 503 405 499 C 436 495 467 489 498 481 L 479 334 C 456 346 433 356 409 362 C 385 368 361 372 338 372 C 323 372 312 370 306 366 C 299 362 296 357 296 351 C 296 346 297 342 301 339 C 304 336 310 334 319 332 L 362 322 C 402 312 432 294 454 268 C 475 242 486 211 486 175 C 486 119 465 74 423 38 C 381 2 314 -16 224 -16 Z" horiz-adv-x="485" />
<glyph unicode="Ţ" d="M 165 0 L 229 454 L 84 454 L 112 658 L 646 658 L 618 454 L 473 454 L 409 0 L 165 0 Z M 275 -243 C 263 -243 251 -242 239 -240 C 227 -238 216 -235 207 -232 L 220 -140 C 228 -144 236 -148 244 -150 C 252 -152 260 -154 269 -154 C 279 -154 286 -151 292 -147 C 297 -142 300 -136 300 -129 C 300 -123 297 -118 292 -115 C 287 -111 281 -110 274 -110 L 264 -110 L 274 -38 L 290 -38 C 324 -38 351 -46 372 -64 C 393 -81 404 -103 404 -131 C 404 -163 392 -190 369 -211 C 346 -232 315 -243 275 -243 Z" horiz-adv-x="575" />
<glyph unicode="ţ" d="M 250 -12 C 196 -12 155 3 129 34 C 103 64 93 106 101 158 L 123 318 L 67 318 L 91 490 L 147 490 L 166 621 L 393 621 L 374 490 L 453 490 L 429 318 L 350 318 L 335 209 C 333 196 335 186 341 180 C 347 173 354 170 364 170 C 371 170 378 171 386 173 C 394 175 401 178 409 182 L 385 9 C 364 1 342 -3 320 -7 C 298 -10 274 -12 250 -12 Z M 223 -263 C 209 -263 196 -262 184 -260 C 171 -258 160 -255 151 -252 L 164 -157 C 172 -161 181 -165 189 -167 C 197 -169 205 -171 213 -171 C 223 -171 231 -168 237 -164 C 243 -159 246 -153 246 -145 C 246 -139 243 -134 239 -131 C 234 -127 228 -126 221 -126 L 210 -126 L 221 -48 L 238 -48 C 274 -48 304 -57 328 -75 C 351 -93 363 -117 363 -147 C 363 -181 350 -208 324 -230 C 298 -252 265 -263 223 -263 Z" horiz-adv-x="411" />
<glyph unicode="Ť" d="M 293 706 L 232 863 L 374 863 L 396 800 L 436 863 L 578 863 L 476 706 L 293 706 Z M 165 0 L 229 454 L 84 454 L 112 658 L 646 658 L 618 454 L 473 454 L 409 0 L 165 0 Z" horiz-adv-x="575" />
<glyph unicode="ť" d="M 538 517 L 418 554 C 433 578 445 601 453 623 C 461 645 467 669 471 697 L 478 745 L 630 745 L 623 697 C 618 659 609 626 596 598 C 582 569 563 542 538 517 Z M 250 -12 C 196 -12 155 3 129 34 C 103 64 93 106 101 158 L 123 318 L 67 318 L 91 490 L 147 490 L 166 621 L 393 621 L 374 490 L 453 490 L 429 318 L 350 318 L 335 209 C 333 196 335 186 341 180 C 347 173 354 170 364 170 C 371 170 378 171 386 173 C 394 175 401 178 409 182 L 385 9 C 364 1 342 -3 320 -7 C 298 -10 274 -12 250 -12 Z" horiz-adv-x="576" />
<glyph unicode="Ŧ" d="M 165 0 L 193 198 L 111 198 L 130 338 L 213 338 L 229 454 L 84 454 L 112 658 L 646 658 L 618 454 L 473 454 L 457 338 L 540 338 L 521 198 L 437 198 L 409 0 L 165 0 Z" horiz-adv-x="575" />
<glyph unicode="ŧ" d="M 66 217 L 75 284 L 118 284 L 123 318 L 67 318 L 91 490 L 147 490 L 166 621 L 393 621 L 374 490 L 453 490 L 429 318 L 350 318 L 345 284 L 402 284 L 393 217 L 336 217 L 335 209 C 333 196 335 186 341 180 C 347 173 354 170 364 170 C 371 170 378 171 386 173 C 394 175 401 178 409 182 L 385 9 C 364 1 342 -3 320 -7 C 298 -10 274 -12 250 -12 C 196 -12 155 3 129 34 C 103 64 93 106 101 158 L 109 217 L 66 217 Z" horiz-adv-x="411" />
<glyph unicode="Ũ" d="M 397 706 L 297 706 C 303 755 318 792 341 818 C 363 844 393 857 430 857 C 446 857 461 854 473 850 C 485 846 497 839 509 830 C 513 825 517 822 521 820 C 525 818 529 817 534 817 C 540 817 546 819 550 825 C 554 830 557 839 559 851 L 659 851 C 652 801 637 764 615 738 C 592 712 562 700 526 700 C 509 700 495 702 483 706 C 471 710 459 718 448 728 C 442 732 438 735 434 737 C 430 739 427 740 423 740 C 415 740 410 737 406 732 C 402 726 399 718 397 706 Z M 373 -15 C 272 -15 196 9 145 59 C 93 108 74 175 86 259 L 141 658 L 391 658 L 338 276 C 335 253 339 235 349 221 C 359 207 374 201 396 201 C 418 201 436 207 450 221 C 464 235 473 253 476 276 L 529 658 L 760 658 L 705 259 C 693 175 657 108 598 59 C 538 9 463 -15 373 -15 Z" horiz-adv-x="716" />
<glyph unicode="ũ" d="M 294 541 L 183 541 C 190 596 206 638 232 666 C 257 694 290 709 331 709 C 349 709 365 706 379 702 C 392 697 405 689 418 678 C 424 673 429 669 433 667 C 437 665 441 664 446 664 C 453 664 459 667 464 673 C 468 679 472 689 474 702 L 585 702 C 577 647 561 605 536 577 C 510 549 478 535 438 535 C 419 535 403 537 389 542 C 375 546 362 554 350 566 C 344 570 340 574 336 576 C 332 578 327 579 323 579 C 314 579 307 576 303 570 C 298 564 295 554 294 541 Z M 194 -14 C 146 -14 109 1 84 32 C 59 63 51 105 60 158 L 94 360 C 97 382 100 405 102 428 C 104 450 106 471 106 490 L 334 490 C 334 470 333 450 331 428 C 329 406 326 383 322 360 L 294 206 C 292 194 293 186 298 182 C 302 177 308 175 314 175 C 325 175 336 181 346 195 C 356 208 363 230 368 261 L 401 490 L 628 490 L 577 131 C 574 112 572 91 571 67 C 570 43 570 20 570 0 L 343 0 L 343 75 C 323 44 301 21 276 7 C 251 -6 224 -14 194 -14 Z" horiz-adv-x="607" />
<glyph unicode="Ū" d="M 337 706 L 353 821 L 620 821 L 604 706 L 337 706 Z M 373 -15 C 272 -15 196 9 145 59 C 93 108 74 175 86 259 L 141 658 L 391 658 L 338 276 C 335 253 339 235 349 221 C 359 207 374 201 396 201 C 418 201 436 207 450 221 C 464 235 473 253 476 276 L 529 658 L 760 658 L 705 259 C 693 175 657 108 598 59 C 538 9 463 -15 373 -15 Z" horiz-adv-x="716" />
<glyph unicode="ū" d="M 245 545 L 263 673 L 525 673 L 507 545 L 245 545 Z M 194 -14 C 146 -14 109 1 84 32 C 59 63 51 105 60 158 L 94 360 C 97 382 100 405 102 428 C 104 450 106 471 106 490 L 334 490 C 334 470 333 450 331 428 C 329 406 326 383 322 360 L 294 206 C 292 194 293 186 298 182 C 302 177 308 175 314 175 C 325 175 336 181 346 195 C 356 208 363 230 368 261 L 401 490 L 628 490 L 577 131 C 574 112 572 91 571 67 C 570 43 570 20 570 0 L 343 0 L 343 75 C 323 44 301 21 276 7 C 251 -6 224 -14 194 -14 Z" horiz-adv-x="607" />
<glyph unicode="Ŭ" d="M 471 706 C 426 706 392 719 369 747 C 345 775 337 812 344 858 L 454 858 C 452 845 453 835 459 827 C 464 819 472 816 483 816 C 493 816 502 819 510 827 C 517 835 522 845 524 858 L 633 858 C 626 812 608 775 579 747 C 549 719 513 706 471 706 Z M 373 -15 C 272 -15 196 9 145 59 C 93 108 74 175 86 259 L 141 658 L 391 658 L 338 276 C 335 253 339 235 349 221 C 359 207 374 201 396 201 C 418 201 436 207 450 221 C 464 235 473 253 476 276 L 529 658 L 760 658 L 705 259 C 693 175 657 108 598 59 C 538 9 463 -15 373 -15 Z" horiz-adv-x="716" />
<glyph unicode="ŭ" d="M 377 536 C 327 536 289 551 263 582 C 237 612 228 653 236 705 L 358 705 C 356 690 357 678 363 670 C 369 662 378 658 390 658 C 401 658 411 662 419 670 C 427 678 433 690 435 705 L 556 705 C 549 653 529 612 497 582 C 464 551 424 536 377 536 Z M 194 -14 C 146 -14 109 1 84 32 C 59 63 51 105 60 158 L 94 360 C 97 382 100 405 102 428 C 104 450 106 471 106 490 L 334 490 C 334 470 333 450 331 428 C 329 406 326 383 322 360 L 294 206 C 292 194 293 186 298 182 C 302 177 308 175 314 175 C 325 175 336 181 346 195 C 356 208 363 230 368 261 L 401 490 L 628 490 L 577 131 C 574 112 572 91 571 67 C 570 43 570 20 570 0 L 343 0 L 343 75 C 323 44 301 21 276 7 C 251 -6 224 -14 194 -14 Z" horiz-adv-x="607" />
<glyph unicode="Ů" d="M 373 -15 C 272 -15 196 9 145 59 C 93 108 74 175 86 259 L 141 658 L 332 658 C 331 662 330 667 330 672 C 329 677 329 682 329 687 C 329 727 342 760 370 787 C 398 814 432 828 473 828 C 508 828 538 817 562 796 C 586 774 598 746 598 710 C 598 700 597 691 595 683 C 593 674 591 666 589 658 L 760 658 L 705 259 C 693 175 657 108 598 59 C 538 9 463 -15 373 -15 Z M 461 658 C 473 658 484 662 493 670 C 501 678 506 689 506 702 C 506 712 502 720 495 728 C 487 735 478 739 467 739 C 454 739 443 735 435 727 C 426 719 422 708 422 696 C 422 685 425 676 433 669 C 440 661 449 658 461 658 Z M 455 569 C 441 569 427 570 415 574 C 403 577 391 582 381 589 L 338 276 C 335 253 339 235 349 221 C 359 207 374 201 396 201 C 418 201 436 207 450 221 C 464 235 473 253 476 276 L 519 583 C 509 578 499 574 488 572 C 477 570 466 569 455 569 Z" horiz-adv-x="716" />
<glyph unicode="ů" d="M 374 525 C 332 525 298 537 272 561 C 246 585 233 617 233 657 C 233 701 248 738 278 768 C 308 798 346 813 392 813 C 434 813 468 800 494 776 C 520 751 533 719 533 681 C 533 637 517 600 487 570 C 457 540 419 525 374 525 Z M 381 624 C 395 624 406 628 416 637 C 425 645 430 657 430 671 C 430 683 425 694 417 702 C 409 710 398 714 386 714 C 372 714 360 709 351 700 C 341 691 337 680 337 667 C 337 654 341 644 349 636 C 357 628 368 624 381 624 Z M 194 -14 C 146 -14 109 1 84 32 C 59 63 51 105 60 158 L 94 360 C 97 382 100 405 102 428 C 104 450 106 471 106 490 L 334 490 C 334 470 333 450 331 428 C 329 406 326 383 322 360 L 294 206 C 292 194 293 186 298 182 C 302 177 308 175 314 175 C 325 175 336 181 346 195 C 356 208 363 230 368 261 L 401 490 L 628 490 L 577 131 C 574 112 572 91 571 67 C 570 43 570 20 570 0 L 343 0 L 343 75 C 323 44 301 21 276 7 C 251 -6 224 -14 194 -14 Z" horiz-adv-x="607" />
<glyph unicode="Ű" d="M 307 706 L 407 855 L 551 855 L 444 706 L 307 706 Z M 489 706 L 595 855 L 739 855 L 626 706 L 489 706 Z M 373 -15 C 272 -15 196 9 145 59 C 93 108 74 175 86 259 L 141 658 L 391 658 L 338 276 C 335 253 339 235 349 221 C 359 207 374 201 396 201 C 418 201 436 207 450 221 C 464 235 473 253 476 276 L 529 658 L 760 658 L 705 259 C 693 175 657 108 598 59 C 538 9 463 -15 373 -15 Z" horiz-adv-x="716" />
<glyph unicode="ű" d="M 197 545 L 309 712 L 469 712 L 350 545 L 197 545 Z M 400 545 L 518 712 L 678 712 L 552 545 L 400 545 Z M 194 -14 C 146 -14 109 1 84 32 C 59 63 51 105 60 158 L 94 360 C 97 382 100 405 102 428 C 104 450 106 471 106 490 L 334 490 C 334 470 333 450 331 428 C 329 406 326 383 322 360 L 294 206 C 292 194 293 186 298 182 C 302 177 308 175 314 175 C 325 175 336 181 346 195 C 356 208 363 230 368 261 L 401 490 L 628 490 L 577 131 C 574 112 572 91 571 67 C 570 43 570 20 570 0 L 343 0 L 343 75 C 323 44 301 21 276 7 C 251 -6 224 -14 194 -14 Z" horiz-adv-x="607" />
<glyph unicode="Ų" d="M 495 -223 C 435 -223 387 -210 352 -186 C 317 -161 300 -128 300 -88 C 300 -74 302 -61 306 -49 C 310 -36 315 -24 323 -13 C 238 -5 175 23 133 71 C 91 119 75 181 86 259 L 141 658 L 391 658 L 338 276 C 335 253 339 235 349 221 C 359 207 374 201 396 201 C 418 201 436 207 450 221 C 464 235 473 253 476 276 L 529 658 L 760 658 L 705 259 C 696 195 674 141 638 98 C 602 55 555 24 499 5 C 483 -1 471 -8 465 -17 C 458 -26 455 -37 455 -50 C 455 -64 460 -76 471 -85 C 481 -94 495 -99 512 -99 L 495 -223 Z" horiz-adv-x="716" />
<glyph unicode="ų" d="M 194 -14 C 146 -14 109 1 84 32 C 59 63 51 105 60 158 L 94 360 C 97 382 100 405 102 428 C 104 450 106 471 106 490 L 334 490 C 334 470 333 450 331 428 C 329 406 326 383 322 360 L 294 206 C 292 194 293 186 298 182 C 302 177 308 175 314 175 C 325 175 336 181 346 195 C 356 208 363 230 368 261 L 401 490 L 628 490 L 577 131 C 574 112 572 91 571 67 C 570 43 570 20 570 0 L 517 0 C 496 0 480 -5 468 -15 C 456 -25 450 -38 450 -55 C 450 -67 454 -78 464 -86 C 473 -94 486 -99 503 -99 L 486 -220 C 430 -220 385 -208 352 -185 C 319 -161 303 -130 303 -92 C 303 -75 306 -59 314 -43 C 321 -27 331 -13 344 0 L 343 0 L 343 75 C 323 44 301 21 276 7 C 251 -6 224 -14 194 -14 Z" horiz-adv-x="607" />
<glyph unicode="Ŵ" d="M 479 706 L 580 862 L 749 862 L 808 706 L 673 706 L 651 769 L 613 706 L 479 706 Z M 157 0 L 100 658 L 347 658 L 361 362 L 363 226 L 405 362 L 502 658 L 768 658 L 781 361 L 785 231 L 826 361 L 923 658 L 1151 658 L 907 0 L 604 0 L 589 238 L 585 378 L 540 238 L 457 0 L 157 0 Z" horiz-adv-x="1071" />
<glyph unicode="ŵ" d="M 314 547 L 428 722 L 632 722 L 700 547 L 542 547 L 517 617 L 473 547 L 314 547 Z M 124 0 L 81 490 L 304 490 L 313 320 L 314 193 C 330 238 344 285 358 335 C 372 384 385 436 399 490 L 608 490 L 618 321 L 622 200 C 640 248 657 296 671 344 C 685 392 697 440 708 490 L 905 490 C 882 402 854 317 821 234 C 788 151 752 73 712 0 L 471 0 L 462 130 L 460 212 C 448 178 436 143 422 107 C 408 71 393 36 377 0 L 124 0 Z" horiz-adv-x="851" />
<glyph unicode="Ŷ" d="M 291 706 L 392 862 L 561 862 L 620 706 L 485 706 L 463 769 L 425 706 L 291 706 Z M 233 0 L 262 205 L 100 658 L 364 658 L 402 512 L 419 431 L 459 512 L 537 658 L 794 658 L 505 200 L 477 0 L 233 0 Z" horiz-adv-x="714" />
<glyph unicode="ŷ" d="M 185 541 L 299 716 L 503 716 L 571 541 L 413 541 L 388 611 L 344 541 L 185 541 Z M 441 -7 C 388 -77 324 -130 250 -166 C 175 -202 91 -220 -1 -220 L -18 -220 L 8 -42 L 24 -42 C 58 -42 91 -37 121 -28 C 151 -19 178 -6 203 10 L 130 23 L 79 490 L 315 490 L 326 320 L 332 139 C 352 188 369 241 383 298 C 397 354 410 418 422 490 L 628 490 C 610 384 585 290 554 208 C 523 125 485 53 441 -7 Z" horiz-adv-x="581" />
<glyph unicode="Ÿ" d="M 295 711 L 314 846 L 450 846 L 431 711 L 295 711 Z M 476 711 L 495 846 L 630 846 L 611 711 L 476 711 Z M 233 0 L 262 205 L 100 658 L 364 658 L 402 512 L 419 431 L 459 512 L 537 658 L 794 658 L 505 200 L 477 0 L 233 0 Z" horiz-adv-x="714" />
<glyph unicode="Ź" d="M 350 706 L 457 855 L 654 855 L 515 706 L 350 706 Z M 44 0 L 62 126 L 290 390 L 350 454 L 111 454 L 139 658 L 714 658 L 697 532 L 473 269 L 412 204 L 650 204 L 622 0 L 44 0 Z" horiz-adv-x="664" />
<glyph unicode="ź" d="M 252 541 L 371 708 L 586 708 L 431 541 L 252 541 Z M 28 0 L 42 100 L 177 253 L 232 312 L 74 312 L 99 490 L 579 490 L 565 391 L 428 237 L 373 178 L 540 178 L 515 0 L 28 0 Z" horiz-adv-x="547" />
<glyph unicode="Ż" d="M 364 706 L 384 843 L 521 843 L 501 706 L 364 706 Z M 44 0 L 62 126 L 290 390 L 350 454 L 111 454 L 139 658 L 714 658 L 697 532 L 473 269 L 412 204 L 650 204 L 622 0 L 44 0 Z" horiz-adv-x="664" />
<glyph unicode="ż" d="M 266 541 L 288 693 L 440 693 L 418 541 L 266 541 Z M 28 0 L 42 100 L 177 253 L 232 312 L 74 312 L 99 490 L 579 490 L 565 391 L 428 237 L 373 178 L 540 178 L 515 0 L 28 0 Z" horiz-adv-x="547" />
<glyph unicode="Ž" d="M 341 706 L 280 863 L 422 863 L 444 800 L 484 863 L 626 863 L 524 706 L 341 706 Z M 44 0 L 62 126 L 290 390 L 350 454 L 111 454 L 139 658 L 714 658 L 697 532 L 473 269 L 412 204 L 650 204 L 622 0 L 44 0 Z" horiz-adv-x="664" />
<glyph unicode="ž" d="M 238 541 L 170 715 L 329 715 L 353 645 L 398 715 L 556 715 L 442 541 L 238 541 Z M 28 0 L 42 100 L 177 253 L 232 312 L 74 312 L 99 490 L 579 490 L 565 391 L 428 237 L 373 178 L 540 178 L 515 0 L 28 0 Z" horiz-adv-x="547" />
<glyph unicode="ƒ" d="M 125 -223 C 107 -223 88 -222 68 -220 C 48 -218 29 -214 13 -210 L 36 -42 C 44 -44 51 -46 59 -48 C 66 -49 74 -50 82 -50 C 96 -50 108 -45 116 -36 C 124 -26 130 -14 132 2 L 177 316 L 111 316 L 135 488 L 201 488 L 208 537 C 216 601 241 649 283 681 C 325 712 377 728 439 728 C 455 728 474 727 494 725 C 514 723 533 719 551 715 L 527 546 C 519 548 511 550 504 552 C 496 554 489 555 481 555 C 466 555 455 550 447 541 C 439 531 434 519 432 504 L 430 488 L 504 488 L 480 316 L 405 316 L 356 -32 C 347 -94 322 -141 280 -174 C 238 -206 187 -223 125 -223 Z" horiz-adv-x="493" />
<glyph unicode="Ǧ" d="M 410 718 L 349 875 L 491 875 L 513 812 L 553 875 L 695 875 L 593 718 L 410 718 Z M 428 -14 C 313 -14 226 11 166 62 C 106 112 76 184 76 276 C 76 398 115 495 193 566 C 271 636 373 672 497 673 C 541 673 583 670 624 664 C 665 658 703 649 739 639 L 711 438 C 676 450 642 460 608 466 C 574 472 543 475 515 475 C 457 475 412 457 381 423 C 350 388 335 344 335 292 C 335 257 343 230 360 210 C 377 190 400 181 429 181 C 437 181 446 181 454 182 C 462 183 470 185 478 188 L 486 249 L 417 249 L 439 401 L 750 401 L 700 43 C 652 24 604 10 558 0 C 512 -9 468 -14 428 -14 Z" horiz-adv-x="734" />
<glyph unicode="ǧ" d="M 291 549 L 223 723 L 382 723 L 406 653 L 451 723 L 609 723 L 495 549 L 291 549 Z M 243 -220 C 211 -220 177 -217 139 -212 C 101 -207 65 -200 29 -190 L 54 -11 C 77 -26 103 -37 131 -45 C 159 -53 185 -57 211 -57 C 241 -57 268 -50 292 -37 C 315 -24 328 -5 332 19 L 336 45 C 317 25 299 10 281 2 C 263 -5 241 -10 217 -10 C 169 -10 129 7 99 41 C 69 75 54 123 54 187 C 54 278 84 353 146 412 C 208 470 294 500 404 500 C 438 500 473 498 510 494 C 546 490 585 484 625 478 L 559 4 C 548 -74 514 -131 457 -167 C 399 -202 328 -220 243 -220 Z M 316 164 C 328 164 339 172 349 189 C 359 205 367 235 374 277 L 380 324 C 376 325 371 326 367 327 C 362 328 357 329 353 329 C 336 329 320 318 305 297 C 290 275 283 248 283 214 C 283 199 285 187 291 178 C 297 168 305 164 316 164 Z" horiz-adv-x="596" />
<glyph unicode="Ǻ" d="M 433 832 L 505 925 L 625 925 L 549 832 L 433 832 Z M 12 0 L 324 658 L 346 658 C 345 661 344 665 344 669 C 344 673 344 677 344 681 C 344 717 356 748 382 773 C 407 798 439 811 477 811 C 511 811 539 800 561 780 C 583 760 594 733 594 701 C 594 693 593 686 592 679 C 591 671 589 664 587 658 L 607 658 L 734 0 L 489 0 L 474 93 L 281 93 L 241 0 L 12 0 Z M 468 659 C 477 659 485 662 492 668 C 499 674 503 683 503 694 C 503 702 499 709 493 715 C 487 721 479 724 471 724 C 461 724 452 720 446 713 C 439 706 436 698 436 689 C 436 680 439 673 445 667 C 451 661 458 659 468 659 Z M 344 239 L 452 239 L 443 296 L 426 428 L 370 296 L 344 239 Z" horiz-adv-x="746" />
<glyph unicode="ǻ" d="M 361 700 L 441 804 L 575 804 L 491 700 L 361 700 Z M 214 -12 C 166 -12 126 5 96 39 C 66 73 51 121 51 185 C 51 253 71 313 112 366 C 152 419 206 457 273 479 C 269 487 267 495 265 504 C 263 513 262 523 262 533 C 262 573 276 607 304 635 C 332 662 367 676 409 676 C 447 676 479 665 503 643 C 527 621 540 592 540 556 C 540 544 538 533 536 523 C 534 512 530 502 526 493 C 542 491 558 488 574 486 C 590 483 606 480 622 478 L 580 179 C 576 152 573 122 572 90 C 570 58 570 28 570 0 L 365 0 L 365 90 C 348 56 327 30 301 13 C 275 -3 246 -12 214 -12 Z M 400 507 C 410 507 419 510 427 518 C 434 526 438 535 438 546 C 438 556 434 564 428 570 C 422 576 413 580 403 580 C 392 580 383 576 376 568 C 368 560 365 551 365 541 C 365 531 368 522 374 516 C 380 510 389 507 400 507 Z M 315 174 C 325 174 334 180 344 194 C 354 208 362 237 369 282 L 375 326 C 371 327 367 328 363 329 C 359 329 356 330 352 330 C 335 330 319 319 304 299 C 288 279 281 254 281 226 C 281 211 284 199 290 189 C 296 179 304 174 315 174 Z" horiz-adv-x="606" />
<glyph unicode="Ǽ" d="M 564 706 L 671 855 L 868 855 L 729 706 L 564 706 Z M 12 0 L 404 658 L 1006 658 L 979 464 L 765 464 L 757 407 L 960 407 L 938 251 L 735 251 L 727 194 L 950 194 L 923 0 L 456 0 L 471 108 L 312 108 L 248 0 L 12 0 Z M 405 271 L 494 271 L 523 478 L 458 362 L 405 271 Z" horiz-adv-x="964" />
<glyph unicode="ǽ" d="M 389 541 L 508 708 L 723 708 L 568 541 L 389 541 Z M 207 -12 C 154 -12 113 1 85 27 C 56 53 42 88 42 130 C 42 179 61 218 99 248 C 137 277 189 292 255 293 L 345 294 L 347 312 C 349 328 344 340 331 348 C 317 356 296 361 267 361 C 236 361 206 357 177 350 C 147 343 119 334 91 323 L 113 477 C 145 486 177 493 210 499 C 243 505 278 508 314 508 C 347 508 376 503 400 495 C 424 486 445 475 461 461 C 482 475 507 487 536 495 C 564 503 596 508 632 508 C 694 508 744 493 783 464 C 821 434 841 397 841 352 C 841 306 822 270 786 244 C 749 218 684 205 591 204 L 556 204 C 556 181 564 165 578 156 C 592 146 616 142 650 142 C 676 142 703 145 731 153 C 758 160 784 171 810 187 L 787 18 C 756 5 724 -4 691 -10 C 657 -16 624 -19 592 -19 C 540 -19 497 -10 463 6 C 429 22 404 45 386 74 C 365 47 339 26 308 11 C 276 -4 243 -12 207 -12 Z M 622 372 C 608 372 597 365 588 351 C 578 337 572 317 568 293 L 592 293 C 607 293 621 298 633 306 C 645 314 651 325 651 340 C 651 350 648 358 643 364 C 637 369 630 372 622 372 Z M 285 134 C 296 134 305 137 313 145 C 320 153 325 163 327 176 L 331 203 L 301 203 C 287 202 276 198 267 192 C 258 185 254 176 254 165 C 254 155 257 148 263 142 C 269 136 276 134 285 134 Z" horiz-adv-x="813" />
<glyph unicode="Ǿ" d="M 367 718 L 474 867 L 671 867 L 532 718 L 367 718 Z M 112 -48 L 178 51 C 145 77 120 110 103 150 C 85 190 77 237 77 289 C 77 403 115 496 191 568 C 267 640 361 676 472 676 C 492 676 512 674 532 672 C 551 670 569 666 587 662 L 616 706 L 767 706 L 700 606 C 732 580 756 547 773 507 C 790 467 799 422 800 370 C 800 260 763 168 689 94 C 614 20 519 -17 405 -17 C 384 -17 364 -16 346 -14 C 327 -12 309 -8 293 -4 L 263 -48 L 112 -48 Z M 423 189 C 457 189 486 205 509 238 C 531 271 543 312 543 362 C 543 395 535 421 519 441 C 503 460 482 470 455 470 C 420 470 391 453 368 420 C 345 387 334 346 334 298 C 334 264 341 238 357 218 C 373 198 395 189 423 189 Z" horiz-adv-x="785" />
<glyph unicode="ǿ" d="M 212 558 L 331 725 L 546 725 L 391 558 L 212 558 Z M 73 -48 L 127 37 C 104 57 87 81 75 111 C 63 140 57 173 57 209 C 57 298 86 370 145 426 C 203 482 276 510 362 510 C 373 510 384 509 395 508 C 406 507 417 506 427 504 L 449 538 L 592 538 L 536 451 C 558 431 574 407 586 378 C 598 349 604 317 604 281 C 604 191 574 119 516 63 C 457 7 385 -20 300 -20 C 289 -20 278 -19 268 -18 C 257 -17 247 -16 238 -14 L 216 -48 L 73 -48 Z M 321 163 C 337 163 350 173 362 193 C 374 213 380 239 380 272 C 380 288 376 302 369 312 C 362 322 353 327 341 327 C 324 327 310 317 299 297 C 287 277 282 251 282 219 C 282 201 285 188 292 178 C 298 168 308 163 321 163 Z" horiz-adv-x="592" />
<glyph unicode="Ș" d="M 288 -15 C 249 -15 210 -11 171 -4 C 131 2 92 13 54 27 L 81 222 C 115 204 149 191 184 183 C 219 175 254 171 288 171 C 310 171 327 173 337 178 C 347 183 353 190 353 200 C 353 207 350 213 344 217 C 338 221 328 225 316 229 L 298 234 C 229 250 178 275 145 307 C 111 339 95 380 95 431 C 95 503 122 562 176 606 C 230 650 306 673 404 673 C 440 673 477 670 514 665 C 551 660 588 653 625 643 L 597 445 C 567 459 536 471 504 479 C 472 487 440 491 410 491 C 389 491 374 488 364 483 C 354 478 350 471 350 462 C 350 454 353 448 359 444 C 365 440 374 436 387 433 L 405 428 C 472 412 522 388 556 356 C 590 324 607 283 607 231 C 607 159 580 100 526 54 C 472 8 392 -15 288 -15 Z M 284 -266 L 181 -231 C 194 -209 204 -188 212 -168 C 219 -148 224 -125 228 -101 L 234 -58 L 371 -58 L 365 -101 C 361 -135 352 -164 340 -189 C 328 -213 309 -239 284 -266 Z" horiz-adv-x="610" />
<glyph unicode="ș" d="M 224 -16 C 193 -16 162 -14 131 -10 C 100 -6 69 0 39 9 L 59 161 C 85 148 111 139 137 133 C 163 127 190 124 219 124 C 231 124 241 125 249 129 C 256 132 260 137 260 143 C 260 147 257 151 252 155 C 247 159 241 161 234 163 L 191 173 C 151 182 120 199 100 224 C 79 248 69 278 69 314 C 69 369 88 415 127 451 C 166 487 227 505 310 505 C 342 505 374 503 405 499 C 436 495 467 489 498 481 L 479 334 C 456 346 433 356 409 362 C 385 368 361 372 338 372 C 323 372 312 370 306 366 C 299 362 296 357 296 351 C 296 346 297 342 301 339 C 304 336 310 334 319 332 L 362 322 C 402 312 432 294 454 268 C 475 242 486 211 486 175 C 486 119 465 74 423 38 C 381 2 314 -16 224 -16 Z M 214 -268 L 104 -230 C 118 -208 130 -187 138 -167 C 146 -147 151 -124 155 -100 L 161 -54 L 306 -54 L 300 -99 C 295 -133 286 -163 273 -189 C 260 -215 240 -241 214 -268 Z" horiz-adv-x="485" />
<glyph unicode="Ț" d="M 165 0 L 229 454 L 84 454 L 112 658 L 646 658 L 618 454 L 473 454 L 409 0 L 165 0 Z M 264 -256 L 161 -221 C 174 -199 184 -178 192 -158 C 199 -138 204 -115 208 -91 L 214 -48 L 351 -48 L 345 -91 C 341 -125 332 -154 320 -179 C 308 -203 289 -229 264 -256 Z" horiz-adv-x="575" />
<glyph unicode="ț" d="M 250 -12 C 196 -12 155 3 129 34 C 103 64 93 106 101 158 L 123 318 L 67 318 L 91 490 L 147 490 L 166 621 L 393 621 L 374 490 L 453 490 L 429 318 L 350 318 L 335 209 C 333 196 335 186 341 180 C 347 173 354 170 364 170 C 371 170 378 171 386 173 C 394 175 401 178 409 182 L 385 9 C 364 1 342 -3 320 -7 C 298 -10 274 -12 250 -12 Z M 211 -270 L 101 -232 C 115 -210 127 -189 135 -169 C 143 -149 148 -126 152 -102 L 158 -56 L 303 -56 L 297 -101 C 292 -135 283 -165 270 -191 C 257 -217 237 -243 211 -270 Z" horiz-adv-x="411" />
<glyph unicode="ȷ" d="M -51 -220 L -69 -220 L -45 -47 L -33 -47 C -15 -47 0 -41 14 -29 C 27 -17 35 1 39 27 L 104 490 L 331 490 L 266 27 C 255 -50 223 -110 169 -154 C 115 -198 41 -220 -51 -220 Z" horiz-adv-x="300" />
<glyph unicode="ə" d="M 259 -18 C 197 -18 146 -3 108 26 C 69 55 50 92 50 138 C 50 184 68 221 105 251 C 141 280 206 296 300 299 L 334 300 C 331 316 322 328 308 336 C 294 344 271 348 241 348 C 214 348 187 343 159 335 C 131 327 104 315 79 300 L 104 472 C 134 484 167 493 201 499 C 235 505 269 508 303 508 C 387 508 452 486 498 442 C 544 398 568 343 568 275 C 568 193 540 123 486 67 C 432 10 356 -18 259 -18 Z M 241 150 C 241 139 243 131 249 126 C 254 120 261 118 270 118 C 284 118 296 125 305 139 C 314 153 320 173 324 198 L 299 197 C 283 196 270 192 258 184 C 246 176 241 164 241 150 Z" horiz-adv-x="559" />
<glyph unicode="ˆ" d="M 96 541 L 210 716 L 414 716 L 482 541 L 324 541 L 299 611 L 255 541 L 96 541 Z" horiz-adv-x="424" />
<glyph unicode="ˇ" d="M 186 541 L 118 715 L 277 715 L 301 645 L 346 715 L 504 715 L 390 541 L 186 541 Z" horiz-adv-x="426" />
<glyph unicode="˘" d="M 261 536 C 211 536 173 551 147 582 C 121 612 112 653 120 705 L 242 705 C 240 690 241 678 247 670 C 253 662 262 658 274 658 C 285 658 295 662 303 670 C 311 678 317 690 319 705 L 440 705 C 433 653 413 612 381 582 C 348 551 308 536 261 536 Z" horiz-adv-x="360" />
<glyph unicode="˙" d="M 100 541 L 122 693 L 274 693 L 252 541 L 100 541 Z" horiz-adv-x="198" />
<glyph unicode="˚" d="M 237 430 C 195 430 161 442 135 466 C 109 490 96 522 96 562 C 96 606 111 643 141 673 C 171 703 209 718 255 718 C 297 718 331 705 357 681 C 383 656 396 624 396 586 C 396 542 380 505 350 475 C 320 445 282 430 237 430 Z M 244 529 C 258 529 269 533 279 542 C 288 550 293 562 293 576 C 293 588 288 599 280 607 C 272 615 261 619 249 619 C 235 619 223 614 214 605 C 204 596 200 585 200 572 C 200 559 204 549 212 541 C 220 533 231 529 244 529 Z" horiz-adv-x="334" />
<glyph unicode="˛" d="M 177 -220 C 121 -220 76 -208 43 -185 C 10 -161 -6 -130 -6 -92 C -6 -53 11 -18 47 11 C 83 41 131 66 193 85 L 208 0 C 187 0 171 -5 159 -15 C 147 -25 141 -38 141 -55 C 141 -67 145 -78 155 -86 C 164 -94 177 -99 194 -99 L 177 -220 Z" horiz-adv-x="241" />
<glyph unicode="˜" d="M 193 541 L 82 541 C 89 596 105 638 131 666 C 156 694 189 709 230 709 C 248 709 264 706 278 702 C 291 697 304 689 317 678 C 323 673 328 669 332 667 C 336 665 340 664 345 664 C 352 664 358 667 363 673 C 367 679 371 689 373 702 L 484 702 C 476 647 460 605 435 577 C 409 549 377 535 337 535 C 318 535 302 537 288 542 C 274 546 261 554 249 566 C 243 570 239 574 235 576 C 231 578 226 579 222 579 C 213 579 206 576 202 570 C 197 564 194 554 193 541 Z" horiz-adv-x="396" />
<glyph unicode="˝" d="M 74 545 L 186 712 L 346 712 L 227 545 L 74 545 Z M 277 545 L 395 712 L 555 712 L 429 545 L 277 545 Z" horiz-adv-x="437" />
<glyph unicode="̀" d="M -12 541 L -121 708 L 95 708 L 168 541 L -12 541 Z" horiz-adv-x="0" />
<glyph unicode="́" d="M -14 541 L 105 708 L 320 708 L 165 541 L -14 541 Z" horiz-adv-x="0" />
<glyph unicode="̂" d="M -116 541 L -2 716 L 202 716 L 270 541 L 112 541 L 87 611 L 43 541 L -116 541 Z" horiz-adv-x="0" />
<glyph unicode="̃" d="M -5 541 L -116 541 C -108 596 -92 638 -67 666 C -41 694 -8 709 32 709 C 50 709 66 706 80 702 C 93 697 106 689 119 678 C 125 673 130 669 134 667 C 138 665 142 664 147 664 C 154 664 160 667 165 673 C 169 679 173 689 175 702 L 286 702 C 278 647 262 605 237 577 C 211 549 179 535 139 535 C 120 535 104 537 90 542 C 76 546 63 554 51 566 C 45 570 41 574 37 576 C 33 578 28 579 24 579 C 15 579 8 576 4 570 C 0 564 -3 554 -5 541 Z" horiz-adv-x="0" />
<glyph unicode="̄" d="M -54 545 L -36 673 L 226 673 L 208 545 L -54 545 Z" horiz-adv-x="0" />
<glyph unicode="̆" d="M 78 536 C 28 536 -9 551 -35 582 C -61 612 -70 653 -63 705 L 59 705 C 57 690 58 678 64 670 C 70 662 79 658 91 658 C 102 658 112 662 120 670 C 128 678 134 690 136 705 L 257 705 C 250 653 230 612 198 582 C 165 551 125 536 78 536 Z" horiz-adv-x="0" />
<glyph unicode="̇" d="M 0 541 L 22 693 L 174 693 L 152 541 L 0 541 Z" horiz-adv-x="0" />
<glyph unicode="̈" d="M -96 541 L -75 691 L 75 691 L 54 541 L -96 541 Z M 101 541 L 122 691 L 272 691 L 251 541 L 101 541 Z" horiz-adv-x="0" />
<glyph unicode="̊" d="M 71 430 C 29 430 -5 442 -31 466 C -57 490 -70 522 -70 562 C -70 606 -54 643 -24 673 C 5 703 43 718 89 718 C 131 718 165 705 191 681 C 217 656 230 624 230 586 C 230 542 214 505 184 475 C 154 445 116 430 71 430 Z M 78 529 C 92 529 103 533 113 542 C 122 550 127 562 127 576 C 127 588 122 599 114 607 C 106 615 95 619 83 619 C 69 619 57 614 48 605 C 38 596 34 585 34 572 C 34 559 38 549 46 541 C 54 533 65 529 78 529 Z" horiz-adv-x="0" />
<glyph unicode="̋" d="M -102 545 L 10 712 L 170 712 L 51 545 L -102 545 Z M 101 545 L 219 712 L 379 712 L 253 545 L 101 545 Z" horiz-adv-x="0" />
<glyph unicode="̌" d="M -28 541 L -96 715 L 63 715 L 87 645 L 132 715 L 290 715 L 176 541 L -28 541 Z" horiz-adv-x="0" />
<glyph unicode="̒" d="M 101 771 L 212 737 C 197 713 186 689 178 667 C 170 645 164 620 160 593 L 153 545 L 1 545 L 7 593 C 12 630 22 662 36 690 C 50 718 72 745 101 771 Z" horiz-adv-x="0" />
<glyph unicode="̦" d="M -27 -266 L -142 -226 C -126 -203 -114 -181 -106 -160 C -98 -138 -92 -114 -89 -88 L -82 -40 L 71 -40 L 64 -88 C 59 -124 50 -155 36 -182 C 22 -209 1 -237 -27 -266 Z" horiz-adv-x="1" />
<glyph unicode="̧" d="M -12 -255 C -25 -255 -38 -254 -51 -252 C -63 -250 -74 -247 -84 -244 L -71 -149 C -62 -153 -53 -157 -45 -159 C -37 -161 -29 -163 -22 -163 C -11 -163 -3 -160 2 -156 C 8 -151 11 -145 11 -137 C 11 -131 8 -126 4 -123 C 0 -119 -6 -118 -14 -118 L -25 -118 L -14 -40 L 3 -40 C 39 -40 69 -49 93 -67 C 116 -85 128 -109 128 -139 C 128 -173 115 -200 89 -222 C 63 -244 30 -255 -12 -255 Z" horiz-adv-x="0" />
<glyph unicode="̨" d="M -29 -220 C -85 -220 -129 -208 -162 -185 C -195 -161 -212 -130 -212 -92 C -212 -53 -194 -18 -158 11 C -122 41 -74 66 -13 85 L 2 0 C -18 0 -35 -5 -47 -15 C -59 -25 -65 -38 -65 -55 C -65 -67 -60 -78 -51 -86 C -41 -94 -28 -99 -12 -99 L -29 -220 Z" horiz-adv-x="0" />
<glyph unicode="Δ" d="M 12 0 L 332 658 L 613 658 L 744 0 L 12 0 Z M 325 190 L 463 190 L 421 396 L 325 190 Z" horiz-adv-x="756" />
<glyph unicode="μ" d="M 157 -210 L 10 -210 L 97 360 C 99 382 102 405 105 428 C 107 450 109 471 109 490 L 337 490 C 337 470 336 450 334 428 C 332 406 329 383 325 360 L 297 206 C 295 194 296 186 301 182 C 305 177 311 175 317 175 C 328 175 339 181 349 195 C 359 208 366 230 371 261 L 404 490 L 631 490 L 580 131 C 577 112 575 91 574 67 C 573 43 573 20 573 0 L 346 0 L 346 75 C 326 44 304 21 279 7 C 254 -6 227 -14 197 -14 C 190 -14 183 -13 177 -13 C 170 -12 163 -11 157 -10 L 157 -210 Z" horiz-adv-x="611" />
<glyph unicode="π" d="M 76 0 L 121 320 L 75 320 L 100 490 L 667 490 L 643 320 L 595 320 L 573 162 C 568 128 567 98 571 72 C 575 46 582 22 593 0 L 378 0 C 366 22 360 45 358 69 C 356 93 357 124 362 162 L 384 320 L 332 320 L 287 0 L 76 0 Z" horiz-adv-x="629" />
<glyph unicode="Ẁ" d="M 560 706 L 462 855 L 659 855 L 724 706 L 560 706 Z M 157 0 L 100 658 L 347 658 L 361 362 L 363 226 L 405 362 L 502 658 L 768 658 L 781 361 L 785 231 L 826 361 L 923 658 L 1151 658 L 907 0 L 604 0 L 589 238 L 585 378 L 540 238 L 457 0 L 157 0 Z" horiz-adv-x="1071" />
<glyph unicode="ẁ" d="M 418 547 L 309 714 L 525 714 L 598 547 L 418 547 Z M 124 0 L 81 490 L 304 490 L 313 320 L 314 193 C 330 238 344 285 358 335 C 372 384 385 436 399 490 L 608 490 L 618 321 L 622 200 C 640 248 657 296 671 344 C 685 392 697 440 708 490 L 905 490 C 882 402 854 317 821 234 C 788 151 752 73 712 0 L 471 0 L 462 130 L 460 212 C 448 178 436 143 422 107 C 408 71 393 36 377 0 L 124 0 Z" horiz-adv-x="851" />
<glyph unicode="Ẃ" d="M 561 706 L 668 855 L 865 855 L 726 706 L 561 706 Z M 157 0 L 100 658 L 347 658 L 361 362 L 363 226 L 405 362 L 502 658 L 768 658 L 781 361 L 785 231 L 826 361 L 923 658 L 1151 658 L 907 0 L 604 0 L 589 238 L 585 378 L 540 238 L 457 0 L 157 0 Z" horiz-adv-x="1071" />
<glyph unicode="ẃ" d="M 416 547 L 535 714 L 750 714 L 595 547 L 416 547 Z M 124 0 L 81 490 L 304 490 L 313 320 L 314 193 C 330 238 344 285 358 335 C 372 384 385 436 399 490 L 608 490 L 618 321 L 622 200 C 640 248 657 296 671 344 C 685 392 697 440 708 490 L 905 490 C 882 402 854 317 821 234 C 788 151 752 73 712 0 L 471 0 L 462 130 L 460 212 C 448 178 436 143 422 107 C 408 71 393 36 377 0 L 124 0 Z" horiz-adv-x="851" />
<glyph unicode="Ẅ" d="M 483 711 L 502 846 L 638 846 L 619 711 L 483 711 Z M 664 711 L 683 846 L 818 846 L 799 711 L 664 711 Z M 157 0 L 100 658 L 347 658 L 361 362 L 363 226 L 405 362 L 502 658 L 768 658 L 781 361 L 785 231 L 826 361 L 923 658 L 1151 658 L 907 0 L 604 0 L 589 238 L 585 378 L 540 238 L 457 0 L 157 0 Z" horiz-adv-x="1071" />
<glyph unicode="ẅ" d="M 334 547 L 355 697 L 505 697 L 484 547 L 334 547 Z M 531 547 L 552 697 L 702 697 L 681 547 L 531 547 Z M 124 0 L 81 490 L 304 490 L 313 320 L 314 193 C 330 238 344 285 358 335 C 372 384 385 436 399 490 L 608 490 L 618 321 L 622 200 C 640 248 657 296 671 344 C 685 392 697 440 708 490 L 905 490 C 882 402 854 317 821 234 C 788 151 752 73 712 0 L 471 0 L 462 130 L 460 212 C 448 178 436 143 422 107 C 408 71 393 36 377 0 L 124 0 Z" horiz-adv-x="851" />
<glyph unicode="Ỳ" d="M 372 706 L 274 855 L 471 855 L 536 706 L 372 706 Z M 233 0 L 262 205 L 100 658 L 364 658 L 402 512 L 419 431 L 459 512 L 537 658 L 794 658 L 505 200 L 477 0 L 233 0 Z" horiz-adv-x="714" />
<glyph unicode="ỳ" d="M 289 541 L 180 708 L 396 708 L 469 541 L 289 541 Z M 441 -7 C 388 -77 324 -130 250 -166 C 175 -202 91 -220 -1 -220 L -18 -220 L 8 -42 L 24 -42 C 58 -42 91 -37 121 -28 C 151 -19 178 -6 203 10 L 130 23 L 79 490 L 315 490 L 326 320 L 332 139 C 352 188 369 241 383 298 C 397 354 410 418 422 490 L 628 490 C 610 384 585 290 554 208 C 523 125 485 53 441 -7 Z" horiz-adv-x="581" />
<glyph unicode=" " d="" horiz-adv-x="500" />
<glyph unicode=" " d="" horiz-adv-x="1000" />
<glyph unicode=" " d="" horiz-adv-x="650" />
<glyph unicode=" " d="" horiz-adv-x="0" />
<glyph unicode="‒" d="M 130 216 L 152 372 L 604 372 L 582 216 L 130 216 Z" horiz-adv-x="650" />
<glyph unicode="–" d="M 65 160 L 87 316 L 539 316 L 517 160 L 65 160 Z" horiz-adv-x="536" />
<glyph unicode="—" d="M 65 159 L 87 315 L 1026 315 L 1004 159 L 65 159 Z" horiz-adv-x="1023" />
<glyph unicode="―" d="M 65 160 L 87 316 L 367 316 L 345 160 L 65 160 Z" horiz-adv-x="360" />
<glyph unicode="‘" d="M 105 389 L 121 505 C 129 567 144 617 164 656 C 184 695 208 729 236 757 L 412 728 C 391 689 376 654 366 622 C 356 590 347 551 341 506 L 325 389 L 105 389 Z" horiz-adv-x="330" />
<glyph unicode="’" d="M 257 377 L 81 406 C 101 444 117 480 127 512 C 137 544 145 582 152 628 L 168 745 L 388 745 L 372 629 C 363 567 349 516 329 477 C 309 438 285 405 257 377 Z" horiz-adv-x="334" />
<glyph unicode="‚" d="M 182 -162 L 5 -134 C 25 -95 41 -60 51 -28 C 61 4 69 43 76 89 L 92 206 L 312 206 L 296 90 C 287 28 273 -22 253 -62 C 233 -101 209 -134 182 -162 Z" horiz-adv-x="334" />
<glyph unicode="“" d="M 105 388 L 121 505 C 129 566 144 616 164 656 C 184 695 208 728 236 756 L 412 728 C 391 689 376 654 366 622 C 356 590 347 551 341 505 L 325 388 L 105 388 Z M 381 388 L 398 505 C 406 566 421 616 441 656 C 461 695 485 728 513 756 L 688 728 C 668 689 652 654 642 622 C 632 590 624 551 618 505 L 601 388 L 381 388 Z" horiz-adv-x="606" />
<glyph unicode="”" d="M 257 377 L 81 406 C 101 444 117 480 127 512 C 137 544 145 582 152 628 L 168 745 L 388 745 L 372 629 C 363 567 349 516 329 477 C 309 438 285 405 257 377 Z M 532 377 L 355 406 C 375 444 391 480 401 512 C 411 544 419 582 426 628 L 443 745 L 663 745 L 646 629 C 637 567 623 516 603 477 C 583 438 559 405 532 377 Z" horiz-adv-x="608" />
<glyph unicode="„" d="M 182 -162 L 5 -134 C 25 -95 41 -60 51 -28 C 61 4 69 43 76 89 L 92 206 L 312 206 L 296 90 C 287 28 273 -22 253 -62 C 233 -101 209 -134 182 -162 Z M 451 -162 L 275 -134 C 295 -95 311 -60 321 -28 C 331 4 339 43 346 89 L 362 206 L 582 206 L 566 90 C 557 28 542 -22 522 -62 C 502 -101 478 -134 451 -162 Z" horiz-adv-x="603" />
<glyph unicode="†" d="M 138 0 L 202 400 L 79 392 L 106 582 L 227 574 L 239 716 L 455 716 L 427 574 L 550 582 L 523 392 L 402 400 L 354 0 L 138 0 Z" horiz-adv-x="494" />
<glyph unicode="‡" d="M 138 0 L 167 146 L 44 138 L 70 328 L 191 320 L 203 400 L 79 392 L 106 582 L 227 574 L 239 716 L 455 716 L 427 574 L 550 582 L 523 392 L 403 400 L 391 320 L 514 328 L 488 138 L 367 146 L 354 0 L 138 0 Z" horiz-adv-x="493" />
<glyph unicode="•" d="M 69 122 L 108 398 L 384 398 L 345 122 L 69 122 Z" horiz-adv-x="380" />
<glyph unicode="…" d="M 50 0 L 71 152 L 224 152 L 202 0 L 50 0 Z M 286 0 L 307 152 L 460 152 L 438 0 L 286 0 Z M 522 0 L 543 152 L 696 152 L 674 0 L 522 0 Z" horiz-adv-x="724" />
<glyph unicode="‰" d="M 278 347 C 222 347 178 362 148 393 C 117 424 102 465 102 515 C 102 579 121 630 159 670 C 197 710 247 730 309 730 C 365 730 408 714 439 683 C 469 652 485 611 485 561 C 485 497 465 446 427 406 C 389 366 339 347 278 347 Z M 216 0 L 631 716 L 787 716 L 372 0 L 216 0 Z M 288 482 C 300 482 311 488 319 501 C 327 514 331 532 331 554 C 331 566 327 576 321 584 C 315 591 307 595 299 595 C 286 595 276 588 268 575 C 260 562 256 545 256 523 C 256 510 259 500 265 493 C 271 485 279 482 288 482 Z M 696 -13 C 640 -13 596 2 566 33 C 535 64 520 105 520 155 C 520 219 539 270 577 310 C 615 350 665 370 727 370 C 783 370 826 354 857 323 C 887 292 903 251 903 201 C 903 198 903 195 903 192 C 903 188 902 185 902 183 C 908 239 929 284 967 318 C 1004 352 1051 370 1108 370 C 1164 370 1207 354 1238 323 C 1268 292 1284 251 1284 201 C 1284 137 1264 86 1226 46 C 1188 6 1138 -13 1077 -13 C 1021 -13 977 2 947 33 C 916 64 901 105 901 155 C 901 157 901 160 901 164 C 901 167 901 170 902 173 C 896 117 874 72 837 38 C 799 4 752 -13 696 -13 Z M 706 122 C 718 122 729 128 737 141 C 745 154 749 172 749 194 C 749 206 745 216 739 224 C 733 231 725 235 717 235 C 704 235 694 228 686 215 C 678 202 674 185 674 163 C 674 150 677 140 683 133 C 689 125 697 122 706 122 Z M 1087 122 C 1099 122 1110 128 1118 141 C 1126 154 1130 172 1130 194 C 1130 206 1126 216 1120 224 C 1114 231 1106 235 1098 235 C 1085 235 1075 228 1067 215 C 1059 202 1055 185 1055 163 C 1055 150 1058 140 1064 133 C 1070 125 1078 122 1087 122 Z" horiz-adv-x="1287" />
<glyph unicode="′" d="M 113 418 L 155 716 L 339 716 L 297 418 L 113 418 Z" horiz-adv-x="293" />
<glyph unicode="″" d="M 113 418 L 155 716 L 339 716 L 297 418 L 113 418 Z M 350 418 L 392 716 L 576 716 L 534 418 L 350 418 Z" horiz-adv-x="530" />
<glyph unicode="‹" d="M 149 51 L 51 226 L 198 402 L 416 402 L 270 226 L 367 51 L 149 51 Z" horiz-adv-x="390" />
<glyph unicode="›" d="M 37 51 L 184 226 L 86 402 L 304 402 L 403 226 L 255 51 L 37 51 Z" horiz-adv-x="401" />
<glyph unicode="⁄" d="M -142 0 L 273 716 L 429 716 L 14 0 L -142 0 Z" horiz-adv-x="188" />
<glyph unicode="⁰" d="M 285 427 C 229 427 185 442 155 473 C 124 504 109 545 109 595 C 109 659 128 710 166 750 C 204 790 254 810 316 810 C 372 810 415 794 446 763 C 476 732 492 691 492 641 C 492 577 472 526 434 486 C 396 446 346 427 285 427 Z M 295 562 C 307 562 318 568 326 581 C 334 594 338 612 338 634 C 338 646 334 656 328 664 C 322 671 314 675 306 675 C 293 675 283 668 275 655 C 267 642 263 625 263 603 C 263 590 266 580 272 573 C 278 565 286 562 295 562 Z" horiz-adv-x="428" />
<glyph unicode="⁴" d="M 237 440 L 244 490 L 95 490 L 110 595 L 256 796 L 429 796 L 400 591 L 435 591 L 421 489 L 386 489 L 379 440 L 237 440 Z M 258 591 L 273 695 L 200 591 L 258 591 Z" horiz-adv-x="372" />
<glyph unicode="⁵" d="M 222 426 C 199 426 176 427 153 430 C 130 433 107 438 84 444 L 100 560 C 118 552 136 547 154 543 C 172 539 190 538 210 538 C 222 538 230 539 236 542 C 242 545 245 550 245 557 C 245 563 241 568 234 572 C 227 575 215 577 197 577 C 181 577 165 576 150 575 C 134 574 118 573 102 571 L 148 800 L 412 800 L 395 683 L 239 683 L 235 655 C 241 655 247 656 254 656 C 260 656 266 657 271 657 C 311 657 342 649 364 633 C 386 617 398 593 398 561 C 398 518 382 485 350 461 C 318 437 276 426 222 426 Z" horiz-adv-x="343" />
<glyph unicode="⁶" d="M 272 429 C 221 429 181 442 151 470 C 121 498 107 535 107 582 C 107 650 129 705 174 748 C 218 791 274 813 340 813 C 358 813 376 811 394 808 C 412 805 429 801 445 797 L 430 688 C 416 693 402 697 387 700 C 372 703 357 705 342 705 C 323 705 307 701 295 695 C 282 688 272 678 264 664 C 272 669 281 673 291 676 C 301 678 313 680 326 680 C 362 680 390 671 411 653 C 432 635 443 610 443 578 C 443 536 426 500 394 472 C 361 443 320 429 272 429 Z M 271 534 C 279 534 286 538 292 546 C 297 554 300 564 300 576 C 300 584 298 591 294 597 C 290 603 284 606 278 606 C 270 606 263 602 257 596 C 251 589 248 580 247 570 C 246 559 248 550 252 544 C 256 537 263 534 271 534 Z" horiz-adv-x="385" />
<glyph unicode="⁷" d="M 107 440 L 242 670 L 117 670 L 135 800 L 434 800 L 421 711 L 266 440 L 107 440 Z" horiz-adv-x="345" />
<glyph unicode="⁸" d="M 259 426 C 209 426 169 434 140 452 C 111 469 97 493 97 523 C 97 543 103 560 116 576 C 128 592 146 604 170 613 C 153 623 140 635 132 648 C 124 660 120 675 120 691 C 120 727 135 755 167 777 C 198 799 239 810 289 810 C 337 810 376 801 404 784 C 432 767 447 744 447 715 C 447 696 441 679 429 664 C 417 648 400 636 379 627 C 397 616 410 604 419 590 C 427 576 432 560 432 544 C 432 508 416 479 385 458 C 354 436 312 426 259 426 Z M 281 667 L 294 663 C 298 667 302 672 305 678 C 308 684 310 690 310 697 C 310 704 307 710 303 714 C 298 718 292 721 285 721 C 276 721 269 718 264 713 C 259 708 257 701 257 693 C 257 686 259 681 263 677 C 267 673 273 669 281 667 Z M 235 545 C 235 538 237 532 243 528 C 248 524 255 522 264 522 C 273 522 280 524 285 529 C 290 534 293 540 293 548 C 293 554 290 560 285 565 C 279 570 272 574 263 577 L 255 579 C 249 575 244 570 240 564 C 236 558 235 551 235 545 Z" horiz-adv-x="381" />
<glyph unicode="⁹" d="M 223 426 C 202 426 182 427 163 430 C 144 433 128 437 114 443 L 129 551 C 143 546 157 542 172 539 C 187 535 202 534 218 534 C 236 534 252 537 266 544 C 279 551 290 562 298 577 C 290 571 280 567 270 564 C 259 561 247 560 234 560 C 198 560 169 568 148 586 C 127 604 117 629 117 662 C 117 704 133 739 166 767 C 198 795 239 810 288 810 C 338 810 378 796 408 769 C 438 741 453 704 453 657 C 453 586 431 530 388 488 C 345 446 290 426 223 426 Z M 282 634 C 290 634 296 637 302 644 C 308 650 311 659 313 670 C 313 680 311 689 307 696 C 303 702 297 706 289 706 C 280 706 273 701 268 693 C 262 685 260 675 260 664 C 260 655 262 648 266 642 C 270 636 275 634 282 634 Z" horiz-adv-x="386" />
<glyph unicode="ⁿ" d="M 92 440 L 128 697 C 130 712 131 729 133 747 C 134 765 135 783 136 800 L 303 800 L 303 742 C 315 764 330 781 350 793 C 370 804 391 810 413 810 C 447 810 474 798 494 775 C 514 752 520 722 514 685 L 491 542 C 488 525 486 507 484 489 C 482 470 481 454 481 440 L 311 440 C 311 456 311 472 313 490 C 315 507 317 524 320 542 L 339 644 C 340 652 339 659 337 663 C 334 667 330 669 324 669 C 316 669 308 664 300 654 C 292 644 287 625 283 598 L 261 440 L 92 440 Z" horiz-adv-x="447" />
<glyph unicode="₀" d="M 199 -183 C 143 -183 99 -167 69 -136 C 38 -105 23 -65 23 -15 C 23 49 42 100 80 140 C 118 180 168 200 230 200 C 286 200 329 184 360 153 C 390 122 406 81 406 31 C 406 -32 386 -83 348 -123 C 310 -163 260 -183 199 -183 Z M 209 -48 C 221 -48 232 -41 240 -28 C 248 -15 252 2 252 24 C 252 36 248 46 242 54 C 236 61 228 65 220 65 C 207 65 197 58 189 45 C 181 32 177 15 177 -7 C 177 -19 180 -29 186 -37 C 192 -44 200 -48 209 -48 Z" horiz-adv-x="428" />
<glyph unicode="₁" d="M 0 -170 L 17 -52 L 66 -52 L 82 64 L 32 60 L 49 179 L 267 197 L 233 -52 L 281 -52 L 264 -170 L 0 -170 Z" horiz-adv-x="311" />
<glyph unicode="₂" d="M -2 -170 L 19 -21 C 73 -9 113 2 138 14 C 162 25 175 38 175 53 C 175 61 171 68 163 72 C 155 76 143 78 127 78 C 112 78 96 75 80 71 C 63 67 48 61 34 55 L 52 180 C 72 186 94 191 117 195 C 139 199 162 201 184 201 C 231 201 268 191 296 173 C 323 155 337 130 337 100 C 337 66 323 37 297 13 C 270 -11 230 -32 178 -49 L 314 -49 L 297 -170 L -2 -170 Z" horiz-adv-x="349" />
<glyph unicode="₃" d="M 140 -184 C 114 -184 90 -182 67 -180 C 44 -177 21 -173 -2 -168 L 15 -50 C 30 -55 46 -59 62 -62 C 78 -65 96 -67 114 -67 C 128 -67 140 -65 148 -62 C 156 -59 161 -54 161 -48 C 161 -42 156 -37 147 -34 C 137 -31 124 -30 106 -30 L 79 -30 L 90 48 L 111 48 C 131 48 145 49 155 53 C 164 56 169 61 169 68 C 169 72 165 76 159 79 C 153 82 144 84 132 84 C 116 84 100 82 85 80 C 70 77 55 73 39 67 L 56 186 C 76 190 97 194 119 196 C 140 198 161 200 183 200 C 231 200 269 192 296 177 C 322 161 336 139 336 111 C 336 85 326 63 308 45 C 290 27 266 16 236 10 C 262 5 283 -4 297 -18 C 311 -32 319 -50 319 -71 C 319 -105 303 -133 271 -153 C 239 -173 195 -184 140 -184 Z" horiz-adv-x="354" />
<glyph unicode="₄" d="M 151 -170 L 158 -120 L 9 -120 L 24 -15 L 170 186 L 343 186 L 314 -19 L 349 -19 L 335 -121 L 300 -121 L 293 -170 L 151 -170 Z M 172 -19 L 187 85 L 114 -19 L 172 -19 Z" horiz-adv-x="370" />
<glyph unicode="₅" d="M 137 -184 C 114 -184 91 -182 68 -179 C 45 -176 22 -172 -1 -166 L 15 -50 C 33 -57 51 -62 69 -66 C 87 -70 105 -72 125 -72 C 137 -72 145 -70 151 -67 C 157 -64 160 -59 160 -53 C 160 -46 156 -41 149 -38 C 142 -34 130 -33 112 -33 C 96 -33 80 -33 65 -34 C 49 -35 33 -37 17 -39 L 63 190 L 327 190 L 310 73 L 154 73 L 150 45 C 156 45 162 46 169 46 C 175 46 181 47 186 47 C 226 47 257 39 279 23 C 301 7 313 -17 313 -49 C 313 -91 297 -124 265 -148 C 233 -172 191 -184 137 -184 Z" horiz-adv-x="345" />
<glyph unicode="₆" d="M 186 -181 C 135 -181 95 -167 65 -139 C 35 -111 21 -74 21 -28 C 21 40 43 95 88 138 C 132 181 188 203 254 203 C 272 203 290 201 308 198 C 326 195 343 191 359 187 L 344 78 C 330 83 316 87 301 90 C 286 93 271 95 256 95 C 237 95 221 91 209 85 C 196 78 186 68 178 54 C 186 59 195 63 205 66 C 215 68 227 70 240 70 C 276 70 304 61 325 43 C 346 25 357 0 357 -32 C 357 -74 340 -109 308 -138 C 275 -166 234 -181 186 -181 Z M 185 -76 C 193 -76 200 -72 206 -64 C 211 -56 214 -46 214 -34 C 214 -25 212 -18 208 -12 C 204 -6 198 -4 192 -4 C 184 -4 177 -7 171 -14 C 165 -20 162 -29 161 -40 C 160 -50 162 -59 166 -66 C 170 -72 177 -76 185 -76 Z" horiz-adv-x="385" />
<glyph unicode="₇" d="M 21 -170 L 156 60 L 31 60 L 49 190 L 348 190 L 335 101 L 180 -170 L 21 -170 Z" horiz-adv-x="343" />
<glyph unicode="₈" d="M 173 -184 C 123 -184 83 -175 54 -158 C 25 -140 11 -117 11 -87 C 11 -67 17 -49 30 -33 C 42 -17 60 -5 84 3 C 67 13 54 25 46 38 C 38 50 34 65 34 81 C 34 117 49 145 81 167 C 112 189 153 200 203 200 C 251 200 290 191 318 174 C 346 157 361 134 361 105 C 361 86 355 69 343 54 C 331 38 314 26 293 17 C 311 6 324 -6 333 -20 C 341 -34 346 -49 346 -66 C 346 -102 330 -130 299 -152 C 268 -173 226 -184 173 -184 Z M 195 57 L 208 53 C 212 57 216 62 219 68 C 222 74 224 80 224 87 C 224 94 221 100 217 104 C 212 108 206 111 199 111 C 190 111 183 108 178 103 C 173 98 171 91 171 83 C 171 76 173 71 177 67 C 181 63 187 59 195 57 Z M 149 -65 C 149 -71 151 -77 157 -81 C 162 -85 169 -88 178 -88 C 187 -88 194 -85 199 -80 C 204 -75 207 -69 207 -62 C 207 -55 204 -49 199 -44 C 193 -39 186 -35 177 -33 L 169 -31 C 163 -35 158 -40 154 -46 C 150 -52 149 -58 149 -65 Z" horiz-adv-x="378" />
<glyph unicode="₉" d="M 137 -184 C 116 -184 96 -182 77 -179 C 58 -176 42 -172 28 -167 L 43 -59 C 57 -63 71 -67 86 -71 C 101 -74 116 -76 132 -76 C 150 -76 166 -72 180 -65 C 193 -58 204 -47 212 -33 C 204 -38 194 -42 184 -45 C 173 -48 161 -50 148 -50 C 112 -50 83 -41 62 -23 C 41 -5 31 19 31 52 C 31 94 47 129 80 157 C 112 185 153 200 202 200 C 252 200 292 186 322 159 C 352 131 367 94 367 47 C 367 -23 345 -79 302 -121 C 259 -163 204 -184 137 -184 Z M 196 24 C 204 24 210 27 216 34 C 222 40 225 49 227 60 C 227 70 225 79 221 86 C 217 92 211 96 203 96 C 194 96 187 91 182 83 C 176 75 174 65 174 54 C 174 45 176 38 180 32 C 184 26 189 24 196 24 Z" horiz-adv-x="385" />
<glyph unicode="€" d="M 61 247 L 70 311 L 112 311 C 112 317 113 323 114 329 C 114 335 115 341 116 347 L 75 347 L 84 411 L 130 411 C 154 492 203 556 277 602 C 350 648 436 672 534 672 C 568 672 600 669 630 664 C 660 658 688 650 716 639 L 686 424 C 660 437 635 447 611 453 C 586 459 560 463 534 463 C 507 463 483 458 461 449 C 439 439 422 427 408 411 L 507 411 L 498 347 L 375 347 C 373 341 372 335 372 329 C 371 323 371 317 371 311 L 494 311 L 485 247 L 388 247 C 398 230 413 217 432 209 C 451 200 474 196 500 196 C 527 196 554 199 582 206 C 610 212 637 223 665 237 L 635 21 C 607 9 577 0 547 -5 C 517 -11 486 -14 454 -14 C 358 -14 280 8 219 53 C 158 97 123 162 114 247 L 61 247 Z" horiz-adv-x="680" />
<glyph unicode="₿" d="M 52 0 L 144 658 L 247 658 L 265 786 L 379 786 L 361 658 L 424 658 L 442 786 L 556 786 L 537 652 C 581 643 615 626 639 602 C 663 578 676 546 676 508 C 676 463 664 425 642 395 C 620 365 588 343 546 330 C 578 320 602 304 620 281 C 638 257 647 229 647 197 C 647 144 629 101 595 67 C 560 33 512 12 451 4 L 433 -124 L 319 -124 L 336 0 L 273 0 L 256 -124 L 142 -124 L 159 0 L 52 0 Z M 342 401 L 371 401 C 391 401 406 406 418 418 C 430 429 436 444 436 463 C 436 477 431 489 423 497 C 414 505 402 510 387 510 L 358 510 L 342 401 Z M 308 157 L 347 157 C 368 157 385 162 397 174 C 409 185 416 200 416 219 C 416 234 411 246 401 254 C 391 262 378 266 362 266 L 323 266 L 308 157 Z" horiz-adv-x="656" />
<glyph unicode="℗" d="M 406 86 C 312 86 236 112 179 166 C 121 219 93 290 93 379 C 93 477 127 559 195 625 C 263 691 345 724 441 724 C 535 724 610 697 668 644 C 725 591 754 520 754 431 C 754 332 719 250 651 184 C 583 118 501 86 406 86 Z M 405 189 C 472 189 528 211 574 256 C 619 300 642 356 642 422 C 642 483 624 531 588 567 C 552 603 503 621 442 621 C 374 621 318 598 272 554 C 226 510 204 454 204 388 C 204 326 222 278 258 242 C 294 206 343 189 405 189 Z M 286 242 L 333 573 L 475 573 C 509 573 536 562 556 542 C 576 522 587 496 587 465 C 587 427 573 395 546 370 C 519 344 485 332 443 332 L 409 332 L 396 242 L 286 242 Z M 421 418 L 433 418 C 446 418 456 421 463 428 C 470 435 474 445 474 458 C 474 467 471 474 466 479 C 461 484 453 487 443 487 L 431 487 L 421 418 Z" horiz-adv-x="735" />
<glyph unicode="™" d="M 150 402 L 180 614 L 112 614 L 127 716 L 384 716 L 370 614 L 304 614 L 274 402 L 150 402 Z M 367 402 L 411 716 L 587 716 L 597 589 L 640 716 L 822 716 L 778 402 L 657 402 L 684 595 L 616 419 L 510 419 L 492 591 L 465 402 L 367 402 Z" horiz-adv-x="752" />
<glyph unicode="∂" d="M 321 -20 C 241 -20 178 0 132 41 C 85 81 62 136 62 204 C 62 281 85 345 132 395 C 179 445 243 470 323 470 C 333 470 342 469 351 469 C 359 468 367 467 375 465 C 352 481 324 494 290 504 C 256 513 216 518 172 518 L 201 724 C 362 724 477 687 546 613 C 614 539 649 454 649 359 C 649 242 619 150 560 82 C 500 14 421 -20 321 -20 Z M 344 164 C 360 164 374 172 385 189 C 395 205 401 227 401 254 C 401 271 397 285 390 295 C 383 305 373 311 359 311 C 342 311 328 302 318 285 C 307 268 302 246 302 219 C 302 202 305 189 313 179 C 320 169 330 164 344 164 Z" horiz-adv-x="635" />
<glyph unicode="∏" d="M 52 0 L 144 658 L 747 658 L 655 0 L 399 0 L 463 458 L 372 458 L 308 0 L 52 0 Z" horiz-adv-x="707" />
<glyph unicode="∑" d="M 54 0 L 79 175 L 267 340 L 124 488 L 147 658 L 666 658 L 638 458 L 454 458 L 562 348 L 411 217 L 606 217 L 575 0 L 54 0 Z" horiz-adv-x="632" />
<glyph unicode="−" d="M 77 193 L 104 381 L 536 381 L 509 193 L 77 193 Z" horiz-adv-x="532" />
<glyph unicode="√" d="M 151 0 L 71 490 L 308 490 L 339 282 L 525 717 L 748 717 L 437 0 L 151 0 Z" horiz-adv-x="662" />
<glyph unicode="∞" d="M 247 -12 C 191 -12 146 7 112 47 C 78 86 62 140 62 208 C 62 299 86 372 134 428 C 182 483 247 511 330 511 C 374 511 412 501 445 483 C 478 464 506 434 528 394 C 556 433 586 462 618 482 C 650 501 686 511 726 511 C 780 511 823 491 855 452 C 887 412 904 357 904 286 C 904 200 880 128 833 72 C 785 16 724 -12 650 -12 C 604 -12 564 -2 530 18 C 496 38 467 67 445 105 C 417 67 387 38 356 18 C 325 -2 289 -12 247 -12 Z M 262 237 C 262 220 266 207 274 197 C 282 187 294 183 309 183 C 323 183 337 187 351 197 C 365 206 379 218 391 234 C 380 261 369 282 358 296 C 347 310 334 317 320 317 C 302 317 288 309 278 294 C 267 278 262 259 262 237 Z M 655 317 C 642 317 629 312 616 302 C 603 292 591 278 579 262 C 589 236 599 216 609 203 C 619 189 631 183 646 183 C 664 183 678 190 689 205 C 699 220 705 239 705 262 C 705 278 700 292 691 302 C 682 312 670 317 655 317 Z" horiz-adv-x="894" />
<glyph unicode="∫" d="M 95 -223 C 77 -223 59 -222 41 -220 C 23 -218 4 -214 -14 -210 L 10 -40 C 16 -42 23 -45 30 -47 C 36 -49 43 -50 50 -50 C 64 -50 76 -45 85 -36 C 93 -26 99 -14 102 2 L 172 538 C 180 602 205 650 247 682 C 289 713 341 729 403 729 C 421 729 439 728 457 726 C 475 724 493 720 511 716 L 488 546 C 481 548 474 551 468 553 C 461 555 454 556 448 556 C 433 556 421 551 413 542 C 404 532 398 520 396 505 L 326 -32 C 318 -94 293 -141 251 -174 C 209 -206 157 -223 95 -223 Z" horiz-adv-x="429" />
<glyph unicode="≈" d="M 109 316 L 124 494 C 136 508 151 520 170 528 C 188 536 207 540 226 540 C 242 540 257 537 272 532 C 287 527 301 522 313 518 C 323 513 336 509 351 505 C 366 501 381 499 396 499 C 412 499 429 502 447 508 C 465 514 480 522 492 533 L 477 356 C 465 341 450 329 430 321 C 410 312 389 308 369 308 C 352 308 337 310 323 314 C 309 318 297 323 285 328 C 272 333 258 338 244 343 C 229 347 215 350 201 350 C 185 350 168 347 152 341 C 136 335 121 326 109 316 Z M 79 65 L 93 242 C 105 256 121 268 139 276 C 157 284 176 289 195 289 C 211 289 226 286 241 281 C 256 276 270 271 283 266 C 293 262 306 257 321 253 C 336 249 351 247 366 247 C 382 247 399 250 417 256 C 434 262 448 270 460 281 L 446 104 C 435 89 420 77 400 69 C 380 60 359 56 339 56 C 322 56 306 58 292 62 C 278 66 265 71 255 76 C 242 80 228 85 214 90 C 199 95 185 98 171 98 C 155 98 138 95 122 89 C 106 83 91 75 79 65 Z" horiz-adv-x="484" />
<glyph unicode="≠" d="M 80 10 L 120 89 L 68 89 L 94 277 L 214 277 L 240 329 L 100 329 L 127 517 L 334 517 L 371 590 L 543 590 L 506 517 L 559 517 L 532 329 L 412 329 L 386 277 L 526 277 L 500 89 L 292 89 L 252 10 L 80 10 Z" horiz-adv-x="537" />
<glyph unicode="≤" d="M 257 68 L 94 297 L 323 525 L 570 525 L 340 298 L 505 68 L 257 68 Z M 36 -164 L 61 16 L 481 16 L 455 -164 L 36 -164 Z" horiz-adv-x="548" />
<glyph unicode="≥" d="M 64 68 L 293 298 L 128 525 L 375 525 L 539 297 L 312 68 L 64 68 Z M 33 -164 L 58 16 L 480 16 L 454 -164 L 33 -164 Z" horiz-adv-x="550" />
<glyph unicode="◊" d="M 376 -86 L 73 279 L 478 644 L 780 279 L 376 -86 Z M 411 165 L 530 279 L 443 393 L 324 279 L 411 165 Z" horiz-adv-x="777" />
<glyph unicode="✓" d="M 157 0 L 71 490 L 308 490 L 344 263 L 537 717 L 755 717 L 443 0 L 157 0 Z" horiz-adv-x="658" />
<glyph unicode="Ꞷ" d="M 46 0 L 73 191 L 222 191 L 225 216 C 184 230 151 253 126 286 C 101 319 89 358 89 402 C 89 485 121 551 186 600 C 251 649 336 674 440 674 C 535 674 613 652 673 610 C 733 568 763 510 763 437 C 763 385 745 338 709 298 C 673 257 625 229 567 215 L 563 191 L 713 191 L 686 0 L 389 0 L 429 283 C 448 287 466 300 482 321 C 498 341 506 364 506 388 C 506 412 498 432 483 447 C 468 461 449 469 425 469 C 397 469 375 459 358 440 C 341 421 333 397 333 367 C 333 345 338 327 348 313 C 358 298 369 288 382 283 L 342 0 L 46 0 Z" horiz-adv-x="732" />
<glyph unicode="" d="M 87 -266 L -28 -226 C -12 -203 0 -181 7 -160 C 15 -138 21 -114 25 -88 L 32 -40 L 185 -40 L 178 -88 C 173 -124 164 -155 150 -182 C 136 -209 115 -237 87 -266 Z" horiz-adv-x="220" />
<glyph unicode="" d="M 0 0 L 92 658 L 757 658 L 665 0 L 0 0 Z M 181 60 L 290 60 L 352 504 L 404 504 L 342 60 L 451 60 L 489 330 L 495 330 C 540 330 577 344 607 373 C 637 402 652 438 652 480 C 652 511 640 538 618 562 C 595 586 560 598 513 598 L 160 598 L 147 504 L 243 504 L 181 60 Z" horiz-adv-x="665" />
<glyph unicode="ﬁ" d="M 76 0 L 120 318 L 69 318 L 93 490 L 145 490 L 149 523 C 157 581 184 630 230 668 C 276 706 338 726 416 726 C 442 726 467 724 493 720 C 519 716 542 711 564 704 L 540 532 C 522 539 504 544 488 548 C 472 551 457 553 443 553 C 424 553 408 548 396 539 C 383 529 375 516 373 500 L 371 490 L 444 490 L 420 318 L 347 318 L 303 0 L 76 0 Z M 430 0 C 430 18 431 39 433 63 C 435 87 438 109 441 130 L 491 490 L 718 490 L 668 130 C 664 106 662 84 660 63 C 658 42 657 21 657 0 L 430 0 Z" horiz-adv-x="692" />
<glyph unicode="ﬂ" d="M 76 0 L 120 318 L 69 318 L 93 490 L 145 490 L 149 523 C 157 581 184 630 230 668 C 276 706 338 726 416 726 C 434 726 451 725 469 723 C 487 721 504 719 521 716 L 521 716 L 748 716 L 666 130 C 663 112 661 91 660 67 C 659 43 659 20 660 0 L 433 0 C 432 20 432 42 433 67 C 434 91 436 112 439 130 L 497 546 C 487 548 478 550 469 551 C 459 552 451 553 443 553 C 424 553 408 548 396 539 C 383 529 375 516 373 500 L 371 490 L 444 490 L 420 318 L 347 318 L 303 0 L 76 0 Z" horiz-adv-x="692" />
</font>
</defs>
</svg>
