<?xml version="1.0" encoding="utf-8" ?><svg version="1.1" xmlns = 'http://www.w3.org/2000/svg'><defs><font id='web' horiz-adv-x="1000">
<font-face font-family="web" descent="-268" cap-height="658" units-per-em="1000" bbox="-190,-341,1258,991" x-height="474" ascent="732" />
<missing-glyph horiz-adv-x="500" d="M 50 -268 L 450 -268 L 450 732 L 50 732 L 50 -268 Z M 100 -218 L 100 682 L 400 682 L 400 -218 L 100 -218 Z" /><glyph horiz-adv-x="200" d="" unicode=" " />
<glyph horiz-adv-x="282" d="M 59 221 L 59 708 L 223 708 L 223 221 L 59 221 Z M 59 0 L 59 148 L 223 148 L 223 0 L 59 0 Z" unicode="!" />
<glyph horiz-adv-x="437" d="M 58 439 L 58 716 L 192 716 L 192 439 L 58 439 Z M 245 439 L 245 716 L 379 716 L 379 439 L 245 439 Z" unicode="&#x22;" />
<glyph horiz-adv-x="620" d="M 50 83 L 50 224 L 135 224 L 149 321 L 66 321 L 66 462 L 168 462 L 182 563 L 307 563 L 293 462 L 378 462 L 392 563 L 516 563 L 502 462 L 571 462 L 571 321 L 483 321 L 469 224 L 555 224 L 555 83 L 450 83 L 436 -20 L 312 -20 L 326 83 L 241 83 L 227 -20 L 102 -20 L 116 83 L 50 83 Z M 260 224 L 345 224 L 359 321 L 274 321 L 260 224 Z" unicode="#" />
<glyph horiz-adv-x="555" d="M 210 -102 L 210 -10 C 184 -7 159 -2 133 3 C 107 9 82 18 58 29 L 58 192 C 88 175 119 162 152 154 C 184 145 217 141 250 141 C 272 141 289 145 302 154 C 314 162 321 175 321 191 C 321 205 314 218 302 229 C 290 239 271 248 246 256 L 219 263 C 162 278 119 303 91 338 C 63 372 49 414 49 464 C 49 514 63 556 92 591 C 120 626 160 650 210 662 L 210 762 L 350 762 L 350 667 C 371 664 392 660 414 655 C 436 650 457 643 478 635 L 478 473 C 450 487 422 499 392 507 C 362 515 332 519 304 519 C 282 519 266 515 254 508 C 242 500 236 489 236 474 C 236 460 241 449 253 439 C 265 429 282 420 306 414 L 333 407 C 391 391 435 365 464 331 C 492 296 507 255 507 207 C 507 153 493 108 465 72 C 437 36 399 11 350 -2 L 350 -102 L 210 -102 Z" unicode="$" />
<glyph horiz-adv-x="900" d="M 209 351 C 156 351 113 368 81 403 C 48 438 32 484 32 540 C 32 596 48 642 81 677 C 113 711 156 729 209 729 C 261 729 304 711 337 677 C 369 642 386 596 386 540 C 386 484 369 438 337 403 C 304 368 261 351 209 351 Z M 223 0 L 543 716 L 671 716 L 351 0 L 223 0 Z M 209 467 C 223 467 235 473 245 486 C 255 499 260 517 260 540 C 260 562 255 580 245 594 C 235 607 223 614 209 614 C 194 614 182 607 172 594 C 162 580 158 562 158 540 C 158 517 162 499 172 486 C 182 473 194 467 209 467 Z M 690 -9 C 637 -9 594 8 562 43 C 529 78 513 124 513 180 C 513 236 529 282 562 317 C 594 351 637 369 690 369 C 742 369 785 351 818 317 C 850 282 867 236 867 180 C 867 124 850 78 818 43 C 785 8 742 -9 690 -9 Z M 690 107 C 704 107 716 113 726 126 C 736 139 741 157 741 180 C 741 202 736 220 726 234 C 716 247 704 254 690 254 C 675 254 663 247 653 234 C 643 220 639 202 639 180 C 639 157 643 139 653 126 C 663 113 675 107 690 107 Z" unicode="%" />
<glyph horiz-adv-x="678" d="M 259 -14 C 188 -14 133 4 94 42 C 55 80 36 127 36 184 C 36 222 45 258 65 292 C 84 326 114 355 156 379 C 149 395 144 413 141 431 C 137 449 136 468 136 488 C 136 541 155 585 194 621 C 232 656 285 674 351 674 C 377 674 403 671 429 667 C 455 662 479 655 502 646 L 502 498 C 482 508 463 516 443 521 C 423 526 403 529 383 529 C 359 529 341 522 327 510 C 313 498 307 482 307 462 C 307 445 311 429 320 413 C 328 397 341 379 359 359 L 428 280 C 432 295 435 312 437 332 C 439 351 440 372 440 395 L 585 395 C 585 347 580 304 572 264 C 564 224 551 189 534 159 L 673 0 L 464 0 L 426 45 C 406 27 383 12 356 2 C 329 -8 297 -14 259 -14 Z M 196 204 C 196 181 203 163 217 149 C 231 135 250 129 275 129 C 286 129 297 131 307 135 C 317 139 326 144 334 152 L 230 273 C 218 264 210 254 204 243 C 198 231 196 218 196 204 Z" unicode="&#x26;" />
<glyph horiz-adv-x="250" d="M 58 438 L 58 716 L 192 716 L 192 438 L 58 438 Z" unicode="'" />
<glyph horiz-adv-x="423" d="M 223 -215 C 173 -153 135 -80 107 2 C 79 84 66 167 66 251 C 66 334 79 417 107 499 C 135 581 173 654 223 716 L 417 716 C 361 648 317 573 285 491 C 253 409 238 329 238 251 C 238 172 253 91 285 9 C 317 -72 361 -147 417 -215 L 223 -215 Z" unicode="(" />
<glyph horiz-adv-x="423" d="M 6 -215 C 62 -147 105 -72 137 9 C 169 91 185 172 185 251 C 185 329 169 409 137 491 C 105 573 62 648 6 716 L 200 716 C 249 654 287 581 315 499 C 343 417 357 334 357 251 C 357 167 343 84 315 2 C 287 -80 249 -153 200 -215 L 6 -215 Z" unicode=")" />
<glyph horiz-adv-x="593" d="M 227 -18 L 83 88 L 206 201 L 39 220 L 95 390 L 240 308 L 207 474 L 386 474 L 353 308 L 498 390 L 554 219 L 387 201 L 511 87 L 367 -19 L 296 135 L 227 -18 Z" unicode="*" />
<glyph horiz-adv-x="519" d="M 192 77 L 192 224 L 51 224 L 51 357 L 192 357 L 192 505 L 328 505 L 328 357 L 469 357 L 469 224 L 328 224 L 328 77 L 192 77 Z" unicode="+" />
<glyph horiz-adv-x="272" d="M 221 160 L 221 61 C 221 -1 211 -52 192 -93 C 173 -133 153 -164 131 -185 L 11 -152 C 27 -120 39 -88 48 -58 C 56 -28 61 10 61 56 L 61 160 L 221 160 Z" unicode="," />
<glyph horiz-adv-x="375" d="M 48 176 L 48 309 L 328 309 L 328 176 L 48 176 Z" unicode="-" />
<glyph horiz-adv-x="261" d="M 51 0 L 51 160 L 211 160 L 211 0 L 51 0 Z" unicode="." />
<glyph horiz-adv-x="511" d="M 26 0 L 337 716 L 485 716 L 174 0 L 26 0 Z" unicode="/" />
<glyph horiz-adv-x="640" d="M 320 -16 C 228 -16 160 15 114 77 C 68 139 45 223 45 329 C 45 435 68 520 114 582 C 160 644 228 676 320 676 C 412 676 481 645 527 583 C 573 521 596 437 596 331 C 596 224 573 139 527 77 C 481 15 412 -16 320 -16 Z M 320 144 C 352 144 377 159 393 190 C 409 220 417 267 417 329 C 417 391 409 437 393 469 C 377 500 352 516 320 516 C 287 516 263 500 247 469 C 231 438 224 392 224 331 C 224 269 231 222 247 191 C 263 159 287 144 320 144 Z" unicode="0" />
<glyph horiz-adv-x="400" d="M 134 0 L 134 487 L 31 477 L 31 648 L 310 676 L 310 0 L 134 0 Z" unicode="1" />
<glyph horiz-adv-x="537" d="M 48 0 L 48 208 L 102 226 C 162 246 212 275 254 311 C 296 347 317 384 317 424 C 317 453 307 475 289 490 C 270 505 247 513 220 513 C 191 513 162 508 134 499 C 106 489 79 476 55 459 L 55 631 C 79 645 107 656 141 664 C 174 672 207 676 240 676 C 317 676 378 656 423 618 C 467 580 490 527 490 460 C 490 393 468 335 424 286 C 380 237 327 201 265 179 L 227 164 L 490 164 L 490 0 L 48 0 Z" unicode="2" />
<glyph horiz-adv-x="533" d="M 259 -13 C 225 -13 189 -9 153 -1 C 116 6 81 16 47 30 L 47 197 C 72 181 100 168 132 160 C 163 151 194 147 225 147 C 250 147 270 151 286 161 C 301 170 309 184 309 203 C 309 222 299 237 280 247 C 261 257 236 262 204 262 L 161 262 L 161 400 L 197 400 C 228 400 253 405 271 416 C 289 426 299 442 299 463 C 299 480 292 493 278 502 C 264 510 245 515 222 515 C 195 515 167 511 139 504 C 110 496 84 486 62 473 L 62 638 C 90 650 120 659 152 665 C 184 671 215 675 247 675 C 318 675 374 658 415 626 C 455 594 476 552 476 501 C 476 463 466 428 448 398 C 429 368 399 346 359 334 C 401 322 432 302 454 273 C 475 243 486 210 486 172 C 486 116 465 71 425 37 C 384 3 329 -13 259 -13 Z" unicode="3" />
<glyph horiz-adv-x="613" d="M 321 0 L 321 136 L 40 136 L 40 258 L 250 662 L 491 662 L 491 284 L 570 284 L 570 135 L 491 135 L 491 0 L 321 0 Z M 321 284 L 321 500 L 209 284 L 321 284 Z" unicode="4" />
<glyph horiz-adv-x="548" d="M 249 -12 C 209 -12 173 -8 139 -1 C 105 5 75 15 47 28 L 47 183 C 75 168 106 157 140 151 C 173 144 205 141 237 141 C 263 141 284 146 299 157 C 314 167 322 183 322 203 C 322 223 313 238 297 249 C 281 260 258 266 230 266 C 200 266 169 264 138 261 C 107 257 77 252 48 246 L 73 662 L 480 662 L 480 496 L 210 496 L 204 408 C 214 409 224 410 235 411 C 245 412 255 413 263 413 C 337 413 395 396 437 360 C 479 324 501 273 501 207 C 501 142 479 89 435 49 C 391 8 329 -12 249 -12 Z" unicode="5" />
<glyph horiz-adv-x="597" d="M 304 -12 C 224 -12 161 16 115 72 C 68 128 45 208 45 314 C 45 421 72 508 128 576 C 183 643 255 677 345 677 C 372 677 401 674 431 669 C 461 664 489 657 517 647 L 517 493 C 493 503 467 512 440 518 C 413 524 387 528 362 528 C 328 528 299 517 276 496 C 252 474 236 443 226 401 C 239 416 256 427 276 435 C 296 442 319 446 345 446 C 405 446 455 427 494 390 C 532 353 552 301 552 234 C 552 153 528 92 481 50 C 434 8 375 -12 304 -12 Z M 301 140 C 324 140 343 147 357 163 C 371 179 379 199 379 225 C 379 249 372 269 359 285 C 345 301 327 309 305 309 C 282 309 264 302 251 290 C 238 278 229 261 223 241 C 223 208 231 183 245 166 C 259 148 277 140 301 140 Z" unicode="6" />
<glyph horiz-adv-x="551" d="M 106 0 L 322 495 L 43 495 L 43 662 L 509 662 L 509 528 L 292 0 L 106 0 Z" unicode="7" />
<glyph horiz-adv-x="596" d="M 298 -16 C 216 -16 153 2 111 38 C 68 74 47 120 47 176 C 47 208 55 237 72 263 C 88 289 112 311 144 329 C 116 348 94 371 80 398 C 65 424 58 454 58 488 C 58 542 78 587 120 624 C 161 660 220 679 298 679 C 374 679 432 662 474 628 C 516 594 537 551 537 500 C 537 469 529 442 514 418 C 499 394 476 373 446 357 C 478 337 504 313 522 285 C 540 257 549 224 549 188 C 549 128 527 79 483 41 C 439 3 377 -16 298 -16 Z M 300 412 L 311 409 C 327 416 341 426 351 439 C 361 451 367 465 367 480 C 367 500 360 516 348 528 C 336 540 319 546 298 546 C 277 546 260 540 247 529 C 234 517 228 502 228 484 C 228 468 234 453 248 440 C 261 427 278 418 300 412 Z M 218 196 C 218 175 225 157 239 143 C 253 129 272 122 297 122 C 323 122 342 128 356 141 C 369 153 376 170 376 192 C 376 210 368 226 354 238 C 340 250 320 259 296 266 L 273 272 L 270 273 C 254 264 242 253 232 239 C 222 225 218 210 218 196 Z" unicode="8" />
<glyph horiz-adv-x="596" d="M 252 -12 C 218 -12 186 -8 157 -1 C 127 6 99 15 71 27 L 71 181 C 99 166 128 155 156 148 C 184 141 210 138 235 138 C 271 138 301 148 325 170 C 349 192 365 225 374 269 C 361 252 344 240 323 232 C 302 224 278 220 252 220 C 191 220 141 238 103 275 C 64 312 45 364 45 432 C 45 512 68 572 115 614 C 161 656 220 677 292 677 C 371 677 434 649 481 595 C 527 541 551 459 551 351 C 551 243 523 156 468 89 C 413 21 341 -12 252 -12 Z M 294 358 C 316 358 334 363 346 375 C 358 387 368 404 375 427 C 374 457 367 482 353 500 C 339 518 320 527 296 527 C 272 527 254 519 240 504 C 226 489 219 468 219 442 C 219 417 225 397 239 381 C 253 365 271 358 294 358 Z" unicode="9" />
<glyph horiz-adv-x="261" d="M 51 284 L 51 444 L 211 444 L 211 284 L 51 284 Z M 51 0 L 51 160 L 211 160 L 211 0 L 51 0 Z" unicode=":" />
<glyph horiz-adv-x="276" d="M 67 285 L 67 445 L 227 445 L 227 285 L 67 285 Z M 227 160 L 227 61 C 227 -1 217 -52 198 -93 C 179 -133 159 -164 137 -185 L 17 -152 C 33 -120 45 -88 54 -58 C 62 -28 67 10 67 56 L 67 160 L 227 160 Z" unicode=";" />
<glyph horiz-adv-x="521" d="M 254 76 L 58 292 L 255 508 L 463 508 L 266 293 L 463 76 L 254 76 Z" unicode="&#x3C;" />
<glyph horiz-adv-x="534" d="M 58 334 L 58 467 L 476 467 L 476 334 L 58 334 Z M 58 128 L 58 261 L 476 261 L 476 128 L 58 128 Z" unicode="=" />
<glyph horiz-adv-x="521" d="M 58 76 L 255 293 L 58 508 L 266 508 L 463 292 L 267 76 L 58 76 Z" unicode="&#x3E;" />
<glyph horiz-adv-x="483" d="M 141 221 C 141 264 148 300 163 330 C 178 359 197 384 220 405 C 238 421 250 436 258 451 C 265 465 269 481 269 497 C 269 517 260 533 243 545 C 225 557 202 563 174 563 C 147 563 122 560 100 554 C 77 548 54 539 30 527 L 30 676 C 62 686 94 694 125 700 C 155 705 189 708 225 708 C 289 708 342 692 384 660 C 426 628 447 585 447 531 C 447 494 440 462 426 435 C 412 407 392 382 366 358 C 344 337 326 315 314 293 C 301 271 295 247 295 221 L 141 221 Z M 137 1 L 137 149 L 301 149 L 301 1 L 137 1 Z" unicode="?" />
<glyph horiz-adv-x="814" d="M 400 -79 C 304 -79 220 -47 149 16 C 78 80 43 166 43 274 C 43 380 79 467 152 533 C 224 599 310 632 409 632 C 507 632 591 603 663 546 C 735 488 771 412 771 317 C 771 249 753 197 719 160 C 685 123 644 105 597 105 C 569 105 545 110 524 121 C 503 132 485 150 471 175 C 458 151 442 134 422 122 C 402 110 379 105 353 105 C 317 105 287 118 264 145 C 241 172 230 206 230 247 C 230 309 249 358 289 394 C 328 430 374 449 426 449 C 446 449 469 446 494 441 C 519 436 541 430 560 422 L 542 278 C 539 254 542 234 552 218 C 562 202 577 195 597 195 C 620 195 638 205 651 225 C 664 245 671 274 671 313 C 671 373 647 426 599 470 C 551 514 487 537 409 537 C 329 537 265 510 216 458 C 167 406 143 345 143 276 C 143 204 166 143 214 93 C 261 43 323 18 400 18 C 431 18 461 21 491 29 C 521 36 549 47 577 62 L 577 -44 C 548 -55 519 -64 489 -70 C 459 -76 430 -79 400 -79 Z M 383 208 C 395 208 407 214 419 226 C 431 238 439 264 445 304 L 451 345 C 444 347 437 348 430 349 C 423 350 416 351 410 351 C 391 351 374 342 360 325 C 345 307 338 286 338 262 C 338 245 342 232 350 222 C 358 212 369 208 383 208 Z" unicode="@" />
<glyph horiz-adv-x="721" d="M 14 0 L 276 658 L 445 658 L 707 0 L 517 0 L 472 118 L 229 118 L 185 0 L 14 0 Z M 277 248 L 424 248 L 392 332 L 350 453 L 308 332 L 277 248 Z" unicode="A" />
<glyph horiz-adv-x="587" d="M 63 0 L 63 658 L 306 658 C 378 658 434 643 473 615 C 512 586 532 545 532 492 C 532 452 522 419 502 393 C 482 366 455 346 419 334 C 461 324 493 306 517 280 C 541 254 553 222 553 182 C 553 124 532 79 492 47 C 452 15 395 0 321 0 L 63 0 Z M 238 392 L 283 392 C 304 392 321 398 335 410 C 348 422 355 439 355 461 C 355 481 348 497 335 509 C 321 521 304 527 283 527 L 238 527 L 238 392 Z M 238 137 L 299 137 C 321 137 340 143 354 155 C 368 167 375 184 375 206 C 375 227 368 244 354 256 C 340 268 321 274 299 274 L 238 274 L 238 137 Z" unicode="B" />
<glyph horiz-adv-x="648" d="M 405 -14 C 294 -14 205 17 139 79 C 73 141 40 225 40 330 C 40 434 73 517 139 579 C 205 641 294 672 405 672 C 439 672 471 668 503 661 C 535 653 566 642 597 628 L 597 461 C 567 479 536 492 506 501 C 475 509 443 514 411 514 C 354 514 308 497 274 464 C 240 430 223 386 223 330 C 223 273 240 228 274 194 C 308 160 354 144 411 144 C 445 144 478 148 510 158 C 542 167 573 181 604 200 L 604 35 C 572 18 540 6 508 -2 C 475 -10 441 -14 405 -14 Z" unicode="C" />
<glyph horiz-adv-x="704" d="M 63 0 L 63 658 L 302 658 C 412 658 500 629 566 571 C 631 513 664 435 664 337 C 664 234 631 152 565 91 C 499 30 410 0 298 0 L 63 0 Z M 239 159 L 300 159 C 356 159 401 175 434 207 C 467 239 484 283 484 337 C 484 386 467 425 435 455 C 403 484 359 499 304 499 L 239 499 L 239 159 Z" unicode="D" />
<glyph horiz-adv-x="539" d="M 63 0 L 63 658 L 477 658 L 477 500 L 239 500 L 239 402 L 465 402 L 465 261 L 239 261 L 239 158 L 487 158 L 487 0 L 63 0 Z" unicode="E" />
<glyph horiz-adv-x="485" d="M 63 0 L 63 658 L 449 658 L 449 500 L 239 500 L 239 395 L 434 395 L 434 242 L 239 242 L 239 0 L 63 0 Z" unicode="F" />
<glyph horiz-adv-x="699" d="M 392 -14 C 285 -14 200 17 136 80 C 72 142 40 225 40 329 C 40 434 72 517 138 579 C 204 641 290 672 396 672 C 432 672 470 668 508 662 C 546 656 581 647 615 635 L 615 471 C 582 485 548 495 514 502 C 480 509 444 513 406 513 C 352 513 307 496 273 464 C 238 431 221 387 221 332 C 221 274 236 227 268 193 C 299 159 340 142 390 142 C 407 142 423 143 438 145 C 453 147 468 150 483 155 L 483 244 L 371 244 L 371 385 L 654 385 L 654 33 C 614 17 573 6 529 -2 C 485 -10 440 -14 392 -14 Z" unicode="G" />
<glyph horiz-adv-x="715" d="M 63 0 L 63 658 L 239 658 L 239 410 L 477 410 L 477 658 L 653 658 L 653 0 L 477 0 L 477 251 L 239 251 L 239 0 L 63 0 Z" unicode="H" />
<glyph horiz-adv-x="301" d="M 63 0 L 63 658 L 239 658 L 239 0 L 63 0 Z" unicode="I" />
<glyph horiz-adv-x="303" d="M -20 -215 L -32 -215 L -32 -64 L -20 -64 C 6 -64 26 -55 41 -39 C 56 -23 64 0 64 31 L 64 658 L 240 658 L 240 31 C 240 -43 217 -102 173 -147 C 128 -192 64 -215 -20 -215 Z" unicode="J" />
<glyph horiz-adv-x="693" d="M 63 0 L 63 658 L 239 658 L 239 361 L 467 658 L 664 658 L 413 344 L 676 0 L 461 0 L 239 300 L 239 0 L 63 0 Z" unicode="K" />
<glyph horiz-adv-x="512" d="M 63 0 L 63 658 L 239 658 L 239 160 L 487 160 L 487 0 L 63 0 Z" unicode="L" />
<glyph horiz-adv-x="882" d="M 63 0 L 63 658 L 319 658 L 402 443 L 442 328 L 483 444 L 566 658 L 820 658 L 820 0 L 645 0 L 645 341 L 650 476 L 600 341 L 497 88 L 373 88 L 269 342 L 218 478 L 224 341 L 224 0 L 63 0 Z" unicode="M" />
<glyph horiz-adv-x="747" d="M 63 0 L 63 658 L 260 658 L 474 334 L 526 248 L 523 333 L 523 658 L 684 658 L 684 0 L 491 0 L 273 327 L 221 413 L 224 328 L 224 0 L 63 0 Z" unicode="N" />
<glyph horiz-adv-x="786" d="M 393 -17 C 285 -17 200 14 136 78 C 72 142 40 225 40 329 C 40 433 72 516 137 580 C 202 643 287 675 393 675 C 498 675 583 643 648 581 C 713 519 746 435 746 329 C 746 223 714 139 650 77 C 586 14 500 -17 393 -17 Z M 393 141 C 445 141 486 158 518 192 C 549 226 565 271 565 329 C 565 387 549 433 518 467 C 486 501 445 518 393 518 C 341 518 299 501 268 467 C 236 433 221 387 221 329 C 221 271 236 226 268 192 C 299 158 341 141 393 141 Z" unicode="O" />
<glyph horiz-adv-x="573" d="M 63 0 L 63 658 L 285 658 C 364 658 427 636 473 592 C 519 548 543 492 543 425 C 543 356 519 300 472 256 C 425 212 362 190 283 190 L 239 190 L 239 0 L 63 0 Z M 239 338 L 275 338 C 302 338 324 345 341 361 C 357 377 366 398 366 425 C 366 449 357 469 341 484 C 324 499 302 507 274 507 L 239 507 L 239 338 Z" unicode="P" />
<glyph horiz-adv-x="787" d="M 393 -17 C 285 -17 200 14 136 78 C 72 142 40 225 40 329 C 40 433 72 516 137 580 C 202 643 287 675 393 675 C 498 675 583 643 648 581 C 713 519 746 435 746 329 C 746 262 732 203 706 153 C 680 102 643 62 596 34 C 616 21 637 10 659 1 C 681 -8 703 -15 726 -20 L 634 -162 C 591 -147 550 -127 512 -103 C 473 -78 437 -49 403 -17 C 401 -17 399 -17 397 -17 C 395 -17 394 -17 393 -17 Z M 393 141 C 445 141 486 158 518 192 C 549 226 565 271 565 329 C 565 387 549 433 518 467 C 486 501 445 518 393 518 C 341 518 299 501 268 467 C 236 433 221 387 221 329 C 221 271 236 226 268 192 C 299 158 341 141 393 141 Z" unicode="Q" />
<glyph horiz-adv-x="619" d="M 414 0 L 347 186 C 339 209 328 226 316 237 C 304 248 289 254 271 254 L 239 254 L 239 0 L 63 0 L 63 658 L 320 658 C 382 658 434 642 474 610 C 514 578 534 535 534 481 C 534 440 523 405 501 376 C 479 347 446 326 404 314 C 434 307 460 295 480 277 C 500 259 515 235 526 206 L 604 0 L 414 0 Z M 239 379 L 286 379 C 308 379 325 385 338 399 C 351 412 358 429 358 451 C 358 471 351 488 338 501 C 325 514 308 521 286 521 L 239 521 L 239 379 Z" unicode="R" />
<glyph horiz-adv-x="543" d="M 254 -13 C 221 -13 187 -9 153 -2 C 118 4 84 15 52 29 L 52 192 C 82 175 113 162 146 154 C 178 145 211 141 244 141 C 266 141 283 145 296 154 C 308 162 315 175 315 191 C 315 205 308 218 296 229 C 284 239 265 248 240 256 L 213 263 C 156 278 113 303 85 338 C 57 372 43 414 43 464 C 43 526 64 576 108 614 C 151 652 209 671 283 671 C 313 671 345 668 377 662 C 409 656 441 647 472 635 L 472 473 C 444 487 416 499 386 507 C 356 515 326 519 298 519 C 276 519 260 515 248 508 C 236 500 230 489 230 474 C 230 460 235 449 247 439 C 259 429 276 420 300 414 L 327 407 C 385 391 429 365 458 331 C 486 296 501 255 501 207 C 501 137 478 83 434 45 C 389 6 329 -13 254 -13 Z" unicode="S" />
<glyph horiz-adv-x="574" d="M 199 0 L 199 498 L 20 498 L 20 658 L 554 658 L 554 498 L 375 498 L 375 0 L 199 0 Z" unicode="T" />
<glyph horiz-adv-x="691" d="M 349 -12 C 260 -12 189 13 136 63 C 82 113 56 180 56 264 L 56 658 L 238 658 L 238 272 C 238 238 248 210 269 188 C 289 166 317 156 352 156 C 387 156 415 166 435 188 C 455 210 465 238 465 272 L 465 658 L 635 658 L 635 264 C 635 180 608 113 556 63 C 503 13 434 -12 349 -12 Z" unicode="U" />
<glyph horiz-adv-x="710" d="M 273 0 L 14 658 L 204 658 L 326 326 L 363 213 L 400 326 L 522 658 L 696 658 L 437 0 L 273 0 Z" unicode="V" />
<glyph horiz-adv-x="1040" d="M 211 0 L 14 658 L 199 658 L 290 326 L 317 207 L 345 326 L 436 658 L 617 658 L 707 326 L 735 213 L 762 326 L 852 658 L 1027 658 L 827 0 L 632 0 L 547 304 L 519 430 L 489 304 L 404 0 L 211 0 Z" unicode="W" />
<glyph horiz-adv-x="708" d="M 16 0 L 249 334 L 25 658 L 240 658 L 328 524 L 362 468 L 396 524 L 484 658 L 681 658 L 459 339 L 693 0 L 478 0 L 383 146 L 346 207 L 309 147 L 213 0 L 16 0 Z" unicode="X" />
<glyph horiz-adv-x="674" d="M 251 0 L 251 235 L 11 658 L 215 658 L 310 475 L 347 397 L 385 475 L 478 658 L 663 658 L 427 237 L 427 0 L 251 0 Z" unicode="Y" />
<glyph horiz-adv-x="631" d="M 46 0 L 46 99 L 283 435 L 330 498 L 54 498 L 54 658 L 585 658 L 585 559 L 350 223 L 303 160 L 585 160 L 585 0 L 46 0 Z" unicode="Z" />
<glyph horiz-adv-x="395" d="M 70 -215 L 70 716 L 349 716 L 349 583 L 230 583 L 230 -82 L 349 -82 L 349 -215 L 70 -215 Z" unicode="[" />
<glyph horiz-adv-x="499" d="M 331 0 L 20 716 L 168 716 L 479 0 L 331 0 Z" unicode="\" />
<glyph horiz-adv-x="395" d="M 46 -215 L 46 -82 L 165 -82 L 165 583 L 46 583 L 46 716 L 325 716 L 325 -215 L 46 -215 Z" unicode="]" />
<glyph horiz-adv-x="309" d="M 116 524 L -4 524 L 90 686 L 224 686 L 318 524 L 194 524 L 155 593 L 116 524 Z" unicode="^" />
<glyph horiz-adv-x="448" d="M 0 -210 L 0 -85 L 448 -85 L 448 -210 L 0 -210 Z" unicode="_" />
<glyph horiz-adv-x="243" d="M 72 524 L -50 678 L 116 678 L 217 524 L 72 524 Z" unicode="`" />
<glyph horiz-adv-x="509" d="M 175 -11 C 132 -11 97 1 70 27 C 43 53 30 86 30 126 C 30 173 46 209 78 234 C 110 259 156 277 216 288 L 299 302 L 299 314 C 299 328 291 340 276 348 C 261 356 239 360 210 360 C 183 360 156 356 130 348 C 104 340 79 330 55 317 L 55 455 C 84 465 115 473 147 480 C 179 486 213 490 247 490 C 316 490 370 475 410 445 C 449 415 469 374 469 322 L 469 0 L 310 0 L 300 59 C 287 36 270 19 248 7 C 226 -5 202 -11 175 -11 Z M 244 113 C 256 113 267 116 277 122 C 287 128 294 136 299 147 L 299 211 L 248 203 C 233 200 221 194 213 186 C 204 178 200 167 200 153 C 200 140 204 130 212 123 C 220 116 231 113 244 113 Z" unicode="a" />
<glyph horiz-adv-x="545" d="M 255 -11 C 219 -11 184 -8 149 -2 C 114 4 79 13 45 26 L 45 716 L 215 716 L 215 427 C 229 443 247 457 268 468 C 289 479 313 485 341 485 C 397 485 440 463 471 421 C 502 378 518 321 518 251 C 518 171 494 107 446 60 C 398 12 335 -11 255 -11 Z M 263 128 C 289 128 309 137 324 156 C 338 174 346 200 346 233 C 346 265 339 291 327 309 C 314 327 295 336 271 336 C 261 336 252 334 242 331 C 232 328 223 324 215 319 L 215 135 C 222 132 230 130 238 129 C 246 128 255 128 263 128 Z" unicode="b" />
<glyph horiz-adv-x="454" d="M 280 -11 C 202 -11 141 10 95 54 C 49 98 27 157 27 233 C 27 309 49 370 95 415 C 140 460 201 483 279 483 C 301 483 324 480 348 475 C 371 470 393 463 414 454 L 414 300 C 395 310 376 319 357 325 C 337 331 318 334 299 334 C 269 334 245 325 227 308 C 209 291 201 267 201 237 C 201 205 210 181 228 164 C 246 146 271 138 303 138 C 322 138 342 141 362 149 C 382 156 400 166 418 179 L 418 25 C 396 14 374 5 350 -1 C 326 -7 302 -11 280 -11 Z" unicode="c" />
<glyph horiz-adv-x="548" d="M 211 -10 C 156 -10 112 11 78 55 C 44 98 27 155 27 226 C 27 303 47 365 87 412 C 127 459 178 483 242 483 C 257 483 273 480 289 476 C 305 472 320 466 333 459 L 333 716 L 503 716 L 503 0 L 343 0 L 334 64 C 321 41 304 23 283 10 C 261 -3 237 -10 211 -10 Z M 274 137 C 284 137 295 139 305 145 C 315 150 325 157 333 166 L 333 327 C 326 331 318 335 308 338 C 298 340 289 342 281 342 C 256 342 236 332 222 313 C 208 294 201 269 201 237 C 201 207 207 182 220 164 C 233 146 251 137 274 137 Z" unicode="d" />
<glyph horiz-adv-x="512" d="M 281 -13 C 201 -13 139 9 94 54 C 49 99 27 160 27 238 C 27 313 48 373 91 419 C 133 464 192 487 267 487 C 337 487 391 463 429 415 C 466 367 485 301 485 217 L 485 193 L 201 193 C 203 169 215 152 235 140 C 255 128 283 122 319 122 C 343 122 369 125 395 132 C 421 139 446 150 472 164 L 472 23 C 439 11 406 2 374 -4 C 341 -10 310 -13 281 -13 Z M 262 372 C 242 372 227 365 217 351 C 207 337 201 316 200 289 L 319 289 C 319 317 314 337 304 351 C 294 365 280 372 262 372 Z" unicode="e" />
<glyph horiz-adv-x="354" d="M 81 0 L 81 331 L 22 331 L 22 474 L 81 474 L 81 526 C 81 585 100 633 138 671 C 176 708 228 727 293 727 C 315 727 336 725 358 722 C 379 719 400 714 421 708 L 421 559 C 406 564 390 568 374 572 C 358 575 343 577 329 577 C 305 577 286 571 272 559 C 258 547 251 529 251 506 L 251 474 L 333 474 L 333 331 L 251 331 L 251 0 L 81 0 Z" unicode="f" />
<glyph horiz-adv-x="547" d="M 258 -220 C 222 -220 187 -217 155 -211 C 122 -205 90 -196 60 -184 L 60 -38 C 84 -53 110 -65 136 -73 C 162 -81 188 -86 213 -86 C 239 -86 265 -79 292 -66 C 318 -53 332 -28 332 10 L 332 41 C 318 24 302 11 282 2 C 262 -6 241 -11 220 -11 C 159 -11 112 10 78 53 C 44 96 27 154 27 228 C 27 309 49 372 95 418 C 140 464 196 487 262 487 C 287 487 312 481 338 470 C 363 458 383 443 397 424 L 430 474 L 502 474 L 502 25 C 502 -57 477 -119 429 -159 C 381 -199 324 -220 258 -220 Z M 273 133 C 283 133 294 134 304 138 C 314 142 323 147 331 153 L 331 328 C 323 330 315 333 306 335 C 297 337 288 338 280 338 C 254 338 235 327 221 307 C 207 287 201 262 201 234 C 201 203 207 178 219 160 C 231 142 249 133 273 133 Z" unicode="g" />
<glyph horiz-adv-x="541" d="M 45 0 L 45 716 L 215 716 L 215 414 C 229 436 248 453 271 466 C 293 478 319 485 348 485 C 393 485 430 470 458 440 C 486 410 500 369 500 317 L 500 0 L 330 0 L 330 279 C 330 298 325 313 316 323 C 306 333 293 338 277 338 C 264 338 252 335 242 329 C 232 323 223 315 215 304 L 215 0 L 45 0 Z" unicode="h" />
<glyph horiz-adv-x="265" d="M 48 563 L 48 716 L 218 716 L 218 563 L 48 563 Z M 48 0 L 48 474 L 218 474 L 218 0 L 48 0 Z" unicode="i" />
<glyph horiz-adv-x="260" d="M 45 563 L 45 716 L 215 716 L 215 563 L 45 563 Z M -39 -215 L -47 -215 L -47 -71 L -39 -71 C -13 -71 6 -62 22 -46 C 37 -30 45 -8 45 18 L 45 474 L 215 474 L 215 17 C 215 -52 191 -108 145 -151 C 99 -193 37 -215 -39 -215 Z" unicode="j" />
<glyph horiz-adv-x="550" d="M 45 0 L 45 716 L 215 716 L 215 280 L 347 474 L 534 474 L 376 252 L 541 0 L 345 0 L 215 204 L 215 0 L 45 0 Z" unicode="k" />
<glyph horiz-adv-x="260" d="M 45 0 L 45 716 L 215 716 L 215 0 L 45 0 Z" unicode="l" />
<glyph horiz-adv-x="822" d="M 45 0 L 45 474 L 215 474 L 215 413 C 230 435 248 453 270 466 C 292 478 318 485 349 485 C 379 485 406 477 429 463 C 451 449 469 430 481 406 C 503 436 527 457 551 468 C 575 479 600 485 627 485 C 672 485 709 470 738 440 C 766 410 781 369 781 317 L 781 0 L 611 0 L 611 279 C 611 298 606 313 596 323 C 586 333 573 338 559 338 C 547 338 535 335 525 330 C 514 324 505 317 498 308 L 498 0 L 328 0 L 328 279 C 328 298 323 313 314 323 C 304 333 292 338 276 338 C 263 338 251 335 241 329 C 231 323 222 315 215 304 L 215 0 L 45 0 Z" unicode="m" />
<glyph horiz-adv-x="541" d="M 45 0 L 45 474 L 215 474 L 215 413 C 229 435 248 453 271 466 C 293 478 320 485 350 485 C 394 485 430 470 458 440 C 486 410 500 369 500 317 L 500 0 L 330 0 L 330 279 C 330 298 325 313 316 323 C 306 333 293 338 277 338 C 264 338 252 335 242 329 C 232 323 223 315 215 304 L 215 0 L 45 0 Z" unicode="n" />
<glyph horiz-adv-x="558" d="M 279 -14 C 203 -14 142 9 96 55 C 50 101 27 162 27 238 C 27 313 50 373 96 419 C 142 465 203 488 279 488 C 355 488 416 465 462 420 C 508 375 531 315 531 240 C 531 163 508 101 462 55 C 416 9 355 -14 279 -14 Z M 279 135 C 302 135 321 144 335 162 C 349 180 357 205 357 237 C 357 269 349 294 335 312 C 321 330 302 340 279 340 C 255 340 236 331 222 313 C 208 295 201 270 201 238 C 201 206 208 180 222 162 C 236 144 255 135 279 135 Z" unicode="o" />
<glyph horiz-adv-x="545" d="M 45 -199 L 45 474 L 215 474 L 215 418 C 229 438 246 455 268 467 C 290 479 316 485 347 485 C 399 485 441 463 472 420 C 502 376 518 320 518 251 C 518 171 496 108 454 60 C 412 12 356 -11 287 -11 C 276 -11 264 -10 251 -8 C 238 -6 226 -3 215 -1 L 215 -199 L 45 -199 Z M 264 130 C 289 130 309 139 324 157 C 338 175 346 202 346 236 C 346 268 339 293 327 311 C 314 329 295 338 271 338 C 261 338 251 336 241 332 C 231 328 222 323 215 317 L 215 138 C 223 135 231 133 239 132 C 247 130 255 130 264 130 Z" unicode="p" />
<glyph horiz-adv-x="547" d="M 332 -199 L 332 39 C 317 22 300 9 280 1 C 260 -6 239 -11 217 -11 C 160 -11 114 10 79 54 C 44 98 27 156 27 228 C 27 306 48 368 91 415 C 134 461 190 485 260 485 C 286 485 312 479 338 467 C 364 455 384 441 398 424 L 431 474 L 502 474 L 502 -199 L 332 -199 Z M 272 135 C 284 135 295 136 305 140 C 315 144 323 148 331 154 L 331 327 C 323 330 315 333 306 335 C 296 337 287 338 279 338 C 254 338 235 328 221 310 C 207 291 200 266 200 235 C 200 204 206 180 219 162 C 232 144 250 135 272 135 Z" unicode="q" />
<glyph horiz-adv-x="381" d="M 45 0 L 45 474 L 215 474 L 215 402 C 228 431 244 452 262 465 C 280 478 300 485 321 485 C 329 485 337 484 345 483 C 353 482 360 480 368 478 L 368 310 C 355 315 343 319 331 322 C 319 324 307 326 293 326 C 279 326 265 323 251 319 C 237 314 225 308 215 301 L 215 0 L 45 0 Z" unicode="r" />
<glyph horiz-adv-x="449" d="M 215 -13 C 186 -13 156 -10 126 -6 C 96 -1 67 5 39 13 L 39 150 C 63 137 89 127 116 120 C 142 113 169 110 196 110 C 210 110 220 112 228 116 C 236 120 240 127 240 136 C 240 142 237 148 231 153 C 225 158 215 163 201 168 L 170 176 C 120 190 85 210 63 235 C 41 259 30 291 30 330 C 30 378 46 416 78 444 C 110 472 158 487 223 487 C 250 487 278 484 308 480 C 337 476 365 470 393 464 L 393 332 C 369 343 345 352 321 358 C 297 364 273 367 250 367 C 236 367 226 365 219 361 C 212 357 209 351 209 343 C 209 336 211 330 217 325 C 222 320 232 315 246 311 L 277 303 C 327 289 363 269 386 244 C 408 218 420 187 420 150 C 420 101 402 62 368 32 C 334 2 283 -13 215 -13 Z" unicode="s" />
<glyph horiz-adv-x="364" d="M 221 -11 C 177 -11 142 2 117 28 C 92 54 80 90 80 136 L 80 331 L 22 331 L 22 474 L 80 474 L 80 605 L 250 605 L 250 474 L 333 474 L 333 331 L 250 331 L 250 187 C 250 172 253 160 261 152 C 269 144 279 140 292 140 C 300 140 307 141 315 143 C 322 145 329 149 337 154 L 337 10 C 318 2 299 -2 279 -6 C 259 -9 239 -11 221 -11 Z" unicode="t" />
<glyph horiz-adv-x="541" d="M 196 -12 C 149 -12 111 3 83 34 C 55 64 41 106 41 158 L 41 474 L 211 474 L 211 195 C 211 177 216 162 226 152 C 236 141 249 136 265 136 C 277 136 289 138 300 144 C 310 150 319 158 326 169 L 326 474 L 496 474 L 496 0 L 335 0 L 326 61 C 311 38 292 20 270 7 C 247 -5 222 -12 196 -12 Z" unicode="u" />
<glyph horiz-adv-x="539" d="M 166 0 L 11 474 L 193 474 L 250 279 L 279 166 L 309 279 L 366 474 L 528 474 L 373 0 L 166 0 Z" unicode="v" />
<glyph horiz-adv-x="842" d="M 152 0 L 11 474 L 185 474 L 237 279 L 264 161 L 291 279 L 343 474 L 506 474 L 560 279 L 590 163 L 620 279 L 677 474 L 831 474 L 681 0 L 488 0 L 447 155 L 417 275 L 387 155 L 346 0 L 152 0 Z" unicode="w" />
<glyph horiz-adv-x="543" d="M 11 0 L 175 240 L 17 474 L 209 474 L 258 394 L 276 361 L 293 394 L 343 474 L 521 474 L 366 244 L 532 0 L 335 0 L 283 82 L 264 117 L 245 82 L 193 0 L 11 0 Z" unicode="x" />
<glyph horiz-adv-x="538" d="M 34 -215 L 26 -215 L 26 -66 L 34 -66 C 80 -66 114 -61 137 -53 C 160 -44 179 -28 194 -6 L 167 9 L 11 474 L 193 474 L 248 279 L 278 151 L 309 279 L 364 474 L 527 474 L 393 61 C 359 -44 314 -116 260 -156 C 205 -195 130 -215 34 -215 Z" unicode="y" />
<glyph horiz-adv-x="486" d="M 34 0 L 34 98 L 169 273 L 215 330 L 38 330 L 38 474 L 445 474 L 445 376 L 310 201 L 264 144 L 452 144 L 452 0 L 34 0 Z" unicode="z" />
<glyph horiz-adv-x="487" d="M 403 -215 C 323 -215 263 -198 223 -165 C 183 -132 165 -85 170 -24 L 177 84 C 178 112 168 134 147 151 C 125 167 94 179 53 185 L 53 316 C 94 322 125 334 147 350 C 168 366 178 389 177 418 L 170 525 C 165 586 183 633 223 666 C 263 699 323 716 403 716 L 440 716 L 440 584 L 424 584 C 393 584 370 576 354 561 C 338 545 332 522 335 491 L 341 410 C 344 368 335 334 313 307 C 291 280 260 262 220 252 L 220 250 C 259 238 290 218 312 191 C 334 164 343 131 341 91 L 334 11 C 331 -21 338 -44 354 -60 C 370 -75 393 -83 424 -83 L 440 -83 L 440 -215 L 403 -215 Z" unicode="{" />
<glyph horiz-adv-x="276" d="M 70 -215 L 70 716 L 206 716 L 206 -215 L 70 -215 Z" unicode="|" />
<glyph horiz-adv-x="487" d="M 48 -215 L 48 -83 L 64 -83 C 94 -83 117 -75 133 -60 C 149 -44 155 -21 153 11 L 147 91 C 143 131 153 165 175 193 C 197 220 228 239 268 250 L 268 251 C 228 262 197 281 175 309 C 153 336 143 370 146 410 L 153 491 C 155 522 149 545 133 561 C 117 576 94 584 64 584 L 48 584 L 48 716 L 85 716 C 164 716 224 699 264 666 C 304 633 322 586 318 525 L 311 418 C 309 389 318 366 340 350 C 362 334 393 322 435 316 L 435 185 C 393 179 362 167 340 151 C 318 134 309 112 311 84 L 318 -24 C 322 -85 304 -132 264 -165 C 224 -198 164 -215 85 -215 L 48 -215 Z" unicode="}" />
<glyph horiz-adv-x="379" d="M 116 146 L 25 146 C 25 192 34 227 54 253 C 73 278 100 291 135 291 C 148 291 160 289 171 285 C 182 281 194 275 207 267 C 215 262 221 258 226 256 C 231 253 236 252 241 252 C 248 252 254 255 258 261 C 262 267 265 275 266 286 L 357 286 C 357 240 347 205 328 179 C 308 153 281 141 247 141 C 234 141 222 142 211 146 C 199 150 187 156 175 166 C 167 170 161 174 156 176 C 150 178 145 180 141 180 C 133 180 126 177 122 171 C 118 165 116 156 116 146 Z" unicode="~" />
<glyph horiz-adv-x="282" d="M 59 372 L 59 520 L 223 520 L 223 372 L 59 372 Z M 59 -198 L 59 300 L 223 300 L 223 -198 L 59 -198 Z" unicode="¡" />
<glyph horiz-adv-x="454" d="M 206 -107 L 206 -3 C 150 9 106 36 74 78 C 42 119 27 171 27 233 C 27 297 42 350 74 392 C 106 434 150 462 206 475 L 206 580 L 342 580 L 342 477 C 354 474 367 471 379 467 C 391 463 402 458 414 454 L 414 300 C 395 310 376 319 357 325 C 337 331 318 334 299 334 C 269 334 245 325 227 308 C 209 291 201 267 201 237 C 201 205 210 181 228 164 C 246 146 271 138 303 138 C 322 138 342 141 362 149 C 382 156 400 166 418 179 L 418 25 C 406 19 393 13 380 8 C 367 3 354 0 342 -3 L 342 -107 L 206 -107 Z" unicode="¢" />
<glyph horiz-adv-x="565" d="M 58 0 L 58 136 C 81 149 99 167 112 189 C 125 211 131 237 131 267 L 51 267 L 51 408 L 107 408 C 92 489 103 554 141 602 C 179 650 246 674 344 674 C 374 674 404 670 433 664 C 461 657 490 647 519 633 L 519 475 C 494 491 469 504 443 512 C 417 520 389 525 360 525 C 324 525 298 515 281 496 C 263 476 258 447 265 408 L 380 408 L 380 267 L 291 267 C 291 247 289 229 285 211 C 280 193 272 176 262 161 L 519 161 L 519 0 L 58 0 Z" unicode="£" />
<glyph horiz-adv-x="730" d="M 168 10 L 51 128 L 167 244 C 162 256 158 270 155 285 C 152 299 151 315 151 331 C 151 354 153 376 159 396 C 165 416 173 434 183 451 L 170 500 L 161 646 L 198 512 L 200 474 C 220 497 244 515 273 528 C 301 540 332 547 366 547 C 398 547 429 540 458 528 C 486 515 511 497 531 475 L 533 512 L 570 646 L 561 500 L 548 452 C 558 435 566 416 572 396 C 578 376 581 354 581 331 C 581 314 579 298 576 283 C 573 268 569 254 564 242 L 680 126 L 563 9 L 442 130 C 430 125 418 122 405 120 C 392 118 379 117 366 117 C 352 117 338 118 325 120 C 312 122 300 125 288 130 L 168 10 Z M 366 252 C 390 252 409 259 423 275 C 437 290 445 309 445 331 C 445 353 437 371 423 387 C 409 402 390 410 366 410 C 342 410 322 402 308 387 C 294 371 287 353 287 331 C 287 309 294 290 308 275 C 322 259 342 252 366 252 Z" unicode="¤" />
<glyph horiz-adv-x="684" d="M 144 93 L 144 189 L 257 189 L 257 235 L 256 236 L 144 236 L 144 332 L 202 332 L 17 658 L 221 658 L 316 475 L 353 397 L 391 475 L 484 658 L 669 658 L 486 332 L 548 332 L 548 236 L 433 236 L 433 189 L 548 189 L 548 93 L 433 93 L 433 0 L 257 0 L 257 93 L 144 93 Z" unicode="¥" />
<glyph horiz-adv-x="276" d="M 70 309 L 70 716 L 206 716 L 206 309 L 70 309 Z M 70 -215 L 70 193 L 206 193 L 206 -215 L 70 -215 Z" unicode="¦" />
<glyph horiz-adv-x="494" d="M 231 -12 C 201 -12 171 -9 141 -5 C 110 0 80 6 52 15 L 52 148 C 76 135 103 126 131 120 C 159 114 187 111 213 111 C 227 111 238 113 246 117 C 254 121 258 127 258 136 C 258 144 254 151 246 157 C 238 162 226 166 211 169 L 182 175 C 136 185 103 202 83 228 C 63 253 54 281 54 312 C 54 336 59 358 70 377 C 80 396 94 412 111 425 C 96 437 85 453 77 471 C 69 489 65 509 65 531 C 65 576 80 613 112 641 C 143 669 191 683 255 683 C 283 683 311 680 341 676 C 371 672 400 666 428 658 L 428 533 C 405 542 381 549 355 555 C 329 560 304 563 281 563 C 267 563 257 561 250 557 C 243 553 240 547 240 539 C 240 531 243 524 250 520 C 256 515 266 511 280 509 L 309 502 C 357 491 392 473 413 448 C 434 422 445 394 445 364 C 445 335 439 312 429 294 C 419 276 405 261 388 251 C 402 237 413 222 421 204 C 429 186 433 165 433 143 C 433 97 416 60 382 31 C 348 2 298 -12 231 -12 Z M 254 301 L 279 298 C 283 302 287 308 290 314 C 292 320 294 326 294 333 C 294 344 289 354 280 362 C 270 370 256 376 237 380 L 218 383 C 214 378 210 372 208 366 C 206 360 205 353 205 347 C 205 337 209 328 217 319 C 225 310 237 304 254 301 Z" unicode="§" />
<glyph horiz-adv-x="260" d="M -30 527 L -30 659 L 102 659 L 102 527 L -30 527 Z M 161 527 L 161 659 L 293 659 L 293 527 L 161 527 Z" unicode="¨" />
<glyph horiz-adv-x="714" d="M 357 84 C 259 84 181 115 123 179 C 65 243 36 318 36 404 C 36 491 65 566 123 629 C 181 692 259 724 357 724 C 453 724 530 692 589 629 C 648 566 678 491 678 404 C 678 317 648 242 589 179 C 530 115 453 84 357 84 Z M 357 169 C 422 169 477 190 523 234 C 569 277 592 334 592 404 C 592 475 569 532 523 575 C 477 617 422 639 357 639 C 289 639 233 617 189 575 C 144 532 122 475 122 404 C 122 333 144 276 189 233 C 233 190 289 169 357 169 Z M 365 228 C 313 228 269 244 235 276 C 201 308 184 351 184 405 C 184 458 201 501 235 533 C 269 565 311 581 363 581 C 380 581 398 578 416 574 C 434 570 450 563 465 555 L 465 461 C 451 469 435 476 418 481 C 401 486 384 489 368 489 C 342 489 321 481 305 465 C 289 449 282 429 282 405 C 282 381 289 360 305 344 C 321 328 342 320 368 320 C 386 320 403 322 421 328 C 438 333 454 340 469 350 L 469 255 C 453 246 435 239 417 235 C 399 230 381 228 365 228 Z" unicode="©" />
<glyph horiz-adv-x="448" d="M 166 366 C 129 366 101 375 82 394 C 62 413 53 438 53 470 C 52 504 64 531 89 551 C 113 571 150 585 198 592 L 258 601 L 258 609 C 258 621 252 630 241 636 C 229 642 211 645 187 645 C 167 645 147 642 127 637 C 107 632 89 625 72 615 L 72 719 C 96 726 122 732 148 736 C 174 740 200 743 227 743 C 277 743 316 731 346 708 C 376 685 391 654 391 614 L 391 374 L 268 374 L 259 418 C 248 400 235 387 220 379 C 204 370 186 366 166 366 Z M 221 460 C 228 460 235 461 242 465 C 248 468 254 473 258 480 L 258 525 L 223 520 C 212 518 203 514 197 509 C 191 503 188 496 188 488 C 188 480 190 473 196 468 C 202 462 210 460 221 460 Z M 66 208 L 66 319 L 395 319 L 395 208 L 66 208 Z" unicode="ª" />
<glyph horiz-adv-x="669" d="M 191 59 L 40 226 L 191 394 L 367 394 L 217 226 L 367 59 L 191 59 Z M 453 59 L 302 226 L 453 394 L 629 394 L 479 226 L 629 59 L 453 59 Z" unicode="«" />
<glyph horiz-adv-x="503" d="M 333 111 L 333 221 L 51 221 L 51 346 L 452 346 L 452 111 L 333 111 Z" unicode="¬" />
<glyph horiz-adv-x="375" d="M 48 176 L 48 309 L 328 309 L 328 176 L 48 176 Z" unicode="­" />
<glyph horiz-adv-x="714" d="M 357 85 C 259 85 181 116 123 180 C 65 243 36 318 36 405 C 36 491 65 566 123 630 C 181 693 259 725 357 725 C 453 725 530 693 589 630 C 648 566 678 491 678 405 C 678 318 648 243 589 180 C 530 116 453 85 357 85 Z M 357 170 C 422 170 477 191 523 234 C 569 277 592 334 592 405 C 592 476 569 533 523 576 C 477 618 422 640 357 640 C 289 640 233 618 189 575 C 144 532 122 475 122 405 C 122 334 144 277 189 234 C 233 191 289 170 357 170 Z M 237 242 L 237 572 L 364 572 C 399 572 427 564 447 549 C 467 534 477 514 477 490 C 477 468 471 450 459 435 C 447 420 429 410 407 406 C 423 403 436 397 448 389 C 459 381 467 370 472 358 L 511 242 L 415 242 L 389 325 C 384 339 378 349 372 356 C 365 362 356 366 346 366 L 328 366 L 328 242 L 237 242 Z M 328 437 L 352 437 C 364 437 373 439 379 445 C 385 451 388 459 388 469 C 388 479 385 487 379 493 C 373 499 364 502 352 502 L 328 502 L 328 437 Z" unicode="®" />
<glyph horiz-adv-x="312" d="M 30 532 L 30 643 L 287 643 L 287 532 L 30 532 Z" unicode="¯" />
<glyph horiz-adv-x="375" d="M 188 442 C 142 442 105 456 79 485 C 52 513 39 548 39 588 C 39 628 52 662 79 691 C 105 720 142 735 188 735 C 233 735 269 720 296 691 C 323 662 337 628 337 588 C 337 548 323 513 296 485 C 269 456 233 442 188 442 Z M 188 539 C 201 539 212 543 222 552 C 232 561 237 573 237 588 C 237 603 232 615 222 624 C 212 633 201 638 188 638 C 174 638 163 633 153 624 C 143 615 139 603 139 588 C 139 573 143 561 153 552 C 163 543 174 539 188 539 Z" unicode="°" />
<glyph horiz-adv-x="519" d="M 192 77 L 192 224 L 51 224 L 51 357 L 192 357 L 192 505 L 328 505 L 328 357 L 469 357 L 469 224 L 328 224 L 328 77 L 192 77 Z M 52 -127 L 52 6 L 470 6 L 470 -127 L 52 -127 Z" unicode="±" />
<glyph horiz-adv-x="330" d="M 25 440 L 25 567 C 78 583 116 599 139 615 C 162 631 174 648 174 664 C 174 677 169 687 160 693 C 150 699 138 703 122 703 C 106 703 91 700 75 696 C 59 691 44 684 30 675 L 30 788 C 51 794 72 799 92 803 C 112 807 134 809 158 809 C 204 809 240 798 265 776 C 290 754 303 725 303 691 C 303 657 291 627 268 603 C 245 579 209 559 159 544 L 302 544 L 302 440 L 25 440 Z" unicode="²" />
<glyph horiz-adv-x="330" d="M 161 432 C 138 432 115 433 93 435 C 71 437 48 442 25 449 L 25 558 C 42 550 59 544 76 540 C 92 536 110 535 128 535 C 141 535 151 536 158 540 C 165 543 169 548 169 556 C 169 564 164 569 155 573 C 145 577 132 579 114 579 L 87 579 L 87 662 L 109 662 C 126 662 139 663 148 667 C 156 671 161 676 161 684 C 161 691 157 696 151 700 C 145 704 136 706 124 706 C 108 706 92 704 77 701 C 62 697 47 692 33 685 L 33 792 C 53 796 74 800 94 803 C 114 806 135 808 157 808 C 201 808 235 799 259 782 C 283 764 296 741 296 713 C 296 690 289 671 276 655 C 263 639 244 628 220 623 C 246 618 267 608 281 592 C 295 576 303 557 303 537 C 303 505 290 480 266 461 C 242 441 207 432 161 432 Z" unicode="³" />
<glyph horiz-adv-x="246" d="M 174 524 L 30 524 L 131 678 L 296 678 L 174 524 Z" unicode="´" />
<glyph horiz-adv-x="544" d="M 145 0 L 145 406 C 108 406 78 417 54 441 C 30 465 18 495 18 531 C 18 567 30 598 56 622 C 82 646 114 658 154 658 L 478 658 L 478 0 L 348 0 L 348 541 L 275 541 L 275 0 L 145 0 Z" unicode="¶" />
<glyph horiz-adv-x="235" d="M 48 188 L 48 324 L 185 324 L 185 188 L 48 188 Z" unicode="·" />
<glyph horiz-adv-x="241" d="M 133 -246 C 119 -246 106 -245 94 -243 C 82 -241 69 -238 57 -234 L 57 -152 C 66 -156 75 -160 84 -162 C 93 -164 102 -166 111 -166 C 119 -166 126 -163 132 -159 C 138 -154 141 -148 141 -140 C 141 -132 138 -125 132 -120 C 126 -115 119 -113 111 -113 L 101 -113 L 101 -40 L 114 -40 C 152 -40 183 -49 207 -67 C 231 -85 244 -111 244 -144 C 244 -176 233 -201 213 -219 C 192 -237 165 -246 133 -246 Z" unicode="¸" />
<glyph horiz-adv-x="318" d="M 29 440 L 29 542 L 94 542 L 94 690 L 25 685 L 25 787 L 227 806 L 227 542 L 291 542 L 291 440 L 29 440 Z" unicode="¹" />
<glyph horiz-adv-x="492" d="M 247 361 C 188 361 141 378 106 413 C 71 447 54 494 54 553 C 54 611 71 657 106 691 C 141 725 188 743 247 743 C 305 743 352 725 387 691 C 421 657 439 611 439 554 C 439 495 421 448 387 413 C 352 378 305 361 247 361 Z M 247 480 C 263 480 277 486 287 499 C 297 511 303 529 303 552 C 303 574 297 592 287 605 C 277 617 263 624 247 624 C 229 624 215 617 205 605 C 195 592 190 575 190 553 C 190 530 195 512 205 499 C 215 486 229 480 247 480 Z M 66 208 L 66 319 L 432 319 L 432 208 L 66 208 Z" unicode="º" />
<glyph horiz-adv-x="669" d="M 40 59 L 191 226 L 40 394 L 216 394 L 367 226 L 216 59 L 40 59 Z M 302 59 L 453 226 L 302 394 L 478 394 L 629 226 L 478 59 L 302 59 Z" unicode="»" />
<glyph horiz-adv-x="804" d="M 29 360 L 29 462 L 94 462 L 94 610 L 25 605 L 25 707 L 227 726 L 227 462 L 291 462 L 291 360 L 29 360 Z M 186 0 L 506 716 L 634 716 L 314 0 L 186 0 Z M 618 0 L 618 64 L 462 64 L 462 156 L 577 360 L 738 360 L 738 156 L 780 156 L 780 63 L 738 63 L 738 0 L 618 0 Z M 618 156 L 618 260 L 558 156 L 618 156 Z" unicode="¼" />
<glyph horiz-adv-x="809" d="M 29 360 L 29 462 L 94 462 L 94 610 L 25 605 L 25 707 L 227 726 L 227 462 L 291 462 L 291 360 L 29 360 Z M 182 0 L 502 716 L 630 716 L 310 0 L 182 0 Z M 505 1 L 505 128 C 558 144 596 160 619 176 C 642 192 654 209 654 225 C 654 238 649 248 640 254 C 630 260 618 264 602 264 C 586 264 571 261 555 257 C 539 252 524 245 510 236 L 510 349 C 531 355 552 360 572 364 C 592 368 614 370 638 370 C 684 370 720 359 745 337 C 770 315 783 286 783 252 C 783 218 771 188 748 164 C 725 140 689 120 639 105 L 782 105 L 782 1 L 505 1 Z" unicode="½" />
<glyph horiz-adv-x="786" d="M 161 352 C 138 352 115 353 93 355 C 71 357 48 362 25 369 L 25 478 C 42 470 59 464 76 460 C 92 456 110 455 128 455 C 141 455 151 456 158 460 C 165 463 169 468 169 476 C 169 484 164 489 155 493 C 145 497 132 499 114 499 L 87 499 L 87 582 L 109 582 C 126 582 139 583 148 587 C 156 591 161 596 161 604 C 161 611 157 616 151 620 C 145 624 136 626 124 626 C 108 626 92 624 77 621 C 62 617 47 612 33 605 L 33 712 C 53 716 74 720 94 723 C 114 726 135 728 157 728 C 201 728 235 719 259 702 C 283 684 296 661 296 633 C 296 610 289 591 276 575 C 263 559 244 548 220 543 C 246 538 267 528 281 512 C 295 496 303 477 303 457 C 303 425 290 400 266 381 C 242 361 207 352 161 352 Z M 168 0 L 488 716 L 616 716 L 296 0 L 168 0 Z M 600 0 L 600 64 L 444 64 L 444 156 L 559 360 L 720 360 L 720 156 L 762 156 L 762 63 L 720 63 L 720 0 L 600 0 Z M 600 156 L 600 260 L 540 156 L 600 156 Z" unicode="¾" />
<glyph horiz-adv-x="477" d="M 177 372 L 177 520 L 341 520 L 341 372 L 177 372 Z M 253 -188 C 188 -188 135 -172 93 -140 C 51 -108 30 -65 30 -11 C 30 26 37 58 51 86 C 65 113 85 139 112 163 C 134 183 151 205 164 227 C 176 249 183 274 183 300 L 337 300 C 337 256 329 220 314 191 C 298 161 279 136 257 116 C 239 100 227 84 219 70 C 211 55 208 40 208 24 C 208 4 216 -12 234 -24 C 252 -36 275 -42 304 -42 C 330 -42 354 -39 377 -33 C 399 -27 423 -18 447 -6 L 447 -156 C 414 -166 382 -174 352 -180 C 322 -185 289 -188 253 -188 Z" unicode="¿" />
<glyph horiz-adv-x="721" d="M 295 706 L 185 845 L 334 845 L 425 706 L 295 706 Z M 14 0 L 276 658 L 445 658 L 707 0 L 517 0 L 472 118 L 229 118 L 185 0 L 14 0 Z M 277 248 L 424 248 L 392 332 L 350 453 L 308 332 L 277 248 Z" unicode="À" />
<glyph horiz-adv-x="721" d="M 426 706 L 296 706 L 387 845 L 536 845 L 426 706 Z M 14 0 L 276 658 L 445 658 L 707 0 L 517 0 L 472 118 L 229 118 L 185 0 L 14 0 Z M 277 248 L 424 248 L 392 332 L 350 453 L 308 332 L 277 248 Z" unicode="Á" />
<glyph horiz-adv-x="721" d="M 324 706 L 216 706 L 301 852 L 422 852 L 507 706 L 395 706 L 360 768 L 324 706 Z M 14 0 L 276 658 L 445 658 L 707 0 L 517 0 L 472 118 L 229 118 L 185 0 L 14 0 Z M 277 248 L 424 248 L 392 332 L 350 453 L 308 332 L 277 248 Z" unicode="Â" />
<glyph horiz-adv-x="721" d="M 294 706 L 212 706 C 212 747 220 779 237 802 C 254 825 278 837 310 837 C 322 837 333 835 343 832 C 353 828 363 823 375 815 C 382 810 388 807 392 805 C 396 803 401 802 406 802 C 412 802 417 804 421 810 C 425 815 427 823 428 833 L 510 833 C 510 791 501 759 484 736 C 467 713 443 702 412 702 C 400 702 389 703 379 706 C 369 709 358 715 347 724 C 340 728 334 732 330 734 C 325 736 320 737 316 737 C 309 737 304 734 300 729 C 296 723 294 716 294 706 Z M 14 0 L 276 658 L 445 658 L 707 0 L 517 0 L 472 118 L 229 118 L 185 0 L 14 0 Z M 277 248 L 424 248 L 392 332 L 350 453 L 308 332 L 277 248 Z" unicode="Ã" />
<glyph horiz-adv-x="721" d="M 216 706 L 216 825 L 334 825 L 334 706 L 216 706 Z M 388 706 L 388 825 L 506 825 L 506 706 L 388 706 Z M 14 0 L 276 658 L 445 658 L 707 0 L 517 0 L 472 118 L 229 118 L 185 0 L 14 0 Z M 277 248 L 424 248 L 392 332 L 350 453 L 308 332 L 277 248 Z" unicode="Ä" />
<glyph horiz-adv-x="721" d="M 14 0 L 265 631 C 259 639 254 649 251 661 C 247 672 246 684 246 696 C 246 726 256 753 277 775 C 298 797 326 808 361 808 C 395 808 422 797 443 775 C 464 753 475 726 475 696 C 475 684 473 672 470 661 C 466 649 462 639 456 631 L 707 0 L 517 0 L 472 118 L 229 118 L 185 0 L 14 0 Z M 361 658 C 371 658 379 661 387 668 C 394 674 398 683 398 695 C 398 706 394 715 387 722 C 379 729 371 733 361 733 C 350 733 341 729 334 722 C 326 715 323 706 323 695 C 323 683 326 674 334 668 C 341 661 350 658 361 658 Z M 277 248 L 424 248 L 392 332 L 350 453 L 308 332 L 277 248 Z" unicode="Å" />
<glyph horiz-adv-x="921" d="M 9 0 L 353 658 L 859 658 L 859 498 L 621 498 L 621 405 L 847 405 L 847 258 L 621 258 L 621 160 L 869 160 L 869 0 L 445 0 L 445 143 L 263 143 L 189 0 L 9 0 Z M 338 286 L 445 286 L 445 495 L 391 388 L 338 286 Z" unicode="Æ" />
<glyph horiz-adv-x="648" d="M 405 -14 C 294 -14 205 17 139 79 C 73 141 40 225 40 330 C 40 434 73 517 139 579 C 205 641 294 672 405 672 C 439 672 471 668 503 661 C 535 653 566 642 597 628 L 597 461 C 567 479 536 492 506 501 C 475 509 443 514 411 514 C 354 514 308 497 274 464 C 240 430 223 386 223 330 C 223 273 240 228 274 194 C 308 160 354 144 411 144 C 445 144 478 148 510 158 C 542 167 573 181 604 200 L 604 35 C 572 18 540 6 508 -2 C 475 -10 441 -14 405 -14 Z M 408 -236 C 395 -236 383 -235 371 -233 C 359 -231 348 -229 338 -225 L 338 -149 C 346 -153 355 -157 363 -159 C 371 -161 379 -163 387 -163 C 395 -163 402 -160 407 -156 C 412 -151 415 -145 415 -139 C 415 -131 412 -125 407 -121 C 401 -116 394 -114 386 -114 L 378 -114 L 378 -47 L 389 -47 C 425 -47 454 -55 476 -72 C 498 -88 510 -112 510 -142 C 510 -172 500 -195 481 -211 C 462 -227 438 -236 408 -236 Z" unicode="Ç" />
<glyph horiz-adv-x="539" d="M 211 706 L 101 845 L 250 845 L 341 706 L 211 706 Z M 63 0 L 63 658 L 477 658 L 477 500 L 239 500 L 239 402 L 465 402 L 465 261 L 239 261 L 239 158 L 487 158 L 487 0 L 63 0 Z" unicode="È" />
<glyph horiz-adv-x="539" d="M 342 706 L 212 706 L 303 845 L 452 845 L 342 706 Z M 63 0 L 63 658 L 477 658 L 477 500 L 239 500 L 239 402 L 465 402 L 465 261 L 239 261 L 239 158 L 487 158 L 487 0 L 63 0 Z" unicode="É" />
<glyph horiz-adv-x="539" d="M 240 706 L 132 706 L 217 852 L 338 852 L 423 706 L 311 706 L 276 768 L 240 706 Z M 63 0 L 63 658 L 477 658 L 477 500 L 239 500 L 239 402 L 465 402 L 465 261 L 239 261 L 239 158 L 487 158 L 487 0 L 63 0 Z" unicode="Ê" />
<glyph horiz-adv-x="539" d="M 132 706 L 132 825 L 250 825 L 250 706 L 132 706 Z M 304 706 L 304 825 L 422 825 L 422 706 L 304 706 Z M 63 0 L 63 658 L 477 658 L 477 500 L 239 500 L 239 402 L 465 402 L 465 261 L 239 261 L 239 158 L 487 158 L 487 0 L 63 0 Z" unicode="Ë" />
<glyph horiz-adv-x="301" d="M 88 706 L -22 845 L 127 845 L 218 706 L 88 706 Z M 63 0 L 63 658 L 239 658 L 239 0 L 63 0 Z" unicode="Ì" />
<glyph horiz-adv-x="301" d="M 219 706 L 89 706 L 180 845 L 329 845 L 219 706 Z M 63 0 L 63 658 L 239 658 L 239 0 L 63 0 Z" unicode="Í" />
<glyph horiz-adv-x="301" d="M 117 706 L 9 706 L 94 852 L 215 852 L 300 706 L 188 706 L 153 768 L 117 706 Z M 63 0 L 63 658 L 239 658 L 239 0 L 63 0 Z" unicode="Î" />
<glyph horiz-adv-x="301" d="M 9 706 L 9 825 L 127 825 L 127 706 L 9 706 Z M 181 706 L 181 825 L 299 825 L 299 706 L 181 706 Z M 63 0 L 63 658 L 239 658 L 239 0 L 63 0 Z" unicode="Ï" />
<glyph horiz-adv-x="716" d="M 70 0 L 70 260 L 25 260 L 25 398 L 70 398 L 70 658 L 309 658 C 419 658 507 629 573 571 C 638 513 671 435 671 337 C 671 234 638 152 572 91 C 506 30 417 0 305 0 L 70 0 Z M 246 159 L 307 159 C 363 159 408 175 441 207 C 474 239 491 283 491 337 C 491 386 474 425 442 455 C 410 484 366 499 311 499 L 246 499 L 246 398 L 325 398 L 325 260 L 246 260 L 246 159 Z" unicode="Ð" />
<glyph horiz-adv-x="747" d="M 308 706 L 226 706 C 226 747 234 779 251 802 C 268 825 292 837 324 837 C 336 837 347 835 357 832 C 367 828 377 823 389 815 C 396 810 402 807 406 805 C 410 803 415 802 420 802 C 426 802 431 804 435 810 C 439 815 441 823 442 833 L 524 833 C 524 791 515 759 498 736 C 481 713 457 702 426 702 C 414 702 403 703 393 706 C 383 709 372 715 361 724 C 354 728 348 732 344 734 C 339 736 334 737 330 737 C 323 737 318 734 314 729 C 310 723 308 716 308 706 Z M 63 0 L 63 658 L 260 658 L 474 334 L 526 248 L 523 333 L 523 658 L 684 658 L 684 0 L 491 0 L 273 327 L 221 413 L 224 328 L 224 0 L 63 0 Z" unicode="Ñ" />
<glyph horiz-adv-x="786" d="M 329 715 L 219 854 L 368 854 L 459 715 L 329 715 Z M 393 -17 C 285 -17 200 14 136 78 C 72 142 40 225 40 329 C 40 433 72 516 137 580 C 202 643 287 675 393 675 C 498 675 583 643 648 581 C 713 519 746 435 746 329 C 746 223 714 139 650 77 C 586 14 500 -17 393 -17 Z M 393 141 C 445 141 486 158 518 192 C 549 226 565 271 565 329 C 565 387 549 433 518 467 C 486 501 445 518 393 518 C 341 518 299 501 268 467 C 236 433 221 387 221 329 C 221 271 236 226 268 192 C 299 158 341 141 393 141 Z" unicode="Ò" />
<glyph horiz-adv-x="786" d="M 460 715 L 330 715 L 421 854 L 570 854 L 460 715 Z M 393 -17 C 285 -17 200 14 136 78 C 72 142 40 225 40 329 C 40 433 72 516 137 580 C 202 643 287 675 393 675 C 498 675 583 643 648 581 C 713 519 746 435 746 329 C 746 223 714 139 650 77 C 586 14 500 -17 393 -17 Z M 393 141 C 445 141 486 158 518 192 C 549 226 565 271 565 329 C 565 387 549 433 518 467 C 486 501 445 518 393 518 C 341 518 299 501 268 467 C 236 433 221 387 221 329 C 221 271 236 226 268 192 C 299 158 341 141 393 141 Z" unicode="Ó" />
<glyph horiz-adv-x="786" d="M 358 715 L 250 715 L 335 861 L 456 861 L 541 715 L 429 715 L 394 777 L 358 715 Z M 393 -17 C 285 -17 200 14 136 78 C 72 142 40 225 40 329 C 40 433 72 516 137 580 C 202 643 287 675 393 675 C 498 675 583 643 648 581 C 713 519 746 435 746 329 C 746 223 714 139 650 77 C 586 14 500 -17 393 -17 Z M 393 141 C 445 141 486 158 518 192 C 549 226 565 271 565 329 C 565 387 549 433 518 467 C 486 501 445 518 393 518 C 341 518 299 501 268 467 C 236 433 221 387 221 329 C 221 271 236 226 268 192 C 299 158 341 141 393 141 Z" unicode="Ô" />
<glyph horiz-adv-x="786" d="M 328 715 L 246 715 C 246 756 254 788 271 811 C 288 834 312 846 344 846 C 356 846 367 844 377 841 C 387 837 397 832 409 824 C 416 819 422 816 426 814 C 430 812 435 811 440 811 C 446 811 451 813 455 819 C 459 824 461 832 462 842 L 544 842 C 544 800 535 768 518 745 C 501 722 477 711 446 711 C 434 711 423 712 413 715 C 403 718 392 724 381 733 C 374 737 368 741 364 743 C 359 745 354 746 350 746 C 343 746 338 743 334 738 C 330 732 328 725 328 715 Z M 393 -17 C 285 -17 200 14 136 78 C 72 142 40 225 40 329 C 40 433 72 516 137 580 C 202 643 287 675 393 675 C 498 675 583 643 648 581 C 713 519 746 435 746 329 C 746 223 714 139 650 77 C 586 14 500 -17 393 -17 Z M 393 141 C 445 141 486 158 518 192 C 549 226 565 271 565 329 C 565 387 549 433 518 467 C 486 501 445 518 393 518 C 341 518 299 501 268 467 C 236 433 221 387 221 329 C 221 271 236 226 268 192 C 299 158 341 141 393 141 Z" unicode="Õ" />
<glyph horiz-adv-x="786" d="M 250 715 L 250 834 L 368 834 L 368 715 L 250 715 Z M 422 715 L 422 834 L 540 834 L 540 715 L 422 715 Z M 393 -17 C 285 -17 200 14 136 78 C 72 142 40 225 40 329 C 40 433 72 516 137 580 C 202 643 287 675 393 675 C 498 675 583 643 648 581 C 713 519 746 435 746 329 C 746 223 714 139 650 77 C 586 14 500 -17 393 -17 Z M 393 141 C 445 141 486 158 518 192 C 549 226 565 271 565 329 C 565 387 549 433 518 467 C 486 501 445 518 393 518 C 341 518 299 501 268 467 C 236 433 221 387 221 329 C 221 271 236 226 268 192 C 299 158 341 141 393 141 Z" unicode="Ö" />
<glyph horiz-adv-x="530" d="M 149 72 L 52 170 L 168 285 L 50 403 L 147 501 L 265 383 L 381 499 L 479 402 L 363 286 L 481 168 L 383 70 L 265 188 L 149 72 Z" unicode="×" />
<glyph horiz-adv-x="786" d="M 85 -48 L 153 62 C 117 92 89 130 69 176 C 49 222 40 273 40 329 C 40 433 72 516 137 580 C 202 643 287 675 393 675 C 415 675 437 673 458 670 C 479 667 499 663 518 657 L 548 706 L 704 706 L 635 594 C 670 564 697 526 717 481 C 736 436 746 385 746 329 C 746 223 714 139 650 77 C 586 14 500 -17 393 -17 C 371 -17 349 -15 329 -12 C 308 -9 288 -5 270 0 L 241 -48 L 85 -48 Z M 393 141 C 445 141 486 158 518 192 C 549 226 565 271 565 329 C 565 387 549 433 518 467 C 486 501 445 518 393 518 C 341 518 299 501 268 467 C 236 433 221 387 221 329 C 221 271 236 226 268 192 C 299 158 341 141 393 141 Z" unicode="Ø" />
<glyph horiz-adv-x="691" d="M 288 706 L 178 845 L 327 845 L 418 706 L 288 706 Z M 349 -12 C 260 -12 189 13 136 63 C 82 113 56 180 56 264 L 56 658 L 238 658 L 238 272 C 238 238 248 210 269 188 C 289 166 317 156 352 156 C 387 156 415 166 435 188 C 455 210 465 238 465 272 L 465 658 L 635 658 L 635 264 C 635 180 608 113 556 63 C 503 13 434 -12 349 -12 Z" unicode="Ù" />
<glyph horiz-adv-x="691" d="M 419 706 L 289 706 L 380 845 L 529 845 L 419 706 Z M 349 -12 C 260 -12 189 13 136 63 C 82 113 56 180 56 264 L 56 658 L 238 658 L 238 272 C 238 238 248 210 269 188 C 289 166 317 156 352 156 C 387 156 415 166 435 188 C 455 210 465 238 465 272 L 465 658 L 635 658 L 635 264 C 635 180 608 113 556 63 C 503 13 434 -12 349 -12 Z" unicode="Ú" />
<glyph horiz-adv-x="691" d="M 317 706 L 209 706 L 294 852 L 415 852 L 500 706 L 388 706 L 353 768 L 317 706 Z M 349 -12 C 260 -12 189 13 136 63 C 82 113 56 180 56 264 L 56 658 L 238 658 L 238 272 C 238 238 248 210 269 188 C 289 166 317 156 352 156 C 387 156 415 166 435 188 C 455 210 465 238 465 272 L 465 658 L 635 658 L 635 264 C 635 180 608 113 556 63 C 503 13 434 -12 349 -12 Z" unicode="Û" />
<glyph horiz-adv-x="691" d="M 209 706 L 209 825 L 327 825 L 327 706 L 209 706 Z M 381 706 L 381 825 L 499 825 L 499 706 L 381 706 Z M 349 -12 C 260 -12 189 13 136 63 C 82 113 56 180 56 264 L 56 658 L 238 658 L 238 272 C 238 238 248 210 269 188 C 289 166 317 156 352 156 C 387 156 415 166 435 188 C 455 210 465 238 465 272 L 465 658 L 635 658 L 635 264 C 635 180 608 113 556 63 C 503 13 434 -12 349 -12 Z" unicode="Ü" />
<glyph horiz-adv-x="674" d="M 410 706 L 280 706 L 371 845 L 520 845 L 410 706 Z M 251 0 L 251 235 L 11 658 L 215 658 L 310 475 L 347 397 L 385 475 L 478 658 L 663 658 L 427 237 L 427 0 L 251 0 Z" unicode="Ý" />
<glyph horiz-adv-x="563" d="M 63 0 L 63 658 L 239 658 L 239 565 L 281 565 C 359 565 421 543 467 500 C 513 456 536 401 536 335 C 536 267 513 210 467 166 C 421 121 359 99 281 99 L 239 99 L 239 0 L 63 0 Z M 239 254 L 270 254 C 296 254 317 261 334 275 C 350 289 359 309 359 333 C 359 356 350 375 334 389 C 317 403 295 410 269 410 L 239 410 L 239 254 Z" unicode="Þ" />
<glyph horiz-adv-x="659" d="M 50 0 L 50 433 C 50 534 76 609 130 658 C 184 706 253 731 339 731 C 420 731 485 708 534 663 C 582 618 607 553 607 468 C 607 450 606 430 604 410 C 602 390 599 370 595 350 C 576 355 557 359 537 363 C 517 367 497 369 479 369 C 461 369 448 366 440 362 C 431 357 427 350 427 342 C 427 333 431 326 439 321 C 447 316 458 312 473 309 L 491 305 C 537 294 571 276 594 250 C 617 224 629 192 629 153 C 629 103 612 63 579 33 C 545 3 498 -11 437 -11 C 409 -11 381 -9 353 -5 C 324 -1 295 4 266 12 L 266 143 C 290 132 315 124 340 118 C 365 112 390 109 416 109 C 429 109 439 111 447 115 C 454 119 458 126 458 135 C 458 143 454 149 446 155 C 438 160 425 165 407 169 L 391 173 C 347 183 313 201 291 227 C 268 253 257 287 257 328 C 257 374 271 411 301 440 C 330 468 369 483 417 483 C 425 483 433 482 441 482 C 449 481 457 480 467 479 C 471 513 463 541 443 561 C 423 581 391 592 347 592 C 306 592 274 577 250 549 C 226 521 214 483 214 435 L 214 0 L 50 0 Z" unicode="ß" />
<glyph horiz-adv-x="511" d="M 186 528 L 64 682 L 230 682 L 331 528 L 186 528 Z M 175 -11 C 132 -11 97 1 70 27 C 43 53 30 86 30 126 C 30 173 46 209 78 234 C 110 259 156 277 216 288 L 299 302 L 299 314 C 299 328 291 340 276 348 C 261 356 239 360 210 360 C 183 360 156 356 130 348 C 104 340 79 330 55 317 L 55 455 C 84 465 115 473 147 480 C 179 486 213 490 247 490 C 316 490 370 475 410 445 C 449 415 469 374 469 322 L 469 0 L 310 0 L 300 59 C 287 36 270 19 248 7 C 226 -5 202 -11 175 -11 Z M 244 113 C 256 113 267 116 277 122 C 287 128 294 136 299 147 L 299 211 L 248 203 C 233 200 221 194 213 186 C 204 178 200 167 200 153 C 200 140 204 130 212 123 C 220 116 231 113 244 113 Z" unicode="à" />
<glyph horiz-adv-x="511" d="M 323 528 L 179 528 L 280 682 L 445 682 L 323 528 Z M 175 -11 C 132 -11 97 1 70 27 C 43 53 30 86 30 126 C 30 173 46 209 78 234 C 110 259 156 277 216 288 L 299 302 L 299 314 C 299 328 291 340 276 348 C 261 356 239 360 210 360 C 183 360 156 356 130 348 C 104 340 79 330 55 317 L 55 455 C 84 465 115 473 147 480 C 179 486 213 490 247 490 C 316 490 370 475 410 445 C 449 415 469 374 469 322 L 469 0 L 310 0 L 300 59 C 287 36 270 19 248 7 C 226 -5 202 -11 175 -11 Z M 244 113 C 256 113 267 116 277 122 C 287 128 294 136 299 147 L 299 211 L 248 203 C 233 200 221 194 213 186 C 204 178 200 167 200 153 C 200 140 204 130 212 123 C 220 116 231 113 244 113 Z" unicode="á" />
<glyph horiz-adv-x="511" d="M 215 528 L 95 528 L 189 690 L 323 690 L 417 528 L 293 528 L 254 597 L 215 528 Z M 175 -11 C 132 -11 97 1 70 27 C 43 53 30 86 30 126 C 30 173 46 209 78 234 C 110 259 156 277 216 288 L 299 302 L 299 314 C 299 328 291 340 276 348 C 261 356 239 360 210 360 C 183 360 156 356 130 348 C 104 340 79 330 55 317 L 55 455 C 84 465 115 473 147 480 C 179 486 213 490 247 490 C 316 490 370 475 410 445 C 449 415 469 374 469 322 L 469 0 L 310 0 L 300 59 C 287 36 270 19 248 7 C 226 -5 202 -11 175 -11 Z M 244 113 C 256 113 267 116 277 122 C 287 128 294 136 299 147 L 299 211 L 248 203 C 233 200 221 194 213 186 C 204 178 200 167 200 153 C 200 140 204 130 212 123 C 220 116 231 113 244 113 Z" unicode="â" />
<glyph horiz-adv-x="511" d="M 181 528 L 90 528 C 90 574 99 609 119 635 C 138 660 165 673 200 673 C 213 673 225 671 236 667 C 247 663 259 657 272 649 C 280 644 286 640 291 638 C 296 635 301 634 306 634 C 313 634 319 637 323 643 C 327 649 330 657 331 668 L 422 668 C 422 622 412 587 393 561 C 373 535 346 523 312 523 C 299 523 287 524 276 528 C 264 532 252 538 240 548 C 232 552 226 556 221 558 C 215 560 210 562 206 562 C 198 562 191 559 187 553 C 183 547 181 538 181 528 Z M 175 -11 C 132 -11 97 1 70 27 C 43 53 30 86 30 126 C 30 173 46 209 78 234 C 110 259 156 277 216 288 L 299 302 L 299 314 C 299 328 291 340 276 348 C 261 356 239 360 210 360 C 183 360 156 356 130 348 C 104 340 79 330 55 317 L 55 455 C 84 465 115 473 147 480 C 179 486 213 490 247 490 C 316 490 370 475 410 445 C 449 415 469 374 469 322 L 469 0 L 310 0 L 300 59 C 287 36 270 19 248 7 C 226 -5 202 -11 175 -11 Z M 244 113 C 256 113 267 116 277 122 C 287 128 294 136 299 147 L 299 211 L 248 203 C 233 200 221 194 213 186 C 204 178 200 167 200 153 C 200 140 204 130 212 123 C 220 116 231 113 244 113 Z" unicode="ã" />
<glyph horiz-adv-x="511" d="M 94 529 L 94 661 L 226 661 L 226 529 L 94 529 Z M 285 529 L 285 661 L 417 661 L 417 529 L 285 529 Z M 175 -11 C 132 -11 97 1 70 27 C 43 53 30 86 30 126 C 30 173 46 209 78 234 C 110 259 156 277 216 288 L 299 302 L 299 314 C 299 328 291 340 276 348 C 261 356 239 360 210 360 C 183 360 156 356 130 348 C 104 340 79 330 55 317 L 55 455 C 84 465 115 473 147 480 C 179 486 213 490 247 490 C 316 490 370 475 410 445 C 449 415 469 374 469 322 L 469 0 L 310 0 L 300 59 C 287 36 270 19 248 7 C 226 -5 202 -11 175 -11 Z M 244 113 C 256 113 267 116 277 122 C 287 128 294 136 299 147 L 299 211 L 248 203 C 233 200 221 194 213 186 C 204 178 200 167 200 153 C 200 140 204 130 212 123 C 220 116 231 113 244 113 Z" unicode="ä" />
<glyph horiz-adv-x="511" d="M 175 -11 C 132 -11 97 1 70 27 C 43 53 30 86 30 126 C 30 173 46 209 78 234 C 110 259 156 277 216 288 L 299 302 L 299 314 C 299 328 291 340 276 348 C 261 356 239 360 210 360 C 183 360 156 356 130 348 C 104 340 79 330 55 317 L 55 455 C 71 460 88 465 105 470 C 122 475 139 479 157 482 C 148 492 141 505 136 519 C 131 533 129 548 129 564 C 129 598 140 627 163 651 C 186 675 217 688 256 688 C 294 688 325 675 348 651 C 371 627 383 598 383 564 C 383 546 380 530 374 515 C 368 500 360 487 350 476 C 388 464 417 444 438 418 C 458 392 469 360 469 322 L 469 0 L 310 0 L 300 59 C 287 36 270 19 248 7 C 226 -5 202 -11 175 -11 Z M 256 522 C 267 522 277 525 285 533 C 293 540 298 550 298 563 C 298 575 293 585 285 593 C 277 601 267 605 256 605 C 244 605 234 601 226 593 C 218 585 214 575 214 563 C 214 550 218 540 226 533 C 234 525 244 522 256 522 Z M 244 113 C 256 113 267 116 277 122 C 287 128 294 136 299 147 L 299 211 L 248 203 C 233 200 221 194 213 186 C 204 178 200 167 200 153 C 200 140 204 130 212 123 C 220 116 231 113 244 113 Z" unicode="å" />
<glyph horiz-adv-x="783" d="M 188 -11 C 140 -11 102 1 74 27 C 46 53 32 85 32 125 C 32 173 48 209 80 235 C 112 261 159 279 219 290 L 301 304 L 301 312 C 301 328 293 339 278 347 C 262 355 239 359 209 359 C 182 359 156 355 130 348 C 104 341 79 331 57 319 L 57 451 C 86 461 117 468 149 474 C 181 480 215 483 251 483 C 281 483 309 479 334 473 C 359 466 381 457 399 445 C 417 457 438 467 461 473 C 484 479 509 483 536 483 C 607 483 661 459 699 413 C 737 367 756 301 756 216 L 756 193 L 471 193 C 473 170 485 153 506 141 C 526 129 555 123 591 123 C 614 123 639 126 666 133 C 693 139 719 149 743 161 L 743 25 C 711 13 678 4 644 -1 C 610 -7 580 -11 552 -11 C 508 -11 469 -3 435 11 C 401 26 373 47 352 74 C 332 46 309 24 282 10 C 255 -3 224 -11 188 -11 Z M 531 371 C 512 371 498 364 488 350 C 478 336 472 317 471 292 L 590 292 C 590 318 584 338 574 351 C 564 364 549 371 531 371 Z M 249 117 C 259 117 269 120 279 126 C 289 132 296 141 301 151 L 301 211 L 251 202 C 237 199 225 194 216 187 C 207 179 203 169 203 157 C 203 144 207 134 216 127 C 224 120 235 117 249 117 Z" unicode="æ" />
<glyph horiz-adv-x="454" d="M 280 -11 C 202 -11 141 10 95 54 C 49 98 27 157 27 233 C 27 309 49 370 95 415 C 140 460 201 483 279 483 C 301 483 324 480 348 475 C 371 470 393 463 414 454 L 414 300 C 395 310 376 319 357 325 C 337 331 318 334 299 334 C 269 334 245 325 227 308 C 209 291 201 267 201 237 C 201 205 210 181 228 164 C 246 146 271 138 303 138 C 322 138 342 141 362 149 C 382 156 400 166 418 179 L 418 25 C 396 14 374 5 350 -1 C 326 -7 302 -11 280 -11 Z M 253 -254 C 239 -254 226 -253 214 -251 C 202 -249 189 -246 177 -242 L 177 -160 C 186 -164 195 -168 204 -170 C 213 -172 222 -174 231 -174 C 239 -174 246 -171 252 -167 C 258 -162 261 -156 261 -148 C 261 -140 258 -133 252 -128 C 246 -123 239 -121 231 -121 L 221 -121 L 221 -48 L 234 -48 C 272 -48 303 -57 327 -75 C 351 -93 364 -119 364 -152 C 364 -184 353 -209 333 -227 C 312 -245 285 -254 253 -254 Z" unicode="ç" />
<glyph horiz-adv-x="512" d="M 198 528 L 76 682 L 242 682 L 343 528 L 198 528 Z M 281 -13 C 201 -13 139 9 94 54 C 49 99 27 160 27 238 C 27 313 48 373 91 419 C 133 464 192 487 267 487 C 337 487 391 463 429 415 C 466 367 485 301 485 217 L 485 193 L 201 193 C 203 169 215 152 235 140 C 255 128 283 122 319 122 C 343 122 369 125 395 132 C 421 139 446 150 472 164 L 472 23 C 439 11 406 2 374 -4 C 341 -10 310 -13 281 -13 Z M 262 372 C 242 372 227 365 217 351 C 207 337 201 316 200 289 L 319 289 C 319 317 314 337 304 351 C 294 365 280 372 262 372 Z" unicode="è" />
<glyph horiz-adv-x="512" d="M 335 528 L 191 528 L 292 682 L 457 682 L 335 528 Z M 281 -13 C 201 -13 139 9 94 54 C 49 99 27 160 27 238 C 27 313 48 373 91 419 C 133 464 192 487 267 487 C 337 487 391 463 429 415 C 466 367 485 301 485 217 L 485 193 L 201 193 C 203 169 215 152 235 140 C 255 128 283 122 319 122 C 343 122 369 125 395 132 C 421 139 446 150 472 164 L 472 23 C 439 11 406 2 374 -4 C 341 -10 310 -13 281 -13 Z M 262 372 C 242 372 227 365 217 351 C 207 337 201 316 200 289 L 319 289 C 319 317 314 337 304 351 C 294 365 280 372 262 372 Z" unicode="é" />
<glyph horiz-adv-x="512" d="M 227 528 L 107 528 L 201 690 L 335 690 L 429 528 L 305 528 L 266 597 L 227 528 Z M 281 -13 C 201 -13 139 9 94 54 C 49 99 27 160 27 238 C 27 313 48 373 91 419 C 133 464 192 487 267 487 C 337 487 391 463 429 415 C 466 367 485 301 485 217 L 485 193 L 201 193 C 203 169 215 152 235 140 C 255 128 283 122 319 122 C 343 122 369 125 395 132 C 421 139 446 150 472 164 L 472 23 C 439 11 406 2 374 -4 C 341 -10 310 -13 281 -13 Z M 262 372 C 242 372 227 365 217 351 C 207 337 201 316 200 289 L 319 289 C 319 317 314 337 304 351 C 294 365 280 372 262 372 Z" unicode="ê" />
<glyph horiz-adv-x="512" d="M 106 529 L 106 661 L 238 661 L 238 529 L 106 529 Z M 297 529 L 297 661 L 429 661 L 429 529 L 297 529 Z M 281 -13 C 201 -13 139 9 94 54 C 49 99 27 160 27 238 C 27 313 48 373 91 419 C 133 464 192 487 267 487 C 337 487 391 463 429 415 C 466 367 485 301 485 217 L 485 193 L 201 193 C 203 169 215 152 235 140 C 255 128 283 122 319 122 C 343 122 369 125 395 132 C 421 139 446 150 472 164 L 472 23 C 439 11 406 2 374 -4 C 341 -10 310 -13 281 -13 Z M 262 372 C 242 372 227 365 217 351 C 207 337 201 316 200 289 L 319 289 C 319 317 314 337 304 351 C 294 365 280 372 262 372 Z" unicode="ë" />
<glyph horiz-adv-x="265" d="M 66 524 L -56 678 L 110 678 L 211 524 L 66 524 Z M 48 0 L 48 474 L 218 474 L 218 0 L 48 0 Z" unicode="ì" />
<glyph horiz-adv-x="265" d="M 203 524 L 59 524 L 160 678 L 325 678 L 203 524 Z M 48 0 L 48 474 L 218 474 L 218 0 L 48 0 Z" unicode="í" />
<glyph horiz-adv-x="265" d="M 95 524 L -25 524 L 69 686 L 203 686 L 297 524 L 173 524 L 134 593 L 95 524 Z M 48 0 L 48 474 L 218 474 L 218 0 L 48 0 Z" unicode="î" />
<glyph horiz-adv-x="265" d="M -26 525 L -26 657 L 106 657 L 106 525 L -26 525 Z M 165 525 L 165 657 L 297 657 L 297 525 L 165 525 Z M 48 0 L 48 474 L 218 474 L 218 0 L 48 0 Z" unicode="ï" />
<glyph horiz-adv-x="568" d="M 283 -14 C 205 -14 142 8 96 53 C 50 98 27 159 27 237 C 27 312 49 372 95 418 C 141 463 197 486 264 486 C 284 486 303 484 320 480 C 336 476 351 469 364 461 C 356 475 348 490 338 504 C 328 518 318 533 307 547 L 201 513 L 166 613 L 220 630 C 207 640 193 649 179 658 C 165 667 150 676 135 685 L 288 748 C 302 738 317 728 332 716 C 346 704 360 692 374 679 L 477 712 L 512 612 L 446 591 C 474 548 497 500 515 448 C 532 396 541 342 541 286 C 541 185 516 110 467 60 C 418 10 357 -14 283 -14 Z M 283 139 C 307 139 326 147 342 164 C 357 180 365 204 365 235 C 365 266 357 290 342 308 C 326 325 306 334 282 334 C 258 334 239 325 224 308 C 208 290 201 266 201 236 C 201 205 208 181 224 164 C 239 147 259 139 283 139 Z" unicode="ð" />
<glyph horiz-adv-x="541" d="M 204 524 L 113 524 C 113 570 122 605 142 631 C 161 656 188 669 223 669 C 236 669 248 667 259 663 C 270 659 282 653 295 645 C 303 640 309 636 314 634 C 319 631 324 630 329 630 C 336 630 342 633 346 639 C 350 645 353 653 354 664 L 445 664 C 445 618 435 583 416 557 C 396 531 369 519 335 519 C 322 519 310 520 299 524 C 287 528 275 534 263 544 C 255 548 249 552 244 554 C 238 556 233 558 229 558 C 221 558 214 555 210 549 C 206 543 204 534 204 524 Z M 45 0 L 45 474 L 215 474 L 215 413 C 229 435 248 453 271 466 C 293 478 320 485 350 485 C 394 485 430 470 458 440 C 486 410 500 369 500 317 L 500 0 L 330 0 L 330 279 C 330 298 325 313 316 323 C 306 333 293 338 277 338 C 264 338 252 335 242 329 C 232 323 223 315 215 304 L 215 0 L 45 0 Z" unicode="ñ" />
<glyph horiz-adv-x="558" d="M 211 528 L 89 682 L 255 682 L 356 528 L 211 528 Z M 279 -14 C 203 -14 142 9 96 55 C 50 101 27 162 27 238 C 27 313 50 373 96 419 C 142 465 203 488 279 488 C 355 488 416 465 462 420 C 508 375 531 315 531 240 C 531 163 508 101 462 55 C 416 9 355 -14 279 -14 Z M 279 135 C 302 135 321 144 335 162 C 349 180 357 205 357 237 C 357 269 349 294 335 312 C 321 330 302 340 279 340 C 255 340 236 331 222 313 C 208 295 201 270 201 238 C 201 206 208 180 222 162 C 236 144 255 135 279 135 Z" unicode="ò" />
<glyph horiz-adv-x="558" d="M 348 528 L 204 528 L 305 682 L 470 682 L 348 528 Z M 279 -14 C 203 -14 142 9 96 55 C 50 101 27 162 27 238 C 27 313 50 373 96 419 C 142 465 203 488 279 488 C 355 488 416 465 462 420 C 508 375 531 315 531 240 C 531 163 508 101 462 55 C 416 9 355 -14 279 -14 Z M 279 135 C 302 135 321 144 335 162 C 349 180 357 205 357 237 C 357 269 349 294 335 312 C 321 330 302 340 279 340 C 255 340 236 331 222 313 C 208 295 201 270 201 238 C 201 206 208 180 222 162 C 236 144 255 135 279 135 Z" unicode="ó" />
<glyph horiz-adv-x="558" d="M 240 528 L 120 528 L 214 690 L 348 690 L 442 528 L 318 528 L 279 597 L 240 528 Z M 279 -14 C 203 -14 142 9 96 55 C 50 101 27 162 27 238 C 27 313 50 373 96 419 C 142 465 203 488 279 488 C 355 488 416 465 462 420 C 508 375 531 315 531 240 C 531 163 508 101 462 55 C 416 9 355 -14 279 -14 Z M 279 135 C 302 135 321 144 335 162 C 349 180 357 205 357 237 C 357 269 349 294 335 312 C 321 330 302 340 279 340 C 255 340 236 331 222 313 C 208 295 201 270 201 238 C 201 206 208 180 222 162 C 236 144 255 135 279 135 Z" unicode="ô" />
<glyph horiz-adv-x="558" d="M 206 528 L 115 528 C 115 574 124 609 144 635 C 163 660 190 673 225 673 C 238 673 250 671 261 667 C 272 663 284 657 297 649 C 305 644 311 640 316 638 C 321 635 326 634 331 634 C 338 634 344 637 348 643 C 352 649 355 657 356 668 L 447 668 C 447 622 437 587 418 561 C 398 535 371 523 337 523 C 324 523 312 524 301 528 C 289 532 277 538 265 548 C 257 552 251 556 246 558 C 240 560 235 562 231 562 C 223 562 216 559 212 553 C 208 547 206 538 206 528 Z M 279 -14 C 203 -14 142 9 96 55 C 50 101 27 162 27 238 C 27 313 50 373 96 419 C 142 465 203 488 279 488 C 355 488 416 465 462 420 C 508 375 531 315 531 240 C 531 163 508 101 462 55 C 416 9 355 -14 279 -14 Z M 279 135 C 302 135 321 144 335 162 C 349 180 357 205 357 237 C 357 269 349 294 335 312 C 321 330 302 340 279 340 C 255 340 236 331 222 313 C 208 295 201 270 201 238 C 201 206 208 180 222 162 C 236 144 255 135 279 135 Z" unicode="õ" />
<glyph horiz-adv-x="558" d="M 119 529 L 119 661 L 251 661 L 251 529 L 119 529 Z M 310 529 L 310 661 L 442 661 L 442 529 L 310 529 Z M 279 -14 C 203 -14 142 9 96 55 C 50 101 27 162 27 238 C 27 313 50 373 96 419 C 142 465 203 488 279 488 C 355 488 416 465 462 420 C 508 375 531 315 531 240 C 531 163 508 101 462 55 C 416 9 355 -14 279 -14 Z M 279 135 C 302 135 321 144 335 162 C 349 180 357 205 357 237 C 357 269 349 294 335 312 C 321 330 302 340 279 340 C 255 340 236 331 222 313 C 208 295 201 270 201 238 C 201 206 208 180 222 162 C 236 144 255 135 279 135 Z" unicode="ö" />
<glyph horiz-adv-x="515" d="M 190 418 L 190 547 L 319 547 L 319 418 L 190 418 Z M 49 223 L 49 356 L 467 356 L 467 223 L 49 223 Z M 190 33 L 190 162 L 319 162 L 319 33 L 190 33 Z" unicode="÷" />
<glyph horiz-adv-x="558" d="M 44 -48 L 102 49 C 78 71 59 98 46 130 C 33 162 27 198 27 238 C 27 313 50 373 96 419 C 142 465 203 488 279 488 C 293 488 307 487 321 485 C 334 483 347 480 360 478 L 387 522 L 515 522 L 457 426 C 480 404 498 378 511 346 C 524 314 531 279 531 240 C 531 163 508 101 462 55 C 416 9 355 -14 279 -14 C 264 -14 250 -13 237 -11 C 223 -9 211 -7 199 -4 L 172 -48 L 44 -48 Z M 279 135 C 302 135 321 144 335 162 C 349 180 357 205 357 237 C 357 269 349 294 335 312 C 321 330 302 340 279 340 C 255 340 236 331 222 313 C 208 295 201 270 201 238 C 201 206 208 180 222 162 C 236 144 255 135 279 135 Z" unicode="ø" />
<glyph horiz-adv-x="541" d="M 201 524 L 79 678 L 245 678 L 346 524 L 201 524 Z M 196 -12 C 149 -12 111 3 83 34 C 55 64 41 106 41 158 L 41 474 L 211 474 L 211 195 C 211 177 216 162 226 152 C 236 141 249 136 265 136 C 277 136 289 138 300 144 C 310 150 319 158 326 169 L 326 474 L 496 474 L 496 0 L 335 0 L 326 61 C 311 38 292 20 270 7 C 247 -5 222 -12 196 -12 Z" unicode="ù" />
<glyph horiz-adv-x="541" d="M 338 524 L 194 524 L 295 678 L 460 678 L 338 524 Z M 196 -12 C 149 -12 111 3 83 34 C 55 64 41 106 41 158 L 41 474 L 211 474 L 211 195 C 211 177 216 162 226 152 C 236 141 249 136 265 136 C 277 136 289 138 300 144 C 310 150 319 158 326 169 L 326 474 L 496 474 L 496 0 L 335 0 L 326 61 C 311 38 292 20 270 7 C 247 -5 222 -12 196 -12 Z" unicode="ú" />
<glyph horiz-adv-x="541" d="M 230 524 L 110 524 L 204 686 L 338 686 L 432 524 L 308 524 L 269 593 L 230 524 Z M 196 -12 C 149 -12 111 3 83 34 C 55 64 41 106 41 158 L 41 474 L 211 474 L 211 195 C 211 177 216 162 226 152 C 236 141 249 136 265 136 C 277 136 289 138 300 144 C 310 150 319 158 326 169 L 326 474 L 496 474 L 496 0 L 335 0 L 326 61 C 311 38 292 20 270 7 C 247 -5 222 -12 196 -12 Z" unicode="û" />
<glyph horiz-adv-x="541" d="M 109 525 L 109 657 L 241 657 L 241 525 L 109 525 Z M 300 525 L 300 657 L 432 657 L 432 525 L 300 525 Z M 196 -12 C 149 -12 111 3 83 34 C 55 64 41 106 41 158 L 41 474 L 211 474 L 211 195 C 211 177 216 162 226 152 C 236 141 249 136 265 136 C 277 136 289 138 300 144 C 310 150 319 158 326 169 L 326 474 L 496 474 L 496 0 L 335 0 L 326 61 C 311 38 292 20 270 7 C 247 -5 222 -12 196 -12 Z" unicode="ü" />
<glyph horiz-adv-x="539" d="M 343 524 L 199 524 L 300 678 L 465 678 L 343 524 Z M 34 -215 L 26 -215 L 26 -66 L 34 -66 C 80 -66 114 -61 137 -53 C 160 -44 179 -28 194 -6 L 167 9 L 11 474 L 193 474 L 248 279 L 278 151 L 309 279 L 364 474 L 527 474 L 393 61 C 359 -44 314 -116 260 -156 C 205 -195 130 -215 34 -215 Z" unicode="ý" />
<glyph horiz-adv-x="545" d="M 45 -199 L 45 716 L 215 716 L 215 425 C 230 444 248 458 269 468 C 290 478 314 483 341 483 C 395 483 438 461 470 418 C 502 375 518 319 518 250 C 518 170 498 107 458 60 C 418 12 361 -11 287 -11 C 277 -11 265 -10 252 -8 C 239 -6 227 -3 215 -1 L 215 -199 L 45 -199 Z M 264 129 C 289 129 309 138 324 156 C 338 174 346 201 346 235 C 346 265 339 289 325 306 C 311 323 292 332 268 332 C 258 332 248 330 239 327 C 229 323 221 318 215 312 L 215 137 C 223 134 231 132 239 131 C 247 129 255 129 264 129 Z" unicode="þ" />
<glyph horiz-adv-x="539" d="M 114 525 L 114 657 L 246 657 L 246 525 L 114 525 Z M 305 525 L 305 657 L 437 657 L 437 525 L 305 525 Z M 34 -215 L 26 -215 L 26 -66 L 34 -66 C 80 -66 114 -61 137 -53 C 160 -44 179 -28 194 -6 L 167 9 L 11 474 L 193 474 L 248 279 L 278 151 L 309 279 L 364 474 L 527 474 L 393 61 C 359 -44 314 -116 260 -156 C 205 -195 130 -215 34 -215 Z" unicode="ÿ" />
<glyph horiz-adv-x="721" d="M 246 706 L 246 806 L 479 806 L 479 706 L 246 706 Z M 14 0 L 276 658 L 445 658 L 707 0 L 517 0 L 472 118 L 229 118 L 185 0 L 14 0 Z M 277 248 L 424 248 L 392 332 L 350 453 L 308 332 L 277 248 Z" unicode="Ā" />
<glyph horiz-adv-x="511" d="M 127 536 L 127 647 L 384 647 L 384 536 L 127 536 Z M 175 -11 C 132 -11 97 1 70 27 C 43 53 30 86 30 126 C 30 173 46 209 78 234 C 110 259 156 277 216 288 L 299 302 L 299 314 C 299 328 291 340 276 348 C 261 356 239 360 210 360 C 183 360 156 356 130 348 C 104 340 79 330 55 317 L 55 455 C 84 465 115 473 147 480 C 179 486 213 490 247 490 C 316 490 370 475 410 445 C 449 415 469 374 469 322 L 469 0 L 310 0 L 300 59 C 287 36 270 19 248 7 C 226 -5 202 -11 175 -11 Z M 244 113 C 256 113 267 116 277 122 C 287 128 294 136 299 147 L 299 211 L 248 203 C 233 200 221 194 213 186 C 204 178 200 167 200 153 C 200 140 204 130 212 123 C 220 116 231 113 244 113 Z" unicode="ā" />
<glyph horiz-adv-x="721" d="M 361 702 C 322 702 291 714 268 739 C 245 763 234 797 234 839 L 320 839 C 320 825 323 814 331 806 C 338 798 348 794 361 794 C 373 794 383 798 391 806 C 398 814 402 825 402 839 L 488 839 C 488 797 476 763 453 739 C 429 714 399 702 361 702 Z M 14 0 L 276 658 L 445 658 L 707 0 L 517 0 L 472 118 L 229 118 L 185 0 L 14 0 Z M 277 248 L 424 248 L 392 332 L 350 453 L 308 332 L 277 248 Z" unicode="Ă" />
<glyph horiz-adv-x="511" d="M 255 524 C 212 524 178 537 152 565 C 126 593 114 630 114 677 L 210 677 C 210 661 214 649 222 640 C 230 630 241 626 255 626 C 269 626 280 630 288 640 C 296 649 301 661 301 677 L 396 677 C 396 630 383 593 357 565 C 331 537 297 524 255 524 Z M 175 -11 C 132 -11 97 1 70 27 C 43 53 30 86 30 126 C 30 173 46 209 78 234 C 110 259 156 277 216 288 L 299 302 L 299 314 C 299 328 291 340 276 348 C 261 356 239 360 210 360 C 183 360 156 356 130 348 C 104 340 79 330 55 317 L 55 455 C 84 465 115 473 147 480 C 179 486 213 490 247 490 C 316 490 370 475 410 445 C 449 415 469 374 469 322 L 469 0 L 310 0 L 300 59 C 287 36 270 19 248 7 C 226 -5 202 -11 175 -11 Z M 244 113 C 256 113 267 116 277 122 C 287 128 294 136 299 147 L 299 211 L 248 203 C 233 200 221 194 213 186 C 204 178 200 167 200 153 C 200 140 204 130 212 123 C 220 116 231 113 244 113 Z" unicode="ă" />
<glyph horiz-adv-x="721" d="M 14 0 L 276 658 L 445 658 L 707 0 L 659 0 C 639 0 623 -5 612 -15 C 600 -25 595 -39 595 -56 C 595 -70 600 -82 612 -92 C 623 -102 639 -107 659 -107 L 659 -220 C 603 -220 558 -208 525 -184 C 492 -160 476 -128 476 -90 C 476 -71 479 -54 486 -39 C 493 -23 503 -9 516 3 L 472 118 L 229 118 L 185 0 L 14 0 Z M 277 248 L 424 248 L 392 332 L 350 453 L 308 332 L 277 248 Z" unicode="Ą" />
<glyph horiz-adv-x="511" d="M 175 -11 C 132 -11 97 1 70 27 C 43 53 30 86 30 126 C 30 173 46 209 78 234 C 110 259 156 277 216 288 L 299 302 L 299 314 C 299 328 291 340 276 348 C 261 356 239 360 210 360 C 183 360 156 356 130 348 C 104 340 79 330 55 317 L 55 455 C 84 465 115 473 147 480 C 179 486 213 490 247 490 C 316 490 370 475 410 445 C 449 415 469 374 469 322 L 469 0 L 448 0 C 428 0 412 -5 401 -15 C 389 -25 384 -39 384 -56 C 384 -70 389 -82 401 -92 C 412 -102 428 -107 448 -107 L 448 -220 C 392 -220 347 -209 314 -188 C 281 -166 265 -136 265 -96 C 265 -76 269 -59 277 -43 C 285 -27 296 -12 311 0 L 310 0 L 300 59 C 287 36 270 19 248 7 C 226 -5 202 -11 175 -11 Z M 244 113 C 256 113 267 116 277 122 C 287 128 294 136 299 147 L 299 211 L 248 203 C 233 200 221 194 213 186 C 204 178 200 167 200 153 C 200 140 204 130 212 123 C 220 116 231 113 244 113 Z" unicode="ą" />
<glyph horiz-adv-x="648" d="M 450 716 L 320 716 L 411 855 L 560 855 L 450 716 Z M 405 -14 C 294 -14 205 17 139 79 C 73 141 40 225 40 330 C 40 434 73 517 139 579 C 205 641 294 672 405 672 C 439 672 471 668 503 661 C 535 653 566 642 597 628 L 597 461 C 567 479 536 492 506 501 C 475 509 443 514 411 514 C 354 514 308 497 274 464 C 240 430 223 386 223 330 C 223 273 240 228 274 194 C 308 160 354 144 411 144 C 445 144 478 148 510 158 C 542 167 573 181 604 200 L 604 35 C 572 18 540 6 508 -2 C 475 -10 441 -14 405 -14 Z" unicode="Ć" />
<glyph horiz-adv-x="454" d="M 326 524 L 182 524 L 283 678 L 448 678 L 326 524 Z M 280 -11 C 202 -11 141 10 95 54 C 49 98 27 157 27 233 C 27 309 49 370 95 415 C 140 460 201 483 279 483 C 301 483 324 480 348 475 C 371 470 393 463 414 454 L 414 300 C 395 310 376 319 357 325 C 337 331 318 334 299 334 C 269 334 245 325 227 308 C 209 291 201 267 201 237 C 201 205 210 181 228 164 C 246 146 271 138 303 138 C 322 138 342 141 362 149 C 382 156 400 166 418 179 L 418 25 C 396 14 374 5 350 -1 C 326 -7 302 -11 280 -11 Z" unicode="ć" />
<glyph horiz-adv-x="648" d="M 348 716 L 240 716 L 325 862 L 446 862 L 531 716 L 419 716 L 384 778 L 348 716 Z M 405 -14 C 294 -14 205 17 139 79 C 73 141 40 225 40 330 C 40 434 73 517 139 579 C 205 641 294 672 405 672 C 439 672 471 668 503 661 C 535 653 566 642 597 628 L 597 461 C 567 479 536 492 506 501 C 475 509 443 514 411 514 C 354 514 308 497 274 464 C 240 430 223 386 223 330 C 223 273 240 228 274 194 C 308 160 354 144 411 144 C 445 144 478 148 510 158 C 542 167 573 181 604 200 L 604 35 C 572 18 540 6 508 -2 C 475 -10 441 -14 405 -14 Z" unicode="Ĉ" />
<glyph horiz-adv-x="454" d="M 218 524 L 98 524 L 192 686 L 326 686 L 420 524 L 296 524 L 257 593 L 218 524 Z M 280 -11 C 202 -11 141 10 95 54 C 49 98 27 157 27 233 C 27 309 49 370 95 415 C 140 460 201 483 279 483 C 301 483 324 480 348 475 C 371 470 393 463 414 454 L 414 300 C 395 310 376 319 357 325 C 337 331 318 334 299 334 C 269 334 245 325 227 308 C 209 291 201 267 201 237 C 201 205 210 181 228 164 C 246 146 271 138 303 138 C 322 138 342 141 362 149 C 382 156 400 166 418 179 L 418 25 C 396 14 374 5 350 -1 C 326 -7 302 -11 280 -11 Z" unicode="ĉ" />
<glyph horiz-adv-x="648" d="M 324 716 L 324 839 L 447 839 L 447 716 L 324 716 Z M 405 -14 C 294 -14 205 17 139 79 C 73 141 40 225 40 330 C 40 434 73 517 139 579 C 205 641 294 672 405 672 C 439 672 471 668 503 661 C 535 653 566 642 597 628 L 597 461 C 567 479 536 492 506 501 C 475 509 443 514 411 514 C 354 514 308 497 274 464 C 240 430 223 386 223 330 C 223 273 240 228 274 194 C 308 160 354 144 411 144 C 445 144 478 148 510 158 C 542 167 573 181 604 200 L 604 35 C 572 18 540 6 508 -2 C 475 -10 441 -14 405 -14 Z" unicode="Ċ" />
<glyph horiz-adv-x="454" d="M 188 524 L 188 660 L 325 660 L 325 524 L 188 524 Z M 280 -11 C 202 -11 141 10 95 54 C 49 98 27 157 27 233 C 27 309 49 370 95 415 C 140 460 201 483 279 483 C 301 483 324 480 348 475 C 371 470 393 463 414 454 L 414 300 C 395 310 376 319 357 325 C 337 331 318 334 299 334 C 269 334 245 325 227 308 C 209 291 201 267 201 237 C 201 205 210 181 228 164 C 246 146 271 138 303 138 C 322 138 342 141 362 149 C 382 156 400 166 418 179 L 418 25 C 396 14 374 5 350 -1 C 326 -7 302 -11 280 -11 Z" unicode="ċ" />
<glyph horiz-adv-x="648" d="M 323 716 L 238 862 L 350 862 L 385 800 L 421 862 L 529 862 L 444 716 L 323 716 Z M 405 -14 C 294 -14 205 17 139 79 C 73 141 40 225 40 330 C 40 434 73 517 139 579 C 205 641 294 672 405 672 C 439 672 471 668 503 661 C 535 653 566 642 597 628 L 597 461 C 567 479 536 492 506 501 C 475 509 443 514 411 514 C 354 514 308 497 274 464 C 240 430 223 386 223 330 C 223 273 240 228 274 194 C 308 160 354 144 411 144 C 445 144 478 148 510 158 C 542 167 573 181 604 200 L 604 35 C 572 18 540 6 508 -2 C 475 -10 441 -14 405 -14 Z" unicode="Č" />
<glyph horiz-adv-x="454" d="M 190 524 L 96 686 L 220 686 L 259 618 L 298 686 L 418 686 L 324 524 L 190 524 Z M 280 -11 C 202 -11 141 10 95 54 C 49 98 27 157 27 233 C 27 309 49 370 95 415 C 140 460 201 483 279 483 C 301 483 324 480 348 475 C 371 470 393 463 414 454 L 414 300 C 395 310 376 319 357 325 C 337 331 318 334 299 334 C 269 334 245 325 227 308 C 209 291 201 267 201 237 C 201 205 210 181 228 164 C 246 146 271 138 303 138 C 322 138 342 141 362 149 C 382 156 400 166 418 179 L 418 25 C 396 14 374 5 350 -1 C 326 -7 302 -11 280 -11 Z" unicode="č" />
<glyph horiz-adv-x="704" d="M 250 706 L 165 852 L 277 852 L 312 790 L 348 852 L 456 852 L 371 706 L 250 706 Z M 63 0 L 63 658 L 302 658 C 412 658 500 629 566 571 C 631 513 664 435 664 337 C 664 234 631 152 565 91 C 499 30 410 0 298 0 L 63 0 Z M 239 159 L 300 159 C 356 159 401 175 434 207 C 467 239 484 283 484 337 C 484 386 467 425 435 455 C 403 484 359 499 304 499 L 239 499 L 239 159 Z" unicode="Ď" />
<glyph horiz-adv-x="776" d="M 211 -10 C 156 -10 112 11 78 55 C 44 98 27 155 27 226 C 27 303 47 365 87 412 C 127 459 178 483 242 483 C 257 483 273 480 289 476 C 305 472 320 466 333 459 L 333 716 L 503 716 L 503 0 L 343 0 L 334 64 C 321 41 304 23 283 10 C 261 -3 237 -10 211 -10 Z M 661 499 L 555 532 C 569 556 579 578 585 598 C 591 618 594 641 594 668 L 594 716 L 726 716 L 726 669 C 726 633 720 602 710 574 C 699 546 683 521 661 499 Z M 274 137 C 284 137 295 139 305 145 C 315 150 325 157 333 166 L 333 327 C 326 331 318 335 308 338 C 298 340 289 342 281 342 C 256 342 236 332 222 313 C 208 294 201 269 201 237 C 201 207 207 182 220 164 C 233 146 251 137 274 137 Z" unicode="ď" />
<glyph horiz-adv-x="721" d="M 67 0 L 67 260 L 22 260 L 22 398 L 67 398 L 67 658 L 306 658 C 416 658 504 629 570 571 C 635 513 668 435 668 337 C 668 234 635 152 569 91 C 503 30 414 0 302 0 L 67 0 Z M 243 159 L 304 159 C 360 159 405 175 438 207 C 471 239 488 283 488 337 C 488 386 471 425 439 455 C 407 484 363 499 308 499 L 243 499 L 243 398 L 322 398 L 322 260 L 243 260 L 243 159 Z" unicode="Đ" />
<glyph horiz-adv-x="548" d="M 211 -10 C 156 -10 112 11 78 55 C 44 98 27 155 27 226 C 27 303 47 365 87 412 C 127 459 178 483 242 483 C 257 483 273 480 289 476 C 305 472 320 466 333 459 L 333 532 L 287 532 L 287 644 L 333 644 L 333 716 L 503 716 L 503 644 L 556 644 L 556 532 L 503 532 L 503 0 L 343 0 L 334 64 C 321 41 304 23 283 10 C 261 -3 237 -10 211 -10 Z M 274 137 C 284 137 295 139 305 145 C 315 150 325 157 333 166 L 333 327 C 326 331 318 335 308 338 C 298 340 289 342 281 342 C 256 342 236 332 222 313 C 208 294 201 269 201 237 C 201 207 207 182 220 164 C 233 146 251 137 274 137 Z" unicode="đ" />
<glyph horiz-adv-x="539" d="M 162 706 L 162 806 L 395 806 L 395 706 L 162 706 Z M 63 0 L 63 658 L 477 658 L 477 500 L 239 500 L 239 402 L 465 402 L 465 261 L 239 261 L 239 158 L 487 158 L 487 0 L 63 0 Z" unicode="Ē" />
<glyph horiz-adv-x="512" d="M 139 536 L 139 647 L 396 647 L 396 536 L 139 536 Z M 281 -13 C 201 -13 139 9 94 54 C 49 99 27 160 27 238 C 27 313 48 373 91 419 C 133 464 192 487 267 487 C 337 487 391 463 429 415 C 466 367 485 301 485 217 L 485 193 L 201 193 C 203 169 215 152 235 140 C 255 128 283 122 319 122 C 343 122 369 125 395 132 C 421 139 446 150 472 164 L 472 23 C 439 11 406 2 374 -4 C 341 -10 310 -13 281 -13 Z M 262 372 C 242 372 227 365 217 351 C 207 337 201 316 200 289 L 319 289 C 319 317 314 337 304 351 C 294 365 280 372 262 372 Z" unicode="ē" />
<glyph horiz-adv-x="539" d="M 277 702 C 238 702 207 714 184 739 C 161 763 150 797 150 839 L 236 839 C 236 825 239 814 247 806 C 254 798 264 794 277 794 C 289 794 299 798 307 806 C 314 814 318 825 318 839 L 404 839 C 404 797 392 763 369 739 C 345 714 315 702 277 702 Z M 63 0 L 63 658 L 477 658 L 477 500 L 239 500 L 239 402 L 465 402 L 465 261 L 239 261 L 239 158 L 487 158 L 487 0 L 63 0 Z" unicode="Ĕ" />
<glyph horiz-adv-x="512" d="M 267 524 C 224 524 190 537 164 565 C 138 593 126 630 126 677 L 222 677 C 222 661 226 649 234 640 C 242 630 253 626 267 626 C 281 626 292 630 300 640 C 308 649 313 661 313 677 L 408 677 C 408 630 395 593 369 565 C 343 537 309 524 267 524 Z M 281 -13 C 201 -13 139 9 94 54 C 49 99 27 160 27 238 C 27 313 48 373 91 419 C 133 464 192 487 267 487 C 337 487 391 463 429 415 C 466 367 485 301 485 217 L 485 193 L 201 193 C 203 169 215 152 235 140 C 255 128 283 122 319 122 C 343 122 369 125 395 132 C 421 139 446 150 472 164 L 472 23 C 439 11 406 2 374 -4 C 341 -10 310 -13 281 -13 Z M 262 372 C 242 372 227 365 217 351 C 207 337 201 316 200 289 L 319 289 C 319 317 314 337 304 351 C 294 365 280 372 262 372 Z" unicode="ĕ" />
<glyph horiz-adv-x="539" d="M 216 706 L 216 829 L 339 829 L 339 706 L 216 706 Z M 63 0 L 63 658 L 477 658 L 477 500 L 239 500 L 239 402 L 465 402 L 465 261 L 239 261 L 239 158 L 487 158 L 487 0 L 63 0 Z" unicode="Ė" />
<glyph horiz-adv-x="512" d="M 197 528 L 197 664 L 334 664 L 334 528 L 197 528 Z M 281 -13 C 201 -13 139 9 94 54 C 49 99 27 160 27 238 C 27 313 48 373 91 419 C 133 464 192 487 267 487 C 337 487 391 463 429 415 C 466 367 485 301 485 217 L 485 193 L 201 193 C 203 169 215 152 235 140 C 255 128 283 122 319 122 C 343 122 369 125 395 132 C 421 139 446 150 472 164 L 472 23 C 439 11 406 2 374 -4 C 341 -10 310 -13 281 -13 Z M 262 372 C 242 372 227 365 217 351 C 207 337 201 316 200 289 L 319 289 C 319 317 314 337 304 351 C 294 365 280 372 262 372 Z" unicode="ė" />
<glyph horiz-adv-x="539" d="M 63 0 L 63 658 L 477 658 L 477 500 L 239 500 L 239 402 L 465 402 L 465 261 L 239 261 L 239 158 L 487 158 L 487 0 L 483 0 C 463 0 447 -5 436 -15 C 424 -25 419 -39 419 -56 C 419 -70 424 -82 436 -92 C 447 -102 463 -107 483 -107 L 483 -220 C 427 -220 382 -208 349 -184 C 316 -160 300 -128 300 -90 C 300 -72 303 -55 309 -40 C 315 -25 325 -12 337 0 L 63 0 Z" unicode="Ę" />
<glyph horiz-adv-x="512" d="M 452 -215 C 391 -215 343 -202 308 -178 C 272 -153 255 -121 255 -81 C 255 -68 256 -56 260 -45 C 263 -33 268 -23 274 -13 C 196 -11 136 11 92 56 C 48 101 27 162 27 238 C 27 313 48 373 91 419 C 133 464 192 487 267 487 C 337 487 391 463 429 415 C 466 367 485 301 485 217 L 485 193 L 201 193 C 203 169 215 152 235 140 C 255 128 283 122 319 122 C 343 122 369 125 395 132 C 421 139 446 150 472 164 L 472 23 C 465 21 458 18 450 16 C 442 14 435 11 429 9 C 415 3 404 -4 396 -14 C 388 -24 384 -36 384 -50 C 384 -66 390 -79 402 -89 C 414 -99 430 -105 452 -105 L 452 -215 Z M 262 372 C 242 372 227 365 217 351 C 207 337 201 316 200 289 L 319 289 C 319 317 314 337 304 351 C 294 365 280 372 262 372 Z" unicode="ę" />
<glyph horiz-adv-x="539" d="M 215 706 L 130 852 L 242 852 L 277 790 L 313 852 L 421 852 L 336 706 L 215 706 Z M 63 0 L 63 658 L 477 658 L 477 500 L 239 500 L 239 402 L 465 402 L 465 261 L 239 261 L 239 158 L 487 158 L 487 0 L 63 0 Z" unicode="Ě" />
<glyph horiz-adv-x="512" d="M 199 528 L 105 690 L 229 690 L 268 622 L 307 690 L 427 690 L 333 528 L 199 528 Z M 281 -13 C 201 -13 139 9 94 54 C 49 99 27 160 27 238 C 27 313 48 373 91 419 C 133 464 192 487 267 487 C 337 487 391 463 429 415 C 466 367 485 301 485 217 L 485 193 L 201 193 C 203 169 215 152 235 140 C 255 128 283 122 319 122 C 343 122 369 125 395 132 C 421 139 446 150 472 164 L 472 23 C 439 11 406 2 374 -4 C 341 -10 310 -13 281 -13 Z M 262 372 C 242 372 227 365 217 351 C 207 337 201 316 200 289 L 319 289 C 319 317 314 337 304 351 C 294 365 280 372 262 372 Z" unicode="ě" />
<glyph horiz-adv-x="699" d="M 351 716 L 243 716 L 328 862 L 449 862 L 534 716 L 422 716 L 387 778 L 351 716 Z M 392 -14 C 285 -14 200 17 136 80 C 72 142 40 225 40 329 C 40 434 72 517 138 579 C 204 641 290 672 396 672 C 432 672 470 668 508 662 C 546 656 581 647 615 635 L 615 471 C 582 485 548 495 514 502 C 480 509 444 513 406 513 C 352 513 307 496 273 464 C 238 431 221 387 221 332 C 221 274 236 227 268 193 C 299 159 340 142 390 142 C 407 142 423 143 438 145 C 453 147 468 150 483 155 L 483 244 L 371 244 L 371 385 L 654 385 L 654 33 C 614 17 573 6 529 -2 C 485 -10 440 -14 392 -14 Z" unicode="Ĝ" />
<glyph horiz-adv-x="547" d="M 225 529 L 105 529 L 199 691 L 333 691 L 427 529 L 303 529 L 264 598 L 225 529 Z M 258 -220 C 222 -220 187 -217 155 -211 C 122 -205 90 -196 60 -184 L 60 -38 C 84 -53 110 -65 136 -73 C 162 -81 188 -86 213 -86 C 239 -86 265 -79 292 -66 C 318 -53 332 -28 332 10 L 332 41 C 318 24 302 11 282 2 C 262 -6 241 -11 220 -11 C 159 -11 112 10 78 53 C 44 96 27 154 27 228 C 27 309 49 372 95 418 C 140 464 196 487 262 487 C 287 487 312 481 338 470 C 363 458 383 443 397 424 L 430 474 L 502 474 L 502 25 C 502 -57 477 -119 429 -159 C 381 -199 324 -220 258 -220 Z M 273 133 C 283 133 294 134 304 138 C 314 142 323 147 331 153 L 331 328 C 323 330 315 333 306 335 C 297 337 288 338 280 338 C 254 338 235 327 221 307 C 207 287 201 262 201 234 C 201 203 207 178 219 160 C 231 142 249 133 273 133 Z" unicode="ĝ" />
<glyph horiz-adv-x="699" d="M 388 712 C 349 712 318 724 295 749 C 272 773 261 807 261 849 L 347 849 C 347 835 350 824 358 816 C 365 808 375 804 388 804 C 400 804 410 808 418 816 C 425 824 429 835 429 849 L 515 849 C 515 807 503 773 480 749 C 456 724 426 712 388 712 Z M 392 -14 C 285 -14 200 17 136 80 C 72 142 40 225 40 329 C 40 434 72 517 138 579 C 204 641 290 672 396 672 C 432 672 470 668 508 662 C 546 656 581 647 615 635 L 615 471 C 582 485 548 495 514 502 C 480 509 444 513 406 513 C 352 513 307 496 273 464 C 238 431 221 387 221 332 C 221 274 236 227 268 193 C 299 159 340 142 390 142 C 407 142 423 143 438 145 C 453 147 468 150 483 155 L 483 244 L 371 244 L 371 385 L 654 385 L 654 33 C 614 17 573 6 529 -2 C 485 -10 440 -14 392 -14 Z" unicode="Ğ" />
<glyph horiz-adv-x="547" d="M 265 525 C 222 525 188 538 162 566 C 136 594 124 631 124 678 L 220 678 C 220 662 224 650 232 641 C 240 631 251 627 265 627 C 279 627 290 631 298 641 C 306 650 311 662 311 678 L 406 678 C 406 631 393 594 367 566 C 341 538 307 525 265 525 Z M 258 -220 C 222 -220 187 -217 155 -211 C 122 -205 90 -196 60 -184 L 60 -38 C 84 -53 110 -65 136 -73 C 162 -81 188 -86 213 -86 C 239 -86 265 -79 292 -66 C 318 -53 332 -28 332 10 L 332 41 C 318 24 302 11 282 2 C 262 -6 241 -11 220 -11 C 159 -11 112 10 78 53 C 44 96 27 154 27 228 C 27 309 49 372 95 418 C 140 464 196 487 262 487 C 287 487 312 481 338 470 C 363 458 383 443 397 424 L 430 474 L 502 474 L 502 25 C 502 -57 477 -119 429 -159 C 381 -199 324 -220 258 -220 Z M 273 133 C 283 133 294 134 304 138 C 314 142 323 147 331 153 L 331 328 C 323 330 315 333 306 335 C 297 337 288 338 280 338 C 254 338 235 327 221 307 C 207 287 201 262 201 234 C 201 203 207 178 219 160 C 231 142 249 133 273 133 Z" unicode="ğ" />
<glyph horiz-adv-x="699" d="M 327 716 L 327 839 L 450 839 L 450 716 L 327 716 Z M 392 -14 C 285 -14 200 17 136 80 C 72 142 40 225 40 329 C 40 434 72 517 138 579 C 204 641 290 672 396 672 C 432 672 470 668 508 662 C 546 656 581 647 615 635 L 615 471 C 582 485 548 495 514 502 C 480 509 444 513 406 513 C 352 513 307 496 273 464 C 238 431 221 387 221 332 C 221 274 236 227 268 193 C 299 159 340 142 390 142 C 407 142 423 143 438 145 C 453 147 468 150 483 155 L 483 244 L 371 244 L 371 385 L 654 385 L 654 33 C 614 17 573 6 529 -2 C 485 -10 440 -14 392 -14 Z" unicode="Ġ" />
<glyph horiz-adv-x="547" d="M 195 529 L 195 665 L 332 665 L 332 529 L 195 529 Z M 258 -220 C 222 -220 187 -217 155 -211 C 122 -205 90 -196 60 -184 L 60 -38 C 84 -53 110 -65 136 -73 C 162 -81 188 -86 213 -86 C 239 -86 265 -79 292 -66 C 318 -53 332 -28 332 10 L 332 41 C 318 24 302 11 282 2 C 262 -6 241 -11 220 -11 C 159 -11 112 10 78 53 C 44 96 27 154 27 228 C 27 309 49 372 95 418 C 140 464 196 487 262 487 C 287 487 312 481 338 470 C 363 458 383 443 397 424 L 430 474 L 502 474 L 502 25 C 502 -57 477 -119 429 -159 C 381 -199 324 -220 258 -220 Z M 273 133 C 283 133 294 134 304 138 C 314 142 323 147 331 153 L 331 328 C 323 330 315 333 306 335 C 297 337 288 338 280 338 C 254 338 235 327 221 307 C 207 287 201 262 201 234 C 201 203 207 178 219 160 C 231 142 249 133 273 133 Z" unicode="ġ" />
<glyph horiz-adv-x="699" d="M 392 -14 C 285 -14 200 17 136 80 C 72 142 40 225 40 329 C 40 434 72 517 138 579 C 204 641 290 672 396 672 C 432 672 470 668 508 662 C 546 656 581 647 615 635 L 615 471 C 582 485 548 495 514 502 C 480 509 444 513 406 513 C 352 513 307 496 273 464 C 238 431 221 387 221 332 C 221 274 236 227 268 193 C 299 159 340 142 390 142 C 407 142 423 143 438 145 C 453 147 468 150 483 155 L 483 244 L 371 244 L 371 385 L 654 385 L 654 33 C 614 17 573 6 529 -2 C 485 -10 440 -14 392 -14 Z M 392 -252 L 297 -222 C 309 -201 318 -181 323 -163 C 328 -144 331 -123 331 -100 L 331 -56 L 451 -56 L 451 -99 C 451 -131 446 -159 436 -184 C 426 -209 412 -232 392 -252 Z" unicode="Ģ" />
<glyph horiz-adv-x="547" d="M 266 751 L 371 717 C 356 693 346 671 341 651 C 335 631 333 607 333 581 L 333 533 L 200 533 L 200 581 C 200 616 205 647 216 675 C 227 703 244 728 266 751 Z M 258 -220 C 222 -220 187 -217 155 -211 C 122 -205 90 -196 60 -184 L 60 -38 C 84 -53 110 -65 136 -73 C 162 -81 188 -86 213 -86 C 239 -86 265 -79 292 -66 C 318 -53 332 -28 332 10 L 332 41 C 318 24 302 11 282 2 C 262 -6 241 -11 220 -11 C 159 -11 112 10 78 53 C 44 96 27 154 27 228 C 27 309 49 372 95 418 C 140 464 196 487 262 487 C 287 487 312 481 338 470 C 363 458 383 443 397 424 L 430 474 L 502 474 L 502 25 C 502 -57 477 -119 429 -159 C 381 -199 324 -220 258 -220 Z M 273 133 C 283 133 294 134 304 138 C 314 142 323 147 331 153 L 331 328 C 323 330 315 333 306 335 C 297 337 288 338 280 338 C 254 338 235 327 221 307 C 207 287 201 262 201 234 C 201 203 207 178 219 160 C 231 142 249 133 273 133 Z" unicode="ģ" />
<glyph horiz-adv-x="715" d="M 322 706 L 214 706 L 299 852 L 420 852 L 505 706 L 393 706 L 358 768 L 322 706 Z M 63 0 L 63 658 L 239 658 L 239 410 L 477 410 L 477 658 L 653 658 L 653 0 L 477 0 L 477 251 L 239 251 L 239 0 L 63 0 Z" unicode="Ĥ" />
<glyph horiz-adv-x="541" d="M 92 748 L -28 748 L 66 910 L 200 910 L 294 748 L 170 748 L 131 817 L 92 748 Z M 45 0 L 45 716 L 215 716 L 215 414 C 229 436 248 453 271 466 C 293 478 319 485 348 485 C 393 485 430 470 458 440 C 486 410 500 369 500 317 L 500 0 L 330 0 L 330 279 C 330 298 325 313 316 323 C 306 333 293 338 277 338 C 264 338 252 335 242 329 C 232 323 223 315 215 304 L 215 0 L 45 0 Z" unicode="ĥ" />
<glyph horiz-adv-x="740" d="M 75 0 L 75 465 L 24 465 L 24 590 L 75 590 L 75 658 L 251 658 L 251 590 L 489 590 L 489 658 L 665 658 L 665 590 L 717 590 L 717 465 L 665 465 L 665 0 L 489 0 L 489 241 L 251 241 L 251 0 L 75 0 Z M 251 401 L 489 401 L 489 465 L 251 465 L 251 401 Z" unicode="Ħ" />
<glyph horiz-adv-x="541" d="M 45 0 L 45 532 L 6 532 L 6 644 L 45 644 L 45 716 L 215 716 L 215 644 L 275 644 L 275 532 L 215 532 L 215 414 C 229 436 248 453 271 466 C 293 478 319 485 348 485 C 393 485 430 470 458 440 C 486 410 500 369 500 317 L 500 0 L 330 0 L 330 279 C 330 298 325 313 316 323 C 306 333 293 338 277 338 C 264 338 252 335 242 329 C 232 323 223 315 215 304 L 215 0 L 45 0 Z" unicode="ħ" />
<glyph horiz-adv-x="301" d="M 87 706 L 5 706 C 5 747 13 779 30 802 C 47 825 71 837 103 837 C 115 837 126 835 136 832 C 146 828 156 823 168 815 C 175 810 181 807 185 805 C 189 803 194 802 199 802 C 205 802 210 804 214 810 C 218 815 220 823 221 833 L 303 833 C 303 791 294 759 277 736 C 260 713 236 702 205 702 C 193 702 182 703 172 706 C 162 709 151 715 140 724 C 133 728 127 732 123 734 C 118 736 113 737 109 737 C 102 737 97 734 93 729 C 89 723 87 716 87 706 Z M 63 0 L 63 658 L 239 658 L 239 0 L 63 0 Z" unicode="Ĩ" />
<glyph horiz-adv-x="265" d="M 61 524 L -30 524 C -30 570 -20 605 -1 631 C 18 656 45 669 80 669 C 93 669 105 667 116 663 C 127 659 139 653 152 645 C 160 640 166 636 171 634 C 176 631 181 630 186 630 C 193 630 199 633 203 639 C 207 645 210 653 211 664 L 302 664 C 302 618 292 583 273 557 C 253 531 226 519 192 519 C 179 519 167 520 156 524 C 144 528 132 534 120 544 C 112 548 106 552 101 554 C 95 556 90 558 86 558 C 78 558 71 555 67 549 C 63 543 61 534 61 524 Z M 48 0 L 48 474 L 218 474 L 218 0 L 48 0 Z" unicode="ĩ" />
<glyph horiz-adv-x="301" d="M 39 706 L 39 806 L 272 806 L 272 706 L 39 706 Z M 63 0 L 63 658 L 239 658 L 239 0 L 63 0 Z" unicode="Ī" />
<glyph horiz-adv-x="265" d="M 7 532 L 7 643 L 264 643 L 264 532 L 7 532 Z M 48 0 L 48 474 L 218 474 L 218 0 L 48 0 Z" unicode="ī" />
<glyph horiz-adv-x="301" d="M 154 702 C 115 702 84 714 61 739 C 38 763 27 797 27 839 L 113 839 C 113 825 116 814 124 806 C 131 798 141 794 154 794 C 166 794 176 798 184 806 C 191 814 195 825 195 839 L 281 839 C 281 797 269 763 246 739 C 222 714 192 702 154 702 Z M 63 0 L 63 658 L 239 658 L 239 0 L 63 0 Z" unicode="Ĭ" />
<glyph horiz-adv-x="265" d="M 135 520 C 92 520 58 533 32 561 C 6 589 -6 626 -6 673 L 90 673 C 90 657 94 645 102 636 C 110 626 121 622 135 622 C 149 622 160 626 168 636 C 176 645 181 657 181 673 L 276 673 C 276 626 263 589 237 561 C 211 533 177 520 135 520 Z M 48 0 L 48 474 L 218 474 L 218 0 L 48 0 Z" unicode="ĭ" />
<glyph horiz-adv-x="301" d="M 63 0 L 63 658 L 239 658 L 239 0 L 63 0 Z" unicode="Į" />
<glyph horiz-adv-x="265" d="M 48 563 L 48 716 L 218 716 L 218 563 L 48 563 Z M 184 -220 C 128 -220 83 -209 50 -188 C 17 -166 1 -136 1 -96 C 1 -76 5 -58 13 -42 C 21 -26 32 -11 48 1 L 48 474 L 218 474 L 218 0 L 184 0 C 164 0 148 -5 137 -15 C 125 -25 120 -39 120 -56 C 120 -70 125 -82 137 -92 C 148 -102 164 -107 184 -107 L 184 -220 Z" unicode="į" />
<glyph horiz-adv-x="301" d="M 93 706 L 93 829 L 216 829 L 216 706 L 93 706 Z M 63 0 L 63 658 L 239 658 L 239 0 L 63 0 Z" unicode="İ" />
<glyph horiz-adv-x="265" d="M 48 0 L 48 474 L 218 474 L 218 0 L 48 0 Z" unicode="ı" />
<glyph horiz-adv-x="302" d="M 115 706 L 7 706 L 92 852 L 213 852 L 298 706 L 186 706 L 151 768 L 115 706 Z M -20 -215 L -32 -215 L -32 -64 L -20 -64 C 6 -64 26 -55 41 -39 C 56 -23 64 0 64 31 L 64 658 L 240 658 L 240 31 C 240 -43 217 -102 173 -147 C 128 -192 64 -215 -20 -215 Z" unicode="Ĵ" />
<glyph horiz-adv-x="260" d="M 93 524 L -27 524 L 67 686 L 201 686 L 295 524 L 171 524 L 132 593 L 93 524 Z M -39 -215 L -47 -215 L -47 -71 L -39 -71 C -13 -71 6 -62 22 -46 C 37 -29 45 -7 45 20 L 45 474 L 215 474 L 215 20 C 215 -51 191 -108 145 -151 C 99 -193 37 -215 -39 -215 Z" unicode="ĵ" />
<glyph horiz-adv-x="693" d="M 63 0 L 63 658 L 239 658 L 239 361 L 467 658 L 664 658 L 413 344 L 676 0 L 461 0 L 239 300 L 239 0 L 63 0 Z M 354 -244 L 259 -214 C 271 -193 280 -173 285 -155 C 290 -136 293 -115 293 -92 L 293 -48 L 413 -48 L 413 -91 C 413 -123 408 -151 398 -176 C 388 -201 374 -224 354 -244 Z" unicode="Ķ" />
<glyph horiz-adv-x="552" d="M 45 0 L 45 716 L 215 716 L 215 280 L 347 474 L 534 474 L 376 252 L 541 0 L 345 0 L 215 204 L 215 0 L 45 0 Z M 281 -262 L 176 -228 C 190 -204 200 -182 206 -162 C 211 -142 214 -118 214 -92 L 214 -44 L 347 -44 L 347 -92 C 347 -127 341 -158 330 -186 C 319 -214 303 -239 281 -262 Z" unicode="ķ" />
<glyph horiz-adv-x="512" d="M 217 706 L 87 706 L 178 845 L 327 845 L 217 706 Z M 63 0 L 63 658 L 239 658 L 239 160 L 487 160 L 487 0 L 63 0 Z" unicode="Ĺ" />
<glyph horiz-adv-x="260" d="M 200 766 L 56 766 L 157 920 L 322 920 L 200 766 Z M 45 0 L 45 716 L 215 716 L 215 0 L 45 0 Z" unicode="ĺ" />
<glyph horiz-adv-x="512" d="M 63 0 L 63 658 L 239 658 L 239 160 L 487 160 L 487 0 L 63 0 Z M 286 -244 L 191 -214 C 203 -193 212 -173 217 -155 C 222 -136 225 -115 225 -92 L 225 -48 L 345 -48 L 345 -91 C 345 -123 340 -151 330 -176 C 320 -201 306 -224 286 -244 Z" unicode="Ļ" />
<glyph horiz-adv-x="260" d="M 45 0 L 45 716 L 215 716 L 215 0 L 45 0 Z M 134 -262 L 29 -228 C 43 -204 53 -182 59 -162 C 64 -142 67 -118 67 -92 L 67 -44 L 200 -44 L 200 -92 C 200 -127 194 -158 183 -186 C 172 -214 156 -239 134 -262 Z" unicode="ļ" />
<glyph horiz-adv-x="512" d="M 63 0 L 63 658 L 239 658 L 239 160 L 487 160 L 487 0 L 63 0 Z M 408 441 L 302 474 C 316 498 326 520 332 540 C 338 560 341 583 341 610 L 341 658 L 473 658 L 473 611 C 473 575 467 544 457 516 C 446 488 430 463 408 441 Z" unicode="Ľ" />
<glyph horiz-adv-x="481" d="M 45 0 L 45 716 L 215 716 L 215 0 L 45 0 Z M 365 499 L 259 532 C 273 556 283 578 289 598 C 295 618 298 641 298 668 L 298 716 L 430 716 L 430 669 C 430 633 424 602 414 574 C 403 546 387 521 365 499 Z" unicode="ľ" />
<glyph horiz-adv-x="512" d="M 63 0 L 63 658 L 239 658 L 239 160 L 487 160 L 487 0 L 63 0 Z M 341 304 L 341 440 L 478 440 L 478 304 L 341 304 Z" unicode="Ŀ" />
<glyph horiz-adv-x="419" d="M 45 0 L 45 716 L 215 716 L 215 0 L 45 0 Z M 271 289 L 271 425 L 408 425 L 408 289 L 271 289 Z" unicode="ŀ" />
<glyph horiz-adv-x="512" d="M 63 0 L 63 275 L 7 263 L 7 411 L 63 423 L 63 658 L 239 658 L 239 461 L 316 478 L 316 330 L 239 313 L 239 160 L 487 160 L 487 0 L 63 0 Z" unicode="Ł" />
<glyph horiz-adv-x="260" d="M 45 0 L 45 277 L 1 266 L 1 410 L 45 421 L 45 716 L 215 716 L 215 464 L 269 477 L 269 333 L 215 320 L 215 0 L 45 0 Z" unicode="ł" />
<glyph horiz-adv-x="747" d="M 440 706 L 310 706 L 401 845 L 550 845 L 440 706 Z M 63 0 L 63 658 L 260 658 L 474 334 L 526 248 L 523 333 L 523 658 L 684 658 L 684 0 L 491 0 L 273 327 L 221 413 L 224 328 L 224 0 L 63 0 Z" unicode="Ń" />
<glyph horiz-adv-x="541" d="M 346 524 L 202 524 L 303 678 L 468 678 L 346 524 Z M 45 0 L 45 474 L 215 474 L 215 413 C 229 435 248 453 271 466 C 293 478 320 485 350 485 C 394 485 430 470 458 440 C 486 410 500 369 500 317 L 500 0 L 330 0 L 330 279 C 330 298 325 313 316 323 C 306 333 293 338 277 338 C 264 338 252 335 242 329 C 232 323 223 315 215 304 L 215 0 L 45 0 Z" unicode="ń" />
<glyph horiz-adv-x="747" d="M 63 0 L 63 658 L 260 658 L 474 334 L 526 248 L 523 333 L 523 658 L 684 658 L 684 0 L 491 0 L 273 327 L 221 413 L 224 328 L 224 0 L 63 0 Z M 380 -252 L 285 -222 C 297 -201 306 -181 311 -163 C 316 -144 319 -123 319 -100 L 319 -56 L 439 -56 L 439 -99 C 439 -131 434 -159 424 -184 C 414 -209 400 -232 380 -252 Z" unicode="Ņ" />
<glyph horiz-adv-x="541" d="M 45 0 L 45 474 L 215 474 L 215 413 C 229 435 248 453 271 466 C 293 478 320 485 350 485 C 394 485 430 470 458 440 C 486 410 500 369 500 317 L 500 0 L 330 0 L 330 279 C 330 298 325 313 316 323 C 306 333 293 338 277 338 C 264 338 252 335 242 329 C 232 323 223 315 215 304 L 215 0 L 45 0 Z M 276 -262 L 171 -228 C 185 -204 195 -182 201 -162 C 206 -142 209 -118 209 -92 L 209 -44 L 342 -44 L 342 -92 C 342 -127 336 -158 325 -186 C 314 -214 298 -239 276 -262 Z" unicode="ņ" />
<glyph horiz-adv-x="747" d="M 313 706 L 228 852 L 340 852 L 375 790 L 411 852 L 519 852 L 434 706 L 313 706 Z M 63 0 L 63 658 L 260 658 L 474 334 L 526 248 L 523 333 L 523 658 L 684 658 L 684 0 L 491 0 L 273 327 L 221 413 L 224 328 L 224 0 L 63 0 Z" unicode="Ň" />
<glyph horiz-adv-x="541" d="M 210 524 L 116 686 L 240 686 L 279 618 L 318 686 L 438 686 L 344 524 L 210 524 Z M 45 0 L 45 474 L 215 474 L 215 413 C 229 435 248 453 271 466 C 293 478 320 485 350 485 C 394 485 430 470 458 440 C 486 410 500 369 500 317 L 500 0 L 330 0 L 330 279 C 330 298 325 313 316 323 C 306 333 293 338 277 338 C 264 338 252 335 242 329 C 232 323 223 315 215 304 L 215 0 L 45 0 Z" unicode="ň" />
<glyph horiz-adv-x="747" d="M 63 0 L 63 658 L 252 658 L 478 334 L 526 257 L 523 334 L 523 658 L 684 658 L 684 -2 C 684 -66 663 -118 623 -157 C 583 -195 528 -215 458 -215 L 440 -215 L 440 -79 L 448 -79 C 470 -79 489 -72 503 -60 C 517 -47 525 -28 525 -4 L 525 0 L 498 0 L 269 327 L 221 404 L 224 328 L 224 0 L 63 0 Z" unicode="Ŋ" />
<glyph horiz-adv-x="537" d="M 239 -210 L 231 -210 L 231 -66 L 239 -66 C 267 -66 288 -58 303 -42 C 318 -26 326 -5 326 21 L 326 278 C 326 295 321 309 311 319 C 301 329 287 335 270 335 C 257 335 246 332 238 327 C 229 321 221 314 215 304 L 215 0 L 45 0 L 45 474 L 215 474 L 215 413 C 230 435 248 453 269 466 C 290 478 316 485 347 485 C 391 485 426 470 454 440 C 482 410 496 369 496 317 L 496 21 C 496 -47 472 -103 426 -146 C 380 -188 317 -210 239 -210 Z" unicode="ŋ" />
<glyph horiz-adv-x="786" d="M 280 715 L 280 815 L 513 815 L 513 715 L 280 715 Z M 393 -17 C 285 -17 200 14 136 78 C 72 142 40 225 40 329 C 40 433 72 516 137 580 C 202 643 287 675 393 675 C 498 675 583 643 648 581 C 713 519 746 435 746 329 C 746 223 714 139 650 77 C 586 14 500 -17 393 -17 Z M 393 141 C 445 141 486 158 518 192 C 549 226 565 271 565 329 C 565 387 549 433 518 467 C 486 501 445 518 393 518 C 341 518 299 501 268 467 C 236 433 221 387 221 329 C 221 271 236 226 268 192 C 299 158 341 141 393 141 Z" unicode="Ō" />
<glyph horiz-adv-x="558" d="M 152 536 L 152 647 L 409 647 L 409 536 L 152 536 Z M 279 -14 C 203 -14 142 9 96 55 C 50 101 27 162 27 238 C 27 313 50 373 96 419 C 142 465 203 488 279 488 C 355 488 416 465 462 420 C 508 375 531 315 531 240 C 531 163 508 101 462 55 C 416 9 355 -14 279 -14 Z M 279 135 C 302 135 321 144 335 162 C 349 180 357 205 357 237 C 357 269 349 294 335 312 C 321 330 302 340 279 340 C 255 340 236 331 222 313 C 208 295 201 270 201 238 C 201 206 208 180 222 162 C 236 144 255 135 279 135 Z" unicode="ō" />
<glyph horiz-adv-x="786" d="M 395 711 C 356 711 325 723 302 748 C 279 772 268 806 268 848 L 354 848 C 354 834 357 823 365 815 C 372 807 382 803 395 803 C 407 803 417 807 425 815 C 432 823 436 834 436 848 L 522 848 C 522 806 510 772 487 748 C 463 723 433 711 395 711 Z M 393 -17 C 285 -17 200 14 136 78 C 72 142 40 225 40 329 C 40 433 72 516 137 580 C 202 643 287 675 393 675 C 498 675 583 643 648 581 C 713 519 746 435 746 329 C 746 223 714 139 650 77 C 586 14 500 -17 393 -17 Z M 393 141 C 445 141 486 158 518 192 C 549 226 565 271 565 329 C 565 387 549 433 518 467 C 486 501 445 518 393 518 C 341 518 299 501 268 467 C 236 433 221 387 221 329 C 221 271 236 226 268 192 C 299 158 341 141 393 141 Z" unicode="Ŏ" />
<glyph horiz-adv-x="558" d="M 280 524 C 237 524 203 537 177 565 C 151 593 139 630 139 677 L 235 677 C 235 661 239 649 247 640 C 255 630 266 626 280 626 C 294 626 305 630 313 640 C 321 649 326 661 326 677 L 421 677 C 421 630 408 593 382 565 C 356 537 322 524 280 524 Z M 279 -14 C 203 -14 142 9 96 55 C 50 101 27 162 27 238 C 27 313 50 373 96 419 C 142 465 203 488 279 488 C 355 488 416 465 462 420 C 508 375 531 315 531 240 C 531 163 508 101 462 55 C 416 9 355 -14 279 -14 Z M 279 135 C 302 135 321 144 335 162 C 349 180 357 205 357 237 C 357 269 349 294 335 312 C 321 330 302 340 279 340 C 255 340 236 331 222 313 C 208 295 201 270 201 238 C 201 206 208 180 222 162 C 236 144 255 135 279 135 Z" unicode="ŏ" />
<glyph horiz-adv-x="786" d="M 255 715 L 339 857 L 459 857 L 365 715 L 255 715 Z M 420 715 L 514 857 L 634 857 L 531 715 L 420 715 Z M 393 -17 C 285 -17 200 14 136 78 C 72 142 40 225 40 329 C 40 433 72 516 137 580 C 202 643 287 675 393 675 C 498 675 583 643 648 581 C 713 519 746 435 746 329 C 746 223 714 139 650 77 C 586 14 500 -17 393 -17 Z M 393 141 C 445 141 486 158 518 192 C 549 226 565 271 565 329 C 565 387 549 433 518 467 C 486 501 445 518 393 518 C 341 518 299 501 268 467 C 236 433 221 387 221 329 C 221 271 236 226 268 192 C 299 158 341 141 393 141 Z" unicode="Ő" />
<glyph horiz-adv-x="558" d="M 124 531 L 218 689 L 351 689 L 247 531 L 124 531 Z M 308 531 L 412 689 L 545 689 L 431 531 L 308 531 Z M 279 -14 C 203 -14 142 9 96 55 C 50 101 27 162 27 238 C 27 313 50 373 96 419 C 142 465 203 488 279 488 C 355 488 416 465 462 420 C 508 375 531 315 531 240 C 531 163 508 101 462 55 C 416 9 355 -14 279 -14 Z M 279 135 C 302 135 321 144 335 162 C 349 180 357 205 357 237 C 357 269 349 294 335 312 C 321 330 302 340 279 340 C 255 340 236 331 222 313 C 208 295 201 270 201 238 C 201 206 208 180 222 162 C 236 144 255 135 279 135 Z" unicode="ő" />
<glyph horiz-adv-x="907" d="M 409 0 C 297 0 208 28 141 86 C 73 143 40 225 40 331 C 40 437 73 518 141 574 C 209 630 298 658 410 658 L 846 658 L 846 498 L 608 498 L 608 405 L 833 405 L 833 258 L 608 258 L 608 160 L 855 160 L 855 0 L 409 0 Z M 398 160 L 431 160 L 431 503 L 399 503 C 345 503 301 487 269 456 C 237 425 221 383 221 331 C 221 278 237 236 269 206 C 301 175 344 160 398 160 Z" unicode="Œ" />
<glyph horiz-adv-x="824" d="M 277 -13 C 201 -13 140 9 95 55 C 49 101 27 162 27 238 C 27 313 49 373 95 419 C 140 464 201 487 277 487 C 309 487 338 481 364 471 C 389 461 411 447 430 430 C 448 447 470 461 495 471 C 519 481 547 487 579 487 C 649 487 703 463 741 415 C 778 367 797 301 797 217 L 797 193 L 513 193 C 515 169 527 152 547 140 C 567 128 595 122 631 122 C 655 122 681 125 707 132 C 733 139 758 150 784 164 L 784 23 C 751 11 718 2 686 -4 C 653 -10 622 -13 593 -13 C 559 -13 528 -7 501 3 C 473 13 450 28 431 46 C 412 28 390 13 364 3 C 338 -7 309 -13 277 -13 Z M 574 372 C 554 372 539 365 529 351 C 519 337 513 316 512 289 L 631 289 C 631 317 626 337 616 351 C 606 365 592 372 574 372 Z M 276 136 C 299 136 317 145 330 163 C 343 181 350 206 350 238 C 350 270 343 294 330 312 C 317 329 299 338 276 338 C 252 338 234 329 221 312 C 208 294 202 270 202 238 C 202 206 208 181 221 163 C 234 145 252 136 276 136 Z" unicode="œ" />
<glyph horiz-adv-x="619" d="M 356 706 L 226 706 L 317 845 L 466 845 L 356 706 Z M 414 0 L 347 186 C 339 209 328 226 316 237 C 304 248 289 254 271 254 L 239 254 L 239 0 L 63 0 L 63 658 L 320 658 C 382 658 434 642 474 610 C 514 578 534 535 534 481 C 534 440 523 405 501 376 C 479 347 446 326 404 314 C 434 307 460 295 480 277 C 500 259 515 235 526 206 L 604 0 L 414 0 Z M 239 379 L 286 379 C 308 379 325 385 338 399 C 351 412 358 429 358 451 C 358 471 351 488 338 501 C 325 514 308 521 286 521 L 239 521 L 239 379 Z" unicode="Ŕ" />
<glyph horiz-adv-x="381" d="M 281 524 L 137 524 L 238 678 L 403 678 L 281 524 Z M 45 0 L 45 474 L 215 474 L 215 402 C 228 431 244 452 262 465 C 280 478 300 485 321 485 C 329 485 337 484 345 483 C 353 482 360 480 368 478 L 368 310 C 355 315 343 319 331 322 C 319 324 307 326 293 326 C 279 326 265 323 251 319 C 237 314 225 308 215 301 L 215 0 L 45 0 Z" unicode="ŕ" />
<glyph horiz-adv-x="619" d="M 414 0 L 347 186 C 339 209 328 226 316 237 C 304 248 289 254 271 254 L 239 254 L 239 0 L 63 0 L 63 658 L 320 658 C 382 658 434 642 474 610 C 514 578 534 535 534 481 C 534 440 523 405 501 376 C 479 347 446 326 404 314 C 434 307 460 295 480 277 C 500 259 515 235 526 206 L 604 0 L 414 0 Z M 239 379 L 286 379 C 308 379 325 385 338 399 C 351 412 358 429 358 451 C 358 471 351 488 338 501 C 325 514 308 521 286 521 L 239 521 L 239 379 Z M 329 -244 L 234 -214 C 246 -193 255 -173 260 -155 C 265 -136 268 -115 268 -92 L 268 -48 L 388 -48 L 388 -91 C 388 -123 383 -151 373 -176 C 363 -201 349 -224 329 -244 Z" unicode="Ŗ" />
<glyph horiz-adv-x="381" d="M 45 0 L 45 474 L 215 474 L 215 402 C 228 431 244 452 262 465 C 280 478 300 485 321 485 C 329 485 337 484 345 483 C 353 482 360 480 368 478 L 368 310 C 355 315 343 319 331 322 C 319 324 307 326 293 326 C 279 326 265 323 251 319 C 237 314 225 308 215 301 L 215 0 L 45 0 Z M 134 -262 L 29 -228 C 43 -204 53 -182 59 -162 C 64 -142 67 -118 67 -92 L 67 -44 L 200 -44 L 200 -92 C 200 -127 194 -158 183 -186 C 172 -214 156 -239 134 -262 Z" unicode="ŗ" />
<glyph horiz-adv-x="619" d="M 229 706 L 144 852 L 256 852 L 291 790 L 327 852 L 435 852 L 350 706 L 229 706 Z M 414 0 L 347 186 C 339 209 328 226 316 237 C 304 248 289 254 271 254 L 239 254 L 239 0 L 63 0 L 63 658 L 320 658 C 382 658 434 642 474 610 C 514 578 534 535 534 481 C 534 440 523 405 501 376 C 479 347 446 326 404 314 C 434 307 460 295 480 277 C 500 259 515 235 526 206 L 604 0 L 414 0 Z M 239 379 L 286 379 C 308 379 325 385 338 399 C 351 412 358 429 358 451 C 358 471 351 488 338 501 C 325 514 308 521 286 521 L 239 521 L 239 379 Z" unicode="Ř" />
<glyph horiz-adv-x="381" d="M 145 524 L 51 686 L 175 686 L 214 618 L 253 686 L 373 686 L 279 524 L 145 524 Z M 45 0 L 45 474 L 215 474 L 215 402 C 228 431 244 452 262 465 C 280 478 300 485 321 485 C 329 485 337 484 345 483 C 353 482 360 480 368 478 L 368 310 C 355 315 343 319 331 322 C 319 324 307 326 293 326 C 279 326 265 323 251 319 C 237 314 225 308 215 301 L 215 0 L 45 0 Z" unicode="ř" />
<glyph horiz-adv-x="543" d="M 343 714 L 213 714 L 304 853 L 453 853 L 343 714 Z M 254 -13 C 221 -13 187 -9 153 -2 C 118 4 84 15 52 29 L 52 192 C 82 175 113 162 146 154 C 178 145 211 141 244 141 C 266 141 283 145 296 154 C 308 162 315 175 315 191 C 315 205 308 218 296 229 C 284 239 265 248 240 256 L 213 263 C 156 278 113 303 85 338 C 57 372 43 414 43 464 C 43 526 64 576 108 614 C 151 652 209 671 283 671 C 313 671 345 668 377 662 C 409 656 441 647 472 635 L 472 473 C 444 487 416 499 386 507 C 356 515 326 519 298 519 C 276 519 260 515 248 508 C 236 500 230 489 230 474 C 230 460 235 449 247 439 C 259 429 276 420 300 414 L 327 407 C 385 391 429 365 458 331 C 486 296 501 255 501 207 C 501 137 478 83 434 45 C 389 6 329 -13 254 -13 Z" unicode="Ś" />
<glyph horiz-adv-x="449" d="M 292 528 L 148 528 L 249 682 L 414 682 L 292 528 Z M 215 -13 C 186 -13 156 -10 126 -6 C 96 -1 67 5 39 13 L 39 150 C 63 137 89 127 116 120 C 142 113 169 110 196 110 C 210 110 220 112 228 116 C 236 120 240 127 240 136 C 240 142 237 148 231 153 C 225 158 215 163 201 168 L 170 176 C 120 190 85 210 63 235 C 41 259 30 291 30 330 C 30 378 46 416 78 444 C 110 472 158 487 223 487 C 250 487 278 484 308 480 C 337 476 365 470 393 464 L 393 332 C 369 343 345 352 321 358 C 297 364 273 367 250 367 C 236 367 226 365 219 361 C 212 357 209 351 209 343 C 209 336 211 330 217 325 C 222 320 232 315 246 311 L 277 303 C 327 289 363 269 386 244 C 408 218 420 187 420 150 C 420 101 402 62 368 32 C 334 2 283 -13 215 -13 Z" unicode="ś" />
<glyph horiz-adv-x="543" d="M 241 714 L 133 714 L 218 860 L 339 860 L 424 714 L 312 714 L 277 776 L 241 714 Z M 254 -13 C 221 -13 187 -9 153 -2 C 118 4 84 15 52 29 L 52 192 C 82 175 113 162 146 154 C 178 145 211 141 244 141 C 266 141 283 145 296 154 C 308 162 315 175 315 191 C 315 205 308 218 296 229 C 284 239 265 248 240 256 L 213 263 C 156 278 113 303 85 338 C 57 372 43 414 43 464 C 43 526 64 576 108 614 C 151 652 209 671 283 671 C 313 671 345 668 377 662 C 409 656 441 647 472 635 L 472 473 C 444 487 416 499 386 507 C 356 515 326 519 298 519 C 276 519 260 515 248 508 C 236 500 230 489 230 474 C 230 460 235 449 247 439 C 259 429 276 420 300 414 L 327 407 C 385 391 429 365 458 331 C 486 296 501 255 501 207 C 501 137 478 83 434 45 C 389 6 329 -13 254 -13 Z" unicode="Ŝ" />
<glyph horiz-adv-x="449" d="M 184 528 L 64 528 L 158 690 L 292 690 L 386 528 L 262 528 L 223 597 L 184 528 Z M 215 -13 C 186 -13 156 -10 126 -6 C 96 -1 67 5 39 13 L 39 150 C 63 137 89 127 116 120 C 142 113 169 110 196 110 C 210 110 220 112 228 116 C 236 120 240 127 240 136 C 240 142 237 148 231 153 C 225 158 215 163 201 168 L 170 176 C 120 190 85 210 63 235 C 41 259 30 291 30 330 C 30 378 46 416 78 444 C 110 472 158 487 223 487 C 250 487 278 484 308 480 C 337 476 365 470 393 464 L 393 332 C 369 343 345 352 321 358 C 297 364 273 367 250 367 C 236 367 226 365 219 361 C 212 357 209 351 209 343 C 209 336 211 330 217 325 C 222 320 232 315 246 311 L 277 303 C 327 289 363 269 386 244 C 408 218 420 187 420 150 C 420 101 402 62 368 32 C 334 2 283 -13 215 -13 Z" unicode="ŝ" />
<glyph horiz-adv-x="543" d="M 254 -13 C 221 -13 187 -9 153 -2 C 118 4 84 15 52 29 L 52 192 C 82 175 113 162 146 154 C 178 145 211 141 244 141 C 266 141 283 145 296 154 C 308 162 315 175 315 191 C 315 205 308 218 296 229 C 284 239 265 248 240 256 L 213 263 C 156 278 113 303 85 338 C 57 372 43 414 43 464 C 43 526 64 576 108 614 C 151 652 209 671 283 671 C 313 671 345 668 377 662 C 409 656 441 647 472 635 L 472 473 C 444 487 416 499 386 507 C 356 515 326 519 298 519 C 276 519 260 515 248 508 C 236 500 230 489 230 474 C 230 460 235 449 247 439 C 259 429 276 420 300 414 L 327 407 C 385 391 429 365 458 331 C 486 296 501 255 501 207 C 501 137 478 83 434 45 C 389 6 329 -13 254 -13 Z M 285 -236 C 272 -236 260 -235 248 -233 C 236 -231 225 -229 215 -225 L 215 -149 C 223 -153 232 -157 240 -159 C 248 -161 256 -163 264 -163 C 272 -163 279 -160 284 -156 C 289 -151 292 -145 292 -139 C 292 -131 289 -125 284 -121 C 278 -116 271 -114 263 -114 L 255 -114 L 255 -47 L 266 -47 C 302 -47 331 -55 353 -72 C 375 -88 387 -112 387 -142 C 387 -172 377 -195 358 -211 C 339 -227 315 -236 285 -236 Z" unicode="Ş" />
<glyph horiz-adv-x="449" d="M 215 -13 C 186 -13 156 -10 126 -6 C 96 -1 67 5 39 13 L 39 150 C 63 137 89 127 116 120 C 142 113 169 110 196 110 C 210 110 220 112 228 116 C 236 120 240 127 240 136 C 240 142 237 148 231 153 C 225 158 215 163 201 168 L 170 176 C 120 190 85 210 63 235 C 41 259 30 291 30 330 C 30 378 46 416 78 444 C 110 472 158 487 223 487 C 250 487 278 484 308 480 C 337 476 365 470 393 464 L 393 332 C 369 343 345 352 321 358 C 297 364 273 367 250 367 C 236 367 226 365 219 361 C 212 357 209 351 209 343 C 209 336 211 330 217 325 C 222 320 232 315 246 311 L 277 303 C 327 289 363 269 386 244 C 408 218 420 187 420 150 C 420 101 402 62 368 32 C 334 2 283 -13 215 -13 Z M 246 -248 C 232 -248 219 -247 207 -245 C 195 -243 182 -240 170 -236 L 170 -154 C 179 -158 188 -162 197 -164 C 206 -166 215 -168 224 -168 C 232 -168 239 -165 245 -161 C 251 -156 254 -150 254 -142 C 254 -134 251 -127 245 -122 C 239 -117 232 -115 224 -115 L 214 -115 L 214 -42 L 227 -42 C 265 -42 296 -51 320 -69 C 344 -87 357 -113 357 -146 C 357 -178 346 -203 326 -221 C 305 -239 278 -248 246 -248 Z" unicode="ş" />
<glyph horiz-adv-x="543" d="M 216 714 L 131 860 L 243 860 L 278 798 L 314 860 L 422 860 L 337 714 L 216 714 Z M 254 -13 C 221 -13 187 -9 153 -2 C 118 4 84 15 52 29 L 52 192 C 82 175 113 162 146 154 C 178 145 211 141 244 141 C 266 141 283 145 296 154 C 308 162 315 175 315 191 C 315 205 308 218 296 229 C 284 239 265 248 240 256 L 213 263 C 156 278 113 303 85 338 C 57 372 43 414 43 464 C 43 526 64 576 108 614 C 151 652 209 671 283 671 C 313 671 345 668 377 662 C 409 656 441 647 472 635 L 472 473 C 444 487 416 499 386 507 C 356 515 326 519 298 519 C 276 519 260 515 248 508 C 236 500 230 489 230 474 C 230 460 235 449 247 439 C 259 429 276 420 300 414 L 327 407 C 385 391 429 365 458 331 C 486 296 501 255 501 207 C 501 137 478 83 434 45 C 389 6 329 -13 254 -13 Z" unicode="Š" />
<glyph horiz-adv-x="449" d="M 156 528 L 62 690 L 186 690 L 225 622 L 264 690 L 384 690 L 290 528 L 156 528 Z M 215 -13 C 186 -13 156 -10 126 -6 C 96 -1 67 5 39 13 L 39 150 C 63 137 89 127 116 120 C 142 113 169 110 196 110 C 210 110 220 112 228 116 C 236 120 240 127 240 136 C 240 142 237 148 231 153 C 225 158 215 163 201 168 L 170 176 C 120 190 85 210 63 235 C 41 259 30 291 30 330 C 30 378 46 416 78 444 C 110 472 158 487 223 487 C 250 487 278 484 308 480 C 337 476 365 470 393 464 L 393 332 C 369 343 345 352 321 358 C 297 364 273 367 250 367 C 236 367 226 365 219 361 C 212 357 209 351 209 343 C 209 336 211 330 217 325 C 222 320 232 315 246 311 L 277 303 C 327 289 363 269 386 244 C 408 218 420 187 420 150 C 420 101 402 62 368 32 C 334 2 283 -13 215 -13 Z" unicode="š" />
<glyph horiz-adv-x="574" d="M 199 0 L 199 498 L 20 498 L 20 658 L 554 658 L 554 498 L 375 498 L 375 0 L 199 0 Z M 308 -228 C 295 -228 283 -227 271 -225 C 259 -223 248 -221 238 -217 L 238 -141 C 246 -145 255 -149 263 -151 C 271 -153 279 -155 287 -155 C 295 -155 302 -152 307 -148 C 312 -143 315 -137 315 -131 C 315 -123 312 -117 307 -113 C 301 -108 294 -106 286 -106 L 278 -106 L 278 -39 L 289 -39 C 325 -39 354 -47 376 -64 C 398 -80 410 -104 410 -134 C 410 -164 400 -187 381 -203 C 362 -219 338 -228 308 -228 Z" unicode="Ţ" />
<glyph horiz-adv-x="364" d="M 221 -11 C 177 -11 142 2 117 28 C 92 54 80 90 80 136 L 80 331 L 22 331 L 22 474 L 80 474 L 80 605 L 250 605 L 250 474 L 333 474 L 333 331 L 250 331 L 250 187 C 250 172 253 160 261 152 C 269 144 279 140 292 140 C 300 140 307 141 315 143 C 322 145 329 149 337 154 L 337 10 C 318 2 299 -2 279 -6 C 259 -9 239 -11 221 -11 Z M 242 -254 C 228 -254 215 -253 203 -251 C 191 -249 178 -246 166 -242 L 166 -160 C 175 -164 184 -168 193 -170 C 202 -172 211 -174 220 -174 C 228 -174 235 -171 241 -167 C 247 -162 250 -156 250 -148 C 250 -140 247 -133 241 -128 C 235 -123 228 -121 220 -121 L 210 -121 L 210 -48 L 223 -48 C 261 -48 292 -57 316 -75 C 340 -93 353 -119 353 -152 C 353 -184 342 -209 322 -227 C 301 -245 274 -254 242 -254 Z" unicode="ţ" />
<glyph horiz-adv-x="574" d="M 227 706 L 142 852 L 254 852 L 289 790 L 325 852 L 433 852 L 348 706 L 227 706 Z M 199 0 L 199 498 L 20 498 L 20 658 L 554 658 L 554 498 L 375 498 L 375 0 L 199 0 Z" unicode="Ť" />
<glyph horiz-adv-x="520" d="M 404 515 L 298 548 C 312 572 322 594 328 614 C 334 634 337 657 337 684 L 337 732 L 469 732 L 469 685 C 469 649 463 618 453 590 C 442 562 426 537 404 515 Z M 221 -11 C 177 -11 142 2 117 28 C 92 54 80 90 80 136 L 80 331 L 22 331 L 22 474 L 80 474 L 80 605 L 250 605 L 250 474 L 333 474 L 333 331 L 250 331 L 250 187 C 250 172 253 160 261 152 C 269 144 279 140 292 140 C 300 140 307 141 315 143 C 322 145 329 149 337 154 L 337 10 C 318 2 299 -2 279 -6 C 259 -9 239 -11 221 -11 Z" unicode="ť" />
<glyph horiz-adv-x="574" d="M 199 0 L 199 251 L 94 251 L 94 369 L 199 369 L 199 498 L 20 498 L 20 658 L 554 658 L 554 498 L 375 498 L 375 369 L 477 369 L 477 251 L 375 251 L 375 0 L 199 0 Z" unicode="Ŧ" />
<glyph horiz-adv-x="364" d="M 39 201 L 39 290 L 80 290 L 80 331 L 22 331 L 22 474 L 80 474 L 80 605 L 250 605 L 250 474 L 333 474 L 333 331 L 250 331 L 250 290 L 308 290 L 308 201 L 250 201 L 250 187 C 250 172 253 160 261 152 C 269 144 279 140 292 140 C 300 140 307 141 315 143 C 322 145 329 149 337 154 L 337 10 C 318 2 299 -2 279 -6 C 259 -9 239 -11 221 -11 C 177 -11 142 2 117 28 C 92 54 80 90 80 136 L 80 201 L 39 201 Z" unicode="ŧ" />
<glyph horiz-adv-x="691" d="M 287 706 L 205 706 C 205 747 213 779 230 802 C 247 825 271 837 303 837 C 315 837 326 835 336 832 C 346 828 356 823 368 815 C 375 810 381 807 385 805 C 389 803 394 802 399 802 C 405 802 410 804 414 810 C 418 815 420 823 421 833 L 503 833 C 503 791 494 759 477 736 C 460 713 436 702 405 702 C 393 702 382 703 372 706 C 362 709 351 715 340 724 C 333 728 327 732 323 734 C 318 736 313 737 309 737 C 302 737 297 734 293 729 C 289 723 287 716 287 706 Z M 349 -12 C 260 -12 189 13 136 63 C 82 113 56 180 56 264 L 56 658 L 238 658 L 238 272 C 238 238 248 210 269 188 C 289 166 317 156 352 156 C 387 156 415 166 435 188 C 455 210 465 238 465 272 L 465 658 L 635 658 L 635 264 C 635 180 608 113 556 63 C 503 13 434 -12 349 -12 Z" unicode="Ũ" />
<glyph horiz-adv-x="541" d="M 196 524 L 105 524 C 105 570 114 605 134 631 C 153 656 180 669 215 669 C 228 669 240 667 251 663 C 262 659 274 653 287 645 C 295 640 301 636 306 634 C 311 631 316 630 321 630 C 328 630 334 633 338 639 C 342 645 345 653 346 664 L 437 664 C 437 618 427 583 408 557 C 388 531 361 519 327 519 C 314 519 302 520 291 524 C 279 528 267 534 255 544 C 247 548 241 552 236 554 C 230 556 225 558 221 558 C 213 558 206 555 202 549 C 198 543 196 534 196 524 Z M 196 -12 C 149 -12 111 3 83 34 C 55 64 41 106 41 158 L 41 474 L 211 474 L 211 195 C 211 177 216 162 226 152 C 236 141 249 136 265 136 C 277 136 289 138 300 144 C 310 150 319 158 326 169 L 326 474 L 496 474 L 496 0 L 335 0 L 326 61 C 311 38 292 20 270 7 C 247 -5 222 -12 196 -12 Z" unicode="ũ" />
<glyph horiz-adv-x="691" d="M 239 706 L 239 806 L 472 806 L 472 706 L 239 706 Z M 349 -12 C 260 -12 189 13 136 63 C 82 113 56 180 56 264 L 56 658 L 238 658 L 238 272 C 238 238 248 210 269 188 C 289 166 317 156 352 156 C 387 156 415 166 435 188 C 455 210 465 238 465 272 L 465 658 L 635 658 L 635 264 C 635 180 608 113 556 63 C 503 13 434 -12 349 -12 Z" unicode="Ū" />
<glyph horiz-adv-x="541" d="M 142 532 L 142 643 L 399 643 L 399 532 L 142 532 Z M 196 -12 C 149 -12 111 3 83 34 C 55 64 41 106 41 158 L 41 474 L 211 474 L 211 195 C 211 177 216 162 226 152 C 236 141 249 136 265 136 C 277 136 289 138 300 144 C 310 150 319 158 326 169 L 326 474 L 496 474 L 496 0 L 335 0 L 326 61 C 311 38 292 20 270 7 C 247 -5 222 -12 196 -12 Z" unicode="ū" />
<glyph horiz-adv-x="691" d="M 354 702 C 315 702 284 714 261 739 C 238 763 227 797 227 839 L 313 839 C 313 825 316 814 324 806 C 331 798 341 794 354 794 C 366 794 376 798 384 806 C 391 814 395 825 395 839 L 481 839 C 481 797 469 763 446 739 C 422 714 392 702 354 702 Z M 349 -12 C 260 -12 189 13 136 63 C 82 113 56 180 56 264 L 56 658 L 238 658 L 238 272 C 238 238 248 210 269 188 C 289 166 317 156 352 156 C 387 156 415 166 435 188 C 455 210 465 238 465 272 L 465 658 L 635 658 L 635 264 C 635 180 608 113 556 63 C 503 13 434 -12 349 -12 Z" unicode="Ŭ" />
<glyph horiz-adv-x="541" d="M 270 520 C 227 520 193 533 167 561 C 141 589 129 626 129 673 L 225 673 C 225 657 229 645 237 636 C 245 626 256 622 270 622 C 284 622 295 626 303 636 C 311 645 316 657 316 673 L 411 673 C 411 626 398 589 372 561 C 346 533 312 520 270 520 Z M 196 -12 C 149 -12 111 3 83 34 C 55 64 41 106 41 158 L 41 474 L 211 474 L 211 195 C 211 177 216 162 226 152 C 236 141 249 136 265 136 C 277 136 289 138 300 144 C 310 150 319 158 326 169 L 326 474 L 496 474 L 496 0 L 335 0 L 326 61 C 311 38 292 20 270 7 C 247 -5 222 -12 196 -12 Z" unicode="ŭ" />
<glyph horiz-adv-x="691" d="M 355 583 C 320 583 292 594 271 616 C 250 638 240 664 240 696 C 240 726 250 753 271 775 C 292 797 320 808 355 808 C 389 808 416 797 437 775 C 458 753 469 726 469 696 C 469 664 458 638 437 616 C 416 594 389 583 355 583 Z M 355 658 C 365 658 373 661 381 668 C 388 674 392 683 392 695 C 392 706 388 715 381 722 C 373 729 365 733 355 733 C 344 733 335 729 328 722 C 320 715 317 706 317 695 C 317 683 320 674 328 668 C 335 661 344 658 355 658 Z M 349 -12 C 260 -12 189 13 136 63 C 82 113 56 180 56 264 L 56 658 L 238 658 L 238 272 C 238 238 248 210 269 188 C 289 166 317 156 352 156 C 387 156 415 166 435 188 C 455 210 465 238 465 272 L 465 658 L 635 658 L 635 264 C 635 180 608 113 556 63 C 503 13 434 -12 349 -12 Z" unicode="Ů" />
<glyph horiz-adv-x="541" d="M 270 513 C 231 513 200 525 177 549 C 154 573 143 603 143 638 C 143 672 154 701 177 725 C 200 749 231 762 270 762 C 308 762 339 749 362 725 C 385 701 397 672 397 638 C 397 603 385 573 362 549 C 339 525 308 513 270 513 Z M 270 596 C 281 596 291 599 299 607 C 307 614 312 624 312 637 C 312 649 307 659 299 667 C 291 675 281 679 270 679 C 258 679 248 675 240 667 C 232 659 228 649 228 637 C 228 624 232 614 240 607 C 248 599 258 596 270 596 Z M 196 -12 C 149 -12 111 3 83 34 C 55 64 41 106 41 158 L 41 474 L 211 474 L 211 195 C 211 177 216 162 226 152 C 236 141 249 136 265 136 C 277 136 289 138 300 144 C 310 150 319 158 326 169 L 326 474 L 496 474 L 496 0 L 335 0 L 326 61 C 311 38 292 20 270 7 C 247 -5 222 -12 196 -12 Z" unicode="ů" />
<glyph horiz-adv-x="691" d="M 214 706 L 298 848 L 418 848 L 324 706 L 214 706 Z M 379 706 L 473 848 L 593 848 L 490 706 L 379 706 Z M 349 -12 C 260 -12 189 13 136 63 C 82 113 56 180 56 264 L 56 658 L 238 658 L 238 272 C 238 238 248 210 269 188 C 289 166 317 156 352 156 C 387 156 415 166 435 188 C 455 210 465 238 465 272 L 465 658 L 635 658 L 635 264 C 635 180 608 113 556 63 C 503 13 434 -12 349 -12 Z" unicode="Ű" />
<glyph horiz-adv-x="541" d="M 114 527 L 208 685 L 341 685 L 237 527 L 114 527 Z M 298 527 L 402 685 L 535 685 L 421 527 L 298 527 Z M 196 -12 C 149 -12 111 3 83 34 C 55 64 41 106 41 158 L 41 474 L 211 474 L 211 195 C 211 177 216 162 226 152 C 236 141 249 136 265 136 C 277 136 289 138 300 144 C 310 150 319 158 326 169 L 326 474 L 496 474 L 496 0 L 335 0 L 326 61 C 311 38 292 20 270 7 C 247 -5 222 -12 196 -12 Z" unicode="ű" />
<glyph horiz-adv-x="691" d="M 501 -220 C 441 -220 393 -207 358 -182 C 323 -156 306 -123 306 -81 C 306 -68 307 -56 311 -44 C 314 -32 319 -21 325 -11 C 243 -6 178 20 129 70 C 80 120 56 184 56 264 L 56 658 L 238 658 L 238 272 C 238 238 248 210 269 188 C 289 166 317 156 352 156 C 387 156 415 166 435 188 C 455 210 465 238 465 272 L 465 658 L 635 658 L 635 264 C 635 202 620 149 591 106 C 562 62 523 31 475 11 C 460 4 449 -4 442 -14 C 435 -24 432 -35 432 -48 C 432 -64 438 -78 450 -90 C 462 -101 479 -107 501 -107 L 501 -220 Z" unicode="Ų" />
<glyph horiz-adv-x="541" d="M 196 -12 C 149 -12 111 3 83 34 C 55 64 41 106 41 158 L 41 474 L 211 474 L 211 195 C 211 177 216 162 226 152 C 236 141 249 136 265 136 C 277 136 289 138 300 144 C 310 150 319 158 326 169 L 326 474 L 496 474 L 496 0 L 477 0 C 457 0 441 -5 430 -15 C 418 -25 413 -39 413 -56 C 413 -70 418 -82 430 -92 C 441 -102 457 -107 477 -107 L 477 -220 C 421 -220 376 -209 343 -188 C 310 -166 294 -136 294 -96 C 294 -76 298 -59 306 -43 C 314 -27 325 -12 340 0 L 335 0 L 326 61 C 311 38 292 20 270 7 C 247 -5 222 -12 196 -12 Z" unicode="ų" />
<glyph horiz-adv-x="1040" d="M 485 706 L 377 706 L 462 852 L 583 852 L 668 706 L 556 706 L 521 768 L 485 706 Z M 211 0 L 14 658 L 199 658 L 290 326 L 317 207 L 345 326 L 436 658 L 617 658 L 707 326 L 735 213 L 762 326 L 852 658 L 1027 658 L 827 0 L 632 0 L 547 304 L 519 430 L 489 304 L 404 0 L 211 0 Z" unicode="Ŵ" />
<glyph horiz-adv-x="842" d="M 383 524 L 263 524 L 357 686 L 491 686 L 585 524 L 461 524 L 422 593 L 383 524 Z M 152 0 L 11 474 L 185 474 L 237 279 L 264 161 L 291 279 L 343 474 L 506 474 L 560 279 L 590 163 L 620 279 L 677 474 L 831 474 L 681 0 L 488 0 L 447 155 L 417 275 L 387 155 L 346 0 L 152 0 Z" unicode="ŵ" />
<glyph horiz-adv-x="674" d="M 308 706 L 200 706 L 285 852 L 406 852 L 491 706 L 379 706 L 344 768 L 308 706 Z M 251 0 L 251 235 L 11 658 L 215 658 L 310 475 L 347 397 L 385 475 L 478 658 L 663 658 L 427 237 L 427 0 L 251 0 Z" unicode="Ŷ" />
<glyph horiz-adv-x="539" d="M 235 524 L 115 524 L 209 686 L 343 686 L 437 524 L 313 524 L 274 593 L 235 524 Z M 34 -215 L 26 -215 L 26 -66 L 34 -66 C 80 -66 114 -61 137 -53 C 160 -44 179 -28 194 -6 L 167 9 L 11 474 L 193 474 L 248 279 L 278 151 L 309 279 L 364 474 L 527 474 L 393 61 C 359 -44 314 -116 260 -156 C 205 -195 130 -215 34 -215 Z" unicode="ŷ" />
<glyph horiz-adv-x="674" d="M 200 706 L 200 825 L 318 825 L 318 706 L 200 706 Z M 372 706 L 372 825 L 490 825 L 490 706 L 372 706 Z M 251 0 L 251 235 L 11 658 L 215 658 L 310 475 L 347 397 L 385 475 L 478 658 L 663 658 L 427 237 L 427 0 L 251 0 Z" unicode="Ÿ" />
<glyph horiz-adv-x="631" d="M 386 706 L 256 706 L 347 845 L 496 845 L 386 706 Z M 46 0 L 46 99 L 283 435 L 330 498 L 54 498 L 54 658 L 585 658 L 585 559 L 350 223 L 303 160 L 585 160 L 585 0 L 46 0 Z" unicode="Ź" />
<glyph horiz-adv-x="486" d="M 317 524 L 173 524 L 274 678 L 439 678 L 317 524 Z M 34 0 L 34 98 L 169 273 L 215 330 L 38 330 L 38 474 L 445 474 L 445 376 L 310 201 L 264 144 L 452 144 L 452 0 L 34 0 Z" unicode="ź" />
<glyph horiz-adv-x="631" d="M 260 706 L 260 829 L 383 829 L 383 706 L 260 706 Z M 46 0 L 46 99 L 283 435 L 330 498 L 54 498 L 54 658 L 585 658 L 585 559 L 350 223 L 303 160 L 585 160 L 585 0 L 46 0 Z" unicode="Ż" />
<glyph horiz-adv-x="486" d="M 179 524 L 179 660 L 316 660 L 316 524 L 179 524 Z M 34 0 L 34 98 L 169 273 L 215 330 L 38 330 L 38 474 L 445 474 L 445 376 L 310 201 L 264 144 L 452 144 L 452 0 L 34 0 Z" unicode="ż" />
<glyph horiz-adv-x="631" d="M 259 706 L 174 852 L 286 852 L 321 790 L 357 852 L 465 852 L 380 706 L 259 706 Z M 46 0 L 46 99 L 283 435 L 330 498 L 54 498 L 54 658 L 585 658 L 585 559 L 350 223 L 303 160 L 585 160 L 585 0 L 46 0 Z" unicode="Ž" />
<glyph horiz-adv-x="486" d="M 181 524 L 87 686 L 211 686 L 250 618 L 289 686 L 409 686 L 315 524 L 181 524 Z M 34 0 L 34 98 L 169 273 L 215 330 L 38 330 L 38 474 L 445 474 L 445 376 L 310 201 L 264 144 L 452 144 L 452 0 L 34 0 Z" unicode="ž" />
<glyph horiz-adv-x="530" d="M 113 -215 C 98 -215 83 -214 68 -212 C 53 -210 38 -206 24 -202 L 24 -55 C 35 -58 46 -60 58 -62 C 70 -64 82 -65 96 -65 C 110 -65 122 -60 132 -52 C 141 -43 147 -31 149 -15 L 191 328 L 127 328 L 127 472 L 209 472 L 217 540 C 224 601 246 647 282 677 C 318 707 362 722 416 722 C 430 722 445 721 461 719 C 476 717 491 714 507 711 L 507 561 C 495 564 484 567 472 569 C 460 571 449 572 437 572 C 421 572 408 567 399 559 C 390 550 385 538 383 522 L 377 472 L 451 472 L 451 328 L 359 328 L 315 -34 C 308 -92 287 -136 251 -168 C 215 -199 169 -215 113 -215 Z" unicode="ƒ" />
<glyph horiz-adv-x="699" d="M 326 716 L 241 862 L 353 862 L 388 800 L 424 862 L 532 862 L 447 716 L 326 716 Z M 392 -14 C 285 -14 200 17 136 80 C 72 142 40 225 40 329 C 40 434 72 517 138 579 C 204 641 290 672 396 672 C 432 672 470 668 508 662 C 546 656 581 647 615 635 L 615 471 C 582 485 548 495 514 502 C 480 509 444 513 406 513 C 352 513 307 496 273 464 C 238 431 221 387 221 332 C 221 274 236 227 268 193 C 299 159 340 142 390 142 C 407 142 423 143 438 145 C 453 147 468 150 483 155 L 483 244 L 371 244 L 371 385 L 654 385 L 654 33 C 614 17 573 6 529 -2 C 485 -10 440 -14 392 -14 Z" unicode="Ǧ" />
<glyph horiz-adv-x="547" d="M 197 529 L 103 691 L 227 691 L 266 623 L 305 691 L 425 691 L 331 529 L 197 529 Z M 258 -220 C 222 -220 187 -217 155 -211 C 122 -205 90 -196 60 -184 L 60 -38 C 84 -53 110 -65 136 -73 C 162 -81 188 -86 213 -86 C 239 -86 265 -79 292 -66 C 318 -53 332 -28 332 10 L 332 41 C 318 24 302 11 282 2 C 262 -6 241 -11 220 -11 C 159 -11 112 10 78 53 C 44 96 27 154 27 228 C 27 309 49 372 95 418 C 140 464 196 487 262 487 C 287 487 312 481 338 470 C 363 458 383 443 397 424 L 430 474 L 502 474 L 502 25 C 502 -57 477 -119 429 -159 C 381 -199 324 -220 258 -220 Z M 273 133 C 283 133 294 134 304 138 C 314 142 323 147 331 153 L 331 328 C 323 330 315 333 306 335 C 297 337 288 338 280 338 C 254 338 235 327 221 307 C 207 287 201 262 201 234 C 201 203 207 178 219 160 C 231 142 249 133 273 133 Z" unicode="ǧ" />
<glyph horiz-adv-x="721" d="M 307 822 L 366 909 L 472 909 L 410 822 L 307 822 Z M 14 0 L 267 635 C 262 643 258 651 256 661 C 253 671 252 681 252 692 C 252 722 261 747 281 769 C 301 790 328 801 362 801 C 395 801 421 790 441 769 C 461 747 471 722 471 692 C 471 681 469 671 466 661 C 463 651 459 641 455 633 L 707 0 L 517 0 L 472 118 L 229 118 L 185 0 L 14 0 Z M 362 658 C 370 658 378 661 385 667 C 391 673 395 681 395 692 C 395 702 391 710 385 716 C 378 722 370 726 362 726 C 352 726 344 722 338 716 C 331 710 328 702 328 692 C 328 681 331 673 338 667 C 344 661 352 658 362 658 Z M 277 248 L 424 248 L 392 332 L 350 453 L 308 332 L 277 248 Z" unicode="Ǻ" />
<glyph horiz-adv-x="511" d="M 196 672 L 262 768 L 379 768 L 310 672 L 196 672 Z M 175 -11 C 132 -11 97 1 70 27 C 43 53 30 86 30 126 C 30 173 46 209 78 234 C 110 259 156 277 216 288 L 299 302 L 299 314 C 299 328 291 340 276 348 C 261 356 239 360 210 360 C 183 360 156 356 130 348 C 104 340 79 330 55 317 L 55 455 C 69 459 83 464 98 468 C 113 472 128 476 144 479 C 141 486 139 494 137 502 C 135 510 135 518 135 527 C 135 560 146 588 168 612 C 190 636 219 648 257 648 C 293 648 323 636 345 612 C 367 588 378 560 378 527 C 378 517 377 507 375 497 C 373 487 369 479 365 471 C 398 458 424 439 442 413 C 460 387 469 357 469 322 L 469 0 L 310 0 L 300 59 C 287 36 270 19 248 7 C 226 -5 202 -11 175 -11 Z M 257 490 C 267 490 275 493 283 500 C 290 506 294 515 294 527 C 294 538 290 547 283 554 C 275 561 267 565 257 565 C 246 565 237 561 230 554 C 222 547 219 538 219 527 C 219 515 222 506 230 500 C 237 493 246 490 257 490 Z M 244 113 C 256 113 267 116 277 122 C 287 128 294 136 299 147 L 299 211 L 248 203 C 233 200 221 194 213 186 C 204 178 200 167 200 153 C 200 140 204 130 212 123 C 220 116 231 113 244 113 Z" unicode="ǻ" />
<glyph horiz-adv-x="921" d="M 616 706 L 486 706 L 577 845 L 726 845 L 616 706 Z M 9 0 L 353 658 L 859 658 L 859 498 L 621 498 L 621 405 L 847 405 L 847 258 L 621 258 L 621 160 L 869 160 L 869 0 L 445 0 L 445 143 L 263 143 L 189 0 L 9 0 Z M 338 286 L 445 286 L 445 495 L 391 388 L 338 286 Z" unicode="Ǽ" />
<glyph horiz-adv-x="783" d="M 461 524 L 317 524 L 418 678 L 583 678 L 461 524 Z M 188 -11 C 140 -11 102 1 74 27 C 46 53 32 85 32 125 C 32 173 48 209 80 235 C 112 261 159 279 219 290 L 301 304 L 301 312 C 301 328 293 339 278 347 C 262 355 239 359 209 359 C 182 359 156 355 130 348 C 104 341 79 331 57 319 L 57 451 C 86 461 117 468 149 474 C 181 480 215 483 251 483 C 281 483 309 479 334 473 C 359 466 381 457 399 445 C 417 457 438 467 461 473 C 484 479 509 483 536 483 C 607 483 661 459 699 413 C 737 367 756 301 756 216 L 756 193 L 471 193 C 473 170 485 153 506 141 C 526 129 555 123 591 123 C 614 123 639 126 666 133 C 693 139 719 149 743 161 L 743 25 C 711 13 678 4 644 -1 C 610 -7 580 -11 552 -11 C 508 -11 469 -3 435 11 C 401 26 373 47 352 74 C 332 46 309 24 282 10 C 255 -3 224 -11 188 -11 Z M 531 371 C 512 371 498 364 488 350 C 478 336 472 317 471 292 L 590 292 C 590 318 584 338 574 351 C 564 364 549 371 531 371 Z M 249 117 C 259 117 269 120 279 126 C 289 132 296 141 301 151 L 301 211 L 251 202 C 237 199 225 194 216 187 C 207 179 203 169 203 157 C 203 144 207 134 216 127 C 224 120 235 117 249 117 Z" unicode="ǽ" />
<glyph horiz-adv-x="786" d="M 464 718 L 334 718 L 425 857 L 574 857 L 464 718 Z M 85 -48 L 153 62 C 117 92 89 130 69 176 C 49 222 40 273 40 329 C 40 433 72 516 137 580 C 202 643 287 675 393 675 C 415 675 437 673 458 670 C 479 667 499 663 518 657 L 548 706 L 704 706 L 636 594 C 670 564 697 526 717 481 C 736 436 746 385 746 329 C 746 223 714 139 650 77 C 586 14 500 -17 393 -17 C 371 -17 349 -15 329 -12 C 308 -9 288 -5 270 0 L 241 -48 L 85 -48 Z M 393 141 C 445 141 486 158 518 192 C 549 226 565 271 565 329 C 565 387 549 433 518 467 C 486 501 445 518 393 518 C 341 518 299 501 268 467 C 236 433 221 387 221 329 C 221 271 236 226 268 192 C 299 158 341 141 393 141 Z" unicode="Ǿ" />
<glyph horiz-adv-x="558" d="M 340 529 L 196 529 L 297 683 L 462 683 L 340 529 Z M 44 -48 L 102 48 C 78 70 59 97 46 129 C 33 161 27 198 27 238 C 27 313 50 373 96 419 C 142 465 203 488 279 488 C 293 488 307 487 321 485 C 334 483 347 480 360 478 L 387 522 L 515 522 L 457 426 C 480 404 498 377 511 346 C 524 314 531 279 531 240 C 531 163 508 101 462 55 C 416 9 355 -14 279 -14 C 264 -14 250 -13 237 -11 C 223 -9 211 -7 199 -4 L 172 -48 L 44 -48 Z M 279 135 C 302 135 321 144 335 162 C 349 180 357 205 357 237 C 357 269 349 294 335 312 C 321 330 302 340 279 340 C 255 340 236 331 222 313 C 208 295 201 270 201 238 C 201 206 208 180 222 162 C 236 144 255 135 279 135 Z" unicode="ǿ" />
<glyph horiz-adv-x="543" d="M 254 -13 C 221 -13 187 -9 153 -2 C 118 4 84 15 52 29 L 52 192 C 82 175 113 162 146 154 C 178 145 211 141 244 141 C 266 141 283 145 296 154 C 308 162 315 175 315 191 C 315 205 308 218 296 229 C 284 239 265 248 240 256 L 213 263 C 156 278 113 303 85 338 C 57 372 43 414 43 464 C 43 526 64 576 108 614 C 151 652 209 671 283 671 C 313 671 345 668 377 662 C 409 656 441 647 472 635 L 472 473 C 444 487 416 499 386 507 C 356 515 326 519 298 519 C 276 519 260 515 248 508 C 236 500 230 489 230 474 C 230 460 235 449 247 439 C 259 429 276 420 300 414 L 327 407 C 385 391 429 365 458 331 C 486 296 501 255 501 207 C 501 137 478 83 434 45 C 389 6 329 -13 254 -13 Z M 268 -252 L 173 -222 C 185 -201 194 -181 199 -163 C 204 -144 207 -123 207 -100 L 207 -56 L 327 -56 L 327 -99 C 327 -131 322 -159 312 -184 C 302 -209 288 -232 268 -252 Z" unicode="Ș" />
<glyph horiz-adv-x="449" d="M 215 -13 C 186 -13 156 -10 126 -6 C 96 -1 67 5 39 13 L 39 150 C 63 137 89 127 116 120 C 142 113 169 110 196 110 C 210 110 220 112 228 116 C 236 120 240 127 240 136 C 240 142 237 148 231 153 C 225 158 215 163 201 168 L 170 176 C 120 190 85 210 63 235 C 41 259 30 291 30 330 C 30 378 46 416 78 444 C 110 472 158 487 223 487 C 250 487 278 484 308 480 C 337 476 365 470 393 464 L 393 332 C 369 343 345 352 321 358 C 297 364 273 367 250 367 C 236 367 226 365 219 361 C 212 357 209 351 209 343 C 209 336 211 330 217 325 C 222 320 232 315 246 311 L 277 303 C 327 289 363 269 386 244 C 408 218 420 187 420 150 C 420 101 402 62 368 32 C 334 2 283 -13 215 -13 Z M 229 -264 L 124 -230 C 138 -206 148 -184 154 -164 C 159 -144 162 -120 162 -94 L 162 -46 L 295 -46 L 295 -94 C 295 -129 289 -160 278 -188 C 267 -216 251 -241 229 -264 Z" unicode="ș" />
<glyph horiz-adv-x="574" d="M 199 0 L 199 498 L 20 498 L 20 658 L 554 658 L 554 498 L 375 498 L 375 0 L 199 0 Z M 291 -244 L 196 -214 C 208 -193 217 -173 222 -155 C 227 -136 230 -115 230 -92 L 230 -48 L 350 -48 L 350 -91 C 350 -123 345 -151 335 -176 C 325 -201 311 -224 291 -244 Z" unicode="Ț" />
<glyph horiz-adv-x="364" d="M 221 -11 C 177 -11 142 2 117 28 C 92 54 80 90 80 136 L 80 331 L 22 331 L 22 474 L 80 474 L 80 605 L 250 605 L 250 474 L 333 474 L 333 331 L 250 331 L 250 187 C 250 172 253 160 261 152 C 269 144 279 140 292 140 C 300 140 307 141 315 143 C 322 145 329 149 337 154 L 337 10 C 318 2 299 -2 279 -6 C 259 -9 239 -11 221 -11 Z M 225 -270 L 120 -236 C 134 -212 144 -190 150 -170 C 155 -150 158 -126 158 -100 L 158 -52 L 291 -52 L 291 -100 C 291 -135 285 -166 274 -194 C 263 -222 247 -247 225 -270 Z" unicode="ț" />
<glyph horiz-adv-x="260" d="M -39 -215 L -47 -215 L -47 -71 L -39 -71 C -13 -71 6 -62 22 -46 C 37 -29 45 -7 45 20 L 45 474 L 215 474 L 215 20 C 215 -51 191 -108 145 -151 C 99 -193 37 -215 -39 -215 Z" unicode="ȷ" />
<glyph horiz-adv-x="511" d="M 247 -13 C 175 -13 121 11 83 59 C 45 107 27 170 27 250 L 27 283 L 311 283 C 308 305 296 323 276 335 C 256 347 228 353 192 353 C 168 353 143 349 116 343 C 89 336 64 326 40 314 L 40 451 C 72 463 104 472 138 478 C 172 484 203 487 231 487 C 310 487 372 464 417 419 C 461 374 484 313 484 236 C 484 160 463 100 421 55 C 379 9 321 -13 247 -13 Z M 252 103 C 270 103 285 110 295 124 C 305 138 310 159 312 186 L 193 186 C 193 158 198 138 208 124 C 218 110 233 103 252 103 Z" unicode="ə" />
<glyph horiz-adv-x="279" d="M 101 524 L -19 524 L 75 686 L 209 686 L 303 524 L 179 524 L 140 593 L 101 524 Z" unicode="ˆ" />
<glyph horiz-adv-x="279" d="M 73 524 L -21 686 L 103 686 L 142 618 L 181 686 L 301 686 L 207 524 L 73 524 Z" unicode="ˇ" />
<glyph horiz-adv-x="299" d="M 151 520 C 108 520 74 533 48 561 C 22 589 10 626 10 673 L 106 673 C 106 657 110 645 118 636 C 126 626 137 622 151 622 C 165 622 176 626 184 636 C 192 645 197 657 197 673 L 292 673 C 292 626 279 589 253 561 C 227 533 193 520 151 520 Z" unicode="˘" />
<glyph horiz-adv-x="218" d="M 41 524 L 41 660 L 178 660 L 178 524 L 41 524 Z" unicode="˙" />
<glyph horiz-adv-x="233" d="M 117 435 C 78 435 47 447 24 471 C 1 495 -10 525 -10 560 C -10 594 1 623 24 647 C 47 671 78 684 117 684 C 155 684 186 671 209 647 C 232 623 244 594 244 560 C 244 525 232 495 209 471 C 186 447 155 435 117 435 Z M 117 518 C 128 518 138 521 146 529 C 154 536 159 546 159 559 C 159 571 154 581 146 589 C 138 597 128 601 117 601 C 105 601 95 597 87 589 C 79 581 75 571 75 559 C 75 546 79 536 87 529 C 95 521 105 518 117 518 Z" unicode="˚" />
<glyph horiz-adv-x="241" d="M 190 -220 C 134 -220 89 -208 56 -184 C 23 -160 7 -128 7 -90 C 7 -50 22 -18 52 7 C 82 33 124 49 176 56 L 190 0 C 170 0 154 -5 143 -15 C 131 -25 126 -39 126 -56 C 126 -70 131 -82 143 -92 C 154 -102 170 -107 190 -107 L 190 -220 Z" unicode="˛" />
<glyph horiz-adv-x="287" d="M 69 524 L -22 524 C -22 570 -12 605 7 631 C 26 656 53 669 88 669 C 101 669 113 667 124 663 C 135 659 147 653 160 645 C 168 640 174 636 179 634 C 184 631 189 630 194 630 C 201 630 207 633 211 639 C 215 645 218 653 219 664 L 310 664 C 310 618 300 583 281 557 C 261 531 234 519 200 519 C 187 519 175 520 164 524 C 152 528 140 534 128 544 C 120 548 114 552 109 554 C 103 556 98 558 94 558 C 86 558 79 555 75 549 C 71 543 69 534 69 524 Z" unicode="˜" />
<glyph horiz-adv-x="327" d="M -15 527 L 79 685 L 212 685 L 108 527 L -15 527 Z M 169 527 L 273 685 L 406 685 L 292 527 L 169 527 Z" unicode="˝" />
<glyph horiz-adv-x="0" d="M -68 524 L -190 678 L -24 678 L 77 524 L -68 524 Z" unicode="̀" />
<glyph horiz-adv-x="0" d="M 69 524 L -75 524 L 26 678 L 191 678 L 69 524 Z" unicode="́" />
<glyph horiz-adv-x="0" d="M -39 524 L -159 524 L -65 686 L 69 686 L 163 524 L 39 524 L 0 593 L -39 524 Z" unicode="̂" />
<glyph horiz-adv-x="0" d="M -73 524 L -164 524 C -164 570 -154 605 -135 631 C -115 656 -88 669 -54 669 C -40 669 -28 667 -17 663 C -6 659 5 653 18 645 C 26 640 32 636 37 634 C 42 631 47 630 52 630 C 59 630 65 633 69 639 C 73 645 76 653 77 664 L 168 664 C 168 618 158 583 139 557 C 119 531 92 519 58 519 C 45 519 33 520 22 524 C 10 528 -1 534 -14 544 C -21 548 -27 552 -33 554 C -38 556 -43 558 -48 558 C -56 558 -62 555 -66 549 C -70 543 -73 534 -73 524 Z" unicode="̃" />
<glyph horiz-adv-x="0" d="M -127 532 L -127 643 L 130 643 L 130 532 L -127 532 Z" unicode="̄" />
<glyph horiz-adv-x="0" d="M 1 520 C -41 520 -75 533 -101 561 C -127 589 -140 626 -140 673 L -44 673 C -44 657 -40 645 -32 636 C -24 626 -13 622 1 622 C 15 622 26 626 34 636 C 42 645 47 657 47 673 L 142 673 C 142 626 129 589 103 561 C 77 533 43 520 1 520 Z" unicode="̆" />
<glyph horiz-adv-x="0" d="M -69 524 L -69 660 L 68 660 L 68 524 L -69 524 Z" unicode="̇" />
<glyph horiz-adv-x="0" d="M -160 525 L -160 657 L -28 657 L -28 525 L -160 525 Z M 31 525 L 31 657 L 163 657 L 163 525 L 31 525 Z" unicode="̈" />
<glyph horiz-adv-x="0" d="M 2 435 C -36 435 -67 447 -90 471 C -113 495 -125 525 -125 560 C -125 594 -113 623 -90 647 C -67 671 -36 684 2 684 C 40 684 71 671 94 647 C 117 623 129 594 129 560 C 129 525 117 495 94 471 C 71 447 40 435 2 435 Z M 2 518 C 13 518 23 521 31 529 C 39 536 44 546 44 559 C 44 571 39 581 31 589 C 23 597 13 601 2 601 C -9 601 -19 597 -27 589 C -35 581 -40 571 -40 559 C -40 546 -35 536 -27 529 C -19 521 -9 518 2 518 Z" unicode="̊" />
<glyph horiz-adv-x="0" d="M -155 527 L -61 685 L 72 685 L -32 527 L -155 527 Z M 29 527 L 133 685 L 266 685 L 152 527 L 29 527 Z" unicode="̋" />
<glyph horiz-adv-x="0" d="M -67 524 L -161 686 L -37 686 L 2 618 L 41 686 L 161 686 L 67 524 L -67 524 Z" unicode="̌" />
<glyph horiz-adv-x="0" d="M 2 746 L 107 712 C 92 688 82 666 77 646 C 71 626 69 602 69 576 L 69 528 L -64 528 L -64 576 C -64 611 -58 642 -47 670 C -36 698 -20 723 2 746 Z" unicode="̒" />
<glyph horiz-adv-x="3" d="M 3 -258 L -102 -224 C -87 -200 -77 -178 -72 -158 C -66 -138 -64 -114 -64 -88 L -64 -40 L 69 -40 L 69 -88 C 69 -123 63 -154 52 -182 C 41 -210 25 -235 3 -258 Z" unicode="̦" />
<glyph horiz-adv-x="0" d="M 20 -246 C 6 -246 -7 -245 -19 -243 C -31 -241 -43 -238 -56 -234 L -56 -152 C -46 -156 -37 -160 -28 -162 C -19 -164 -10 -166 -2 -166 C 6 -166 13 -163 19 -159 C 25 -154 28 -148 28 -140 C 28 -132 25 -125 19 -120 C 13 -115 6 -113 -2 -113 L -12 -113 L -12 -40 L 1 -40 C 39 -40 70 -49 94 -67 C 118 -85 131 -111 131 -144 C 131 -176 120 -201 100 -219 C 79 -237 52 -246 20 -246 Z" unicode="̧" />
<glyph horiz-adv-x="0" d="M -1 -220 C -57 -220 -101 -208 -134 -184 C -167 -160 -184 -128 -184 -90 C -184 -50 -168 -18 -138 7 C -108 33 -67 49 -15 56 L -1 0 C -21 0 -36 -5 -48 -15 C -59 -25 -65 -39 -65 -56 C -65 -70 -59 -82 -48 -92 C -36 -102 -21 -107 -1 -107 L -1 -220 Z" unicode="̨" />
<glyph horiz-adv-x="698" d="M 11 0 L 256 658 L 444 658 L 687 0 L 11 0 Z M 219 143 L 452 143 L 336 459 L 219 143 Z" unicode="Δ" />
<glyph horiz-adv-x="541" d="M 163 -201 L 41 -201 L 41 474 L 211 474 L 211 195 C 211 177 216 162 226 152 C 236 141 249 136 265 136 C 277 136 289 138 300 144 C 310 150 319 158 326 169 L 326 474 L 496 474 L 496 0 L 335 0 L 326 61 C 311 38 292 20 270 7 C 247 -5 222 -12 196 -12 C 185 -12 175 -11 166 -9 C 156 -7 147 -4 139 -2 L 163 -201 Z" unicode="μ" />
<glyph horiz-adv-x="582" d="M 82 0 L 82 332 L 25 332 L 25 474 L 557 474 L 557 332 L 500 332 L 500 0 L 330 0 L 330 332 L 252 332 L 252 0 L 82 0 Z" unicode="π" />
<glyph horiz-adv-x="1040" d="M 456 706 L 346 845 L 495 845 L 586 706 L 456 706 Z M 211 0 L 14 658 L 199 658 L 290 326 L 317 207 L 345 326 L 436 658 L 617 658 L 707 326 L 735 213 L 762 326 L 852 658 L 1027 658 L 827 0 L 632 0 L 547 304 L 519 430 L 489 304 L 404 0 L 211 0 Z" unicode="Ẁ" />
<glyph horiz-adv-x="842" d="M 354 524 L 232 678 L 398 678 L 499 524 L 354 524 Z M 152 0 L 11 474 L 185 474 L 237 279 L 264 161 L 291 279 L 343 474 L 506 474 L 560 279 L 590 163 L 620 279 L 677 474 L 831 474 L 681 0 L 488 0 L 447 155 L 417 275 L 387 155 L 346 0 L 152 0 Z" unicode="ẁ" />
<glyph horiz-adv-x="1040" d="M 587 706 L 457 706 L 548 845 L 697 845 L 587 706 Z M 211 0 L 14 658 L 199 658 L 290 326 L 317 207 L 345 326 L 436 658 L 617 658 L 707 326 L 735 213 L 762 326 L 852 658 L 1027 658 L 827 0 L 632 0 L 547 304 L 519 430 L 489 304 L 404 0 L 211 0 Z" unicode="Ẃ" />
<glyph horiz-adv-x="842" d="M 491 524 L 347 524 L 448 678 L 613 678 L 491 524 Z M 152 0 L 11 474 L 185 474 L 237 279 L 264 161 L 291 279 L 343 474 L 506 474 L 560 279 L 590 163 L 620 279 L 677 474 L 831 474 L 681 0 L 488 0 L 447 155 L 417 275 L 387 155 L 346 0 L 152 0 Z" unicode="ẃ" />
<glyph horiz-adv-x="1040" d="M 377 706 L 377 825 L 495 825 L 495 706 L 377 706 Z M 549 706 L 549 825 L 667 825 L 667 706 L 549 706 Z M 211 0 L 14 658 L 199 658 L 290 326 L 317 207 L 345 326 L 436 658 L 617 658 L 707 326 L 735 213 L 762 326 L 852 658 L 1027 658 L 827 0 L 632 0 L 547 304 L 519 430 L 489 304 L 404 0 L 211 0 Z" unicode="Ẅ" />
<glyph horiz-adv-x="842" d="M 262 525 L 262 657 L 394 657 L 394 525 L 262 525 Z M 453 525 L 453 657 L 585 657 L 585 525 L 453 525 Z M 152 0 L 11 474 L 185 474 L 237 279 L 264 161 L 291 279 L 343 474 L 506 474 L 560 279 L 590 163 L 620 279 L 677 474 L 831 474 L 681 0 L 488 0 L 447 155 L 417 275 L 387 155 L 346 0 L 152 0 Z" unicode="ẅ" />
<glyph horiz-adv-x="674" d="M 279 706 L 169 845 L 318 845 L 409 706 L 279 706 Z M 251 0 L 251 235 L 11 658 L 215 658 L 310 475 L 347 397 L 385 475 L 478 658 L 663 658 L 427 237 L 427 0 L 251 0 Z" unicode="Ỳ" />
<glyph horiz-adv-x="539" d="M 206 524 L 84 678 L 250 678 L 351 524 L 206 524 Z M 34 -215 L 26 -215 L 26 -66 L 34 -66 C 80 -66 114 -61 137 -53 C 160 -44 179 -28 194 -6 L 167 9 L 11 474 L 193 474 L 248 279 L 278 151 L 309 279 L 364 474 L 527 474 L 393 61 C 359 -44 314 -116 260 -156 C 205 -195 130 -215 34 -215 Z" unicode="ỳ" />
<glyph horiz-adv-x="500" d="" unicode=" " />
<glyph horiz-adv-x="1000" d="" unicode=" " />
<glyph horiz-adv-x="650" d="" unicode=" " />
<glyph horiz-adv-x="100" d="" unicode=" " />
<glyph horiz-adv-x="650" d="M 120 231 L 120 364 L 532 364 L 532 231 L 120 231 Z" unicode="‒" />
<glyph horiz-adv-x="507" d="M 48 175 L 48 308 L 460 308 L 460 175 L 48 175 Z" unicode="–" />
<glyph horiz-adv-x="1007" d="M 48 175 L 48 308 L 960 308 L 960 175 L 48 175 Z" unicode="—" />
<glyph horiz-adv-x="375" d="M 48 176 L 48 309 L 328 309 L 328 176 L 48 176 Z" unicode="―" />
<glyph horiz-adv-x="291" d="M 58 388 L 58 487 C 58 549 67 600 86 641 C 105 681 126 712 148 733 L 272 700 C 256 668 243 636 235 606 C 226 576 222 538 222 492 L 222 388 L 58 388 Z" unicode="‘" />
<glyph horiz-adv-x="272" d="M 131 371 L 11 404 C 27 436 39 468 48 498 C 56 528 61 566 61 612 L 61 716 L 221 716 L 221 617 C 221 555 211 504 192 463 C 173 422 153 391 131 371 Z" unicode="’" />
<glyph horiz-adv-x="272" d="M 221 160 L 221 61 C 221 -1 211 -52 192 -93 C 173 -133 153 -164 131 -185 L 11 -152 C 27 -120 39 -88 48 -58 C 56 -28 61 10 61 56 L 61 160 L 221 160 Z" unicode="‚" />
<glyph horiz-adv-x="513" d="M 58 389 L 58 488 C 58 550 67 601 86 642 C 105 682 126 713 148 734 L 272 701 C 256 669 243 637 235 607 C 226 577 222 539 222 493 L 222 389 L 58 389 Z M 281 389 L 281 488 C 281 550 290 601 309 642 C 328 682 349 713 371 734 L 495 701 C 479 669 466 637 458 607 C 449 577 445 539 445 493 L 445 389 L 281 389 Z" unicode="“" />
<glyph horiz-adv-x="488" d="M 131 371 L 11 404 C 27 436 39 468 48 498 C 56 528 61 566 61 612 L 61 716 L 221 716 L 221 617 C 221 555 211 504 192 463 C 173 422 153 391 131 371 Z M 348 371 L 228 404 C 244 436 256 468 265 498 C 273 528 278 566 278 612 L 278 716 L 438 716 L 438 617 C 438 555 428 504 409 463 C 390 422 370 391 348 371 Z" unicode="”" />
<glyph horiz-adv-x="490" d="M 221 160 L 221 61 C 221 -1 211 -52 192 -93 C 173 -133 153 -164 131 -185 L 11 -152 C 27 -120 39 -88 48 -58 C 56 -28 61 10 61 56 L 61 160 L 221 160 Z M 440 160 L 440 61 C 440 -1 430 -52 411 -93 C 392 -133 372 -164 350 -185 L 230 -152 C 246 -120 258 -88 267 -58 C 275 -28 280 10 280 56 L 280 160 L 440 160 Z" unicode="„" />
<glyph horiz-adv-x="472" d="M 154 0 L 162 426 L 26 418 L 26 566 L 162 558 L 154 716 L 318 716 L 310 558 L 446 566 L 446 418 L 310 426 L 318 0 L 154 0 Z" unicode="†" />
<glyph horiz-adv-x="472" d="M 154 0 L 162 165 L 26 157 L 26 305 L 162 297 L 162 426 L 26 418 L 26 566 L 162 558 L 154 716 L 318 716 L 310 558 L 446 566 L 446 418 L 310 426 L 310 297 L 446 305 L 446 157 L 310 165 L 318 0 L 154 0 Z" unicode="‡" />
<glyph horiz-adv-x="348" d="M 60 138 L 60 366 L 288 366 L 288 138 L 60 138 Z" unicode="•" />
<glyph horiz-adv-x="689" d="M 48 0 L 48 136 L 185 136 L 185 0 L 48 0 Z M 275 0 L 275 136 L 412 136 L 412 0 L 275 0 Z M 502 0 L 502 136 L 639 136 L 639 0 L 502 0 Z" unicode="…" />
<glyph horiz-adv-x="1291" d="M 209 351 C 156 351 113 368 81 403 C 48 438 32 484 32 540 C 32 596 48 642 81 677 C 113 711 156 729 209 729 C 261 729 304 711 337 677 C 369 642 386 596 386 540 C 386 484 369 438 337 403 C 304 368 261 351 209 351 Z M 223 0 L 543 716 L 671 716 L 351 0 L 223 0 Z M 209 467 C 223 467 235 473 245 486 C 255 499 260 517 260 540 C 260 562 255 580 245 594 C 235 607 223 614 209 614 C 194 614 182 607 172 594 C 162 580 158 562 158 540 C 158 517 162 499 172 486 C 182 473 194 467 209 467 Z M 1081 -9 C 1028 -9 985 8 953 43 C 920 78 904 124 904 180 C 904 236 920 282 953 317 C 985 351 1028 369 1081 369 C 1133 369 1176 351 1209 317 C 1241 282 1258 236 1258 180 C 1258 124 1241 78 1209 43 C 1176 8 1133 -9 1081 -9 Z M 686 -10 C 633 -10 590 7 558 42 C 525 77 509 123 509 179 C 509 235 525 281 558 316 C 590 350 633 368 686 368 C 738 368 781 350 814 316 C 846 281 863 235 863 179 C 863 123 846 77 814 42 C 781 7 738 -10 686 -10 Z M 1081 107 C 1095 107 1107 113 1117 126 C 1127 139 1132 157 1132 180 C 1132 202 1127 220 1117 234 C 1107 247 1095 254 1081 254 C 1066 254 1054 247 1044 234 C 1034 220 1030 202 1030 180 C 1030 157 1034 139 1044 126 C 1054 113 1066 107 1081 107 Z M 686 106 C 700 106 712 112 722 125 C 732 138 737 156 737 179 C 737 201 732 219 722 233 C 712 246 700 253 686 253 C 671 253 659 246 649 233 C 639 219 635 201 635 179 C 635 156 639 138 649 125 C 659 112 671 106 686 106 Z" unicode="‰" />
<glyph horiz-adv-x="250" d="M 58 446 L 58 724 L 192 724 L 192 446 L 58 446 Z" unicode="′" />
<glyph horiz-adv-x="437" d="M 58 447 L 58 724 L 192 724 L 192 447 L 58 447 Z M 245 447 L 245 724 L 379 724 L 379 447 L 245 447 Z" unicode="″" />
<glyph horiz-adv-x="407" d="M 191 59 L 40 226 L 191 394 L 367 394 L 217 226 L 367 59 L 191 59 Z" unicode="‹" />
<glyph horiz-adv-x="407" d="M 40 59 L 191 226 L 40 394 L 216 394 L 367 226 L 216 59 L 40 59 Z" unicode="›" />
<glyph horiz-adv-x="188" d="M -130 0 L 190 716 L 318 716 L -2 0 L -130 0 Z" unicode="⁄" />
<glyph horiz-adv-x="405" d="M 202 431 C 149 431 106 448 74 483 C 41 518 25 564 25 620 C 25 676 41 722 74 757 C 106 791 149 809 202 809 C 254 809 297 791 330 757 C 362 722 379 676 379 620 C 379 564 362 518 330 483 C 297 448 254 431 202 431 Z M 202 547 C 216 547 228 553 238 566 C 248 579 253 597 253 620 C 253 642 248 660 238 674 C 228 687 216 694 202 694 C 187 694 175 687 165 674 C 155 660 151 642 151 620 C 151 597 155 579 165 566 C 175 553 187 547 202 547 Z" unicode="⁰" />
<glyph horiz-adv-x="362" d="M 176 440 L 176 504 L 20 504 L 20 596 L 135 800 L 296 800 L 296 596 L 338 596 L 338 503 L 296 503 L 296 440 L 176 440 Z M 176 596 L 176 700 L 116 596 L 176 596 Z" unicode="⁴" />
<glyph horiz-adv-x="329" d="M 151 432 C 130 432 109 433 89 436 C 69 439 47 444 25 451 L 25 550 C 42 542 59 536 76 533 C 93 529 111 528 130 528 C 143 528 153 530 159 535 C 165 540 169 547 169 556 C 169 564 165 571 157 575 C 149 579 139 581 125 581 C 109 581 92 580 74 578 C 56 576 40 573 25 571 L 37 800 L 283 800 L 283 696 L 128 696 L 126 660 C 132 660 139 661 146 662 C 153 662 159 663 163 663 C 209 663 244 653 267 635 C 290 616 302 589 302 554 C 302 518 288 488 262 466 C 236 443 199 432 151 432 Z" unicode="⁵" />
<glyph horiz-adv-x="370" d="M 183 432 C 137 432 100 447 70 478 C 40 508 25 549 25 599 C 25 663 43 713 80 751 C 117 789 161 808 211 808 C 233 808 252 806 268 804 C 284 802 301 798 321 794 L 321 694 C 304 699 287 703 270 706 C 253 709 237 711 222 711 C 201 711 185 706 173 696 C 161 686 152 670 148 650 C 156 658 167 665 180 669 C 192 673 207 676 223 676 C 258 676 287 667 309 650 C 331 632 343 606 343 572 C 343 531 328 497 299 471 C 269 445 231 432 183 432 Z M 186 527 C 198 527 207 530 213 537 C 219 544 223 554 223 566 C 223 576 219 584 213 590 C 206 596 197 600 187 600 C 177 600 169 597 162 592 C 154 587 149 580 147 572 C 147 558 150 547 157 539 C 164 531 174 527 186 527 Z" unicode="⁶" />
<glyph horiz-adv-x="337" d="M 53 440 L 170 691 L 22 691 L 22 800 L 313 800 L 313 716 L 191 440 L 53 440 Z" unicode="⁷" />
<glyph horiz-adv-x="359" d="M 179 432 C 127 432 89 441 63 459 C 37 477 25 501 25 531 C 25 549 30 564 40 577 C 50 590 65 601 86 611 C 67 621 53 634 43 648 C 33 662 28 679 28 698 C 28 731 41 758 67 778 C 93 798 130 808 178 808 C 224 808 260 799 287 782 C 313 764 327 740 327 710 C 327 693 322 678 312 665 C 302 652 288 641 270 632 C 290 621 305 608 316 594 C 327 580 333 562 333 542 C 333 508 320 481 294 461 C 268 441 230 432 179 432 Z M 182 662 L 190 660 C 196 664 201 669 205 676 C 209 682 211 689 211 697 C 211 706 208 714 202 720 C 196 726 188 730 178 730 C 168 730 160 726 154 720 C 148 714 145 706 145 698 C 145 688 148 680 156 674 C 164 668 172 664 182 662 Z M 144 545 C 144 535 147 528 154 522 C 160 516 169 513 179 513 C 189 513 198 515 204 521 C 210 527 214 535 214 546 C 214 556 210 564 202 570 C 194 575 186 579 176 581 L 168 583 C 161 579 155 574 151 568 C 146 561 144 553 144 545 Z" unicode="⁸" />
<glyph horiz-adv-x="370" d="M 157 432 C 134 432 115 433 99 435 C 83 437 66 441 47 446 L 47 546 C 63 540 80 536 97 533 C 114 530 130 529 146 529 C 166 529 183 534 195 544 C 207 554 215 569 220 589 C 211 580 200 574 188 570 C 175 566 161 564 145 564 C 109 564 80 572 58 590 C 36 608 25 635 25 671 C 25 711 39 743 69 769 C 98 795 137 808 185 808 C 230 808 268 793 298 763 C 328 733 343 694 343 644 C 343 579 324 527 287 489 C 250 451 207 432 157 432 Z M 181 639 C 190 639 198 641 206 646 C 213 651 218 658 221 667 C 221 681 217 692 210 700 C 203 708 194 713 182 713 C 170 713 160 709 154 703 C 148 696 145 687 145 676 C 145 665 148 656 155 649 C 161 642 170 639 181 639 Z" unicode="⁹" />
<glyph horiz-adv-x="404" d="M 34 440 L 34 800 L 167 800 L 167 760 C 179 776 192 788 207 796 C 222 804 240 809 261 809 C 295 809 322 797 343 775 C 364 753 375 722 375 684 L 375 440 L 243 440 L 243 653 C 243 664 239 673 232 680 C 225 686 216 690 205 690 C 196 690 188 688 182 685 C 176 681 171 676 167 670 L 167 440 L 34 440 Z" unicode="ⁿ" />
<glyph horiz-adv-x="405" d="M 202 -179 C 149 -179 106 -161 74 -126 C 41 -91 25 -46 25 10 C 25 66 41 112 74 147 C 106 181 149 199 202 199 C 254 199 297 181 330 147 C 362 112 379 66 379 10 C 379 -46 362 -91 330 -126 C 297 -161 254 -179 202 -179 Z M 202 -63 C 216 -63 228 -56 238 -43 C 248 -30 253 -12 253 10 C 253 32 248 50 238 64 C 228 77 216 84 202 84 C 187 84 175 77 165 64 C 155 50 151 32 151 10 C 151 -12 155 -30 165 -43 C 175 -56 187 -63 202 -63 Z" unicode="₀" />
<glyph horiz-adv-x="318" d="M 29 -170 L 29 -68 L 94 -68 L 94 80 L 25 75 L 25 177 L 227 196 L 227 -68 L 291 -68 L 291 -170 L 29 -170 Z" unicode="₁" />
<glyph horiz-adv-x="330" d="M 25 -170 L 25 -43 C 78 -27 116 -10 139 5 C 162 21 174 38 174 54 C 174 67 169 77 160 83 C 150 89 138 93 122 93 C 106 93 91 90 75 86 C 59 81 44 74 30 65 L 30 178 C 51 184 72 189 92 193 C 112 197 134 199 158 199 C 204 199 240 188 265 166 C 290 144 303 115 303 81 C 303 47 291 17 268 -6 C 245 -30 209 -50 159 -66 L 302 -66 L 302 -170 L 25 -170 Z" unicode="₂" />
<glyph horiz-adv-x="330" d="M 161 -178 C 138 -178 115 -176 93 -174 C 71 -172 48 -167 25 -161 L 25 -52 C 42 -60 59 -65 76 -69 C 92 -73 110 -75 128 -75 C 141 -75 151 -73 158 -70 C 165 -66 169 -61 169 -54 C 169 -46 164 -40 155 -36 C 145 -32 132 -31 114 -31 L 87 -31 L 87 52 L 109 52 C 126 52 139 53 148 57 C 156 61 161 66 161 74 C 161 81 157 86 151 90 C 145 94 136 96 124 96 C 108 96 92 94 77 91 C 62 87 47 82 33 75 L 33 182 C 53 186 74 190 94 193 C 114 196 135 198 157 198 C 201 198 235 189 259 172 C 283 154 296 131 296 103 C 296 80 289 61 276 45 C 263 29 244 18 220 13 C 246 8 267 -2 281 -18 C 295 -34 303 -52 303 -73 C 303 -104 290 -129 266 -149 C 242 -168 207 -178 161 -178 Z" unicode="₃" />
<glyph horiz-adv-x="362" d="M 176 -170 L 176 -106 L 20 -106 L 20 -14 L 135 190 L 296 190 L 296 -14 L 338 -14 L 338 -107 L 296 -107 L 296 -170 L 176 -170 Z M 176 -14 L 176 90 L 116 -14 L 176 -14 Z" unicode="₄" />
<glyph horiz-adv-x="329" d="M 151 -178 C 130 -178 109 -176 89 -173 C 69 -170 47 -165 25 -159 L 25 -60 C 42 -68 59 -73 76 -77 C 93 -80 111 -82 130 -82 C 143 -82 153 -79 159 -74 C 165 -69 169 -62 169 -54 C 169 -45 165 -39 157 -35 C 149 -31 139 -29 125 -29 C 109 -29 92 -30 74 -32 C 56 -34 40 -36 25 -39 L 37 190 L 283 190 L 283 86 L 128 86 L 126 50 C 132 50 139 51 146 52 C 153 52 159 53 163 53 C 209 53 244 43 267 25 C 290 6 302 -20 302 -56 C 302 -92 288 -121 262 -144 C 236 -166 199 -178 151 -178 Z" unicode="₅" />
<glyph horiz-adv-x="370" d="M 183 -178 C 137 -178 100 -162 70 -132 C 40 -101 25 -61 25 -11 C 25 53 43 103 80 141 C 117 179 161 198 211 198 C 233 198 252 196 268 194 C 284 192 301 188 321 184 L 321 84 C 304 89 287 93 270 96 C 253 99 237 101 222 101 C 201 101 185 96 173 86 C 161 76 152 60 148 40 C 156 48 167 55 180 59 C 192 63 207 66 223 66 C 258 66 287 57 309 40 C 331 22 343 -3 343 -38 C 343 -78 328 -112 299 -138 C 269 -164 231 -178 183 -178 Z M 186 -83 C 198 -83 207 -79 213 -72 C 219 -65 223 -56 223 -44 C 223 -34 219 -25 213 -19 C 206 -13 197 -10 187 -10 C 177 -10 169 -12 162 -17 C 154 -22 149 -29 147 -38 C 147 -51 150 -62 157 -70 C 164 -78 174 -83 186 -83 Z" unicode="₆" />
<glyph horiz-adv-x="337" d="M 53 -170 L 170 81 L 22 81 L 22 190 L 313 190 L 313 106 L 191 -170 L 53 -170 Z" unicode="₇" />
<glyph horiz-adv-x="359" d="M 179 -178 C 127 -178 89 -169 63 -151 C 37 -133 25 -109 25 -79 C 25 -61 30 -45 40 -32 C 50 -19 65 -8 86 1 C 67 11 53 24 43 38 C 33 52 28 69 28 88 C 28 121 41 148 67 168 C 93 188 130 198 178 198 C 224 198 260 189 287 172 C 313 154 327 130 327 100 C 327 83 322 68 312 55 C 302 42 288 31 270 22 C 290 11 305 -1 316 -15 C 327 -29 333 -47 333 -68 C 333 -102 320 -128 294 -148 C 268 -168 230 -178 179 -178 Z M 182 52 L 190 50 C 196 54 201 59 205 66 C 209 72 211 79 211 87 C 211 96 208 104 202 110 C 196 116 188 120 178 120 C 168 120 160 116 154 110 C 148 104 145 96 145 88 C 145 78 148 70 156 64 C 164 58 172 54 182 52 Z M 144 -65 C 144 -74 147 -82 154 -88 C 160 -94 169 -97 179 -97 C 189 -97 198 -94 204 -88 C 210 -82 214 -74 214 -64 C 214 -53 210 -45 202 -40 C 194 -34 186 -31 176 -29 L 168 -27 C 161 -30 155 -35 151 -42 C 146 -48 144 -56 144 -65 Z" unicode="₈" />
<glyph horiz-adv-x="370" d="M 157 -178 C 134 -178 115 -176 99 -174 C 83 -172 66 -168 47 -164 L 47 -64 C 63 -69 80 -73 97 -76 C 114 -79 130 -81 146 -81 C 166 -81 183 -76 195 -66 C 207 -56 215 -41 220 -21 C 211 -29 200 -36 188 -40 C 175 -44 161 -46 145 -46 C 109 -46 80 -37 58 -19 C 36 -1 25 25 25 61 C 25 101 39 133 69 159 C 98 185 137 198 185 198 C 230 198 268 183 298 153 C 328 123 343 84 343 34 C 343 -30 324 -82 287 -120 C 250 -158 207 -178 157 -178 Z M 181 29 C 190 29 198 31 206 36 C 213 41 218 48 221 57 C 221 71 217 82 210 90 C 203 98 194 103 182 103 C 170 103 160 99 154 93 C 148 86 145 77 145 66 C 145 55 148 46 155 39 C 161 32 170 29 181 29 Z" unicode="₉" />
<glyph horiz-adv-x="694" d="M 34 221 L 34 305 L 85 305 C 84 309 84 313 84 317 C 84 321 84 325 84 330 C 84 333 84 336 84 340 C 84 344 84 347 84 351 L 34 351 L 34 435 L 97 435 C 117 508 157 566 219 608 C 281 650 357 672 449 672 C 483 672 515 668 547 661 C 579 653 610 642 641 628 L 641 461 C 611 479 580 492 550 501 C 519 509 487 514 455 514 C 419 514 387 507 359 493 C 331 479 310 459 295 435 L 423 435 L 423 351 L 268 351 C 267 347 267 344 267 340 C 267 336 267 333 267 330 C 267 325 267 321 267 317 C 267 313 267 309 268 305 L 424 305 L 424 221 L 296 221 C 312 196 333 177 361 164 C 388 150 419 144 455 144 C 489 144 522 148 554 158 C 586 167 617 181 648 200 L 648 35 C 616 18 584 6 552 -2 C 519 -10 485 -14 449 -14 C 359 -14 283 7 221 49 C 159 91 118 148 98 221 L 34 221 Z" unicode="€" />
<glyph horiz-adv-x="587" d="M 63 0 L 63 658 L 146 658 L 146 786 L 245 786 L 245 658 L 306 658 L 307 658 L 307 786 L 406 786 L 406 646 C 446 635 477 616 499 590 C 521 564 532 531 532 492 C 532 452 522 419 502 393 C 482 366 455 346 419 334 C 461 324 493 306 517 280 C 541 254 553 222 553 182 C 553 136 540 98 515 69 C 489 39 453 19 406 9 L 406 -124 L 307 -124 L 307 0 L 245 0 L 245 -124 L 146 -124 L 146 0 L 63 0 Z M 238 392 L 283 392 C 304 392 321 398 335 410 C 348 422 355 439 355 461 C 355 481 348 497 335 509 C 321 521 304 527 283 527 L 238 527 L 238 392 Z M 238 137 L 299 137 C 321 137 340 143 354 155 C 368 167 375 184 375 206 C 375 227 368 244 354 256 C 340 268 321 274 299 274 L 238 274 L 238 137 Z" unicode="₿" />
<glyph horiz-adv-x="712" d="M 357 85 C 259 85 181 116 123 180 C 65 243 36 318 36 405 C 36 491 65 566 123 630 C 181 693 259 725 357 725 C 453 725 530 693 589 630 C 648 566 678 491 678 405 C 678 318 648 243 589 180 C 530 116 453 85 357 85 Z M 357 170 C 422 170 477 191 523 234 C 569 277 592 334 592 405 C 592 476 569 533 523 576 C 477 618 422 640 357 640 C 289 640 233 618 189 575 C 144 532 122 475 122 405 C 122 334 144 277 189 234 C 233 191 289 170 357 170 Z M 255 238 L 255 573 L 380 573 C 415 573 444 562 467 541 C 490 520 502 492 502 458 C 502 421 490 392 467 370 C 443 348 414 338 378 338 L 346 338 L 346 238 L 255 238 Z M 346 414 L 366 414 C 380 414 391 417 399 425 C 407 433 411 443 411 456 C 411 468 407 477 399 485 C 391 493 380 497 366 497 L 346 497 L 346 414 Z" unicode="℗" />
<glyph horiz-adv-x="725" d="M 110 428 L 110 636 L 36 636 L 36 716 L 279 716 L 279 636 L 206 636 L 206 428 L 110 428 Z M 309 428 L 309 716 L 449 716 L 490 611 L 530 716 L 669 716 L 669 428 L 572 428 L 572 618 L 512 463 L 449 463 L 389 616 L 389 428 L 309 428 Z" unicode="™" />
<glyph horiz-adv-x="595" d="M 299 -14 C 219 -14 156 6 110 48 C 63 89 40 149 40 229 C 40 303 58 362 96 407 C 133 452 183 475 245 475 C 262 475 278 473 293 470 C 308 466 322 461 334 455 C 311 485 279 510 238 529 C 197 547 146 557 84 557 L 84 724 C 269 724 394 673 458 571 C 522 469 555 378 555 298 C 555 197 531 120 484 66 C 436 12 375 -14 299 -14 Z M 299 141 C 324 141 343 149 356 167 C 369 184 376 207 376 237 C 376 265 369 287 356 303 C 343 319 323 328 297 328 C 272 328 253 319 240 302 C 226 285 220 262 220 234 C 220 205 226 182 240 166 C 253 149 273 141 299 141 Z" unicode="∂" />
<glyph horiz-adv-x="631" d="M 60 0 L 60 658 L 571 658 L 571 0 L 395 0 L 395 502 L 236 502 L 236 0 L 60 0 Z" unicode="∏" />
<glyph horiz-adv-x="575" d="M 53 0 L 53 131 L 246 338 L 53 527 L 53 658 L 520 658 L 520 503 L 310 503 L 470 348 L 293 159 L 525 159 L 525 0 L 53 0 Z" unicode="∑" />
<glyph horiz-adv-x="515" d="M 49 224 L 49 357 L 467 357 L 467 224 L 49 224 Z" unicode="−" />
<glyph horiz-adv-x="643" d="M 188 0 L 9 497 L 192 497 L 297 198 L 477 708 L 635 708 L 379 0 L 188 0 Z" unicode="√" />
<glyph horiz-adv-x="883" d="M 242 1 C 180 1 130 22 92 65 C 54 107 36 163 36 233 C 36 307 56 365 96 408 C 136 451 188 473 252 473 C 294 473 333 463 369 445 C 405 426 436 395 461 352 C 483 392 511 423 545 443 C 578 463 613 473 649 473 C 708 473 756 451 792 409 C 828 366 847 309 847 238 C 847 165 827 107 787 65 C 747 22 696 1 632 1 C 592 1 554 10 518 29 C 482 48 451 78 427 118 C 405 80 379 51 349 31 C 319 11 283 1 242 1 Z M 613 322 C 596 322 579 314 561 300 C 543 285 528 265 515 239 C 529 210 545 188 562 174 C 579 159 598 152 619 152 C 639 152 657 159 672 175 C 687 190 695 211 695 237 C 695 263 687 283 671 299 C 655 314 636 322 613 322 Z M 188 237 C 188 211 195 190 210 175 C 225 159 245 152 270 152 C 286 152 304 159 322 174 C 340 188 356 209 369 236 C 352 268 335 290 319 303 C 303 315 286 322 269 322 C 245 322 225 314 210 299 C 195 283 188 263 188 237 Z" unicode="∞" />
<glyph horiz-adv-x="496" d="M 95 -215 C 80 -215 65 -214 50 -212 C 35 -210 20 -206 6 -202 L 6 -55 C 17 -58 29 -60 41 -62 C 53 -64 65 -65 78 -65 C 92 -65 104 -60 114 -52 C 124 -43 130 -31 132 -15 L 200 541 C 207 602 229 648 265 678 C 301 708 345 723 399 723 C 413 723 428 722 444 720 C 459 718 474 715 490 712 L 490 562 C 478 565 467 568 455 570 C 443 572 432 573 420 573 C 404 573 391 568 382 560 C 373 551 368 539 366 523 L 298 -34 C 290 -92 269 -136 233 -168 C 197 -199 151 -215 95 -215 Z" unicode="∫" />
<glyph horiz-adv-x="456" d="M 72 313 L 58 441 C 66 453 78 463 94 471 C 110 479 126 483 144 483 C 158 483 173 481 188 477 C 203 473 217 468 229 463 C 239 457 252 453 267 449 C 281 445 296 444 311 444 C 325 444 338 446 351 451 C 364 456 375 463 384 472 L 398 344 C 390 331 377 321 361 313 C 345 305 328 302 311 302 C 296 302 281 303 267 307 C 253 310 240 314 229 320 C 217 325 203 330 189 334 C 174 338 160 340 146 340 C 132 340 119 337 106 333 C 92 328 81 321 72 313 Z M 72 104 L 58 232 C 66 244 78 254 94 262 C 110 270 126 274 144 274 C 158 274 173 272 188 268 C 203 264 217 259 229 254 C 239 249 252 245 267 241 C 281 237 296 235 311 235 C 325 235 338 237 351 242 C 364 247 375 254 384 263 L 398 134 C 390 121 377 111 361 103 C 345 95 328 92 311 92 C 296 92 281 93 267 97 C 253 101 240 105 229 111 C 217 115 203 120 189 124 C 174 128 160 131 146 131 C 132 131 119 128 106 124 C 92 119 81 112 72 104 Z" unicode="≈" />
<glyph horiz-adv-x="534" d="M 77 19 L 124 128 L 58 128 L 58 261 L 182 261 L 213 334 L 58 334 L 58 467 L 271 467 L 314 567 L 447 567 L 404 467 L 476 467 L 476 334 L 346 334 L 315 261 L 476 261 L 476 128 L 257 128 L 210 19 L 77 19 Z" unicode="≠" />
<glyph horiz-adv-x="521" d="M 254 76 L 58 292 L 255 508 L 463 508 L 266 293 L 463 76 L 254 76 Z M 66 -125 L 66 0 L 455 0 L 455 -125 L 66 -125 Z" unicode="≤" />
<glyph horiz-adv-x="521" d="M 58 76 L 255 293 L 58 508 L 266 508 L 463 292 L 267 76 L 58 76 Z M 66 -125 L 66 0 L 455 0 L 455 -125 L 66 -125 Z" unicode="≥" />
<glyph horiz-adv-x="692" d="M 348 -60 L 45 285 L 348 629 L 647 285 L 348 -60 Z M 350 149 L 464 285 L 349 421 L 235 285 L 350 149 Z" unicode="◊" />
<glyph horiz-adv-x="648" d="M 192 0 L 16 474 L 194 474 L 297 185 L 479 716 L 637 716 L 384 0 L 192 0 Z" unicode="✓" />
<glyph horiz-adv-x="692" d="M 51 0 L 51 147 L 202 147 L 202 174 C 152 190 112 218 82 258 C 52 298 38 346 38 402 C 38 481 65 546 121 596 C 177 646 252 672 346 672 C 440 672 515 647 571 597 C 627 547 655 483 655 406 C 655 346 640 296 610 256 C 580 216 540 188 490 172 L 490 147 L 641 147 L 641 0 L 376 0 L 376 258 C 404 260 428 273 448 296 C 468 319 478 350 478 388 C 478 426 465 456 441 480 C 416 504 384 516 346 516 C 307 516 275 504 251 481 C 227 458 215 428 215 390 C 215 352 224 321 244 299 C 263 276 287 262 317 258 L 317 0 L 51 0 Z" unicode="Ꞷ" />
<glyph horiz-adv-x="181" d="M 99 -258 L -6 -224 C 8 -200 18 -178 24 -158 C 29 -138 32 -114 32 -88 L 32 -40 L 165 -40 L 165 -88 C 165 -123 159 -154 148 -182 C 137 -210 121 -235 99 -258 Z" unicode="" />
<glyph horiz-adv-x="724" d="M 201 69 L 249 291 L 201 503 L 233 550 L 413 338 C 431 338 453 333 479 324 C 504 314 521 303 531 289 C 537 283 543 277 547 271 C 551 265 554 258 554 252 C 554 242 552 240 549 244 C 546 248 542 256 537 266 L 537 271 C 537 273 536 276 535 280 C 534 283 533 286 531 289 C 528 291 525 292 522 294 C 518 296 515 298 513 300 C 517 294 522 289 526 283 C 530 277 533 271 537 266 C 535 259 531 261 524 273 C 517 285 508 296 498 306 C 485 310 472 314 458 317 C 444 319 432 321 420 321 L 232 543 L 206 503 L 255 281 L 201 69 Z" unicode="" />
<glyph horiz-adv-x="618" d="M 81 0 L 81 331 L 22 331 L 22 474 L 81 474 L 81 514 C 81 579 99 631 137 669 C 175 707 227 727 293 727 C 314 727 335 725 357 722 C 378 718 399 714 420 708 L 420 557 C 407 563 393 567 378 571 C 362 575 346 577 328 577 C 303 577 284 570 271 558 C 257 545 251 527 251 504 L 251 474 L 333 474 L 333 331 L 251 331 L 251 0 L 81 0 Z M 395 0 L 395 474 L 565 474 L 565 0 L 395 0 Z" unicode="ﬁ" />
<glyph horiz-adv-x="624" d="M 81 0 L 81 331 L 22 331 L 22 474 L 81 474 L 81 514 C 81 579 99 631 137 669 C 175 707 227 727 293 727 C 310 727 327 725 345 723 C 363 721 380 718 398 714 L 398 716 L 568 716 L 568 0 L 398 0 L 398 566 C 387 569 376 572 364 574 C 352 576 340 577 328 577 C 303 577 284 570 271 558 C 257 545 251 527 251 504 L 251 474 L 333 474 L 333 331 L 251 331 L 251 0 L 81 0 Z" unicode="ﬂ" />
</font>
</defs>
</svg>
