<?xml version="1.0" encoding="utf-8" ?><svg version="1.1" xmlns = 'http://www.w3.org/2000/svg'><defs><font id='web' horiz-adv-x="1000">
<font-face font-family="web" descent="-268" cap-height="658" units-per-em="1000" bbox="-151,-328,1189,997" x-height="466" ascent="732" />
<missing-glyph horiz-adv-x="500" d="M 50 -268 L 450 -268 L 450 732 L 50 732 L 50 -268 Z M 100 -218 L 100 682 L 400 682 L 400 -218 L 100 -218 Z" /><glyph horiz-adv-x="200" d="" unicode=" " />
<glyph horiz-adv-x="213" d="M 67 190 L 67 708 L 146 708 L 146 190 L 67 190 Z M 64 0 L 64 84 L 149 84 L 149 0 L 64 0 Z" unicode="!" />
<glyph horiz-adv-x="319" d="M 60 509 L 60 720 L 130 720 L 130 509 L 60 509 Z M 189 509 L 189 720 L 259 720 L 259 509 L 189 509 Z" unicode="&#x22;" />
<glyph horiz-adv-x="566" d="M 45 103 L 45 177 L 150 177 L 166 304 L 61 304 L 61 378 L 176 378 L 194 515 L 265 515 L 247 378 L 354 378 L 372 515 L 442 515 L 424 378 L 517 378 L 517 304 L 415 304 L 398 177 L 501 177 L 501 103 L 389 103 L 371 -35 L 300 -35 L 318 103 L 211 103 L 193 -35 L 122 -35 L 140 103 L 45 103 Z M 221 177 L 328 177 L 344 304 L 237 304 L 221 177 Z" unicode="#" />
<glyph horiz-adv-x="502" d="M 215 -96 L 215 -14 C 186 -12 158 -7 131 0 C 104 8 78 20 54 35 L 54 125 C 78 107 103 92 130 82 C 157 72 185 66 215 64 L 215 305 C 161 325 121 350 95 380 C 69 409 57 447 57 494 C 57 540 71 580 99 612 C 127 644 166 663 215 670 L 215 755 L 289 755 L 289 671 C 313 669 336 664 358 657 C 380 649 403 639 426 627 L 426 535 C 405 551 383 565 360 575 C 337 585 313 591 289 594 L 289 369 C 343 347 382 321 408 291 C 433 261 446 223 446 178 C 446 128 431 87 403 53 C 375 19 337 -2 289 -11 L 289 -96 L 215 -96 Z M 142 496 C 142 473 148 454 160 439 C 172 424 190 410 215 398 L 215 589 C 191 583 173 572 161 556 C 148 540 142 520 142 496 Z M 361 169 C 361 192 355 212 343 229 C 331 245 313 260 289 273 L 289 71 C 311 78 329 90 342 107 C 354 124 361 145 361 169 Z" unicode="$" />
<glyph horiz-adv-x="853" d="M 202 352 C 152 352 112 369 82 403 C 52 437 38 482 38 540 C 38 596 52 642 82 676 C 112 710 152 728 202 728 C 252 728 292 711 322 677 C 352 643 367 597 367 541 C 367 483 352 437 322 403 C 292 369 252 352 202 352 Z M 242 0 L 527 720 L 596 720 L 312 0 L 242 0 Z M 202 415 C 230 415 253 426 271 449 C 289 471 298 502 298 540 C 298 577 289 607 271 630 C 253 653 230 665 202 665 C 173 665 150 653 133 631 C 115 608 107 578 107 541 C 107 503 115 472 133 449 C 150 426 173 415 202 415 Z M 650 -8 C 600 -8 560 9 530 43 C 500 77 486 122 486 180 C 486 236 500 282 530 316 C 560 350 600 368 650 368 C 700 368 740 351 770 317 C 800 283 815 237 815 181 C 815 123 800 77 770 43 C 740 9 700 -8 650 -8 Z M 650 55 C 678 55 701 66 719 89 C 737 111 746 142 746 180 C 746 217 737 247 719 270 C 701 293 678 305 650 305 C 621 305 598 293 581 271 C 563 248 555 218 555 181 C 555 143 563 112 581 89 C 598 66 621 55 650 55 Z" unicode="%" />
<glyph horiz-adv-x="604" d="M 234 -14 C 169 -14 118 3 81 39 C 43 75 25 121 25 178 C 25 218 35 256 56 291 C 76 325 107 353 147 375 C 134 395 125 417 119 439 C 113 461 110 482 110 504 C 110 554 126 594 160 626 C 193 657 238 673 294 673 C 320 673 345 668 371 660 C 396 652 420 639 443 623 L 443 538 C 421 558 398 573 374 583 C 350 593 327 598 303 598 C 270 598 244 588 224 570 C 204 552 194 528 194 498 C 194 477 199 456 209 436 C 219 415 234 393 254 371 L 410 190 C 420 212 429 239 435 271 C 441 303 444 339 444 379 L 520 379 C 520 329 515 282 506 239 C 496 196 482 159 463 129 L 575 0 L 463 0 L 412 59 C 391 37 366 20 337 6 C 308 -7 274 -14 234 -14 Z M 110 183 C 110 145 122 115 146 93 C 170 71 202 60 242 60 C 266 60 289 65 310 75 C 330 85 348 99 363 117 L 191 316 C 163 300 143 281 130 259 C 116 237 110 211 110 183 Z" unicode="&#x26;" />
<glyph horiz-adv-x="190" d="M 60 509 L 60 720 L 130 720 L 130 509 L 60 509 Z" unicode="'" />
<glyph horiz-adv-x="362" d="M 246 -215 C 194 -151 153 -78 124 4 C 94 86 80 169 80 252 C 80 335 94 418 124 501 C 153 583 194 656 246 720 L 341 720 C 285 652 241 577 209 494 C 177 411 162 330 162 252 C 162 173 177 92 209 10 C 241 -72 285 -147 341 -215 L 246 -215 Z" unicode="(" />
<glyph horiz-adv-x="362" d="M 21 -215 C 77 -147 120 -72 152 10 C 184 92 200 173 200 252 C 200 330 184 411 152 494 C 120 577 77 652 21 720 L 116 720 C 168 656 208 583 238 501 C 267 418 282 335 282 252 C 282 169 267 86 238 4 C 208 -78 168 -151 116 -215 L 21 -215 Z" unicode=")" />
<glyph horiz-adv-x="584" d="M 187 30 L 111 85 L 242 239 L 49 285 L 78 374 L 261 298 L 245 495 L 339 495 L 323 298 L 506 374 L 535 285 L 342 239 L 473 85 L 397 30 L 292 203 L 187 30 Z" unicode="*" />
<glyph horiz-adv-x="514" d="M 220 76 L 220 255 L 49 255 L 49 326 L 220 326 L 220 505 L 294 505 L 294 326 L 465 326 L 465 255 L 294 255 L 294 76 L 220 76 Z" unicode="+" />
<glyph horiz-adv-x="198" d="M 149 95 L 149 19 C 149 -14 142 -46 130 -76 C 118 -106 102 -131 83 -152 L 28 -127 C 41 -105 51 -83 58 -61 C 65 -39 69 -14 69 15 L 69 95 L 149 95 Z" unicode="," />
<glyph horiz-adv-x="362" d="M 45 200 L 45 272 L 317 272 L 317 200 L 45 200 Z" unicode="-" />
<glyph horiz-adv-x="187" d="M 51 0 L 51 85 L 136 85 L 136 0 L 51 0 Z" unicode="." />
<glyph horiz-adv-x="410" d="M 18 0 L 315 720 L 392 720 L 96 0 L 18 0 Z" unicode="/" />
<glyph horiz-adv-x="585" d="M 292 -14 C 212 -14 151 16 111 78 C 71 139 51 222 51 327 C 51 433 71 517 111 579 C 151 641 212 672 292 672 C 372 672 433 641 473 580 C 513 518 534 435 534 329 C 534 224 513 141 473 79 C 433 17 372 -14 292 -14 Z M 292 64 C 342 64 380 86 408 130 C 435 174 449 239 449 327 C 449 416 435 483 408 527 C 380 571 342 594 292 594 C 242 594 204 572 177 528 C 149 484 136 417 136 329 C 136 241 149 174 177 130 C 204 86 242 64 292 64 Z" unicode="0" />
<glyph horiz-adv-x="354" d="M 158 0 L 158 578 L 37 558 L 37 643 L 242 675 L 242 0 L 158 0 Z" unicode="1" />
<glyph horiz-adv-x="497" d="M 53 0 L 53 114 L 143 185 C 209 229 262 272 302 316 C 342 360 362 408 362 460 C 362 501 349 533 324 557 C 299 580 267 592 229 592 C 195 592 165 587 137 577 C 109 567 83 551 58 530 L 58 619 C 84 636 112 649 140 658 C 168 666 198 671 230 671 C 297 671 350 652 388 616 C 426 580 445 531 445 469 C 445 398 422 338 377 290 C 332 242 279 195 217 150 L 124 85 L 446 84 L 446 0 L 53 0 Z" unicode="2" />
<glyph horiz-adv-x="498" d="M 244 -13 C 210 -13 175 -8 141 2 C 107 12 75 26 47 45 L 47 134 C 73 112 102 96 136 84 C 169 72 202 66 235 66 C 275 66 306 75 330 95 C 354 114 366 141 366 177 C 366 215 351 245 321 265 C 291 285 249 295 197 295 L 161 295 L 161 374 L 192 374 C 242 374 281 384 310 404 C 339 424 354 454 354 492 C 354 524 342 549 319 566 C 295 583 267 592 233 592 C 203 592 175 587 147 577 C 119 567 93 554 71 536 L 71 622 C 94 638 120 650 148 658 C 176 666 204 671 233 671 C 299 671 349 655 385 624 C 421 593 439 554 439 506 C 439 463 427 427 403 397 C 379 367 345 347 299 337 C 344 329 381 310 409 281 C 437 252 451 215 451 170 C 451 114 432 69 395 36 C 357 3 307 -13 244 -13 Z" unicode="3" />
<glyph horiz-adv-x="562" d="M 341 0 L 341 172 L 42 172 L 42 231 L 322 666 L 425 666 L 425 247 L 519 247 L 519 172 L 425 172 L 425 0 L 341 0 Z M 341 247 L 341 566 L 138 247 L 341 247 Z" unicode="4" />
<glyph horiz-adv-x="516" d="M 238 -12 C 202 -12 168 -7 138 2 C 108 12 79 26 53 46 L 53 134 C 78 111 106 94 136 83 C 166 71 198 66 233 66 C 273 66 307 76 335 98 C 363 120 377 152 377 194 C 377 234 362 264 333 286 C 304 308 266 319 218 319 C 193 319 169 317 145 315 C 121 313 95 309 68 305 L 94 658 L 442 658 L 442 578 L 171 578 L 156 394 C 168 396 181 397 195 398 C 209 399 222 400 234 400 C 304 400 359 382 401 346 C 442 310 463 260 463 198 C 463 135 442 84 401 46 C 359 7 305 -12 238 -12 Z" unicode="5" />
<glyph horiz-adv-x="548" d="M 272 -12 C 208 -12 155 11 113 58 C 71 105 51 177 51 275 C 51 403 76 501 126 569 C 176 637 243 671 326 671 C 349 671 373 668 397 664 C 421 659 444 653 465 645 L 465 561 C 446 570 425 578 401 584 C 377 590 354 593 332 593 C 280 593 236 572 201 531 C 165 490 144 428 137 346 C 153 374 175 394 203 408 C 230 422 260 429 292 429 C 352 429 401 409 439 370 C 477 330 497 279 497 216 C 497 144 475 88 432 48 C 389 8 336 -12 272 -12 Z M 272 63 C 314 63 348 76 374 104 C 400 132 413 168 413 212 C 413 252 400 285 375 313 C 350 341 318 355 278 355 C 240 355 208 343 182 321 C 156 299 141 271 137 237 C 137 185 149 143 173 111 C 197 79 230 63 272 63 Z" unicode="6" />
<glyph horiz-adv-x="498" d="M 136 0 L 360 577 L 44 577 L 44 658 L 454 658 L 454 599 L 226 0 L 136 0 Z" unicode="7" />
<glyph horiz-adv-x="537" d="M 269 -14 C 197 -14 143 3 107 38 C 71 73 53 116 53 166 C 53 204 63 237 85 265 C 107 293 137 317 175 335 C 139 353 112 376 94 402 C 75 428 66 459 66 495 C 66 543 83 585 119 620 C 154 654 204 672 269 672 C 333 672 383 655 419 623 C 455 590 473 551 473 505 C 473 468 462 436 442 410 C 422 383 393 361 355 344 C 395 324 427 301 450 273 C 472 245 484 212 484 172 C 484 119 465 75 428 39 C 391 3 338 -14 269 -14 Z M 152 496 C 152 469 161 446 181 426 C 200 406 226 391 259 380 L 274 375 C 308 385 336 401 356 422 C 376 442 386 467 386 497 C 386 526 375 550 353 570 C 331 590 303 600 269 600 C 235 600 207 590 185 570 C 163 550 152 526 152 496 Z M 138 171 C 138 140 149 113 173 91 C 196 69 228 58 268 58 C 310 58 342 69 364 91 C 386 113 397 139 397 171 C 397 201 386 226 365 246 C 344 265 315 281 279 294 L 253 303 L 253 303 C 218 291 190 273 169 251 C 148 229 138 202 138 171 Z" unicode="8" />
<glyph horiz-adv-x="547" d="M 222 -12 C 198 -12 174 -9 150 -5 C 126 0 103 6 83 14 L 83 99 C 101 89 122 81 146 75 C 170 69 193 66 216 66 C 270 66 314 86 348 126 C 382 166 403 229 410 313 C 393 285 371 264 344 250 C 316 236 287 230 256 230 C 196 230 146 249 108 288 C 70 327 51 379 51 443 C 51 514 72 570 115 610 C 157 650 211 671 275 671 C 339 671 392 647 434 601 C 476 555 497 482 497 383 C 497 252 471 153 421 87 C 370 21 304 -12 222 -12 Z M 270 303 C 308 303 340 314 366 337 C 392 359 406 388 410 422 C 409 474 397 516 373 548 C 349 580 317 597 275 597 C 233 597 199 582 173 554 C 147 526 135 490 135 447 C 135 407 147 373 172 345 C 197 317 230 303 270 303 Z" unicode="9" />
<glyph horiz-adv-x="187" d="M 51 301 L 51 386 L 136 386 L 136 301 L 51 301 Z M 51 0 L 51 85 L 136 85 L 136 0 L 51 0 Z" unicode=":" />
<glyph horiz-adv-x="198" d="M 68 301 L 68 386 L 153 386 L 153 301 L 68 301 Z M 149 95 L 149 19 C 149 -14 142 -46 130 -76 C 118 -106 102 -131 83 -152 L 28 -127 C 41 -105 51 -83 58 -61 C 65 -39 69 -14 69 15 L 69 95 L 149 95 Z" unicode=";" />
<glyph horiz-adv-x="459" d="M 285 81 L 60 288 L 285 495 L 399 495 L 174 288 L 399 81 L 285 81 Z" unicode="&#x3C;" />
<glyph horiz-adv-x="522" d="M 56 335 L 56 407 L 472 407 L 472 335 L 56 335 Z M 56 171 L 56 242 L 472 242 L 472 171 L 56 171 Z" unicode="=" />
<glyph horiz-adv-x="459" d="M 60 81 L 285 288 L 60 495 L 174 495 L 399 288 L 174 81 L 60 81 Z" unicode="&#x3E;" />
<glyph horiz-adv-x="457" d="M 172 190 C 172 228 179 263 193 295 C 207 327 232 359 266 392 C 290 414 307 436 318 458 C 329 479 335 502 335 527 C 335 565 322 595 296 618 C 270 640 235 652 191 652 C 163 652 135 647 109 637 C 83 627 60 613 40 596 L 40 680 C 63 694 89 706 118 714 C 146 722 175 726 204 726 C 273 726 326 707 363 671 C 400 635 419 589 419 534 C 419 500 412 469 398 441 C 384 413 361 383 329 353 C 302 328 282 303 269 277 C 256 251 250 222 250 190 L 172 190 Z M 170 0 L 170 84 L 254 84 L 254 0 L 170 0 Z" unicode="?" />
<glyph horiz-adv-x="796" d="M 391 -71 C 297 -71 216 -39 148 24 C 79 87 45 171 45 275 C 45 379 80 463 150 528 C 220 593 302 626 397 626 C 492 626 575 597 645 539 C 715 481 751 406 751 313 C 751 251 736 201 707 163 C 678 125 641 107 595 107 C 567 107 543 114 521 130 C 499 145 484 169 475 203 C 461 167 442 142 418 128 C 394 114 370 107 346 107 C 310 107 280 119 257 143 C 234 167 223 201 223 245 C 223 306 243 356 283 394 C 323 432 374 452 434 452 C 450 452 468 450 488 447 C 508 444 527 440 544 435 L 524 279 C 519 242 523 213 537 192 C 551 170 571 160 598 160 C 627 160 650 173 667 199 C 684 225 693 263 693 312 C 693 381 665 441 611 493 C 557 545 485 571 397 571 C 309 571 238 541 184 483 C 130 424 103 355 103 276 C 103 196 129 128 183 70 C 236 12 305 -16 391 -16 C 421 -16 452 -12 482 -5 C 512 2 541 13 569 28 L 569 -32 C 540 -44 511 -54 481 -61 C 451 -67 421 -71 391 -71 Z M 360 161 C 378 161 399 170 422 189 C 444 208 461 258 472 340 L 479 393 C 471 395 462 396 454 398 C 445 399 436 400 426 400 C 386 400 353 386 325 358 C 297 330 283 294 283 251 C 283 223 289 201 303 185 C 317 169 336 161 360 161 Z" unicode="@" />
<glyph horiz-adv-x="642" d="M 20 0 L 281 664 L 361 664 L 623 0 L 532 0 L 456 197 L 181 197 L 105 0 L 20 0 Z M 208 271 L 428 271 L 344 488 L 318 561 L 292 488 L 208 271 Z" unicode="A" />
<glyph horiz-adv-x="524" d="M 73 0 L 73 658 L 242 658 C 312 658 365 643 400 615 C 435 587 453 546 453 494 C 453 458 444 425 426 397 C 408 369 380 349 342 338 C 388 328 421 308 443 280 C 464 252 475 218 475 179 C 475 122 457 78 421 47 C 385 15 331 0 258 0 L 73 0 Z M 157 368 L 241 368 C 279 368 309 377 333 396 C 357 415 369 443 369 481 C 369 516 357 542 334 559 C 311 576 281 585 243 585 L 157 585 L 157 368 Z M 157 73 L 260 73 C 300 73 332 82 356 101 C 379 119 391 148 391 186 C 391 223 379 251 355 270 C 331 288 297 298 253 298 L 157 298 L 157 73 Z" unicode="B" />
<glyph horiz-adv-x="659" d="M 400 -14 C 294 -14 208 17 144 79 C 80 141 48 224 48 329 C 48 431 79 514 143 577 C 207 640 292 672 400 672 C 438 672 473 668 506 660 C 539 652 572 639 604 623 L 604 538 C 572 557 540 571 507 580 C 473 589 438 594 400 594 C 319 594 254 569 206 521 C 158 473 134 409 134 329 C 134 247 158 183 207 135 C 256 87 320 64 400 64 C 440 64 477 69 511 80 C 545 90 578 106 611 128 L 611 42 C 578 22 544 8 510 0 C 475 -9 438 -14 400 -14 Z" unicode="C" />
<glyph horiz-adv-x="684" d="M 73 0 L 73 658 L 276 658 C 385 658 472 628 538 570 C 603 512 636 434 636 337 C 636 235 602 153 536 92 C 469 30 380 0 268 0 L 73 0 Z M 157 79 L 272 79 C 357 79 425 102 476 149 C 526 195 552 258 552 337 C 552 410 527 469 478 513 C 429 557 363 579 280 579 L 157 579 L 157 79 Z" unicode="D" />
<glyph horiz-adv-x="503" d="M 73 0 L 73 658 L 435 658 L 435 579 L 157 579 L 157 373 L 423 373 L 423 294 L 157 294 L 157 79 L 445 79 L 445 0 L 73 0 Z" unicode="E" />
<glyph horiz-adv-x="450" d="M 73 0 L 73 658 L 414 658 L 414 579 L 157 579 L 157 369 L 391 369 L 391 291 L 157 291 L 157 0 L 73 0 Z" unicode="F" />
<glyph horiz-adv-x="688" d="M 388 -14 C 285 -14 203 17 141 80 C 79 143 48 227 48 331 C 48 433 79 516 141 578 C 203 640 286 672 390 672 C 426 672 462 668 499 660 C 536 652 570 642 602 628 L 602 545 C 570 561 537 574 503 582 C 468 590 431 594 393 594 C 313 594 250 570 204 522 C 157 474 134 411 134 331 C 134 249 156 184 202 136 C 247 88 307 64 383 64 C 412 64 440 66 468 71 C 495 76 521 84 546 94 L 546 258 L 407 258 L 407 337 L 630 337 L 630 39 C 594 22 555 9 513 0 C 471 -9 430 -14 388 -14 Z" unicode="G" />
<glyph horiz-adv-x="685" d="M 73 0 L 73 658 L 157 658 L 157 376 L 528 376 L 528 658 L 612 658 L 612 0 L 528 0 L 528 297 L 157 297 L 157 0 L 73 0 Z" unicode="H" />
<glyph horiz-adv-x="230" d="M 73 0 L 73 658 L 157 658 L 157 0 L 73 0 Z" unicode="I" />
<glyph horiz-adv-x="230" d="M -18 -211 L -26 -211 L -26 -133 L -18 -133 C 10 -133 32 -124 48 -106 C 64 -88 73 -64 73 -34 L 73 658 L 157 658 L 157 -34 C 157 -88 141 -131 110 -163 C 78 -195 36 -211 -18 -211 Z" unicode="J" />
<glyph horiz-adv-x="586" d="M 73 0 L 73 658 L 157 658 L 157 356 L 439 658 L 542 658 L 242 341 L 560 1 L 449 0 L 157 316 L 157 0 L 73 0 Z" unicode="K" />
<glyph horiz-adv-x="470" d="M 73 0 L 73 658 L 157 658 L 157 79 L 448 79 L 448 0 L 73 0 Z" unicode="L" />
<glyph horiz-adv-x="783" d="M 73 0 L 73 658 L 198 658 L 362 302 L 391 226 L 421 303 L 585 658 L 710 658 L 710 0 L 627 0 L 627 483 L 628 565 L 595 483 L 430 127 L 351 127 L 185 483 L 150 567 L 152 483 L 152 0 L 73 0 Z" unicode="M" />
<glyph horiz-adv-x="709" d="M 73 0 L 73 658 L 163 658 L 518 179 L 558 121 L 557 178 L 557 658 L 636 658 L 636 0 L 547 0 L 190 482 L 151 538 L 152 483 L 152 0 L 73 0 Z" unicode="N" />
<glyph horiz-adv-x="775" d="M 388 -15 C 287 -15 205 17 142 81 C 79 145 48 227 48 329 C 48 431 79 513 143 577 C 207 641 288 673 388 673 C 486 673 567 641 631 578 C 695 515 727 432 727 329 C 727 226 695 143 633 80 C 570 16 488 -15 388 -15 Z M 388 63 C 462 63 523 87 570 136 C 617 185 641 249 641 329 C 641 408 617 472 570 521 C 523 570 462 595 388 595 C 313 595 252 570 205 521 C 157 472 134 408 134 329 C 134 249 157 185 205 136 C 252 87 313 63 388 63 Z" unicode="O" />
<glyph horiz-adv-x="491" d="M 73 0 L 73 658 L 208 658 C 286 658 346 638 389 600 C 431 562 453 511 453 447 C 453 382 431 331 389 293 C 346 255 286 236 209 236 L 157 236 L 157 0 L 73 0 Z M 157 312 L 212 312 C 258 312 296 323 325 347 C 353 370 368 403 368 447 C 368 489 353 522 325 545 C 296 568 258 580 211 580 L 157 580 L 157 312 Z" unicode="P" />
<glyph horiz-adv-x="775" d="M 388 -15 C 287 -15 205 17 142 81 C 79 145 48 227 48 329 C 48 431 79 513 143 577 C 207 641 288 673 388 673 C 486 673 567 641 631 578 C 695 515 727 432 727 329 C 727 252 709 186 673 130 C 637 74 589 35 529 11 C 549 -7 573 -23 600 -36 C 627 -48 657 -57 691 -62 L 667 -141 C 619 -130 574 -114 534 -92 C 494 -70 458 -44 427 -13 C 420 -13 413 -14 407 -14 C 401 -14 394 -15 388 -15 Z M 388 63 C 462 63 523 87 570 136 C 617 185 641 249 641 329 C 641 408 617 472 570 521 C 523 570 462 595 388 595 C 313 595 252 570 205 521 C 157 472 134 408 134 329 C 134 249 157 185 205 136 C 252 87 313 63 388 63 Z" unicode="Q" />
<glyph horiz-adv-x="533" d="M 416 0 L 341 206 C 330 234 316 255 298 268 C 280 281 258 288 232 288 L 157 288 L 157 0 L 73 0 L 73 658 L 249 658 C 311 658 361 642 397 610 C 433 578 452 536 452 484 C 452 444 441 410 420 381 C 399 351 369 331 329 320 C 351 313 369 302 385 286 C 400 270 412 249 422 225 L 507 0 L 416 0 Z M 157 360 L 250 360 C 286 360 314 370 335 390 C 355 410 366 438 366 473 C 366 506 355 532 333 552 C 311 572 283 582 247 582 L 157 582 L 157 360 Z" unicode="R" />
<glyph horiz-adv-x="501" d="M 242 -15 C 208 -15 175 -10 144 -2 C 113 5 84 18 56 35 L 56 125 C 82 104 111 88 142 78 C 173 68 205 63 239 63 C 276 63 306 72 329 91 C 351 110 363 136 363 169 C 363 199 353 224 333 243 C 313 262 282 280 239 296 L 222 303 C 166 323 125 348 99 378 C 72 408 59 446 59 494 C 59 546 77 589 113 623 C 149 656 197 673 257 673 C 287 673 317 669 345 661 C 373 653 400 642 428 627 L 428 535 C 403 554 377 569 350 579 C 322 589 293 595 263 595 C 225 595 196 586 175 568 C 154 550 144 526 144 496 C 144 468 153 445 172 428 C 190 410 219 394 259 380 L 277 374 C 335 352 378 326 406 295 C 434 264 448 225 448 178 C 448 120 429 74 391 38 C 353 2 304 -15 242 -15 Z" unicode="S" />
<glyph horiz-adv-x="557" d="M 237 0 L 237 579 L 20 579 L 20 658 L 537 658 L 537 579 L 321 579 L 321 0 L 237 0 Z" unicode="T" />
<glyph horiz-adv-x="664" d="M 333 -12 C 251 -12 186 12 138 62 C 90 112 66 178 66 260 L 66 658 L 150 658 L 150 260 C 150 202 166 155 200 120 C 234 85 278 68 333 68 C 389 68 433 85 467 120 C 500 155 517 202 517 260 L 517 658 L 598 658 L 598 260 C 598 178 573 112 525 62 C 477 12 413 -12 333 -12 Z" unicode="U" />
<glyph horiz-adv-x="641" d="M 283 0 L 18 658 L 109 658 L 299 175 L 324 107 L 349 175 L 538 658 L 624 658 L 359 0 L 283 0 Z" unicode="V" />
<glyph horiz-adv-x="946" d="M 223 0 L 18 658 L 105 658 L 252 175 L 269 107 L 286 175 L 432 658 L 520 658 L 665 175 L 682 106 L 700 175 L 845 658 L 928 658 L 723 0 L 635 0 L 490 483 L 473 551 L 456 483 L 311 0 L 223 0 Z" unicode="W" />
<glyph horiz-adv-x="618" d="M 26 0 L 257 338 L 39 658 L 141 658 L 280 450 L 309 406 L 338 450 L 478 658 L 573 658 L 356 342 L 592 0 L 490 0 L 334 229 L 304 272 L 275 229 L 122 0 L 26 0 Z" unicode="X" />
<glyph horiz-adv-x="590" d="M 253 0 L 253 281 L 13 658 L 111 658 L 266 414 L 298 358 L 331 414 L 485 658 L 577 658 L 337 280 L 337 0 L 253 0 Z" unicode="Y" />
<glyph horiz-adv-x="587" d="M 50 0 L 50 47 L 382 534 L 413 579 L 57 579 L 57 658 L 537 658 L 537 613 L 204 124 L 173 79 L 537 79 L 537 0 L 50 0 Z" unicode="Z" />
<glyph horiz-adv-x="351" d="M 90 -215 L 90 720 L 302 720 L 302 650 L 171 650 L 171 -145 L 302 -145 L 302 -215 L 90 -215 Z" unicode="[" />
<glyph horiz-adv-x="411" d="M 315 0 L 18 720 L 96 720 L 393 0 L 315 0 Z" unicode="\" />
<glyph horiz-adv-x="351" d="M 50 -215 L 50 -145 L 181 -145 L 181 650 L 50 650 L 50 720 L 261 720 L 261 -215 L 50 -215 Z" unicode="]" />
<glyph horiz-adv-x="375" d="M 127 524 L 55 524 L 154 658 L 222 658 L 321 524 L 249 524 L 188 601 L 127 524 Z" unicode="^" />
<glyph horiz-adv-x="422" d="M 0 -215 L 0 -143 L 422 -143 L 422 -215 L 0 -215 Z" unicode="_" />
<glyph horiz-adv-x="238" d="M 126 524 L 17 661 L 109 661 L 208 524 L 126 524 Z" unicode="`" />
<glyph horiz-adv-x="457" d="M 183 -10 C 139 -10 105 2 79 26 C 53 50 40 83 40 124 C 40 166 55 200 85 227 C 115 254 159 272 217 281 L 316 294 L 316 321 C 316 349 306 370 288 384 C 270 397 244 404 211 404 C 184 404 158 400 133 392 C 108 384 84 373 61 359 L 61 440 C 87 451 113 460 141 468 C 168 475 195 479 221 479 C 277 479 321 465 352 438 C 382 411 398 373 398 323 L 398 0 L 323 0 L 316 63 C 302 39 283 21 260 9 C 237 -3 211 -10 183 -10 Z M 206 57 C 231 57 253 63 273 77 C 293 90 307 107 316 128 L 316 235 L 227 223 C 193 218 166 208 148 192 C 130 176 121 156 121 132 C 121 109 128 91 143 77 C 158 63 179 57 206 57 Z" unicode="a" />
<glyph horiz-adv-x="515" d="M 237 -10 C 207 -10 177 -7 149 -2 C 120 3 91 11 63 22 L 63 720 L 145 720 L 145 426 C 161 442 181 454 204 463 C 227 471 250 476 274 476 C 334 476 382 454 419 412 C 455 370 474 313 474 242 C 474 164 452 103 409 58 C 365 12 308 -10 237 -10 Z M 241 61 C 286 61 322 77 350 109 C 378 141 392 183 392 236 C 392 287 379 328 355 358 C 331 388 298 404 256 404 C 235 404 215 400 196 392 C 177 384 160 373 145 359 L 145 76 C 160 71 176 67 192 65 C 208 62 224 61 241 61 Z" unicode="b" />
<glyph horiz-adv-x="465" d="M 280 -10 C 207 -10 149 11 106 55 C 62 99 41 158 41 232 C 41 307 62 366 105 410 C 148 454 206 476 278 476 C 302 476 327 473 351 467 C 375 461 399 451 422 439 L 422 355 C 399 369 376 380 353 388 C 330 396 306 400 281 400 C 233 400 194 385 166 356 C 138 327 124 286 124 233 C 124 181 138 140 168 110 C 197 80 236 66 285 66 C 309 66 333 70 357 79 C 381 88 402 100 422 116 L 422 32 C 401 18 378 8 354 1 C 329 -6 304 -10 280 -10 Z" unicode="c" />
<glyph horiz-adv-x="522" d="M 245 -10 C 185 -10 136 10 98 52 C 60 94 41 153 41 229 C 41 307 61 367 102 411 C 143 454 195 476 259 476 C 279 476 300 472 321 466 C 341 460 360 451 377 441 L 377 720 L 459 720 L 459 0 L 384 0 L 378 63 C 363 40 344 22 320 9 C 296 -3 271 -10 245 -10 Z M 261 62 C 285 62 308 68 328 81 C 348 94 365 111 377 132 L 377 366 C 362 378 345 388 327 395 C 308 401 289 405 269 405 C 225 405 189 389 163 357 C 137 325 124 284 124 232 C 124 180 136 139 160 108 C 184 77 218 62 261 62 Z" unicode="d" />
<glyph horiz-adv-x="500" d="M 274 -10 C 200 -10 143 11 102 55 C 61 99 41 158 41 234 C 41 306 60 364 99 409 C 138 453 190 476 256 476 C 318 476 368 455 404 415 C 440 374 459 316 459 241 L 459 211 L 125 211 C 125 165 139 128 167 101 C 194 73 233 60 283 60 C 310 60 337 64 365 74 C 392 83 419 97 447 116 L 447 38 C 418 22 389 10 360 2 C 331 -6 302 -10 274 -10 Z M 255 408 C 218 408 188 395 164 371 C 140 346 127 314 125 274 L 377 274 C 377 315 366 348 344 372 C 322 396 293 408 255 408 Z" unicode="e" />
<glyph horiz-adv-x="275" d="M 90 0 L 90 392 L 20 392 L 20 466 L 90 466 L 90 546 C 90 602 104 646 134 680 C 164 713 205 730 257 730 C 273 730 290 728 308 724 C 325 720 342 715 358 709 L 358 629 C 344 637 329 643 313 648 C 297 652 280 655 264 655 C 235 655 212 645 196 627 C 180 608 172 582 172 548 L 172 466 L 258 466 L 258 392 L 172 392 L 172 0 L 90 0 Z" unicode="f" />
<glyph horiz-adv-x="521" d="M 245 -224 C 214 -224 183 -220 152 -213 C 121 -206 92 -196 66 -182 L 66 -100 C 91 -114 118 -126 147 -136 C 176 -146 205 -151 234 -151 C 277 -151 312 -138 338 -112 C 364 -86 378 -51 378 -7 L 378 50 C 362 30 343 15 320 5 C 297 -4 273 -10 248 -10 C 186 -10 136 10 98 52 C 60 94 41 153 41 231 C 41 306 61 366 103 410 C 144 454 197 476 262 476 C 286 476 312 471 338 461 C 364 451 385 438 401 422 L 420 466 L 460 466 L 460 0 C 460 -67 440 -121 401 -162 C 361 -203 309 -224 245 -224 Z M 264 62 C 288 62 310 67 330 79 C 350 91 366 106 378 125 L 378 364 C 366 376 349 386 329 394 C 309 401 289 405 270 405 C 224 405 189 388 163 356 C 137 323 124 282 124 232 C 124 180 136 139 160 108 C 184 77 219 62 264 62 Z" unicode="g" />
<glyph horiz-adv-x="503" d="M 63 0 L 63 720 L 145 720 L 145 403 C 161 425 182 443 206 456 C 230 469 257 476 285 476 C 335 476 374 460 402 430 C 430 399 444 357 444 304 L 444 0 L 362 0 L 362 290 C 362 326 353 354 335 373 C 317 392 293 402 262 402 C 238 402 215 395 195 383 C 175 370 158 353 145 333 L 145 0 L 63 0 Z" unicode="h" />
<glyph horiz-adv-x="217" d="M 66 611 L 66 694 L 151 694 L 151 611 L 66 611 Z M 68 0 L 68 466 L 150 466 L 150 0 L 68 0 Z" unicode="i" />
<glyph horiz-adv-x="209" d="M 63 611 L 63 694 L 148 694 L 148 611 L 63 611 Z M -23 -211 L -31 -211 L -31 -136 L -23 -136 C 3 -136 25 -127 41 -109 C 57 -91 65 -66 65 -36 L 65 466 L 147 466 L 147 -36 C 147 -89 131 -131 100 -163 C 69 -195 28 -211 -23 -211 Z" unicode="j" />
<glyph horiz-adv-x="469" d="M 63 0 L 63 720 L 145 720 L 145 257 L 336 466 L 433 466 L 227 245 L 454 0 L 351 0 L 145 225 L 145 0 L 63 0 Z" unicode="k" />
<glyph horiz-adv-x="209" d="M 63 0 L 63 720 L 145 720 L 145 0 L 63 0 Z" unicode="l" />
<glyph horiz-adv-x="796" d="M 63 0 L 63 466 L 145 466 L 145 403 C 161 426 181 444 205 457 C 229 469 255 476 284 476 C 321 476 352 467 376 450 C 400 433 417 412 428 386 C 448 419 470 442 496 456 C 522 469 549 476 578 476 C 626 476 664 461 693 431 C 722 401 737 359 737 306 L 737 0 L 655 0 L 655 291 C 655 325 646 352 628 372 C 610 392 585 402 555 402 C 532 402 511 396 491 385 C 471 373 455 355 441 330 L 441 0 L 359 0 L 359 293 C 359 327 350 353 333 373 C 316 392 292 402 260 402 C 236 402 215 395 195 383 C 175 371 158 354 145 333 L 145 0 L 63 0 Z" unicode="m" />
<glyph horiz-adv-x="503" d="M 63 0 L 63 466 L 145 466 L 145 403 C 161 425 182 443 206 456 C 230 469 257 476 285 476 C 335 476 374 460 402 430 C 430 399 444 357 444 304 L 444 0 L 362 0 L 362 290 C 362 326 353 354 335 373 C 317 392 293 402 262 402 C 238 402 215 395 195 383 C 175 370 158 353 145 333 L 145 0 L 63 0 Z" unicode="n" />
<glyph horiz-adv-x="556" d="M 278 -11 C 207 -11 150 11 106 56 C 62 100 41 159 41 232 C 41 305 62 364 106 409 C 150 454 207 477 278 477 C 348 477 404 454 448 410 C 492 365 514 306 514 233 C 514 159 492 100 448 56 C 404 11 348 -11 278 -11 Z M 278 63 C 324 63 361 78 389 110 C 417 141 431 182 431 232 C 431 282 417 323 389 355 C 361 387 324 403 278 403 C 232 403 194 387 166 356 C 138 324 124 283 124 233 C 124 182 138 141 166 110 C 194 78 232 63 278 63 Z" unicode="o" />
<glyph horiz-adv-x="516" d="M 63 -215 L 63 466 L 145 466 L 145 411 C 159 431 178 447 202 459 C 226 470 252 476 280 476 C 338 476 384 454 420 411 C 456 368 474 312 474 242 C 474 164 453 103 412 58 C 371 12 318 -10 252 -10 C 233 -10 214 -7 196 -3 C 178 1 161 8 145 16 L 145 -215 L 63 -215 Z M 246 61 C 288 61 323 76 351 108 C 378 139 392 182 392 236 C 392 287 380 328 356 358 C 332 388 299 404 257 404 C 235 404 214 398 194 388 C 173 378 157 364 145 347 L 145 89 C 160 80 176 73 193 68 C 209 63 227 61 246 61 Z" unicode="p" />
<glyph horiz-adv-x="518" d="M 375 -215 L 375 50 C 359 30 340 15 317 5 C 293 -4 269 -10 244 -10 C 183 -10 134 11 97 53 C 59 95 41 153 41 229 C 41 307 61 368 101 411 C 141 454 194 476 258 476 C 282 476 308 471 334 461 C 360 451 382 438 398 422 L 414 466 L 457 466 L 457 -215 L 375 -215 Z M 260 63 C 285 63 308 68 328 80 C 348 91 363 105 375 123 L 375 364 C 362 376 346 386 326 394 C 306 401 286 405 267 405 C 223 405 188 389 162 357 C 136 325 124 284 124 232 C 124 181 135 140 159 109 C 183 78 216 63 260 63 Z" unicode="q" />
<glyph horiz-adv-x="318" d="M 63 0 L 63 466 L 145 466 L 145 398 C 155 422 170 441 190 455 C 210 469 231 476 253 476 C 261 476 270 475 279 474 C 287 472 296 470 305 468 L 305 377 C 294 381 283 385 273 387 C 262 389 251 390 240 390 C 218 390 199 384 183 373 C 166 362 153 348 145 332 L 145 0 L 63 0 Z" unicode="r" />
<glyph horiz-adv-x="390" d="M 186 -10 C 161 -10 136 -6 112 0 C 87 5 64 14 43 25 L 43 100 C 63 86 86 76 110 69 C 134 61 158 58 183 58 C 209 58 230 63 245 75 C 260 86 268 102 268 123 C 268 140 261 155 248 167 C 234 179 213 190 185 200 L 170 205 C 126 219 93 237 73 259 C 52 281 42 309 42 343 C 42 384 55 416 82 440 C 108 464 147 476 197 476 C 219 476 242 473 266 468 C 290 463 312 456 334 448 L 334 372 C 314 384 293 393 270 399 C 247 405 224 409 202 409 C 177 409 158 403 144 393 C 130 382 124 367 124 349 C 124 333 129 320 141 309 C 153 297 172 287 200 279 L 215 274 C 262 258 296 239 318 217 C 340 195 351 166 351 132 C 351 89 336 55 308 29 C 279 3 238 -10 186 -10 Z" unicode="s" />
<glyph horiz-adv-x="307" d="M 191 -9 C 158 -9 132 0 114 19 C 95 37 86 64 86 98 L 86 392 L 18 392 L 18 466 L 86 466 L 86 609 L 168 609 L 168 466 L 276 466 L 276 392 L 168 392 L 168 119 C 168 102 172 89 182 80 C 191 70 203 66 218 66 C 228 66 238 67 248 70 C 258 72 267 77 276 84 L 276 10 C 263 3 249 -1 235 -4 C 220 -7 205 -9 191 -9 Z" unicode="t" />
<glyph horiz-adv-x="503" d="M 218 -10 C 168 -10 129 6 102 38 C 74 70 61 112 61 164 L 61 466 L 143 466 L 143 175 C 143 140 152 113 170 93 C 188 73 212 64 243 64 C 269 64 292 70 312 84 C 332 97 347 114 358 135 L 358 466 L 440 466 L 440 0 L 365 0 L 358 63 C 341 39 321 20 298 8 C 275 -3 248 -10 218 -10 Z" unicode="u" />
<glyph horiz-adv-x="472" d="M 191 0 L 15 466 L 103 466 L 219 151 L 238 91 L 258 151 L 374 466 L 457 466 L 281 0 L 191 0 Z" unicode="v" />
<glyph horiz-adv-x="741" d="M 165 0 L 15 466 L 100 466 L 201 151 L 217 86 L 233 151 L 332 466 L 417 466 L 516 151 L 532 87 L 548 151 L 648 466 L 726 466 L 576 0 L 482 0 L 389 296 L 372 366 L 354 296 L 259 0 L 165 0 Z" unicode="w" />
<glyph horiz-adv-x="459" d="M 17 0 L 181 239 L 26 466 L 121 466 L 202 343 L 228 302 L 254 343 L 336 466 L 428 466 L 275 241 L 441 0 L 347 0 L 253 139 L 228 179 L 202 139 L 108 0 L 17 0 Z" unicode="x" />
<glyph horiz-adv-x="470" d="M 6 -215 L -2 -215 L -2 -140 L 6 -140 C 50 -140 86 -130 115 -111 C 143 -92 169 -58 192 -8 L 183 17 L 13 466 L 100 466 L 217 151 L 236 90 L 255 151 L 372 466 L 455 466 L 286 22 C 252 -68 214 -130 172 -164 C 130 -198 74 -215 6 -215 Z" unicode="y" />
<glyph horiz-adv-x="434" d="M 40 0 L 40 58 L 252 355 L 281 392 L 44 392 L 44 466 L 390 466 L 390 408 L 177 111 L 149 74 L 395 74 L 395 0 L 40 0 Z" unicode="z" />
<glyph horiz-adv-x="459" d="M 388 -215 C 315 -215 260 -199 222 -167 C 184 -135 168 -86 173 -21 L 181 92 C 183 126 173 154 151 175 C 129 195 96 209 53 216 L 53 290 C 96 296 129 310 151 330 C 173 350 183 378 181 414 L 173 527 C 168 592 184 641 222 673 C 260 705 315 721 388 721 L 412 721 L 412 649 L 387 649 C 341 649 308 638 286 616 C 264 594 254 560 257 516 L 265 414 C 268 370 259 334 237 308 C 215 282 184 264 146 254 L 146 253 C 184 240 214 220 236 194 C 258 168 267 134 265 92 L 257 -10 C 254 -55 264 -88 286 -110 C 308 -132 341 -143 387 -143 L 412 -143 L 412 -215 L 388 -215 Z" unicode="{" />
<glyph horiz-adv-x="231" d="M 80 -215 L 80 720 L 151 720 L 151 -215 L 80 -215 Z" unicode="|" />
<glyph horiz-adv-x="459" d="M 47 -215 L 47 -143 L 72 -143 C 117 -143 151 -132 173 -110 C 195 -88 204 -55 202 -10 L 194 91 C 190 134 200 169 222 195 C 244 221 274 240 313 252 L 313 253 C 274 263 244 282 222 309 C 200 335 191 370 194 414 L 202 515 C 204 560 195 593 173 615 C 151 637 117 648 72 648 L 47 648 L 47 720 L 71 720 C 143 720 198 704 236 672 C 274 640 290 591 286 526 L 278 414 C 276 378 286 350 308 330 C 330 309 362 295 406 289 L 406 216 C 362 209 330 195 308 175 C 286 154 276 126 278 91 L 286 -21 C 290 -86 274 -135 236 -167 C 198 -199 143 -215 71 -215 L 47 -215 Z" unicode="}" />
<glyph horiz-adv-x="379" d="M 92 146 L 40 146 C 41 180 50 207 66 226 C 82 245 103 255 128 255 C 140 255 151 252 162 248 C 172 243 185 235 199 225 C 209 218 217 212 225 208 C 232 204 240 202 249 202 C 259 202 268 206 275 214 C 282 222 286 233 288 248 L 340 248 C 338 212 328 185 312 167 C 296 148 275 139 251 139 C 238 139 226 141 215 146 C 204 151 192 159 180 169 C 170 176 162 182 154 186 C 146 190 138 192 131 192 C 120 192 111 188 104 180 C 96 172 92 160 92 146 Z" unicode="~" />
<glyph horiz-adv-x="213" d="M 64 428 L 64 512 L 149 512 L 149 428 L 64 428 Z M 67 -205 L 67 322 L 146 322 L 146 -205 L 67 -205 Z" unicode="¡" />
<glyph horiz-adv-x="465" d="M 226 -109 L 226 -5 C 168 5 123 30 90 72 C 57 114 41 167 41 232 C 41 298 57 352 90 394 C 123 436 168 462 226 472 L 226 575 L 296 575 L 296 475 C 317 474 338 470 360 464 C 381 458 402 449 422 439 L 422 355 C 401 368 380 378 360 386 C 340 394 318 398 296 400 L 296 66 C 318 67 340 72 362 81 C 384 89 404 101 422 116 L 422 32 C 403 20 383 10 362 3 C 340 -4 318 -8 296 -9 L 296 -109 L 226 -109 Z M 124 233 C 124 192 133 158 151 131 C 169 103 194 85 226 75 L 226 392 C 194 382 169 364 151 337 C 133 309 124 275 124 233 Z" unicode="¢" />
<glyph horiz-adv-x="525" d="M 60 0 L 60 80 C 94 100 119 129 135 165 C 151 201 154 246 144 298 L 51 298 L 51 373 L 127 373 L 119 409 C 101 488 108 552 141 600 C 173 648 230 673 311 673 C 339 673 368 669 396 663 C 424 657 451 648 478 636 L 478 554 C 453 569 427 580 401 588 C 375 595 347 599 319 599 C 271 599 236 582 215 549 C 193 516 189 470 202 412 L 211 373 L 369 373 L 369 298 L 227 298 C 235 254 234 213 223 176 C 212 138 191 106 161 80 L 470 80 L 470 0 L 60 0 Z" unicode="£" />
<glyph horiz-adv-x="646" d="M 104 36 L 47 95 L 163 204 C 155 218 148 233 144 250 C 139 266 137 284 137 303 C 137 323 139 342 145 360 C 150 378 158 394 168 409 L 70 513 L 129 571 L 228 466 C 216 459 204 451 194 441 C 184 431 175 421 168 409 L 191 385 L 250 442 L 228 466 C 242 474 257 480 273 484 C 289 488 305 491 323 491 C 343 491 362 488 380 482 C 398 476 415 468 431 458 L 405 434 L 462 376 L 486 398 C 479 410 471 422 461 432 C 451 442 441 450 431 458 L 546 567 L 602 509 L 486 398 C 493 384 499 370 503 354 C 507 338 510 321 510 303 C 510 281 507 261 501 243 C 495 224 486 207 476 192 L 573 89 L 514 32 L 414 138 C 400 130 386 125 371 121 C 355 117 339 115 323 115 C 304 115 286 117 268 123 C 250 128 233 136 219 146 L 104 36 Z M 323 189 C 355 189 381 200 403 222 C 424 244 435 271 435 303 C 435 334 424 361 403 383 C 381 405 355 416 323 416 C 291 416 264 405 243 383 C 222 361 212 334 212 303 C 212 271 222 244 243 222 C 264 200 291 189 323 189 Z" unicode="¤" />
<glyph horiz-adv-x="590" d="M 147 121 L 147 180 L 253 180 L 253 238 L 147 238 L 147 297 L 243 297 L 13 658 L 111 658 L 266 414 L 298 358 L 331 414 L 485 658 L 577 658 L 348 297 L 442 297 L 442 238 L 337 238 L 337 180 L 442 180 L 442 121 L 337 121 L 337 0 L 253 0 L 253 121 L 147 121 Z" unicode="¥" />
<glyph horiz-adv-x="231" d="M 80 312 L 80 720 L 151 720 L 151 312 L 80 312 Z M 80 -215 L 80 193 L 150 193 L 150 -215 L 80 -215 Z" unicode="¦" />
<glyph horiz-adv-x="428" d="M 198 -11 C 173 -11 148 -7 124 -1 C 100 4 77 13 56 24 L 56 101 C 76 87 97 76 121 68 C 144 60 168 57 192 57 C 216 57 236 62 252 74 C 267 85 275 101 275 123 C 275 142 268 158 255 171 C 242 183 221 194 192 203 L 178 207 C 136 217 106 234 87 257 C 68 280 59 307 59 339 C 59 361 64 381 76 399 C 87 417 102 431 120 443 C 106 455 96 469 89 485 C 81 501 78 518 78 537 C 78 574 90 605 116 631 C 142 656 179 669 227 669 C 249 669 272 666 296 661 C 319 656 341 649 363 639 L 363 564 C 344 576 323 585 301 591 C 279 597 257 601 235 601 C 212 601 194 595 180 584 C 166 573 159 558 159 538 C 159 522 164 508 176 497 C 187 486 205 477 231 470 L 246 466 C 290 453 323 435 344 411 C 365 387 376 360 376 331 C 376 302 370 280 360 264 C 349 248 335 235 317 225 C 329 212 339 197 346 181 C 352 165 356 146 356 126 C 356 88 342 55 315 29 C 287 2 248 -11 198 -11 Z M 268 205 C 276 207 285 210 293 214 C 301 217 309 221 317 225 C 310 231 302 237 294 243 C 286 248 277 253 268 258 C 278 264 286 271 291 280 C 295 289 298 301 298 316 C 298 334 290 351 276 365 C 262 379 239 390 209 399 L 195 403 C 190 404 186 405 182 407 C 178 408 174 410 170 412 C 174 414 178 416 183 418 C 187 420 192 421 197 422 L 170 465 C 161 462 152 459 144 455 C 135 451 127 447 120 443 C 126 436 134 430 142 425 C 150 420 160 416 170 412 C 160 405 152 397 146 387 C 140 377 138 366 138 355 C 138 337 144 321 156 309 C 168 296 188 286 214 278 L 228 273 C 234 271 241 268 248 266 C 255 263 262 260 268 258 C 264 256 259 254 255 252 C 250 250 245 249 240 248 L 268 205 Z" unicode="§" />
<glyph horiz-adv-x="267" d="M 13 535 L 13 616 L 94 616 L 94 535 L 13 535 Z M 173 535 L 173 616 L 254 616 L 254 535 L 173 535 Z" unicode="¨" />
<glyph horiz-adv-x="684" d="M 342 107 C 256 107 186 136 130 195 C 74 253 46 322 46 402 C 46 482 74 552 130 611 C 186 669 256 699 342 699 C 425 699 495 669 552 611 C 609 552 638 483 638 403 C 638 323 609 253 552 195 C 495 136 425 107 342 107 Z M 342 156 C 406 156 463 179 513 226 C 563 273 588 332 588 402 C 588 473 563 532 513 579 C 463 626 406 650 342 650 C 274 650 216 626 168 579 C 120 532 96 473 96 403 C 96 332 120 273 168 226 C 216 179 274 156 342 156 Z M 346 226 C 298 226 257 242 223 275 C 189 307 172 350 172 404 C 172 457 189 500 223 533 C 257 565 298 582 345 582 C 360 582 377 579 396 574 C 415 568 432 561 447 553 L 447 498 C 433 507 417 515 398 521 C 379 527 361 530 345 530 C 309 530 281 517 260 492 C 238 467 228 438 228 404 C 228 370 238 340 260 315 C 281 290 310 278 346 278 C 362 278 380 281 400 287 C 420 293 437 300 452 309 L 452 255 C 436 246 419 239 399 234 C 379 228 361 226 346 226 Z" unicode="©" />
<glyph horiz-adv-x="400" d="M 169 357 C 135 357 108 366 88 385 C 68 404 58 429 58 460 C 58 493 69 520 93 541 C 117 562 151 576 195 583 L 270 593 L 270 614 C 270 635 263 651 249 661 C 235 671 216 676 190 676 C 169 676 149 673 130 668 C 111 662 93 654 75 644 L 75 707 C 95 715 117 722 139 727 C 161 732 183 735 206 735 C 247 735 280 724 305 703 C 329 682 342 652 342 613 L 342 366 L 275 366 L 270 413 C 259 395 245 381 227 371 C 209 361 190 357 169 357 Z M 193 415 C 210 415 225 419 239 429 C 253 438 263 450 270 465 L 270 544 L 206 535 C 182 532 164 525 151 514 C 138 502 132 488 132 470 C 132 453 137 440 148 430 C 159 420 174 415 193 415 Z M 63 233 L 63 299 L 338 299 L 338 233 L 63 233 Z" unicode="ª" />
<glyph horiz-adv-x="521" d="M 195 67 L 40 226 L 195 386 L 293 386 L 138 226 L 293 67 L 195 67 Z M 383 67 L 228 226 L 383 386 L 481 386 L 326 226 L 481 67 L 383 67 Z" unicode="«" />
<glyph horiz-adv-x="446" d="M 326 156 L 326 257 L 45 257 L 45 329 L 393 329 L 393 156 L 326 156 Z" unicode="¬" />
<glyph horiz-adv-x="358" d="M 45 200 L 45 272 L 317 272 L 317 200 L 45 200 Z" unicode="­" />
<glyph horiz-adv-x="684" d="M 342 107 C 256 107 186 136 130 195 C 74 253 46 322 46 402 C 46 482 74 552 130 611 C 186 669 256 699 342 699 C 425 699 495 669 552 611 C 609 552 638 483 638 403 C 638 323 609 253 552 195 C 495 136 425 107 342 107 Z M 342 156 C 406 156 463 179 513 226 C 563 273 588 332 588 402 C 588 473 563 532 513 579 C 463 626 406 650 342 650 C 274 650 216 626 168 579 C 120 532 96 473 96 403 C 96 332 120 273 168 226 C 216 179 274 156 342 156 Z M 241 233 L 241 576 L 338 576 C 370 576 397 568 417 552 C 437 536 447 514 447 488 C 447 466 440 448 427 432 C 414 416 396 405 372 401 C 384 397 395 391 405 383 C 414 374 421 364 427 352 L 483 233 L 424 233 L 376 335 C 369 350 361 361 351 368 C 341 375 329 379 316 379 L 295 379 L 295 233 L 241 233 Z M 295 425 L 336 425 C 353 425 367 429 377 439 C 387 448 393 461 393 478 C 393 494 387 506 377 515 C 367 524 353 529 336 529 L 295 529 L 295 425 Z" unicode="®" />
<glyph horiz-adv-x="380" d="M 79 532 L 79 598 L 306 598 L 306 532 L 79 532 Z" unicode="¯" />
<glyph horiz-adv-x="349" d="M 175 473 C 137 473 106 485 83 511 C 60 536 49 566 49 601 C 49 635 60 665 83 691 C 106 716 137 729 175 729 C 213 729 243 716 266 691 C 289 665 301 635 301 601 C 301 566 289 536 266 511 C 243 485 213 473 175 473 Z M 175 529 C 193 529 209 535 223 549 C 237 562 244 579 244 601 C 244 622 237 639 223 653 C 209 666 193 673 175 673 C 156 673 140 666 126 653 C 112 639 106 622 106 601 C 106 579 112 562 126 549 C 140 535 156 529 175 529 Z" unicode="°" />
<glyph horiz-adv-x="514" d="M 220 76 L 220 255 L 49 255 L 49 326 L 220 326 L 220 505 L 294 505 L 294 326 L 465 326 L 465 255 L 294 255 L 294 76 L 220 76 Z M 44 -72 L 44 0 L 460 0 L 460 -72 L 44 -72 Z" unicode="±" />
<glyph horiz-adv-x="310" d="M 31 440 L 31 520 C 89 551 132 579 162 604 C 191 629 206 655 206 682 C 206 702 199 717 185 729 C 171 740 153 746 131 746 C 115 746 98 743 82 738 C 66 732 50 724 36 714 L 36 784 C 52 792 70 798 88 802 C 106 806 125 808 147 808 C 187 808 218 797 242 777 C 266 756 278 729 278 695 C 278 656 262 621 230 591 C 198 560 150 531 88 503 L 280 503 L 280 440 L 31 440 Z" unicode="²" />
<glyph horiz-adv-x="308" d="M 149 432 C 128 432 108 434 89 439 C 69 443 50 451 31 462 L 31 530 C 47 517 64 508 82 502 C 99 496 118 493 138 493 C 158 493 175 497 187 506 C 199 515 205 527 205 542 C 205 558 198 570 184 580 C 170 589 148 594 120 594 L 99 594 L 99 653 L 117 653 C 143 653 163 657 177 666 C 191 674 198 687 198 704 C 198 717 192 727 181 735 C 170 743 155 747 136 747 C 119 747 103 744 88 740 C 73 735 59 727 45 717 L 45 783 C 61 791 78 797 96 801 C 113 805 131 808 150 808 C 186 808 215 799 237 783 C 259 766 270 743 270 715 C 270 693 263 674 250 658 C 237 642 218 630 194 624 C 220 619 241 609 255 593 C 269 577 277 558 277 536 C 277 505 265 480 243 461 C 220 441 189 432 149 432 Z" unicode="³" />
<glyph horiz-adv-x="242" d="M 117 524 L 35 524 L 133 661 L 226 661 L 117 524 Z" unicode="´" />
<glyph horiz-adv-x="445" d="M 132 0 L 132 455 C 99 455 73 464 54 482 C 35 500 26 525 26 556 C 26 586 36 611 57 630 C 78 648 106 658 141 658 L 374 658 L 374 0 L 298 0 L 298 586 L 209 586 L 209 0 L 132 0 Z" unicode="¶" />
<glyph horiz-adv-x="186" d="M 50 188 L 50 272 L 135 272 L 135 188 L 50 188 Z" unicode="·" />
<glyph horiz-adv-x="229" d="M 127 -212 C 116 -212 105 -210 94 -208 C 82 -205 72 -201 62 -197 L 62 -146 C 70 -151 79 -155 89 -158 C 99 -161 108 -163 117 -163 C 127 -163 136 -159 142 -153 C 148 -147 152 -138 152 -128 C 152 -117 148 -108 141 -102 C 133 -95 124 -92 112 -92 L 104 -92 L 104 -44 L 113 -44 C 143 -44 167 -51 185 -67 C 203 -82 213 -102 213 -128 C 213 -153 205 -173 189 -189 C 173 -204 153 -212 127 -212 Z" unicode="¸" />
<glyph horiz-adv-x="296" d="M 40 440 L 40 500 L 119 500 L 119 739 L 31 726 L 31 787 L 189 812 L 189 500 L 270 500 L 270 440 L 40 440 Z" unicode="¹" />
<glyph horiz-adv-x="485" d="M 243 358 C 187 358 142 375 108 409 C 74 443 57 489 57 546 C 57 604 74 650 108 684 C 142 718 187 736 243 736 C 299 736 343 718 377 684 C 410 650 427 604 427 547 C 427 489 410 443 377 409 C 343 375 299 358 243 358 Z M 243 423 C 275 423 302 434 322 456 C 342 478 353 508 353 546 C 353 584 342 614 322 637 C 302 659 275 671 243 671 C 209 671 181 659 161 637 C 141 615 131 585 131 547 C 131 509 141 478 161 456 C 181 434 209 423 243 423 Z M 68 233 L 68 299 L 420 299 L 420 233 L 68 233 Z" unicode="º" />
<glyph horiz-adv-x="521" d="M 40 67 L 194 226 L 40 386 L 138 386 L 293 226 L 138 67 L 40 67 Z M 228 67 L 382 226 L 228 386 L 326 386 L 481 226 L 326 67 L 228 67 Z" unicode="»" />
<glyph horiz-adv-x="714" d="M 187 0 L 472 720 L 541 720 L 257 0 L 187 0 Z M 568 0 L 568 84 L 401 84 L 401 132 L 541 363 L 635 363 L 635 142 L 688 142 L 688 84 L 635 84 L 635 0 L 568 0 Z M 568 142 L 568 303 L 470 142 L 568 142 Z" unicode="¼" />
<glyph horiz-adv-x="723" d="M 187 0 L 472 720 L 541 720 L 257 0 L 187 0 Z M 443 0 L 443 80 C 501 111 544 139 574 164 C 603 189 618 215 618 242 C 618 262 611 277 597 289 C 583 300 565 306 543 306 C 527 306 510 303 494 298 C 478 292 462 284 448 274 L 448 344 C 464 352 482 358 500 362 C 518 366 537 368 559 368 C 599 368 630 357 654 337 C 678 316 690 289 690 255 C 690 216 674 181 642 151 C 610 120 562 91 500 63 L 692 63 L 692 0 L 443 0 Z" unicode="½" />
<glyph horiz-adv-x="714" d="M 149 352 C 128 352 108 354 89 359 C 69 363 50 371 31 382 L 31 450 C 47 437 64 428 82 422 C 99 416 118 413 138 413 C 158 413 175 417 187 426 C 199 435 205 447 205 462 C 205 478 198 490 184 500 C 170 509 148 514 120 514 L 99 514 L 99 573 L 117 573 C 143 573 163 577 177 586 C 191 594 198 607 198 624 C 198 637 192 647 181 655 C 170 663 155 667 136 667 C 119 667 103 664 88 660 C 73 655 59 647 45 637 L 45 703 C 61 711 78 717 96 721 C 113 725 131 728 150 728 C 186 728 215 719 237 703 C 259 686 270 663 270 635 C 270 613 263 594 250 578 C 237 562 218 550 194 544 C 220 539 241 529 255 513 C 269 497 277 478 277 456 C 277 425 265 400 243 381 C 220 361 189 352 149 352 Z M 175 0 L 460 720 L 529 720 L 245 0 L 175 0 Z M 568 0 L 568 84 L 401 84 L 401 132 L 541 363 L 635 363 L 635 142 L 688 142 L 688 84 L 635 84 L 635 0 L 568 0 Z M 568 142 L 568 303 L 470 142 L 568 142 Z" unicode="¾" />
<glyph horiz-adv-x="457" d="M 206 429 L 206 512 L 289 512 L 289 429 L 206 429 Z M 255 -210 C 186 -210 133 -191 96 -155 C 58 -119 40 -74 40 -21 C 40 13 46 44 60 74 C 74 103 97 133 130 164 C 156 188 176 213 189 238 C 202 262 209 291 209 324 L 287 324 C 287 285 280 250 266 220 C 252 189 228 157 194 125 C 169 102 151 79 140 57 C 129 35 124 11 124 -14 C 124 -50 137 -79 163 -102 C 189 -124 224 -136 268 -136 C 296 -136 323 -130 349 -120 C 375 -110 399 -96 419 -79 L 419 -164 C 395 -178 369 -190 341 -198 C 312 -206 283 -210 255 -210 Z" unicode="¿" />
<glyph horiz-adv-x="642" d="M 292 715 L 189 845 L 274 845 L 368 715 L 292 715 Z M 20 0 L 281 664 L 361 664 L 623 0 L 532 0 L 456 197 L 181 197 L 105 0 L 20 0 Z M 208 271 L 428 271 L 344 488 L 318 561 L 292 488 L 208 271 Z" unicode="À" />
<glyph horiz-adv-x="642" d="M 350 715 L 275 715 L 369 845 L 454 845 L 350 715 Z M 20 0 L 281 664 L 361 664 L 623 0 L 532 0 L 456 197 L 181 197 L 105 0 L 20 0 Z M 208 271 L 428 271 L 344 488 L 318 561 L 292 488 L 208 271 Z" unicode="Á" />
<glyph horiz-adv-x="642" d="M 262 715 L 195 715 L 290 842 L 352 842 L 447 715 L 380 715 L 321 789 L 262 715 Z M 20 0 L 281 664 L 361 664 L 623 0 L 532 0 L 456 197 L 181 197 L 105 0 L 20 0 Z M 208 271 L 428 271 L 344 488 L 318 561 L 292 488 L 208 271 Z" unicode="Â" />
<glyph horiz-adv-x="642" d="M 226 715 L 178 715 C 180 747 188 772 203 790 C 218 808 238 817 262 817 C 272 817 283 814 294 810 C 304 806 316 799 330 789 C 338 782 346 776 354 772 C 361 768 369 766 377 766 C 387 766 395 769 402 777 C 409 785 413 796 415 811 L 463 811 C 461 777 452 752 436 735 C 420 717 401 709 379 709 C 366 709 354 711 344 716 C 334 720 323 727 311 737 C 302 744 294 750 286 754 C 278 758 271 760 264 760 C 253 760 244 756 237 748 C 230 740 226 729 226 715 Z M 20 0 L 281 664 L 361 664 L 623 0 L 532 0 L 456 197 L 181 197 L 105 0 L 20 0 Z M 208 271 L 428 271 L 344 488 L 318 561 L 292 488 L 208 271 Z" unicode="Ã" />
<glyph horiz-adv-x="642" d="M 207 715 L 207 791 L 282 791 L 282 715 L 207 715 Z M 358 715 L 358 791 L 433 791 L 433 715 L 358 715 Z M 20 0 L 281 664 L 361 664 L 623 0 L 532 0 L 456 197 L 181 197 L 105 0 L 20 0 Z M 208 271 L 428 271 L 344 488 L 318 561 L 292 488 L 208 271 Z" unicode="Ä" />
<glyph horiz-adv-x="642" d="M 20 0 L 270 636 C 259 644 251 654 245 666 C 239 678 237 691 237 705 C 237 728 244 748 260 765 C 275 782 296 791 322 791 C 348 791 368 782 384 765 C 399 748 407 728 407 705 C 407 690 403 676 397 664 C 391 652 382 642 372 635 L 623 0 L 532 0 L 456 197 L 181 197 L 105 0 L 20 0 Z M 322 664 C 332 664 341 667 349 675 C 357 682 361 692 361 705 C 361 717 357 727 349 735 C 341 743 332 747 322 747 C 311 747 302 743 294 735 C 286 727 283 717 283 705 C 283 692 286 682 294 675 C 302 667 311 664 322 664 Z M 208 271 L 428 271 L 344 488 L 318 561 L 292 488 L 208 271 Z" unicode="Å" />
<glyph horiz-adv-x="839" d="M 9 0 L 186 317 L 295 362 L 376 507 L 409 573 L 409 599 L 422 599 L 409 573 L 409 410 L 487 442 L 484 415 L 450 403 L 477 403 L 483 409 L 484 415 L 492 418 L 483 409 L 480 378 L 476 378 L 476 192 L 493 192 L 493 229 L 767 229 L 767 192 L 773 192 L 773 144 L 493 144 L 493 180 L 426 180 L 426 394 L 409 388 L 409 281 L 249 281 L 284 344 L 277 341 L 9 0 Z" unicode="Æ" />
<glyph horiz-adv-x="659" d="M 400 -14 C 294 -14 208 17 144 79 C 80 141 48 224 48 329 C 48 431 79 514 143 577 C 207 640 292 672 400 672 C 438 672 473 668 506 660 C 539 652 572 639 604 623 L 604 538 C 572 557 540 571 507 580 C 473 589 438 594 400 594 C 319 594 254 569 206 521 C 158 473 134 409 134 329 C 134 247 158 183 207 135 C 256 87 320 64 400 64 C 440 64 477 69 511 80 C 545 90 578 106 611 128 L 611 42 C 578 22 544 8 510 0 C 475 -9 438 -14 400 -14 Z M 403 -206 C 392 -206 381 -204 371 -202 C 360 -200 350 -196 341 -192 L 341 -144 C 349 -149 357 -153 366 -156 C 375 -159 384 -161 393 -161 C 403 -161 412 -157 418 -151 C 424 -145 428 -137 428 -127 C 428 -116 424 -108 417 -102 C 409 -96 400 -93 389 -93 L 382 -93 L 382 -48 L 389 -48 C 417 -48 440 -55 458 -69 C 475 -83 484 -103 484 -127 C 484 -151 476 -170 462 -184 C 447 -198 427 -206 403 -206 Z" unicode="Ç" />
<glyph horiz-adv-x="503" d="M 233 715 L 130 845 L 215 845 L 309 715 L 233 715 Z M 73 0 L 73 658 L 435 658 L 435 579 L 157 579 L 157 373 L 423 373 L 423 294 L 157 294 L 157 79 L 445 79 L 445 0 L 73 0 Z" unicode="È" />
<glyph horiz-adv-x="503" d="M 291 715 L 216 715 L 310 845 L 395 845 L 291 715 Z M 73 0 L 73 658 L 435 658 L 435 579 L 157 579 L 157 373 L 423 373 L 423 294 L 157 294 L 157 79 L 445 79 L 445 0 L 73 0 Z" unicode="É" />
<glyph horiz-adv-x="503" d="M 203 715 L 136 715 L 231 842 L 293 842 L 388 715 L 321 715 L 262 789 L 203 715 Z M 73 0 L 73 658 L 435 658 L 435 579 L 157 579 L 157 373 L 423 373 L 423 294 L 157 294 L 157 79 L 445 79 L 445 0 L 73 0 Z" unicode="Ê" />
<glyph horiz-adv-x="503" d="M 148 715 L 148 791 L 223 791 L 223 715 L 148 715 Z M 299 715 L 299 791 L 374 791 L 374 715 L 299 715 Z M 73 0 L 73 658 L 435 658 L 435 579 L 157 579 L 157 373 L 423 373 L 423 294 L 157 294 L 157 79 L 445 79 L 445 0 L 73 0 Z" unicode="Ë" />
<glyph horiz-adv-x="230" d="M 87 715 L -16 845 L 69 845 L 163 715 L 87 715 Z M 73 0 L 73 658 L 157 658 L 157 0 L 73 0 Z" unicode="Ì" />
<glyph horiz-adv-x="230" d="M 145 715 L 70 715 L 164 845 L 249 845 L 145 715 Z M 73 0 L 73 658 L 157 658 L 157 0 L 73 0 Z" unicode="Í" />
<glyph horiz-adv-x="230" d="M 57 715 L -10 715 L 85 842 L 147 842 L 242 715 L 175 715 L 116 789 L 57 715 Z M 73 0 L 73 658 L 157 658 L 157 0 L 73 0 Z" unicode="Î" />
<glyph horiz-adv-x="230" d="M 2 715 L 2 791 L 77 791 L 77 715 L 2 715 Z M 153 715 L 153 791 L 228 791 L 228 715 L 153 715 Z M 73 0 L 73 658 L 157 658 L 157 0 L 73 0 Z" unicode="Ï" />
<glyph horiz-adv-x="694" d="M 78 0 L 78 293 L 25 293 L 25 366 L 78 366 L 78 658 L 281 658 C 390 658 477 628 543 570 C 608 512 641 434 641 337 C 641 235 607 153 541 92 C 474 30 385 0 273 0 L 78 0 Z M 162 79 L 277 79 C 362 79 430 102 481 149 C 531 195 557 258 557 337 C 557 410 532 469 483 513 C 434 557 368 579 285 579 L 162 579 L 162 366 L 284 366 L 284 293 L 162 293 L 162 79 Z" unicode="Ð" />
<glyph horiz-adv-x="709" d="M 261 715 L 213 715 C 215 747 223 772 238 790 C 253 808 273 817 297 817 C 307 817 318 814 329 810 C 339 806 351 799 365 789 C 373 782 381 776 389 772 C 396 768 404 766 412 766 C 422 766 430 769 437 777 C 444 785 448 796 450 811 L 498 811 C 496 777 487 752 471 735 C 455 717 436 709 414 709 C 401 709 389 711 379 716 C 369 720 358 727 346 737 C 337 744 329 750 321 754 C 313 758 306 760 299 760 C 288 760 279 756 272 748 C 265 740 261 729 261 715 Z M 73 0 L 73 658 L 163 658 L 518 179 L 558 121 L 557 178 L 557 658 L 636 658 L 636 0 L 547 0 L 190 482 L 151 538 L 152 483 L 152 0 L 73 0 Z" unicode="Ñ" />
<glyph horiz-adv-x="775" d="M 360 723 L 257 853 L 342 853 L 436 723 L 360 723 Z M 388 -15 C 287 -15 205 17 142 81 C 79 145 48 227 48 329 C 48 431 79 513 143 577 C 207 641 288 673 388 673 C 486 673 567 641 631 578 C 695 515 727 432 727 329 C 727 226 695 143 633 80 C 570 16 488 -15 388 -15 Z M 388 63 C 462 63 523 87 570 136 C 617 185 641 249 641 329 C 641 408 617 472 570 521 C 523 570 462 595 388 595 C 313 595 252 570 205 521 C 157 472 134 408 134 329 C 134 249 157 185 205 136 C 252 87 313 63 388 63 Z" unicode="Ò" />
<glyph horiz-adv-x="775" d="M 418 723 L 343 723 L 437 853 L 522 853 L 418 723 Z M 388 -15 C 287 -15 205 17 142 81 C 79 145 48 227 48 329 C 48 431 79 513 143 577 C 207 641 288 673 388 673 C 486 673 567 641 631 578 C 695 515 727 432 727 329 C 727 226 695 143 633 80 C 570 16 488 -15 388 -15 Z M 388 63 C 462 63 523 87 570 136 C 617 185 641 249 641 329 C 641 408 617 472 570 521 C 523 570 462 595 388 595 C 313 595 252 570 205 521 C 157 472 134 408 134 329 C 134 249 157 185 205 136 C 252 87 313 63 388 63 Z" unicode="Ó" />
<glyph horiz-adv-x="775" d="M 330 723 L 263 723 L 358 850 L 420 850 L 515 723 L 448 723 L 389 797 L 330 723 Z M 388 -15 C 287 -15 205 17 142 81 C 79 145 48 227 48 329 C 48 431 79 513 143 577 C 207 641 288 673 388 673 C 486 673 567 641 631 578 C 695 515 727 432 727 329 C 727 226 695 143 633 80 C 570 16 488 -15 388 -15 Z M 388 63 C 462 63 523 87 570 136 C 617 185 641 249 641 329 C 641 408 617 472 570 521 C 523 570 462 595 388 595 C 313 595 252 570 205 521 C 157 472 134 408 134 329 C 134 249 157 185 205 136 C 252 87 313 63 388 63 Z" unicode="Ô" />
<glyph horiz-adv-x="775" d="M 294 723 L 246 723 C 248 755 256 780 271 798 C 286 816 306 825 330 825 C 340 825 351 822 362 818 C 372 814 384 807 398 797 C 406 790 414 784 422 780 C 429 776 437 774 445 774 C 455 774 463 777 470 785 C 477 793 481 804 483 819 L 531 819 C 529 785 520 760 504 743 C 488 725 469 717 447 717 C 434 717 422 719 412 724 C 402 728 391 735 379 745 C 370 752 362 758 354 762 C 346 766 339 768 332 768 C 321 768 312 764 305 756 C 298 748 294 737 294 723 Z M 388 -15 C 287 -15 205 17 142 81 C 79 145 48 227 48 329 C 48 431 79 513 143 577 C 207 641 288 673 388 673 C 486 673 567 641 631 578 C 695 515 727 432 727 329 C 727 226 695 143 633 80 C 570 16 488 -15 388 -15 Z M 388 63 C 462 63 523 87 570 136 C 617 185 641 249 641 329 C 641 408 617 472 570 521 C 523 570 462 595 388 595 C 313 595 252 570 205 521 C 157 472 134 408 134 329 C 134 249 157 185 205 136 C 252 87 313 63 388 63 Z" unicode="Õ" />
<glyph horiz-adv-x="775" d="M 275 723 L 275 799 L 350 799 L 350 723 L 275 723 Z M 426 723 L 426 799 L 501 799 L 501 723 L 426 723 Z M 388 -15 C 287 -15 205 17 142 81 C 79 145 48 227 48 329 C 48 431 79 513 143 577 C 207 641 288 673 388 673 C 486 673 567 641 631 578 C 695 515 727 432 727 329 C 727 226 695 143 633 80 C 570 16 488 -15 388 -15 Z M 388 63 C 462 63 523 87 570 136 C 617 185 641 249 641 329 C 641 408 617 472 570 521 C 523 570 462 595 388 595 C 313 595 252 570 205 521 C 157 472 134 408 134 329 C 134 249 157 185 205 136 C 252 87 313 63 388 63 Z" unicode="Ö" />
<glyph horiz-adv-x="509" d="M 115 93 L 62 147 L 201 285 L 60 427 L 113 480 L 254 339 L 394 478 L 447 425 L 308 286 L 449 144 L 396 91 L 254 232 L 115 93 Z" unicode="×" />
<glyph horiz-adv-x="775" d="M 116 -48 L 176 50 C 136 80 104 119 82 167 C 59 215 48 269 48 329 C 48 431 79 513 143 577 C 207 641 288 673 388 673 C 416 673 442 670 468 665 C 493 659 517 652 540 642 L 579 706 L 661 706 L 600 607 C 639 577 670 538 693 490 C 715 442 727 389 727 329 C 727 226 695 143 633 80 C 570 16 488 -15 388 -15 C 360 -15 333 -12 308 -7 C 282 -1 259 5 237 15 L 198 -48 L 116 -48 Z M 134 329 C 134 285 141 245 157 209 C 172 173 193 144 220 121 L 497 573 C 481 579 463 585 445 589 C 427 593 408 595 388 595 C 313 595 252 570 205 521 C 157 472 134 408 134 329 Z M 388 63 C 462 63 523 87 570 136 C 617 185 641 249 641 329 C 641 373 633 412 618 448 C 603 483 582 512 556 536 L 279 84 C 295 77 313 72 331 68 C 349 64 368 63 388 63 Z" unicode="Ø" />
<glyph horiz-adv-x="664" d="M 307 715 L 204 845 L 289 845 L 383 715 L 307 715 Z M 333 -12 C 251 -12 186 12 138 62 C 90 112 66 178 66 260 L 66 658 L 150 658 L 150 260 C 150 202 166 155 200 120 C 234 85 278 68 333 68 C 389 68 433 85 467 120 C 500 155 517 202 517 260 L 517 658 L 598 658 L 598 260 C 598 178 573 112 525 62 C 477 12 413 -12 333 -12 Z" unicode="Ù" />
<glyph horiz-adv-x="664" d="M 365 715 L 290 715 L 384 845 L 469 845 L 365 715 Z M 333 -12 C 251 -12 186 12 138 62 C 90 112 66 178 66 260 L 66 658 L 150 658 L 150 260 C 150 202 166 155 200 120 C 234 85 278 68 333 68 C 389 68 433 85 467 120 C 500 155 517 202 517 260 L 517 658 L 598 658 L 598 260 C 598 178 573 112 525 62 C 477 12 413 -12 333 -12 Z" unicode="Ú" />
<glyph horiz-adv-x="664" d="M 277 715 L 210 715 L 305 842 L 367 842 L 462 715 L 395 715 L 336 789 L 277 715 Z M 333 -12 C 251 -12 186 12 138 62 C 90 112 66 178 66 260 L 66 658 L 150 658 L 150 260 C 150 202 166 155 200 120 C 234 85 278 68 333 68 C 389 68 433 85 467 120 C 500 155 517 202 517 260 L 517 658 L 598 658 L 598 260 C 598 178 573 112 525 62 C 477 12 413 -12 333 -12 Z" unicode="Û" />
<glyph horiz-adv-x="664" d="M 222 715 L 222 791 L 297 791 L 297 715 L 222 715 Z M 373 715 L 373 791 L 448 791 L 448 715 L 373 715 Z M 333 -12 C 251 -12 186 12 138 62 C 90 112 66 178 66 260 L 66 658 L 150 658 L 150 260 C 150 202 166 155 200 120 C 234 85 278 68 333 68 C 389 68 433 85 467 120 C 500 155 517 202 517 260 L 517 658 L 598 658 L 598 260 C 598 178 573 112 525 62 C 477 12 413 -12 333 -12 Z" unicode="Ü" />
<glyph horiz-adv-x="590" d="M 325 715 L 250 715 L 344 845 L 429 845 L 325 715 Z M 253 0 L 253 281 L 13 658 L 111 658 L 266 414 L 298 358 L 331 414 L 485 658 L 577 658 L 337 280 L 337 0 L 253 0 Z" unicode="Ý" />
<glyph horiz-adv-x="494" d="M 73 0 L 73 658 L 157 658 L 157 543 L 216 543 C 286 543 343 524 386 486 C 428 448 450 398 450 334 C 450 270 428 219 386 181 C 343 143 286 125 216 125 L 157 125 L 157 0 L 73 0 Z M 157 202 L 217 202 C 261 202 296 214 323 238 C 350 262 364 294 364 334 C 364 374 350 406 323 430 C 295 454 260 466 216 466 L 157 466 L 157 202 Z" unicode="Þ" />
<glyph horiz-adv-x="560" d="M 64 0 L 64 492 C 64 569 84 628 125 669 C 165 710 218 731 284 731 C 349 731 402 710 444 669 C 486 628 507 571 507 498 C 507 480 505 460 503 440 C 501 419 498 400 496 384 C 484 388 467 393 445 399 C 423 405 402 408 382 408 C 355 408 335 402 321 392 C 307 382 300 367 300 349 C 300 332 306 318 319 307 C 331 295 351 286 377 279 L 388 275 C 431 262 464 244 486 220 C 508 196 520 167 520 131 C 520 87 505 52 477 27 C 449 2 412 -10 366 -10 C 342 -10 318 -7 295 -2 C 271 3 248 11 224 21 L 224 97 C 245 83 267 73 290 67 C 312 61 336 58 360 58 C 384 58 404 63 419 75 C 433 86 441 102 441 122 C 441 140 434 156 420 169 C 406 181 384 192 356 200 L 345 204 C 304 216 273 233 252 256 C 231 278 221 308 221 344 C 221 383 233 415 259 439 C 284 463 318 475 360 475 C 372 475 384 474 395 473 C 405 471 417 469 430 466 C 437 522 428 568 404 605 C 380 641 340 660 286 660 C 244 660 210 645 184 615 C 158 585 145 546 145 496 L 145 0 L 64 0 Z" unicode="ß" />
<glyph horiz-adv-x="459" d="M 196 524 L 87 661 L 179 661 L 278 524 L 196 524 Z M 183 -10 C 139 -10 105 2 79 26 C 53 50 40 83 40 124 C 40 166 55 200 85 227 C 115 254 159 272 217 281 L 316 294 L 316 321 C 316 349 306 370 288 384 C 270 397 244 404 211 404 C 184 404 158 400 133 392 C 108 384 84 373 61 359 L 61 440 C 87 451 113 460 141 468 C 168 475 195 479 221 479 C 277 479 321 465 352 438 C 382 411 398 373 398 323 L 398 0 L 323 0 L 316 63 C 302 39 283 21 260 9 C 237 -3 211 -10 183 -10 Z M 206 57 C 231 57 253 63 273 77 C 293 90 307 107 316 128 L 316 235 L 227 223 C 193 218 166 208 148 192 C 130 176 121 156 121 132 C 121 109 128 91 143 77 C 158 63 179 57 206 57 Z" unicode="à" />
<glyph horiz-adv-x="459" d="M 253 524 L 171 524 L 269 661 L 362 661 L 253 524 Z M 183 -10 C 139 -10 105 2 79 26 C 53 50 40 83 40 124 C 40 166 55 200 85 227 C 115 254 159 272 217 281 L 316 294 L 316 321 C 316 349 306 370 288 384 C 270 397 244 404 211 404 C 184 404 158 400 133 392 C 108 384 84 373 61 359 L 61 440 C 87 451 113 460 141 468 C 168 475 195 479 221 479 C 277 479 321 465 352 438 C 382 411 398 373 398 323 L 398 0 L 323 0 L 316 63 C 302 39 283 21 260 9 C 237 -3 211 -10 183 -10 Z M 206 57 C 231 57 253 63 273 77 C 293 90 307 107 316 128 L 316 235 L 227 223 C 193 218 166 208 148 192 C 130 176 121 156 121 132 C 121 109 128 91 143 77 C 158 63 179 57 206 57 Z" unicode="á" />
<glyph horiz-adv-x="459" d="M 163 524 L 91 524 L 190 658 L 258 658 L 357 524 L 285 524 L 224 601 L 163 524 Z M 183 -10 C 139 -10 105 2 79 26 C 53 50 40 83 40 124 C 40 166 55 200 85 227 C 115 254 159 272 217 281 L 316 294 L 316 321 C 316 349 306 370 288 384 C 270 397 244 404 211 404 C 184 404 158 400 133 392 C 108 384 84 373 61 359 L 61 440 C 87 451 113 460 141 468 C 168 475 195 479 221 479 C 277 479 321 465 352 438 C 382 411 398 373 398 323 L 398 0 L 323 0 L 316 63 C 302 39 283 21 260 9 C 237 -3 211 -10 183 -10 Z M 206 57 C 231 57 253 63 273 77 C 293 90 307 107 316 128 L 316 235 L 227 223 C 193 218 166 208 148 192 C 130 176 121 156 121 132 C 121 109 128 91 143 77 C 158 63 179 57 206 57 Z" unicode="â" />
<glyph horiz-adv-x="459" d="M 126 524 L 74 524 C 75 558 84 585 100 604 C 116 623 137 633 162 633 C 174 633 185 630 196 626 C 206 621 219 613 233 603 C 243 596 251 590 259 586 C 266 582 274 580 283 580 C 293 580 302 584 309 592 C 316 600 320 611 322 626 L 374 626 C 372 590 362 563 346 545 C 330 526 309 517 285 517 C 272 517 260 519 249 524 C 238 529 226 537 214 547 C 204 554 196 560 188 564 C 180 568 172 570 165 570 C 154 570 145 566 138 558 C 130 550 126 538 126 524 Z M 183 -10 C 139 -10 105 2 79 26 C 53 50 40 83 40 124 C 40 166 55 200 85 227 C 115 254 159 272 217 281 L 316 294 L 316 321 C 316 349 306 370 288 384 C 270 397 244 404 211 404 C 184 404 158 400 133 392 C 108 384 84 373 61 359 L 61 440 C 87 451 113 460 141 468 C 168 475 195 479 221 479 C 277 479 321 465 352 438 C 382 411 398 373 398 323 L 398 0 L 323 0 L 316 63 C 302 39 283 21 260 9 C 237 -3 211 -10 183 -10 Z M 206 57 C 231 57 253 63 273 77 C 293 90 307 107 316 128 L 316 235 L 227 223 C 193 218 166 208 148 192 C 130 176 121 156 121 132 C 121 109 128 91 143 77 C 158 63 179 57 206 57 Z" unicode="ã" />
<glyph horiz-adv-x="459" d="M 103 533 L 103 614 L 184 614 L 184 533 L 103 533 Z M 263 533 L 263 614 L 344 614 L 344 533 L 263 533 Z M 183 -10 C 139 -10 105 2 79 26 C 53 50 40 83 40 124 C 40 166 55 200 85 227 C 115 254 159 272 217 281 L 316 294 L 316 321 C 316 349 306 370 288 384 C 270 397 244 404 211 404 C 184 404 158 400 133 392 C 108 384 84 373 61 359 L 61 440 C 87 451 113 460 141 468 C 168 475 195 479 221 479 C 277 479 321 465 352 438 C 382 411 398 373 398 323 L 398 0 L 323 0 L 316 63 C 302 39 283 21 260 9 C 237 -3 211 -10 183 -10 Z M 206 57 C 231 57 253 63 273 77 C 293 90 307 107 316 128 L 316 235 L 227 223 C 193 218 166 208 148 192 C 130 176 121 156 121 132 C 121 109 128 91 143 77 C 158 63 179 57 206 57 Z" unicode="ä" />
<glyph horiz-adv-x="459" d="M 183 -10 C 139 -10 105 2 79 26 C 53 50 40 83 40 124 C 40 166 55 200 85 227 C 115 254 159 272 217 281 L 316 294 L 316 321 C 316 349 306 370 288 384 C 270 397 244 404 211 404 C 184 404 158 400 133 392 C 108 384 84 373 61 359 L 61 440 C 78 447 96 454 114 460 C 132 466 150 471 168 474 C 157 482 149 492 143 505 C 137 517 135 531 135 546 C 135 570 143 592 159 610 C 175 628 197 637 225 637 C 253 637 275 628 291 610 C 307 592 316 570 316 546 C 316 531 312 517 306 504 C 300 491 291 481 281 473 C 319 464 348 447 368 422 C 388 396 398 363 398 323 L 398 0 L 323 0 L 316 63 C 302 39 283 21 260 9 C 237 -3 211 -10 183 -10 Z M 225 504 C 236 504 246 507 254 515 C 262 523 267 533 267 546 C 267 558 262 569 254 577 C 246 585 236 590 225 590 C 214 590 204 585 196 577 C 188 569 184 558 184 546 C 184 533 188 523 196 515 C 204 507 214 504 225 504 Z M 206 57 C 231 57 253 63 273 77 C 293 90 307 107 316 128 L 316 235 L 227 223 C 193 218 166 208 148 192 C 130 176 121 156 121 132 C 121 109 128 91 143 77 C 158 63 179 57 206 57 Z" unicode="å" />
<glyph horiz-adv-x="770" d="M 192 -10 C 146 -10 109 2 82 26 C 55 50 42 83 42 123 C 42 165 57 200 87 228 C 117 255 161 273 218 282 L 316 296 L 316 322 C 316 351 306 372 287 386 C 267 400 241 407 209 407 C 182 407 156 403 131 397 C 105 390 81 379 59 365 L 59 440 C 84 451 111 460 140 466 C 168 472 196 476 224 476 C 260 476 290 469 316 456 C 342 442 360 424 371 402 C 389 426 410 444 436 457 C 462 469 491 476 524 476 C 586 476 636 455 673 415 C 709 375 728 317 728 242 L 728 212 L 399 212 C 399 166 413 129 439 102 C 465 74 503 61 553 61 C 579 61 607 65 635 75 C 663 84 690 97 716 114 L 716 38 C 688 22 659 10 629 2 C 599 -5 570 -10 543 -10 C 497 -10 458 0 427 17 C 395 35 371 61 353 93 C 337 59 315 33 288 16 C 260 -1 228 -10 192 -10 Z M 523 407 C 487 407 458 395 436 371 C 414 347 401 316 399 276 L 646 276 C 646 316 635 348 613 372 C 591 395 561 407 523 407 Z M 209 57 C 237 57 261 66 280 84 C 299 102 311 124 316 149 L 316 234 L 229 221 C 195 216 170 206 152 191 C 134 176 125 157 125 133 C 125 109 132 91 147 77 C 161 63 182 57 209 57 Z" unicode="æ" />
<glyph horiz-adv-x="465" d="M 280 -10 C 207 -10 149 11 106 55 C 62 99 41 158 41 232 C 41 307 62 366 105 410 C 148 454 206 476 278 476 C 302 476 327 473 351 467 C 375 461 399 451 422 439 L 422 355 C 399 369 376 380 353 388 C 330 396 306 400 281 400 C 233 400 194 385 166 356 C 138 327 124 286 124 233 C 124 181 138 140 168 110 C 197 80 236 66 285 66 C 309 66 333 70 357 79 C 381 88 402 100 422 116 L 422 32 C 401 18 378 8 354 1 C 329 -6 304 -10 280 -10 Z M 264 -212 C 253 -212 242 -210 231 -208 C 219 -205 209 -201 199 -197 L 199 -146 C 207 -151 216 -155 226 -158 C 236 -161 245 -163 254 -163 C 264 -163 273 -159 279 -153 C 285 -147 289 -138 289 -128 C 289 -117 285 -108 278 -102 C 270 -95 261 -92 249 -92 L 241 -92 L 241 -44 L 250 -44 C 280 -44 304 -51 322 -67 C 340 -82 350 -102 350 -128 C 350 -153 342 -173 326 -189 C 310 -204 290 -212 264 -212 Z" unicode="ç" />
<glyph horiz-adv-x="500" d="M 229 524 L 120 661 L 212 661 L 311 524 L 229 524 Z M 274 -10 C 200 -10 143 11 102 55 C 61 99 41 158 41 234 C 41 306 60 364 99 409 C 138 453 190 476 256 476 C 318 476 368 455 404 415 C 440 374 459 316 459 241 L 459 211 L 125 211 C 125 165 139 128 167 101 C 194 73 233 60 283 60 C 310 60 337 64 365 74 C 392 83 419 97 447 116 L 447 38 C 418 22 389 10 360 2 C 331 -6 302 -10 274 -10 Z M 255 408 C 218 408 188 395 164 371 C 140 346 127 314 125 274 L 377 274 C 377 315 366 348 344 372 C 322 396 293 408 255 408 Z" unicode="è" />
<glyph horiz-adv-x="500" d="M 286 524 L 204 524 L 302 661 L 395 661 L 286 524 Z M 274 -10 C 200 -10 143 11 102 55 C 61 99 41 158 41 234 C 41 306 60 364 99 409 C 138 453 190 476 256 476 C 318 476 368 455 404 415 C 440 374 459 316 459 241 L 459 211 L 125 211 C 125 165 139 128 167 101 C 194 73 233 60 283 60 C 310 60 337 64 365 74 C 392 83 419 97 447 116 L 447 38 C 418 22 389 10 360 2 C 331 -6 302 -10 274 -10 Z M 255 408 C 218 408 188 395 164 371 C 140 346 127 314 125 274 L 377 274 C 377 315 366 348 344 372 C 322 396 293 408 255 408 Z" unicode="é" />
<glyph horiz-adv-x="500" d="M 196 524 L 124 524 L 223 658 L 291 658 L 390 524 L 318 524 L 257 601 L 196 524 Z M 274 -10 C 200 -10 143 11 102 55 C 61 99 41 158 41 234 C 41 306 60 364 99 409 C 138 453 190 476 256 476 C 318 476 368 455 404 415 C 440 374 459 316 459 241 L 459 211 L 125 211 C 125 165 139 128 167 101 C 194 73 233 60 283 60 C 310 60 337 64 365 74 C 392 83 419 97 447 116 L 447 38 C 418 22 389 10 360 2 C 331 -6 302 -10 274 -10 Z M 255 408 C 218 408 188 395 164 371 C 140 346 127 314 125 274 L 377 274 C 377 315 366 348 344 372 C 322 396 293 408 255 408 Z" unicode="ê" />
<glyph horiz-adv-x="500" d="M 136 533 L 136 614 L 217 614 L 217 533 L 136 533 Z M 296 533 L 296 614 L 377 614 L 377 533 L 296 533 Z M 274 -10 C 200 -10 143 11 102 55 C 61 99 41 158 41 234 C 41 306 60 364 99 409 C 138 453 190 476 256 476 C 318 476 368 455 404 415 C 440 374 459 316 459 241 L 459 211 L 125 211 C 125 165 139 128 167 101 C 194 73 233 60 283 60 C 310 60 337 64 365 74 C 392 83 419 97 447 116 L 447 38 C 418 22 389 10 360 2 C 331 -6 302 -10 274 -10 Z M 255 408 C 218 408 188 395 164 371 C 140 346 127 314 125 274 L 377 274 C 377 315 366 348 344 372 C 322 396 293 408 255 408 Z" unicode="ë" />
<glyph horiz-adv-x="213" d="M 81 524 L -28 661 L 64 661 L 163 524 L 81 524 Z M 66 0 L 66 466 L 147 466 L 147 0 L 66 0 Z" unicode="ì" />
<glyph horiz-adv-x="213" d="M 138 524 L 56 524 L 154 661 L 247 661 L 138 524 Z M 66 0 L 66 466 L 147 466 L 147 0 L 66 0 Z" unicode="í" />
<glyph horiz-adv-x="213" d="M 48 524 L -24 524 L 75 658 L 143 658 L 242 524 L 170 524 L 109 601 L 48 524 Z M 66 0 L 66 466 L 147 466 L 147 0 L 66 0 Z" unicode="î" />
<glyph horiz-adv-x="213" d="M -12 533 L -12 614 L 69 614 L 69 533 L -12 533 Z M 148 533 L 148 614 L 229 614 L 229 533 L 148 533 Z M 66 0 L 66 466 L 147 466 L 147 0 L 66 0 Z" unicode="ï" />
<glyph horiz-adv-x="558" d="M 278 -11 C 209 -11 152 11 108 55 C 63 99 41 159 41 235 C 41 308 63 367 107 411 C 151 455 206 477 272 477 C 309 477 341 469 369 455 C 397 440 419 418 436 390 C 427 424 414 459 397 494 C 380 528 359 561 333 592 L 234 560 L 217 627 L 280 647 C 266 659 252 670 236 682 C 220 693 204 704 188 715 L 271 747 C 287 736 302 724 317 712 C 332 700 346 686 360 672 L 457 703 L 473 637 L 407 616 C 441 568 467 515 487 457 C 507 398 517 338 517 276 C 517 184 494 114 449 64 C 404 14 347 -11 278 -11 Z M 278 65 C 325 65 362 81 390 115 C 418 148 432 190 432 241 C 427 291 410 330 382 359 C 354 387 319 402 277 402 C 231 402 194 386 166 354 C 138 322 124 283 124 235 C 124 186 138 145 166 113 C 194 81 231 65 278 65 Z" unicode="ð" />
<glyph horiz-adv-x="503" d="M 157 524 L 105 524 C 106 558 115 585 131 604 C 147 623 168 633 193 633 C 205 633 216 630 227 626 C 237 621 250 613 264 603 C 274 596 282 590 290 586 C 297 582 305 580 314 580 C 324 580 333 584 340 592 C 347 600 351 611 353 626 L 405 626 C 403 590 393 563 377 545 C 361 526 340 517 316 517 C 303 517 291 519 280 524 C 269 529 257 537 245 547 C 235 554 227 560 219 564 C 211 568 203 570 196 570 C 185 570 176 566 169 558 C 161 550 157 538 157 524 Z M 63 0 L 63 466 L 145 466 L 145 403 C 161 425 182 443 206 456 C 230 469 257 476 285 476 C 335 476 374 460 402 430 C 430 399 444 357 444 304 L 444 0 L 362 0 L 362 290 C 362 326 353 354 335 373 C 317 392 293 402 262 402 C 238 402 215 395 195 383 C 175 370 158 353 145 333 L 145 0 L 63 0 Z" unicode="ñ" />
<glyph horiz-adv-x="556" d="M 251 524 L 142 661 L 234 661 L 333 524 L 251 524 Z M 278 -11 C 207 -11 150 11 106 56 C 62 100 41 159 41 232 C 41 305 62 364 106 409 C 150 454 207 477 278 477 C 348 477 404 454 448 410 C 492 365 514 306 514 233 C 514 159 492 100 448 56 C 404 11 348 -11 278 -11 Z M 278 63 C 324 63 361 78 389 110 C 417 141 431 182 431 232 C 431 282 417 323 389 355 C 361 387 324 403 278 403 C 232 403 194 387 166 356 C 138 324 124 283 124 233 C 124 182 138 141 166 110 C 194 78 232 63 278 63 Z" unicode="ò" />
<glyph horiz-adv-x="556" d="M 308 524 L 226 524 L 324 661 L 417 661 L 308 524 Z M 278 -11 C 207 -11 150 11 106 56 C 62 100 41 159 41 232 C 41 305 62 364 106 409 C 150 454 207 477 278 477 C 348 477 404 454 448 410 C 492 365 514 306 514 233 C 514 159 492 100 448 56 C 404 11 348 -11 278 -11 Z M 278 63 C 324 63 361 78 389 110 C 417 141 431 182 431 232 C 431 282 417 323 389 355 C 361 387 324 403 278 403 C 232 403 194 387 166 356 C 138 324 124 283 124 233 C 124 182 138 141 166 110 C 194 78 232 63 278 63 Z" unicode="ó" />
<glyph horiz-adv-x="556" d="M 218 524 L 146 524 L 245 658 L 313 658 L 412 524 L 340 524 L 279 601 L 218 524 Z M 278 -11 C 207 -11 150 11 106 56 C 62 100 41 159 41 232 C 41 305 62 364 106 409 C 150 454 207 477 278 477 C 348 477 404 454 448 410 C 492 365 514 306 514 233 C 514 159 492 100 448 56 C 404 11 348 -11 278 -11 Z M 278 63 C 324 63 361 78 389 110 C 417 141 431 182 431 232 C 431 282 417 323 389 355 C 361 387 324 403 278 403 C 232 403 194 387 166 356 C 138 324 124 283 124 233 C 124 182 138 141 166 110 C 194 78 232 63 278 63 Z" unicode="ô" />
<glyph horiz-adv-x="556" d="M 181 524 L 129 524 C 130 558 139 585 155 604 C 171 623 192 633 217 633 C 229 633 240 630 251 626 C 261 621 274 613 288 603 C 298 596 306 590 314 586 C 321 582 329 580 338 580 C 348 580 357 584 364 592 C 371 600 375 611 377 626 L 429 626 C 427 590 417 563 401 545 C 385 526 364 517 340 517 C 327 517 315 519 304 524 C 293 529 281 537 269 547 C 259 554 251 560 243 564 C 235 568 227 570 220 570 C 209 570 200 566 193 558 C 185 550 181 538 181 524 Z M 278 -11 C 207 -11 150 11 106 56 C 62 100 41 159 41 232 C 41 305 62 364 106 409 C 150 454 207 477 278 477 C 348 477 404 454 448 410 C 492 365 514 306 514 233 C 514 159 492 100 448 56 C 404 11 348 -11 278 -11 Z M 278 63 C 324 63 361 78 389 110 C 417 141 431 182 431 232 C 431 282 417 323 389 355 C 361 387 324 403 278 403 C 232 403 194 387 166 356 C 138 324 124 283 124 233 C 124 182 138 141 166 110 C 194 78 232 63 278 63 Z" unicode="õ" />
<glyph horiz-adv-x="556" d="M 158 533 L 158 614 L 239 614 L 239 533 L 158 533 Z M 318 533 L 318 614 L 399 614 L 399 533 L 318 533 Z M 278 -11 C 207 -11 150 11 106 56 C 62 100 41 159 41 232 C 41 305 62 364 106 409 C 150 454 207 477 278 477 C 348 477 404 454 448 410 C 492 365 514 306 514 233 C 514 159 492 100 448 56 C 404 11 348 -11 278 -11 Z M 278 63 C 324 63 361 78 389 110 C 417 141 431 182 431 232 C 431 282 417 323 389 355 C 361 387 324 403 278 403 C 232 403 194 387 166 356 C 138 324 124 283 124 233 C 124 182 138 141 166 110 C 194 78 232 63 278 63 Z" unicode="ö" />
<glyph horiz-adv-x="514" d="M 216 426 L 216 503 L 294 503 L 294 426 L 216 426 Z M 49 255 L 49 326 L 465 326 L 465 255 L 49 255 Z M 216 78 L 216 155 L 294 155 L 294 78 L 216 78 Z" unicode="÷" />
<glyph horiz-adv-x="556" d="M 71 -48 L 124 40 C 98 60 77 87 63 120 C 48 153 41 190 41 232 C 41 305 62 364 106 409 C 150 454 207 477 278 477 C 296 477 313 475 330 472 C 346 469 362 465 377 459 L 410 514 L 482 514 L 430 427 C 456 406 477 379 492 346 C 506 312 514 275 514 233 C 514 159 492 100 448 56 C 404 11 348 -11 278 -11 C 259 -11 241 -9 224 -6 C 207 -2 191 2 177 8 L 143 -48 L 71 -48 Z M 124 233 C 124 207 127 184 135 163 C 142 142 152 124 166 110 L 337 392 C 328 395 319 398 309 400 C 299 402 288 403 278 403 C 232 403 194 387 166 356 C 138 324 124 283 124 233 Z M 278 63 C 324 63 361 78 389 110 C 417 141 431 182 431 232 C 431 258 427 281 419 303 C 411 324 401 342 388 357 L 217 74 C 225 70 235 68 246 66 C 256 64 267 63 278 63 Z" unicode="ø" />
<glyph horiz-adv-x="503" d="M 224 524 L 115 661 L 207 661 L 306 524 L 224 524 Z M 218 -10 C 168 -10 129 6 102 38 C 74 70 61 112 61 164 L 61 466 L 143 466 L 143 175 C 143 140 152 113 170 93 C 188 73 212 64 243 64 C 269 64 292 70 312 84 C 332 97 347 114 358 135 L 358 466 L 440 466 L 440 0 L 365 0 L 358 63 C 341 39 321 20 298 8 C 275 -3 248 -10 218 -10 Z" unicode="ù" />
<glyph horiz-adv-x="503" d="M 281 524 L 199 524 L 297 661 L 390 661 L 281 524 Z M 218 -10 C 168 -10 129 6 102 38 C 74 70 61 112 61 164 L 61 466 L 143 466 L 143 175 C 143 140 152 113 170 93 C 188 73 212 64 243 64 C 269 64 292 70 312 84 C 332 97 347 114 358 135 L 358 466 L 440 466 L 440 0 L 365 0 L 358 63 C 341 39 321 20 298 8 C 275 -3 248 -10 218 -10 Z" unicode="ú" />
<glyph horiz-adv-x="503" d="M 191 524 L 119 524 L 218 658 L 286 658 L 385 524 L 313 524 L 252 601 L 191 524 Z M 218 -10 C 168 -10 129 6 102 38 C 74 70 61 112 61 164 L 61 466 L 143 466 L 143 175 C 143 140 152 113 170 93 C 188 73 212 64 243 64 C 269 64 292 70 312 84 C 332 97 347 114 358 135 L 358 466 L 440 466 L 440 0 L 365 0 L 358 63 C 341 39 321 20 298 8 C 275 -3 248 -10 218 -10 Z" unicode="û" />
<glyph horiz-adv-x="503" d="M 131 533 L 131 614 L 212 614 L 212 533 L 131 533 Z M 291 533 L 291 614 L 372 614 L 372 533 L 291 533 Z M 218 -10 C 168 -10 129 6 102 38 C 74 70 61 112 61 164 L 61 466 L 143 466 L 143 175 C 143 140 152 113 170 93 C 188 73 212 64 243 64 C 269 64 292 70 312 84 C 332 97 347 114 358 135 L 358 466 L 440 466 L 440 0 L 365 0 L 358 63 C 341 39 321 20 298 8 C 275 -3 248 -10 218 -10 Z" unicode="ü" />
<glyph horiz-adv-x="470" d="M 265 524 L 183 524 L 281 661 L 374 661 L 265 524 Z M 6 -215 L -2 -215 L -2 -140 L 6 -140 C 50 -140 86 -130 115 -111 C 143 -92 169 -58 192 -8 L 183 17 L 13 466 L 100 466 L 217 151 L 236 90 L 255 151 L 372 466 L 455 466 L 286 22 C 252 -68 214 -130 172 -164 C 130 -198 74 -215 6 -215 Z" unicode="ý" />
<glyph horiz-adv-x="516" d="M 63 -215 L 63 720 L 145 720 L 145 416 C 160 436 179 451 203 461 C 226 471 251 476 278 476 C 336 476 384 454 420 411 C 456 367 474 311 474 241 C 474 163 453 102 412 57 C 370 12 316 -10 250 -10 C 232 -10 214 -7 196 -3 C 178 1 161 8 145 16 L 145 -215 L 63 -215 Z M 244 61 C 288 61 323 76 351 107 C 378 138 392 181 392 235 C 392 285 379 326 354 356 C 328 386 295 402 254 402 C 232 402 212 398 194 390 C 176 382 159 370 145 355 L 145 89 C 160 80 176 73 192 68 C 208 63 226 61 244 61 Z" unicode="þ" />
<glyph horiz-adv-x="470" d="M 115 533 L 115 614 L 196 614 L 196 533 L 115 533 Z M 275 533 L 275 614 L 356 614 L 356 533 L 275 533 Z M 6 -215 L -2 -215 L -2 -140 L 6 -140 C 50 -140 86 -130 115 -111 C 143 -92 169 -58 192 -8 L 183 17 L 13 466 L 100 466 L 217 151 L 236 90 L 255 151 L 372 466 L 455 466 L 286 22 C 252 -68 214 -130 172 -164 C 130 -198 74 -215 6 -215 Z" unicode="ÿ" />
<glyph horiz-adv-x="642" d="M 215 715 L 215 776 L 430 776 L 430 715 L 215 715 Z M 20 0 L 281 664 L 361 664 L 623 0 L 532 0 L 456 197 L 181 197 L 105 0 L 20 0 Z M 208 271 L 428 271 L 344 488 L 318 561 L 292 488 L 208 271 Z" unicode="Ā" />
<glyph horiz-adv-x="459" d="M 111 532 L 111 598 L 338 598 L 338 532 L 111 532 Z M 183 -10 C 139 -10 105 2 79 26 C 53 50 40 83 40 124 C 40 166 55 200 85 227 C 115 254 159 272 217 281 L 316 294 L 316 321 C 316 349 306 370 288 384 C 270 397 244 404 211 404 C 184 404 158 400 133 392 C 108 384 84 373 61 359 L 61 440 C 87 451 113 460 141 468 C 168 475 195 479 221 479 C 277 479 321 465 352 438 C 382 411 398 373 398 323 L 398 0 L 323 0 L 316 63 C 302 39 283 21 260 9 C 237 -3 211 -10 183 -10 Z M 206 57 C 231 57 253 63 273 77 C 293 90 307 107 316 128 L 316 235 L 227 223 C 193 218 166 208 148 192 C 130 176 121 156 121 132 C 121 109 128 91 143 77 C 158 63 179 57 206 57 Z" unicode="ā" />
<glyph horiz-adv-x="642" d="M 321 706 C 287 706 259 717 239 740 C 218 762 208 793 208 833 L 261 833 C 261 810 266 792 277 779 C 288 766 303 760 321 760 C 339 760 354 766 366 779 C 377 792 383 810 383 833 L 435 833 C 435 793 424 762 404 740 C 383 717 355 706 321 706 Z M 20 0 L 281 664 L 361 664 L 623 0 L 532 0 L 456 197 L 181 197 L 105 0 L 20 0 Z M 208 271 L 428 271 L 344 488 L 318 561 L 292 488 L 208 271 Z" unicode="Ă" />
<glyph horiz-adv-x="459" d="M 224 516 C 188 516 159 528 137 552 C 115 576 104 608 104 650 L 161 650 C 161 627 166 609 178 595 C 190 581 205 575 224 575 C 243 575 258 581 270 595 C 282 609 288 627 288 650 L 344 650 C 344 608 333 576 311 552 C 289 528 260 516 224 516 Z M 183 -10 C 139 -10 105 2 79 26 C 53 50 40 83 40 124 C 40 166 55 200 85 227 C 115 254 159 272 217 281 L 316 294 L 316 321 C 316 349 306 370 288 384 C 270 397 244 404 211 404 C 184 404 158 400 133 392 C 108 384 84 373 61 359 L 61 440 C 87 451 113 460 141 468 C 168 475 195 479 221 479 C 277 479 321 465 352 438 C 382 411 398 373 398 323 L 398 0 L 323 0 L 316 63 C 302 39 283 21 260 9 C 237 -3 211 -10 183 -10 Z M 206 57 C 231 57 253 63 273 77 C 293 90 307 107 316 128 L 316 235 L 227 223 C 193 218 166 208 148 192 C 130 176 121 156 121 132 C 121 109 128 91 143 77 C 158 63 179 57 206 57 Z" unicode="ă" />
<glyph horiz-adv-x="642" d="M 20 0 L 281 664 L 361 664 L 623 0 L 617 0 C 593 0 574 -6 559 -20 C 543 -34 536 -53 536 -77 C 536 -99 544 -118 560 -132 C 576 -146 599 -153 627 -153 L 627 -220 C 578 -220 539 -208 510 -184 C 480 -160 466 -130 466 -93 C 466 -68 471 -46 482 -28 C 493 -10 508 4 526 15 L 456 197 L 181 197 L 105 0 L 20 0 Z M 208 271 L 428 271 L 344 488 L 318 561 L 292 488 L 208 271 Z" unicode="Ą" />
<glyph horiz-adv-x="459" d="M 183 -10 C 139 -10 105 2 79 26 C 53 50 40 83 40 124 C 40 166 55 200 85 227 C 115 254 159 272 217 281 L 316 294 L 316 321 C 316 349 306 370 288 384 C 270 397 244 404 211 404 C 184 404 158 400 133 392 C 108 384 84 373 61 359 L 61 440 C 87 451 113 460 141 468 C 168 475 195 479 221 479 C 277 479 321 465 352 438 C 382 411 398 373 398 323 L 398 0 L 394 0 C 369 -11 350 -25 337 -42 C 324 -59 318 -78 318 -98 C 318 -115 324 -128 337 -138 C 350 -148 369 -153 394 -153 L 394 -220 C 348 -220 312 -211 286 -195 C 260 -179 248 -153 248 -119 C 248 -96 254 -74 267 -54 C 279 -34 298 -15 323 1 L 316 63 C 302 39 283 21 260 9 C 237 -3 211 -10 183 -10 Z M 206 57 C 231 57 253 63 273 77 C 293 90 307 107 316 128 L 316 235 L 227 223 C 193 218 166 208 148 192 C 130 176 121 156 121 132 C 121 109 128 91 143 77 C 158 63 179 57 206 57 Z" unicode="ą" />
<glyph horiz-adv-x="659" d="M 421 723 L 346 723 L 440 853 L 525 853 L 421 723 Z M 400 -14 C 294 -14 208 17 144 79 C 80 141 48 224 48 329 C 48 431 79 514 143 577 C 207 640 292 672 400 672 C 438 672 473 668 506 660 C 539 652 572 639 604 623 L 604 538 C 572 557 540 571 507 580 C 473 589 438 594 400 594 C 319 594 254 569 206 521 C 158 473 134 409 134 329 C 134 247 158 183 207 135 C 256 87 320 64 400 64 C 440 64 477 69 511 80 C 545 90 578 106 611 128 L 611 42 C 578 22 544 8 510 0 C 475 -9 438 -14 400 -14 Z" unicode="Ć" />
<glyph horiz-adv-x="465" d="M 300 524 L 218 524 L 316 661 L 409 661 L 300 524 Z M 280 -10 C 207 -10 149 11 106 55 C 62 99 41 158 41 232 C 41 307 62 366 105 410 C 148 454 206 476 278 476 C 302 476 327 473 351 467 C 375 461 399 451 422 439 L 422 355 C 399 369 376 380 353 388 C 330 396 306 400 281 400 C 233 400 194 385 166 356 C 138 327 124 286 124 233 C 124 181 138 140 168 110 C 197 80 236 66 285 66 C 309 66 333 70 357 79 C 381 88 402 100 422 116 L 422 32 C 401 18 378 8 354 1 C 329 -6 304 -10 280 -10 Z" unicode="ć" />
<glyph horiz-adv-x="659" d="M 333 723 L 266 723 L 361 850 L 423 850 L 518 723 L 451 723 L 392 797 L 333 723 Z M 400 -14 C 294 -14 208 17 144 79 C 80 141 48 224 48 329 C 48 431 79 514 143 577 C 207 640 292 672 400 672 C 438 672 473 668 506 660 C 539 652 572 639 604 623 L 604 538 C 572 557 540 571 507 580 C 473 589 438 594 400 594 C 319 594 254 569 206 521 C 158 473 134 409 134 329 C 134 247 158 183 207 135 C 256 87 320 64 400 64 C 440 64 477 69 511 80 C 545 90 578 106 611 128 L 611 42 C 578 22 544 8 510 0 C 475 -9 438 -14 400 -14 Z" unicode="Ĉ" />
<glyph horiz-adv-x="465" d="M 210 524 L 138 524 L 237 658 L 305 658 L 404 524 L 332 524 L 271 601 L 210 524 Z M 280 -10 C 207 -10 149 11 106 55 C 62 99 41 158 41 232 C 41 307 62 366 105 410 C 148 454 206 476 278 476 C 302 476 327 473 351 467 C 375 461 399 451 422 439 L 422 355 C 399 369 376 380 353 388 C 330 396 306 400 281 400 C 233 400 194 385 166 356 C 138 327 124 286 124 233 C 124 181 138 140 168 110 C 197 80 236 66 285 66 C 309 66 333 70 357 79 C 381 88 402 100 422 116 L 422 32 C 401 18 378 8 354 1 C 329 -6 304 -10 280 -10 Z" unicode="ĉ" />
<glyph horiz-adv-x="659" d="M 352 723 L 352 804 L 433 804 L 433 723 L 352 723 Z M 400 -14 C 294 -14 208 17 144 79 C 80 141 48 224 48 329 C 48 431 79 514 143 577 C 207 640 292 672 400 672 C 438 672 473 668 506 660 C 539 652 572 639 604 623 L 604 538 C 572 557 540 571 507 580 C 473 589 438 594 400 594 C 319 594 254 569 206 521 C 158 473 134 409 134 329 C 134 247 158 183 207 135 C 256 87 320 64 400 64 C 440 64 477 69 511 80 C 545 90 578 106 611 128 L 611 42 C 578 22 544 8 510 0 C 475 -9 438 -14 400 -14 Z" unicode="Ċ" />
<glyph horiz-adv-x="465" d="M 226 532 L 226 620 L 314 620 L 314 532 L 226 532 Z M 280 -10 C 207 -10 149 11 106 55 C 62 99 41 158 41 232 C 41 307 62 366 105 410 C 148 454 206 476 278 476 C 302 476 327 473 351 467 C 375 461 399 451 422 439 L 422 355 C 399 369 376 380 353 388 C 330 396 306 400 281 400 C 233 400 194 385 166 356 C 138 327 124 286 124 233 C 124 181 138 140 168 110 C 197 80 236 66 285 66 C 309 66 333 70 357 79 C 381 88 402 100 422 116 L 422 32 C 401 18 378 8 354 1 C 329 -6 304 -10 280 -10 Z" unicode="ċ" />
<glyph horiz-adv-x="659" d="M 361 718 L 266 845 L 333 845 L 392 770 L 451 845 L 518 845 L 423 718 L 361 718 Z M 400 -14 C 294 -14 208 17 144 79 C 80 141 48 224 48 329 C 48 431 79 514 143 577 C 207 640 292 672 400 672 C 438 672 473 668 506 660 C 539 652 572 639 604 623 L 604 538 C 572 557 540 571 507 580 C 473 589 438 594 400 594 C 319 594 254 569 206 521 C 158 473 134 409 134 329 C 134 247 158 183 207 135 C 256 87 320 64 400 64 C 440 64 477 69 511 80 C 545 90 578 106 611 128 L 611 42 C 578 22 544 8 510 0 C 475 -9 438 -14 400 -14 Z" unicode="Č" />
<glyph horiz-adv-x="465" d="M 237 524 L 138 658 L 210 658 L 271 580 L 332 658 L 404 658 L 305 524 L 237 524 Z M 280 -10 C 207 -10 149 11 106 55 C 62 99 41 158 41 232 C 41 307 62 366 105 410 C 148 454 206 476 278 476 C 302 476 327 473 351 467 C 375 461 399 451 422 439 L 422 355 C 399 369 376 380 353 388 C 330 396 306 400 281 400 C 233 400 194 385 166 356 C 138 327 124 286 124 233 C 124 181 138 140 168 110 C 197 80 236 66 285 66 C 309 66 333 70 357 79 C 381 88 402 100 422 116 L 422 32 C 401 18 378 8 354 1 C 329 -6 304 -10 280 -10 Z" unicode="č" />
<glyph horiz-adv-x="684" d="M 249 710 L 154 837 L 221 837 L 280 762 L 339 837 L 406 837 L 311 710 L 249 710 Z M 73 0 L 73 658 L 276 658 C 385 658 472 628 538 570 C 603 512 636 434 636 337 C 636 235 602 153 536 92 C 469 30 380 0 268 0 L 73 0 Z M 157 79 L 272 79 C 357 79 425 102 476 149 C 526 195 552 258 552 337 C 552 410 527 469 478 513 C 429 557 363 579 280 579 L 157 579 L 157 79 Z" unicode="Ď" />
<glyph horiz-adv-x="674" d="M 245 -10 C 185 -10 136 10 98 52 C 60 94 41 153 41 229 C 41 307 61 367 102 411 C 143 454 195 476 259 476 C 279 476 300 472 321 466 C 341 460 360 451 377 441 L 377 720 L 459 720 L 459 0 L 384 0 L 378 63 C 363 40 344 22 320 9 C 296 -3 271 -10 245 -10 Z M 571 528 L 513 555 C 527 575 537 595 543 614 C 548 633 551 654 551 678 L 551 720 L 625 720 L 625 678 C 625 651 620 625 611 600 C 602 574 589 550 571 528 Z M 261 62 C 285 62 308 68 328 81 C 348 94 365 111 377 132 L 377 366 C 362 378 345 388 327 395 C 308 401 289 405 269 405 C 225 405 189 389 163 357 C 137 325 124 284 124 232 C 124 180 136 139 160 108 C 184 77 218 62 261 62 Z" unicode="ď" />
<glyph horiz-adv-x="699" d="M 76 0 L 76 293 L 23 293 L 23 366 L 76 366 L 76 658 L 279 658 C 388 658 475 628 541 570 C 606 512 639 434 639 337 C 639 235 605 153 539 92 C 472 30 383 0 271 0 L 76 0 Z M 160 79 L 275 79 C 360 79 428 102 479 149 C 529 195 555 258 555 337 C 555 410 530 469 481 513 C 432 557 366 579 283 579 L 160 579 L 160 366 L 282 366 L 282 293 L 160 293 L 160 79 Z" unicode="Đ" />
<glyph horiz-adv-x="522" d="M 245 -10 C 185 -10 136 10 98 52 C 60 94 41 153 41 229 C 41 307 61 367 102 411 C 143 454 195 476 259 476 C 279 476 300 472 321 466 C 341 460 360 451 377 441 L 377 561 L 304 561 L 304 630 L 377 630 L 377 720 L 459 720 L 459 630 L 512 630 L 512 561 L 459 561 L 459 0 L 384 0 L 378 63 C 363 40 344 22 320 9 C 296 -3 271 -10 245 -10 Z M 261 62 C 285 62 308 68 328 81 C 348 94 365 111 377 132 L 377 366 C 362 378 345 388 327 395 C 308 401 289 405 269 405 C 225 405 189 389 163 357 C 137 325 124 284 124 232 C 124 180 136 139 160 108 C 184 77 218 62 261 62 Z" unicode="đ" />
<glyph horiz-adv-x="503" d="M 156 715 L 156 776 L 371 776 L 371 715 L 156 715 Z M 73 0 L 73 658 L 435 658 L 435 579 L 157 579 L 157 373 L 423 373 L 423 294 L 157 294 L 157 79 L 445 79 L 445 0 L 73 0 Z" unicode="Ē" />
<glyph horiz-adv-x="500" d="M 144 532 L 144 598 L 371 598 L 371 532 L 144 532 Z M 274 -10 C 200 -10 143 11 102 55 C 61 99 41 158 41 234 C 41 306 60 364 99 409 C 138 453 190 476 256 476 C 318 476 368 455 404 415 C 440 374 459 316 459 241 L 459 211 L 125 211 C 125 165 139 128 167 101 C 194 73 233 60 283 60 C 310 60 337 64 365 74 C 392 83 419 97 447 116 L 447 38 C 418 22 389 10 360 2 C 331 -6 302 -10 274 -10 Z M 255 408 C 218 408 188 395 164 371 C 140 346 127 314 125 274 L 377 274 C 377 315 366 348 344 372 C 322 396 293 408 255 408 Z" unicode="ē" />
<glyph horiz-adv-x="503" d="M 262 706 C 228 706 200 717 180 740 C 159 762 149 793 149 833 L 202 833 C 202 810 207 792 218 779 C 229 766 244 760 262 760 C 280 760 295 766 307 779 C 318 792 324 810 324 833 L 376 833 C 376 793 365 762 345 740 C 324 717 296 706 262 706 Z M 73 0 L 73 658 L 435 658 L 435 579 L 157 579 L 157 373 L 423 373 L 423 294 L 157 294 L 157 79 L 445 79 L 445 0 L 73 0 Z" unicode="Ĕ" />
<glyph horiz-adv-x="500" d="M 257 516 C 221 516 192 528 170 552 C 148 576 137 608 137 650 L 194 650 C 194 627 199 609 211 595 C 223 581 238 575 257 575 C 276 575 291 581 303 595 C 315 609 321 627 321 650 L 377 650 C 377 608 366 576 344 552 C 322 528 293 516 257 516 Z M 274 -10 C 200 -10 143 11 102 55 C 61 99 41 158 41 234 C 41 306 60 364 99 409 C 138 453 190 476 256 476 C 318 476 368 455 404 415 C 440 374 459 316 459 241 L 459 211 L 125 211 C 125 165 139 128 167 101 C 194 73 233 60 283 60 C 310 60 337 64 365 74 C 392 83 419 97 447 116 L 447 38 C 418 22 389 10 360 2 C 331 -6 302 -10 274 -10 Z M 255 408 C 218 408 188 395 164 371 C 140 346 127 314 125 274 L 377 274 C 377 315 366 348 344 372 C 322 396 293 408 255 408 Z" unicode="ĕ" />
<glyph horiz-adv-x="503" d="M 222 715 L 222 796 L 303 796 L 303 715 L 222 715 Z M 73 0 L 73 658 L 435 658 L 435 579 L 157 579 L 157 373 L 423 373 L 423 294 L 157 294 L 157 79 L 445 79 L 445 0 L 73 0 Z" unicode="Ė" />
<glyph horiz-adv-x="500" d="M 212 532 L 212 620 L 300 620 L 300 532 L 212 532 Z M 274 -10 C 200 -10 143 11 102 55 C 61 99 41 158 41 234 C 41 306 60 364 99 409 C 138 453 190 476 256 476 C 318 476 368 455 404 415 C 440 374 459 316 459 241 L 459 211 L 125 211 C 125 165 139 128 167 101 C 194 73 233 60 283 60 C 310 60 337 64 365 74 C 392 83 419 97 447 116 L 447 38 C 418 22 389 10 360 2 C 331 -6 302 -10 274 -10 Z M 255 408 C 218 408 188 395 164 371 C 140 346 127 314 125 274 L 377 274 C 377 315 366 348 344 372 C 322 396 293 408 255 408 Z" unicode="ė" />
<glyph horiz-adv-x="503" d="M 73 0 L 73 658 L 435 658 L 435 579 L 157 579 L 157 373 L 423 373 L 423 294 L 157 294 L 157 79 L 445 79 L 445 0 L 442 0 C 418 0 399 -6 384 -20 C 368 -34 361 -53 361 -77 C 361 -99 369 -118 385 -132 C 401 -146 424 -153 452 -153 L 452 -220 C 403 -220 364 -208 335 -184 C 305 -160 291 -130 291 -93 C 291 -73 294 -56 301 -40 C 308 -24 318 -10 331 0 L 73 0 Z" unicode="Ę" />
<glyph horiz-adv-x="500" d="M 430 -215 C 377 -215 335 -202 303 -178 C 271 -153 255 -121 255 -82 C 255 -68 257 -55 261 -43 C 265 -31 270 -20 277 -10 L 274 -10 C 200 -10 143 11 102 55 C 61 99 41 158 41 234 C 41 306 60 364 99 409 C 138 453 190 476 256 476 C 318 476 368 455 404 415 C 440 374 459 316 459 241 L 459 211 L 125 211 C 125 165 139 128 167 101 C 194 73 233 60 283 60 C 310 60 337 64 365 74 C 392 83 419 97 447 116 L 447 38 C 436 32 425 26 414 22 C 403 17 392 12 382 8 C 365 1 352 -8 342 -21 C 332 -34 328 -50 328 -69 C 328 -92 337 -111 356 -127 C 374 -143 399 -151 430 -151 L 430 -215 Z M 255 408 C 218 408 188 395 164 371 C 140 346 127 314 125 274 L 377 274 C 377 315 366 348 344 372 C 322 396 293 408 255 408 Z" unicode="ę" />
<glyph horiz-adv-x="503" d="M 231 710 L 136 837 L 203 837 L 262 762 L 321 837 L 388 837 L 293 710 L 231 710 Z M 73 0 L 73 658 L 435 658 L 435 579 L 157 579 L 157 373 L 423 373 L 423 294 L 157 294 L 157 79 L 445 79 L 445 0 L 73 0 Z" unicode="Ě" />
<glyph horiz-adv-x="500" d="M 223 524 L 124 658 L 196 658 L 257 580 L 318 658 L 390 658 L 291 524 L 223 524 Z M 274 -10 C 200 -10 143 11 102 55 C 61 99 41 158 41 234 C 41 306 60 364 99 409 C 138 453 190 476 256 476 C 318 476 368 455 404 415 C 440 374 459 316 459 241 L 459 211 L 125 211 C 125 165 139 128 167 101 C 194 73 233 60 283 60 C 310 60 337 64 365 74 C 392 83 419 97 447 116 L 447 38 C 418 22 389 10 360 2 C 331 -6 302 -10 274 -10 Z M 255 408 C 218 408 188 395 164 371 C 140 346 127 314 125 274 L 377 274 C 377 315 366 348 344 372 C 322 396 293 408 255 408 Z" unicode="ě" />
<glyph horiz-adv-x="688" d="M 326 723 L 259 723 L 354 850 L 416 850 L 511 723 L 444 723 L 385 797 L 326 723 Z M 388 -14 C 285 -14 203 17 141 80 C 79 143 48 227 48 331 C 48 433 79 516 141 578 C 203 640 286 672 390 672 C 426 672 462 668 499 660 C 536 652 570 642 602 628 L 602 545 C 570 561 537 574 503 582 C 468 590 431 594 393 594 C 313 594 250 570 204 522 C 157 474 134 411 134 331 C 134 249 156 184 202 136 C 247 88 307 64 383 64 C 412 64 440 66 468 71 C 495 76 521 84 546 94 L 546 258 L 407 258 L 407 337 L 630 337 L 630 39 C 594 22 555 9 513 0 C 471 -9 430 -14 388 -14 Z" unicode="Ĝ" />
<glyph horiz-adv-x="521" d="M 201 524 L 129 524 L 228 658 L 296 658 L 395 524 L 323 524 L 262 601 L 201 524 Z M 245 -224 C 214 -224 183 -220 152 -213 C 121 -206 92 -196 66 -182 L 66 -100 C 91 -114 118 -126 147 -136 C 176 -146 205 -151 234 -151 C 277 -151 312 -138 338 -112 C 364 -86 378 -51 378 -7 L 378 50 C 362 30 343 15 320 5 C 297 -4 273 -10 248 -10 C 186 -10 136 10 98 52 C 60 94 41 153 41 231 C 41 306 61 366 103 410 C 144 454 197 476 262 476 C 286 476 312 471 338 461 C 364 451 385 438 401 422 L 420 466 L 460 466 L 460 0 C 460 -67 440 -121 401 -162 C 361 -203 309 -224 245 -224 Z M 264 62 C 288 62 310 67 330 79 C 350 91 366 106 378 125 L 378 364 C 366 376 349 386 329 394 C 309 401 289 405 270 405 C 224 405 189 388 163 356 C 137 323 124 282 124 232 C 124 180 136 139 160 108 C 184 77 219 62 264 62 Z" unicode="ĝ" />
<glyph horiz-adv-x="688" d="M 385 714 C 351 714 323 725 303 748 C 282 770 272 801 272 841 L 325 841 C 325 818 330 800 341 787 C 352 774 367 768 385 768 C 403 768 418 774 430 787 C 441 800 447 818 447 841 L 499 841 C 499 801 488 770 468 748 C 447 725 419 714 385 714 Z M 388 -14 C 285 -14 203 17 141 80 C 79 143 48 227 48 331 C 48 433 79 516 141 578 C 203 640 286 672 390 672 C 426 672 462 668 499 660 C 536 652 570 642 602 628 L 602 545 C 570 561 537 574 503 582 C 468 590 431 594 393 594 C 313 594 250 570 204 522 C 157 474 134 411 134 331 C 134 249 156 184 202 136 C 247 88 307 64 383 64 C 412 64 440 66 468 71 C 495 76 521 84 546 94 L 546 258 L 407 258 L 407 337 L 630 337 L 630 39 C 594 22 555 9 513 0 C 471 -9 430 -14 388 -14 Z" unicode="Ğ" />
<glyph horiz-adv-x="521" d="M 262 516 C 226 516 197 528 175 552 C 153 576 142 608 142 650 L 199 650 C 199 627 204 609 216 595 C 228 581 243 575 262 575 C 281 575 296 581 308 595 C 320 609 326 627 326 650 L 382 650 C 382 608 371 576 349 552 C 327 528 298 516 262 516 Z M 245 -224 C 214 -224 183 -220 152 -213 C 121 -206 92 -196 66 -182 L 66 -100 C 91 -114 118 -126 147 -136 C 176 -146 205 -151 234 -151 C 277 -151 312 -138 338 -112 C 364 -86 378 -51 378 -7 L 378 50 C 362 30 343 15 320 5 C 297 -4 273 -10 248 -10 C 186 -10 136 10 98 52 C 60 94 41 153 41 231 C 41 306 61 366 103 410 C 144 454 197 476 262 476 C 286 476 312 471 338 461 C 364 451 385 438 401 422 L 420 466 L 460 466 L 460 0 C 460 -67 440 -121 401 -162 C 361 -203 309 -224 245 -224 Z M 264 62 C 288 62 310 67 330 79 C 350 91 366 106 378 125 L 378 364 C 366 376 349 386 329 394 C 309 401 289 405 270 405 C 224 405 189 388 163 356 C 137 323 124 282 124 232 C 124 180 136 139 160 108 C 184 77 219 62 264 62 Z" unicode="ğ" />
<glyph horiz-adv-x="688" d="M 345 723 L 345 804 L 426 804 L 426 723 L 345 723 Z M 388 -14 C 285 -14 203 17 141 80 C 79 143 48 227 48 331 C 48 433 79 516 141 578 C 203 640 286 672 390 672 C 426 672 462 668 499 660 C 536 652 570 642 602 628 L 602 545 C 570 561 537 574 503 582 C 468 590 431 594 393 594 C 313 594 250 570 204 522 C 157 474 134 411 134 331 C 134 249 156 184 202 136 C 247 88 307 64 383 64 C 412 64 440 66 468 71 C 495 76 521 84 546 94 L 546 258 L 407 258 L 407 337 L 630 337 L 630 39 C 594 22 555 9 513 0 C 471 -9 430 -14 388 -14 Z" unicode="Ġ" />
<glyph horiz-adv-x="521" d="M 217 532 L 217 620 L 305 620 L 305 532 L 217 532 Z M 245 -224 C 214 -224 183 -220 152 -213 C 121 -206 92 -196 66 -182 L 66 -100 C 91 -114 118 -126 147 -136 C 176 -146 205 -151 234 -151 C 277 -151 312 -138 338 -112 C 364 -86 378 -51 378 -7 L 378 50 C 362 30 343 15 320 5 C 297 -4 273 -10 248 -10 C 186 -10 136 10 98 52 C 60 94 41 153 41 231 C 41 306 61 366 103 410 C 144 454 197 476 262 476 C 286 476 312 471 338 461 C 364 451 385 438 401 422 L 420 466 L 460 466 L 460 0 C 460 -67 440 -121 401 -162 C 361 -203 309 -224 245 -224 Z M 264 62 C 288 62 310 67 330 79 C 350 91 366 106 378 125 L 378 364 C 366 376 349 386 329 394 C 309 401 289 405 270 405 C 224 405 189 388 163 356 C 137 323 124 282 124 232 C 124 180 136 139 160 108 C 184 77 219 62 264 62 Z" unicode="ġ" />
<glyph horiz-adv-x="688" d="M 388 -14 C 285 -14 203 17 141 80 C 79 143 48 227 48 331 C 48 433 79 516 141 578 C 203 640 286 672 390 672 C 426 672 462 668 499 660 C 536 652 570 642 602 628 L 602 545 C 570 561 537 574 503 582 C 468 590 431 594 393 594 C 313 594 250 570 204 522 C 157 474 134 411 134 331 C 134 249 156 184 202 136 C 247 88 307 64 383 64 C 412 64 440 66 468 71 C 495 76 521 84 546 94 L 546 258 L 407 258 L 407 337 L 630 337 L 630 39 C 594 22 555 9 513 0 C 471 -9 430 -14 388 -14 Z M 370 -237 L 317 -212 C 331 -192 340 -173 346 -155 C 351 -137 354 -118 354 -96 L 354 -56 L 421 -56 L 421 -96 C 421 -120 416 -145 408 -169 C 400 -193 387 -215 370 -237 Z" unicode="Ģ" />
<glyph horiz-adv-x="521" d="M 280 712 L 338 685 C 323 663 313 643 308 624 C 302 605 300 584 300 562 L 300 520 L 226 520 L 226 562 C 226 588 230 614 239 640 C 247 665 261 689 280 712 Z M 245 -224 C 214 -224 183 -220 152 -213 C 121 -206 92 -196 66 -182 L 66 -100 C 91 -114 118 -126 147 -136 C 176 -146 205 -151 234 -151 C 277 -151 312 -138 338 -112 C 364 -86 378 -51 378 -7 L 378 50 C 362 30 343 15 320 5 C 297 -4 273 -10 248 -10 C 186 -10 136 10 98 52 C 60 94 41 153 41 231 C 41 306 61 366 103 410 C 144 454 197 476 262 476 C 286 476 312 471 338 461 C 364 451 385 438 401 422 L 420 466 L 460 466 L 460 0 C 460 -67 440 -121 401 -162 C 361 -203 309 -224 245 -224 Z M 264 62 C 288 62 310 67 330 79 C 350 91 366 106 378 125 L 378 364 C 366 376 349 386 329 394 C 309 401 289 405 270 405 C 224 405 189 388 163 356 C 137 323 124 282 124 232 C 124 180 136 139 160 108 C 184 77 219 62 264 62 Z" unicode="ģ" />
<glyph horiz-adv-x="685" d="M 284 715 L 217 715 L 312 842 L 374 842 L 469 715 L 402 715 L 343 789 L 284 715 Z M 73 0 L 73 658 L 157 658 L 157 376 L 528 376 L 528 658 L 612 658 L 612 0 L 528 0 L 528 297 L 157 297 L 157 0 L 73 0 Z" unicode="Ĥ" />
<glyph horiz-adv-x="503" d="M 45 736 L -27 736 L 72 870 L 140 870 L 239 736 L 167 736 L 106 813 L 45 736 Z M 63 0 L 63 720 L 145 720 L 145 403 C 161 425 182 443 206 456 C 230 469 257 476 285 476 C 335 476 374 460 402 430 C 430 399 444 357 444 304 L 444 0 L 362 0 L 362 290 C 362 326 353 354 335 373 C 317 392 293 402 262 402 C 238 402 215 395 195 383 C 175 370 158 353 145 333 L 145 0 L 63 0 Z" unicode="ĥ" />
<glyph horiz-adv-x="706" d="M 83 0 L 83 474 L 29 474 L 29 547 L 83 547 L 83 658 L 167 658 L 167 547 L 538 547 L 538 658 L 622 658 L 622 547 L 677 547 L 677 474 L 622 474 L 622 0 L 538 0 L 538 293 L 167 293 L 167 0 L 83 0 Z M 167 372 L 538 372 L 538 474 L 167 474 L 167 372 Z" unicode="Ħ" />
<glyph horiz-adv-x="503" d="M 63 0 L 63 561 L 11 561 L 11 630 L 63 630 L 63 720 L 145 720 L 145 630 L 223 630 L 223 561 L 145 561 L 145 403 C 161 425 182 443 206 456 C 230 469 257 476 285 476 C 335 476 374 460 402 430 C 430 399 444 357 444 304 L 444 0 L 362 0 L 362 290 C 362 326 353 354 335 373 C 317 392 293 402 262 402 C 238 402 215 395 195 383 C 175 370 158 353 145 333 L 145 0 L 63 0 Z" unicode="ħ" />
<glyph horiz-adv-x="230" d="M 21 715 L -27 715 C -25 747 -16 772 -1 790 C 13 808 33 817 57 817 C 67 817 78 814 89 810 C 99 806 111 799 125 789 C 133 782 141 776 149 772 C 156 768 164 766 172 766 C 182 766 190 769 197 777 C 204 785 208 796 210 811 L 258 811 C 256 777 247 752 231 735 C 215 717 196 709 174 709 C 161 709 149 711 139 716 C 129 720 118 727 106 737 C 97 744 89 750 81 754 C 73 758 66 760 59 760 C 48 760 39 756 32 748 C 25 740 21 729 21 715 Z M 73 0 L 73 658 L 157 658 L 157 0 L 73 0 Z" unicode="Ĩ" />
<glyph horiz-adv-x="213" d="M 11 524 L -41 524 C -39 558 -30 585 -14 604 C 1 623 22 633 47 633 C 59 633 70 630 81 626 C 91 621 104 613 118 603 C 128 596 136 590 144 586 C 151 582 159 580 168 580 C 178 580 187 584 194 592 C 201 600 205 611 207 626 L 259 626 C 257 590 247 563 231 545 C 215 526 194 517 170 517 C 157 517 145 519 134 524 C 123 529 111 537 99 547 C 89 554 81 560 73 564 C 65 568 57 570 50 570 C 39 570 30 566 23 558 C 15 550 11 538 11 524 Z M 66 0 L 66 466 L 147 466 L 147 0 L 66 0 Z" unicode="ĩ" />
<glyph horiz-adv-x="230" d="M 10 715 L 10 776 L 225 776 L 225 715 L 10 715 Z M 73 0 L 73 658 L 157 658 L 157 0 L 73 0 Z" unicode="Ī" />
<glyph horiz-adv-x="213" d="M -4 532 L -4 598 L 223 598 L 223 532 L -4 532 Z M 66 0 L 66 466 L 147 466 L 147 0 L 66 0 Z" unicode="ī" />
<glyph horiz-adv-x="230" d="M 116 706 C 82 706 54 717 34 740 C 13 762 3 793 3 833 L 56 833 C 56 810 61 792 72 779 C 83 766 98 760 116 760 C 134 760 149 766 161 779 C 172 792 178 810 178 833 L 230 833 C 230 793 219 762 199 740 C 178 717 150 706 116 706 Z M 73 0 L 73 658 L 157 658 L 157 0 L 73 0 Z" unicode="Ĭ" />
<glyph horiz-adv-x="213" d="M 109 516 C 73 516 44 528 22 552 C 0 576 -11 608 -11 650 L 46 650 C 46 627 51 609 63 595 C 75 581 90 575 109 575 C 128 575 143 581 155 595 C 167 609 173 627 173 650 L 229 650 C 229 608 218 576 196 552 C 174 528 145 516 109 516 Z M 66 0 L 66 466 L 147 466 L 147 0 L 66 0 Z" unicode="ĭ" />
<glyph horiz-adv-x="230" d="M 73 0 L 73 658 L 157 658 L 157 0 L 73 0 Z" unicode="Į" />
<glyph horiz-adv-x="217" d="M 66 611 L 66 694 L 151 694 L 151 611 L 66 611 Z M 68 0 L 68 466 L 150 466 L 150 0 L 142 0 C 117 -11 98 -25 85 -42 C 72 -59 66 -78 66 -98 C 66 -115 72 -128 85 -138 C 98 -148 117 -153 142 -153 L 142 -220 C 96 -220 60 -211 34 -195 C 8 -179 -4 -153 -4 -119 C -4 -96 2 -75 14 -55 C 26 -35 45 -16 69 0 L 68 0 Z" unicode="į" />
<glyph horiz-adv-x="230" d="M 76 715 L 76 796 L 157 796 L 157 715 L 76 715 Z M 73 0 L 73 658 L 157 658 L 157 0 L 73 0 Z" unicode="İ" />
<glyph horiz-adv-x="213" d="M 66 0 L 66 466 L 147 466 L 147 0 L 66 0 Z" unicode="ı" />
<glyph horiz-adv-x="229" d="M 56 715 L -11 715 L 84 842 L 146 842 L 241 715 L 174 715 L 115 789 L 56 715 Z M -18 -211 L -26 -211 L -26 -133 L -18 -133 C 10 -133 32 -124 48 -106 C 64 -88 73 -64 73 -34 L 73 658 L 157 658 L 157 -34 C 157 -88 141 -131 110 -163 C 78 -195 36 -211 -18 -211 Z" unicode="Ĵ" />
<glyph horiz-adv-x="208" d="M 48 524 L -24 524 L 75 658 L 143 658 L 242 524 L 170 524 L 109 601 L 48 524 Z M -23 -211 L -31 -211 L -31 -137 L -23 -137 C 3 -137 25 -127 41 -109 C 57 -91 65 -66 65 -36 L 65 466 L 147 466 L 147 -36 C 147 -89 131 -131 100 -163 C 69 -195 28 -211 -23 -211 Z" unicode="ĵ" />
<glyph horiz-adv-x="586" d="M 73 0 L 73 658 L 157 658 L 157 356 L 439 658 L 542 658 L 242 341 L 560 1 L 449 0 L 157 316 L 157 0 L 73 0 Z M 287 -229 L 234 -204 C 248 -184 257 -165 263 -147 C 268 -129 271 -110 271 -88 L 271 -48 L 338 -48 L 338 -88 C 338 -112 333 -137 325 -161 C 317 -185 304 -207 287 -229 Z" unicode="Ķ" />
<glyph horiz-adv-x="471" d="M 63 0 L 63 720 L 145 720 L 145 257 L 336 466 L 433 466 L 227 245 L 454 0 L 351 0 L 145 225 L 145 0 L 63 0 Z M 229 -244 L 171 -217 C 185 -196 195 -176 201 -157 C 207 -138 210 -117 210 -94 L 210 -52 L 283 -52 L 283 -94 C 283 -120 278 -146 270 -172 C 261 -197 247 -221 229 -244 Z" unicode="ķ" />
<glyph horiz-adv-x="470" d="M 153 715 L 78 715 L 172 845 L 257 845 L 153 715 Z M 73 0 L 73 658 L 157 658 L 157 79 L 448 79 L 448 0 L 73 0 Z" unicode="Ĺ" />
<glyph horiz-adv-x="209" d="M 135 778 L 53 778 L 151 915 L 244 915 L 135 778 Z M 63 0 L 63 720 L 145 720 L 145 0 L 63 0 Z" unicode="ĺ" />
<glyph horiz-adv-x="470" d="M 73 0 L 73 658 L 157 658 L 157 79 L 448 79 L 448 0 L 73 0 Z M 256 -229 L 203 -204 C 217 -184 226 -165 232 -147 C 237 -129 240 -110 240 -88 L 240 -48 L 307 -48 L 307 -88 C 307 -112 302 -137 294 -161 C 286 -185 273 -207 256 -229 Z" unicode="Ļ" />
<glyph horiz-adv-x="209" d="M 63 0 L 63 720 L 145 720 L 145 0 L 63 0 Z M 90 -244 L 32 -217 C 46 -196 56 -176 62 -157 C 68 -138 71 -117 71 -94 L 71 -52 L 144 -52 L 144 -94 C 144 -120 139 -146 131 -172 C 122 -197 108 -221 90 -244 Z" unicode="ļ" />
<glyph horiz-adv-x="470" d="M 73 0 L 73 658 L 157 658 L 157 79 L 448 79 L 448 0 L 73 0 Z M 324 466 L 266 493 C 280 514 290 534 296 553 C 301 572 304 593 304 616 L 304 658 L 378 658 L 378 616 C 378 589 373 563 364 538 C 355 512 342 488 324 466 Z" unicode="Ľ" />
<glyph horiz-adv-x="354" d="M 63 0 L 63 720 L 145 720 L 145 0 L 63 0 Z M 252 528 L 194 555 C 208 575 218 595 224 614 C 229 633 232 654 232 678 L 232 720 L 306 720 L 306 678 C 306 651 301 625 292 600 C 283 574 270 550 252 528 Z" unicode="ľ" />
<glyph horiz-adv-x="470" d="M 73 0 L 73 658 L 157 658 L 157 79 L 448 79 L 448 0 L 73 0 Z M 313 315 L 313 399 L 398 399 L 398 315 L 313 315 Z" unicode="Ŀ" />
<glyph horiz-adv-x="285" d="M 63 0 L 63 720 L 145 720 L 145 0 L 63 0 Z M 204 315 L 204 399 L 289 399 L 289 315 L 204 315 Z" unicode="ŀ" />
<glyph horiz-adv-x="470" d="M 72 0 L 72 298 L 7 277 L 7 352 L 72 373 L 72 658 L 156 658 L 156 399 L 253 430 L 253 355 L 156 324 L 156 79 L 447 79 L 447 0 L 72 0 Z" unicode="Ł" />
<glyph horiz-adv-x="209" d="M 63 0 L 63 322 L -5 304 L -5 375 L 63 393 L 63 720 L 145 720 L 145 416 L 205 432 L 205 361 L 145 345 L 145 0 L 63 0 Z" unicode="ł" />
<glyph horiz-adv-x="709" d="M 385 715 L 310 715 L 404 845 L 489 845 L 385 715 Z M 73 0 L 73 658 L 163 658 L 518 179 L 558 121 L 557 178 L 557 658 L 636 658 L 636 0 L 547 0 L 190 482 L 151 538 L 152 483 L 152 0 L 73 0 Z" unicode="Ń" />
<glyph horiz-adv-x="503" d="M 284 524 L 202 524 L 300 661 L 393 661 L 284 524 Z M 63 0 L 63 466 L 145 466 L 145 403 C 161 425 182 443 206 456 C 230 469 257 476 285 476 C 335 476 374 460 402 430 C 430 399 444 357 444 304 L 444 0 L 362 0 L 362 290 C 362 326 353 354 335 373 C 317 392 293 402 262 402 C 238 402 215 395 195 383 C 175 370 158 353 145 333 L 145 0 L 63 0 Z" unicode="ń" />
<glyph horiz-adv-x="709" d="M 73 0 L 73 658 L 163 658 L 518 179 L 558 121 L 557 178 L 557 658 L 636 658 L 636 0 L 547 0 L 190 482 L 151 538 L 152 483 L 152 0 L 73 0 Z M 344 -229 L 291 -204 C 305 -184 314 -165 320 -147 C 325 -129 328 -110 328 -88 L 328 -48 L 395 -48 L 395 -88 C 395 -112 390 -137 382 -161 C 374 -185 361 -207 344 -229 Z" unicode="Ņ" />
<glyph horiz-adv-x="503" d="M 63 0 L 63 466 L 145 466 L 145 403 C 161 425 182 443 206 456 C 230 469 257 476 285 476 C 335 476 374 460 402 430 C 430 399 444 357 444 304 L 444 0 L 362 0 L 362 290 C 362 326 353 354 335 373 C 317 392 293 402 262 402 C 238 402 215 395 195 383 C 175 370 158 353 145 333 L 145 0 L 63 0 Z M 238 -244 L 180 -217 C 194 -196 204 -176 210 -157 C 216 -138 219 -117 219 -94 L 219 -52 L 292 -52 L 292 -94 C 292 -120 287 -146 279 -172 C 270 -197 256 -221 238 -244 Z" unicode="ņ" />
<glyph horiz-adv-x="709" d="M 325 710 L 230 837 L 297 837 L 356 762 L 415 837 L 482 837 L 387 710 L 325 710 Z M 73 0 L 73 658 L 163 658 L 518 179 L 558 121 L 557 178 L 557 658 L 636 658 L 636 0 L 547 0 L 190 482 L 151 538 L 152 483 L 152 0 L 73 0 Z" unicode="Ň" />
<glyph horiz-adv-x="503" d="M 221 524 L 122 658 L 194 658 L 255 580 L 316 658 L 388 658 L 289 524 L 221 524 Z M 63 0 L 63 466 L 145 466 L 145 403 C 161 425 182 443 206 456 C 230 469 257 476 285 476 C 335 476 374 460 402 430 C 430 399 444 357 444 304 L 444 0 L 362 0 L 362 290 C 362 326 353 354 335 373 C 317 392 293 402 262 402 C 238 402 215 395 195 383 C 175 370 158 353 145 333 L 145 0 L 63 0 Z" unicode="ň" />
<glyph horiz-adv-x="709" d="M 73 0 L 73 658 L 155 658 L 525 182 L 558 135 L 557 182 L 557 658 L 636 658 L 636 -47 C 636 -99 620 -140 590 -170 C 559 -200 517 -215 464 -215 L 456 -215 L 456 -141 L 464 -141 C 492 -141 515 -132 533 -116 C 550 -100 559 -77 559 -47 L 559 0 L 186 481 L 151 532 L 152 482 L 152 0 L 73 0 Z" unicode="Ŋ" />
<glyph horiz-adv-x="503" d="M 279 -215 L 271 -215 L 271 -141 L 279 -141 C 304 -141 324 -132 339 -115 C 354 -97 362 -74 362 -44 L 362 289 C 362 324 352 351 334 370 C 315 389 289 399 257 399 C 233 399 211 392 192 380 C 173 368 157 352 145 333 L 145 0 L 63 0 L 63 466 L 145 466 L 145 403 C 161 426 182 444 206 457 C 230 469 257 476 286 476 C 336 476 374 460 402 430 C 430 399 444 357 444 304 L 444 -44 C 444 -96 429 -137 399 -168 C 369 -199 329 -215 279 -215 Z" unicode="ŋ" />
<glyph horiz-adv-x="775" d="M 283 723 L 283 784 L 498 784 L 498 723 L 283 723 Z M 388 -15 C 287 -15 205 17 142 81 C 79 145 48 227 48 329 C 48 431 79 513 143 577 C 207 641 288 673 388 673 C 486 673 567 641 631 578 C 695 515 727 432 727 329 C 727 226 695 143 633 80 C 570 16 488 -15 388 -15 Z M 388 63 C 462 63 523 87 570 136 C 617 185 641 249 641 329 C 641 408 617 472 570 521 C 523 570 462 595 388 595 C 313 595 252 570 205 521 C 157 472 134 408 134 329 C 134 249 157 185 205 136 C 252 87 313 63 388 63 Z" unicode="Ō" />
<glyph horiz-adv-x="556" d="M 166 532 L 166 598 L 393 598 L 393 532 L 166 532 Z M 278 -11 C 207 -11 150 11 106 56 C 62 100 41 159 41 232 C 41 305 62 364 106 409 C 150 454 207 477 278 477 C 348 477 404 454 448 410 C 492 365 514 306 514 233 C 514 159 492 100 448 56 C 404 11 348 -11 278 -11 Z M 278 63 C 324 63 361 78 389 110 C 417 141 431 182 431 232 C 431 282 417 323 389 355 C 361 387 324 403 278 403 C 232 403 194 387 166 356 C 138 324 124 283 124 233 C 124 182 138 141 166 110 C 194 78 232 63 278 63 Z" unicode="ō" />
<glyph horiz-adv-x="775" d="M 389 714 C 355 714 327 725 307 748 C 286 770 276 801 276 841 L 329 841 C 329 818 334 800 345 787 C 356 774 371 768 389 768 C 407 768 422 774 434 787 C 445 800 451 818 451 841 L 503 841 C 503 801 492 770 472 748 C 451 725 423 714 389 714 Z M 388 -15 C 287 -15 205 17 142 81 C 79 145 48 227 48 329 C 48 431 79 513 143 577 C 207 641 288 673 388 673 C 486 673 567 641 631 578 C 695 515 727 432 727 329 C 727 226 695 143 633 80 C 570 16 488 -15 388 -15 Z M 388 63 C 462 63 523 87 570 136 C 617 185 641 249 641 329 C 641 408 617 472 570 521 C 523 570 462 595 388 595 C 313 595 252 570 205 521 C 157 472 134 408 134 329 C 134 249 157 185 205 136 C 252 87 313 63 388 63 Z" unicode="Ŏ" />
<glyph horiz-adv-x="556" d="M 279 516 C 243 516 214 528 192 552 C 170 576 159 608 159 650 L 216 650 C 216 627 221 609 233 595 C 245 581 260 575 279 575 C 298 575 313 581 325 595 C 337 609 343 627 343 650 L 399 650 C 399 608 388 576 366 552 C 344 528 315 516 279 516 Z M 278 -11 C 207 -11 150 11 106 56 C 62 100 41 159 41 232 C 41 305 62 364 106 409 C 150 454 207 477 278 477 C 348 477 404 454 448 410 C 492 365 514 306 514 233 C 514 159 492 100 448 56 C 404 11 348 -11 278 -11 Z M 278 63 C 324 63 361 78 389 110 C 417 141 431 182 431 232 C 431 282 417 323 389 355 C 361 387 324 403 278 403 C 232 403 194 387 166 356 C 138 324 124 283 124 233 C 124 182 138 141 166 110 C 194 78 232 63 278 63 Z" unicode="ŏ" />
<glyph horiz-adv-x="775" d="M 286 723 L 373 852 L 448 852 L 353 723 L 286 723 Z M 420 723 L 513 852 L 587 852 L 487 723 L 420 723 Z M 388 -15 C 287 -15 205 17 142 81 C 79 145 48 227 48 329 C 48 431 79 513 143 577 C 207 641 288 673 388 673 C 486 673 567 641 631 578 C 695 515 727 432 727 329 C 727 226 695 143 633 80 C 570 16 488 -15 388 -15 Z M 388 63 C 462 63 523 87 570 136 C 617 185 641 249 641 329 C 641 408 617 472 570 521 C 523 570 462 595 388 595 C 313 595 252 570 205 521 C 157 472 134 408 134 329 C 134 249 157 185 205 136 C 252 87 313 63 388 63 Z" unicode="Ő" />
<glyph horiz-adv-x="556" d="M 169 523 L 260 659 L 341 659 L 241 523 L 169 523 Z M 312 523 L 409 659 L 489 659 L 384 523 L 312 523 Z M 278 -11 C 207 -11 150 11 106 56 C 62 100 41 159 41 232 C 41 305 62 364 106 409 C 150 454 207 477 278 477 C 348 477 404 454 448 410 C 492 365 514 306 514 233 C 514 159 492 100 448 56 C 404 11 348 -11 278 -11 Z M 278 63 C 324 63 361 78 389 110 C 417 141 431 182 431 232 C 431 282 417 323 389 355 C 361 387 324 403 278 403 C 232 403 194 387 166 356 C 138 324 124 283 124 233 C 124 182 138 141 166 110 C 194 78 232 63 278 63 Z" unicode="ő" />
<glyph horiz-adv-x="890" d="M 393 0 C 288 0 204 30 142 90 C 79 150 48 230 48 331 C 48 430 79 509 142 569 C 205 628 290 658 396 658 L 822 658 L 822 579 L 545 579 L 545 373 L 810 373 L 810 294 L 545 294 L 545 79 L 832 79 L 832 0 L 393 0 Z M 390 79 L 460 79 L 460 579 L 393 579 C 314 579 251 556 204 511 C 157 466 134 406 134 331 C 134 253 157 192 203 147 C 249 101 312 79 390 79 Z" unicode="Œ" />
<glyph horiz-adv-x="875" d="M 273 -10 C 202 -10 146 12 104 56 C 62 100 41 159 41 232 C 41 305 62 364 104 409 C 146 453 202 476 273 476 C 315 476 351 467 383 449 C 414 431 439 408 458 378 C 475 408 498 431 528 449 C 558 467 592 476 631 476 C 693 476 743 455 779 415 C 815 374 834 316 834 241 L 834 211 L 500 211 C 500 164 514 127 542 100 C 569 73 608 60 658 60 C 685 60 712 64 740 74 C 767 83 794 97 822 116 L 822 38 C 793 22 764 10 735 2 C 706 -6 677 -10 649 -10 C 604 -10 565 -1 533 15 C 501 32 475 56 457 87 C 439 57 414 33 383 16 C 351 -1 315 -10 273 -10 Z M 630 408 C 593 408 563 395 539 371 C 515 346 502 314 500 274 L 752 274 C 752 315 741 348 719 372 C 697 396 668 408 630 408 Z M 273 64 C 319 64 355 79 381 111 C 407 142 421 183 421 233 C 421 283 407 324 381 355 C 355 386 319 402 273 402 C 227 402 190 386 164 355 C 137 324 124 283 124 233 C 124 182 137 141 164 110 C 190 79 227 64 273 64 Z" unicode="œ" />
<glyph horiz-adv-x="533" d="M 270 715 L 195 715 L 289 845 L 374 845 L 270 715 Z M 416 0 L 341 206 C 330 234 316 255 298 268 C 280 281 258 288 232 288 L 157 288 L 157 0 L 73 0 L 73 658 L 249 658 C 311 658 361 642 397 610 C 433 578 452 536 452 484 C 452 444 441 410 420 381 C 399 351 369 331 329 320 C 351 313 369 302 385 286 C 400 270 412 249 422 225 L 507 0 L 416 0 Z M 157 360 L 250 360 C 286 360 314 370 335 390 C 355 410 366 438 366 473 C 366 506 355 532 333 552 C 311 572 283 582 247 582 L 157 582 L 157 360 Z" unicode="Ŕ" />
<glyph horiz-adv-x="318" d="M 214 524 L 132 524 L 230 661 L 323 661 L 214 524 Z M 63 0 L 63 466 L 145 466 L 145 398 C 155 422 170 441 190 455 C 210 469 231 476 253 476 C 261 476 270 475 279 474 C 287 472 296 470 305 468 L 305 377 C 294 381 283 385 273 387 C 262 389 251 390 240 390 C 218 390 199 384 183 373 C 166 362 153 348 145 332 L 145 0 L 63 0 Z" unicode="ŕ" />
<glyph horiz-adv-x="533" d="M 416 0 L 341 206 C 330 234 316 255 298 268 C 280 281 258 288 232 288 L 157 288 L 157 0 L 73 0 L 73 658 L 249 658 C 311 658 361 642 397 610 C 433 578 452 536 452 484 C 452 444 441 410 420 381 C 399 351 369 331 329 320 C 351 313 369 302 385 286 C 400 270 412 249 422 225 L 507 0 L 416 0 Z M 157 360 L 250 360 C 286 360 314 370 335 390 C 355 410 366 438 366 473 C 366 506 355 532 333 552 C 311 572 283 582 247 582 L 157 582 L 157 360 Z M 268 -229 L 215 -204 C 229 -184 238 -165 244 -147 C 249 -129 252 -110 252 -88 L 252 -48 L 319 -48 L 319 -88 C 319 -112 314 -137 306 -161 C 298 -185 285 -207 268 -229 Z" unicode="Ŗ" />
<glyph horiz-adv-x="318" d="M 63 0 L 63 466 L 145 466 L 145 398 C 155 422 170 441 190 455 C 210 469 231 476 253 476 C 261 476 270 475 279 474 C 287 472 296 470 305 468 L 305 377 C 294 381 283 385 273 387 C 262 389 251 390 240 390 C 218 390 199 384 183 373 C 166 362 153 348 145 332 L 145 0 L 63 0 Z M 90 -244 L 32 -217 C 46 -196 56 -176 62 -157 C 68 -138 71 -117 71 -94 L 71 -52 L 144 -52 L 144 -94 C 144 -120 139 -146 131 -172 C 122 -197 108 -221 90 -244 Z" unicode="ŗ" />
<glyph horiz-adv-x="533" d="M 210 710 L 115 837 L 182 837 L 241 762 L 300 837 L 367 837 L 272 710 L 210 710 Z M 416 0 L 341 206 C 330 234 316 255 298 268 C 280 281 258 288 232 288 L 157 288 L 157 0 L 73 0 L 73 658 L 249 658 C 311 658 361 642 397 610 C 433 578 452 536 452 484 C 452 444 441 410 420 381 C 399 351 369 331 329 320 C 351 313 369 302 385 286 C 400 270 412 249 422 225 L 507 0 L 416 0 Z M 157 360 L 250 360 C 286 360 314 370 335 390 C 355 410 366 438 366 473 C 366 506 355 532 333 552 C 311 572 283 582 247 582 L 157 582 L 157 360 Z" unicode="Ř" />
<glyph horiz-adv-x="318" d="M 151 524 L 52 658 L 124 658 L 185 580 L 246 658 L 318 658 L 219 524 L 151 524 Z M 63 0 L 63 466 L 145 466 L 145 398 C 155 422 170 441 190 455 C 210 469 231 476 253 476 C 261 476 270 475 279 474 C 287 472 296 470 305 468 L 305 377 C 294 381 283 385 273 387 C 262 389 251 390 240 390 C 218 390 199 384 183 373 C 166 362 153 348 145 332 L 145 0 L 63 0 Z" unicode="ř" />
<glyph horiz-adv-x="506" d="M 288 723 L 213 723 L 307 853 L 392 853 L 288 723 Z M 242 -15 C 208 -15 175 -10 144 -2 C 113 5 84 18 56 35 L 56 125 C 82 104 111 88 142 78 C 173 68 205 63 239 63 C 276 63 306 72 329 91 C 351 110 363 136 363 169 C 363 199 353 224 333 243 C 313 262 282 280 239 296 L 222 303 C 166 323 125 348 99 378 C 72 408 59 446 59 494 C 59 546 77 589 113 623 C 149 656 197 673 257 673 C 287 673 317 669 345 661 C 373 653 400 642 428 627 L 428 535 C 403 554 377 569 350 579 C 322 589 293 595 263 595 C 225 595 196 586 175 568 C 154 550 144 526 144 496 C 144 468 153 445 172 428 C 190 410 219 394 259 380 L 277 374 C 335 352 378 326 406 295 C 434 264 448 225 448 178 C 448 120 429 74 391 38 C 353 2 304 -15 242 -15 Z" unicode="Ś" />
<glyph horiz-adv-x="390" d="M 226 524 L 144 524 L 242 661 L 335 661 L 226 524 Z M 186 -10 C 161 -10 136 -6 112 0 C 87 5 64 14 43 25 L 43 100 C 63 86 86 76 110 69 C 134 61 158 58 183 58 C 209 58 230 63 245 75 C 260 86 268 102 268 123 C 268 140 261 155 248 167 C 234 179 213 190 185 200 L 170 205 C 126 219 93 237 73 259 C 52 281 42 309 42 343 C 42 384 55 416 82 440 C 108 464 147 476 197 476 C 219 476 242 473 266 468 C 290 463 312 456 334 448 L 334 372 C 314 384 293 393 270 399 C 247 405 224 409 202 409 C 177 409 158 403 144 393 C 130 382 124 367 124 349 C 124 333 129 320 141 309 C 153 297 172 287 200 279 L 215 274 C 262 258 296 239 318 217 C 340 195 351 166 351 132 C 351 89 336 55 308 29 C 279 3 238 -10 186 -10 Z" unicode="ś" />
<glyph horiz-adv-x="506" d="M 200 723 L 133 723 L 228 850 L 290 850 L 385 723 L 318 723 L 259 797 L 200 723 Z M 242 -15 C 208 -15 175 -10 144 -2 C 113 5 84 18 56 35 L 56 125 C 82 104 111 88 142 78 C 173 68 205 63 239 63 C 276 63 306 72 329 91 C 351 110 363 136 363 169 C 363 199 353 224 333 243 C 313 262 282 280 239 296 L 222 303 C 166 323 125 348 99 378 C 72 408 59 446 59 494 C 59 546 77 589 113 623 C 149 656 197 673 257 673 C 287 673 317 669 345 661 C 373 653 400 642 428 627 L 428 535 C 403 554 377 569 350 579 C 322 589 293 595 263 595 C 225 595 196 586 175 568 C 154 550 144 526 144 496 C 144 468 153 445 172 428 C 190 410 219 394 259 380 L 277 374 C 335 352 378 326 406 295 C 434 264 448 225 448 178 C 448 120 429 74 391 38 C 353 2 304 -15 242 -15 Z" unicode="Ŝ" />
<glyph horiz-adv-x="390" d="M 136 524 L 64 524 L 163 658 L 231 658 L 330 524 L 258 524 L 197 601 L 136 524 Z M 186 -10 C 161 -10 136 -6 112 0 C 87 5 64 14 43 25 L 43 100 C 63 86 86 76 110 69 C 134 61 158 58 183 58 C 209 58 230 63 245 75 C 260 86 268 102 268 123 C 268 140 261 155 248 167 C 234 179 213 190 185 200 L 170 205 C 126 219 93 237 73 259 C 52 281 42 309 42 343 C 42 384 55 416 82 440 C 108 464 147 476 197 476 C 219 476 242 473 266 468 C 290 463 312 456 334 448 L 334 372 C 314 384 293 393 270 399 C 247 405 224 409 202 409 C 177 409 158 403 144 393 C 130 382 124 367 124 349 C 124 333 129 320 141 309 C 153 297 172 287 200 279 L 215 274 C 262 258 296 239 318 217 C 340 195 351 166 351 132 C 351 89 336 55 308 29 C 279 3 238 -10 186 -10 Z" unicode="ŝ" />
<glyph horiz-adv-x="506" d="M 242 -15 C 208 -15 175 -10 144 -2 C 113 5 84 18 56 35 L 56 125 C 82 104 111 88 142 78 C 173 68 205 63 239 63 C 276 63 306 72 329 91 C 351 110 363 136 363 169 C 363 199 353 224 333 243 C 313 262 282 280 239 296 L 222 303 C 166 323 125 348 99 378 C 72 408 59 446 59 494 C 59 546 77 589 113 623 C 149 656 197 673 257 673 C 287 673 317 669 345 661 C 373 653 400 642 428 627 L 428 535 C 403 554 377 569 350 579 C 322 589 293 595 263 595 C 225 595 196 586 175 568 C 154 550 144 526 144 496 C 144 468 153 445 172 428 C 190 410 219 394 259 380 L 277 374 C 335 352 378 326 406 295 C 434 264 448 225 448 178 C 448 120 429 74 391 38 C 353 2 304 -15 242 -15 Z M 261 -206 C 250 -206 239 -204 229 -202 C 218 -200 208 -196 199 -192 L 199 -144 C 207 -149 215 -153 224 -156 C 233 -159 242 -161 251 -161 C 261 -161 270 -157 276 -151 C 282 -145 286 -137 286 -127 C 286 -116 282 -108 275 -102 C 267 -96 258 -93 247 -93 L 240 -93 L 240 -48 L 247 -48 C 275 -48 298 -55 316 -69 C 333 -83 342 -103 342 -127 C 342 -151 334 -170 320 -184 C 305 -198 285 -206 261 -206 Z" unicode="Ş" />
<glyph horiz-adv-x="390" d="M 186 -10 C 161 -10 136 -6 112 0 C 87 5 64 14 43 25 L 43 100 C 63 86 86 76 110 69 C 134 61 158 58 183 58 C 209 58 230 63 245 75 C 260 86 268 102 268 123 C 268 140 261 155 248 167 C 234 179 213 190 185 200 L 170 205 C 126 219 93 237 73 259 C 52 281 42 309 42 343 C 42 384 55 416 82 440 C 108 464 147 476 197 476 C 219 476 242 473 266 468 C 290 463 312 456 334 448 L 334 372 C 314 384 293 393 270 399 C 247 405 224 409 202 409 C 177 409 158 403 144 393 C 130 382 124 367 124 349 C 124 333 129 320 141 309 C 153 297 172 287 200 279 L 215 274 C 262 258 296 239 318 217 C 340 195 351 166 351 132 C 351 89 336 55 308 29 C 279 3 238 -10 186 -10 Z M 210 -212 C 199 -212 188 -210 177 -208 C 165 -205 155 -201 145 -197 L 145 -146 C 153 -151 162 -155 172 -158 C 182 -161 191 -163 200 -163 C 210 -163 219 -159 225 -153 C 231 -147 235 -138 235 -128 C 235 -117 231 -108 224 -102 C 216 -95 207 -92 195 -92 L 187 -92 L 187 -44 L 196 -44 C 226 -44 250 -51 268 -67 C 286 -82 296 -102 296 -128 C 296 -153 288 -173 272 -189 C 256 -204 236 -212 210 -212 Z" unicode="ş" />
<glyph horiz-adv-x="506" d="M 228 718 L 133 845 L 200 845 L 259 770 L 318 845 L 385 845 L 290 718 L 228 718 Z M 242 -15 C 208 -15 175 -10 144 -2 C 113 5 84 18 56 35 L 56 125 C 82 104 111 88 142 78 C 173 68 205 63 239 63 C 276 63 306 72 329 91 C 351 110 363 136 363 169 C 363 199 353 224 333 243 C 313 262 282 280 239 296 L 222 303 C 166 323 125 348 99 378 C 72 408 59 446 59 494 C 59 546 77 589 113 623 C 149 656 197 673 257 673 C 287 673 317 669 345 661 C 373 653 400 642 428 627 L 428 535 C 403 554 377 569 350 579 C 322 589 293 595 263 595 C 225 595 196 586 175 568 C 154 550 144 526 144 496 C 144 468 153 445 172 428 C 190 410 219 394 259 380 L 277 374 C 335 352 378 326 406 295 C 434 264 448 225 448 178 C 448 120 429 74 391 38 C 353 2 304 -15 242 -15 Z" unicode="Š" />
<glyph horiz-adv-x="390" d="M 163 524 L 64 658 L 136 658 L 197 580 L 258 658 L 330 658 L 231 524 L 163 524 Z M 186 -10 C 161 -10 136 -6 112 0 C 87 5 64 14 43 25 L 43 100 C 63 86 86 76 110 69 C 134 61 158 58 183 58 C 209 58 230 63 245 75 C 260 86 268 102 268 123 C 268 140 261 155 248 167 C 234 179 213 190 185 200 L 170 205 C 126 219 93 237 73 259 C 52 281 42 309 42 343 C 42 384 55 416 82 440 C 108 464 147 476 197 476 C 219 476 242 473 266 468 C 290 463 312 456 334 448 L 334 372 C 314 384 293 393 270 399 C 247 405 224 409 202 409 C 177 409 158 403 144 393 C 130 382 124 367 124 349 C 124 333 129 320 141 309 C 153 297 172 287 200 279 L 215 274 C 262 258 296 239 318 217 C 340 195 351 166 351 132 C 351 89 336 55 308 29 C 279 3 238 -10 186 -10 Z" unicode="š" />
<glyph horiz-adv-x="557" d="M 237 0 L 237 579 L 20 579 L 20 658 L 537 658 L 537 579 L 321 579 L 321 0 L 237 0 Z M 292 -202 C 281 -202 270 -200 260 -198 C 249 -196 239 -192 230 -188 L 230 -140 C 238 -145 246 -149 255 -152 C 264 -155 273 -157 282 -157 C 292 -157 301 -153 307 -147 C 313 -141 317 -133 317 -123 C 317 -112 313 -104 306 -98 C 298 -92 289 -89 278 -89 L 271 -89 L 271 -44 L 278 -44 C 306 -44 329 -51 347 -65 C 364 -79 373 -99 373 -123 C 373 -147 365 -166 351 -180 C 336 -194 316 -202 292 -202 Z" unicode="Ţ" />
<glyph horiz-adv-x="307" d="M 191 -9 C 158 -9 132 0 114 19 C 95 37 86 64 86 98 L 86 392 L 18 392 L 18 466 L 86 466 L 86 609 L 168 609 L 168 466 L 276 466 L 276 392 L 168 392 L 168 119 C 168 102 172 89 182 80 C 191 70 203 66 218 66 C 228 66 238 67 248 70 C 258 72 267 77 276 84 L 276 10 C 263 3 249 -1 235 -4 C 220 -7 205 -9 191 -9 Z M 203 -216 C 192 -216 181 -214 170 -212 C 158 -209 148 -205 138 -201 L 138 -150 C 146 -155 155 -159 165 -162 C 175 -165 184 -167 193 -167 C 203 -167 212 -163 218 -157 C 224 -151 228 -142 228 -132 C 228 -121 224 -112 217 -106 C 209 -99 200 -96 188 -96 L 180 -96 L 180 -48 L 189 -48 C 219 -48 243 -55 261 -71 C 279 -86 289 -106 289 -132 C 289 -157 281 -177 265 -193 C 249 -208 229 -216 203 -216 Z" unicode="ţ" />
<glyph horiz-adv-x="557" d="M 250 710 L 155 837 L 222 837 L 281 762 L 340 837 L 407 837 L 312 710 L 250 710 Z M 237 0 L 237 579 L 20 579 L 20 658 L 537 658 L 537 579 L 321 579 L 321 0 L 237 0 Z" unicode="Ť" />
<glyph horiz-adv-x="394" d="M 292 528 L 234 555 C 248 575 258 595 264 614 C 269 633 272 654 272 678 L 272 720 L 346 720 L 346 678 C 346 651 341 625 332 600 C 323 574 310 550 292 528 Z M 191 -9 C 158 -9 132 0 114 19 C 95 37 86 64 86 98 L 86 392 L 18 392 L 18 466 L 86 466 L 86 609 L 168 609 L 168 466 L 276 466 L 276 392 L 168 392 L 168 119 C 168 102 172 89 182 80 C 191 70 203 66 218 66 C 228 66 238 67 248 70 C 258 72 267 77 276 84 L 276 10 C 263 3 249 -1 235 -4 C 220 -7 205 -9 191 -9 Z" unicode="ť" />
<glyph horiz-adv-x="557" d="M 237 0 L 237 310 L 113 310 L 113 383 L 237 383 L 237 579 L 20 579 L 20 658 L 537 658 L 537 579 L 321 579 L 321 383 L 445 383 L 445 310 L 321 310 L 321 0 L 237 0 Z" unicode="Ŧ" />
<glyph horiz-adv-x="307" d="M 191 -9 C 158 -9 132 0 114 19 C 95 37 86 64 86 98 L 86 237 L 34 237 L 34 306 L 86 306 L 86 392 L 18 392 L 18 466 L 86 466 L 86 609 L 168 609 L 168 466 L 276 466 L 276 392 L 168 392 L 168 306 L 240 306 L 240 237 L 168 237 L 168 119 C 168 102 172 89 182 80 C 191 70 203 66 218 66 C 228 66 238 67 248 70 C 258 72 267 77 276 84 L 276 10 C 263 3 249 -1 235 -4 C 220 -7 205 -9 191 -9 Z" unicode="ŧ" />
<glyph horiz-adv-x="664" d="M 241 715 L 193 715 C 195 747 203 772 218 790 C 233 808 253 817 277 817 C 287 817 298 814 309 810 C 319 806 331 799 345 789 C 353 782 361 776 369 772 C 376 768 384 766 392 766 C 402 766 410 769 417 777 C 424 785 428 796 430 811 L 478 811 C 476 777 467 752 451 735 C 435 717 416 709 394 709 C 381 709 369 711 359 716 C 349 720 338 727 326 737 C 317 744 309 750 301 754 C 293 758 286 760 279 760 C 268 760 259 756 252 748 C 245 740 241 729 241 715 Z M 333 -12 C 251 -12 186 12 138 62 C 90 112 66 178 66 260 L 66 658 L 150 658 L 150 260 C 150 202 166 155 200 120 C 234 85 278 68 333 68 C 389 68 433 85 467 120 C 500 155 517 202 517 260 L 517 658 L 598 658 L 598 260 C 598 178 573 112 525 62 C 477 12 413 -12 333 -12 Z" unicode="Ũ" />
<glyph horiz-adv-x="503" d="M 154 524 L 102 524 C 103 558 112 585 128 604 C 144 623 165 633 190 633 C 202 633 213 630 224 626 C 234 621 247 613 261 603 C 271 596 279 590 287 586 C 294 582 302 580 311 580 C 321 580 330 584 337 592 C 344 600 348 611 350 626 L 402 626 C 400 590 390 563 374 545 C 358 526 337 517 313 517 C 300 517 288 519 277 524 C 266 529 254 537 242 547 C 232 554 224 560 216 564 C 208 568 200 570 193 570 C 182 570 173 566 166 558 C 158 550 154 538 154 524 Z M 218 -10 C 168 -10 129 6 102 38 C 74 70 61 112 61 164 L 61 466 L 143 466 L 143 175 C 143 140 152 113 170 93 C 188 73 212 64 243 64 C 269 64 292 70 312 84 C 332 97 347 114 358 135 L 358 466 L 440 466 L 440 0 L 365 0 L 358 63 C 341 39 321 20 298 8 C 275 -3 248 -10 218 -10 Z" unicode="ũ" />
<glyph horiz-adv-x="664" d="M 230 715 L 230 776 L 445 776 L 445 715 L 230 715 Z M 333 -12 C 251 -12 186 12 138 62 C 90 112 66 178 66 260 L 66 658 L 150 658 L 150 260 C 150 202 166 155 200 120 C 234 85 278 68 333 68 C 389 68 433 85 467 120 C 500 155 517 202 517 260 L 517 658 L 598 658 L 598 260 C 598 178 573 112 525 62 C 477 12 413 -12 333 -12 Z" unicode="Ū" />
<glyph horiz-adv-x="503" d="M 139 532 L 139 598 L 366 598 L 366 532 L 139 532 Z M 218 -10 C 168 -10 129 6 102 38 C 74 70 61 112 61 164 L 61 466 L 143 466 L 143 175 C 143 140 152 113 170 93 C 188 73 212 64 243 64 C 269 64 292 70 312 84 C 332 97 347 114 358 135 L 358 466 L 440 466 L 440 0 L 365 0 L 358 63 C 341 39 321 20 298 8 C 275 -3 248 -10 218 -10 Z" unicode="ū" />
<glyph horiz-adv-x="664" d="M 336 706 C 302 706 274 717 254 740 C 233 762 223 793 223 833 L 276 833 C 276 810 281 792 292 779 C 303 766 318 760 336 760 C 354 760 369 766 381 779 C 392 792 398 810 398 833 L 450 833 C 450 793 439 762 419 740 C 398 717 370 706 336 706 Z M 333 -12 C 251 -12 186 12 138 62 C 90 112 66 178 66 260 L 66 658 L 150 658 L 150 260 C 150 202 166 155 200 120 C 234 85 278 68 333 68 C 389 68 433 85 467 120 C 500 155 517 202 517 260 L 517 658 L 598 658 L 598 260 C 598 178 573 112 525 62 C 477 12 413 -12 333 -12 Z" unicode="Ŭ" />
<glyph horiz-adv-x="503" d="M 252 516 C 216 516 187 528 165 552 C 143 576 132 608 132 650 L 189 650 C 189 627 194 609 206 595 C 218 581 233 575 252 575 C 271 575 286 581 298 595 C 310 609 316 627 316 650 L 372 650 C 372 608 361 576 339 552 C 317 528 288 516 252 516 Z M 218 -10 C 168 -10 129 6 102 38 C 74 70 61 112 61 164 L 61 466 L 143 466 L 143 175 C 143 140 152 113 170 93 C 188 73 212 64 243 64 C 269 64 292 70 312 84 C 332 97 347 114 358 135 L 358 466 L 440 466 L 440 0 L 365 0 L 358 63 C 341 39 321 20 298 8 C 275 -3 248 -10 218 -10 Z" unicode="ŭ" />
<glyph horiz-adv-x="664" d="M 337 620 C 311 620 290 628 275 645 C 259 661 252 681 252 705 C 252 728 259 748 275 765 C 290 782 311 791 337 791 C 363 791 383 782 399 765 C 414 748 422 728 422 705 C 422 681 414 661 399 645 C 383 628 363 620 337 620 Z M 337 664 C 347 664 356 667 364 675 C 372 682 376 692 376 705 C 376 717 372 727 364 735 C 356 743 347 747 337 747 C 326 747 317 743 309 735 C 301 727 298 717 298 705 C 298 692 301 682 309 675 C 317 667 326 664 337 664 Z M 333 -12 C 251 -12 186 12 138 62 C 90 112 66 178 66 260 L 66 658 L 150 658 L 150 260 C 150 202 166 155 200 120 C 234 85 278 68 333 68 C 389 68 433 85 467 120 C 500 155 517 202 517 260 L 517 658 L 598 658 L 598 260 C 598 178 573 112 525 62 C 477 12 413 -12 333 -12 Z" unicode="Ů" />
<glyph horiz-adv-x="503" d="M 253 456 C 225 456 203 464 187 482 C 171 500 163 521 163 546 C 163 570 171 592 187 610 C 203 628 225 637 253 637 C 281 637 303 628 319 610 C 335 592 344 570 344 546 C 344 521 335 500 319 482 C 303 464 281 456 253 456 Z M 253 504 C 264 504 274 507 282 515 C 290 523 295 533 295 546 C 295 558 290 569 282 577 C 274 585 264 590 253 590 C 242 590 232 585 224 577 C 216 569 212 558 212 546 C 212 533 216 523 224 515 C 232 507 242 504 253 504 Z M 218 -10 C 168 -10 129 6 102 38 C 74 70 61 112 61 164 L 61 466 L 143 466 L 143 175 C 143 140 152 113 170 93 C 188 73 212 64 243 64 C 269 64 292 70 312 84 C 332 97 347 114 358 135 L 358 466 L 440 466 L 440 0 L 365 0 L 358 63 C 341 39 321 20 298 8 C 275 -3 248 -10 218 -10 Z" unicode="ů" />
<glyph horiz-adv-x="664" d="M 233 715 L 320 844 L 395 844 L 300 715 L 233 715 Z M 367 715 L 460 844 L 534 844 L 434 715 L 367 715 Z M 333 -12 C 251 -12 186 12 138 62 C 90 112 66 178 66 260 L 66 658 L 150 658 L 150 260 C 150 202 166 155 200 120 C 234 85 278 68 333 68 C 389 68 433 85 467 120 C 500 155 517 202 517 260 L 517 658 L 598 658 L 598 260 C 598 178 573 112 525 62 C 477 12 413 -12 333 -12 Z" unicode="Ű" />
<glyph horiz-adv-x="503" d="M 142 523 L 233 659 L 314 659 L 214 523 L 142 523 Z M 285 523 L 382 659 L 462 659 L 357 523 L 285 523 Z M 218 -10 C 168 -10 129 6 102 38 C 74 70 61 112 61 164 L 61 466 L 143 466 L 143 175 C 143 140 152 113 170 93 C 188 73 212 64 243 64 C 269 64 292 70 312 84 C 332 97 347 114 358 135 L 358 466 L 440 466 L 440 0 L 365 0 L 358 63 C 341 39 321 20 298 8 C 275 -3 248 -10 218 -10 Z" unicode="ű" />
<glyph horiz-adv-x="664" d="M 505 -220 C 452 -220 410 -207 378 -181 C 346 -155 330 -121 330 -81 C 330 -67 331 -55 335 -43 C 338 -31 343 -21 349 -12 C 346 -12 343 -12 341 -12 C 338 -12 335 -12 333 -12 C 251 -12 186 12 138 62 C 90 112 66 178 66 260 L 66 658 L 150 658 L 150 260 C 150 202 166 155 200 120 C 234 85 278 68 333 68 C 389 68 433 85 467 120 C 500 155 517 202 517 260 L 517 658 L 598 658 L 598 260 C 598 202 585 151 559 107 C 533 63 499 32 455 14 C 438 6 425 -4 416 -18 C 406 -31 402 -47 402 -66 C 402 -91 411 -112 430 -128 C 449 -144 474 -153 505 -153 L 505 -220 Z" unicode="Ų" />
<glyph horiz-adv-x="503" d="M 218 -10 C 168 -10 129 6 102 38 C 74 70 61 112 61 164 L 61 466 L 143 466 L 143 175 C 143 140 152 113 170 93 C 188 73 212 64 243 64 C 269 64 292 70 312 84 C 332 97 347 114 358 135 L 358 466 L 440 466 L 440 0 L 439 0 C 414 -11 395 -25 382 -42 C 369 -59 363 -78 363 -98 C 363 -115 369 -128 382 -138 C 395 -148 414 -153 439 -153 L 439 -220 C 393 -220 357 -211 331 -195 C 305 -179 293 -153 293 -119 C 293 -96 299 -75 311 -55 C 323 -35 342 -16 366 0 L 365 0 L 358 63 C 341 39 321 20 298 8 C 275 -3 248 -10 218 -10 Z" unicode="ų" />
<glyph horiz-adv-x="946" d="M 416 715 L 349 715 L 444 842 L 506 842 L 601 715 L 534 715 L 475 789 L 416 715 Z M 223 0 L 18 658 L 105 658 L 252 175 L 269 107 L 286 175 L 432 658 L 520 658 L 665 175 L 682 106 L 700 175 L 845 658 L 928 658 L 723 0 L 635 0 L 490 483 L 473 551 L 456 483 L 311 0 L 223 0 Z" unicode="Ŵ" />
<glyph horiz-adv-x="741" d="M 312 524 L 240 524 L 339 658 L 407 658 L 506 524 L 434 524 L 373 601 L 312 524 Z M 165 0 L 15 466 L 100 466 L 201 151 L 217 86 L 233 151 L 332 466 L 417 466 L 516 151 L 532 87 L 548 151 L 648 466 L 726 466 L 576 0 L 482 0 L 389 296 L 372 366 L 354 296 L 259 0 L 165 0 Z" unicode="ŵ" />
<glyph horiz-adv-x="590" d="M 237 715 L 170 715 L 265 842 L 327 842 L 422 715 L 355 715 L 296 789 L 237 715 Z M 253 0 L 253 281 L 13 658 L 111 658 L 266 414 L 298 358 L 331 414 L 485 658 L 577 658 L 337 280 L 337 0 L 253 0 Z" unicode="Ŷ" />
<glyph horiz-adv-x="470" d="M 175 524 L 103 524 L 202 658 L 270 658 L 369 524 L 297 524 L 236 601 L 175 524 Z M 6 -215 L -2 -215 L -2 -140 L 6 -140 C 50 -140 86 -130 115 -111 C 143 -92 169 -58 192 -8 L 183 17 L 13 466 L 100 466 L 217 151 L 236 90 L 255 151 L 372 466 L 455 466 L 286 22 C 252 -68 214 -130 172 -164 C 130 -198 74 -215 6 -215 Z" unicode="ŷ" />
<glyph horiz-adv-x="590" d="M 182 715 L 182 791 L 257 791 L 257 715 L 182 715 Z M 333 715 L 333 791 L 408 791 L 408 715 L 333 715 Z M 253 0 L 253 281 L 13 658 L 111 658 L 266 414 L 298 358 L 331 414 L 485 658 L 577 658 L 337 280 L 337 0 L 253 0 Z" unicode="Ÿ" />
<glyph horiz-adv-x="587" d="M 326 715 L 251 715 L 345 845 L 430 845 L 326 715 Z M 50 0 L 50 47 L 382 534 L 413 579 L 57 579 L 57 658 L 537 658 L 537 613 L 204 124 L 173 79 L 537 79 L 537 0 L 50 0 Z" unicode="Ź" />
<glyph horiz-adv-x="434" d="M 246 524 L 164 524 L 262 661 L 355 661 L 246 524 Z M 40 0 L 40 58 L 252 355 L 281 392 L 44 392 L 44 466 L 390 466 L 390 408 L 177 111 L 149 74 L 395 74 L 395 0 L 40 0 Z" unicode="ź" />
<glyph horiz-adv-x="587" d="M 257 715 L 257 796 L 338 796 L 338 715 L 257 715 Z M 50 0 L 50 47 L 382 534 L 413 579 L 57 579 L 57 658 L 537 658 L 537 613 L 204 124 L 173 79 L 537 79 L 537 0 L 50 0 Z" unicode="Ż" />
<glyph horiz-adv-x="434" d="M 172 532 L 172 620 L 260 620 L 260 532 L 172 532 Z M 40 0 L 40 58 L 252 355 L 281 392 L 44 392 L 44 466 L 390 466 L 390 408 L 177 111 L 149 74 L 395 74 L 395 0 L 40 0 Z" unicode="ż" />
<glyph horiz-adv-x="587" d="M 266 710 L 171 837 L 238 837 L 297 762 L 356 837 L 423 837 L 328 710 L 266 710 Z M 50 0 L 50 47 L 382 534 L 413 579 L 57 579 L 57 658 L 537 658 L 537 613 L 204 124 L 173 79 L 537 79 L 537 0 L 50 0 Z" unicode="Ž" />
<glyph horiz-adv-x="434" d="M 183 524 L 84 658 L 156 658 L 217 580 L 278 658 L 350 658 L 251 524 L 183 524 Z M 40 0 L 40 58 L 252 355 L 281 392 L 44 392 L 44 466 L 390 466 L 390 408 L 177 111 L 149 74 L 395 74 L 395 0 L 40 0 Z" unicode="ž" />
<glyph horiz-adv-x="498" d="M 65 -215 C 51 -215 37 -213 23 -210 C 9 -207 -3 -202 -16 -196 L -16 -120 C -3 -126 10 -131 24 -135 C 38 -138 53 -140 69 -140 C 93 -140 113 -131 128 -113 C 143 -95 153 -71 157 -41 L 210 391 L 116 391 L 116 466 L 220 466 L 230 551 C 236 610 255 654 287 683 C 318 712 356 727 401 727 C 415 727 430 725 445 722 C 459 719 474 715 489 710 L 489 631 C 475 637 460 642 446 646 C 431 650 416 652 402 652 C 375 652 354 643 339 626 C 323 608 314 584 310 552 L 299 466 L 415 466 L 415 391 L 290 391 L 237 -42 C 230 -100 211 -143 180 -172 C 149 -200 111 -215 65 -215 Z" unicode="ƒ" />
<glyph horiz-adv-x="688" d="M 354 718 L 259 845 L 326 845 L 385 770 L 444 845 L 511 845 L 416 718 L 354 718 Z M 388 -14 C 285 -14 203 17 141 80 C 79 143 48 227 48 331 C 48 433 79 516 141 578 C 203 640 286 672 390 672 C 426 672 462 668 499 660 C 536 652 570 642 602 628 L 602 545 C 570 561 537 574 503 582 C 468 590 431 594 393 594 C 313 594 250 570 204 522 C 157 474 134 411 134 331 C 134 249 156 184 202 136 C 247 88 307 64 383 64 C 412 64 440 66 468 71 C 495 76 521 84 546 94 L 546 258 L 407 258 L 407 337 L 630 337 L 630 39 C 594 22 555 9 513 0 C 471 -9 430 -14 388 -14 Z" unicode="Ǧ" />
<glyph horiz-adv-x="521" d="M 228 524 L 129 658 L 201 658 L 262 580 L 323 658 L 395 658 L 296 524 L 228 524 Z M 245 -224 C 214 -224 183 -220 152 -213 C 121 -206 92 -196 66 -182 L 66 -100 C 91 -114 118 -126 147 -136 C 176 -146 205 -151 234 -151 C 277 -151 312 -138 338 -112 C 364 -86 378 -51 378 -7 L 378 50 C 362 30 343 15 320 5 C 297 -4 273 -10 248 -10 C 186 -10 136 10 98 52 C 60 94 41 153 41 231 C 41 306 61 366 103 410 C 144 454 197 476 262 476 C 286 476 312 471 338 461 C 364 451 385 438 401 422 L 420 466 L 460 466 L 460 0 C 460 -67 440 -121 401 -162 C 361 -203 309 -224 245 -224 Z M 264 62 C 288 62 310 67 330 79 C 350 91 366 106 378 125 L 378 364 C 366 376 349 386 329 394 C 309 401 289 405 270 405 C 224 405 189 388 163 356 C 137 323 124 282 124 232 C 124 180 136 139 160 108 C 184 77 219 62 264 62 Z" unicode="ǧ" />
<glyph horiz-adv-x="642" d="M 291 810 L 349 890 L 411 890 L 351 810 L 291 810 Z M 20 0 L 270 636 C 259 643 251 652 245 664 C 239 676 237 689 237 703 C 237 727 244 747 260 763 C 276 779 296 787 321 787 C 346 787 366 779 382 763 C 398 747 406 727 406 703 C 406 689 403 676 397 664 C 391 652 382 642 372 635 L 623 0 L 532 0 L 456 197 L 181 197 L 105 0 L 20 0 Z M 321 664 C 332 664 341 667 349 675 C 356 682 360 691 360 703 C 360 715 356 724 349 732 C 341 739 332 743 321 743 C 310 743 301 739 294 732 C 286 724 283 715 283 703 C 283 691 286 682 294 675 C 301 667 310 664 321 664 Z M 208 271 L 428 271 L 344 488 L 318 561 L 292 488 L 208 271 Z" unicode="Ǻ" />
<glyph horiz-adv-x="459" d="M 192 637 L 253 721 L 320 721 L 256 637 L 192 637 Z M 183 -10 C 139 -10 105 2 79 26 C 53 50 40 83 40 124 C 40 166 55 200 85 227 C 115 254 159 272 217 281 L 316 294 L 316 321 C 316 349 306 370 288 384 C 270 397 244 404 211 404 C 184 404 158 400 133 392 C 108 384 84 373 61 359 L 61 440 C 75 446 90 452 106 458 C 121 463 136 467 151 471 C 146 477 142 485 139 495 C 136 504 135 514 135 524 C 135 548 143 569 160 586 C 176 603 198 612 225 612 C 251 612 273 603 290 586 C 306 569 315 548 315 524 C 315 513 313 503 310 494 C 306 484 302 476 297 469 C 329 459 354 441 372 417 C 389 392 398 361 398 323 L 398 0 L 323 0 L 316 63 C 302 39 283 21 260 9 C 237 -3 211 -10 183 -10 Z M 225 483 C 236 483 246 486 254 494 C 262 501 266 511 266 524 C 266 536 262 545 254 553 C 246 561 236 565 225 565 C 213 565 204 561 196 553 C 188 545 184 536 184 524 C 184 511 188 501 196 494 C 204 486 213 483 225 483 Z M 206 57 C 231 57 253 63 273 77 C 293 90 307 107 316 128 L 316 235 L 227 223 C 193 218 166 208 148 192 C 130 176 121 156 121 132 C 121 109 128 91 143 77 C 158 63 179 57 206 57 Z" unicode="ǻ" />
<glyph horiz-adv-x="839" d="M 526 715 L 451 715 L 545 845 L 630 845 L 526 715 Z M 9 0 L 186 317 L 295 362 L 376 507 L 409 573 L 409 599 L 422 599 L 409 573 L 409 410 L 487 442 L 484 415 L 450 403 L 477 403 L 483 409 L 484 415 L 492 418 L 483 409 L 480 378 L 476 378 L 476 192 L 493 192 L 493 229 L 767 229 L 767 192 L 773 192 L 773 144 L 493 144 L 493 180 L 426 180 L 426 394 L 409 388 L 409 281 L 249 281 L 284 344 L 277 341 L 9 0 Z" unicode="Ǽ" />
<glyph horiz-adv-x="770" d="M 413 524 L 331 524 L 429 661 L 522 661 L 413 524 Z M 192 -10 C 146 -10 109 2 82 26 C 55 50 42 83 42 123 C 42 165 57 200 87 228 C 117 255 161 273 218 282 L 316 296 L 316 322 C 316 351 306 372 287 386 C 267 400 241 407 209 407 C 182 407 156 403 131 397 C 105 390 81 379 59 365 L 59 440 C 84 451 111 460 140 466 C 168 472 196 476 224 476 C 260 476 290 469 316 456 C 342 442 360 424 371 402 C 389 426 410 444 436 457 C 462 469 491 476 524 476 C 586 476 636 455 673 415 C 709 375 728 317 728 242 L 728 212 L 399 212 C 399 166 413 129 439 102 C 465 74 503 61 553 61 C 579 61 607 65 635 75 C 663 84 690 97 716 114 L 716 38 C 688 22 659 10 629 2 C 599 -5 570 -10 543 -10 C 497 -10 458 0 427 17 C 395 35 371 61 353 93 C 337 59 315 33 288 16 C 260 -1 228 -10 192 -10 Z M 523 407 C 487 407 458 395 436 371 C 414 347 401 316 399 276 L 646 276 C 646 316 635 348 613 372 C 591 395 561 407 523 407 Z M 209 57 C 237 57 261 66 280 84 C 299 102 311 124 316 149 L 316 234 L 229 221 C 195 216 170 206 152 191 C 134 176 125 157 125 133 C 125 109 132 91 147 77 C 161 63 182 57 209 57 Z" unicode="ǽ" />
<glyph horiz-adv-x="775" d="M 422 727 L 347 727 L 441 857 L 526 857 L 422 727 Z M 116 -48 L 176 50 C 136 80 104 119 82 167 C 59 215 48 269 48 329 C 48 431 79 513 143 577 C 207 641 288 673 388 673 C 416 673 442 670 468 665 C 493 659 517 652 540 642 L 579 706 L 661 706 L 600 607 C 639 577 670 538 693 490 C 715 442 727 389 727 329 C 727 226 695 143 633 80 C 570 16 488 -15 388 -15 C 360 -15 333 -12 308 -7 C 282 -1 259 5 237 15 L 198 -48 L 116 -48 Z M 134 329 C 134 285 141 245 157 209 C 172 173 193 144 220 121 L 497 573 C 481 579 463 585 445 589 C 427 593 408 595 388 595 C 313 595 252 570 205 521 C 157 472 134 408 134 329 Z M 388 63 C 462 63 523 87 570 136 C 617 185 641 249 641 329 C 641 373 633 412 618 448 C 603 483 582 512 556 536 L 279 84 C 295 77 313 72 331 68 C 349 64 368 63 388 63 Z" unicode="Ǿ" />
<glyph horiz-adv-x="556" d="M 308 523 L 226 523 L 324 660 L 417 660 L 308 523 Z M 71 -48 L 124 40 C 98 60 77 87 63 120 C 48 153 41 190 41 232 C 41 305 62 364 106 409 C 150 454 207 477 278 477 C 296 477 313 475 330 472 C 346 469 362 465 377 459 L 410 514 L 482 514 L 430 427 C 456 406 477 379 492 346 C 506 312 514 275 514 233 C 514 159 492 100 448 56 C 404 11 348 -11 278 -11 C 259 -11 241 -9 224 -6 C 207 -2 191 2 177 8 L 143 -48 L 71 -48 Z M 124 233 C 124 207 127 184 135 163 C 142 142 152 124 166 110 L 337 392 C 328 395 319 398 309 400 C 299 402 288 403 278 403 C 232 403 194 387 166 356 C 138 324 124 283 124 233 Z M 278 63 C 324 63 361 78 389 110 C 417 141 431 182 431 232 C 431 258 427 281 419 303 C 411 324 401 342 388 357 L 217 74 C 225 70 235 68 246 66 C 256 64 267 63 278 63 Z" unicode="ǿ" />
<glyph horiz-adv-x="506" d="M 242 -15 C 208 -15 175 -10 144 -2 C 113 5 84 18 56 35 L 56 125 C 82 104 111 88 142 78 C 173 68 205 63 239 63 C 276 63 306 72 329 91 C 351 110 363 136 363 169 C 363 199 353 224 333 243 C 313 262 282 280 239 296 L 222 303 C 166 323 125 348 99 378 C 72 408 59 446 59 494 C 59 546 77 589 113 623 C 149 656 197 673 257 673 C 287 673 317 669 345 661 C 373 653 400 642 428 627 L 428 535 C 403 554 377 569 350 579 C 322 589 293 595 263 595 C 225 595 196 586 175 568 C 154 550 144 526 144 496 C 144 468 153 445 172 428 C 190 410 219 394 259 380 L 277 374 C 335 352 378 326 406 295 C 434 264 448 225 448 178 C 448 120 429 74 391 38 C 353 2 304 -15 242 -15 Z M 233 -233 L 180 -208 C 194 -188 203 -169 209 -151 C 214 -133 217 -114 217 -92 L 217 -52 L 284 -52 L 284 -92 C 284 -116 279 -141 271 -165 C 263 -189 250 -211 233 -233 Z" unicode="Ș" />
<glyph horiz-adv-x="390" d="M 186 -10 C 161 -10 136 -6 112 0 C 87 5 64 14 43 25 L 43 100 C 63 86 86 76 110 69 C 134 61 158 58 183 58 C 209 58 230 63 245 75 C 260 86 268 102 268 123 C 268 140 261 155 248 167 C 234 179 213 190 185 200 L 170 205 C 126 219 93 237 73 259 C 52 281 42 309 42 343 C 42 384 55 416 82 440 C 108 464 147 476 197 476 C 219 476 242 473 266 468 C 290 463 312 456 334 448 L 334 372 C 314 384 293 393 270 399 C 247 405 224 409 202 409 C 177 409 158 403 144 393 C 130 382 124 367 124 349 C 124 333 129 320 141 309 C 153 297 172 287 200 279 L 215 274 C 262 258 296 239 318 217 C 340 195 351 166 351 132 C 351 89 336 55 308 29 C 279 3 238 -10 186 -10 Z M 181 -244 L 123 -217 C 137 -196 147 -176 153 -157 C 159 -138 162 -117 162 -94 L 162 -52 L 235 -52 L 235 -94 C 235 -120 230 -146 222 -172 C 213 -197 199 -221 181 -244 Z" unicode="ș" />
<glyph horiz-adv-x="557" d="M 237 0 L 237 579 L 20 579 L 20 658 L 537 658 L 537 579 L 321 579 L 321 0 L 237 0 Z M 264 -229 L 211 -204 C 225 -184 234 -165 240 -147 C 245 -129 248 -110 248 -88 L 248 -48 L 315 -48 L 315 -88 C 315 -112 310 -137 302 -161 C 294 -185 281 -207 264 -229 Z" unicode="Ț" />
<glyph horiz-adv-x="307" d="M 191 -9 C 158 -9 132 0 114 19 C 95 37 86 64 86 98 L 86 392 L 18 392 L 18 466 L 86 466 L 86 609 L 168 609 L 168 466 L 276 466 L 276 392 L 168 392 L 168 119 C 168 102 172 89 182 80 C 191 70 203 66 218 66 C 228 66 238 67 248 70 C 258 72 267 77 276 84 L 276 10 C 263 3 249 -1 235 -4 C 220 -7 205 -9 191 -9 Z M 174 -248 L 116 -221 C 130 -200 140 -180 146 -161 C 152 -142 155 -121 155 -98 L 155 -56 L 228 -56 L 228 -98 C 228 -124 223 -150 215 -176 C 206 -201 192 -225 174 -248 Z" unicode="ț" />
<glyph horiz-adv-x="208" d="M -23 -211 L -31 -211 L -31 -137 L -23 -137 C 3 -137 25 -127 41 -109 C 57 -91 65 -66 65 -36 L 65 466 L 147 466 L 147 -36 C 147 -89 131 -131 100 -163 C 69 -195 28 -211 -23 -211 Z" unicode="ȷ" />
<glyph horiz-adv-x="497" d="M 245 -10 C 181 -10 130 11 93 53 C 55 95 37 151 37 221 L 37 261 L 376 261 C 374 305 360 341 332 367 C 304 393 265 406 215 406 C 188 406 160 401 131 392 C 102 383 75 370 49 354 L 49 428 C 77 443 107 455 137 463 C 167 471 197 476 225 476 C 299 476 356 454 397 410 C 438 366 459 307 459 232 C 459 158 439 99 401 55 C 362 11 310 -10 245 -10 Z M 246 59 C 283 59 313 71 337 96 C 361 120 374 154 376 196 L 119 196 C 119 154 130 120 153 96 C 175 71 206 59 246 59 Z" unicode="ə" />
<glyph horiz-adv-x="315" d="M 98 524 L 26 524 L 125 658 L 193 658 L 292 524 L 220 524 L 159 601 L 98 524 Z" unicode="ˆ" />
<glyph horiz-adv-x="315" d="M 125 524 L 26 658 L 98 658 L 159 580 L 220 658 L 292 658 L 193 524 L 125 524 Z" unicode="ˇ" />
<glyph horiz-adv-x="355" d="M 179 516 C 143 516 114 528 92 552 C 70 576 59 608 59 650 L 116 650 C 116 627 121 609 133 595 C 145 581 160 575 179 575 C 198 575 213 581 225 595 C 237 609 243 627 243 650 L 299 650 C 299 608 288 576 266 552 C 244 528 215 516 179 516 Z" unicode="˘" />
<glyph horiz-adv-x="162" d="M 37 532 L 37 620 L 125 620 L 125 532 L 37 532 Z" unicode="˙" />
<glyph horiz-adv-x="222" d="M 111 456 C 83 456 61 464 45 482 C 29 500 21 521 21 546 C 21 570 29 592 45 610 C 61 628 83 637 111 637 C 139 637 161 628 177 610 C 193 592 202 570 202 546 C 202 521 193 500 177 482 C 161 464 139 456 111 456 Z M 111 504 C 122 504 132 507 140 515 C 148 523 153 533 153 546 C 153 558 148 569 140 577 C 132 585 122 590 111 590 C 100 590 90 585 82 577 C 74 569 70 558 70 546 C 70 533 74 523 82 515 C 90 507 100 504 111 504 Z" unicode="˚" />
<glyph horiz-adv-x="239" d="M 199 -220 C 150 -220 111 -208 82 -184 C 52 -160 38 -130 38 -93 C 38 -53 51 -22 79 1 C 106 24 139 36 179 36 L 189 0 C 165 0 146 -6 131 -20 C 115 -34 108 -53 108 -77 C 108 -99 116 -118 132 -132 C 148 -146 171 -153 199 -153 L 199 -220 Z" unicode="˛" />
<glyph horiz-adv-x="323" d="M 63 524 L 11 524 C 12 558 21 585 37 604 C 53 623 74 633 99 633 C 111 633 122 630 133 626 C 143 621 156 613 170 603 C 180 596 188 590 196 586 C 203 582 211 580 220 580 C 230 580 239 584 246 592 C 253 600 257 611 259 626 L 311 626 C 309 590 299 563 283 545 C 267 526 246 517 222 517 C 209 517 197 519 186 524 C 175 529 163 537 151 547 C 141 554 133 560 125 564 C 117 568 109 570 102 570 C 91 570 82 566 75 558 C 67 550 63 538 63 524 Z" unicode="˜" />
<glyph horiz-adv-x="398" d="M 47 523 L 138 659 L 219 659 L 119 523 L 47 523 Z M 190 523 L 287 659 L 367 659 L 262 523 L 190 523 Z" unicode="˝" />
<glyph horiz-adv-x="0" d="M -27 524 L -136 661 L -44 661 L 55 524 L -27 524 Z" unicode="̀" />
<glyph horiz-adv-x="0" d="M 30 524 L -52 524 L 46 661 L 139 661 L 30 524 Z" unicode="́" />
<glyph horiz-adv-x="0" d="M -60 524 L -132 524 L -33 658 L 35 658 L 134 524 L 62 524 L 1 601 L -60 524 Z" unicode="̂" />
<glyph horiz-adv-x="0" d="M -97 524 L -149 524 C -147 558 -138 585 -122 604 C -106 623 -85 633 -61 633 C -49 633 -37 630 -27 626 C -16 621 -4 613 10 603 C 20 596 28 590 36 586 C 43 582 51 580 60 580 C 70 580 79 584 86 592 C 93 600 97 611 99 626 L 151 626 C 149 590 139 563 123 545 C 107 526 86 517 62 517 C 49 517 37 519 26 524 C 15 529 3 537 -9 547 C -18 554 -27 560 -35 564 C -43 568 -50 570 -58 570 C -68 570 -77 566 -85 558 C -92 550 -96 538 -97 524 Z" unicode="̃" />
<glyph horiz-adv-x="0" d="M -112 532 L -112 598 L 115 598 L 115 532 L -112 532 Z" unicode="̄" />
<glyph horiz-adv-x="0" d="M 1 516 C -35 516 -64 528 -86 552 C -108 576 -119 608 -119 650 L -62 650 C -62 627 -56 609 -44 595 C -32 581 -17 575 1 575 C 20 575 35 581 47 595 C 59 609 65 627 65 650 L 121 650 C 121 608 110 576 88 552 C 66 528 37 516 1 516 Z" unicode="̆" />
<glyph horiz-adv-x="0" d="M -44 532 L -44 620 L 44 620 L 44 532 L -44 532 Z" unicode="̇" />
<glyph horiz-adv-x="0" d="M -120 533 L -120 614 L -39 614 L -39 533 L -120 533 Z M 40 533 L 40 614 L 121 614 L 121 533 L 40 533 Z" unicode="̈" />
<glyph horiz-adv-x="0" d="M 2 456 C -25 456 -47 464 -63 482 C -79 500 -88 521 -88 546 C -88 570 -79 592 -63 610 C -47 628 -25 637 2 637 C 30 637 52 628 68 610 C 84 592 93 570 93 546 C 93 521 84 500 68 482 C 52 464 30 456 2 456 Z M 2 504 C 13 504 23 507 31 515 C 39 523 44 533 44 546 C 44 558 39 569 31 577 C 23 585 13 590 2 590 C -8 590 -18 585 -26 577 C -34 569 -39 558 -39 546 C -39 533 -34 523 -26 515 C -18 507 -8 504 2 504 Z" unicode="̊" />
<glyph horiz-adv-x="0" d="M -109 523 L -18 659 L 63 659 L -37 523 L -109 523 Z M 34 523 L 131 659 L 211 659 L 106 523 L 34 523 Z" unicode="̋" />
<glyph horiz-adv-x="0" d="M -33 524 L -132 658 L -60 658 L 1 580 L 62 658 L 134 658 L 35 524 L -33 524 Z" unicode="̌" />
<glyph horiz-adv-x="0" d="M 19 712 L 77 685 C 62 663 52 643 47 624 C 41 605 39 584 39 562 L 39 520 L -35 520 L -35 562 C -35 588 -30 614 -22 640 C -13 665 0 689 19 712 Z" unicode="̒" />
<glyph horiz-adv-x="2" d="M -15 -232 L -73 -205 C -58 -183 -48 -163 -42 -144 C -36 -125 -34 -104 -34 -82 L -34 -40 L 39 -40 L 39 -82 C 39 -108 34 -134 26 -160 C 17 -185 3 -209 -15 -232 Z" unicode="̦" />
<glyph horiz-adv-x="0" d="M 14 -212 C 3 -212 -7 -210 -19 -208 C -30 -205 -41 -201 -51 -197 L -51 -146 C -42 -151 -33 -155 -23 -158 C -13 -161 -4 -163 4 -163 C 14 -163 23 -159 29 -153 C 35 -147 39 -138 39 -128 C 39 -117 35 -108 28 -102 C 20 -95 11 -92 -1 -92 L -9 -92 L -9 -44 L 0 -44 C 30 -44 54 -51 72 -67 C 90 -82 100 -102 100 -128 C 100 -153 92 -173 76 -189 C 60 -204 40 -212 14 -212 Z" unicode="̧" />
<glyph horiz-adv-x="0" d="M 10 -220 C -38 -220 -77 -208 -107 -184 C -136 -160 -151 -130 -151 -93 C -151 -53 -137 -22 -110 1 C -82 24 -49 36 -10 36 L 0 0 C -23 0 -42 -6 -58 -20 C -73 -34 -81 -53 -81 -77 C -81 -99 -72 -118 -56 -132 C -40 -146 -18 -153 10 -153 L 10 -220 Z" unicode="̨" />
<glyph horiz-adv-x="605" d="M 21 0 L 254 670 L 349 670 L 580 0 L 21 0 Z M 127 77 L 464 77 L 296 566 L 127 77 Z" unicode="Δ" />
<glyph horiz-adv-x="503" d="M 134 -211 L 61 -211 L 61 466 L 143 466 L 143 175 C 143 140 152 113 170 93 C 188 73 212 64 243 64 C 269 64 292 70 312 84 C 332 97 347 114 358 135 L 358 466 L 440 466 L 440 0 L 365 0 L 358 63 C 341 39 321 20 298 8 C 275 -3 248 -10 218 -10 C 196 -10 176 -6 160 0 C 144 7 130 17 120 30 L 134 -211 Z" unicode="μ" />
<glyph horiz-adv-x="523" d="M 103 0 L 103 391 L 35 391 L 35 466 L 487 466 L 487 391 L 419 391 L 419 0 L 339 0 L 339 391 L 183 391 L 183 0 L 103 0 Z" unicode="π" />
<glyph horiz-adv-x="946" d="M 446 715 L 343 845 L 428 845 L 522 715 L 446 715 Z M 223 0 L 18 658 L 105 658 L 252 175 L 269 107 L 286 175 L 432 658 L 520 658 L 665 175 L 682 106 L 700 175 L 845 658 L 928 658 L 723 0 L 635 0 L 490 483 L 473 551 L 456 483 L 311 0 L 223 0 Z" unicode="Ẁ" />
<glyph horiz-adv-x="741" d="M 345 524 L 236 661 L 328 661 L 427 524 L 345 524 Z M 165 0 L 15 466 L 100 466 L 201 151 L 217 86 L 233 151 L 332 466 L 417 466 L 516 151 L 532 87 L 548 151 L 648 466 L 726 466 L 576 0 L 482 0 L 389 296 L 372 366 L 354 296 L 259 0 L 165 0 Z" unicode="ẁ" />
<glyph horiz-adv-x="946" d="M 504 715 L 429 715 L 523 845 L 608 845 L 504 715 Z M 223 0 L 18 658 L 105 658 L 252 175 L 269 107 L 286 175 L 432 658 L 520 658 L 665 175 L 682 106 L 700 175 L 845 658 L 928 658 L 723 0 L 635 0 L 490 483 L 473 551 L 456 483 L 311 0 L 223 0 Z" unicode="Ẃ" />
<glyph horiz-adv-x="741" d="M 402 524 L 320 524 L 418 661 L 511 661 L 402 524 Z M 165 0 L 15 466 L 100 466 L 201 151 L 217 86 L 233 151 L 332 466 L 417 466 L 516 151 L 532 87 L 548 151 L 648 466 L 726 466 L 576 0 L 482 0 L 389 296 L 372 366 L 354 296 L 259 0 L 165 0 Z" unicode="ẃ" />
<glyph horiz-adv-x="946" d="M 361 715 L 361 791 L 436 791 L 436 715 L 361 715 Z M 512 715 L 512 791 L 587 791 L 587 715 L 512 715 Z M 223 0 L 18 658 L 105 658 L 252 175 L 269 107 L 286 175 L 432 658 L 520 658 L 665 175 L 682 106 L 700 175 L 845 658 L 928 658 L 723 0 L 635 0 L 490 483 L 473 551 L 456 483 L 311 0 L 223 0 Z" unicode="Ẅ" />
<glyph horiz-adv-x="741" d="M 252 533 L 252 614 L 333 614 L 333 533 L 252 533 Z M 412 533 L 412 614 L 493 614 L 493 533 L 412 533 Z M 165 0 L 15 466 L 100 466 L 201 151 L 217 86 L 233 151 L 332 466 L 417 466 L 516 151 L 532 87 L 548 151 L 648 466 L 726 466 L 576 0 L 482 0 L 389 296 L 372 366 L 354 296 L 259 0 L 165 0 Z" unicode="ẅ" />
<glyph horiz-adv-x="590" d="M 267 715 L 164 845 L 249 845 L 343 715 L 267 715 Z M 253 0 L 253 281 L 13 658 L 111 658 L 266 414 L 298 358 L 331 414 L 485 658 L 577 658 L 337 280 L 337 0 L 253 0 Z" unicode="Ỳ" />
<glyph horiz-adv-x="470" d="M 208 524 L 99 661 L 191 661 L 290 524 L 208 524 Z M 6 -215 L -2 -215 L -2 -140 L 6 -140 C 50 -140 86 -130 115 -111 C 143 -92 169 -58 192 -8 L 183 17 L 13 466 L 100 466 L 217 151 L 236 90 L 255 151 L 372 466 L 455 466 L 286 22 C 252 -68 214 -130 172 -164 C 130 -198 74 -215 6 -215 Z" unicode="ỳ" />
<glyph horiz-adv-x="500" d="" unicode=" " />
<glyph horiz-adv-x="1000" d="" unicode=" " />
<glyph horiz-adv-x="650" d="" unicode=" " />
<glyph horiz-adv-x="96" d="" unicode=" " />
<glyph horiz-adv-x="650" d="M 115 256 L 115 328 L 536 328 L 536 256 L 115 256 Z" unicode="‒" />
<glyph horiz-adv-x="511" d="M 45 200 L 45 272 L 466 272 L 466 200 L 45 200 Z" unicode="–" />
<glyph horiz-adv-x="1011" d="M 45 200 L 45 272 L 966 272 L 966 200 L 45 200 Z" unicode="—" />
<glyph horiz-adv-x="374" d="M 45 200 L 45 272 L 317 272 L 317 200 L 45 200 Z" unicode="―" />
<glyph horiz-adv-x="211" d="M 60 487 L 60 562 C 60 596 66 628 78 658 C 90 688 106 713 126 734 L 182 709 C 168 687 158 665 151 643 C 144 621 141 595 141 567 L 141 487 L 60 487 Z" unicode="‘" />
<glyph horiz-adv-x="198" d="M 83 473 L 28 497 C 41 519 51 541 58 563 C 65 585 69 610 69 640 L 69 720 L 149 720 L 149 644 C 149 610 142 579 130 549 C 118 519 102 493 83 473 Z" unicode="’" />
<glyph horiz-adv-x="198" d="M 149 95 L 149 19 C 149 -14 142 -46 130 -76 C 118 -106 102 -131 83 -152 L 28 -127 C 41 -105 51 -83 58 -61 C 65 -39 69 -14 69 15 L 69 95 L 149 95 Z" unicode="‚" />
<glyph horiz-adv-x="350" d="M 60 490 L 60 564 C 60 597 66 629 78 659 C 90 689 106 714 126 735 L 182 711 C 168 689 158 667 151 645 C 144 623 141 597 141 568 L 141 490 L 60 490 Z M 199 490 L 199 564 C 199 597 205 629 218 659 C 230 689 246 714 265 735 L 322 711 C 308 689 298 667 291 645 C 283 623 280 597 280 568 L 280 490 L 199 490 Z" unicode="“" />
<glyph horiz-adv-x="334" d="M 83 473 L 28 497 C 41 519 51 541 58 563 C 65 585 69 610 69 640 L 69 720 L 149 720 L 149 644 C 149 610 142 579 130 549 C 118 519 102 493 83 473 Z M 219 473 L 164 497 C 177 519 187 541 195 563 C 202 585 206 610 206 640 L 206 720 L 285 720 L 285 644 C 285 610 278 579 266 549 C 254 519 238 493 219 473 Z" unicode="”" />
<glyph horiz-adv-x="331" d="M 149 95 L 149 19 C 149 -14 142 -46 130 -76 C 118 -106 102 -131 83 -152 L 28 -127 C 41 -105 51 -83 58 -61 C 65 -39 69 -14 69 15 L 69 95 L 149 95 Z M 282 95 L 282 19 C 282 -14 275 -46 263 -76 C 251 -106 235 -131 216 -152 L 161 -127 C 174 -105 184 -83 192 -61 C 199 -39 203 -14 203 15 L 203 95 L 282 95 Z" unicode="„" />
<glyph horiz-adv-x="456" d="M 187 0 L 191 461 L 43 457 L 43 532 L 191 528 L 187 720 L 270 720 L 266 528 L 414 532 L 414 457 L 266 461 L 270 0 L 187 0 Z" unicode="†" />
<glyph horiz-adv-x="456" d="M 187 0 L 191 199 L 43 195 L 43 270 L 191 266 L 191 461 L 43 457 L 43 532 L 191 528 L 187 720 L 270 720 L 266 528 L 414 532 L 414 457 L 266 461 L 266 266 L 414 270 L 414 195 L 266 199 L 270 0 L 187 0 Z" unicode="‡" />
<glyph horiz-adv-x="272" d="M 60 170 L 60 321 L 215 321 L 215 170 L 60 170 Z" unicode="•" />
<glyph horiz-adv-x="564" d="M 50 0 L 50 84 L 135 84 L 135 0 L 50 0 Z M 239 0 L 239 84 L 324 84 L 324 0 L 239 0 Z M 428 0 L 428 84 L 513 84 L 513 0 L 428 0 Z" unicode="…" />
<glyph horiz-adv-x="1227" d="M 202 352 C 152 352 112 369 82 403 C 52 437 38 482 38 540 C 38 596 52 642 82 676 C 112 710 152 728 202 728 C 252 728 292 711 322 677 C 352 643 367 597 367 541 C 367 483 352 437 322 403 C 292 369 252 352 202 352 Z M 240 0 L 525 720 L 594 720 L 310 0 L 240 0 Z M 202 415 C 230 415 253 426 271 449 C 289 471 298 502 298 540 C 298 577 289 607 271 630 C 253 653 230 665 202 665 C 173 665 150 653 133 631 C 115 608 107 578 107 541 C 107 503 115 472 133 449 C 150 426 173 415 202 415 Z M 1024 -8 C 974 -8 934 9 904 43 C 874 77 860 122 860 180 C 860 236 874 282 904 316 C 934 350 974 368 1024 368 C 1074 368 1114 351 1144 317 C 1174 283 1189 237 1189 181 C 1189 123 1174 77 1144 43 C 1114 9 1074 -8 1024 -8 Z M 646 -8 C 596 -8 556 9 526 43 C 496 77 482 122 482 180 C 482 236 496 282 526 316 C 556 350 596 368 646 368 C 696 368 736 351 766 317 C 796 283 811 237 811 181 C 811 123 796 77 766 43 C 736 9 696 -8 646 -8 Z M 1024 55 C 1052 55 1075 66 1093 89 C 1111 111 1120 142 1120 180 C 1120 217 1111 247 1093 270 C 1075 293 1052 305 1024 305 C 995 305 972 293 955 271 C 937 248 929 218 929 181 C 929 143 937 112 955 89 C 972 66 995 55 1024 55 Z M 646 55 C 674 55 697 66 715 89 C 733 111 742 142 742 180 C 742 217 733 247 715 270 C 697 293 674 305 646 305 C 617 305 594 293 577 271 C 559 248 551 218 551 181 C 551 143 559 112 577 89 C 594 66 617 55 646 55 Z" unicode="‰" />
<glyph horiz-adv-x="190" d="M 60 513 L 60 724 L 130 724 L 130 513 L 60 513 Z" unicode="′" />
<glyph horiz-adv-x="319" d="M 60 513 L 60 724 L 130 724 L 130 513 L 60 513 Z M 189 513 L 189 724 L 259 724 L 259 513 L 189 513 Z" unicode="″" />
<glyph horiz-adv-x="333" d="M 195 67 L 40 226 L 195 386 L 293 386 L 138 226 L 293 67 L 195 67 Z" unicode="‹" />
<glyph horiz-adv-x="333" d="M 40 67 L 194 226 L 40 386 L 138 386 L 293 226 L 138 67 L 40 67 Z" unicode="›" />
<glyph horiz-adv-x="139" d="M -108 0 L 177 720 L 246 720 L -38 0 L -108 0 Z" unicode="⁄" />
<glyph horiz-adv-x="395" d="M 197 432 C 147 432 107 449 77 483 C 47 517 33 562 33 620 C 33 676 47 722 77 756 C 107 790 147 808 197 808 C 247 808 287 791 317 757 C 347 723 362 677 362 621 C 362 563 347 517 317 483 C 287 449 247 432 197 432 Z M 197 495 C 225 495 248 506 266 529 C 284 551 293 582 293 620 C 293 657 284 687 266 710 C 248 733 225 745 197 745 C 168 745 145 733 128 711 C 110 688 102 658 102 621 C 102 583 110 552 128 529 C 145 506 168 495 197 495 Z" unicode="⁰" />
<glyph horiz-adv-x="336" d="M 189 440 L 189 524 L 22 524 L 22 572 L 162 803 L 256 803 L 256 582 L 309 582 L 309 524 L 256 524 L 256 440 L 189 440 Z M 189 582 L 189 743 L 91 582 L 189 582 Z" unicode="⁴" />
<glyph horiz-adv-x="306" d="M 145 432 C 124 432 104 434 86 439 C 67 444 49 451 31 461 L 31 529 C 47 516 63 507 80 501 C 97 495 115 492 135 492 C 155 492 172 497 185 507 C 197 517 204 532 204 551 C 204 568 197 582 183 592 C 169 602 150 607 126 607 C 111 607 95 605 79 603 C 63 601 48 598 35 596 L 49 800 L 255 800 L 255 737 L 99 737 L 93 658 C 101 659 110 660 119 661 C 128 662 136 663 144 663 C 186 663 219 652 241 632 C 263 612 275 585 275 553 C 275 517 263 487 239 465 C 215 443 184 432 145 432 Z" unicode="⁵" />
<glyph horiz-adv-x="338" d="M 171 432 C 133 432 101 446 73 475 C 45 503 31 543 31 593 C 31 663 46 717 76 753 C 106 789 146 808 198 808 C 213 808 228 806 243 804 C 258 801 272 797 286 793 L 286 729 C 273 734 259 738 245 742 C 231 746 216 748 202 748 C 169 748 144 737 127 717 C 110 697 100 668 98 632 C 107 646 120 657 136 665 C 152 672 169 676 188 676 C 224 676 253 665 275 643 C 297 621 308 595 308 563 C 308 524 294 492 268 468 C 241 444 209 432 171 432 Z M 172 490 C 194 490 210 496 222 509 C 234 522 240 539 240 559 C 240 576 234 591 222 604 C 210 617 194 624 174 624 C 155 624 139 619 126 611 C 113 602 104 591 100 578 C 100 552 106 531 119 515 C 131 498 149 490 172 490 Z" unicode="⁶" />
<glyph horiz-adv-x="310" d="M 72 440 L 206 735 L 28 735 L 28 800 L 281 800 L 281 745 L 149 440 L 72 440 Z" unicode="⁷" />
<glyph horiz-adv-x="328" d="M 164 432 C 123 432 91 440 68 458 C 44 476 33 499 33 529 C 33 549 38 567 50 582 C 61 596 78 609 100 620 C 80 630 64 642 53 657 C 42 671 37 688 37 707 C 37 737 48 761 72 780 C 95 798 126 808 164 808 C 200 808 230 799 254 781 C 278 763 290 740 290 712 C 290 695 284 680 274 666 C 263 652 247 640 227 630 C 247 620 264 607 276 592 C 288 577 295 558 295 536 C 295 503 283 477 260 459 C 237 441 205 432 164 432 Z M 164 652 L 173 650 C 187 654 198 662 207 673 C 216 684 221 696 221 709 C 221 723 215 734 205 744 C 194 753 180 758 164 758 C 147 758 133 753 122 743 C 111 733 106 722 106 708 C 106 694 111 682 122 673 C 133 663 147 656 164 652 Z M 103 536 C 103 519 108 506 120 496 C 132 486 146 482 164 482 C 182 482 196 487 208 497 C 219 507 225 520 225 536 C 225 552 219 565 208 575 C 196 585 182 592 164 597 L 156 599 C 140 593 127 585 117 574 C 107 563 103 550 103 536 Z" unicode="⁸" />
<glyph horiz-adv-x="338" d="M 144 432 C 126 432 110 433 95 436 C 79 438 65 442 51 447 L 51 511 C 64 505 78 501 93 497 C 107 493 123 492 140 492 C 171 492 195 501 211 521 C 227 541 237 569 240 605 C 231 590 218 579 202 572 C 186 564 168 561 150 561 C 113 561 84 572 63 594 C 41 616 31 644 31 678 C 31 718 44 749 70 773 C 96 796 129 808 168 808 C 204 808 237 794 265 766 C 293 738 308 698 308 647 C 308 576 293 522 263 486 C 233 450 193 432 144 432 Z M 165 613 C 183 613 198 617 212 625 C 225 633 234 644 238 658 C 238 684 231 706 219 723 C 206 740 189 749 167 749 C 144 749 127 742 115 730 C 103 717 98 701 98 681 C 98 662 104 646 116 633 C 128 619 144 613 165 613 Z" unicode="⁹" />
<glyph horiz-adv-x="379" d="M 44 440 L 44 800 L 117 800 L 117 754 C 130 772 146 785 164 795 C 182 804 202 809 223 809 C 261 809 290 797 312 773 C 333 749 344 718 344 678 L 344 440 L 272 440 L 272 662 C 272 688 265 707 251 721 C 237 734 218 741 196 741 C 179 741 164 736 150 728 C 136 720 125 709 117 695 L 117 440 L 44 440 Z" unicode="ⁿ" />
<glyph horiz-adv-x="395" d="M 197 -178 C 147 -178 107 -161 77 -127 C 47 -93 33 -47 33 10 C 33 66 47 112 77 146 C 107 180 147 198 197 198 C 247 198 287 181 317 147 C 347 113 362 67 362 11 C 362 -46 347 -92 317 -126 C 287 -160 247 -178 197 -178 Z M 197 -115 C 225 -115 248 -103 266 -81 C 284 -58 293 -28 293 10 C 293 47 284 77 266 100 C 248 123 225 135 197 135 C 168 135 145 123 128 101 C 110 78 102 48 102 11 C 102 -27 110 -57 128 -80 C 145 -103 168 -115 197 -115 Z" unicode="₀" />
<glyph horiz-adv-x="296" d="M 40 -170 L 40 -110 L 119 -110 L 119 129 L 31 116 L 31 177 L 189 202 L 189 -110 L 270 -110 L 270 -170 L 40 -170 Z" unicode="₁" />
<glyph horiz-adv-x="310" d="M 31 -170 L 31 -90 C 89 -58 132 -30 162 -5 C 191 19 206 45 206 72 C 206 92 199 107 185 119 C 171 130 153 136 131 136 C 115 136 98 133 82 128 C 66 122 50 114 36 104 L 36 174 C 52 182 70 188 88 192 C 106 196 125 198 147 198 C 187 198 218 187 242 167 C 266 146 278 119 278 85 C 278 46 262 11 230 -19 C 198 -49 150 -79 88 -107 L 280 -107 L 280 -170 L 31 -170 Z" unicode="₂" />
<glyph horiz-adv-x="308" d="M 149 -178 C 128 -178 108 -175 89 -171 C 69 -166 50 -158 31 -148 L 31 -80 C 47 -92 64 -102 82 -108 C 99 -114 118 -117 138 -117 C 158 -117 175 -112 187 -103 C 199 -94 205 -82 205 -68 C 205 -52 198 -39 184 -30 C 170 -20 148 -16 120 -16 L 99 -16 L 99 43 L 117 43 C 143 43 163 47 177 56 C 191 64 198 77 198 94 C 198 107 192 117 181 125 C 170 133 155 137 136 137 C 119 137 103 134 88 130 C 73 125 59 117 45 107 L 45 173 C 61 181 78 187 96 191 C 113 195 131 198 150 198 C 186 198 215 189 237 173 C 259 156 270 133 270 105 C 270 83 263 64 250 48 C 237 32 218 20 194 14 C 220 9 241 0 255 -16 C 269 -32 277 -51 277 -74 C 277 -104 265 -129 243 -149 C 220 -168 189 -178 149 -178 Z" unicode="₃" />
<glyph horiz-adv-x="336" d="M 189 -170 L 189 -86 L 22 -86 L 22 -38 L 162 193 L 256 193 L 256 -28 L 309 -28 L 309 -86 L 256 -86 L 256 -170 L 189 -170 Z M 189 -28 L 189 133 L 91 -28 L 189 -28 Z" unicode="₄" />
<glyph horiz-adv-x="306" d="M 145 -178 C 124 -178 104 -175 86 -170 C 67 -165 49 -158 31 -149 L 31 -81 C 47 -93 63 -103 80 -109 C 97 -115 115 -118 135 -118 C 155 -118 172 -112 185 -102 C 197 -92 204 -77 204 -59 C 204 -41 197 -28 183 -18 C 169 -8 150 -3 126 -3 C 111 -3 95 -4 79 -6 C 63 -8 48 -11 35 -14 L 49 190 L 255 190 L 255 127 L 99 127 L 93 48 C 101 49 110 50 119 51 C 128 52 136 53 144 53 C 186 53 219 42 241 22 C 263 2 275 -24 275 -57 C 275 -93 263 -122 239 -144 C 215 -166 184 -178 145 -178 Z" unicode="₅" />
<glyph horiz-adv-x="338" d="M 171 -178 C 133 -178 101 -163 73 -135 C 45 -106 31 -67 31 -17 C 31 53 46 107 76 143 C 106 179 146 198 198 198 C 213 198 228 196 243 194 C 258 191 272 187 286 183 L 286 119 C 273 124 259 128 245 132 C 231 136 216 138 202 138 C 169 138 144 127 127 107 C 110 87 100 58 98 22 C 107 36 120 47 136 55 C 152 62 169 66 188 66 C 224 66 253 55 275 33 C 297 11 308 -15 308 -47 C 308 -85 294 -117 268 -141 C 241 -165 209 -178 171 -178 Z M 172 -120 C 194 -120 210 -113 222 -100 C 234 -87 240 -71 240 -51 C 240 -33 234 -18 222 -5 C 210 7 194 14 174 14 C 155 14 139 9 126 1 C 113 -7 104 -18 100 -32 C 100 -57 106 -78 119 -95 C 131 -111 149 -120 172 -120 Z" unicode="₆" />
<glyph horiz-adv-x="310" d="M 72 -170 L 206 125 L 28 125 L 28 190 L 281 190 L 281 135 L 149 -170 L 72 -170 Z" unicode="₇" />
<glyph horiz-adv-x="328" d="M 164 -178 C 123 -178 91 -169 68 -151 C 44 -133 33 -110 33 -81 C 33 -60 38 -42 50 -28 C 61 -13 78 0 100 10 C 80 20 64 32 53 47 C 42 61 37 78 37 97 C 37 127 48 151 72 170 C 95 188 126 198 164 198 C 200 198 230 189 254 171 C 278 153 290 130 290 102 C 290 85 284 70 274 56 C 263 42 247 30 227 20 C 247 10 264 -2 276 -17 C 288 -32 295 -51 295 -74 C 295 -106 283 -132 260 -150 C 237 -168 205 -178 164 -178 Z M 164 42 L 173 40 C 187 44 198 52 207 63 C 216 74 221 86 221 99 C 221 113 215 124 205 134 C 194 143 180 148 164 148 C 147 148 133 143 122 133 C 111 123 106 112 106 98 C 106 84 111 72 122 63 C 133 53 147 46 164 42 Z M 103 -74 C 103 -90 108 -103 120 -113 C 132 -123 146 -128 164 -128 C 182 -128 196 -123 208 -113 C 219 -103 225 -90 225 -74 C 225 -58 219 -45 208 -35 C 196 -25 182 -17 164 -13 L 156 -11 C 140 -16 127 -24 117 -35 C 107 -46 103 -59 103 -74 Z" unicode="₈" />
<glyph horiz-adv-x="338" d="M 144 -178 C 126 -178 110 -176 95 -174 C 79 -171 65 -167 51 -163 L 51 -99 C 64 -104 78 -108 93 -112 C 107 -116 123 -118 140 -118 C 171 -118 195 -108 211 -88 C 227 -68 237 -41 240 -5 C 231 -19 218 -30 202 -38 C 186 -45 168 -49 150 -49 C 113 -49 84 -37 63 -15 C 41 6 31 34 31 68 C 31 108 44 139 70 163 C 96 186 129 198 168 198 C 204 198 237 184 265 156 C 293 128 308 88 308 37 C 308 -33 293 -87 263 -123 C 233 -159 193 -178 144 -178 Z M 165 3 C 183 3 198 7 212 15 C 225 23 234 34 238 48 C 238 74 231 96 219 113 C 206 130 189 139 167 139 C 144 139 127 132 115 120 C 103 107 98 91 98 71 C 98 52 104 36 116 23 C 128 9 144 3 165 3 Z" unicode="₉" />
<glyph horiz-adv-x="706" d="M 29 243 L 29 302 L 94 302 C 93 306 93 311 93 315 C 93 319 93 324 93 329 C 93 333 93 338 93 343 C 93 348 93 353 94 358 L 29 358 L 29 417 L 102 417 C 118 495 157 557 217 603 C 277 649 353 672 445 672 C 483 672 518 668 551 660 C 584 652 617 639 649 623 L 649 538 C 617 557 585 571 552 580 C 518 589 483 594 445 594 C 380 594 325 578 281 546 C 236 514 206 471 191 417 L 353 417 L 353 358 L 180 358 C 179 353 179 348 179 343 C 179 338 179 333 179 329 C 179 324 179 319 179 315 C 179 311 179 306 180 302 L 354 302 L 354 243 L 190 243 C 206 187 236 143 281 111 C 326 79 381 64 445 64 C 485 64 522 69 556 80 C 590 90 623 106 656 128 L 656 42 C 623 22 589 8 555 0 C 520 -9 483 -14 445 -14 C 354 -14 278 9 218 55 C 157 101 118 163 102 243 L 29 243 Z" unicode="€" />
<glyph horiz-adv-x="524" d="M 73 0 L 73 658 L 155 658 L 155 786 L 216 786 L 216 658 L 242 658 C 247 658 252 658 258 658 C 263 658 268 657 273 657 L 273 786 L 333 786 L 333 648 C 373 637 403 619 423 593 C 443 567 453 534 453 494 C 453 458 444 425 426 397 C 408 369 380 349 342 338 C 388 328 421 308 443 280 C 464 252 475 218 475 179 C 475 133 463 95 440 65 C 416 35 381 16 333 7 L 333 -124 L 273 -124 L 273 0 C 270 0 267 0 265 0 C 263 0 260 0 258 0 L 216 0 L 216 -124 L 155 -124 L 155 0 L 73 0 Z M 157 368 L 241 368 C 279 368 309 377 333 396 C 357 415 369 443 369 481 C 369 516 357 542 334 559 C 311 576 281 585 243 585 L 157 585 L 157 368 Z M 157 73 L 260 73 C 300 73 332 82 356 101 C 379 119 391 148 391 186 C 391 223 379 251 355 270 C 331 288 297 298 253 298 L 157 298 L 157 73 Z" unicode="₿" />
<glyph horiz-adv-x="680" d="M 342 107 C 256 107 186 136 130 195 C 74 253 46 322 46 402 C 46 482 74 552 130 611 C 186 669 256 699 342 699 C 425 699 495 669 552 611 C 609 552 638 483 638 403 C 638 323 609 253 552 195 C 495 136 425 107 342 107 Z M 342 156 C 406 156 463 179 513 226 C 563 273 588 332 588 402 C 588 473 563 532 513 579 C 463 626 406 650 342 650 C 274 650 216 626 168 579 C 120 532 96 473 96 403 C 96 332 120 273 168 226 C 216 179 274 156 342 156 Z M 257 233 L 257 576 L 348 576 C 384 576 413 566 436 546 C 459 526 471 500 471 467 C 471 433 459 405 436 385 C 412 365 383 355 347 355 L 311 355 L 311 233 L 257 233 Z M 311 401 L 344 401 C 366 401 384 407 397 419 C 410 431 417 447 417 466 C 417 484 410 499 397 511 C 384 523 366 529 344 529 L 311 529 L 311 401 Z" unicode="℗" />
<glyph horiz-adv-x="605" d="M 104 458 L 104 672 L 28 672 L 28 720 L 236 720 L 236 672 L 160 672 L 160 458 L 104 458 Z M 266 458 L 266 720 L 351 720 L 413 583 L 474 720 L 556 720 L 556 458 L 500 458 L 500 665 L 425 502 L 389 502 L 314 665 L 314 458 L 266 458 Z" unicode="™" />
<glyph horiz-adv-x="532" d="M 268 -11 C 201 -11 146 8 104 47 C 61 86 40 142 40 215 C 40 285 59 341 99 383 C 138 425 187 446 246 446 C 275 446 303 439 330 426 C 356 413 378 394 395 369 C 382 428 352 482 306 531 C 259 580 182 605 74 605 L 74 690 C 247 690 360 637 413 533 C 465 429 492 343 492 277 C 492 177 470 104 427 58 C 383 12 330 -11 268 -11 Z M 265 67 C 307 67 341 82 367 114 C 393 145 406 187 406 240 C 402 277 388 308 362 332 C 336 356 303 369 263 369 C 221 369 187 354 163 326 C 139 297 127 262 127 220 C 127 176 139 139 163 110 C 187 81 221 67 265 67 Z" unicode="∂" />
<glyph horiz-adv-x="538" d="M 70 0 L 70 658 L 468 658 L 468 0 L 384 0 L 384 580 L 154 580 L 154 0 L 70 0 Z" unicode="∏" />
<glyph horiz-adv-x="486" d="M 42 0 L 42 75 L 276 335 L 42 583 L 42 658 L 441 658 L 441 580 L 158 580 L 384 341 L 150 80 L 446 80 L 446 0 L 42 0 Z" unicode="∑" />
<glyph horiz-adv-x="514" d="M 49 255 L 49 326 L 465 326 L 465 255 L 49 255 Z" unicode="−" />
<glyph horiz-adv-x="590" d="M 213 -5 L 11 494 L 99 494 L 254 109 L 499 716 L 579 716 L 288 -5 L 213 -5 Z" unicode="√" />
<glyph horiz-adv-x="819" d="M 219 36 C 163 36 118 53 86 88 C 53 123 37 170 37 229 C 37 288 54 335 88 370 C 122 404 166 422 220 422 C 261 422 298 411 332 390 C 365 368 394 336 419 294 C 447 338 476 370 508 390 C 540 410 572 421 605 421 C 659 421 702 403 734 369 C 766 334 782 287 782 229 C 782 169 764 122 730 88 C 696 53 650 36 594 36 C 557 36 522 46 489 67 C 455 88 426 120 401 163 C 373 119 345 87 315 67 C 285 46 253 36 219 36 Z M 116 230 C 116 193 126 164 147 142 C 168 120 196 110 230 110 C 252 110 275 119 299 138 C 322 156 345 187 368 229 C 342 275 319 306 297 323 C 275 339 253 348 229 348 C 195 348 168 337 147 316 C 126 294 116 266 116 230 Z M 591 347 C 568 347 545 337 522 319 C 498 301 475 272 451 232 C 474 190 497 159 520 139 C 543 119 568 110 594 110 C 625 110 651 120 672 142 C 692 164 703 193 703 229 C 703 265 692 293 671 315 C 650 336 623 347 591 347 Z" unicode="∞" />
<glyph horiz-adv-x="485" d="M 58 -223 C 43 -223 29 -221 16 -218 C 2 -215 -10 -210 -23 -204 L -23 -128 C -10 -134 2 -139 16 -143 C 30 -146 45 -148 61 -148 C 85 -148 105 -139 121 -121 C 136 -103 145 -79 149 -49 L 223 551 C 230 610 249 654 281 683 C 312 712 350 727 395 727 C 409 727 424 725 439 722 C 453 719 468 715 483 710 L 483 631 C 468 637 453 642 439 646 C 425 650 410 652 396 652 C 369 652 348 643 333 626 C 317 608 308 584 304 552 L 230 -50 C 223 -108 204 -151 173 -180 C 142 -208 104 -223 58 -223 Z" unicode="∫" />
<glyph horiz-adv-x="392" d="M 70 300 L 56 363 C 63 375 74 385 89 393 C 103 401 118 405 133 405 C 145 405 156 403 168 400 C 180 397 191 392 201 386 C 211 379 221 374 232 370 C 243 366 255 365 267 365 C 279 365 291 367 301 373 C 311 379 321 386 329 395 L 343 332 C 335 319 323 309 309 301 C 295 293 280 290 266 290 C 254 290 243 291 231 294 C 219 297 208 302 198 309 C 188 315 177 320 167 324 C 156 328 144 330 132 330 C 120 330 108 327 98 322 C 87 317 78 310 70 300 Z M 70 133 L 56 196 C 63 208 74 218 89 226 C 103 234 118 238 133 238 C 145 238 156 236 168 233 C 180 230 191 225 201 219 C 211 212 221 207 232 203 C 243 199 255 198 267 198 C 279 198 291 200 301 206 C 311 212 321 219 329 228 L 343 165 C 335 152 323 142 309 134 C 295 126 280 123 266 123 C 254 123 243 124 231 127 C 219 130 208 135 198 142 C 188 148 177 153 167 157 C 156 161 144 163 132 163 C 120 163 108 160 98 155 C 87 150 78 143 70 133 Z" unicode="≈" />
<glyph horiz-adv-x="526" d="M 125 50 L 171 171 L 56 171 L 56 242 L 199 242 L 234 335 L 56 335 L 56 407 L 262 407 L 307 525 L 377 525 L 332 407 L 472 407 L 472 335 L 305 335 L 269 242 L 472 242 L 472 171 L 242 171 L 196 50 L 125 50 Z" unicode="≠" />
<glyph horiz-adv-x="459" d="M 285 81 L 60 288 L 285 495 L 399 495 L 174 288 L 399 81 L 285 81 Z M 68 -71 L 68 0 L 391 0 L 391 -71 L 68 -71 Z" unicode="≤" />
<glyph horiz-adv-x="459" d="M 60 81 L 285 288 L 60 495 L 174 495 L 399 288 L 174 81 L 60 81 Z M 67 -71 L 67 0 L 391 0 L 391 -71 L 67 -71 Z" unicode="≥" />
<glyph horiz-adv-x="608" d="M 306 -26 L 47 315 L 306 656 L 561 315 L 306 -26 Z M 307 91 L 474 315 L 306 539 L 140 315 L 307 91 Z" unicode="◊" />
<glyph horiz-adv-x="594" d="M 211 -5 L 16 472 L 104 472 L 252 108 L 496 723 L 576 723 L 286 -5 L 211 -5 Z" unicode="✓" />
<glyph horiz-adv-x="674" d="M 56 0 L 56 80 L 238 80 L 238 113 C 180 126 132 156 94 204 C 56 251 38 309 38 377 C 38 469 66 541 122 593 C 178 645 250 672 337 672 C 423 672 495 646 552 594 C 608 542 637 470 637 379 C 637 309 617 251 578 203 C 538 155 489 124 430 111 L 430 80 L 611 80 L 611 0 L 367 0 L 367 167 C 423 172 467 194 501 234 C 534 274 551 321 551 376 C 551 440 531 492 493 532 C 455 572 403 593 337 593 C 271 593 219 573 181 533 C 142 493 123 441 123 378 C 123 324 139 277 171 237 C 203 197 247 173 301 167 L 301 0 L 56 0 Z" unicode="Ꞷ" />
<glyph horiz-adv-x="144" d="M 56 -232 L -2 -205 C 12 -183 22 -163 28 -144 C 34 -125 37 -104 37 -82 L 37 -40 L 110 -40 L 110 -82 C 110 -108 105 -134 97 -160 C 88 -185 74 -209 56 -232 Z" unicode="" />
<glyph horiz-adv-x="721" d="M 29 0 L 29 658 L 692 658 L 692 0 L 29 0 Z M 223 77 L 286 77 L 286 528 L 371 528 L 371 77 L 434 77 L 434 309 L 457 309 C 505 309 542 321 569 346 C 595 371 609 404 609 445 C 609 486 595 519 569 544 C 542 569 505 582 457 582 L 119 582 L 119 528 L 223 528 L 223 77 Z" unicode="" />
<glyph horiz-adv-x="476" d="M 91 0 L 91 392 L 20 392 L 20 466 L 91 466 L 91 546 C 91 602 105 646 135 680 C 164 713 205 730 257 730 C 274 730 291 728 308 724 C 325 720 342 715 358 709 L 358 629 C 345 637 330 643 314 648 C 297 652 281 655 265 655 C 236 655 213 645 197 627 C 180 608 172 582 172 548 L 172 466 L 254 466 L 254 392 L 172 392 L 172 0 L 91 0 Z M 328 0 L 328 466 L 409 466 L 409 0 L 328 0 Z" unicode="ﬁ" />
<glyph horiz-adv-x="481" d="M 91 0 L 91 392 L 20 392 L 20 466 L 91 466 L 91 546 C 91 602 105 646 135 680 C 164 713 205 730 257 730 C 269 730 282 729 294 727 C 306 725 319 722 331 719 L 331 720 L 413 720 L 413 0 L 331 0 L 331 642 C 320 646 309 649 298 651 C 286 653 275 655 265 655 C 236 655 213 645 197 627 C 180 608 172 582 172 548 L 172 466 L 254 466 L 254 392 L 172 392 L 172 0 L 91 0 Z" unicode="ﬂ" />
</font>
</defs>
</svg>
