<?xml version="1.0" encoding="utf-8" ?><svg version="1.1" xmlns = 'http://www.w3.org/2000/svg'><defs><font id='web' horiz-adv-x="1000">
<font-face font-family="web" descent="-252" cap-height="658" units-per-em="1000" bbox="-204,-345,1293,991" x-height="478" ascent="748" />
<missing-glyph horiz-adv-x="500" d="M 50 -252 L 450 -252 L 450 748 L 50 748 L 50 -252 Z M 100 -202 L 100 698 L 400 698 L 400 -202 L 100 -202 Z" /><glyph horiz-adv-x="200" d="" unicode=" " />
<glyph horiz-adv-x="301" d="M 52 224 L 52 716 L 248 716 L 248 224 L 52 224 Z M 53 0 L 53 164 L 249 164 L 249 0 L 53 0 Z" unicode="!" />
<glyph horiz-adv-x="477" d="M 56 422 L 56 716 L 212 716 L 212 422 L 56 422 Z M 265 422 L 265 716 L 421 716 L 421 422 L 265 422 Z" unicode="&#x22;" />
<glyph horiz-adv-x="616" d="M 93 0 L 106 96 L 44 96 L 44 260 L 128 260 L 139 341 L 60 341 L 60 505 L 160 505 L 173 599 L 305 599 L 292 505 L 374 505 L 387 599 L 519 599 L 506 505 L 572 505 L 572 341 L 485 341 L 474 260 L 557 260 L 557 96 L 452 96 L 439 0 L 307 0 L 320 96 L 238 96 L 225 0 L 93 0 Z M 260 260 L 342 260 L 353 341 L 271 341 L 260 260 Z" unicode="#" />
<glyph horiz-adv-x="597" d="M 219 638 L 219 762 L 375 762 L 375 638 L 219 638 Z M 219 -102 L 219 31 L 375 31 L 375 -102 L 219 -102 Z M 275 -12 C 243 -12 208 -8 171 -1 C 133 6 97 16 62 30 L 62 213 C 94 197 128 185 163 177 C 198 169 231 165 262 165 C 278 165 292 167 302 173 C 312 178 317 186 317 197 C 317 206 312 214 303 222 C 294 230 281 236 265 240 L 231 248 C 171 262 126 286 96 322 C 66 357 52 399 52 449 C 52 516 75 570 123 610 C 171 650 235 670 317 670 C 349 670 383 667 418 662 C 453 656 485 649 513 639 L 513 459 C 487 470 458 479 426 486 C 394 492 364 496 336 496 C 320 496 307 493 298 489 C 288 484 284 476 284 466 C 284 457 288 449 297 441 C 305 433 318 428 335 424 L 369 416 C 429 401 474 375 502 339 C 530 302 545 260 545 212 C 545 137 520 81 472 44 C 423 6 357 -12 275 -12 Z" unicode="$" />
<glyph horiz-adv-x="926" d="M 208 350 C 154 350 110 367 77 403 C 44 438 28 484 28 540 C 28 597 44 643 77 678 C 110 712 154 730 208 730 C 262 730 305 712 338 678 C 371 643 388 597 388 540 C 388 484 371 438 338 403 C 305 367 262 350 208 350 Z M 208 482 C 218 482 227 487 235 497 C 243 507 247 521 247 540 C 247 558 243 573 235 583 C 227 593 218 599 208 599 C 197 599 188 593 180 583 C 172 573 169 558 169 540 C 169 521 172 507 180 497 C 188 487 197 482 208 482 Z M 225 0 L 549 716 L 693 716 L 369 0 L 225 0 Z M 714 -10 C 660 -10 616 7 583 43 C 550 78 534 124 534 180 C 534 237 550 283 583 318 C 616 352 660 370 714 370 C 768 370 811 352 844 318 C 877 283 894 237 894 180 C 894 124 877 78 844 43 C 811 7 768 -10 714 -10 Z M 714 122 C 724 122 733 127 741 137 C 749 147 753 161 753 180 C 753 198 749 213 741 223 C 733 233 724 239 714 239 C 703 239 694 233 686 223 C 678 213 675 198 675 180 C 675 161 678 147 686 137 C 694 127 703 122 714 122 Z" unicode="%" />
<glyph horiz-adv-x="698" d="M 268 -12 C 194 -12 137 6 97 44 C 56 81 36 128 36 186 C 36 224 46 259 67 293 C 88 326 119 354 159 377 C 151 393 145 411 141 429 C 137 447 136 467 136 490 C 136 540 156 583 197 619 C 237 655 292 674 362 674 C 392 674 422 671 452 667 C 482 662 509 654 533 644 L 533 481 C 511 490 491 497 471 501 C 451 505 430 508 408 508 C 385 508 367 502 355 492 C 343 481 337 467 337 450 C 337 435 339 421 345 409 C 351 397 360 383 374 369 L 441 292 C 443 304 444 318 445 333 C 446 347 447 363 447 380 L 610 380 C 610 332 605 290 597 253 C 589 216 576 183 560 155 L 694 0 L 463 0 L 430 40 C 410 22 386 9 359 1 C 332 -7 302 -12 268 -12 Z M 215 216 C 215 196 221 180 233 168 C 245 156 263 150 286 150 C 294 150 301 151 308 153 C 315 155 322 158 328 162 L 239 269 C 231 261 225 253 221 244 C 217 235 215 226 215 216 Z" unicode="&#x26;" />
<glyph horiz-adv-x="268" d="M 56 422 L 56 716 L 212 716 L 212 422 L 56 422 Z" unicode="'" />
<glyph horiz-adv-x="448" d="M 204 -220 C 158 -158 122 -86 94 -4 C 66 77 52 162 52 248 C 52 334 66 418 94 500 C 122 582 158 654 204 716 L 436 716 C 383 651 340 577 308 495 C 276 413 260 330 260 248 C 260 165 276 82 308 0 C 340 -81 383 -155 436 -220 L 204 -220 Z" unicode="(" />
<glyph horiz-adv-x="448" d="M 12 -220 C 64 -155 107 -81 139 0 C 171 82 188 165 188 248 C 188 330 171 413 139 495 C 107 577 64 651 12 716 L 244 716 C 289 654 326 582 354 500 C 382 418 396 334 396 248 C 396 162 382 77 354 -4 C 326 -86 289 -158 244 -220 L 12 -220 Z" unicode=")" />
<glyph horiz-adv-x="573" d="M 227 -12 L 70 103 L 186 204 L 32 217 L 93 402 L 224 323 L 189 478 L 384 478 L 349 323 L 480 402 L 541 216 L 387 203 L 505 102 L 348 -13 L 286 131 L 227 -12 Z" unicode="*" />
<glyph horiz-adv-x="544" d="M 198 66 L 198 213 L 56 213 L 56 361 L 198 361 L 198 508 L 346 508 L 346 361 L 488 361 L 488 213 L 346 213 L 346 66 L 198 66 Z" unicode="+" />
<glyph horiz-adv-x="306" d="M 250 188 L 250 87 C 250 12 240 -45 221 -87 C 202 -129 182 -160 160 -181 L 12 -148 C 30 -110 42 -74 50 -40 C 58 -6 62 36 62 86 L 62 188 L 250 188 Z" unicode="," />
<glyph horiz-adv-x="360" d="M 40 163 L 40 311 L 320 311 L 320 163 L 40 163 Z" unicode="-" />
<glyph horiz-adv-x="300" d="M 56 0 L 56 188 L 244 188 L 244 0 L 56 0 Z" unicode="." />
<glyph horiz-adv-x="546" d="M 32 0 L 346 716 L 514 716 L 200 0 L 32 0 Z" unicode="/" />
<glyph horiz-adv-x="662" d="M 331 -16 C 234 -16 162 15 115 77 C 67 139 44 223 44 329 C 44 435 67 520 115 583 C 162 646 234 678 331 678 C 427 678 499 646 547 584 C 594 521 618 437 618 331 C 618 224 594 139 547 77 C 499 15 427 -16 331 -16 Z M 331 172 C 356 172 374 184 385 210 C 396 236 402 276 402 330 C 402 384 396 424 385 450 C 374 476 356 490 331 490 C 305 490 287 476 276 450 C 265 424 260 384 260 331 C 260 277 265 237 276 211 C 287 185 305 172 331 172 Z" unicode="0" />
<glyph horiz-adv-x="418" d="M 126 0 L 126 464 L 32 458 L 32 654 L 338 678 L 338 0 L 126 0 Z" unicode="1" />
<glyph horiz-adv-x="548" d="M 46 0 L 46 228 L 99 242 C 150 255 195 277 235 308 C 274 339 294 372 294 408 C 294 432 285 450 268 464 C 251 478 230 485 206 485 C 181 485 154 480 124 471 C 94 462 67 450 44 435 L 44 637 C 66 649 96 659 135 667 C 173 675 210 680 244 680 C 321 680 383 660 431 621 C 479 581 503 529 503 463 C 503 405 485 351 451 302 C 417 253 364 218 293 197 L 263 188 L 504 188 L 504 0 L 46 0 Z" unicode="2" />
<glyph horiz-adv-x="542" d="M 262 -12 C 226 -12 190 -8 154 -1 C 118 5 81 16 44 31 L 44 224 C 68 208 95 196 124 188 C 153 180 183 176 213 176 C 235 176 252 179 265 186 C 278 192 285 203 285 217 C 285 231 277 242 262 249 C 246 256 226 260 200 260 L 162 260 L 162 404 L 194 404 C 220 404 240 408 255 416 C 270 424 278 436 278 452 C 278 464 272 474 262 480 C 251 486 236 490 218 490 C 190 490 163 486 135 480 C 107 474 82 464 59 452 L 59 643 C 93 655 127 663 161 669 C 195 675 230 678 268 678 C 333 678 386 661 428 627 C 469 593 490 550 490 500 C 490 464 482 431 466 401 C 450 371 422 348 383 334 C 423 320 453 298 471 268 C 489 238 498 206 498 170 C 498 114 477 70 435 37 C 393 4 335 -12 262 -12 Z" unicode="3" />
<glyph horiz-adv-x="625" d="M 311 0 L 311 124 L 40 124 L 40 274 L 218 666 L 511 666 L 511 296 L 585 296 L 585 122 L 511 122 L 511 0 L 311 0 Z M 311 296 L 311 491 L 226 296 L 311 296 Z" unicode="4" />
<glyph horiz-adv-x="559" d="M 257 -12 C 215 -12 175 -8 139 -1 C 102 5 70 15 44 28 L 44 199 C 72 185 105 175 141 170 C 177 164 211 162 243 162 C 261 162 276 166 286 174 C 296 182 301 193 301 206 C 301 218 296 229 286 237 C 276 245 262 250 244 250 C 211 250 177 248 142 245 C 107 241 74 236 44 230 L 71 666 L 495 666 L 495 466 L 212 466 L 208 406 C 219 408 231 409 243 410 C 255 411 266 412 275 412 C 351 412 410 395 452 361 C 494 327 515 275 515 207 C 515 144 493 92 451 50 C 409 8 344 -12 257 -12 Z" unicode="5" />
<glyph horiz-adv-x="615" d="M 319 -12 C 233 -12 165 16 117 74 C 68 132 44 214 44 321 C 44 423 70 509 124 578 C 178 647 253 682 350 682 C 380 682 413 678 448 672 C 483 665 516 656 546 645 L 546 475 C 520 487 491 496 460 503 C 429 510 400 514 372 514 C 339 514 314 505 296 487 C 278 469 266 444 258 412 C 270 423 285 431 303 437 C 321 443 342 446 367 446 C 423 446 471 429 511 396 C 551 362 571 311 571 242 C 571 156 546 92 497 50 C 448 8 389 -12 319 -12 Z M 313 167 C 329 167 341 173 351 185 C 360 197 365 212 365 231 C 365 249 360 264 351 276 C 342 288 330 294 316 294 C 300 294 287 289 277 279 C 266 269 259 257 255 242 C 255 217 260 198 272 186 C 283 173 297 167 313 167 Z" unicode="6" />
<glyph horiz-adv-x="566" d="M 86 0 L 306 466 L 40 466 L 40 666 L 526 666 L 526 501 L 305 0 L 86 0 Z" unicode="7" />
<glyph horiz-adv-x="615" d="M 306 -16 C 226 -16 162 1 115 36 C 67 71 44 118 44 176 C 44 206 52 234 69 259 C 85 284 110 306 143 325 C 114 345 92 370 76 398 C 60 426 53 457 53 491 C 53 549 75 595 121 630 C 167 664 228 682 306 682 C 382 682 442 665 488 633 C 533 600 556 556 556 501 C 556 474 549 449 535 426 C 521 403 499 383 470 366 C 502 345 526 320 544 290 C 562 260 571 227 571 190 C 571 129 547 79 499 41 C 451 3 386 -16 306 -16 Z M 320 422 L 322 422 C 334 428 343 436 350 446 C 357 456 361 466 361 476 C 361 494 356 509 346 520 C 336 530 322 536 306 536 C 289 536 275 531 265 522 C 255 513 250 500 250 482 C 250 468 256 455 269 445 C 281 434 298 426 320 422 Z M 244 206 C 244 185 249 169 261 158 C 272 147 287 142 307 142 C 326 142 341 146 353 156 C 365 165 371 179 371 199 C 371 213 363 227 349 239 C 334 251 314 260 290 266 L 287 267 C 274 258 264 248 256 238 C 248 227 244 216 244 206 Z" unicode="8" />
<glyph horiz-adv-x="615" d="M 265 -12 C 221 -12 182 -6 148 3 C 114 13 82 26 51 41 L 51 211 C 87 191 121 177 154 169 C 186 160 216 156 243 156 C 279 156 306 165 324 183 C 342 201 355 228 362 263 C 350 250 334 240 316 234 C 297 227 274 224 248 224 C 192 224 144 240 104 274 C 64 307 44 358 44 428 C 44 514 68 577 117 619 C 166 661 226 682 296 682 C 382 682 449 653 498 595 C 546 537 571 455 571 349 C 571 246 544 160 490 91 C 436 22 361 -12 265 -12 Z M 302 379 C 318 379 330 382 340 390 C 349 398 356 412 361 432 C 361 454 356 472 346 486 C 336 499 322 506 305 506 C 289 506 276 500 267 489 C 257 477 253 462 253 442 C 253 424 257 409 266 397 C 275 385 287 379 302 379 Z" unicode="9" />
<glyph horiz-adv-x="300" d="M 56 284 L 56 472 L 244 472 L 244 284 L 56 284 Z M 56 0 L 56 188 L 244 188 L 244 0 L 56 0 Z" unicode=":" />
<glyph horiz-adv-x="314" d="M 262 188 L 262 87 C 262 12 252 -45 233 -87 C 214 -129 194 -160 172 -181 L 24 -148 C 42 -110 54 -74 62 -40 C 70 -6 74 36 74 86 L 74 188 L 262 188 Z M 73 285 L 73 473 L 261 473 L 261 285 L 73 285 Z" unicode=";" />
<glyph horiz-adv-x="531" d="M 243 68 L 56 284 L 245 500 L 475 500 L 286 285 L 475 68 L 243 68 Z" unicode="&#x3C;" />
<glyph horiz-adv-x="544" d="M 56 330 L 56 478 L 488 478 L 488 330 L 56 330 Z M 56 122 L 56 270 L 488 270 L 488 122 L 56 122 Z" unicode="=" />
<glyph horiz-adv-x="531" d="M 56 68 L 245 285 L 56 500 L 286 500 L 475 284 L 288 68 L 56 68 Z" unicode="&#x3E;" />
<glyph horiz-adv-x="482" d="M 116 225 C 116 271 124 308 142 337 C 159 365 175 386 191 399 C 207 411 218 424 225 437 C 231 450 235 463 235 477 C 235 493 228 507 214 517 C 200 527 182 533 160 533 C 133 533 109 530 88 525 C 67 520 44 512 20 502 L 20 667 C 56 679 90 687 122 692 C 154 697 192 700 236 700 C 288 700 336 686 382 660 C 427 633 450 591 450 533 C 450 492 442 458 427 430 C 412 402 393 378 371 360 C 351 343 333 323 318 300 C 303 276 296 251 296 225 L 116 225 Z M 109 1 L 109 165 L 305 165 L 305 1 L 109 1 Z" unicode="?" />
<glyph horiz-adv-x="808" d="M 393 -83 C 297 -83 213 -51 142 11 C 71 74 36 161 36 272 C 36 381 73 469 147 535 C 221 601 308 634 409 634 C 508 634 593 605 665 547 C 736 489 772 411 772 313 C 772 246 755 194 721 157 C 687 119 648 101 602 101 C 573 101 548 106 527 116 C 505 126 487 143 473 167 C 461 145 446 128 427 117 C 408 106 386 101 360 101 C 321 101 289 116 264 148 C 239 180 227 215 227 253 C 227 319 247 370 288 405 C 329 439 374 457 422 457 C 443 457 466 454 491 449 C 516 443 539 436 559 428 L 540 270 C 538 252 541 236 551 223 C 561 210 575 204 595 204 C 619 204 635 213 645 232 C 655 251 660 275 660 305 C 660 366 637 418 591 462 C 545 506 484 528 409 528 C 330 528 267 502 219 452 C 171 402 148 342 148 274 C 148 203 170 144 215 97 C 260 49 319 26 393 26 C 425 26 455 29 484 37 C 513 44 541 55 569 70 L 569 -50 C 539 -60 510 -68 481 -74 C 452 -80 423 -83 393 -83 Z M 390 226 C 400 226 410 231 418 241 C 426 251 432 273 437 306 L 441 337 C 433 337 427 338 422 338 C 417 338 412 339 407 339 C 393 339 381 332 369 320 C 357 307 352 291 352 272 C 352 258 355 247 363 239 C 370 230 379 226 390 226 Z" unicode="@" />
<glyph horiz-adv-x="756" d="M 12 0 L 275 658 L 482 658 L 744 0 L 515 0 L 479 96 L 246 96 L 210 0 L 12 0 Z M 320 294 L 297 232 L 428 232 L 405 294 L 363 418 L 320 294 Z" unicode="A" />
<glyph horiz-adv-x="624" d="M 60 0 L 60 658 L 352 658 C 422 658 477 643 518 613 C 558 583 579 542 579 491 C 579 451 568 417 547 390 C 525 363 494 343 452 331 C 500 321 537 304 562 278 C 587 252 600 219 600 179 C 600 124 579 80 539 48 C 499 16 442 0 369 0 L 60 0 Z M 270 396 L 306 396 C 323 396 337 401 348 413 C 359 425 365 439 365 456 C 365 474 359 489 348 500 C 337 511 323 517 306 517 L 270 517 L 270 396 Z M 270 153 L 321 153 C 339 153 354 158 366 170 C 378 182 384 196 384 214 C 384 232 378 246 366 257 C 354 268 339 274 321 274 L 270 274 L 270 153 Z" unicode="B" />
<glyph horiz-adv-x="642" d="M 408 -12 C 297 -12 208 18 141 80 C 73 142 40 225 40 330 C 40 434 73 517 141 578 C 208 639 297 670 408 670 C 440 670 472 666 502 659 C 532 652 562 642 591 629 L 591 436 C 563 452 534 464 506 472 C 478 480 449 484 420 484 C 372 484 334 470 306 443 C 278 415 264 378 264 330 C 264 281 278 243 306 215 C 334 187 372 174 420 174 C 450 174 480 178 510 186 C 540 194 569 207 598 224 L 598 33 C 567 18 536 7 505 0 C 474 -8 442 -12 408 -12 Z" unicode="C" />
<glyph horiz-adv-x="719" d="M 60 0 L 60 658 L 309 658 C 421 658 511 629 578 571 C 645 513 679 435 679 337 C 679 234 646 152 580 91 C 514 30 424 0 309 0 L 60 0 Z M 272 186 L 304 186 C 352 186 390 199 418 227 C 445 254 459 291 459 337 C 459 378 445 411 418 435 C 390 459 352 472 304 472 L 272 472 L 272 186 Z" unicode="D" />
<glyph horiz-adv-x="540" d="M 60 0 L 60 658 L 485 658 L 485 474 L 272 474 L 272 405 L 468 405 L 468 255 L 272 255 L 272 183 L 496 183 L 496 0 L 60 0 Z" unicode="E" />
<glyph horiz-adv-x="496" d="M 60 0 L 60 658 L 464 658 L 464 474 L 272 474 L 272 401 L 446 401 L 446 227 L 272 227 L 272 0 L 60 0 Z" unicode="F" />
<glyph horiz-adv-x="710" d="M 397 -12 C 291 -12 205 18 139 80 C 73 142 40 223 40 324 C 40 431 74 515 142 577 C 210 639 297 670 404 670 C 440 670 477 667 513 662 C 549 657 586 650 623 640 L 623 447 C 589 458 555 467 522 473 C 488 479 454 482 418 482 C 374 482 336 468 306 441 C 275 414 260 377 260 331 C 260 281 273 242 300 213 C 326 183 361 169 403 169 C 413 169 424 169 435 170 C 446 171 457 173 468 177 L 468 249 L 379 249 L 379 399 L 670 399 L 670 28 C 630 14 587 4 542 -2 C 497 -8 449 -12 397 -12 Z" unicode="G" />
<glyph horiz-adv-x="732" d="M 60 0 L 60 658 L 272 658 L 272 421 L 460 421 L 460 658 L 672 658 L 672 0 L 460 0 L 460 235 L 272 235 L 272 0 L 60 0 Z" unicode="H" />
<glyph horiz-adv-x="332" d="M 60 0 L 60 658 L 272 658 L 272 0 L 60 0 Z" unicode="I" />
<glyph horiz-adv-x="335" d="M -20 -220 L -36 -220 L -36 -48 L -20 -48 C 5 -48 25 -40 40 -24 C 55 -8 63 15 63 48 L 63 658 L 275 658 L 275 48 C 275 -32 250 -96 202 -146 C 153 -195 79 -220 -20 -220 Z" unicode="J" />
<glyph horiz-adv-x="733" d="M 60 0 L 60 658 L 272 658 L 272 354 L 490 658 L 717 658 L 477 341 L 715 0 L 467 0 L 272 293 L 272 0 L 60 0 Z" unicode="K" />
<glyph horiz-adv-x="521" d="M 60 0 L 60 658 L 272 658 L 272 188 L 497 188 L 497 0 L 60 0 Z" unicode="L" />
<glyph horiz-adv-x="932" d="M 60 0 L 60 658 L 359 658 L 433 468 L 467 361 L 501 468 L 575 658 L 872 658 L 872 0 L 660 0 L 660 311 L 667 446 L 620 312 L 509 46 L 398 46 L 287 313 L 241 445 L 248 312 L 248 0 L 60 0 Z" unicode="M" />
<glyph horiz-adv-x="776" d="M 60 0 L 60 658 L 309 658 L 484 372 L 532 286 L 528 372 L 528 658 L 716 658 L 716 0 L 473 0 L 294 286 L 244 376 L 248 286 L 248 0 L 60 0 Z" unicode="N" />
<glyph horiz-adv-x="799" d="M 400 -18 C 290 -18 202 13 137 76 C 72 138 40 223 40 329 C 40 435 72 520 137 582 C 202 644 290 676 400 676 C 509 676 596 644 661 582 C 726 520 759 435 759 329 C 759 223 726 138 661 76 C 596 13 509 -18 400 -18 Z M 400 167 C 442 167 475 181 501 210 C 526 239 539 279 539 329 C 539 379 526 418 501 447 C 475 476 442 491 400 491 C 357 491 323 476 298 447 C 272 418 260 379 260 329 C 260 279 272 239 298 210 C 323 181 357 167 400 167 Z" unicode="O" />
<glyph horiz-adv-x="610" d="M 60 0 L 60 658 L 327 658 C 406 658 469 634 516 586 C 562 538 586 482 586 416 C 586 348 562 290 514 241 C 466 191 402 167 322 167 L 272 167 L 272 0 L 60 0 Z M 272 337 L 300 337 C 322 337 339 344 353 358 C 366 372 373 392 373 416 C 373 436 366 453 353 466 C 339 479 321 486 299 486 L 272 486 L 272 337 Z" unicode="P" />
<glyph horiz-adv-x="802" d="M 625 -169 C 579 -155 532 -131 483 -97 C 433 -63 391 -25 357 15 L 484 138 C 521 100 564 67 613 41 C 662 15 710 -3 758 -14 L 625 -169 Z M 400 -18 C 290 -18 202 13 137 76 C 72 138 40 223 40 329 C 40 435 72 520 137 582 C 202 644 290 676 400 676 C 509 676 596 644 661 582 C 726 520 759 435 759 329 C 759 223 726 138 661 76 C 596 13 509 -18 400 -18 Z M 400 167 C 442 167 475 181 501 210 C 526 239 539 279 539 329 C 539 379 526 418 501 447 C 475 476 442 491 400 491 C 357 491 323 476 298 447 C 272 418 260 379 260 329 C 260 279 272 239 298 210 C 323 181 357 167 400 167 Z" unicode="Q" />
<glyph horiz-adv-x="672" d="M 429 0 L 358 190 C 349 212 340 228 330 238 C 320 248 307 253 293 253 L 272 253 L 272 0 L 60 0 L 60 658 L 364 658 C 421 658 470 642 512 612 C 554 582 575 539 575 485 C 575 442 563 406 540 378 C 517 349 484 328 440 316 C 476 308 505 294 527 276 C 549 258 567 233 579 201 L 656 0 L 429 0 Z M 272 385 L 302 385 C 320 385 335 390 347 402 C 359 414 365 429 365 448 C 365 466 359 481 347 493 C 335 504 320 510 302 510 L 272 510 L 272 385 Z" unicode="R" />
<glyph horiz-adv-x="573" d="M 263 -12 C 231 -12 196 -8 159 -1 C 121 6 85 16 50 30 L 50 213 C 82 197 116 185 151 177 C 186 169 219 165 250 165 C 266 165 280 167 290 173 C 300 178 305 186 305 197 C 305 206 300 214 291 222 C 282 230 269 236 253 240 L 219 248 C 159 262 114 286 84 322 C 54 357 40 399 40 449 C 40 516 63 570 111 610 C 159 650 223 670 305 670 C 337 670 371 667 406 662 C 441 656 473 649 501 639 L 501 459 C 475 470 446 479 414 486 C 382 492 352 496 324 496 C 308 496 295 493 286 489 C 276 484 272 476 272 466 C 272 457 276 449 285 441 C 293 433 306 428 323 424 L 357 416 C 417 401 462 375 490 339 C 518 302 533 260 533 212 C 533 137 508 81 460 44 C 411 6 345 -12 263 -12 Z" unicode="S" />
<glyph horiz-adv-x="568" d="M 178 0 L 178 470 L 20 470 L 20 658 L 548 658 L 548 470 L 390 470 L 390 0 L 178 0 Z" unicode="T" />
<glyph horiz-adv-x="713" d="M 361 -12 C 271 -12 198 13 141 65 C 84 116 56 183 56 267 L 56 658 L 280 658 L 280 283 C 280 257 287 235 303 218 C 318 200 339 192 366 192 C 392 192 413 200 429 218 C 445 235 453 257 453 283 L 453 658 L 657 658 L 657 267 C 657 183 629 116 574 65 C 518 13 447 -12 361 -12 Z" unicode="U" />
<glyph horiz-adv-x="733" d="M 263 0 L 12 658 L 239 658 L 341 364 L 378 246 L 414 364 L 516 658 L 721 658 L 470 0 L 263 0 Z" unicode="V" />
<glyph horiz-adv-x="1098" d="M 205 0 L 12 658 L 236 658 L 316 364 L 342 245 L 370 364 L 450 658 L 664 658 L 743 364 L 771 250 L 799 364 L 878 658 L 1086 658 L 887 0 L 645 0 L 576 238 L 545 377 L 512 238 L 444 0 L 205 0 Z" unicode="W" />
<glyph horiz-adv-x="747" d="M 16 0 L 249 329 L 21 658 L 279 658 L 355 541 L 387 483 L 420 540 L 497 658 L 728 658 L 502 334 L 731 0 L 473 0 L 400 119 L 363 186 L 326 121 L 248 0 L 16 0 Z" unicode="X" />
<glyph horiz-adv-x="705" d="M 250 0 L 250 213 L 12 658 L 258 658 L 336 485 L 367 413 L 398 485 L 476 658 L 693 658 L 462 220 L 462 0 L 250 0 Z" unicode="Y" />
<glyph horiz-adv-x="675" d="M 52 0 L 52 120 L 263 403 L 317 470 L 56 470 L 56 658 L 623 658 L 623 538 L 414 255 L 360 188 L 622 188 L 622 0 L 52 0 Z" unicode="Z" />
<glyph horiz-adv-x="401" d="M 60 -220 L 60 716 L 369 716 L 369 566 L 248 566 L 248 -70 L 369 -70 L 369 -220 L 60 -220 Z" unicode="[" />
<glyph horiz-adv-x="522" d="M 334 0 L 20 716 L 188 716 L 502 0 L 334 0 Z" unicode="\" />
<glyph horiz-adv-x="401" d="M 32 -220 L 32 -70 L 153 -70 L 153 566 L 32 566 L 32 716 L 341 716 L 341 -220 L 32 -220 Z" unicode="]" />
<glyph horiz-adv-x="248" d="M 85 524 L -44 524 L 50 698 L 202 698 L 296 524 L 159 524 L 122 596 L 85 524 Z" unicode="^" />
<glyph horiz-adv-x="396" d="M 0 -210 L 0 -78 L 396 -78 L 396 -210 L 0 -210 Z" unicode="_" />
<glyph horiz-adv-x="247" d="M 47 524 L -80 682 L 101 682 L 203 524 L 47 524 Z" unicode="`" />
<glyph horiz-adv-x="535" d="M 171 -12 C 128 -12 93 1 65 28 C 37 54 24 86 24 124 C 24 174 41 210 75 234 C 109 258 156 275 216 285 L 295 298 L 295 312 C 295 326 287 337 273 344 C 258 351 236 355 206 355 C 178 355 152 351 127 344 C 101 336 76 325 52 311 L 52 460 C 84 470 116 478 148 484 C 180 490 217 493 259 493 C 331 493 389 478 433 448 C 477 418 499 376 499 324 L 499 0 L 306 0 L 296 55 C 282 32 265 15 245 4 C 225 -6 200 -12 171 -12 Z M 263 127 C 269 127 275 128 281 132 C 287 135 292 139 295 145 L 295 209 L 262 204 C 253 202 245 198 239 191 C 232 184 229 175 229 163 C 229 152 232 143 239 137 C 245 130 253 127 263 127 Z" unicode="a" />
<glyph horiz-adv-x="560" d="M 265 -12 C 227 -12 189 -9 152 -3 C 114 3 77 12 40 24 L 40 716 L 244 716 L 244 416 C 256 436 273 453 295 468 C 316 482 343 490 377 490 C 429 490 468 468 495 424 C 522 380 536 323 536 253 C 536 172 511 108 462 60 C 413 12 347 -12 265 -12 Z M 273 147 C 290 147 303 153 313 167 C 323 180 328 201 328 229 C 328 256 323 276 314 290 C 305 304 292 311 275 311 C 270 311 265 310 259 309 C 253 307 248 305 244 303 L 244 152 C 248 150 253 148 258 148 C 263 147 268 147 273 147 Z" unicode="b" />
<glyph horiz-adv-x="447" d="M 281 -12 C 203 -12 141 10 94 54 C 47 98 24 157 24 231 C 24 308 46 370 92 416 C 138 462 200 485 279 485 C 301 485 323 482 345 478 C 367 474 389 468 411 460 L 411 288 C 393 296 376 302 359 306 C 342 310 326 313 311 313 C 287 313 269 306 255 292 C 241 278 234 260 234 237 C 234 213 241 195 257 181 C 272 167 292 160 317 160 C 333 160 349 162 365 168 C 381 173 398 181 415 192 L 415 20 C 391 9 368 1 346 -4 C 323 -9 301 -12 281 -12 Z" unicode="c" />
<glyph horiz-adv-x="562" d="M 193 -10 C 143 -10 102 11 71 55 C 39 98 24 155 24 226 C 24 304 43 367 81 414 C 119 461 168 485 228 485 C 244 485 259 482 275 477 C 290 472 304 465 318 456 L 318 716 L 522 716 L 522 0 L 326 0 L 318 66 C 304 41 287 22 267 9 C 247 -3 222 -10 193 -10 Z M 284 164 C 290 164 296 164 302 166 C 308 168 313 171 318 175 L 318 312 C 312 314 307 316 301 318 C 295 319 290 320 284 320 C 268 320 256 313 247 299 C 238 285 234 266 234 242 C 234 218 238 199 247 185 C 255 171 268 164 284 164 Z" unicode="d" />
<glyph horiz-adv-x="531" d="M 290 -16 C 206 -16 140 7 94 53 C 47 99 24 161 24 239 C 24 316 46 378 91 424 C 136 470 199 493 280 493 C 356 493 413 466 451 414 C 488 362 507 295 507 214 L 507 199 L 231 199 C 233 178 244 163 264 154 C 283 144 311 140 347 140 C 371 140 396 143 422 149 C 447 155 471 165 495 178 L 495 21 C 459 8 423 -1 388 -7 C 353 -13 320 -16 290 -16 Z M 272 374 C 258 374 247 367 241 354 C 234 341 230 320 230 291 L 311 291 C 311 321 308 343 302 355 C 296 367 286 374 272 374 Z" unicode="e" />
<glyph horiz-adv-x="390" d="M 81 0 L 81 314 L 24 314 L 24 478 L 81 478 L 81 539 C 81 593 101 638 141 674 C 181 710 236 728 305 728 C 330 728 355 726 379 723 C 403 720 427 716 450 710 L 450 541 C 433 544 417 546 402 548 C 386 550 373 551 361 551 C 339 551 321 547 307 539 C 292 531 285 516 285 496 L 285 478 L 374 478 L 374 314 L 285 314 L 285 0 L 81 0 Z" unicode="f" />
<glyph horiz-adv-x="564" d="M 273 -220 C 233 -220 196 -216 160 -210 C 124 -204 90 -194 56 -182 L 56 -23 C 78 -39 103 -52 130 -60 C 157 -68 183 -72 207 -72 C 221 -72 244 -68 274 -60 C 304 -52 320 -29 320 11 L 320 47 C 307 27 291 12 271 2 C 251 -7 231 -12 210 -12 C 151 -12 105 9 73 52 C 40 95 24 153 24 226 C 24 316 48 384 98 428 C 147 472 203 494 265 494 C 293 494 320 487 346 473 C 371 459 390 440 403 418 L 441 478 L 524 478 L 524 27 C 524 -63 497 -127 444 -164 C 390 -201 333 -220 273 -220 Z M 282 156 C 288 156 295 157 301 159 C 307 161 313 163 318 167 L 318 306 C 312 308 307 310 301 312 C 295 313 290 314 284 314 C 268 314 256 306 247 292 C 238 278 234 259 234 236 C 234 211 238 191 247 177 C 255 163 267 156 282 156 Z" unicode="g" />
<glyph horiz-adv-x="559" d="M 40 0 L 40 716 L 244 716 L 244 419 C 256 439 274 455 296 469 C 318 483 344 490 375 490 C 417 490 452 475 480 447 C 508 418 523 380 523 332 L 523 0 L 319 0 L 319 282 C 319 294 315 303 307 310 C 299 316 290 320 280 320 C 272 320 265 318 259 316 C 252 313 247 309 244 303 L 244 0 L 40 0 Z" unicode="h" />
<glyph horiz-adv-x="284" d="M 40 542 L 40 716 L 244 716 L 244 542 L 40 542 Z M 40 0 L 40 478 L 244 478 L 244 0 L 40 0 Z" unicode="i" />
<glyph horiz-adv-x="282" d="M 38 542 L 38 716 L 242 716 L 242 542 L 38 542 Z M -56 -220 L -64 -220 L -64 -56 L -56 -56 C -28 -56 -5 -46 12 -28 C 29 -9 38 14 38 43 L 38 478 L 242 478 L 242 42 C 242 -35 214 -98 160 -147 C 105 -195 33 -220 -56 -220 Z" unicode="j" />
<glyph horiz-adv-x="589" d="M 40 0 L 40 716 L 244 716 L 244 295 L 359 478 L 575 478 L 429 256 L 577 0 L 350 0 L 244 186 L 244 0 L 40 0 Z" unicode="k" />
<glyph horiz-adv-x="284" d="M 40 0 L 40 716 L 244 716 L 244 0 L 40 0 Z" unicode="l" />
<glyph horiz-adv-x="834" d="M 40 0 L 40 478 L 244 478 L 244 418 C 256 438 273 455 295 469 C 317 483 343 490 375 490 C 403 490 428 483 450 469 C 472 455 489 436 502 414 C 524 443 547 463 571 474 C 595 484 620 490 646 490 C 690 490 726 475 755 447 C 783 418 798 380 798 332 L 798 0 L 594 0 L 594 282 C 594 294 590 303 583 310 C 575 316 566 320 556 320 C 549 320 542 318 536 314 C 530 310 525 306 521 302 L 521 0 L 317 0 L 317 282 C 317 294 313 303 306 310 C 298 316 289 320 279 320 C 271 320 264 318 258 316 C 252 313 247 309 244 303 L 244 0 L 40 0 Z" unicode="m" />
<glyph horiz-adv-x="559" d="M 40 0 L 40 478 L 244 478 L 244 418 C 256 438 274 455 296 469 C 318 483 346 490 378 490 C 418 490 453 475 481 447 C 509 418 523 380 523 332 L 523 0 L 319 0 L 319 282 C 319 294 315 303 307 310 C 299 316 290 320 280 320 C 272 320 265 318 259 316 C 252 313 247 309 244 303 L 244 0 L 40 0 Z" unicode="n" />
<glyph horiz-adv-x="568" d="M 284 -16 C 204 -16 141 7 94 54 C 47 100 24 163 24 242 C 24 318 47 379 94 425 C 141 471 204 494 284 494 C 363 494 426 471 473 426 C 520 380 544 320 544 244 C 544 164 520 101 473 54 C 426 7 363 -16 284 -16 Z M 284 157 C 298 157 310 164 320 178 C 329 192 334 212 334 240 C 334 266 329 286 320 300 C 310 314 298 321 284 321 C 269 321 257 314 248 300 C 238 286 234 266 234 240 C 234 212 238 192 248 178 C 257 164 269 157 284 157 Z" unicode="o" />
<glyph horiz-adv-x="560" d="M 40 -188 L 40 478 L 244 478 L 244 417 C 257 436 274 453 295 468 C 316 482 343 490 377 490 C 428 490 467 468 495 425 C 522 381 536 324 536 253 C 536 173 514 109 472 61 C 430 12 375 -12 307 -12 C 297 -12 286 -11 275 -9 C 263 -7 253 -4 244 0 L 244 -188 L 40 -188 Z M 273 152 C 290 152 303 158 313 171 C 323 184 328 205 328 234 C 328 260 323 281 313 295 C 303 309 290 316 274 316 C 269 316 264 315 259 314 C 253 312 248 310 244 308 L 244 160 C 248 157 252 155 258 154 C 263 152 268 152 273 152 Z" unicode="p" />
<glyph horiz-adv-x="564" d="M 320 -188 L 320 42 C 305 24 288 10 268 2 C 248 -6 227 -11 205 -11 C 151 -11 107 10 74 54 C 40 97 24 155 24 229 C 24 307 46 370 92 418 C 137 466 194 490 264 490 C 292 490 320 482 346 468 C 372 454 391 437 404 418 L 441 478 L 524 478 L 524 -188 L 320 -188 Z M 280 158 C 286 158 293 159 300 161 C 307 163 313 165 318 169 L 318 305 C 312 307 306 309 300 311 C 294 312 288 313 282 313 C 266 313 254 306 245 292 C 236 278 232 259 232 236 C 232 212 236 193 245 179 C 253 165 265 158 280 158 Z" unicode="q" />
<glyph horiz-adv-x="419" d="M 40 0 L 40 478 L 244 478 L 244 403 C 258 435 274 457 293 470 C 312 483 332 490 352 490 C 361 490 370 489 380 487 C 389 485 398 483 407 480 L 407 291 C 392 298 378 303 365 307 C 352 311 337 313 321 313 C 308 313 295 311 281 307 C 267 303 254 298 244 292 L 244 0 L 40 0 Z" unicode="r" />
<glyph horiz-adv-x="485" d="M 240 -16 C 205 -16 171 -14 137 -10 C 103 -6 69 0 35 8 L 35 164 C 63 150 92 139 120 132 C 148 124 178 121 208 121 C 216 121 223 122 229 126 C 235 129 238 134 238 141 C 238 146 235 150 231 154 C 226 158 219 161 211 163 L 163 174 C 115 184 79 203 57 230 C 35 256 24 289 24 329 C 24 379 41 419 76 449 C 111 479 164 494 236 494 C 269 494 302 492 334 488 C 366 484 398 479 431 471 L 431 325 C 403 338 377 348 353 354 C 329 360 304 363 278 363 C 268 363 260 361 254 358 C 248 354 246 349 246 343 C 246 338 247 334 251 330 C 254 326 259 323 265 322 L 313 312 C 364 301 401 281 425 253 C 449 225 461 191 461 151 C 461 101 442 61 406 30 C 369 0 314 -16 240 -16 Z" unicode="s" />
<glyph horiz-adv-x="397" d="M 239 -12 C 190 -12 151 3 122 33 C 93 63 79 104 79 156 L 79 314 L 24 314 L 24 478 L 79 478 L 79 616 L 283 616 L 283 478 L 365 478 L 365 314 L 283 314 L 283 214 C 283 199 286 187 294 179 C 302 170 312 166 325 166 C 333 166 342 167 350 170 C 358 173 366 177 373 183 L 373 13 C 350 4 328 -2 306 -6 C 284 -10 261 -12 239 -12 Z" unicode="t" />
<glyph horiz-adv-x="559" d="M 193 -12 C 146 -12 108 2 79 31 C 50 59 36 98 36 146 L 36 478 L 240 478 L 240 196 C 240 184 243 174 251 168 C 259 161 268 158 279 158 C 286 158 293 159 300 162 C 306 164 311 169 315 175 L 315 478 L 519 478 L 519 0 L 323 0 L 315 60 C 303 38 285 20 262 7 C 238 -5 215 -12 193 -12 Z" unicode="u" />
<glyph horiz-adv-x="574" d="M 160 0 L 12 478 L 230 478 L 273 320 L 304 196 L 334 320 L 377 478 L 562 478 L 414 0 L 160 0 Z" unicode="v" />
<glyph horiz-adv-x="907" d="M 156 0 L 12 478 L 220 478 L 260 320 L 287 197 L 316 320 L 360 478 L 546 478 L 594 320 L 630 196 L 665 320 L 714 478 L 895 478 L 732 0 L 511 0 L 477 116 L 443 241 L 410 116 L 377 0 L 156 0 Z" unicode="w" />
<glyph horiz-adv-x="588" d="M 12 0 L 180 242 L 19 478 L 247 478 L 293 400 L 303 381 L 312 400 L 359 478 L 564 478 L 406 246 L 576 0 L 337 0 L 291 73 L 280 94 L 270 73 L 224 0 L 12 0 Z" unicode="x" />
<glyph horiz-adv-x="573" d="M 51 -220 L 43 -220 L 43 -45 L 51 -45 C 95 -45 127 -42 148 -36 C 169 -30 187 -17 203 1 L 165 4 L 12 478 L 231 478 L 269 320 L 301 169 L 334 320 L 372 478 L 561 478 L 439 75 C 405 -36 356 -113 293 -156 C 230 -198 149 -220 51 -220 Z" unicode="y" />
<glyph horiz-adv-x="521" d="M 32 0 L 32 97 L 149 251 L 199 312 L 36 312 L 36 478 L 480 478 L 480 381 L 363 227 L 313 166 L 489 166 L 489 0 L 32 0 Z" unicode="z" />
<glyph horiz-adv-x="485" d="M 386 -220 C 314 -220 260 -203 224 -170 C 188 -137 171 -94 174 -40 L 180 72 C 181 100 171 123 150 140 C 129 156 99 167 60 173 L 60 323 C 99 328 129 339 150 356 C 171 372 181 395 180 424 L 174 536 C 171 590 188 633 224 666 C 260 699 314 716 386 716 L 445 716 L 445 571 L 429 571 C 409 571 392 564 379 550 C 366 536 361 516 363 490 L 369 409 C 371 369 362 334 342 306 C 321 278 291 259 251 249 L 251 247 C 290 235 320 215 341 187 C 361 158 370 125 368 87 L 362 6 C 360 -20 365 -40 378 -54 C 391 -68 408 -75 429 -75 L 445 -75 L 445 -220 L 386 -220 Z" unicode="{" />
<glyph horiz-adv-x="276" d="M 60 -219 L 60 716 L 216 716 L 216 -219 L 60 -219 Z" unicode="|" />
<glyph horiz-adv-x="485" d="M 40 -220 L 40 -75 L 56 -75 C 76 -75 93 -68 106 -54 C 119 -40 125 -20 123 6 L 117 87 C 114 125 123 158 144 187 C 164 215 194 235 234 247 L 234 249 C 194 259 163 278 143 306 C 122 334 113 369 116 409 L 122 490 C 124 516 118 536 105 550 C 92 564 76 571 56 571 L 40 571 L 40 716 L 99 716 C 171 716 225 699 261 666 C 297 633 313 590 311 536 L 305 424 C 303 395 313 372 334 356 C 355 339 385 328 425 323 L 425 173 C 385 167 355 156 334 140 C 313 123 303 100 305 72 L 311 -40 C 313 -94 297 -137 261 -170 C 225 -203 171 -220 99 -220 L 40 -220 Z" unicode="}" />
<glyph horiz-adv-x="384" d="M 122 146 L 20 146 C 20 196 30 235 50 261 C 70 287 100 301 140 301 C 155 301 168 298 180 294 C 192 290 204 283 216 274 C 221 269 225 266 229 265 C 232 263 236 263 240 263 C 246 263 251 265 255 271 C 259 276 261 284 262 295 L 364 295 C 364 244 354 205 334 179 C 314 153 284 140 244 140 C 230 140 217 142 205 146 C 193 150 181 158 168 168 C 162 172 158 174 154 176 C 150 177 147 178 144 178 C 136 178 131 175 127 170 C 123 164 122 156 122 146 Z" unicode="~" />
<glyph horiz-adv-x="301" d="M 52 360 L 52 524 L 248 524 L 248 360 L 52 360 Z M 53 -194 L 53 300 L 249 300 L 249 -194 L 53 -194 Z" unicode="¡" />
<glyph horiz-adv-x="447" d="M 198 383 L 198 570 L 354 570 L 354 383 L 198 383 Z M 198 -94 L 198 83 L 354 83 L 354 -94 L 198 -94 Z M 281 -12 C 203 -12 141 10 94 54 C 47 98 24 157 24 231 C 24 308 46 370 92 416 C 138 462 200 485 279 485 C 301 485 323 482 345 478 C 367 474 389 468 411 460 L 411 288 C 393 296 376 302 359 306 C 342 310 326 313 311 313 C 287 313 269 306 255 292 C 241 278 234 260 234 237 C 234 213 241 195 257 181 C 272 167 292 160 317 160 C 333 160 349 162 365 168 C 381 173 398 181 415 192 L 415 20 C 391 9 368 1 346 -4 C 323 -9 301 -12 281 -12 Z" unicode="¢" />
<glyph horiz-adv-x="592" d="M 56 0 L 56 136 C 78 148 96 165 110 187 C 123 208 130 233 131 262 L 52 262 L 52 419 L 109 419 C 100 497 116 559 158 605 C 199 651 268 674 365 674 C 395 674 425 670 454 664 C 482 657 511 647 540 633 L 540 446 C 515 462 490 475 464 483 C 438 491 410 496 381 496 C 352 496 330 489 314 477 C 298 464 289 445 289 419 L 393 419 L 393 262 L 312 262 C 311 249 309 236 307 224 C 305 211 301 199 297 189 L 540 189 L 540 0 L 56 0 Z" unicode="£" />
<glyph horiz-adv-x="779" d="M 196 -2 L 59 136 L 176 253 C 172 265 168 278 166 292 C 164 306 163 320 163 335 C 163 347 164 360 166 373 C 168 385 170 397 173 408 L 52 529 L 189 666 L 306 549 C 318 553 332 557 346 560 C 360 562 375 564 390 564 C 404 564 419 562 433 560 C 447 558 461 554 474 550 L 590 666 L 727 529 L 607 409 C 609 397 612 385 614 373 C 616 361 617 348 617 335 C 617 319 615 305 613 291 C 611 277 607 263 603 251 L 720 134 L 583 -3 L 460 120 C 449 116 438 114 426 112 C 414 110 402 110 390 110 C 377 110 365 110 353 112 C 341 114 329 116 318 120 L 196 -2 Z M 390 256 C 414 256 433 263 447 279 C 461 294 469 313 469 335 C 469 357 461 375 447 391 C 433 406 414 414 390 414 C 366 414 346 406 332 391 C 318 375 311 357 311 335 C 311 313 318 294 332 279 C 346 263 366 256 390 256 Z" unicode="¤" />
<glyph horiz-adv-x="725" d="M 132 236 L 132 336 L 604 336 L 604 236 L 132 236 Z M 132 93 L 132 193 L 604 193 L 604 93 L 132 93 Z M 262 0 L 262 213 L 24 658 L 270 658 L 348 485 L 379 413 L 410 485 L 488 658 L 705 658 L 474 220 L 474 0 L 262 0 Z" unicode="¥" />
<glyph horiz-adv-x="276" d="M 60 309 L 60 716 L 216 716 L 216 309 L 60 309 Z M 60 -220 L 60 187 L 216 187 L 216 -220 L 60 -220 Z" unicode="¦" />
<glyph horiz-adv-x="530" d="M 257 -12 C 222 -12 188 -9 154 -5 C 120 -1 86 5 52 13 L 52 160 C 80 147 110 138 141 132 C 172 126 203 123 233 123 C 241 123 248 124 254 128 C 260 131 263 135 263 141 C 263 147 260 152 256 156 C 251 160 244 162 236 163 L 191 173 C 143 183 109 201 90 227 C 71 253 62 281 62 311 C 62 335 66 356 75 374 C 83 392 95 407 110 419 C 93 431 80 447 72 466 C 64 484 60 506 60 531 C 60 581 77 621 112 651 C 147 681 200 696 272 696 C 305 696 338 694 370 690 C 402 686 434 679 467 671 L 467 538 C 441 547 414 554 387 559 C 359 563 332 566 306 566 C 296 566 288 564 282 561 C 276 558 274 554 274 548 C 274 543 275 539 279 536 C 282 532 287 530 293 529 L 337 518 C 388 506 424 488 446 462 C 467 436 478 407 478 373 C 478 348 473 326 464 308 C 455 290 443 275 427 265 C 443 251 456 234 465 214 C 473 194 478 173 478 149 C 478 99 459 60 423 31 C 386 2 331 -12 257 -12 Z M 268 310 L 290 308 C 294 312 298 317 301 323 C 304 329 306 335 306 342 C 306 352 302 360 294 367 C 286 373 275 378 261 380 L 241 383 C 238 378 236 373 234 367 C 232 361 231 356 231 350 C 231 342 234 333 240 325 C 246 316 255 311 268 310 Z" unicode="§" />
<glyph horiz-adv-x="250" d="M -40 524 L -40 664 L 100 664 L 100 524 L -40 524 Z M 150 524 L 150 664 L 290 664 L 290 524 L 150 524 Z" unicode="¨" />
<glyph horiz-adv-x="704" d="M 352 88 C 254 88 177 119 119 181 C 61 243 32 318 32 406 C 32 493 61 568 119 630 C 177 692 254 724 352 724 C 449 724 527 692 585 630 C 643 568 672 493 672 406 C 672 318 643 243 585 181 C 527 119 449 88 352 88 Z M 352 186 C 419 186 472 205 512 245 C 552 285 572 338 572 406 C 572 473 552 526 512 566 C 472 606 419 626 352 626 C 284 626 231 606 191 566 C 151 526 132 473 132 406 C 132 338 151 285 191 245 C 231 205 284 186 352 186 Z M 362 235 C 308 235 265 250 233 281 C 201 312 186 354 186 407 C 186 459 201 501 233 532 C 264 563 306 579 359 579 C 377 579 395 576 413 572 C 430 568 447 561 463 553 L 463 443 C 449 452 434 459 418 464 C 402 468 386 471 369 471 C 348 471 331 465 319 453 C 307 441 301 426 301 407 C 301 387 307 371 319 359 C 331 347 348 342 369 342 C 387 342 405 344 421 349 C 437 354 452 362 467 372 L 467 262 C 450 253 433 246 416 242 C 398 237 380 235 362 235 Z" unicode="©" />
<glyph horiz-adv-x="462" d="M 64 208 L 64 321 L 411 321 L 411 208 L 64 208 Z M 164 368 C 124 368 95 377 77 397 C 59 416 49 441 49 473 C 48 504 60 530 86 550 C 112 570 149 584 199 590 L 255 597 L 255 606 C 255 617 249 625 237 631 C 225 637 206 640 179 640 C 159 640 140 637 122 632 C 104 626 86 618 69 608 L 69 722 C 95 729 122 735 148 739 C 174 743 201 745 229 745 C 282 745 324 733 356 710 C 387 686 403 655 403 617 L 403 376 L 266 376 L 256 418 C 244 400 232 388 218 380 C 204 372 186 368 164 368 Z M 227 466 C 231 466 236 466 241 468 C 245 470 250 472 255 475 L 255 520 L 229 516 C 219 514 212 511 207 507 C 201 503 199 497 199 490 C 199 483 201 477 206 473 C 211 468 218 466 227 466 Z" unicode="ª" />
<glyph horiz-adv-x="699" d="M 187 55 L 40 226 L 187 398 L 379 398 L 233 226 L 379 55 L 187 55 Z M 467 55 L 320 226 L 467 398 L 659 398 L 513 226 L 659 55 L 467 55 Z" unicode="«" />
<glyph horiz-adv-x="502" d="M 318 103 L 318 206 L 52 206 L 52 338 L 450 338 L 450 103 L 318 103 Z" unicode="¬" />
<glyph horiz-adv-x="360" d="M 40 163 L 40 311 L 320 311 L 320 163 L 40 163 Z" unicode="­" />
<glyph horiz-adv-x="704" d="M 352 89 C 254 89 177 120 119 182 C 61 244 32 319 32 407 C 32 494 61 569 119 631 C 177 693 254 725 352 725 C 449 725 527 693 585 631 C 643 569 672 494 672 407 C 672 319 643 244 585 182 C 527 120 449 89 352 89 Z M 229 248 L 229 573 L 367 573 C 401 573 427 565 447 551 C 467 536 477 516 477 492 C 477 470 471 451 459 437 C 447 422 430 412 408 408 C 423 406 436 401 447 394 C 458 386 466 377 471 365 L 515 249 C 533 267 547 290 557 317 C 567 344 572 374 572 407 C 572 474 552 527 512 567 C 472 607 419 627 352 627 C 284 627 231 607 191 567 C 151 527 132 474 132 407 C 132 339 151 286 191 246 C 231 206 284 187 352 187 C 386 187 416 192 444 203 C 472 213 495 228 514 248 L 409 248 L 379 326 C 374 338 369 348 365 355 C 360 362 353 366 345 366 L 331 366 L 331 248 L 229 248 Z M 331 442 L 347 442 C 357 442 365 444 371 450 C 377 455 380 462 380 471 C 380 481 377 488 371 493 C 365 497 357 500 347 500 L 331 500 L 331 442 Z" unicode="®" />
<glyph horiz-adv-x="250" d="M 0 532 L 0 647 L 250 647 L 250 532 L 0 532 Z" unicode="¯" />
<glyph horiz-adv-x="378" d="M 189 435 C 141 435 102 449 74 479 C 46 509 32 545 32 587 C 32 629 46 665 74 695 C 102 725 141 740 189 740 C 237 740 275 725 303 695 C 331 665 346 629 346 587 C 346 545 331 509 303 479 C 275 449 237 435 189 435 Z M 189 542 C 201 542 212 546 221 554 C 229 562 234 573 234 587 C 234 601 229 612 221 620 C 212 628 201 633 189 633 C 176 633 165 628 157 620 C 148 612 144 601 144 587 C 144 573 148 562 157 554 C 165 546 176 542 189 542 Z" unicode="°" />
<glyph horiz-adv-x="544" d="M 56 -134 L 56 14 L 487 14 L 487 -134 L 56 -134 Z M 198 66 L 198 213 L 56 213 L 56 361 L 198 361 L 198 508 L 346 508 L 346 361 L 488 361 L 488 213 L 346 213 L 346 66 L 198 66 Z" unicode="±" />
<glyph horiz-adv-x="343" d="M 24 440 L 24 577 C 82 588 121 601 142 615 C 162 629 173 643 173 659 C 173 671 169 680 161 686 C 153 692 142 695 126 695 C 109 695 92 692 76 688 C 59 683 43 676 29 667 L 29 786 C 51 792 73 798 95 802 C 117 806 139 809 163 809 C 214 809 252 797 277 773 C 302 749 315 721 315 687 C 315 653 304 626 282 604 C 260 582 225 563 175 549 L 312 549 L 312 440 L 24 440 Z" unicode="²" />
<glyph horiz-adv-x="343" d="M 168 432 C 142 432 118 433 94 435 C 70 437 47 441 24 446 L 24 564 C 40 556 57 550 74 546 C 90 542 108 541 126 541 C 136 541 145 542 152 546 C 158 549 162 554 162 561 C 162 569 157 574 149 578 C 140 581 129 583 116 583 L 89 583 L 89 659 L 110 659 C 124 659 134 660 142 664 C 150 667 154 672 154 679 C 154 685 151 690 146 694 C 140 697 134 699 126 699 C 109 699 93 697 78 694 C 62 690 47 685 32 678 L 32 794 C 52 798 74 802 96 804 C 118 806 140 808 164 808 C 212 808 247 799 271 782 C 295 764 307 741 307 713 C 307 690 300 671 287 655 C 274 639 254 628 228 623 C 257 617 279 607 293 591 C 307 575 315 557 315 537 C 315 504 303 478 279 460 C 255 441 218 432 168 432 Z" unicode="³" />
<glyph horiz-adv-x="247" d="M 200 524 L 44 524 L 146 682 L 327 682 L 200 524 Z" unicode="´" />
<glyph horiz-adv-x="560" d="M 151 0 L 151 390 C 115 390 84 403 58 429 C 32 455 20 487 20 523 C 20 559 33 591 61 618 C 89 644 122 658 160 658 L 488 658 L 488 0 L 352 0 L 352 542 L 287 542 L 287 0 L 151 0 Z" unicode="¶" />
<glyph horiz-adv-x="248" d="M 52 194 L 52 334 L 192 334 L 192 194 L 52 194 Z" unicode="·" />
<glyph horiz-adv-x="256" d="M 137 -249 C 121 -249 108 -248 96 -246 C 84 -244 72 -242 60 -238 L 60 -149 C 68 -153 77 -157 86 -160 C 95 -162 104 -164 113 -164 C 121 -164 128 -161 134 -157 C 139 -152 142 -146 142 -139 C 142 -132 139 -126 133 -122 C 127 -117 120 -115 112 -115 L 104 -115 L 104 -40 L 116 -40 C 156 -40 188 -49 214 -67 C 239 -85 252 -111 252 -145 C 252 -179 241 -204 220 -222 C 198 -240 171 -249 137 -249 Z" unicode="¸" />
<glyph horiz-adv-x="320" d="M 24 440 L 24 550 L 81 550 L 81 679 L 24 675 L 24 786 L 235 804 L 235 550 L 292 550 L 292 440 L 24 440 Z" unicode="¹" />
<glyph horiz-adv-x="491" d="M 64 208 L 64 321 L 436 321 L 436 208 L 64 208 Z M 246 362 C 186 362 139 379 104 414 C 69 448 52 495 52 554 C 52 611 69 657 104 691 C 139 725 186 742 246 742 C 305 742 352 725 387 691 C 421 657 439 611 439 555 C 439 496 421 449 387 414 C 352 379 305 362 246 362 Z M 246 494 C 258 494 268 499 276 510 C 283 520 287 534 287 552 C 287 570 283 584 276 594 C 268 604 258 610 246 610 C 233 610 223 604 215 594 C 207 584 204 570 204 552 C 204 534 207 520 215 510 C 223 499 233 494 246 494 Z" unicode="º" />
<glyph horiz-adv-x="699" d="M 40 55 L 186 226 L 40 398 L 232 398 L 379 226 L 232 55 L 40 55 Z M 320 55 L 466 226 L 320 398 L 512 398 L 659 226 L 512 55 L 320 55 Z" unicode="»" />
<glyph horiz-adv-x="813" d="M 619 0 L 619 59 L 472 59 L 472 168 L 585 360 L 751 360 L 751 153 L 789 153 L 789 58 L 751 58 L 751 0 L 619 0 Z M 619 153 L 619 244 L 562 153 L 619 153 Z M 186 0 L 510 716 L 654 716 L 330 0 L 186 0 Z M 24 360 L 24 470 L 81 470 L 81 599 L 24 595 L 24 706 L 235 724 L 235 470 L 292 470 L 292 360 L 24 360 Z M 24 360 L 24 470 L 81 470 L 81 599 L 24 595 L 24 706 L 235 724 L 235 470 L 292 470 L 292 360 L 24 360 Z" unicode="¼" />
<glyph horiz-adv-x="840" d="M 521 1 L 521 138 C 579 149 618 162 639 176 C 659 190 670 204 670 220 C 670 232 666 241 658 247 C 650 253 639 256 623 256 C 606 256 589 253 573 249 C 556 244 540 237 526 228 L 526 347 C 548 353 570 359 592 363 C 614 367 636 370 660 370 C 711 370 749 358 774 334 C 799 310 812 282 812 248 C 812 214 801 187 779 165 C 757 143 722 124 672 110 L 809 110 L 809 1 L 521 1 Z M 186 0 L 510 716 L 654 716 L 330 0 L 186 0 Z M 24 360 L 24 470 L 81 470 L 81 599 L 24 595 L 24 706 L 235 724 L 235 470 L 292 470 L 292 360 L 24 360 Z M 24 360 L 24 470 L 81 470 L 81 599 L 24 595 L 24 706 L 235 724 L 235 470 L 292 470 L 292 360 L 24 360 Z" unicode="½" />
<glyph horiz-adv-x="795" d="M 601 0 L 601 59 L 454 59 L 454 168 L 567 360 L 733 360 L 733 153 L 771 153 L 771 58 L 733 58 L 733 0 L 601 0 Z M 601 153 L 601 244 L 544 153 L 601 153 Z M 174 0 L 498 716 L 642 716 L 318 0 L 174 0 Z M 168 352 C 142 352 118 353 94 355 C 70 357 47 361 24 366 L 24 484 C 40 476 57 470 74 466 C 90 462 108 461 126 461 C 136 461 145 462 152 466 C 158 469 162 474 162 481 C 162 489 157 494 149 498 C 140 501 129 503 116 503 L 89 503 L 89 579 L 110 579 C 124 579 134 580 142 584 C 150 587 154 592 154 599 C 154 605 151 610 146 614 C 140 617 134 619 126 619 C 109 619 93 617 78 614 C 62 610 47 605 32 598 L 32 714 C 52 718 74 722 96 724 C 118 726 140 728 164 728 C 212 728 247 719 271 702 C 295 684 307 661 307 633 C 307 610 300 591 287 575 C 274 559 254 548 228 543 C 257 537 279 527 293 511 C 307 495 315 477 315 457 C 315 424 303 398 279 380 C 255 361 218 352 168 352 Z" unicode="¾" />
<glyph horiz-adv-x="470" d="M 165 360 L 165 524 L 361 524 L 361 360 L 165 360 Z M 234 -175 C 182 -175 133 -161 88 -135 C 42 -108 20 -66 20 -8 C 20 32 27 67 42 95 C 57 123 76 146 99 165 C 119 181 136 201 151 225 C 166 248 174 273 174 300 L 354 300 C 354 254 345 216 328 188 C 310 159 294 138 279 126 C 263 113 251 100 245 87 C 238 74 235 61 235 48 C 235 31 241 17 255 7 C 269 -2 287 -8 310 -8 C 336 -8 360 -5 381 0 C 402 4 425 12 450 23 L 450 -142 C 414 -154 380 -162 348 -167 C 316 -172 278 -175 234 -175 Z" unicode="¿" />
<glyph horiz-adv-x="756" d="M 12 0 L 275 658 L 482 658 L 744 0 L 515 0 L 479 96 L 246 96 L 210 0 L 12 0 Z M 320 294 L 297 232 L 428 232 L 405 294 L 363 418 L 320 294 Z M 309 706 L 195 848 L 358 848 L 450 706 L 309 706 Z" unicode="À" />
<glyph horiz-adv-x="756" d="M 12 0 L 275 658 L 482 658 L 744 0 L 515 0 L 479 96 L 246 96 L 210 0 L 12 0 Z M 320 294 L 297 232 L 428 232 L 405 294 L 363 418 L 320 294 Z M 448 706 L 307 706 L 399 848 L 562 848 L 448 706 Z" unicode="Á" />
<glyph horiz-adv-x="756" d="M 12 0 L 275 658 L 482 658 L 744 0 L 515 0 L 479 96 L 246 96 L 210 0 L 12 0 Z M 320 294 L 297 232 L 428 232 L 405 294 L 363 418 L 320 294 Z M 343 706 L 227 706 L 312 862 L 448 862 L 533 706 L 410 706 L 376 771 L 343 706 Z" unicode="Â" />
<glyph horiz-adv-x="756" d="M 12 0 L 275 658 L 482 658 L 744 0 L 515 0 L 479 96 L 246 96 L 210 0 L 12 0 Z M 320 294 L 297 232 L 428 232 L 405 294 L 363 418 L 320 294 Z M 315 706 L 223 706 C 223 752 232 786 250 810 C 268 834 295 846 331 846 C 345 846 357 844 368 840 C 378 836 389 830 400 822 C 404 818 408 815 411 814 C 414 812 417 812 421 812 C 427 812 431 814 435 819 C 438 824 440 831 441 841 L 533 841 C 533 795 524 760 506 736 C 488 712 461 701 425 701 C 412 701 400 703 390 707 C 380 711 368 717 356 726 C 351 729 347 731 344 733 C 340 734 337 735 335 735 C 328 735 323 732 320 727 C 316 722 315 715 315 706 Z" unicode="Ã" />
<glyph horiz-adv-x="756" d="M 12 0 L 275 658 L 482 658 L 744 0 L 515 0 L 479 96 L 246 96 L 210 0 L 12 0 Z M 320 294 L 297 232 L 428 232 L 405 294 L 363 418 L 320 294 Z M 231 706 L 231 832 L 357 832 L 357 706 L 231 706 Z M 403 706 L 403 832 L 529 832 L 529 706 L 403 706 Z" unicode="Ä" />
<glyph horiz-adv-x="756" d="M 12 0 L 275 658 L 482 658 L 744 0 L 515 0 L 479 96 L 246 96 L 210 0 L 12 0 Z M 320 294 L 297 232 L 428 232 L 405 294 L 363 418 L 320 294 Z M 377 572 C 337 572 306 584 282 609 C 258 633 247 664 247 700 C 247 735 258 765 282 789 C 306 813 337 826 377 826 C 416 826 447 813 471 789 C 495 765 507 735 507 700 C 507 664 495 633 471 609 C 447 584 416 572 377 572 Z M 377 658 C 388 658 398 661 406 669 C 414 676 418 686 418 699 C 418 711 414 721 406 728 C 398 735 388 739 377 739 C 365 739 356 735 348 728 C 340 721 336 711 336 699 C 336 686 340 676 348 669 C 356 661 365 658 377 658 Z" unicode="Å" />
<glyph horiz-adv-x="961" d="M 12 0 L 369 658 L 906 658 L 906 470 L 693 470 L 693 410 L 889 410 L 889 248 L 693 248 L 693 188 L 917 188 L 917 0 L 481 0 L 481 126 L 293 126 L 225 0 L 12 0 Z M 424 368 L 376 279 L 481 279 L 481 477 L 424 368 Z" unicode="Æ" />
<glyph horiz-adv-x="642" d="M 408 -12 C 297 -12 208 18 141 80 C 73 142 40 225 40 330 C 40 434 73 517 141 578 C 208 639 297 670 408 670 C 440 670 472 666 502 659 C 532 652 562 642 591 629 L 591 436 C 563 452 534 464 506 472 C 478 480 449 484 420 484 C 372 484 334 470 306 443 C 278 415 264 378 264 330 C 264 281 278 243 306 215 C 334 187 372 174 420 174 C 450 174 480 178 510 186 C 540 194 569 207 598 224 L 598 33 C 567 18 536 7 505 0 C 474 -8 442 -12 408 -12 Z M 413 -242 C 398 -242 385 -241 374 -239 C 363 -237 352 -235 341 -232 L 341 -148 C 349 -152 358 -155 366 -158 C 374 -161 382 -163 390 -163 C 398 -163 405 -160 410 -156 C 414 -151 417 -145 417 -139 C 417 -132 414 -126 409 -122 C 404 -118 397 -116 389 -116 L 382 -116 L 382 -46 L 393 -46 C 430 -46 461 -54 485 -70 C 509 -86 521 -111 521 -144 C 521 -176 511 -201 491 -217 C 471 -233 445 -242 413 -242 Z" unicode="Ç" />
<glyph horiz-adv-x="540" d="M 60 0 L 60 658 L 485 658 L 485 474 L 272 474 L 272 405 L 468 405 L 468 255 L 272 255 L 272 183 L 496 183 L 496 0 L 60 0 Z M 208 706 L 94 848 L 257 848 L 349 706 L 208 706 Z" unicode="È" />
<glyph horiz-adv-x="540" d="M 60 0 L 60 658 L 485 658 L 485 474 L 272 474 L 272 405 L 468 405 L 468 255 L 272 255 L 272 183 L 496 183 L 496 0 L 60 0 Z M 347 706 L 206 706 L 298 848 L 461 848 L 347 706 Z" unicode="É" />
<glyph horiz-adv-x="540" d="M 60 0 L 60 658 L 485 658 L 485 474 L 272 474 L 272 405 L 468 405 L 468 255 L 272 255 L 272 183 L 496 183 L 496 0 L 60 0 Z M 242 706 L 126 706 L 211 862 L 347 862 L 432 706 L 309 706 L 275 771 L 242 706 Z" unicode="Ê" />
<glyph horiz-adv-x="540" d="M 60 0 L 60 658 L 485 658 L 485 474 L 272 474 L 272 405 L 468 405 L 468 255 L 272 255 L 272 183 L 496 183 L 496 0 L 60 0 Z M 130 706 L 130 832 L 256 832 L 256 706 L 130 706 Z M 302 706 L 302 832 L 428 832 L 428 706 L 302 706 Z" unicode="Ë" />
<glyph horiz-adv-x="332" d="M 60 0 L 60 658 L 272 658 L 272 0 L 60 0 Z M 99 706 L -15 848 L 148 848 L 240 706 L 99 706 Z" unicode="Ì" />
<glyph horiz-adv-x="332" d="M 60 0 L 60 658 L 272 658 L 272 0 L 60 0 Z M 238 706 L 97 706 L 189 848 L 352 848 L 238 706 Z" unicode="Í" />
<glyph horiz-adv-x="332" d="M 60 0 L 60 658 L 272 658 L 272 0 L 60 0 Z M 133 706 L 17 706 L 102 862 L 238 862 L 323 706 L 200 706 L 166 771 L 133 706 Z" unicode="Î" />
<glyph horiz-adv-x="332" d="M 60 0 L 60 658 L 272 658 L 272 0 L 60 0 Z M 21 706 L 21 832 L 147 832 L 147 706 L 21 706 Z M 193 706 L 193 832 L 319 832 L 319 706 L 193 706 Z" unicode="Ï" />
<glyph horiz-adv-x="723" d="M 20 254 L 20 410 L 339 410 L 339 254 L 20 254 Z M 64 0 L 64 658 L 313 658 C 425 658 515 629 582 571 C 649 513 683 435 683 337 C 683 234 650 152 584 91 C 518 30 428 0 313 0 L 64 0 Z M 276 186 L 308 186 C 356 186 394 199 422 227 C 449 254 463 291 463 337 C 463 378 449 411 422 435 C 394 459 356 472 308 472 L 276 472 L 276 186 Z" unicode="Ð" />
<glyph horiz-adv-x="776" d="M 60 0 L 60 658 L 309 658 L 484 372 L 532 286 L 528 372 L 528 658 L 716 658 L 716 0 L 473 0 L 294 286 L 244 376 L 248 286 L 248 0 L 60 0 Z M 324 706 L 232 706 C 232 752 241 786 259 810 C 277 834 304 846 340 846 C 354 846 366 844 377 840 C 387 836 398 830 409 822 C 413 818 417 815 420 814 C 423 812 426 812 430 812 C 436 812 440 814 444 819 C 447 824 449 831 450 841 L 542 841 C 542 795 533 760 515 736 C 497 712 470 701 434 701 C 421 701 409 703 399 707 C 389 711 377 717 365 726 C 360 729 356 731 353 733 C 349 734 346 735 344 735 C 337 735 332 732 329 727 C 325 722 324 715 324 706 Z" unicode="Ñ" />
<glyph horiz-adv-x="799" d="M 400 -18 C 290 -18 202 13 137 76 C 72 138 40 223 40 329 C 40 435 72 520 137 582 C 202 644 290 676 400 676 C 509 676 596 644 661 582 C 726 520 759 435 759 329 C 759 223 726 138 661 76 C 596 13 509 -18 400 -18 Z M 400 167 C 442 167 475 181 501 210 C 526 239 539 279 539 329 C 539 379 526 418 501 447 C 475 476 442 491 400 491 C 357 491 323 476 298 447 C 272 418 260 379 260 329 C 260 279 272 239 298 210 C 323 181 357 167 400 167 Z M 331 716 L 217 858 L 380 858 L 472 716 L 331 716 Z" unicode="Ò" />
<glyph horiz-adv-x="799" d="M 400 -18 C 290 -18 202 13 137 76 C 72 138 40 223 40 329 C 40 435 72 520 137 582 C 202 644 290 676 400 676 C 509 676 596 644 661 582 C 726 520 759 435 759 329 C 759 223 726 138 661 76 C 596 13 509 -18 400 -18 Z M 400 167 C 442 167 475 181 501 210 C 526 239 539 279 539 329 C 539 379 526 418 501 447 C 475 476 442 491 400 491 C 357 491 323 476 298 447 C 272 418 260 379 260 329 C 260 279 272 239 298 210 C 323 181 357 167 400 167 Z M 470 716 L 329 716 L 421 858 L 584 858 L 470 716 Z" unicode="Ó" />
<glyph horiz-adv-x="799" d="M 400 -18 C 290 -18 202 13 137 76 C 72 138 40 223 40 329 C 40 435 72 520 137 582 C 202 644 290 676 400 676 C 509 676 596 644 661 582 C 726 520 759 435 759 329 C 759 223 726 138 661 76 C 596 13 509 -18 400 -18 Z M 400 167 C 442 167 475 181 501 210 C 526 239 539 279 539 329 C 539 379 526 418 501 447 C 475 476 442 491 400 491 C 357 491 323 476 298 447 C 272 418 260 379 260 329 C 260 279 272 239 298 210 C 323 181 357 167 400 167 Z M 365 716 L 249 716 L 334 872 L 470 872 L 555 716 L 432 716 L 398 781 L 365 716 Z" unicode="Ô" />
<glyph horiz-adv-x="799" d="M 400 -18 C 290 -18 202 13 137 76 C 72 138 40 223 40 329 C 40 435 72 520 137 582 C 202 644 290 676 400 676 C 509 676 596 644 661 582 C 726 520 759 435 759 329 C 759 223 726 138 661 76 C 596 13 509 -18 400 -18 Z M 400 167 C 442 167 475 181 501 210 C 526 239 539 279 539 329 C 539 379 526 418 501 447 C 475 476 442 491 400 491 C 357 491 323 476 298 447 C 272 418 260 379 260 329 C 260 279 272 239 298 210 C 323 181 357 167 400 167 Z M 337 716 L 245 716 C 245 762 254 796 272 820 C 290 844 317 856 353 856 C 367 856 379 854 390 850 C 400 846 411 840 422 832 C 426 828 430 825 433 824 C 436 822 439 822 443 822 C 449 822 453 824 457 829 C 460 834 462 841 463 851 L 555 851 C 555 805 546 770 528 746 C 510 722 483 711 447 711 C 434 711 422 713 412 717 C 402 721 390 727 378 736 C 373 739 369 741 366 743 C 362 744 359 745 357 745 C 350 745 345 742 342 737 C 338 732 337 725 337 716 Z" unicode="Õ" />
<glyph horiz-adv-x="799" d="M 400 -18 C 290 -18 202 13 137 76 C 72 138 40 223 40 329 C 40 435 72 520 137 582 C 202 644 290 676 400 676 C 509 676 596 644 661 582 C 726 520 759 435 759 329 C 759 223 726 138 661 76 C 596 13 509 -18 400 -18 Z M 400 167 C 442 167 475 181 501 210 C 526 239 539 279 539 329 C 539 379 526 418 501 447 C 475 476 442 491 400 491 C 357 491 323 476 298 447 C 272 418 260 379 260 329 C 260 279 272 239 298 210 C 323 181 357 167 400 167 Z M 253 716 L 253 842 L 379 842 L 379 716 L 253 716 Z M 425 716 L 425 842 L 551 842 L 551 716 L 425 716 Z" unicode="Ö" />
<glyph horiz-adv-x="522" d="M 153 74 L 48 179 L 156 287 L 44 399 L 149 504 L 261 392 L 369 500 L 474 395 L 366 287 L 478 175 L 373 70 L 261 182 L 153 74 Z" unicode="×" />
<glyph horiz-adv-x="799" d="M 457 565 L 544 706 L 722 706 L 604 514 L 457 565 Z M 80 -47 L 184 122 L 333 74 L 258 -47 L 80 -47 Z M 400 -18 C 290 -18 202 13 137 76 C 72 138 40 223 40 329 C 40 435 72 520 137 582 C 202 644 290 676 400 676 C 509 676 596 644 661 582 C 726 520 759 435 759 329 C 759 223 726 138 661 76 C 596 13 509 -18 400 -18 Z M 400 167 C 442 167 475 181 501 210 C 526 239 539 279 539 329 C 539 379 526 418 501 447 C 475 476 442 491 400 491 C 357 491 323 476 298 447 C 272 418 260 379 260 329 C 260 279 272 239 298 210 C 323 181 357 167 400 167 Z" unicode="Ø" />
<glyph horiz-adv-x="713" d="M 361 -12 C 271 -12 198 13 141 65 C 84 116 56 183 56 267 L 56 658 L 280 658 L 280 283 C 280 257 287 235 303 218 C 318 200 339 192 366 192 C 392 192 413 200 429 218 C 445 235 453 257 453 283 L 453 658 L 657 658 L 657 267 C 657 183 629 116 574 65 C 518 13 447 -12 361 -12 Z M 298 706 L 184 848 L 347 848 L 439 706 L 298 706 Z" unicode="Ù" />
<glyph horiz-adv-x="713" d="M 361 -12 C 271 -12 198 13 141 65 C 84 116 56 183 56 267 L 56 658 L 280 658 L 280 283 C 280 257 287 235 303 218 C 318 200 339 192 366 192 C 392 192 413 200 429 218 C 445 235 453 257 453 283 L 453 658 L 657 658 L 657 267 C 657 183 629 116 574 65 C 518 13 447 -12 361 -12 Z M 437 706 L 296 706 L 388 848 L 551 848 L 437 706 Z" unicode="Ú" />
<glyph horiz-adv-x="713" d="M 361 -12 C 271 -12 198 13 141 65 C 84 116 56 183 56 267 L 56 658 L 280 658 L 280 283 C 280 257 287 235 303 218 C 318 200 339 192 366 192 C 392 192 413 200 429 218 C 445 235 453 257 453 283 L 453 658 L 657 658 L 657 267 C 657 183 629 116 574 65 C 518 13 447 -12 361 -12 Z M 332 706 L 216 706 L 301 862 L 437 862 L 522 706 L 399 706 L 365 771 L 332 706 Z" unicode="Û" />
<glyph horiz-adv-x="713" d="M 361 -12 C 271 -12 198 13 141 65 C 84 116 56 183 56 267 L 56 658 L 280 658 L 280 283 C 280 257 287 235 303 218 C 318 200 339 192 366 192 C 392 192 413 200 429 218 C 445 235 453 257 453 283 L 453 658 L 657 658 L 657 267 C 657 183 629 116 574 65 C 518 13 447 -12 361 -12 Z M 220 706 L 220 832 L 346 832 L 346 706 L 220 706 Z M 392 706 L 392 832 L 518 832 L 518 706 L 392 706 Z" unicode="Ü" />
<glyph horiz-adv-x="705" d="M 250 0 L 250 213 L 12 658 L 258 658 L 336 485 L 367 413 L 398 485 L 476 658 L 693 658 L 462 220 L 462 0 L 250 0 Z M 435 706 L 294 706 L 386 848 L 549 848 L 435 706 Z" unicode="Ý" />
<glyph horiz-adv-x="596" d="M 60 0 L 60 658 L 272 658 L 272 572 L 319 572 C 397 572 460 548 506 502 C 552 456 576 401 576 337 C 576 269 552 211 506 163 C 460 114 397 90 319 90 L 272 90 L 272 0 L 60 0 Z M 272 270 L 294 270 C 313 270 329 275 343 287 C 357 298 364 313 364 333 C 364 351 357 365 343 376 C 329 386 312 392 293 392 L 272 392 L 272 270 Z" unicode="Þ" />
<glyph horiz-adv-x="703" d="M 44 0 L 44 410 C 44 522 74 604 134 657 C 194 709 272 736 368 736 C 457 736 527 713 577 667 C 627 621 653 552 653 459 C 653 443 652 426 650 408 C 648 390 646 370 642 349 C 621 353 601 357 581 361 C 561 364 542 366 524 366 C 509 366 497 364 489 360 C 481 356 477 351 477 343 C 477 336 479 331 485 327 C 490 323 497 320 507 318 L 536 312 C 585 302 621 283 644 255 C 667 227 679 194 679 154 C 679 106 661 66 627 35 C 592 3 540 -12 471 -12 C 438 -12 406 -10 374 -6 C 342 -2 310 4 278 12 L 278 156 C 304 144 331 134 358 128 C 384 122 412 119 441 119 C 449 119 456 120 461 123 C 466 126 469 131 469 137 C 469 142 466 147 460 152 C 454 156 442 160 425 164 L 401 169 C 356 178 323 196 301 224 C 279 252 268 285 268 324 C 268 373 283 412 314 442 C 344 471 387 486 441 486 C 448 486 457 485 467 484 C 477 482 487 481 497 479 C 500 509 492 533 473 550 C 453 567 423 576 382 576 C 336 576 301 560 275 530 C 249 499 236 458 236 407 L 236 0 L 44 0 Z" unicode="ß" />
<glyph horiz-adv-x="535" d="M 171 -12 C 128 -12 93 1 65 28 C 37 54 24 86 24 124 C 24 174 41 210 75 234 C 109 258 156 275 216 285 L 295 298 L 295 312 C 295 326 287 337 273 344 C 258 351 236 355 206 355 C 178 355 152 351 127 344 C 101 336 76 325 52 311 L 52 460 C 84 470 116 478 148 484 C 180 490 217 493 259 493 C 331 493 389 478 433 448 C 477 418 499 376 499 324 L 499 0 L 306 0 L 296 55 C 282 32 265 15 245 4 C 225 -6 200 -12 171 -12 Z M 263 127 C 269 127 275 128 281 132 C 287 135 292 139 295 145 L 295 209 L 262 204 C 253 202 245 198 239 191 C 232 184 229 175 229 163 C 229 152 232 143 239 137 C 245 130 253 127 263 127 Z M 191 532 L 64 690 L 245 690 L 347 532 L 191 532 Z" unicode="à" />
<glyph horiz-adv-x="535" d="M 171 -12 C 128 -12 93 1 65 28 C 37 54 24 86 24 124 C 24 174 41 210 75 234 C 109 258 156 275 216 285 L 295 298 L 295 312 C 295 326 287 337 273 344 C 258 351 236 355 206 355 C 178 355 152 351 127 344 C 101 336 76 325 52 311 L 52 460 C 84 470 116 478 148 484 C 180 490 217 493 259 493 C 331 493 389 478 433 448 C 477 418 499 376 499 324 L 499 0 L 306 0 L 296 55 C 282 32 265 15 245 4 C 225 -6 200 -12 171 -12 Z M 263 127 C 269 127 275 128 281 132 C 287 135 292 139 295 145 L 295 209 L 262 204 C 253 202 245 198 239 191 C 232 184 229 175 229 163 C 229 152 232 143 239 137 C 245 130 253 127 263 127 Z M 344 532 L 188 532 L 290 690 L 471 690 L 344 532 Z" unicode="á" />
<glyph horiz-adv-x="535" d="M 171 -12 C 128 -12 93 1 65 28 C 37 54 24 86 24 124 C 24 174 41 210 75 234 C 109 258 156 275 216 285 L 295 298 L 295 312 C 295 326 287 337 273 344 C 258 351 236 355 206 355 C 178 355 152 351 127 344 C 101 336 76 325 52 311 L 52 460 C 84 470 116 478 148 484 C 180 490 217 493 259 493 C 331 493 389 478 433 448 C 477 418 499 376 499 324 L 499 0 L 306 0 L 296 55 C 282 32 265 15 245 4 C 225 -6 200 -12 171 -12 Z M 263 127 C 269 127 275 128 281 132 C 287 135 292 139 295 145 L 295 209 L 262 204 C 253 202 245 198 239 191 C 232 184 229 175 229 163 C 229 152 232 143 239 137 C 245 130 253 127 263 127 Z M 229 532 L 100 532 L 194 706 L 346 706 L 440 532 L 303 532 L 266 604 L 229 532 Z" unicode="â" />
<glyph horiz-adv-x="535" d="M 171 -12 C 128 -12 93 1 65 28 C 37 54 24 86 24 124 C 24 174 41 210 75 234 C 109 258 156 275 216 285 L 295 298 L 295 312 C 295 326 287 337 273 344 C 258 351 236 355 206 355 C 178 355 152 351 127 344 C 101 336 76 325 52 311 L 52 460 C 84 470 116 478 148 484 C 180 490 217 493 259 493 C 331 493 389 478 433 448 C 477 418 499 376 499 324 L 499 0 L 306 0 L 296 55 C 282 32 265 15 245 4 C 225 -6 200 -12 171 -12 Z M 263 127 C 269 127 275 128 281 132 C 287 135 292 139 295 145 L 295 209 L 262 204 C 253 202 245 198 239 191 C 232 184 229 175 229 163 C 229 152 232 143 239 137 C 245 130 253 127 263 127 Z M 198 532 L 96 532 C 96 582 106 621 126 647 C 146 673 176 687 216 687 C 231 687 244 684 256 680 C 268 676 280 669 292 660 C 297 655 301 652 305 651 C 308 649 312 649 316 649 C 322 649 327 651 331 657 C 335 662 337 670 338 681 L 440 681 C 440 630 430 591 410 565 C 390 539 360 526 320 526 C 306 526 293 528 281 532 C 269 536 257 544 244 554 C 238 558 234 560 230 562 C 226 563 223 564 220 564 C 212 564 207 561 203 556 C 199 550 198 542 198 532 Z" unicode="ã" />
<glyph horiz-adv-x="535" d="M 171 -12 C 128 -12 93 1 65 28 C 37 54 24 86 24 124 C 24 174 41 210 75 234 C 109 258 156 275 216 285 L 295 298 L 295 312 C 295 326 287 337 273 344 C 258 351 236 355 206 355 C 178 355 152 351 127 344 C 101 336 76 325 52 311 L 52 460 C 84 470 116 478 148 484 C 180 490 217 493 259 493 C 331 493 389 478 433 448 C 477 418 499 376 499 324 L 499 0 L 306 0 L 296 55 C 282 32 265 15 245 4 C 225 -6 200 -12 171 -12 Z M 263 127 C 269 127 275 128 281 132 C 287 135 292 139 295 145 L 295 209 L 262 204 C 253 202 245 198 239 191 C 232 184 229 175 229 163 C 229 152 232 143 239 137 C 245 130 253 127 263 127 Z M 104 532 L 104 672 L 244 672 L 244 532 L 104 532 Z M 294 532 L 294 672 L 434 672 L 434 532 L 294 532 Z" unicode="ä" />
<glyph horiz-adv-x="535" d="M 171 -12 C 128 -12 93 1 65 28 C 37 54 24 86 24 124 C 24 174 41 210 75 234 C 109 258 156 275 216 285 L 295 298 L 295 312 C 295 326 287 337 273 344 C 258 351 236 355 206 355 C 178 355 152 351 127 344 C 101 336 76 325 52 311 L 52 460 C 84 470 116 478 148 484 C 180 490 217 493 259 493 C 331 493 389 478 433 448 C 477 418 499 376 499 324 L 499 0 L 306 0 L 296 55 C 282 32 265 15 245 4 C 225 -6 200 -12 171 -12 Z M 263 127 C 269 127 275 128 281 132 C 287 135 292 139 295 145 L 295 209 L 262 204 C 253 202 245 198 239 191 C 232 184 229 175 229 163 C 229 152 232 143 239 137 C 245 130 253 127 263 127 Z M 268 462 C 224 462 189 475 163 503 C 137 530 124 564 124 604 C 124 643 137 676 163 703 C 189 730 224 744 268 744 C 312 744 347 730 373 703 C 399 676 412 643 412 604 C 412 564 399 530 373 503 C 347 475 312 462 268 462 Z M 268 558 C 280 558 291 561 300 569 C 309 577 314 588 314 603 C 314 617 309 628 300 636 C 291 644 280 648 268 648 C 255 648 244 644 235 636 C 226 628 222 617 222 603 C 222 588 226 577 235 569 C 244 561 255 558 268 558 Z" unicode="å" />
<glyph horiz-adv-x="799" d="M 177 -12 C 131 -12 94 1 66 28 C 38 54 24 86 24 124 C 24 174 41 210 75 234 C 109 258 156 275 216 285 L 295 298 L 295 304 C 295 318 287 329 273 336 C 258 343 236 347 206 347 C 177 347 150 343 126 336 C 101 328 76 317 52 303 L 52 452 C 84 462 116 470 148 476 C 180 482 217 485 259 485 C 289 485 316 482 342 477 C 368 471 390 464 410 454 C 428 464 449 471 473 477 C 496 482 521 485 548 485 C 624 485 681 460 719 411 C 756 362 775 296 775 212 L 775 198 L 499 198 C 501 177 512 162 532 153 C 551 144 579 140 615 140 C 639 140 664 143 690 149 C 715 155 739 164 763 177 L 763 24 C 727 12 691 3 656 -3 C 621 -9 588 -12 558 -12 C 511 -12 469 -4 433 12 C 397 28 367 50 345 79 C 325 48 301 25 274 10 C 247 -4 215 -12 177 -12 Z M 540 373 C 526 373 515 366 509 354 C 502 342 498 322 498 295 L 579 295 C 579 323 576 343 570 355 C 564 367 554 373 540 373 Z M 263 134 C 269 134 275 135 281 139 C 287 142 292 146 295 152 L 295 209 L 262 204 C 253 202 245 198 239 192 C 232 186 229 177 229 167 C 229 157 232 149 239 143 C 245 137 253 134 263 134 Z" unicode="æ" />
<glyph horiz-adv-x="447" d="M 281 -12 C 203 -12 141 10 94 54 C 47 98 24 157 24 231 C 24 308 46 370 92 416 C 138 462 200 485 279 485 C 301 485 323 482 345 478 C 367 474 389 468 411 460 L 411 288 C 393 296 376 302 359 306 C 342 310 326 313 311 313 C 287 313 269 306 255 292 C 241 278 234 260 234 237 C 234 213 241 195 257 181 C 272 167 292 160 317 160 C 333 160 349 162 365 168 C 381 173 398 181 415 192 L 415 20 C 391 9 368 1 346 -4 C 323 -9 301 -12 281 -12 Z M 241 -265 C 225 -265 212 -264 200 -262 C 188 -260 176 -258 164 -254 L 164 -165 C 172 -169 181 -173 190 -176 C 199 -178 208 -180 217 -180 C 225 -180 232 -177 238 -173 C 243 -168 246 -162 246 -155 C 246 -148 243 -142 237 -138 C 231 -133 224 -131 216 -131 L 208 -131 L 208 -56 L 220 -56 C 260 -56 292 -65 318 -83 C 343 -101 356 -127 356 -161 C 356 -195 345 -220 324 -238 C 302 -256 275 -265 241 -265 Z" unicode="ç" />
<glyph horiz-adv-x="531" d="M 290 -16 C 206 -16 140 7 94 53 C 47 99 24 161 24 239 C 24 316 46 378 91 424 C 136 470 199 493 280 493 C 356 493 413 466 451 414 C 488 362 507 295 507 214 L 507 199 L 231 199 C 233 178 244 163 264 154 C 283 144 311 140 347 140 C 371 140 396 143 422 149 C 447 155 471 165 495 178 L 495 21 C 459 8 423 -1 388 -7 C 353 -13 320 -16 290 -16 Z M 272 374 C 258 374 247 367 241 354 C 234 341 230 320 230 291 L 311 291 C 311 321 308 343 302 355 C 296 367 286 374 272 374 Z M 201 532 L 74 690 L 255 690 L 357 532 L 201 532 Z" unicode="è" />
<glyph horiz-adv-x="531" d="M 290 -16 C 206 -16 140 7 94 53 C 47 99 24 161 24 239 C 24 316 46 378 91 424 C 136 470 199 493 280 493 C 356 493 413 466 451 414 C 488 362 507 295 507 214 L 507 199 L 231 199 C 233 178 244 163 264 154 C 283 144 311 140 347 140 C 371 140 396 143 422 149 C 447 155 471 165 495 178 L 495 21 C 459 8 423 -1 388 -7 C 353 -13 320 -16 290 -16 Z M 272 374 C 258 374 247 367 241 354 C 234 341 230 320 230 291 L 311 291 C 311 321 308 343 302 355 C 296 367 286 374 272 374 Z M 354 532 L 198 532 L 300 690 L 481 690 L 354 532 Z" unicode="é" />
<glyph horiz-adv-x="531" d="M 290 -16 C 206 -16 140 7 94 53 C 47 99 24 161 24 239 C 24 316 46 378 91 424 C 136 470 199 493 280 493 C 356 493 413 466 451 414 C 488 362 507 295 507 214 L 507 199 L 231 199 C 233 178 244 163 264 154 C 283 144 311 140 347 140 C 371 140 396 143 422 149 C 447 155 471 165 495 178 L 495 21 C 459 8 423 -1 388 -7 C 353 -13 320 -16 290 -16 Z M 272 374 C 258 374 247 367 241 354 C 234 341 230 320 230 291 L 311 291 C 311 321 308 343 302 355 C 296 367 286 374 272 374 Z M 239 532 L 110 532 L 204 706 L 356 706 L 450 532 L 313 532 L 276 604 L 239 532 Z" unicode="ê" />
<glyph horiz-adv-x="531" d="M 290 -16 C 206 -16 140 7 94 53 C 47 99 24 161 24 239 C 24 316 46 378 91 424 C 136 470 199 493 280 493 C 356 493 413 466 451 414 C 488 362 507 295 507 214 L 507 199 L 231 199 C 233 178 244 163 264 154 C 283 144 311 140 347 140 C 371 140 396 143 422 149 C 447 155 471 165 495 178 L 495 21 C 459 8 423 -1 388 -7 C 353 -13 320 -16 290 -16 Z M 272 374 C 258 374 247 367 241 354 C 234 341 230 320 230 291 L 311 291 C 311 321 308 343 302 355 C 296 367 286 374 272 374 Z M 114 532 L 114 672 L 254 672 L 254 532 L 114 532 Z M 304 532 L 304 672 L 444 672 L 444 532 L 304 532 Z" unicode="ë" />
<glyph horiz-adv-x="284" d="M 40 0 L 40 478 L 244 478 L 244 0 L 40 0 Z M 65 524 L -62 682 L 119 682 L 221 524 L 65 524 Z" unicode="ì" />
<glyph horiz-adv-x="284" d="M 40 0 L 40 478 L 244 478 L 244 0 L 40 0 Z M 218 524 L 62 524 L 164 682 L 345 682 L 218 524 Z" unicode="í" />
<glyph horiz-adv-x="284" d="M 40 0 L 40 478 L 244 478 L 244 0 L 40 0 Z M 103 524 L -26 524 L 68 698 L 220 698 L 314 524 L 177 524 L 140 596 L 103 524 Z" unicode="î" />
<glyph horiz-adv-x="284" d="M 40 0 L 40 478 L 244 478 L 244 0 L 40 0 Z M -22 524 L -22 664 L 118 664 L 118 524 L -22 524 Z M 168 524 L 168 664 L 308 664 L 308 524 L 168 524 Z" unicode="ï" />
<glyph horiz-adv-x="578" d="M 286 -16 C 206 -16 142 7 95 53 C 47 99 24 161 24 239 C 24 315 47 375 94 421 C 141 466 197 489 263 489 C 279 489 293 487 307 485 C 320 483 332 479 343 475 C 335 487 327 500 319 512 C 310 524 300 535 290 546 L 187 513 L 152 606 L 205 623 C 192 632 178 641 164 650 C 149 659 134 668 118 677 L 288 748 C 303 738 318 728 333 716 C 348 704 363 692 377 679 L 480 712 L 515 619 L 449 598 C 479 556 504 509 524 457 C 544 405 554 351 554 294 C 554 187 528 109 476 59 C 424 9 360 -16 286 -16 Z M 288 164 C 304 164 317 170 327 182 C 337 194 342 212 342 236 C 342 260 337 279 327 291 C 317 303 304 309 288 309 C 272 309 259 303 249 291 C 239 279 234 260 234 236 C 234 211 239 193 249 181 C 259 169 272 164 288 164 Z" unicode="ð" />
<glyph horiz-adv-x="559" d="M 40 0 L 40 478 L 244 478 L 244 418 C 256 438 274 455 296 469 C 318 483 346 490 378 490 C 418 490 453 475 481 447 C 509 418 523 380 523 332 L 523 0 L 319 0 L 319 282 C 319 294 315 303 307 310 C 299 316 290 320 280 320 C 272 320 265 318 259 316 C 252 313 247 309 244 303 L 244 0 L 40 0 Z M 220 524 L 118 524 C 118 574 128 613 148 639 C 168 665 198 679 238 679 C 253 679 266 676 278 672 C 290 668 302 661 314 652 C 319 647 323 644 327 643 C 330 641 334 641 338 641 C 344 641 349 643 353 649 C 357 654 359 662 360 673 L 462 673 C 462 622 452 583 432 557 C 412 531 382 518 342 518 C 328 518 315 520 303 524 C 291 528 279 536 266 546 C 260 550 256 552 252 554 C 248 555 245 556 242 556 C 234 556 229 553 225 548 C 221 542 220 534 220 524 Z" unicode="ñ" />
<glyph horiz-adv-x="568" d="M 284 -16 C 204 -16 141 7 94 54 C 47 100 24 163 24 242 C 24 318 47 379 94 425 C 141 471 204 494 284 494 C 363 494 426 471 473 426 C 520 380 544 320 544 244 C 544 164 520 101 473 54 C 426 7 363 -16 284 -16 Z M 284 157 C 298 157 310 164 320 178 C 329 192 334 212 334 240 C 334 266 329 286 320 300 C 310 314 298 321 284 321 C 269 321 257 314 248 300 C 238 286 234 266 234 240 C 234 212 238 192 248 178 C 257 164 269 157 284 157 Z M 207 532 L 80 690 L 261 690 L 363 532 L 207 532 Z" unicode="ò" />
<glyph horiz-adv-x="568" d="M 284 -16 C 204 -16 141 7 94 54 C 47 100 24 163 24 242 C 24 318 47 379 94 425 C 141 471 204 494 284 494 C 363 494 426 471 473 426 C 520 380 544 320 544 244 C 544 164 520 101 473 54 C 426 7 363 -16 284 -16 Z M 284 157 C 298 157 310 164 320 178 C 329 192 334 212 334 240 C 334 266 329 286 320 300 C 310 314 298 321 284 321 C 269 321 257 314 248 300 C 238 286 234 266 234 240 C 234 212 238 192 248 178 C 257 164 269 157 284 157 Z M 360 532 L 204 532 L 306 690 L 487 690 L 360 532 Z" unicode="ó" />
<glyph horiz-adv-x="568" d="M 284 -16 C 204 -16 141 7 94 54 C 47 100 24 163 24 242 C 24 318 47 379 94 425 C 141 471 204 494 284 494 C 363 494 426 471 473 426 C 520 380 544 320 544 244 C 544 164 520 101 473 54 C 426 7 363 -16 284 -16 Z M 284 157 C 298 157 310 164 320 178 C 329 192 334 212 334 240 C 334 266 329 286 320 300 C 310 314 298 321 284 321 C 269 321 257 314 248 300 C 238 286 234 266 234 240 C 234 212 238 192 248 178 C 257 164 269 157 284 157 Z M 245 532 L 116 532 L 210 706 L 362 706 L 456 532 L 319 532 L 282 604 L 245 532 Z" unicode="ô" />
<glyph horiz-adv-x="568" d="M 284 -16 C 204 -16 141 7 94 54 C 47 100 24 163 24 242 C 24 318 47 379 94 425 C 141 471 204 494 284 494 C 363 494 426 471 473 426 C 520 380 544 320 544 244 C 544 164 520 101 473 54 C 426 7 363 -16 284 -16 Z M 284 157 C 298 157 310 164 320 178 C 329 192 334 212 334 240 C 334 266 329 286 320 300 C 310 314 298 321 284 321 C 269 321 257 314 248 300 C 238 286 234 266 234 240 C 234 212 238 192 248 178 C 257 164 269 157 284 157 Z M 214 532 L 112 532 C 112 582 122 621 142 647 C 162 673 192 687 232 687 C 247 687 260 684 272 680 C 284 676 296 669 308 660 C 313 655 317 652 321 651 C 324 649 328 649 332 649 C 338 649 343 651 347 657 C 351 662 353 670 354 681 L 456 681 C 456 630 446 591 426 565 C 406 539 376 526 336 526 C 322 526 309 528 297 532 C 285 536 273 544 260 554 C 254 558 250 560 246 562 C 242 563 239 564 236 564 C 228 564 223 561 219 556 C 215 550 214 542 214 532 Z" unicode="õ" />
<glyph horiz-adv-x="568" d="M 284 -16 C 204 -16 141 7 94 54 C 47 100 24 163 24 242 C 24 318 47 379 94 425 C 141 471 204 494 284 494 C 363 494 426 471 473 426 C 520 380 544 320 544 244 C 544 164 520 101 473 54 C 426 7 363 -16 284 -16 Z M 284 157 C 298 157 310 164 320 178 C 329 192 334 212 334 240 C 334 266 329 286 320 300 C 310 314 298 321 284 321 C 269 321 257 314 248 300 C 238 286 234 266 234 240 C 234 212 238 192 248 178 C 257 164 269 157 284 157 Z M 120 532 L 120 672 L 260 672 L 260 532 L 120 532 Z M 310 532 L 310 672 L 450 672 L 450 532 L 310 532 Z" unicode="ö" />
<glyph horiz-adv-x="536" d="M 197 413 L 197 553 L 337 553 L 337 413 L 197 413 Z M 52 211 L 52 359 L 484 359 L 484 211 L 52 211 Z M 197 17 L 197 157 L 337 157 L 337 17 L 197 17 Z" unicode="÷" />
<glyph horiz-adv-x="568" d="M 319 413 L 387 526 L 530 526 L 424 351 L 319 413 Z M 40 -48 L 154 139 L 261 81 L 183 -48 L 40 -48 Z M 284 -16 C 204 -16 141 7 94 54 C 47 100 24 163 24 242 C 24 318 47 379 94 425 C 141 471 204 494 284 494 C 363 494 426 471 473 426 C 520 380 544 320 544 244 C 544 164 520 101 473 54 C 426 7 363 -16 284 -16 Z M 284 157 C 298 157 310 164 320 178 C 329 192 334 212 334 240 C 334 266 329 286 320 300 C 310 314 298 321 284 321 C 269 321 257 314 248 300 C 238 286 234 266 234 240 C 234 212 238 192 248 178 C 257 164 269 157 284 157 Z" unicode="ø" />
<glyph horiz-adv-x="559" d="M 193 -12 C 146 -12 108 2 79 31 C 50 59 36 98 36 146 L 36 478 L 240 478 L 240 196 C 240 184 243 174 251 168 C 259 161 268 158 279 158 C 286 158 293 159 300 162 C 306 164 311 169 315 175 L 315 478 L 519 478 L 519 0 L 323 0 L 315 60 C 303 38 285 20 262 7 C 238 -5 215 -12 193 -12 Z M 201 524 L 74 682 L 255 682 L 357 524 L 201 524 Z" unicode="ù" />
<glyph horiz-adv-x="559" d="M 193 -12 C 146 -12 108 2 79 31 C 50 59 36 98 36 146 L 36 478 L 240 478 L 240 196 C 240 184 243 174 251 168 C 259 161 268 158 279 158 C 286 158 293 159 300 162 C 306 164 311 169 315 175 L 315 478 L 519 478 L 519 0 L 323 0 L 315 60 C 303 38 285 20 262 7 C 238 -5 215 -12 193 -12 Z M 354 524 L 198 524 L 300 682 L 481 682 L 354 524 Z" unicode="ú" />
<glyph horiz-adv-x="559" d="M 193 -12 C 146 -12 108 2 79 31 C 50 59 36 98 36 146 L 36 478 L 240 478 L 240 196 C 240 184 243 174 251 168 C 259 161 268 158 279 158 C 286 158 293 159 300 162 C 306 164 311 169 315 175 L 315 478 L 519 478 L 519 0 L 323 0 L 315 60 C 303 38 285 20 262 7 C 238 -5 215 -12 193 -12 Z M 239 524 L 110 524 L 204 698 L 356 698 L 450 524 L 313 524 L 276 596 L 239 524 Z" unicode="û" />
<glyph horiz-adv-x="559" d="M 193 -12 C 146 -12 108 2 79 31 C 50 59 36 98 36 146 L 36 478 L 240 478 L 240 196 C 240 184 243 174 251 168 C 259 161 268 158 279 158 C 286 158 293 159 300 162 C 306 164 311 169 315 175 L 315 478 L 519 478 L 519 0 L 323 0 L 315 60 C 303 38 285 20 262 7 C 238 -5 215 -12 193 -12 Z M 114 524 L 114 664 L 254 664 L 254 524 L 114 524 Z M 304 524 L 304 664 L 444 664 L 444 524 L 304 524 Z" unicode="ü" />
<glyph horiz-adv-x="573" d="M 51 -220 L 43 -220 L 43 -45 L 51 -45 C 95 -45 127 -42 148 -36 C 169 -30 187 -17 203 1 L 165 4 L 12 478 L 231 478 L 269 320 L 301 169 L 334 320 L 372 478 L 561 478 L 439 75 C 405 -36 356 -113 293 -156 C 230 -198 149 -220 51 -220 Z M 371 524 L 215 524 L 317 682 L 498 682 L 371 524 Z" unicode="ý" />
<glyph horiz-adv-x="560" d="M 40 -188 L 40 716 L 244 716 L 244 432 C 260 448 279 461 300 471 C 320 480 343 485 369 485 C 423 485 464 463 493 421 C 521 378 536 321 536 251 C 536 171 517 107 479 59 C 441 11 384 -12 307 -12 C 298 -12 288 -11 277 -9 C 265 -7 254 -4 244 -1 L 244 -188 L 40 -188 Z M 273 149 C 290 149 303 155 313 169 C 323 182 328 203 328 232 C 328 256 323 275 313 288 C 303 300 290 307 274 307 C 269 307 264 306 259 305 C 253 303 248 301 244 299 L 244 157 C 248 154 252 152 258 151 C 263 149 268 149 273 149 Z" unicode="þ" />
<glyph horiz-adv-x="573" d="M 51 -220 L 43 -220 L 43 -45 L 51 -45 C 95 -45 127 -42 148 -36 C 169 -30 187 -17 203 1 L 165 4 L 12 478 L 231 478 L 269 320 L 301 169 L 334 320 L 372 478 L 561 478 L 439 75 C 405 -36 356 -113 293 -156 C 230 -198 149 -220 51 -220 Z M 131 524 L 131 664 L 271 664 L 271 524 L 131 524 Z M 321 524 L 321 664 L 461 664 L 461 524 L 321 524 Z" unicode="ÿ" />
<glyph horiz-adv-x="756" d="M 12 0 L 275 658 L 482 658 L 744 0 L 515 0 L 479 96 L 246 96 L 210 0 L 12 0 Z M 320 294 L 297 232 L 428 232 L 405 294 L 363 418 L 320 294 Z M 267 706 L 267 810 L 493 810 L 493 706 L 267 706 Z" unicode="Ā" />
<glyph horiz-adv-x="535" d="M 171 -12 C 128 -12 93 1 65 28 C 37 54 24 86 24 124 C 24 174 41 210 75 234 C 109 258 156 275 216 285 L 295 298 L 295 312 C 295 326 287 337 273 344 C 258 351 236 355 206 355 C 178 355 152 351 127 344 C 101 336 76 325 52 311 L 52 460 C 84 470 116 478 148 484 C 180 490 217 493 259 493 C 331 493 389 478 433 448 C 477 418 499 376 499 324 L 499 0 L 306 0 L 296 55 C 282 32 265 15 245 4 C 225 -6 200 -12 171 -12 Z M 263 127 C 269 127 275 128 281 132 C 287 135 292 139 295 145 L 295 209 L 262 204 C 253 202 245 198 239 191 C 232 184 229 175 229 163 C 229 152 232 143 239 137 C 245 130 253 127 263 127 Z M 144 540 L 144 655 L 394 655 L 394 540 L 144 540 Z" unicode="ā" />
<glyph horiz-adv-x="756" d="M 12 0 L 275 658 L 482 658 L 744 0 L 515 0 L 479 96 L 246 96 L 210 0 L 12 0 Z M 320 294 L 297 232 L 428 232 L 405 294 L 363 418 L 320 294 Z M 378 706 C 338 706 306 718 282 744 C 258 770 247 804 247 848 L 340 848 C 340 835 343 825 350 817 C 357 809 366 806 378 806 C 389 806 398 809 405 817 C 412 825 416 835 416 848 L 509 848 C 509 804 497 770 473 744 C 449 718 418 706 378 706 Z" unicode="Ă" />
<glyph horiz-adv-x="535" d="M 171 -12 C 128 -12 93 1 65 28 C 37 54 24 86 24 124 C 24 174 41 210 75 234 C 109 258 156 275 216 285 L 295 298 L 295 312 C 295 326 287 337 273 344 C 258 351 236 355 206 355 C 178 355 152 351 127 344 C 101 336 76 325 52 311 L 52 460 C 84 470 116 478 148 484 C 180 490 217 493 259 493 C 331 493 389 478 433 448 C 477 418 499 376 499 324 L 499 0 L 306 0 L 296 55 C 282 32 265 15 245 4 C 225 -6 200 -12 171 -12 Z M 263 127 C 269 127 275 128 281 132 C 287 135 292 139 295 145 L 295 209 L 262 204 C 253 202 245 198 239 191 C 232 184 229 175 229 163 C 229 152 232 143 239 137 C 245 130 253 127 263 127 Z M 269 532 C 225 532 189 546 163 575 C 137 603 124 642 124 690 L 227 690 C 227 675 230 663 238 655 C 246 647 256 643 269 643 C 281 643 291 647 299 655 C 307 663 311 675 311 690 L 414 690 C 414 642 400 603 374 575 C 348 546 313 532 269 532 Z" unicode="ă" />
<glyph horiz-adv-x="756" d="M 12 0 L 275 658 L 482 658 L 744 0 L 515 0 L 479 96 L 246 96 L 210 0 L 12 0 Z M 320 294 L 297 232 L 428 232 L 405 294 L 363 418 L 320 294 Z M 657 -220 C 598 -220 552 -207 520 -183 C 487 -158 471 -127 471 -89 C 471 -52 486 -21 516 5 C 546 31 588 50 642 63 L 657 0 C 637 0 621 -5 611 -15 C 601 -25 596 -38 596 -53 C 596 -67 601 -78 611 -88 C 621 -97 637 -102 657 -102 L 657 -220 Z" unicode="Ą" />
<glyph horiz-adv-x="535" d="M 171 -12 C 128 -12 93 1 65 28 C 37 54 24 86 24 124 C 24 174 41 210 75 234 C 109 258 156 275 216 285 L 295 298 L 295 312 C 295 326 287 337 273 344 C 258 351 236 355 206 355 C 178 355 152 351 127 344 C 101 336 76 325 52 311 L 52 460 C 84 470 116 478 148 484 C 180 490 217 493 259 493 C 331 493 389 478 433 448 C 477 418 499 376 499 324 L 499 0 L 306 0 L 296 55 C 282 32 265 15 245 4 C 225 -6 200 -12 171 -12 Z M 263 127 C 269 127 275 128 281 132 C 287 135 292 139 295 145 L 295 209 L 262 204 C 253 202 245 198 239 191 C 232 184 229 175 229 163 C 229 152 232 143 239 137 C 245 130 253 127 263 127 Z M 455 -220 C 396 -220 350 -207 318 -183 C 285 -158 269 -127 269 -89 C 269 -52 284 -21 314 5 C 344 31 386 50 440 63 L 455 0 C 435 0 419 -5 409 -15 C 399 -25 394 -38 394 -53 C 394 -67 399 -78 409 -88 C 419 -97 435 -102 455 -102 L 455 -220 Z" unicode="ą" />
<glyph horiz-adv-x="642" d="M 408 -12 C 297 -12 208 18 141 80 C 73 142 40 225 40 330 C 40 434 73 517 141 578 C 208 639 297 670 408 670 C 440 670 472 666 502 659 C 532 652 562 642 591 629 L 591 436 C 563 452 534 464 506 472 C 478 480 449 484 420 484 C 372 484 334 470 306 443 C 278 415 264 378 264 330 C 264 281 278 243 306 215 C 334 187 372 174 420 174 C 450 174 480 178 510 186 C 540 194 569 207 598 224 L 598 33 C 567 18 536 7 505 0 C 474 -8 442 -12 408 -12 Z M 453 718 L 312 718 L 404 860 L 567 860 L 453 718 Z" unicode="Ć" />
<glyph horiz-adv-x="447" d="M 281 -12 C 203 -12 141 10 94 54 C 47 98 24 157 24 231 C 24 308 46 370 92 416 C 138 462 200 485 279 485 C 301 485 323 482 345 478 C 367 474 389 468 411 460 L 411 288 C 393 296 376 302 359 306 C 342 310 326 313 311 313 C 287 313 269 306 255 292 C 241 278 234 260 234 237 C 234 213 241 195 257 181 C 272 167 292 160 317 160 C 333 160 349 162 365 168 C 381 173 398 181 415 192 L 415 20 C 391 9 368 1 346 -4 C 323 -9 301 -12 281 -12 Z M 327 524 L 171 524 L 273 682 L 454 682 L 327 524 Z" unicode="ć" />
<glyph horiz-adv-x="642" d="M 408 -12 C 297 -12 208 18 141 80 C 73 142 40 225 40 330 C 40 434 73 517 141 578 C 208 639 297 670 408 670 C 440 670 472 666 502 659 C 532 652 562 642 591 629 L 591 436 C 563 452 534 464 506 472 C 478 480 449 484 420 484 C 372 484 334 470 306 443 C 278 415 264 378 264 330 C 264 281 278 243 306 215 C 334 187 372 174 420 174 C 450 174 480 178 510 186 C 540 194 569 207 598 224 L 598 33 C 567 18 536 7 505 0 C 474 -8 442 -12 408 -12 Z M 348 718 L 232 718 L 317 874 L 453 874 L 538 718 L 415 718 L 381 783 L 348 718 Z" unicode="Ĉ" />
<glyph horiz-adv-x="447" d="M 281 -12 C 203 -12 141 10 94 54 C 47 98 24 157 24 231 C 24 308 46 370 92 416 C 138 462 200 485 279 485 C 301 485 323 482 345 478 C 367 474 389 468 411 460 L 411 288 C 393 296 376 302 359 306 C 342 310 326 313 311 313 C 287 313 269 306 255 292 C 241 278 234 260 234 237 C 234 213 241 195 257 181 C 272 167 292 160 317 160 C 333 160 349 162 365 168 C 381 173 398 181 415 192 L 415 20 C 391 9 368 1 346 -4 C 323 -9 301 -12 281 -12 Z M 212 524 L 83 524 L 177 698 L 329 698 L 423 524 L 286 524 L 249 596 L 212 524 Z" unicode="ĉ" />
<glyph horiz-adv-x="642" d="M 408 -12 C 297 -12 208 18 141 80 C 73 142 40 225 40 330 C 40 434 73 517 141 578 C 208 639 297 670 408 670 C 440 670 472 666 502 659 C 532 652 562 642 591 629 L 591 436 C 563 452 534 464 506 472 C 478 480 449 484 420 484 C 372 484 334 470 306 443 C 278 415 264 378 264 330 C 264 281 278 243 306 215 C 334 187 372 174 420 174 C 450 174 480 178 510 186 C 540 194 569 207 598 224 L 598 33 C 567 18 536 7 505 0 C 474 -8 442 -12 408 -12 Z M 320 718 L 320 844 L 446 844 L 446 718 L 320 718 Z" unicode="Ċ" />
<glyph horiz-adv-x="447" d="M 281 -12 C 203 -12 141 10 94 54 C 47 98 24 157 24 231 C 24 308 46 370 92 416 C 138 462 200 485 279 485 C 301 485 323 482 345 478 C 367 474 389 468 411 460 L 411 288 C 393 296 376 302 359 306 C 342 310 326 313 311 313 C 287 313 269 306 255 292 C 241 278 234 260 234 237 C 234 213 241 195 257 181 C 272 167 292 160 317 160 C 333 160 349 162 365 168 C 381 173 398 181 415 192 L 415 20 C 391 9 368 1 346 -4 C 323 -9 301 -12 281 -12 Z M 179 524 L 179 664 L 319 664 L 319 524 L 179 524 Z" unicode="ċ" />
<glyph horiz-adv-x="642" d="M 408 -12 C 297 -12 208 18 141 80 C 73 142 40 225 40 330 C 40 434 73 517 141 578 C 208 639 297 670 408 670 C 440 670 472 666 502 659 C 532 652 562 642 591 629 L 591 436 C 563 452 534 464 506 472 C 478 480 449 484 420 484 C 372 484 334 470 306 443 C 278 415 264 378 264 330 C 264 281 278 243 306 215 C 334 187 372 174 420 174 C 450 174 480 178 510 186 C 540 194 569 207 598 224 L 598 33 C 567 18 536 7 505 0 C 474 -8 442 -12 408 -12 Z M 313 718 L 228 875 L 351 875 L 385 809 L 418 875 L 534 875 L 449 718 L 313 718 Z" unicode="Č" />
<glyph horiz-adv-x="447" d="M 281 -12 C 203 -12 141 10 94 54 C 47 98 24 157 24 231 C 24 308 46 370 92 416 C 138 462 200 485 279 485 C 301 485 323 482 345 478 C 367 474 389 468 411 460 L 411 288 C 393 296 376 302 359 306 C 342 310 326 313 311 313 C 287 313 269 306 255 292 C 241 278 234 260 234 237 C 234 213 241 195 257 181 C 272 167 292 160 317 160 C 333 160 349 162 365 168 C 381 173 398 181 415 192 L 415 20 C 391 9 368 1 346 -4 C 323 -9 301 -12 281 -12 Z M 173 524 L 79 698 L 216 698 L 253 626 L 290 698 L 419 698 L 325 524 L 173 524 Z" unicode="č" />
<glyph horiz-adv-x="719" d="M 60 0 L 60 658 L 309 658 C 421 658 511 629 578 571 C 645 513 679 435 679 337 C 679 234 646 152 580 91 C 514 30 424 0 309 0 L 60 0 Z M 272 186 L 304 186 C 352 186 390 199 418 227 C 445 254 459 291 459 337 C 459 378 445 411 418 435 C 390 459 352 472 304 472 L 272 472 L 272 186 Z M 247 706 L 162 863 L 285 863 L 319 797 L 352 863 L 468 863 L 383 706 L 247 706 Z" unicode="Ď" />
<glyph horiz-adv-x="803" d="M 193 -10 C 143 -10 102 11 71 55 C 39 98 24 155 24 226 C 24 304 43 367 81 414 C 119 461 168 485 228 485 C 244 485 259 482 275 477 C 290 472 304 465 318 456 L 318 716 L 522 716 L 522 0 L 326 0 L 318 66 C 304 41 287 22 267 9 C 247 -3 222 -10 193 -10 Z M 284 164 C 290 164 296 164 302 166 C 308 168 313 171 318 175 L 318 312 C 312 314 307 316 301 318 C 295 319 290 320 284 320 C 268 320 256 313 247 299 C 238 285 234 266 234 242 C 234 218 238 199 247 185 C 255 171 268 164 284 164 Z M 681 505 L 570 533 C 582 556 591 578 596 599 C 600 620 603 643 603 668 L 603 716 L 747 716 L 747 669 C 747 631 742 599 732 573 C 722 547 705 525 681 505 Z" unicode="ď" />
<glyph horiz-adv-x="723" d="M 20 254 L 20 410 L 339 410 L 339 254 L 20 254 Z M 64 0 L 64 658 L 313 658 C 425 658 515 629 582 571 C 649 513 683 435 683 337 C 683 234 650 152 584 91 C 518 30 428 0 313 0 L 64 0 Z M 276 186 L 308 186 C 356 186 394 199 422 227 C 449 254 463 291 463 337 C 463 378 449 411 422 435 C 394 459 356 472 308 472 L 276 472 L 276 186 Z" unicode="Đ" />
<glyph horiz-adv-x="562" d="M 279 538 L 279 650 L 569 650 L 569 538 L 279 538 Z M 193 -10 C 143 -10 102 11 71 55 C 39 98 24 155 24 226 C 24 304 43 367 81 414 C 119 461 168 485 228 485 C 244 485 259 482 275 477 C 290 472 304 465 318 456 L 318 716 L 522 716 L 522 0 L 326 0 L 318 66 C 304 41 287 22 267 9 C 247 -3 222 -10 193 -10 Z M 284 164 C 290 164 296 164 302 166 C 308 168 313 171 318 175 L 318 312 C 312 314 307 316 301 318 C 295 319 290 320 284 320 C 268 320 256 313 247 299 C 238 285 234 266 234 242 C 234 218 238 199 247 185 C 255 171 268 164 284 164 Z" unicode="đ" />
<glyph horiz-adv-x="540" d="M 60 0 L 60 658 L 485 658 L 485 474 L 272 474 L 272 405 L 468 405 L 468 255 L 272 255 L 272 183 L 496 183 L 496 0 L 60 0 Z M 166 706 L 166 810 L 392 810 L 392 706 L 166 706 Z" unicode="Ē" />
<glyph horiz-adv-x="531" d="M 290 -16 C 206 -16 140 7 94 53 C 47 99 24 161 24 239 C 24 316 46 378 91 424 C 136 470 199 493 280 493 C 356 493 413 466 451 414 C 488 362 507 295 507 214 L 507 199 L 231 199 C 233 178 244 163 264 154 C 283 144 311 140 347 140 C 371 140 396 143 422 149 C 447 155 471 165 495 178 L 495 21 C 459 8 423 -1 388 -7 C 353 -13 320 -16 290 -16 Z M 272 374 C 258 374 247 367 241 354 C 234 341 230 320 230 291 L 311 291 C 311 321 308 343 302 355 C 296 367 286 374 272 374 Z M 154 540 L 154 655 L 404 655 L 404 540 L 154 540 Z" unicode="ē" />
<glyph horiz-adv-x="540" d="M 60 0 L 60 658 L 485 658 L 485 474 L 272 474 L 272 405 L 468 405 L 468 255 L 272 255 L 272 183 L 496 183 L 496 0 L 60 0 Z M 277 706 C 237 706 205 718 181 744 C 157 770 146 804 146 848 L 239 848 C 239 835 242 825 249 817 C 256 809 265 806 277 806 C 288 806 297 809 304 817 C 311 825 315 835 315 848 L 408 848 C 408 804 396 770 372 744 C 348 718 317 706 277 706 Z" unicode="Ĕ" />
<glyph horiz-adv-x="531" d="M 290 -16 C 206 -16 140 7 94 53 C 47 99 24 161 24 239 C 24 316 46 378 91 424 C 136 470 199 493 280 493 C 356 493 413 466 451 414 C 488 362 507 295 507 214 L 507 199 L 231 199 C 233 178 244 163 264 154 C 283 144 311 140 347 140 C 371 140 396 143 422 149 C 447 155 471 165 495 178 L 495 21 C 459 8 423 -1 388 -7 C 353 -13 320 -16 290 -16 Z M 272 374 C 258 374 247 367 241 354 C 234 341 230 320 230 291 L 311 291 C 311 321 308 343 302 355 C 296 367 286 374 272 374 Z M 279 532 C 235 532 199 546 173 575 C 147 603 134 642 134 690 L 237 690 C 237 675 240 663 248 655 C 256 647 266 643 279 643 C 291 643 301 647 309 655 C 317 663 321 675 321 690 L 424 690 C 424 642 410 603 384 575 C 358 546 323 532 279 532 Z" unicode="ĕ" />
<glyph horiz-adv-x="540" d="M 60 0 L 60 658 L 485 658 L 485 474 L 272 474 L 272 405 L 468 405 L 468 255 L 272 255 L 272 183 L 496 183 L 496 0 L 60 0 Z M 214 706 L 214 832 L 340 832 L 340 706 L 214 706 Z" unicode="Ė" />
<glyph horiz-adv-x="531" d="M 290 -16 C 206 -16 140 7 94 53 C 47 99 24 161 24 239 C 24 316 46 378 91 424 C 136 470 199 493 280 493 C 356 493 413 466 451 414 C 488 362 507 295 507 214 L 507 199 L 231 199 C 233 178 244 163 264 154 C 283 144 311 140 347 140 C 371 140 396 143 422 149 C 447 155 471 165 495 178 L 495 21 C 459 8 423 -1 388 -7 C 353 -13 320 -16 290 -16 Z M 272 374 C 258 374 247 367 241 354 C 234 341 230 320 230 291 L 311 291 C 311 321 308 343 302 355 C 296 367 286 374 272 374 Z M 206 532 L 206 672 L 346 672 L 346 532 L 206 532 Z" unicode="ė" />
<glyph horiz-adv-x="540" d="M 60 0 L 60 658 L 485 658 L 485 474 L 272 474 L 272 405 L 468 405 L 468 255 L 272 255 L 272 183 L 496 183 L 496 0 L 60 0 Z M 492 -220 C 433 -220 387 -207 355 -183 C 322 -158 306 -127 306 -89 C 306 -52 321 -21 351 5 C 381 31 423 50 477 63 L 492 0 C 472 0 456 -5 446 -15 C 436 -25 431 -38 431 -53 C 431 -67 436 -78 446 -88 C 456 -97 472 -102 492 -102 L 492 -220 Z" unicode="Ę" />
<glyph horiz-adv-x="531" d="M 483 -220 C 419 -220 369 -207 333 -181 C 297 -155 279 -122 279 -82 C 279 -70 280 -58 284 -47 C 287 -36 292 -26 298 -16 C 296 -16 295 -16 294 -16 C 292 -16 291 -16 290 -16 C 206 -16 140 7 94 53 C 47 99 24 161 24 239 C 24 316 46 378 91 424 C 136 470 199 493 280 493 C 356 493 413 466 451 414 C 488 362 507 295 507 214 L 507 199 L 231 199 C 233 178 244 163 264 154 C 283 144 311 140 347 140 C 371 140 396 143 422 149 C 447 155 471 165 495 178 L 495 21 C 489 19 483 18 477 16 C 471 14 465 12 460 10 C 445 4 434 -3 427 -13 C 419 -23 416 -34 416 -47 C 416 -63 421 -76 433 -86 C 444 -96 461 -102 483 -102 L 483 -220 Z M 272 374 C 258 374 247 367 241 354 C 234 341 230 320 230 291 L 311 291 C 311 321 308 343 302 355 C 296 367 286 374 272 374 Z" unicode="ę" />
<glyph horiz-adv-x="540" d="M 60 0 L 60 658 L 485 658 L 485 474 L 272 474 L 272 405 L 468 405 L 468 255 L 272 255 L 272 183 L 496 183 L 496 0 L 60 0 Z M 207 706 L 122 863 L 245 863 L 279 797 L 312 863 L 428 863 L 343 706 L 207 706 Z" unicode="Ě" />
<glyph horiz-adv-x="531" d="M 290 -16 C 206 -16 140 7 94 53 C 47 99 24 161 24 239 C 24 316 46 378 91 424 C 136 470 199 493 280 493 C 356 493 413 466 451 414 C 488 362 507 295 507 214 L 507 199 L 231 199 C 233 178 244 163 264 154 C 283 144 311 140 347 140 C 371 140 396 143 422 149 C 447 155 471 165 495 178 L 495 21 C 459 8 423 -1 388 -7 C 353 -13 320 -16 290 -16 Z M 272 374 C 258 374 247 367 241 354 C 234 341 230 320 230 291 L 311 291 C 311 321 308 343 302 355 C 296 367 286 374 272 374 Z M 200 532 L 106 706 L 243 706 L 280 634 L 317 706 L 446 706 L 352 532 L 200 532 Z" unicode="ě" />
<glyph horiz-adv-x="710" d="M 397 -12 C 291 -12 205 18 139 80 C 73 142 40 223 40 324 C 40 431 74 515 142 577 C 210 639 297 670 404 670 C 440 670 477 667 513 662 C 549 657 586 650 623 640 L 623 447 C 589 458 555 467 522 473 C 488 479 454 482 418 482 C 374 482 336 468 306 441 C 275 414 260 377 260 331 C 260 281 273 242 300 213 C 326 183 361 169 403 169 C 413 169 424 169 435 170 C 446 171 457 173 468 177 L 468 249 L 379 249 L 379 399 L 670 399 L 670 28 C 630 14 587 4 542 -2 C 497 -8 449 -12 397 -12 Z M 362 718 L 246 718 L 331 874 L 467 874 L 552 718 L 429 718 L 395 783 L 362 718 Z" unicode="Ĝ" />
<glyph horiz-adv-x="564" d="M 273 -220 C 233 -220 196 -216 160 -210 C 124 -204 90 -194 56 -182 L 56 -23 C 78 -39 103 -52 130 -60 C 157 -68 183 -72 207 -72 C 221 -72 244 -68 274 -60 C 304 -52 320 -29 320 11 L 320 47 C 307 27 291 12 271 2 C 251 -7 231 -12 210 -12 C 151 -12 105 9 73 52 C 40 95 24 153 24 226 C 24 316 48 384 98 428 C 147 472 203 494 265 494 C 293 494 320 487 346 473 C 371 459 390 440 403 418 L 441 478 L 524 478 L 524 27 C 524 -63 497 -127 444 -164 C 390 -201 333 -220 273 -220 Z M 282 156 C 288 156 295 157 301 159 C 307 161 313 163 318 167 L 318 306 C 312 308 307 310 301 312 C 295 313 290 314 284 314 C 268 314 256 306 247 292 C 238 278 234 259 234 236 C 234 211 238 191 247 177 C 255 163 267 156 282 156 Z M 230 534 L 101 534 L 195 708 L 347 708 L 441 534 L 304 534 L 267 606 L 230 534 Z" unicode="ĝ" />
<glyph horiz-adv-x="710" d="M 397 -12 C 291 -12 205 18 139 80 C 73 142 40 223 40 324 C 40 431 74 515 142 577 C 210 639 297 670 404 670 C 440 670 477 667 513 662 C 549 657 586 650 623 640 L 623 447 C 589 458 555 467 522 473 C 488 479 454 482 418 482 C 374 482 336 468 306 441 C 275 414 260 377 260 331 C 260 281 273 242 300 213 C 326 183 361 169 403 169 C 413 169 424 169 435 170 C 446 171 457 173 468 177 L 468 249 L 379 249 L 379 399 L 670 399 L 670 28 C 630 14 587 4 542 -2 C 497 -8 449 -12 397 -12 Z M 397 718 C 357 718 325 730 301 756 C 277 782 266 816 266 860 L 359 860 C 359 847 362 837 369 829 C 376 821 385 818 397 818 C 408 818 417 821 424 829 C 431 837 435 847 435 860 L 528 860 C 528 816 516 782 492 756 C 468 730 437 718 397 718 Z" unicode="Ğ" />
<glyph horiz-adv-x="564" d="M 273 -220 C 233 -220 196 -216 160 -210 C 124 -204 90 -194 56 -182 L 56 -23 C 78 -39 103 -52 130 -60 C 157 -68 183 -72 207 -72 C 221 -72 244 -68 274 -60 C 304 -52 320 -29 320 11 L 320 47 C 307 27 291 12 271 2 C 251 -7 231 -12 210 -12 C 151 -12 105 9 73 52 C 40 95 24 153 24 226 C 24 316 48 384 98 428 C 147 472 203 494 265 494 C 293 494 320 487 346 473 C 371 459 390 440 403 418 L 441 478 L 524 478 L 524 27 C 524 -63 497 -127 444 -164 C 390 -201 333 -220 273 -220 Z M 282 156 C 288 156 295 157 301 159 C 307 161 313 163 318 167 L 318 306 C 312 308 307 310 301 312 C 295 313 290 314 284 314 C 268 314 256 306 247 292 C 238 278 234 259 234 236 C 234 211 238 191 247 177 C 255 163 267 156 282 156 Z M 270 534 C 226 534 190 548 164 577 C 138 605 125 644 125 692 L 228 692 C 228 677 231 665 239 657 C 247 649 257 645 270 645 C 282 645 292 649 300 657 C 308 665 312 677 312 692 L 415 692 C 415 644 401 605 375 577 C 349 548 314 534 270 534 Z" unicode="ğ" />
<glyph horiz-adv-x="710" d="M 397 -12 C 291 -12 205 18 139 80 C 73 142 40 223 40 324 C 40 431 74 515 142 577 C 210 639 297 670 404 670 C 440 670 477 667 513 662 C 549 657 586 650 623 640 L 623 447 C 589 458 555 467 522 473 C 488 479 454 482 418 482 C 374 482 336 468 306 441 C 275 414 260 377 260 331 C 260 281 273 242 300 213 C 326 183 361 169 403 169 C 413 169 424 169 435 170 C 446 171 457 173 468 177 L 468 249 L 379 249 L 379 399 L 670 399 L 670 28 C 630 14 587 4 542 -2 C 497 -8 449 -12 397 -12 Z M 334 718 L 334 844 L 460 844 L 460 718 L 334 718 Z" unicode="Ġ" />
<glyph horiz-adv-x="564" d="M 273 -220 C 233 -220 196 -216 160 -210 C 124 -204 90 -194 56 -182 L 56 -23 C 78 -39 103 -52 130 -60 C 157 -68 183 -72 207 -72 C 221 -72 244 -68 274 -60 C 304 -52 320 -29 320 11 L 320 47 C 307 27 291 12 271 2 C 251 -7 231 -12 210 -12 C 151 -12 105 9 73 52 C 40 95 24 153 24 226 C 24 316 48 384 98 428 C 147 472 203 494 265 494 C 293 494 320 487 346 473 C 371 459 390 440 403 418 L 441 478 L 524 478 L 524 27 C 524 -63 497 -127 444 -164 C 390 -201 333 -220 273 -220 Z M 282 156 C 288 156 295 157 301 159 C 307 161 313 163 318 167 L 318 306 C 312 308 307 310 301 312 C 295 313 290 314 284 314 C 268 314 256 306 247 292 C 238 278 234 259 234 236 C 234 211 238 191 247 177 C 255 163 267 156 282 156 Z M 197 534 L 197 674 L 337 674 L 337 534 L 197 534 Z" unicode="ġ" />
<glyph horiz-adv-x="710" d="M 397 -12 C 291 -12 205 18 139 80 C 73 142 40 223 40 324 C 40 431 74 515 142 577 C 210 639 297 670 404 670 C 440 670 477 667 513 662 C 549 657 586 650 623 640 L 623 447 C 589 458 555 467 522 473 C 488 479 454 482 418 482 C 374 482 336 468 306 441 C 275 414 260 377 260 331 C 260 281 273 242 300 213 C 326 183 361 169 403 169 C 413 169 424 169 435 170 C 446 171 457 173 468 177 L 468 249 L 379 249 L 379 399 L 670 399 L 670 28 C 630 14 587 4 542 -2 C 497 -8 449 -12 397 -12 Z M 401 -246 L 301 -221 C 311 -200 319 -180 323 -161 C 327 -142 330 -121 330 -99 L 330 -56 L 460 -56 L 460 -98 C 460 -132 455 -160 446 -184 C 437 -207 422 -228 401 -246 Z" unicode="Ģ" />
<glyph horiz-adv-x="564" d="M 273 -220 C 233 -220 196 -216 160 -210 C 124 -204 90 -194 56 -182 L 56 -23 C 78 -39 103 -52 130 -60 C 157 -68 183 -72 207 -72 C 221 -72 244 -68 274 -60 C 304 -52 320 -29 320 11 L 320 47 C 307 27 291 12 271 2 C 251 -7 231 -12 210 -12 C 151 -12 105 9 73 52 C 40 95 24 153 24 226 C 24 316 48 384 98 428 C 147 472 203 494 265 494 C 293 494 320 487 346 473 C 371 459 390 440 403 418 L 441 478 L 524 478 L 524 27 C 524 -63 497 -127 444 -164 C 390 -201 333 -220 273 -220 Z M 282 156 C 288 156 295 157 301 159 C 307 161 313 163 318 167 L 318 306 C 312 308 307 310 301 312 C 295 313 290 314 284 314 C 268 314 256 306 247 292 C 238 278 234 259 234 236 C 234 211 238 191 247 177 C 255 163 267 156 282 156 Z M 263 753 L 374 725 C 361 701 352 679 348 658 C 343 637 341 614 341 590 L 341 542 L 197 542 L 197 589 C 197 627 202 658 212 684 C 222 710 239 733 263 753 Z" unicode="ģ" />
<glyph horiz-adv-x="732" d="M 60 0 L 60 658 L 272 658 L 272 421 L 460 421 L 460 658 L 672 658 L 672 0 L 460 0 L 460 235 L 272 235 L 272 0 L 60 0 Z M 330 706 L 214 706 L 299 862 L 435 862 L 520 706 L 397 706 L 363 771 L 330 706 Z" unicode="Ĥ" />
<glyph horiz-adv-x="559" d="M 40 0 L 40 716 L 244 716 L 244 419 C 256 439 274 455 296 469 C 318 483 344 490 375 490 C 417 490 452 475 480 447 C 508 418 523 380 523 332 L 523 0 L 319 0 L 319 282 C 319 294 315 303 307 310 C 299 316 290 320 280 320 C 272 320 265 318 259 316 C 252 313 247 309 244 303 L 244 0 L 40 0 Z M 103 748 L -26 748 L 68 922 L 220 922 L 314 748 L 177 748 L 140 820 L 103 748 Z" unicode="ĥ" />
<glyph horiz-adv-x="736" d="M 62 0 L 62 468 L 12 468 L 12 598 L 62 598 L 62 658 L 274 658 L 274 598 L 462 598 L 462 658 L 674 658 L 674 598 L 724 598 L 724 468 L 674 468 L 674 0 L 462 0 L 462 222 L 274 222 L 274 0 L 62 0 Z M 274 410 L 462 410 L 462 468 L 274 468 L 274 410 Z" unicode="Ħ" />
<glyph horiz-adv-x="559" d="M 4 538 L 4 650 L 300 650 L 300 538 L 4 538 Z M 40 0 L 40 716 L 244 716 L 244 419 C 256 439 274 455 296 469 C 318 483 344 490 375 490 C 417 490 452 475 480 447 C 508 418 523 380 523 332 L 523 0 L 319 0 L 319 282 C 319 294 315 303 307 310 C 299 316 290 320 280 320 C 272 320 265 318 259 316 C 252 313 247 309 244 303 L 244 0 L 40 0 Z" unicode="ħ" />
<glyph horiz-adv-x="332" d="M 60 0 L 60 658 L 272 658 L 272 0 L 60 0 Z M 105 706 L 13 706 C 13 752 22 786 40 810 C 58 834 85 846 121 846 C 135 846 147 844 158 840 C 168 836 179 830 190 822 C 194 818 198 815 201 814 C 204 812 207 812 211 812 C 217 812 221 814 225 819 C 228 824 230 831 231 841 L 323 841 C 323 795 314 760 296 736 C 278 712 251 701 215 701 C 202 701 190 703 180 707 C 170 711 158 717 146 726 C 141 729 137 731 134 733 C 130 734 127 735 125 735 C 118 735 113 732 110 727 C 106 722 105 715 105 706 Z" unicode="Ĩ" />
<glyph horiz-adv-x="284" d="M 40 0 L 40 478 L 244 478 L 244 0 L 40 0 Z M 72 524 L -30 524 C -30 574 -20 613 0 639 C 20 665 50 679 90 679 C 105 679 118 676 130 672 C 142 668 154 661 166 652 C 171 647 175 644 179 643 C 182 641 186 641 190 641 C 196 641 201 643 205 649 C 209 654 211 662 212 673 L 314 673 C 314 622 304 583 284 557 C 264 531 234 518 194 518 C 180 518 167 520 155 524 C 143 528 131 536 118 546 C 112 550 108 552 104 554 C 100 555 97 556 94 556 C 86 556 81 553 77 548 C 73 542 72 534 72 524 Z" unicode="ĩ" />
<glyph horiz-adv-x="332" d="M 60 0 L 60 658 L 272 658 L 272 0 L 60 0 Z M 57 706 L 57 810 L 283 810 L 283 706 L 57 706 Z" unicode="Ī" />
<glyph horiz-adv-x="284" d="M 40 0 L 40 478 L 244 478 L 244 0 L 40 0 Z M 18 532 L 18 647 L 268 647 L 268 532 L 18 532 Z" unicode="ī" />
<glyph horiz-adv-x="332" d="M 60 0 L 60 658 L 272 658 L 272 0 L 60 0 Z M 168 706 C 128 706 96 718 72 744 C 48 770 37 804 37 848 L 130 848 C 130 835 133 825 140 817 C 147 809 156 806 168 806 C 179 806 188 809 195 817 C 202 825 206 835 206 848 L 299 848 C 299 804 287 770 263 744 C 239 718 208 706 168 706 Z" unicode="Ĭ" />
<glyph horiz-adv-x="284" d="M 40 0 L 40 478 L 244 478 L 244 0 L 40 0 Z M 143 524 C 99 524 63 538 37 567 C 11 595 -2 634 -2 682 L 101 682 C 101 667 104 655 112 647 C 120 639 130 635 143 635 C 155 635 165 639 173 647 C 181 655 185 667 185 682 L 288 682 C 288 634 274 595 248 567 C 222 538 187 524 143 524 Z" unicode="ĭ" />
<glyph horiz-adv-x="332" d="M 60 0 L 60 658 L 272 658 L 272 0 L 60 0 Z M 205 -220 C 146 -220 100 -207 68 -183 C 35 -158 19 -127 19 -89 C 19 -52 34 -21 64 5 C 94 31 136 50 190 63 L 205 0 C 185 0 169 -5 159 -15 C 149 -25 144 -38 144 -53 C 144 -67 149 -78 159 -88 C 169 -97 185 -102 205 -102 L 205 -220 Z" unicode="Į" />
<glyph horiz-adv-x="284" d="M 40 542 L 40 716 L 244 716 L 244 542 L 40 542 Z M 40 0 L 40 478 L 244 478 L 244 0 L 40 0 Z M 189 -220 C 130 -220 84 -207 52 -183 C 19 -158 3 -127 3 -89 C 3 -52 18 -21 48 5 C 78 31 120 50 174 63 L 189 0 C 169 0 153 -5 143 -15 C 133 -25 128 -38 128 -53 C 128 -67 133 -78 143 -88 C 153 -97 169 -102 189 -102 L 189 -220 Z" unicode="į" />
<glyph horiz-adv-x="332" d="M 60 0 L 60 658 L 272 658 L 272 0 L 60 0 Z M 105 706 L 105 832 L 231 832 L 231 706 L 105 706 Z" unicode="İ" />
<glyph horiz-adv-x="284" d="M 40 0 L 40 478 L 244 478 L 244 0 L 40 0 Z" unicode="ı" />
<glyph horiz-adv-x="335" d="M -20 -220 L -36 -220 L -36 -48 L -20 -48 C 5 -48 25 -40 40 -24 C 55 -8 63 15 63 48 L 63 658 L 275 658 L 275 48 C 275 -32 250 -96 202 -146 C 153 -195 79 -220 -20 -220 Z M 132 706 L 16 706 L 101 862 L 237 862 L 322 706 L 199 706 L 165 771 L 132 706 Z" unicode="Ĵ" />
<glyph horiz-adv-x="282" d="M -56 -220 L -64 -220 L -64 -56 L -56 -56 C -28 -56 -5 -46 12 -27 C 29 -7 38 17 38 48 L 38 478 L 242 478 L 242 47 C 242 -32 214 -96 160 -146 C 105 -195 33 -220 -56 -220 Z M 102 524 L -27 524 L 67 698 L 219 698 L 313 524 L 176 524 L 139 596 L 102 524 Z" unicode="ĵ" />
<glyph horiz-adv-x="733" d="M 60 0 L 60 658 L 272 658 L 272 354 L 490 658 L 717 658 L 477 341 L 715 0 L 467 0 L 272 293 L 272 0 L 60 0 Z M 376 -238 L 276 -213 C 286 -192 294 -172 298 -153 C 302 -134 305 -113 305 -91 L 305 -48 L 435 -48 L 435 -90 C 435 -124 430 -152 421 -176 C 412 -199 397 -220 376 -238 Z" unicode="Ķ" />
<glyph horiz-adv-x="589" d="M 40 0 L 40 716 L 244 716 L 244 295 L 359 478 L 575 478 L 429 256 L 577 0 L 350 0 L 244 186 L 244 0 L 40 0 Z M 304 -251 L 193 -223 C 205 -199 214 -177 219 -156 C 223 -135 226 -112 226 -88 L 226 -40 L 370 -40 L 370 -87 C 370 -125 365 -156 355 -182 C 345 -208 328 -231 304 -251 Z" unicode="ķ" />
<glyph horiz-adv-x="521" d="M 60 0 L 60 658 L 272 658 L 272 188 L 497 188 L 497 0 L 60 0 Z M 237 706 L 96 706 L 188 848 L 351 848 L 237 706 Z" unicode="Ĺ" />
<glyph horiz-adv-x="284" d="M 40 0 L 40 716 L 244 716 L 244 0 L 40 0 Z M 220 762 L 64 762 L 166 920 L 347 920 L 220 762 Z" unicode="ĺ" />
<glyph horiz-adv-x="521" d="M 60 0 L 60 658 L 272 658 L 272 188 L 497 188 L 497 0 L 60 0 Z M 288 -238 L 188 -213 C 198 -192 206 -172 210 -153 C 214 -134 217 -113 217 -91 L 217 -48 L 347 -48 L 347 -90 C 347 -124 342 -152 333 -176 C 324 -199 309 -220 288 -238 Z" unicode="Ļ" />
<glyph horiz-adv-x="284" d="M 40 0 L 40 716 L 244 716 L 244 0 L 40 0 Z M 151 -251 L 40 -223 C 52 -199 61 -177 66 -156 C 70 -135 73 -112 73 -88 L 73 -40 L 217 -40 L 217 -87 C 217 -125 212 -156 202 -182 C 192 -208 175 -231 151 -251 Z" unicode="ļ" />
<glyph horiz-adv-x="521" d="M 60 0 L 60 658 L 272 658 L 272 188 L 497 188 L 497 0 L 60 0 Z M 436 447 L 325 475 C 337 498 346 520 351 541 C 355 562 358 585 358 610 L 358 658 L 502 658 L 502 611 C 502 573 497 541 487 515 C 477 489 460 467 436 447 Z" unicode="Ľ" />
<glyph horiz-adv-x="526" d="M 40 0 L 40 716 L 244 716 L 244 0 L 40 0 Z M 404 505 L 293 533 C 305 556 314 578 319 599 C 323 620 326 643 326 668 L 326 716 L 470 716 L 470 669 C 470 631 465 599 455 573 C 445 547 428 525 404 505 Z" unicode="ľ" />
<glyph horiz-adv-x="521" d="M 60 0 L 60 658 L 272 658 L 272 188 L 497 188 L 497 0 L 60 0 Z M 352 304 L 352 444 L 492 444 L 492 304 L 352 304 Z" unicode="Ŀ" />
<glyph horiz-adv-x="444" d="M 40 0 L 40 716 L 244 716 L 244 0 L 40 0 Z M 294 281 L 294 421 L 434 421 L 434 281 L 294 281 Z" unicode="ŀ" />
<glyph horiz-adv-x="521" d="M 4 251 L 4 424 L 339 494 L 339 321 L 4 251 Z M 60 0 L 60 658 L 272 658 L 272 188 L 497 188 L 497 0 L 60 0 Z" unicode="Ł" />
<glyph horiz-adv-x="284" d="M 12 254 L 12 426 L 286 494 L 286 322 L 12 254 Z M 40 0 L 40 716 L 244 716 L 244 0 L 40 0 Z" unicode="ł" />
<glyph horiz-adv-x="776" d="M 60 0 L 60 658 L 309 658 L 484 372 L 532 286 L 528 372 L 528 658 L 716 658 L 716 0 L 473 0 L 294 286 L 244 376 L 248 286 L 248 0 L 60 0 Z M 457 706 L 316 706 L 408 848 L 571 848 L 457 706 Z" unicode="Ń" />
<glyph horiz-adv-x="559" d="M 40 0 L 40 478 L 244 478 L 244 418 C 256 438 274 455 296 469 C 318 483 346 490 378 490 C 418 490 453 475 481 447 C 509 418 523 380 523 332 L 523 0 L 319 0 L 319 282 C 319 294 315 303 307 310 C 299 316 290 320 280 320 C 272 320 265 318 259 316 C 252 313 247 309 244 303 L 244 0 L 40 0 Z M 366 524 L 210 524 L 312 682 L 493 682 L 366 524 Z" unicode="ń" />
<glyph horiz-adv-x="776" d="M 60 0 L 60 658 L 309 658 L 484 372 L 532 286 L 528 372 L 528 658 L 716 658 L 716 0 L 473 0 L 294 286 L 244 376 L 248 286 L 248 0 L 60 0 Z M 392 -254 L 292 -229 C 302 -208 310 -188 314 -169 C 318 -150 321 -129 321 -107 L 321 -64 L 451 -64 L 451 -106 C 451 -140 446 -168 437 -192 C 428 -215 413 -236 392 -254 Z" unicode="Ņ" />
<glyph horiz-adv-x="559" d="M 40 0 L 40 478 L 244 478 L 244 418 C 256 438 274 455 296 469 C 318 483 346 490 378 490 C 418 490 453 475 481 447 C 509 418 523 380 523 332 L 523 0 L 319 0 L 319 282 C 319 294 315 303 307 310 C 299 316 290 320 280 320 C 272 320 265 318 259 316 C 252 313 247 309 244 303 L 244 0 L 40 0 Z M 290 -251 L 179 -223 C 191 -199 200 -177 205 -156 C 209 -135 212 -112 212 -88 L 212 -40 L 356 -40 L 356 -87 C 356 -125 351 -156 341 -182 C 331 -208 314 -231 290 -251 Z" unicode="ņ" />
<glyph horiz-adv-x="776" d="M 60 0 L 60 658 L 309 658 L 484 372 L 532 286 L 528 372 L 528 658 L 716 658 L 716 0 L 473 0 L 294 286 L 244 376 L 248 286 L 248 0 L 60 0 Z M 317 706 L 232 863 L 355 863 L 389 797 L 422 863 L 538 863 L 453 706 L 317 706 Z" unicode="Ň" />
<glyph horiz-adv-x="559" d="M 40 0 L 40 478 L 244 478 L 244 418 C 256 438 274 455 296 469 C 318 483 346 490 378 490 C 418 490 453 475 481 447 C 509 418 523 380 523 332 L 523 0 L 319 0 L 319 282 C 319 294 315 303 307 310 C 299 316 290 320 280 320 C 272 320 265 318 259 316 C 252 313 247 309 244 303 L 244 0 L 40 0 Z M 212 524 L 118 698 L 255 698 L 292 626 L 329 698 L 458 698 L 364 524 L 212 524 Z" unicode="ň" />
<glyph horiz-adv-x="776" d="M 60 0 L 60 658 L 309 658 L 484 372 L 532 286 L 528 372 L 528 658 L 716 658 L 716 0 C 716 -64 695 -117 654 -158 C 613 -199 557 -220 486 -220 L 458 -220 L 458 -72 L 466 -72 C 482 -72 497 -66 509 -54 C 521 -42 528 -26 528 -4 L 528 0 L 473 0 L 294 286 L 244 376 L 248 286 L 248 0 L 60 0 Z" unicode="Ŋ" />
<glyph horiz-adv-x="551" d="M 211 -210 L 203 -210 L 203 -46 L 211 -46 C 243 -46 268 -37 285 -20 C 302 -2 311 20 311 50 L 311 282 C 311 294 307 303 301 310 C 295 316 286 320 276 320 C 268 320 262 318 257 316 C 251 313 247 309 244 303 L 244 0 L 40 0 L 40 478 L 244 478 L 244 418 C 256 438 272 455 292 469 C 312 483 338 490 370 490 C 410 490 445 475 473 447 C 501 418 515 380 515 332 L 515 49 C 515 -26 487 -88 433 -137 C 378 -185 304 -210 211 -210 Z" unicode="ŋ" />
<glyph horiz-adv-x="799" d="M 400 -18 C 290 -18 202 13 137 76 C 72 138 40 223 40 329 C 40 435 72 520 137 582 C 202 644 290 676 400 676 C 509 676 596 644 661 582 C 726 520 759 435 759 329 C 759 223 726 138 661 76 C 596 13 509 -18 400 -18 Z M 400 167 C 442 167 475 181 501 210 C 526 239 539 279 539 329 C 539 379 526 418 501 447 C 475 476 442 491 400 491 C 357 491 323 476 298 447 C 272 418 260 379 260 329 C 260 279 272 239 298 210 C 323 181 357 167 400 167 Z M 289 716 L 289 820 L 515 820 L 515 716 L 289 716 Z" unicode="Ō" />
<glyph horiz-adv-x="568" d="M 284 -16 C 204 -16 141 7 94 54 C 47 100 24 163 24 242 C 24 318 47 379 94 425 C 141 471 204 494 284 494 C 363 494 426 471 473 426 C 520 380 544 320 544 244 C 544 164 520 101 473 54 C 426 7 363 -16 284 -16 Z M 284 157 C 298 157 310 164 320 178 C 329 192 334 212 334 240 C 334 266 329 286 320 300 C 310 314 298 321 284 321 C 269 321 257 314 248 300 C 238 286 234 266 234 240 C 234 212 238 192 248 178 C 257 164 269 157 284 157 Z M 160 540 L 160 655 L 410 655 L 410 540 L 160 540 Z" unicode="ō" />
<glyph horiz-adv-x="799" d="M 400 -18 C 290 -18 202 13 137 76 C 72 138 40 223 40 329 C 40 435 72 520 137 582 C 202 644 290 676 400 676 C 509 676 596 644 661 582 C 726 520 759 435 759 329 C 759 223 726 138 661 76 C 596 13 509 -18 400 -18 Z M 400 167 C 442 167 475 181 501 210 C 526 239 539 279 539 329 C 539 379 526 418 501 447 C 475 476 442 491 400 491 C 357 491 323 476 298 447 C 272 418 260 379 260 329 C 260 279 272 239 298 210 C 323 181 357 167 400 167 Z M 400 716 C 360 716 328 728 304 754 C 280 780 269 814 269 858 L 362 858 C 362 845 365 835 372 827 C 379 819 388 816 400 816 C 411 816 420 819 427 827 C 434 835 438 845 438 858 L 531 858 C 531 814 519 780 495 754 C 471 728 440 716 400 716 Z" unicode="Ŏ" />
<glyph horiz-adv-x="568" d="M 284 -16 C 204 -16 141 7 94 54 C 47 100 24 163 24 242 C 24 318 47 379 94 425 C 141 471 204 494 284 494 C 363 494 426 471 473 426 C 520 380 544 320 544 244 C 544 164 520 101 473 54 C 426 7 363 -16 284 -16 Z M 284 157 C 298 157 310 164 320 178 C 329 192 334 212 334 240 C 334 266 329 286 320 300 C 310 314 298 321 284 321 C 269 321 257 314 248 300 C 238 286 234 266 234 240 C 234 212 238 192 248 178 C 257 164 269 157 284 157 Z M 285 532 C 241 532 205 546 179 575 C 153 603 140 642 140 690 L 243 690 C 243 675 246 663 254 655 C 262 647 272 643 285 643 C 297 643 307 647 315 655 C 323 663 327 675 327 690 L 430 690 C 430 642 416 603 390 575 C 364 546 329 532 285 532 Z" unicode="ŏ" />
<glyph horiz-adv-x="799" d="M 400 -18 C 290 -18 202 13 137 76 C 72 138 40 223 40 329 C 40 435 72 520 137 582 C 202 644 290 676 400 676 C 509 676 596 644 661 582 C 726 520 759 435 759 329 C 759 223 726 138 661 76 C 596 13 509 -18 400 -18 Z M 400 167 C 442 167 475 181 501 210 C 526 239 539 279 539 329 C 539 379 526 418 501 447 C 475 476 442 491 400 491 C 357 491 323 476 298 447 C 272 418 260 379 260 329 C 260 279 272 239 298 210 C 323 181 357 167 400 167 Z M 253 716 L 341 858 L 468 858 L 372 716 L 253 716 Z M 425 716 L 521 858 L 648 858 L 544 716 L 425 716 Z" unicode="Ő" />
<glyph horiz-adv-x="568" d="M 284 -16 C 204 -16 141 7 94 54 C 47 100 24 163 24 242 C 24 318 47 379 94 425 C 141 471 204 494 284 494 C 363 494 426 471 473 426 C 520 380 544 320 544 244 C 544 164 520 101 473 54 C 426 7 363 -16 284 -16 Z M 284 157 C 298 157 310 164 320 178 C 329 192 334 212 334 240 C 334 266 329 286 320 300 C 310 314 298 321 284 321 C 269 321 257 314 248 300 C 238 286 234 266 234 240 C 234 212 238 192 248 178 C 257 164 269 157 284 157 Z M 120 540 L 218 698 L 359 698 L 252 540 L 120 540 Z M 311 540 L 418 698 L 559 698 L 443 540 L 311 540 Z" unicode="ő" />
<glyph horiz-adv-x="915" d="M 427 0 C 311 0 217 27 146 82 C 75 136 40 220 40 333 C 40 445 75 527 146 579 C 217 631 311 658 427 658 L 860 658 L 860 470 L 647 470 L 647 410 L 843 410 L 843 248 L 647 248 L 647 188 L 871 188 L 871 0 L 427 0 Z M 411 188 L 435 188 L 435 479 L 411 479 C 365 479 328 466 301 440 C 273 414 260 378 260 333 C 260 287 273 251 301 226 C 328 200 365 188 411 188 Z" unicode="Œ" />
<glyph horiz-adv-x="821" d="M 284 -16 C 204 -16 141 7 94 54 C 47 100 24 163 24 242 C 24 318 47 379 94 425 C 141 470 204 493 284 493 C 313 493 340 488 364 480 C 388 471 409 459 428 445 C 445 459 465 471 489 480 C 513 488 540 493 570 493 C 646 493 703 466 741 414 C 778 362 797 295 797 214 L 797 199 L 521 199 C 523 178 534 163 554 154 C 573 144 601 140 637 140 C 661 140 686 143 712 149 C 737 155 761 165 785 178 L 785 21 C 749 8 713 -1 678 -7 C 643 -13 610 -16 580 -16 C 548 -16 519 -11 494 -2 C 469 7 447 19 429 34 C 410 19 389 7 365 -2 C 341 -11 314 -16 284 -16 Z M 562 374 C 548 374 537 367 531 354 C 524 341 520 320 520 291 L 601 291 C 601 321 598 343 592 355 C 586 367 576 374 562 374 Z M 282 158 C 296 158 308 164 316 178 C 324 192 328 212 328 240 C 328 266 324 286 316 300 C 308 313 296 320 282 320 C 267 320 256 313 248 300 C 240 286 236 266 236 240 C 236 212 240 192 248 178 C 256 164 267 158 282 158 Z" unicode="œ" />
<glyph horiz-adv-x="672" d="M 429 0 L 358 190 C 349 212 340 228 330 238 C 320 248 307 253 293 253 L 272 253 L 272 0 L 60 0 L 60 658 L 364 658 C 421 658 470 642 512 612 C 554 582 575 539 575 485 C 575 442 563 406 540 378 C 517 349 484 328 440 316 C 476 308 505 294 527 276 C 549 258 567 233 579 201 L 656 0 L 429 0 Z M 272 385 L 302 385 C 320 385 335 390 347 402 C 359 414 365 429 365 448 C 365 466 359 481 347 493 C 335 504 320 510 302 510 L 272 510 L 272 385 Z M 393 706 L 252 706 L 344 848 L 507 848 L 393 706 Z" unicode="Ŕ" />
<glyph horiz-adv-x="419" d="M 40 0 L 40 478 L 244 478 L 244 403 C 258 435 274 457 293 470 C 312 483 332 490 352 490 C 361 490 370 489 380 487 C 389 485 398 483 407 480 L 407 291 C 392 298 378 303 365 307 C 352 311 337 313 321 313 C 308 313 295 311 281 307 C 267 303 254 298 244 292 L 244 0 L 40 0 Z M 308 524 L 152 524 L 254 682 L 435 682 L 308 524 Z" unicode="ŕ" />
<glyph horiz-adv-x="672" d="M 429 0 L 358 190 C 349 212 340 228 330 238 C 320 248 307 253 293 253 L 272 253 L 272 0 L 60 0 L 60 658 L 364 658 C 421 658 470 642 512 612 C 554 582 575 539 575 485 C 575 442 563 406 540 378 C 517 349 484 328 440 316 C 476 308 505 294 527 276 C 549 258 567 233 579 201 L 656 0 L 429 0 Z M 272 385 L 302 385 C 320 385 335 390 347 402 C 359 414 365 429 365 448 C 365 466 359 481 347 493 C 335 504 320 510 302 510 L 272 510 L 272 385 Z M 357 -238 L 257 -213 C 267 -192 275 -172 279 -153 C 283 -134 286 -113 286 -91 L 286 -48 L 416 -48 L 416 -90 C 416 -124 411 -152 402 -176 C 393 -199 378 -220 357 -238 Z" unicode="Ŗ" />
<glyph horiz-adv-x="419" d="M 40 0 L 40 478 L 244 478 L 244 403 C 258 435 274 457 293 470 C 312 483 332 490 352 490 C 361 490 370 489 380 487 C 389 485 398 483 407 480 L 407 291 C 392 298 378 303 365 307 C 352 311 337 313 321 313 C 308 313 295 311 281 307 C 267 303 254 298 244 292 L 244 0 L 40 0 Z M 150 -251 L 39 -223 C 51 -199 60 -177 65 -156 C 69 -135 72 -112 72 -88 L 72 -40 L 216 -40 L 216 -87 C 216 -125 211 -156 201 -182 C 191 -208 174 -231 150 -251 Z" unicode="ŗ" />
<glyph horiz-adv-x="672" d="M 429 0 L 358 190 C 349 212 340 228 330 238 C 320 248 307 253 293 253 L 272 253 L 272 0 L 60 0 L 60 658 L 364 658 C 421 658 470 642 512 612 C 554 582 575 539 575 485 C 575 442 563 406 540 378 C 517 349 484 328 440 316 C 476 308 505 294 527 276 C 549 258 567 233 579 201 L 656 0 L 429 0 Z M 272 385 L 302 385 C 320 385 335 390 347 402 C 359 414 365 429 365 448 C 365 466 359 481 347 493 C 335 504 320 510 302 510 L 272 510 L 272 385 Z M 253 706 L 168 863 L 291 863 L 325 797 L 358 863 L 474 863 L 389 706 L 253 706 Z" unicode="Ř" />
<glyph horiz-adv-x="419" d="M 40 0 L 40 478 L 244 478 L 244 403 C 258 435 274 457 293 470 C 312 483 332 490 352 490 C 361 490 370 489 380 487 C 389 485 398 483 407 480 L 407 291 C 392 298 378 303 365 307 C 352 311 337 313 321 313 C 308 313 295 311 281 307 C 267 303 254 298 244 292 L 244 0 L 40 0 Z M 154 524 L 60 698 L 197 698 L 234 626 L 271 698 L 400 698 L 306 524 L 154 524 Z" unicode="ř" />
<glyph horiz-adv-x="573" d="M 263 -12 C 231 -12 196 -8 159 -1 C 121 6 85 16 50 30 L 50 213 C 82 197 116 185 151 177 C 186 169 219 165 250 165 C 266 165 280 167 290 173 C 300 178 305 186 305 197 C 305 206 300 214 291 222 C 282 230 269 236 253 240 L 219 248 C 159 262 114 286 84 322 C 54 357 40 399 40 449 C 40 516 63 570 111 610 C 159 650 223 670 305 670 C 337 670 371 667 406 662 C 441 656 473 649 501 639 L 501 459 C 475 470 446 479 414 486 C 382 492 352 496 324 496 C 308 496 295 493 286 489 C 276 484 272 476 272 466 C 272 457 276 449 285 441 C 293 433 306 428 323 424 L 357 416 C 417 401 462 375 490 339 C 518 302 533 260 533 212 C 533 137 508 81 460 44 C 411 6 345 -12 263 -12 Z M 365 714 L 224 714 L 316 856 L 479 856 L 365 714 Z" unicode="Ś" />
<glyph horiz-adv-x="485" d="M 240 -16 C 205 -16 171 -14 137 -10 C 103 -6 69 0 35 8 L 35 164 C 63 150 92 139 120 132 C 148 124 178 121 208 121 C 216 121 223 122 229 126 C 235 129 238 134 238 141 C 238 146 235 150 231 154 C 226 158 219 161 211 163 L 163 174 C 115 184 79 203 57 230 C 35 256 24 289 24 329 C 24 379 41 419 76 449 C 111 479 164 494 236 494 C 269 494 302 492 334 488 C 366 484 398 479 431 471 L 431 325 C 403 338 377 348 353 354 C 329 360 304 363 278 363 C 268 363 260 361 254 358 C 248 354 246 349 246 343 C 246 338 247 334 251 330 C 254 326 259 323 265 322 L 313 312 C 364 301 401 281 425 253 C 449 225 461 191 461 151 C 461 101 442 61 406 30 C 369 0 314 -16 240 -16 Z M 315 532 L 159 532 L 261 690 L 442 690 L 315 532 Z" unicode="ś" />
<glyph horiz-adv-x="573" d="M 263 -12 C 231 -12 196 -8 159 -1 C 121 6 85 16 50 30 L 50 213 C 82 197 116 185 151 177 C 186 169 219 165 250 165 C 266 165 280 167 290 173 C 300 178 305 186 305 197 C 305 206 300 214 291 222 C 282 230 269 236 253 240 L 219 248 C 159 262 114 286 84 322 C 54 357 40 399 40 449 C 40 516 63 570 111 610 C 159 650 223 670 305 670 C 337 670 371 667 406 662 C 441 656 473 649 501 639 L 501 459 C 475 470 446 479 414 486 C 382 492 352 496 324 496 C 308 496 295 493 286 489 C 276 484 272 476 272 466 C 272 457 276 449 285 441 C 293 433 306 428 323 424 L 357 416 C 417 401 462 375 490 339 C 518 302 533 260 533 212 C 533 137 508 81 460 44 C 411 6 345 -12 263 -12 Z M 260 714 L 144 714 L 229 870 L 365 870 L 450 714 L 327 714 L 293 779 L 260 714 Z" unicode="Ŝ" />
<glyph horiz-adv-x="485" d="M 240 -16 C 205 -16 171 -14 137 -10 C 103 -6 69 0 35 8 L 35 164 C 63 150 92 139 120 132 C 148 124 178 121 208 121 C 216 121 223 122 229 126 C 235 129 238 134 238 141 C 238 146 235 150 231 154 C 226 158 219 161 211 163 L 163 174 C 115 184 79 203 57 230 C 35 256 24 289 24 329 C 24 379 41 419 76 449 C 111 479 164 494 236 494 C 269 494 302 492 334 488 C 366 484 398 479 431 471 L 431 325 C 403 338 377 348 353 354 C 329 360 304 363 278 363 C 268 363 260 361 254 358 C 248 354 246 349 246 343 C 246 338 247 334 251 330 C 254 326 259 323 265 322 L 313 312 C 364 301 401 281 425 253 C 449 225 461 191 461 151 C 461 101 442 61 406 30 C 369 0 314 -16 240 -16 Z M 200 532 L 71 532 L 165 706 L 317 706 L 411 532 L 274 532 L 237 604 L 200 532 Z" unicode="ŝ" />
<glyph horiz-adv-x="573" d="M 263 -12 C 231 -12 196 -8 159 -1 C 121 6 85 16 50 30 L 50 213 C 82 197 116 185 151 177 C 186 169 219 165 250 165 C 266 165 280 167 290 173 C 300 178 305 186 305 197 C 305 206 300 214 291 222 C 282 230 269 236 253 240 L 219 248 C 159 262 114 286 84 322 C 54 357 40 399 40 449 C 40 516 63 570 111 610 C 159 650 223 670 305 670 C 337 670 371 667 406 662 C 441 656 473 649 501 639 L 501 459 C 475 470 446 479 414 486 C 382 492 352 496 324 496 C 308 496 295 493 286 489 C 276 484 272 476 272 466 C 272 457 276 449 285 441 C 293 433 306 428 323 424 L 357 416 C 417 401 462 375 490 339 C 518 302 533 260 533 212 C 533 137 508 81 460 44 C 411 6 345 -12 263 -12 Z M 305 -242 C 290 -242 277 -241 266 -239 C 255 -237 244 -235 233 -232 L 233 -148 C 241 -152 250 -155 258 -158 C 266 -161 274 -163 282 -163 C 290 -163 297 -160 302 -156 C 306 -151 309 -145 309 -139 C 309 -132 306 -126 301 -122 C 296 -118 289 -116 281 -116 L 274 -116 L 274 -46 L 285 -46 C 322 -46 353 -54 377 -70 C 401 -86 413 -111 413 -144 C 413 -176 403 -201 383 -217 C 363 -233 337 -242 305 -242 Z" unicode="Ş" />
<glyph horiz-adv-x="485" d="M 240 -16 C 205 -16 171 -14 137 -10 C 103 -6 69 0 35 8 L 35 164 C 63 150 92 139 120 132 C 148 124 178 121 208 121 C 216 121 223 122 229 126 C 235 129 238 134 238 141 C 238 146 235 150 231 154 C 226 158 219 161 211 163 L 163 174 C 115 184 79 203 57 230 C 35 256 24 289 24 329 C 24 379 41 419 76 449 C 111 479 164 494 236 494 C 269 494 302 492 334 488 C 366 484 398 479 431 471 L 431 325 C 403 338 377 348 353 354 C 329 360 304 363 278 363 C 268 363 260 361 254 358 C 248 354 246 349 246 343 C 246 338 247 334 251 330 C 254 326 259 323 265 322 L 313 312 C 364 301 401 281 425 253 C 449 225 461 191 461 151 C 461 101 442 61 406 30 C 369 0 314 -16 240 -16 Z M 264 -253 C 248 -253 235 -252 223 -250 C 211 -248 199 -246 187 -242 L 187 -153 C 195 -157 204 -161 213 -164 C 222 -166 231 -168 240 -168 C 248 -168 255 -165 261 -161 C 266 -156 269 -150 269 -143 C 269 -136 266 -130 260 -126 C 254 -121 247 -119 239 -119 L 231 -119 L 231 -44 L 243 -44 C 283 -44 315 -53 341 -71 C 366 -89 379 -115 379 -149 C 379 -183 368 -208 347 -226 C 325 -244 298 -253 264 -253 Z" unicode="ş" />
<glyph horiz-adv-x="573" d="M 263 -12 C 231 -12 196 -8 159 -1 C 121 6 85 16 50 30 L 50 213 C 82 197 116 185 151 177 C 186 169 219 165 250 165 C 266 165 280 167 290 173 C 300 178 305 186 305 197 C 305 206 300 214 291 222 C 282 230 269 236 253 240 L 219 248 C 159 262 114 286 84 322 C 54 357 40 399 40 449 C 40 516 63 570 111 610 C 159 650 223 670 305 670 C 337 670 371 667 406 662 C 441 656 473 649 501 639 L 501 459 C 475 470 446 479 414 486 C 382 492 352 496 324 496 C 308 496 295 493 286 489 C 276 484 272 476 272 466 C 272 457 276 449 285 441 C 293 433 306 428 323 424 L 357 416 C 417 401 462 375 490 339 C 518 302 533 260 533 212 C 533 137 508 81 460 44 C 411 6 345 -12 263 -12 Z M 225 714 L 140 871 L 263 871 L 297 805 L 330 871 L 446 871 L 361 714 L 225 714 Z" unicode="Š" />
<glyph horiz-adv-x="485" d="M 240 -16 C 205 -16 171 -14 137 -10 C 103 -6 69 0 35 8 L 35 164 C 63 150 92 139 120 132 C 148 124 178 121 208 121 C 216 121 223 122 229 126 C 235 129 238 134 238 141 C 238 146 235 150 231 154 C 226 158 219 161 211 163 L 163 174 C 115 184 79 203 57 230 C 35 256 24 289 24 329 C 24 379 41 419 76 449 C 111 479 164 494 236 494 C 269 494 302 492 334 488 C 366 484 398 479 431 471 L 431 325 C 403 338 377 348 353 354 C 329 360 304 363 278 363 C 268 363 260 361 254 358 C 248 354 246 349 246 343 C 246 338 247 334 251 330 C 254 326 259 323 265 322 L 313 312 C 364 301 401 281 425 253 C 449 225 461 191 461 151 C 461 101 442 61 406 30 C 369 0 314 -16 240 -16 Z M 161 532 L 67 706 L 204 706 L 241 634 L 278 706 L 407 706 L 313 532 L 161 532 Z" unicode="š" />
<glyph horiz-adv-x="568" d="M 178 0 L 178 470 L 20 470 L 20 658 L 548 658 L 548 470 L 390 470 L 390 0 L 178 0 Z M 308 -234 C 293 -234 280 -233 269 -231 C 258 -229 247 -227 236 -224 L 236 -140 C 244 -144 253 -147 261 -150 C 269 -153 277 -155 285 -155 C 293 -155 300 -152 305 -148 C 309 -143 312 -137 312 -131 C 312 -124 309 -118 304 -114 C 299 -110 292 -108 284 -108 L 277 -108 L 277 -38 L 288 -38 C 325 -38 356 -46 380 -62 C 404 -78 416 -103 416 -136 C 416 -168 406 -193 386 -209 C 366 -225 340 -234 308 -234 Z" unicode="Ţ" />
<glyph horiz-adv-x="397" d="M 239 -12 C 190 -12 151 3 122 33 C 93 63 79 104 79 156 L 79 314 L 24 314 L 24 478 L 79 478 L 79 616 L 283 616 L 283 478 L 365 478 L 365 314 L 283 314 L 283 214 C 283 199 286 187 294 179 C 302 170 312 166 325 166 C 333 166 342 167 350 170 C 358 173 366 177 373 183 L 373 13 C 350 4 328 -2 306 -6 C 284 -10 261 -12 239 -12 Z M 262 -257 C 246 -257 233 -256 221 -254 C 209 -252 197 -250 185 -246 L 185 -157 C 193 -161 202 -165 211 -168 C 220 -170 229 -172 238 -172 C 246 -172 253 -169 259 -165 C 264 -160 267 -154 267 -147 C 267 -140 264 -134 258 -130 C 252 -125 245 -123 237 -123 L 229 -123 L 229 -48 L 241 -48 C 281 -48 313 -57 339 -75 C 364 -93 377 -119 377 -153 C 377 -187 366 -212 345 -230 C 323 -248 296 -257 262 -257 Z" unicode="ţ" />
<glyph horiz-adv-x="568" d="M 178 0 L 178 470 L 20 470 L 20 658 L 548 658 L 548 470 L 390 470 L 390 0 L 178 0 Z M 213 706 L 128 863 L 251 863 L 285 797 L 318 863 L 434 863 L 349 706 L 213 706 Z" unicode="Ť" />
<glyph horiz-adv-x="558" d="M 239 -12 C 190 -12 151 3 122 33 C 93 63 79 104 79 156 L 79 314 L 24 314 L 24 478 L 79 478 L 79 616 L 283 616 L 283 478 L 365 478 L 365 314 L 283 314 L 283 214 C 283 199 286 187 294 179 C 302 170 312 166 325 166 C 333 166 342 167 350 170 C 358 173 366 177 373 183 L 373 13 C 350 4 328 -2 306 -6 C 284 -10 261 -12 239 -12 Z M 436 504 L 325 532 C 337 555 346 577 351 598 C 355 619 358 642 358 667 L 358 715 L 502 715 L 502 668 C 502 630 497 598 487 572 C 477 546 460 524 436 504 Z" unicode="ť" />
<glyph horiz-adv-x="568" d="M 78 238 L 78 353 L 483 353 L 483 238 L 78 238 Z M 178 0 L 178 470 L 20 470 L 20 658 L 548 658 L 548 470 L 390 470 L 390 0 L 178 0 Z" unicode="Ŧ" />
<glyph horiz-adv-x="397" d="M 42 216 L 42 282 L 351 282 L 351 216 L 42 216 Z M 239 -12 C 190 -12 151 3 122 33 C 93 63 79 104 79 156 L 79 314 L 24 314 L 24 478 L 79 478 L 79 616 L 283 616 L 283 478 L 365 478 L 365 314 L 283 314 L 283 214 C 283 199 286 187 294 179 C 302 170 312 166 325 166 C 333 166 342 167 350 170 C 358 173 366 177 373 183 L 373 13 C 350 4 328 -2 306 -6 C 284 -10 261 -12 239 -12 Z" unicode="ŧ" />
<glyph horiz-adv-x="713" d="M 361 -12 C 271 -12 198 13 141 65 C 84 116 56 183 56 267 L 56 658 L 280 658 L 280 283 C 280 257 287 235 303 218 C 318 200 339 192 366 192 C 392 192 413 200 429 218 C 445 235 453 257 453 283 L 453 658 L 657 658 L 657 267 C 657 183 629 116 574 65 C 518 13 447 -12 361 -12 Z M 304 706 L 212 706 C 212 752 221 786 239 810 C 257 834 284 846 320 846 C 334 846 346 844 357 840 C 367 836 378 830 389 822 C 393 818 397 815 400 814 C 403 812 406 812 410 812 C 416 812 420 814 424 819 C 427 824 429 831 430 841 L 522 841 C 522 795 513 760 495 736 C 477 712 450 701 414 701 C 401 701 389 703 379 707 C 369 711 357 717 345 726 C 340 729 336 731 333 733 C 329 734 326 735 324 735 C 317 735 312 732 309 727 C 305 722 304 715 304 706 Z" unicode="Ũ" />
<glyph horiz-adv-x="559" d="M 193 -12 C 146 -12 108 2 79 31 C 50 59 36 98 36 146 L 36 478 L 240 478 L 240 196 C 240 184 243 174 251 168 C 259 161 268 158 279 158 C 286 158 293 159 300 162 C 306 164 311 169 315 175 L 315 478 L 519 478 L 519 0 L 323 0 L 315 60 C 303 38 285 20 262 7 C 238 -5 215 -12 193 -12 Z M 208 524 L 106 524 C 106 574 116 613 136 639 C 156 665 186 679 226 679 C 241 679 254 676 266 672 C 278 668 290 661 302 652 C 307 647 311 644 315 643 C 318 641 322 641 326 641 C 332 641 337 643 341 649 C 345 654 347 662 348 673 L 450 673 C 450 622 440 583 420 557 C 400 531 370 518 330 518 C 316 518 303 520 291 524 C 279 528 267 536 254 546 C 248 550 244 552 240 554 C 236 555 233 556 230 556 C 222 556 217 553 213 548 C 209 542 208 534 208 524 Z" unicode="ũ" />
<glyph horiz-adv-x="713" d="M 361 -12 C 271 -12 198 13 141 65 C 84 116 56 183 56 267 L 56 658 L 280 658 L 280 283 C 280 257 287 235 303 218 C 318 200 339 192 366 192 C 392 192 413 200 429 218 C 445 235 453 257 453 283 L 453 658 L 657 658 L 657 267 C 657 183 629 116 574 65 C 518 13 447 -12 361 -12 Z M 256 706 L 256 810 L 482 810 L 482 706 L 256 706 Z" unicode="Ū" />
<glyph horiz-adv-x="559" d="M 193 -12 C 146 -12 108 2 79 31 C 50 59 36 98 36 146 L 36 478 L 240 478 L 240 196 C 240 184 243 174 251 168 C 259 161 268 158 279 158 C 286 158 293 159 300 162 C 306 164 311 169 315 175 L 315 478 L 519 478 L 519 0 L 323 0 L 315 60 C 303 38 285 20 262 7 C 238 -5 215 -12 193 -12 Z M 154 532 L 154 647 L 404 647 L 404 532 L 154 532 Z" unicode="ū" />
<glyph horiz-adv-x="713" d="M 361 -12 C 271 -12 198 13 141 65 C 84 116 56 183 56 267 L 56 658 L 280 658 L 280 283 C 280 257 287 235 303 218 C 318 200 339 192 366 192 C 392 192 413 200 429 218 C 445 235 453 257 453 283 L 453 658 L 657 658 L 657 267 C 657 183 629 116 574 65 C 518 13 447 -12 361 -12 Z M 367 706 C 327 706 295 718 271 744 C 247 770 236 804 236 848 L 329 848 C 329 835 332 825 339 817 C 346 809 355 806 367 806 C 378 806 387 809 394 817 C 401 825 405 835 405 848 L 498 848 C 498 804 486 770 462 744 C 438 718 407 706 367 706 Z" unicode="Ŭ" />
<glyph horiz-adv-x="559" d="M 193 -12 C 146 -12 108 2 79 31 C 50 59 36 98 36 146 L 36 478 L 240 478 L 240 196 C 240 184 243 174 251 168 C 259 161 268 158 279 158 C 286 158 293 159 300 162 C 306 164 311 169 315 175 L 315 478 L 519 478 L 519 0 L 323 0 L 315 60 C 303 38 285 20 262 7 C 238 -5 215 -12 193 -12 Z M 279 524 C 235 524 199 538 173 567 C 147 595 134 634 134 682 L 237 682 C 237 667 240 655 248 647 C 256 639 266 635 279 635 C 291 635 301 639 309 647 C 317 655 321 667 321 682 L 424 682 C 424 634 410 595 384 567 C 358 538 323 524 279 524 Z" unicode="ŭ" />
<glyph horiz-adv-x="713" d="M 361 -12 C 271 -12 198 13 141 65 C 84 116 56 183 56 267 L 56 658 L 280 658 L 280 283 C 280 257 287 235 303 218 C 318 200 339 192 366 192 C 392 192 413 200 429 218 C 445 235 453 257 453 283 L 453 658 L 657 658 L 657 267 C 657 183 629 116 574 65 C 518 13 447 -12 361 -12 Z M 366 572 C 326 572 295 584 271 609 C 247 633 236 664 236 700 C 236 735 247 765 271 789 C 295 813 326 826 366 826 C 405 826 436 813 460 789 C 484 765 496 735 496 700 C 496 664 484 633 460 609 C 436 584 405 572 366 572 Z M 366 658 C 377 658 387 661 395 669 C 403 676 407 686 407 699 C 407 711 403 721 395 728 C 387 735 377 739 366 739 C 354 739 345 735 337 728 C 329 721 325 711 325 699 C 325 686 329 676 337 669 C 345 661 354 658 366 658 Z" unicode="Ů" />
<glyph horiz-adv-x="559" d="M 193 -12 C 146 -12 108 2 79 31 C 50 59 36 98 36 146 L 36 478 L 240 478 L 240 196 C 240 184 243 174 251 168 C 259 161 268 158 279 158 C 286 158 293 159 300 162 C 306 164 311 169 315 175 L 315 478 L 519 478 L 519 0 L 323 0 L 315 60 C 303 38 285 20 262 7 C 238 -5 215 -12 193 -12 Z M 278 454 C 234 454 199 467 173 495 C 147 522 134 556 134 596 C 134 635 147 668 173 695 C 199 722 234 736 278 736 C 322 736 357 722 383 695 C 409 668 422 635 422 596 C 422 556 409 522 383 495 C 357 467 322 454 278 454 Z M 278 550 C 290 550 301 553 310 561 C 319 569 324 580 324 595 C 324 609 319 620 310 628 C 301 636 290 640 278 640 C 265 640 254 636 245 628 C 236 620 232 609 232 595 C 232 580 236 569 245 561 C 254 553 265 550 278 550 Z" unicode="ů" />
<glyph horiz-adv-x="713" d="M 361 -12 C 271 -12 198 13 141 65 C 84 116 56 183 56 267 L 56 658 L 280 658 L 280 283 C 280 257 287 235 303 218 C 318 200 339 192 366 192 C 392 192 413 200 429 218 C 445 235 453 257 453 283 L 453 658 L 657 658 L 657 267 C 657 183 629 116 574 65 C 518 13 447 -12 361 -12 Z M 220 706 L 308 848 L 435 848 L 339 706 L 220 706 Z M 392 706 L 488 848 L 615 848 L 511 706 L 392 706 Z" unicode="Ű" />
<glyph horiz-adv-x="559" d="M 193 -12 C 146 -12 108 2 79 31 C 50 59 36 98 36 146 L 36 478 L 240 478 L 240 196 C 240 184 243 174 251 168 C 259 161 268 158 279 158 C 286 158 293 159 300 162 C 306 164 311 169 315 175 L 315 478 L 519 478 L 519 0 L 323 0 L 315 60 C 303 38 285 20 262 7 C 238 -5 215 -12 193 -12 Z M 114 532 L 212 690 L 353 690 L 246 532 L 114 532 Z M 305 532 L 412 690 L 553 690 L 437 532 L 305 532 Z" unicode="ű" />
<glyph horiz-adv-x="713" d="M 512 -220 C 449 -220 400 -207 366 -181 C 331 -155 314 -121 314 -81 C 314 -68 315 -56 319 -44 C 323 -32 328 -21 335 -11 C 252 -6 185 21 133 72 C 81 122 56 187 56 267 L 56 658 L 280 658 L 280 283 C 280 257 287 235 303 218 C 318 200 339 192 366 192 C 392 192 413 200 429 218 C 445 235 453 257 453 283 L 453 658 L 657 658 L 657 267 C 657 205 641 152 611 108 C 580 64 540 31 492 11 C 475 4 463 -3 457 -13 C 450 -23 447 -34 447 -46 C 447 -61 452 -74 463 -85 C 474 -96 490 -102 512 -102 L 512 -220 Z" unicode="Ų" />
<glyph horiz-adv-x="559" d="M 193 -12 C 146 -12 108 2 79 31 C 50 59 36 98 36 146 L 36 478 L 240 478 L 240 196 C 240 184 243 174 251 168 C 259 161 268 158 279 158 C 286 158 293 159 300 162 C 306 164 311 169 315 175 L 315 478 L 519 478 L 519 0 L 323 0 L 315 60 C 303 38 285 20 262 7 C 238 -5 215 -12 193 -12 Z M 476 -220 C 417 -220 371 -207 339 -183 C 306 -158 290 -127 290 -89 C 290 -52 305 -21 335 5 C 365 31 407 50 461 63 L 476 0 C 456 0 440 -5 430 -15 C 420 -25 415 -38 415 -53 C 415 -67 420 -78 430 -88 C 440 -97 456 -102 476 -102 L 476 -220 Z" unicode="ų" />
<glyph horiz-adv-x="1098" d="M 205 0 L 12 658 L 236 658 L 316 364 L 342 245 L 370 364 L 450 658 L 664 658 L 743 364 L 771 250 L 799 364 L 878 658 L 1086 658 L 887 0 L 645 0 L 576 238 L 545 377 L 512 238 L 444 0 L 205 0 Z M 514 706 L 398 706 L 483 862 L 619 862 L 704 706 L 581 706 L 547 771 L 514 706 Z" unicode="Ŵ" />
<glyph horiz-adv-x="907" d="M 156 0 L 12 478 L 220 478 L 260 320 L 287 197 L 316 320 L 360 478 L 546 478 L 594 320 L 630 196 L 665 320 L 714 478 L 895 478 L 732 0 L 511 0 L 477 116 L 443 241 L 410 116 L 377 0 L 156 0 Z M 415 524 L 286 524 L 380 698 L 532 698 L 626 524 L 489 524 L 452 596 L 415 524 Z" unicode="ŵ" />
<glyph horiz-adv-x="705" d="M 250 0 L 250 213 L 12 658 L 258 658 L 336 485 L 367 413 L 398 485 L 476 658 L 693 658 L 462 220 L 462 0 L 250 0 Z M 330 706 L 214 706 L 299 862 L 435 862 L 520 706 L 397 706 L 363 771 L 330 706 Z" unicode="Ŷ" />
<glyph horiz-adv-x="573" d="M 51 -220 L 43 -220 L 43 -45 L 51 -45 C 95 -45 127 -42 148 -36 C 169 -30 187 -17 203 1 L 165 4 L 12 478 L 231 478 L 269 320 L 301 169 L 334 320 L 372 478 L 561 478 L 439 75 C 405 -36 356 -113 293 -156 C 230 -198 149 -220 51 -220 Z M 256 524 L 127 524 L 221 698 L 373 698 L 467 524 L 330 524 L 293 596 L 256 524 Z" unicode="ŷ" />
<glyph horiz-adv-x="705" d="M 250 0 L 250 213 L 12 658 L 258 658 L 336 485 L 367 413 L 398 485 L 476 658 L 693 658 L 462 220 L 462 0 L 250 0 Z M 218 706 L 218 832 L 344 832 L 344 706 L 218 706 Z M 390 706 L 390 832 L 516 832 L 516 706 L 390 706 Z" unicode="Ÿ" />
<glyph horiz-adv-x="675" d="M 52 0 L 52 120 L 263 403 L 317 470 L 56 470 L 56 658 L 623 658 L 623 538 L 414 255 L 360 188 L 622 188 L 622 0 L 52 0 Z M 415 706 L 274 706 L 366 848 L 529 848 L 415 706 Z" unicode="Ź" />
<glyph horiz-adv-x="521" d="M 32 0 L 32 97 L 149 251 L 199 312 L 36 312 L 36 478 L 480 478 L 480 381 L 363 227 L 313 166 L 489 166 L 489 0 L 32 0 Z M 346 524 L 190 524 L 292 682 L 473 682 L 346 524 Z" unicode="ź" />
<glyph horiz-adv-x="675" d="M 52 0 L 52 120 L 263 403 L 317 470 L 56 470 L 56 658 L 623 658 L 623 538 L 414 255 L 360 188 L 622 188 L 622 0 L 52 0 Z M 282 706 L 282 832 L 408 832 L 408 706 L 282 706 Z" unicode="Ż" />
<glyph horiz-adv-x="521" d="M 32 0 L 32 97 L 149 251 L 199 312 L 36 312 L 36 478 L 480 478 L 480 381 L 363 227 L 313 166 L 489 166 L 489 0 L 32 0 Z M 198 524 L 198 664 L 338 664 L 338 524 L 198 524 Z" unicode="ż" />
<glyph horiz-adv-x="675" d="M 52 0 L 52 120 L 263 403 L 317 470 L 56 470 L 56 658 L 623 658 L 623 538 L 414 255 L 360 188 L 622 188 L 622 0 L 52 0 Z M 275 706 L 190 863 L 313 863 L 347 797 L 380 863 L 496 863 L 411 706 L 275 706 Z" unicode="Ž" />
<glyph horiz-adv-x="521" d="M 32 0 L 32 97 L 149 251 L 199 312 L 36 312 L 36 478 L 480 478 L 480 381 L 363 227 L 313 166 L 489 166 L 489 0 L 32 0 Z M 192 524 L 98 698 L 235 698 L 272 626 L 309 698 L 438 698 L 344 524 L 192 524 Z" unicode="ž" />
<glyph horiz-adv-x="566" d="M 137 -220 C 119 -220 102 -218 85 -216 C 67 -213 50 -209 32 -205 L 32 -33 C 42 -36 53 -38 64 -40 C 75 -42 86 -43 98 -43 C 110 -43 121 -39 129 -32 C 137 -24 143 -14 145 -2 L 189 309 L 124 309 L 124 473 L 212 473 L 222 547 C 230 607 253 653 290 683 C 326 713 373 728 429 728 C 446 728 463 726 481 724 C 498 721 516 717 534 713 L 534 541 C 523 544 512 546 501 548 C 490 550 479 551 468 551 C 454 551 443 547 435 540 C 427 532 423 522 421 510 L 416 473 L 494 473 L 494 309 L 393 309 L 344 -39 C 336 -94 313 -138 276 -171 C 239 -203 193 -220 137 -220 Z" unicode="ƒ" />
<glyph horiz-adv-x="710" d="M 397 -12 C 291 -12 205 18 139 80 C 73 142 40 223 40 324 C 40 431 74 515 142 577 C 210 639 297 670 404 670 C 440 670 477 667 513 662 C 549 657 586 650 623 640 L 623 447 C 589 458 555 467 522 473 C 488 479 454 482 418 482 C 374 482 336 468 306 441 C 275 414 260 377 260 331 C 260 281 273 242 300 213 C 326 183 361 169 403 169 C 413 169 424 169 435 170 C 446 171 457 173 468 177 L 468 249 L 379 249 L 379 399 L 670 399 L 670 28 C 630 14 587 4 542 -2 C 497 -8 449 -12 397 -12 Z M 327 718 L 242 875 L 365 875 L 399 809 L 432 875 L 548 875 L 463 718 L 327 718 Z" unicode="Ǧ" />
<glyph horiz-adv-x="564" d="M 273 -220 C 233 -220 196 -216 160 -210 C 124 -204 90 -194 56 -182 L 56 -23 C 78 -39 103 -52 130 -60 C 157 -68 183 -72 207 -72 C 221 -72 244 -68 274 -60 C 304 -52 320 -29 320 11 L 320 47 C 307 27 291 12 271 2 C 251 -7 231 -12 210 -12 C 151 -12 105 9 73 52 C 40 95 24 153 24 226 C 24 316 48 384 98 428 C 147 472 203 494 265 494 C 293 494 320 487 346 473 C 371 459 390 440 403 418 L 441 478 L 524 478 L 524 27 C 524 -63 497 -127 444 -164 C 390 -201 333 -220 273 -220 Z M 282 156 C 288 156 295 157 301 159 C 307 161 313 163 318 167 L 318 306 C 312 308 307 310 301 312 C 295 313 290 314 284 314 C 268 314 256 306 247 292 C 238 278 234 259 234 236 C 234 211 238 191 247 177 C 255 163 267 156 282 156 Z M 191 534 L 97 708 L 234 708 L 271 636 L 308 708 L 437 708 L 343 534 L 191 534 Z" unicode="ǧ" />
<glyph horiz-adv-x="756" d="M 12 0 L 275 658 L 482 658 L 744 0 L 515 0 L 479 96 L 246 96 L 210 0 L 12 0 Z M 320 294 L 297 232 L 428 232 L 405 294 L 363 418 L 320 294 Z M 318 832 L 376 926 L 496 926 L 434 832 L 318 832 Z M 379 572 C 342 572 313 583 291 607 C 269 630 259 658 259 691 C 259 723 269 751 291 775 C 313 799 342 811 379 811 C 415 811 444 799 466 775 C 488 751 499 723 499 691 C 499 658 488 630 466 607 C 444 583 415 572 379 572 Z M 379 658 C 387 658 395 660 402 666 C 408 672 412 680 412 691 C 412 701 408 710 402 716 C 395 722 387 725 379 725 C 370 725 362 722 356 716 C 349 710 346 701 346 691 C 346 680 349 672 356 666 C 362 660 370 658 379 658 Z" unicode="Ǻ" />
<glyph horiz-adv-x="535" d="M 171 -12 C 128 -12 93 1 65 28 C 37 54 24 86 24 124 C 24 174 41 210 75 234 C 109 258 156 275 216 285 L 295 298 L 295 312 C 295 326 287 337 273 344 C 258 351 236 355 206 355 C 178 355 152 351 127 344 C 101 336 76 325 52 311 L 52 460 C 84 470 116 478 148 484 C 180 490 217 493 259 493 C 331 493 389 478 433 448 C 477 418 499 376 499 324 L 499 0 L 306 0 L 296 55 C 282 32 265 15 245 4 C 225 -6 200 -12 171 -12 Z M 263 127 C 269 127 275 128 281 132 C 287 135 292 139 295 145 L 295 209 L 262 204 C 253 202 245 198 239 191 C 232 184 229 175 229 163 C 229 152 232 143 239 137 C 245 130 253 127 263 127 Z M 201 688 L 266 792 L 399 792 L 330 688 L 201 688 Z M 269 399 C 228 399 196 412 172 438 C 148 464 136 495 136 531 C 136 567 148 598 172 624 C 196 650 228 664 269 664 C 309 664 342 650 366 624 C 390 598 402 567 402 531 C 402 495 390 464 366 438 C 342 412 309 399 269 399 Z M 269 494 C 279 494 287 497 295 504 C 302 510 306 519 306 531 C 306 542 302 551 295 558 C 287 565 279 569 269 569 C 259 569 250 565 243 558 C 235 551 232 542 232 531 C 232 519 235 510 243 504 C 250 497 259 494 269 494 Z" unicode="ǻ" />
<glyph horiz-adv-x="961" d="M 12 0 L 369 658 L 906 658 L 906 470 L 693 470 L 693 410 L 889 410 L 889 248 L 693 248 L 693 188 L 917 188 L 917 0 L 481 0 L 481 126 L 293 126 L 225 0 L 12 0 Z M 424 368 L 376 279 L 481 279 L 481 477 L 424 368 Z M 694 706 L 553 706 L 645 848 L 808 848 L 694 706 Z" unicode="Ǽ" />
<glyph horiz-adv-x="799" d="M 177 -12 C 131 -12 94 1 66 28 C 38 54 24 86 24 124 C 24 174 41 210 75 234 C 109 258 156 275 216 285 L 295 298 L 295 304 C 295 318 287 329 273 336 C 258 343 236 347 206 347 C 177 347 150 343 126 336 C 101 328 76 317 52 303 L 52 452 C 84 462 116 470 148 476 C 180 482 217 485 259 485 C 289 485 316 482 342 477 C 368 471 390 464 410 454 C 428 464 449 471 473 477 C 496 482 521 485 548 485 C 624 485 681 460 719 411 C 756 362 775 296 775 212 L 775 198 L 499 198 C 501 177 512 162 532 153 C 551 144 579 140 615 140 C 639 140 664 143 690 149 C 715 155 739 164 763 177 L 763 24 C 727 12 691 3 656 -3 C 621 -9 588 -12 558 -12 C 511 -12 469 -4 433 12 C 397 28 367 50 345 79 C 325 48 301 25 274 10 C 247 -4 215 -12 177 -12 Z M 540 373 C 526 373 515 366 509 354 C 502 342 498 322 498 295 L 579 295 C 579 323 576 343 570 355 C 564 367 554 373 540 373 Z M 263 134 C 269 134 275 135 281 139 C 287 142 292 146 295 152 L 295 209 L 262 204 C 253 202 245 198 239 192 C 232 186 229 177 229 167 C 229 157 232 149 239 143 C 245 137 253 134 263 134 Z M 475 524 L 319 524 L 421 682 L 602 682 L 475 524 Z" unicode="ǽ" />
<glyph horiz-adv-x="799" d="M 448 550 L 544 706 L 722 706 L 584 481 L 448 550 Z M 80 -48 L 206 156 L 340 86 L 258 -48 L 80 -48 Z M 400 -18 C 290 -18 202 13 137 76 C 72 138 40 223 40 329 C 40 435 72 520 137 582 C 202 644 290 676 400 676 C 509 676 596 644 661 582 C 726 520 759 435 759 329 C 759 223 726 138 661 76 C 596 13 509 -18 400 -18 Z M 400 167 C 442 167 475 181 501 210 C 526 239 539 279 539 329 C 539 379 526 418 501 447 C 475 476 442 491 400 491 C 357 491 323 476 298 447 C 272 418 260 379 260 329 C 260 279 272 239 298 210 C 323 181 357 167 400 167 Z M 473 714 L 332 714 L 424 856 L 587 856 L 473 714 Z" unicode="Ǿ" />
<glyph horiz-adv-x="568" d="M 309 397 L 387 526 L 530 526 L 412 333 L 309 397 Z M 40 -48 L 159 147 L 257 74 L 183 -48 L 40 -48 Z M 284 -16 C 204 -16 141 7 94 54 C 47 100 24 163 24 242 C 24 318 47 379 94 425 C 141 471 204 494 284 494 C 363 494 426 471 473 426 C 520 380 544 320 544 244 C 544 164 520 101 473 54 C 426 7 363 -16 284 -16 Z M 284 157 C 298 157 310 164 320 178 C 329 192 334 212 334 240 C 334 266 329 286 320 300 C 310 314 298 321 284 321 C 269 321 257 314 248 300 C 238 286 234 266 234 240 C 234 212 238 192 248 178 C 257 164 269 157 284 157 Z M 336 533 L 180 533 L 282 691 L 463 691 L 336 533 Z" unicode="ǿ" />
<glyph horiz-adv-x="573" d="M 263 -12 C 231 -12 196 -8 159 -1 C 121 6 85 16 50 30 L 50 213 C 82 197 116 185 151 177 C 186 169 219 165 250 165 C 266 165 280 167 290 173 C 300 178 305 186 305 197 C 305 206 300 214 291 222 C 282 230 269 236 253 240 L 219 248 C 159 262 114 286 84 322 C 54 357 40 399 40 449 C 40 516 63 570 111 610 C 159 650 223 670 305 670 C 337 670 371 667 406 662 C 441 656 473 649 501 639 L 501 459 C 475 470 446 479 414 486 C 382 492 352 496 324 496 C 308 496 295 493 286 489 C 276 484 272 476 272 466 C 272 457 276 449 285 441 C 293 433 306 428 323 424 L 357 416 C 417 401 462 375 490 339 C 518 302 533 260 533 212 C 533 137 508 81 460 44 C 411 6 345 -12 263 -12 Z M 289 -246 L 189 -221 C 199 -200 207 -180 211 -161 C 215 -142 218 -121 218 -99 L 218 -56 L 348 -56 L 348 -98 C 348 -132 343 -160 334 -184 C 325 -207 310 -228 289 -246 Z" unicode="Ș" />
<glyph horiz-adv-x="485" d="M 240 -16 C 205 -16 171 -14 137 -10 C 103 -6 69 0 35 8 L 35 164 C 63 150 92 139 120 132 C 148 124 178 121 208 121 C 216 121 223 122 229 126 C 235 129 238 134 238 141 C 238 146 235 150 231 154 C 226 158 219 161 211 163 L 163 174 C 115 184 79 203 57 230 C 35 256 24 289 24 329 C 24 379 41 419 76 449 C 111 479 164 494 236 494 C 269 494 302 492 334 488 C 366 484 398 479 431 471 L 431 325 C 403 338 377 348 353 354 C 329 360 304 363 278 363 C 268 363 260 361 254 358 C 248 354 246 349 246 343 C 246 338 247 334 251 330 C 254 326 259 323 265 322 L 313 312 C 364 301 401 281 425 253 C 449 225 461 191 461 151 C 461 101 442 61 406 30 C 369 0 314 -16 240 -16 Z M 250 -255 L 139 -227 C 151 -203 160 -181 165 -160 C 169 -139 172 -116 172 -92 L 172 -44 L 316 -44 L 316 -91 C 316 -129 311 -160 301 -186 C 291 -212 274 -235 250 -255 Z" unicode="ș" />
<glyph horiz-adv-x="568" d="M 178 0 L 178 470 L 20 470 L 20 658 L 548 658 L 548 470 L 390 470 L 390 0 L 178 0 Z M 292 -238 L 192 -213 C 202 -192 210 -172 214 -153 C 218 -134 221 -113 221 -91 L 221 -48 L 351 -48 L 351 -90 C 351 -124 346 -152 337 -176 C 328 -199 313 -220 292 -238 Z" unicode="Ț" />
<glyph horiz-adv-x="397" d="M 239 -12 C 190 -12 151 3 122 33 C 93 63 79 104 79 156 L 79 314 L 24 314 L 24 478 L 79 478 L 79 616 L 283 616 L 283 478 L 365 478 L 365 314 L 283 314 L 283 214 C 283 199 286 187 294 179 C 302 170 312 166 325 166 C 333 166 342 167 350 170 C 358 173 366 177 373 183 L 373 13 C 350 4 328 -2 306 -6 C 284 -10 261 -12 239 -12 Z M 248 -259 L 137 -231 C 149 -207 158 -185 163 -164 C 167 -143 170 -120 170 -96 L 170 -48 L 314 -48 L 314 -95 C 314 -133 309 -164 299 -190 C 289 -216 272 -239 248 -259 Z" unicode="ț" />
<glyph horiz-adv-x="282" d="M -56 -220 L -64 -220 L -64 -56 L -56 -56 C -28 -56 -5 -46 12 -27 C 29 -7 38 17 38 48 L 38 478 L 242 478 L 242 47 C 242 -32 214 -96 160 -146 C 105 -195 33 -220 -56 -220 Z" unicode="ȷ" />
<glyph horiz-adv-x="531" d="M 251 -16 C 174 -16 117 9 80 59 C 42 109 24 177 24 263 L 24 278 L 300 278 C 297 298 286 313 267 323 C 247 332 220 337 184 337 C 159 337 134 333 109 327 C 83 321 59 311 36 299 L 36 456 C 72 468 107 478 142 484 C 177 490 210 493 241 493 C 325 493 390 470 437 424 C 483 378 507 316 507 238 C 507 160 484 99 439 53 C 394 7 331 -16 251 -16 Z M 259 103 C 273 103 283 109 290 122 C 296 135 300 156 301 186 L 220 186 C 220 155 223 133 229 121 C 235 109 245 103 259 103 Z" unicode="ə" />
<glyph horiz-adv-x="248" d="M 85 524 L -44 524 L 50 698 L 202 698 L 296 524 L 159 524 L 122 596 L 85 524 Z" unicode="ˆ" />
<glyph horiz-adv-x="248" d="M 46 524 L -48 698 L 89 698 L 126 626 L 163 698 L 292 698 L 198 524 L 46 524 Z" unicode="ˇ" />
<glyph horiz-adv-x="250" d="M 125 524 C 81 524 45 538 19 567 C -6 595 -20 634 -20 682 L 83 682 C 83 667 86 655 94 647 C 102 639 112 635 125 635 C 137 635 147 639 155 647 C 163 655 167 667 167 682 L 270 682 C 270 634 256 595 230 567 C 204 538 169 524 125 524 Z" unicode="˘" />
<glyph horiz-adv-x="248" d="M 52 524 L 52 664 L 192 664 L 192 524 L 52 524 Z" unicode="˙" />
<glyph horiz-adv-x="248" d="M 124 454 C 80 454 45 467 19 495 C -7 522 -20 556 -20 596 C -20 635 -7 668 19 695 C 45 722 80 736 124 736 C 168 736 203 722 229 695 C 255 668 268 635 268 596 C 268 556 255 522 229 495 C 203 467 168 454 124 454 Z M 124 550 C 136 550 147 553 156 561 C 165 569 170 580 170 595 C 170 609 165 620 156 628 C 147 636 136 640 124 640 C 111 640 100 636 91 628 C 82 620 78 609 78 595 C 78 580 82 569 91 561 C 100 553 111 550 124 550 Z" unicode="˚" />
<glyph horiz-adv-x="242" d="M 190 -220 C 131 -220 85 -207 53 -183 C 20 -158 4 -127 4 -89 C 4 -52 19 -21 49 5 C 79 31 121 50 175 63 L 190 0 C 170 0 154 -5 144 -15 C 134 -25 129 -38 129 -53 C 129 -67 134 -78 144 -88 C 154 -97 170 -102 190 -102 L 190 -220 Z" unicode="˛" />
<glyph horiz-adv-x="256" d="M 58 524 L -44 524 C -44 574 -34 613 -14 639 C 6 665 36 679 76 679 C 91 679 104 676 116 672 C 128 668 140 661 152 652 C 157 647 161 644 165 643 C 168 641 172 641 176 641 C 182 641 187 643 191 649 C 195 654 197 662 198 673 L 300 673 C 300 622 290 583 270 557 C 250 531 220 518 180 518 C 166 518 153 520 141 524 C 129 528 117 536 104 546 C 98 550 94 552 90 554 C 86 555 83 556 80 556 C 72 556 67 553 63 548 C 59 542 58 534 58 524 Z" unicode="˜" />
<glyph horiz-adv-x="247" d="M -40 532 L 58 690 L 199 690 L 92 532 L -40 532 Z M 151 532 L 258 690 L 399 690 L 283 532 L 151 532 Z" unicode="˝" />
<glyph horiz-adv-x="0" d="M -77 524 L -204 682 L -23 682 L 79 524 L -77 524 Z" unicode="̀" />
<glyph horiz-adv-x="0" d="M 76 524 L -80 524 L 22 682 L 203 682 L 76 524 Z" unicode="́" />
<glyph horiz-adv-x="0" d="M -39 524 L -168 524 L -74 698 L 78 698 L 172 524 L 35 524 L -2 596 L -39 524 Z" unicode="̂" />
<glyph horiz-adv-x="0" d="M -64 706 L -156 706 C -156 752 -147 786 -129 810 C -111 834 -84 846 -48 846 C -34 846 -21 844 -11 840 C 0 836 10 830 21 822 C 25 818 29 815 32 814 C 35 812 38 812 42 812 C 48 812 52 814 56 819 C 59 824 61 831 62 841 L 154 841 C 154 795 145 760 127 736 C 109 712 82 701 46 701 C 33 701 21 703 11 707 C 1 711 -10 717 -23 726 C -27 729 -31 731 -35 733 C -38 734 -41 735 -44 735 C -50 735 -55 732 -59 727 C -62 722 -64 715 -64 706 Z" unicode="̃" />
<glyph horiz-adv-x="0" d="M -124 532 L -124 647 L 126 647 L 126 532 L -124 532 Z" unicode="̄" />
<glyph horiz-adv-x="0" d="M 1 524 C -43 524 -78 538 -104 567 C -130 595 -144 634 -144 682 L -41 682 C -41 667 -37 655 -29 647 C -21 639 -11 635 1 635 C 13 635 23 639 31 647 C 39 655 43 667 43 682 L 146 682 C 146 634 132 595 106 567 C 80 538 45 524 1 524 Z" unicode="̆" />
<glyph horiz-adv-x="0" d="M -64 706 L -64 832 L 62 832 L 62 706 L -64 706 Z" unicode="̇" />
<glyph horiz-adv-x="0" d="M -164 524 L -164 664 L -24 664 L -24 524 L -164 524 Z M 26 524 L 26 664 L 166 664 L 166 524 L 26 524 Z" unicode="̈" />
<glyph horiz-adv-x="0" d="M -2 572 C -41 572 -72 584 -96 609 C -120 633 -132 664 -132 700 C -132 735 -120 765 -96 789 C -72 813 -41 826 -2 826 C 37 826 68 813 92 789 C 116 765 128 735 128 700 C 128 664 116 633 92 609 C 68 584 37 572 -2 572 Z M -2 658 C 9 658 19 661 27 669 C 35 676 39 686 39 699 C 39 711 35 721 27 728 C 19 735 9 739 -2 739 C -13 739 -23 735 -31 728 C -39 721 -43 711 -43 699 C -43 686 -39 676 -31 669 C -23 661 -13 658 -2 658 Z" unicode="̊" />
<glyph horiz-adv-x="0" d="M -164 532 L -66 690 L 75 690 L -32 532 L -164 532 Z M 27 532 L 134 690 L 275 690 L 159 532 L 27 532 Z" unicode="̋" />
<glyph horiz-adv-x="0" d="M -78 524 L -172 698 L -35 698 L 2 626 L 39 698 L 168 698 L 74 524 L -78 524 Z" unicode="̌" />
<glyph horiz-adv-x="0" d="M -6 743 L 105 715 C 92 691 83 669 79 648 C 74 627 72 604 72 580 L 72 532 L -72 532 L -72 579 C -72 617 -67 648 -57 674 C -47 700 -30 723 -6 743 Z" unicode="̒" />
<glyph horiz-adv-x="1" d="M 7 -251 L -104 -223 C -91 -199 -82 -177 -78 -156 C -73 -135 -71 -112 -71 -88 L -71 -40 L 73 -40 L 73 -87 C 73 -125 68 -156 58 -182 C 48 -208 31 -231 7 -251 Z" unicode="̦" />
<glyph horiz-adv-x="0" d="M 21 -249 C 5 -249 -7 -248 -19 -246 C -31 -244 -43 -242 -56 -238 L -56 -149 C -47 -153 -38 -157 -29 -160 C -20 -162 -11 -164 -3 -164 C 5 -164 12 -161 18 -157 C 23 -152 26 -146 26 -139 C 26 -132 23 -126 17 -122 C 11 -117 4 -115 -4 -115 L -12 -115 L -12 -40 L 0 -40 C 40 -40 72 -49 98 -67 C 123 -85 136 -111 136 -145 C 136 -179 125 -204 104 -222 C 82 -240 55 -249 21 -249 Z" unicode="̧" />
<glyph horiz-adv-x="0" d="M -2 -220 C -60 -220 -106 -207 -139 -183 C -171 -158 -188 -127 -188 -89 C -188 -52 -172 -21 -142 5 C -112 31 -70 50 -17 63 L -2 0 C -22 0 -37 -5 -47 -15 C -57 -25 -63 -38 -63 -53 C -63 -67 -57 -78 -47 -88 C -37 -97 -22 -102 -2 -102 L -2 -220 Z" unicode="̨" />
<glyph horiz-adv-x="729" d="M 12 0 L 264 658 L 466 658 L 717 0 L 12 0 Z M 251 159 L 442 159 L 347 409 L 251 159 Z" unicode="Δ" />
<glyph horiz-adv-x="559" d="M 162 -200 L 36 -200 L 36 478 L 240 478 L 240 196 C 240 184 243 174 251 168 C 259 161 268 158 279 158 C 286 158 293 159 300 162 C 306 164 311 169 315 175 L 315 478 L 519 478 L 519 0 L 323 0 L 315 60 C 303 38 285 20 262 7 C 238 -5 215 -12 193 -12 C 183 -12 173 -11 164 -10 C 154 -8 145 -6 137 -4 L 162 -200 Z" unicode="μ" />
<glyph horiz-adv-x="617" d="M 70 0 L 70 317 L 20 317 L 20 478 L 597 478 L 597 317 L 547 317 L 547 0 L 343 0 L 343 317 L 274 317 L 274 0 L 70 0 Z" unicode="π" />
<glyph horiz-adv-x="1098" d="M 205 0 L 12 658 L 236 658 L 316 364 L 342 245 L 370 364 L 450 658 L 664 658 L 743 364 L 771 250 L 799 364 L 878 658 L 1086 658 L 887 0 L 645 0 L 576 238 L 545 377 L 512 238 L 444 0 L 205 0 Z M 480 706 L 366 848 L 529 848 L 621 706 L 480 706 Z" unicode="Ẁ" />
<glyph horiz-adv-x="907" d="M 156 0 L 12 478 L 220 478 L 260 320 L 287 197 L 316 320 L 360 478 L 546 478 L 594 320 L 630 196 L 665 320 L 714 478 L 895 478 L 732 0 L 511 0 L 477 116 L 443 241 L 410 116 L 377 0 L 156 0 Z M 377 524 L 250 682 L 431 682 L 533 524 L 377 524 Z" unicode="ẁ" />
<glyph horiz-adv-x="1098" d="M 205 0 L 12 658 L 236 658 L 316 364 L 342 245 L 370 364 L 450 658 L 664 658 L 743 364 L 771 250 L 799 364 L 878 658 L 1086 658 L 887 0 L 645 0 L 576 238 L 545 377 L 512 238 L 444 0 L 205 0 Z M 619 706 L 478 706 L 570 848 L 733 848 L 619 706 Z" unicode="Ẃ" />
<glyph horiz-adv-x="907" d="M 156 0 L 12 478 L 220 478 L 260 320 L 287 197 L 316 320 L 360 478 L 546 478 L 594 320 L 630 196 L 665 320 L 714 478 L 895 478 L 732 0 L 511 0 L 477 116 L 443 241 L 410 116 L 377 0 L 156 0 Z M 530 524 L 374 524 L 476 682 L 657 682 L 530 524 Z" unicode="ẃ" />
<glyph horiz-adv-x="1098" d="M 205 0 L 12 658 L 236 658 L 316 364 L 342 245 L 370 364 L 450 658 L 664 658 L 743 364 L 771 250 L 799 364 L 878 658 L 1086 658 L 887 0 L 645 0 L 576 238 L 545 377 L 512 238 L 444 0 L 205 0 Z M 402 706 L 402 832 L 528 832 L 528 706 L 402 706 Z M 574 706 L 574 832 L 700 832 L 700 706 L 574 706 Z" unicode="Ẅ" />
<glyph horiz-adv-x="907" d="M 156 0 L 12 478 L 220 478 L 260 320 L 287 197 L 316 320 L 360 478 L 546 478 L 594 320 L 630 196 L 665 320 L 714 478 L 895 478 L 732 0 L 511 0 L 477 116 L 443 241 L 410 116 L 377 0 L 156 0 Z M 290 524 L 290 664 L 430 664 L 430 524 L 290 524 Z M 480 524 L 480 664 L 620 664 L 620 524 L 480 524 Z" unicode="ẅ" />
<glyph horiz-adv-x="705" d="M 250 0 L 250 213 L 12 658 L 258 658 L 336 485 L 367 413 L 398 485 L 476 658 L 693 658 L 462 220 L 462 0 L 250 0 Z M 296 706 L 182 848 L 345 848 L 437 706 L 296 706 Z" unicode="Ỳ" />
<glyph horiz-adv-x="573" d="M 51 -220 L 43 -220 L 43 -45 L 51 -45 C 95 -45 127 -42 148 -36 C 169 -30 187 -17 203 1 L 165 4 L 12 478 L 231 478 L 269 320 L 301 169 L 334 320 L 372 478 L 561 478 L 439 75 C 405 -36 356 -113 293 -156 C 230 -198 149 -220 51 -220 Z M 218 524 L 91 682 L 272 682 L 374 524 L 218 524 Z" unicode="ỳ" />
<glyph horiz-adv-x="500" d="" unicode=" " />
<glyph horiz-adv-x="1000" d="" unicode=" " />
<glyph horiz-adv-x="650" d="" unicode=" " />
<glyph horiz-adv-x="0" d="" unicode=" " />
<glyph horiz-adv-x="650" d="M 115 218 L 115 366 L 535 366 L 535 218 L 115 218 Z" unicode="‒" />
<glyph horiz-adv-x="500" d="M 40 162 L 40 310 L 460 310 L 460 162 L 40 162 Z" unicode="–" />
<glyph horiz-adv-x="1000" d="M 40 161 L 40 309 L 960 309 L 960 161 L 40 161 Z" unicode="—" />
<glyph horiz-adv-x="360" d="M 40 163 L 40 311 L 320 311 L 320 163 L 40 163 Z" unicode="―" />
<glyph horiz-adv-x="314" d="M 56 364 L 56 465 C 56 539 65 597 84 639 C 103 681 124 712 146 733 L 302 700 C 284 662 271 626 263 592 C 255 558 252 516 252 466 L 252 364 L 56 364 Z" unicode="‘" />
<glyph horiz-adv-x="306" d="M 160 347 L 12 380 C 30 418 42 454 50 488 C 58 522 62 564 62 614 L 62 716 L 250 716 L 250 615 C 250 540 240 482 221 440 C 202 398 182 367 160 347 Z" unicode="’" />
<glyph horiz-adv-x="306" d="M 250 188 L 250 87 C 250 12 240 -45 221 -87 C 202 -129 182 -160 160 -181 L 12 -148 C 30 -110 42 -74 50 -40 C 58 -6 62 36 62 86 L 62 188 L 250 188 Z" unicode="‚" />
<glyph horiz-adv-x="570" d="M 56 363 L 56 465 C 56 539 65 597 84 639 C 103 681 124 712 146 733 L 302 700 C 284 662 271 626 263 592 C 255 558 252 516 252 466 L 252 363 L 56 363 Z M 312 363 L 312 465 C 312 539 321 597 340 639 C 359 681 380 712 402 733 L 558 700 C 540 662 527 626 519 592 C 511 558 508 516 508 466 L 508 363 L 312 363 Z" unicode="“" />
<glyph horiz-adv-x="554" d="M 160 347 L 12 380 C 30 418 42 454 50 488 C 58 522 62 564 62 614 L 62 716 L 250 716 L 250 615 C 250 540 240 482 221 440 C 202 398 182 367 160 347 Z M 408 347 L 260 380 C 278 418 290 454 298 488 C 306 522 310 564 310 614 L 310 716 L 498 716 L 498 615 C 498 540 488 482 469 440 C 450 398 430 367 408 347 Z" unicode="”" />
<glyph horiz-adv-x="562" d="M 250 188 L 250 87 C 250 12 240 -45 221 -87 C 202 -129 182 -160 160 -181 L 12 -148 C 30 -110 42 -74 50 -40 C 58 -6 62 36 62 86 L 62 188 L 250 188 Z M 506 188 L 506 87 C 506 12 496 -45 477 -87 C 458 -129 438 -160 416 -181 L 268 -148 C 286 -110 298 -74 306 -40 C 314 -6 318 36 318 86 L 318 188 L 506 188 Z" unicode="„" />
<glyph horiz-adv-x="500" d="M 156 0 L 164 410 L 32 402 L 32 574 L 164 566 L 156 716 L 344 716 L 336 566 L 468 574 L 468 402 L 336 410 L 344 0 L 156 0 Z" unicode="†" />
<glyph horiz-adv-x="500" d="M 156 0 L 164 157 L 32 149 L 32 321 L 164 313 L 164 410 L 32 402 L 32 574 L 164 566 L 156 716 L 344 716 L 336 566 L 468 574 L 468 402 L 336 410 L 336 313 L 468 321 L 468 149 L 336 157 L 344 0 L 156 0 Z" unicode="‡" />
<glyph horiz-adv-x="380" d="M 60 130 L 60 390 L 320 390 L 320 130 L 60 130 Z" unicode="•" />
<glyph horiz-adv-x="720" d="M 52 0 L 52 140 L 192 140 L 192 0 L 52 0 Z M 288 0 L 288 140 L 428 140 L 428 0 L 288 0 Z M 524 0 L 524 140 L 664 140 L 664 0 L 524 0 Z" unicode="…" />
<glyph horiz-adv-x="1325" d="M 1113 -10 C 1059 -10 1015 7 982 43 C 949 78 933 124 933 180 C 933 237 949 283 982 318 C 1015 352 1059 370 1113 370 C 1167 370 1210 352 1243 318 C 1276 283 1293 237 1293 180 C 1293 124 1276 78 1243 43 C 1210 7 1167 -10 1113 -10 Z M 1113 122 C 1123 122 1132 127 1140 137 C 1148 147 1152 161 1152 180 C 1152 198 1148 213 1140 223 C 1132 233 1123 239 1113 239 C 1102 239 1093 233 1085 223 C 1077 213 1074 198 1074 180 C 1074 161 1077 147 1085 137 C 1093 127 1102 122 1113 122 Z M 208 350 C 154 350 110 367 77 403 C 44 438 28 484 28 540 C 28 597 44 643 77 678 C 110 712 154 730 208 730 C 262 730 305 712 338 678 C 371 643 388 597 388 540 C 388 484 371 438 338 403 C 305 367 262 350 208 350 Z M 208 482 C 218 482 227 487 235 497 C 243 507 247 521 247 540 C 247 558 243 573 235 583 C 227 593 218 599 208 599 C 197 599 188 593 180 583 C 172 573 169 558 169 540 C 169 521 172 507 180 497 C 188 487 197 482 208 482 Z M 228 0 L 552 716 L 696 716 L 372 0 L 228 0 Z M 714 -10 C 660 -10 616 7 583 43 C 550 78 534 124 534 180 C 534 237 550 283 583 318 C 616 352 660 370 714 370 C 768 370 811 352 844 318 C 877 283 894 237 894 180 C 894 124 877 78 844 43 C 811 7 768 -10 714 -10 Z M 714 122 C 724 122 733 127 741 137 C 749 147 753 161 753 180 C 753 198 749 213 741 223 C 733 233 724 239 714 239 C 703 239 694 233 686 223 C 678 213 675 198 675 180 C 675 161 678 147 686 137 C 694 127 703 122 714 122 Z" unicode="‰" />
<glyph horiz-adv-x="268" d="M 56 422 L 56 716 L 212 716 L 212 422 L 56 422 Z" unicode="′" />
<glyph horiz-adv-x="477" d="M 56 422 L 56 716 L 212 716 L 212 422 L 56 422 Z M 265 422 L 265 716 L 421 716 L 421 422 L 265 422 Z" unicode="″" />
<glyph horiz-adv-x="419" d="M 187 55 L 40 226 L 187 398 L 379 398 L 233 226 L 379 55 L 187 55 Z" unicode="‹" />
<glyph horiz-adv-x="419" d="M 40 55 L 186 226 L 40 398 L 232 398 L 379 226 L 232 55 L 40 55 Z" unicode="›" />
<glyph horiz-adv-x="188" d="M -140 0 L 184 716 L 328 716 L 4 0 L -140 0 Z" unicode="⁄" />
<glyph horiz-adv-x="412" d="M 204 430 C 150 430 106 447 73 483 C 40 518 24 564 24 620 C 24 677 40 723 73 758 C 106 792 150 810 204 810 C 258 810 301 792 334 758 C 367 723 384 677 384 620 C 384 564 367 518 334 483 C 301 447 258 430 204 430 Z M 204 562 C 214 562 223 567 231 577 C 239 587 243 601 243 620 C 243 638 239 653 231 663 C 223 673 214 679 204 679 C 193 679 184 673 176 663 C 168 653 165 638 165 620 C 165 601 168 587 176 577 C 184 567 193 562 204 562 Z" unicode="⁰" />
<glyph horiz-adv-x="361" d="M 167 440 L 167 499 L 20 499 L 20 608 L 133 800 L 299 800 L 299 593 L 337 593 L 337 498 L 299 498 L 299 440 L 167 440 Z M 167 593 L 167 684 L 110 593 L 167 593 Z" unicode="⁴" />
<glyph horiz-adv-x="341" d="M 154 432 C 133 432 112 433 91 436 C 69 439 47 443 24 449 L 24 549 C 42 542 60 537 77 535 C 94 532 113 531 133 531 C 143 531 151 533 155 537 C 159 541 161 547 161 554 C 161 562 158 568 153 572 C 148 575 141 577 133 577 C 116 577 98 575 79 573 C 60 571 42 568 24 566 L 37 800 L 293 800 L 293 690 L 143 690 L 140 656 C 146 656 153 657 159 657 C 165 657 170 658 173 658 C 219 658 254 649 278 632 C 301 614 313 587 313 549 C 313 513 299 485 273 464 C 247 442 207 432 154 432 Z" unicode="⁵" />
<glyph horiz-adv-x="381" d="M 184 432 C 135 432 96 446 67 475 C 38 504 24 543 24 592 C 24 660 44 713 85 751 C 126 789 170 808 218 808 C 245 808 266 806 281 804 C 296 802 314 799 336 795 L 336 693 C 319 697 301 701 283 704 C 265 706 248 708 233 708 C 215 708 200 704 189 697 C 177 690 169 678 165 662 C 173 667 182 671 193 674 C 203 676 216 678 230 678 C 264 678 293 670 317 655 C 341 639 353 613 353 577 C 353 535 337 500 307 473 C 276 445 235 432 184 432 Z M 188 530 C 198 530 205 533 211 541 C 217 549 220 559 220 571 C 220 580 217 588 211 594 C 205 600 198 604 189 604 C 179 604 171 601 165 595 C 159 589 157 580 157 570 C 157 558 159 548 165 541 C 170 533 178 530 188 530 Z" unicode="⁶" />
<glyph horiz-adv-x="355" d="M 52 440 L 164 684 L 24 684 L 24 800 L 327 800 L 327 715 L 203 440 L 52 440 Z" unicode="⁷" />
<glyph horiz-adv-x="368" d="M 181 432 C 128 432 89 441 63 459 C 37 477 24 502 24 532 C 24 549 29 564 39 577 C 49 589 63 600 82 609 C 64 619 51 631 42 646 C 32 660 28 678 28 699 C 28 732 40 758 66 778 C 92 798 130 808 180 808 C 230 808 267 799 293 783 C 319 767 332 743 332 713 C 332 697 327 682 318 668 C 308 654 294 643 276 633 C 296 622 312 609 323 594 C 334 578 340 561 340 541 C 340 508 326 482 300 462 C 273 442 233 432 181 432 Z M 181 663 L 192 661 C 196 664 200 668 204 674 C 208 680 210 686 210 693 C 210 703 207 711 201 717 C 195 722 188 725 180 725 C 171 725 164 722 158 717 C 152 711 150 704 150 695 C 150 686 153 679 159 674 C 165 668 172 665 181 663 Z M 149 547 C 149 539 152 532 158 527 C 164 521 172 519 182 519 C 192 519 199 521 205 526 C 211 530 214 538 214 548 C 214 558 210 565 204 570 C 198 575 189 579 179 581 L 172 582 C 165 579 159 574 155 568 C 151 561 149 554 149 547 Z" unicode="⁸" />
<glyph horiz-adv-x="381" d="M 159 432 C 131 432 110 433 95 435 C 80 437 62 441 41 445 L 41 547 C 57 542 75 538 93 536 C 111 533 128 532 144 532 C 162 532 177 536 189 544 C 200 552 208 565 213 583 C 205 577 195 573 184 570 C 173 567 161 566 147 566 C 112 566 83 573 59 589 C 35 604 24 630 24 667 C 24 707 39 741 70 768 C 100 794 141 808 193 808 C 241 808 280 794 309 766 C 338 738 353 700 353 652 C 353 582 332 528 291 490 C 250 451 206 432 159 432 Z M 188 640 C 198 640 205 643 211 649 C 217 655 220 663 220 674 C 220 684 217 693 212 700 C 206 706 199 710 189 710 C 179 710 171 706 165 699 C 159 692 157 683 157 673 C 157 663 159 655 165 649 C 171 643 178 640 188 640 Z" unicode="⁹" />
<glyph horiz-adv-x="408" d="M 32 440 L 32 800 L 180 800 L 180 764 C 189 777 200 788 214 796 C 228 804 245 809 267 809 C 299 809 326 798 348 777 C 369 756 380 728 380 692 L 380 440 L 232 440 L 232 656 C 232 663 229 669 225 674 C 220 678 214 681 206 681 C 200 681 194 680 190 678 C 186 676 182 673 180 669 L 180 440 L 32 440 Z" unicode="ⁿ" />
<glyph horiz-adv-x="412" d="M 204 -180 C 150 -180 106 -162 73 -127 C 40 -91 24 -46 24 10 C 24 67 40 113 73 148 C 106 182 150 200 204 200 C 258 200 301 182 334 148 C 367 113 384 67 384 10 C 384 -46 367 -91 334 -127 C 301 -162 258 -180 204 -180 Z M 204 -48 C 214 -48 223 -43 231 -33 C 239 -23 243 -8 243 10 C 243 28 239 43 231 53 C 223 63 214 69 204 69 C 193 69 184 63 176 53 C 168 43 165 28 165 10 C 165 -8 168 -23 176 -33 C 184 -43 193 -48 204 -48 Z" unicode="₀" />
<glyph horiz-adv-x="320" d="M 24 -170 L 24 -60 L 81 -60 L 81 69 L 24 65 L 24 176 L 235 194 L 235 -60 L 292 -60 L 292 -170 L 24 -170 Z" unicode="₁" />
<glyph horiz-adv-x="343" d="M 24 -170 L 24 -33 C 82 -21 121 -9 142 5 C 162 19 173 33 173 49 C 173 61 169 70 161 76 C 153 82 142 85 126 85 C 109 85 92 82 76 78 C 59 73 43 66 29 57 L 29 176 C 51 182 73 188 95 192 C 117 196 139 199 163 199 C 214 199 252 187 277 163 C 302 139 315 111 315 77 C 315 43 304 16 282 -6 C 260 -28 225 -46 175 -61 L 312 -61 L 312 -170 L 24 -170 Z" unicode="₂" />
<glyph horiz-adv-x="343" d="M 168 -178 C 142 -178 118 -176 94 -174 C 70 -172 47 -168 24 -164 L 24 -46 C 40 -54 57 -59 74 -63 C 90 -67 108 -69 126 -69 C 136 -69 145 -67 152 -64 C 158 -60 162 -55 162 -49 C 162 -41 157 -35 149 -32 C 140 -28 129 -27 116 -27 L 89 -27 L 89 49 L 110 49 C 124 49 134 50 142 54 C 150 57 154 62 154 69 C 154 75 151 80 146 84 C 140 87 134 89 126 89 C 109 89 93 87 78 84 C 62 80 47 75 32 68 L 32 184 C 52 188 74 192 96 194 C 118 196 140 198 164 198 C 212 198 247 189 271 172 C 295 154 307 131 307 103 C 307 80 300 61 287 45 C 274 29 254 18 228 13 C 257 7 279 -2 293 -18 C 307 -34 315 -52 315 -73 C 315 -105 303 -131 279 -150 C 255 -168 218 -178 168 -178 Z" unicode="₃" />
<glyph horiz-adv-x="361" d="M 167 -170 L 167 -111 L 20 -111 L 20 -2 L 133 190 L 299 190 L 299 -17 L 337 -17 L 337 -112 L 299 -112 L 299 -170 L 167 -170 Z M 167 -17 L 167 74 L 110 -17 L 167 -17 Z" unicode="₄" />
<glyph horiz-adv-x="341" d="M 154 -178 C 133 -178 112 -176 91 -173 C 69 -170 47 -166 24 -161 L 24 -61 C 42 -67 60 -72 77 -75 C 94 -77 113 -79 133 -79 C 143 -79 151 -76 155 -72 C 159 -68 161 -62 161 -56 C 161 -47 158 -41 153 -38 C 148 -34 141 -33 133 -33 C 116 -33 98 -34 79 -36 C 60 -38 42 -41 24 -44 L 37 190 L 293 190 L 293 80 L 143 80 L 140 46 C 146 46 153 47 159 47 C 165 47 170 48 173 48 C 219 48 254 39 278 22 C 301 4 313 -23 313 -61 C 313 -96 299 -124 273 -146 C 247 -167 207 -178 154 -178 Z" unicode="₅" />
<glyph horiz-adv-x="381" d="M 184 -178 C 135 -178 96 -163 67 -134 C 38 -105 24 -66 24 -18 C 24 50 44 103 85 141 C 126 179 170 198 218 198 C 245 198 266 196 281 194 C 296 192 314 189 336 185 L 336 83 C 319 87 301 91 283 94 C 265 96 248 98 233 98 C 215 98 200 94 189 87 C 177 80 169 68 165 52 C 173 57 182 61 193 64 C 203 66 216 68 230 68 C 264 68 293 60 317 45 C 341 29 353 3 353 -33 C 353 -75 337 -109 307 -137 C 276 -164 235 -178 184 -178 Z M 188 -80 C 198 -80 205 -76 211 -68 C 217 -60 220 -51 220 -39 C 220 -29 217 -21 211 -15 C 205 -9 198 -6 189 -6 C 179 -6 171 -9 165 -15 C 159 -21 157 -29 157 -40 C 157 -52 159 -61 165 -69 C 170 -76 178 -80 188 -80 Z" unicode="₆" />
<glyph horiz-adv-x="355" d="M 52 -170 L 164 74 L 24 74 L 24 190 L 327 190 L 327 105 L 203 -170 L 52 -170 Z" unicode="₇" />
<glyph horiz-adv-x="368" d="M 181 -178 C 128 -178 89 -168 63 -150 C 37 -132 24 -108 24 -78 C 24 -60 29 -45 39 -33 C 49 -20 63 -9 82 -1 C 64 9 51 21 42 36 C 32 50 28 68 28 89 C 28 122 40 148 66 168 C 92 188 130 198 180 198 C 230 198 267 189 293 173 C 319 157 332 133 332 103 C 332 87 327 72 318 58 C 308 44 294 33 276 23 C 296 12 312 0 323 -16 C 334 -31 340 -49 340 -69 C 340 -101 326 -128 300 -148 C 273 -168 233 -178 181 -178 Z M 181 53 L 192 51 C 196 54 200 58 204 64 C 208 70 210 76 210 83 C 210 93 207 101 201 107 C 195 112 188 115 180 115 C 171 115 164 112 158 107 C 152 101 150 94 150 85 C 150 76 153 69 159 64 C 165 58 172 55 181 53 Z M 149 -63 C 149 -71 152 -77 158 -83 C 164 -88 172 -91 182 -91 C 192 -91 199 -88 205 -84 C 211 -79 214 -72 214 -62 C 214 -52 210 -44 204 -39 C 198 -34 189 -31 179 -29 L 172 -28 C 165 -30 159 -35 155 -42 C 151 -48 149 -55 149 -63 Z" unicode="₈" />
<glyph horiz-adv-x="381" d="M 159 -178 C 131 -178 110 -176 95 -174 C 80 -172 62 -169 41 -165 L 41 -63 C 57 -67 75 -71 93 -74 C 111 -76 128 -78 144 -78 C 162 -78 177 -74 189 -66 C 200 -58 208 -45 213 -27 C 205 -32 195 -36 184 -39 C 173 -42 161 -44 147 -44 C 112 -44 83 -36 59 -21 C 35 -5 24 20 24 57 C 24 97 39 131 70 158 C 100 184 141 198 193 198 C 241 198 280 184 309 156 C 338 128 353 90 353 42 C 353 -27 332 -81 291 -120 C 250 -158 206 -178 159 -178 Z M 188 30 C 198 30 205 33 211 39 C 217 45 220 53 220 64 C 220 74 217 83 212 90 C 206 96 199 100 189 100 C 179 100 171 96 165 89 C 159 82 157 73 157 63 C 157 53 159 45 165 39 C 171 33 178 30 188 30 Z" unicode="₉" />
<glyph horiz-adv-x="691" d="M 32 351 L 32 427 L 445 427 L 445 351 L 32 351 Z M 32 231 L 32 307 L 447 307 L 447 231 L 32 231 Z M 449 -12 C 338 -12 249 18 182 80 C 114 142 81 225 81 330 C 81 434 114 517 182 578 C 249 639 338 670 449 670 C 481 670 513 666 543 659 C 573 652 603 642 632 629 L 632 436 C 604 452 575 464 547 472 C 519 480 490 484 461 484 C 413 484 375 470 347 443 C 319 415 305 378 305 330 C 305 281 319 243 347 215 C 375 187 413 174 461 174 C 491 174 521 178 551 186 C 581 194 610 207 639 224 L 639 33 C 608 18 577 7 546 0 C 515 -8 483 -12 449 -12 Z" unicode="€" />
<glyph horiz-adv-x="624" d="M 158 552 L 158 786 L 262 786 L 262 552 L 158 552 Z M 329 552 L 329 786 L 433 786 L 433 552 L 329 552 Z M 158 -124 L 158 110 L 262 110 L 262 -124 L 158 -124 Z M 329 -124 L 329 110 L 433 110 L 433 -124 L 329 -124 Z M 60 0 L 60 658 L 352 658 C 422 658 477 643 518 613 C 558 583 579 542 579 491 C 579 451 568 417 547 390 C 525 363 494 343 452 331 C 500 321 537 304 562 278 C 587 252 600 219 600 179 C 600 124 579 80 539 48 C 499 16 442 0 369 0 L 60 0 Z M 270 396 L 306 396 C 323 396 337 401 348 413 C 359 425 365 439 365 456 C 365 474 359 489 348 500 C 337 511 323 517 306 517 L 270 517 L 270 396 Z M 270 153 L 321 153 C 339 153 354 158 366 170 C 378 182 384 196 384 214 C 384 232 378 246 366 257 C 354 268 339 274 321 274 L 270 274 L 270 153 Z" unicode="₿" />
<glyph horiz-adv-x="700" d="M 352 89 C 254 89 177 120 119 182 C 61 244 32 319 32 407 C 32 494 61 569 119 631 C 177 693 254 725 352 725 C 449 725 527 693 585 631 C 643 569 672 494 672 407 C 672 319 643 244 585 182 C 527 120 449 89 352 89 Z M 352 187 C 419 187 472 206 512 246 C 552 286 572 339 572 407 C 572 474 552 527 512 567 C 472 607 419 627 352 627 C 284 627 231 607 191 567 C 151 527 132 474 132 407 C 132 339 151 286 191 246 C 231 206 284 187 352 187 Z M 243 240 L 243 576 L 381 576 C 417 576 447 565 470 544 C 492 522 504 494 504 458 C 504 420 492 390 469 368 C 446 346 416 335 379 335 L 345 335 L 345 240 L 243 240 Z M 345 421 L 361 421 C 375 421 385 423 392 429 C 398 435 402 444 402 456 C 402 467 398 475 392 481 C 385 487 375 490 361 490 L 345 490 L 345 421 Z" unicode="℗" />
<glyph horiz-adv-x="771" d="M 112 402 L 112 626 L 32 626 L 32 716 L 297 716 L 297 626 L 219 626 L 219 402 L 112 402 Z M 328 402 L 328 716 L 486 716 L 524 609 L 559 716 L 719 716 L 719 402 L 610 402 L 610 601 L 555 435 L 473 436 L 418 600 L 418 402 L 328 402 Z" unicode="™" />
<glyph horiz-adv-x="613" d="M 302 -16 C 220 -16 156 6 110 50 C 63 94 40 156 40 236 C 40 306 58 363 94 407 C 130 451 178 474 239 474 C 253 474 267 473 280 471 C 292 469 304 467 315 463 C 292 487 262 507 225 521 C 187 535 144 542 96 542 L 96 732 C 283 732 409 684 475 588 C 540 492 573 398 573 308 C 573 202 548 121 498 66 C 448 11 383 -16 302 -16 Z M 307 161 C 324 161 337 167 346 181 C 354 194 359 212 359 235 C 359 257 354 275 346 289 C 338 303 324 310 306 310 C 289 310 276 303 267 289 C 258 275 254 257 254 235 C 254 212 258 194 267 181 C 275 167 289 161 307 161 Z" unicode="∂" />
<glyph horiz-adv-x="663" d="M 60 0 L 60 658 L 603 658 L 603 0 L 391 0 L 391 478 L 272 478 L 272 0 L 60 0 Z" unicode="∏" />
<glyph horiz-adv-x="638" d="M 60 0 L 60 132 L 246 338 L 60 526 L 60 658 L 576 658 L 576 480 L 376 480 L 507 347 L 361 186 L 578 186 L 578 0 L 60 0 Z" unicode="∑" />
<glyph horiz-adv-x="536" d="M 52 213 L 52 361 L 484 361 L 484 213 L 52 213 Z" unicode="−" />
<glyph horiz-adv-x="643" d="M 156 0 L 12 478 L 231 478 L 303 230 L 449 716 L 631 716 L 410 0 L 156 0 Z" unicode="√" />
<glyph horiz-adv-x="917" d="M 256 -12 C 196 -12 147 10 109 55 C 71 99 52 158 52 230 C 52 310 72 372 113 418 C 153 464 207 487 275 487 C 313 487 350 478 385 461 C 419 443 451 411 479 363 C 499 401 525 432 557 454 C 589 476 626 487 669 487 C 726 487 773 464 810 420 C 846 375 865 315 865 240 C 865 162 845 101 806 56 C 766 10 717 -12 657 -12 C 613 -12 574 -1 539 18 C 504 38 473 69 446 110 C 426 74 401 45 373 22 C 344 0 305 -12 256 -12 Z M 625 309 C 608 309 592 302 578 289 C 563 275 550 258 540 238 C 553 214 567 196 582 184 C 597 172 613 167 631 167 C 647 167 662 173 675 186 C 687 198 694 216 694 238 C 694 259 687 276 674 289 C 661 302 645 309 625 309 Z M 223 238 C 223 216 229 198 241 186 C 253 173 270 167 290 167 C 306 167 322 173 338 186 C 354 198 367 214 378 234 C 363 258 349 277 335 290 C 321 302 306 309 290 309 C 270 309 253 302 241 289 C 229 276 223 259 223 238 Z" unicode="∞" />
<glyph horiz-adv-x="526" d="M 117 -212 C 99 -212 82 -210 65 -208 C 47 -205 30 -201 12 -197 L 12 -25 C 22 -28 33 -30 44 -32 C 55 -34 66 -35 78 -35 C 90 -35 101 -31 109 -24 C 117 -16 123 -6 125 6 L 202 549 C 210 609 233 655 270 685 C 306 715 353 730 409 730 C 426 730 443 728 461 726 C 478 723 496 719 514 715 L 514 543 C 503 546 492 548 481 550 C 470 552 459 553 448 553 C 434 553 423 549 415 542 C 407 534 403 524 401 512 L 324 -31 C 316 -86 293 -130 256 -163 C 219 -195 173 -212 117 -212 Z" unicode="∫" />
<glyph horiz-adv-x="473" d="M 68 312 L 56 460 C 66 473 78 484 94 492 C 110 500 127 504 145 504 C 161 504 177 501 193 497 C 209 493 224 488 237 483 C 249 478 263 474 279 470 C 295 466 310 465 325 465 C 339 465 354 468 369 474 C 383 480 395 487 405 497 L 417 349 C 408 335 395 324 379 316 C 362 308 344 304 326 304 C 309 304 293 306 278 310 C 263 314 249 318 237 323 C 223 328 209 333 193 337 C 177 341 162 343 148 343 C 133 343 119 340 105 334 C 91 328 78 321 68 312 Z M 68 84 L 56 233 C 66 245 78 256 94 264 C 110 272 127 277 145 277 C 161 277 177 274 193 270 C 209 265 224 260 237 256 C 249 251 263 247 279 243 C 295 239 310 238 325 238 C 339 238 354 240 369 246 C 383 252 395 259 405 269 L 417 121 C 408 107 395 96 379 88 C 362 80 344 76 326 76 C 309 76 293 78 278 82 C 263 86 249 90 237 95 C 223 99 209 104 193 108 C 177 112 162 115 148 115 C 133 115 119 112 105 106 C 91 100 78 93 68 84 Z" unicode="≈" />
<glyph horiz-adv-x="544" d="M 64 20 L 318 569 L 470 569 L 216 20 L 64 20 Z M 56 330 L 56 478 L 488 478 L 488 330 L 56 330 Z M 56 122 L 56 270 L 488 270 L 488 122 L 56 122 Z" unicode="≠" />
<glyph horiz-adv-x="531" d="M 243 68 L 56 284 L 245 500 L 475 500 L 286 285 L 475 68 L 243 68 Z M 64 -132 L 64 0 L 467 0 L 467 -132 L 64 -132 Z" unicode="≤" />
<glyph horiz-adv-x="531" d="M 56 68 L 245 285 L 56 500 L 286 500 L 475 284 L 288 68 L 56 68 Z M 64 -132 L 64 0 L 468 0 L 468 -132 L 64 -132 Z" unicode="≥" />
<glyph horiz-adv-x="776" d="M 388 -77 L 40 279 L 388 635 L 736 279 L 388 -77 Z M 388 149 L 510 279 L 388 409 L 266 279 L 388 149 Z" unicode="◊" />
<glyph horiz-adv-x="647" d="M 165 0 L 12 478 L 219 478 L 304 196 L 453 716 L 635 716 L 419 0 L 165 0 Z" unicode="✓" />
<glyph horiz-adv-x="722" d="M 53 0 L 53 161 L 204 161 L 204 184 C 153 201 113 228 84 266 C 54 303 40 349 40 404 C 40 478 69 541 127 593 C 185 644 263 670 361 670 C 459 670 537 644 595 594 C 653 543 682 482 682 410 C 682 352 667 304 638 266 C 608 228 568 200 518 184 L 518 161 L 669 161 L 669 0 L 388 0 L 388 267 C 410 271 430 283 446 302 C 462 320 470 346 470 379 C 470 410 459 436 438 457 C 417 478 391 489 361 489 C 330 489 304 479 283 459 C 262 439 252 413 252 381 C 252 347 260 322 276 304 C 292 286 311 273 334 267 L 334 0 L 53 0 Z" unicode="Ꞷ" />
<glyph horiz-adv-x="217" d="M 123 -251 L 12 -223 C 24 -199 33 -177 38 -156 C 42 -135 45 -112 45 -88 L 45 -40 L 189 -40 L 189 -87 C 189 -125 184 -156 174 -182 C 164 -208 147 -231 123 -251 Z" unicode="" />
<glyph horiz-adv-x="664" d="M 0 0 L 0 658 L 664 658 L 664 0 L 0 0 Z M 171 60 L 280 60 L 280 504 L 332 504 L 332 60 L 441 60 L 441 330 L 447 330 C 489 330 522 343 547 370 C 572 397 585 428 585 464 C 585 500 571 531 544 558 C 516 584 480 598 434 598 L 75 598 L 75 504 L 171 504 L 171 60 Z" unicode="" />
<glyph horiz-adv-x="694" d="M 81 0 L 81 314 L 24 314 L 24 478 L 81 478 L 81 516 C 81 581 100 633 139 671 C 177 709 232 728 304 728 C 328 728 352 726 376 723 C 400 719 424 715 448 709 L 448 538 C 434 542 421 545 408 547 C 395 549 378 551 358 551 C 335 551 317 546 304 536 C 291 526 285 511 285 491 L 285 478 L 374 478 L 374 314 L 285 314 L 285 0 L 81 0 Z M 438 0 L 438 478 L 642 478 L 642 0 L 438 0 Z" unicode="ﬁ" />
<glyph horiz-adv-x="694" d="M 81 0 L 81 314 L 24 314 L 24 478 L 81 478 L 81 516 C 81 581 100 633 139 671 C 177 709 232 728 304 728 C 328 728 352 726 376 723 C 400 719 424 715 448 709 L 448 538 C 434 542 421 545 408 547 C 395 549 378 551 358 551 C 335 551 317 546 304 536 C 291 526 285 511 285 491 L 285 478 L 374 478 L 374 314 L 285 314 L 285 0 L 81 0 Z M 438 0 L 438 716 L 642 716 L 642 0 L 438 0 Z" unicode="ﬂ" />
</font>
</defs>
</svg>
