<?xml version="1.0" encoding="utf-8" ?><svg version="1.1" xmlns = 'http://www.w3.org/2000/svg'><defs><font id='web' horiz-adv-x="1000">
<font-face font-family="web" descent="-268" cap-height="658" units-per-em="1000" bbox="-200,-341,1293,991" x-height="474" ascent="732" />
<missing-glyph horiz-adv-x="500" d="M 50 -268 L 450 -268 L 450 732 L 50 732 L 50 -268 Z M 100 -218 L 100 682 L 400 682 L 400 -218 L 100 -218 Z" /><glyph horiz-adv-x="200" d="" unicode=" " />
<glyph horiz-adv-x="273" d="M 94 221 L 162 708 L 310 708 L 242 221 L 94 221 Z M 63 0 L 84 148 L 232 148 L 211 0 L 63 0 Z" unicode="!" />
<glyph horiz-adv-x="433" d="M 118 439 L 157 716 L 291 716 L 252 439 L 118 439 Z M 305 439 L 344 716 L 478 716 L 439 439 L 305 439 Z" unicode="&#x22;" />
<glyph horiz-adv-x="612" d="M 96 -20 L 125 83 L 62 83 L 82 224 L 164 224 L 191 321 L 111 321 L 131 462 L 230 462 L 258 563 L 383 563 L 355 462 L 438 462 L 466 563 L 591 563 L 563 462 L 627 462 L 607 321 L 524 321 L 497 224 L 579 224 L 559 83 L 458 83 L 429 -20 L 304 -20 L 333 83 L 250 83 L 221 -20 L 96 -20 Z M 289 224 L 372 224 L 399 321 L 316 321 L 289 224 Z" unicode="#" />
<glyph horiz-adv-x="555" d="M 190 -102 L 203 -11 C 179 -8 155 -3 132 2 C 108 8 86 17 65 27 L 88 191 C 114 174 143 161 174 153 C 205 145 236 141 267 141 C 293 141 312 145 326 155 C 340 164 347 177 347 194 C 347 207 341 218 331 228 C 321 237 304 246 282 255 L 263 261 C 213 278 174 302 148 334 C 122 365 109 402 109 444 C 109 498 125 544 158 584 C 190 624 237 650 297 663 L 311 762 L 451 762 L 437 667 C 459 664 480 660 502 655 C 524 650 544 644 563 636 L 539 472 C 513 486 485 498 457 506 C 428 514 400 519 373 519 C 350 519 332 514 320 505 C 308 496 302 484 302 469 C 302 456 307 445 318 436 C 328 427 345 418 369 410 L 388 404 C 435 387 472 363 498 333 C 524 302 537 264 537 220 C 537 166 520 118 486 77 C 452 36 405 9 343 -5 L 330 -102 L 190 -102 Z" unicode="$" />
<glyph horiz-adv-x="917" d="M 271 351 C 221 351 181 366 151 396 C 121 426 106 466 106 515 C 106 579 123 630 159 670 C 194 709 239 729 295 729 C 345 729 385 713 415 683 C 445 653 460 614 460 566 C 460 502 442 450 407 410 C 371 370 326 351 271 351 Z M 231 0 L 648 716 L 783 716 L 366 0 L 231 0 Z M 277 467 C 293 467 307 475 317 491 C 327 507 333 528 333 556 C 333 574 328 588 320 598 C 312 608 301 614 289 614 C 272 614 258 606 248 590 C 238 574 233 552 233 524 C 233 505 237 491 245 481 C 253 471 264 467 277 467 Z M 724 -9 C 674 -9 634 6 604 36 C 574 66 559 106 559 155 C 559 219 576 270 612 310 C 647 349 692 369 748 369 C 798 369 838 353 868 323 C 898 293 913 254 913 206 C 913 142 895 90 860 50 C 824 10 779 -9 724 -9 Z M 730 107 C 746 107 760 115 770 131 C 780 147 786 168 786 196 C 786 214 781 228 773 238 C 765 248 754 254 742 254 C 725 254 711 246 701 230 C 691 214 686 192 686 164 C 686 145 690 131 698 121 C 706 111 717 107 730 107 Z" unicode="%" />
<glyph horiz-adv-x="657" d="M 501 -79 C 463 -79 431 -69 407 -49 C 383 -29 373 -2 378 33 L 381 50 L 391 93 C 371 55 348 27 320 11 C 292 -4 262 -13 230 -13 C 188 -13 150 0 116 27 C 82 54 66 95 66 151 C 66 189 77 224 100 258 C 123 292 160 316 210 331 C 176 346 150 366 134 391 C 117 416 109 446 109 480 C 109 535 130 581 172 618 C 214 655 278 674 364 674 C 393 674 423 671 454 665 C 484 659 513 651 541 641 L 524 523 L 611 523 L 595 405 L 682 405 L 662 262 L 575 262 L 555 121 C 552 106 554 94 561 86 C 567 78 577 74 590 74 C 597 74 605 75 613 77 C 621 79 629 82 637 87 L 617 -56 C 598 -63 579 -69 559 -73 C 539 -77 520 -79 501 -79 Z M 370 405 L 424 405 L 441 520 C 429 522 418 524 407 526 C 395 528 385 529 375 529 C 345 529 323 523 309 511 C 295 499 288 483 288 463 C 288 447 295 433 309 422 C 323 410 343 405 370 405 Z M 316 142 C 332 142 349 149 367 163 C 385 177 396 201 401 235 L 404 262 L 356 262 C 323 262 298 256 282 244 C 266 232 258 216 258 195 C 258 180 262 167 272 157 C 282 147 296 142 316 142 Z" unicode="&#x26;" />
<glyph horiz-adv-x="253" d="M 118 438 L 157 716 L 297 716 L 258 438 L 118 438 Z" unicode="'" />
<glyph horiz-adv-x="424" d="M 210 -215 C 174 -147 146 -78 127 -10 C 108 57 99 126 99 196 C 99 294 118 388 157 477 C 196 565 252 645 326 716 L 514 716 C 434 642 374 561 333 473 C 291 384 271 292 271 198 C 271 132 280 65 299 -3 C 318 -71 348 -141 389 -215 L 210 -215 Z" unicode="(" />
<glyph horiz-adv-x="424" d="M -19 -215 C 60 -141 120 -60 162 28 C 203 117 224 209 224 304 C 224 369 214 436 195 504 C 175 572 146 642 106 716 L 285 716 C 321 648 348 579 367 511 C 386 443 396 374 396 305 C 396 206 376 112 337 23 C 297 -66 242 -145 170 -215 L -19 -215 Z" unicode=")" />
<glyph horiz-adv-x="589" d="M 221 -18 L 92 88 L 230 201 L 67 220 L 146 390 L 280 308 L 269 474 L 448 474 L 392 307 L 550 390 L 582 219 L 413 200 L 521 87 L 361 -18 L 312 135 L 221 -18 Z" unicode="*" />
<glyph horiz-adv-x="518" d="M 202 77 L 223 224 L 82 224 L 101 357 L 243 357 L 263 505 L 399 505 L 379 357 L 519 357 L 500 224 L 359 224 L 338 77 L 202 77 Z" unicode="+" />
<glyph horiz-adv-x="271" d="M 105 -192 L -12 -141 C 11 -109 28 -78 39 -50 C 50 -21 59 14 65 56 L 80 160 L 244 160 L 230 61 C 220 -5 204 -58 181 -98 C 157 -138 132 -169 105 -192 Z" unicode="," />
<glyph horiz-adv-x="376" d="M 73 176 L 92 309 L 372 309 L 353 176 L 73 176 Z" unicode="-" />
<glyph horiz-adv-x="260" d="M 50 0 L 73 160 L 233 160 L 210 0 L 50 0 Z" unicode="." />
<glyph horiz-adv-x="511" d="M 26 0 L 431 716 L 590 716 L 185 0 L 26 0 Z" unicode="/" />
<glyph horiz-adv-x="649" d="M 346 -16 C 266 -16 202 9 155 60 C 107 110 84 179 84 266 C 84 388 112 487 170 563 C 228 638 303 676 397 676 C 477 676 541 649 588 597 C 634 545 658 476 658 392 C 658 270 629 172 572 97 C 514 21 439 -16 346 -16 Z M 349 144 C 386 144 416 166 440 211 C 464 255 476 313 476 384 C 476 426 468 458 454 481 C 440 504 420 516 394 516 C 354 516 323 492 300 446 C 277 399 266 341 266 272 C 266 232 273 200 287 178 C 301 155 322 144 349 144 Z" unicode="0" />
<glyph horiz-adv-x="411" d="M 145 0 L 213 488 L 97 475 L 121 648 L 416 676 L 321 0 L 145 0 Z" unicode="1" />
<glyph horiz-adv-x="547" d="M 48 0 L 79 218 L 135 235 C 214 259 275 289 318 325 C 361 361 383 399 383 439 C 383 461 375 479 360 493 C 345 506 325 513 299 513 C 270 513 241 508 212 499 C 183 489 155 476 129 460 L 153 633 C 179 646 209 656 242 664 C 275 672 308 676 341 676 C 414 676 470 658 509 623 C 547 587 567 541 567 483 C 567 417 542 357 492 301 C 442 245 378 204 299 178 L 256 164 L 520 164 L 497 0 L 48 0 Z" unicode="2" />
<glyph horiz-adv-x="534" d="M 255 -13 C 217 -13 181 -9 148 -2 C 114 4 82 15 50 30 L 73 192 C 97 177 124 166 152 158 C 180 150 209 147 240 147 C 270 147 293 152 309 162 C 325 172 333 186 333 205 C 333 222 324 236 307 246 C 290 256 266 262 236 262 L 187 262 L 207 400 L 249 400 C 285 400 313 406 333 418 C 352 430 362 446 362 468 C 362 483 355 495 343 503 C 330 511 312 516 288 516 C 261 516 234 512 208 505 C 182 497 155 486 129 472 L 152 635 C 184 647 216 657 246 664 C 276 670 307 674 341 674 C 402 674 452 660 491 633 C 529 606 549 565 549 510 C 549 472 536 436 510 402 C 484 368 449 345 405 333 C 439 322 465 304 484 279 C 502 253 512 223 512 187 C 512 124 489 75 444 40 C 398 4 335 -13 255 -13 Z" unicode="3" />
<glyph horiz-adv-x="619" d="M 326 0 L 345 136 L 59 136 L 78 270 L 357 662 L 591 662 L 538 284 L 617 284 L 596 135 L 517 135 L 498 0 L 326 0 Z M 366 284 L 394 487 L 251 284 L 366 284 Z" unicode="4" />
<glyph horiz-adv-x="552" d="M 233 -12 C 199 -12 167 -8 137 -1 C 106 5 78 15 53 28 L 74 182 C 99 167 125 156 153 149 C 180 142 209 139 239 139 C 274 139 301 144 319 156 C 337 168 346 184 346 206 C 346 225 338 240 322 250 C 306 260 281 266 249 266 C 222 266 194 264 166 261 C 137 257 109 253 83 249 L 161 662 L 570 662 L 546 497 L 280 496 L 264 411 C 271 411 279 412 289 412 C 298 412 307 413 317 413 C 384 413 437 396 475 363 C 513 330 533 286 533 232 C 533 156 506 96 452 53 C 398 9 325 -12 233 -12 Z" unicode="5" />
<glyph horiz-adv-x="598" d="M 325 -12 C 250 -12 191 11 147 57 C 103 103 82 168 82 252 C 82 380 117 482 189 560 C 260 638 347 677 450 677 C 478 677 505 674 531 669 C 557 664 582 657 607 647 L 585 493 C 563 503 541 512 517 518 C 493 524 470 528 448 528 C 408 528 372 516 341 492 C 309 468 286 435 272 391 C 286 409 305 422 327 432 C 349 441 375 446 404 446 C 460 446 504 428 537 394 C 569 359 586 312 586 253 C 586 175 560 111 510 62 C 460 12 398 -12 325 -12 Z M 326 137 C 350 137 370 146 386 164 C 402 182 410 204 410 231 C 410 255 403 273 391 287 C 378 301 362 308 344 308 C 324 308 306 301 290 289 C 273 276 260 259 252 239 C 248 210 253 186 267 166 C 280 146 300 137 326 137 Z" unicode="6" />
<glyph horiz-adv-x="543" d="M 103 0 L 381 496 L 110 496 L 134 662 L 596 662 L 578 536 L 289 0 L 103 0 Z" unicode="7" />
<glyph horiz-adv-x="599" d="M 309 -16 C 237 -16 180 0 136 31 C 92 62 70 105 70 159 C 70 195 81 228 104 257 C 126 286 158 310 198 328 C 174 346 156 367 143 392 C 129 417 123 444 123 474 C 123 534 146 584 194 622 C 241 660 302 679 377 679 C 444 679 499 664 541 634 C 583 604 605 563 605 512 C 605 480 595 452 575 426 C 555 400 528 379 494 361 C 521 342 542 320 558 294 C 573 268 581 241 581 212 C 581 143 555 88 505 46 C 454 4 389 -16 309 -16 Z M 363 413 L 372 411 C 390 420 405 431 416 445 C 426 458 432 472 432 487 C 432 503 426 517 415 527 C 403 537 388 542 369 542 C 346 542 328 536 315 524 C 302 512 296 498 296 482 C 296 466 302 451 314 439 C 326 426 342 417 363 413 Z M 247 187 C 247 169 253 154 266 143 C 279 131 297 126 320 126 C 346 126 367 132 382 146 C 397 160 405 178 405 201 C 405 217 397 232 383 245 C 369 257 349 267 325 274 L 315 276 C 293 266 277 253 265 237 C 253 221 247 204 247 187 Z" unicode="8" />
<glyph horiz-adv-x="597" d="M 241 -12 C 214 -12 187 -9 160 -4 C 132 0 107 8 85 19 L 107 172 C 128 161 150 152 173 146 C 195 140 218 137 240 137 C 280 137 315 148 346 171 C 377 194 400 227 416 271 C 401 254 383 241 362 233 C 340 224 316 220 288 220 C 232 220 187 237 154 271 C 121 305 105 351 105 410 C 105 486 130 549 181 600 C 231 651 295 677 372 677 C 445 677 503 654 546 610 C 588 566 610 500 610 414 C 610 286 574 183 502 105 C 430 27 343 -12 241 -12 Z M 348 358 C 367 358 385 364 401 376 C 417 388 430 405 439 426 C 442 454 437 478 424 498 C 411 518 392 528 366 528 C 342 528 322 519 306 501 C 290 483 283 460 283 432 C 283 409 289 391 301 378 C 313 364 329 358 348 358 Z" unicode="9" />
<glyph horiz-adv-x="262" d="M 90 285 L 113 445 L 273 445 L 250 285 L 90 285 Z M 50 0 L 73 160 L 233 160 L 210 0 L 50 0 Z" unicode=":" />
<glyph horiz-adv-x="274" d="M 99 285 L 122 445 L 282 445 L 259 285 L 99 285 Z M 105 -191 L -12 -140 C 11 -108 28 -77 39 -49 C 50 -20 59 15 65 57 L 80 161 L 244 161 L 230 62 C 220 -4 204 -57 181 -97 C 157 -137 132 -168 105 -191 Z" unicode=";" />
<glyph horiz-adv-x="537" d="M 288 76 L 99 292 L 351 508 L 550 508 L 298 292 L 489 76 L 288 76 Z" unicode="&#x3C;" />
<glyph horiz-adv-x="550" d="M 105 334 L 124 467 L 556 467 L 537 334 L 105 334 Z M 77 128 L 96 261 L 528 261 L 509 128 L 77 128 Z" unicode="=" />
<glyph horiz-adv-x="536" d="M 69 76 L 320 292 L 130 508 L 329 508 L 519 292 L 270 76 L 69 76 Z" unicode="&#x3E;" />
<glyph horiz-adv-x="481" d="M 173 221 C 177 259 188 292 205 322 C 221 352 246 381 279 409 C 301 429 317 447 326 461 C 335 475 340 488 340 502 C 340 520 332 534 317 544 C 301 554 280 560 254 560 C 229 560 204 556 178 550 C 152 544 128 535 106 524 L 128 676 C 154 685 185 693 219 699 C 253 705 286 708 319 708 C 382 708 432 693 469 665 C 505 636 524 597 524 547 C 524 515 515 484 497 454 C 479 424 451 392 413 360 C 386 337 366 315 353 293 C 339 271 331 247 327 221 L 173 221 Z M 139 1 L 159 149 L 323 149 L 303 1 L 139 1 Z" unicode="?" />
<glyph horiz-adv-x="806" d="M 394 -79 C 304 -79 229 -51 169 5 C 109 61 80 138 80 236 C 80 353 118 448 196 522 C 273 595 370 632 487 632 C 578 632 654 606 715 556 C 776 505 807 436 807 349 C 807 273 789 214 753 170 C 717 126 674 105 622 105 C 600 105 578 109 556 119 C 534 128 516 145 502 170 C 488 147 471 130 450 120 C 428 110 407 105 386 105 C 350 105 321 116 299 139 C 276 162 265 196 265 240 C 265 300 284 349 324 389 C 364 429 411 449 467 449 C 487 449 508 446 532 442 C 556 437 578 430 598 422 L 578 272 C 575 250 578 231 588 217 C 597 202 611 195 630 195 C 654 195 673 209 687 238 C 700 266 707 302 707 345 C 707 399 687 445 647 482 C 607 518 554 537 487 537 C 392 537 317 508 262 451 C 207 394 180 323 180 238 C 180 174 199 121 238 80 C 276 38 329 18 397 18 C 425 18 455 22 489 30 C 522 38 550 49 574 62 L 565 -44 C 540 -54 512 -63 481 -69 C 449 -75 420 -79 394 -79 Z M 418 208 C 432 208 446 216 458 233 C 470 249 477 270 481 294 L 488 345 C 482 346 477 347 471 349 C 465 350 458 351 450 351 C 428 351 410 342 396 324 C 382 306 375 285 375 261 C 375 245 378 233 386 223 C 393 213 404 208 418 208 Z" unicode="@" />
<glyph horiz-adv-x="722" d="M 14 0 L 369 658 L 538 658 L 708 0 L 525 0 L 496 118 L 252 118 L 191 0 L 14 0 Z M 319 248 L 466 248 L 446 332 L 421 453 L 362 332 L 319 248 Z" unicode="A" />
<glyph horiz-adv-x="594" d="M 62 0 L 154 658 L 394 658 C 461 658 512 644 548 618 C 583 592 601 555 601 507 C 601 465 589 429 567 398 C 544 367 512 345 470 332 C 505 323 532 307 552 284 C 571 261 581 233 581 199 C 581 137 558 89 512 53 C 466 17 401 0 316 0 L 62 0 Z M 293 393 L 341 393 C 366 393 385 399 399 413 C 412 427 419 445 419 468 C 419 486 413 501 403 511 C 393 521 377 526 357 526 L 312 526 L 293 393 Z M 258 138 L 317 138 C 345 138 366 144 381 158 C 395 171 403 190 403 214 C 403 232 397 247 385 257 C 373 267 355 273 333 273 L 277 273 L 258 138 Z" unicode="B" />
<glyph horiz-adv-x="655" d="M 417 -14 C 316 -14 236 13 176 68 C 116 122 87 196 87 289 C 87 403 124 495 199 566 C 274 636 372 672 492 672 C 528 672 563 668 596 661 C 629 653 661 642 692 627 L 668 460 C 639 478 609 491 579 500 C 549 509 517 514 483 514 C 417 514 365 494 327 454 C 289 414 271 363 271 301 C 271 255 285 217 315 188 C 345 159 385 145 437 145 C 473 145 507 149 540 159 C 573 169 606 183 639 203 L 616 35 C 583 18 550 6 517 -2 C 483 -10 450 -14 417 -14 Z" unicode="C" />
<glyph horiz-adv-x="710" d="M 62 0 L 154 658 L 394 658 C 494 658 572 631 630 577 C 688 523 717 454 717 371 C 717 262 679 173 604 104 C 528 34 427 0 300 0 L 62 0 Z M 261 159 L 320 159 C 386 159 438 177 476 215 C 514 253 533 301 533 359 C 533 399 518 433 490 459 C 461 485 422 499 372 499 L 308 499 L 261 159 Z" unicode="D" />
<glyph horiz-adv-x="535" d="M 62 0 L 155 658 L 566 658 L 544 500 L 310 500 L 296 402 L 521 402 L 501 261 L 276 261 L 261 158 L 506 158 L 483 0 L 62 0 Z" unicode="E" />
<glyph horiz-adv-x="488" d="M 62 0 L 155 658 L 545 658 L 522 500 L 308 500 L 294 395 L 489 395 L 467 242 L 272 242 L 238 0 L 62 0 Z" unicode="F" />
<glyph horiz-adv-x="715" d="M 422 -14 C 318 -14 236 13 176 67 C 116 121 87 194 87 285 C 87 399 124 492 200 564 C 276 636 374 672 494 672 C 532 672 572 668 613 661 C 653 653 689 644 720 632 L 697 467 C 667 481 633 493 596 501 C 559 509 524 514 490 514 C 422 514 369 493 330 452 C 290 411 271 360 271 298 C 271 253 285 216 313 186 C 341 156 379 142 425 142 C 441 142 456 142 469 144 C 482 146 494 149 506 153 L 518 244 L 408 244 L 428 385 L 719 385 L 671 41 C 629 22 587 8 546 0 C 505 -9 464 -14 422 -14 Z" unicode="G" />
<glyph horiz-adv-x="712" d="M 62 0 L 154 658 L 331 658 L 296 410 L 531 410 L 566 658 L 742 658 L 650 0 L 474 0 L 509 251 L 274 251 L 239 0 L 62 0 Z" unicode="H" />
<glyph horiz-adv-x="301" d="M 62 0 L 154 658 L 331 658 L 239 0 L 62 0 Z" unicode="I" />
<glyph horiz-adv-x="304" d="M -41 -215 L -58 -215 L -37 -64 L -29 -64 C -2 -64 19 -58 36 -46 C 52 -34 63 -12 68 22 L 157 658 L 334 658 L 245 22 C 233 -60 202 -120 151 -158 C 100 -196 36 -215 -41 -215 Z" unicode="J" />
<glyph horiz-adv-x="693" d="M 62 0 L 155 658 L 332 658 L 290 366 L 554 658 L 763 658 L 465 333 L 672 0 L 465 0 L 282 305 L 239 0 L 62 0 Z" unicode="K" />
<glyph horiz-adv-x="503" d="M 62 0 L 154 658 L 331 658 L 261 160 L 501 160 L 479 0 L 62 0 Z" unicode="L" />
<glyph horiz-adv-x="879" d="M 62 0 L 154 658 L 402 658 L 457 443 L 481 327 L 538 443 L 651 658 L 909 658 L 817 0 L 642 0 L 690 341 L 715 479 L 644 341 L 509 88 L 380 88 L 315 342 L 284 473 L 271 341 L 223 0 L 62 0 Z" unicode="M" />
<glyph horiz-adv-x="746" d="M 62 0 L 154 658 L 348 658 L 518 333 L 560 242 L 569 333 L 615 658 L 776 658 L 684 0 L 494 0 L 320 328 L 279 418 L 269 328 L 223 0 L 62 0 Z" unicode="N" />
<glyph horiz-adv-x="788" d="M 413 -16 C 316 -16 237 11 177 66 C 117 121 87 196 87 291 C 87 400 123 491 195 564 C 267 637 357 674 466 674 C 563 674 642 646 703 591 C 763 536 794 461 794 367 C 794 257 757 165 685 93 C 613 20 522 -16 413 -16 Z M 422 142 C 476 142 521 162 557 202 C 593 242 611 293 611 355 C 611 403 597 442 569 472 C 541 502 504 517 458 517 C 403 517 358 497 323 457 C 287 417 270 366 270 304 C 270 256 283 217 311 187 C 338 157 375 142 422 142 Z" unicode="O" />
<glyph horiz-adv-x="573" d="M 62 0 L 154 658 L 377 658 C 444 658 499 638 541 599 C 583 560 604 510 604 449 C 604 376 577 315 523 265 C 469 215 398 190 312 190 L 265 190 L 239 0 L 62 0 Z M 286 338 L 319 338 C 351 338 376 346 396 364 C 416 381 426 404 426 434 C 426 456 418 474 404 487 C 389 500 369 507 344 507 L 310 507 L 286 338 Z" unicode="P" />
<glyph horiz-adv-x="790" d="M 413 -16 C 316 -16 237 11 177 66 C 117 121 87 196 87 291 C 87 400 123 491 195 564 C 267 637 357 674 466 674 C 563 674 642 646 703 591 C 763 536 794 461 794 367 C 794 295 778 231 746 174 C 714 116 671 71 617 39 C 635 25 655 12 676 2 C 696 -8 717 -17 739 -23 L 650 -165 C 608 -152 567 -132 526 -106 C 484 -80 448 -50 417 -16 L 413 -16 Z M 422 142 C 476 142 521 162 557 202 C 593 242 611 293 611 355 C 611 403 597 442 569 472 C 541 502 504 517 458 517 C 403 517 358 497 323 457 C 287 417 270 366 270 304 C 270 256 283 217 311 187 C 338 157 375 142 422 142 Z" unicode="Q" />
<glyph horiz-adv-x="621" d="M 62 0 L 155 658 L 408 658 C 470 658 519 643 554 614 C 589 585 607 545 607 493 C 607 449 593 411 566 379 C 539 347 502 325 455 313 C 483 304 506 291 524 273 C 542 255 554 232 560 205 L 605 0 L 424 0 L 386 186 C 381 210 372 227 360 238 C 348 248 332 254 313 254 L 275 254 L 239 0 L 62 0 Z M 292 379 L 342 379 C 366 379 385 386 400 402 C 415 417 423 436 423 459 C 423 477 417 492 406 504 C 394 515 379 521 361 521 L 312 521 L 292 379 Z" unicode="R" />
<glyph horiz-adv-x="549" d="M 255 -14 C 222 -14 189 -10 156 -3 C 123 3 92 13 63 27 L 86 191 C 112 174 141 161 172 153 C 203 145 234 141 265 141 C 291 141 310 145 324 155 C 338 164 345 177 345 194 C 345 207 339 218 329 228 C 319 237 302 246 280 255 L 261 261 C 211 278 172 302 146 334 C 120 365 107 402 107 444 C 107 508 130 562 178 606 C 225 649 291 671 375 671 C 406 671 438 668 470 662 C 502 656 533 647 561 636 L 537 472 C 511 486 483 498 455 506 C 426 514 398 519 371 519 C 348 519 330 514 318 505 C 306 496 300 484 300 469 C 300 456 305 445 316 436 C 326 427 343 418 367 410 L 386 404 C 433 387 470 363 496 333 C 522 302 535 264 535 220 C 535 154 510 99 462 54 C 413 8 344 -14 255 -14 Z" unicode="S" />
<glyph horiz-adv-x="575" d="M 199 0 L 269 498 L 90 498 L 113 658 L 647 658 L 624 498 L 445 498 L 375 0 L 199 0 Z" unicode="T" />
<glyph horiz-adv-x="693" d="M 363 -12 C 271 -12 200 14 151 67 C 101 119 82 185 93 265 L 148 658 L 330 658 L 276 272 C 271 238 278 210 296 188 C 314 166 341 156 377 156 C 412 156 441 166 465 188 C 489 210 503 238 508 272 L 563 658 L 729 658 L 673 261 C 661 176 627 109 571 61 C 514 12 445 -12 363 -12 Z" unicode="U" />
<glyph horiz-adv-x="709" d="M 271 0 L 104 658 L 293 658 L 370 326 L 390 217 L 440 326 L 610 658 L 787 658 L 436 0 L 271 0 Z" unicode="V" />
<glyph horiz-adv-x="1039" d="M 209 0 L 104 658 L 289 658 L 333 326 L 342 211 L 385 326 L 524 658 L 708 658 L 753 326 L 764 214 L 805 326 L 942 658 L 1117 658 L 825 0 L 631 0 L 590 304 L 579 430 L 530 304 L 402 0 L 209 0 Z" unicode="W" />
<glyph horiz-adv-x="702" d="M 17 0 L 296 335 L 117 658 L 326 658 L 395 526 L 421 468 L 464 526 L 573 658 L 771 658 L 502 336 L 687 0 L 478 0 L 403 146 L 376 202 L 332 145 L 216 0 L 17 0 Z" unicode="X" />
<glyph horiz-adv-x="685" d="M 254 0 L 289 250 L 100 658 L 297 658 L 371 490 L 399 416 L 446 490 L 565 658 L 765 658 L 465 251 L 430 0 L 254 0 Z" unicode="Y" />
<glyph horiz-adv-x="629" d="M 46 0 L 60 99 L 340 435 L 396 498 L 123 498 L 146 658 L 677 658 L 664 559 L 385 223 L 329 160 L 607 160 L 585 0 L 46 0 Z" unicode="Z" />
<glyph horiz-adv-x="387" d="M 40 -215 L 171 716 L 441 716 L 422 583 L 312 583 L 218 -82 L 329 -82 L 310 -215 L 40 -215 Z" unicode="[" />
<glyph horiz-adv-x="516" d="M 338 0 L 123 716 L 275 716 L 490 0 L 338 0 Z" unicode="\" />
<glyph horiz-adv-x="388" d="M 17 -215 L 36 -82 L 146 -82 L 239 583 L 129 583 L 147 716 L 417 716 L 286 -215 L 17 -215 Z" unicode="]" />
<glyph horiz-adv-x="378" d="M 94 524 L 207 686 L 369 686 L 436 524 L 304 524 L 275 593 L 226 524 L 94 524 Z" unicode="^" />
<glyph horiz-adv-x="448" d="M -30 -210 L -12 -85 L 436 -85 L 418 -210 L -30 -210 Z" unicode="_" />
<glyph horiz-adv-x="237" d="M 145 524 L 39 678 L 225 678 L 309 524 L 145 524 Z" unicode="`" />
<glyph horiz-adv-x="558" d="M 218 -11 C 172 -11 133 5 103 38 C 72 71 57 119 57 182 C 57 267 86 338 144 396 C 202 454 276 483 366 483 C 396 483 429 480 465 474 C 501 468 535 461 567 452 L 527 169 C 523 143 521 115 519 86 C 517 56 516 28 516 0 L 358 0 L 358 79 C 341 47 321 24 297 10 C 273 -3 246 -11 218 -11 Z M 283 137 C 303 137 321 147 337 169 C 353 191 364 227 372 277 L 381 338 C 373 340 366 342 358 344 C 350 346 341 347 333 347 C 305 347 281 333 259 306 C 237 279 227 247 227 210 C 227 186 231 168 241 156 C 250 143 264 137 283 137 Z" unicode="a" />
<glyph horiz-adv-x="543" d="M 260 -11 C 226 -11 189 -8 151 -4 C 113 0 77 7 45 16 L 143 717 L 314 717 L 280 478 L 271 420 C 287 442 305 458 327 469 C 349 479 373 485 401 485 C 445 485 482 468 511 434 C 539 400 554 352 554 291 C 554 207 526 136 471 77 C 415 18 345 -11 260 -11 Z M 284 130 C 313 130 337 142 357 166 C 377 190 387 221 387 261 C 387 285 382 305 373 320 C 363 334 349 342 331 342 C 310 342 291 331 275 310 C 258 288 246 252 239 200 L 230 136 C 236 134 245 132 255 131 C 265 130 275 130 284 130 Z" unicode="b" />
<glyph horiz-adv-x="459" d="M 284 -11 C 217 -11 163 9 122 50 C 81 91 61 143 61 207 C 61 287 86 353 138 405 C 190 457 259 483 346 483 C 369 483 392 480 415 475 C 437 470 460 463 482 454 L 461 302 C 441 313 422 321 405 327 C 388 333 368 336 346 336 C 312 336 285 325 265 304 C 245 283 236 256 236 222 C 236 195 243 174 259 159 C 275 143 296 136 324 136 C 347 136 368 139 388 147 C 408 154 428 164 448 178 L 427 26 C 404 13 381 4 358 -2 C 335 -8 310 -11 284 -11 Z" unicode="c" />
<glyph horiz-adv-x="558" d="M 218 -11 C 172 -11 133 5 103 37 C 72 69 57 116 57 178 C 57 266 84 338 138 396 C 192 454 260 483 342 483 C 350 483 359 482 369 482 C 379 481 388 480 397 478 L 431 716 L 604 716 L 527 169 C 523 143 521 115 519 86 C 517 56 516 28 516 0 L 358 0 L 358 79 C 341 47 321 24 297 10 C 273 -3 246 -11 218 -11 Z M 283 137 C 303 137 321 147 337 169 C 353 191 364 227 372 277 L 381 338 C 373 340 365 342 357 344 C 349 346 341 347 333 347 C 305 347 281 333 259 306 C 237 279 227 247 227 210 C 227 187 231 169 241 156 C 250 143 264 137 283 137 Z" unicode="d" />
<glyph horiz-adv-x="509" d="M 300 -13 C 223 -13 164 7 123 48 C 81 89 61 142 61 207 C 61 285 86 352 138 406 C 189 460 257 487 342 487 C 394 487 437 473 473 445 C 508 417 526 383 526 341 C 526 295 508 257 473 229 C 437 200 372 184 276 180 L 236 178 C 240 158 250 143 267 133 C 284 123 308 118 339 118 C 365 118 393 121 421 129 C 449 137 475 148 500 164 L 480 24 C 451 11 421 2 390 -4 C 359 -10 329 -13 300 -13 Z M 323 371 C 303 371 286 363 272 347 C 258 331 248 308 244 280 L 283 282 C 307 282 327 287 342 297 C 356 306 364 319 364 336 C 364 346 360 355 353 361 C 345 367 335 371 323 371 Z" unicode="e" />
<glyph horiz-adv-x="352" d="M 86 0 L 133 331 L 69 331 L 89 474 L 153 474 L 158 513 C 166 575 193 626 237 666 C 281 706 337 727 405 727 C 427 727 450 724 473 720 C 496 716 518 709 540 700 L 518 548 C 500 557 483 564 466 569 C 448 574 431 577 414 577 C 389 577 369 570 354 557 C 339 544 330 525 326 501 L 322 474 L 405 474 L 385 331 L 302 331 L 256 0 L 86 0 Z" unicode="f" />
<glyph horiz-adv-x="547" d="M 223 -220 C 195 -220 165 -217 132 -213 C 98 -208 66 -201 35 -191 L 56 -42 C 77 -55 101 -65 129 -73 C 156 -81 181 -85 204 -85 C 240 -85 270 -77 292 -62 C 314 -47 328 -24 333 6 L 339 53 C 322 28 304 10 284 0 C 264 -10 242 -16 218 -16 C 172 -16 133 0 103 34 C 72 67 57 115 57 179 C 57 264 86 336 144 395 C 202 453 275 483 365 483 C 395 483 428 480 464 474 C 500 468 534 461 566 452 L 504 8 C 492 -71 463 -129 415 -165 C 367 -201 303 -220 223 -220 Z M 283 134 C 303 134 321 145 337 167 C 353 189 364 225 372 275 L 381 337 C 373 339 365 341 357 343 C 349 344 341 345 333 345 C 305 345 281 331 259 304 C 237 277 227 245 227 207 C 227 183 231 165 241 153 C 250 140 264 134 283 134 Z" unicode="g" />
<glyph horiz-adv-x="535" d="M 42 0 L 143 716 L 314 716 L 279 473 C 277 462 275 449 273 435 C 271 420 268 406 266 394 C 282 424 303 447 328 462 C 353 477 380 485 409 485 C 453 485 488 470 514 441 C 539 411 547 372 539 322 L 506 133 C 502 112 499 90 497 66 C 495 42 495 20 495 0 L 325 0 C 325 21 325 43 327 66 C 328 89 331 111 335 133 L 362 275 C 366 294 364 309 356 319 C 348 329 338 335 326 335 C 309 335 292 325 276 306 C 260 286 247 247 239 189 L 213 0 L 42 0 Z" unicode="h" />
<glyph horiz-adv-x="267" d="M 124 563 L 145 716 L 316 716 L 294 563 L 124 563 Z M 54 0 C 54 20 55 42 57 65 C 59 87 61 110 64 132 L 112 474 L 282 474 L 234 132 C 231 110 229 88 227 66 C 225 43 224 21 225 0 L 54 0 Z" unicode="i" />
<glyph horiz-adv-x="265" d="M 129 563 L 151 716 L 321 716 L 300 563 L 129 563 Z M -66 -215 L -74 -215 L -54 -71 L -46 -71 C -19 -71 3 -63 21 -47 C 39 -31 50 -8 54 21 L 117 474 L 287 474 L 224 21 C 214 -49 183 -106 133 -150 C 82 -193 16 -215 -66 -215 Z" unicode="j" />
<glyph horiz-adv-x="545" d="M 42 0 L 143 716 L 314 716 L 253 279 C 285 309 314 341 341 374 C 368 407 392 441 413 475 L 595 474 C 570 430 542 389 510 349 C 478 309 445 274 412 244 L 536 0 L 344 0 L 242 212 L 213 0 L 42 0 Z" unicode="k" />
<glyph horiz-adv-x="269" d="M 58 0 C 56 21 56 43 57 67 C 57 91 59 113 62 133 L 144 716 L 315 716 L 233 133 C 230 113 228 91 227 67 C 226 43 226 21 228 0 L 58 0 Z" unicode="l" />
<glyph horiz-adv-x="821" d="M 50 0 L 99 345 C 101 366 104 387 106 409 C 108 431 109 452 109 474 L 279 474 C 279 465 278 455 278 445 C 278 434 277 424 277 416 L 276 395 C 292 425 312 448 336 463 C 360 477 386 485 415 485 C 443 485 470 477 495 463 C 520 448 537 424 546 390 C 566 428 590 454 618 466 C 646 478 671 485 695 485 C 740 485 775 470 801 440 C 827 410 835 371 827 322 L 793 133 C 789 110 786 87 784 65 C 782 42 781 20 781 0 L 610 0 C 610 20 611 42 613 65 C 615 88 618 111 623 134 L 650 275 C 653 293 651 308 644 319 C 637 329 626 335 612 335 C 592 335 575 323 560 300 C 544 276 533 239 527 189 L 500 0 L 330 0 L 369 275 C 371 295 369 310 362 320 C 354 330 344 335 332 335 C 312 335 295 323 280 300 C 265 276 254 239 247 189 L 221 0 L 50 0 Z" unicode="m" />
<glyph horiz-adv-x="545" d="M 52 0 L 100 345 C 102 365 104 387 106 410 C 108 432 109 454 109 474 L 279 474 C 279 464 279 454 279 444 C 279 433 278 423 278 415 L 278 395 C 294 425 315 448 340 463 C 364 477 390 485 418 485 C 462 485 497 470 523 441 C 548 411 556 372 548 322 L 515 133 C 511 112 509 90 507 66 C 505 42 505 20 505 0 L 334 0 C 334 21 334 43 336 66 C 338 89 341 111 345 133 L 372 275 C 376 294 374 309 366 319 C 358 329 348 335 336 335 C 316 335 298 323 282 300 C 266 276 255 239 249 189 L 222 0 L 52 0 Z" unicode="n" />
<glyph horiz-adv-x="547" d="M 284 -14 C 214 -14 160 5 120 44 C 80 83 60 136 60 202 C 60 283 86 351 138 406 C 190 460 255 488 333 488 C 401 488 455 468 495 430 C 535 391 555 339 555 273 C 555 191 529 123 477 68 C 425 13 361 -14 284 -14 Z M 298 134 C 322 134 343 145 361 169 C 378 193 387 223 387 261 C 387 284 380 303 367 318 C 354 333 338 341 318 341 C 293 341 272 329 255 305 C 237 281 229 251 229 213 C 229 189 235 170 248 156 C 260 141 277 134 298 134 Z" unicode="o" />
<glyph horiz-adv-x="553" d="M 23 -210 L 101 345 C 103 367 105 389 107 410 C 108 430 109 452 109 474 L 262 474 L 262 391 C 278 423 299 447 324 462 C 349 477 377 485 408 485 C 454 485 491 468 520 435 C 549 402 564 354 564 290 C 564 207 538 136 486 77 C 434 18 368 -11 289 -11 C 278 -11 267 -10 255 -9 C 243 -7 233 -5 223 -3 L 193 -210 L 23 -210 Z M 300 123 C 328 123 352 135 371 161 C 389 186 399 218 399 257 C 399 282 394 302 385 317 C 375 331 361 339 343 339 C 326 339 308 330 290 313 C 272 295 259 257 251 197 L 242 131 C 249 128 258 126 268 125 C 278 123 289 123 300 123 Z" unicode="p" />
<glyph horiz-adv-x="548" d="M 303 -210 L 341 57 C 325 34 307 17 286 6 C 265 -5 242 -11 218 -11 C 172 -11 133 5 103 38 C 72 71 57 119 57 182 C 57 266 85 338 143 396 C 201 454 275 483 366 483 C 396 483 429 480 465 474 C 501 468 535 461 567 453 L 474 -210 L 303 -210 Z M 283 137 C 303 137 321 147 337 169 C 353 191 364 227 372 277 L 381 338 C 373 340 366 342 358 344 C 350 346 341 347 333 347 C 305 347 281 333 259 306 C 237 279 227 247 227 210 C 227 187 231 169 241 156 C 250 143 264 137 283 137 Z" unicode="q" />
<glyph horiz-adv-x="399" d="M 50 0 L 99 349 C 101 371 104 392 106 413 C 108 434 109 454 109 474 L 277 474 L 277 393 C 293 427 311 451 331 465 C 351 478 372 485 395 485 C 403 485 413 484 423 482 C 433 480 443 478 452 475 L 428 302 C 415 308 402 313 389 317 C 376 321 364 323 352 323 C 330 323 309 313 289 293 C 268 273 253 234 245 174 L 220 0 L 50 0 Z" unicode="r" />
<glyph horiz-adv-x="441" d="M 212 -13 C 184 -13 156 -10 128 -6 C 99 -2 71 4 45 13 L 64 146 C 86 134 109 125 135 119 C 160 113 185 110 211 110 C 225 110 236 113 245 117 C 253 121 258 129 258 139 C 258 146 254 152 247 157 C 239 161 229 166 217 170 L 189 177 C 153 186 125 202 106 226 C 86 250 77 280 77 317 C 77 367 94 407 130 439 C 166 471 217 487 285 487 C 310 487 337 485 365 481 C 393 477 420 471 446 463 L 429 336 C 408 346 386 353 362 359 C 338 364 315 367 293 367 C 280 367 270 364 262 360 C 254 356 251 349 251 341 C 251 333 253 327 259 322 C 264 317 273 313 286 309 L 314 302 C 351 291 380 274 400 250 C 420 226 431 197 431 162 C 431 110 412 67 375 35 C 338 3 284 -13 212 -13 Z" unicode="s" />
<glyph horiz-adv-x="372" d="M 233 -11 C 187 -11 153 3 131 32 C 109 61 101 100 108 149 L 133 331 L 69 331 L 89 474 L 153 474 L 172 605 L 342 605 L 323 474 L 411 474 L 391 331 L 304 331 L 283 187 C 281 172 282 160 288 152 C 294 144 303 140 316 140 C 324 140 333 141 341 143 C 349 145 358 149 366 154 L 345 9 C 326 2 308 -2 290 -6 C 272 -9 253 -11 233 -11 Z" unicode="t" />
<glyph horiz-adv-x="546" d="M 193 -11 C 148 -11 113 3 88 33 C 63 63 55 102 63 152 L 95 348 C 98 370 101 393 103 415 C 105 437 107 456 107 474 L 277 474 C 277 453 276 432 274 410 C 272 388 269 367 265 345 L 240 200 C 236 179 237 164 244 154 C 250 144 261 140 276 140 C 296 140 314 151 329 173 C 343 195 355 232 363 285 L 389 474 L 560 474 L 512 133 C 509 113 507 91 506 67 C 504 43 504 21 504 0 L 334 0 L 334 79 C 317 49 296 26 272 11 C 248 -3 221 -11 193 -11 Z" unicode="u" />
<glyph horiz-adv-x="506" d="M 146 0 L 75 474 L 247 474 L 272 280 L 281 152 C 304 200 325 251 345 305 C 365 359 383 415 400 474 L 560 474 C 530 382 498 297 463 219 C 428 141 391 68 351 0 L 146 0 Z" unicode="v" />
<glyph horiz-adv-x="780" d="M 129 0 L 75 474 L 242 474 L 261 279 L 266 164 C 286 214 306 266 325 318 C 344 370 362 422 379 474 L 533 474 L 560 280 L 573 162 C 595 215 616 267 634 319 C 652 371 668 422 683 474 L 834 474 C 811 394 782 314 748 232 C 714 150 676 72 636 0 L 457 0 L 435 163 L 427 255 C 411 211 394 167 376 124 C 358 81 339 40 320 0 L 129 0 Z" unicode="w" />
<glyph horiz-adv-x="540" d="M 9 0 L 208 242 L 84 474 L 275 474 L 313 394 L 325 364 L 345 394 L 405 474 L 587 474 L 399 245 L 531 0 L 335 0 L 294 82 L 281 114 L 258 82 L 195 0 L 9 0 Z" unicode="x" />
<glyph horiz-adv-x="530" d="M 388 11 C 335 -65 275 -121 209 -159 C 142 -196 69 -215 -11 -215 L -22 -215 L -1 -66 L 11 -66 C 43 -66 74 -60 104 -49 C 134 -38 161 -23 185 -4 L 169 -2 L 77 474 L 256 474 L 288 280 L 305 127 C 325 169 344 217 362 273 C 379 328 397 395 416 474 L 577 474 C 553 376 525 288 493 210 C 461 132 426 66 388 11 Z" unicode="y" />
<glyph horiz-adv-x="485" d="M 32 0 L 46 98 L 204 273 L 257 330 L 82 330 L 102 474 L 510 474 L 496 376 L 336 201 L 283 144 L 471 144 L 451 0 L 32 0 Z" unicode="z" />
<glyph horiz-adv-x="483" d="M 372 -215 C 294 -215 237 -198 201 -164 C 165 -130 154 -83 167 -21 L 189 86 C 195 113 188 135 168 152 C 148 168 119 180 79 186 L 97 315 C 139 321 172 333 196 349 C 220 365 233 388 235 416 L 243 522 C 247 584 271 631 315 665 C 359 699 421 716 500 716 L 537 716 L 518 584 L 502 584 C 471 584 447 576 429 560 C 411 544 402 519 401 486 L 397 408 C 395 367 380 333 354 307 C 328 280 294 262 253 252 L 253 250 C 291 238 319 218 337 192 C 355 165 360 132 352 93 L 335 16 C 327 -17 330 -42 344 -58 C 358 -74 380 -83 411 -83 L 427 -83 L 409 -215 L 372 -215 Z" unicode="{" />
<glyph horiz-adv-x="276" d="M 40 -215 L 171 716 L 307 716 L 176 -215 L 40 -215 Z" unicode="|" />
<glyph horiz-adv-x="483" d="M 17 -215 L 36 -83 L 52 -83 C 82 -83 107 -74 125 -58 C 143 -42 152 -17 154 16 L 158 93 C 160 133 174 166 200 193 C 226 220 259 239 301 250 L 301 251 C 263 262 234 281 216 308 C 198 334 193 368 202 408 L 219 486 C 226 518 223 543 209 559 C 195 575 173 584 143 584 L 127 584 L 145 716 L 182 716 C 260 716 317 699 353 665 C 388 631 399 584 387 522 L 365 416 C 359 388 366 365 386 349 C 405 333 435 321 475 315 L 457 186 C 415 180 382 168 358 152 C 334 135 321 113 319 86 L 312 -21 C 307 -83 283 -130 239 -164 C 195 -198 133 -215 54 -215 L 17 -215 Z" unicode="}" />
<glyph horiz-adv-x="401" d="M 148 146 L 57 146 C 63 194 77 230 98 254 C 118 278 146 291 180 291 C 195 291 209 289 221 285 C 233 281 244 275 255 267 C 262 262 268 258 273 256 C 277 253 282 252 287 252 C 294 252 300 255 306 261 C 311 267 315 275 317 286 L 408 286 C 401 238 387 201 367 177 C 346 153 319 141 285 141 C 269 141 255 143 243 147 C 231 151 220 157 210 166 C 203 170 197 174 192 176 C 187 178 182 180 178 180 C 170 180 163 177 158 171 C 152 165 149 156 148 146 Z" unicode="~" />
<glyph horiz-adv-x="272" d="M 115 372 L 136 520 L 284 520 L 263 372 L 115 372 Z M 35 -198 L 104 300 L 252 300 L 183 -198 L 35 -198 Z" unicode="¡" />
<glyph horiz-adv-x="459" d="M 198 -107 L 213 -2 C 167 11 130 36 102 74 C 74 111 61 155 61 207 C 61 276 80 335 120 384 C 160 433 213 464 281 477 L 295 580 L 429 580 L 415 476 C 425 473 436 470 448 466 C 460 462 471 458 482 454 L 461 302 C 441 313 422 321 405 327 C 388 333 368 336 346 336 C 312 336 285 325 265 304 C 245 283 236 256 236 222 C 236 195 243 174 259 159 C 275 143 296 136 324 136 C 347 136 368 139 388 147 C 408 154 428 164 448 178 L 427 26 C 414 18 401 12 387 7 C 373 1 360 -2 347 -5 L 332 -107 L 198 -107 Z" unicode="¢" />
<glyph horiz-adv-x="565" d="M 59 0 L 78 135 C 102 148 123 166 140 188 C 156 210 167 237 171 267 L 90 267 L 110 408 L 166 408 C 162 489 183 554 227 602 C 271 650 342 674 438 674 C 468 674 498 670 526 664 C 554 657 582 647 610 633 L 587 475 C 565 491 541 504 516 512 C 491 520 464 525 435 525 C 399 525 372 515 352 496 C 332 476 322 447 324 408 L 439 408 L 419 267 L 330 267 C 328 247 323 229 316 211 C 308 193 298 176 286 161 L 543 161 L 521 0 L 59 0 Z" unicode="£" />
<glyph horiz-adv-x="745" d="M 179 2 L 68 132 L 205 252 C 203 259 201 267 200 275 C 199 283 199 291 199 299 C 199 317 201 335 205 353 C 209 371 214 387 221 403 L 116 525 L 263 654 L 366 534 C 333 523 304 506 279 483 C 254 460 235 433 221 403 L 256 362 L 403 491 L 366 534 C 378 538 392 541 406 543 C 420 545 434 547 449 547 C 462 547 475 545 488 543 C 501 540 513 536 525 532 L 478 491 L 589 362 L 634 402 C 628 432 615 458 595 481 C 575 504 552 521 525 532 L 664 654 L 775 525 L 634 402 C 635 396 636 389 637 383 C 637 377 638 370 638 364 C 638 343 635 323 631 303 C 626 283 619 265 611 249 L 713 130 L 565 1 L 458 126 C 447 123 436 121 424 119 C 412 117 401 117 389 117 C 377 117 366 118 355 120 C 343 122 333 124 323 128 L 179 2 Z M 408 252 C 436 252 458 261 475 279 C 491 297 500 318 500 342 C 500 360 493 375 480 389 C 467 403 450 410 430 410 C 402 410 379 400 363 382 C 347 364 339 343 339 320 C 339 302 345 286 358 272 C 370 258 387 252 408 252 Z" unicode="¤" />
<glyph horiz-adv-x="695" d="M 168 93 L 181 189 L 285 189 L 291 236 L 188 236 L 201 332 L 255 332 L 104 658 L 301 658 L 375 490 L 403 416 L 450 490 L 569 658 L 769 658 L 529 332 L 594 332 L 580 236 L 467 236 L 460 189 L 573 189 L 560 93 L 447 93 L 434 0 L 258 0 L 271 93 L 168 93 Z" unicode="¥" />
<glyph horiz-adv-x="276" d="M 114 309 L 171 716 L 307 716 L 250 309 L 114 309 Z M 40 -215 L 98 193 L 234 193 L 176 -215 L 40 -215 Z" unicode="¦" />
<glyph horiz-adv-x="488" d="M 236 -12 C 203 -12 172 -9 144 -5 C 115 0 87 6 60 16 L 78 141 C 102 130 126 122 150 116 C 174 110 200 107 228 107 C 246 107 259 109 268 114 C 277 119 282 127 282 138 C 282 145 278 151 271 157 C 263 162 252 166 238 170 L 210 177 C 174 186 145 201 124 221 C 103 241 93 267 93 301 C 93 325 99 347 112 368 C 125 388 144 405 168 418 C 152 430 141 445 133 463 C 125 481 121 500 121 522 C 121 570 140 608 180 638 C 219 668 272 683 338 683 C 365 683 393 681 421 677 C 449 673 477 666 504 658 L 488 538 C 465 548 442 555 420 560 C 397 565 374 568 352 568 C 335 568 322 565 314 560 C 306 555 302 548 302 538 C 302 531 304 525 310 521 C 316 516 325 512 338 509 L 365 502 C 403 492 434 475 458 453 C 481 431 493 403 493 371 C 493 348 487 326 475 306 C 463 285 446 268 424 254 C 436 242 446 227 453 211 C 459 195 463 177 463 157 C 463 106 442 65 401 34 C 360 3 305 -12 236 -12 Z M 317 220 C 337 221 357 225 375 231 C 393 237 409 245 424 254 C 413 262 401 270 387 277 C 373 283 358 288 340 292 L 310 297 C 316 302 321 308 325 316 C 329 323 331 331 331 339 C 331 349 326 358 318 365 C 309 372 296 377 280 381 C 283 383 287 384 292 385 C 296 386 301 387 306 387 L 253 442 C 236 441 221 438 207 434 C 193 430 180 424 168 418 C 177 410 188 404 201 398 C 213 392 227 388 242 386 L 279 381 L 280 381 C 271 376 264 370 260 362 C 255 354 253 346 253 338 C 253 328 257 319 265 313 C 273 306 286 301 304 298 L 310 297 C 305 293 299 290 293 288 C 287 285 280 283 272 283 L 317 220 Z" unicode="§" />
<glyph horiz-adv-x="329" d="M 79 527 L 97 659 L 230 659 L 211 527 L 79 527 Z M 269 527 L 288 659 L 420 659 L 401 527 L 269 527 Z" unicode="¨" />
<glyph horiz-adv-x="718" d="M 390 84 C 303 84 231 111 175 165 C 118 219 90 289 90 374 C 90 474 124 557 193 624 C 262 690 345 724 442 724 C 529 724 601 697 657 643 C 713 589 742 520 742 436 C 742 335 707 251 638 184 C 569 117 486 84 390 84 Z M 391 169 C 465 169 528 193 578 243 C 628 293 653 355 653 429 C 653 491 633 541 593 580 C 553 619 503 639 441 639 C 366 639 304 614 254 564 C 204 514 179 453 179 379 C 179 317 198 266 238 227 C 278 188 329 169 391 169 Z M 409 229 C 363 229 324 243 293 272 C 262 301 247 339 247 385 C 247 443 266 490 305 526 C 344 562 393 581 451 581 C 469 581 486 578 504 574 C 522 570 538 563 552 555 L 538 461 C 525 469 511 476 495 481 C 479 486 462 489 446 489 C 415 489 391 480 373 462 C 355 444 347 421 347 393 C 347 372 353 355 367 341 C 381 327 399 320 422 320 C 440 320 458 322 476 328 C 494 333 511 340 527 350 L 514 256 C 496 247 479 240 461 236 C 443 231 426 229 409 229 Z" unicode="©" />
<glyph horiz-adv-x="486" d="M 244 366 C 210 366 182 378 160 402 C 137 426 126 462 126 509 C 126 575 149 631 195 676 C 241 720 300 743 370 743 C 392 743 417 741 444 737 C 470 733 495 727 518 720 L 488 508 C 485 487 483 465 481 442 C 479 418 479 396 479 374 L 355 374 L 355 436 C 341 411 325 393 306 382 C 287 371 266 366 244 366 Z M 297 483 C 309 483 322 489 334 502 C 346 515 356 544 363 588 L 370 629 C 365 631 360 632 354 633 C 348 634 343 635 339 635 C 317 635 299 625 284 605 C 268 585 261 561 261 533 C 261 517 264 504 270 496 C 276 487 285 483 297 483 Z M 96 208 L 111 319 L 476 319 L 460 208 L 96 208 Z" unicode="ª" />
<glyph horiz-adv-x="639" d="M 441 59 L 317 226 L 487 394 L 659 394 L 490 226 L 613 59 L 441 59 Z M 192 59 L 68 226 L 238 394 L 410 394 L 241 226 L 364 59 L 192 59 Z" unicode="«" />
<glyph horiz-adv-x="489" d="M 340 111 L 355 221 L 73 221 L 91 346 L 492 346 L 459 111 L 340 111 Z" unicode="¬" />
<glyph horiz-adv-x="376" d="M 73 176 L 92 309 L 372 309 L 353 176 L 73 176 Z" unicode="­" />
<glyph horiz-adv-x="718" d="M 390 84 C 303 84 231 111 175 165 C 118 219 90 289 90 374 C 90 474 124 557 193 624 C 262 690 345 724 442 724 C 529 724 601 697 657 643 C 713 589 742 520 742 436 C 742 335 707 251 638 184 C 569 117 486 84 390 84 Z M 391 169 C 465 169 528 193 578 243 C 628 293 653 355 653 429 C 653 491 633 541 593 580 C 553 619 503 639 441 639 C 366 639 304 614 254 564 C 204 514 179 453 179 379 C 179 317 198 266 238 227 C 278 188 329 169 391 169 Z M 268 242 L 315 572 L 427 572 C 464 572 493 565 513 551 C 533 537 544 517 544 491 C 544 467 535 447 518 431 C 501 414 481 405 458 404 C 475 401 488 396 498 388 C 508 380 514 370 517 357 L 543 242 L 447 242 L 431 329 C 429 341 424 351 417 357 C 410 363 402 366 392 366 L 377 366 L 359 242 L 268 242 Z M 387 437 L 408 437 C 422 437 432 440 440 447 C 448 454 452 463 452 474 C 452 482 449 488 443 494 C 437 499 428 502 418 502 L 396 502 L 387 437 Z" unicode="®" />
<glyph horiz-adv-x="347" d="M 121 532 L 136 643 L 394 643 L 378 532 L 121 532 Z" unicode="¯" />
<glyph horiz-adv-x="373" d="M 256 442 C 214 442 180 454 155 479 C 129 503 117 535 117 573 C 117 620 132 659 164 689 C 195 719 234 735 280 735 C 322 735 355 722 381 698 C 407 673 420 642 420 604 C 420 556 404 517 372 487 C 340 457 302 442 256 442 Z M 264 539 C 279 539 292 544 302 554 C 312 564 318 577 318 593 C 318 605 313 616 304 625 C 295 633 284 638 272 638 C 256 638 243 633 233 623 C 223 613 218 600 218 585 C 218 572 222 561 231 552 C 240 543 251 539 264 539 Z" unicode="°" />
<glyph horiz-adv-x="518" d="M 202 77 L 223 224 L 82 224 L 101 357 L 243 357 L 263 505 L 399 505 L 379 357 L 519 357 L 500 224 L 359 224 L 338 77 L 202 77 Z M 14 -127 L 33 6 L 464 6 L 445 -127 L 14 -127 Z" unicode="±" />
<glyph horiz-adv-x="329" d="M 86 440 L 104 567 C 158 583 198 600 226 617 C 254 634 268 652 268 671 C 268 681 263 689 254 695 C 245 700 233 703 217 703 C 202 703 187 700 171 695 C 155 690 140 683 124 675 L 140 788 C 159 794 179 799 199 803 C 219 807 240 809 262 809 C 305 809 339 800 364 782 C 389 764 402 738 402 706 C 402 670 387 638 357 610 C 327 582 286 560 234 544 L 378 544 L 363 440 L 86 440 Z" unicode="²" />
<glyph horiz-adv-x="329" d="M 216 432 C 196 432 175 433 154 436 C 132 439 110 444 88 451 L 103 557 C 119 549 135 544 151 540 C 167 536 184 534 202 534 C 215 534 226 536 234 541 C 242 545 247 551 247 558 C 247 564 242 569 233 573 C 224 577 211 579 195 579 L 168 579 L 179 661 L 201 661 C 218 661 232 663 242 668 C 252 672 257 679 257 687 C 257 693 253 697 247 701 C 240 704 230 706 218 706 C 203 706 188 704 174 701 C 159 698 144 693 128 687 L 143 792 C 163 796 183 800 203 803 C 223 806 243 808 263 808 C 304 808 336 799 360 783 C 384 767 396 745 396 719 C 396 694 387 673 371 656 C 354 639 332 628 306 622 C 328 617 346 608 359 594 C 372 580 379 563 379 545 C 379 510 364 482 335 462 C 305 442 266 432 216 432 Z" unicode="³" />
<glyph horiz-adv-x="239" d="M 80 524 L 207 678 L 393 678 L 244 524 L 80 524 Z" unicode="´" />
<glyph horiz-adv-x="550" d="M 147 0 L 204 406 C 171 406 144 416 123 438 C 102 459 92 485 92 516 C 92 556 106 589 136 617 C 165 644 203 658 249 658 L 576 658 L 484 0 L 350 0 L 426 541 L 357 541 L 281 0 L 147 0 Z" unicode="¶" />
<glyph horiz-adv-x="236" d="M 74 188 L 93 324 L 230 324 L 210 188 L 74 188 Z" unicode="·" />
<glyph horiz-adv-x="229" d="M 97 -246 C 84 -246 71 -244 59 -242 C 47 -240 35 -236 25 -232 L 36 -151 C 45 -155 54 -159 63 -162 C 72 -164 81 -166 89 -166 C 99 -166 108 -163 114 -158 C 120 -152 123 -145 123 -137 C 123 -129 120 -123 116 -119 C 111 -115 104 -113 96 -113 L 87 -113 L 98 -40 L 109 -40 C 143 -40 171 -48 192 -66 C 212 -83 223 -106 223 -135 C 223 -167 211 -194 188 -215 C 164 -235 134 -246 97 -246 Z" unicode="¸" />
<glyph horiz-adv-x="318" d="M 91 440 L 105 542 L 170 542 L 191 691 L 121 685 L 135 788 L 341 807 L 304 542 L 368 542 L 354 440 L 91 440 Z" unicode="¹" />
<glyph horiz-adv-x="482" d="M 299 361 C 248 361 207 376 176 406 C 144 436 129 476 129 524 C 129 590 148 643 186 683 C 224 723 274 743 336 743 C 386 743 427 728 459 698 C 490 668 506 629 506 581 C 506 515 486 462 448 422 C 410 381 360 361 299 361 Z M 310 476 C 328 476 343 484 355 501 C 367 517 373 539 373 567 C 373 584 368 598 360 610 C 351 622 339 628 325 628 C 305 628 290 619 279 602 C 267 584 262 563 262 537 C 262 519 266 504 275 493 C 283 481 295 476 310 476 Z M 94 208 L 109 319 L 466 319 L 451 208 L 94 208 Z" unicode="º" />
<glyph horiz-adv-x="641" d="M 46 59 L 215 226 L 92 394 L 264 394 L 388 226 L 218 59 L 46 59 Z M 297 59 L 466 226 L 343 394 L 515 394 L 639 226 L 469 59 L 297 59 Z" unicode="»" />
<glyph horiz-adv-x="814" d="M 29 360 L 43 462 L 108 462 L 128 607 L 110 605 L 111 609 L 59 605 L 73 708 L 279 727 L 278 722 L 330 727 L 293 462 L 357 462 L 343 360 L 29 360 Z M 184 0 L 601 716 L 736 716 L 319 0 L 184 0 Z M 632 0 L 641 64 L 486 64 L 498 152 L 646 360 L 803 360 L 774 156 L 816 156 L 803 63 L 761 63 L 752 0 L 632 0 Z M 654 156 L 669 260 L 594 156 L 654 156 Z" unicode="¼" />
<glyph horiz-adv-x="803" d="M 29 360 L 43 462 L 108 462 L 128 607 L 110 605 L 111 609 L 59 605 L 73 708 L 279 727 L 278 722 L 330 727 L 293 462 L 357 462 L 343 360 L 29 360 Z M 184 0 L 601 716 L 736 716 L 319 0 L 184 0 Z M 500 1 L 518 128 C 572 144 612 161 640 178 C 668 195 682 213 682 232 C 682 242 677 250 668 256 C 659 261 647 264 631 264 C 616 264 601 261 585 256 C 569 251 554 244 538 236 L 554 349 C 573 355 593 360 613 364 C 633 368 654 370 676 370 C 719 370 753 361 778 343 C 803 325 816 299 816 267 C 816 231 801 199 771 171 C 741 143 700 121 648 105 L 792 105 L 777 1 L 500 1 Z" unicode="½" />
<glyph horiz-adv-x="792" d="M 205 352 C 185 352 164 353 143 356 C 121 359 99 364 77 371 L 92 477 C 108 469 124 464 140 460 C 156 456 173 454 191 454 C 204 454 215 456 223 461 C 231 465 236 471 236 478 C 236 484 231 489 222 493 C 213 497 200 499 184 499 L 157 499 L 168 581 L 190 581 C 207 581 221 583 231 588 C 241 592 246 599 246 607 C 246 613 242 617 236 621 C 229 624 219 626 207 626 C 192 626 177 624 163 621 C 148 618 133 613 117 607 L 132 712 C 152 716 172 720 192 723 C 212 726 232 728 252 728 C 293 728 325 719 349 703 C 373 687 385 665 385 639 C 385 614 376 593 360 576 C 343 559 321 548 295 542 C 317 537 335 528 348 514 C 361 500 368 483 368 465 C 368 430 353 402 324 382 C 294 362 255 352 205 352 Z M 170 0 L 587 716 L 722 716 L 305 0 L 170 0 Z M 610 0 L 619 64 L 464 64 L 476 152 L 624 360 L 781 360 L 752 156 L 794 156 L 781 63 L 739 63 L 730 0 L 610 0 Z M 632 156 L 647 260 L 572 156 L 632 156 Z" unicode="¾" />
<glyph horiz-adv-x="475" d="M 227 372 L 248 520 L 412 520 L 391 372 L 227 372 Z M 232 -188 C 168 -188 118 -173 81 -145 C 44 -116 26 -77 26 -27 C 26 5 35 37 53 67 C 71 97 100 128 138 161 C 164 183 184 206 197 228 C 210 250 219 274 224 300 L 378 300 C 372 262 361 228 345 198 C 329 168 304 140 272 112 C 248 91 232 74 223 60 C 214 46 210 32 210 19 C 210 1 217 -13 233 -24 C 248 -34 269 -40 296 -40 C 320 -40 346 -36 372 -30 C 398 -24 422 -15 445 -4 L 423 -155 C 396 -165 365 -173 331 -179 C 297 -185 264 -188 232 -188 Z" unicode="¿" />
<glyph horiz-adv-x="722" d="M 383 706 L 288 845 L 454 845 L 529 706 L 383 706 Z M 14 0 L 369 658 L 538 658 L 708 0 L 525 0 L 496 118 L 252 118 L 191 0 L 14 0 Z M 319 248 L 466 248 L 446 332 L 421 453 L 362 332 L 319 248 Z" unicode="À" />
<glyph horiz-adv-x="722" d="M 383 706 L 498 845 L 666 845 L 533 706 L 383 706 Z M 14 0 L 369 658 L 538 658 L 708 0 L 525 0 L 496 118 L 252 118 L 191 0 L 14 0 Z M 319 248 L 466 248 L 446 332 L 421 453 L 362 332 L 319 248 Z" unicode="Á" />
<glyph horiz-adv-x="722" d="M 311 706 L 410 852 L 542 852 L 601 706 L 491 706 L 466 769 L 423 706 L 311 706 Z M 14 0 L 369 658 L 538 658 L 708 0 L 525 0 L 496 118 L 252 118 L 191 0 L 14 0 Z M 319 248 L 466 248 L 446 332 L 421 453 L 362 332 L 319 248 Z" unicode="Â" />
<glyph horiz-adv-x="722" d="M 389 706 L 307 706 C 313 749 325 782 343 804 C 361 826 386 837 418 837 C 432 837 444 835 454 832 C 464 828 475 823 486 815 C 492 810 497 807 501 805 C 505 803 509 802 514 802 C 520 802 526 804 531 810 C 536 815 539 823 541 833 L 623 833 C 617 789 604 757 586 735 C 567 713 542 702 512 702 C 498 702 485 703 475 707 C 464 710 454 716 445 724 C 438 728 433 732 429 734 C 425 736 420 737 416 737 C 409 737 403 734 398 729 C 393 723 390 716 389 706 Z M 14 0 L 369 658 L 538 658 L 708 0 L 525 0 L 496 118 L 252 118 L 191 0 L 14 0 Z M 319 248 L 466 248 L 446 332 L 421 453 L 362 332 L 319 248 Z" unicode="Ã" />
<glyph horiz-adv-x="722" d="M 309 706 L 326 825 L 445 825 L 428 706 L 309 706 Z M 481 706 L 498 825 L 617 825 L 600 706 L 481 706 Z M 14 0 L 369 658 L 538 658 L 708 0 L 525 0 L 496 118 L 252 118 L 191 0 L 14 0 Z M 319 248 L 466 248 L 446 332 L 421 453 L 362 332 L 319 248 Z" unicode="Ä" />
<glyph horiz-adv-x="722" d="M 14 0 L 354 631 C 349 639 345 647 343 657 C 340 666 339 676 339 687 C 339 721 350 749 374 773 C 398 796 427 808 461 808 C 493 808 519 798 540 779 C 561 760 572 735 572 705 C 572 690 569 676 565 663 C 561 649 554 637 546 627 L 708 0 L 525 0 L 496 118 L 252 118 L 191 0 L 14 0 Z M 454 658 C 465 658 474 661 482 669 C 490 676 494 686 494 698 C 494 707 490 715 483 722 C 476 729 467 733 457 733 C 446 733 437 729 429 721 C 421 713 417 704 417 693 C 417 683 420 675 427 668 C 434 661 443 658 454 658 Z M 319 248 L 466 248 L 446 332 L 421 453 L 362 332 L 319 248 Z" unicode="Å" />
<glyph horiz-adv-x="884" d="M 4 0 L 426 658 L 907 658 L 888 526 L 632 526 L 614 399 L 861 399 L 842 267 L 596 267 L 577 132 L 843 132 L 824 0 L 418 0 L 440 160 L 260 160 L 158 0 L 4 0 Z M 345 292 L 459 292 L 492 525 L 419 408 L 345 292 Z" unicode="Æ" />
<glyph horiz-adv-x="655" d="M 417 -14 C 316 -14 236 13 176 68 C 116 122 87 196 87 289 C 87 403 124 495 199 566 C 274 636 372 672 492 672 C 528 672 563 668 596 661 C 629 653 661 642 692 627 L 668 460 C 639 478 609 491 579 500 C 549 509 517 514 483 514 C 417 514 365 494 327 454 C 289 414 271 363 271 301 C 271 255 285 217 315 188 C 345 159 385 145 437 145 C 473 145 507 149 540 159 C 573 169 606 183 639 203 L 616 35 C 583 18 550 6 517 -2 C 483 -10 450 -14 417 -14 Z M 370 -238 C 358 -238 346 -236 335 -234 C 323 -232 313 -228 303 -224 L 313 -148 C 321 -152 330 -156 338 -159 C 346 -161 354 -163 363 -163 C 372 -163 380 -160 386 -155 C 392 -150 395 -143 395 -135 C 395 -128 392 -123 387 -119 C 382 -115 376 -113 368 -113 L 358 -113 L 367 -47 L 381 -47 C 411 -47 435 -55 453 -71 C 471 -87 480 -107 480 -133 C 480 -164 469 -189 449 -209 C 428 -228 402 -238 370 -238 Z" unicode="Ç" />
<glyph horiz-adv-x="535" d="M 295 706 L 200 845 L 366 845 L 441 706 L 295 706 Z M 62 0 L 155 658 L 566 658 L 544 500 L 310 500 L 296 402 L 521 402 L 501 261 L 276 261 L 261 158 L 506 158 L 483 0 L 62 0 Z" unicode="È" />
<glyph horiz-adv-x="535" d="M 295 706 L 410 845 L 578 845 L 445 706 L 295 706 Z M 62 0 L 155 658 L 566 658 L 544 500 L 310 500 L 296 402 L 521 402 L 501 261 L 276 261 L 261 158 L 506 158 L 483 0 L 62 0 Z" unicode="É" />
<glyph horiz-adv-x="535" d="M 223 706 L 322 852 L 454 852 L 513 706 L 403 706 L 378 769 L 335 706 L 223 706 Z M 62 0 L 155 658 L 566 658 L 544 500 L 310 500 L 296 402 L 521 402 L 501 261 L 276 261 L 261 158 L 506 158 L 483 0 L 62 0 Z" unicode="Ê" />
<glyph horiz-adv-x="535" d="M 221 706 L 238 825 L 357 825 L 340 706 L 221 706 Z M 393 706 L 410 825 L 529 825 L 512 706 L 393 706 Z M 62 0 L 155 658 L 566 658 L 544 500 L 310 500 L 296 402 L 521 402 L 501 261 L 276 261 L 261 158 L 506 158 L 483 0 L 62 0 Z" unicode="Ë" />
<glyph horiz-adv-x="301" d="M 177 706 L 82 845 L 248 845 L 323 706 L 177 706 Z M 62 0 L 154 658 L 331 658 L 239 0 L 62 0 Z" unicode="Ì" />
<glyph horiz-adv-x="301" d="M 177 706 L 292 845 L 460 845 L 327 706 L 177 706 Z M 62 0 L 154 658 L 331 658 L 239 0 L 62 0 Z" unicode="Í" />
<glyph horiz-adv-x="301" d="M 105 706 L 204 852 L 336 852 L 395 706 L 285 706 L 260 769 L 217 706 L 105 706 Z M 62 0 L 154 658 L 331 658 L 239 0 L 62 0 Z" unicode="Î" />
<glyph horiz-adv-x="301" d="M 103 706 L 120 825 L 239 825 L 222 706 L 103 706 Z M 275 706 L 292 825 L 411 825 L 394 706 L 275 706 Z M 62 0 L 154 658 L 331 658 L 239 0 L 62 0 Z" unicode="Ï" />
<glyph horiz-adv-x="725" d="M 74 0 L 110 260 L 65 260 L 84 398 L 130 398 L 166 658 L 406 658 C 506 658 584 631 642 577 C 700 523 729 454 729 371 C 729 262 691 173 616 104 C 540 34 439 0 312 0 L 74 0 Z M 273 159 L 332 159 C 398 159 450 177 488 215 C 526 253 545 301 545 359 C 545 399 530 433 502 459 C 473 485 434 499 384 499 L 320 499 L 306 398 L 383 398 L 364 260 L 287 260 L 273 159 Z" unicode="Ð" />
<glyph horiz-adv-x="746" d="M 405 706 L 323 706 C 329 749 341 782 359 804 C 377 826 402 837 434 837 C 448 837 460 835 470 832 C 480 828 491 823 502 815 C 508 810 513 807 517 805 C 521 803 525 802 530 802 C 536 802 542 804 547 810 C 552 815 555 823 557 833 L 639 833 C 633 789 620 757 602 735 C 583 713 558 702 528 702 C 514 702 501 703 491 707 C 480 710 470 716 461 724 C 454 728 449 732 445 734 C 441 736 436 737 432 737 C 425 737 419 734 414 729 C 409 723 406 716 405 706 Z M 62 0 L 154 658 L 348 658 L 518 333 L 560 242 L 569 333 L 615 658 L 776 658 L 684 0 L 494 0 L 320 328 L 279 418 L 269 328 L 223 0 L 62 0 Z" unicode="Ñ" />
<glyph horiz-adv-x="788" d="M 403 715 L 308 854 L 474 854 L 549 715 L 403 715 Z M 413 -16 C 316 -16 237 11 177 66 C 117 121 87 196 87 291 C 87 400 123 491 195 564 C 267 637 357 674 466 674 C 563 674 642 646 703 591 C 763 536 794 461 794 367 C 794 257 757 165 685 93 C 613 20 522 -16 413 -16 Z M 422 142 C 476 142 521 162 557 202 C 593 242 611 293 611 355 C 611 403 597 442 569 472 C 541 502 504 517 458 517 C 403 517 358 497 323 457 C 287 417 270 366 270 304 C 270 256 283 217 311 187 C 338 157 375 142 422 142 Z" unicode="Ò" />
<glyph horiz-adv-x="788" d="M 403 715 L 518 854 L 686 854 L 553 715 L 403 715 Z M 413 -16 C 316 -16 237 11 177 66 C 117 121 87 196 87 291 C 87 400 123 491 195 564 C 267 637 357 674 466 674 C 563 674 642 646 703 591 C 763 536 794 461 794 367 C 794 257 757 165 685 93 C 613 20 522 -16 413 -16 Z M 422 142 C 476 142 521 162 557 202 C 593 242 611 293 611 355 C 611 403 597 442 569 472 C 541 502 504 517 458 517 C 403 517 358 497 323 457 C 287 417 270 366 270 304 C 270 256 283 217 311 187 C 338 157 375 142 422 142 Z" unicode="Ó" />
<glyph horiz-adv-x="788" d="M 331 715 L 430 861 L 562 861 L 621 715 L 511 715 L 486 778 L 443 715 L 331 715 Z M 413 -16 C 316 -16 237 11 177 66 C 117 121 87 196 87 291 C 87 400 123 491 195 564 C 267 637 357 674 466 674 C 563 674 642 646 703 591 C 763 536 794 461 794 367 C 794 257 757 165 685 93 C 613 20 522 -16 413 -16 Z M 422 142 C 476 142 521 162 557 202 C 593 242 611 293 611 355 C 611 403 597 442 569 472 C 541 502 504 517 458 517 C 403 517 358 497 323 457 C 287 417 270 366 270 304 C 270 256 283 217 311 187 C 338 157 375 142 422 142 Z" unicode="Ô" />
<glyph horiz-adv-x="788" d="M 409 715 L 327 715 C 333 758 345 791 363 813 C 381 835 406 846 438 846 C 452 846 464 844 474 841 C 484 837 495 832 506 824 C 512 819 517 816 521 814 C 525 812 529 811 534 811 C 540 811 546 813 551 819 C 556 824 559 832 561 842 L 643 842 C 637 798 624 766 606 744 C 587 722 562 711 532 711 C 518 711 505 712 495 716 C 484 719 474 725 465 733 C 458 737 453 741 449 743 C 445 745 440 746 436 746 C 429 746 423 743 418 738 C 413 732 410 725 409 715 Z M 413 -16 C 316 -16 237 11 177 66 C 117 121 87 196 87 291 C 87 400 123 491 195 564 C 267 637 357 674 466 674 C 563 674 642 646 703 591 C 763 536 794 461 794 367 C 794 257 757 165 685 93 C 613 20 522 -16 413 -16 Z M 422 142 C 476 142 521 162 557 202 C 593 242 611 293 611 355 C 611 403 597 442 569 472 C 541 502 504 517 458 517 C 403 517 358 497 323 457 C 287 417 270 366 270 304 C 270 256 283 217 311 187 C 338 157 375 142 422 142 Z" unicode="Õ" />
<glyph horiz-adv-x="788" d="M 329 715 L 346 834 L 465 834 L 448 715 L 329 715 Z M 501 715 L 518 834 L 637 834 L 620 715 L 501 715 Z M 413 -16 C 316 -16 237 11 177 66 C 117 121 87 196 87 291 C 87 400 123 491 195 564 C 267 637 357 674 466 674 C 563 674 642 646 703 591 C 763 536 794 461 794 367 C 794 257 757 165 685 93 C 613 20 522 -16 413 -16 Z M 422 142 C 476 142 521 162 557 202 C 593 242 611 293 611 355 C 611 403 597 442 569 472 C 541 502 504 517 458 517 C 403 517 358 497 323 457 C 287 417 270 366 270 304 C 270 256 283 217 311 187 C 338 157 375 142 422 142 Z" unicode="Ö" />
<glyph horiz-adv-x="527" d="M 169 75 L 80 177 L 206 287 L 105 403 L 213 499 L 314 382 L 444 496 L 532 394 L 402 280 L 498 168 L 389 73 L 295 185 L 169 75 Z" unicode="×" />
<glyph horiz-adv-x="788" d="M 115 -48 L 186 59 C 154 85 130 118 113 157 C 95 196 87 241 87 291 C 87 400 123 491 195 564 C 267 637 357 674 466 674 C 487 674 508 672 528 669 C 548 666 568 662 586 657 L 539 587 L 644 519 L 697 598 C 681 610 664 622 646 632 C 627 642 607 650 586 657 L 619 706 L 769 706 L 697 598 C 727 571 751 538 768 499 C 785 460 794 416 794 367 C 794 257 757 165 685 93 C 613 20 522 -16 413 -16 C 392 -16 372 -14 352 -12 C 332 -9 314 -5 297 0 L 265 -48 L 115 -48 Z M 422 142 C 476 142 521 162 557 202 C 593 242 611 293 611 355 C 611 403 597 442 569 472 C 541 502 504 517 458 517 C 403 517 358 497 323 457 C 287 417 270 366 270 304 C 270 256 283 217 311 187 C 338 157 375 142 422 142 Z" unicode="Ø" />
<glyph horiz-adv-x="693" d="M 380 706 L 285 845 L 451 845 L 526 706 L 380 706 Z M 363 -12 C 271 -12 200 14 151 67 C 101 119 82 185 93 265 L 148 658 L 330 658 L 276 272 C 271 238 278 210 296 188 C 314 166 341 156 377 156 C 412 156 441 166 465 188 C 489 210 503 238 508 272 L 563 658 L 729 658 L 673 261 C 661 176 627 109 571 61 C 514 12 445 -12 363 -12 Z" unicode="Ù" />
<glyph horiz-adv-x="693" d="M 380 706 L 495 845 L 663 845 L 530 706 L 380 706 Z M 363 -12 C 271 -12 200 14 151 67 C 101 119 82 185 93 265 L 148 658 L 330 658 L 276 272 C 271 238 278 210 296 188 C 314 166 341 156 377 156 C 412 156 441 166 465 188 C 489 210 503 238 508 272 L 563 658 L 729 658 L 673 261 C 661 176 627 109 571 61 C 514 12 445 -12 363 -12 Z" unicode="Ú" />
<glyph horiz-adv-x="693" d="M 308 706 L 407 852 L 539 852 L 598 706 L 488 706 L 463 769 L 420 706 L 308 706 Z M 363 -12 C 271 -12 200 14 151 67 C 101 119 82 185 93 265 L 148 658 L 330 658 L 276 272 C 271 238 278 210 296 188 C 314 166 341 156 377 156 C 412 156 441 166 465 188 C 489 210 503 238 508 272 L 563 658 L 729 658 L 673 261 C 661 176 627 109 571 61 C 514 12 445 -12 363 -12 Z" unicode="Û" />
<glyph horiz-adv-x="693" d="M 306 706 L 323 825 L 442 825 L 425 706 L 306 706 Z M 478 706 L 495 825 L 614 825 L 597 706 L 478 706 Z M 363 -12 C 271 -12 200 14 151 67 C 101 119 82 185 93 265 L 148 658 L 330 658 L 276 272 C 271 238 278 210 296 188 C 314 166 341 156 377 156 C 412 156 441 166 465 188 C 489 210 503 238 508 272 L 563 658 L 729 658 L 673 261 C 661 176 627 109 571 61 C 514 12 445 -12 363 -12 Z" unicode="Ü" />
<glyph horiz-adv-x="685" d="M 362 706 L 477 845 L 645 845 L 512 706 L 362 706 Z M 254 0 L 289 250 L 100 658 L 297 658 L 371 490 L 399 416 L 446 490 L 565 658 L 765 658 L 465 251 L 430 0 L 254 0 Z" unicode="Ý" />
<glyph horiz-adv-x="567" d="M 62 0 L 154 658 L 331 658 L 318 565 L 360 565 C 429 565 484 545 525 505 C 566 465 587 417 587 363 C 587 291 561 229 509 177 C 457 125 386 99 298 99 L 253 99 L 239 0 L 62 0 Z M 274 254 L 305 254 C 333 254 357 262 377 278 C 397 294 407 315 407 341 C 407 361 399 378 384 391 C 369 403 350 410 328 410 L 296 410 L 274 254 Z" unicode="Þ" />
<glyph horiz-adv-x="666" d="M 50 0 L 111 429 C 125 529 160 605 215 655 C 270 705 340 731 426 731 C 499 731 557 709 601 667 C 644 625 666 565 667 487 C 667 463 664 438 660 414 C 656 389 650 366 643 346 C 625 352 608 357 590 361 C 572 365 556 368 540 368 C 518 368 503 364 494 358 C 485 352 481 344 481 336 C 481 329 483 323 488 319 C 492 314 499 311 509 309 L 537 302 C 575 292 605 274 626 249 C 646 224 657 195 657 163 C 657 110 638 68 600 36 C 562 4 509 -11 439 -11 C 411 -11 382 -9 354 -5 C 325 -1 298 4 272 11 L 290 142 C 311 131 334 123 359 117 C 384 111 409 109 435 109 C 451 109 462 111 470 116 C 477 121 481 128 481 137 C 481 143 477 149 471 155 C 464 161 454 165 442 169 L 415 175 C 378 185 350 201 332 224 C 313 247 304 275 304 308 C 304 360 320 402 354 435 C 388 467 432 484 486 484 C 493 484 501 483 510 483 C 518 482 526 481 533 479 C 539 515 531 542 511 562 C 491 582 462 592 425 592 C 382 592 348 577 324 549 C 299 520 283 478 276 424 L 216 0 L 50 0 Z" unicode="ß" />
<glyph horiz-adv-x="558" d="M 281 528 L 175 682 L 361 682 L 445 528 L 281 528 Z M 218 -11 C 172 -11 133 5 103 38 C 72 71 57 119 57 182 C 57 267 86 338 144 396 C 202 454 276 483 366 483 C 396 483 429 480 465 474 C 501 468 535 461 567 452 L 527 169 C 523 143 521 115 519 86 C 517 56 516 28 516 0 L 358 0 L 358 79 C 341 47 321 24 297 10 C 273 -3 246 -11 218 -11 Z M 283 137 C 303 137 321 147 337 169 C 353 191 364 227 372 277 L 381 338 C 373 340 366 342 358 344 C 350 346 341 347 333 347 C 305 347 281 333 259 306 C 237 279 227 247 227 210 C 227 186 231 168 241 156 C 250 143 264 137 283 137 Z" unicode="à" />
<glyph horiz-adv-x="558" d="M 280 528 L 407 682 L 593 682 L 444 528 L 280 528 Z M 218 -11 C 172 -11 133 5 103 38 C 72 71 57 119 57 182 C 57 267 86 338 144 396 C 202 454 276 483 366 483 C 396 483 429 480 465 474 C 501 468 535 461 567 452 L 527 169 C 523 143 521 115 519 86 C 517 56 516 28 516 0 L 358 0 L 358 79 C 341 47 321 24 297 10 C 273 -3 246 -11 218 -11 Z M 283 137 C 303 137 321 147 337 169 C 353 191 364 227 372 277 L 381 338 C 373 340 366 342 358 344 C 350 346 341 347 333 347 C 305 347 281 333 259 306 C 237 279 227 247 227 210 C 227 186 231 168 241 156 C 250 143 264 137 283 137 Z" unicode="á" />
<glyph horiz-adv-x="558" d="M 192 528 L 305 690 L 467 690 L 534 528 L 402 528 L 373 597 L 324 528 L 192 528 Z M 218 -11 C 172 -11 133 5 103 38 C 72 71 57 119 57 182 C 57 267 86 338 144 396 C 202 454 276 483 366 483 C 396 483 429 480 465 474 C 501 468 535 461 567 452 L 527 169 C 523 143 521 115 519 86 C 517 56 516 28 516 0 L 358 0 L 358 79 C 341 47 321 24 297 10 C 273 -3 246 -11 218 -11 Z M 283 137 C 303 137 321 147 337 169 C 353 191 364 227 372 277 L 381 338 C 373 340 366 342 358 344 C 350 346 341 347 333 347 C 305 347 281 333 259 306 C 237 279 227 247 227 210 C 227 186 231 168 241 156 C 250 143 264 137 283 137 Z" unicode="â" />
<glyph horiz-adv-x="558" d="M 289 528 L 198 528 C 204 576 218 612 239 636 C 259 660 287 673 321 673 C 336 673 350 671 362 667 C 374 663 385 657 396 649 C 403 644 409 640 414 638 C 418 635 423 634 428 634 C 435 634 441 637 447 643 C 452 649 456 657 458 668 L 549 668 C 542 620 528 583 508 559 C 487 535 460 523 426 523 C 410 523 396 525 384 529 C 372 533 361 539 351 548 C 344 552 338 556 333 558 C 328 560 323 562 319 562 C 311 562 304 559 299 553 C 293 547 290 538 289 528 Z M 218 -11 C 172 -11 133 5 103 38 C 72 71 57 119 57 182 C 57 267 86 338 144 396 C 202 454 276 483 366 483 C 396 483 429 480 465 474 C 501 468 535 461 567 452 L 527 169 C 523 143 521 115 519 86 C 517 56 516 28 516 0 L 358 0 L 358 79 C 341 47 321 24 297 10 C 273 -3 246 -11 218 -11 Z M 283 137 C 303 137 321 147 337 169 C 353 191 364 227 372 277 L 381 338 C 373 340 366 342 358 344 C 350 346 341 347 333 347 C 305 347 281 333 259 306 C 237 279 227 247 227 210 C 227 186 231 168 241 156 C 250 143 264 137 283 137 Z" unicode="ã" />
<glyph horiz-adv-x="558" d="M 202 529 L 220 661 L 353 661 L 334 529 L 202 529 Z M 392 529 L 411 661 L 543 661 L 524 529 L 392 529 Z M 218 -11 C 172 -11 133 5 103 38 C 72 71 57 119 57 182 C 57 267 86 338 144 396 C 202 454 276 483 366 483 C 396 483 429 480 465 474 C 501 468 535 461 567 452 L 527 169 C 523 143 521 115 519 86 C 517 56 516 28 516 0 L 358 0 L 358 79 C 341 47 321 24 297 10 C 273 -3 246 -11 218 -11 Z M 283 137 C 303 137 321 147 337 169 C 353 191 364 227 372 277 L 381 338 C 373 340 366 342 358 344 C 350 346 341 347 333 347 C 305 347 281 333 259 306 C 237 279 227 247 227 210 C 227 186 231 168 241 156 C 250 143 264 137 283 137 Z" unicode="ä" />
<glyph horiz-adv-x="558" d="M 218 -11 C 172 -11 133 5 103 38 C 72 71 57 119 57 182 C 57 251 76 312 116 364 C 155 416 207 452 272 470 C 261 480 252 493 246 507 C 240 521 237 536 237 554 C 237 592 250 623 276 649 C 302 675 335 688 374 688 C 408 688 436 677 460 656 C 483 634 495 607 495 573 C 495 553 491 535 484 519 C 477 502 467 488 455 476 C 473 473 492 469 512 465 C 531 461 549 456 567 452 L 527 169 C 523 143 521 115 519 86 C 517 56 516 28 516 0 L 358 0 L 358 79 C 341 47 321 24 297 10 C 273 -3 246 -11 218 -11 Z M 364 522 C 376 522 387 526 396 534 C 404 542 409 553 409 566 C 409 576 405 585 397 593 C 389 601 379 605 368 605 C 355 605 344 601 336 593 C 328 585 324 574 324 562 C 324 550 327 541 335 533 C 343 525 352 522 364 522 Z M 283 137 C 303 137 321 147 337 169 C 353 191 364 227 372 277 L 381 338 C 373 340 366 342 358 344 C 350 346 341 347 333 347 C 305 347 281 333 259 306 C 237 279 227 247 227 210 C 227 186 231 168 241 156 C 250 143 264 137 283 137 Z" unicode="å" />
<glyph horiz-adv-x="763" d="M 198 -11 C 146 -11 108 1 84 27 C 59 53 47 84 47 120 C 47 169 65 208 101 238 C 137 268 185 283 247 285 L 331 287 L 334 311 C 336 328 330 341 317 350 C 303 358 283 363 255 363 C 227 363 200 359 174 351 C 148 343 122 333 98 321 L 117 455 C 147 465 177 473 207 479 C 236 484 265 487 294 487 C 329 487 358 482 382 473 C 405 464 423 453 437 440 C 457 454 481 466 508 474 C 534 482 564 487 596 487 C 648 487 691 473 727 445 C 762 417 780 382 780 340 C 780 294 762 259 727 235 C 692 211 628 197 535 195 L 490 194 C 490 169 499 150 516 137 C 533 124 559 118 593 118 C 619 118 647 121 675 129 C 703 137 729 148 754 164 L 734 23 C 705 11 675 1 644 -4 C 613 -10 583 -14 554 -14 C 507 -14 468 -6 436 9 C 404 25 379 47 362 75 C 342 47 318 26 290 11 C 261 -3 230 -11 198 -11 Z M 577 374 C 558 374 542 365 528 349 C 514 333 504 311 500 285 L 537 286 C 561 286 581 291 596 300 C 610 309 618 322 618 339 C 618 349 614 358 607 364 C 599 370 589 374 577 374 Z M 256 112 C 270 112 283 117 294 126 C 304 135 311 147 313 162 L 318 194 L 274 192 C 257 191 243 187 233 179 C 223 171 218 160 218 147 C 218 135 221 127 229 121 C 236 115 245 112 256 112 Z" unicode="æ" />
<glyph horiz-adv-x="459" d="M 284 -11 C 217 -11 163 9 122 50 C 81 91 61 143 61 207 C 61 287 86 353 138 405 C 190 457 259 483 346 483 C 369 483 392 480 415 475 C 437 470 460 463 482 454 L 461 302 C 441 313 422 321 405 327 C 388 333 368 336 346 336 C 312 336 285 325 265 304 C 245 283 236 256 236 222 C 236 195 243 174 259 159 C 275 143 296 136 324 136 C 347 136 368 139 388 147 C 408 154 428 164 448 178 L 427 26 C 404 13 381 4 358 -2 C 335 -8 310 -11 284 -11 Z M 216 -254 C 203 -254 190 -252 178 -250 C 166 -248 154 -244 144 -240 L 155 -159 C 164 -163 173 -167 182 -170 C 191 -172 200 -174 208 -174 C 218 -174 227 -171 233 -166 C 239 -160 242 -153 242 -145 C 242 -137 239 -131 235 -127 C 230 -123 223 -121 215 -121 L 206 -121 L 217 -48 L 228 -48 C 262 -48 290 -56 311 -74 C 331 -91 342 -114 342 -143 C 342 -175 330 -202 307 -223 C 283 -243 253 -254 216 -254 Z" unicode="ç" />
<glyph horiz-adv-x="509" d="M 250 528 L 144 682 L 330 682 L 414 528 L 250 528 Z M 300 -13 C 223 -13 164 7 123 48 C 81 89 61 142 61 207 C 61 285 86 352 138 406 C 189 460 257 487 342 487 C 394 487 437 473 473 445 C 508 417 526 383 526 341 C 526 295 508 257 473 229 C 437 200 372 184 276 180 L 236 178 C 240 158 250 143 267 133 C 284 123 308 118 339 118 C 365 118 393 121 421 129 C 449 137 475 148 500 164 L 480 24 C 451 11 421 2 390 -4 C 359 -10 329 -13 300 -13 Z M 323 371 C 303 371 286 363 272 347 C 258 331 248 308 244 280 L 283 282 C 307 282 327 287 342 297 C 356 306 364 319 364 336 C 364 346 360 355 353 361 C 345 367 335 371 323 371 Z" unicode="è" />
<glyph horiz-adv-x="509" d="M 249 528 L 376 682 L 562 682 L 413 528 L 249 528 Z M 300 -13 C 223 -13 164 7 123 48 C 81 89 61 142 61 207 C 61 285 86 352 138 406 C 189 460 257 487 342 487 C 394 487 437 473 473 445 C 508 417 526 383 526 341 C 526 295 508 257 473 229 C 437 200 372 184 276 180 L 236 178 C 240 158 250 143 267 133 C 284 123 308 118 339 118 C 365 118 393 121 421 129 C 449 137 475 148 500 164 L 480 24 C 451 11 421 2 390 -4 C 359 -10 329 -13 300 -13 Z M 323 371 C 303 371 286 363 272 347 C 258 331 248 308 244 280 L 283 282 C 307 282 327 287 342 297 C 356 306 364 319 364 336 C 364 346 360 355 353 361 C 345 367 335 371 323 371 Z" unicode="é" />
<glyph horiz-adv-x="509" d="M 161 528 L 274 690 L 436 690 L 503 528 L 371 528 L 342 597 L 293 528 L 161 528 Z M 300 -13 C 223 -13 164 7 123 48 C 81 89 61 142 61 207 C 61 285 86 352 138 406 C 189 460 257 487 342 487 C 394 487 437 473 473 445 C 508 417 526 383 526 341 C 526 295 508 257 473 229 C 437 200 372 184 276 180 L 236 178 C 240 158 250 143 267 133 C 284 123 308 118 339 118 C 365 118 393 121 421 129 C 449 137 475 148 500 164 L 480 24 C 451 11 421 2 390 -4 C 359 -10 329 -13 300 -13 Z M 323 371 C 303 371 286 363 272 347 C 258 331 248 308 244 280 L 283 282 C 307 282 327 287 342 297 C 356 306 364 319 364 336 C 364 346 360 355 353 361 C 345 367 335 371 323 371 Z" unicode="ê" />
<glyph horiz-adv-x="509" d="M 171 529 L 189 661 L 322 661 L 303 529 L 171 529 Z M 361 529 L 380 661 L 512 661 L 493 529 L 361 529 Z M 300 -13 C 223 -13 164 7 123 48 C 81 89 61 142 61 207 C 61 285 86 352 138 406 C 189 460 257 487 342 487 C 394 487 437 473 473 445 C 508 417 526 383 526 341 C 526 295 508 257 473 229 C 437 200 372 184 276 180 L 236 178 C 240 158 250 143 267 133 C 284 123 308 118 339 118 C 365 118 393 121 421 129 C 449 137 475 148 500 164 L 480 24 C 451 11 421 2 390 -4 C 359 -10 329 -13 300 -13 Z M 323 371 C 303 371 286 363 272 347 C 258 331 248 308 244 280 L 283 282 C 307 282 327 287 342 297 C 356 306 364 319 364 336 C 364 346 360 355 353 361 C 345 367 335 371 323 371 Z" unicode="ë" />
<glyph horiz-adv-x="266" d="M 124 524 L 18 678 L 204 678 L 288 524 L 124 524 Z M 54 0 C 54 20 54 42 56 65 C 58 87 60 110 63 132 L 111 474 L 282 474 L 234 132 C 230 110 228 88 226 66 C 224 43 224 21 224 0 L 54 0 Z" unicode="ì" />
<glyph horiz-adv-x="266" d="M 123 524 L 250 678 L 436 678 L 287 524 L 123 524 Z M 54 0 C 54 20 54 42 56 65 C 58 87 60 110 63 132 L 111 474 L 282 474 L 234 132 C 230 110 228 88 226 66 C 224 43 224 21 224 0 L 54 0 Z" unicode="í" />
<glyph horiz-adv-x="266" d="M 35 524 L 148 686 L 310 686 L 377 524 L 245 524 L 216 593 L 167 524 L 35 524 Z M 54 0 C 54 20 54 42 56 65 C 58 87 60 110 63 132 L 111 474 L 282 474 L 234 132 C 230 110 228 88 226 66 C 224 43 224 21 224 0 L 54 0 Z" unicode="î" />
<glyph horiz-adv-x="266" d="M 45 525 L 63 657 L 196 657 L 177 525 L 45 525 Z M 235 525 L 254 657 L 386 657 L 367 525 L 235 525 Z M 54 0 C 54 20 54 42 56 65 C 58 87 60 110 63 132 L 111 474 L 282 474 L 234 132 C 230 110 228 88 226 66 C 224 43 224 21 224 0 L 54 0 Z" unicode="ï" />
<glyph horiz-adv-x="579" d="M 298 -14 C 228 -14 171 6 127 46 C 83 86 62 140 62 210 C 62 291 85 357 132 409 C 179 460 238 486 309 486 C 335 486 360 482 382 474 C 404 466 423 455 438 440 C 432 458 424 476 415 494 C 406 512 396 529 384 547 L 273 513 L 252 613 L 306 629 C 294 639 282 648 269 658 C 255 667 241 676 227 685 L 389 748 C 403 738 416 728 429 716 C 442 704 455 691 467 679 L 577 712 L 598 612 L 529 591 C 547 557 562 519 574 478 C 585 437 591 394 591 350 C 591 238 563 149 507 84 C 451 18 381 -14 298 -14 Z M 309 139 C 337 139 360 150 377 172 C 394 194 403 222 403 256 C 403 278 396 297 382 312 C 368 326 350 334 328 334 C 302 334 280 323 262 301 C 244 279 236 251 236 219 C 236 195 242 176 255 161 C 268 146 286 139 309 139 Z" unicode="ð" />
<glyph horiz-adv-x="545" d="M 259 524 L 168 524 C 174 572 188 608 209 632 C 229 656 257 669 291 669 C 306 669 320 667 332 663 C 344 659 355 653 366 645 C 373 640 379 636 384 634 C 388 631 393 630 398 630 C 405 630 411 633 417 639 C 422 645 426 653 428 664 L 519 664 C 512 616 498 579 478 555 C 457 531 430 519 396 519 C 380 519 366 521 354 525 C 342 529 331 535 321 544 C 314 548 308 552 303 554 C 298 556 293 558 289 558 C 281 558 274 555 269 549 C 263 543 260 534 259 524 Z M 52 0 L 100 345 C 102 365 104 387 106 410 C 108 432 109 454 109 474 L 279 474 C 279 464 279 454 279 444 C 279 433 278 423 278 415 L 278 395 C 294 425 315 448 340 463 C 364 477 390 485 418 485 C 462 485 497 470 523 441 C 548 411 556 372 548 322 L 515 133 C 511 112 509 90 507 66 C 505 42 505 20 505 0 L 334 0 C 334 21 334 43 336 66 C 338 89 341 111 345 133 L 372 275 C 376 294 374 309 366 319 C 358 329 348 335 336 335 C 316 335 298 323 282 300 C 266 276 255 239 249 189 L 222 0 L 52 0 Z" unicode="ñ" />
<glyph horiz-adv-x="547" d="M 266 528 L 160 682 L 346 682 L 430 528 L 266 528 Z M 284 -14 C 214 -14 160 5 120 44 C 80 83 60 136 60 202 C 60 283 86 351 138 406 C 190 460 255 488 333 488 C 401 488 455 468 495 430 C 535 391 555 339 555 273 C 555 191 529 123 477 68 C 425 13 361 -14 284 -14 Z M 298 134 C 322 134 343 145 361 169 C 378 193 387 223 387 261 C 387 284 380 303 367 318 C 354 333 338 341 318 341 C 293 341 272 329 255 305 C 237 281 229 251 229 213 C 229 189 235 170 248 156 C 260 141 277 134 298 134 Z" unicode="ò" />
<glyph horiz-adv-x="547" d="M 265 528 L 392 682 L 578 682 L 429 528 L 265 528 Z M 284 -14 C 214 -14 160 5 120 44 C 80 83 60 136 60 202 C 60 283 86 351 138 406 C 190 460 255 488 333 488 C 401 488 455 468 495 430 C 535 391 555 339 555 273 C 555 191 529 123 477 68 C 425 13 361 -14 284 -14 Z M 298 134 C 322 134 343 145 361 169 C 378 193 387 223 387 261 C 387 284 380 303 367 318 C 354 333 338 341 318 341 C 293 341 272 329 255 305 C 237 281 229 251 229 213 C 229 189 235 170 248 156 C 260 141 277 134 298 134 Z" unicode="ó" />
<glyph horiz-adv-x="547" d="M 177 528 L 290 690 L 452 690 L 519 528 L 387 528 L 358 597 L 309 528 L 177 528 Z M 284 -14 C 214 -14 160 5 120 44 C 80 83 60 136 60 202 C 60 283 86 351 138 406 C 190 460 255 488 333 488 C 401 488 455 468 495 430 C 535 391 555 339 555 273 C 555 191 529 123 477 68 C 425 13 361 -14 284 -14 Z M 298 134 C 322 134 343 145 361 169 C 378 193 387 223 387 261 C 387 284 380 303 367 318 C 354 333 338 341 318 341 C 293 341 272 329 255 305 C 237 281 229 251 229 213 C 229 189 235 170 248 156 C 260 141 277 134 298 134 Z" unicode="ô" />
<glyph horiz-adv-x="547" d="M 274 528 L 183 528 C 189 576 203 612 224 636 C 244 660 272 673 306 673 C 321 673 335 671 347 667 C 359 663 370 657 381 649 C 388 644 394 640 399 638 C 403 635 408 634 413 634 C 420 634 426 637 432 643 C 437 649 441 657 443 668 L 534 668 C 527 620 513 583 493 559 C 472 535 445 523 411 523 C 395 523 381 525 369 529 C 357 533 346 539 336 548 C 329 552 323 556 318 558 C 313 560 308 562 304 562 C 296 562 289 559 284 553 C 278 547 275 538 274 528 Z M 284 -14 C 214 -14 160 5 120 44 C 80 83 60 136 60 202 C 60 283 86 351 138 406 C 190 460 255 488 333 488 C 401 488 455 468 495 430 C 535 391 555 339 555 273 C 555 191 529 123 477 68 C 425 13 361 -14 284 -14 Z M 298 134 C 322 134 343 145 361 169 C 378 193 387 223 387 261 C 387 284 380 303 367 318 C 354 333 338 341 318 341 C 293 341 272 329 255 305 C 237 281 229 251 229 213 C 229 189 235 170 248 156 C 260 141 277 134 298 134 Z" unicode="õ" />
<glyph horiz-adv-x="547" d="M 187 529 L 205 661 L 338 661 L 319 529 L 187 529 Z M 377 529 L 396 661 L 528 661 L 509 529 L 377 529 Z M 284 -14 C 214 -14 160 5 120 44 C 80 83 60 136 60 202 C 60 283 86 351 138 406 C 190 460 255 488 333 488 C 401 488 455 468 495 430 C 535 391 555 339 555 273 C 555 191 529 123 477 68 C 425 13 361 -14 284 -14 Z M 298 134 C 322 134 343 145 361 169 C 378 193 387 223 387 261 C 387 284 380 303 367 318 C 354 333 338 341 318 341 C 293 341 272 329 255 305 C 237 281 229 251 229 213 C 229 189 235 170 248 156 C 260 141 277 134 298 134 Z" unicode="ö" />
<glyph horiz-adv-x="527" d="M 261 418 L 279 547 L 408 547 L 390 418 L 261 418 Z M 80 223 L 99 356 L 531 356 L 512 223 L 80 223 Z M 206 33 L 225 162 L 354 162 L 335 33 L 206 33 Z" unicode="÷" />
<glyph horiz-adv-x="548" d="M 52 -48 L 116 48 C 98 66 84 89 74 115 C 64 141 60 170 60 202 C 60 283 86 351 138 406 C 190 460 255 488 333 488 C 345 488 358 487 370 486 C 382 484 393 482 404 480 L 359 412 L 451 357 L 498 428 C 486 440 472 450 456 459 C 440 468 422 475 404 480 L 433 522 L 561 522 L 498 428 C 516 409 530 387 540 361 C 550 335 555 305 555 273 C 555 191 529 123 477 68 C 425 13 361 -14 284 -14 C 270 -14 257 -13 245 -11 C 232 -9 220 -7 209 -5 L 180 -48 L 52 -48 Z M 298 134 C 322 134 343 145 361 169 C 378 193 387 223 387 261 C 387 284 380 303 367 318 C 354 333 338 341 318 341 C 293 341 272 329 255 305 C 237 281 229 251 229 213 C 229 189 235 170 248 156 C 260 141 277 134 298 134 Z" unicode="ø" />
<glyph horiz-adv-x="546" d="M 257 524 L 151 678 L 337 678 L 421 524 L 257 524 Z M 193 -11 C 148 -11 113 3 88 33 C 63 63 55 102 63 152 L 95 348 C 98 370 101 393 103 415 C 105 437 107 456 107 474 L 277 474 C 277 453 276 432 274 410 C 272 388 269 367 265 345 L 240 200 C 236 179 237 164 244 154 C 250 144 261 140 276 140 C 296 140 314 151 329 173 C 343 195 355 232 363 285 L 389 474 L 560 474 L 512 133 C 509 113 507 91 506 67 C 504 43 504 21 504 0 L 334 0 L 334 79 C 317 49 296 26 272 11 C 248 -3 221 -11 193 -11 Z" unicode="ù" />
<glyph horiz-adv-x="546" d="M 256 524 L 383 678 L 569 678 L 420 524 L 256 524 Z M 193 -11 C 148 -11 113 3 88 33 C 63 63 55 102 63 152 L 95 348 C 98 370 101 393 103 415 C 105 437 107 456 107 474 L 277 474 C 277 453 276 432 274 410 C 272 388 269 367 265 345 L 240 200 C 236 179 237 164 244 154 C 250 144 261 140 276 140 C 296 140 314 151 329 173 C 343 195 355 232 363 285 L 389 474 L 560 474 L 512 133 C 509 113 507 91 506 67 C 504 43 504 21 504 0 L 334 0 L 334 79 C 317 49 296 26 272 11 C 248 -3 221 -11 193 -11 Z" unicode="ú" />
<glyph horiz-adv-x="546" d="M 168 524 L 281 686 L 443 686 L 510 524 L 378 524 L 349 593 L 300 524 L 168 524 Z M 193 -11 C 148 -11 113 3 88 33 C 63 63 55 102 63 152 L 95 348 C 98 370 101 393 103 415 C 105 437 107 456 107 474 L 277 474 C 277 453 276 432 274 410 C 272 388 269 367 265 345 L 240 200 C 236 179 237 164 244 154 C 250 144 261 140 276 140 C 296 140 314 151 329 173 C 343 195 355 232 363 285 L 389 474 L 560 474 L 512 133 C 509 113 507 91 506 67 C 504 43 504 21 504 0 L 334 0 L 334 79 C 317 49 296 26 272 11 C 248 -3 221 -11 193 -11 Z" unicode="û" />
<glyph horiz-adv-x="546" d="M 178 525 L 196 657 L 329 657 L 310 525 L 178 525 Z M 368 525 L 387 657 L 519 657 L 500 525 L 368 525 Z M 193 -11 C 148 -11 113 3 88 33 C 63 63 55 102 63 152 L 95 348 C 98 370 101 393 103 415 C 105 437 107 456 107 474 L 277 474 C 277 453 276 432 274 410 C 272 388 269 367 265 345 L 240 200 C 236 179 237 164 244 154 C 250 144 261 140 276 140 C 296 140 314 151 329 173 C 343 195 355 232 363 285 L 389 474 L 560 474 L 512 133 C 509 113 507 91 506 67 C 504 43 504 21 504 0 L 334 0 L 334 79 C 317 49 296 26 272 11 C 248 -3 221 -11 193 -11 Z" unicode="ü" />
<glyph horiz-adv-x="530" d="M 253 524 L 380 678 L 566 678 L 417 524 L 253 524 Z M 388 11 C 335 -65 275 -121 209 -159 C 142 -196 69 -215 -11 -215 L -22 -215 L -1 -66 L 11 -66 C 43 -66 74 -60 104 -49 C 134 -38 161 -23 185 -4 L 169 -2 L 77 474 L 256 474 L 288 280 L 305 127 C 325 169 344 217 362 273 C 379 328 397 395 416 474 L 577 474 C 553 376 525 288 493 210 C 461 132 426 66 388 11 Z" unicode="ý" />
<glyph horiz-adv-x="543" d="M 15 -199 L 143 716 L 304 716 L 268 475 C 266 461 263 448 261 434 C 258 420 255 405 251 391 C 267 423 288 447 314 462 C 339 477 367 485 398 485 C 444 485 481 468 510 435 C 539 402 554 354 554 290 C 554 206 528 135 476 77 C 424 18 358 -11 279 -11 C 268 -11 257 -10 246 -9 C 234 -7 223 -5 213 -3 L 185 -199 L 15 -199 Z M 290 123 C 318 123 342 135 361 161 C 379 186 389 218 389 257 C 389 281 384 301 375 316 C 365 330 351 338 333 338 C 316 338 298 329 280 312 C 262 295 249 257 241 197 L 232 131 C 239 128 248 126 258 125 C 268 123 279 123 290 123 Z" unicode="þ" />
<glyph horiz-adv-x="530" d="M 175 525 L 193 657 L 326 657 L 307 525 L 175 525 Z M 365 525 L 384 657 L 516 657 L 497 525 L 365 525 Z M 388 11 C 335 -65 275 -121 209 -159 C 142 -196 69 -215 -11 -215 L -22 -215 L -1 -66 L 11 -66 C 43 -66 74 -60 104 -49 C 134 -38 161 -23 185 -4 L 169 -2 L 77 474 L 256 474 L 288 280 L 305 127 C 325 169 344 217 362 273 C 379 328 397 395 416 474 L 577 474 C 553 376 525 288 493 210 C 461 132 426 66 388 11 Z" unicode="ÿ" />
<glyph horiz-adv-x="722" d="M 343 706 L 357 806 L 589 806 L 575 706 L 343 706 Z M 14 0 L 369 658 L 538 658 L 708 0 L 525 0 L 496 118 L 252 118 L 191 0 L 14 0 Z M 319 248 L 466 248 L 446 332 L 421 453 L 362 332 L 319 248 Z" unicode="Ā" />
<glyph horiz-adv-x="558" d="M 235 536 L 250 647 L 508 647 L 492 536 L 235 536 Z M 218 -11 C 172 -11 133 5 103 38 C 72 71 57 119 57 182 C 57 267 86 338 144 396 C 202 454 276 483 366 483 C 396 483 429 480 465 474 C 501 468 535 461 567 452 L 527 169 C 523 143 521 115 519 86 C 517 56 516 28 516 0 L 358 0 L 358 79 C 341 47 321 24 297 10 C 273 -3 246 -11 218 -11 Z M 283 137 C 303 137 321 147 337 169 C 353 191 364 227 372 277 L 381 338 C 373 340 366 342 358 344 C 350 346 341 347 333 347 C 305 347 281 333 259 306 C 237 279 227 247 227 210 C 227 186 231 168 241 156 C 250 143 264 137 283 137 Z" unicode="ā" />
<glyph horiz-adv-x="722" d="M 459 702 C 417 702 386 714 366 739 C 345 763 338 797 344 839 L 430 839 C 428 825 430 814 437 806 C 443 798 453 794 466 794 C 478 794 488 798 496 806 C 504 814 509 825 511 839 L 597 839 C 591 797 576 763 551 739 C 525 714 495 702 459 702 Z M 14 0 L 369 658 L 538 658 L 708 0 L 525 0 L 496 118 L 252 118 L 191 0 L 14 0 Z M 319 248 L 466 248 L 446 332 L 421 453 L 362 332 L 319 248 Z" unicode="Ă" />
<glyph horiz-adv-x="558" d="M 366 524 C 320 524 285 537 262 565 C 239 593 231 630 238 677 L 334 677 C 332 661 334 649 341 640 C 348 630 359 626 373 626 C 386 626 397 630 407 640 C 416 649 422 661 424 677 L 520 677 C 513 630 496 593 468 565 C 440 537 406 524 366 524 Z M 218 -11 C 172 -11 133 5 103 38 C 72 71 57 119 57 182 C 57 267 86 338 144 396 C 202 454 276 483 366 483 C 396 483 429 480 465 474 C 501 468 535 461 567 452 L 527 169 C 523 143 521 115 519 86 C 517 56 516 28 516 0 L 358 0 L 358 79 C 341 47 321 24 297 10 C 273 -3 246 -11 218 -11 Z M 283 137 C 303 137 321 147 337 169 C 353 191 364 227 372 277 L 381 338 C 373 340 366 342 358 344 C 350 346 341 347 333 347 C 305 347 281 333 259 306 C 237 279 227 247 227 210 C 227 186 231 168 241 156 C 250 143 264 137 283 137 Z" unicode="ă" />
<glyph horiz-adv-x="722" d="M 14 0 L 369 658 L 538 658 L 708 0 L 679 0 C 658 0 641 -5 629 -17 C 617 -28 611 -42 611 -59 C 611 -73 616 -85 626 -94 C 636 -102 650 -107 668 -107 L 652 -220 C 598 -220 556 -208 525 -185 C 494 -162 479 -132 479 -94 C 479 -76 482 -58 490 -42 C 498 -25 509 -10 524 3 L 496 118 L 252 118 L 191 0 L 14 0 Z M 319 248 L 466 248 L 446 332 L 421 453 L 362 332 L 319 248 Z" unicode="Ą" />
<glyph horiz-adv-x="558" d="M 218 -11 C 172 -11 133 5 103 38 C 72 71 57 119 57 182 C 57 267 86 338 144 396 C 202 454 276 483 366 483 C 396 483 429 480 465 474 C 501 468 535 461 567 452 L 527 169 C 523 143 521 115 519 86 C 517 56 516 28 516 0 C 495 0 479 -5 468 -15 C 457 -25 452 -37 452 -53 C 452 -66 456 -77 466 -86 C 476 -95 490 -100 509 -100 L 492 -216 C 438 -216 396 -205 364 -184 C 332 -163 316 -134 316 -96 C 316 -78 320 -61 328 -45 C 336 -29 348 -14 364 0 L 358 0 L 358 79 C 341 47 321 24 297 10 C 273 -3 246 -11 218 -11 Z M 283 137 C 303 137 321 147 337 169 C 353 191 364 227 372 277 L 381 338 C 373 340 366 342 358 344 C 350 346 341 347 333 347 C 305 347 281 333 259 306 C 237 279 227 247 227 210 C 227 186 231 168 241 156 C 250 143 264 137 283 137 Z" unicode="ą" />
<glyph horiz-adv-x="655" d="M 427 716 L 542 855 L 710 855 L 577 716 L 427 716 Z M 417 -14 C 316 -14 236 13 176 68 C 116 122 87 196 87 289 C 87 403 124 495 199 566 C 274 636 372 672 492 672 C 528 672 563 668 596 661 C 629 653 661 642 692 627 L 668 460 C 639 478 609 491 579 500 C 549 509 517 514 483 514 C 417 514 365 494 327 454 C 289 414 271 363 271 301 C 271 255 285 217 315 188 C 345 159 385 145 437 145 C 473 145 507 149 540 159 C 573 169 606 183 639 203 L 616 35 C 583 18 550 6 517 -2 C 483 -10 450 -14 417 -14 Z" unicode="Ć" />
<glyph horiz-adv-x="459" d="M 250 524 L 377 678 L 563 678 L 414 524 L 250 524 Z M 284 -11 C 217 -11 163 9 122 50 C 81 91 61 143 61 207 C 61 287 86 353 138 405 C 190 457 259 483 346 483 C 369 483 392 480 415 475 C 437 470 460 463 482 454 L 461 302 C 441 313 422 321 405 327 C 388 333 368 336 346 336 C 312 336 285 325 265 304 C 245 283 236 256 236 222 C 236 195 243 174 259 159 C 275 143 296 136 324 136 C 347 136 368 139 388 147 C 408 154 428 164 448 178 L 427 26 C 404 13 381 4 358 -2 C 335 -8 310 -11 284 -11 Z" unicode="ć" />
<glyph horiz-adv-x="655" d="M 355 716 L 454 862 L 586 862 L 645 716 L 535 716 L 510 779 L 467 716 L 355 716 Z M 417 -14 C 316 -14 236 13 176 68 C 116 122 87 196 87 289 C 87 403 124 495 199 566 C 274 636 372 672 492 672 C 528 672 563 668 596 661 C 629 653 661 642 692 627 L 668 460 C 639 478 609 491 579 500 C 549 509 517 514 483 514 C 417 514 365 494 327 454 C 289 414 271 363 271 301 C 271 255 285 217 315 188 C 345 159 385 145 437 145 C 473 145 507 149 540 159 C 573 169 606 183 639 203 L 616 35 C 583 18 550 6 517 -2 C 483 -10 450 -14 417 -14 Z" unicode="Ĉ" />
<glyph horiz-adv-x="459" d="M 162 524 L 275 686 L 437 686 L 504 524 L 372 524 L 343 593 L 294 524 L 162 524 Z M 284 -11 C 217 -11 163 9 122 50 C 81 91 61 143 61 207 C 61 287 86 353 138 405 C 190 457 259 483 346 483 C 369 483 392 480 415 475 C 437 470 460 463 482 454 L 461 302 C 441 313 422 321 405 327 C 388 333 368 336 346 336 C 312 336 285 325 265 304 C 245 283 236 256 236 222 C 236 195 243 174 259 159 C 275 143 296 136 324 136 C 347 136 368 139 388 147 C 408 154 428 164 448 178 L 427 26 C 404 13 381 4 358 -2 C 335 -8 310 -11 284 -11 Z" unicode="ĉ" />
<glyph horiz-adv-x="655" d="M 439 716 L 457 839 L 579 839 L 562 716 L 439 716 Z M 417 -14 C 316 -14 236 13 176 68 C 116 122 87 196 87 289 C 87 403 124 495 199 566 C 274 636 372 672 492 672 C 528 672 563 668 596 661 C 629 653 661 642 692 627 L 668 460 C 639 478 609 491 579 500 C 549 509 517 514 483 514 C 417 514 365 494 327 454 C 289 414 271 363 271 301 C 271 255 285 217 315 188 C 345 159 385 145 437 145 C 473 145 507 149 540 159 C 573 169 606 183 639 203 L 616 35 C 583 18 550 6 517 -2 C 483 -10 450 -14 417 -14 Z" unicode="Ċ" />
<glyph horiz-adv-x="459" d="M 266 524 L 286 660 L 422 660 L 402 524 L 266 524 Z M 284 -11 C 217 -11 163 9 122 50 C 81 91 61 143 61 207 C 61 287 86 353 138 405 C 190 457 259 483 346 483 C 369 483 392 480 415 475 C 437 470 460 463 482 454 L 461 302 C 441 313 422 321 405 327 C 388 333 368 336 346 336 C 312 336 285 325 265 304 C 245 283 236 256 236 222 C 236 195 243 174 259 159 C 275 143 296 136 324 136 C 347 136 368 139 388 147 C 408 154 428 164 448 178 L 427 26 C 404 13 381 4 358 -2 C 335 -8 310 -11 284 -11 Z" unicode="ċ" />
<glyph horiz-adv-x="655" d="M 428 716 L 367 862 L 487 862 L 513 801 L 556 862 L 675 862 L 574 716 L 428 716 Z M 417 -14 C 316 -14 236 13 176 68 C 116 122 87 196 87 289 C 87 403 124 495 199 566 C 274 636 372 672 492 672 C 528 672 563 668 596 661 C 629 653 661 642 692 627 L 668 460 C 639 478 609 491 579 500 C 549 509 517 514 483 514 C 417 514 365 494 327 454 C 289 414 271 363 271 301 C 271 255 285 217 315 188 C 345 159 385 145 437 145 C 473 145 507 149 540 159 C 573 169 606 183 639 203 L 616 35 C 583 18 550 6 517 -2 C 483 -10 450 -14 417 -14 Z" unicode="Č" />
<glyph horiz-adv-x="459" d="M 250 524 L 182 686 L 315 686 L 344 618 L 393 686 L 525 686 L 412 524 L 250 524 Z M 284 -11 C 217 -11 163 9 122 50 C 81 91 61 143 61 207 C 61 287 86 353 138 405 C 190 457 259 483 346 483 C 369 483 392 480 415 475 C 437 470 460 463 482 454 L 461 302 C 441 313 422 321 405 327 C 388 333 368 336 346 336 C 312 336 285 325 265 304 C 245 283 236 256 236 222 C 236 195 243 174 259 159 C 275 143 296 136 324 136 C 347 136 368 139 388 147 C 408 154 428 164 448 178 L 427 26 C 404 13 381 4 358 -2 C 335 -8 310 -11 284 -11 Z" unicode="č" />
<glyph horiz-adv-x="710" d="M 310 706 L 249 852 L 369 852 L 395 791 L 438 852 L 557 852 L 456 706 L 310 706 Z M 62 0 L 154 658 L 394 658 C 494 658 572 631 630 577 C 688 523 717 454 717 371 C 717 262 679 173 604 104 C 528 34 427 0 300 0 L 62 0 Z M 261 159 L 320 159 C 386 159 438 177 476 215 C 514 253 533 301 533 359 C 533 399 518 433 490 459 C 461 485 422 499 372 499 L 308 499 L 261 159 Z" unicode="Ď" />
<glyph horiz-adv-x="761" d="M 218 -11 C 172 -11 133 5 103 37 C 72 69 57 116 57 178 C 57 266 84 338 138 396 C 192 454 260 483 342 483 C 350 483 359 482 369 482 C 379 481 388 480 397 478 L 431 716 L 604 716 L 527 169 C 523 143 521 115 519 86 C 517 56 516 28 516 0 L 358 0 L 358 79 C 341 47 321 24 297 10 C 273 -3 246 -11 218 -11 Z M 725 500 L 621 532 C 637 555 648 577 656 597 C 664 617 669 641 673 668 L 681 716 L 813 716 L 806 668 C 800 628 791 596 779 571 C 766 546 748 522 725 500 Z M 283 137 C 303 137 321 147 337 169 C 353 191 364 227 372 277 L 381 338 C 373 340 365 342 357 344 C 349 346 341 347 333 347 C 305 347 281 333 259 306 C 237 279 227 247 227 210 C 227 187 231 169 241 156 C 250 143 264 137 283 137 Z" unicode="ď" />
<glyph horiz-adv-x="723" d="M 72 0 L 108 260 L 63 260 L 82 398 L 128 398 L 164 658 L 404 658 C 504 658 582 631 640 577 C 698 523 727 454 727 371 C 727 262 689 173 614 104 C 538 34 437 0 310 0 L 72 0 Z M 271 159 L 330 159 C 396 159 448 177 486 215 C 524 253 543 301 543 359 C 543 399 528 433 500 459 C 471 485 432 499 382 499 L 318 499 L 304 398 L 381 398 L 362 260 L 285 260 L 271 159 Z" unicode="Đ" />
<glyph horiz-adv-x="558" d="M 218 -11 C 172 -11 133 5 103 37 C 72 69 57 116 57 178 C 57 266 84 338 138 396 C 192 454 260 483 342 483 C 350 483 359 482 369 482 C 379 481 388 480 397 478 L 405 532 L 359 532 L 375 644 L 421 644 L 431 716 L 604 716 L 594 644 L 643 644 L 627 532 L 578 532 L 527 169 C 523 143 521 115 519 86 C 517 56 516 28 516 0 L 358 0 L 358 79 C 341 47 321 24 297 10 C 273 -3 246 -11 218 -11 Z M 283 137 C 303 137 321 147 337 169 C 353 191 364 227 372 277 L 381 338 C 373 340 365 342 357 344 C 349 346 341 347 333 347 C 305 347 281 333 259 306 C 237 279 227 247 227 210 C 227 187 231 169 241 156 C 250 143 264 137 283 137 Z" unicode="đ" />
<glyph horiz-adv-x="535" d="M 255 706 L 269 806 L 501 806 L 487 706 L 255 706 Z M 62 0 L 155 658 L 566 658 L 544 500 L 310 500 L 296 402 L 521 402 L 501 261 L 276 261 L 261 158 L 506 158 L 483 0 L 62 0 Z" unicode="Ē" />
<glyph horiz-adv-x="509" d="M 204 536 L 219 647 L 477 647 L 461 536 L 204 536 Z M 300 -13 C 223 -13 164 7 123 48 C 81 89 61 142 61 207 C 61 285 86 352 138 406 C 189 460 257 487 342 487 C 394 487 437 473 473 445 C 508 417 526 383 526 341 C 526 295 508 257 473 229 C 437 200 372 184 276 180 L 236 178 C 240 158 250 143 267 133 C 284 123 308 118 339 118 C 365 118 393 121 421 129 C 449 137 475 148 500 164 L 480 24 C 451 11 421 2 390 -4 C 359 -10 329 -13 300 -13 Z M 323 371 C 303 371 286 363 272 347 C 258 331 248 308 244 280 L 283 282 C 307 282 327 287 342 297 C 356 306 364 319 364 336 C 364 346 360 355 353 361 C 345 367 335 371 323 371 Z" unicode="ē" />
<glyph horiz-adv-x="535" d="M 371 702 C 329 702 298 714 278 739 C 257 763 250 797 256 839 L 342 839 C 340 825 342 814 349 806 C 355 798 365 794 378 794 C 390 794 400 798 408 806 C 416 814 421 825 423 839 L 509 839 C 503 797 488 763 463 739 C 437 714 407 702 371 702 Z M 62 0 L 155 658 L 566 658 L 544 500 L 310 500 L 296 402 L 521 402 L 501 261 L 276 261 L 261 158 L 506 158 L 483 0 L 62 0 Z" unicode="Ĕ" />
<glyph horiz-adv-x="509" d="M 335 524 C 289 524 254 537 231 565 C 208 593 200 630 207 677 L 303 677 C 301 661 303 649 310 640 C 317 630 328 626 342 626 C 355 626 366 630 376 640 C 385 649 391 661 393 677 L 489 677 C 482 630 465 593 437 565 C 409 537 375 524 335 524 Z M 300 -13 C 223 -13 164 7 123 48 C 81 89 61 142 61 207 C 61 285 86 352 138 406 C 189 460 257 487 342 487 C 394 487 437 473 473 445 C 508 417 526 383 526 341 C 526 295 508 257 473 229 C 437 200 372 184 276 180 L 236 178 C 240 158 250 143 267 133 C 284 123 308 118 339 118 C 365 118 393 121 421 129 C 449 137 475 148 500 164 L 480 24 C 451 11 421 2 390 -4 C 359 -10 329 -13 300 -13 Z M 323 371 C 303 371 286 363 272 347 C 258 331 248 308 244 280 L 283 282 C 307 282 327 287 342 297 C 356 306 364 319 364 336 C 364 346 360 355 353 361 C 345 367 335 371 323 371 Z" unicode="ĕ" />
<glyph horiz-adv-x="535" d="M 307 706 L 325 829 L 447 829 L 430 706 L 307 706 Z M 62 0 L 155 658 L 566 658 L 544 500 L 310 500 L 296 402 L 521 402 L 501 261 L 276 261 L 261 158 L 506 158 L 483 0 L 62 0 Z" unicode="Ė" />
<glyph horiz-adv-x="509" d="M 265 528 L 285 664 L 421 664 L 401 528 L 265 528 Z M 300 -13 C 223 -13 164 7 123 48 C 81 89 61 142 61 207 C 61 285 86 352 138 406 C 189 460 257 487 342 487 C 394 487 437 473 473 445 C 508 417 526 383 526 341 C 526 295 508 257 473 229 C 437 200 372 184 276 180 L 236 178 C 240 158 250 143 267 133 C 284 123 308 118 339 118 C 365 118 393 121 421 129 C 449 137 475 148 500 164 L 480 24 C 451 11 421 2 390 -4 C 359 -10 329 -13 300 -13 Z M 323 371 C 303 371 286 363 272 347 C 258 331 248 308 244 280 L 283 282 C 307 282 327 287 342 297 C 356 306 364 319 364 336 C 364 346 360 355 353 361 C 345 367 335 371 323 371 Z" unicode="ė" />
<glyph horiz-adv-x="535" d="M 62 0 L 155 658 L 566 658 L 544 500 L 310 500 L 296 402 L 521 402 L 501 261 L 276 261 L 261 158 L 506 158 L 483 0 L 481 0 C 460 0 443 -5 431 -17 C 419 -28 413 -42 413 -59 C 413 -73 418 -85 428 -94 C 438 -102 452 -107 470 -107 L 454 -220 C 400 -220 358 -208 327 -185 C 296 -162 281 -132 281 -94 C 281 -76 284 -60 292 -44 C 299 -28 310 -13 324 0 L 62 0 Z" unicode="Ę" />
<glyph horiz-adv-x="509" d="M 435 -215 C 379 -215 334 -203 302 -180 C 270 -156 254 -125 254 -85 C 254 -72 256 -59 260 -47 C 264 -34 270 -22 278 -12 C 208 -8 155 14 117 54 C 79 94 61 145 61 207 C 61 285 86 352 138 406 C 189 460 257 487 342 487 C 394 487 437 473 473 445 C 508 417 526 383 526 341 C 526 295 508 257 473 229 C 437 200 372 184 276 180 L 236 178 C 240 158 250 143 267 133 C 284 123 308 118 339 118 C 365 118 393 121 421 129 C 449 137 475 148 500 164 L 480 24 C 473 21 466 19 460 17 C 453 15 446 12 440 10 C 423 3 410 -5 402 -16 C 393 -26 389 -39 389 -53 C 389 -69 394 -82 405 -91 C 416 -100 431 -105 451 -105 L 435 -215 Z M 323 371 C 303 371 286 363 272 347 C 258 331 248 308 244 280 L 283 282 C 307 282 327 287 342 297 C 356 306 364 319 364 336 C 364 346 360 355 353 361 C 345 367 335 371 323 371 Z" unicode="ę" />
<glyph horiz-adv-x="535" d="M 296 706 L 235 852 L 355 852 L 381 791 L 424 852 L 543 852 L 442 706 L 296 706 Z M 62 0 L 155 658 L 566 658 L 544 500 L 310 500 L 296 402 L 521 402 L 501 261 L 276 261 L 261 158 L 506 158 L 483 0 L 62 0 Z" unicode="Ě" />
<glyph horiz-adv-x="509" d="M 249 528 L 181 690 L 314 690 L 343 622 L 392 690 L 524 690 L 411 528 L 249 528 Z M 300 -13 C 223 -13 164 7 123 48 C 81 89 61 142 61 207 C 61 285 86 352 138 406 C 189 460 257 487 342 487 C 394 487 437 473 473 445 C 508 417 526 383 526 341 C 526 295 508 257 473 229 C 437 200 372 184 276 180 L 236 178 C 240 158 250 143 267 133 C 284 123 308 118 339 118 C 365 118 393 121 421 129 C 449 137 475 148 500 164 L 480 24 C 451 11 421 2 390 -4 C 359 -10 329 -13 300 -13 Z M 323 371 C 303 371 286 363 272 347 C 258 331 248 308 244 280 L 283 282 C 307 282 327 287 342 297 C 356 306 364 319 364 336 C 364 346 360 355 353 361 C 345 367 335 371 323 371 Z" unicode="ě" />
<glyph horiz-adv-x="715" d="M 342 716 L 441 862 L 573 862 L 632 716 L 522 716 L 497 779 L 454 716 L 342 716 Z M 422 -14 C 318 -14 236 13 176 67 C 116 121 87 194 87 285 C 87 399 124 492 200 564 C 276 636 374 672 494 672 C 532 672 572 668 613 661 C 653 653 689 644 720 632 L 697 467 C 667 481 633 493 596 501 C 559 509 524 514 490 514 C 422 514 369 493 330 452 C 290 411 271 360 271 298 C 271 253 285 216 313 186 C 341 156 379 142 425 142 C 441 142 456 142 469 144 C 482 146 494 149 506 153 L 518 244 L 408 244 L 428 385 L 719 385 L 671 41 C 629 22 587 8 546 0 C 505 -9 464 -14 422 -14 Z" unicode="Ĝ" />
<glyph horiz-adv-x="547" d="M 187 529 L 300 691 L 462 691 L 529 529 L 397 529 L 368 598 L 319 529 L 187 529 Z M 223 -220 C 195 -220 165 -217 132 -213 C 98 -208 66 -201 35 -191 L 56 -42 C 77 -55 101 -65 129 -73 C 156 -81 181 -85 204 -85 C 240 -85 270 -77 292 -62 C 314 -47 328 -24 333 6 L 339 53 C 322 28 304 10 284 0 C 264 -10 242 -16 218 -16 C 172 -16 133 0 103 34 C 72 67 57 115 57 179 C 57 264 86 336 144 395 C 202 453 275 483 365 483 C 395 483 428 480 464 474 C 500 468 534 461 566 452 L 504 8 C 492 -71 463 -129 415 -165 C 367 -201 303 -220 223 -220 Z M 283 134 C 303 134 321 145 337 167 C 353 189 364 225 372 275 L 381 337 C 373 339 365 341 357 343 C 349 344 341 345 333 345 C 305 345 281 331 259 304 C 237 277 227 245 227 207 C 227 183 231 165 241 153 C 250 140 264 134 283 134 Z" unicode="ĝ" />
<glyph horiz-adv-x="715" d="M 490 712 C 448 712 417 724 397 749 C 376 773 369 807 375 849 L 461 849 C 459 835 461 824 468 816 C 474 808 484 804 497 804 C 509 804 519 808 527 816 C 535 824 540 835 542 849 L 628 849 C 622 807 607 773 582 749 C 556 724 526 712 490 712 Z M 422 -14 C 318 -14 236 13 176 67 C 116 121 87 194 87 285 C 87 399 124 492 200 564 C 276 636 374 672 494 672 C 532 672 572 668 613 661 C 653 653 689 644 720 632 L 697 467 C 667 481 633 493 596 501 C 559 509 524 514 490 514 C 422 514 369 493 330 452 C 290 411 271 360 271 298 C 271 253 285 216 313 186 C 341 156 379 142 425 142 C 441 142 456 142 469 144 C 482 146 494 149 506 153 L 518 244 L 408 244 L 428 385 L 719 385 L 671 41 C 629 22 587 8 546 0 C 505 -9 464 -14 422 -14 Z" unicode="Ğ" />
<glyph horiz-adv-x="547" d="M 361 525 C 315 525 280 538 257 566 C 234 594 226 631 233 678 L 329 678 C 327 662 329 650 336 641 C 343 631 354 627 368 627 C 381 627 392 631 402 641 C 411 650 417 662 419 678 L 515 678 C 508 631 491 594 463 566 C 435 538 401 525 361 525 Z M 223 -220 C 195 -220 165 -217 132 -213 C 98 -208 66 -201 35 -191 L 56 -42 C 77 -55 101 -65 129 -73 C 156 -81 181 -85 204 -85 C 240 -85 270 -77 292 -62 C 314 -47 328 -24 333 6 L 339 53 C 322 28 304 10 284 0 C 264 -10 242 -16 218 -16 C 172 -16 133 0 103 34 C 72 67 57 115 57 179 C 57 264 86 336 144 395 C 202 453 275 483 365 483 C 395 483 428 480 464 474 C 500 468 534 461 566 452 L 504 8 C 492 -71 463 -129 415 -165 C 367 -201 303 -220 223 -220 Z M 283 134 C 303 134 321 145 337 167 C 353 189 364 225 372 275 L 381 337 C 373 339 365 341 357 343 C 349 344 341 345 333 345 C 305 345 281 331 259 304 C 237 277 227 245 227 207 C 227 183 231 165 241 153 C 250 140 264 134 283 134 Z" unicode="ğ" />
<glyph horiz-adv-x="715" d="M 426 716 L 444 839 L 566 839 L 549 716 L 426 716 Z M 422 -14 C 318 -14 236 13 176 67 C 116 121 87 194 87 285 C 87 399 124 492 200 564 C 276 636 374 672 494 672 C 532 672 572 668 613 661 C 653 653 689 644 720 632 L 697 467 C 667 481 633 493 596 501 C 559 509 524 514 490 514 C 422 514 369 493 330 452 C 290 411 271 360 271 298 C 271 253 285 216 313 186 C 341 156 379 142 425 142 C 441 142 456 142 469 144 C 482 146 494 149 506 153 L 518 244 L 408 244 L 428 385 L 719 385 L 671 41 C 629 22 587 8 546 0 C 505 -9 464 -14 422 -14 Z" unicode="Ġ" />
<glyph horiz-adv-x="547" d="M 291 529 L 311 665 L 447 665 L 427 529 L 291 529 Z M 223 -220 C 195 -220 165 -217 132 -213 C 98 -208 66 -201 35 -191 L 56 -42 C 77 -55 101 -65 129 -73 C 156 -81 181 -85 204 -85 C 240 -85 270 -77 292 -62 C 314 -47 328 -24 333 6 L 339 53 C 322 28 304 10 284 0 C 264 -10 242 -16 218 -16 C 172 -16 133 0 103 34 C 72 67 57 115 57 179 C 57 264 86 336 144 395 C 202 453 275 483 365 483 C 395 483 428 480 464 474 C 500 468 534 461 566 452 L 504 8 C 492 -71 463 -129 415 -165 C 367 -201 303 -220 223 -220 Z M 283 134 C 303 134 321 145 337 167 C 353 189 364 225 372 275 L 381 337 C 373 339 365 341 357 343 C 349 344 341 345 333 345 C 305 345 281 331 259 304 C 237 277 227 245 227 207 C 227 183 231 165 241 153 C 250 140 264 134 283 134 Z" unicode="ġ" />
<glyph horiz-adv-x="715" d="M 422 -14 C 318 -14 236 13 176 67 C 116 121 87 194 87 285 C 87 399 124 492 200 564 C 276 636 374 672 494 672 C 532 672 572 668 613 661 C 653 653 689 644 720 632 L 697 467 C 667 481 633 493 596 501 C 559 509 524 514 490 514 C 422 514 369 493 330 452 C 290 411 271 360 271 298 C 271 253 285 216 313 186 C 341 156 379 142 425 142 C 441 142 456 142 469 144 C 482 146 494 149 506 153 L 518 244 L 408 244 L 428 385 L 719 385 L 671 41 C 629 22 587 8 546 0 C 505 -9 464 -14 422 -14 Z M 400 -256 L 304 -222 C 318 -201 328 -181 335 -163 C 342 -144 347 -123 350 -100 L 357 -56 L 476 -56 L 470 -100 C 465 -134 457 -163 447 -186 C 437 -209 421 -232 400 -256 Z" unicode="Ģ" />
<glyph horiz-adv-x="547" d="M 380 750 L 482 717 C 466 693 455 671 447 651 C 439 631 434 607 431 581 L 424 533 L 292 533 L 298 581 C 304 620 313 652 325 678 C 337 703 355 727 380 750 Z M 223 -220 C 195 -220 165 -217 132 -213 C 98 -208 66 -201 35 -191 L 56 -42 C 77 -55 101 -65 129 -73 C 156 -81 181 -85 204 -85 C 240 -85 270 -77 292 -62 C 314 -47 328 -24 333 6 L 339 53 C 322 28 304 10 284 0 C 264 -10 242 -16 218 -16 C 172 -16 133 0 103 34 C 72 67 57 115 57 179 C 57 264 86 336 144 395 C 202 453 275 483 365 483 C 395 483 428 480 464 474 C 500 468 534 461 566 452 L 504 8 C 492 -71 463 -129 415 -165 C 367 -201 303 -220 223 -220 Z M 283 134 C 303 134 321 145 337 167 C 353 189 364 225 372 275 L 381 337 C 373 339 365 341 357 343 C 349 344 341 345 333 345 C 305 345 281 331 259 304 C 237 277 227 245 227 207 C 227 183 231 165 241 153 C 250 140 264 134 283 134 Z" unicode="ģ" />
<glyph horiz-adv-x="712" d="M 309 704 L 408 850 L 540 850 L 599 704 L 489 704 L 464 767 L 421 704 L 309 704 Z M 62 0 L 154 658 L 331 658 L 296 410 L 531 410 L 566 658 L 742 658 L 650 0 L 474 0 L 509 251 L 274 251 L 239 0 L 62 0 Z" unicode="Ĥ" />
<glyph horiz-adv-x="535" d="M 34 748 L 147 910 L 309 910 L 376 748 L 244 748 L 215 817 L 166 748 L 34 748 Z M 42 0 L 143 716 L 314 716 L 279 473 C 277 462 275 449 273 435 C 271 420 268 406 266 394 C 282 424 303 447 328 462 C 353 477 380 485 409 485 C 453 485 488 470 514 441 C 539 411 547 372 539 322 L 506 133 C 502 112 499 90 497 66 C 495 42 495 20 495 0 L 325 0 C 325 21 325 43 327 66 C 328 89 331 111 335 133 L 362 275 C 366 294 364 309 356 319 C 348 329 338 335 326 335 C 309 335 292 325 276 306 C 260 286 247 247 239 189 L 213 0 L 42 0 Z" unicode="ĥ" />
<glyph horiz-adv-x="712" d="M 62 0 L 127 465 L 76 465 L 93 590 L 144 590 L 154 658 L 330 658 L 320 590 L 555 590 L 565 658 L 742 658 L 732 590 L 783 590 L 766 465 L 715 465 L 650 0 L 473 0 L 507 241 L 272 241 L 238 0 L 62 0 Z M 294 401 L 529 401 L 538 465 L 303 465 L 294 401 Z" unicode="Ħ" />
<glyph horiz-adv-x="535" d="M 42 0 L 117 532 L 83 532 L 99 644 L 133 644 L 143 716 L 314 716 L 304 644 L 369 644 L 353 532 L 287 532 L 279 473 C 277 462 275 449 273 435 C 271 420 268 406 266 394 C 282 424 303 447 328 462 C 353 477 380 485 409 485 C 453 485 488 470 514 441 C 539 411 547 372 539 322 L 506 133 C 502 112 499 90 497 66 C 495 42 495 20 495 0 L 325 0 C 325 21 325 43 327 66 C 328 89 331 111 335 133 L 362 275 C 366 294 364 309 356 319 C 348 329 338 335 326 335 C 309 335 292 325 276 306 C 260 286 247 247 239 189 L 213 0 L 42 0 Z" unicode="ħ" />
<glyph horiz-adv-x="301" d="M 183 706 L 101 706 C 107 749 119 782 137 804 C 155 826 180 837 212 837 C 226 837 238 835 248 832 C 258 828 269 823 280 815 C 286 810 291 807 295 805 C 299 803 303 802 308 802 C 314 802 320 804 325 810 C 330 815 333 823 335 833 L 417 833 C 411 789 398 757 380 735 C 361 713 336 702 306 702 C 292 702 279 703 269 707 C 258 710 248 716 239 724 C 232 728 227 732 223 734 C 219 736 214 737 210 737 C 203 737 197 734 192 729 C 187 723 184 716 183 706 Z M 62 0 L 154 658 L 331 658 L 239 0 L 62 0 Z" unicode="Ĩ" />
<glyph horiz-adv-x="266" d="M 132 524 L 41 524 C 47 572 61 608 82 632 C 102 656 130 669 164 669 C 179 669 193 667 205 663 C 217 659 228 653 239 645 C 246 640 252 636 257 634 C 261 631 266 630 271 630 C 278 630 284 633 290 639 C 295 645 299 653 301 664 L 392 664 C 385 616 371 579 351 555 C 330 531 303 519 269 519 C 253 519 239 521 227 525 C 215 529 204 535 194 544 C 187 548 181 552 176 554 C 171 556 166 558 162 558 C 154 558 147 555 142 549 C 136 543 133 534 132 524 Z M 54 0 C 54 20 54 42 56 65 C 58 87 60 110 63 132 L 111 474 L 282 474 L 234 132 C 230 110 228 88 226 66 C 224 43 224 21 224 0 L 54 0 Z" unicode="ĩ" />
<glyph horiz-adv-x="301" d="M 137 706 L 151 806 L 383 806 L 369 706 L 137 706 Z M 62 0 L 154 658 L 331 658 L 239 0 L 62 0 Z" unicode="Ī" />
<glyph horiz-adv-x="266" d="M 78 532 L 93 643 L 351 643 L 335 532 L 78 532 Z M 54 0 C 54 20 54 42 56 65 C 58 87 60 110 63 132 L 111 474 L 282 474 L 234 132 C 230 110 228 88 226 66 C 224 43 224 21 224 0 L 54 0 Z" unicode="ī" />
<glyph horiz-adv-x="301" d="M 253 702 C 211 702 180 714 160 739 C 139 763 132 797 138 839 L 224 839 C 222 825 224 814 231 806 C 237 798 247 794 260 794 C 272 794 282 798 290 806 C 298 814 303 825 305 839 L 391 839 C 385 797 370 763 345 739 C 319 714 289 702 253 702 Z M 62 0 L 154 658 L 331 658 L 239 0 L 62 0 Z" unicode="Ĭ" />
<glyph horiz-adv-x="266" d="M 209 520 C 163 520 128 533 105 561 C 82 589 74 626 81 673 L 177 673 C 175 657 177 645 184 636 C 191 626 202 622 216 622 C 229 622 240 626 250 636 C 259 645 265 657 267 673 L 363 673 C 356 626 339 589 311 561 C 283 533 249 520 209 520 Z M 54 0 C 54 20 54 42 56 65 C 58 87 60 110 63 132 L 111 474 L 282 474 L 234 132 C 230 110 228 88 226 66 C 224 43 224 21 224 0 L 54 0 Z" unicode="ĭ" />
<glyph horiz-adv-x="301" d="M 62 0 L 154 658 L 331 658 L 239 0 L 221 0 C 200 0 184 -5 173 -15 C 162 -25 157 -37 157 -53 C 157 -66 161 -77 171 -86 C 181 -95 195 -100 214 -100 L 197 -216 C 143 -216 101 -205 69 -184 C 37 -163 21 -134 21 -96 C 21 -78 25 -61 33 -45 C 41 -29 53 -14 69 0 L 62 0 Z" unicode="Į" />
<glyph horiz-adv-x="267" d="M 124 563 L 145 716 L 316 716 L 294 563 L 124 563 Z M 54 0 C 54 20 55 42 57 65 C 59 87 61 110 64 132 L 112 474 L 282 474 L 234 132 C 231 112 229 92 227 72 C 225 51 225 31 225 13 L 228 1 L 225 1 L 225 0 L 214 0 C 198 -2 185 -8 177 -18 C 168 -27 164 -38 164 -52 C 164 -65 168 -76 178 -85 C 188 -94 202 -99 221 -99 L 204 -215 C 150 -215 108 -204 76 -183 C 44 -162 28 -133 28 -95 C 28 -77 32 -61 40 -45 C 48 -29 59 -14 75 0 L 54 0 Z" unicode="į" />
<glyph horiz-adv-x="301" d="M 189 706 L 207 829 L 329 829 L 312 706 L 189 706 Z M 62 0 L 154 658 L 331 658 L 239 0 L 62 0 Z" unicode="İ" />
<glyph horiz-adv-x="266" d="M 54 0 C 54 20 54 42 56 65 C 58 87 60 110 63 132 L 111 474 L 282 474 L 234 132 C 230 110 228 88 226 66 C 224 43 224 21 224 0 L 54 0 Z" unicode="ı" />
<glyph horiz-adv-x="304" d="M 110 706 L 209 852 L 341 852 L 400 706 L 290 706 L 265 769 L 222 706 L 110 706 Z M -41 -215 L -58 -215 L -37 -64 L -29 -64 C -2 -64 19 -58 36 -46 C 52 -34 63 -12 68 22 L 157 658 L 334 658 L 245 22 C 233 -60 202 -120 151 -158 C 100 -196 36 -215 -41 -215 Z" unicode="Ĵ" />
<glyph horiz-adv-x="264" d="M 41 524 L 154 686 L 316 686 L 383 524 L 251 524 L 222 593 L 173 524 L 41 524 Z M -59 -215 L -74 -215 L -54 -71 L -42 -71 C -17 -71 3 -63 21 -48 C 38 -33 49 -10 54 21 L 117 474 L 287 474 L 224 21 C 214 -49 184 -106 134 -150 C 84 -193 19 -215 -59 -215 Z" unicode="ĵ" />
<glyph horiz-adv-x="693" d="M 62 0 L 155 658 L 332 658 L 290 366 L 554 658 L 763 658 L 465 333 L 672 0 L 465 0 L 282 305 L 239 0 L 62 0 Z M 327 -248 L 231 -214 C 245 -193 255 -173 262 -155 C 269 -136 274 -115 277 -92 L 284 -48 L 403 -48 L 397 -92 C 392 -126 384 -155 374 -178 C 364 -201 348 -224 327 -248 Z" unicode="Ķ" />
<glyph horiz-adv-x="545" d="M 42 0 L 143 716 L 314 716 L 253 279 C 285 309 314 341 341 374 C 368 407 392 441 413 475 L 595 474 C 570 430 542 389 510 349 C 478 309 445 274 412 244 L 536 0 L 344 0 L 242 212 L 213 0 L 42 0 Z M 252 -261 L 145 -223 C 161 -200 173 -179 181 -159 C 189 -139 194 -117 198 -92 L 205 -44 L 338 -44 L 331 -92 C 326 -130 318 -161 306 -186 C 294 -210 276 -235 252 -261 Z" unicode="ķ" />
<glyph horiz-adv-x="503" d="M 176 706 L 291 845 L 459 845 L 326 706 L 176 706 Z M 62 0 L 154 658 L 331 658 L 261 160 L 501 160 L 479 0 L 62 0 Z" unicode="Ĺ" />
<glyph horiz-adv-x="269" d="M 118 759 L 245 913 L 431 913 L 282 759 L 118 759 Z M 58 0 C 56 21 56 43 57 67 C 57 91 59 113 62 133 L 144 716 L 315 716 L 233 133 C 230 113 228 91 227 67 C 226 43 226 21 228 0 L 58 0 Z" unicode="ĺ" />
<glyph horiz-adv-x="503" d="M 62 0 L 154 658 L 331 658 L 261 160 L 501 160 L 479 0 L 62 0 Z M 259 -248 L 163 -214 C 177 -193 187 -173 194 -155 C 201 -136 206 -115 209 -92 L 216 -48 L 335 -48 L 329 -92 C 324 -126 316 -155 306 -178 C 296 -201 280 -224 259 -248 Z" unicode="Ļ" />
<glyph horiz-adv-x="273" d="M 57 0 C 55 21 55 43 56 67 C 56 91 58 113 61 133 L 143 716 L 314 716 L 232 133 C 229 113 227 91 226 67 C 225 43 225 21 227 0 L 57 0 Z M 113 -261 L 6 -223 C 22 -200 34 -179 42 -159 C 50 -139 55 -117 59 -92 L 66 -44 L 199 -44 L 192 -92 C 187 -130 179 -161 167 -186 C 155 -210 137 -235 113 -261 Z" unicode="ļ" />
<glyph horiz-adv-x="503" d="M 62 0 L 154 658 L 331 658 L 261 160 L 501 160 L 479 0 L 62 0 Z M 484 441 L 381 474 C 397 497 409 519 417 539 C 425 559 430 583 434 610 L 441 658 L 573 658 L 566 610 C 560 570 550 538 538 513 C 526 487 508 463 484 441 Z" unicode="Ľ" />
<glyph horiz-adv-x="474" d="M 58 0 C 56 21 56 43 57 67 C 57 91 59 113 62 133 L 144 716 L 315 716 L 233 133 C 230 113 228 91 227 67 C 226 43 226 21 228 0 L 58 0 Z M 438 500 L 334 532 C 350 555 361 577 369 597 C 377 617 382 641 386 668 L 394 716 L 526 716 L 519 668 C 513 628 504 596 492 571 C 479 546 461 522 438 500 Z" unicode="ľ" />
<glyph horiz-adv-x="503" d="M 62 0 L 154 658 L 331 658 L 261 160 L 501 160 L 479 0 L 62 0 Z M 383 304 L 402 440 L 539 440 L 519 304 L 383 304 Z" unicode="Ŀ" />
<glyph horiz-adv-x="420" d="M 58 0 C 56 21 56 43 57 67 C 57 91 59 113 62 133 L 144 716 L 315 716 L 233 133 C 230 113 228 91 227 67 C 226 43 226 21 228 0 L 58 0 Z M 311 289 L 330 425 L 467 425 L 447 289 L 311 289 Z" unicode="ŀ" />
<glyph horiz-adv-x="502" d="M 61 0 L 99 274 L 46 263 L 66 411 L 120 423 L 153 658 L 330 658 L 303 462 L 383 480 L 362 331 L 282 314 L 260 160 L 500 160 L 478 0 L 61 0 Z" unicode="Ł" />
<glyph horiz-adv-x="269" d="M 57 0 C 55 21 55 43 56 67 C 56 91 58 113 61 133 L 81 275 L 35 265 L 55 411 L 102 422 L 143 716 L 314 716 L 278 462 L 346 477 L 325 331 L 258 316 L 232 133 C 229 113 227 91 226 67 C 225 43 225 21 227 0 L 57 0 Z" unicode="ł" />
<glyph horiz-adv-x="746" d="M 399 706 L 514 845 L 682 845 L 549 706 L 399 706 Z M 62 0 L 154 658 L 348 658 L 518 333 L 560 242 L 569 333 L 615 658 L 776 658 L 684 0 L 494 0 L 320 328 L 279 418 L 269 328 L 223 0 L 62 0 Z" unicode="Ń" />
<glyph horiz-adv-x="545" d="M 250 524 L 377 678 L 563 678 L 414 524 L 250 524 Z M 52 0 L 100 345 C 102 365 104 387 106 410 C 108 432 109 454 109 474 L 279 474 C 279 464 279 454 279 444 C 279 433 278 423 278 415 L 278 395 C 294 425 315 448 340 463 C 364 477 390 485 418 485 C 462 485 497 470 523 441 C 548 411 556 372 548 322 L 515 133 C 511 112 509 90 507 66 C 505 42 505 20 505 0 L 334 0 C 334 21 334 43 336 66 C 338 89 341 111 345 133 L 372 275 C 376 294 374 309 366 319 C 358 329 348 335 336 335 C 316 335 298 323 282 300 C 266 276 255 239 249 189 L 222 0 L 52 0 Z" unicode="ń" />
<glyph horiz-adv-x="746" d="M 62 0 L 154 658 L 348 658 L 518 333 L 560 242 L 569 333 L 615 658 L 776 658 L 684 0 L 494 0 L 320 328 L 279 418 L 269 328 L 223 0 L 62 0 Z M 360 -256 L 264 -222 C 278 -201 288 -181 295 -163 C 302 -144 307 -123 310 -100 L 317 -56 L 436 -56 L 430 -100 C 425 -134 417 -163 407 -186 C 397 -209 381 -232 360 -256 Z" unicode="Ņ" />
<glyph horiz-adv-x="545" d="M 52 0 L 100 345 C 102 365 104 387 106 410 C 108 432 109 454 109 474 L 279 474 C 279 464 279 454 279 444 C 279 433 278 423 278 415 L 278 395 C 294 425 315 448 340 463 C 364 477 390 485 418 485 C 462 485 497 470 523 441 C 548 411 556 372 548 322 L 515 133 C 511 112 509 90 507 66 C 505 42 505 20 505 0 L 334 0 C 334 21 334 43 336 66 C 338 89 341 111 345 133 L 372 275 C 376 294 374 309 366 319 C 358 329 348 335 336 335 C 316 335 298 323 282 300 C 266 276 255 239 249 189 L 222 0 L 52 0 Z M 254 -261 L 147 -223 C 163 -200 175 -179 183 -159 C 191 -139 196 -117 200 -92 L 207 -44 L 340 -44 L 333 -92 C 328 -130 320 -161 308 -186 C 296 -210 278 -235 254 -261 Z" unicode="ņ" />
<glyph horiz-adv-x="746" d="M 400 706 L 339 852 L 459 852 L 485 791 L 528 852 L 647 852 L 546 706 L 400 706 Z M 62 0 L 154 658 L 348 658 L 518 333 L 560 242 L 569 333 L 615 658 L 776 658 L 684 0 L 494 0 L 320 328 L 279 418 L 269 328 L 223 0 L 62 0 Z" unicode="Ň" />
<glyph horiz-adv-x="545" d="M 250 524 L 182 686 L 315 686 L 344 618 L 393 686 L 525 686 L 412 524 L 250 524 Z M 52 0 L 100 345 C 102 365 104 387 106 410 C 108 432 109 454 109 474 L 279 474 C 279 464 279 454 279 444 C 279 433 278 423 278 415 L 278 395 C 294 425 315 448 340 463 C 364 477 390 485 418 485 C 462 485 497 470 523 441 C 548 411 556 372 548 322 L 515 133 C 511 112 509 90 507 66 C 505 42 505 20 505 0 L 334 0 C 334 21 334 43 336 66 C 338 89 341 111 345 133 L 372 275 C 376 294 374 309 366 319 C 358 329 348 335 336 335 C 316 335 298 323 282 300 C 266 276 255 239 249 189 L 222 0 L 52 0 Z" unicode="ň" />
<glyph horiz-adv-x="748" d="M 62 0 L 154 658 L 348 658 L 520 333 L 560 246 L 569 333 L 615 658 L 776 658 L 684 -9 C 674 -78 647 -130 603 -164 C 558 -198 497 -215 420 -215 L 406 -215 L 425 -79 L 433 -79 C 459 -79 479 -72 495 -60 C 511 -47 520 -31 523 -13 L 525 0 L 498 0 L 320 328 L 279 418 L 269 328 L 223 0 L 62 0 Z" unicode="Ŋ" />
<glyph horiz-adv-x="542" d="M 225 -210 L 208 -210 L 228 -66 L 236 -66 C 262 -66 283 -58 301 -44 C 318 -30 329 -8 334 21 L 371 276 C 373 294 371 308 364 318 C 356 328 346 333 334 333 C 317 333 301 323 285 304 C 269 285 257 247 249 189 L 222 0 L 51 0 L 100 345 C 102 365 104 386 106 408 C 108 429 109 451 109 474 L 278 474 L 278 421 L 277 395 C 293 425 314 448 339 463 C 363 477 390 485 418 485 C 462 485 496 470 521 441 C 545 411 554 372 548 323 L 502 11 C 492 -60 463 -115 415 -153 C 367 -191 304 -210 225 -210 Z" unicode="ŋ" />
<glyph horiz-adv-x="788" d="M 363 715 L 377 815 L 609 815 L 595 715 L 363 715 Z M 413 -16 C 316 -16 237 11 177 66 C 117 121 87 196 87 291 C 87 400 123 491 195 564 C 267 637 357 674 466 674 C 563 674 642 646 703 591 C 763 536 794 461 794 367 C 794 257 757 165 685 93 C 613 20 522 -16 413 -16 Z M 422 142 C 476 142 521 162 557 202 C 593 242 611 293 611 355 C 611 403 597 442 569 472 C 541 502 504 517 458 517 C 403 517 358 497 323 457 C 287 417 270 366 270 304 C 270 256 283 217 311 187 C 338 157 375 142 422 142 Z" unicode="Ō" />
<glyph horiz-adv-x="547" d="M 220 536 L 235 647 L 493 647 L 477 536 L 220 536 Z M 284 -14 C 214 -14 160 5 120 44 C 80 83 60 136 60 202 C 60 283 86 351 138 406 C 190 460 255 488 333 488 C 401 488 455 468 495 430 C 535 391 555 339 555 273 C 555 191 529 123 477 68 C 425 13 361 -14 284 -14 Z M 298 134 C 322 134 343 145 361 169 C 378 193 387 223 387 261 C 387 284 380 303 367 318 C 354 333 338 341 318 341 C 293 341 272 329 255 305 C 237 281 229 251 229 213 C 229 189 235 170 248 156 C 260 141 277 134 298 134 Z" unicode="ō" />
<glyph horiz-adv-x="788" d="M 479 711 C 437 711 406 723 386 748 C 365 772 358 806 364 848 L 450 848 C 448 834 450 823 457 815 C 463 807 473 803 486 803 C 498 803 508 807 516 815 C 524 823 529 834 531 848 L 617 848 C 611 806 596 772 571 748 C 545 723 515 711 479 711 Z M 413 -16 C 316 -16 237 11 177 66 C 117 121 87 196 87 291 C 87 400 123 491 195 564 C 267 637 357 674 466 674 C 563 674 642 646 703 591 C 763 536 794 461 794 367 C 794 257 757 165 685 93 C 613 20 522 -16 413 -16 Z M 422 142 C 476 142 521 162 557 202 C 593 242 611 293 611 355 C 611 403 597 442 569 472 C 541 502 504 517 458 517 C 403 517 358 497 323 457 C 287 417 270 366 270 304 C 270 256 283 217 311 187 C 338 157 375 142 422 142 Z" unicode="Ŏ" />
<glyph horiz-adv-x="547" d="M 351 524 C 305 524 270 537 247 565 C 224 593 216 630 223 677 L 319 677 C 317 661 319 649 326 640 C 333 630 344 626 358 626 C 371 626 382 630 392 640 C 401 649 407 661 409 677 L 505 677 C 498 630 481 593 453 565 C 425 537 391 524 351 524 Z M 284 -14 C 214 -14 160 5 120 44 C 80 83 60 136 60 202 C 60 283 86 351 138 406 C 190 460 255 488 333 488 C 401 488 455 468 495 430 C 535 391 555 339 555 273 C 555 191 529 123 477 68 C 425 13 361 -14 284 -14 Z M 298 134 C 322 134 343 145 361 169 C 378 193 387 223 387 261 C 387 284 380 303 367 318 C 354 333 338 341 318 341 C 293 341 272 329 255 305 C 237 281 229 251 229 213 C 229 189 235 170 248 156 C 260 141 277 134 298 134 Z" unicode="ŏ" />
<glyph horiz-adv-x="788" d="M 333 715 L 433 857 L 556 857 L 447 715 L 333 715 Z M 502 715 L 611 857 L 734 857 L 616 715 L 502 715 Z M 413 -16 C 316 -16 237 11 177 66 C 117 121 87 196 87 291 C 87 400 123 491 195 564 C 267 637 357 674 466 674 C 563 674 642 646 703 591 C 763 536 794 461 794 367 C 794 257 757 165 685 93 C 613 20 522 -16 413 -16 Z M 422 142 C 476 142 521 162 557 202 C 593 242 611 293 611 355 C 611 403 597 442 569 472 C 541 502 504 517 458 517 C 403 517 358 497 323 457 C 287 417 270 366 270 304 C 270 256 283 217 311 187 C 338 157 375 142 422 142 Z" unicode="Ő" />
<glyph horiz-adv-x="547" d="M 187 531 L 298 689 L 435 689 L 314 531 L 187 531 Z M 375 531 L 496 689 L 633 689 L 501 531 L 375 531 Z M 284 -14 C 214 -14 160 5 120 44 C 80 83 60 136 60 202 C 60 283 86 351 138 406 C 190 460 255 488 333 488 C 401 488 455 468 495 430 C 535 391 555 339 555 273 C 555 191 529 123 477 68 C 425 13 361 -14 284 -14 Z M 298 134 C 322 134 343 145 361 169 C 378 193 387 223 387 261 C 387 284 380 303 367 318 C 354 333 338 341 318 341 C 293 341 272 329 255 305 C 237 281 229 251 229 213 C 229 189 235 170 248 156 C 260 141 277 134 298 134 Z" unicode="ő" />
<glyph horiz-adv-x="914" d="M 422 0 C 316 0 234 27 176 83 C 117 138 88 209 88 297 C 88 407 126 495 202 560 C 278 625 383 658 516 658 L 944 658 L 922 498 L 687 498 L 674 405 L 896 405 L 875 258 L 653 258 L 639 160 L 885 160 L 862 0 L 422 0 Z M 427 160 L 463 160 L 511 503 L 475 503 C 413 503 363 485 327 450 C 290 415 272 368 272 309 C 272 263 286 227 314 200 C 342 173 379 160 427 160 Z" unicode="Œ" />
<glyph horiz-adv-x="810" d="M 282 -14 C 212 -14 158 5 119 44 C 79 83 60 136 60 203 C 60 284 85 352 135 406 C 185 460 249 488 327 488 C 359 488 387 482 412 472 C 437 461 458 447 476 429 C 496 447 521 461 549 471 C 577 481 609 487 643 487 C 695 487 738 473 774 445 C 809 417 827 383 827 341 C 827 295 809 257 774 229 C 738 200 673 184 577 180 L 537 178 C 541 158 551 143 568 133 C 585 123 609 118 640 118 C 666 118 694 121 722 129 C 750 137 776 148 801 164 L 781 24 C 752 11 722 2 691 -4 C 660 -10 630 -13 601 -13 C 565 -13 533 -7 507 3 C 480 13 458 28 440 46 C 419 27 395 12 368 2 C 341 -8 312 -14 282 -14 Z M 624 371 C 604 371 587 363 573 347 C 559 331 549 308 545 280 L 584 282 C 608 282 628 287 643 297 C 657 306 665 319 665 336 C 665 346 661 355 654 361 C 646 367 636 371 624 371 Z M 294 134 C 318 134 338 145 354 169 C 370 193 378 224 378 262 C 378 285 372 304 360 319 C 348 333 333 341 314 341 C 289 341 269 329 253 305 C 237 281 229 250 229 212 C 229 189 234 170 246 156 C 258 141 274 134 294 134 Z" unicode="œ" />
<glyph horiz-adv-x="621" d="M 293 706 L 408 845 L 576 845 L 443 706 L 293 706 Z M 62 0 L 155 658 L 408 658 C 470 658 519 643 554 614 C 589 585 607 545 607 493 C 607 449 593 411 566 379 C 539 347 502 325 455 313 C 483 304 506 291 524 273 C 542 255 554 232 560 205 L 605 0 L 424 0 L 386 186 C 381 210 372 227 360 238 C 348 248 332 254 313 254 L 275 254 L 239 0 L 62 0 Z M 292 379 L 342 379 C 366 379 385 386 400 402 C 415 417 423 436 423 459 C 423 477 417 492 406 504 C 394 515 379 521 361 521 L 312 521 L 292 379 Z" unicode="Ŕ" />
<glyph horiz-adv-x="399" d="M 200 524 L 327 678 L 513 678 L 364 524 L 200 524 Z M 50 0 L 99 349 C 101 371 104 392 106 413 C 108 434 109 454 109 474 L 277 474 L 277 393 C 293 427 311 451 331 465 C 351 478 372 485 395 485 C 403 485 413 484 423 482 C 433 480 443 478 452 475 L 428 302 C 415 308 402 313 389 317 C 376 321 364 323 352 323 C 330 323 309 313 289 293 C 268 273 253 234 245 174 L 220 0 L 50 0 Z" unicode="ŕ" />
<glyph horiz-adv-x="621" d="M 62 0 L 155 658 L 408 658 C 470 658 519 643 554 614 C 589 585 607 545 607 493 C 607 449 593 411 566 379 C 539 347 502 325 455 313 C 483 304 506 291 524 273 C 542 255 554 232 560 205 L 605 0 L 424 0 L 386 186 C 381 210 372 227 360 238 C 348 248 332 254 313 254 L 275 254 L 239 0 L 62 0 Z M 292 379 L 342 379 C 366 379 385 386 400 402 C 415 417 423 436 423 459 C 423 477 417 492 406 504 C 394 515 379 521 361 521 L 312 521 L 292 379 Z M 308 -248 L 212 -214 C 226 -193 236 -173 243 -155 C 250 -136 255 -115 258 -92 L 265 -48 L 384 -48 L 378 -92 C 373 -126 365 -155 355 -178 C 345 -201 329 -224 308 -248 Z" unicode="Ŗ" />
<glyph horiz-adv-x="399" d="M 50 0 L 99 349 C 101 371 104 392 106 413 C 108 434 109 454 109 474 L 277 474 L 277 393 C 293 427 311 451 331 465 C 351 478 372 485 395 485 C 403 485 413 484 423 482 C 433 480 443 478 452 475 L 428 302 C 415 308 402 313 389 317 C 376 321 364 323 352 323 C 330 323 309 313 289 293 C 268 273 253 234 245 174 L 220 0 L 50 0 Z M 114 -261 L 7 -223 C 23 -200 35 -179 43 -159 C 51 -139 56 -117 60 -92 L 67 -44 L 200 -44 L 193 -92 C 188 -130 180 -161 168 -186 C 156 -210 138 -235 114 -261 Z" unicode="ŗ" />
<glyph horiz-adv-x="621" d="M 294 706 L 233 852 L 353 852 L 379 791 L 422 852 L 541 852 L 440 706 L 294 706 Z M 62 0 L 155 658 L 408 658 C 470 658 519 643 554 614 C 589 585 607 545 607 493 C 607 449 593 411 566 379 C 539 347 502 325 455 313 C 483 304 506 291 524 273 C 542 255 554 232 560 205 L 605 0 L 424 0 L 386 186 C 381 210 372 227 360 238 C 348 248 332 254 313 254 L 275 254 L 239 0 L 62 0 Z M 292 379 L 342 379 C 366 379 385 386 400 402 C 415 417 423 436 423 459 C 423 477 417 492 406 504 C 394 515 379 521 361 521 L 312 521 L 292 379 Z" unicode="Ř" />
<glyph horiz-adv-x="399" d="M 200 524 L 132 686 L 265 686 L 294 618 L 343 686 L 475 686 L 362 524 L 200 524 Z M 50 0 L 99 349 C 101 371 104 392 106 413 C 108 434 109 454 109 474 L 277 474 L 277 393 C 293 427 311 451 331 465 C 351 478 372 485 395 485 C 403 485 413 484 423 482 C 433 480 443 478 452 475 L 428 302 C 415 308 402 313 389 317 C 376 321 364 323 352 323 C 330 323 309 313 289 293 C 268 273 253 234 245 174 L 220 0 L 50 0 Z" unicode="ř" />
<glyph horiz-adv-x="549" d="M 295 714 L 410 853 L 578 853 L 445 714 L 295 714 Z M 255 -14 C 222 -14 189 -10 156 -3 C 123 3 92 13 63 27 L 86 191 C 112 174 141 161 172 153 C 203 145 234 141 265 141 C 291 141 310 145 324 155 C 338 164 345 177 345 194 C 345 207 339 218 329 228 C 319 237 302 246 280 255 L 261 261 C 211 278 172 302 146 334 C 120 365 107 402 107 444 C 107 508 130 562 178 606 C 225 649 291 671 375 671 C 406 671 438 668 470 662 C 502 656 533 647 561 636 L 537 472 C 511 486 483 498 455 506 C 426 514 398 519 371 519 C 348 519 330 514 318 505 C 306 496 300 484 300 469 C 300 456 305 445 316 436 C 326 427 343 418 367 410 L 386 404 C 433 387 470 363 496 333 C 522 302 535 264 535 220 C 535 154 510 99 462 54 C 413 8 344 -14 255 -14 Z" unicode="Ś" />
<glyph horiz-adv-x="441" d="M 208 528 L 335 682 L 521 682 L 372 528 L 208 528 Z M 212 -13 C 184 -13 156 -10 128 -6 C 99 -2 71 4 45 13 L 64 146 C 86 134 109 125 135 119 C 160 113 185 110 211 110 C 225 110 236 113 245 117 C 253 121 258 129 258 139 C 258 146 254 152 247 157 C 239 161 229 166 217 170 L 189 177 C 153 186 125 202 106 226 C 86 250 77 280 77 317 C 77 367 94 407 130 439 C 166 471 217 487 285 487 C 310 487 337 485 365 481 C 393 477 420 471 446 463 L 429 336 C 408 346 386 353 362 359 C 338 364 315 367 293 367 C 280 367 270 364 262 360 C 254 356 251 349 251 341 C 251 333 253 327 259 322 C 264 317 273 313 286 309 L 314 302 C 351 291 380 274 400 250 C 420 226 431 197 431 162 C 431 110 412 67 375 35 C 338 3 284 -13 212 -13 Z" unicode="ś" />
<glyph horiz-adv-x="549" d="M 223 714 L 322 860 L 454 860 L 513 714 L 403 714 L 378 777 L 335 714 L 223 714 Z M 255 -14 C 222 -14 189 -10 156 -3 C 123 3 92 13 63 27 L 86 191 C 112 174 141 161 172 153 C 203 145 234 141 265 141 C 291 141 310 145 324 155 C 338 164 345 177 345 194 C 345 207 339 218 329 228 C 319 237 302 246 280 255 L 261 261 C 211 278 172 302 146 334 C 120 365 107 402 107 444 C 107 508 130 562 178 606 C 225 649 291 671 375 671 C 406 671 438 668 470 662 C 502 656 533 647 561 636 L 537 472 C 511 486 483 498 455 506 C 426 514 398 519 371 519 C 348 519 330 514 318 505 C 306 496 300 484 300 469 C 300 456 305 445 316 436 C 326 427 343 418 367 410 L 386 404 C 433 387 470 363 496 333 C 522 302 535 264 535 220 C 535 154 510 99 462 54 C 413 8 344 -14 255 -14 Z" unicode="Ŝ" />
<glyph horiz-adv-x="441" d="M 120 528 L 233 690 L 395 690 L 462 528 L 330 528 L 301 597 L 252 528 L 120 528 Z M 212 -13 C 184 -13 156 -10 128 -6 C 99 -2 71 4 45 13 L 64 146 C 86 134 109 125 135 119 C 160 113 185 110 211 110 C 225 110 236 113 245 117 C 253 121 258 129 258 139 C 258 146 254 152 247 157 C 239 161 229 166 217 170 L 189 177 C 153 186 125 202 106 226 C 86 250 77 280 77 317 C 77 367 94 407 130 439 C 166 471 217 487 285 487 C 310 487 337 485 365 481 C 393 477 420 471 446 463 L 429 336 C 408 346 386 353 362 359 C 338 364 315 367 293 367 C 280 367 270 364 262 360 C 254 356 251 349 251 341 C 251 333 253 327 259 322 C 264 317 273 313 286 309 L 314 302 C 351 291 380 274 400 250 C 420 226 431 197 431 162 C 431 110 412 67 375 35 C 338 3 284 -13 212 -13 Z" unicode="ŝ" />
<glyph horiz-adv-x="549" d="M 255 -14 C 222 -14 189 -10 156 -3 C 123 3 92 13 63 27 L 86 191 C 112 174 141 161 172 153 C 203 145 234 141 265 141 C 291 141 310 145 324 155 C 338 164 345 177 345 194 C 345 207 339 218 329 228 C 319 237 302 246 280 255 L 261 261 C 211 278 172 302 146 334 C 120 365 107 402 107 444 C 107 508 130 562 178 606 C 225 649 291 671 375 671 C 406 671 438 668 470 662 C 502 656 533 647 561 636 L 537 472 C 511 486 483 498 455 506 C 426 514 398 519 371 519 C 348 519 330 514 318 505 C 306 496 300 484 300 469 C 300 456 305 445 316 436 C 326 427 343 418 367 410 L 386 404 C 433 387 470 363 496 333 C 522 302 535 264 535 220 C 535 154 510 99 462 54 C 413 8 344 -14 255 -14 Z M 260 -238 C 248 -238 236 -236 225 -234 C 213 -232 203 -228 193 -224 L 203 -148 C 211 -152 220 -156 228 -159 C 236 -161 244 -163 253 -163 C 262 -163 270 -160 276 -155 C 282 -150 285 -143 285 -135 C 285 -128 282 -123 277 -119 C 272 -115 266 -113 258 -113 L 248 -113 L 257 -47 L 271 -47 C 301 -47 325 -55 343 -71 C 361 -87 370 -107 370 -133 C 370 -164 359 -189 339 -209 C 318 -228 292 -238 260 -238 Z" unicode="Ş" />
<glyph horiz-adv-x="441" d="M 212 -13 C 184 -13 156 -10 128 -6 C 99 -2 71 4 45 13 L 64 146 C 86 134 109 125 135 119 C 160 113 185 110 211 110 C 225 110 236 113 245 117 C 253 121 258 129 258 139 C 258 146 254 152 247 157 C 239 161 229 166 217 170 L 189 177 C 153 186 125 202 106 226 C 86 250 77 280 77 317 C 77 367 94 407 130 439 C 166 471 217 487 285 487 C 310 487 337 485 365 481 C 393 477 420 471 446 463 L 429 336 C 408 346 386 353 362 359 C 338 364 315 367 293 367 C 280 367 270 364 262 360 C 254 356 251 349 251 341 C 251 333 253 327 259 322 C 264 317 273 313 286 309 L 314 302 C 351 291 380 274 400 250 C 420 226 431 197 431 162 C 431 110 412 67 375 35 C 338 3 284 -13 212 -13 Z M 209 -248 C 196 -248 183 -246 171 -244 C 159 -242 147 -238 137 -234 L 148 -153 C 157 -157 166 -161 175 -164 C 184 -166 193 -168 201 -168 C 211 -168 220 -165 226 -160 C 232 -154 235 -147 235 -139 C 235 -131 232 -125 228 -121 C 223 -117 216 -115 208 -115 L 199 -115 L 210 -42 L 221 -42 C 255 -42 283 -50 304 -68 C 324 -85 335 -108 335 -137 C 335 -169 323 -196 300 -217 C 276 -237 246 -248 209 -248 Z" unicode="ş" />
<glyph horiz-adv-x="549" d="M 296 714 L 235 860 L 355 860 L 381 799 L 424 860 L 543 860 L 442 714 L 296 714 Z M 255 -14 C 222 -14 189 -10 156 -3 C 123 3 92 13 63 27 L 86 191 C 112 174 141 161 172 153 C 203 145 234 141 265 141 C 291 141 310 145 324 155 C 338 164 345 177 345 194 C 345 207 339 218 329 228 C 319 237 302 246 280 255 L 261 261 C 211 278 172 302 146 334 C 120 365 107 402 107 444 C 107 508 130 562 178 606 C 225 649 291 671 375 671 C 406 671 438 668 470 662 C 502 656 533 647 561 636 L 537 472 C 511 486 483 498 455 506 C 426 514 398 519 371 519 C 348 519 330 514 318 505 C 306 496 300 484 300 469 C 300 456 305 445 316 436 C 326 427 343 418 367 410 L 386 404 C 433 387 470 363 496 333 C 522 302 535 264 535 220 C 535 154 510 99 462 54 C 413 8 344 -14 255 -14 Z" unicode="Š" />
<glyph horiz-adv-x="441" d="M 208 528 L 140 690 L 273 690 L 302 622 L 351 690 L 483 690 L 370 528 L 208 528 Z M 212 -13 C 184 -13 156 -10 128 -6 C 99 -2 71 4 45 13 L 64 146 C 86 134 109 125 135 119 C 160 113 185 110 211 110 C 225 110 236 113 245 117 C 253 121 258 129 258 139 C 258 146 254 152 247 157 C 239 161 229 166 217 170 L 189 177 C 153 186 125 202 106 226 C 86 250 77 280 77 317 C 77 367 94 407 130 439 C 166 471 217 487 285 487 C 310 487 337 485 365 481 C 393 477 420 471 446 463 L 429 336 C 408 346 386 353 362 359 C 338 364 315 367 293 367 C 280 367 270 364 262 360 C 254 356 251 349 251 341 C 251 333 253 327 259 322 C 264 317 273 313 286 309 L 314 302 C 351 291 380 274 400 250 C 420 226 431 197 431 162 C 431 110 412 67 375 35 C 338 3 284 -13 212 -13 Z" unicode="š" />
<glyph horiz-adv-x="575" d="M 199 0 L 269 498 L 90 498 L 113 658 L 647 658 L 624 498 L 445 498 L 375 0 L 199 0 Z M 277 -230 C 265 -230 253 -228 242 -226 C 230 -224 220 -220 210 -216 L 220 -140 C 228 -144 237 -148 245 -151 C 253 -153 261 -155 270 -155 C 279 -155 287 -152 293 -147 C 299 -142 302 -135 302 -127 C 302 -120 299 -115 294 -111 C 289 -107 283 -105 275 -105 L 265 -105 L 274 -39 L 288 -39 C 318 -39 342 -47 360 -63 C 378 -79 387 -99 387 -125 C 387 -156 376 -181 356 -201 C 335 -220 309 -230 277 -230 Z" unicode="Ţ" />
<glyph horiz-adv-x="372" d="M 233 -11 C 187 -11 153 3 131 32 C 109 61 101 100 108 149 L 133 331 L 69 331 L 89 474 L 153 474 L 172 605 L 342 605 L 323 474 L 411 474 L 391 331 L 304 331 L 283 187 C 281 172 282 160 288 152 C 294 144 303 140 316 140 C 324 140 333 141 341 143 C 349 145 358 149 366 154 L 345 9 C 326 2 308 -2 290 -6 C 272 -9 253 -11 233 -11 Z M 214 -254 C 201 -254 188 -252 176 -250 C 164 -248 152 -244 142 -240 L 153 -159 C 162 -163 171 -167 180 -170 C 189 -172 198 -174 206 -174 C 216 -174 225 -171 231 -166 C 237 -160 240 -153 240 -145 C 240 -137 237 -131 233 -127 C 228 -123 221 -121 213 -121 L 204 -121 L 215 -48 L 226 -48 C 260 -48 288 -56 309 -74 C 329 -91 340 -114 340 -143 C 340 -175 328 -202 305 -223 C 281 -243 251 -254 214 -254 Z" unicode="ţ" />
<glyph horiz-adv-x="575" d="M 309 706 L 248 852 L 368 852 L 394 791 L 437 852 L 556 852 L 455 706 L 309 706 Z M 199 0 L 269 498 L 90 498 L 113 658 L 647 658 L 624 498 L 445 498 L 375 0 L 199 0 Z" unicode="Ť" />
<glyph horiz-adv-x="514" d="M 478 501 L 374 533 C 390 556 401 578 409 598 C 417 618 422 642 426 669 L 434 717 L 566 717 L 559 669 C 553 629 544 597 532 572 C 519 547 501 523 478 501 Z M 233 -11 C 187 -11 153 3 131 32 C 109 61 101 100 108 149 L 133 331 L 69 331 L 89 474 L 153 474 L 172 605 L 342 605 L 323 474 L 411 474 L 391 331 L 304 331 L 283 187 C 281 172 282 160 288 152 C 294 144 303 140 316 140 C 324 140 333 141 341 143 C 349 145 358 149 366 154 L 345 9 C 326 2 308 -2 290 -6 C 272 -9 253 -11 233 -11 Z" unicode="ť" />
<glyph horiz-adv-x="575" d="M 199 0 L 234 251 L 131 251 L 147 369 L 251 369 L 269 498 L 90 498 L 113 658 L 647 658 L 624 498 L 445 498 L 427 369 L 532 369 L 516 251 L 410 251 L 375 0 L 199 0 Z" unicode="Ŧ" />
<glyph horiz-adv-x="372" d="M 64 201 L 77 290 L 127 290 L 133 331 L 69 331 L 89 474 L 153 474 L 172 605 L 342 605 L 323 474 L 411 474 L 391 331 L 304 331 L 298 290 L 355 290 L 343 201 L 285 201 L 283 187 C 281 172 282 160 288 152 C 294 144 303 140 316 140 C 324 140 333 141 341 143 C 349 145 358 149 366 154 L 345 9 C 326 2 308 -2 290 -6 C 272 -9 253 -11 233 -11 C 187 -11 153 3 131 32 C 109 61 101 100 108 149 L 115 201 L 64 201 Z" unicode="ŧ" />
<glyph horiz-adv-x="693" d="M 386 706 L 304 706 C 310 749 322 782 340 804 C 358 826 383 837 415 837 C 429 837 441 835 451 832 C 461 828 472 823 483 815 C 489 810 494 807 498 805 C 502 803 506 802 511 802 C 517 802 523 804 528 810 C 533 815 536 823 538 833 L 620 833 C 614 789 601 757 583 735 C 564 713 539 702 509 702 C 495 702 482 703 472 707 C 461 710 451 716 442 724 C 435 728 430 732 426 734 C 422 736 417 737 413 737 C 406 737 400 734 395 729 C 390 723 387 716 386 706 Z M 363 -12 C 271 -12 200 14 151 67 C 101 119 82 185 93 265 L 148 658 L 330 658 L 276 272 C 271 238 278 210 296 188 C 314 166 341 156 377 156 C 412 156 441 166 465 188 C 489 210 503 238 508 272 L 563 658 L 729 658 L 673 261 C 661 176 627 109 571 61 C 514 12 445 -12 363 -12 Z" unicode="Ũ" />
<glyph horiz-adv-x="546" d="M 265 524 L 174 524 C 180 572 194 608 215 632 C 235 656 263 669 297 669 C 312 669 326 667 338 663 C 350 659 361 653 372 645 C 379 640 385 636 390 634 C 394 631 399 630 404 630 C 411 630 417 633 423 639 C 428 645 432 653 434 664 L 525 664 C 518 616 504 579 484 555 C 463 531 436 519 402 519 C 386 519 372 521 360 525 C 348 529 337 535 327 544 C 320 548 314 552 309 554 C 304 556 299 558 295 558 C 287 558 280 555 275 549 C 269 543 266 534 265 524 Z M 193 -11 C 148 -11 113 3 88 33 C 63 63 55 102 63 152 L 95 348 C 98 370 101 393 103 415 C 105 437 107 456 107 474 L 277 474 C 277 453 276 432 274 410 C 272 388 269 367 265 345 L 240 200 C 236 179 237 164 244 154 C 250 144 261 140 276 140 C 296 140 314 151 329 173 C 343 195 355 232 363 285 L 389 474 L 560 474 L 512 133 C 509 113 507 91 506 67 C 504 43 504 21 504 0 L 334 0 L 334 79 C 317 49 296 26 272 11 C 248 -3 221 -11 193 -11 Z" unicode="ũ" />
<glyph horiz-adv-x="693" d="M 340 706 L 354 806 L 586 806 L 572 706 L 340 706 Z M 363 -12 C 271 -12 200 14 151 67 C 101 119 82 185 93 265 L 148 658 L 330 658 L 276 272 C 271 238 278 210 296 188 C 314 166 341 156 377 156 C 412 156 441 166 465 188 C 489 210 503 238 508 272 L 563 658 L 729 658 L 673 261 C 661 176 627 109 571 61 C 514 12 445 -12 363 -12 Z" unicode="Ū" />
<glyph horiz-adv-x="546" d="M 211 532 L 226 643 L 484 643 L 468 532 L 211 532 Z M 193 -11 C 148 -11 113 3 88 33 C 63 63 55 102 63 152 L 95 348 C 98 370 101 393 103 415 C 105 437 107 456 107 474 L 277 474 C 277 453 276 432 274 410 C 272 388 269 367 265 345 L 240 200 C 236 179 237 164 244 154 C 250 144 261 140 276 140 C 296 140 314 151 329 173 C 343 195 355 232 363 285 L 389 474 L 560 474 L 512 133 C 509 113 507 91 506 67 C 504 43 504 21 504 0 L 334 0 L 334 79 C 317 49 296 26 272 11 C 248 -3 221 -11 193 -11 Z" unicode="ū" />
<glyph horiz-adv-x="693" d="M 456 702 C 414 702 383 714 363 739 C 342 763 335 797 341 839 L 427 839 C 425 825 427 814 434 806 C 440 798 450 794 463 794 C 475 794 485 798 493 806 C 501 814 506 825 508 839 L 594 839 C 588 797 573 763 548 739 C 522 714 492 702 456 702 Z M 363 -12 C 271 -12 200 14 151 67 C 101 119 82 185 93 265 L 148 658 L 330 658 L 276 272 C 271 238 278 210 296 188 C 314 166 341 156 377 156 C 412 156 441 166 465 188 C 489 210 503 238 508 272 L 563 658 L 729 658 L 673 261 C 661 176 627 109 571 61 C 514 12 445 -12 363 -12 Z" unicode="Ŭ" />
<glyph horiz-adv-x="546" d="M 342 520 C 296 520 261 533 238 561 C 215 589 207 626 214 673 L 310 673 C 308 657 310 645 317 636 C 324 626 335 622 349 622 C 362 622 373 626 383 636 C 392 645 398 657 400 673 L 496 673 C 489 626 472 589 444 561 C 416 533 382 520 342 520 Z M 193 -11 C 148 -11 113 3 88 33 C 63 63 55 102 63 152 L 95 348 C 98 370 101 393 103 415 C 105 437 107 456 107 474 L 277 474 C 277 453 276 432 274 410 C 272 388 269 367 265 345 L 240 200 C 236 179 237 164 244 154 C 250 144 261 140 276 140 C 296 140 314 151 329 173 C 343 195 355 232 363 285 L 389 474 L 560 474 L 512 133 C 509 113 507 91 506 67 C 504 43 504 21 504 0 L 334 0 L 334 79 C 317 49 296 26 272 11 C 248 -3 221 -11 193 -11 Z" unicode="ŭ" />
<glyph horiz-adv-x="693" d="M 447 583 C 415 583 388 592 367 612 C 346 631 336 656 336 687 C 336 721 347 749 371 773 C 395 796 424 808 458 808 C 490 808 516 798 537 779 C 558 760 569 735 569 705 C 569 671 557 642 535 618 C 512 594 483 583 447 583 Z M 451 658 C 462 658 471 661 479 669 C 487 676 491 686 491 698 C 491 707 487 715 480 722 C 473 729 464 733 454 733 C 443 733 434 729 426 721 C 418 713 414 704 414 693 C 414 683 417 675 424 668 C 431 661 440 658 451 658 Z M 363 -12 C 271 -12 200 14 151 67 C 101 119 82 185 93 265 L 148 658 L 330 658 L 276 272 C 271 238 278 210 296 188 C 314 166 341 156 377 156 C 412 156 441 166 465 188 C 489 210 503 238 508 272 L 563 658 L 729 658 L 673 261 C 661 176 627 109 571 61 C 514 12 445 -12 363 -12 Z" unicode="Ů" />
<glyph horiz-adv-x="546" d="M 193 -11 C 148 -11 113 3 88 33 C 63 63 55 102 63 152 L 95 348 C 98 370 101 393 103 415 C 105 437 107 456 107 474 L 240 474 C 231 483 224 494 220 507 C 215 520 213 534 213 550 C 213 588 226 619 252 645 C 278 671 311 684 350 684 C 384 684 412 673 436 652 C 459 630 471 603 471 569 C 471 550 467 532 461 516 C 454 500 445 486 433 474 L 560 474 L 512 133 C 509 113 507 91 506 67 C 504 43 504 21 504 0 L 334 0 L 334 79 C 317 49 296 26 272 11 C 248 -3 221 -11 193 -11 Z M 340 518 C 352 518 363 522 372 530 C 380 538 385 549 385 562 C 385 572 381 581 373 589 C 365 597 355 601 344 601 C 331 601 320 597 312 589 C 304 581 300 570 300 558 C 300 546 303 537 311 529 C 319 521 328 518 340 518 Z M 334 435 C 323 435 313 436 303 438 C 293 440 284 443 276 447 C 275 430 274 413 272 396 C 270 379 267 362 265 345 L 240 200 C 236 179 237 164 244 154 C 250 144 261 140 276 140 C 296 140 314 151 329 173 C 343 195 355 232 363 285 L 385 443 C 377 440 368 438 360 437 C 351 435 342 435 334 435 Z" unicode="ů" />
<glyph horiz-adv-x="693" d="M 310 706 L 410 848 L 533 848 L 424 706 L 310 706 Z M 479 706 L 588 848 L 711 848 L 593 706 L 479 706 Z M 363 -12 C 271 -12 200 14 151 67 C 101 119 82 185 93 265 L 148 658 L 330 658 L 276 272 C 271 238 278 210 296 188 C 314 166 341 156 377 156 C 412 156 441 166 465 188 C 489 210 503 238 508 272 L 563 658 L 729 658 L 673 261 C 661 176 627 109 571 61 C 514 12 445 -12 363 -12 Z" unicode="Ű" />
<glyph horiz-adv-x="546" d="M 178 527 L 289 685 L 426 685 L 305 527 L 178 527 Z M 366 527 L 487 685 L 624 685 L 492 527 L 366 527 Z M 193 -11 C 148 -11 113 3 88 33 C 63 63 55 102 63 152 L 95 348 C 98 370 101 393 103 415 C 105 437 107 456 107 474 L 277 474 C 277 453 276 432 274 410 C 272 388 269 367 265 345 L 240 200 C 236 179 237 164 244 154 C 250 144 261 140 276 140 C 296 140 314 151 329 173 C 343 195 355 232 363 285 L 389 474 L 560 474 L 512 133 C 509 113 507 91 506 67 C 504 43 504 21 504 0 L 334 0 L 334 79 C 317 49 296 26 272 11 C 248 -3 221 -11 193 -11 Z" unicode="ű" />
<glyph horiz-adv-x="692" d="M 478 -220 C 421 -220 376 -208 343 -184 C 310 -160 294 -127 294 -86 C 294 -72 296 -59 300 -46 C 304 -33 311 -21 320 -10 C 240 -3 180 24 139 73 C 98 122 83 185 94 263 L 149 658 L 331 658 L 277 270 C 272 236 278 208 295 187 C 311 166 337 156 371 156 C 408 156 439 166 464 187 C 489 207 504 235 509 269 L 564 658 L 730 658 L 674 258 C 665 197 644 145 610 102 C 576 58 533 28 482 10 C 465 3 452 -5 444 -15 C 436 -25 432 -37 432 -51 C 432 -67 437 -81 448 -91 C 458 -101 474 -107 494 -107 L 478 -220 Z" unicode="Ų" />
<glyph horiz-adv-x="546" d="M 193 -11 C 148 -11 113 3 88 33 C 63 63 55 102 63 152 L 95 348 C 98 370 101 393 103 415 C 105 437 107 456 107 474 L 277 474 C 277 453 276 432 274 410 C 272 388 269 367 265 345 L 240 200 C 236 179 237 164 244 154 C 250 144 261 140 276 140 C 296 140 314 151 329 173 C 343 195 355 232 363 285 L 389 474 L 560 474 L 512 133 C 509 113 507 91 506 67 C 504 43 504 21 504 0 L 479 0 C 463 -2 450 -8 442 -18 C 433 -27 429 -38 429 -52 C 429 -65 433 -76 443 -85 C 453 -94 467 -99 486 -99 L 469 -215 C 415 -215 373 -204 341 -183 C 309 -162 293 -133 293 -95 C 293 -77 297 -61 305 -45 C 313 -29 324 -14 340 0 L 334 0 L 334 79 C 317 49 296 26 272 11 C 248 -3 221 -11 193 -11 Z" unicode="ų" />
<glyph horiz-adv-x="1039" d="M 475 706 L 574 852 L 706 852 L 765 706 L 655 706 L 630 769 L 587 706 L 475 706 Z M 209 0 L 104 658 L 289 658 L 333 326 L 342 211 L 385 326 L 524 658 L 708 658 L 753 326 L 764 214 L 805 326 L 942 658 L 1117 658 L 825 0 L 631 0 L 590 304 L 579 430 L 530 304 L 402 0 L 209 0 Z" unicode="Ŵ" />
<glyph horiz-adv-x="780" d="M 290 524 L 403 686 L 565 686 L 632 524 L 500 524 L 471 593 L 422 524 L 290 524 Z M 129 0 L 75 474 L 242 474 L 261 279 L 266 164 C 286 214 306 266 325 318 C 344 370 362 422 379 474 L 533 474 L 560 280 L 573 162 C 595 215 616 267 634 319 C 652 371 668 422 683 474 L 834 474 C 811 394 782 314 748 232 C 714 150 676 72 636 0 L 457 0 L 435 163 L 427 255 C 411 211 394 167 376 124 C 358 81 339 40 320 0 L 129 0 Z" unicode="ŵ" />
<glyph horiz-adv-x="685" d="M 290 706 L 389 852 L 521 852 L 580 706 L 470 706 L 445 769 L 402 706 L 290 706 Z M 254 0 L 289 250 L 100 658 L 297 658 L 371 490 L 399 416 L 446 490 L 565 658 L 765 658 L 465 251 L 430 0 L 254 0 Z" unicode="Ŷ" />
<glyph horiz-adv-x="530" d="M 165 524 L 278 686 L 440 686 L 507 524 L 375 524 L 346 593 L 297 524 L 165 524 Z M 388 11 C 335 -65 275 -121 209 -159 C 142 -196 69 -215 -11 -215 L -22 -215 L -1 -66 L 11 -66 C 43 -66 74 -60 104 -49 C 134 -38 161 -23 185 -4 L 169 -2 L 77 474 L 256 474 L 288 280 L 305 127 C 325 169 344 217 362 273 C 379 328 397 395 416 474 L 577 474 C 553 376 525 288 493 210 C 461 132 426 66 388 11 Z" unicode="ŷ" />
<glyph horiz-adv-x="685" d="M 288 706 L 305 825 L 424 825 L 407 706 L 288 706 Z M 460 706 L 477 825 L 596 825 L 579 706 L 460 706 Z M 254 0 L 289 250 L 100 658 L 297 658 L 371 490 L 399 416 L 446 490 L 565 658 L 765 658 L 465 251 L 430 0 L 254 0 Z" unicode="Ÿ" />
<glyph horiz-adv-x="629" d="M 333 706 L 448 845 L 616 845 L 483 706 L 333 706 Z M 46 0 L 60 99 L 340 435 L 396 498 L 123 498 L 146 658 L 677 658 L 664 559 L 385 223 L 329 160 L 607 160 L 585 0 L 46 0 Z" unicode="Ź" />
<glyph horiz-adv-x="485" d="M 225 524 L 352 678 L 538 678 L 389 524 L 225 524 Z M 32 0 L 46 98 L 204 273 L 257 330 L 82 330 L 102 474 L 510 474 L 496 376 L 336 201 L 283 144 L 471 144 L 451 0 L 32 0 Z" unicode="ź" />
<glyph horiz-adv-x="629" d="M 345 706 L 363 829 L 485 829 L 468 706 L 345 706 Z M 46 0 L 60 99 L 340 435 L 396 498 L 123 498 L 146 658 L 677 658 L 664 559 L 385 223 L 329 160 L 607 160 L 585 0 L 46 0 Z" unicode="Ż" />
<glyph horiz-adv-x="485" d="M 241 524 L 261 660 L 397 660 L 377 524 L 241 524 Z M 32 0 L 46 98 L 204 273 L 257 330 L 82 330 L 102 474 L 510 474 L 496 376 L 336 201 L 283 144 L 471 144 L 451 0 L 32 0 Z" unicode="ż" />
<glyph horiz-adv-x="629" d="M 334 706 L 273 852 L 393 852 L 419 791 L 462 852 L 581 852 L 480 706 L 334 706 Z M 46 0 L 60 99 L 340 435 L 396 498 L 123 498 L 146 658 L 677 658 L 664 559 L 385 223 L 329 160 L 607 160 L 585 0 L 46 0 Z" unicode="Ž" />
<glyph horiz-adv-x="485" d="M 225 524 L 157 686 L 290 686 L 319 618 L 368 686 L 500 686 L 387 524 L 225 524 Z M 32 0 L 46 98 L 204 273 L 257 330 L 82 330 L 102 474 L 510 474 L 496 376 L 336 201 L 283 144 L 471 144 L 451 0 L 32 0 Z" unicode="ž" />
<glyph horiz-adv-x="458" d="M 102 -215 C 86 -215 70 -214 55 -212 C 39 -210 24 -206 8 -202 L 29 -51 C 38 -54 48 -56 58 -58 C 68 -60 78 -61 89 -61 C 104 -61 116 -56 125 -48 C 134 -39 140 -27 143 -11 L 191 328 L 120 328 L 140 472 L 211 472 L 221 540 C 229 601 252 647 288 677 C 324 707 369 722 423 722 C 439 722 455 721 471 719 C 487 717 503 714 519 711 L 498 561 C 489 564 480 567 471 569 C 461 571 452 572 443 572 C 426 572 413 567 404 559 C 394 550 389 538 387 522 L 380 472 L 464 472 L 444 328 L 360 328 L 309 -32 C 300 -90 278 -135 242 -167 C 206 -199 159 -215 102 -215 Z" unicode="ƒ" />
<glyph horiz-adv-x="715" d="M 415 716 L 354 862 L 474 862 L 500 801 L 543 862 L 662 862 L 561 716 L 415 716 Z M 422 -14 C 318 -14 236 13 176 67 C 116 121 87 194 87 285 C 87 399 124 492 200 564 C 276 636 374 672 494 672 C 532 672 572 668 613 661 C 653 653 689 644 720 632 L 697 467 C 667 481 633 493 596 501 C 559 509 524 514 490 514 C 422 514 369 493 330 452 C 290 411 271 360 271 298 C 271 253 285 216 313 186 C 341 156 379 142 425 142 C 441 142 456 142 469 144 C 482 146 494 149 506 153 L 518 244 L 408 244 L 428 385 L 719 385 L 671 41 C 629 22 587 8 546 0 C 505 -9 464 -14 422 -14 Z" unicode="Ǧ" />
<glyph horiz-adv-x="547" d="M 275 529 L 207 691 L 340 691 L 369 623 L 418 691 L 550 691 L 437 529 L 275 529 Z M 223 -220 C 195 -220 165 -217 132 -213 C 98 -208 66 -201 35 -191 L 56 -42 C 77 -55 101 -65 129 -73 C 156 -81 181 -85 204 -85 C 240 -85 270 -77 292 -62 C 314 -47 328 -24 333 6 L 339 53 C 322 28 304 10 284 0 C 264 -10 242 -16 218 -16 C 172 -16 133 0 103 34 C 72 67 57 115 57 179 C 57 264 86 336 144 395 C 202 453 275 483 365 483 C 395 483 428 480 464 474 C 500 468 534 461 566 452 L 504 8 C 492 -71 463 -129 415 -165 C 367 -201 303 -220 223 -220 Z M 283 134 C 303 134 321 145 337 167 C 353 189 364 225 372 275 L 381 337 C 373 339 365 341 357 343 C 349 344 341 345 333 345 C 305 345 281 331 259 304 C 237 277 227 245 227 207 C 227 183 231 165 241 153 C 250 140 264 134 283 134 Z" unicode="ǧ" />
<glyph horiz-adv-x="722" d="M 420 822 L 491 909 L 596 909 L 521 822 L 420 822 Z M 14 0 L 356 633 C 352 639 348 647 346 656 C 344 664 343 673 343 683 C 343 716 354 744 377 767 C 399 789 428 801 462 801 C 492 801 517 791 537 773 C 557 754 568 730 568 701 C 568 687 566 674 562 662 C 558 650 552 639 545 630 L 708 0 L 525 0 L 496 118 L 252 118 L 191 0 L 14 0 Z M 454 658 C 464 658 472 661 479 668 C 486 674 490 683 490 694 C 490 702 486 710 480 716 C 474 722 466 726 457 726 C 447 726 438 722 431 715 C 424 708 421 700 421 690 C 421 681 424 673 430 667 C 436 661 444 658 454 658 Z M 319 248 L 466 248 L 446 332 L 421 453 L 362 332 L 319 248 Z" unicode="Ǻ" />
<glyph horiz-adv-x="558" d="M 323 672 L 402 768 L 519 768 L 436 672 L 323 672 Z M 218 -11 C 172 -11 133 5 103 38 C 72 71 57 119 57 182 C 57 248 74 306 110 357 C 145 407 192 443 251 464 C 247 471 243 479 241 489 C 239 498 238 508 238 518 C 238 554 250 585 276 610 C 301 635 332 648 370 648 C 403 648 431 637 453 617 C 475 596 487 569 487 537 C 487 525 485 514 482 503 C 479 492 475 482 471 474 C 487 471 504 468 520 464 C 536 460 552 456 567 452 L 527 169 C 523 143 521 115 519 86 C 517 56 516 28 516 0 L 358 0 L 358 79 C 341 47 321 24 297 10 C 273 -3 246 -11 218 -11 Z M 361 490 C 372 490 381 493 389 501 C 397 509 401 518 401 530 C 401 540 397 548 391 555 C 384 561 375 565 365 565 C 353 565 344 561 336 553 C 328 545 324 536 324 526 C 324 515 327 506 334 500 C 341 493 350 490 361 490 Z M 283 137 C 303 137 321 147 337 169 C 353 191 364 227 372 277 L 381 338 C 373 340 366 342 358 344 C 350 346 341 347 333 347 C 305 347 281 333 259 306 C 237 279 227 247 227 210 C 227 186 231 168 241 156 C 250 143 264 137 283 137 Z" unicode="ǻ" />
<glyph horiz-adv-x="922" d="M 552 706 L 667 845 L 835 845 L 702 706 L 552 706 Z M 4 0 L 426 658 L 907 658 L 888 526 L 632 526 L 614 399 L 861 399 L 842 267 L 596 267 L 577 132 L 843 132 L 824 0 L 418 0 L 440 160 L 260 160 L 158 0 L 4 0 Z M 345 292 L 459 292 L 492 525 L 419 408 L 345 292 Z" unicode="Ǽ" />
<glyph horiz-adv-x="763" d="M 365 524 L 492 678 L 678 678 L 529 524 L 365 524 Z M 198 -11 C 146 -11 108 1 84 27 C 59 53 47 84 47 120 C 47 169 65 208 101 238 C 137 268 185 283 247 285 L 331 287 L 334 311 C 336 328 330 341 317 350 C 303 358 283 363 255 363 C 227 363 200 359 174 351 C 148 343 122 333 98 321 L 117 455 C 147 465 177 473 207 479 C 236 484 265 487 294 487 C 329 487 358 482 382 473 C 405 464 423 453 437 440 C 457 454 481 466 508 474 C 534 482 564 487 596 487 C 648 487 691 473 727 445 C 762 417 780 382 780 340 C 780 294 762 259 727 235 C 692 211 628 197 535 195 L 490 194 C 490 169 499 150 516 137 C 533 124 559 118 593 118 C 619 118 647 121 675 129 C 703 137 729 148 754 164 L 734 23 C 705 11 675 1 644 -4 C 613 -10 583 -14 554 -14 C 507 -14 468 -6 436 9 C 404 25 379 47 362 75 C 342 47 318 26 290 11 C 261 -3 230 -11 198 -11 Z M 577 374 C 558 374 542 365 528 349 C 514 333 504 311 500 285 L 537 286 C 561 286 581 291 596 300 C 610 309 618 322 618 339 C 618 349 614 358 607 364 C 599 370 589 374 577 374 Z M 256 112 C 270 112 283 117 294 126 C 304 135 311 147 313 162 L 318 194 L 274 192 C 257 191 243 187 233 179 C 223 171 218 160 218 147 C 218 135 221 127 229 121 C 236 115 245 112 256 112 Z" unicode="ǽ" />
<glyph horiz-adv-x="788" d="M 382 718 L 497 857 L 665 857 L 532 718 L 382 718 Z M 115 -48 L 186 58 C 154 84 130 117 113 157 C 95 196 87 241 87 291 C 87 400 123 491 195 564 C 267 637 357 674 466 674 C 487 674 508 672 528 669 C 548 666 568 662 586 657 L 539 587 L 646 522 L 697 598 C 681 610 664 622 646 632 C 627 642 607 650 586 657 L 619 706 L 769 706 L 697 598 C 727 571 751 538 768 499 C 785 460 794 416 794 367 C 794 257 757 165 685 93 C 613 20 522 -16 413 -16 C 392 -16 372 -14 352 -12 C 332 -9 314 -5 297 0 L 265 -48 L 115 -48 Z M 422 142 C 476 142 521 162 557 202 C 593 242 611 293 611 355 C 611 403 597 442 569 472 C 541 502 504 517 458 517 C 403 517 358 497 323 457 C 287 417 270 366 270 304 C 270 256 283 217 311 187 C 338 157 375 142 422 142 Z" unicode="Ǿ" />
<glyph horiz-adv-x="548" d="M 210 529 L 337 683 L 523 683 L 374 529 L 210 529 Z M 52 -48 L 116 48 C 98 66 84 89 74 115 C 64 141 60 170 60 202 C 60 283 86 351 138 406 C 190 460 255 488 333 488 C 345 488 358 487 370 486 C 382 484 393 482 404 480 L 363 418 L 454 362 L 498 428 C 486 440 472 451 456 460 C 440 468 422 475 404 480 L 433 522 L 561 522 L 498 428 C 516 409 530 387 540 361 C 550 335 555 305 555 273 C 555 191 529 123 477 68 C 425 13 361 -14 284 -14 C 270 -14 257 -13 245 -11 C 232 -9 220 -7 209 -5 L 180 -48 L 52 -48 Z M 298 134 C 322 134 343 145 361 169 C 378 193 387 223 387 261 C 387 284 380 303 367 318 C 354 333 338 341 318 341 C 293 341 272 329 255 305 C 237 281 229 251 229 213 C 229 189 235 170 248 156 C 260 141 277 134 298 134 Z" unicode="ǿ" />
<glyph horiz-adv-x="549" d="M 255 -14 C 222 -14 189 -10 156 -3 C 123 3 92 13 63 27 L 86 191 C 112 174 141 161 172 153 C 203 145 234 141 265 141 C 291 141 310 145 324 155 C 338 164 345 177 345 194 C 345 207 339 218 329 228 C 319 237 302 246 280 255 L 261 261 C 211 278 172 302 146 334 C 120 365 107 402 107 444 C 107 508 130 562 178 606 C 225 649 291 671 375 671 C 406 671 438 668 470 662 C 502 656 533 647 561 636 L 537 472 C 511 486 483 498 455 506 C 426 514 398 519 371 519 C 348 519 330 514 318 505 C 306 496 300 484 300 469 C 300 456 305 445 316 436 C 326 427 343 418 367 410 L 386 404 C 433 387 470 363 496 333 C 522 302 535 264 535 220 C 535 154 510 99 462 54 C 413 8 344 -14 255 -14 Z M 249 -256 L 153 -222 C 167 -201 177 -181 184 -163 C 191 -144 196 -123 199 -100 L 206 -56 L 325 -56 L 319 -100 C 314 -134 306 -163 296 -186 C 286 -209 270 -232 249 -256 Z" unicode="Ș" />
<glyph horiz-adv-x="441" d="M 212 -13 C 184 -13 156 -10 128 -6 C 99 -2 71 4 45 13 L 64 146 C 86 134 109 125 135 119 C 160 113 185 110 211 110 C 225 110 236 113 245 117 C 253 121 258 129 258 139 C 258 146 254 152 247 157 C 239 161 229 166 217 170 L 189 177 C 153 186 125 202 106 226 C 86 250 77 280 77 317 C 77 367 94 407 130 439 C 166 471 217 487 285 487 C 310 487 337 485 365 481 C 393 477 420 471 446 463 L 429 336 C 408 346 386 353 362 359 C 338 364 315 367 293 367 C 280 367 270 364 262 360 C 254 356 251 349 251 341 C 251 333 253 327 259 322 C 264 317 273 313 286 309 L 314 302 C 351 291 380 274 400 250 C 420 226 431 197 431 162 C 431 110 412 67 375 35 C 338 3 284 -13 212 -13 Z M 199 -263 L 92 -225 C 108 -202 120 -181 128 -161 C 136 -141 141 -119 145 -94 L 152 -46 L 285 -46 L 278 -94 C 273 -132 265 -163 253 -188 C 241 -212 223 -237 199 -263 Z" unicode="ș" />
<glyph horiz-adv-x="575" d="M 199 0 L 269 498 L 90 498 L 113 658 L 647 658 L 624 498 L 445 498 L 375 0 L 199 0 Z M 266 -248 L 170 -214 C 184 -193 194 -173 201 -155 C 208 -136 213 -115 216 -92 L 223 -48 L 342 -48 L 336 -92 C 331 -126 323 -155 313 -178 C 303 -201 287 -224 266 -248 Z" unicode="Ț" />
<glyph horiz-adv-x="372" d="M 233 -11 C 187 -11 153 3 131 32 C 109 61 101 100 108 149 L 133 331 L 69 331 L 89 474 L 153 474 L 172 605 L 342 605 L 323 474 L 411 474 L 391 331 L 304 331 L 283 187 C 281 172 282 160 288 152 C 294 144 303 140 316 140 C 324 140 333 141 341 143 C 349 145 358 149 366 154 L 345 9 C 326 2 308 -2 290 -6 C 272 -9 253 -11 233 -11 Z M 204 -269 L 97 -231 C 113 -208 125 -187 133 -167 C 141 -147 146 -125 150 -100 L 157 -52 L 290 -52 L 283 -100 C 278 -138 270 -169 258 -194 C 246 -218 228 -243 204 -269 Z" unicode="ț" />
<glyph horiz-adv-x="264" d="M -59 -215 L -74 -215 L -54 -71 L -42 -71 C -17 -71 3 -63 21 -48 C 38 -33 49 -10 54 21 L 117 474 L 287 474 L 224 21 C 214 -49 184 -106 134 -150 C 84 -193 19 -215 -59 -215 Z" unicode="ȷ" />
<glyph horiz-adv-x="522" d="M 245 -13 C 191 -13 146 1 110 29 C 74 57 57 92 57 134 C 57 180 74 217 110 245 C 145 273 211 290 307 294 L 347 296 C 343 316 332 331 316 341 C 299 351 276 356 247 356 C 217 356 189 352 161 344 C 133 336 107 325 83 311 L 103 451 C 133 463 165 472 198 478 C 231 484 260 487 285 487 C 361 487 419 466 460 425 C 501 384 522 331 522 267 C 522 187 497 121 449 67 C 400 13 332 -13 245 -13 Z M 219 138 C 219 127 222 119 230 113 C 237 107 247 104 260 104 C 278 104 295 112 309 128 C 323 144 333 165 338 193 L 300 191 C 275 190 255 185 241 176 C 226 167 219 154 219 138 Z" unicode="ə" />
<glyph horiz-adv-x="366" d="M 88 524 L 201 686 L 363 686 L 430 524 L 298 524 L 269 593 L 220 524 L 88 524 Z" unicode="ˆ" />
<glyph horiz-adv-x="366" d="M 174 524 L 106 686 L 239 686 L 268 618 L 317 686 L 449 686 L 336 524 L 174 524 Z" unicode="ˇ" />
<glyph horiz-adv-x="355" d="M 257 520 C 211 520 176 533 153 561 C 130 589 122 626 129 673 L 225 673 C 223 657 225 645 232 636 C 239 626 250 622 264 622 C 277 622 288 626 298 636 C 307 645 313 657 315 673 L 411 673 C 404 626 387 589 359 561 C 331 533 297 520 257 520 Z" unicode="˘" />
<glyph horiz-adv-x="193" d="M 104 524 L 124 660 L 260 660 L 240 524 L 104 524 Z" unicode="˙" />
<glyph horiz-adv-x="269" d="M 204 435 C 170 435 141 445 118 467 C 94 488 83 516 83 550 C 83 588 96 619 122 645 C 148 671 181 684 220 684 C 254 684 282 673 306 652 C 329 630 341 603 341 569 C 341 531 328 499 302 473 C 276 447 244 435 204 435 Z M 210 518 C 222 518 233 522 242 530 C 250 538 255 549 255 562 C 255 572 251 581 243 589 C 235 597 225 601 214 601 C 201 601 190 597 182 589 C 174 581 170 570 170 558 C 170 546 173 537 181 529 C 189 521 198 518 210 518 Z" unicode="˚" />
<glyph horiz-adv-x="245" d="M 177 -220 C 124 -220 82 -208 51 -185 C 19 -161 4 -130 4 -92 C 4 -54 21 -21 55 7 C 89 36 134 55 190 65 L 205 0 C 184 0 167 -5 155 -17 C 142 -28 136 -42 136 -59 C 136 -73 141 -84 151 -93 C 161 -102 175 -107 193 -107 L 177 -220 Z" unicode="˛" />
<glyph horiz-adv-x="361" d="M 181 524 L 90 524 C 96 572 110 608 131 632 C 151 656 179 669 213 669 C 228 669 242 667 254 663 C 266 659 277 653 288 645 C 295 640 301 636 306 634 C 310 631 315 630 320 630 C 327 630 333 633 339 639 C 344 645 348 653 350 664 L 441 664 C 434 616 420 579 400 555 C 379 531 352 519 318 519 C 302 519 288 521 276 525 C 264 529 253 535 243 544 C 236 548 230 552 225 554 C 220 556 215 558 211 558 C 203 558 196 555 191 549 C 185 543 182 534 181 524 Z" unicode="˜" />
<glyph horiz-adv-x="395" d="M 70 527 L 181 685 L 318 685 L 197 527 L 70 527 Z M 258 527 L 379 685 L 516 685 L 384 527 L 258 527 Z" unicode="˝" />
<glyph horiz-adv-x="0" d="M -7 524 L -113 678 L 73 678 L 157 524 L -7 524 Z" unicode="̀" />
<glyph horiz-adv-x="0" d="M -8 524 L 119 678 L 305 678 L 156 524 L -8 524 Z" unicode="́" />
<glyph horiz-adv-x="0" d="M -96 524 L 17 686 L 179 686 L 246 524 L 114 524 L 85 593 L 36 524 L -96 524 Z" unicode="̂" />
<glyph horiz-adv-x="0" d="M 1 524 L -90 524 C -83 572 -69 608 -49 632 C -28 656 -1 669 33 669 C 48 669 62 667 74 663 C 86 659 97 653 108 645 C 115 640 121 636 126 634 C 130 631 135 630 140 630 C 147 630 153 633 159 639 C 164 645 168 653 170 664 L 261 664 C 254 616 240 579 220 555 C 199 531 172 519 138 519 C 122 519 108 521 96 525 C 84 529 73 535 63 544 C 56 548 50 552 45 554 C 40 556 35 558 31 558 C 23 558 16 555 11 549 C 5 543 2 534 1 524 Z" unicode="̃" />
<glyph horiz-adv-x="0" d="M -53 532 L -38 643 L 220 643 L 204 532 L -53 532 Z" unicode="̄" />
<glyph horiz-adv-x="0" d="M 78 520 C 32 520 -2 533 -25 561 C -48 589 -56 626 -50 673 L 46 673 C 44 657 46 645 53 636 C 60 626 71 622 85 622 C 98 622 109 626 119 636 C 128 645 134 657 136 673 L 232 673 C 225 626 208 589 180 561 C 152 533 118 520 78 520 Z" unicode="̆" />
<glyph horiz-adv-x="0" d="M 8 524 L 28 660 L 164 660 L 144 524 L 8 524 Z" unicode="̇" />
<glyph horiz-adv-x="0" d="M -86 525 L -68 657 L 65 657 L 46 525 L -86 525 Z M 104 525 L 123 657 L 255 657 L 236 525 L 104 525 Z" unicode="̈" />
<glyph horiz-adv-x="0" d="M 70 435 C 36 435 7 445 -16 467 C -39 488 -51 516 -51 550 C -51 588 -37 619 -11 645 C 14 671 47 684 86 684 C 120 684 148 673 172 652 C 195 630 207 603 207 569 C 207 531 194 499 168 473 C 142 447 110 435 70 435 Z M 76 518 C 88 518 99 522 108 530 C 116 538 121 549 121 562 C 121 572 117 581 109 589 C 101 597 91 601 80 601 C 67 601 56 597 48 589 C 40 581 36 570 36 558 C 36 546 39 537 47 529 C 55 521 64 518 76 518 Z" unicode="̊" />
<glyph horiz-adv-x="0" d="M -86 527 L 25 685 L 162 685 L 41 527 L -86 527 Z M 102 527 L 223 685 L 360 685 L 228 527 L 102 527 Z" unicode="̋" />
<glyph horiz-adv-x="0" d="M -8 524 L -76 686 L 57 686 L 86 618 L 135 686 L 267 686 L 154 524 L -8 524 Z" unicode="̌" />
<glyph horiz-adv-x="0" d="M 97 745 L 199 712 C 183 688 172 666 164 646 C 156 626 151 602 148 576 L 141 528 L 9 528 L 15 576 C 21 615 30 647 42 673 C 54 698 72 722 97 745 Z" unicode="̒" />
<glyph horiz-adv-x="1" d="M -24 -257 L -131 -219 C -115 -196 -103 -175 -95 -155 C -87 -135 -82 -113 -78 -88 L -71 -40 L 61 -40 L 55 -88 C 49 -126 41 -157 30 -182 C 18 -206 0 -231 -24 -257 Z" unicode="̦" />
<glyph horiz-adv-x="0" d="M -15 -246 C -27 -246 -40 -244 -52 -242 C -64 -240 -76 -236 -87 -232 L -76 -151 C -66 -155 -57 -159 -48 -162 C -39 -164 -31 -166 -23 -166 C -12 -166 -4 -163 2 -158 C 8 -152 11 -145 11 -137 C 11 -129 8 -123 4 -119 C 0 -115 -7 -113 -16 -113 L -25 -113 L -14 -40 L -3 -40 C 31 -40 59 -48 80 -66 C 100 -83 111 -106 111 -135 C 111 -167 99 -194 76 -215 C 52 -235 22 -246 -15 -246 Z" unicode="̧" />
<glyph horiz-adv-x="0" d="M -27 -220 C -79 -220 -121 -208 -153 -185 C -184 -161 -200 -130 -200 -92 C -200 -54 -182 -21 -148 7 C -114 36 -69 55 -14 65 L 1 0 C -19 0 -36 -5 -49 -17 C -61 -28 -68 -42 -68 -59 C -68 -73 -62 -84 -52 -93 C -42 -102 -28 -107 -11 -107 L -27 -220 Z" unicode="̨" />
<glyph horiz-adv-x="708" d="M 16 0 L 356 658 L 545 658 L 692 0 L 16 0 Z M 254 143 L 478 143 L 411 445 L 254 143 Z" unicode="Δ" />
<glyph horiz-adv-x="551" d="M 139 -201 L 12 -201 L 99 348 C 102 370 105 393 107 415 C 109 437 111 456 111 474 L 282 474 C 282 453 281 432 279 410 C 277 388 274 367 270 345 L 244 200 C 240 179 242 164 248 154 C 254 144 265 140 280 140 C 300 140 318 151 333 173 C 348 195 359 232 367 285 L 394 474 L 564 474 L 516 133 C 513 113 511 91 510 67 C 509 43 509 21 509 0 L 338 0 L 338 79 C 321 49 300 26 276 11 C 252 -3 226 -11 198 -11 C 188 -11 179 -10 171 -9 C 162 -7 154 -5 147 -3 L 139 -201 Z" unicode="μ" />
<glyph horiz-adv-x="567" d="M 91 0 L 138 332 L 81 332 L 101 474 L 599 474 L 579 332 L 521 332 L 498 173 C 493 139 491 108 493 80 C 495 52 498 25 503 0 L 346 0 C 340 26 336 52 336 78 C 336 103 338 135 344 173 L 366 332 L 292 332 L 245 0 L 91 0 Z" unicode="π" />
<glyph horiz-adv-x="1039" d="M 547 706 L 452 845 L 618 845 L 693 706 L 547 706 Z M 209 0 L 104 658 L 289 658 L 333 326 L 342 211 L 385 326 L 524 658 L 708 658 L 753 326 L 764 214 L 805 326 L 942 658 L 1117 658 L 825 0 L 631 0 L 590 304 L 579 430 L 530 304 L 402 0 L 209 0 Z" unicode="Ẁ" />
<glyph horiz-adv-x="780" d="M 379 524 L 273 678 L 459 678 L 543 524 L 379 524 Z M 129 0 L 75 474 L 242 474 L 261 279 L 266 164 C 286 214 306 266 325 318 C 344 370 362 422 379 474 L 533 474 L 560 280 L 573 162 C 595 215 616 267 634 319 C 652 371 668 422 683 474 L 834 474 C 811 394 782 314 748 232 C 714 150 676 72 636 0 L 457 0 L 435 163 L 427 255 C 411 211 394 167 376 124 C 358 81 339 40 320 0 L 129 0 Z" unicode="ẁ" />
<glyph horiz-adv-x="1039" d="M 547 706 L 662 845 L 830 845 L 697 706 L 547 706 Z M 209 0 L 104 658 L 289 658 L 333 326 L 342 211 L 385 326 L 524 658 L 708 658 L 753 326 L 764 214 L 805 326 L 942 658 L 1117 658 L 825 0 L 631 0 L 590 304 L 579 430 L 530 304 L 402 0 L 209 0 Z" unicode="Ẃ" />
<glyph horiz-adv-x="780" d="M 378 524 L 505 678 L 691 678 L 542 524 L 378 524 Z M 129 0 L 75 474 L 242 474 L 261 279 L 266 164 C 286 214 306 266 325 318 C 344 370 362 422 379 474 L 533 474 L 560 280 L 573 162 C 595 215 616 267 634 319 C 652 371 668 422 683 474 L 834 474 C 811 394 782 314 748 232 C 714 150 676 72 636 0 L 457 0 L 435 163 L 427 255 C 411 211 394 167 376 124 C 358 81 339 40 320 0 L 129 0 Z" unicode="ẃ" />
<glyph horiz-adv-x="1039" d="M 473 706 L 490 825 L 609 825 L 592 706 L 473 706 Z M 645 706 L 662 825 L 781 825 L 764 706 L 645 706 Z M 209 0 L 104 658 L 289 658 L 333 326 L 342 211 L 385 326 L 524 658 L 708 658 L 753 326 L 764 214 L 805 326 L 942 658 L 1117 658 L 825 0 L 631 0 L 590 304 L 579 430 L 530 304 L 402 0 L 209 0 Z" unicode="Ẅ" />
<glyph horiz-adv-x="780" d="M 300 525 L 318 657 L 451 657 L 432 525 L 300 525 Z M 490 525 L 509 657 L 641 657 L 622 525 L 490 525 Z M 129 0 L 75 474 L 242 474 L 261 279 L 266 164 C 286 214 306 266 325 318 C 344 370 362 422 379 474 L 533 474 L 560 280 L 573 162 C 595 215 616 267 634 319 C 652 371 668 422 683 474 L 834 474 C 811 394 782 314 748 232 C 714 150 676 72 636 0 L 457 0 L 435 163 L 427 255 C 411 211 394 167 376 124 C 358 81 339 40 320 0 L 129 0 Z" unicode="ẅ" />
<glyph horiz-adv-x="685" d="M 362 706 L 267 845 L 433 845 L 508 706 L 362 706 Z M 254 0 L 289 250 L 100 658 L 297 658 L 371 490 L 399 416 L 446 490 L 565 658 L 765 658 L 465 251 L 430 0 L 254 0 Z" unicode="Ỳ" />
<glyph horiz-adv-x="530" d="M 254 524 L 148 678 L 334 678 L 418 524 L 254 524 Z M 388 11 C 335 -65 275 -121 209 -159 C 142 -196 69 -215 -11 -215 L -22 -215 L -1 -66 L 11 -66 C 43 -66 74 -60 104 -49 C 134 -38 161 -23 185 -4 L 169 -2 L 77 474 L 256 474 L 288 280 L 305 127 C 325 169 344 217 362 273 C 379 328 397 395 416 474 L 577 474 C 553 376 525 288 493 210 C 461 132 426 66 388 11 Z" unicode="ỳ" />
<glyph horiz-adv-x="500" d="" unicode=" " />
<glyph horiz-adv-x="1000" d="" unicode=" " />
<glyph horiz-adv-x="650" d="" unicode=" " />
<glyph horiz-adv-x="0" d="" unicode=" " />
<glyph horiz-adv-x="650" d="M 144 231 L 163 364 L 591 364 L 572 231 L 144 231 Z" unicode="‒" />
<glyph horiz-adv-x="524" d="M 73 175 L 92 308 L 520 308 L 501 175 L 73 175 Z" unicode="–" />
<glyph horiz-adv-x="1018" d="M 73 175 L 92 308 L 1013 308 L 994 175 L 73 175 Z" unicode="—" />
<glyph horiz-adv-x="376" d="M 73 176 L 92 309 L 372 309 L 353 176 L 73 176 Z" unicode="―" />
<glyph horiz-adv-x="296" d="M 113 389 L 127 488 C 135 549 152 600 177 641 C 201 682 226 713 251 734 L 370 701 C 349 668 332 636 320 606 C 307 576 297 538 291 493 L 277 389 L 113 389 Z" unicode="‘" />
<glyph horiz-adv-x="272" d="M 184 371 L 65 404 C 85 436 102 468 115 498 C 127 528 137 566 144 612 L 159 716 L 323 716 L 309 617 C 300 555 283 504 258 463 C 233 422 208 391 184 371 Z" unicode="’" />
<glyph horiz-adv-x="272" d="M 106 -185 L -14 -152 C 6 -120 23 -88 36 -58 C 49 -28 59 10 66 56 L 81 160 L 245 160 L 231 61 C 222 -1 205 -52 180 -93 C 155 -133 130 -164 106 -185 Z" unicode="‚" />
<glyph horiz-adv-x="519" d="M 113 389 L 127 488 C 135 549 152 600 177 641 C 201 682 226 713 251 734 L 370 701 C 350 668 333 636 320 606 C 307 576 297 538 291 493 L 277 389 L 113 389 Z M 336 389 L 350 488 C 358 549 375 600 400 641 C 424 682 449 713 474 734 L 593 701 C 573 668 556 636 543 606 C 530 576 520 538 514 493 L 500 389 L 336 389 Z" unicode="“" />
<glyph horiz-adv-x="491" d="M 184 371 L 65 404 C 85 436 102 468 115 498 C 127 528 137 566 144 612 L 159 716 L 323 716 L 309 617 C 300 555 283 504 258 463 C 233 422 208 391 184 371 Z M 403 371 L 284 404 C 304 436 321 468 334 498 C 346 528 356 566 363 612 L 378 716 L 542 716 L 528 617 C 519 555 502 504 477 463 C 452 422 427 391 403 371 Z" unicode="”" />
<glyph horiz-adv-x="483" d="M 106 -185 L -14 -152 C 6 -120 23 -88 36 -58 C 49 -28 59 10 66 56 L 81 160 L 245 160 L 231 61 C 222 -1 205 -52 180 -93 C 155 -133 130 -164 106 -185 Z M 317 -185 L 198 -152 C 218 -120 235 -88 248 -58 C 260 -28 270 10 277 56 L 292 160 L 456 160 L 442 61 C 433 -1 416 -52 391 -93 C 366 -133 341 -164 317 -185 Z" unicode="„" />
<glyph horiz-adv-x="470" d="M 152 0 L 220 426 L 83 418 L 104 566 L 239 558 L 253 716 L 417 716 L 387 558 L 524 566 L 503 418 L 368 426 L 316 0 L 152 0 Z" unicode="†" />
<glyph horiz-adv-x="468" d="M 152 0 L 183 165 L 46 157 L 67 305 L 202 297 L 220 426 L 83 418 L 104 566 L 239 558 L 253 716 L 417 716 L 387 558 L 524 566 L 503 418 L 368 426 L 350 297 L 487 305 L 466 157 L 331 165 L 316 0 L 152 0 Z" unicode="‡" />
<glyph horiz-adv-x="349" d="M 80 138 L 112 366 L 340 366 L 308 138 L 80 138 Z" unicode="•" />
<glyph horiz-adv-x="690" d="M 48 0 L 67 136 L 204 136 L 184 0 L 48 0 Z M 275 0 L 294 136 L 431 136 L 411 0 L 275 0 Z M 502 0 L 521 136 L 658 136 L 638 0 L 502 0 Z" unicode="…" />
<glyph horiz-adv-x="1297" d="M 271 351 C 221 351 181 366 151 396 C 121 426 106 466 106 515 C 106 579 123 630 159 670 C 194 709 239 729 295 729 C 345 729 385 713 415 683 C 445 653 460 614 460 566 C 460 502 442 450 407 410 C 371 370 326 351 271 351 Z M 226 0 L 643 716 L 778 716 L 361 0 L 226 0 Z M 277 467 C 293 467 307 475 317 491 C 327 507 333 528 333 556 C 333 574 328 588 320 598 C 312 608 301 614 289 614 C 272 614 258 606 248 590 C 238 574 233 552 233 524 C 233 505 237 491 245 481 C 253 471 264 467 277 467 Z M 714 -9 C 664 -9 624 6 594 36 C 564 66 549 106 549 155 C 549 219 566 270 602 310 C 637 349 682 369 738 369 C 788 369 828 353 858 323 C 888 293 903 254 903 206 C 903 142 885 90 850 50 C 814 10 769 -9 714 -9 Z M 1104 -9 C 1054 -9 1014 6 984 36 C 954 66 939 106 939 155 C 939 219 956 270 992 310 C 1027 349 1072 369 1128 369 C 1178 369 1218 353 1248 323 C 1278 293 1293 254 1293 206 C 1293 142 1275 90 1240 50 C 1204 10 1159 -9 1104 -9 Z M 720 107 C 736 107 750 115 760 131 C 770 147 776 168 776 196 C 776 214 771 228 763 238 C 755 248 744 254 732 254 C 715 254 701 246 691 230 C 681 214 676 192 676 164 C 676 145 680 131 688 121 C 696 111 707 107 720 107 Z M 1110 107 C 1126 107 1140 115 1150 131 C 1160 147 1166 168 1166 196 C 1166 214 1161 228 1153 238 C 1145 248 1134 254 1122 254 C 1105 254 1091 246 1081 230 C 1071 214 1066 192 1066 164 C 1066 145 1070 131 1078 121 C 1086 111 1097 107 1110 107 Z" unicode="‰" />
<glyph horiz-adv-x="252" d="M 119 446 L 158 724 L 298 724 L 259 446 L 119 446 Z" unicode="′" />
<glyph horiz-adv-x="433" d="M 119 447 L 158 724 L 292 724 L 253 447 L 119 447 Z M 306 447 L 345 724 L 479 724 L 440 447 L 306 447 Z" unicode="″" />
<glyph horiz-adv-x="390" d="M 192 59 L 68 226 L 238 394 L 410 394 L 241 226 L 364 59 L 192 59 Z" unicode="‹" />
<glyph horiz-adv-x="389" d="M 46 59 L 215 226 L 92 394 L 264 394 L 388 226 L 218 59 L 46 59 Z" unicode="›" />
<glyph horiz-adv-x="167" d="M -142 0 L 275 716 L 410 716 L -7 0 L -142 0 Z" unicode="⁄" />
<glyph horiz-adv-x="403" d="M 276 431 C 226 431 186 446 156 476 C 126 506 111 546 111 595 C 111 659 128 710 164 750 C 199 789 244 809 300 809 C 350 809 390 793 420 763 C 450 733 465 694 465 646 C 465 582 447 530 412 490 C 376 450 331 431 276 431 Z M 282 547 C 298 547 312 555 322 571 C 332 587 338 608 338 636 C 338 654 333 668 325 678 C 317 688 306 694 294 694 C 277 694 263 686 253 670 C 243 654 238 632 238 604 C 238 585 242 571 250 561 C 258 551 269 547 282 547 Z" unicode="⁰" />
<glyph horiz-adv-x="366" d="M 243 440 L 252 504 L 97 504 L 109 592 L 257 800 L 414 800 L 385 596 L 427 596 L 414 503 L 372 503 L 363 440 L 243 440 Z M 265 596 L 280 700 L 205 596 L 265 596 Z" unicode="⁴" />
<glyph horiz-adv-x="333" d="M 216 432 C 196 432 175 433 154 436 C 132 439 110 444 88 451 L 103 555 C 119 546 135 539 152 535 C 168 530 186 528 204 528 C 218 528 229 530 237 535 C 245 539 249 546 249 555 C 249 563 244 570 236 574 C 227 578 214 581 198 581 C 182 581 167 580 151 578 C 135 576 119 573 105 571 L 151 800 L 399 800 L 384 696 L 227 696 L 221 661 C 227 661 233 662 239 662 C 245 662 252 663 258 663 C 298 663 330 654 352 637 C 374 619 385 594 385 562 C 385 522 369 491 338 467 C 306 443 266 432 216 432 Z" unicode="⁵" />
<glyph horiz-adv-x="366" d="M 261 432 C 214 432 177 445 150 473 C 122 501 109 538 109 586 C 109 648 129 700 169 743 C 209 786 259 808 321 808 C 338 808 355 806 371 804 C 387 801 404 797 421 791 L 407 691 C 392 697 378 702 364 706 C 350 709 335 711 321 711 C 299 711 281 705 267 694 C 253 682 242 666 234 645 C 242 655 253 662 266 668 C 278 673 293 676 310 676 C 344 676 370 666 390 648 C 410 630 420 605 420 575 C 420 533 404 498 374 472 C 344 445 306 432 261 432 Z M 262 527 C 273 527 282 530 289 538 C 295 546 299 556 299 568 C 299 578 296 585 291 591 C 285 597 278 600 269 600 C 261 600 253 597 246 593 C 238 589 232 583 228 576 C 226 561 228 549 234 540 C 240 531 250 527 262 527 Z" unicode="⁶" />
<glyph horiz-adv-x="337" d="M 113 440 L 265 691 L 119 691 L 134 800 L 425 800 L 413 716 L 250 440 L 113 440 Z" unicode="⁷" />
<glyph horiz-adv-x="351" d="M 240 432 C 195 432 160 440 136 456 C 111 472 99 495 99 523 C 99 541 105 558 117 574 C 129 589 147 602 171 613 C 155 622 142 633 134 646 C 126 658 122 673 122 690 C 122 725 136 753 166 775 C 195 797 231 808 275 808 C 317 808 351 799 376 783 C 401 767 414 745 414 717 C 414 698 408 681 398 667 C 388 653 372 640 351 630 C 367 620 379 608 387 594 C 395 580 399 565 399 549 C 399 513 384 484 355 463 C 325 442 287 432 240 432 Z M 269 662 L 276 660 C 282 664 288 670 293 678 C 298 686 301 693 301 701 C 301 709 298 716 293 722 C 287 727 280 730 270 730 C 260 730 252 727 246 721 C 239 715 236 706 236 696 C 236 687 239 680 245 674 C 251 668 259 664 269 662 Z M 214 541 C 214 533 217 526 223 521 C 229 515 237 513 247 513 C 257 513 266 516 273 522 C 280 528 284 537 284 548 C 284 556 280 563 274 569 C 268 575 260 579 251 582 L 246 584 C 237 580 229 574 223 566 C 217 558 214 550 214 541 Z" unicode="⁸" />
<glyph horiz-adv-x="364" d="M 220 432 C 201 432 183 433 166 436 C 148 439 132 444 117 450 L 131 549 C 145 543 160 538 174 534 C 188 530 202 529 218 529 C 239 529 257 534 271 545 C 285 555 297 571 305 593 C 296 583 285 575 272 570 C 258 564 243 562 227 562 C 193 562 167 571 148 589 C 128 607 119 633 119 665 C 119 707 134 741 164 768 C 194 794 233 808 279 808 C 325 808 361 794 389 767 C 416 739 430 702 430 655 C 430 590 410 537 372 495 C 334 453 283 432 220 432 Z M 270 637 C 278 637 285 639 293 644 C 300 648 306 654 311 662 C 313 677 310 689 304 699 C 297 708 288 713 276 713 C 265 713 256 709 250 701 C 243 693 240 684 240 673 C 240 662 242 653 248 647 C 253 640 260 637 270 637 Z" unicode="⁹" />
<glyph horiz-adv-x="428" d="M 98 440 L 134 695 C 136 711 137 729 139 747 C 140 765 141 783 142 800 L 274 800 C 274 793 273 785 273 776 C 273 766 273 758 273 750 L 273 738 C 285 761 302 778 323 790 C 343 802 365 808 388 808 C 422 808 449 796 469 773 C 488 749 494 719 488 681 L 465 544 C 462 527 460 509 458 491 C 456 473 456 456 456 440 L 321 440 C 321 456 321 474 322 492 C 323 510 325 527 329 544 L 349 643 C 351 657 350 669 345 677 C 339 685 331 689 319 689 C 306 689 293 681 280 666 C 267 650 257 620 251 574 L 232 440 L 98 440 Z" unicode="ⁿ" />
<glyph horiz-adv-x="403" d="M 190 -179 C 140 -179 100 -163 70 -133 C 40 -103 25 -63 25 -15 C 25 49 42 100 78 140 C 113 179 158 199 214 199 C 264 199 304 183 334 153 C 364 123 379 84 379 36 C 379 -28 361 -79 326 -119 C 290 -159 245 -179 190 -179 Z M 196 -63 C 212 -63 226 -55 236 -39 C 246 -23 252 -1 252 26 C 252 44 247 58 239 68 C 231 78 220 84 208 84 C 191 84 177 76 167 60 C 157 44 152 22 152 -6 C 152 -24 156 -38 164 -48 C 172 -58 183 -63 196 -63 Z" unicode="₀" />
<glyph horiz-adv-x="318" d="M 5 -170 L 19 -68 L 84 -68 L 105 81 L 35 75 L 49 178 L 255 197 L 218 -68 L 282 -68 L 268 -170 L 5 -170 Z" unicode="₁" />
<glyph horiz-adv-x="330" d="M 0 -170 L 18 -43 C 72 -26 112 -9 140 7 C 168 24 182 42 182 61 C 182 71 177 79 168 85 C 159 90 147 93 131 93 C 116 93 101 90 85 85 C 69 80 54 73 38 65 L 54 178 C 73 184 93 189 113 193 C 133 197 154 199 176 199 C 219 199 253 190 278 172 C 303 154 316 128 316 96 C 316 60 301 28 271 0 C 241 -27 200 -49 148 -66 L 292 -66 L 277 -170 L 0 -170 Z" unicode="₂" />
<glyph horiz-adv-x="331" d="M 130 -178 C 110 -178 89 -176 68 -173 C 46 -170 24 -165 2 -159 L 17 -53 C 33 -60 49 -66 65 -70 C 81 -74 98 -76 116 -76 C 129 -76 140 -73 148 -69 C 156 -64 161 -58 161 -52 C 161 -45 156 -40 147 -36 C 138 -32 125 -31 109 -31 L 82 -31 L 93 51 L 115 51 C 132 51 146 53 156 58 C 166 62 171 69 171 77 C 171 83 167 87 161 91 C 154 94 144 96 132 96 C 117 96 102 94 88 91 C 73 88 58 83 42 77 L 57 182 C 77 186 97 190 117 193 C 137 196 157 198 177 198 C 218 198 250 189 274 173 C 298 157 310 135 310 109 C 310 84 301 63 285 46 C 268 29 246 18 220 12 C 242 7 260 -2 273 -16 C 286 -30 293 -46 293 -65 C 293 -99 278 -127 249 -147 C 219 -167 180 -178 130 -178 Z" unicode="₃" />
<glyph horiz-adv-x="364" d="M 157 -170 L 166 -106 L 11 -106 L 23 -18 L 171 190 L 328 190 L 299 -14 L 341 -14 L 328 -107 L 286 -107 L 277 -170 L 157 -170 Z M 179 -14 L 194 90 L 119 -14 L 179 -14 Z" unicode="₄" />
<glyph horiz-adv-x="333" d="M 130 -178 C 110 -178 89 -176 68 -173 C 46 -170 24 -165 2 -159 L 17 -55 C 33 -63 49 -70 66 -75 C 82 -79 100 -82 118 -82 C 132 -82 143 -79 151 -75 C 159 -70 163 -63 163 -55 C 163 -46 158 -39 150 -35 C 141 -31 128 -29 112 -29 C 96 -29 81 -30 65 -32 C 49 -34 33 -36 19 -39 L 65 190 L 313 190 L 298 86 L 141 86 L 135 51 C 141 51 147 52 153 52 C 159 52 166 53 172 53 C 212 53 244 44 266 27 C 288 9 299 -15 299 -48 C 299 -87 283 -118 252 -142 C 220 -166 180 -178 130 -178 Z" unicode="₅" />
<glyph horiz-adv-x="366" d="M 175 -178 C 128 -178 91 -164 64 -136 C 36 -108 23 -71 23 -24 C 23 38 43 90 83 133 C 123 176 173 198 235 198 C 252 198 269 196 285 194 C 301 191 318 187 335 181 L 321 81 C 306 87 292 92 278 96 C 264 99 249 101 235 101 C 213 101 195 95 181 84 C 167 72 156 56 148 35 C 156 45 167 52 180 58 C 192 63 207 66 224 66 C 258 66 284 56 304 38 C 324 20 334 -4 334 -35 C 334 -77 318 -111 288 -138 C 258 -164 220 -178 175 -178 Z M 176 -83 C 187 -83 196 -79 203 -71 C 209 -63 213 -54 213 -42 C 213 -32 210 -24 205 -18 C 199 -12 192 -10 183 -10 C 175 -10 167 -12 160 -16 C 152 -20 146 -26 142 -34 C 140 -48 142 -60 148 -69 C 154 -78 164 -83 176 -83 Z" unicode="₆" />
<glyph horiz-adv-x="335" d="M 28 -170 L 180 81 L 34 81 L 49 190 L 340 190 L 328 106 L 165 -170 L 28 -170 Z" unicode="₇" />
<glyph horiz-adv-x="347" d="M 154 -178 C 109 -178 74 -169 50 -153 C 25 -137 13 -115 13 -87 C 13 -68 19 -51 31 -36 C 43 -20 61 -7 85 3 C 69 12 56 23 48 36 C 40 48 36 63 36 80 C 36 115 50 143 80 165 C 109 187 145 198 189 198 C 231 198 265 189 290 173 C 315 157 328 135 328 107 C 328 88 322 71 312 57 C 302 43 286 30 265 20 C 281 10 293 -1 301 -15 C 309 -29 313 -44 313 -61 C 313 -97 298 -125 269 -146 C 239 -167 201 -178 154 -178 Z M 183 52 L 190 50 C 196 54 202 60 207 68 C 212 76 215 83 215 91 C 215 99 212 106 207 112 C 201 117 194 120 184 120 C 174 120 166 117 160 111 C 153 105 150 96 150 86 C 150 77 153 70 159 64 C 165 58 173 54 183 52 Z M 128 -69 C 128 -77 131 -83 137 -89 C 143 -94 151 -97 161 -97 C 171 -97 180 -93 187 -87 C 194 -81 198 -72 198 -62 C 198 -53 194 -46 188 -40 C 182 -34 174 -30 165 -28 L 160 -26 C 151 -30 143 -35 137 -43 C 131 -51 128 -59 128 -69 Z" unicode="₈" />
<glyph horiz-adv-x="364" d="M 134 -178 C 115 -178 97 -176 80 -173 C 62 -170 46 -166 31 -160 L 45 -61 C 59 -67 74 -71 88 -75 C 102 -79 116 -81 132 -81 C 153 -81 171 -75 185 -65 C 199 -54 211 -38 219 -17 C 210 -27 199 -34 186 -40 C 172 -45 157 -48 141 -48 C 107 -48 81 -38 62 -20 C 42 -2 33 23 33 55 C 33 97 48 131 78 158 C 108 184 147 198 193 198 C 239 198 275 184 303 157 C 330 129 344 92 344 45 C 344 -19 324 -73 286 -115 C 248 -157 197 -178 134 -178 Z M 184 27 C 192 27 199 29 207 34 C 214 38 220 44 225 52 C 227 67 224 79 218 89 C 211 98 202 103 190 103 C 179 103 170 99 164 91 C 157 83 154 74 154 63 C 154 52 156 43 162 37 C 167 30 174 27 184 27 Z" unicode="₉" />
<glyph horiz-adv-x="689" d="M 64 221 L 76 305 L 124 305 C 124 313 125 320 126 328 C 126 336 127 343 128 351 L 82 351 L 94 435 L 149 435 C 176 507 223 565 290 608 C 357 650 437 672 529 672 C 565 672 600 668 633 661 C 666 653 698 642 729 627 L 705 460 C 676 478 646 491 616 500 C 586 509 554 514 520 514 C 482 514 448 507 419 493 C 389 479 366 459 348 435 L 459 435 L 447 351 L 313 351 C 311 343 310 335 309 327 C 308 319 308 311 308 305 L 443 305 L 431 221 L 327 221 C 339 197 358 179 384 165 C 409 151 439 145 474 145 C 510 145 544 149 577 159 C 610 169 643 183 676 203 L 653 35 C 620 18 587 6 554 -2 C 520 -10 487 -14 454 -14 C 366 -14 293 7 236 49 C 179 91 144 148 130 221 L 64 221 Z" unicode="€" />
<glyph horiz-adv-x="599" d="M 62 0 L 154 658 L 244 658 L 262 786 L 361 786 L 343 658 L 394 658 C 396 658 398 658 400 658 C 402 658 404 658 406 658 L 424 786 L 523 786 L 503 642 C 535 630 560 613 576 590 C 592 567 601 539 601 507 C 601 465 589 429 567 398 C 544 367 512 345 470 332 C 505 323 532 307 552 284 C 571 261 581 233 581 199 C 581 151 566 110 538 77 C 509 44 468 22 414 10 L 395 -124 L 296 -124 L 313 0 L 250 0 L 233 -124 L 134 -124 L 151 0 L 62 0 Z M 293 393 L 341 393 C 366 393 385 399 399 413 C 412 427 419 445 419 468 C 419 486 413 501 403 511 C 393 521 377 526 357 526 L 312 526 L 293 393 Z M 258 138 L 317 138 C 345 138 366 144 381 158 C 395 171 403 190 403 214 C 403 232 397 247 385 257 C 373 267 355 273 333 273 L 277 273 L 258 138 Z" unicode="₿" />
<glyph horiz-adv-x="720" d="M 390 85 C 303 85 231 112 175 166 C 118 220 90 290 90 374 C 90 474 124 557 193 624 C 262 691 345 725 442 725 C 529 725 601 698 657 644 C 713 590 742 520 742 436 C 742 336 707 252 638 185 C 569 118 486 85 390 85 Z M 391 170 C 465 170 528 194 578 244 C 628 294 653 355 653 429 C 653 491 633 542 593 581 C 553 620 503 640 441 640 C 366 640 304 615 254 565 C 204 515 179 453 179 380 C 179 318 198 267 238 228 C 278 189 329 170 391 170 Z M 292 238 L 339 573 L 460 573 C 492 573 518 563 539 543 C 560 523 571 499 571 470 C 571 432 557 400 530 375 C 502 350 469 338 429 338 L 397 338 L 383 238 L 292 238 Z M 408 414 L 430 414 C 446 414 458 418 466 427 C 474 436 479 447 479 460 C 479 470 475 479 469 486 C 463 493 453 497 441 497 L 419 497 L 408 414 Z" unicode="℗" />
<glyph horiz-adv-x="713" d="M 170 428 L 200 636 L 126 636 L 137 716 L 380 716 L 368 636 L 295 636 L 266 428 L 170 428 Z M 369 428 L 410 716 L 550 716 L 576 611 L 631 716 L 770 716 L 729 428 L 632 428 L 659 617 L 578 463 L 514 463 L 476 618 L 449 428 L 369 428 Z" unicode="™" />
<glyph horiz-adv-x="603" d="M 313 -14 C 238 -14 179 6 136 47 C 92 87 71 142 71 212 C 71 284 93 346 138 398 C 183 449 240 475 308 475 C 328 475 347 472 363 468 C 379 463 394 456 407 448 C 388 482 358 508 318 527 C 277 545 226 555 166 555 L 190 724 C 336 724 442 684 508 604 C 574 524 607 434 607 336 C 607 230 579 145 525 81 C 471 17 400 -14 313 -14 Z M 326 138 C 354 138 376 148 392 169 C 408 190 416 217 416 250 C 416 272 409 291 397 306 C 385 320 367 328 344 328 C 318 328 296 317 280 297 C 263 277 255 251 255 221 C 255 196 261 176 275 161 C 288 145 305 138 326 138 Z" unicode="∂" />
<glyph horiz-adv-x="632" d="M 60 0 L 153 658 L 664 658 L 571 0 L 395 0 L 466 502 L 307 502 L 236 0 L 60 0 Z" unicode="∏" />
<glyph horiz-adv-x="584" d="M 52 0 L 71 134 L 302 341 L 127 524 L 146 658 L 626 658 L 604 502 L 387 502 L 531 349 L 328 165 L 557 165 L 534 0 L 52 0 Z" unicode="∑" />
<glyph horiz-adv-x="526" d="M 80 224 L 99 357 L 531 357 L 512 224 L 80 224 Z" unicode="−" />
<glyph horiz-adv-x="613" d="M 168 0 L 76 497 L 251 497 L 304 190 L 540 708 L 702 708 L 375 0 L 168 0 Z" unicode="√" />
<glyph horiz-adv-x="864" d="M 233 1 C 181 1 138 18 105 54 C 72 89 56 138 56 202 C 56 283 79 348 126 398 C 172 448 233 473 307 473 C 347 473 382 463 413 444 C 444 425 471 394 493 352 C 519 390 549 420 583 441 C 616 462 654 473 696 473 C 748 473 790 455 824 419 C 857 383 874 333 874 267 C 874 187 851 122 806 74 C 760 25 702 1 630 1 C 587 1 550 11 520 31 C 490 51 463 81 441 121 C 415 83 386 54 352 33 C 318 11 279 1 233 1 Z M 651 322 C 632 322 613 315 595 302 C 577 289 559 270 543 244 C 557 213 571 190 585 175 C 599 159 615 152 634 152 C 660 152 681 161 697 179 C 712 197 720 220 720 247 C 720 269 713 287 701 301 C 689 315 672 322 651 322 Z M 211 228 C 211 205 217 187 229 173 C 241 159 258 152 279 152 C 299 152 318 158 337 171 C 356 184 373 203 389 228 C 373 260 357 283 343 299 C 328 314 312 322 294 322 C 268 322 248 313 233 295 C 218 277 211 254 211 228 Z" unicode="∞" />
<glyph horiz-adv-x="408" d="M 87 -215 C 71 -215 56 -214 40 -212 C 24 -210 9 -206 -7 -202 L 14 -55 C 22 -57 30 -60 39 -62 C 47 -64 56 -65 66 -65 C 82 -65 96 -60 106 -51 C 116 -41 122 -28 124 -12 L 192 541 C 199 602 221 648 257 678 C 293 708 337 723 391 723 C 407 723 424 722 441 720 C 458 718 475 715 492 712 L 471 562 C 462 565 453 568 444 570 C 435 572 426 573 418 573 C 400 573 387 568 377 560 C 367 551 360 539 358 523 L 290 -34 C 282 -92 261 -136 225 -168 C 189 -199 143 -215 87 -215 Z" unicode="∫" />
<glyph horiz-adv-x="463" d="M 118 316 L 122 444 C 132 456 145 467 163 475 C 180 483 198 488 216 488 C 230 488 245 485 260 481 C 274 476 287 471 299 467 C 309 462 322 457 336 453 C 350 449 364 447 379 447 C 393 447 408 449 422 455 C 436 460 448 467 459 476 L 455 349 C 444 335 430 325 412 317 C 394 309 377 305 360 305 C 344 305 330 307 317 311 C 303 315 291 319 279 324 C 267 328 254 333 240 338 C 226 343 212 346 198 346 C 184 346 169 343 155 338 C 141 332 128 325 118 316 Z M 88 106 L 91 233 C 101 245 115 256 132 264 C 149 272 167 277 185 277 C 199 277 214 274 229 270 C 244 265 257 260 269 256 C 279 252 292 247 306 243 C 320 238 334 236 349 236 C 363 236 377 238 391 244 C 405 250 417 257 428 266 L 424 138 C 414 125 401 114 383 106 C 365 98 347 94 330 94 C 314 94 300 96 286 100 C 272 104 259 108 249 113 C 237 117 224 122 210 127 C 196 132 182 135 168 135 C 154 135 139 132 125 127 C 111 121 98 114 88 106 Z" unicode="≈" />
<glyph horiz-adv-x="547" d="M 91 19 L 154 128 L 77 128 L 96 261 L 231 261 L 273 334 L 105 334 L 124 467 L 349 467 L 407 567 L 543 567 L 485 467 L 556 467 L 537 334 L 409 334 L 367 261 L 528 261 L 509 128 L 290 128 L 227 19 L 91 19 Z" unicode="≠" />
<glyph horiz-adv-x="537" d="M 288 76 L 99 292 L 351 508 L 550 508 L 298 292 L 489 76 L 288 76 Z M 48 -125 L 66 0 L 468 0 L 450 -125 L 48 -125 Z" unicode="≤" />
<glyph horiz-adv-x="536" d="M 69 76 L 320 292 L 130 508 L 329 508 L 519 292 L 270 76 L 69 76 Z M 48 -125 L 66 0 L 470 0 L 452 -125 L 48 -125 Z" unicode="≥" />
<glyph horiz-adv-x="692" d="M 341 -60 L 86 285 L 438 629 L 688 285 L 341 -60 Z M 367 149 L 502 287 L 408 421 L 273 282 L 367 149 Z" unicode="◊" />
<glyph horiz-adv-x="614" d="M 174 0 L 80 497 L 254 497 L 310 176 L 552 717 L 709 717 L 381 0 L 174 0 Z" unicode="✓" />
<glyph horiz-adv-x="701" d="M 53 0 L 74 147 L 227 147 L 232 177 C 190 193 156 219 131 255 C 105 291 93 334 93 382 C 93 468 123 538 184 592 C 244 645 324 672 422 672 C 508 672 579 649 637 605 C 695 560 724 499 724 423 C 724 363 704 311 666 266 C 628 221 579 190 519 174 L 515 147 L 668 147 L 647 0 L 378 0 L 415 266 C 453 270 483 284 507 310 C 531 335 543 366 543 402 C 543 434 531 461 508 483 C 484 505 453 516 413 516 C 370 516 335 503 309 479 C 282 454 269 422 269 382 C 269 352 277 326 294 305 C 311 284 333 271 360 266 L 323 0 L 53 0 Z" unicode="Ꞷ" />
<glyph horiz-adv-x="181" d="M 68 -257 L -39 -219 C -23 -196 -11 -175 -3 -155 C 4 -135 10 -113 14 -88 L 21 -40 L 153 -40 L 147 -88 C 141 -126 133 -157 122 -182 C 110 -206 92 -231 68 -257 Z" unicode="" />
<glyph horiz-adv-x="725" d="M 30 0 L 122 658 L 787 658 L 695 0 L 30 0 Z M 212 69 L 315 69 L 375 503 L 433 503 L 373 69 L 476 69 L 511 320 L 523 320 C 573 320 613 333 644 361 C 675 389 691 427 691 477 C 691 505 680 531 659 555 C 637 578 599 590 545 590 L 187 590 L 175 503 L 272 503 L 212 69 Z" unicode="" />
<glyph horiz-adv-x="620" d="M 88 0 L 135 331 L 69 331 L 89 474 L 155 474 L 160 513 C 168 575 195 626 239 666 C 283 706 339 727 407 727 C 429 727 453 724 477 720 C 501 716 524 709 546 701 L 524 549 C 506 557 488 564 470 569 C 451 574 433 577 416 577 C 391 577 371 570 356 557 C 341 544 332 525 328 501 L 324 474 L 406 474 L 386 331 L 304 331 L 258 0 L 88 0 Z M 403 0 C 403 20 403 42 405 65 C 407 87 409 110 412 132 L 460 474 L 631 474 L 583 132 C 579 110 577 88 575 66 C 573 43 573 21 573 0 L 403 0 Z" unicode="ﬁ" />
<glyph horiz-adv-x="627" d="M 88 0 L 135 331 L 69 331 L 89 474 L 155 474 L 160 513 C 168 575 195 626 239 666 C 283 706 339 727 407 727 C 421 727 437 726 453 724 C 469 722 484 720 500 716 L 666 716 L 584 133 C 581 113 579 91 578 67 C 577 43 577 21 579 0 L 409 0 C 407 21 407 43 408 67 C 408 91 410 113 413 133 L 474 569 C 464 571 455 573 445 575 C 435 576 425 577 416 577 C 391 577 371 570 356 557 C 341 544 332 525 328 501 L 324 474 L 406 474 L 386 331 L 304 331 L 258 0 L 88 0 Z" unicode="ﬂ" />
</font>
</defs>
</svg>
