<?xml version="1.0" encoding="utf-8" ?><svg version="1.1" xmlns = 'http://www.w3.org/2000/svg'><defs><font id='web' horiz-adv-x="1000">
<font-face font-family="web" descent="-252" cap-height="658" units-per-em="1000" bbox="-146,-320,1217,1003" x-height="462" ascent="748" />
<missing-glyph horiz-adv-x="500" d="M 50 -252 L 450 -252 L 450 748 L 50 748 L 50 -252 Z M 100 -202 L 100 698 L 400 698 L 400 -202 L 100 -202 Z" /><glyph horiz-adv-x="200" d="" unicode=" " />
<glyph horiz-adv-x="168" d="M 93 165 L 170 716 L 200 716 L 123 165 L 93 165 Z M 64 0 L 70 40 L 110 40 L 104 0 L 64 0 Z" unicode="!" />
<glyph horiz-adv-x="248" d="M 143 560 L 166 724 L 198 724 L 175 560 L 143 560 Z M 231 560 L 254 724 L 286 724 L 263 560 L 231 560 Z" unicode="&#x22;" />
<glyph horiz-adv-x="512" d="M 128 -31 L 171 135 L 55 135 L 59 167 L 179 167 L 215 308 L 95 308 L 100 340 L 224 340 L 266 504 L 296 504 L 253 340 L 376 340 L 418 504 L 448 504 L 405 340 L 516 340 L 511 308 L 397 308 L 360 167 L 476 167 L 472 135 L 352 135 L 309 -31 L 280 -31 L 323 135 L 200 135 L 157 -31 L 128 -31 Z M 208 167 L 331 167 L 367 308 L 245 308 L 208 167 Z" unicode="#" />
<glyph horiz-adv-x="499" d="M 227 -90 L 237 -15 C 205 -13 174 -7 145 2 C 115 12 89 25 66 41 L 71 81 C 91 62 116 47 146 35 C 176 23 208 16 242 15 L 285 325 C 232 347 194 371 172 399 C 150 426 139 458 139 495 C 139 543 155 584 188 620 C 220 656 269 674 333 674 L 334 674 L 344 748 L 373 748 L 362 673 C 389 670 415 664 439 656 C 463 648 484 636 503 622 L 498 581 C 479 600 458 615 435 625 C 411 635 386 641 358 643 L 317 347 C 369 324 406 298 428 270 C 450 241 461 209 461 173 C 461 118 442 73 406 38 C 369 3 322 -14 266 -16 L 256 -90 L 227 -90 Z M 171 495 C 171 467 180 441 198 419 C 216 397 247 376 289 358 L 329 644 C 283 643 245 629 215 602 C 185 574 171 539 171 495 Z M 429 173 C 429 201 420 226 402 249 C 384 272 354 293 312 313 L 271 14 C 309 16 345 31 379 58 C 412 84 429 123 429 173 Z" unicode="$" />
<glyph horiz-adv-x="848" d="M 252 352 C 208 352 174 367 150 397 C 126 427 115 466 115 512 C 115 574 130 625 160 666 C 190 707 233 728 289 728 C 333 728 367 713 391 683 C 415 653 427 615 427 571 C 427 509 411 457 381 415 C 351 373 308 352 252 352 Z M 269 0 L 641 724 L 672 724 L 300 0 L 269 0 Z M 253 381 C 296 381 331 398 357 432 C 383 466 396 511 396 569 C 396 609 386 640 366 664 C 346 687 320 699 288 699 C 245 699 211 682 185 649 C 159 615 146 570 146 514 C 146 473 155 441 175 417 C 194 393 220 381 253 381 Z M 659 -8 C 615 -8 581 7 557 37 C 533 67 522 106 522 152 C 522 214 537 265 567 306 C 597 347 640 368 696 368 C 740 368 774 353 798 323 C 822 293 834 255 834 211 C 834 149 818 97 788 55 C 758 13 715 -8 659 -8 Z M 660 21 C 703 21 738 38 764 72 C 790 106 803 151 803 209 C 803 249 793 280 773 304 C 753 327 727 339 695 339 C 652 339 618 322 592 289 C 566 255 553 210 553 154 C 553 113 562 81 582 57 C 601 33 627 21 660 21 Z" unicode="%" />
<glyph horiz-adv-x="598" d="M 494 -117 C 466 -117 445 -108 429 -91 C 413 -73 408 -50 413 -21 L 424 59 L 435 112 C 419 74 395 43 361 21 C 327 0 291 -12 255 -12 C 205 -12 164 2 132 32 C 99 61 83 101 83 151 C 83 197 98 239 128 275 C 158 311 199 334 249 345 C 219 355 196 374 178 400 C 160 426 151 457 151 491 C 151 549 171 595 211 629 C 251 663 300 680 360 680 C 383 680 408 677 434 672 C 460 666 488 657 517 645 L 513 613 C 488 625 463 635 437 641 C 411 647 386 651 360 651 C 306 651 262 635 230 605 C 198 574 182 536 182 492 C 182 452 195 419 221 393 C 247 367 282 354 325 354 L 467 354 L 489 510 L 519 510 L 497 354 L 628 354 L 624 326 L 493 326 L 444 -21 C 441 -40 444 -56 453 -69 C 461 -82 475 -89 494 -89 C 506 -89 520 -86 534 -81 C 548 -76 559 -70 569 -63 L 565 -95 C 555 -101 543 -107 530 -111 C 516 -115 504 -117 494 -117 Z M 255 17 C 305 17 347 36 382 75 C 417 114 439 163 448 221 L 463 326 L 313 326 C 252 326 204 309 168 276 C 132 242 114 201 114 151 C 114 113 126 81 152 55 C 177 29 211 17 255 17 Z" unicode="&#x26;" />
<glyph horiz-adv-x="159" d="M 143 560 L 166 724 L 197 724 L 174 560 L 143 560 Z" unicode="'" />
<glyph horiz-adv-x="291" d="M 210 -220 C 174 -158 145 -92 124 -24 C 103 44 93 115 93 188 C 93 287 114 385 156 482 C 198 578 255 659 329 724 L 367 724 C 291 656 232 575 189 479 C 146 383 125 286 125 189 C 125 118 135 48 157 -20 C 178 -89 208 -156 248 -220 L 210 -220 Z" unicode="(" />
<glyph horiz-adv-x="291" d="M -5 -220 C 70 -152 129 -71 172 25 C 215 121 237 217 237 315 C 237 385 226 455 205 524 C 183 593 153 660 114 724 L 152 724 C 188 662 216 596 237 528 C 258 459 269 388 269 316 C 269 216 248 118 206 22 C 164 -74 106 -155 33 -220 L -5 -220 Z" unicode=")" />
<glyph horiz-adv-x="554" d="M 158 80 L 136 98 L 293 278 L 96 343 L 109 372 L 304 303 L 333 519 L 363 519 L 330 303 L 545 372 L 550 343 L 335 278 L 442 98 L 414 80 L 312 263 L 158 80 Z" unicode="*" />
<glyph horiz-adv-x="528" d="M 257 66 L 286 273 L 86 273 L 90 301 L 290 301 L 319 508 L 347 508 L 318 301 L 518 301 L 514 273 L 314 273 L 285 66 L 257 66 Z" unicode="+" />
<glyph horiz-adv-x="156" d="M 50 -119 L 30 -103 C 45 -84 56 -66 64 -49 C 71 -31 76 -13 79 5 L 87 61 L 117 61 L 109 5 C 106 -15 100 -35 92 -56 C 84 -77 70 -98 50 -119 Z" unicode="," />
<glyph horiz-adv-x="340" d="M 62 211 L 66 240 L 346 240 L 342 211 L 62 211 Z" unicode="-" />
<glyph horiz-adv-x="154" d="M 56 0 L 62 42 L 104 42 L 98 0 L 56 0 Z" unicode="." />
<glyph horiz-adv-x="351" d="M 16 0 L 405 724 L 437 724 L 48 0 L 16 0 Z" unicode="/" />
<glyph horiz-adv-x="553" d="M 288 -12 C 234 -12 189 6 152 44 C 115 82 97 146 97 236 C 97 341 118 440 161 532 C 204 624 269 670 357 670 C 410 670 455 651 492 613 C 529 575 548 511 548 422 C 548 316 526 218 484 126 C 442 34 376 -12 288 -12 Z M 288 16 C 364 16 421 60 459 148 C 497 236 516 327 516 421 C 516 498 500 554 470 589 C 440 623 402 641 357 641 C 280 641 223 597 185 510 C 147 422 129 331 129 236 C 129 158 144 102 174 68 C 204 33 242 16 288 16 Z" unicode="0" />
<glyph horiz-adv-x="330" d="M 174 0 L 264 637 L 130 612 L 134 640 L 300 672 L 206 0 L 174 0 Z" unicode="1" />
<glyph horiz-adv-x="476" d="M 51 0 L 57 45 L 206 159 C 294 226 356 284 391 334 C 425 383 443 435 443 489 C 443 532 430 568 405 597 C 379 626 345 641 302 641 C 269 641 239 635 211 624 C 183 613 156 597 129 576 L 134 615 C 162 633 190 647 216 656 C 242 665 270 670 302 670 C 352 670 393 654 426 622 C 459 590 476 546 476 490 C 476 428 456 370 418 317 C 380 264 315 204 224 136 L 85 32 L 428 32 L 424 0 L 51 0 Z" unicode="2" />
<glyph horiz-adv-x="458" d="M 228 -12 C 188 -12 152 -5 122 6 C 91 18 64 36 42 60 L 48 100 C 68 72 94 51 126 37 C 157 23 191 17 228 17 C 278 17 320 31 354 61 C 388 90 405 129 405 178 C 405 224 389 260 358 286 C 327 311 282 324 224 324 L 199 324 L 203 354 L 226 354 C 284 354 334 369 376 400 C 418 431 439 472 439 524 C 439 562 428 591 406 611 C 384 631 353 641 313 641 C 282 641 252 635 223 624 C 193 612 166 596 142 576 L 147 614 C 173 632 200 646 228 656 C 256 665 284 670 313 670 C 366 670 406 657 432 631 C 458 605 471 569 471 525 C 471 481 455 442 424 408 C 393 374 354 351 306 340 C 344 333 375 316 400 288 C 424 260 437 223 437 178 C 437 124 418 79 380 43 C 342 6 292 -12 228 -12 Z" unicode="3" />
<glyph horiz-adv-x="518" d="M 341 0 L 368 194 L 71 194 L 75 221 L 445 674 L 467 674 L 404 223 L 509 223 L 505 194 L 400 194 L 373 0 L 341 0 Z M 372 223 L 426 605 L 113 223 L 372 223 Z" unicode="4" />
<glyph horiz-adv-x="493" d="M 237 -12 C 199 -12 166 -6 138 5 C 110 17 85 35 64 60 L 70 100 C 89 72 112 52 140 38 C 167 24 199 17 237 17 C 292 17 338 34 375 70 C 412 105 431 149 431 203 C 431 251 416 288 387 316 C 358 344 319 358 270 358 C 246 358 220 355 194 351 C 168 347 143 341 121 334 L 190 658 L 497 658 L 492 626 L 211 626 L 158 372 C 174 376 193 380 213 383 C 233 385 252 387 270 387 C 328 387 374 370 410 338 C 445 305 463 261 463 205 C 463 143 441 91 398 50 C 354 8 301 -12 237 -12 Z" unicode="5" />
<glyph horiz-adv-x="526" d="M 277 -12 C 220 -12 175 6 142 44 C 109 82 93 133 93 197 C 93 342 122 457 180 542 C 238 627 312 670 404 670 C 424 670 446 667 469 662 C 492 656 512 650 529 643 L 525 608 C 509 616 489 624 467 631 C 445 637 424 641 404 641 C 326 641 263 607 215 540 C 167 472 137 386 127 282 C 143 322 170 353 207 375 C 244 397 283 409 323 409 C 373 409 414 392 448 360 C 482 328 499 284 499 228 C 499 160 477 103 435 57 C 393 11 340 -12 277 -12 Z M 277 17 C 331 17 376 37 412 77 C 448 117 466 167 466 227 C 466 271 453 307 427 336 C 401 365 367 380 323 380 C 275 380 230 361 188 323 C 146 285 125 238 125 181 C 125 134 139 95 168 64 C 196 32 233 17 277 17 Z" unicode="6" />
<glyph horiz-adv-x="453" d="M 142 0 L 459 626 L 132 626 L 136 658 L 501 658 L 498 640 L 174 0 L 142 0 Z" unicode="7" />
<glyph horiz-adv-x="490" d="M 257 -12 C 201 -12 157 3 127 33 C 96 63 81 100 81 143 C 80 185 95 224 127 260 C 158 296 198 323 248 342 C 212 359 183 381 161 407 C 139 433 129 463 129 495 C 128 545 146 586 184 620 C 222 653 268 670 322 670 C 372 670 412 655 442 625 C 471 595 486 561 487 525 C 487 484 473 448 445 417 C 417 386 377 360 325 340 C 367 319 399 295 422 267 C 445 239 457 208 457 172 C 457 120 438 76 399 41 C 360 5 313 -12 257 -12 Z M 278 361 L 290 356 C 343 374 384 398 412 426 C 440 454 454 486 454 524 C 453 555 440 582 416 606 C 391 629 360 641 322 641 C 277 641 239 627 208 599 C 176 571 161 537 162 496 C 162 468 172 442 194 418 C 216 394 244 375 278 361 Z M 114 144 C 114 106 127 75 154 52 C 180 28 215 17 257 17 C 303 17 342 31 375 61 C 408 90 424 127 424 171 C 424 203 412 232 389 257 C 366 282 334 304 293 322 L 283 327 L 281 326 C 233 310 193 285 161 253 C 129 221 114 184 114 144 Z" unicode="8" />
<glyph horiz-adv-x="525" d="M 214 -12 C 193 -12 171 -9 148 -4 C 125 1 105 7 89 15 L 93 50 C 108 41 127 33 150 27 C 172 20 194 17 214 17 C 291 17 354 50 402 118 C 450 185 480 271 491 376 C 474 336 447 304 410 282 C 373 260 335 249 295 249 C 245 249 203 265 169 297 C 135 329 119 374 119 430 C 119 498 140 555 184 601 C 227 647 281 670 347 670 C 401 670 445 651 477 613 C 509 575 525 525 525 461 C 525 315 496 200 438 115 C 380 30 305 -12 214 -12 Z M 295 278 C 342 278 387 296 429 334 C 471 372 493 419 493 477 C 493 523 479 562 451 594 C 423 625 389 641 347 641 C 291 641 244 621 207 581 C 170 541 152 491 152 431 C 152 387 164 350 190 321 C 216 292 251 278 295 278 Z" unicode="9" />
<glyph horiz-adv-x="156" d="M 102 316 L 108 358 L 150 358 L 144 316 L 102 316 Z M 56 0 L 62 42 L 104 42 L 98 0 L 56 0 Z" unicode=":" />
<glyph horiz-adv-x="159" d="M 113 316 L 119 358 L 161 358 L 155 316 L 113 316 Z M 50 -119 L 30 -103 C 45 -84 56 -66 64 -49 C 71 -31 76 -13 79 5 L 87 61 L 117 61 L 109 5 C 106 -15 100 -35 92 -56 C 84 -77 70 -98 50 -119 Z" unicode=";" />
<glyph horiz-adv-x="411" d="M 315 79 L 99 277 L 371 475 L 418 475 L 143 276 L 357 79 L 315 79 Z" unicode="&#x3C;" />
<glyph horiz-adv-x="528" d="M 99 333 L 103 361 L 531 361 L 527 333 L 99 333 Z M 81 205 L 85 233 L 513 233 L 509 205 L 81 205 Z" unicode="=" />
<glyph horiz-adv-x="411" d="M 71 79 L 346 278 L 132 475 L 174 475 L 390 277 L 118 79 L 71 79 Z" unicode="&#x3E;" />
<glyph horiz-adv-x="383" d="M 179 165 C 186 217 199 261 218 296 C 236 330 265 367 305 405 C 339 439 365 471 383 501 C 400 531 409 562 409 593 C 409 628 399 656 379 676 C 359 696 329 707 289 707 C 260 707 231 702 203 692 C 175 682 149 667 127 647 L 133 687 C 155 701 179 713 206 722 C 232 730 260 735 289 735 C 335 735 372 723 400 699 C 427 675 441 639 441 593 C 441 558 430 523 410 489 C 389 455 360 419 324 383 C 288 347 261 313 244 282 C 226 251 214 212 208 165 L 179 165 Z M 150 0 L 156 40 L 196 40 L 190 0 L 150 0 Z" unicode="?" />
<glyph horiz-adv-x="766" d="M 370 -69 C 285 -69 214 -40 158 15 C 101 71 73 142 73 227 C 73 349 110 445 185 516 C 259 587 353 623 465 623 C 553 623 626 596 685 544 C 743 492 773 423 773 338 C 773 264 758 207 730 167 C 701 127 666 107 624 107 C 595 107 570 115 550 133 C 529 150 516 178 512 217 C 497 174 476 145 448 130 C 420 114 394 107 371 107 C 333 107 303 119 281 143 C 259 167 248 199 248 240 C 248 304 269 357 311 399 C 353 441 407 463 471 463 C 484 463 499 462 515 460 C 531 458 546 456 562 454 L 539 272 C 533 229 538 195 553 171 C 567 147 591 135 624 135 C 660 135 688 153 710 191 C 732 228 743 277 743 337 C 743 408 718 469 668 519 C 618 569 550 595 465 595 C 353 595 265 559 200 489 C 135 419 103 331 103 227 C 103 151 128 87 179 36 C 230 -15 294 -41 370 -41 C 403 -41 434 -37 464 -30 C 494 -23 523 -13 552 0 L 548 -32 C 518 -44 488 -54 459 -60 C 430 -66 400 -69 370 -69 Z M 371 135 C 395 135 423 146 454 170 C 484 194 507 262 522 375 L 529 430 C 520 431 511 432 501 433 C 491 434 481 435 471 435 C 415 435 369 416 333 379 C 296 342 278 296 278 240 C 278 208 286 183 303 164 C 319 144 342 135 371 135 Z" unicode="@" />
<glyph horiz-adv-x="595" d="M 20 0 L 375 670 L 406 670 L 575 0 L 543 0 L 481 249 L 184 249 L 52 0 L 20 0 Z M 199 278 L 474 278 L 394 598 L 386 632 L 369 598 L 199 278 Z" unicode="A" />
<glyph horiz-adv-x="510" d="M 80 0 L 172 658 L 322 658 C 382 658 426 643 455 615 C 483 586 498 550 498 507 C 498 468 486 432 463 398 C 440 364 400 343 344 336 C 397 329 433 311 453 282 C 473 253 483 222 483 190 C 483 136 463 90 425 54 C 387 18 331 0 257 0 L 80 0 Z M 161 350 L 273 350 C 332 350 379 363 413 390 C 447 416 465 455 465 505 C 465 544 452 574 426 596 C 400 618 364 629 318 629 L 200 629 L 161 350 Z M 116 29 L 257 29 C 317 29 364 43 398 72 C 432 100 450 139 450 187 C 450 229 435 261 407 285 C 379 309 337 321 281 321 L 156 321 L 116 29 Z" unicode="B" />
<glyph horiz-adv-x="677" d="M 424 -12 C 324 -12 246 16 188 74 C 130 131 101 203 101 289 C 101 397 138 488 213 561 C 287 633 379 670 488 670 C 526 670 563 665 601 656 C 638 647 675 633 712 614 L 707 580 C 674 600 639 615 603 625 C 566 635 528 641 488 641 C 388 641 304 607 236 540 C 168 473 134 389 134 289 C 134 207 161 142 215 92 C 269 42 338 18 424 18 C 462 18 500 23 536 33 C 572 43 608 58 644 78 L 639 42 C 603 23 567 9 532 1 C 496 -7 460 -12 424 -12 Z" unicode="C" />
<glyph horiz-adv-x="693" d="M 80 0 L 172 658 L 352 658 C 454 658 536 631 596 578 C 656 524 686 457 686 376 C 686 269 647 180 569 108 C 491 36 388 0 258 0 L 80 0 Z M 116 29 L 259 29 C 379 29 475 62 546 128 C 617 194 653 276 653 375 C 653 449 625 510 571 558 C 517 605 444 629 352 629 L 200 629 L 116 29 Z" unicode="D" />
<glyph horiz-adv-x="477" d="M 80 0 L 172 658 L 493 658 L 489 629 L 199 629 L 160 348 L 443 348 L 439 319 L 156 319 L 115 29 L 425 29 L 421 0 L 80 0 Z" unicode="E" />
<glyph horiz-adv-x="435" d="M 80 0 L 172 658 L 495 658 L 491 629 L 199 629 L 160 352 L 441 352 L 437 323 L 157 323 L 112 0 L 80 0 Z" unicode="F" />
<glyph horiz-adv-x="682" d="M 414 -12 C 318 -12 242 16 186 73 C 129 129 101 201 101 289 C 101 404 138 496 212 566 C 286 635 376 670 482 670 C 520 670 555 666 588 658 C 620 650 652 639 684 624 L 680 592 C 648 609 617 621 585 629 C 553 637 519 641 482 641 C 382 641 299 608 233 543 C 167 478 134 393 134 289 C 134 207 160 142 214 92 C 267 42 334 17 414 17 C 446 17 477 20 509 26 C 540 32 570 44 599 61 L 629 277 L 487 277 L 491 306 L 665 306 L 628 40 C 592 20 554 6 515 -1 C 476 -8 442 -12 414 -12 Z" unicode="G" />
<glyph horiz-adv-x="674" d="M 80 0 L 172 658 L 204 658 L 161 354 L 611 354 L 654 658 L 686 658 L 594 0 L 562 0 L 608 325 L 158 325 L 112 0 L 80 0 Z" unicode="H" />
<glyph horiz-adv-x="192" d="M 80 0 L 172 658 L 204 658 L 112 0 L 80 0 Z" unicode="I" />
<glyph horiz-adv-x="205" d="M -34 -212 L -42 -212 L -38 -183 L -30 -183 C 0 -183 24 -174 44 -156 C 64 -138 76 -112 81 -80 L 185 658 L 217 658 L 113 -80 C 107 -122 91 -155 65 -178 C 39 -200 6 -212 -34 -212 Z" unicode="J" />
<glyph horiz-adv-x="491" d="M 80 0 L 172 658 L 204 658 L 161 352 L 513 658 L 555 658 L 185 336 L 475 0 L 434 0 L 156 323 L 111 0 L 80 0 Z" unicode="K" />
<glyph horiz-adv-x="439" d="M 80 0 L 172 658 L 204 658 L 116 29 L 423 29 L 419 0 L 80 0 Z" unicode="L" />
<glyph horiz-adv-x="721" d="M 80 0 L 172 658 L 214 658 L 369 194 L 379 161 L 400 194 L 687 658 L 733 658 L 641 0 L 609 0 L 691 587 L 696 618 L 676 587 L 390 124 L 361 124 L 206 587 L 196 618 L 191 587 L 109 0 L 80 0 Z" unicode="M" />
<glyph horiz-adv-x="698" d="M 80 0 L 172 658 L 210 658 L 573 71 L 594 37 L 599 71 L 681 658 L 710 658 L 618 0 L 580 0 L 217 587 L 196 621 L 191 587 L 109 0 L 80 0 Z" unicode="N" />
<glyph horiz-adv-x="772" d="M 401 -14 C 307 -14 234 14 181 72 C 127 129 101 201 101 287 C 101 393 133 484 199 559 C 264 634 352 672 464 672 C 557 672 630 643 684 586 C 737 528 764 457 764 371 C 764 266 731 176 665 100 C 599 24 511 -14 401 -14 Z M 401 15 C 498 15 577 49 639 117 C 700 185 731 269 731 371 C 731 447 707 511 659 564 C 611 616 546 643 464 643 C 366 643 287 609 226 542 C 164 474 134 389 134 287 C 134 211 157 146 205 94 C 252 41 317 15 401 15 Z" unicode="O" />
<glyph horiz-adv-x="447" d="M 80 0 L 172 658 L 262 658 C 325 658 375 642 412 610 C 448 578 467 533 467 475 C 467 409 445 356 402 317 C 358 278 300 259 227 259 L 147 259 L 111 0 L 80 0 Z M 151 288 L 227 288 C 291 288 341 305 378 339 C 415 373 434 418 434 474 C 434 520 419 557 390 586 C 361 614 318 629 262 629 L 199 629 L 151 288 Z" unicode="P" />
<glyph horiz-adv-x="772" d="M 401 -14 C 307 -14 234 14 181 72 C 127 129 101 201 101 287 C 101 393 133 484 199 559 C 264 634 352 672 464 672 C 557 672 630 643 684 586 C 737 528 764 457 764 371 C 764 280 739 199 689 129 C 639 59 572 14 487 -5 C 511 -24 538 -41 569 -56 C 600 -71 637 -85 680 -98 L 676 -130 C 628 -117 584 -101 546 -81 C 507 -61 473 -38 445 -12 C 438 -12 431 -13 423 -13 C 415 -13 408 -14 401 -14 Z M 401 15 C 498 15 577 49 639 117 C 700 185 731 269 731 371 C 731 447 707 511 659 564 C 611 616 546 643 464 643 C 366 643 287 609 226 542 C 164 474 134 389 134 287 C 134 211 157 146 205 94 C 252 41 317 15 401 15 Z" unicode="Q" />
<glyph horiz-adv-x="477" d="M 81 0 L 172 658 L 294 658 C 344 658 383 644 413 617 C 443 589 458 552 458 506 C 458 456 442 414 411 382 C 379 350 340 331 292 325 C 307 318 319 308 329 295 C 338 282 347 266 355 248 L 461 0 L 426 0 L 325 238 C 315 262 302 281 288 296 C 273 310 253 318 229 318 L 157 318 L 112 0 L 81 0 Z M 160 347 L 255 347 C 307 347 348 362 379 392 C 409 422 425 460 425 506 C 425 544 413 574 389 596 C 365 618 334 629 294 629 L 200 629 L 160 347 Z" unicode="R" />
<glyph horiz-adv-x="499" d="M 260 -16 C 224 -16 189 -11 156 -1 C 122 9 92 23 66 41 L 71 81 C 93 60 121 44 155 32 C 188 20 223 14 260 14 C 300 14 339 27 375 54 C 411 81 429 121 429 173 C 429 202 419 229 399 253 C 379 277 345 299 298 319 L 286 324 C 232 346 194 371 172 399 C 150 426 139 458 139 495 C 139 543 155 584 188 620 C 220 656 269 674 333 674 C 365 674 396 669 426 661 C 455 652 481 639 503 622 L 498 581 C 476 603 452 619 424 629 C 396 639 366 644 333 644 C 285 644 246 630 216 602 C 186 574 171 539 171 495 C 171 466 181 440 201 417 C 221 393 253 372 299 354 L 311 349 C 365 326 403 300 426 271 C 449 241 461 209 461 173 C 461 117 442 71 404 36 C 366 1 318 -16 260 -16 Z" unicode="S" />
<glyph horiz-adv-x="536" d="M 252 0 L 340 629 L 108 629 L 112 658 L 608 658 L 604 629 L 372 629 L 284 0 L 252 0 Z" unicode="T" />
<glyph horiz-adv-x="661" d="M 345 -12 C 259 -12 196 11 156 58 C 115 104 100 167 111 245 L 169 658 L 201 658 L 143 245 C 133 173 145 118 180 78 C 215 38 270 18 345 18 C 409 18 463 38 509 80 C 554 122 581 177 591 245 L 649 658 L 678 658 L 620 245 C 608 165 577 102 526 56 C 474 10 414 -12 345 -12 Z" unicode="U" />
<glyph horiz-adv-x="588" d="M 274 0 L 100 658 L 133 658 L 288 71 L 297 37 L 315 71 L 636 658 L 668 658 L 308 0 L 274 0 Z" unicode="V" />
<glyph horiz-adv-x="904" d="M 225 0 L 108 658 L 140 658 L 245 71 L 249 47 L 260 71 L 529 658 L 562 658 L 666 71 L 670 48 L 680 71 L 948 658 L 980 658 L 679 0 L 647 0 L 543 588 L 538 611 L 528 588 L 259 0 L 225 0 Z" unicode="W" />
<glyph horiz-adv-x="533" d="M 16 0 L 293 338 L 119 658 L 156 658 L 297 398 L 315 363 L 344 398 L 556 658 L 594 658 L 332 338 L 517 0 L 480 0 L 327 281 L 309 313 L 283 281 L 54 0 L 16 0 Z" unicode="X" />
<glyph horiz-adv-x="543" d="M 254 0 L 297 306 L 108 658 L 144 658 L 300 368 L 318 334 L 345 368 L 581 658 L 619 658 L 328 303 L 286 0 L 254 0 Z" unicode="Y" />
<glyph horiz-adv-x="565" d="M 50 0 L 53 18 L 524 597 L 550 629 L 136 629 L 140 658 L 604 658 L 602 643 L 129 61 L 103 29 L 517 29 L 513 0 L 50 0 Z" unicode="Z" />
<glyph horiz-adv-x="317" d="M 49 -220 L 182 724 L 359 724 L 355 696 L 210 696 L 85 -192 L 230 -192 L 226 -220 L 49 -220 Z" unicode="[" />
<glyph horiz-adv-x="452" d="M 406 0 L 118 724 L 148 724 L 436 0 L 406 0 Z" unicode="\" />
<glyph horiz-adv-x="305" d="M 17 -220 L 21 -192 L 166 -192 L 291 696 L 146 696 L 150 724 L 327 724 L 194 -220 L 17 -220 Z" unicode="]" />
<glyph horiz-adv-x="376" d="M 150 524 L 268 643 L 289 643 L 374 524 L 338 524 L 276 611 L 190 524 L 150 524 Z" unicode="^" />
<glyph horiz-adv-x="350" d="M -31 -220 L -27 -191 L 323 -191 L 319 -220 L -31 -220 Z" unicode="_" />
<glyph horiz-adv-x="232" d="M 226 524 L 135 649 L 171 649 L 262 524 L 226 524 Z" unicode="`" />
<glyph horiz-adv-x="501" d="M 236 -10 C 189 -10 150 7 119 43 C 87 78 72 122 72 176 C 72 257 100 327 156 385 C 212 443 279 472 357 472 C 378 472 399 470 421 468 C 442 465 465 460 490 454 L 441 105 C 438 86 436 68 435 51 C 433 34 433 17 433 0 L 402 0 C 402 16 402 34 404 52 C 405 70 407 88 410 105 L 416 145 C 397 88 370 48 336 25 C 302 1 268 -10 236 -10 Z M 236 19 C 268 19 305 37 349 73 C 392 109 424 204 445 356 L 455 431 C 439 435 424 438 408 440 C 392 442 375 443 357 443 C 287 443 228 416 178 364 C 128 312 103 249 103 176 C 103 125 117 86 145 59 C 173 32 203 19 236 19 Z" unicode="a" />
<glyph horiz-adv-x="510" d="M 226 -10 C 202 -10 178 -8 155 -6 C 132 -3 106 1 78 8 L 179 724 L 210 724 L 158 357 L 148 306 C 168 371 195 415 229 438 C 263 460 297 472 331 472 C 378 472 417 454 449 420 C 480 386 496 343 496 292 C 496 209 469 138 415 79 C 361 19 298 -10 226 -10 Z M 226 19 C 290 19 345 45 393 99 C 441 152 465 216 465 290 C 465 334 452 370 426 399 C 400 428 369 443 331 443 C 298 443 261 424 219 388 C 177 351 145 257 123 106 L 112 31 C 128 27 146 24 166 22 C 185 20 205 19 226 19 Z" unicode="b" />
<glyph horiz-adv-x="461" d="M 279 -10 C 216 -10 166 8 130 45 C 93 81 75 131 75 193 C 75 273 98 339 146 392 C 193 445 253 472 326 472 C 356 472 382 468 405 460 C 428 452 452 441 477 427 L 472 395 C 449 411 426 423 402 431 C 378 439 352 443 326 443 C 260 443 206 419 166 372 C 126 324 106 265 106 193 C 106 141 121 99 153 67 C 184 35 226 19 279 19 C 305 19 331 23 356 31 C 380 39 404 51 426 68 L 421 32 C 398 17 375 6 351 0 C 327 -6 303 -10 279 -10 Z" unicode="c" />
<glyph horiz-adv-x="511" d="M 246 -10 C 199 -10 160 7 129 43 C 97 79 82 123 82 176 C 82 257 109 327 163 385 C 217 443 281 472 353 472 C 372 472 391 469 410 464 C 429 459 448 452 467 442 L 507 724 L 538 724 L 451 105 C 448 86 446 68 445 51 C 443 34 443 17 443 0 L 412 0 C 412 16 412 34 414 52 C 416 70 418 88 420 105 L 425 142 C 407 85 380 45 346 23 C 312 1 278 -10 246 -10 Z M 246 19 C 278 19 315 36 357 72 C 399 107 432 202 455 356 L 463 411 C 447 421 429 429 411 435 C 392 440 372 443 352 443 C 289 443 233 416 185 364 C 137 312 113 249 113 176 C 113 125 127 86 155 59 C 183 32 213 19 246 19 Z" unicode="d" />
<glyph horiz-adv-x="472" d="M 274 -10 C 212 -10 163 9 129 48 C 95 87 78 140 78 207 C 78 282 100 345 145 396 C 189 446 245 472 312 472 C 354 472 387 462 412 442 C 436 422 449 396 449 364 C 449 318 429 283 389 261 C 349 238 285 224 196 218 L 110 212 L 110 208 C 110 148 124 101 153 68 C 181 35 222 19 274 19 C 304 19 331 24 356 35 C 381 45 406 62 432 86 L 426 44 C 402 24 378 10 354 2 C 330 -5 303 -10 274 -10 Z M 312 443 C 258 443 212 423 175 383 C 138 343 117 296 111 240 L 195 246 C 273 251 329 263 364 281 C 399 299 417 327 417 363 C 417 387 407 407 389 421 C 370 435 344 443 312 443 Z" unicode="e" />
<glyph horiz-adv-x="235" d="M 95 0 L 156 434 L 77 434 L 81 462 L 160 462 L 177 583 C 183 627 201 663 229 691 C 257 719 292 734 334 734 C 348 734 365 731 384 726 C 402 721 418 715 431 708 L 426 675 C 413 683 398 690 380 696 C 362 701 347 704 333 704 C 299 704 271 692 249 670 C 226 647 212 618 208 583 L 191 462 L 283 462 L 279 434 L 187 434 L 126 0 L 95 0 Z" unicode="f" />
<glyph horiz-adv-x="502" d="M 212 -228 C 179 -228 149 -224 122 -217 C 94 -210 67 -200 41 -186 L 46 -152 C 71 -168 97 -180 125 -188 C 152 -195 181 -199 212 -199 C 256 -199 296 -183 333 -153 C 369 -123 393 -69 404 9 L 423 142 C 404 84 378 44 344 22 C 310 0 276 -10 244 -10 C 197 -10 158 8 127 44 C 95 80 80 124 80 176 C 80 257 108 327 164 385 C 220 443 287 472 365 472 C 386 472 407 470 429 468 C 450 465 473 460 498 454 L 435 7 C 423 -77 396 -137 355 -173 C 313 -209 266 -228 212 -228 Z M 244 19 C 276 19 313 36 355 72 C 397 108 430 202 453 356 L 464 431 C 448 435 432 438 416 440 C 400 442 383 443 365 443 C 295 443 236 416 186 364 C 136 312 111 249 111 176 C 111 125 125 86 153 59 C 181 32 211 19 244 19 Z" unicode="g" />
<glyph horiz-adv-x="487" d="M 76 0 L 178 724 L 209 724 L 172 462 C 169 439 166 416 162 392 C 158 368 154 344 150 320 C 170 378 196 417 230 439 C 263 461 295 472 327 472 C 372 472 408 456 435 424 C 461 392 470 349 460 294 L 429 124 C 425 101 422 80 420 61 C 418 41 418 21 418 0 L 387 0 C 387 21 387 41 389 61 C 391 81 394 102 398 124 L 429 294 C 437 343 431 380 410 406 C 389 431 361 444 327 444 C 296 444 259 426 217 391 C 174 355 143 266 124 124 L 107 0 L 76 0 Z" unicode="h" />
<glyph horiz-adv-x="194" d="M 166 636 L 171 674 L 209 674 L 204 636 L 166 636 Z M 87 0 C 87 20 88 41 90 63 C 92 85 94 105 97 124 L 145 462 L 176 462 L 128 124 C 125 104 123 83 121 62 C 119 41 118 20 118 0 L 87 0 Z" unicode="i" />
<glyph horiz-adv-x="181" d="M 160 636 L 165 674 L 203 674 L 198 636 L 160 636 Z M -58 -212 L -66 -212 L -62 -183 L -54 -183 C -23 -183 2 -172 24 -150 C 46 -128 59 -98 64 -62 L 138 462 L 169 462 L 95 -62 C 88 -112 71 -149 43 -174 C 15 -199 -18 -212 -58 -212 Z" unicode="j" />
<glyph horiz-adv-x="426" d="M 76 0 L 178 724 L 209 724 L 142 251 C 193 284 241 317 285 351 C 329 384 369 421 406 462 L 445 462 C 403 416 360 376 318 342 C 275 308 228 274 176 241 L 402 0 L 360 0 L 140 234 L 107 0 L 76 0 Z" unicode="k" />
<glyph horiz-adv-x="184" d="M 85 0 C 85 20 86 43 88 67 C 90 91 92 113 95 132 L 179 724 L 210 724 L 126 124 C 123 104 121 83 119 62 C 117 41 116 20 116 0 L 85 0 Z" unicode="l" />
<glyph horiz-adv-x="804" d="M 83 0 L 133 357 C 135 377 137 395 139 413 C 140 430 141 446 141 462 L 172 462 C 172 446 171 429 170 410 C 168 391 166 373 164 357 L 157 320 C 177 378 203 417 235 439 C 267 461 299 472 329 472 C 365 472 398 460 426 437 C 454 414 467 378 467 328 C 489 384 516 422 550 442 C 584 462 614 472 641 472 C 687 472 723 456 749 425 C 775 393 784 350 775 294 L 747 124 C 743 101 740 80 738 61 C 736 41 736 21 736 0 L 705 0 C 705 21 706 41 708 61 C 710 81 712 102 716 124 L 744 294 C 751 340 745 376 727 403 C 709 429 680 443 641 443 C 589 443 546 416 512 362 C 478 308 453 229 439 124 L 422 0 L 391 0 L 432 294 C 438 340 432 376 414 403 C 395 429 367 443 329 443 C 277 443 234 416 202 362 C 169 308 145 229 131 124 L 114 0 L 83 0 Z" unicode="m" />
<glyph horiz-adv-x="483" d="M 83 0 L 133 357 C 135 377 137 395 139 413 C 140 430 141 446 141 462 L 172 462 C 172 446 171 429 170 409 C 168 389 166 371 164 357 L 158 320 C 176 378 201 417 232 439 C 263 461 293 472 322 472 C 372 472 408 455 432 421 C 455 387 462 344 454 294 L 424 124 C 420 101 417 80 416 61 C 415 41 415 21 415 0 L 384 0 C 384 21 384 41 385 61 C 386 81 389 102 393 124 L 423 294 C 431 340 425 376 405 403 C 385 429 358 443 322 443 C 294 443 260 424 220 388 C 180 352 150 264 131 124 L 114 0 L 83 0 Z" unicode="n" />
<glyph horiz-adv-x="520" d="M 277 -10 C 219 -10 170 8 132 45 C 94 81 75 132 75 198 C 75 275 97 340 142 393 C 186 445 242 472 308 472 C 366 472 415 453 453 416 C 491 379 510 328 510 264 C 510 186 487 121 443 69 C 398 16 343 -10 277 -10 Z M 277 19 C 333 19 381 42 420 89 C 459 136 479 194 479 263 C 479 318 463 362 433 394 C 402 426 360 443 308 443 C 251 443 203 419 164 372 C 125 325 106 267 106 199 C 106 143 121 99 152 67 C 183 35 225 19 277 19 Z" unicode="o" />
<glyph horiz-adv-x="518" d="M 53 -220 L 133 352 C 135 372 137 392 139 410 C 140 428 141 445 141 462 L 172 462 C 172 445 171 427 170 409 C 168 391 166 373 164 357 L 155 306 C 173 371 200 415 235 438 C 270 460 305 472 339 472 C 385 472 424 454 456 419 C 487 383 503 339 503 286 C 503 204 477 135 427 77 C 377 19 312 -10 234 -10 C 210 -10 190 -8 172 -4 C 154 0 135 6 117 15 L 84 -220 L 53 -220 Z M 234 19 C 303 19 360 45 405 97 C 449 149 472 212 472 286 C 472 336 458 375 430 402 C 402 429 371 443 339 443 C 305 443 267 424 225 388 C 182 352 150 257 130 105 L 122 45 C 139 35 157 29 175 25 C 193 21 213 19 234 19 Z" unicode="p" />
<glyph horiz-adv-x="492" d="M 366 -220 L 417 142 C 398 84 372 44 338 22 C 304 0 270 -10 238 -10 C 191 -10 152 7 121 43 C 89 78 74 122 74 176 C 74 257 102 327 158 385 C 214 443 281 472 359 472 C 380 472 401 470 422 468 C 442 465 466 460 492 454 L 397 -220 L 366 -220 Z M 238 19 C 270 19 307 37 351 73 C 394 109 426 204 447 356 L 457 430 C 438 434 421 438 407 440 C 393 442 377 443 359 443 C 289 443 230 416 180 364 C 130 312 105 249 105 176 C 105 125 119 86 147 59 C 175 32 205 19 238 19 Z" unicode="q" />
<glyph horiz-adv-x="319" d="M 83 0 L 133 357 C 135 373 137 390 139 408 C 140 425 141 443 141 462 L 172 462 C 172 446 171 429 170 410 C 168 391 166 373 164 357 L 157 320 C 177 380 201 420 230 441 C 259 461 286 472 311 472 C 319 472 327 471 337 470 C 346 468 355 466 364 464 L 360 434 C 352 436 343 438 334 440 C 325 442 317 443 310 443 C 294 443 265 427 224 397 C 182 367 151 276 131 124 L 114 0 L 83 0 Z" unicode="r" />
<glyph horiz-adv-x="359" d="M 180 -10 C 160 -10 137 -6 112 0 C 86 7 65 16 48 28 L 53 64 C 68 50 88 39 112 31 C 136 23 159 19 180 19 C 214 19 242 27 265 45 C 288 63 300 87 300 118 C 300 140 292 160 278 176 C 263 192 239 208 206 223 L 192 229 C 158 243 134 260 119 278 C 104 296 97 320 97 349 C 97 383 110 412 136 436 C 162 460 198 472 243 472 C 261 472 282 469 305 463 C 327 457 347 450 363 441 L 358 406 C 344 416 325 425 303 432 C 281 439 261 443 243 443 C 210 443 182 434 160 418 C 138 402 127 379 127 351 C 127 329 133 311 145 297 C 157 282 177 269 205 258 L 219 252 C 258 235 286 216 304 196 C 321 175 330 150 330 120 C 330 82 316 51 289 27 C 262 2 226 -10 180 -10 Z" unicode="s" />
<glyph horiz-adv-x="281" d="M 182 -9 C 153 -9 132 0 118 16 C 104 32 99 57 104 89 L 152 433 L 77 433 L 81 462 L 157 462 L 180 624 L 211 624 L 188 462 L 318 462 L 314 433 L 183 433 L 135 89 C 131 65 134 47 143 36 C 152 25 166 20 185 20 C 197 20 210 22 222 26 C 234 30 246 37 259 46 L 255 14 C 243 6 231 1 219 -3 C 206 -7 194 -9 182 -9 Z" unicode="t" />
<glyph horiz-adv-x="485" d="M 230 -12 C 184 -12 147 4 121 36 C 95 68 86 112 95 168 L 123 338 C 127 360 129 381 131 401 C 133 420 134 440 134 462 L 165 462 C 165 440 164 420 162 400 C 160 380 157 360 154 338 L 127 168 C 119 118 125 80 145 55 C 165 29 194 17 230 17 C 257 17 292 34 334 69 C 376 104 407 186 425 316 L 445 462 L 476 462 L 426 105 C 423 85 421 66 420 49 C 418 31 418 15 418 0 L 387 0 C 387 15 387 32 389 51 C 390 70 392 88 395 105 L 402 142 C 382 84 356 43 324 21 C 291 0 260 -12 230 -12 Z" unicode="u" />
<glyph horiz-adv-x="415" d="M 193 0 L 83 462 L 114 462 L 208 71 L 213 46 C 251 100 286 160 320 226 C 354 292 386 370 417 462 L 448 462 C 410 356 372 266 334 194 C 296 121 256 56 214 0 L 193 0 Z" unicode="v" />
<glyph horiz-adv-x="706" d="M 189 0 L 83 462 L 114 462 L 206 71 L 211 45 C 245 103 278 167 311 237 C 344 307 376 382 407 462 L 440 462 L 522 71 L 528 45 C 560 105 592 171 623 241 C 654 311 683 384 709 462 L 739 462 C 710 376 678 295 643 217 C 608 139 571 67 531 0 L 505 0 L 423 391 L 418 415 C 386 335 353 261 319 191 C 285 121 250 58 216 0 L 189 0 Z" unicode="w" />
<glyph horiz-adv-x="411" d="M 24 0 L 226 239 L 108 462 L 143 462 L 229 301 L 248 265 L 278 301 L 414 462 L 450 462 L 261 238 L 387 0 L 352 0 L 255 184 L 240 213 L 215 184 L 60 0 L 24 0 Z" unicode="x" />
<glyph horiz-adv-x="436" d="M 252 -22 C 205 -89 156 -139 104 -171 C 52 -203 -3 -220 -63 -220 L -71 -220 L -67 -191 L -59 -191 C -7 -191 44 -175 94 -143 C 144 -111 184 -71 216 -23 L 84 462 L 115 462 L 223 71 L 239 5 C 281 71 318 143 352 223 C 386 303 414 382 437 462 L 469 462 C 435 355 399 262 363 182 C 327 102 290 34 252 -22 Z" unicode="y" />
<glyph horiz-adv-x="420" d="M 44 0 L 46 15 L 367 410 L 386 433 L 110 433 L 114 462 L 437 462 L 435 446 L 116 52 L 97 29 L 380 29 L 376 0 L 44 0 Z" unicode="z" />
<glyph horiz-adv-x="400" d="M 298 -220 C 237 -220 193 -204 166 -174 C 138 -143 131 -96 144 -34 L 169 88 C 177 130 171 163 152 187 C 133 211 103 226 61 233 L 66 271 C 110 277 144 293 170 317 C 196 341 210 374 214 416 L 223 538 C 227 600 248 647 284 678 C 320 708 368 724 429 724 L 460 724 L 456 696 L 424 696 C 374 696 335 683 305 657 C 275 631 259 591 255 538 L 246 416 C 242 370 229 334 205 308 C 181 281 149 263 110 253 L 110 252 C 146 240 172 220 189 193 C 205 166 209 131 201 88 L 176 -34 C 165 -87 171 -127 193 -153 C 215 -179 251 -192 301 -192 L 333 -192 L 329 -220 L 298 -220 Z" unicode="{" />
<glyph horiz-adv-x="142" d="M 25 -220 L 158 724 L 188 724 L 55 -220 L 25 -220 Z" unicode="|" />
<glyph horiz-adv-x="400" d="M 11 -220 L 15 -192 L 47 -192 C 96 -192 135 -179 165 -153 C 195 -127 212 -87 216 -34 L 225 88 C 227 127 240 161 263 190 C 285 219 318 240 360 252 L 360 253 C 324 263 297 283 281 313 C 265 342 261 376 270 416 L 295 538 C 305 591 299 631 277 657 C 255 683 219 696 170 696 L 138 696 L 142 724 L 173 724 C 233 724 277 708 305 678 C 332 647 339 600 327 538 L 302 416 C 293 374 298 341 318 317 C 337 293 368 277 410 271 L 405 233 C 361 226 326 211 300 187 C 274 163 259 130 257 88 L 248 -34 C 243 -96 223 -143 187 -174 C 151 -204 102 -220 42 -220 L 11 -220 Z" unicode="}" />
<glyph horiz-adv-x="329" d="M 77 146 L 49 146 C 55 174 66 195 80 209 C 94 223 112 230 134 230 C 146 230 159 227 171 221 C 183 215 196 205 210 193 C 220 183 229 175 237 171 C 245 167 252 165 260 165 C 272 165 284 169 294 179 C 304 188 311 202 316 221 L 344 221 C 337 193 326 172 312 158 C 298 144 280 137 260 137 C 246 137 234 140 222 146 C 210 152 197 161 184 174 C 174 184 165 191 157 195 C 149 199 141 202 133 202 C 119 202 108 197 98 188 C 88 178 81 164 77 146 Z" unicode="~" />
<glyph horiz-adv-x="189" d="M 140 468 L 146 508 L 186 508 L 180 468 L 140 468 Z M 52 -208 L 129 343 L 159 343 L 82 -208 L 52 -208 Z" unicode="¡" />
<glyph horiz-adv-x="460" d="M 227 -98 L 240 -7 C 188 0 148 21 119 57 C 89 92 75 137 75 193 C 75 269 96 334 140 386 C 183 438 238 466 306 471 L 319 562 L 348 562 L 336 472 C 363 471 388 466 410 458 C 432 450 454 439 477 427 L 472 395 C 450 410 427 422 404 430 C 380 438 356 442 332 443 L 272 19 C 273 19 274 19 276 19 C 277 19 278 19 279 19 C 305 19 331 23 356 31 C 380 39 404 51 426 68 L 421 32 C 398 17 375 6 351 0 C 327 -6 303 -10 279 -10 C 277 -10 275 -10 273 -10 C 271 -10 270 -10 268 -10 L 256 -98 L 227 -98 Z M 106 193 C 106 147 118 108 143 78 C 167 47 201 28 244 22 L 303 442 C 243 436 196 409 160 363 C 124 317 106 260 106 193 Z" unicode="¢" />
<glyph horiz-adv-x="508" d="M 56 0 L 61 29 C 105 55 140 92 165 139 C 189 186 199 242 195 306 L 194 323 L 93 323 L 97 352 L 192 352 L 188 399 C 182 483 197 549 233 598 C 269 647 321 672 390 672 C 418 672 446 668 473 661 C 499 653 523 643 544 631 L 539 594 C 517 610 492 622 466 630 C 440 638 414 642 390 642 C 332 642 287 620 256 577 C 225 534 212 476 218 402 L 222 352 L 416 352 L 412 323 L 224 323 L 225 309 C 229 251 222 198 204 150 C 186 102 154 62 110 32 L 445 32 L 440 0 L 56 0 Z" unicode="£" />
<glyph horiz-adv-x="556" d="M 81 57 L 63 78 L 175 177 C 166 189 159 202 155 217 C 150 232 148 248 148 265 C 148 293 152 319 161 343 C 170 366 183 386 199 403 L 122 492 L 146 513 L 223 423 C 218 420 214 417 210 413 C 206 409 202 406 199 403 L 211 388 L 235 409 L 223 423 C 237 433 253 440 271 446 C 289 451 308 454 328 454 C 351 454 373 450 393 442 C 413 434 430 424 445 411 L 440 407 L 458 386 L 464 391 C 461 394 458 397 455 401 C 451 405 448 408 445 411 L 559 511 L 577 490 L 464 391 C 474 378 481 363 487 347 C 492 331 495 314 495 296 C 495 268 490 242 482 220 C 473 197 461 177 447 161 L 518 78 L 494 57 L 423 140 C 408 129 391 121 373 115 C 355 109 335 107 315 107 C 290 107 267 111 246 120 C 225 128 207 140 193 155 L 81 57 Z M 316 135 C 358 135 393 150 422 180 C 450 210 465 248 465 293 C 465 331 451 362 425 388 C 399 413 366 426 327 426 C 285 426 249 410 221 380 C 192 350 178 312 178 268 C 178 230 191 198 217 173 C 243 147 276 135 316 135 Z" unicode="¤" />
<glyph horiz-adv-x="543" d="M 169 147 L 173 176 L 279 176 L 287 239 L 181 239 L 185 268 L 292 268 L 297 306 L 108 658 L 144 658 L 300 368 L 318 334 L 345 368 L 581 658 L 619 658 L 328 303 L 324 268 L 425 268 L 421 239 L 319 239 L 311 176 L 413 176 L 409 147 L 307 147 L 286 0 L 254 0 L 275 147 L 169 147 Z" unicode="¥" />
<glyph horiz-adv-x="142" d="M 101 316 L 158 724 L 188 724 L 131 316 L 101 316 Z M 25 -220 L 82 188 L 112 188 L 55 -220 L 25 -220 Z" unicode="¦" />
<glyph horiz-adv-x="388" d="M 193 -12 C 167 -12 144 -8 123 -1 C 102 5 82 16 64 30 L 69 67 C 85 50 104 37 125 29 C 145 20 168 16 194 16 C 230 16 259 25 281 45 C 303 65 314 92 314 126 C 314 148 306 168 291 186 C 276 204 252 219 219 233 L 204 239 C 173 251 150 267 135 285 C 119 303 112 325 112 353 C 112 376 117 397 128 416 C 138 435 153 450 172 460 C 160 470 152 481 146 494 C 140 506 138 520 138 536 C 138 577 151 610 177 634 C 203 658 239 670 284 670 C 306 670 328 667 348 662 C 368 656 386 648 404 636 L 399 601 C 382 615 364 625 345 632 C 326 638 305 642 283 642 C 247 642 219 632 199 614 C 178 596 168 571 168 541 C 168 522 174 505 186 491 C 198 476 219 463 248 452 L 263 446 C 299 431 326 413 344 392 C 362 371 371 345 371 315 C 371 290 366 269 356 252 C 346 235 331 221 313 211 C 323 200 331 188 336 175 C 341 161 344 147 344 131 C 344 87 330 52 303 26 C 275 0 239 -12 193 -12 Z M 298 203 C 300 203 303 204 305 206 C 307 208 310 209 313 211 C 310 214 307 217 303 221 C 299 224 295 227 291 230 C 307 238 320 250 328 264 C 336 278 341 295 341 315 C 341 337 333 356 319 374 C 304 391 280 406 248 419 L 233 425 C 226 427 219 430 213 433 C 207 436 201 439 197 442 C 199 443 201 444 203 445 C 205 446 208 447 211 448 L 187 467 C 184 466 181 465 179 464 C 177 462 174 461 172 460 C 175 457 179 454 183 451 C 187 447 192 444 197 442 C 179 434 166 422 156 407 C 146 391 142 374 142 354 C 142 335 148 318 160 304 C 172 289 191 276 219 266 L 234 260 C 244 255 254 250 264 245 C 274 240 283 235 291 230 C 288 229 285 228 283 226 C 280 224 277 223 275 223 L 298 203 Z" unicode="§" />
<glyph horiz-adv-x="266" d="M 128 540 L 134 582 L 176 582 L 170 540 L 128 540 Z M 252 540 L 258 582 L 300 582 L 294 540 L 252 540 Z" unicode="¨" />
<glyph horiz-adv-x="624" d="M 354 132 C 283 132 224 156 176 204 C 128 252 105 311 105 383 C 105 460 130 528 180 587 C 230 646 297 676 379 676 C 449 676 508 652 556 604 C 604 556 628 496 628 425 C 628 347 602 279 552 220 C 502 161 436 132 354 132 Z M 354 158 C 418 158 475 182 525 232 C 575 281 600 345 600 425 C 600 489 578 543 536 586 C 493 628 441 650 379 650 C 314 650 257 625 207 576 C 157 526 133 462 133 383 C 133 319 154 265 197 222 C 239 179 292 158 354 158 Z M 353 233 C 309 233 274 246 248 274 C 222 302 209 337 209 379 C 209 436 225 483 259 521 C 293 558 337 577 391 577 C 409 577 427 574 444 570 C 461 566 478 559 494 550 L 489 516 C 474 527 458 535 442 541 C 426 546 409 549 391 549 C 345 549 308 533 280 501 C 252 469 239 428 239 379 C 239 345 249 316 271 294 C 293 272 320 261 353 261 C 371 261 389 264 407 270 C 425 276 442 285 458 297 L 453 264 C 437 253 420 245 403 240 C 385 235 369 233 353 233 Z" unicode="©" />
<glyph horiz-adv-x="425" d="M 260 351 C 223 351 192 364 168 392 C 144 420 132 455 132 497 C 132 561 153 615 196 661 C 239 706 290 729 350 729 C 370 729 388 727 406 725 C 423 722 441 718 461 712 L 424 445 C 422 430 420 416 418 402 C 416 388 416 374 416 360 L 387 360 C 387 372 387 385 389 399 C 390 413 391 426 393 439 L 396 466 C 382 423 362 393 336 376 C 310 359 284 351 260 351 Z M 262 379 C 286 379 315 392 347 420 C 379 447 404 518 420 632 L 428 689 C 414 693 400 696 388 698 C 376 700 363 701 349 701 C 299 701 255 681 218 641 C 180 601 162 553 162 498 C 162 460 172 430 193 410 C 214 389 237 379 262 379 Z M 98 256 L 102 284 L 403 284 L 399 256 L 98 256 Z" unicode="ª" />
<glyph horiz-adv-x="411" d="M 341 71 L 208 226 L 385 382 L 425 382 L 249 226 L 381 71 L 341 71 Z M 205 71 L 72 226 L 249 382 L 289 382 L 113 226 L 245 71 L 205 71 Z" unicode="«" />
<glyph horiz-adv-x="356" d="M 319 191 L 331 278 L 63 278 L 67 306 L 363 306 L 347 191 L 319 191 Z" unicode="¬" />
<glyph horiz-adv-x="344" d="M 62 211 L 66 240 L 346 240 L 342 211 L 62 211 Z" unicode="­" />
<glyph horiz-adv-x="624" d="M 354 132 C 283 132 224 156 176 204 C 128 252 105 311 105 383 C 105 460 130 528 180 587 C 230 646 297 676 379 676 C 449 676 508 652 556 604 C 604 556 628 496 628 425 C 628 347 602 279 552 220 C 502 161 436 132 354 132 Z M 354 158 C 418 158 475 182 525 232 C 575 281 600 345 600 425 C 600 489 578 543 536 586 C 493 628 441 650 379 650 C 314 650 257 625 207 576 C 157 526 133 462 133 383 C 133 319 154 265 197 222 C 239 179 292 158 354 158 Z M 258 231 L 307 581 L 385 581 C 411 581 433 573 451 557 C 469 541 478 522 478 498 C 478 473 469 451 451 432 C 433 412 411 401 385 399 C 392 395 399 389 405 381 C 411 372 417 363 422 353 L 481 231 L 446 231 L 390 347 C 383 360 375 371 366 379 C 357 387 346 392 333 392 L 311 392 L 289 231 L 258 231 Z M 315 420 L 362 420 C 388 420 408 427 424 441 C 439 455 447 473 447 495 C 447 511 441 525 429 537 C 417 548 401 554 381 554 L 334 554 L 315 420 Z" unicode="®" />
<glyph horiz-adv-x="382" d="M 171 532 L 175 560 L 369 560 L 365 532 L 171 532 Z" unicode="¯" />
<glyph horiz-adv-x="325" d="M 239 496 C 207 496 183 506 165 526 C 147 546 138 570 138 599 C 138 635 150 666 176 691 C 201 715 230 728 263 728 C 293 728 318 718 336 698 C 354 678 364 653 364 625 C 364 588 351 557 326 533 C 300 508 271 496 239 496 Z M 240 523 C 266 523 289 533 308 553 C 326 573 336 597 336 624 C 336 646 328 665 314 679 C 300 693 282 701 262 701 C 234 701 211 690 193 670 C 175 650 166 626 166 600 C 166 577 173 558 187 544 C 201 530 218 523 240 523 Z" unicode="°" />
<glyph horiz-adv-x="528" d="M 257 66 L 286 273 L 86 273 L 90 301 L 290 301 L 319 508 L 347 508 L 318 301 L 518 301 L 514 273 L 314 273 L 285 66 L 257 66 Z M 47 -27 L 50 1 L 478 1 L 475 -27 L 47 -27 Z" unicode="±" />
<glyph horiz-adv-x="305" d="M 98 440 L 105 488 C 194 536 255 577 288 609 C 321 641 338 672 338 702 C 338 726 331 744 317 758 C 303 772 282 779 255 779 C 237 779 218 776 199 770 C 180 764 162 755 146 744 L 151 778 C 165 787 182 794 200 800 C 218 805 237 808 257 808 C 291 808 318 799 338 781 C 358 763 369 738 369 704 C 369 668 350 631 314 595 C 277 559 216 517 131 471 L 339 471 L 335 440 L 98 440 Z" unicode="²" />
<glyph horiz-adv-x="288" d="M 209 432 C 187 432 168 435 150 442 C 132 449 116 459 102 472 L 107 508 C 119 492 135 481 153 473 C 171 465 189 461 209 461 C 237 461 259 468 274 483 C 289 498 297 517 297 539 C 297 560 289 578 273 592 C 257 606 234 613 206 613 L 192 613 L 196 642 L 208 642 C 242 642 269 649 287 665 C 305 681 314 699 314 721 C 314 739 308 753 297 763 C 286 773 272 779 254 779 C 235 779 217 776 201 770 C 184 764 168 754 154 742 L 159 776 C 173 786 189 794 205 800 C 221 805 237 808 254 808 C 286 808 309 800 325 784 C 341 768 349 748 349 723 C 349 702 341 683 326 665 C 310 647 289 634 263 628 C 284 622 301 612 313 596 C 325 580 331 561 331 541 C 331 510 320 484 299 463 C 278 442 248 432 209 432 Z" unicode="³" />
<glyph horiz-adv-x="237" d="M 130 524 L 234 649 L 272 649 L 168 524 L 130 524 Z" unicode="´" />
<glyph horiz-adv-x="370" d="M 129 0 L 197 486 C 172 486 152 493 138 507 C 123 521 116 540 116 563 C 116 589 126 612 147 630 C 167 648 195 658 230 658 L 382 658 L 290 0 L 258 0 L 346 629 L 249 629 L 161 0 L 129 0 Z" unicode="¶" />
<glyph horiz-adv-x="152" d="M 83 194 L 89 234 L 129 234 L 123 194 L 83 194 Z" unicode="·" />
<glyph horiz-adv-x="225" d="M 90 -184 C 80 -184 71 -182 61 -179 C 51 -176 43 -172 36 -168 L 40 -139 C 46 -145 53 -149 63 -153 C 72 -156 82 -158 92 -158 C 106 -158 118 -154 127 -146 C 135 -138 140 -128 140 -115 C 140 -103 135 -94 127 -86 C 119 -78 108 -75 96 -75 L 90 -75 L 93 -48 L 99 -48 C 120 -48 137 -54 149 -66 C 161 -78 168 -93 168 -113 C 168 -135 161 -152 147 -165 C 133 -177 114 -184 90 -184 Z" unicode="¸" />
<glyph horiz-adv-x="272" d="M 108 440 L 111 469 L 195 469 L 238 776 L 142 757 L 147 790 L 275 817 L 226 469 L 310 469 L 306 440 L 108 440 Z" unicode="¹" />
<glyph horiz-adv-x="453" d="M 284 354 C 238 354 201 368 175 398 C 148 427 135 467 135 517 C 135 569 150 617 182 662 C 213 707 259 730 321 730 C 367 730 403 715 430 685 C 456 655 470 616 470 566 C 470 514 454 465 423 421 C 391 376 345 354 284 354 Z M 284 382 C 332 382 370 399 398 435 C 426 471 440 514 440 565 C 440 607 429 640 408 665 C 386 689 357 702 321 702 C 273 702 235 684 207 648 C 179 612 165 569 165 519 C 165 477 175 443 197 419 C 219 394 248 382 284 382 Z M 98 256 L 101 284 L 412 284 L 409 256 L 98 256 Z" unicode="º" />
<glyph horiz-adv-x="412" d="M 43 71 L 219 226 L 86 382 L 126 382 L 260 226 L 83 71 L 43 71 Z M 179 71 L 355 226 L 222 382 L 262 382 L 396 226 L 219 71 L 179 71 Z" unicode="»" />
<glyph horiz-adv-x="643" d="M 47 360 L 50 389 L 134 389 L 176 686 L 131 677 L 133 687 L 81 677 L 86 710 L 214 737 L 212 726 L 264 737 L 215 389 L 299 389 L 295 360 L 47 360 Z M 184 0 L 556 724 L 587 724 L 215 0 L 184 0 Z M 227 696 L 208 692 L 165 389 L 184 389 L 227 696 Z M 528 0 L 542 99 L 376 99 L 379 121 L 573 360 L 611 360 L 578 127 L 637 127 L 633 99 L 573 99 L 559 0 L 528 0 Z M 547 127 L 574 319 L 417 127 L 547 127 Z" unicode="¼" />
<glyph horiz-adv-x="660" d="M 47 360 L 50 389 L 134 389 L 176 686 L 131 677 L 133 687 L 81 677 L 86 710 L 214 737 L 212 726 L 264 737 L 215 389 L 299 389 L 295 360 L 47 360 Z M 184 0 L 556 724 L 587 724 L 215 0 L 184 0 Z M 227 696 L 208 692 L 165 389 L 184 389 L 227 696 Z M 387 0 L 394 48 C 483 96 544 137 577 169 C 610 201 627 232 627 262 C 627 286 620 304 606 318 C 592 332 571 339 544 339 C 526 339 507 336 488 330 C 469 324 451 315 435 304 L 440 338 C 454 347 471 354 489 360 C 507 365 526 368 546 368 C 580 368 607 359 627 341 C 647 323 658 298 658 264 C 658 228 639 191 603 155 C 566 119 505 77 420 31 L 628 31 L 624 0 L 387 0 Z" unicode="½" />
<glyph horiz-adv-x="625" d="M 198 352 C 176 352 157 355 139 362 C 121 369 105 379 91 392 L 96 428 C 108 412 124 401 142 393 C 160 385 178 381 198 381 C 226 381 248 388 263 403 C 278 418 286 437 286 459 C 286 480 278 498 262 512 C 246 526 223 533 195 533 L 181 533 L 185 562 L 197 562 C 231 562 258 569 276 585 C 294 601 303 619 303 641 C 303 659 297 673 286 683 C 275 693 261 699 243 699 C 224 699 206 696 190 690 C 173 684 157 674 143 662 L 148 696 C 162 706 178 714 194 720 C 210 725 226 728 243 728 C 275 728 298 720 314 704 C 330 688 338 668 338 643 C 338 622 330 603 315 585 C 299 567 278 554 252 548 C 273 542 290 532 302 516 C 314 500 320 481 320 461 C 320 430 309 404 288 383 C 267 362 237 352 198 352 Z M 184 0 L 556 724 L 587 724 L 215 0 L 184 0 Z M 510 0 L 524 99 L 358 99 L 361 121 L 555 360 L 593 360 L 560 127 L 619 127 L 615 99 L 555 99 L 541 0 L 510 0 Z M 529 127 L 556 319 L 399 127 L 529 127 Z" unicode="¾" />
<glyph horiz-adv-x="395" d="M 279 470 L 284 508 L 322 508 L 317 470 L 279 470 Z M 184 -219 C 138 -219 102 -206 75 -180 C 48 -154 35 -119 35 -77 C 35 -42 45 -7 66 26 C 86 60 115 96 152 133 C 188 168 214 201 232 232 C 249 262 261 301 268 347 L 297 347 C 289 295 276 252 258 218 C 239 184 210 148 171 111 C 136 77 110 44 93 14 C 75 -15 67 -46 67 -77 C 67 -108 77 -135 97 -157 C 117 -179 146 -191 184 -191 C 214 -191 243 -186 272 -176 C 300 -166 326 -151 349 -131 L 343 -171 C 321 -185 296 -197 269 -206 C 242 -214 214 -219 184 -219 Z" unicode="¿" />
<glyph horiz-adv-x="595" d="M 398 724 L 307 849 L 343 849 L 434 724 L 398 724 Z M 20 0 L 375 670 L 406 670 L 575 0 L 543 0 L 481 249 L 184 249 L 52 0 L 20 0 Z M 199 278 L 474 278 L 394 598 L 386 632 L 369 598 L 199 278 Z" unicode="À" />
<glyph horiz-adv-x="595" d="M 358 724 L 462 849 L 500 849 L 396 724 L 358 724 Z M 20 0 L 375 670 L 406 670 L 575 0 L 543 0 L 481 249 L 184 249 L 52 0 L 20 0 Z M 199 278 L 474 278 L 394 598 L 386 632 L 369 598 L 199 278 Z" unicode="Á" />
<glyph horiz-adv-x="595" d="M 282 724 L 400 843 L 421 843 L 506 724 L 471 724 L 408 811 L 322 724 L 282 724 Z M 20 0 L 375 670 L 406 670 L 575 0 L 543 0 L 481 249 L 184 249 L 52 0 L 20 0 Z M 199 278 L 474 278 L 394 598 L 386 632 L 369 598 L 199 278 Z" unicode="Â" />
<glyph horiz-adv-x="595" d="M 281 724 L 254 724 C 260 752 271 773 285 787 C 299 801 317 808 339 808 C 351 808 364 805 376 799 C 388 793 401 783 415 771 C 425 761 434 753 442 749 C 450 745 457 743 465 743 C 477 743 489 747 499 756 C 509 764 517 779 522 799 L 549 799 C 542 771 531 750 517 736 C 503 722 485 715 465 715 C 451 715 439 718 427 724 C 415 730 402 739 389 752 C 379 762 370 769 362 773 C 354 777 346 780 338 780 C 324 780 313 775 303 767 C 293 758 286 744 281 724 Z M 20 0 L 375 670 L 406 670 L 575 0 L 543 0 L 481 249 L 184 249 L 52 0 L 20 0 Z M 199 278 L 474 278 L 394 598 L 386 632 L 369 598 L 199 278 Z" unicode="Ã" />
<glyph horiz-adv-x="595" d="M 314 724 L 320 766 L 362 766 L 356 724 L 314 724 Z M 438 724 L 444 766 L 486 766 L 480 724 L 438 724 Z M 20 0 L 375 670 L 406 670 L 575 0 L 543 0 L 481 249 L 184 249 L 52 0 L 20 0 Z M 199 278 L 474 278 L 394 598 L 386 632 L 369 598 L 199 278 Z" unicode="Ä" />
<glyph horiz-adv-x="595" d="M 20 0 L 364 650 C 352 654 342 662 335 674 C 328 685 325 697 325 711 C 325 733 332 752 347 768 C 362 784 381 792 404 792 C 424 792 441 785 454 772 C 466 759 473 743 473 725 C 473 705 467 687 456 673 C 444 659 430 650 412 646 L 575 0 L 543 0 L 481 249 L 184 249 L 52 0 L 20 0 Z M 394 670 C 408 670 420 675 430 685 C 440 695 445 708 445 724 C 445 736 441 746 433 754 C 425 762 415 766 403 766 C 389 766 377 760 367 750 C 357 740 353 727 353 712 C 353 699 357 689 365 681 C 373 673 382 670 394 670 Z M 199 278 L 474 278 L 394 598 L 386 632 L 369 598 L 199 278 Z" unicode="Å" />
<glyph horiz-adv-x="800" d="M 12 0 L 476 658 L 816 658 L 812 629 L 522 629 L 483 348 L 766 348 L 762 319 L 479 319 L 438 29 L 748 29 L 744 0 L 402 0 L 436 244 L 219 244 L 46 0 L 12 0 Z M 238 272 L 440 272 L 490 630 L 469 598 L 238 272 Z" unicode="Æ" />
<glyph horiz-adv-x="677" d="M 424 -12 C 324 -12 246 16 188 74 C 130 131 101 203 101 289 C 101 397 138 488 213 561 C 287 633 379 670 488 670 C 526 670 563 665 601 656 C 638 647 675 633 712 614 L 707 580 C 674 600 639 615 603 625 C 566 635 528 641 488 641 C 388 641 304 607 236 540 C 168 473 134 389 134 289 C 134 207 161 142 215 92 C 269 42 338 18 424 18 C 462 18 500 23 536 33 C 572 43 608 58 644 78 L 639 42 C 603 23 567 9 532 1 C 496 -7 460 -12 424 -12 Z M 393 -184 C 383 -184 374 -182 364 -179 C 354 -176 346 -172 339 -168 L 343 -139 C 349 -145 356 -149 366 -153 C 375 -156 385 -158 395 -158 C 409 -158 421 -154 430 -146 C 438 -138 443 -128 443 -115 C 443 -103 438 -94 429 -86 C 420 -78 409 -75 397 -75 L 392 -75 L 396 -48 L 401 -48 C 421 -48 437 -54 451 -66 C 464 -78 471 -93 471 -113 C 471 -135 464 -152 450 -165 C 436 -177 417 -184 393 -184 Z" unicode="Ç" />
<glyph horiz-adv-x="477" d="M 352 724 L 261 849 L 297 849 L 388 724 L 352 724 Z M 80 0 L 172 658 L 493 658 L 489 629 L 199 629 L 160 348 L 443 348 L 439 319 L 156 319 L 115 29 L 425 29 L 421 0 L 80 0 Z" unicode="È" />
<glyph horiz-adv-x="477" d="M 312 724 L 416 849 L 454 849 L 350 724 L 312 724 Z M 80 0 L 172 658 L 493 658 L 489 629 L 199 629 L 160 348 L 443 348 L 439 319 L 156 319 L 115 29 L 425 29 L 421 0 L 80 0 Z" unicode="É" />
<glyph horiz-adv-x="477" d="M 236 724 L 354 843 L 375 843 L 460 724 L 425 724 L 362 811 L 276 724 L 236 724 Z M 80 0 L 172 658 L 493 658 L 489 629 L 199 629 L 160 348 L 443 348 L 439 319 L 156 319 L 115 29 L 425 29 L 421 0 L 80 0 Z" unicode="Ê" />
<glyph horiz-adv-x="477" d="M 268 724 L 274 766 L 316 766 L 310 724 L 268 724 Z M 392 724 L 398 766 L 440 766 L 434 724 L 392 724 Z M 80 0 L 172 658 L 493 658 L 489 629 L 199 629 L 160 348 L 443 348 L 439 319 L 156 319 L 115 29 L 425 29 L 421 0 L 80 0 Z" unicode="Ë" />
<glyph horiz-adv-x="192" d="M 198 724 L 107 849 L 143 849 L 234 724 L 198 724 Z M 80 0 L 172 658 L 204 658 L 112 0 L 80 0 Z" unicode="Ì" />
<glyph horiz-adv-x="192" d="M 158 724 L 262 849 L 300 849 L 196 724 L 158 724 Z M 80 0 L 172 658 L 204 658 L 112 0 L 80 0 Z" unicode="Í" />
<glyph horiz-adv-x="192" d="M 82 724 L 200 843 L 221 843 L 306 724 L 271 724 L 208 811 L 122 724 L 82 724 Z M 80 0 L 172 658 L 204 658 L 112 0 L 80 0 Z" unicode="Î" />
<glyph horiz-adv-x="192" d="M 114 724 L 120 766 L 162 766 L 156 724 L 114 724 Z M 238 724 L 244 766 L 286 766 L 280 724 L 238 724 Z M 80 0 L 172 658 L 204 658 L 112 0 L 80 0 Z" unicode="Ï" />
<glyph horiz-adv-x="693" d="M 80 0 L 125 319 L 65 319 L 69 348 L 129 348 L 172 658 L 352 658 C 454 658 536 631 596 578 C 656 524 686 457 686 376 C 686 269 647 180 569 108 C 491 36 388 0 258 0 L 80 0 Z M 116 29 L 259 29 C 379 29 475 62 546 128 C 617 194 653 276 653 375 C 653 449 625 510 571 558 C 517 605 444 629 352 629 L 200 629 L 161 348 L 309 348 L 305 319 L 157 319 L 116 29 Z" unicode="Ð" />
<glyph horiz-adv-x="698" d="M 324 724 L 297 724 C 303 752 314 773 328 787 C 342 801 360 808 382 808 C 394 808 407 805 419 799 C 431 793 444 783 458 771 C 468 761 477 753 485 749 C 493 745 500 743 508 743 C 520 743 532 747 542 756 C 552 764 560 779 565 799 L 592 799 C 585 771 574 750 560 736 C 546 722 528 715 508 715 C 494 715 482 718 470 724 C 458 730 445 739 432 752 C 422 762 413 769 405 773 C 397 777 389 780 381 780 C 367 780 356 775 346 767 C 336 758 329 744 324 724 Z M 80 0 L 172 658 L 210 658 L 573 71 L 594 37 L 599 71 L 681 658 L 710 658 L 618 0 L 580 0 L 217 587 L 196 621 L 191 587 L 109 0 L 80 0 Z" unicode="Ñ" />
<glyph horiz-adv-x="772" d="M 474 732 L 383 857 L 419 857 L 510 732 L 474 732 Z M 401 -14 C 307 -14 234 14 181 72 C 127 129 101 201 101 287 C 101 393 133 484 199 559 C 264 634 352 672 464 672 C 557 672 630 643 684 586 C 737 528 764 457 764 371 C 764 266 731 176 665 100 C 599 24 511 -14 401 -14 Z M 401 15 C 498 15 577 49 639 117 C 700 185 731 269 731 371 C 731 447 707 511 659 564 C 611 616 546 643 464 643 C 366 643 287 609 226 542 C 164 474 134 389 134 287 C 134 211 157 146 205 94 C 252 41 317 15 401 15 Z" unicode="Ò" />
<glyph horiz-adv-x="772" d="M 434 732 L 538 857 L 576 857 L 472 732 L 434 732 Z M 401 -14 C 307 -14 234 14 181 72 C 127 129 101 201 101 287 C 101 393 133 484 199 559 C 264 634 352 672 464 672 C 557 672 630 643 684 586 C 737 528 764 457 764 371 C 764 266 731 176 665 100 C 599 24 511 -14 401 -14 Z M 401 15 C 498 15 577 49 639 117 C 700 185 731 269 731 371 C 731 447 707 511 659 564 C 611 616 546 643 464 643 C 366 643 287 609 226 542 C 164 474 134 389 134 287 C 134 211 157 146 205 94 C 252 41 317 15 401 15 Z" unicode="Ó" />
<glyph horiz-adv-x="772" d="M 358 732 L 476 851 L 497 851 L 582 732 L 547 732 L 484 819 L 398 732 L 358 732 Z M 401 -14 C 307 -14 234 14 181 72 C 127 129 101 201 101 287 C 101 393 133 484 199 559 C 264 634 352 672 464 672 C 557 672 630 643 684 586 C 737 528 764 457 764 371 C 764 266 731 176 665 100 C 599 24 511 -14 401 -14 Z M 401 15 C 498 15 577 49 639 117 C 700 185 731 269 731 371 C 731 447 707 511 659 564 C 611 616 546 643 464 643 C 366 643 287 609 226 542 C 164 474 134 389 134 287 C 134 211 157 146 205 94 C 252 41 317 15 401 15 Z" unicode="Ô" />
<glyph horiz-adv-x="772" d="M 357 732 L 330 732 C 336 760 347 781 361 795 C 375 809 393 816 415 816 C 427 816 440 813 452 807 C 464 801 477 791 491 779 C 501 769 510 761 518 757 C 526 753 533 751 541 751 C 553 751 565 755 575 764 C 585 772 593 787 598 807 L 625 807 C 618 779 607 758 593 744 C 579 730 561 723 541 723 C 527 723 515 726 503 732 C 491 738 478 747 465 760 C 455 770 446 777 438 781 C 430 785 422 788 414 788 C 400 788 389 783 379 775 C 369 766 362 752 357 732 Z M 401 -14 C 307 -14 234 14 181 72 C 127 129 101 201 101 287 C 101 393 133 484 199 559 C 264 634 352 672 464 672 C 557 672 630 643 684 586 C 737 528 764 457 764 371 C 764 266 731 176 665 100 C 599 24 511 -14 401 -14 Z M 401 15 C 498 15 577 49 639 117 C 700 185 731 269 731 371 C 731 447 707 511 659 564 C 611 616 546 643 464 643 C 366 643 287 609 226 542 C 164 474 134 389 134 287 C 134 211 157 146 205 94 C 252 41 317 15 401 15 Z" unicode="Õ" />
<glyph horiz-adv-x="772" d="M 390 732 L 396 774 L 438 774 L 432 732 L 390 732 Z M 514 732 L 520 774 L 562 774 L 556 732 L 514 732 Z M 401 -14 C 307 -14 234 14 181 72 C 127 129 101 201 101 287 C 101 393 133 484 199 559 C 264 634 352 672 464 672 C 557 672 630 643 684 586 C 737 528 764 457 764 371 C 764 266 731 176 665 100 C 599 24 511 -14 401 -14 Z M 401 15 C 498 15 577 49 639 117 C 700 185 731 269 731 371 C 731 447 707 511 659 564 C 611 616 546 643 464 643 C 366 643 287 609 226 542 C 164 474 134 389 134 287 C 134 211 157 146 205 94 C 252 41 317 15 401 15 Z" unicode="Ö" />
<glyph horiz-adv-x="481" d="M 104 114 L 86 135 L 260 288 L 127 445 L 147 463 L 282 307 L 458 461 L 476 440 L 300 286 L 435 128 L 415 110 L 279 267 L 104 114 Z" unicode="×" />
<glyph horiz-adv-x="772" d="M 163 -48 L 221 39 C 183 65 153 99 132 143 C 111 186 101 234 101 288 C 101 394 133 485 199 560 C 264 635 352 673 464 673 C 494 673 522 669 548 663 C 574 657 598 648 620 636 L 666 706 L 700 706 L 644 622 C 682 595 711 560 732 517 C 753 473 764 425 764 372 C 764 267 731 177 665 101 C 599 25 511 -13 401 -13 C 371 -13 342 -9 316 -3 C 290 2 266 12 245 24 L 197 -48 L 163 -48 Z M 134 288 C 134 241 143 198 161 160 C 179 121 204 89 238 65 L 602 610 C 583 620 562 629 539 635 C 515 641 490 644 464 644 C 366 644 287 610 226 543 C 164 475 134 390 134 288 Z M 401 16 C 498 16 577 50 639 118 C 700 186 731 270 731 372 C 731 418 721 461 703 500 C 685 538 659 570 626 595 L 262 50 C 281 39 302 31 326 25 C 349 19 374 16 401 16 Z" unicode="Ø" />
<glyph horiz-adv-x="661" d="M 434 724 L 343 849 L 379 849 L 470 724 L 434 724 Z M 345 -12 C 259 -12 196 11 156 58 C 115 104 100 167 111 245 L 169 658 L 201 658 L 143 245 C 133 173 145 118 180 78 C 215 38 270 18 345 18 C 409 18 463 38 509 80 C 554 122 581 177 591 245 L 649 658 L 678 658 L 620 245 C 608 165 577 102 526 56 C 474 10 414 -12 345 -12 Z" unicode="Ù" />
<glyph horiz-adv-x="661" d="M 394 724 L 498 849 L 536 849 L 432 724 L 394 724 Z M 345 -12 C 259 -12 196 11 156 58 C 115 104 100 167 111 245 L 169 658 L 201 658 L 143 245 C 133 173 145 118 180 78 C 215 38 270 18 345 18 C 409 18 463 38 509 80 C 554 122 581 177 591 245 L 649 658 L 678 658 L 620 245 C 608 165 577 102 526 56 C 474 10 414 -12 345 -12 Z" unicode="Ú" />
<glyph horiz-adv-x="661" d="M 318 724 L 436 843 L 457 843 L 542 724 L 507 724 L 444 811 L 358 724 L 318 724 Z M 345 -12 C 259 -12 196 11 156 58 C 115 104 100 167 111 245 L 169 658 L 201 658 L 143 245 C 133 173 145 118 180 78 C 215 38 270 18 345 18 C 409 18 463 38 509 80 C 554 122 581 177 591 245 L 649 658 L 678 658 L 620 245 C 608 165 577 102 526 56 C 474 10 414 -12 345 -12 Z" unicode="Û" />
<glyph horiz-adv-x="661" d="M 350 724 L 356 766 L 398 766 L 392 724 L 350 724 Z M 474 724 L 480 766 L 522 766 L 516 724 L 474 724 Z M 345 -12 C 259 -12 196 11 156 58 C 115 104 100 167 111 245 L 169 658 L 201 658 L 143 245 C 133 173 145 118 180 78 C 215 38 270 18 345 18 C 409 18 463 38 509 80 C 554 122 581 177 591 245 L 649 658 L 678 658 L 620 245 C 608 165 577 102 526 56 C 474 10 414 -12 345 -12 Z" unicode="Ü" />
<glyph horiz-adv-x="543" d="M 318 724 L 422 849 L 460 849 L 356 724 L 318 724 Z M 254 0 L 297 306 L 108 658 L 144 658 L 300 368 L 318 334 L 345 368 L 581 658 L 619 658 L 328 303 L 286 0 L 254 0 Z" unicode="Ý" />
<glyph horiz-adv-x="455" d="M 80 0 L 172 658 L 204 658 L 186 530 L 246 530 C 309 530 359 515 396 486 C 432 457 451 415 451 359 C 451 291 428 238 382 199 C 336 159 279 140 211 140 L 131 140 L 111 0 L 80 0 Z M 136 169 L 211 169 C 275 169 325 186 362 222 C 399 258 418 302 418 356 C 418 400 403 436 374 462 C 345 488 302 501 246 501 L 183 501 L 136 169 Z" unicode="Þ" />
<glyph horiz-adv-x="493" d="M 64 0 L 139 531 C 148 598 169 649 201 684 C 233 718 275 736 328 736 C 378 736 419 717 449 679 C 479 641 493 589 493 525 C 493 507 493 488 491 468 C 489 448 486 429 484 413 C 465 423 446 430 428 435 C 409 440 389 443 367 443 C 334 443 308 434 289 418 C 270 402 261 379 261 351 C 261 328 267 309 280 295 C 293 281 312 268 338 258 L 352 252 C 390 235 419 216 437 196 C 455 176 464 150 464 120 C 464 82 450 51 423 27 C 396 2 360 -10 314 -10 C 294 -10 272 -6 247 1 C 222 8 201 17 184 28 L 189 64 C 204 51 224 40 248 32 C 272 23 294 19 314 19 C 348 19 376 27 399 45 C 422 63 434 87 434 118 C 434 142 425 163 409 179 C 393 195 369 210 339 223 L 325 229 C 293 243 269 259 254 278 C 238 296 231 320 231 349 C 231 387 243 417 268 439 C 293 461 327 472 369 472 C 386 472 402 470 418 467 C 434 464 448 460 461 455 C 471 539 463 603 437 645 C 411 687 374 708 328 708 C 284 708 248 693 222 663 C 195 633 178 589 170 531 L 95 0 L 64 0 Z" unicode="ß" />
<glyph horiz-adv-x="501" d="M 360 524 L 269 649 L 305 649 L 396 524 L 360 524 Z M 236 -10 C 189 -10 150 7 119 43 C 87 78 72 122 72 176 C 72 257 100 327 156 385 C 212 443 279 472 357 472 C 378 472 399 470 421 468 C 442 465 465 460 490 454 L 441 105 C 438 86 436 68 435 51 C 433 34 433 17 433 0 L 402 0 C 402 16 402 34 404 52 C 405 70 407 88 410 105 L 416 145 C 397 88 370 48 336 25 C 302 1 268 -10 236 -10 Z M 236 19 C 268 19 305 37 349 73 C 392 109 424 204 445 356 L 455 431 C 439 435 424 438 408 440 C 392 442 375 443 357 443 C 287 443 228 416 178 364 C 128 312 103 249 103 176 C 103 125 117 86 145 59 C 173 32 203 19 236 19 Z" unicode="à" />
<glyph horiz-adv-x="501" d="M 320 524 L 424 649 L 462 649 L 358 524 L 320 524 Z M 236 -10 C 189 -10 150 7 119 43 C 87 78 72 122 72 176 C 72 257 100 327 156 385 C 212 443 279 472 357 472 C 378 472 399 470 421 468 C 442 465 465 460 490 454 L 441 105 C 438 86 436 68 435 51 C 433 34 433 17 433 0 L 402 0 C 402 16 402 34 404 52 C 405 70 407 88 410 105 L 416 145 C 397 88 370 48 336 25 C 302 1 268 -10 236 -10 Z M 236 19 C 268 19 305 37 349 73 C 392 109 424 204 445 356 L 455 431 C 439 435 424 438 408 440 C 392 442 375 443 357 443 C 287 443 228 416 178 364 C 128 312 103 249 103 176 C 103 125 117 86 145 59 C 173 32 203 19 236 19 Z" unicode="á" />
<glyph horiz-adv-x="501" d="M 248 524 L 366 643 L 387 643 L 472 524 L 436 524 L 374 611 L 288 524 L 248 524 Z M 236 -10 C 189 -10 150 7 119 43 C 87 78 72 122 72 176 C 72 257 100 327 156 385 C 212 443 279 472 357 472 C 378 472 399 470 421 468 C 442 465 465 460 490 454 L 441 105 C 438 86 436 68 435 51 C 433 34 433 17 433 0 L 402 0 C 402 16 402 34 404 52 C 405 70 407 88 410 105 L 416 145 C 397 88 370 48 336 25 C 302 1 268 -10 236 -10 Z M 236 19 C 268 19 305 37 349 73 C 392 109 424 204 445 356 L 455 431 C 439 435 424 438 408 440 C 392 442 375 443 357 443 C 287 443 228 416 178 364 C 128 312 103 249 103 176 C 103 125 117 86 145 59 C 173 32 203 19 236 19 Z" unicode="â" />
<glyph horiz-adv-x="501" d="M 248 524 L 220 524 C 226 552 237 573 251 587 C 265 601 283 608 305 608 C 317 608 330 605 342 599 C 354 593 367 583 381 571 C 391 561 400 553 408 549 C 416 545 423 543 431 543 C 443 543 455 547 465 557 C 475 566 482 580 487 599 L 515 599 C 508 571 497 550 483 536 C 469 522 451 515 431 515 C 417 515 405 518 393 524 C 381 530 368 539 355 552 C 345 562 336 569 328 573 C 320 577 312 580 304 580 C 290 580 279 575 269 566 C 259 556 252 542 248 524 Z M 236 -10 C 189 -10 150 7 119 43 C 87 78 72 122 72 176 C 72 257 100 327 156 385 C 212 443 279 472 357 472 C 378 472 399 470 421 468 C 442 465 465 460 490 454 L 441 105 C 438 86 436 68 435 51 C 433 34 433 17 433 0 L 402 0 C 402 16 402 34 404 52 C 405 70 407 88 410 105 L 416 145 C 397 88 370 48 336 25 C 302 1 268 -10 236 -10 Z M 236 19 C 268 19 305 37 349 73 C 392 109 424 204 445 356 L 455 431 C 439 435 424 438 408 440 C 392 442 375 443 357 443 C 287 443 228 416 178 364 C 128 312 103 249 103 176 C 103 125 117 86 145 59 C 173 32 203 19 236 19 Z" unicode="ã" />
<glyph horiz-adv-x="501" d="M 278 540 L 284 582 L 326 582 L 320 540 L 278 540 Z M 402 540 L 408 582 L 450 582 L 444 540 L 402 540 Z M 236 -10 C 189 -10 150 7 119 43 C 87 78 72 122 72 176 C 72 257 100 327 156 385 C 212 443 279 472 357 472 C 378 472 399 470 421 468 C 442 465 465 460 490 454 L 441 105 C 438 86 436 68 435 51 C 433 34 433 17 433 0 L 402 0 C 402 16 402 34 404 52 C 405 70 407 88 410 105 L 416 145 C 397 88 370 48 336 25 C 302 1 268 -10 236 -10 Z M 236 19 C 268 19 305 37 349 73 C 392 109 424 204 445 356 L 455 431 C 439 435 424 438 408 440 C 392 442 375 443 357 443 C 287 443 228 416 178 364 C 128 312 103 249 103 176 C 103 125 117 86 145 59 C 173 32 203 19 236 19 Z" unicode="ä" />
<glyph horiz-adv-x="501" d="M 363 494 C 342 494 325 500 313 513 C 300 526 294 542 294 561 C 294 583 301 602 316 618 C 331 634 350 642 373 642 C 393 642 410 635 423 622 C 435 609 442 593 442 575 C 442 552 434 533 419 517 C 404 501 385 494 363 494 Z M 363 520 C 377 520 389 525 399 535 C 409 545 414 558 414 574 C 414 586 410 596 402 604 C 394 612 384 616 372 616 C 358 616 346 610 336 600 C 326 590 322 577 322 562 C 322 549 326 539 334 531 C 342 523 351 520 363 520 Z M 236 -10 C 189 -10 150 7 119 43 C 87 78 72 122 72 176 C 72 257 100 327 156 385 C 212 443 279 472 357 472 C 378 472 399 470 421 468 C 442 465 465 460 490 454 L 441 105 C 438 86 436 68 435 51 C 433 34 433 17 433 0 L 402 0 C 402 16 402 34 404 52 C 405 70 407 88 410 105 L 416 145 C 397 88 370 48 336 25 C 302 1 268 -10 236 -10 Z M 236 19 C 268 19 305 37 349 73 C 392 109 424 204 445 356 L 455 431 C 439 435 424 438 408 440 C 392 442 375 443 357 443 C 287 443 228 416 178 364 C 128 312 103 249 103 176 C 103 125 117 86 145 59 C 173 32 203 19 236 19 Z" unicode="å" />
<glyph horiz-adv-x="750" d="M 199 -10 C 155 -10 121 1 97 25 C 73 49 61 76 61 108 C 61 151 76 185 107 209 C 138 233 180 246 234 249 L 362 256 L 371 323 C 376 364 369 394 349 413 C 329 432 303 442 271 442 C 242 442 215 438 189 430 C 163 422 138 410 113 394 L 118 431 C 142 444 167 454 192 461 C 217 468 243 472 271 472 C 309 472 339 462 363 442 C 386 422 399 396 402 362 C 422 396 448 422 480 442 C 512 462 549 472 590 472 C 632 472 665 462 690 442 C 714 422 727 396 727 364 C 727 318 707 286 667 268 C 627 250 563 238 474 234 L 389 229 C 388 226 388 223 388 221 C 388 218 388 215 388 213 L 388 208 C 388 148 402 101 431 68 C 459 35 500 19 552 19 C 582 19 609 24 634 35 C 659 45 684 62 710 86 L 704 44 C 680 24 656 10 632 2 C 608 -5 581 -10 552 -10 C 502 -10 461 2 431 28 C 400 54 380 90 370 136 C 360 90 340 55 308 29 C 276 3 240 -10 199 -10 Z M 590 443 C 538 443 495 425 459 389 C 423 353 400 309 392 257 L 473 262 C 551 266 607 275 642 289 C 677 302 695 327 695 363 C 695 387 685 407 667 421 C 648 435 622 443 590 443 Z M 199 18 C 239 18 272 31 299 57 C 325 83 342 118 349 163 L 358 228 L 234 221 C 195 219 162 208 134 190 C 106 172 93 144 93 108 C 93 82 102 60 122 43 C 141 26 167 18 199 18 Z" unicode="æ" />
<glyph horiz-adv-x="462" d="M 279 -10 C 216 -10 166 8 130 45 C 93 81 75 131 75 193 C 75 273 98 339 146 392 C 193 445 253 472 326 472 C 356 472 382 468 405 460 C 428 452 452 441 477 427 L 472 395 C 449 411 426 423 402 431 C 378 439 352 443 326 443 C 260 443 206 419 166 372 C 126 324 106 265 106 193 C 106 141 121 99 153 67 C 184 35 226 19 279 19 C 305 19 331 23 356 31 C 380 39 404 51 426 68 L 421 32 C 398 17 375 6 351 0 C 327 -6 303 -10 279 -10 Z M 218 -184 C 208 -184 199 -182 189 -179 C 179 -176 171 -172 164 -168 L 168 -139 C 174 -145 181 -149 191 -153 C 200 -156 210 -158 220 -158 C 234 -158 246 -154 255 -146 C 263 -138 268 -128 268 -115 C 268 -103 263 -94 255 -86 C 247 -78 236 -75 224 -75 L 218 -75 L 221 -48 L 227 -48 C 248 -48 265 -54 277 -66 C 289 -78 296 -93 296 -113 C 296 -135 289 -152 275 -165 C 261 -177 242 -184 218 -184 Z" unicode="ç" />
<glyph horiz-adv-x="472" d="M 303 524 L 212 649 L 248 649 L 339 524 L 303 524 Z M 274 -10 C 212 -10 163 9 129 48 C 95 87 78 140 78 207 C 78 282 100 345 145 396 C 189 446 245 472 312 472 C 354 472 387 462 412 442 C 436 422 449 396 449 364 C 449 318 429 283 389 261 C 349 238 285 224 196 218 L 110 212 L 110 208 C 110 148 124 101 153 68 C 181 35 222 19 274 19 C 304 19 331 24 356 35 C 381 45 406 62 432 86 L 426 44 C 402 24 378 10 354 2 C 330 -5 303 -10 274 -10 Z M 312 443 C 258 443 212 423 175 383 C 138 343 117 296 111 240 L 195 246 C 273 251 329 263 364 281 C 399 299 417 327 417 363 C 417 387 407 407 389 421 C 370 435 344 443 312 443 Z" unicode="è" />
<glyph horiz-adv-x="472" d="M 263 524 L 367 649 L 405 649 L 301 524 L 263 524 Z M 274 -10 C 212 -10 163 9 129 48 C 95 87 78 140 78 207 C 78 282 100 345 145 396 C 189 446 245 472 312 472 C 354 472 387 462 412 442 C 436 422 449 396 449 364 C 449 318 429 283 389 261 C 349 238 285 224 196 218 L 110 212 L 110 208 C 110 148 124 101 153 68 C 181 35 222 19 274 19 C 304 19 331 24 356 35 C 381 45 406 62 432 86 L 426 44 C 402 24 378 10 354 2 C 330 -5 303 -10 274 -10 Z M 312 443 C 258 443 212 423 175 383 C 138 343 117 296 111 240 L 195 246 C 273 251 329 263 364 281 C 399 299 417 327 417 363 C 417 387 407 407 389 421 C 370 435 344 443 312 443 Z" unicode="é" />
<glyph horiz-adv-x="472" d="M 191 524 L 309 643 L 330 643 L 415 524 L 379 524 L 317 611 L 231 524 L 191 524 Z M 274 -10 C 212 -10 163 9 129 48 C 95 87 78 140 78 207 C 78 282 100 345 145 396 C 189 446 245 472 312 472 C 354 472 387 462 412 442 C 436 422 449 396 449 364 C 449 318 429 283 389 261 C 349 238 285 224 196 218 L 110 212 L 110 208 C 110 148 124 101 153 68 C 181 35 222 19 274 19 C 304 19 331 24 356 35 C 381 45 406 62 432 86 L 426 44 C 402 24 378 10 354 2 C 330 -5 303 -10 274 -10 Z M 312 443 C 258 443 212 423 175 383 C 138 343 117 296 111 240 L 195 246 C 273 251 329 263 364 281 C 399 299 417 327 417 363 C 417 387 407 407 389 421 C 370 435 344 443 312 443 Z" unicode="ê" />
<glyph horiz-adv-x="472" d="M 221 540 L 227 582 L 269 582 L 263 540 L 221 540 Z M 345 540 L 351 582 L 393 582 L 387 540 L 345 540 Z M 274 -10 C 212 -10 163 9 129 48 C 95 87 78 140 78 207 C 78 282 100 345 145 396 C 189 446 245 472 312 472 C 354 472 387 462 412 442 C 436 422 449 396 449 364 C 449 318 429 283 389 261 C 349 238 285 224 196 218 L 110 212 L 110 208 C 110 148 124 101 153 68 C 181 35 222 19 274 19 C 304 19 331 24 356 35 C 381 45 406 62 432 86 L 426 44 C 402 24 378 10 354 2 C 330 -5 303 -10 274 -10 Z M 312 443 C 258 443 212 423 175 383 C 138 343 117 296 111 240 L 195 246 C 273 251 329 263 364 281 C 399 299 417 327 417 363 C 417 387 407 407 389 421 C 370 435 344 443 312 443 Z" unicode="ë" />
<glyph horiz-adv-x="190" d="M 167 524 L 76 649 L 112 649 L 203 524 L 167 524 Z M 84 0 C 84 18 85 37 87 59 C 89 81 91 102 94 124 L 142 462 L 173 462 L 125 124 C 122 102 119 81 117 59 C 115 37 114 18 114 0 L 84 0 Z" unicode="ì" />
<glyph horiz-adv-x="190" d="M 127 524 L 231 649 L 269 649 L 165 524 L 127 524 Z M 84 0 C 84 18 85 37 87 59 C 89 81 91 102 94 124 L 142 462 L 173 462 L 125 124 C 122 102 119 81 117 59 C 115 37 114 18 114 0 L 84 0 Z" unicode="í" />
<glyph horiz-adv-x="190" d="M 55 524 L 173 643 L 194 643 L 279 524 L 243 524 L 181 611 L 95 524 L 55 524 Z M 84 0 C 84 18 85 37 87 59 C 89 81 91 102 94 124 L 142 462 L 173 462 L 125 124 C 122 102 119 81 117 59 C 115 37 114 18 114 0 L 84 0 Z" unicode="î" />
<glyph horiz-adv-x="190" d="M 85 540 L 91 582 L 133 582 L 127 540 L 85 540 Z M 209 540 L 215 582 L 257 582 L 251 540 L 209 540 Z M 84 0 C 84 18 85 37 87 59 C 89 81 91 102 94 124 L 142 462 L 173 462 L 125 124 C 122 102 119 81 117 59 C 115 37 114 18 114 0 L 84 0 Z" unicode="ï" />
<glyph horiz-adv-x="533" d="M 282 -10 C 216 -10 166 11 130 55 C 94 99 77 148 77 202 C 77 279 101 343 149 395 C 197 446 258 472 330 472 C 366 472 399 464 428 448 C 456 432 478 409 493 379 C 485 426 471 471 449 514 C 427 557 398 598 362 636 L 267 605 L 267 634 L 340 658 C 325 671 309 684 292 697 C 275 710 257 723 238 736 L 271 746 C 289 733 307 720 323 707 C 339 694 355 681 370 667 L 456 695 L 456 666 L 392 645 C 440 593 475 536 497 476 C 518 416 529 352 529 285 C 529 201 505 130 458 74 C 410 18 352 -10 282 -10 Z M 282 19 C 342 19 393 43 435 92 C 476 140 497 201 497 275 C 489 336 470 379 439 405 C 407 430 371 443 330 443 C 266 443 213 420 171 374 C 129 328 108 270 108 202 C 108 149 124 105 156 71 C 188 36 230 19 282 19 Z" unicode="ð" />
<glyph horiz-adv-x="483" d="M 227 524 L 199 524 C 205 552 216 573 230 587 C 244 601 262 608 284 608 C 296 608 309 605 321 599 C 333 593 346 583 360 571 C 370 561 379 553 387 549 C 395 545 402 543 410 543 C 422 543 434 547 444 557 C 454 566 461 580 466 599 L 494 599 C 487 571 476 550 462 536 C 448 522 430 515 410 515 C 396 515 384 518 372 524 C 360 530 347 539 334 552 C 324 562 315 569 307 573 C 299 577 291 580 283 580 C 269 580 258 575 248 566 C 238 556 231 542 227 524 Z M 83 0 L 133 357 C 135 377 137 395 139 413 C 140 430 141 446 141 462 L 172 462 C 172 446 171 429 170 409 C 168 389 166 371 164 357 L 158 320 C 176 378 201 417 232 439 C 263 461 293 472 322 472 C 372 472 408 455 432 421 C 455 387 462 344 454 294 L 424 124 C 420 101 417 80 416 61 C 415 41 415 21 415 0 L 384 0 C 384 21 384 41 385 61 C 386 81 389 102 393 124 L 423 294 C 431 340 425 376 405 403 C 385 429 358 443 322 443 C 294 443 260 424 220 388 C 180 352 150 264 131 124 L 114 0 L 83 0 Z" unicode="ñ" />
<glyph horiz-adv-x="522" d="M 334 524 L 243 649 L 279 649 L 370 524 L 334 524 Z M 277 -10 C 219 -10 170 8 132 45 C 94 81 75 132 75 198 C 75 275 97 340 142 393 C 186 445 242 472 308 472 C 366 472 415 453 453 416 C 491 379 510 328 510 264 C 510 186 487 121 443 69 C 398 16 343 -10 277 -10 Z M 277 19 C 333 19 381 42 420 89 C 459 136 479 194 479 263 C 479 318 463 362 433 394 C 402 426 360 443 308 443 C 251 443 203 419 164 372 C 125 325 106 267 106 199 C 106 143 121 99 152 67 C 183 35 225 19 277 19 Z" unicode="ò" />
<glyph horiz-adv-x="522" d="M 294 524 L 398 649 L 436 649 L 332 524 L 294 524 Z M 277 -10 C 219 -10 170 8 132 45 C 94 81 75 132 75 198 C 75 275 97 340 142 393 C 186 445 242 472 308 472 C 366 472 415 453 453 416 C 491 379 510 328 510 264 C 510 186 487 121 443 69 C 398 16 343 -10 277 -10 Z M 277 19 C 333 19 381 42 420 89 C 459 136 479 194 479 263 C 479 318 463 362 433 394 C 402 426 360 443 308 443 C 251 443 203 419 164 372 C 125 325 106 267 106 199 C 106 143 121 99 152 67 C 183 35 225 19 277 19 Z" unicode="ó" />
<glyph horiz-adv-x="522" d="M 222 524 L 340 643 L 361 643 L 446 524 L 410 524 L 348 611 L 262 524 L 222 524 Z M 277 -10 C 219 -10 170 8 132 45 C 94 81 75 132 75 198 C 75 275 97 340 142 393 C 186 445 242 472 308 472 C 366 472 415 453 453 416 C 491 379 510 328 510 264 C 510 186 487 121 443 69 C 398 16 343 -10 277 -10 Z M 277 19 C 333 19 381 42 420 89 C 459 136 479 194 479 263 C 479 318 463 362 433 394 C 402 426 360 443 308 443 C 251 443 203 419 164 372 C 125 325 106 267 106 199 C 106 143 121 99 152 67 C 183 35 225 19 277 19 Z" unicode="ô" />
<glyph horiz-adv-x="522" d="M 222 524 L 194 524 C 200 552 211 573 225 587 C 239 601 257 608 279 608 C 291 608 304 605 316 599 C 328 593 341 583 355 571 C 365 561 374 553 382 549 C 390 545 397 543 405 543 C 417 543 429 547 439 557 C 449 566 456 580 461 599 L 489 599 C 482 571 471 550 457 536 C 443 522 425 515 405 515 C 391 515 379 518 367 524 C 355 530 342 539 329 552 C 319 562 310 569 302 573 C 294 577 286 580 278 580 C 264 580 253 575 243 566 C 233 556 226 542 222 524 Z M 277 -10 C 219 -10 170 8 132 45 C 94 81 75 132 75 198 C 75 275 97 340 142 393 C 186 445 242 472 308 472 C 366 472 415 453 453 416 C 491 379 510 328 510 264 C 510 186 487 121 443 69 C 398 16 343 -10 277 -10 Z M 277 19 C 333 19 381 42 420 89 C 459 136 479 194 479 263 C 479 318 463 362 433 394 C 402 426 360 443 308 443 C 251 443 203 419 164 372 C 125 325 106 267 106 199 C 106 143 121 99 152 67 C 183 35 225 19 277 19 Z" unicode="õ" />
<glyph horiz-adv-x="522" d="M 252 540 L 258 582 L 300 582 L 294 540 L 252 540 Z M 376 540 L 382 582 L 424 582 L 418 540 L 376 540 Z M 277 -10 C 219 -10 170 8 132 45 C 94 81 75 132 75 198 C 75 275 97 340 142 393 C 186 445 242 472 308 472 C 366 472 415 453 453 416 C 491 379 510 328 510 264 C 510 186 487 121 443 69 C 398 16 343 -10 277 -10 Z M 277 19 C 333 19 381 42 420 89 C 459 136 479 194 479 263 C 479 318 463 362 433 394 C 402 426 360 443 308 443 C 251 443 203 419 164 372 C 125 325 106 267 106 199 C 106 143 121 99 152 67 C 183 35 225 19 277 19 Z" unicode="ö" />
<glyph horiz-adv-x="528" d="M 282 429 L 288 469 L 328 469 L 322 429 L 282 429 Z M 86 273 L 90 301 L 518 301 L 514 273 L 86 273 Z M 250 105 L 256 145 L 296 145 L 290 105 L 250 105 Z" unicode="÷" />
<glyph horiz-adv-x="522" d="M 97 -48 L 149 30 C 126 48 108 71 95 99 C 81 127 75 160 75 198 C 75 275 97 340 142 393 C 186 445 242 472 308 472 C 329 472 349 469 368 464 C 387 459 404 452 420 443 L 465 510 L 498 510 L 443 426 C 463 408 480 386 492 358 C 504 330 510 299 510 264 C 510 186 487 121 443 69 C 398 16 343 -10 277 -10 C 257 -10 239 -7 221 -3 C 203 0 186 7 172 15 L 130 -48 L 97 -48 Z M 106 199 C 106 167 111 139 121 115 C 131 90 146 70 165 55 L 404 418 C 391 426 376 432 360 436 C 344 440 326 443 308 443 C 251 443 203 419 164 372 C 125 325 106 267 106 199 Z M 277 19 C 333 19 381 42 420 89 C 459 136 479 194 479 263 C 479 293 474 319 465 343 C 455 366 442 385 426 401 L 188 40 C 200 33 214 28 229 24 C 244 20 260 19 277 19 Z" unicode="ø" />
<glyph horiz-adv-x="485" d="M 313 525 L 222 650 L 258 650 L 349 525 L 313 525 Z M 230 -12 C 184 -12 147 4 121 36 C 95 68 86 112 95 168 L 123 338 C 127 360 129 381 131 401 C 133 420 134 440 134 462 L 165 462 C 165 440 164 420 162 400 C 160 380 157 360 154 338 L 127 168 C 119 118 125 80 145 55 C 165 29 194 17 230 17 C 257 17 292 34 334 69 C 376 104 407 186 425 316 L 445 462 L 476 462 L 426 105 C 423 85 421 66 420 49 C 418 31 418 15 418 0 L 387 0 C 387 15 387 32 389 51 C 390 70 392 88 395 105 L 402 142 C 382 84 356 43 324 21 C 291 0 260 -12 230 -12 Z" unicode="ù" />
<glyph horiz-adv-x="485" d="M 273 525 L 377 650 L 415 650 L 311 525 L 273 525 Z M 230 -12 C 184 -12 147 4 121 36 C 95 68 86 112 95 168 L 123 338 C 127 360 129 381 131 401 C 133 420 134 440 134 462 L 165 462 C 165 440 164 420 162 400 C 160 380 157 360 154 338 L 127 168 C 119 118 125 80 145 55 C 165 29 194 17 230 17 C 257 17 292 34 334 69 C 376 104 407 186 425 316 L 445 462 L 476 462 L 426 105 C 423 85 421 66 420 49 C 418 31 418 15 418 0 L 387 0 C 387 15 387 32 389 51 C 390 70 392 88 395 105 L 402 142 C 382 84 356 43 324 21 C 291 0 260 -12 230 -12 Z" unicode="ú" />
<glyph horiz-adv-x="485" d="M 201 525 L 319 644 L 340 644 L 425 525 L 389 525 L 327 612 L 241 525 L 201 525 Z M 230 -12 C 184 -12 147 4 121 36 C 95 68 86 112 95 168 L 123 338 C 127 360 129 381 131 401 C 133 420 134 440 134 462 L 165 462 C 165 440 164 420 162 400 C 160 380 157 360 154 338 L 127 168 C 119 118 125 80 145 55 C 165 29 194 17 230 17 C 257 17 292 34 334 69 C 376 104 407 186 425 316 L 445 462 L 476 462 L 426 105 C 423 85 421 66 420 49 C 418 31 418 15 418 0 L 387 0 C 387 15 387 32 389 51 C 390 70 392 88 395 105 L 402 142 C 382 84 356 43 324 21 C 291 0 260 -12 230 -12 Z" unicode="û" />
<glyph horiz-adv-x="485" d="M 231 541 L 237 583 L 279 583 L 273 541 L 231 541 Z M 355 541 L 361 583 L 403 583 L 397 541 L 355 541 Z M 230 -12 C 184 -12 147 4 121 36 C 95 68 86 112 95 168 L 123 338 C 127 360 129 381 131 401 C 133 420 134 440 134 462 L 165 462 C 165 440 164 420 162 400 C 160 380 157 360 154 338 L 127 168 C 119 118 125 80 145 55 C 165 29 194 17 230 17 C 257 17 292 34 334 69 C 376 104 407 186 425 316 L 445 462 L 476 462 L 426 105 C 423 85 421 66 420 49 C 418 31 418 15 418 0 L 387 0 C 387 15 387 32 389 51 C 390 70 392 88 395 105 L 402 142 C 382 84 356 43 324 21 C 291 0 260 -12 230 -12 Z" unicode="ü" />
<glyph horiz-adv-x="460" d="M 275 524 L 379 649 L 417 649 L 313 524 L 275 524 Z M 252 -22 C 205 -89 156 -139 104 -171 C 52 -203 -3 -220 -63 -220 L -71 -220 L -67 -191 L -59 -191 C -7 -191 44 -175 94 -143 C 144 -111 184 -71 216 -23 L 84 462 L 115 462 L 223 71 L 239 5 C 281 71 318 143 352 223 C 386 303 414 382 437 462 L 469 462 C 435 355 399 262 363 182 C 327 102 290 34 252 -22 Z" unicode="ý" />
<glyph horiz-adv-x="511" d="M 46 -220 L 179 724 L 210 724 L 158 357 C 157 348 156 339 154 331 C 152 323 150 314 148 306 C 166 371 193 415 228 438 C 263 460 298 472 332 472 C 378 472 417 454 449 419 C 480 383 496 339 496 286 C 496 204 470 135 420 77 C 370 19 305 -10 227 -10 C 204 -10 183 -8 165 -4 C 147 0 128 6 110 15 L 77 -220 L 46 -220 Z M 227 19 C 296 19 353 45 398 97 C 442 149 465 212 465 286 C 465 336 451 375 423 402 C 395 429 364 443 332 443 C 298 443 260 424 218 388 C 175 352 143 257 123 105 L 115 45 C 132 35 150 29 168 25 C 186 21 206 19 227 19 Z" unicode="þ" />
<glyph horiz-adv-x="460" d="M 233 540 L 239 582 L 281 582 L 275 540 L 233 540 Z M 357 540 L 363 582 L 405 582 L 399 540 L 357 540 Z M 252 -22 C 205 -89 156 -139 104 -171 C 52 -203 -3 -220 -63 -220 L -71 -220 L -67 -191 L -59 -191 C -7 -191 44 -175 94 -143 C 144 -111 184 -71 216 -23 L 84 462 L 115 462 L 223 71 L 239 5 C 281 71 318 143 352 223 C 386 303 414 382 437 462 L 469 462 C 435 355 399 262 363 182 C 327 102 290 34 252 -22 Z" unicode="ÿ" />
<glyph horiz-adv-x="595" d="M 302 724 L 306 752 L 500 752 L 496 724 L 302 724 Z M 20 0 L 375 670 L 406 670 L 575 0 L 543 0 L 481 249 L 184 249 L 52 0 L 20 0 Z M 199 278 L 474 278 L 394 598 L 386 632 L 369 598 L 199 278 Z" unicode="Ā" />
<glyph horiz-adv-x="501" d="M 265 532 L 269 560 L 463 560 L 459 532 L 265 532 Z M 236 -10 C 189 -10 150 7 119 43 C 87 78 72 122 72 176 C 72 257 100 327 156 385 C 212 443 279 472 357 472 C 378 472 399 470 421 468 C 442 465 465 460 490 454 L 441 105 C 438 86 436 68 435 51 C 433 34 433 17 433 0 L 402 0 C 402 16 402 34 404 52 C 405 70 407 88 410 105 L 416 145 C 397 88 370 48 336 25 C 302 1 268 -10 236 -10 Z M 236 19 C 268 19 305 37 349 73 C 392 109 424 204 445 356 L 455 431 C 439 435 424 438 408 440 C 392 442 375 443 357 443 C 287 443 228 416 178 364 C 128 312 103 249 103 176 C 103 125 117 86 145 59 C 173 32 203 19 236 19 Z" unicode="ā" />
<glyph horiz-adv-x="595" d="M 399 714 C 365 714 338 725 320 749 C 302 773 294 801 297 835 L 325 835 C 324 805 330 781 342 765 C 354 749 373 741 399 741 C 421 741 440 749 455 765 C 469 781 477 805 479 835 L 507 835 C 504 794 492 764 472 744 C 451 724 427 714 399 714 Z M 20 0 L 375 670 L 406 670 L 575 0 L 543 0 L 481 249 L 184 249 L 52 0 L 20 0 Z M 199 278 L 474 278 L 394 598 L 386 632 L 369 598 L 199 278 Z" unicode="Ă" />
<glyph horiz-adv-x="501" d="M 362 516 C 328 516 301 527 283 551 C 265 575 257 603 260 637 L 288 637 C 287 607 293 583 305 567 C 317 551 336 543 362 543 C 384 543 403 551 418 567 C 432 583 440 607 442 637 L 470 637 C 467 596 455 566 435 546 C 414 526 390 516 362 516 Z M 236 -10 C 189 -10 150 7 119 43 C 87 78 72 122 72 176 C 72 257 100 327 156 385 C 212 443 279 472 357 472 C 378 472 399 470 421 468 C 442 465 465 460 490 454 L 441 105 C 438 86 436 68 435 51 C 433 34 433 17 433 0 L 402 0 C 402 16 402 34 404 52 C 405 70 407 88 410 105 L 416 145 C 397 88 370 48 336 25 C 302 1 268 -10 236 -10 Z M 236 19 C 268 19 305 37 349 73 C 392 109 424 204 445 356 L 455 431 C 439 435 424 438 408 440 C 392 442 375 443 357 443 C 287 443 228 416 178 364 C 128 312 103 249 103 176 C 103 125 117 86 145 59 C 173 32 203 19 236 19 Z" unicode="ă" />
<glyph horiz-adv-x="595" d="M 20 0 L 375 670 L 406 670 L 575 0 L 571 0 C 538 0 510 -10 488 -30 C 466 -50 455 -77 455 -110 C 455 -136 464 -156 483 -170 C 501 -184 525 -192 553 -192 L 549 -220 C 511 -220 481 -209 459 -188 C 437 -166 426 -140 426 -110 C 426 -76 437 -47 459 -23 C 481 1 507 16 538 22 L 481 249 L 184 249 L 52 0 L 20 0 Z M 199 278 L 474 278 L 394 598 L 386 632 L 369 598 L 199 278 Z" unicode="Ą" />
<glyph horiz-adv-x="501" d="M 236 -10 C 189 -10 150 7 119 43 C 87 78 72 122 72 176 C 72 257 100 327 156 385 C 212 443 279 472 357 472 C 378 472 399 470 421 468 C 442 465 465 460 490 454 L 441 105 C 438 86 436 68 435 51 C 433 34 433 17 433 0 L 428 0 C 380 -29 349 -53 334 -71 C 319 -89 312 -109 312 -130 C 312 -150 320 -166 336 -176 C 352 -186 377 -192 410 -192 L 406 -220 C 365 -220 334 -212 314 -197 C 293 -182 283 -160 283 -130 C 283 -105 291 -81 309 -59 C 326 -36 357 -10 402 18 C 402 32 403 47 405 62 C 406 77 408 91 410 105 L 416 145 C 397 88 370 48 336 25 C 302 1 268 -10 236 -10 Z M 236 19 C 268 19 305 37 349 73 C 392 109 424 204 445 356 L 455 431 C 439 435 424 438 408 440 C 392 442 375 443 357 443 C 287 443 228 416 178 364 C 128 312 103 249 103 176 C 103 125 117 86 145 59 C 173 32 203 19 236 19 Z" unicode="ą" />
<glyph horiz-adv-x="677" d="M 455 732 L 559 857 L 597 857 L 493 732 L 455 732 Z M 424 -12 C 324 -12 246 16 188 74 C 130 131 101 203 101 289 C 101 397 138 488 213 561 C 287 633 379 670 488 670 C 526 670 563 665 601 656 C 638 647 675 633 712 614 L 707 580 C 674 600 639 615 603 625 C 566 635 528 641 488 641 C 388 641 304 607 236 540 C 168 473 134 389 134 289 C 134 207 161 142 215 92 C 269 42 338 18 424 18 C 462 18 500 23 536 33 C 572 43 608 58 644 78 L 639 42 C 603 23 567 9 532 1 C 496 -7 460 -12 424 -12 Z" unicode="Ć" />
<glyph horiz-adv-x="462" d="M 277 524 L 381 649 L 419 649 L 315 524 L 277 524 Z M 279 -10 C 216 -10 166 8 130 45 C 93 81 75 131 75 193 C 75 273 98 339 146 392 C 193 445 253 472 326 472 C 356 472 382 468 405 460 C 428 452 452 441 477 427 L 472 395 C 449 411 426 423 402 431 C 378 439 352 443 326 443 C 260 443 206 419 166 372 C 126 324 106 265 106 193 C 106 141 121 99 153 67 C 184 35 226 19 279 19 C 305 19 331 23 356 31 C 380 39 404 51 426 68 L 421 32 C 398 17 375 6 351 0 C 327 -6 303 -10 279 -10 Z" unicode="ć" />
<glyph horiz-adv-x="677" d="M 379 732 L 497 851 L 518 851 L 603 732 L 568 732 L 505 819 L 419 732 L 379 732 Z M 424 -12 C 324 -12 246 16 188 74 C 130 131 101 203 101 289 C 101 397 138 488 213 561 C 287 633 379 670 488 670 C 526 670 563 665 601 656 C 638 647 675 633 712 614 L 707 580 C 674 600 639 615 603 625 C 566 635 528 641 488 641 C 388 641 304 607 236 540 C 168 473 134 389 134 289 C 134 207 161 142 215 92 C 269 42 338 18 424 18 C 462 18 500 23 536 33 C 572 43 608 58 644 78 L 639 42 C 603 23 567 9 532 1 C 496 -7 460 -12 424 -12 Z" unicode="Ĉ" />
<glyph horiz-adv-x="462" d="M 205 524 L 323 643 L 344 643 L 429 524 L 393 524 L 331 611 L 245 524 L 205 524 Z M 279 -10 C 216 -10 166 8 130 45 C 93 81 75 131 75 193 C 75 273 98 339 146 392 C 193 445 253 472 326 472 C 356 472 382 468 405 460 C 428 452 452 441 477 427 L 472 395 C 449 411 426 423 402 431 C 378 439 352 443 326 443 C 260 443 206 419 166 372 C 126 324 106 265 106 193 C 106 141 121 99 153 67 C 184 35 226 19 279 19 C 305 19 331 23 356 31 C 380 39 404 51 426 68 L 421 32 C 398 17 375 6 351 0 C 327 -6 303 -10 279 -10 Z" unicode="ĉ" />
<glyph horiz-adv-x="677" d="M 471 732 L 477 778 L 523 778 L 517 732 L 471 732 Z M 424 -12 C 324 -12 246 16 188 74 C 130 131 101 203 101 289 C 101 397 138 488 213 561 C 287 633 379 670 488 670 C 526 670 563 665 601 656 C 638 647 675 633 712 614 L 707 580 C 674 600 639 615 603 625 C 566 635 528 641 488 641 C 388 641 304 607 236 540 C 168 473 134 389 134 289 C 134 207 161 142 215 92 C 269 42 338 18 424 18 C 462 18 500 23 536 33 C 572 43 608 58 644 78 L 639 42 C 603 23 567 9 532 1 C 496 -7 460 -12 424 -12 Z" unicode="Ċ" />
<glyph horiz-adv-x="462" d="M 295 540 L 301 586 L 347 586 L 341 540 L 295 540 Z M 279 -10 C 216 -10 166 8 130 45 C 93 81 75 131 75 193 C 75 273 98 339 146 392 C 193 445 253 472 326 472 C 356 472 382 468 405 460 C 428 452 452 441 477 427 L 472 395 C 449 411 426 423 402 431 C 378 439 352 443 326 443 C 260 443 206 419 166 372 C 126 324 106 265 106 193 C 106 141 121 99 153 67 C 184 35 226 19 279 19 C 305 19 331 23 356 31 C 380 39 404 51 426 68 L 421 32 C 398 17 375 6 351 0 C 327 -6 303 -10 279 -10 Z" unicode="ċ" />
<glyph horiz-adv-x="677" d="M 484 722 L 398 841 L 433 841 L 496 753 L 582 841 L 622 841 L 505 722 L 484 722 Z M 424 -12 C 324 -12 246 16 188 74 C 130 131 101 203 101 289 C 101 397 138 488 213 561 C 287 633 379 670 488 670 C 526 670 563 665 601 656 C 638 647 675 633 712 614 L 707 580 C 674 600 639 615 603 625 C 566 635 528 641 488 641 C 388 641 304 607 236 540 C 168 473 134 389 134 289 C 134 207 161 142 215 92 C 269 42 338 18 424 18 C 462 18 500 23 536 33 C 572 43 608 58 644 78 L 639 42 C 603 23 567 9 532 1 C 496 -7 460 -12 424 -12 Z" unicode="Č" />
<glyph horiz-adv-x="462" d="M 307 524 L 221 643 L 256 643 L 319 555 L 405 643 L 445 643 L 328 524 L 307 524 Z M 279 -10 C 216 -10 166 8 130 45 C 93 81 75 131 75 193 C 75 273 98 339 146 392 C 193 445 253 472 326 472 C 356 472 382 468 405 460 C 428 452 452 441 477 427 L 472 395 C 449 411 426 423 402 431 C 378 439 352 443 326 443 C 260 443 206 419 166 372 C 126 324 106 265 106 193 C 106 141 121 99 153 67 C 184 35 226 19 279 19 C 305 19 331 23 356 31 C 380 39 404 51 426 68 L 421 32 C 398 17 375 6 351 0 C 327 -6 303 -10 279 -10 Z" unicode="č" />
<glyph horiz-adv-x="693" d="M 353 714 L 267 833 L 302 833 L 365 745 L 451 833 L 491 833 L 374 714 L 353 714 Z M 80 0 L 172 658 L 352 658 C 454 658 536 631 596 578 C 656 524 686 457 686 376 C 686 269 647 180 569 108 C 491 36 388 0 258 0 L 80 0 Z M 116 29 L 259 29 C 379 29 475 62 546 128 C 617 194 653 276 653 375 C 653 449 625 510 571 558 C 517 605 444 629 352 629 L 200 629 L 116 29 Z" unicode="Ď" />
<glyph horiz-adv-x="601" d="M 246 -10 C 199 -10 160 7 129 43 C 97 79 82 123 82 176 C 82 257 109 327 163 385 C 217 443 281 472 353 472 C 372 472 391 469 410 464 C 429 459 448 452 467 442 L 507 724 L 538 724 L 451 105 C 448 86 446 68 445 51 C 443 34 443 17 443 0 L 412 0 C 412 16 412 34 414 52 C 416 70 418 88 420 105 L 425 142 C 407 85 380 45 346 23 C 312 1 278 -10 246 -10 Z M 590 562 L 572 578 C 587 596 598 614 606 632 C 613 650 618 668 621 687 L 626 724 L 656 724 L 651 687 C 648 667 642 646 633 625 C 624 603 610 582 590 562 Z M 246 19 C 278 19 315 36 357 72 C 399 107 432 202 455 356 L 463 411 C 447 421 429 429 411 435 C 392 440 372 443 352 443 C 289 443 233 416 185 364 C 137 312 113 249 113 176 C 113 125 127 86 155 59 C 183 32 213 19 246 19 Z" unicode="ď" />
<glyph horiz-adv-x="693" d="M 80 0 L 125 319 L 65 319 L 69 348 L 129 348 L 172 658 L 352 658 C 454 658 536 631 596 578 C 656 524 686 457 686 376 C 686 269 647 180 569 108 C 491 36 388 0 258 0 L 80 0 Z M 116 29 L 259 29 C 379 29 475 62 546 128 C 617 194 653 276 653 375 C 653 449 625 510 571 558 C 517 605 444 629 352 629 L 200 629 L 161 348 L 309 348 L 305 319 L 157 319 L 116 29 Z" unicode="Đ" />
<glyph horiz-adv-x="503" d="M 246 -10 C 199 -10 160 7 129 43 C 97 79 82 123 82 176 C 82 257 109 327 163 385 C 217 443 281 472 353 472 C 372 472 391 469 410 464 C 429 459 448 452 467 442 L 489 594 L 393 594 L 397 622 L 493 622 L 507 724 L 538 724 L 524 622 L 582 622 L 578 594 L 520 594 L 451 105 C 448 86 446 68 445 51 C 443 34 443 17 443 0 L 412 0 C 412 16 412 34 414 52 C 416 70 418 88 420 105 L 425 142 C 407 85 380 45 346 23 C 312 1 278 -10 246 -10 Z M 246 19 C 278 19 315 36 357 72 C 399 107 432 202 455 356 L 463 411 C 447 421 429 429 411 435 C 392 440 372 443 352 443 C 289 443 233 416 185 364 C 137 312 113 249 113 176 C 113 125 127 86 155 59 C 183 32 213 19 246 19 Z" unicode="đ" />
<glyph horiz-adv-x="477" d="M 256 724 L 260 752 L 454 752 L 450 724 L 256 724 Z M 80 0 L 172 658 L 493 658 L 489 629 L 199 629 L 160 348 L 443 348 L 439 319 L 156 319 L 115 29 L 425 29 L 421 0 L 80 0 Z" unicode="Ē" />
<glyph horiz-adv-x="472" d="M 208 532 L 212 560 L 406 560 L 402 532 L 208 532 Z M 274 -10 C 212 -10 163 9 129 48 C 95 87 78 140 78 207 C 78 282 100 345 145 396 C 189 446 245 472 312 472 C 354 472 387 462 412 442 C 436 422 449 396 449 364 C 449 318 429 283 389 261 C 349 238 285 224 196 218 L 110 212 L 110 208 C 110 148 124 101 153 68 C 181 35 222 19 274 19 C 304 19 331 24 356 35 C 381 45 406 62 432 86 L 426 44 C 402 24 378 10 354 2 C 330 -5 303 -10 274 -10 Z M 312 443 C 258 443 212 423 175 383 C 138 343 117 296 111 240 L 195 246 C 273 251 329 263 364 281 C 399 299 417 327 417 363 C 417 387 407 407 389 421 C 370 435 344 443 312 443 Z" unicode="ē" />
<glyph horiz-adv-x="477" d="M 353 714 C 319 714 292 725 274 749 C 256 773 248 801 251 835 L 279 835 C 278 805 284 781 296 765 C 308 749 327 741 353 741 C 375 741 394 749 409 765 C 423 781 431 805 433 835 L 461 835 C 458 794 446 764 426 744 C 405 724 381 714 353 714 Z M 80 0 L 172 658 L 493 658 L 489 629 L 199 629 L 160 348 L 443 348 L 439 319 L 156 319 L 115 29 L 425 29 L 421 0 L 80 0 Z" unicode="Ĕ" />
<glyph horiz-adv-x="472" d="M 305 516 C 271 516 244 527 226 551 C 208 575 200 603 203 637 L 231 637 C 230 607 236 583 248 567 C 260 551 279 543 305 543 C 327 543 346 551 361 567 C 375 583 383 607 385 637 L 413 637 C 410 596 398 566 378 546 C 357 526 333 516 305 516 Z M 274 -10 C 212 -10 163 9 129 48 C 95 87 78 140 78 207 C 78 282 100 345 145 396 C 189 446 245 472 312 472 C 354 472 387 462 412 442 C 436 422 449 396 449 364 C 449 318 429 283 389 261 C 349 238 285 224 196 218 L 110 212 L 110 208 C 110 148 124 101 153 68 C 181 35 222 19 274 19 C 304 19 331 24 356 35 C 381 45 406 62 432 86 L 426 44 C 402 24 378 10 354 2 C 330 -5 303 -10 274 -10 Z M 312 443 C 258 443 212 423 175 383 C 138 343 117 296 111 240 L 195 246 C 273 251 329 263 364 281 C 399 299 417 327 417 363 C 417 387 407 407 389 421 C 370 435 344 443 312 443 Z" unicode="ĕ" />
<glyph horiz-adv-x="477" d="M 328 724 L 334 770 L 380 770 L 374 724 L 328 724 Z M 80 0 L 172 658 L 493 658 L 489 629 L 199 629 L 160 348 L 443 348 L 439 319 L 156 319 L 115 29 L 425 29 L 421 0 L 80 0 Z" unicode="Ė" />
<glyph horiz-adv-x="472" d="M 281 540 L 287 586 L 333 586 L 327 540 L 281 540 Z M 274 -10 C 212 -10 163 9 129 48 C 95 87 78 140 78 207 C 78 282 100 345 145 396 C 189 446 245 472 312 472 C 354 472 387 462 412 442 C 436 422 449 396 449 364 C 449 318 429 283 389 261 C 349 238 285 224 196 218 L 110 212 L 110 208 C 110 148 124 101 153 68 C 181 35 222 19 274 19 C 304 19 331 24 356 35 C 381 45 406 62 432 86 L 426 44 C 402 24 378 10 354 2 C 330 -5 303 -10 274 -10 Z M 312 443 C 258 443 212 423 175 383 C 138 343 117 296 111 240 L 195 246 C 273 251 329 263 364 281 C 399 299 417 327 417 363 C 417 387 407 407 389 421 C 370 435 344 443 312 443 Z" unicode="ė" />
<glyph horiz-adv-x="477" d="M 80 0 L 172 658 L 493 658 L 489 629 L 199 629 L 160 348 L 443 348 L 439 319 L 156 319 L 115 29 L 425 29 L 421 0 L 416 0 C 383 0 355 -10 333 -30 C 311 -50 300 -77 300 -110 C 300 -136 309 -156 328 -170 C 346 -184 370 -192 398 -192 L 394 -220 C 356 -220 326 -209 304 -188 C 282 -166 271 -140 271 -110 C 271 -86 276 -64 287 -45 C 298 -26 312 -11 330 0 L 80 0 Z" unicode="Ę" />
<glyph horiz-adv-x="486" d="M 403 -220 C 361 -220 328 -208 304 -185 C 280 -161 268 -133 268 -100 C 268 -82 271 -66 277 -50 C 283 -34 292 -21 303 -9 C 298 -9 293 -10 288 -10 C 283 -10 278 -10 274 -10 C 212 -10 163 9 129 48 C 95 87 78 140 78 207 C 78 282 100 345 145 396 C 189 446 245 472 312 472 C 354 472 387 462 412 442 C 436 422 449 396 449 364 C 449 318 429 283 389 261 C 349 238 285 224 196 218 L 110 212 L 110 208 C 110 148 124 101 153 68 C 181 35 222 19 274 19 C 304 19 331 24 356 35 C 381 45 406 62 432 86 L 426 44 C 417 36 408 30 399 24 C 389 18 379 13 369 9 C 346 -1 328 -16 316 -36 C 303 -56 297 -77 297 -100 C 297 -128 307 -151 329 -167 C 350 -183 376 -192 407 -192 L 403 -220 Z M 312 443 C 258 443 212 423 175 383 C 138 343 117 296 111 240 L 195 246 C 273 251 329 263 364 281 C 399 299 417 327 417 363 C 417 387 407 407 389 421 C 370 435 344 443 312 443 Z" unicode="ę" />
<glyph horiz-adv-x="477" d="M 341 714 L 255 833 L 290 833 L 353 745 L 439 833 L 479 833 L 362 714 L 341 714 Z M 80 0 L 172 658 L 493 658 L 489 629 L 199 629 L 160 348 L 443 348 L 439 319 L 156 319 L 115 29 L 425 29 L 421 0 L 80 0 Z" unicode="Ě" />
<glyph horiz-adv-x="472" d="M 293 524 L 207 643 L 242 643 L 305 555 L 391 643 L 431 643 L 314 524 L 293 524 Z M 274 -10 C 212 -10 163 9 129 48 C 95 87 78 140 78 207 C 78 282 100 345 145 396 C 189 446 245 472 312 472 C 354 472 387 462 412 442 C 436 422 449 396 449 364 C 449 318 429 283 389 261 C 349 238 285 224 196 218 L 110 212 L 110 208 C 110 148 124 101 153 68 C 181 35 222 19 274 19 C 304 19 331 24 356 35 C 381 45 406 62 432 86 L 426 44 C 402 24 378 10 354 2 C 330 -5 303 -10 274 -10 Z M 312 443 C 258 443 212 423 175 383 C 138 343 117 296 111 240 L 195 246 C 273 251 329 263 364 281 C 399 299 417 327 417 363 C 417 387 407 407 389 421 C 370 435 344 443 312 443 Z" unicode="ě" />
<glyph horiz-adv-x="682" d="M 369 732 L 487 851 L 508 851 L 593 732 L 558 732 L 495 819 L 409 732 L 369 732 Z M 414 -12 C 318 -12 242 16 186 73 C 129 129 101 201 101 289 C 101 404 138 496 212 566 C 286 635 376 670 482 670 C 520 670 555 666 588 658 C 620 650 652 639 684 624 L 680 592 C 648 609 617 621 585 629 C 553 637 519 641 482 641 C 382 641 299 608 233 543 C 167 478 134 393 134 289 C 134 207 160 142 214 92 C 267 42 334 17 414 17 C 446 17 477 20 509 26 C 540 32 570 44 599 61 L 629 277 L 487 277 L 491 306 L 665 306 L 628 40 C 592 20 554 6 515 -1 C 476 -8 442 -12 414 -12 Z" unicode="Ĝ" />
<glyph horiz-adv-x="502" d="M 219 524 L 337 643 L 358 643 L 443 524 L 407 524 L 345 611 L 259 524 L 219 524 Z M 212 -228 C 179 -228 149 -224 122 -217 C 94 -210 67 -200 41 -186 L 46 -152 C 71 -168 97 -180 125 -188 C 152 -195 181 -199 212 -199 C 256 -199 296 -183 333 -153 C 369 -123 393 -69 404 9 L 423 142 C 404 84 378 44 344 22 C 310 0 276 -10 244 -10 C 197 -10 158 8 127 44 C 95 80 80 124 80 176 C 80 257 108 327 164 385 C 220 443 287 472 365 472 C 386 472 407 470 429 468 C 450 465 473 460 498 454 L 435 7 C 423 -77 396 -137 355 -173 C 313 -209 266 -228 212 -228 Z M 244 19 C 276 19 313 36 355 72 C 397 108 430 202 453 356 L 464 431 C 448 435 432 438 416 440 C 400 442 383 443 365 443 C 295 443 236 416 186 364 C 136 312 111 249 111 176 C 111 125 125 86 153 59 C 181 32 211 19 244 19 Z" unicode="ĝ" />
<glyph horiz-adv-x="682" d="M 486 722 C 452 722 425 733 407 757 C 389 781 381 809 384 843 L 412 843 C 411 813 417 789 429 773 C 441 757 460 749 486 749 C 508 749 527 757 542 773 C 556 789 564 813 566 843 L 594 843 C 591 802 579 772 559 752 C 538 732 514 722 486 722 Z M 414 -12 C 318 -12 242 16 186 73 C 129 129 101 201 101 289 C 101 404 138 496 212 566 C 286 635 376 670 482 670 C 520 670 555 666 588 658 C 620 650 652 639 684 624 L 680 592 C 648 609 617 621 585 629 C 553 637 519 641 482 641 C 382 641 299 608 233 543 C 167 478 134 393 134 289 C 134 207 160 142 214 92 C 267 42 334 17 414 17 C 446 17 477 20 509 26 C 540 32 570 44 599 61 L 629 277 L 487 277 L 491 306 L 665 306 L 628 40 C 592 20 554 6 515 -1 C 476 -8 442 -12 414 -12 Z" unicode="Ğ" />
<glyph horiz-adv-x="502" d="M 333 516 C 299 516 272 527 254 551 C 236 575 228 603 231 637 L 259 637 C 258 607 264 583 276 567 C 288 551 307 543 333 543 C 355 543 374 551 389 567 C 403 583 411 607 413 637 L 441 637 C 438 596 426 566 406 546 C 385 526 361 516 333 516 Z M 212 -228 C 179 -228 149 -224 122 -217 C 94 -210 67 -200 41 -186 L 46 -152 C 71 -168 97 -180 125 -188 C 152 -195 181 -199 212 -199 C 256 -199 296 -183 333 -153 C 369 -123 393 -69 404 9 L 423 142 C 404 84 378 44 344 22 C 310 0 276 -10 244 -10 C 197 -10 158 8 127 44 C 95 80 80 124 80 176 C 80 257 108 327 164 385 C 220 443 287 472 365 472 C 386 472 407 470 429 468 C 450 465 473 460 498 454 L 435 7 C 423 -77 396 -137 355 -173 C 313 -209 266 -228 212 -228 Z M 244 19 C 276 19 313 36 355 72 C 397 108 430 202 453 356 L 464 431 C 448 435 432 438 416 440 C 400 442 383 443 365 443 C 295 443 236 416 186 364 C 136 312 111 249 111 176 C 111 125 125 86 153 59 C 181 32 211 19 244 19 Z" unicode="ğ" />
<glyph horiz-adv-x="682" d="M 461 732 L 467 778 L 513 778 L 507 732 L 461 732 Z M 414 -12 C 318 -12 242 16 186 73 C 129 129 101 201 101 289 C 101 404 138 496 212 566 C 286 635 376 670 482 670 C 520 670 555 666 588 658 C 620 650 652 639 684 624 L 680 592 C 648 609 617 621 585 629 C 553 637 519 641 482 641 C 382 641 299 608 233 543 C 167 478 134 393 134 289 C 134 207 160 142 214 92 C 267 42 334 17 414 17 C 446 17 477 20 509 26 C 540 32 570 44 599 61 L 629 277 L 487 277 L 491 306 L 665 306 L 628 40 C 592 20 554 6 515 -1 C 476 -8 442 -12 414 -12 Z" unicode="Ġ" />
<glyph horiz-adv-x="502" d="M 309 540 L 315 586 L 361 586 L 355 540 L 309 540 Z M 212 -228 C 179 -228 149 -224 122 -217 C 94 -210 67 -200 41 -186 L 46 -152 C 71 -168 97 -180 125 -188 C 152 -195 181 -199 212 -199 C 256 -199 296 -183 333 -153 C 369 -123 393 -69 404 9 L 423 142 C 404 84 378 44 344 22 C 310 0 276 -10 244 -10 C 197 -10 158 8 127 44 C 95 80 80 124 80 176 C 80 257 108 327 164 385 C 220 443 287 472 365 472 C 386 472 407 470 429 468 C 450 465 473 460 498 454 L 435 7 C 423 -77 396 -137 355 -173 C 313 -209 266 -228 212 -228 Z M 244 19 C 276 19 313 36 355 72 C 397 108 430 202 453 356 L 464 431 C 448 435 432 438 416 440 C 400 442 383 443 365 443 C 295 443 236 416 186 364 C 136 312 111 249 111 176 C 111 125 125 86 153 59 C 181 32 211 19 244 19 Z" unicode="ġ" />
<glyph horiz-adv-x="682" d="M 414 -12 C 318 -12 242 16 186 73 C 129 129 101 201 101 289 C 101 404 138 496 212 566 C 286 635 376 670 482 670 C 520 670 555 666 588 658 C 620 650 652 639 684 624 L 680 592 C 648 609 617 621 585 629 C 553 637 519 641 482 641 C 382 641 299 608 233 543 C 167 478 134 393 134 289 C 134 207 160 142 214 92 C 267 42 334 17 414 17 C 446 17 477 20 509 26 C 540 32 570 44 599 61 L 629 277 L 487 277 L 491 306 L 665 306 L 628 40 C 592 20 554 6 515 -1 C 476 -8 442 -12 414 -12 Z M 355 -218 L 337 -202 C 352 -183 363 -165 371 -147 C 378 -129 383 -111 386 -93 L 391 -56 L 421 -56 L 416 -93 C 413 -113 407 -133 398 -155 C 389 -176 375 -197 355 -218 Z" unicode="Ģ" />
<glyph horiz-adv-x="502" d="M 380 678 L 398 662 C 382 643 371 625 364 607 C 356 589 351 571 349 553 L 344 516 L 314 516 L 319 553 C 321 573 327 593 336 615 C 345 636 360 657 380 678 Z M 212 -228 C 179 -228 149 -224 122 -217 C 94 -210 67 -200 41 -186 L 46 -152 C 71 -168 97 -180 125 -188 C 152 -195 181 -199 212 -199 C 256 -199 296 -183 333 -153 C 369 -123 393 -69 404 9 L 423 142 C 404 84 378 44 344 22 C 310 0 276 -10 244 -10 C 197 -10 158 8 127 44 C 95 80 80 124 80 176 C 80 257 108 327 164 385 C 220 443 287 472 365 472 C 386 472 407 470 429 468 C 450 465 473 460 498 454 L 435 7 C 423 -77 396 -137 355 -173 C 313 -209 266 -228 212 -228 Z M 244 19 C 276 19 313 36 355 72 C 397 108 430 202 453 356 L 464 431 C 448 435 432 438 416 440 C 400 442 383 443 365 443 C 295 443 236 416 186 364 C 136 312 111 249 111 176 C 111 125 125 86 153 59 C 181 32 211 19 244 19 Z" unicode="ģ" />
<glyph horiz-adv-x="674" d="M 323 724 L 441 843 L 462 843 L 547 724 L 512 724 L 449 811 L 363 724 L 323 724 Z M 80 0 L 172 658 L 204 658 L 161 354 L 611 354 L 654 658 L 686 658 L 594 0 L 562 0 L 608 325 L 158 325 L 112 0 L 80 0 Z" unicode="Ĥ" />
<glyph horiz-adv-x="487" d="M 53 724 L 171 843 L 192 843 L 277 724 L 241 724 L 179 811 L 93 724 L 53 724 Z M 76 0 L 178 724 L 209 724 L 172 462 C 169 439 166 416 162 392 C 158 368 154 344 150 320 C 170 378 196 417 230 439 C 263 461 295 472 327 472 C 372 472 408 456 435 424 C 461 392 470 349 460 294 L 429 124 C 425 101 422 80 420 61 C 418 41 418 21 418 0 L 387 0 C 387 21 387 41 389 61 C 391 81 394 102 398 124 L 429 294 C 437 343 431 380 410 406 C 389 431 361 444 327 444 C 296 444 259 426 217 391 C 174 355 143 266 124 124 L 107 0 L 76 0 Z" unicode="ĥ" />
<glyph horiz-adv-x="674" d="M 78 0 L 146 486 L 96 486 L 100 514 L 150 514 L 170 658 L 202 658 L 182 514 L 632 514 L 652 658 L 684 658 L 664 514 L 714 514 L 710 486 L 660 486 L 592 0 L 560 0 L 606 325 L 156 325 L 110 0 L 78 0 Z M 159 354 L 609 354 L 628 486 L 178 486 L 159 354 Z" unicode="Ħ" />
<glyph horiz-adv-x="487" d="M 76 0 L 160 594 L 100 594 L 104 622 L 164 622 L 178 724 L 209 724 L 195 622 L 286 622 L 282 594 L 191 594 L 172 462 C 169 439 166 416 162 392 C 158 368 154 344 150 320 C 170 378 196 417 230 439 C 263 461 295 472 327 472 C 372 472 408 456 435 424 C 461 392 470 349 460 294 L 429 124 C 425 101 422 80 420 61 C 418 41 418 21 418 0 L 387 0 C 387 21 387 41 389 61 C 391 81 394 102 398 124 L 429 294 C 437 343 431 380 410 406 C 389 431 361 444 327 444 C 296 444 259 426 217 391 C 174 355 143 266 124 124 L 107 0 L 76 0 Z" unicode="ħ" />
<glyph horiz-adv-x="192" d="M 81 724 L 54 724 C 60 752 71 773 85 787 C 99 801 117 808 139 808 C 151 808 164 805 176 799 C 188 793 201 783 215 771 C 225 761 234 753 242 749 C 250 745 257 743 265 743 C 277 743 289 747 299 756 C 309 764 317 779 322 799 L 349 799 C 342 771 331 750 317 736 C 303 722 285 715 265 715 C 251 715 239 718 227 724 C 215 730 202 739 189 752 C 179 762 170 769 162 773 C 154 777 146 780 138 780 C 124 780 113 775 103 767 C 93 758 86 744 81 724 Z M 80 0 L 172 658 L 204 658 L 112 0 L 80 0 Z" unicode="Ĩ" />
<glyph horiz-adv-x="190" d="M 55 524 L 27 524 C 33 552 44 573 58 587 C 72 601 90 608 112 608 C 124 608 137 605 149 599 C 161 593 174 583 188 571 C 198 561 207 553 215 549 C 223 545 230 543 238 543 C 250 543 262 547 272 557 C 282 566 289 580 294 599 L 322 599 C 315 571 304 550 290 536 C 276 522 258 515 238 515 C 224 515 212 518 200 524 C 188 530 175 539 162 552 C 152 562 143 569 135 573 C 127 577 119 580 111 580 C 97 580 86 575 76 566 C 66 556 59 542 55 524 Z M 84 0 C 84 18 85 37 87 59 C 89 81 91 102 94 124 L 142 462 L 173 462 L 125 124 C 122 102 119 81 117 59 C 115 37 114 18 114 0 L 84 0 Z" unicode="ĩ" />
<glyph horiz-adv-x="192" d="M 102 724 L 106 752 L 300 752 L 296 724 L 102 724 Z M 80 0 L 172 658 L 204 658 L 112 0 L 80 0 Z" unicode="Ī" />
<glyph horiz-adv-x="190" d="M 72 532 L 76 560 L 270 560 L 266 532 L 72 532 Z M 84 0 C 84 18 85 37 87 59 C 89 81 91 102 94 124 L 142 462 L 173 462 L 125 124 C 122 102 119 81 117 59 C 115 37 114 18 114 0 L 84 0 Z" unicode="ī" />
<glyph horiz-adv-x="192" d="M 199 714 C 165 714 138 725 120 749 C 102 773 94 801 97 835 L 125 835 C 124 805 130 781 142 765 C 154 749 173 741 199 741 C 221 741 240 749 255 765 C 269 781 277 805 279 835 L 307 835 C 304 794 292 764 272 744 C 251 724 227 714 199 714 Z M 80 0 L 172 658 L 204 658 L 112 0 L 80 0 Z" unicode="Ĭ" />
<glyph horiz-adv-x="190" d="M 170 516 C 136 516 109 527 91 551 C 73 575 65 603 68 637 L 96 637 C 95 607 101 583 113 567 C 125 551 144 543 170 543 C 192 543 211 551 226 567 C 240 583 248 607 250 637 L 278 637 C 275 596 263 566 243 546 C 222 526 198 516 170 516 Z M 85 0 C 85 18 86 37 88 59 C 90 81 92 102 95 124 L 143 462 L 174 462 L 126 124 C 123 102 120 81 118 59 C 116 37 115 18 115 0 L 85 0 Z" unicode="ĭ" />
<glyph horiz-adv-x="192" d="M 90 -220 C 49 -220 18 -212 -2 -197 C -22 -182 -33 -160 -33 -130 C -33 -105 -24 -81 -8 -59 C 8 -37 38 -12 82 16 L 172 658 L 204 658 L 112 0 C 64 -29 33 -53 18 -71 C 3 -89 -4 -109 -4 -130 C -4 -150 4 -166 20 -176 C 36 -186 61 -192 94 -192 L 90 -220 Z" unicode="Į" />
<glyph horiz-adv-x="194" d="M 166 636 L 171 674 L 209 674 L 204 636 L 166 636 Z M 93 -220 C 55 -220 25 -209 3 -188 C -19 -166 -30 -140 -30 -110 C -30 -74 -18 -45 4 -21 C 27 3 55 17 87 22 C 87 40 89 57 91 75 C 93 93 95 109 97 124 L 145 462 L 176 462 L 128 124 C 125 104 123 83 121 62 C 119 41 118 20 118 0 L 115 0 C 82 0 54 -10 32 -30 C 10 -50 -1 -77 -1 -110 C -1 -136 8 -156 27 -170 C 45 -184 69 -192 97 -192 L 93 -220 Z" unicode="į" />
<glyph horiz-adv-x="192" d="M 174 724 L 180 770 L 226 770 L 220 724 L 174 724 Z M 80 0 L 172 658 L 204 658 L 112 0 L 80 0 Z" unicode="İ" />
<glyph horiz-adv-x="190" d="M 84 0 C 84 18 85 37 87 59 C 89 81 91 102 94 124 L 142 462 L 173 462 L 125 124 C 122 102 119 81 117 59 C 115 37 114 18 114 0 L 84 0 Z" unicode="ı" />
<glyph horiz-adv-x="205" d="M 95 724 L 213 843 L 234 843 L 319 724 L 284 724 L 221 811 L 135 724 L 95 724 Z M -34 -212 L -42 -212 L -38 -183 L -30 -183 C 0 -183 24 -174 44 -156 C 64 -138 76 -112 81 -80 L 185 658 L 217 658 L 113 -80 C 107 -122 91 -155 65 -178 C 39 -200 6 -212 -34 -212 Z" unicode="Ĵ" />
<glyph horiz-adv-x="176" d="M 51 524 L 169 643 L 190 643 L 275 524 L 239 524 L 177 611 L 91 524 L 51 524 Z M -58 -212 L -66 -212 L -62 -183 L -54 -183 C -23 -183 2 -172 24 -150 C 46 -128 59 -98 64 -62 L 138 462 L 169 462 L 95 -62 C 88 -108 71 -144 43 -171 C 15 -198 -18 -212 -58 -212 Z" unicode="ĵ" />
<glyph horiz-adv-x="491" d="M 80 0 L 172 658 L 204 658 L 161 352 L 513 658 L 555 658 L 185 336 L 475 0 L 434 0 L 156 323 L 111 0 L 80 0 Z M 209 -210 L 191 -194 C 206 -175 217 -157 225 -139 C 232 -121 237 -103 240 -85 L 245 -48 L 275 -48 L 270 -85 C 267 -105 261 -125 252 -147 C 243 -168 229 -189 209 -210 Z" unicode="Ķ" />
<glyph horiz-adv-x="426" d="M 76 0 L 178 724 L 209 724 L 142 251 C 193 284 241 317 285 351 C 329 384 369 421 406 462 L 445 462 C 403 416 360 376 318 342 C 275 308 228 274 176 241 L 402 0 L 360 0 L 140 234 L 107 0 L 76 0 Z M 177 -218 L 159 -202 C 174 -183 185 -165 193 -147 C 200 -129 205 -111 208 -93 L 213 -56 L 243 -56 L 238 -93 C 235 -113 229 -133 220 -155 C 211 -176 197 -197 177 -218 Z" unicode="ķ" />
<glyph horiz-adv-x="439" d="M 174 724 L 278 849 L 316 849 L 212 724 L 174 724 Z M 80 0 L 172 658 L 204 658 L 116 29 L 423 29 L 419 0 L 80 0 Z" unicode="Ĺ" />
<glyph horiz-adv-x="184" d="M 126 786 L 230 911 L 268 911 L 164 786 L 126 786 Z M 85 0 C 85 20 86 43 88 67 C 90 91 92 113 95 132 L 179 724 L 210 724 L 126 124 C 123 104 121 83 119 62 C 117 41 116 20 116 0 L 85 0 Z" unicode="ĺ" />
<glyph horiz-adv-x="439" d="M 80 0 L 172 658 L 204 658 L 116 29 L 423 29 L 419 0 L 80 0 Z M 201 -210 L 183 -194 C 198 -175 209 -157 217 -139 C 224 -121 229 -103 232 -85 L 237 -48 L 267 -48 L 262 -85 C 259 -105 253 -125 244 -147 C 235 -168 221 -189 201 -210 Z" unicode="Ļ" />
<glyph horiz-adv-x="184" d="M 85 0 C 85 20 86 43 88 67 C 90 91 92 113 95 132 L 179 724 L 210 724 L 126 124 C 123 104 121 83 119 62 C 117 41 116 20 116 0 L 85 0 Z M 40 -218 L 22 -202 C 37 -183 48 -165 56 -147 C 63 -129 68 -111 71 -93 L 76 -56 L 106 -56 L 101 -93 C 98 -113 92 -133 83 -155 C 74 -176 60 -197 40 -218 Z" unicode="ļ" />
<glyph horiz-adv-x="439" d="M 80 0 L 172 658 L 204 658 L 116 29 L 423 29 L 419 0 L 80 0 Z M 322 496 L 304 512 C 319 530 330 548 338 566 C 345 584 350 602 353 621 L 358 658 L 388 658 L 383 621 C 380 601 374 580 365 559 C 356 537 342 516 322 496 Z" unicode="Ľ" />
<glyph horiz-adv-x="275" d="M 85 0 C 85 20 86 43 88 67 C 90 91 92 113 95 132 L 179 724 L 210 724 L 126 124 C 123 104 121 83 119 62 C 117 41 116 20 116 0 L 85 0 Z M 263 561 L 245 577 C 260 595 271 613 279 631 C 286 649 291 667 294 686 L 299 723 L 329 723 L 324 686 C 321 666 315 645 306 624 C 297 602 283 581 263 561 Z" unicode="ľ" />
<glyph horiz-adv-x="439" d="M 80 0 L 172 658 L 204 658 L 116 29 L 423 29 L 419 0 L 80 0 Z M 351 326 L 357 366 L 397 366 L 391 326 L 351 326 Z" unicode="Ŀ" />
<glyph horiz-adv-x="184" d="M 85 0 C 85 20 86 43 88 67 C 90 91 92 113 95 132 L 179 724 L 210 724 L 126 124 C 123 104 121 83 119 62 C 117 41 116 20 116 0 L 85 0 Z M 207 332 L 213 372 L 253 372 L 247 332 L 207 332 Z" unicode="ŀ" />
<glyph horiz-adv-x="440" d="M 81 0 L 126 318 L 40 284 L 44 316 L 130 350 L 173 658 L 205 658 L 164 364 L 261 403 L 257 371 L 159 332 L 117 29 L 424 29 L 420 0 L 81 0 Z" unicode="Ł" />
<glyph horiz-adv-x="184" d="M 85 0 C 85 20 86 43 88 67 C 90 91 92 113 95 132 L 126 348 L 62 330 L 66 361 L 130 379 L 179 724 L 210 724 L 163 388 L 232 407 L 228 376 L 159 357 L 126 124 C 123 104 121 83 119 62 C 117 41 116 20 116 0 L 85 0 Z" unicode="ł" />
<glyph horiz-adv-x="698" d="M 401 724 L 505 849 L 543 849 L 439 724 L 401 724 Z M 80 0 L 172 658 L 210 658 L 573 71 L 594 37 L 599 71 L 681 658 L 710 658 L 618 0 L 580 0 L 217 587 L 196 621 L 191 587 L 109 0 L 80 0 Z" unicode="Ń" />
<glyph horiz-adv-x="483" d="M 299 524 L 403 649 L 441 649 L 337 524 L 299 524 Z M 83 0 L 133 357 C 135 377 137 395 139 413 C 140 430 141 446 141 462 L 172 462 C 172 446 171 429 170 409 C 168 389 166 371 164 357 L 158 320 C 176 378 201 417 232 439 C 263 461 293 472 322 472 C 372 472 408 455 432 421 C 455 387 462 344 454 294 L 424 124 C 420 101 417 80 416 61 C 415 41 415 21 415 0 L 384 0 C 384 21 384 41 385 61 C 386 81 389 102 393 124 L 423 294 C 431 340 425 376 405 403 C 385 429 358 443 322 443 C 294 443 260 424 220 388 C 180 352 150 264 131 124 L 114 0 L 83 0 Z" unicode="ń" />
<glyph horiz-adv-x="698" d="M 80 0 L 172 658 L 210 658 L 573 71 L 594 37 L 599 71 L 681 658 L 710 658 L 618 0 L 580 0 L 217 587 L 196 621 L 191 587 L 109 0 L 80 0 Z M 290 -210 L 272 -194 C 287 -175 298 -157 306 -139 C 313 -121 318 -103 321 -85 L 326 -48 L 356 -48 L 351 -85 C 348 -105 342 -125 333 -147 C 324 -168 310 -189 290 -210 Z" unicode="Ņ" />
<glyph horiz-adv-x="483" d="M 83 0 L 133 357 C 135 377 137 395 139 413 C 140 430 141 446 141 462 L 172 462 C 172 446 171 429 170 409 C 168 389 166 371 164 357 L 158 320 C 176 378 201 417 232 439 C 263 461 293 472 322 472 C 372 472 408 455 432 421 C 455 387 462 344 454 294 L 424 124 C 420 101 417 80 416 61 C 415 41 415 21 415 0 L 384 0 C 384 21 384 41 385 61 C 386 81 389 102 393 124 L 423 294 C 431 340 425 376 405 403 C 385 429 358 443 322 443 C 294 443 260 424 220 388 C 180 352 150 264 131 124 L 114 0 L 83 0 Z M 191 -218 L 173 -202 C 188 -183 199 -165 207 -147 C 214 -129 219 -111 222 -93 L 227 -56 L 257 -56 L 252 -93 C 249 -113 243 -133 234 -155 C 225 -176 211 -197 191 -218 Z" unicode="ņ" />
<glyph horiz-adv-x="698" d="M 430 714 L 344 833 L 379 833 L 442 745 L 528 833 L 568 833 L 451 714 L 430 714 Z M 80 0 L 172 658 L 210 658 L 573 71 L 594 37 L 599 71 L 681 658 L 710 658 L 618 0 L 580 0 L 217 587 L 196 621 L 191 587 L 109 0 L 80 0 Z" unicode="Ň" />
<glyph horiz-adv-x="483" d="M 329 524 L 243 643 L 278 643 L 341 555 L 427 643 L 467 643 L 350 524 L 329 524 Z M 83 0 L 133 357 C 135 377 137 395 139 413 C 140 430 141 446 141 462 L 172 462 C 172 446 171 429 170 409 C 168 389 166 371 164 357 L 158 320 C 176 378 201 417 232 439 C 263 461 293 472 322 472 C 372 472 408 455 432 421 C 455 387 462 344 454 294 L 424 124 C 420 101 417 80 416 61 C 415 41 415 21 415 0 L 384 0 C 384 21 384 41 385 61 C 386 81 389 102 393 124 L 423 294 C 431 340 425 376 405 403 C 385 429 358 443 322 443 C 294 443 260 424 220 388 C 180 352 150 264 131 124 L 114 0 L 83 0 Z" unicode="ň" />
<glyph horiz-adv-x="698" d="M 80 0 L 172 658 L 207 658 L 580 75 L 595 46 L 599 75 L 681 658 L 710 658 L 605 -89 C 599 -129 582 -160 556 -184 C 530 -208 497 -220 458 -220 L 450 -220 L 454 -192 L 462 -192 C 491 -192 516 -183 538 -165 C 559 -147 572 -121 577 -89 L 590 0 L 216 585 L 196 619 L 191 585 L 109 0 L 80 0 Z" unicode="Ŋ" />
<glyph horiz-adv-x="493" d="M 259 -220 L 251 -220 L 255 -191 L 263 -191 C 295 -191 322 -180 344 -158 C 366 -136 379 -106 384 -70 L 435 294 C 441 343 434 380 414 405 C 394 430 366 443 330 443 C 300 443 264 425 222 391 C 180 356 150 267 130 124 L 113 0 L 82 0 L 132 357 C 134 377 136 395 138 413 C 140 430 141 446 141 462 L 171 462 C 171 446 170 429 169 409 C 167 389 165 371 163 357 L 156 320 C 176 378 202 417 235 439 C 268 461 300 472 330 472 C 376 472 413 456 439 424 C 465 392 474 349 466 294 L 415 -70 C 408 -116 390 -152 362 -179 C 334 -206 299 -220 259 -220 Z" unicode="ŋ" />
<glyph horiz-adv-x="772" d="M 378 732 L 382 760 L 576 760 L 572 732 L 378 732 Z M 401 -14 C 307 -14 234 14 181 72 C 127 129 101 201 101 287 C 101 393 133 484 199 559 C 264 634 352 672 464 672 C 557 672 630 643 684 586 C 737 528 764 457 764 371 C 764 266 731 176 665 100 C 599 24 511 -14 401 -14 Z M 401 15 C 498 15 577 49 639 117 C 700 185 731 269 731 371 C 731 447 707 511 659 564 C 611 616 546 643 464 643 C 366 643 287 609 226 542 C 164 474 134 389 134 287 C 134 211 157 146 205 94 C 252 41 317 15 401 15 Z" unicode="Ō" />
<glyph horiz-adv-x="522" d="M 239 532 L 243 560 L 437 560 L 433 532 L 239 532 Z M 277 -10 C 219 -10 170 8 132 45 C 94 81 75 132 75 198 C 75 275 97 340 142 393 C 186 445 242 472 308 472 C 366 472 415 453 453 416 C 491 379 510 328 510 264 C 510 186 487 121 443 69 C 398 16 343 -10 277 -10 Z M 277 19 C 333 19 381 42 420 89 C 459 136 479 194 479 263 C 479 318 463 362 433 394 C 402 426 360 443 308 443 C 251 443 203 419 164 372 C 125 325 106 267 106 199 C 106 143 121 99 152 67 C 183 35 225 19 277 19 Z" unicode="ō" />
<glyph horiz-adv-x="772" d="M 475 722 C 441 722 414 733 396 757 C 378 781 370 809 373 843 L 401 843 C 400 813 406 789 418 773 C 430 757 449 749 475 749 C 497 749 516 757 531 773 C 545 789 553 813 555 843 L 583 843 C 580 802 568 772 548 752 C 527 732 503 722 475 722 Z M 401 -14 C 307 -14 234 14 181 72 C 127 129 101 201 101 287 C 101 393 133 484 199 559 C 264 634 352 672 464 672 C 557 672 630 643 684 586 C 737 528 764 457 764 371 C 764 266 731 176 665 100 C 599 24 511 -14 401 -14 Z M 401 15 C 498 15 577 49 639 117 C 700 185 731 269 731 371 C 731 447 707 511 659 564 C 611 616 546 643 464 643 C 366 643 287 609 226 542 C 164 474 134 389 134 287 C 134 211 157 146 205 94 C 252 41 317 15 401 15 Z" unicode="Ŏ" />
<glyph horiz-adv-x="522" d="M 336 516 C 302 516 275 527 257 551 C 239 575 231 603 234 637 L 262 637 C 261 607 267 583 279 567 C 291 551 310 543 336 543 C 358 543 377 551 392 567 C 406 583 414 607 416 637 L 444 637 C 441 596 429 566 409 546 C 388 526 364 516 336 516 Z M 277 -10 C 219 -10 170 8 132 45 C 94 81 75 132 75 198 C 75 275 97 340 142 393 C 186 445 242 472 308 472 C 366 472 415 453 453 416 C 491 379 510 328 510 264 C 510 186 487 121 443 69 C 398 16 343 -10 277 -10 Z M 277 19 C 333 19 381 42 420 89 C 459 136 479 194 479 263 C 479 318 463 362 433 394 C 402 426 360 443 308 443 C 251 443 203 419 164 372 C 125 325 106 267 106 199 C 106 143 121 99 152 67 C 183 35 225 19 277 19 Z" unicode="ŏ" />
<glyph horiz-adv-x="772" d="M 394 732 L 492 849 L 529 849 L 431 732 L 394 732 Z M 507 732 L 605 849 L 642 849 L 544 732 L 507 732 Z M 401 -14 C 307 -14 234 14 181 72 C 127 129 101 201 101 287 C 101 393 133 484 199 559 C 264 634 352 672 464 672 C 557 672 630 643 684 586 C 737 528 764 457 764 371 C 764 266 731 176 665 100 C 599 24 511 -14 401 -14 Z M 401 15 C 498 15 577 49 639 117 C 700 185 731 269 731 371 C 731 447 707 511 659 564 C 611 616 546 643 464 643 C 366 643 287 609 226 542 C 164 474 134 389 134 287 C 134 211 157 146 205 94 C 252 41 317 15 401 15 Z" unicode="Ő" />
<glyph horiz-adv-x="522" d="M 258 524 L 356 641 L 393 641 L 295 524 L 258 524 Z M 371 524 L 469 641 L 506 641 L 408 524 L 371 524 Z M 277 -10 C 219 -10 170 8 132 45 C 94 81 75 132 75 198 C 75 275 97 340 142 393 C 186 445 242 472 308 472 C 366 472 415 453 453 416 C 491 379 510 328 510 264 C 510 186 487 121 443 69 C 398 16 343 -10 277 -10 Z M 277 19 C 333 19 381 42 420 89 C 459 136 479 194 479 263 C 479 318 463 362 433 394 C 402 426 360 443 308 443 C 251 443 203 419 164 372 C 125 325 106 267 106 199 C 106 143 121 99 152 67 C 183 35 225 19 277 19 Z" unicode="ő" />
<glyph horiz-adv-x="891" d="M 419 0 C 318 0 240 27 184 82 C 128 137 101 205 101 287 C 101 394 136 483 207 553 C 278 623 374 658 495 658 L 907 658 L 903 629 L 612 629 L 573 348 L 857 348 L 853 319 L 569 319 L 529 29 L 839 29 L 835 0 L 419 0 Z M 419 29 L 497 29 L 580 629 L 496 629 C 384 629 295 596 231 532 C 166 468 134 386 134 287 C 134 213 159 152 209 103 C 259 53 329 29 419 29 Z" unicode="Œ" />
<glyph horiz-adv-x="860" d="M 270 -10 C 212 -10 165 9 130 47 C 94 85 77 135 77 198 C 77 275 98 340 141 393 C 183 445 238 472 304 472 C 352 472 392 458 425 432 C 458 406 480 370 490 326 C 508 370 536 405 573 432 C 609 458 652 472 700 472 C 742 472 775 462 800 442 C 824 422 837 396 837 364 C 837 318 817 283 777 261 C 737 238 673 224 584 218 L 498 212 L 498 208 C 498 148 512 101 541 68 C 569 35 610 19 662 19 C 692 19 719 24 744 35 C 769 45 794 62 820 86 L 814 44 C 790 24 766 10 742 2 C 718 -5 691 -10 662 -10 C 610 -10 569 3 537 30 C 505 56 484 93 475 140 C 457 95 430 59 394 31 C 358 3 316 -10 270 -10 Z M 700 443 C 646 443 600 423 563 383 C 526 343 505 296 499 240 L 583 246 C 661 251 717 263 752 281 C 787 299 805 327 805 363 C 805 387 795 407 777 421 C 758 435 732 443 700 443 Z M 273 19 C 329 19 376 42 413 89 C 450 136 469 194 469 263 C 469 318 454 362 426 394 C 397 426 356 443 304 443 C 247 443 200 419 163 372 C 126 325 108 267 108 199 C 108 143 122 99 151 67 C 180 35 221 19 273 19 Z" unicode="œ" />
<glyph horiz-adv-x="477" d="M 287 724 L 391 849 L 429 849 L 325 724 L 287 724 Z M 81 0 L 172 658 L 294 658 C 344 658 383 644 413 617 C 443 589 458 552 458 506 C 458 456 442 414 411 382 C 379 350 340 331 292 325 C 307 318 319 308 329 295 C 338 282 347 266 355 248 L 461 0 L 426 0 L 325 238 C 315 262 302 281 288 296 C 273 310 253 318 229 318 L 157 318 L 112 0 L 81 0 Z M 160 347 L 255 347 C 307 347 348 362 379 392 C 409 422 425 460 425 506 C 425 544 413 574 389 596 C 365 618 334 629 294 629 L 200 629 L 160 347 Z" unicode="Ŕ" />
<glyph horiz-adv-x="319" d="M 208 524 L 312 649 L 350 649 L 246 524 L 208 524 Z M 83 0 L 133 357 C 135 373 137 390 139 408 C 140 425 141 443 141 462 L 172 462 C 172 446 171 429 170 410 C 168 391 166 373 164 357 L 157 320 C 177 380 201 420 230 441 C 259 461 286 472 311 472 C 319 472 327 471 337 470 C 346 468 355 466 364 464 L 360 434 C 352 436 343 438 334 440 C 325 442 317 443 310 443 C 294 443 265 427 224 397 C 182 367 151 276 131 124 L 114 0 L 83 0 Z" unicode="ŕ" />
<glyph horiz-adv-x="477" d="M 81 0 L 172 658 L 294 658 C 344 658 383 644 413 617 C 443 589 458 552 458 506 C 458 456 442 414 411 382 C 379 350 340 331 292 325 C 307 318 319 308 329 295 C 338 282 347 266 355 248 L 461 0 L 426 0 L 325 238 C 315 262 302 281 288 296 C 273 310 253 318 229 318 L 157 318 L 112 0 L 81 0 Z M 160 347 L 255 347 C 307 347 348 362 379 392 C 409 422 425 460 425 506 C 425 544 413 574 389 596 C 365 618 334 629 294 629 L 200 629 L 160 347 Z M 215 -210 L 197 -194 C 212 -175 223 -157 231 -139 C 238 -121 243 -103 246 -85 L 251 -48 L 281 -48 L 276 -85 C 273 -105 267 -125 258 -147 C 249 -168 235 -189 215 -210 Z" unicode="Ŗ" />
<glyph horiz-adv-x="319" d="M 83 0 L 133 357 C 135 373 137 390 139 408 C 140 425 141 443 141 462 L 172 462 C 172 446 171 429 170 410 C 168 391 166 373 164 357 L 157 320 C 177 380 201 420 230 441 C 259 461 286 472 311 472 C 319 472 327 471 337 470 C 346 468 355 466 364 464 L 360 434 C 352 436 343 438 334 440 C 325 442 317 443 310 443 C 294 443 265 427 224 397 C 182 367 151 276 131 124 L 114 0 L 83 0 Z M 41 -218 L 23 -202 C 38 -183 49 -165 57 -147 C 64 -129 69 -111 72 -93 L 77 -56 L 107 -56 L 102 -93 C 99 -113 93 -133 84 -155 C 75 -176 61 -197 41 -218 Z" unicode="ŗ" />
<glyph horiz-adv-x="477" d="M 316 714 L 230 833 L 265 833 L 328 745 L 414 833 L 454 833 L 337 714 L 316 714 Z M 81 0 L 172 658 L 294 658 C 344 658 383 644 413 617 C 443 589 458 552 458 506 C 458 456 442 414 411 382 C 379 350 340 331 292 325 C 307 318 319 308 329 295 C 338 282 347 266 355 248 L 461 0 L 426 0 L 325 238 C 315 262 302 281 288 296 C 273 310 253 318 229 318 L 157 318 L 112 0 L 81 0 Z M 160 347 L 255 347 C 307 347 348 362 379 392 C 409 422 425 460 425 506 C 425 544 413 574 389 596 C 365 618 334 629 294 629 L 200 629 L 160 347 Z" unicode="Ř" />
<glyph horiz-adv-x="319" d="M 238 524 L 152 643 L 187 643 L 250 555 L 336 643 L 376 643 L 259 524 L 238 524 Z M 83 0 L 133 357 C 135 373 137 390 139 408 C 140 425 141 443 141 462 L 172 462 C 172 446 171 429 170 410 C 168 391 166 373 164 357 L 157 320 C 177 380 201 420 230 441 C 259 461 286 472 311 472 C 319 472 327 471 337 470 C 346 468 355 466 364 464 L 360 434 C 352 436 343 438 334 440 C 325 442 317 443 310 443 C 294 443 265 427 224 397 C 182 367 151 276 131 124 L 114 0 L 83 0 Z" unicode="ř" />
<glyph horiz-adv-x="499" d="M 301 732 L 405 857 L 443 857 L 339 732 L 301 732 Z M 260 -16 C 224 -16 189 -11 156 -1 C 122 9 92 23 66 41 L 71 81 C 93 60 121 44 155 32 C 188 20 223 14 260 14 C 300 14 339 27 375 54 C 411 81 429 121 429 173 C 429 202 419 229 399 253 C 379 277 345 299 298 319 L 286 324 C 232 346 194 371 172 399 C 150 426 139 458 139 495 C 139 543 155 584 188 620 C 220 656 269 674 333 674 C 365 674 396 669 426 661 C 455 652 481 639 503 622 L 498 581 C 476 603 452 619 424 629 C 396 639 366 644 333 644 C 285 644 246 630 216 602 C 186 574 171 539 171 495 C 171 466 181 440 201 417 C 221 393 253 372 299 354 L 311 349 C 365 326 403 300 426 271 C 449 241 461 209 461 173 C 461 117 442 71 404 36 C 366 1 318 -16 260 -16 Z" unicode="Ś" />
<glyph horiz-adv-x="359" d="M 197 524 L 301 649 L 339 649 L 235 524 L 197 524 Z M 180 -10 C 160 -10 137 -6 112 0 C 86 7 65 16 48 28 L 53 64 C 68 50 88 39 112 31 C 136 23 159 19 180 19 C 214 19 242 27 265 45 C 288 63 300 87 300 118 C 300 140 292 160 278 176 C 263 192 239 208 206 223 L 192 229 C 158 243 134 260 119 278 C 104 296 97 320 97 349 C 97 383 110 412 136 436 C 162 460 198 472 243 472 C 261 472 282 469 305 463 C 327 457 347 450 363 441 L 358 406 C 344 416 325 425 303 432 C 281 439 261 443 243 443 C 210 443 182 434 160 418 C 138 402 127 379 127 351 C 127 329 133 311 145 297 C 157 282 177 269 205 258 L 219 252 C 258 235 286 216 304 196 C 321 175 330 150 330 120 C 330 82 316 51 289 27 C 262 2 226 -10 180 -10 Z" unicode="ś" />
<glyph horiz-adv-x="499" d="M 225 732 L 343 851 L 364 851 L 449 732 L 414 732 L 351 819 L 265 732 L 225 732 Z M 260 -16 C 224 -16 189 -11 156 -1 C 122 9 92 23 66 41 L 71 81 C 93 60 121 44 155 32 C 188 20 223 14 260 14 C 300 14 339 27 375 54 C 411 81 429 121 429 173 C 429 202 419 229 399 253 C 379 277 345 299 298 319 L 286 324 C 232 346 194 371 172 399 C 150 426 139 458 139 495 C 139 543 155 584 188 620 C 220 656 269 674 333 674 C 365 674 396 669 426 661 C 455 652 481 639 503 622 L 498 581 C 476 603 452 619 424 629 C 396 639 366 644 333 644 C 285 644 246 630 216 602 C 186 574 171 539 171 495 C 171 466 181 440 201 417 C 221 393 253 372 299 354 L 311 349 C 365 326 403 300 426 271 C 449 241 461 209 461 173 C 461 117 442 71 404 36 C 366 1 318 -16 260 -16 Z" unicode="Ŝ" />
<glyph horiz-adv-x="359" d="M 125 524 L 243 643 L 264 643 L 349 524 L 313 524 L 251 611 L 165 524 L 125 524 Z M 180 -10 C 160 -10 137 -6 112 0 C 86 7 65 16 48 28 L 53 64 C 68 50 88 39 112 31 C 136 23 159 19 180 19 C 214 19 242 27 265 45 C 288 63 300 87 300 118 C 300 140 292 160 278 176 C 263 192 239 208 206 223 L 192 229 C 158 243 134 260 119 278 C 104 296 97 320 97 349 C 97 383 110 412 136 436 C 162 460 198 472 243 472 C 261 472 282 469 305 463 C 327 457 347 450 363 441 L 358 406 C 344 416 325 425 303 432 C 281 439 261 443 243 443 C 210 443 182 434 160 418 C 138 402 127 379 127 351 C 127 329 133 311 145 297 C 157 282 177 269 205 258 L 219 252 C 258 235 286 216 304 196 C 321 175 330 150 330 120 C 330 82 316 51 289 27 C 262 2 226 -10 180 -10 Z" unicode="ŝ" />
<glyph horiz-adv-x="499" d="M 260 -16 C 224 -16 189 -11 156 -1 C 122 9 92 23 66 41 L 71 81 C 93 60 121 44 155 32 C 188 20 223 14 260 14 C 300 14 339 27 375 54 C 411 81 429 121 429 173 C 429 202 419 229 399 253 C 379 277 345 299 298 319 L 286 324 C 232 346 194 371 172 399 C 150 426 139 458 139 495 C 139 543 155 584 188 620 C 220 656 269 674 333 674 C 365 674 396 669 426 661 C 455 652 481 639 503 622 L 498 581 C 476 603 452 619 424 629 C 396 639 366 644 333 644 C 285 644 246 630 216 602 C 186 574 171 539 171 495 C 171 466 181 440 201 417 C 221 393 253 372 299 354 L 311 349 C 365 326 403 300 426 271 C 449 241 461 209 461 173 C 461 117 442 71 404 36 C 366 1 318 -16 260 -16 Z M 245 -184 C 235 -184 226 -182 216 -179 C 206 -176 198 -172 191 -168 L 195 -139 C 201 -145 208 -149 218 -153 C 227 -156 237 -158 247 -158 C 261 -158 273 -154 282 -146 C 290 -138 295 -128 295 -115 C 295 -103 290 -94 281 -86 C 272 -78 261 -75 249 -75 L 244 -75 L 248 -48 L 253 -48 C 273 -48 289 -54 303 -66 C 316 -78 323 -93 323 -113 C 323 -135 316 -152 302 -165 C 288 -177 269 -184 245 -184 Z" unicode="Ş" />
<glyph horiz-adv-x="359" d="M 180 -10 C 160 -10 137 -6 112 0 C 86 7 65 16 48 28 L 53 64 C 68 50 88 39 112 31 C 136 23 159 19 180 19 C 214 19 242 27 265 45 C 288 63 300 87 300 118 C 300 140 292 160 278 176 C 263 192 239 208 206 223 L 192 229 C 158 243 134 260 119 278 C 104 296 97 320 97 349 C 97 383 110 412 136 436 C 162 460 198 472 243 472 C 261 472 282 469 305 463 C 327 457 347 450 363 441 L 358 406 C 344 416 325 425 303 432 C 281 439 261 443 243 443 C 210 443 182 434 160 418 C 138 402 127 379 127 351 C 127 329 133 311 145 297 C 157 282 177 269 205 258 L 219 252 C 258 235 286 216 304 196 C 321 175 330 150 330 120 C 330 82 316 51 289 27 C 262 2 226 -10 180 -10 Z M 155 -184 C 145 -184 136 -182 126 -179 C 116 -176 108 -172 101 -168 L 105 -139 C 111 -145 118 -149 128 -153 C 137 -156 147 -158 157 -158 C 171 -158 183 -154 192 -146 C 200 -138 205 -128 205 -115 C 205 -103 200 -94 192 -86 C 184 -78 173 -75 161 -75 L 155 -75 L 158 -48 L 164 -48 C 185 -48 202 -54 214 -66 C 226 -78 233 -93 233 -113 C 233 -135 226 -152 212 -165 C 198 -177 179 -184 155 -184 Z" unicode="ş" />
<glyph horiz-adv-x="499" d="M 330 722 L 244 841 L 279 841 L 342 753 L 428 841 L 468 841 L 351 722 L 330 722 Z M 260 -16 C 224 -16 189 -11 156 -1 C 122 9 92 23 66 41 L 71 81 C 93 60 121 44 155 32 C 188 20 223 14 260 14 C 300 14 339 27 375 54 C 411 81 429 121 429 173 C 429 202 419 229 399 253 C 379 277 345 299 298 319 L 286 324 C 232 346 194 371 172 399 C 150 426 139 458 139 495 C 139 543 155 584 188 620 C 220 656 269 674 333 674 C 365 674 396 669 426 661 C 455 652 481 639 503 622 L 498 581 C 476 603 452 619 424 629 C 396 639 366 644 333 644 C 285 644 246 630 216 602 C 186 574 171 539 171 495 C 171 466 181 440 201 417 C 221 393 253 372 299 354 L 311 349 C 365 326 403 300 426 271 C 449 241 461 209 461 173 C 461 117 442 71 404 36 C 366 1 318 -16 260 -16 Z" unicode="Š" />
<glyph horiz-adv-x="359" d="M 227 524 L 141 643 L 176 643 L 239 555 L 325 643 L 365 643 L 248 524 L 227 524 Z M 180 -10 C 160 -10 137 -6 112 0 C 86 7 65 16 48 28 L 53 64 C 68 50 88 39 112 31 C 136 23 159 19 180 19 C 214 19 242 27 265 45 C 288 63 300 87 300 118 C 300 140 292 160 278 176 C 263 192 239 208 206 223 L 192 229 C 158 243 134 260 119 278 C 104 296 97 320 97 349 C 97 383 110 412 136 436 C 162 460 198 472 243 472 C 261 472 282 469 305 463 C 327 457 347 450 363 441 L 358 406 C 344 416 325 425 303 432 C 281 439 261 443 243 443 C 210 443 182 434 160 418 C 138 402 127 379 127 351 C 127 329 133 311 145 297 C 157 282 177 269 205 258 L 219 252 C 258 235 286 216 304 196 C 321 175 330 150 330 120 C 330 82 316 51 289 27 C 262 2 226 -10 180 -10 Z" unicode="š" />
<glyph horiz-adv-x="536" d="M 252 0 L 340 629 L 108 629 L 112 658 L 608 658 L 604 629 L 372 629 L 284 0 L 252 0 Z M 251 -184 C 241 -184 232 -182 222 -179 C 212 -176 204 -172 197 -168 L 201 -139 C 207 -145 214 -149 224 -153 C 233 -156 243 -158 253 -158 C 267 -158 279 -154 288 -146 C 296 -138 301 -128 301 -115 C 301 -103 296 -94 287 -86 C 278 -78 267 -75 255 -75 L 250 -75 L 254 -48 L 259 -48 C 279 -48 295 -54 309 -66 C 322 -78 329 -93 329 -113 C 329 -135 322 -152 308 -165 C 294 -177 275 -184 251 -184 Z" unicode="Ţ" />
<glyph horiz-adv-x="281" d="M 182 -9 C 153 -9 132 0 118 16 C 104 32 99 57 104 89 L 152 433 L 77 433 L 81 462 L 157 462 L 180 624 L 211 624 L 188 462 L 318 462 L 314 433 L 183 433 L 135 89 C 131 65 134 47 143 36 C 152 25 166 20 185 20 C 197 20 210 22 222 26 C 234 30 246 37 259 46 L 255 14 C 243 6 231 1 219 -3 C 206 -7 194 -9 182 -9 Z M 155 -184 C 145 -184 136 -182 126 -179 C 116 -176 108 -172 101 -168 L 105 -139 C 111 -145 118 -149 128 -153 C 137 -156 147 -158 157 -158 C 171 -158 183 -154 192 -146 C 200 -138 205 -128 205 -115 C 205 -103 200 -94 192 -86 C 184 -78 173 -75 161 -75 L 155 -75 L 158 -48 L 164 -48 C 185 -48 202 -54 214 -66 C 226 -78 233 -93 233 -113 C 233 -135 226 -152 212 -165 C 198 -177 179 -184 155 -184 Z" unicode="ţ" />
<glyph horiz-adv-x="536" d="M 358 714 L 272 833 L 307 833 L 370 745 L 456 833 L 496 833 L 379 714 L 358 714 Z M 252 0 L 340 629 L 108 629 L 112 658 L 608 658 L 604 629 L 372 629 L 284 0 L 252 0 Z" unicode="Ť" />
<glyph horiz-adv-x="305" d="M 294 562 L 276 578 C 291 596 302 614 310 632 C 317 650 322 668 325 687 L 330 724 L 360 724 L 355 687 C 352 667 346 646 337 625 C 328 603 314 582 294 562 Z M 182 -9 C 153 -9 132 0 118 16 C 104 32 99 57 104 89 L 152 433 L 77 433 L 81 462 L 157 462 L 180 624 L 211 624 L 188 462 L 318 462 L 314 433 L 183 433 L 135 89 C 131 65 134 47 143 36 C 152 25 166 20 185 20 C 197 20 210 22 222 26 C 234 30 246 37 259 46 L 255 14 C 243 6 231 1 219 -3 C 206 -7 194 -9 182 -9 Z" unicode="ť" />
<glyph horiz-adv-x="536" d="M 252 0 L 301 353 L 165 353 L 169 382 L 305 382 L 340 629 L 108 629 L 112 658 L 608 658 L 604 629 L 372 629 L 337 382 L 475 382 L 471 353 L 333 353 L 284 0 L 252 0 Z" unicode="Ŧ" />
<glyph horiz-adv-x="281" d="M 182 -9 C 153 -9 132 0 118 16 C 104 32 99 57 104 89 L 131 286 L 66 286 L 70 314 L 135 314 L 152 433 L 77 433 L 81 462 L 157 462 L 180 624 L 211 624 L 188 462 L 318 462 L 314 433 L 183 433 L 166 314 L 266 314 L 262 286 L 162 286 L 135 89 C 131 65 134 47 143 36 C 152 25 166 20 185 20 C 197 20 210 22 222 26 C 234 30 246 37 259 46 L 255 14 C 243 6 231 1 219 -3 C 206 -7 194 -9 182 -9 Z" unicode="ŧ" />
<glyph horiz-adv-x="661" d="M 317 724 L 290 724 C 296 752 307 773 321 787 C 335 801 353 808 375 808 C 387 808 400 805 412 799 C 424 793 437 783 451 771 C 461 761 470 753 478 749 C 486 745 493 743 501 743 C 513 743 525 747 535 756 C 545 764 553 779 558 799 L 585 799 C 578 771 567 750 553 736 C 539 722 521 715 501 715 C 487 715 475 718 463 724 C 451 730 438 739 425 752 C 415 762 406 769 398 773 C 390 777 382 780 374 780 C 360 780 349 775 339 767 C 329 758 322 744 317 724 Z M 345 -12 C 259 -12 196 11 156 58 C 115 104 100 167 111 245 L 169 658 L 201 658 L 143 245 C 133 173 145 118 180 78 C 215 38 270 18 345 18 C 409 18 463 38 509 80 C 554 122 581 177 591 245 L 649 658 L 678 658 L 620 245 C 608 165 577 102 526 56 C 474 10 414 -12 345 -12 Z" unicode="Ũ" />
<glyph horiz-adv-x="485" d="M 201 525 L 173 525 C 179 553 190 574 204 588 C 218 602 236 609 258 609 C 270 609 283 606 295 600 C 307 594 320 584 334 572 C 344 562 353 554 361 550 C 369 546 376 544 384 544 C 396 544 408 548 418 558 C 428 567 435 581 440 600 L 468 600 C 461 572 450 551 436 537 C 422 523 404 516 384 516 C 370 516 358 519 346 525 C 334 531 321 540 308 553 C 298 563 289 570 281 574 C 273 578 265 581 257 581 C 243 581 232 576 222 567 C 212 557 205 543 201 525 Z M 230 -12 C 184 -12 147 4 121 36 C 95 68 86 112 95 168 L 123 338 C 127 360 129 381 131 401 C 133 420 134 440 134 462 L 165 462 C 165 440 164 420 162 400 C 160 380 157 360 154 338 L 127 168 C 119 118 125 80 145 55 C 165 29 194 17 230 17 C 257 17 292 34 334 69 C 376 104 407 186 425 316 L 445 462 L 476 462 L 426 105 C 423 85 421 66 420 49 C 418 31 418 15 418 0 L 387 0 C 387 15 387 32 389 51 C 390 70 392 88 395 105 L 402 142 C 382 84 356 43 324 21 C 291 0 260 -12 230 -12 Z" unicode="ũ" />
<glyph horiz-adv-x="661" d="M 338 724 L 342 752 L 536 752 L 532 724 L 338 724 Z M 345 -12 C 259 -12 196 11 156 58 C 115 104 100 167 111 245 L 169 658 L 201 658 L 143 245 C 133 173 145 118 180 78 C 215 38 270 18 345 18 C 409 18 463 38 509 80 C 554 122 581 177 591 245 L 649 658 L 678 658 L 620 245 C 608 165 577 102 526 56 C 474 10 414 -12 345 -12 Z" unicode="Ū" />
<glyph horiz-adv-x="485" d="M 218 533 L 222 561 L 416 561 L 412 533 L 218 533 Z M 230 -12 C 184 -12 147 4 121 36 C 95 68 86 112 95 168 L 123 338 C 127 360 129 381 131 401 C 133 420 134 440 134 462 L 165 462 C 165 440 164 420 162 400 C 160 380 157 360 154 338 L 127 168 C 119 118 125 80 145 55 C 165 29 194 17 230 17 C 257 17 292 34 334 69 C 376 104 407 186 425 316 L 445 462 L 476 462 L 426 105 C 423 85 421 66 420 49 C 418 31 418 15 418 0 L 387 0 C 387 15 387 32 389 51 C 390 70 392 88 395 105 L 402 142 C 382 84 356 43 324 21 C 291 0 260 -12 230 -12 Z" unicode="ū" />
<glyph horiz-adv-x="661" d="M 435 714 C 401 714 374 725 356 749 C 338 773 330 801 333 835 L 361 835 C 360 805 366 781 378 765 C 390 749 409 741 435 741 C 457 741 476 749 491 765 C 505 781 513 805 515 835 L 543 835 C 540 794 528 764 508 744 C 487 724 463 714 435 714 Z M 345 -12 C 259 -12 196 11 156 58 C 115 104 100 167 111 245 L 169 658 L 201 658 L 143 245 C 133 173 145 118 180 78 C 215 38 270 18 345 18 C 409 18 463 38 509 80 C 554 122 581 177 591 245 L 649 658 L 678 658 L 620 245 C 608 165 577 102 526 56 C 474 10 414 -12 345 -12 Z" unicode="Ŭ" />
<glyph horiz-adv-x="485" d="M 315 517 C 281 517 254 528 236 552 C 218 576 210 604 213 638 L 241 638 C 240 608 246 584 258 568 C 270 552 289 544 315 544 C 337 544 356 552 371 568 C 385 584 393 608 395 638 L 423 638 C 420 597 408 567 388 547 C 367 527 343 517 315 517 Z M 230 -12 C 184 -12 147 4 121 36 C 95 68 86 112 95 168 L 123 338 C 127 360 129 381 131 401 C 133 420 134 440 134 462 L 165 462 C 165 440 164 420 162 400 C 160 380 157 360 154 338 L 127 168 C 119 118 125 80 145 55 C 165 29 194 17 230 17 C 257 17 292 34 334 69 C 376 104 407 186 425 316 L 445 462 L 476 462 L 426 105 C 423 85 421 66 420 49 C 418 31 418 15 418 0 L 387 0 C 387 15 387 32 389 51 C 390 70 392 88 395 105 L 402 142 C 382 84 356 43 324 21 C 291 0 260 -12 230 -12 Z" unicode="ŭ" />
<glyph horiz-adv-x="661" d="M 430 644 C 409 644 392 650 380 663 C 367 676 361 692 361 711 C 361 733 368 752 383 768 C 398 784 417 792 440 792 C 460 792 477 785 490 772 C 502 759 509 743 509 725 C 509 702 501 683 486 667 C 471 651 452 644 430 644 Z M 430 670 C 444 670 456 675 466 685 C 476 695 481 708 481 724 C 481 736 477 746 469 754 C 461 762 451 766 439 766 C 425 766 413 760 403 750 C 393 740 389 727 389 712 C 389 699 393 689 401 681 C 409 673 418 670 430 670 Z M 345 -12 C 259 -12 196 11 156 58 C 115 104 100 167 111 245 L 169 658 L 201 658 L 143 245 C 133 173 145 118 180 78 C 215 38 270 18 345 18 C 409 18 463 38 509 80 C 554 122 581 177 591 245 L 649 658 L 678 658 L 620 245 C 608 165 577 102 526 56 C 474 10 414 -12 345 -12 Z" unicode="Ů" />
<glyph horiz-adv-x="485" d="M 316 495 C 295 495 278 501 266 514 C 253 527 247 543 247 562 C 247 584 254 603 269 619 C 284 635 303 643 326 643 C 346 643 363 636 376 623 C 388 610 395 594 395 576 C 395 553 387 534 372 518 C 357 502 338 495 316 495 Z M 316 521 C 330 521 342 526 352 536 C 362 546 367 559 367 575 C 367 587 363 597 355 605 C 347 613 337 617 325 617 C 311 617 299 611 289 601 C 279 591 275 578 275 563 C 275 550 279 540 287 532 C 295 524 304 521 316 521 Z M 230 -12 C 184 -12 147 4 121 36 C 95 68 86 112 95 168 L 123 338 C 127 360 129 381 131 401 C 133 420 134 440 134 462 L 165 462 C 165 440 164 420 162 400 C 160 380 157 360 154 338 L 127 168 C 119 118 125 80 145 55 C 165 29 194 17 230 17 C 257 17 292 34 334 69 C 376 104 407 186 425 316 L 445 462 L 476 462 L 426 105 C 423 85 421 66 420 49 C 418 31 418 15 418 0 L 387 0 C 387 15 387 32 389 51 C 390 70 392 88 395 105 L 402 142 C 382 84 356 43 324 21 C 291 0 260 -12 230 -12 Z" unicode="ů" />
<glyph horiz-adv-x="661" d="M 354 724 L 452 841 L 489 841 L 391 724 L 354 724 Z M 467 724 L 565 841 L 602 841 L 504 724 L 467 724 Z M 345 -12 C 259 -12 196 11 156 58 C 115 104 100 167 111 245 L 169 658 L 201 658 L 143 245 C 133 173 145 118 180 78 C 215 38 270 18 345 18 C 409 18 463 38 509 80 C 554 122 581 177 591 245 L 649 658 L 678 658 L 620 245 C 608 165 577 102 526 56 C 474 10 414 -12 345 -12 Z" unicode="Ű" />
<glyph horiz-adv-x="485" d="M 237 525 L 335 642 L 372 642 L 274 525 L 237 525 Z M 350 525 L 448 642 L 485 642 L 387 525 L 350 525 Z M 230 -12 C 184 -12 147 4 121 36 C 95 68 86 112 95 168 L 123 338 C 127 360 129 381 131 401 C 133 420 134 440 134 462 L 165 462 C 165 440 164 420 162 400 C 160 380 157 360 154 338 L 127 168 C 119 118 125 80 145 55 C 165 29 194 17 230 17 C 257 17 292 34 334 69 C 376 104 407 186 425 316 L 445 462 L 476 462 L 426 105 C 423 85 421 66 420 49 C 418 31 418 15 418 0 L 387 0 C 387 15 387 32 389 51 C 390 70 392 88 395 105 L 402 142 C 382 84 356 43 324 21 C 291 0 260 -12 230 -12 Z" unicode="ű" />
<glyph horiz-adv-x="661" d="M 458 -220 C 418 -220 386 -209 362 -187 C 338 -165 327 -137 327 -105 C 327 -86 330 -69 337 -53 C 344 -37 354 -23 366 -11 C 363 -11 360 -12 356 -12 C 352 -12 349 -12 345 -12 C 259 -12 196 11 156 58 C 115 104 100 167 111 245 L 169 658 L 201 658 L 143 245 C 133 173 145 118 180 78 C 215 38 270 18 345 18 C 409 18 463 38 509 80 C 554 122 581 177 591 245 L 649 658 L 678 658 L 620 245 C 611 183 590 132 558 91 C 525 49 486 20 440 4 C 414 -5 393 -19 378 -39 C 363 -59 356 -81 356 -105 C 356 -131 366 -152 386 -168 C 406 -184 432 -192 462 -192 L 458 -220 Z" unicode="Ų" />
<glyph horiz-adv-x="485" d="M 230 -12 C 184 -12 147 4 121 36 C 95 68 86 112 95 168 L 123 338 C 127 360 129 381 131 401 C 133 420 134 440 134 462 L 165 462 C 165 440 164 420 162 400 C 160 380 157 360 154 338 L 127 168 C 119 118 125 80 145 55 C 165 29 194 17 230 17 C 257 17 292 34 334 69 C 376 104 407 186 425 316 L 445 462 L 476 462 L 426 105 C 423 86 421 68 420 51 C 418 34 418 18 418 4 L 420 0 C 372 -29 341 -53 326 -71 C 311 -89 304 -109 304 -130 C 304 -150 312 -166 328 -176 C 344 -186 369 -192 402 -192 L 398 -220 C 357 -220 326 -212 306 -197 C 285 -182 275 -160 275 -130 C 275 -106 283 -82 299 -60 C 315 -38 345 -13 387 14 C 387 28 388 44 389 60 C 390 76 392 91 395 105 L 402 142 C 382 84 356 43 324 21 C 291 0 260 -12 230 -12 Z" unicode="ų" />
<glyph horiz-adv-x="904" d="M 420 724 L 538 843 L 559 843 L 644 724 L 609 724 L 546 811 L 460 724 L 420 724 Z M 225 0 L 108 658 L 140 658 L 245 71 L 249 47 L 260 71 L 529 658 L 562 658 L 666 71 L 670 48 L 680 71 L 948 658 L 980 658 L 679 0 L 647 0 L 543 588 L 538 611 L 528 588 L 259 0 L 225 0 Z" unicode="Ŵ" />
<glyph horiz-adv-x="696" d="M 317 524 L 435 643 L 456 643 L 541 524 L 505 524 L 443 611 L 357 524 L 317 524 Z M 189 0 L 83 462 L 114 462 L 206 71 L 211 45 C 245 103 278 167 311 237 C 344 307 376 382 407 462 L 440 462 L 522 71 L 528 45 C 560 105 592 171 623 241 C 654 311 683 384 709 462 L 739 462 C 710 376 678 295 643 217 C 608 139 571 67 531 0 L 505 0 L 423 391 L 418 415 C 386 335 353 261 319 191 C 285 121 250 58 216 0 L 189 0 Z" unicode="ŵ" />
<glyph horiz-adv-x="543" d="M 242 724 L 360 843 L 381 843 L 466 724 L 431 724 L 368 811 L 282 724 L 242 724 Z M 254 0 L 297 306 L 108 658 L 144 658 L 300 368 L 318 334 L 345 368 L 581 658 L 619 658 L 328 303 L 286 0 L 254 0 Z" unicode="Ŷ" />
<glyph horiz-adv-x="460" d="M 203 524 L 321 643 L 342 643 L 427 524 L 391 524 L 329 611 L 243 524 L 203 524 Z M 252 -22 C 205 -89 156 -139 104 -171 C 52 -203 -3 -220 -63 -220 L -71 -220 L -67 -191 L -59 -191 C -7 -191 44 -175 94 -143 C 144 -111 184 -71 216 -23 L 84 462 L 115 462 L 223 71 L 239 5 C 281 71 318 143 352 223 C 386 303 414 382 437 462 L 469 462 C 435 355 399 262 363 182 C 327 102 290 34 252 -22 Z" unicode="ŷ" />
<glyph horiz-adv-x="543" d="M 274 724 L 280 766 L 322 766 L 316 724 L 274 724 Z M 398 724 L 404 766 L 446 766 L 440 724 L 398 724 Z M 254 0 L 297 306 L 108 658 L 144 658 L 300 368 L 318 334 L 345 368 L 581 658 L 619 658 L 328 303 L 286 0 L 254 0 Z" unicode="Ÿ" />
<glyph horiz-adv-x="565" d="M 336 724 L 440 849 L 478 849 L 374 724 L 336 724 Z M 50 0 L 53 18 L 524 597 L 550 629 L 136 629 L 140 658 L 604 658 L 602 643 L 129 61 L 103 29 L 517 29 L 513 0 L 50 0 Z" unicode="Ź" />
<glyph horiz-adv-x="420" d="M 235 524 L 339 649 L 377 649 L 273 524 L 235 524 Z M 44 0 L 46 15 L 367 410 L 386 433 L 110 433 L 114 462 L 437 462 L 435 446 L 116 52 L 97 29 L 380 29 L 376 0 L 44 0 Z" unicode="ź" />
<glyph horiz-adv-x="565" d="M 352 724 L 358 770 L 404 770 L 398 724 L 352 724 Z M 50 0 L 53 18 L 524 597 L 550 629 L 136 629 L 140 658 L 604 658 L 602 643 L 129 61 L 103 29 L 517 29 L 513 0 L 50 0 Z" unicode="Ż" />
<glyph horiz-adv-x="420" d="M 253 540 L 259 586 L 305 586 L 299 540 L 253 540 Z M 44 0 L 46 15 L 367 410 L 386 433 L 110 433 L 114 462 L 437 462 L 435 446 L 116 52 L 97 29 L 380 29 L 376 0 L 44 0 Z" unicode="ż" />
<glyph horiz-adv-x="565" d="M 365 714 L 279 833 L 314 833 L 377 745 L 463 833 L 503 833 L 386 714 L 365 714 Z M 50 0 L 53 18 L 524 597 L 550 629 L 136 629 L 140 658 L 604 658 L 602 643 L 129 61 L 103 29 L 517 29 L 513 0 L 50 0 Z" unicode="Ž" />
<glyph horiz-adv-x="420" d="M 265 524 L 179 643 L 214 643 L 277 555 L 363 643 L 403 643 L 286 524 L 265 524 Z M 44 0 L 46 15 L 367 410 L 386 433 L 110 433 L 114 462 L 437 462 L 435 446 L 116 52 L 97 29 L 380 29 L 376 0 L 44 0 Z" unicode="ž" />
<glyph horiz-adv-x="401" d="M 40 -220 C 23 -220 7 -217 -7 -213 C -22 -209 -37 -202 -51 -194 L -46 -160 C -33 -170 -19 -177 -5 -182 C 9 -187 25 -190 42 -190 C 74 -190 100 -177 120 -153 C 139 -128 151 -95 157 -54 L 224 433 L 96 433 L 100 462 L 228 462 L 243 568 C 251 624 269 667 297 695 C 325 723 359 737 399 737 C 415 737 432 735 448 731 C 464 727 480 720 497 712 L 492 678 C 476 688 461 695 445 700 C 429 704 413 707 397 707 C 363 707 335 694 315 670 C 294 645 281 611 275 568 L 260 462 L 419 462 L 415 433 L 256 433 L 189 -54 C 181 -110 164 -151 137 -179 C 109 -206 77 -220 40 -220 Z" unicode="ƒ" />
<glyph horiz-adv-x="682" d="M 474 722 L 388 841 L 423 841 L 486 753 L 572 841 L 612 841 L 495 722 L 474 722 Z M 414 -12 C 318 -12 242 16 186 73 C 129 129 101 201 101 289 C 101 404 138 496 212 566 C 286 635 376 670 482 670 C 520 670 555 666 588 658 C 620 650 652 639 684 624 L 680 592 C 648 609 617 621 585 629 C 553 637 519 641 482 641 C 382 641 299 608 233 543 C 167 478 134 393 134 289 C 134 207 160 142 214 92 C 267 42 334 17 414 17 C 446 17 477 20 509 26 C 540 32 570 44 599 61 L 629 277 L 487 277 L 491 306 L 665 306 L 628 40 C 592 20 554 6 515 -1 C 476 -8 442 -12 414 -12 Z" unicode="Ǧ" />
<glyph horiz-adv-x="502" d="M 321 524 L 235 643 L 270 643 L 333 555 L 419 643 L 459 643 L 342 524 L 321 524 Z M 212 -228 C 179 -228 149 -224 122 -217 C 94 -210 67 -200 41 -186 L 46 -152 C 71 -168 97 -180 125 -188 C 152 -195 181 -199 212 -199 C 256 -199 296 -183 333 -153 C 369 -123 393 -69 404 9 L 423 142 C 404 84 378 44 344 22 C 310 0 276 -10 244 -10 C 197 -10 158 8 127 44 C 95 80 80 124 80 176 C 80 257 108 327 164 385 C 220 443 287 472 365 472 C 386 472 407 470 429 468 C 450 465 473 460 498 454 L 435 7 C 423 -77 396 -137 355 -173 C 313 -209 266 -228 212 -228 Z M 244 19 C 276 19 313 36 355 72 C 397 108 430 202 453 356 L 464 431 C 448 435 432 438 416 440 C 400 442 383 443 365 443 C 295 443 236 416 186 364 C 136 312 111 249 111 176 C 111 125 125 86 153 59 C 181 32 211 19 244 19 Z" unicode="ǧ" />
<glyph horiz-adv-x="595" d="M 382 809 L 448 889 L 485 889 L 418 809 L 382 809 Z M 20 0 L 364 649 C 352 653 342 661 335 671 C 327 681 324 693 324 708 C 324 730 331 749 346 763 C 360 777 378 784 400 784 C 418 784 434 778 447 767 C 459 755 466 740 466 720 C 466 701 461 685 451 672 C 441 659 428 651 412 647 L 575 0 L 543 0 L 481 249 L 184 249 L 52 0 L 20 0 Z M 391 670 C 404 670 415 674 424 684 C 433 693 438 705 438 719 C 438 729 434 738 427 746 C 420 754 411 758 399 758 C 386 758 375 753 366 744 C 356 735 352 723 352 709 C 352 698 355 689 362 681 C 369 673 379 670 391 670 Z M 199 278 L 474 278 L 394 598 L 386 632 L 369 598 L 199 278 Z" unicode="Ǻ" />
<glyph horiz-adv-x="501" d="M 345 618 L 411 698 L 448 698 L 381 618 L 345 618 Z M 236 -10 C 189 -10 150 7 119 43 C 87 78 72 122 72 176 C 72 248 94 312 140 367 C 186 422 242 456 309 468 C 302 473 297 480 293 489 C 289 497 287 506 287 516 C 287 538 294 556 309 571 C 323 585 341 593 363 593 C 383 593 399 586 411 574 C 423 562 429 547 429 530 C 429 517 426 505 422 495 C 417 485 410 476 402 470 C 416 469 430 467 444 465 C 458 462 474 458 490 454 L 441 105 C 438 86 436 68 435 51 C 433 34 433 17 433 0 L 402 0 C 402 16 402 34 404 52 C 405 70 407 88 410 105 L 416 145 C 397 88 370 48 336 25 C 302 1 268 -10 236 -10 Z M 353 479 C 367 479 378 483 387 493 C 396 502 401 514 401 529 C 401 540 397 549 389 556 C 381 563 372 567 362 567 C 349 567 338 562 329 553 C 319 543 315 531 315 517 C 315 505 318 496 326 489 C 334 482 343 479 353 479 Z M 236 19 C 268 19 305 37 349 73 C 392 109 424 204 445 356 L 455 431 C 439 435 424 438 408 440 C 392 442 375 443 357 443 C 287 443 228 416 178 364 C 128 312 103 249 103 176 C 103 125 117 86 145 59 C 173 32 203 19 236 19 Z" unicode="ǻ" />
<glyph horiz-adv-x="800" d="M 554 724 L 658 849 L 696 849 L 592 724 L 554 724 Z M 12 0 L 476 658 L 816 658 L 812 629 L 522 629 L 483 348 L 766 348 L 762 319 L 479 319 L 438 29 L 748 29 L 744 0 L 402 0 L 436 244 L 219 244 L 46 0 L 12 0 Z M 238 272 L 440 272 L 490 630 L 469 598 L 238 272 Z" unicode="Ǽ" />
<glyph horiz-adv-x="750" d="M 392 524 L 496 649 L 534 649 L 430 524 L 392 524 Z M 199 -10 C 155 -10 121 1 97 25 C 73 49 61 76 61 108 C 61 151 76 185 107 209 C 138 233 180 246 234 249 L 362 256 L 371 323 C 376 364 369 394 349 413 C 329 432 303 442 271 442 C 242 442 215 438 189 430 C 163 422 138 410 113 394 L 118 431 C 142 444 167 454 192 461 C 217 468 243 472 271 472 C 309 472 339 462 363 442 C 386 422 399 396 402 362 C 422 396 448 422 480 442 C 512 462 549 472 590 472 C 632 472 665 462 690 442 C 714 422 727 396 727 364 C 727 318 707 286 667 268 C 627 250 563 238 474 234 L 389 229 C 388 226 388 223 388 221 C 388 218 388 215 388 213 L 388 208 C 388 148 402 101 431 68 C 459 35 500 19 552 19 C 582 19 609 24 634 35 C 659 45 684 62 710 86 L 704 44 C 680 24 656 10 632 2 C 608 -5 581 -10 552 -10 C 502 -10 461 2 431 28 C 400 54 380 90 370 136 C 360 90 340 55 308 29 C 276 3 240 -10 199 -10 Z M 590 443 C 538 443 495 425 459 389 C 423 353 400 309 392 257 L 473 262 C 551 266 607 275 642 289 C 677 302 695 327 695 363 C 695 387 685 407 667 421 C 648 435 622 443 590 443 Z M 199 18 C 239 18 272 31 299 57 C 325 83 342 118 349 163 L 358 228 L 234 221 C 195 219 162 208 134 190 C 106 172 93 144 93 108 C 93 82 102 60 122 43 C 141 26 167 18 199 18 Z" unicode="ǽ" />
<glyph horiz-adv-x="772" d="M 453 732 L 557 857 L 595 857 L 491 732 L 453 732 Z M 163 -48 L 221 39 C 183 65 153 99 132 143 C 111 186 101 234 101 288 C 101 394 133 485 199 560 C 264 635 352 673 464 673 C 494 673 522 669 548 663 C 574 657 598 648 620 636 L 666 706 L 700 706 L 644 622 C 682 595 711 560 732 517 C 753 473 764 425 764 372 C 764 267 731 177 665 101 C 599 25 511 -13 401 -13 C 371 -13 342 -9 316 -3 C 290 2 266 12 245 24 L 197 -48 L 163 -48 Z M 134 288 C 134 241 143 198 161 160 C 179 121 204 89 238 65 L 602 610 C 583 620 562 629 539 635 C 515 641 490 644 464 644 C 366 644 287 610 226 543 C 164 475 134 390 134 288 Z M 401 16 C 498 16 577 50 639 118 C 700 186 731 270 731 372 C 731 418 721 461 703 500 C 685 538 659 570 626 595 L 262 50 C 281 39 302 31 326 25 C 349 19 374 16 401 16 Z" unicode="Ǿ" />
<glyph horiz-adv-x="522" d="M 299 524 L 403 649 L 441 649 L 337 524 L 299 524 Z M 97 -48 L 149 30 C 126 48 108 71 95 99 C 81 127 75 160 75 198 C 75 275 97 340 142 393 C 186 445 242 472 308 472 C 329 472 349 469 368 464 C 387 459 404 452 420 443 L 465 510 L 498 510 L 443 426 C 463 408 480 386 492 358 C 504 330 510 299 510 264 C 510 186 487 121 443 69 C 398 16 343 -10 277 -10 C 257 -10 239 -7 221 -3 C 203 0 186 7 172 15 L 130 -48 L 97 -48 Z M 106 199 C 106 167 111 139 121 115 C 131 90 146 70 165 55 L 404 418 C 391 426 376 432 360 436 C 344 440 326 443 308 443 C 251 443 203 419 164 372 C 125 325 106 267 106 199 Z M 277 19 C 333 19 381 42 420 89 C 459 136 479 194 479 263 C 479 293 474 319 465 343 C 455 366 442 385 426 401 L 188 40 C 200 33 214 28 229 24 C 244 20 260 19 277 19 Z" unicode="ǿ" />
<glyph horiz-adv-x="499" d="M 260 -16 C 224 -16 189 -11 156 -1 C 122 9 92 23 66 41 L 71 81 C 93 60 121 44 155 32 C 188 20 223 14 260 14 C 300 14 339 27 375 54 C 411 81 429 121 429 173 C 429 202 419 229 399 253 C 379 277 345 299 298 319 L 286 324 C 232 346 194 371 172 399 C 150 426 139 458 139 495 C 139 543 155 584 188 620 C 220 656 269 674 333 674 C 365 674 396 669 426 661 C 455 652 481 639 503 622 L 498 581 C 476 603 452 619 424 629 C 396 639 366 644 333 644 C 285 644 246 630 216 602 C 186 574 171 539 171 495 C 171 466 181 440 201 417 C 221 393 253 372 299 354 L 311 349 C 365 326 403 300 426 271 C 449 241 461 209 461 173 C 461 117 442 71 404 36 C 366 1 318 -16 260 -16 Z M 206 -210 L 188 -194 C 203 -175 214 -157 222 -139 C 229 -121 234 -103 237 -85 L 242 -48 L 272 -48 L 267 -85 C 264 -105 258 -125 249 -147 C 240 -168 226 -189 206 -210 Z" unicode="Ș" />
<glyph horiz-adv-x="359" d="M 180 -10 C 160 -10 137 -6 112 0 C 86 7 65 16 48 28 L 53 64 C 68 50 88 39 112 31 C 136 23 159 19 180 19 C 214 19 242 27 265 45 C 288 63 300 87 300 118 C 300 140 292 160 278 176 C 263 192 239 208 206 223 L 192 229 C 158 243 134 260 119 278 C 104 296 97 320 97 349 C 97 383 110 412 136 436 C 162 460 198 472 243 472 C 261 472 282 469 305 463 C 327 457 347 450 363 441 L 358 406 C 344 416 325 425 303 432 C 281 439 261 443 243 443 C 210 443 182 434 160 418 C 138 402 127 379 127 351 C 127 329 133 311 145 297 C 157 282 177 269 205 258 L 219 252 C 258 235 286 216 304 196 C 321 175 330 150 330 120 C 330 82 316 51 289 27 C 262 2 226 -10 180 -10 Z M 119 -218 L 101 -202 C 116 -183 127 -165 135 -147 C 142 -129 147 -111 150 -93 L 155 -56 L 185 -56 L 180 -93 C 177 -113 171 -133 162 -155 C 153 -176 139 -197 119 -218 Z" unicode="ș" />
<glyph horiz-adv-x="536" d="M 252 0 L 340 629 L 108 629 L 112 658 L 608 658 L 604 629 L 372 629 L 284 0 L 252 0 Z M 212 -210 L 194 -194 C 209 -175 220 -157 228 -139 C 235 -121 240 -103 243 -85 L 248 -48 L 278 -48 L 273 -85 C 270 -105 264 -125 255 -147 C 246 -168 232 -189 212 -210 Z" unicode="Ț" />
<glyph horiz-adv-x="281" d="M 182 -9 C 153 -9 132 0 118 16 C 104 32 99 57 104 89 L 152 433 L 77 433 L 81 462 L 157 462 L 180 624 L 211 624 L 188 462 L 318 462 L 314 433 L 183 433 L 135 89 C 131 65 134 47 143 36 C 152 25 166 20 185 20 C 197 20 210 22 222 26 C 234 30 246 37 259 46 L 255 14 C 243 6 231 1 219 -3 C 206 -7 194 -9 182 -9 Z M 119 -218 L 101 -202 C 116 -183 127 -165 135 -147 C 142 -129 147 -111 150 -93 L 155 -56 L 185 -56 L 180 -93 C 177 -113 171 -133 162 -155 C 153 -176 139 -197 119 -218 Z" unicode="ț" />
<glyph horiz-adv-x="176" d="M -58 -212 L -66 -212 L -62 -183 L -54 -183 C -23 -183 2 -172 24 -150 C 46 -128 59 -98 64 -62 L 138 462 L 169 462 L 95 -62 C 88 -108 71 -144 43 -171 C 15 -198 -18 -212 -58 -212 Z" unicode="ȷ" />
<glyph horiz-adv-x="462" d="M 213 -10 C 171 -10 137 0 113 19 C 88 39 76 65 76 98 C 76 144 95 178 135 201 C 175 223 239 238 329 244 L 415 250 L 415 254 C 415 314 400 360 372 393 C 343 426 303 443 251 443 C 221 443 193 437 168 427 C 143 416 118 399 93 376 L 99 418 C 123 437 147 451 171 459 C 195 467 221 472 251 472 C 313 472 361 452 395 413 C 429 374 447 321 447 255 C 447 179 424 116 380 66 C 335 15 279 -10 213 -10 Z M 108 99 C 108 74 117 54 136 40 C 154 26 180 19 213 19 C 266 19 311 39 349 79 C 386 119 408 167 414 222 L 330 216 C 252 210 195 198 160 180 C 125 162 108 135 108 99 Z" unicode="ə" />
<glyph horiz-adv-x="316" d="M 122 524 L 240 643 L 261 643 L 346 524 L 310 524 L 248 611 L 162 524 L 122 524 Z" unicode="ˆ" />
<glyph horiz-adv-x="316" d="M 220 524 L 134 643 L 169 643 L 232 555 L 318 643 L 358 643 L 241 524 L 220 524 Z" unicode="ˇ" />
<glyph horiz-adv-x="359" d="M 257 516 C 223 516 196 527 178 551 C 160 575 152 603 155 637 L 183 637 C 182 607 188 583 200 567 C 212 551 231 543 257 543 C 279 543 298 551 313 567 C 327 583 335 607 337 637 L 365 637 C 362 596 350 566 330 546 C 309 526 285 516 257 516 Z" unicode="˘" />
<glyph horiz-adv-x="134" d="M 120 540 L 126 586 L 172 586 L 166 540 L 120 540 Z" unicode="˙" />
<glyph horiz-adv-x="216" d="M 185 494 C 164 494 147 500 135 513 C 122 526 116 542 116 561 C 116 583 123 602 138 618 C 153 634 172 642 195 642 C 215 642 232 635 245 622 C 257 609 264 593 264 575 C 264 552 256 533 241 517 C 226 501 207 494 185 494 Z M 185 520 C 199 520 211 525 221 535 C 231 545 236 558 236 574 C 236 586 232 596 224 604 C 216 612 206 616 194 616 C 180 616 168 610 158 600 C 148 590 144 577 144 562 C 144 549 148 539 156 531 C 164 523 173 520 185 520 Z" unicode="˚" />
<glyph horiz-adv-x="240" d="M 173 -220 C 135 -220 105 -209 83 -188 C 61 -166 50 -140 50 -110 C 50 -72 63 -40 90 -15 C 116 9 147 22 183 24 L 195 0 C 162 0 134 -10 112 -30 C 90 -50 79 -77 79 -110 C 79 -136 88 -156 107 -170 C 125 -184 149 -192 177 -192 L 173 -220 Z" unicode="˛" />
<glyph horiz-adv-x="325" d="M 126 524 L 98 524 C 104 552 115 573 129 587 C 143 601 161 608 183 608 C 195 608 208 605 220 599 C 232 593 245 583 259 571 C 269 561 278 553 286 549 C 294 545 301 543 309 543 C 321 543 333 547 343 557 C 353 566 360 580 365 599 L 393 599 C 386 571 375 550 361 536 C 347 522 329 515 309 515 C 295 515 283 518 271 524 C 259 530 246 539 233 552 C 223 562 214 569 206 573 C 198 577 190 580 182 580 C 168 580 157 575 147 566 C 137 556 130 542 126 524 Z" unicode="˜" />
<glyph horiz-adv-x="396" d="M 158 524 L 256 641 L 293 641 L 195 524 L 158 524 Z M 271 524 L 369 641 L 406 641 L 308 524 L 271 524 Z" unicode="˝" />
<glyph horiz-adv-x="0" d="M 74 524 L -17 649 L 19 649 L 110 524 L 74 524 Z" unicode="̀" />
<glyph horiz-adv-x="0" d="M 34 524 L 138 649 L 176 649 L 72 524 L 34 524 Z" unicode="́" />
<glyph horiz-adv-x="0" d="M -38 524 L 80 643 L 101 643 L 186 524 L 150 524 L 88 611 L 2 524 L -38 524 Z" unicode="̂" />
<glyph horiz-adv-x="0" d="M -15 724 L -42 724 C -35 752 -25 773 -11 787 C 3 801 21 808 43 808 C 55 808 68 805 80 799 C 92 793 105 783 119 771 C 129 761 138 753 146 749 C 154 745 161 743 169 743 C 181 743 193 747 203 756 C 213 764 221 779 226 799 L 253 799 C 246 771 235 750 221 736 C 207 722 189 715 169 715 C 155 715 143 718 131 724 C 119 730 106 739 93 752 C 83 762 74 769 66 773 C 58 777 50 780 42 780 C 28 780 17 775 7 767 C -2 758 -9 744 -15 724 Z" unicode="̃" />
<glyph horiz-adv-x="0" d="M -21 532 L -17 560 L 177 560 L 173 532 L -21 532 Z" unicode="̄" />
<glyph horiz-adv-x="0" d="M 76 516 C 42 516 15 527 -2 551 C -20 575 -28 603 -26 637 L 2 637 C 1 607 7 583 19 567 C 31 551 50 543 76 543 C 98 543 117 551 132 567 C 146 583 154 607 156 637 L 184 637 C 181 596 169 566 149 546 C 128 526 104 516 76 516 Z" unicode="̆" />
<glyph horiz-adv-x="0" d="M 78 724 L 84 770 L 130 770 L 124 724 L 78 724 Z" unicode="̇" />
<glyph horiz-adv-x="0" d="M -8 540 L -2 582 L 40 582 L 34 540 L -8 540 Z M 116 540 L 122 582 L 164 582 L 158 540 L 116 540 Z" unicode="̈" />
<glyph horiz-adv-x="0" d="M 98 644 C 77 644 60 650 48 663 C 35 676 29 692 29 711 C 29 733 36 752 51 768 C 66 784 85 792 108 792 C 128 792 145 785 158 772 C 170 759 177 743 177 725 C 177 702 169 683 154 667 C 139 651 120 644 98 644 Z M 98 670 C 112 670 124 675 134 685 C 144 695 149 708 149 724 C 149 736 145 746 137 754 C 129 762 119 766 107 766 C 93 766 81 760 71 750 C 61 740 57 727 57 712 C 57 699 61 689 69 681 C 77 673 86 670 98 670 Z" unicode="̊" />
<glyph horiz-adv-x="0" d="M -2 524 L 96 641 L 133 641 L 35 524 L -2 524 Z M 111 524 L 209 641 L 246 641 L 148 524 L 111 524 Z" unicode="̋" />
<glyph horiz-adv-x="0" d="M 64 524 L -22 643 L 13 643 L 76 555 L 162 643 L 202 643 L 85 524 L 64 524 Z" unicode="̌" />
<glyph horiz-adv-x="0" d="M 123 678 L 141 662 C 125 643 114 625 107 607 C 99 589 94 571 92 553 L 87 516 L 57 516 L 62 553 C 64 573 70 593 79 615 C 88 636 103 657 123 678 Z" unicode="̒" />
<glyph horiz-adv-x="0" d="M -56 -202 L -74 -186 C -58 -167 -47 -149 -40 -131 C -32 -113 -27 -95 -25 -77 L -20 -40 L 10 -40 L 5 -77 C 2 -97 -3 -117 -12 -139 C -21 -160 -36 -181 -56 -202 Z" unicode="̦" />
<glyph horiz-adv-x="0" d="M -22 -184 C -31 -184 -40 -182 -50 -179 C -60 -176 -68 -172 -76 -168 L -72 -139 C -66 -145 -58 -149 -49 -153 C -39 -156 -30 -158 -20 -158 C -5 -158 6 -154 15 -146 C 23 -138 28 -128 28 -115 C 28 -103 23 -94 15 -86 C 7 -78 -3 -75 -16 -75 L -22 -75 L -19 -48 L -13 -48 C 8 -48 25 -54 37 -66 C 49 -78 56 -93 56 -113 C 56 -135 49 -152 35 -165 C 21 -177 2 -184 -22 -184 Z" unicode="̧" />
<glyph horiz-adv-x="0" d="M -23 -220 C -61 -220 -91 -209 -113 -188 C -135 -166 -146 -140 -146 -110 C -146 -72 -132 -40 -106 -15 C -79 9 -48 22 -13 24 L -1 0 C -33 0 -61 -10 -83 -30 C -105 -50 -117 -77 -117 -110 C -117 -136 -107 -156 -89 -170 C -70 -184 -47 -192 -19 -192 L -23 -220 Z" unicode="̨" />
<glyph horiz-adv-x="546" d="M 36 0 L 359 682 L 382 682 L 514 0 L 36 0 Z M 82 30 L 476 30 L 363 622 L 82 30 Z" unicode="Δ" />
<glyph horiz-adv-x="492" d="M 69 -218 L 37 -218 L 130 338 C 134 360 137 381 139 401 C 141 420 142 440 142 462 L 172 462 C 172 440 171 420 169 400 C 167 380 164 360 161 338 L 134 168 C 126 118 132 80 152 55 C 172 29 201 17 237 17 C 264 17 299 34 341 69 C 383 104 414 186 432 316 L 452 462 L 483 462 L 433 105 C 430 85 428 66 426 49 C 424 31 424 15 424 0 L 394 0 C 394 15 394 32 396 51 C 397 70 399 88 402 105 L 409 142 C 389 84 363 43 331 21 C 298 0 267 -12 237 -12 C 207 -12 182 -5 160 8 C 138 21 121 40 111 65 L 69 -218 Z" unicode="μ" />
<glyph horiz-adv-x="477" d="M 112 0 L 173 433 L 101 433 L 105 462 L 502 462 L 498 433 L 426 433 L 383 124 C 379 100 377 78 375 57 C 373 35 372 16 372 0 L 342 0 C 342 17 342 36 344 57 C 346 77 348 100 352 124 L 395 433 L 204 433 L 143 0 L 112 0 Z" unicode="π" />
<glyph horiz-adv-x="904" d="M 536 724 L 445 849 L 481 849 L 572 724 L 536 724 Z M 225 0 L 108 658 L 140 658 L 245 71 L 249 47 L 260 71 L 529 658 L 562 658 L 666 71 L 670 48 L 680 71 L 948 658 L 980 658 L 679 0 L 647 0 L 543 588 L 538 611 L 528 588 L 259 0 L 225 0 Z" unicode="Ẁ" />
<glyph horiz-adv-x="696" d="M 429 524 L 338 649 L 374 649 L 465 524 L 429 524 Z M 189 0 L 83 462 L 114 462 L 206 71 L 211 45 C 245 103 278 167 311 237 C 344 307 376 382 407 462 L 440 462 L 522 71 L 528 45 C 560 105 592 171 623 241 C 654 311 683 384 709 462 L 739 462 C 710 376 678 295 643 217 C 608 139 571 67 531 0 L 505 0 L 423 391 L 418 415 C 386 335 353 261 319 191 C 285 121 250 58 216 0 L 189 0 Z" unicode="ẁ" />
<glyph horiz-adv-x="904" d="M 496 724 L 600 849 L 638 849 L 534 724 L 496 724 Z M 225 0 L 108 658 L 140 658 L 245 71 L 249 47 L 260 71 L 529 658 L 562 658 L 666 71 L 670 48 L 680 71 L 948 658 L 980 658 L 679 0 L 647 0 L 543 588 L 538 611 L 528 588 L 259 0 L 225 0 Z" unicode="Ẃ" />
<glyph horiz-adv-x="696" d="M 389 524 L 493 649 L 531 649 L 427 524 L 389 524 Z M 189 0 L 83 462 L 114 462 L 206 71 L 211 45 C 245 103 278 167 311 237 C 344 307 376 382 407 462 L 440 462 L 522 71 L 528 45 C 560 105 592 171 623 241 C 654 311 683 384 709 462 L 739 462 C 710 376 678 295 643 217 C 608 139 571 67 531 0 L 505 0 L 423 391 L 418 415 C 386 335 353 261 319 191 C 285 121 250 58 216 0 L 189 0 Z" unicode="ẃ" />
<glyph horiz-adv-x="904" d="M 452 724 L 458 766 L 500 766 L 494 724 L 452 724 Z M 576 724 L 582 766 L 624 766 L 618 724 L 576 724 Z M 225 0 L 108 658 L 140 658 L 245 71 L 249 47 L 260 71 L 529 658 L 562 658 L 666 71 L 670 48 L 680 71 L 948 658 L 980 658 L 679 0 L 647 0 L 543 588 L 538 611 L 528 588 L 259 0 L 225 0 Z" unicode="Ẅ" />
<glyph horiz-adv-x="696" d="M 347 540 L 353 582 L 395 582 L 389 540 L 347 540 Z M 471 540 L 477 582 L 519 582 L 513 540 L 471 540 Z M 189 0 L 83 462 L 114 462 L 206 71 L 211 45 C 245 103 278 167 311 237 C 344 307 376 382 407 462 L 440 462 L 522 71 L 528 45 C 560 105 592 171 623 241 C 654 311 683 384 709 462 L 739 462 C 710 376 678 295 643 217 C 608 139 571 67 531 0 L 505 0 L 423 391 L 418 415 C 386 335 353 261 319 191 C 285 121 250 58 216 0 L 189 0 Z" unicode="ẅ" />
<glyph horiz-adv-x="543" d="M 358 724 L 267 849 L 303 849 L 394 724 L 358 724 Z M 254 0 L 297 306 L 108 658 L 144 658 L 300 368 L 318 334 L 345 368 L 581 658 L 619 658 L 328 303 L 286 0 L 254 0 Z" unicode="Ỳ" />
<glyph horiz-adv-x="460" d="M 315 524 L 224 649 L 260 649 L 351 524 L 315 524 Z M 252 -22 C 205 -89 156 -139 104 -171 C 52 -203 -3 -220 -63 -220 L -71 -220 L -67 -191 L -59 -191 C -7 -191 44 -175 94 -143 C 144 -111 184 -71 216 -23 L 84 462 L 115 462 L 223 71 L 239 5 C 281 71 318 143 352 223 C 386 303 414 382 437 462 L 469 462 C 435 355 399 262 363 182 C 327 102 290 34 252 -22 Z" unicode="ỳ" />
<glyph horiz-adv-x="500" d="" unicode=" " />
<glyph horiz-adv-x="1000" d="" unicode=" " />
<glyph horiz-adv-x="650" d="" unicode=" " />
<glyph horiz-adv-x="0" d="" unicode=" " />
<glyph horiz-adv-x="650" d="M 145 267 L 149 296 L 585 296 L 581 267 L 145 267 Z" unicode="‒" />
<glyph horiz-adv-x="496" d="M 62 211 L 66 240 L 502 240 L 498 211 L 62 211 Z" unicode="–" />
<glyph horiz-adv-x="996" d="M 62 211 L 66 240 L 1002 240 L 998 211 L 62 211 Z" unicode="—" />
<glyph horiz-adv-x="360" d="M 74 211 L 78 240 L 358 240 L 354 211 L 74 211 Z" unicode="―" />
<glyph horiz-adv-x="159" d="M 142 556 L 150 611 C 152 631 158 651 166 671 C 174 691 188 712 208 733 L 232 717 C 216 698 205 680 198 664 C 190 647 185 629 183 611 L 175 556 L 142 556 Z" unicode="‘" />
<glyph horiz-adv-x="156" d="M 143 544 L 123 560 C 138 578 149 596 157 614 C 164 631 169 649 172 668 L 180 724 L 210 724 L 202 668 C 199 648 193 627 185 606 C 177 585 163 564 143 544 Z" unicode="’" />
<glyph horiz-adv-x="156" d="M 50 -119 L 30 -103 C 45 -84 56 -66 64 -49 C 71 -31 76 -13 79 5 L 87 61 L 117 61 L 109 5 C 106 -15 100 -35 92 -56 C 84 -77 70 -98 50 -119 Z" unicode="‚" />
<glyph horiz-adv-x="252" d="M 143 560 L 150 611 C 152 631 158 651 166 671 C 174 691 188 712 208 733 L 232 717 C 216 698 205 680 198 664 C 190 647 185 629 183 611 L 176 560 L 143 560 Z M 236 560 L 243 611 C 245 631 251 651 259 671 C 267 691 281 712 301 733 L 325 717 C 309 698 298 680 291 664 C 283 647 278 629 276 611 L 269 560 L 236 560 Z" unicode="“" />
<glyph horiz-adv-x="244" d="M 143 544 L 123 560 C 138 578 149 596 157 614 C 164 631 169 649 172 668 L 180 724 L 210 724 L 202 668 C 199 648 193 627 185 606 C 177 585 163 564 143 544 Z M 231 544 L 211 560 C 226 578 237 596 245 614 C 252 631 257 649 260 668 L 268 724 L 298 724 L 290 668 C 287 648 281 627 273 606 C 265 585 251 564 231 544 Z" unicode="”" />
<glyph horiz-adv-x="244" d="M 50 -119 L 30 -103 C 45 -84 56 -66 64 -49 C 71 -31 76 -13 79 5 L 87 61 L 117 61 L 109 5 C 106 -15 100 -35 92 -56 C 84 -77 70 -98 50 -119 Z M 138 -119 L 118 -103 C 133 -84 144 -66 152 -49 C 159 -31 164 -13 167 5 L 175 61 L 205 61 L 197 5 C 194 -15 188 -35 180 -56 C 172 -77 158 -98 138 -119 Z" unicode="„" />
<glyph horiz-adv-x="468" d="M 219 0 L 286 479 L 131 479 L 135 508 L 290 508 L 320 724 L 350 724 L 320 508 L 475 508 L 471 479 L 316 479 L 249 0 L 219 0 Z" unicode="†" />
<glyph horiz-adv-x="469" d="M 220 0 L 251 224 L 96 224 L 100 253 L 255 253 L 287 479 L 132 479 L 136 508 L 291 508 L 321 724 L 351 724 L 321 508 L 476 508 L 472 479 L 317 479 L 285 253 L 440 253 L 436 224 L 281 224 L 250 0 L 220 0 Z" unicode="‡" />
<glyph horiz-adv-x="236" d="M 91 194 L 106 302 L 214 302 L 199 194 L 91 194 Z" unicode="•" />
<glyph horiz-adv-x="476" d="M 56 0 L 62 40 L 102 40 L 96 0 L 56 0 Z M 218 0 L 224 40 L 264 40 L 258 0 L 218 0 Z M 380 0 L 386 40 L 426 40 L 420 0 L 380 0 Z" unicode="…" />
<glyph horiz-adv-x="1231" d="M 252 352 C 208 352 174 367 150 397 C 126 427 115 466 115 512 C 115 574 130 625 160 666 C 190 707 233 728 289 728 C 333 728 367 713 391 683 C 415 653 427 615 427 571 C 427 509 411 457 381 415 C 351 373 308 352 252 352 Z M 269 0 L 641 724 L 672 724 L 300 0 L 269 0 Z M 253 381 C 296 381 331 398 357 432 C 383 466 396 511 396 569 C 396 609 386 640 366 664 C 346 687 320 699 288 699 C 245 699 211 682 185 649 C 159 615 146 570 146 514 C 146 473 155 441 175 417 C 194 393 220 381 253 381 Z M 659 -8 C 615 -8 581 7 557 37 C 533 67 522 106 522 152 C 522 214 537 265 567 306 C 597 347 640 368 696 368 C 740 368 774 353 798 323 C 822 293 834 255 834 211 C 834 149 818 97 788 55 C 758 13 715 -8 659 -8 Z M 1042 -8 C 998 -8 964 7 940 37 C 916 67 905 106 905 152 C 905 214 920 265 950 306 C 980 347 1023 368 1079 368 C 1123 368 1157 353 1181 323 C 1205 293 1217 255 1217 211 C 1217 149 1201 97 1171 55 C 1141 13 1098 -8 1042 -8 Z M 660 21 C 703 21 738 38 764 72 C 790 106 803 151 803 209 C 803 249 793 280 773 304 C 753 327 727 339 695 339 C 652 339 618 322 592 289 C 566 255 553 210 553 154 C 553 113 562 81 582 57 C 601 33 627 21 660 21 Z M 1043 21 C 1086 21 1121 38 1147 72 C 1173 106 1186 151 1186 209 C 1186 249 1176 280 1156 304 C 1136 327 1110 339 1078 339 C 1035 339 1001 322 975 289 C 949 255 936 210 936 154 C 936 113 945 81 965 57 C 984 33 1010 21 1043 21 Z" unicode="‰" />
<glyph horiz-adv-x="159" d="M 142 552 L 165 716 L 196 716 L 173 552 L 142 552 Z" unicode="′" />
<glyph horiz-adv-x="248" d="M 142 552 L 165 716 L 197 716 L 174 552 L 142 552 Z M 230 552 L 253 716 L 285 716 L 262 552 L 230 552 Z" unicode="″" />
<glyph horiz-adv-x="275" d="M 205 71 L 72 226 L 249 382 L 289 382 L 113 226 L 245 71 L 205 71 Z" unicode="‹" />
<glyph horiz-adv-x="275" d="M 42 71 L 218 226 L 86 382 L 126 382 L 259 226 L 82 71 L 42 71 Z" unicode="›" />
<glyph horiz-adv-x="133" d="M -84 0 L 288 724 L 319 724 L -53 0 L -84 0 Z" unicode="⁄" />
<glyph horiz-adv-x="391" d="M 264 432 C 220 432 186 447 162 477 C 138 507 127 546 127 592 C 127 654 142 705 172 746 C 202 787 245 808 301 808 C 345 808 379 793 403 763 C 427 733 439 695 439 651 C 439 589 423 537 393 495 C 363 453 320 432 264 432 Z M 265 461 C 308 461 343 478 369 512 C 395 546 408 591 408 649 C 408 689 398 720 378 744 C 358 767 332 779 300 779 C 257 779 223 762 197 729 C 171 695 158 650 158 594 C 158 553 167 521 187 497 C 206 473 232 461 265 461 Z" unicode="⁰" />
<glyph horiz-adv-x="305" d="M 252 440 L 266 539 L 100 539 L 103 561 L 297 800 L 335 800 L 302 567 L 361 567 L 357 539 L 297 539 L 283 440 L 252 440 Z M 271 567 L 298 759 L 141 567 L 271 567 Z" unicode="⁴" />
<glyph horiz-adv-x="289" d="M 203 432 C 182 432 163 435 146 442 C 128 449 114 459 102 472 L 107 508 C 118 493 132 481 149 473 C 166 465 184 461 203 461 C 231 461 254 469 272 486 C 289 503 298 524 298 550 C 298 573 291 592 277 607 C 263 621 243 629 219 629 C 206 629 193 627 180 625 C 167 623 151 618 131 612 L 170 800 L 344 800 L 340 769 L 194 769 L 170 652 C 178 654 187 656 195 657 C 203 658 211 659 220 659 C 254 659 280 649 300 629 C 319 609 329 583 329 552 C 329 518 318 489 296 466 C 274 443 243 432 203 432 Z" unicode="⁵" />
<glyph horiz-adv-x="327" d="M 238 432 C 202 432 173 444 152 469 C 130 494 120 528 120 571 C 120 639 136 696 168 741 C 200 785 242 808 296 808 C 308 808 322 806 337 803 C 352 800 365 797 375 793 L 371 762 C 361 766 349 770 335 774 C 321 778 308 780 296 780 C 255 780 222 764 196 733 C 170 702 155 660 151 606 C 159 627 174 644 194 658 C 214 672 235 679 259 679 C 293 679 319 668 339 648 C 359 628 369 601 369 567 C 369 527 355 495 328 470 C 301 444 271 432 238 432 Z M 238 460 C 266 460 290 469 310 489 C 329 509 339 534 339 565 C 339 591 331 612 317 628 C 302 643 282 651 258 651 C 231 651 208 641 189 623 C 169 605 157 580 152 550 C 152 527 158 506 172 488 C 185 469 207 460 238 460 Z" unicode="⁶" />
<glyph horiz-adv-x="299" d="M 151 440 L 336 769 L 144 769 L 148 800 L 375 800 L 371 772 L 184 440 L 151 440 Z" unicode="⁷" />
<glyph horiz-adv-x="302" d="M 223 432 C 189 432 163 440 143 457 C 123 473 114 494 114 520 C 114 542 121 563 136 581 C 151 599 173 615 201 628 C 181 638 167 650 157 664 C 147 678 143 694 143 713 C 143 739 153 762 174 780 C 195 798 221 808 252 808 C 282 808 306 800 323 786 C 340 771 349 751 349 726 C 349 707 342 689 330 672 C 318 655 298 641 272 629 C 292 617 308 604 319 588 C 330 572 336 553 336 533 C 336 502 325 477 304 459 C 283 441 256 432 223 432 Z M 233 646 L 239 643 C 265 652 285 664 299 678 C 312 692 319 707 319 724 C 319 740 312 754 300 764 C 288 774 272 779 252 779 C 229 779 210 772 196 760 C 181 748 174 732 174 714 C 174 699 179 686 189 675 C 199 663 213 654 233 646 Z M 144 522 C 144 504 151 489 165 478 C 179 466 199 461 223 461 C 249 461 270 467 284 481 C 298 494 306 511 306 532 C 306 549 300 564 288 577 C 276 590 259 602 236 612 L 233 613 C 206 604 184 592 168 576 C 152 560 144 542 144 522 Z" unicode="⁸" />
<glyph horiz-adv-x="327" d="M 205 432 C 192 432 178 433 163 436 C 148 439 136 443 126 447 L 130 478 C 140 473 151 469 165 465 C 179 461 192 460 205 460 C 245 460 278 475 304 506 C 330 537 345 580 350 634 C 341 612 327 595 307 581 C 287 567 265 561 242 561 C 208 561 181 571 161 591 C 141 611 132 639 132 673 C 132 712 145 744 172 770 C 199 795 229 808 263 808 C 299 808 327 795 349 770 C 370 745 381 711 381 669 C 381 600 365 543 333 499 C 301 454 258 432 205 432 Z M 243 589 C 269 589 292 598 312 616 C 331 634 343 659 349 690 C 349 712 342 733 329 752 C 315 770 293 780 263 780 C 235 780 211 770 191 750 C 171 730 162 705 162 675 C 162 648 169 627 184 612 C 198 596 218 589 243 589 Z" unicode="⁹" />
<glyph horiz-adv-x="369" d="M 110 440 L 149 716 C 151 730 152 744 154 759 C 155 774 156 788 156 800 L 185 800 C 185 786 184 771 183 757 C 182 743 181 731 179 721 L 174 693 C 189 737 209 767 235 784 C 261 800 285 809 308 809 C 348 809 377 796 396 771 C 414 746 420 712 414 670 L 392 537 C 389 518 387 501 385 486 C 383 471 383 456 383 440 L 354 440 C 354 458 354 475 356 490 C 357 505 359 521 362 537 L 383 667 C 389 701 385 729 371 749 C 357 769 334 780 304 780 C 266 780 234 759 208 719 C 182 678 164 618 154 538 L 140 440 L 110 440 Z" unicode="ⁿ" />
<glyph horiz-adv-x="390" d="M 178 -176 C 134 -176 100 -160 76 -130 C 52 -100 41 -62 41 -16 C 41 46 56 97 86 138 C 116 179 159 200 215 200 C 259 200 293 185 317 155 C 341 125 353 87 353 43 C 353 -19 337 -71 307 -113 C 277 -155 234 -176 178 -176 Z M 179 -147 C 222 -147 257 -130 283 -96 C 309 -62 322 -16 322 41 C 322 81 312 112 292 136 C 272 159 246 171 214 171 C 171 171 137 154 111 121 C 85 87 72 42 72 -14 C 72 -54 81 -87 101 -111 C 120 -135 146 -147 179 -147 Z" unicode="₀" />
<glyph horiz-adv-x="273" d="M 23 -170 L 26 -141 L 110 -141 L 153 166 L 57 147 L 62 180 L 190 207 L 141 -141 L 225 -141 L 221 -170 L 23 -170 Z" unicode="₁" />
<glyph horiz-adv-x="309" d="M 12 -170 L 19 -122 C 108 -73 169 -33 202 -1 C 235 31 252 62 252 92 C 252 116 245 134 231 148 C 217 162 196 169 169 169 C 151 169 132 166 113 160 C 94 154 76 145 60 134 L 65 168 C 79 177 96 184 114 190 C 132 195 151 198 171 198 C 205 198 232 189 252 171 C 272 153 283 128 283 94 C 283 58 264 21 228 -14 C 191 -50 130 -92 45 -139 L 253 -139 L 249 -170 L 12 -170 Z" unicode="₂" />
<glyph horiz-adv-x="293" d="M 124 -178 C 102 -178 83 -174 65 -167 C 47 -160 31 -150 17 -138 L 22 -102 C 34 -117 50 -129 68 -137 C 86 -145 104 -149 124 -149 C 152 -149 174 -141 189 -126 C 204 -111 212 -93 212 -71 C 212 -49 204 -32 188 -18 C 172 -4 149 3 121 3 L 107 3 L 111 32 L 123 32 C 157 32 184 39 202 55 C 220 71 229 89 229 111 C 229 129 223 143 212 153 C 201 163 187 169 169 169 C 150 169 132 166 116 160 C 99 154 83 144 69 132 L 74 166 C 88 176 104 184 120 190 C 136 195 152 198 169 198 C 201 198 224 190 240 174 C 256 158 264 138 264 113 C 264 92 256 73 241 55 C 225 37 204 24 178 18 C 199 12 216 2 228 -14 C 240 -30 246 -48 246 -69 C 246 -99 235 -125 214 -146 C 193 -167 163 -178 124 -178 Z" unicode="₃" />
<glyph horiz-adv-x="305" d="M 166 -170 L 180 -71 L 14 -71 L 17 -49 L 211 190 L 249 190 L 216 -43 L 275 -43 L 271 -71 L 211 -71 L 197 -170 L 166 -170 Z M 185 -43 L 212 149 L 55 -43 L 185 -43 Z" unicode="₄" />
<glyph horiz-adv-x="290" d="M 118 -178 C 97 -178 78 -174 61 -167 C 43 -160 29 -150 17 -138 L 22 -102 C 33 -116 47 -128 64 -136 C 81 -144 99 -149 118 -149 C 146 -149 169 -140 187 -123 C 204 -106 213 -85 213 -60 C 213 -36 206 -17 192 -3 C 178 11 158 19 134 19 C 121 19 108 17 95 15 C 82 13 66 8 46 2 L 85 190 L 259 190 L 255 159 L 109 159 L 85 42 C 93 44 102 46 110 47 C 118 48 126 49 135 49 C 169 49 195 39 215 19 C 234 -1 244 -26 244 -58 C 244 -92 233 -120 211 -143 C 189 -166 158 -178 118 -178 Z" unicode="₅" />
<glyph horiz-adv-x="326" d="M 152 -178 C 116 -178 87 -165 66 -140 C 44 -115 34 -81 34 -39 C 34 29 50 86 82 131 C 114 175 156 198 210 198 C 222 198 236 196 251 193 C 266 190 279 187 289 183 L 285 152 C 275 156 263 160 249 164 C 235 168 222 170 210 170 C 169 170 136 154 110 123 C 84 92 69 50 65 -4 C 73 17 88 34 108 48 C 128 62 149 69 173 69 C 207 69 233 58 253 38 C 273 18 283 -9 283 -43 C 283 -82 269 -114 242 -140 C 215 -165 185 -178 152 -178 Z M 152 -150 C 180 -150 204 -140 224 -120 C 243 -100 253 -75 253 -45 C 253 -18 245 2 231 18 C 216 33 196 41 172 41 C 145 41 122 31 103 13 C 83 -4 71 -29 66 -60 C 66 -82 72 -103 86 -122 C 99 -140 121 -150 152 -150 Z" unicode="₆" />
<glyph horiz-adv-x="295" d="M 66 -170 L 251 159 L 59 159 L 63 190 L 290 190 L 286 162 L 99 -170 L 66 -170 Z" unicode="₇" />
<glyph horiz-adv-x="302" d="M 137 -178 C 103 -178 77 -169 57 -153 C 37 -136 28 -115 28 -90 C 28 -67 35 -46 50 -28 C 65 -10 87 5 115 18 C 95 28 81 40 71 54 C 61 68 57 84 57 103 C 57 129 67 152 88 170 C 109 188 135 198 166 198 C 196 198 220 190 237 176 C 254 161 263 141 263 116 C 263 97 256 79 244 62 C 232 45 212 31 186 19 C 206 7 222 -6 233 -22 C 244 -38 250 -56 250 -77 C 250 -107 239 -132 218 -150 C 197 -168 170 -178 137 -178 Z M 147 36 L 153 33 C 179 42 199 54 213 68 C 226 82 233 97 233 114 C 233 130 226 144 214 154 C 202 164 186 169 166 169 C 143 169 124 162 110 150 C 95 138 88 122 88 104 C 88 89 93 76 103 65 C 113 53 127 44 147 36 Z M 58 -88 C 58 -106 65 -120 79 -132 C 93 -143 113 -149 137 -149 C 163 -149 184 -142 198 -129 C 212 -115 220 -98 220 -78 C 220 -60 214 -45 202 -32 C 190 -19 173 -8 150 2 L 147 3 C 120 -5 98 -18 82 -34 C 66 -50 58 -68 58 -88 Z" unicode="₈" />
<glyph horiz-adv-x="327" d="M 119 -178 C 106 -178 92 -176 77 -173 C 62 -170 50 -167 40 -163 L 44 -132 C 54 -136 65 -140 79 -144 C 93 -148 106 -150 119 -150 C 159 -150 192 -134 218 -103 C 244 -72 259 -30 264 24 C 255 2 241 -14 221 -28 C 201 -42 179 -49 156 -49 C 122 -49 95 -38 75 -18 C 55 1 46 29 46 63 C 46 102 59 134 86 160 C 113 185 143 198 177 198 C 213 198 241 185 263 160 C 284 135 295 101 295 59 C 295 -9 279 -66 247 -111 C 215 -155 172 -178 119 -178 Z M 157 -21 C 183 -21 206 -11 226 6 C 245 24 257 49 263 80 C 263 102 256 123 243 142 C 229 160 207 170 177 170 C 149 170 125 160 105 140 C 85 120 76 95 76 65 C 76 38 83 17 98 2 C 112 -13 132 -21 157 -21 Z" unicode="₉" />
<glyph horiz-adv-x="741" d="M 62 272 L 66 301 L 149 301 C 149 311 150 322 151 333 C 152 343 154 354 156 364 L 75 364 L 79 393 L 162 393 C 184 474 229 540 297 592 C 365 644 445 670 536 670 C 574 670 611 665 649 656 C 686 647 723 633 760 614 L 755 580 C 722 600 687 615 651 625 C 614 635 576 641 536 641 C 454 641 383 618 321 572 C 259 526 217 466 196 393 L 363 393 L 359 364 L 189 364 C 187 354 185 343 184 333 C 183 322 182 311 182 301 L 350 301 L 346 272 L 182 272 C 186 196 214 134 268 88 C 321 41 389 18 472 18 C 510 18 548 23 584 33 C 620 43 656 58 692 78 L 687 42 C 651 23 615 9 580 1 C 544 -7 508 -12 472 -12 C 376 -12 300 15 242 69 C 184 123 153 190 149 272 L 62 272 Z" unicode="€" />
<glyph horiz-adv-x="502" d="M 80 0 L 172 658 L 264 658 L 282 786 L 312 786 L 294 658 L 322 658 C 326 658 331 658 336 658 C 341 658 346 657 351 657 L 369 786 L 399 786 L 380 652 C 420 643 449 625 469 599 C 488 573 498 542 498 507 C 498 468 486 432 463 398 C 440 364 400 343 344 336 C 397 329 433 311 453 282 C 473 253 483 222 483 190 C 483 140 466 97 434 62 C 401 26 353 6 289 1 L 272 -124 L 242 -124 L 259 0 L 257 0 L 202 0 L 185 -124 L 155 -124 L 172 0 L 80 0 Z M 161 350 L 273 350 C 332 350 379 363 413 390 C 447 416 465 455 465 505 C 465 544 452 574 426 596 C 400 618 364 629 318 629 L 200 629 L 161 350 Z M 116 29 L 257 29 C 317 29 364 43 398 72 C 432 100 450 139 450 187 C 450 229 435 261 407 285 C 379 309 337 321 281 321 L 156 321 L 116 29 Z" unicode="₿" />
<glyph horiz-adv-x="620" d="M 354 132 C 283 132 224 156 176 204 C 128 252 105 311 105 383 C 105 460 130 528 180 587 C 230 646 297 676 379 676 C 449 676 508 652 556 604 C 604 556 628 496 628 425 C 628 347 602 279 552 220 C 502 161 436 132 354 132 Z M 354 158 C 418 158 475 182 525 232 C 575 281 600 345 600 425 C 600 489 578 543 536 586 C 493 628 441 650 379 650 C 314 650 257 625 207 576 C 157 526 133 462 133 383 C 133 319 154 265 197 222 C 239 179 292 158 354 158 Z M 270 231 L 319 581 L 391 581 C 425 581 452 573 473 558 C 493 542 504 521 504 495 C 504 455 491 423 465 401 C 439 379 405 368 361 368 L 319 368 L 300 231 L 270 231 Z M 323 396 L 365 396 C 401 396 428 404 446 422 C 464 439 473 461 473 488 C 473 506 465 522 451 534 C 437 546 415 553 387 553 L 345 553 L 323 396 Z" unicode="℗" />
<glyph horiz-adv-x="522" d="M 165 462 L 198 695 L 114 695 L 118 724 L 317 724 L 313 695 L 229 695 L 196 462 L 165 462 Z M 308 462 L 345 724 L 394 724 L 448 554 L 548 724 L 600 724 L 563 462 L 532 462 L 564 693 L 456 514 L 430 514 L 370 697 L 337 462 L 308 462 Z" unicode="™" />
<glyph horiz-adv-x="494" d="M 256 -12 C 202 -12 158 4 122 40 C 86 75 69 123 69 183 C 69 250 90 306 132 351 C 174 395 227 418 291 418 C 337 418 376 406 408 382 C 440 358 459 327 466 289 C 473 397 452 482 403 543 C 354 604 275 635 167 635 L 171 663 C 307 663 395 626 435 554 C 475 482 496 412 496 345 C 496 236 473 149 429 85 C 385 21 327 -11 256 -12 Z M 257 16 C 305 16 348 36 385 76 C 422 116 445 171 455 239 C 454 281 438 317 407 346 C 375 375 337 390 291 390 C 237 390 191 370 155 331 C 119 292 101 243 101 184 C 101 136 115 96 143 64 C 171 32 209 16 257 16 Z" unicode="∂" />
<glyph horiz-adv-x="450" d="M 64 0 L 156 658 L 478 658 L 386 0 L 354 0 L 444 630 L 184 630 L 96 0 L 64 0 Z" unicode="∏" />
<glyph horiz-adv-x="462" d="M 40 0 L 44 25 L 347 336 L 130 637 L 133 658 L 513 658 L 509 630 L 174 630 L 385 336 L 91 32 L 426 32 L 422 0 L 40 0 Z" unicode="∑" />
<glyph horiz-adv-x="528" d="M 86 273 L 90 301 L 518 301 L 514 273 L 86 273 Z" unicode="−" />
<glyph horiz-adv-x="539" d="M 206 -10 L 82 473 L 114 473 L 226 38 L 596 730 L 626 730 L 231 -10 L 206 -10 Z" unicode="√" />
<glyph horiz-adv-x="791" d="M 212 57 C 171 57 139 70 115 97 C 91 124 79 161 79 207 C 79 258 95 301 128 336 C 160 370 201 388 249 388 C 289 388 323 377 351 355 C 379 333 406 299 430 253 C 467 297 502 331 534 353 C 566 375 599 386 633 386 C 675 386 708 373 733 347 C 758 321 771 285 771 241 C 771 189 755 145 724 110 C 693 74 654 57 606 57 C 565 57 530 68 502 90 C 474 112 447 149 422 200 C 383 151 347 115 313 92 C 279 68 246 57 212 57 Z M 109 207 C 109 169 118 140 137 118 C 155 96 181 85 214 85 C 242 85 272 95 302 116 C 332 137 368 174 408 227 L 405 234 C 381 281 357 314 331 332 C 305 350 277 360 247 360 C 208 360 175 345 149 316 C 122 286 109 250 109 207 Z M 447 219 C 473 167 497 132 521 113 C 545 94 574 85 608 85 C 646 85 677 99 703 129 C 728 159 741 196 741 240 C 741 276 731 304 711 326 C 691 347 665 358 631 358 C 602 358 573 348 545 328 C 516 308 482 274 443 226 L 447 219 Z" unicode="∞" />
<glyph horiz-adv-x="500" d="M 41 -228 C 24 -228 8 -225 -6 -221 C -20 -217 -34 -210 -48 -202 L -43 -168 C -30 -178 -17 -185 -3 -190 C 11 -195 26 -198 43 -198 C 75 -198 101 -185 121 -161 C 140 -136 152 -103 158 -62 L 245 568 C 253 624 271 667 300 695 C 329 723 365 737 407 737 C 423 737 438 735 454 731 C 470 727 485 720 500 712 L 495 678 C 480 688 465 695 450 700 C 435 704 420 707 405 707 C 369 707 340 694 318 670 C 296 645 283 611 277 568 L 190 -62 C 182 -118 165 -159 138 -187 C 110 -214 78 -228 41 -228 Z" unicode="∫" />
<glyph horiz-adv-x="358" d="M 107 288 L 96 310 C 106 324 118 334 133 342 C 147 349 161 353 174 353 C 184 353 194 350 203 346 C 212 342 221 337 231 332 C 240 326 249 321 257 317 C 265 313 274 311 285 311 C 295 311 306 314 316 321 C 326 328 336 337 345 347 L 356 325 C 346 311 334 300 320 293 C 306 285 292 282 280 282 C 270 282 260 284 250 289 C 240 294 231 299 223 304 C 214 308 206 313 198 317 C 190 321 181 324 169 324 C 158 324 147 320 137 314 C 127 308 117 299 107 288 Z M 86 143 L 75 165 C 85 179 97 189 112 197 C 126 204 140 208 153 208 C 163 208 173 205 183 201 C 192 197 201 192 211 187 C 220 181 229 176 237 172 C 245 168 254 166 265 166 C 275 166 286 169 296 176 C 306 183 316 192 325 202 L 336 180 C 326 166 314 155 300 148 C 286 140 272 137 260 137 C 250 137 240 139 230 144 C 220 149 210 154 202 159 C 193 163 185 168 177 172 C 169 176 160 179 148 179 C 137 179 127 175 117 169 C 107 163 96 154 86 143 Z" unicode="≈" />
<glyph horiz-adv-x="528" d="M 108 80 L 211 205 L 81 205 L 85 233 L 234 233 L 316 333 L 99 333 L 103 361 L 339 361 L 444 488 L 481 488 L 376 361 L 531 361 L 527 333 L 353 333 L 271 233 L 513 233 L 509 205 L 248 205 L 145 80 L 108 80 Z" unicode="≠" />
<glyph horiz-adv-x="411" d="M 315 79 L 99 277 L 371 475 L 418 475 L 143 276 L 357 79 L 315 79 Z M 64 -28 L 68 0 L 338 0 L 334 -28 L 64 -28 Z" unicode="≤" />
<glyph horiz-adv-x="411" d="M 71 79 L 346 278 L 132 475 L 174 475 L 390 277 L 118 79 L 71 79 Z M 65 -28 L 69 0 L 343 0 L 339 -28 L 65 -28 Z" unicode="≥" />
<glyph horiz-adv-x="608" d="M 302 -11 L 92 338 L 401 687 L 612 338 L 302 -11 Z M 306 38 L 575 340 L 396 638 L 128 335 L 306 38 Z" unicode="◊" />
<glyph horiz-adv-x="539" d="M 206 -10 L 82 473 L 114 473 L 226 38 L 596 730 L 626 730 L 231 -10 L 206 -10 Z" unicode="✓" />
<glyph horiz-adv-x="701" d="M 62 0 L 66 32 L 293 32 L 299 75 C 243 89 194 120 153 168 C 112 216 92 275 92 347 C 92 442 125 520 193 580 C 260 640 336 671 422 671 C 506 671 576 644 630 592 C 684 540 711 469 711 380 C 711 301 683 233 628 176 C 573 119 505 84 423 72 L 418 32 L 644 32 L 640 0 L 386 0 L 399 96 C 486 106 554 139 604 194 C 653 249 678 311 678 380 C 678 453 655 515 611 566 C 566 616 503 642 422 642 C 334 642 263 611 208 551 C 152 490 125 422 125 347 C 125 284 143 229 181 183 C 219 137 268 108 330 98 L 317 0 L 62 0 Z" unicode="Ꞷ" />
<glyph horiz-adv-x="148" d="M 16 -202 L -2 -186 C 13 -167 24 -149 32 -131 C 39 -113 44 -95 47 -77 L 52 -40 L 82 -40 L 77 -77 C 74 -97 68 -117 59 -139 C 50 -160 36 -181 16 -202 Z" unicode="" />
<glyph horiz-adv-x="663" d="M 0 0 L 92 658 L 755 658 L 663 0 L 0 0 Z M 219 77 L 251 77 L 318 553 L 422 553 L 354 77 L 386 77 L 419 309 L 462 309 C 517 309 561 323 593 352 C 625 381 642 418 642 462 C 642 496 628 524 602 547 C 576 570 540 582 495 582 L 183 582 L 179 553 L 286 553 L 219 77 Z" unicode="" />
<glyph horiz-adv-x="425" d="M 95 0 L 156 434 L 77 434 L 81 462 L 160 462 L 177 583 C 183 627 201 663 229 691 C 257 719 292 734 334 734 C 348 734 365 732 383 728 C 401 724 417 718 431 710 L 426 677 C 412 685 396 692 379 697 C 362 701 347 704 333 704 C 299 704 271 692 249 670 C 226 647 212 618 208 583 L 191 462 L 283 462 L 279 434 L 187 434 L 126 0 L 95 0 Z M 320 0 C 320 18 321 37 323 59 C 325 81 327 102 330 124 L 378 462 L 409 462 L 361 124 C 358 102 355 81 353 59 C 351 37 350 18 350 0 L 320 0 Z" unicode="ﬁ" />
<glyph horiz-adv-x="424" d="M 95 0 L 156 434 L 77 434 L 81 462 L 160 462 L 177 583 C 183 627 201 663 229 691 C 257 719 292 734 334 734 C 346 734 359 732 373 730 C 387 727 401 723 414 718 L 415 724 L 446 724 L 362 124 C 359 104 357 83 355 62 C 353 41 352 20 352 0 L 321 0 C 321 20 322 43 324 67 C 326 91 328 113 331 132 L 410 686 C 397 692 384 696 370 699 C 356 702 344 704 333 704 C 299 704 271 692 249 670 C 226 647 212 618 208 583 L 191 462 L 283 462 L 279 434 L 187 434 L 126 0 L 95 0 Z" unicode="ﬂ" />
</font>
</defs>
</svg>
