<?xml version="1.0" encoding="utf-8" ?><svg version="1.1" xmlns = 'http://www.w3.org/2000/svg'><defs><font id='web' horiz-adv-x="1000">
<font-face font-family="web" descent="-252" cap-height="658" units-per-em="1000" bbox="-137,-320,1140,1003" x-height="462" ascent="748" />
<missing-glyph horiz-adv-x="500" d="M 50 -252 L 450 -252 L 450 748 L 50 748 L 50 -252 Z M 100 -202 L 100 698 L 400 698 L 400 -202 L 100 -202 Z" /><glyph horiz-adv-x="200" d="" unicode=" " />
<glyph horiz-adv-x="173" d="M 77 165 L 77 716 L 99 716 L 99 165 L 77 165 Z M 69 0 L 69 35 L 104 35 L 104 0 L 69 0 Z" unicode="!" />
<glyph horiz-adv-x="234" d="M 61 560 L 61 724 L 85 724 L 85 560 L 61 560 Z M 149 560 L 149 724 L 173 724 L 173 560 L 149 560 Z" unicode="&#x22;" />
<glyph horiz-adv-x="507" d="M 136 -31 L 156 139 L 35 139 L 35 163 L 159 163 L 177 312 L 51 312 L 51 336 L 180 336 L 200 504 L 221 504 L 201 336 L 332 336 L 352 504 L 373 504 L 353 336 L 467 336 L 467 312 L 350 312 L 332 163 L 452 163 L 452 139 L 329 139 L 309 -31 L 288 -31 L 308 139 L 177 139 L 157 -31 L 136 -31 Z M 180 163 L 311 163 L 329 312 L 198 312 L 180 163 Z" unicode="#" />
<glyph horiz-adv-x="491" d="M 240 -14 C 206 -14 174 -8 142 1 C 110 11 82 26 58 45 L 58 75 C 84 53 112 37 144 25 C 175 13 207 8 240 8 L 241 8 L 241 330 L 234 333 C 177 355 136 380 111 406 C 85 432 73 467 73 511 C 73 557 88 594 118 624 C 148 653 189 669 241 672 L 241 748 L 262 748 L 262 672 C 290 671 316 666 342 657 C 367 648 391 636 414 622 L 414 590 C 392 608 368 623 343 633 C 317 643 290 649 262 650 L 262 347 C 320 323 362 297 388 269 C 414 241 427 204 427 158 C 427 110 412 71 382 40 C 352 9 312 -8 262 -13 L 262 -90 L 241 -90 L 241 -14 L 240 -14 Z M 240 356 L 241 356 L 241 650 C 197 647 161 633 135 608 C 109 583 96 551 96 511 C 96 473 107 442 130 419 C 152 396 189 375 240 356 Z M 404 157 C 404 197 392 229 370 254 C 348 278 312 301 262 322 L 262 9 C 304 13 339 28 365 55 C 391 82 404 116 404 157 Z" unicode="$" />
<glyph horiz-adv-x="817" d="M 195 352 C 147 352 109 369 83 403 C 57 437 44 482 44 540 C 44 597 57 643 83 677 C 109 711 147 728 195 728 C 242 728 279 711 305 677 C 331 643 345 597 345 541 C 345 483 331 437 305 403 C 279 369 242 352 195 352 Z M 263 0 L 519 724 L 541 724 L 285 0 L 263 0 Z M 195 374 C 235 374 266 389 288 419 C 310 449 322 490 322 540 C 322 590 310 630 288 660 C 266 690 235 706 195 706 C 155 706 123 691 101 661 C 78 631 67 591 67 541 C 67 491 78 450 101 420 C 123 389 155 374 195 374 Z M 624 -8 C 576 -8 538 9 512 43 C 486 77 473 122 473 180 C 473 237 486 283 512 317 C 538 351 576 368 624 368 C 671 368 708 351 734 317 C 760 283 774 237 774 181 C 774 123 760 77 734 43 C 708 9 671 -8 624 -8 Z M 624 14 C 664 14 695 29 717 59 C 739 89 751 130 751 180 C 751 230 739 270 717 300 C 695 330 664 346 624 346 C 584 346 552 331 530 301 C 507 271 496 231 496 181 C 496 131 507 90 530 60 C 552 29 584 14 624 14 Z" unicode="%" />
<glyph horiz-adv-x="558" d="M 227 -11 C 165 -11 115 6 77 40 C 39 74 21 120 21 177 C 21 221 33 260 58 294 C 82 328 115 354 155 372 L 153 374 C 133 397 117 421 107 445 C 97 469 92 493 92 518 C 92 562 107 598 137 627 C 167 655 207 670 257 670 C 285 670 314 663 342 651 C 370 639 396 621 419 597 L 419 567 C 394 592 368 612 341 626 C 313 640 285 648 257 648 C 215 648 180 636 154 612 C 128 588 115 557 115 519 C 115 496 119 474 129 453 C 139 431 152 410 170 390 L 412 110 C 428 137 441 170 450 209 C 459 247 464 294 464 348 L 485 348 C 485 292 480 242 470 200 C 460 158 445 122 426 93 L 506 0 L 475 0 L 412 73 C 390 46 363 25 330 11 C 297 -3 263 -11 227 -11 Z M 46 176 C 46 126 62 85 96 55 C 129 25 173 10 228 10 C 262 10 294 17 324 31 C 354 45 378 65 398 89 L 167 357 C 127 339 96 313 76 281 C 56 249 46 214 46 176 Z" unicode="&#x26;" />
<glyph horiz-adv-x="146" d="M 61 560 L 61 724 L 85 724 L 85 560 L 61 560 Z" unicode="'" />
<glyph horiz-adv-x="329" d="M 250 -220 C 197 -154 155 -80 125 2 C 95 84 80 167 80 252 C 80 337 95 420 125 502 C 155 584 197 658 250 724 L 278 724 C 224 656 181 582 150 500 C 119 418 104 335 104 252 C 104 168 119 86 150 4 C 181 -78 224 -152 278 -220 L 250 -220 Z" unicode="(" />
<glyph horiz-adv-x="329" d="M 51 -220 C 105 -152 147 -78 178 4 C 209 86 225 168 225 252 C 225 335 209 418 178 500 C 147 582 105 656 51 724 L 79 724 C 131 658 172 584 203 502 C 233 420 249 337 249 252 C 249 167 233 84 203 2 C 172 -80 131 -154 79 -220 L 51 -220 Z" unicode=")" />
<glyph horiz-adv-x="553" d="M 147 81 L 128 95 L 261 275 L 52 342 L 59 364 L 267 294 L 265 515 L 288 515 L 286 294 L 495 364 L 501 342 L 293 275 L 425 93 L 406 80 L 277 264 L 147 81 Z" unicode="*" />
<glyph horiz-adv-x="532" d="M 255 66 L 255 277 L 52 277 L 52 298 L 255 298 L 255 508 L 277 508 L 277 298 L 480 298 L 480 277 L 277 277 L 277 66 L 255 66 Z" unicode="+" />
<glyph horiz-adv-x="153" d="M 97 61 L 97 5 C 97 -15 94 -35 89 -55 C 83 -75 72 -95 56 -116 L 40 -104 C 52 -85 61 -67 66 -50 C 71 -33 74 -15 74 5 L 74 61 L 97 61 Z" unicode="," />
<glyph horiz-adv-x="347" d="M 41 210 L 41 232 L 305 232 L 305 210 L 41 210 Z" unicode="-" />
<glyph horiz-adv-x="151" d="M 57 0 L 57 35 L 92 35 L 92 0 L 57 0 Z" unicode="." />
<glyph horiz-adv-x="342" d="M 16 0 L 303 724 L 326 724 L 39 0 L 16 0 Z" unicode="/" />
<glyph horiz-adv-x="550" d="M 275 -11 C 201 -11 146 19 110 81 C 73 142 55 224 55 327 C 55 430 73 513 110 575 C 146 637 201 669 275 669 C 348 669 403 638 440 576 C 476 514 495 431 495 328 C 495 225 476 143 440 81 C 403 19 348 -11 275 -11 Z M 275 10 C 334 10 381 36 417 89 C 452 142 470 221 470 327 C 470 433 452 513 417 567 C 381 621 334 648 275 648 C 215 648 168 621 133 568 C 97 514 80 434 80 328 C 80 222 97 143 133 90 C 168 36 215 10 275 10 Z" unicode="0" />
<glyph horiz-adv-x="334" d="M 178 0 L 178 649 L 45 622 L 45 643 L 202 675 L 202 0 L 178 0 Z" unicode="1" />
<glyph horiz-adv-x="477" d="M 55 0 L 55 33 L 183 154 C 254 220 307 277 342 324 C 376 370 394 422 394 478 C 394 528 378 568 348 599 C 318 630 278 646 230 646 C 197 646 166 640 137 630 C 107 619 80 603 56 583 L 56 612 C 80 630 107 644 137 654 C 167 664 198 669 230 669 C 286 669 332 651 367 616 C 401 580 419 535 419 479 C 419 419 401 364 365 316 C 329 268 274 208 198 138 L 77 25 L 425 24 L 425 0 L 55 0 Z" unicode="2" />
<glyph horiz-adv-x="481" d="M 238 -11 C 202 -11 168 -4 136 7 C 104 19 75 37 49 60 L 49 90 C 73 65 102 46 136 32 C 170 18 204 11 238 11 C 290 11 331 25 362 53 C 392 81 408 118 408 166 C 408 217 390 257 352 285 C 314 313 263 328 198 328 L 172 328 L 172 350 L 196 350 C 258 350 307 364 343 392 C 379 420 398 458 398 508 C 398 551 383 585 354 610 C 325 634 289 647 247 647 C 215 647 185 641 157 630 C 129 619 103 603 81 583 L 81 611 C 103 629 129 644 158 654 C 186 664 216 669 247 669 C 300 669 343 653 375 623 C 407 593 423 555 423 509 C 423 465 409 428 381 398 C 353 368 315 348 266 340 C 316 333 356 315 387 285 C 417 255 433 215 433 166 C 433 112 415 69 380 37 C 344 5 297 -11 238 -11 Z" unicode="3" />
<glyph horiz-adv-x="526" d="M 355 0 L 355 196 L 44 196 L 44 216 L 361 674 L 379 674 L 379 218 L 482 218 L 482 196 L 379 196 L 379 0 L 355 0 Z M 355 218 L 355 630 L 71 218 L 355 218 Z" unicode="4" />
<glyph horiz-adv-x="496" d="M 236 -11 C 200 -11 167 -4 137 8 C 107 21 80 40 56 64 L 56 95 C 78 68 105 47 135 33 C 165 18 199 11 236 11 C 286 11 328 26 363 57 C 398 88 416 132 416 188 C 416 241 398 283 362 314 C 326 345 279 361 220 361 C 198 361 176 360 155 358 C 134 356 111 353 86 350 L 113 658 L 421 658 L 421 634 L 133 634 L 110 377 C 128 379 146 381 164 382 C 182 383 200 384 220 384 C 287 384 340 366 380 331 C 420 296 440 249 440 189 C 440 130 421 82 384 45 C 346 7 297 -11 236 -11 Z" unicode="5" />
<glyph horiz-adv-x="520" d="M 261 -11 C 201 -11 152 10 114 54 C 76 98 57 164 57 252 C 57 390 79 494 123 564 C 167 634 230 669 314 669 C 335 669 357 666 381 660 C 404 654 424 648 441 640 L 441 614 C 424 622 404 630 382 637 C 359 643 336 647 314 647 C 243 647 188 617 149 559 C 110 501 88 417 83 309 C 97 341 121 367 155 386 C 188 404 224 414 264 414 C 320 414 367 394 405 356 C 443 318 462 268 462 208 C 462 140 442 87 403 48 C 364 8 317 -11 261 -11 Z M 261 11 C 313 11 355 29 388 66 C 421 103 438 150 438 207 C 438 258 422 302 390 338 C 358 374 316 392 264 392 C 216 392 173 377 136 348 C 99 318 81 284 81 244 C 81 174 97 117 129 75 C 161 32 205 11 261 11 Z" unicode="6" />
<glyph horiz-adv-x="473" d="M 155 0 L 397 634 L 48 634 L 48 658 L 425 658 L 425 643 L 179 0 L 155 0 Z" unicode="7" />
<glyph horiz-adv-x="501" d="M 250 -11 C 192 -11 145 5 110 37 C 74 69 57 108 57 155 C 57 195 71 231 99 262 C 127 292 167 318 219 338 C 172 355 135 377 109 405 C 83 432 70 466 70 506 C 70 553 86 592 119 623 C 152 653 196 669 250 669 C 304 669 347 654 381 624 C 414 594 431 556 431 511 C 431 473 418 439 392 411 C 366 383 330 359 284 340 C 334 321 373 297 401 267 C 429 237 443 201 443 159 C 443 111 425 70 391 38 C 357 5 310 -11 250 -11 Z M 238 356 L 255 350 C 303 366 340 388 366 415 C 392 442 406 474 406 510 C 406 549 391 582 362 608 C 333 634 296 647 250 647 C 204 647 166 633 137 607 C 108 580 94 547 94 507 C 94 471 106 440 132 416 C 157 391 192 371 238 356 Z M 81 155 C 81 115 96 81 127 53 C 158 25 199 11 250 11 C 302 11 343 25 373 53 C 403 81 419 116 419 158 C 419 196 405 229 377 256 C 349 283 311 306 261 324 L 249 328 L 248 328 C 195 309 154 285 125 257 C 95 229 81 195 81 155 Z" unicode="8" />
<glyph horiz-adv-x="520" d="M 206 -11 C 184 -11 161 -8 138 -2 C 115 3 95 9 78 17 L 78 44 C 94 35 114 27 137 20 C 160 13 183 10 206 10 C 278 10 334 38 372 96 C 410 153 431 238 437 350 C 422 317 398 291 365 272 C 331 253 295 244 256 244 C 200 244 152 263 114 301 C 76 339 57 389 57 450 C 57 517 76 570 116 610 C 155 649 203 669 259 669 C 318 669 367 646 405 602 C 443 557 463 492 463 407 C 463 264 441 159 397 91 C 353 23 289 -11 206 -11 Z M 256 265 C 304 265 346 279 383 309 C 419 339 438 374 438 414 C 438 484 422 540 390 583 C 358 626 315 648 259 648 C 206 648 163 629 131 592 C 98 554 82 507 82 451 C 82 399 98 355 130 319 C 162 283 204 265 256 265 Z" unicode="9" />
<glyph horiz-adv-x="149" d="M 57 316 L 57 351 L 92 351 L 92 316 L 57 316 Z M 57 0 L 57 35 L 92 35 L 92 0 L 57 0 Z" unicode=":" />
<glyph horiz-adv-x="153" d="M 70 316 L 70 351 L 105 351 L 105 316 L 70 316 Z M 96 61 L 96 5 C 96 -15 93 -35 88 -55 C 82 -75 71 -95 55 -116 L 39 -104 C 51 -85 60 -67 65 -50 C 70 -33 73 -15 73 5 L 73 61 L 96 61 Z" unicode=";" />
<glyph horiz-adv-x="408" d="M 308 79 L 64 277 L 308 475 L 344 475 L 100 277 L 344 79 L 308 79 Z" unicode="&#x3C;" />
<glyph horiz-adv-x="532" d="M 56 336 L 56 357 L 484 357 L 484 336 L 56 336 Z M 56 208 L 56 229 L 484 229 L 484 208 L 56 208 Z" unicode="=" />
<glyph horiz-adv-x="408" d="M 64 79 L 308 277 L 64 475 L 100 475 L 344 277 L 100 79 L 64 79 Z" unicode="&#x3E;" />
<glyph horiz-adv-x="431" d="M 185 165 C 185 205 192 241 206 274 C 220 306 246 341 284 378 C 312 406 333 434 347 461 C 361 487 368 516 368 547 C 368 595 352 635 321 666 C 290 697 249 713 197 713 C 167 713 138 707 110 695 C 81 683 58 666 41 646 L 41 675 C 59 693 83 707 111 718 C 139 728 168 734 197 734 C 256 734 303 716 339 681 C 374 646 392 602 392 548 C 392 514 385 483 371 454 C 357 425 333 394 300 362 C 267 330 244 300 230 270 C 216 240 209 205 209 165 L 185 165 Z M 180 0 L 180 34 L 214 34 L 214 0 L 180 0 Z" unicode="?" />
<glyph horiz-adv-x="791" d="M 385 -67 C 291 -67 212 -34 146 29 C 80 93 48 176 48 277 C 48 380 82 464 152 528 C 221 592 302 625 395 625 C 488 625 569 595 639 537 C 708 479 743 402 743 308 C 743 252 730 204 706 166 C 681 128 647 109 605 109 C 575 109 550 119 528 139 C 506 159 493 190 491 230 C 477 186 457 155 431 137 C 405 118 378 109 352 109 C 312 109 281 122 257 148 C 233 174 222 208 222 252 C 222 316 243 368 287 407 C 330 445 383 465 445 465 C 458 465 473 464 489 462 C 505 460 520 458 535 456 L 512 274 C 506 231 511 196 528 170 C 545 143 571 130 605 130 C 640 130 668 146 689 179 C 710 212 721 255 721 307 C 721 388 690 458 629 516 C 568 574 490 604 395 604 C 298 604 220 571 160 506 C 100 440 70 364 70 277 C 70 189 99 113 157 49 C 215 -14 291 -46 385 -46 C 416 -46 447 -42 477 -35 C 507 -27 536 -16 563 -2 L 563 -26 C 535 -39 506 -49 476 -56 C 446 -63 415 -67 385 -67 Z M 352 130 C 381 130 410 143 438 170 C 466 197 487 257 499 351 L 510 438 C 500 440 490 441 479 442 C 467 443 456 444 445 444 C 387 444 339 426 301 390 C 263 354 244 308 244 252 C 244 216 253 186 273 164 C 293 141 319 130 352 130 Z" unicode="@" />
<glyph horiz-adv-x="594" d="M 24 0 L 285 670 L 308 670 L 570 0 L 544 0 L 446 254 L 146 254 L 47 0 L 24 0 Z M 154 275 L 437 275 L 311 598 L 296 639 L 280 598 L 154 275 Z" unicode="A" />
<glyph horiz-adv-x="505" d="M 84 0 L 84 658 L 228 658 C 291 658 339 643 372 614 C 405 584 422 545 422 495 C 422 457 411 424 391 395 C 370 365 337 346 292 338 C 346 329 386 309 410 279 C 434 249 446 214 446 174 C 446 121 429 79 396 47 C 362 15 312 0 246 0 L 84 0 Z M 108 347 L 227 347 C 278 347 319 359 351 385 C 382 410 398 447 398 495 C 398 541 382 576 351 600 C 320 624 279 636 228 636 L 108 636 L 108 347 Z M 108 22 L 246 22 C 300 22 343 35 375 61 C 406 87 422 124 422 174 C 422 222 405 260 372 286 C 338 312 292 325 232 325 L 108 325 L 108 22 Z" unicode="B" />
<glyph horiz-adv-x="660" d="M 398 -11 C 297 -11 215 19 152 81 C 88 143 57 225 57 328 C 57 430 88 513 150 575 C 212 637 295 669 398 669 C 436 669 471 665 505 657 C 539 649 571 637 603 621 L 603 595 C 571 613 539 626 506 634 C 472 642 436 647 398 647 C 302 647 226 617 168 559 C 110 501 82 424 82 328 C 82 231 111 154 170 97 C 228 39 304 11 398 11 C 437 11 474 16 509 26 C 543 36 577 52 610 74 L 610 47 C 577 27 543 13 508 3 C 472 -6 436 -11 398 -11 Z" unicode="C" />
<glyph horiz-adv-x="681" d="M 84 0 L 84 658 L 260 658 C 369 658 457 628 523 570 C 589 511 623 433 623 337 C 623 236 589 155 522 93 C 454 31 364 0 252 0 L 84 0 Z M 108 22 L 253 22 C 357 22 441 50 504 108 C 567 165 599 241 599 337 C 599 427 568 499 507 554 C 445 608 363 636 261 636 L 108 636 L 108 22 Z" unicode="D" />
<glyph horiz-adv-x="475" d="M 84 0 L 84 658 L 404 658 L 404 636 L 108 636 L 108 344 L 388 344 L 388 323 L 108 323 L 108 22 L 416 22 L 416 0 L 84 0 Z" unicode="E" />
<glyph horiz-adv-x="429" d="M 84 0 L 84 658 L 397 658 L 397 636 L 108 636 L 108 347 L 364 347 L 364 325 L 108 325 L 108 0 L 84 0 Z" unicode="F" />
<glyph horiz-adv-x="687" d="M 388 -11 C 290 -11 210 20 149 83 C 87 145 57 228 57 330 C 57 432 87 514 149 576 C 210 638 291 669 392 669 C 428 669 463 665 497 658 C 531 650 564 639 597 625 L 597 599 C 564 615 531 627 497 635 C 463 643 428 647 392 647 C 298 647 223 618 167 560 C 110 502 82 426 82 330 C 82 234 110 156 166 98 C 222 40 297 11 389 11 C 425 11 461 14 497 21 C 533 28 566 39 597 53 L 597 282 L 447 282 L 447 304 L 621 304 L 621 39 C 587 23 549 11 509 2 C 468 -6 428 -11 388 -11 Z" unicode="G" />
<glyph horiz-adv-x="670" d="M 84 0 L 84 658 L 108 658 L 108 349 L 562 349 L 562 658 L 586 658 L 586 0 L 562 0 L 562 327 L 108 327 L 108 0 L 84 0 Z" unicode="H" />
<glyph horiz-adv-x="192" d="M 84 0 L 84 658 L 108 658 L 108 0 L 84 0 Z" unicode="I" />
<glyph horiz-adv-x="197" d="M -8 -209 L -16 -209 L -16 -188 L -8 -188 C 21 -188 44 -178 62 -160 C 80 -141 89 -115 89 -83 L 89 658 L 113 658 L 113 -83 C 113 -121 102 -151 80 -174 C 58 -197 28 -209 -8 -209 Z" unicode="J" />
<glyph horiz-adv-x="518" d="M 84 0 L 84 658 L 108 658 L 108 346 L 433 658 L 466 658 L 129 337 L 476 1 L 442 0 L 108 324 L 108 0 L 84 0 Z" unicode="K" />
<glyph horiz-adv-x="441" d="M 84 0 L 84 658 L 108 658 L 108 22 L 420 22 L 420 0 L 84 0 Z" unicode="L" />
<glyph horiz-adv-x="733" d="M 84 0 L 84 658 L 115 658 L 347 194 L 366 154 L 386 194 L 616 658 L 649 658 L 649 0 L 625 0 L 625 626 L 606 587 L 375 124 L 356 124 L 126 587 L 106 627 L 106 0 L 84 0 Z" unicode="M" />
<glyph horiz-adv-x="703" d="M 84 0 L 84 658 L 113 658 L 565 71 L 597 29 L 597 658 L 619 658 L 619 0 L 590 0 L 138 587 L 106 629 L 106 0 L 84 0 Z" unicode="N" />
<glyph horiz-adv-x="775" d="M 387 -12 C 290 -12 211 19 149 83 C 87 146 57 228 57 329 C 57 430 87 512 149 575 C 211 638 290 670 387 670 C 484 670 563 638 625 575 C 686 512 717 430 717 329 C 717 228 686 146 625 83 C 563 19 484 -12 387 -12 Z M 387 10 C 476 10 549 39 607 98 C 664 156 693 233 693 329 C 693 424 664 501 607 560 C 549 618 476 648 387 648 C 297 648 224 618 167 560 C 110 501 82 424 82 329 C 82 233 110 156 167 98 C 224 39 297 10 387 10 Z" unicode="O" />
<glyph horiz-adv-x="452" d="M 84 0 L 84 658 L 177 658 C 250 658 306 639 346 603 C 385 567 405 520 405 462 C 405 403 385 356 346 320 C 306 284 250 266 177 266 L 108 266 L 108 0 L 84 0 Z M 108 288 L 177 288 C 237 288 286 303 324 333 C 362 363 381 406 381 462 C 381 517 362 560 324 590 C 286 620 237 636 176 636 L 108 636 L 108 288 Z" unicode="P" />
<glyph horiz-adv-x="775" d="M 387 -12 C 290 -12 211 19 149 83 C 87 146 57 228 57 329 C 57 430 87 512 149 575 C 211 638 290 670 387 670 C 484 670 563 638 625 575 C 686 512 717 430 717 329 C 717 243 694 171 649 112 C 604 52 545 14 472 -3 C 500 -29 532 -50 568 -66 C 604 -82 645 -94 691 -101 L 691 -126 C 641 -119 595 -105 551 -83 C 507 -61 470 -36 442 -8 C 433 -9 424 -10 415 -11 C 405 -11 396 -12 387 -12 Z M 387 10 C 476 10 549 39 607 98 C 664 156 693 233 693 329 C 693 424 664 501 607 560 C 549 618 476 648 387 648 C 297 648 224 618 167 560 C 110 501 82 424 82 329 C 82 233 110 156 167 98 C 224 39 297 10 387 10 Z" unicode="Q" />
<glyph horiz-adv-x="506" d="M 439 0 L 350 229 C 337 261 319 285 297 300 C 275 315 247 323 215 323 L 108 323 L 108 0 L 84 0 L 84 658 L 221 658 C 279 658 325 642 359 612 C 393 582 410 542 410 492 C 410 452 398 417 375 387 C 351 357 320 338 280 330 C 301 324 319 314 335 298 C 350 282 363 261 373 236 L 464 0 L 439 0 Z M 108 344 L 229 344 C 277 344 315 357 343 385 C 371 412 385 447 385 491 C 385 535 370 570 340 596 C 310 622 271 636 221 636 L 108 636 L 108 344 Z" unicode="R" />
<glyph horiz-adv-x="496" d="M 245 -14 C 211 -14 179 -8 147 1 C 115 11 87 26 63 45 L 63 75 C 89 53 117 37 149 25 C 180 13 212 8 245 8 C 293 8 333 21 363 49 C 393 77 409 113 409 157 C 409 198 397 231 373 256 C 349 281 310 304 256 326 L 239 333 C 182 355 141 380 116 406 C 90 432 78 467 78 511 C 78 559 94 597 127 627 C 159 657 203 672 258 672 C 287 672 315 667 343 659 C 370 650 395 638 419 622 L 419 590 C 396 609 371 624 344 634 C 317 644 288 650 258 650 C 210 650 171 637 143 612 C 115 586 101 553 101 511 C 101 473 112 442 135 419 C 157 396 194 375 245 356 L 262 349 C 322 325 366 298 392 270 C 418 242 432 204 432 158 C 432 107 414 66 380 34 C 346 2 301 -14 245 -14 Z" unicode="S" />
<glyph horiz-adv-x="536" d="M 256 0 L 256 636 L 20 636 L 20 658 L 516 658 L 516 636 L 280 636 L 280 0 L 256 0 Z" unicode="T" />
<glyph horiz-adv-x="662" d="M 330 -11 C 255 -11 194 13 148 63 C 102 112 79 177 79 257 L 79 658 L 103 658 L 103 257 C 103 183 124 124 166 79 C 208 34 262 12 330 12 C 399 12 455 34 497 79 C 539 124 560 183 560 257 L 560 658 L 583 658 L 583 257 C 583 177 559 112 513 63 C 467 13 406 -11 330 -11 Z" unicode="U" />
<glyph horiz-adv-x="594" d="M 284 0 L 21 658 L 47 658 L 281 71 L 298 27 L 315 71 L 549 658 L 572 658 L 309 0 L 284 0 Z" unicode="V" />
<glyph horiz-adv-x="904" d="M 230 0 L 21 658 L 46 658 L 233 71 L 244 36 L 255 71 L 442 658 L 466 658 L 652 71 L 663 35 L 674 71 L 861 658 L 883 658 L 674 0 L 649 0 L 464 588 L 453 625 L 441 588 L 255 0 L 230 0 Z" unicode="W" />
<glyph horiz-adv-x="571" d="M 41 0 L 271 336 L 55 658 L 82 658 L 258 398 L 285 357 L 312 398 L 489 658 L 514 658 L 297 339 L 530 0 L 503 0 L 309 281 L 283 319 L 258 281 L 67 0 L 41 0 Z" unicode="X" />
<glyph horiz-adv-x="534" d="M 254 0 L 254 307 L 17 658 L 46 658 L 244 365 L 268 330 L 292 366 L 490 658 L 517 658 L 278 305 L 278 0 L 254 0 Z" unicode="Y" />
<glyph horiz-adv-x="593" d="M 65 0 L 65 14 L 465 597 L 492 636 L 67 636 L 67 658 L 527 658 L 527 646 L 126 61 L 100 22 L 527 22 L 527 0 L 65 0 Z" unicode="Z" />
<glyph horiz-adv-x="310" d="M 99 -220 L 99 724 L 262 724 L 262 703 L 123 703 L 123 -199 L 262 -199 L 262 -220 L 99 -220 Z" unicode="[" />
<glyph horiz-adv-x="342" d="M 303 0 L 16 724 L 39 724 L 326 0 L 303 0 Z" unicode="\" />
<glyph horiz-adv-x="310" d="M 48 -220 L 48 -199 L 187 -199 L 187 703 L 48 703 L 48 724 L 211 724 L 211 -220 L 48 -220 Z" unicode="]" />
<glyph horiz-adv-x="381" d="M 106 524 L 78 524 L 181 643 L 197 643 L 300 524 L 272 524 L 189 619 L 106 524 Z" unicode="^" />
<glyph horiz-adv-x="350" d="M 0 -220 L 0 -198 L 350 -198 L 350 -220 L 0 -220 Z" unicode="_" />
<glyph horiz-adv-x="237" d="M 158 524 L 57 649 L 87 649 L 185 524 L 158 524 Z" unicode="`" />
<glyph horiz-adv-x="427" d="M 189 -9 C 145 -9 111 2 85 26 C 59 50 47 81 47 120 C 47 158 61 190 91 217 C 121 244 161 260 213 266 L 331 279 L 331 327 C 331 367 320 397 298 418 C 276 438 246 449 208 449 C 182 449 158 445 135 437 C 111 429 89 417 67 401 L 67 429 C 89 442 111 452 135 460 C 159 467 183 471 208 471 C 253 471 289 458 315 434 C 341 409 355 373 355 327 L 355 0 L 335 0 L 331 65 C 315 41 295 22 271 10 C 247 -2 219 -9 189 -9 Z M 189 12 C 221 12 249 19 274 35 C 298 51 317 72 331 98 L 331 258 L 216 245 C 170 240 134 226 109 204 C 83 181 71 153 71 120 C 71 87 81 61 103 41 C 124 21 153 12 189 12 Z" unicode="a" />
<glyph horiz-adv-x="498" d="M 226 -10 C 200 -10 174 -7 148 -3 C 122 1 98 8 76 17 L 76 724 L 99 724 L 99 413 C 117 431 139 446 164 456 C 189 466 215 471 242 471 C 304 471 353 449 390 407 C 427 364 446 307 446 236 C 446 161 425 101 385 57 C 345 12 292 -10 226 -10 Z M 226 11 C 284 11 332 31 368 72 C 404 112 422 167 422 235 C 422 301 405 353 372 392 C 339 430 296 450 242 450 C 214 450 189 445 165 435 C 141 425 119 409 99 389 L 99 33 C 119 25 140 20 162 16 C 184 12 205 11 226 11 Z" unicode="b" />
<glyph horiz-adv-x="470" d="M 280 -9 C 212 -9 156 12 114 56 C 72 99 51 157 51 229 C 51 303 71 362 112 406 C 152 449 206 471 274 471 C 300 471 325 467 350 461 C 374 454 399 444 423 431 L 423 405 C 398 420 374 431 350 439 C 326 446 300 450 274 450 C 213 450 165 430 129 391 C 93 351 75 298 75 230 C 75 164 93 111 131 71 C 168 31 218 12 280 12 C 305 12 330 16 354 25 C 378 33 401 45 421 60 L 421 34 C 400 20 378 9 354 2 C 330 -5 305 -9 280 -9 Z" unicode="c" />
<glyph horiz-adv-x="507" d="M 258 -9 C 198 -9 148 11 109 53 C 70 94 51 153 51 231 C 51 308 71 367 111 409 C 151 450 201 471 261 471 C 288 471 314 466 339 457 C 363 448 386 435 407 419 L 407 724 L 431 724 L 431 0 L 411 0 L 407 65 C 389 41 368 22 342 10 C 316 -2 288 -9 258 -9 Z M 258 12 C 290 12 319 19 345 35 C 371 50 391 71 407 98 L 407 393 C 385 411 362 425 338 435 C 313 445 287 450 261 450 C 205 450 160 430 126 390 C 92 350 75 298 75 232 C 75 165 91 112 124 72 C 157 32 202 12 258 12 Z" unicode="d" />
<glyph horiz-adv-x="503" d="M 271 -9 C 201 -9 147 12 109 56 C 70 100 51 158 51 232 C 51 303 69 361 107 405 C 145 449 195 471 257 471 C 315 471 362 451 397 413 C 432 375 450 323 450 258 L 450 239 L 75 239 L 75 232 C 75 164 92 111 126 72 C 160 32 209 13 271 13 C 301 13 330 18 358 28 C 386 38 413 54 439 74 L 439 48 C 412 29 385 15 357 5 C 329 -4 300 -9 271 -9 Z M 257 450 C 206 450 164 432 131 398 C 97 363 79 317 76 260 L 426 260 C 426 318 410 364 380 398 C 350 432 309 450 257 450 Z" unicode="e" />
<glyph horiz-adv-x="242" d="M 103 0 L 103 440 L 21 440 L 21 462 L 103 462 L 103 583 C 103 629 114 665 137 692 C 159 719 192 733 234 733 C 248 733 263 731 279 728 C 294 724 308 719 322 713 L 322 688 C 308 695 294 701 280 705 C 265 709 250 711 234 711 C 201 711 175 700 156 678 C 136 656 127 625 127 583 L 127 462 L 223 462 L 223 440 L 127 440 L 127 0 L 103 0 Z" unicode="f" />
<glyph horiz-adv-x="509" d="M 240 -228 C 212 -228 182 -223 151 -215 C 120 -206 92 -194 68 -178 L 68 -151 C 92 -167 119 -180 150 -190 C 180 -200 210 -206 240 -206 C 292 -206 333 -189 365 -155 C 397 -121 413 -76 413 -20 L 413 65 C 395 41 373 22 347 10 C 321 -2 292 -9 262 -9 C 200 -9 150 11 111 53 C 71 95 52 154 52 231 C 52 308 72 367 113 409 C 153 450 204 471 264 471 C 291 471 318 465 345 455 C 372 445 395 431 413 414 L 419 462 L 436 462 L 436 -20 C 436 -82 418 -132 382 -170 C 346 -208 299 -228 240 -228 Z M 262 12 C 294 12 324 20 350 36 C 376 52 397 73 413 100 L 413 386 C 395 406 373 422 346 433 C 318 444 291 450 264 450 C 208 450 162 430 128 390 C 93 350 76 298 76 232 C 76 166 92 112 126 72 C 159 32 204 12 262 12 Z" unicode="g" />
<glyph horiz-adv-x="477" d="M 76 0 L 76 724 L 99 724 L 99 393 C 115 417 136 436 162 450 C 188 464 215 471 245 471 C 296 471 335 456 363 426 C 391 396 405 356 405 307 L 405 0 L 382 0 L 382 304 C 382 350 369 386 344 412 C 319 437 286 450 245 450 C 214 450 186 442 160 426 C 134 410 113 389 99 363 L 99 0 L 76 0 Z" unicode="h" />
<glyph horiz-adv-x="184" d="M 76 643 L 76 675 L 108 675 L 108 643 L 76 643 Z M 81 0 L 81 462 L 104 462 L 104 0 L 81 0 Z" unicode="i" />
<glyph horiz-adv-x="177" d="M 73 643 L 73 675 L 105 675 L 105 643 L 73 643 Z M -28 -209 L -36 -209 L -36 -188 L -28 -188 C 4 -188 29 -176 48 -154 C 67 -131 77 -101 77 -65 L 77 462 L 101 462 L 101 -65 C 101 -109 89 -144 65 -170 C 41 -196 10 -209 -28 -209 Z" unicode="j" />
<glyph horiz-adv-x="424" d="M 76 0 L 76 724 L 99 724 L 99 249 L 337 462 L 369 462 L 123 242 L 396 0 L 361 0 L 99 231 L 99 0 L 76 0 Z" unicode="k" />
<glyph horiz-adv-x="175" d="M 76 0 L 76 724 L 99 724 L 99 0 L 76 0 Z" unicode="l" />
<glyph horiz-adv-x="773" d="M 76 0 L 76 462 L 99 462 L 99 393 C 115 417 135 436 161 450 C 186 464 213 471 242 471 C 283 471 316 461 341 441 C 366 421 383 396 392 366 C 406 402 427 429 453 446 C 479 462 509 471 542 471 C 590 471 628 456 657 427 C 686 397 701 358 701 309 L 701 0 L 677 0 L 677 306 C 677 350 664 385 640 411 C 616 437 583 450 542 450 C 510 450 481 441 456 423 C 430 405 411 376 399 335 C 399 334 399 333 399 332 C 399 331 400 330 400 330 L 400 0 L 377 0 L 377 308 C 377 350 365 385 341 411 C 317 437 284 450 242 450 C 212 450 185 442 159 426 C 133 410 113 389 99 363 L 99 0 L 76 0 Z" unicode="m" />
<glyph horiz-adv-x="477" d="M 76 0 L 76 462 L 99 462 L 99 393 C 115 417 136 436 162 450 C 188 464 215 471 245 471 C 296 471 335 456 363 426 C 391 396 405 356 405 307 L 405 0 L 382 0 L 382 304 C 382 350 369 386 344 412 C 318 437 285 450 245 450 C 214 450 186 442 160 426 C 134 410 113 389 99 363 L 99 0 L 76 0 Z" unicode="n" />
<glyph horiz-adv-x="558" d="M 279 -9 C 211 -9 156 13 114 57 C 72 101 51 158 51 230 C 51 302 72 360 114 404 C 156 448 211 471 279 471 C 346 471 401 448 443 404 C 485 360 507 302 507 231 C 507 159 485 101 443 57 C 401 13 346 -9 279 -9 Z M 279 12 C 339 12 388 32 426 72 C 464 112 483 164 483 230 C 483 296 464 349 426 389 C 388 429 339 450 279 450 C 218 450 169 430 131 390 C 93 350 75 297 75 231 C 75 165 93 112 131 72 C 169 32 218 12 279 12 Z" unicode="o" />
<glyph horiz-adv-x="498" d="M 76 -220 L 76 462 L 99 462 L 99 407 C 115 427 137 442 163 454 C 189 465 215 471 242 471 C 304 471 353 449 391 407 C 428 364 447 307 447 236 C 447 161 427 101 387 57 C 347 12 296 -10 236 -10 C 210 -10 186 -5 162 2 C 138 10 117 22 99 36 L 99 -220 L 76 -220 Z M 236 11 C 289 11 333 31 369 72 C 405 112 423 167 423 235 C 423 301 406 353 373 392 C 339 430 296 450 242 450 C 215 450 189 443 163 431 C 137 419 115 401 99 379 L 99 60 C 117 44 138 32 162 24 C 186 15 210 11 236 11 Z" unicode="p" />
<glyph horiz-adv-x="504" d="M 407 -220 L 407 65 C 389 41 367 22 341 10 C 315 -2 286 -9 256 -9 C 195 -9 146 11 108 53 C 70 95 51 154 51 231 C 51 308 71 367 111 409 C 151 450 200 471 260 471 C 286 471 313 465 340 455 C 366 445 389 431 407 414 L 411 462 L 431 462 L 431 -220 L 407 -220 Z M 256 12 C 288 12 318 19 344 35 C 370 50 391 71 407 98 L 407 386 C 389 406 367 422 340 433 C 313 444 286 450 260 450 C 204 450 159 430 125 390 C 91 350 75 298 75 232 C 75 166 91 112 123 72 C 155 32 199 12 256 12 Z" unicode="q" />
<glyph horiz-adv-x="287" d="M 76 0 L 76 462 L 99 462 L 99 391 C 109 415 124 435 145 449 C 166 463 188 471 212 471 C 222 471 233 470 243 468 C 253 466 264 464 275 460 L 275 432 C 265 436 254 440 243 443 C 232 445 221 447 210 447 C 184 447 162 438 143 422 C 123 406 109 384 99 358 L 99 0 L 76 0 Z" unicode="r" />
<glyph horiz-adv-x="372" d="M 184 -9 C 158 -9 134 -5 111 2 C 88 9 67 20 47 34 L 47 61 C 67 45 88 32 112 24 C 135 16 159 12 184 12 C 219 12 247 21 269 40 C 290 58 301 83 301 114 C 301 141 291 164 273 182 C 254 200 225 216 187 229 L 171 234 C 131 246 101 262 82 282 C 63 301 54 326 54 357 C 54 391 66 418 91 440 C 115 461 148 472 190 472 C 212 472 234 469 256 463 C 278 457 298 449 317 439 L 317 412 C 298 424 278 434 256 440 C 234 446 212 450 190 450 C 156 450 128 441 108 425 C 88 408 78 386 78 358 C 78 334 86 313 102 297 C 118 281 143 267 178 257 L 195 251 C 240 236 273 218 294 197 C 314 176 325 149 325 115 C 325 79 312 49 286 26 C 260 2 226 -9 184 -9 Z" unicode="s" />
<glyph horiz-adv-x="290" d="M 183 -9 C 157 -9 137 -1 122 15 C 106 31 99 52 99 79 L 99 440 L 21 440 L 21 462 L 99 462 L 99 624 L 122 624 L 122 462 L 254 462 L 254 440 L 122 440 L 122 79 C 122 59 127 43 138 31 C 148 19 163 14 183 14 C 195 14 208 16 221 20 C 234 24 246 30 257 39 L 257 13 C 246 5 234 0 221 -3 C 208 -7 195 -9 183 -9 Z" unicode="t" />
<glyph horiz-adv-x="478" d="M 234 -9 C 182 -9 143 6 116 37 C 88 68 75 108 75 158 L 75 462 L 98 462 L 98 158 C 98 112 110 76 135 50 C 159 24 192 12 234 12 C 267 12 296 20 322 37 C 347 54 366 76 379 103 L 379 462 L 402 462 L 402 0 L 382 0 L 379 69 C 364 44 344 25 319 11 C 293 -2 265 -9 234 -9 Z" unicode="u" />
<glyph horiz-adv-x="435" d="M 208 0 L 19 462 L 44 462 L 204 71 L 219 35 L 233 71 L 393 462 L 416 462 L 227 0 L 208 0 Z" unicode="v" />
<glyph horiz-adv-x="700" d="M 180 0 L 20 462 L 45 462 L 180 71 L 192 36 L 204 71 L 339 462 L 363 462 L 498 71 L 511 35 L 523 71 L 658 462 L 680 462 L 520 0 L 498 0 L 363 391 L 351 429 L 338 391 L 201 0 L 180 0 Z" unicode="w" />
<glyph horiz-adv-x="421" d="M 28 0 L 196 239 L 42 462 L 71 462 L 180 301 L 210 260 L 239 301 L 349 462 L 378 462 L 223 241 L 393 0 L 365 0 L 237 184 L 210 222 L 182 184 L 54 0 L 28 0 Z" unicode="x" />
<glyph horiz-adv-x="432" d="M -4 -220 L -12 -220 L -12 -198 L -4 -198 C 36 -198 73 -183 105 -154 C 137 -125 170 -73 204 2 L 199 14 L 16 462 L 41 462 L 200 71 L 216 32 L 231 71 L 390 462 L 413 462 L 224 -1 C 190 -81 155 -138 119 -171 C 83 -203 42 -220 -4 -220 Z" unicode="y" />
<glyph horiz-adv-x="420" d="M 47 0 L 47 15 L 316 410 L 337 440 L 49 440 L 49 462 L 370 462 L 370 447 L 100 52 L 80 22 L 373 22 L 373 0 L 47 0 Z" unicode="z" />
<glyph horiz-adv-x="451" d="M 372 -220 C 314 -220 269 -204 237 -172 C 205 -140 192 -94 196 -34 L 204 89 C 206 130 196 163 174 189 C 151 215 117 231 72 238 L 72 267 C 117 273 151 289 174 315 C 196 340 206 374 204 416 L 196 539 C 192 599 205 645 237 677 C 269 709 314 725 372 725 L 403 725 L 403 704 L 371 704 C 321 704 282 689 255 661 C 228 633 216 592 220 539 L 228 416 C 230 370 220 334 198 307 C 176 279 145 261 105 253 C 145 242 176 223 198 196 C 220 168 230 133 228 89 L 220 -34 C 216 -87 228 -128 255 -156 C 282 -184 321 -199 371 -199 L 403 -199 L 403 -220 L 372 -220 Z" unicode="{" />
<glyph horiz-adv-x="183" d="M 80 -220 L 80 724 L 103 724 L 103 -220 L 80 -220 Z" unicode="|" />
<glyph horiz-adv-x="451" d="M 48 -220 L 48 -199 L 80 -199 C 130 -199 168 -184 195 -156 C 222 -128 234 -87 231 -34 L 223 88 C 220 132 230 167 252 195 C 274 223 304 242 344 252 C 304 261 273 279 251 307 C 229 335 220 371 223 416 L 231 538 C 234 591 222 632 195 660 C 168 688 130 703 80 703 L 48 703 L 48 724 L 79 724 C 137 724 181 708 213 676 C 245 644 259 598 255 538 L 247 416 C 244 374 254 340 277 314 C 299 288 333 272 379 266 L 379 238 C 333 231 299 215 277 189 C 254 163 244 130 247 88 L 255 -34 C 259 -94 245 -140 213 -172 C 181 -204 137 -220 79 -220 L 48 -220 Z" unicode="}" />
<glyph horiz-adv-x="384" d="M 74 154 L 55 154 C 57 180 65 199 79 211 C 92 223 108 229 127 229 C 138 229 149 226 160 221 C 171 215 184 206 199 194 C 209 185 219 178 227 173 C 235 167 245 165 255 165 C 268 165 279 169 288 178 C 297 187 303 201 306 220 L 325 220 C 321 192 312 173 299 161 C 285 149 270 144 253 144 C 240 144 228 147 218 153 C 207 159 195 167 181 179 C 169 188 159 195 151 200 C 142 205 133 208 125 208 C 111 208 100 203 91 194 C 82 185 76 172 74 154 Z" unicode="~" />
<glyph horiz-adv-x="173" d="M 69 474 L 69 508 L 103 508 L 103 474 L 69 474 Z M 75 -208 L 75 343 L 98 343 L 98 -208 L 75 -208 Z" unicode="¡" />
<glyph horiz-adv-x="470" d="M 243 -98 L 243 -7 C 185 1 138 25 103 67 C 68 109 51 163 51 229 C 51 297 68 353 103 395 C 138 437 185 462 243 469 L 243 562 L 264 562 L 264 471 C 265 471 267 471 269 471 C 271 471 272 471 274 471 C 300 471 325 467 350 461 C 374 454 399 444 423 431 L 423 405 C 398 420 374 431 350 439 C 326 446 300 450 274 450 C 272 450 271 450 269 450 C 267 450 265 450 264 450 L 264 12 C 266 12 269 12 272 12 C 274 12 277 12 280 12 C 305 12 330 16 354 25 C 378 33 401 45 421 60 L 421 34 C 400 20 378 9 354 2 C 330 -5 305 -9 280 -9 C 277 -9 274 -9 272 -9 C 269 -9 266 -9 264 -9 L 264 -98 L 243 -98 Z M 75 230 C 75 170 90 121 120 83 C 150 45 191 22 243 15 L 243 448 C 191 441 150 418 120 380 C 90 342 75 292 75 230 Z" unicode="¢" />
<glyph horiz-adv-x="512" d="M 60 0 L 60 22 C 102 48 133 85 153 133 C 173 180 175 239 159 311 L 155 330 L 52 330 L 52 352 L 150 352 L 138 403 C 119 482 125 546 155 596 C 185 645 235 670 304 670 C 331 670 358 666 384 660 C 410 654 435 644 460 632 L 460 605 C 435 619 409 630 383 637 C 357 644 330 648 304 648 C 244 648 201 625 175 581 C 149 536 145 478 162 406 L 174 352 L 371 352 L 371 330 L 179 330 L 183 313 C 197 250 197 194 181 144 C 165 94 137 54 96 24 L 444 24 L 444 0 L 60 0 Z" unicode="£" />
<glyph horiz-adv-x="591" d="M 66 46 L 52 62 L 166 167 C 153 182 143 199 136 219 C 128 239 125 259 125 281 C 125 305 129 327 138 349 C 147 370 160 389 176 405 L 86 505 L 103 520 L 193 420 C 190 417 187 414 184 412 C 181 410 178 407 176 405 L 181 399 L 198 414 L 193 420 C 207 430 222 439 240 445 C 258 451 276 454 296 454 C 318 454 339 450 359 442 C 378 434 395 423 410 410 L 404 404 L 419 388 L 426 394 C 423 396 420 399 418 402 C 415 404 412 407 410 410 L 525 515 L 539 498 L 426 394 C 438 379 448 362 456 342 C 463 322 467 302 467 281 C 467 256 462 233 453 212 C 444 190 431 172 415 156 L 505 57 L 488 42 L 398 141 C 384 130 368 122 351 116 C 333 110 315 107 296 107 C 273 107 252 111 232 119 C 212 127 195 138 181 152 L 66 46 Z M 296 128 C 336 128 371 142 401 172 C 430 201 445 237 445 281 C 445 324 430 360 401 389 C 371 418 336 433 296 433 C 255 433 220 418 191 389 C 161 360 147 324 147 281 C 147 237 161 201 191 172 C 220 142 255 128 296 128 Z" unicode="¤" />
<glyph horiz-adv-x="538" d="M 140 149 L 140 171 L 258 171 L 258 241 L 140 241 L 140 263 L 258 263 L 258 307 L 21 658 L 50 658 L 248 365 L 272 330 L 296 366 L 494 658 L 521 658 L 282 305 L 282 263 L 396 263 L 396 241 L 282 241 L 282 171 L 396 171 L 396 149 L 282 149 L 282 0 L 258 0 L 258 149 L 140 149 Z" unicode="¥" />
<glyph horiz-adv-x="183" d="M 80 316 L 80 724 L 103 724 L 103 316 L 80 316 Z M 80 -220 L 80 188 L 101 188 L 101 -220 L 80 -220 Z" unicode="¦" />
<glyph horiz-adv-x="399" d="M 189 -7 C 164 -7 141 -3 120 3 C 98 10 78 21 60 35 L 60 63 C 79 47 99 35 120 27 C 141 19 164 15 189 15 C 220 15 246 24 267 42 C 288 60 299 84 299 115 C 299 141 291 164 275 182 C 259 200 235 215 202 227 L 187 232 C 147 244 118 261 100 282 C 82 302 73 327 73 357 C 73 379 79 398 92 416 C 104 433 120 446 139 456 C 121 467 108 481 100 497 C 92 513 88 530 88 549 C 88 582 100 610 124 633 C 148 655 178 667 216 667 C 238 667 258 664 278 659 C 298 653 317 645 337 633 L 337 606 C 318 619 299 629 279 636 C 259 642 238 646 216 646 C 186 646 160 637 140 619 C 120 601 110 578 110 550 C 110 529 116 510 130 494 C 143 478 165 464 196 454 L 211 449 C 255 434 287 416 307 395 C 327 373 337 347 337 317 C 337 293 331 272 319 256 C 307 239 292 226 274 216 C 290 203 301 188 309 172 C 317 155 321 136 321 116 C 321 82 309 53 285 29 C 261 5 229 -7 189 -7 Z M 260 209 C 262 209 265 210 267 212 C 269 213 271 214 274 216 C 271 218 268 221 264 223 C 260 225 257 227 254 229 C 274 237 289 249 299 263 C 309 277 315 295 315 317 C 315 341 306 363 288 381 C 270 399 243 414 205 427 L 190 432 C 184 434 178 436 173 438 C 167 440 162 442 158 445 C 160 445 163 446 165 447 C 167 448 170 449 173 450 L 156 464 C 153 463 150 462 147 460 C 144 458 141 457 139 456 C 141 454 144 452 148 450 C 151 448 154 446 158 445 C 139 437 124 425 112 410 C 100 394 95 377 95 358 C 95 334 103 313 119 296 C 135 279 160 265 194 254 L 209 249 C 217 246 225 243 233 240 C 240 236 247 233 254 229 C 251 228 249 227 247 226 C 245 225 242 224 240 224 L 260 209 Z" unicode="§" />
<glyph horiz-adv-x="265" d="M 48 543 L 48 577 L 83 577 L 83 543 L 48 543 Z M 180 543 L 180 577 L 215 577 L 215 543 L 180 543 Z" unicode="¨" />
<glyph horiz-adv-x="648" d="M 324 132 C 246 132 182 158 130 212 C 78 265 52 328 52 402 C 52 476 78 541 130 595 C 182 649 246 676 324 676 C 400 676 464 649 517 595 C 569 541 596 477 596 403 C 596 329 569 266 517 212 C 464 158 400 132 324 132 Z M 324 153 C 391 153 449 176 499 224 C 549 272 574 331 574 402 C 574 474 549 534 499 582 C 449 630 391 655 324 655 C 255 655 196 630 147 582 C 98 534 74 474 74 403 C 74 331 98 272 147 224 C 196 176 255 153 324 153 Z M 325 231 C 279 231 241 246 210 278 C 179 310 164 352 164 404 C 164 457 179 500 210 532 C 241 564 279 581 325 581 C 339 581 356 578 376 572 C 396 566 413 559 429 550 L 429 524 C 415 534 399 542 380 549 C 360 555 342 559 325 559 C 283 559 249 544 224 514 C 199 484 187 448 187 405 C 187 362 199 326 224 297 C 249 267 283 253 325 253 C 342 253 361 256 381 262 C 401 268 419 276 434 286 L 434 262 C 418 252 400 245 380 239 C 360 233 341 231 325 231 Z" unicode="©" />
<glyph horiz-adv-x="378" d="M 174 351 C 140 351 114 360 95 379 C 75 397 66 422 66 453 C 66 483 77 509 100 530 C 123 551 155 564 195 569 L 283 579 L 283 615 C 283 645 274 668 258 684 C 241 699 218 707 190 707 C 170 707 151 704 133 698 C 114 692 96 683 79 671 L 79 697 C 97 707 115 714 134 720 C 153 726 172 729 192 729 C 226 729 254 719 275 699 C 296 679 307 651 307 615 L 307 360 L 286 360 L 283 410 C 271 391 256 376 237 366 C 218 356 197 351 174 351 Z M 177 372 C 201 372 223 378 242 391 C 260 403 274 420 283 441 L 283 559 L 198 549 C 164 544 137 533 118 517 C 99 500 90 479 90 454 C 90 429 97 409 113 394 C 129 379 150 372 177 372 Z M 65 260 L 65 281 L 307 281 L 307 260 L 65 260 Z" unicode="ª" />
<glyph horiz-adv-x="411" d="M 195 71 L 40 226 L 195 382 L 225 382 L 71 226 L 225 71 L 195 71 Z M 331 71 L 176 226 L 331 382 L 361 382 L 206 226 L 361 71 L 331 71 Z" unicode="«" />
<glyph horiz-adv-x="392" d="M 311 191 L 311 282 L 40 282 L 40 303 L 334 303 L 334 191 L 311 191 Z" unicode="¬" />
<glyph horiz-adv-x="339" d="M 41 210 L 41 232 L 305 232 L 305 210 L 41 210 Z" unicode="­" />
<glyph horiz-adv-x="648" d="M 324 132 C 246 132 182 158 130 212 C 78 265 52 329 52 403 C 52 477 78 541 130 595 C 182 649 246 676 324 676 C 400 676 464 649 517 595 C 569 541 596 477 596 403 C 596 329 569 266 517 212 C 464 158 400 132 324 132 Z M 324 153 C 391 153 449 176 499 224 C 549 272 574 331 574 403 C 574 474 549 534 499 582 C 449 630 391 655 324 655 C 255 655 196 630 147 582 C 98 534 74 474 74 403 C 74 331 98 272 147 224 C 196 176 255 153 324 153 Z M 242 231 L 242 581 L 315 581 C 345 581 369 572 388 556 C 407 539 417 517 417 490 C 417 466 409 446 395 429 C 380 412 360 402 334 400 C 342 397 350 392 358 384 C 366 376 374 367 382 355 L 459 231 L 432 231 L 358 350 C 349 365 339 376 329 384 C 318 391 305 395 291 395 L 265 395 L 265 231 L 242 231 Z M 265 416 L 315 416 C 339 416 358 422 372 436 C 386 449 394 467 394 489 C 394 510 386 527 372 541 C 358 554 339 561 315 561 L 265 561 L 265 416 Z" unicode="®" />
<glyph horiz-adv-x="386" d="M 96 540 L 96 561 L 290 561 L 290 540 L 96 540 Z" unicode="¯" />
<glyph horiz-adv-x="327" d="M 165 496 C 131 496 104 507 83 529 C 62 551 52 579 52 612 C 52 644 62 672 83 694 C 104 716 131 728 165 728 C 197 728 224 716 245 694 C 266 672 277 644 277 612 C 277 579 266 551 245 529 C 224 507 197 496 165 496 Z M 165 516 C 189 516 211 525 229 543 C 247 561 256 584 256 612 C 256 640 247 663 229 681 C 211 699 189 708 165 708 C 139 708 118 699 100 681 C 82 663 73 640 73 612 C 73 584 82 561 100 543 C 118 525 139 516 165 516 Z" unicode="°" />
<glyph horiz-adv-x="532" d="M 255 66 L 255 277 L 52 277 L 52 298 L 255 298 L 255 508 L 277 508 L 277 298 L 480 298 L 480 277 L 277 277 L 277 66 L 255 66 Z M 43 -24 L 43 -3 L 471 -3 L 471 -24 L 43 -24 Z" unicode="±" />
<glyph horiz-adv-x="309" d="M 37 440 L 37 473 C 106 516 157 555 191 590 C 225 624 242 659 242 695 C 242 722 233 744 216 761 C 198 777 175 786 147 786 C 129 786 112 783 94 777 C 76 771 59 762 45 752 L 45 778 C 58 787 74 794 92 800 C 110 805 128 808 147 808 C 183 808 211 797 233 776 C 255 755 266 728 266 696 C 266 658 248 620 213 583 C 178 546 127 506 59 463 L 272 463 L 272 440 L 37 440 Z" unicode="²" />
<glyph horiz-adv-x="297" d="M 145 432 C 124 432 105 435 87 442 C 69 448 52 458 37 472 L 37 500 C 51 485 68 474 86 466 C 104 458 124 454 145 454 C 172 454 194 461 211 476 C 227 490 236 509 236 533 C 236 557 226 577 208 593 C 189 608 162 616 127 616 L 112 616 L 112 638 L 126 638 C 158 638 184 645 202 659 C 220 673 229 693 229 717 C 229 738 221 755 207 767 C 192 779 173 786 149 786 C 131 786 114 783 98 777 C 82 771 67 762 55 750 L 55 776 C 68 786 83 793 99 799 C 115 805 132 808 149 808 C 181 808 206 800 225 784 C 243 768 253 746 253 718 C 253 695 245 676 231 660 C 217 644 196 633 170 627 C 198 623 220 612 236 596 C 252 580 260 559 260 534 C 260 503 249 478 229 460 C 209 441 181 432 145 432 Z" unicode="³" />
<glyph horiz-adv-x="238" d="M 82 524 L 55 524 L 153 649 L 183 649 L 82 524 Z" unicode="´" />
<glyph horiz-adv-x="370" d="M 125 0 L 125 519 C 102 519 84 525 71 538 C 57 550 51 567 51 588 C 51 609 58 626 72 639 C 86 651 106 658 131 658 L 283 658 L 283 0 L 259 0 L 259 636 L 149 636 L 149 0 L 125 0 Z" unicode="¶" />
<glyph horiz-adv-x="149" d="M 56 194 L 56 228 L 90 228 L 90 194 L 56 194 Z" unicode="·" />
<glyph horiz-adv-x="230" d="M 120 -181 C 110 -181 101 -179 91 -177 C 81 -174 72 -170 64 -166 L 64 -144 C 71 -149 80 -153 90 -157 C 100 -160 109 -162 119 -162 C 133 -162 145 -157 153 -149 C 161 -140 166 -129 166 -115 C 166 -100 161 -88 151 -80 C 141 -72 127 -68 111 -68 L 105 -68 L 105 -48 L 111 -48 C 134 -48 153 -54 167 -66 C 181 -78 188 -94 188 -114 C 188 -134 181 -150 169 -162 C 157 -174 140 -181 120 -181 Z" unicode="¸" />
<glyph horiz-adv-x="278" d="M 41 440 L 41 462 L 133 462 L 133 784 L 35 763 L 35 786 L 157 814 L 157 462 L 250 462 L 250 440 L 41 440 Z" unicode="¹" />
<glyph horiz-adv-x="487" d="M 244 354 C 191 354 148 371 115 405 C 81 439 65 485 65 541 C 65 597 81 643 115 678 C 148 712 191 730 244 730 C 296 730 339 712 372 678 C 405 644 422 598 422 542 C 422 485 405 439 372 405 C 339 371 296 354 244 354 Z M 244 375 C 289 375 326 390 355 420 C 383 450 398 491 398 541 C 398 591 383 632 355 663 C 326 693 289 709 244 709 C 198 709 160 693 132 663 C 103 632 89 592 89 542 C 89 492 103 451 132 421 C 160 390 198 375 244 375 Z M 72 260 L 72 281 L 416 281 L 416 260 L 72 260 Z" unicode="º" />
<glyph horiz-adv-x="412" d="M 51 71 L 205 226 L 51 382 L 81 382 L 236 226 L 81 71 L 51 71 Z M 187 71 L 341 226 L 187 382 L 217 382 L 372 226 L 217 71 L 187 71 Z" unicode="»" />
<glyph horiz-adv-x="643" d="M 41 360 L 41 382 L 133 382 L 133 704 L 35 683 L 35 706 L 157 734 L 157 382 L 250 382 L 250 360 L 41 360 Z M 195 0 L 451 724 L 473 724 L 217 0 L 195 0 Z M 528 0 L 528 102 L 358 102 L 358 119 L 523 363 L 551 363 L 551 123 L 612 123 L 612 102 L 551 102 L 551 0 L 528 0 Z M 528 123 L 528 334 L 386 123 L 528 123 Z" unicode="¼" />
<glyph horiz-adv-x="675" d="M 41 360 L 41 382 L 133 382 L 133 704 L 35 683 L 35 706 L 157 734 L 157 382 L 250 382 L 250 360 L 41 360 Z M 195 0 L 451 724 L 473 724 L 217 0 L 195 0 Z M 403 0 L 403 33 C 472 76 523 115 557 150 C 591 184 608 219 608 255 C 608 282 599 304 582 321 C 564 337 541 346 513 346 C 495 346 478 343 460 337 C 442 331 425 322 411 312 L 411 338 C 424 347 440 354 458 360 C 476 365 494 368 513 368 C 549 368 577 357 599 336 C 621 315 632 288 632 256 C 632 218 614 180 579 143 C 544 106 493 66 425 23 L 638 23 L 638 0 L 403 0 Z" unicode="½" />
<glyph horiz-adv-x="661" d="M 145 352 C 124 352 105 355 87 362 C 69 368 52 378 37 392 L 37 420 C 51 405 68 394 86 386 C 104 378 124 374 145 374 C 172 374 194 381 211 396 C 227 410 236 429 236 453 C 236 477 226 497 208 513 C 189 528 162 536 127 536 L 112 536 L 112 558 L 126 558 C 158 558 184 565 202 579 C 220 593 229 613 229 637 C 229 658 221 675 207 687 C 192 699 173 706 149 706 C 131 706 114 703 98 697 C 82 691 67 682 55 670 L 55 696 C 68 706 83 713 99 719 C 115 725 132 728 149 728 C 181 728 206 720 225 704 C 243 688 253 666 253 638 C 253 615 245 596 231 580 C 217 564 196 553 170 547 C 198 543 220 532 236 516 C 252 500 260 479 260 454 C 260 423 249 398 229 380 C 209 361 181 352 145 352 Z M 200 0 L 456 724 L 478 724 L 222 0 L 200 0 Z M 547 0 L 547 102 L 377 102 L 377 119 L 542 363 L 570 363 L 570 123 L 631 123 L 631 102 L 570 102 L 570 0 L 547 0 Z M 547 123 L 547 334 L 405 123 L 547 123 Z" unicode="¾" />
<glyph horiz-adv-x="431" d="M 220 477 L 220 510 L 253 510 L 253 477 L 220 477 Z M 236 -219 C 176 -219 129 -201 94 -167 C 58 -132 41 -89 41 -37 C 41 -3 48 29 62 59 C 76 89 100 121 134 154 C 166 185 189 215 203 243 C 217 271 224 306 224 347 L 248 347 C 248 307 240 271 226 240 C 212 209 186 175 149 138 C 120 109 99 81 85 53 C 71 25 65 -4 65 -36 C 65 -82 80 -120 111 -151 C 142 -182 184 -198 236 -198 C 265 -198 294 -191 323 -179 C 351 -166 374 -149 392 -129 L 392 -160 C 373 -178 349 -192 321 -203 C 293 -213 264 -219 236 -219 Z" unicode="¿" />
<glyph horiz-adv-x="594" d="M 302 724 L 201 849 L 231 849 L 329 724 L 302 724 Z M 24 0 L 285 670 L 308 670 L 570 0 L 544 0 L 446 254 L 146 254 L 47 0 L 24 0 Z M 154 275 L 437 275 L 311 598 L 296 639 L 280 598 L 154 275 Z" unicode="À" />
<glyph horiz-adv-x="594" d="M 291 724 L 264 724 L 362 849 L 392 849 L 291 724 Z M 24 0 L 285 670 L 308 670 L 570 0 L 544 0 L 446 254 L 146 254 L 47 0 L 24 0 Z M 154 275 L 437 275 L 311 598 L 296 639 L 280 598 L 154 275 Z" unicode="Á" />
<glyph horiz-adv-x="594" d="M 213 724 L 185 724 L 288 843 L 304 843 L 407 724 L 379 724 L 296 819 L 213 724 Z M 24 0 L 285 670 L 308 670 L 570 0 L 544 0 L 446 254 L 146 254 L 47 0 L 24 0 Z M 154 275 L 437 275 L 311 598 L 296 639 L 280 598 L 154 275 Z" unicode="Â" />
<glyph horiz-adv-x="594" d="M 178 725 L 159 725 C 161 751 169 770 183 782 C 196 794 212 800 231 800 C 242 800 253 797 264 792 C 275 786 288 777 303 765 C 313 756 323 749 331 744 C 339 739 349 737 359 737 C 372 737 383 741 392 750 C 401 759 407 773 410 792 L 429 792 C 425 764 416 744 403 733 C 389 721 374 716 357 716 C 344 716 332 718 322 724 C 311 730 299 739 285 751 C 273 760 263 767 255 772 C 246 776 237 779 229 779 C 215 779 204 774 195 765 C 186 756 180 743 178 725 Z M 24 0 L 285 670 L 308 670 L 570 0 L 544 0 L 446 254 L 146 254 L 47 0 L 24 0 Z M 154 275 L 437 275 L 311 598 L 296 639 L 280 598 L 154 275 Z" unicode="Ã" />
<glyph horiz-adv-x="594" d="M 212 724 L 212 759 L 247 759 L 247 724 L 212 724 Z M 344 724 L 344 759 L 379 759 L 379 724 L 344 724 Z M 24 0 L 285 670 L 308 670 L 570 0 L 544 0 L 446 254 L 146 254 L 47 0 L 24 0 Z M 154 275 L 437 275 L 311 598 L 296 639 L 280 598 L 154 275 Z" unicode="Ä" />
<glyph horiz-adv-x="594" d="M 24 0 L 279 654 C 263 657 251 665 242 677 C 233 689 229 703 229 719 C 229 737 235 753 247 767 C 259 780 276 787 297 787 C 317 787 333 780 345 767 C 357 753 364 737 364 719 C 364 703 359 689 350 677 C 341 665 329 657 314 654 L 570 0 L 544 0 L 446 254 L 146 254 L 47 0 L 24 0 Z M 297 671 C 309 671 320 675 329 684 C 338 693 343 705 343 719 C 343 733 338 745 329 754 C 320 762 309 767 297 767 C 284 767 273 762 264 754 C 255 745 251 733 251 719 C 251 705 255 693 264 684 C 273 675 284 671 297 671 Z M 154 275 L 437 275 L 311 598 L 296 639 L 280 598 L 154 275 Z" unicode="Å" />
<glyph horiz-adv-x="800" d="M 13 0 L 271 439 L 299 448 L 386 598 L 407 637 L 407 646 L 412 646 L 407 637 L 407 481 L 299 448 L 194 267 L 223 267 L 163 219 L 13 0 Z M 732 129 L 732 112 L 409 112 L 409 378 L 407 378 L 407 481 L 428 488 L 428 504 L 481 504 L 546 524 L 545 504 L 481 504 L 428 488 L 428 232 L 722 232 L 722 215 L 431 215 L 431 129 L 732 129 Z M 364 380 L 362 378 L 407 378 L 407 267 L 223 267 L 362 378 L 355 378 L 364 380 Z" unicode="Æ" />
<glyph horiz-adv-x="660" d="M 398 -11 C 297 -11 215 19 152 81 C 88 143 57 225 57 328 C 57 430 88 513 150 575 C 212 637 295 669 398 669 C 436 669 471 665 505 657 C 539 649 571 637 603 621 L 603 595 C 571 613 539 626 506 634 C 472 642 436 647 398 647 C 302 647 226 617 168 559 C 110 501 82 424 82 328 C 82 231 111 154 170 97 C 228 39 304 11 398 11 C 437 11 474 16 509 26 C 543 36 577 52 610 74 L 610 47 C 577 27 543 13 508 3 C 472 -6 436 -11 398 -11 Z M 399 -181 C 389 -181 380 -179 370 -177 C 360 -174 351 -170 343 -166 L 343 -144 C 350 -149 359 -153 369 -157 C 379 -160 388 -162 398 -162 C 412 -162 424 -157 432 -149 C 440 -140 445 -129 445 -115 C 445 -100 440 -88 430 -80 C 420 -72 406 -68 390 -68 L 384 -68 L 384 -48 L 390 -48 C 413 -48 432 -54 446 -66 C 460 -78 467 -94 467 -114 C 467 -134 460 -150 448 -162 C 436 -174 419 -181 399 -181 Z" unicode="Ç" />
<glyph horiz-adv-x="475" d="M 257 724 L 156 849 L 186 849 L 284 724 L 257 724 Z M 84 0 L 84 658 L 404 658 L 404 636 L 108 636 L 108 344 L 388 344 L 388 323 L 108 323 L 108 22 L 416 22 L 416 0 L 84 0 Z" unicode="È" />
<glyph horiz-adv-x="475" d="M 246 724 L 219 724 L 317 849 L 347 849 L 246 724 Z M 84 0 L 84 658 L 404 658 L 404 636 L 108 636 L 108 344 L 388 344 L 388 323 L 108 323 L 108 22 L 416 22 L 416 0 L 84 0 Z" unicode="É" />
<glyph horiz-adv-x="475" d="M 168 724 L 140 724 L 243 843 L 259 843 L 362 724 L 334 724 L 251 819 L 168 724 Z M 84 0 L 84 658 L 404 658 L 404 636 L 108 636 L 108 344 L 388 344 L 388 323 L 108 323 L 108 22 L 416 22 L 416 0 L 84 0 Z" unicode="Ê" />
<glyph horiz-adv-x="475" d="M 167 724 L 167 759 L 202 759 L 202 724 L 167 724 Z M 299 724 L 299 759 L 334 759 L 334 724 L 299 724 Z M 84 0 L 84 658 L 404 658 L 404 636 L 108 636 L 108 344 L 388 344 L 388 323 L 108 323 L 108 22 L 416 22 L 416 0 L 84 0 Z" unicode="Ë" />
<glyph horiz-adv-x="192" d="M 102 724 L 1 849 L 31 849 L 129 724 L 102 724 Z M 84 0 L 84 658 L 108 658 L 108 0 L 84 0 Z" unicode="Ì" />
<glyph horiz-adv-x="192" d="M 91 724 L 64 724 L 162 849 L 192 849 L 91 724 Z M 84 0 L 84 658 L 108 658 L 108 0 L 84 0 Z" unicode="Í" />
<glyph horiz-adv-x="192" d="M 13 724 L -15 724 L 88 843 L 104 843 L 207 724 L 179 724 L 96 819 L 13 724 Z M 84 0 L 84 658 L 108 658 L 108 0 L 84 0 Z" unicode="Î" />
<glyph horiz-adv-x="192" d="M 12 724 L 12 759 L 47 759 L 47 724 L 12 724 Z M 144 724 L 144 759 L 179 759 L 179 724 L 144 724 Z M 84 0 L 84 658 L 108 658 L 108 0 L 84 0 Z" unicode="Ï" />
<glyph horiz-adv-x="682" d="M 85 0 L 85 323 L 17 323 L 17 345 L 85 345 L 85 658 L 261 658 C 370 658 458 628 524 570 C 590 511 624 433 624 337 C 624 236 590 155 523 93 C 455 31 365 0 253 0 L 85 0 Z M 109 22 L 254 22 C 358 22 442 50 505 108 C 568 165 600 241 600 337 C 600 427 569 499 508 554 C 446 608 364 636 262 636 L 109 636 L 109 345 L 257 345 L 257 323 L 109 323 L 109 22 Z" unicode="Ð" />
<glyph horiz-adv-x="703" d="M 233 725 L 214 725 C 216 751 224 770 238 782 C 251 794 267 800 286 800 C 297 800 308 797 319 792 C 330 786 343 777 358 765 C 368 756 378 749 386 744 C 394 739 404 737 414 737 C 427 737 438 741 447 750 C 456 759 462 773 465 792 L 484 792 C 480 764 471 744 458 733 C 444 721 429 716 412 716 C 399 716 387 718 377 724 C 366 730 354 739 340 751 C 328 760 318 767 310 772 C 301 776 292 779 284 779 C 270 779 259 774 250 765 C 241 756 235 743 233 725 Z M 84 0 L 84 658 L 113 658 L 565 71 L 597 29 L 597 658 L 619 658 L 619 0 L 590 0 L 138 587 L 106 629 L 106 0 L 84 0 Z" unicode="Ñ" />
<glyph horiz-adv-x="775" d="M 394 729 L 293 854 L 323 854 L 421 729 L 394 729 Z M 387 -12 C 290 -12 211 19 149 83 C 87 146 57 228 57 329 C 57 430 87 512 149 575 C 211 638 290 670 387 670 C 484 670 563 638 625 575 C 686 512 717 430 717 329 C 717 228 686 146 625 83 C 563 19 484 -12 387 -12 Z M 387 10 C 476 10 549 39 607 98 C 664 156 693 233 693 329 C 693 424 664 501 607 560 C 549 618 476 648 387 648 C 297 648 224 618 167 560 C 110 501 82 424 82 329 C 82 233 110 156 167 98 C 224 39 297 10 387 10 Z" unicode="Ò" />
<glyph horiz-adv-x="775" d="M 383 729 L 356 729 L 454 854 L 484 854 L 383 729 Z M 387 -12 C 290 -12 211 19 149 83 C 87 146 57 228 57 329 C 57 430 87 512 149 575 C 211 638 290 670 387 670 C 484 670 563 638 625 575 C 686 512 717 430 717 329 C 717 228 686 146 625 83 C 563 19 484 -12 387 -12 Z M 387 10 C 476 10 549 39 607 98 C 664 156 693 233 693 329 C 693 424 664 501 607 560 C 549 618 476 648 387 648 C 297 648 224 618 167 560 C 110 501 82 424 82 329 C 82 233 110 156 167 98 C 224 39 297 10 387 10 Z" unicode="Ó" />
<glyph horiz-adv-x="775" d="M 305 729 L 277 729 L 380 848 L 396 848 L 499 729 L 471 729 L 388 824 L 305 729 Z M 387 -12 C 290 -12 211 19 149 83 C 87 146 57 228 57 329 C 57 430 87 512 149 575 C 211 638 290 670 387 670 C 484 670 563 638 625 575 C 686 512 717 430 717 329 C 717 228 686 146 625 83 C 563 19 484 -12 387 -12 Z M 387 10 C 476 10 549 39 607 98 C 664 156 693 233 693 329 C 693 424 664 501 607 560 C 549 618 476 648 387 648 C 297 648 224 618 167 560 C 110 501 82 424 82 329 C 82 233 110 156 167 98 C 224 39 297 10 387 10 Z" unicode="Ô" />
<glyph horiz-adv-x="775" d="M 270 730 L 251 730 C 253 756 261 775 275 787 C 288 799 304 805 323 805 C 334 805 345 802 356 797 C 367 791 380 782 395 770 C 405 761 415 754 423 749 C 431 744 441 742 451 742 C 464 742 475 746 484 755 C 493 764 499 778 502 797 L 521 797 C 517 769 508 749 495 738 C 481 726 466 721 449 721 C 436 721 424 723 414 729 C 403 735 391 744 377 756 C 365 765 355 772 347 777 C 338 781 329 784 321 784 C 307 784 296 779 287 770 C 278 761 272 748 270 730 Z M 387 -12 C 290 -12 211 19 149 83 C 87 146 57 228 57 329 C 57 430 87 512 149 575 C 211 638 290 670 387 670 C 484 670 563 638 625 575 C 686 512 717 430 717 329 C 717 228 686 146 625 83 C 563 19 484 -12 387 -12 Z M 387 10 C 476 10 549 39 607 98 C 664 156 693 233 693 329 C 693 424 664 501 607 560 C 549 618 476 648 387 648 C 297 648 224 618 167 560 C 110 501 82 424 82 329 C 82 233 110 156 167 98 C 224 39 297 10 387 10 Z" unicode="Õ" />
<glyph horiz-adv-x="775" d="M 304 729 L 304 764 L 339 764 L 339 729 L 304 729 Z M 436 729 L 436 764 L 471 764 L 471 729 L 436 729 Z M 387 -12 C 290 -12 211 19 149 83 C 87 146 57 228 57 329 C 57 430 87 512 149 575 C 211 638 290 670 387 670 C 484 670 563 638 625 575 C 686 512 717 430 717 329 C 717 228 686 146 625 83 C 563 19 484 -12 387 -12 Z M 387 10 C 476 10 549 39 607 98 C 664 156 693 233 693 329 C 693 424 664 501 607 560 C 549 618 476 648 387 648 C 297 648 224 618 167 560 C 110 501 82 424 82 329 C 82 233 110 156 167 98 C 224 39 297 10 387 10 Z" unicode="Ö" />
<glyph horiz-adv-x="482" d="M 84 118 L 69 133 L 225 288 L 67 448 L 81 462 L 240 303 L 395 459 L 410 444 L 255 288 L 415 128 L 401 113 L 240 273 L 84 118 Z" unicode="×" />
<glyph horiz-adv-x="775" d="M 144 -48 L 199 41 C 155 69 120 108 95 158 C 69 208 57 265 57 329 C 57 430 87 512 149 575 C 211 638 290 670 387 670 C 419 670 450 666 479 659 C 507 651 534 641 559 627 L 607 706 L 633 706 L 578 616 C 620 587 654 548 679 498 C 704 448 717 392 717 329 C 717 228 686 146 625 83 C 563 19 484 -12 387 -12 C 355 -12 324 -8 296 -1 C 268 6 242 16 218 30 L 170 -48 L 144 -48 Z M 82 329 C 82 269 93 217 116 171 C 139 125 171 88 211 61 L 547 608 C 524 620 499 630 472 637 C 445 644 417 648 387 648 C 297 648 224 618 167 560 C 110 501 82 424 82 329 Z M 387 10 C 476 10 549 39 607 98 C 664 156 693 233 693 329 C 693 387 681 440 659 486 C 636 532 605 568 565 596 L 230 49 C 252 36 277 26 303 20 C 329 13 357 10 387 10 Z" unicode="Ø" />
<glyph horiz-adv-x="662" d="M 339 724 L 238 849 L 268 849 L 366 724 L 339 724 Z M 330 -11 C 255 -11 194 13 148 63 C 102 112 79 177 79 257 L 79 658 L 103 658 L 103 257 C 103 183 124 124 166 79 C 208 34 262 12 330 12 C 399 12 455 34 497 79 C 539 124 560 183 560 257 L 560 658 L 583 658 L 583 257 C 583 177 559 112 513 63 C 467 13 406 -11 330 -11 Z" unicode="Ù" />
<glyph horiz-adv-x="662" d="M 328 724 L 301 724 L 399 849 L 429 849 L 328 724 Z M 330 -11 C 255 -11 194 13 148 63 C 102 112 79 177 79 257 L 79 658 L 103 658 L 103 257 C 103 183 124 124 166 79 C 208 34 262 12 330 12 C 399 12 455 34 497 79 C 539 124 560 183 560 257 L 560 658 L 583 658 L 583 257 C 583 177 559 112 513 63 C 467 13 406 -11 330 -11 Z" unicode="Ú" />
<glyph horiz-adv-x="662" d="M 250 724 L 222 724 L 325 843 L 341 843 L 444 724 L 416 724 L 333 819 L 250 724 Z M 330 -11 C 255 -11 194 13 148 63 C 102 112 79 177 79 257 L 79 658 L 103 658 L 103 257 C 103 183 124 124 166 79 C 208 34 262 12 330 12 C 399 12 455 34 497 79 C 539 124 560 183 560 257 L 560 658 L 583 658 L 583 257 C 583 177 559 112 513 63 C 467 13 406 -11 330 -11 Z" unicode="Û" />
<glyph horiz-adv-x="662" d="M 249 724 L 249 759 L 284 759 L 284 724 L 249 724 Z M 381 724 L 381 759 L 416 759 L 416 724 L 381 724 Z M 330 -11 C 255 -11 194 13 148 63 C 102 112 79 177 79 257 L 79 658 L 103 658 L 103 257 C 103 183 124 124 166 79 C 208 34 262 12 330 12 C 399 12 455 34 497 79 C 539 124 560 183 560 257 L 560 658 L 583 658 L 583 257 C 583 177 559 112 513 63 C 467 13 406 -11 330 -11 Z" unicode="Ü" />
<glyph horiz-adv-x="534" d="M 262 724 L 235 724 L 333 849 L 363 849 L 262 724 Z M 254 0 L 254 307 L 17 658 L 46 658 L 244 365 L 268 330 L 292 366 L 490 658 L 517 658 L 278 305 L 278 0 L 254 0 Z" unicode="Ý" />
<glyph horiz-adv-x="461" d="M 84 0 L 84 658 L 108 658 L 108 525 L 187 525 C 251 525 302 507 342 473 C 382 439 402 393 402 335 C 402 277 382 230 342 196 C 302 162 251 145 187 145 L 108 145 L 108 0 L 84 0 Z M 108 167 L 187 167 C 243 167 288 182 324 213 C 360 243 378 284 378 335 C 378 385 360 426 324 457 C 288 487 242 503 186 503 L 108 503 L 108 167 Z" unicode="Þ" />
<glyph horiz-adv-x="509" d="M 75 0 L 75 527 C 75 589 92 640 126 678 C 160 716 205 735 261 735 C 317 735 363 715 399 677 C 434 639 452 586 452 519 C 452 504 451 488 449 472 C 447 455 446 439 444 425 C 432 429 416 434 396 440 C 375 446 354 449 334 449 C 299 449 272 441 252 425 C 232 409 222 386 222 358 C 222 334 230 313 246 296 C 262 279 286 265 318 255 L 333 250 C 377 235 409 216 430 194 C 450 172 461 144 461 111 C 461 75 449 46 425 24 C 401 2 369 -9 330 -9 C 305 -9 281 -5 259 2 C 237 9 216 19 197 32 L 197 59 C 215 43 236 32 259 24 C 281 16 305 13 330 13 C 362 13 389 22 409 40 C 429 58 439 81 439 110 C 439 138 429 162 411 181 C 393 199 365 215 327 228 L 312 233 C 274 245 246 262 228 283 C 209 303 200 328 200 358 C 200 392 211 420 235 440 C 259 460 291 471 331 471 C 347 471 362 469 378 467 C 393 464 409 460 426 454 C 437 528 428 590 399 640 C 370 689 324 714 261 714 C 212 714 173 697 143 663 C 113 629 98 583 98 527 L 98 0 L 75 0 Z" unicode="ß" />
<glyph horiz-adv-x="427" d="M 214 524 L 113 649 L 143 649 L 241 524 L 214 524 Z M 189 -9 C 145 -9 111 2 85 26 C 59 50 47 81 47 120 C 47 158 61 190 91 217 C 121 244 161 260 213 266 L 331 279 L 331 327 C 331 367 320 397 298 418 C 276 438 246 449 208 449 C 182 449 158 445 135 437 C 111 429 89 417 67 401 L 67 429 C 89 442 111 452 135 460 C 159 467 183 471 208 471 C 253 471 289 458 315 434 C 341 409 355 373 355 327 L 355 0 L 335 0 L 331 65 C 315 41 295 22 271 10 C 247 -2 219 -9 189 -9 Z M 189 12 C 221 12 249 19 274 35 C 298 51 317 72 331 98 L 331 258 L 216 245 C 170 240 134 226 109 204 C 83 181 71 153 71 120 C 71 87 81 61 103 41 C 124 21 153 12 189 12 Z" unicode="à" />
<glyph horiz-adv-x="427" d="M 203 524 L 176 524 L 274 649 L 304 649 L 203 524 Z M 189 -9 C 145 -9 111 2 85 26 C 59 50 47 81 47 120 C 47 158 61 190 91 217 C 121 244 161 260 213 266 L 331 279 L 331 327 C 331 367 320 397 298 418 C 276 438 246 449 208 449 C 182 449 158 445 135 437 C 111 429 89 417 67 401 L 67 429 C 89 442 111 452 135 460 C 159 467 183 471 208 471 C 253 471 289 458 315 434 C 341 409 355 373 355 327 L 355 0 L 335 0 L 331 65 C 315 41 295 22 271 10 C 247 -2 219 -9 189 -9 Z M 189 12 C 221 12 249 19 274 35 C 298 51 317 72 331 98 L 331 258 L 216 245 C 170 240 134 226 109 204 C 83 181 71 153 71 120 C 71 87 81 61 103 41 C 124 21 153 12 189 12 Z" unicode="á" />
<glyph horiz-adv-x="427" d="M 125 524 L 97 524 L 200 643 L 216 643 L 319 524 L 291 524 L 208 619 L 125 524 Z M 189 -9 C 145 -9 111 2 85 26 C 59 50 47 81 47 120 C 47 158 61 190 91 217 C 121 244 161 260 213 266 L 331 279 L 331 327 C 331 367 320 397 298 418 C 276 438 246 449 208 449 C 182 449 158 445 135 437 C 111 429 89 417 67 401 L 67 429 C 89 442 111 452 135 460 C 159 467 183 471 208 471 C 253 471 289 458 315 434 C 341 409 355 373 355 327 L 355 0 L 335 0 L 331 65 C 315 41 295 22 271 10 C 247 -2 219 -9 189 -9 Z M 189 12 C 221 12 249 19 274 35 C 298 51 317 72 331 98 L 331 258 L 216 245 C 170 240 134 226 109 204 C 83 181 71 153 71 120 C 71 87 81 61 103 41 C 124 21 153 12 189 12 Z" unicode="â" />
<glyph horiz-adv-x="427" d="M 90 532 L 71 532 C 73 558 81 577 95 589 C 108 601 124 607 143 607 C 154 607 165 604 176 599 C 187 593 200 584 215 572 C 225 563 235 556 243 551 C 251 545 261 543 271 543 C 284 543 295 547 304 556 C 313 565 319 579 322 598 L 341 598 C 337 570 328 551 315 539 C 301 527 286 522 269 522 C 256 522 244 525 234 531 C 223 537 211 545 197 557 C 185 566 175 573 167 578 C 158 583 149 586 141 586 C 127 586 116 581 107 572 C 98 563 92 550 90 532 Z M 189 -9 C 145 -9 111 2 85 26 C 59 50 47 81 47 120 C 47 158 61 190 91 217 C 121 244 161 260 213 266 L 331 279 L 331 327 C 331 367 320 397 298 418 C 276 438 246 449 208 449 C 182 449 158 445 135 437 C 111 429 89 417 67 401 L 67 429 C 89 442 111 452 135 460 C 159 467 183 471 208 471 C 253 471 289 458 315 434 C 341 409 355 373 355 327 L 355 0 L 335 0 L 331 65 C 315 41 295 22 271 10 C 247 -2 219 -9 189 -9 Z M 189 12 C 221 12 249 19 274 35 C 298 51 317 72 331 98 L 331 258 L 216 245 C 170 240 134 226 109 204 C 83 181 71 153 71 120 C 71 87 81 61 103 41 C 124 21 153 12 189 12 Z" unicode="ã" />
<glyph horiz-adv-x="427" d="M 124 543 L 124 577 L 159 577 L 159 543 L 124 543 Z M 256 543 L 256 577 L 291 577 L 291 543 L 256 543 Z M 189 -9 C 145 -9 111 2 85 26 C 59 50 47 81 47 120 C 47 158 61 190 91 217 C 121 244 161 260 213 266 L 331 279 L 331 327 C 331 367 320 397 298 418 C 276 438 246 449 208 449 C 182 449 158 445 135 437 C 111 429 89 417 67 401 L 67 429 C 89 442 111 452 135 460 C 159 467 183 471 208 471 C 253 471 289 458 315 434 C 341 409 355 373 355 327 L 355 0 L 335 0 L 331 65 C 315 41 295 22 271 10 C 247 -2 219 -9 189 -9 Z M 189 12 C 221 12 249 19 274 35 C 298 51 317 72 331 98 L 331 258 L 216 245 C 170 240 134 226 109 204 C 83 181 71 153 71 120 C 71 87 81 61 103 41 C 124 21 153 12 189 12 Z" unicode="ä" />
<glyph horiz-adv-x="427" d="M 209 500 C 188 500 171 506 159 520 C 147 533 141 549 141 568 C 141 586 147 602 159 616 C 171 629 188 636 209 636 C 229 636 245 629 257 616 C 269 602 276 586 276 568 C 276 549 269 533 257 520 C 245 506 229 500 209 500 Z M 209 520 C 221 520 232 524 241 533 C 250 542 255 554 255 568 C 255 582 250 593 241 602 C 232 611 221 616 209 616 C 196 616 185 611 176 602 C 167 593 163 582 163 568 C 163 554 167 542 176 533 C 185 524 196 520 209 520 Z M 189 -9 C 145 -9 111 2 85 26 C 59 50 47 81 47 120 C 47 158 61 190 91 217 C 121 244 161 260 213 266 L 331 279 L 331 327 C 331 367 320 397 298 418 C 276 438 246 449 208 449 C 182 449 158 445 135 437 C 111 429 89 417 67 401 L 67 429 C 89 442 111 452 135 460 C 159 467 183 471 208 471 C 253 471 289 458 315 434 C 341 409 355 373 355 327 L 355 0 L 335 0 L 331 65 C 315 41 295 22 271 10 C 247 -2 219 -9 189 -9 Z M 189 12 C 221 12 249 19 274 35 C 298 51 317 72 331 98 L 331 258 L 216 245 C 170 240 134 226 109 204 C 83 181 71 153 71 120 C 71 87 81 61 103 41 C 124 21 153 12 189 12 Z" unicode="å" />
<glyph horiz-adv-x="770" d="M 185 -9 C 143 -9 109 2 84 26 C 59 50 47 81 47 120 C 47 160 61 193 91 219 C 121 244 162 259 214 264 L 329 273 L 329 318 C 329 362 317 394 294 416 C 270 438 241 449 207 449 C 181 449 155 445 131 437 C 106 429 83 417 62 401 L 62 429 C 84 442 107 452 132 460 C 156 467 181 471 207 471 C 247 471 280 460 306 438 C 332 416 346 386 350 348 C 366 387 388 417 418 439 C 448 460 483 471 525 471 C 583 471 630 452 665 414 C 699 376 717 324 717 259 L 717 238 L 353 238 L 353 228 C 353 166 368 114 399 74 C 429 33 476 13 538 13 C 568 13 597 18 625 28 C 653 38 680 54 707 75 L 707 49 C 679 29 652 15 624 5 C 596 -4 567 -9 538 -9 C 488 -9 447 3 415 28 C 383 53 359 88 345 132 C 335 86 316 51 287 27 C 257 3 223 -9 185 -9 Z M 525 450 C 475 450 434 432 403 398 C 372 363 355 317 353 259 L 693 259 C 693 318 677 365 647 399 C 617 433 576 450 525 450 Z M 185 12 C 226 12 260 26 286 56 C 312 86 326 120 329 160 L 329 252 L 217 242 C 169 238 132 225 108 204 C 83 182 71 154 71 120 C 71 87 81 61 102 41 C 122 21 150 12 185 12 Z" unicode="æ" />
<glyph horiz-adv-x="470" d="M 280 -9 C 212 -9 156 12 114 56 C 72 99 51 157 51 229 C 51 303 71 362 112 406 C 152 449 206 471 274 471 C 300 471 325 467 350 461 C 374 454 399 444 423 431 L 423 405 C 398 420 374 431 350 439 C 326 446 300 450 274 450 C 213 450 165 430 129 391 C 93 351 75 298 75 230 C 75 164 93 111 131 71 C 168 31 218 12 280 12 C 305 12 330 16 354 25 C 378 33 401 45 421 60 L 421 34 C 400 20 378 9 354 2 C 330 -5 305 -9 280 -9 Z M 253 -181 C 243 -181 234 -179 224 -177 C 214 -174 205 -170 197 -166 L 197 -144 C 204 -149 213 -153 223 -157 C 233 -160 242 -162 252 -162 C 266 -162 278 -157 286 -149 C 294 -140 299 -129 299 -115 C 299 -100 294 -88 284 -80 C 274 -72 260 -68 244 -68 L 238 -68 L 238 -48 L 244 -48 C 267 -48 286 -54 300 -66 C 314 -78 321 -94 321 -114 C 321 -134 314 -150 302 -162 C 290 -174 273 -181 253 -181 Z" unicode="ç" />
<glyph horiz-adv-x="503" d="M 262 524 L 161 649 L 191 649 L 289 524 L 262 524 Z M 271 -9 C 201 -9 147 12 109 56 C 70 100 51 158 51 232 C 51 303 69 361 107 405 C 145 449 195 471 257 471 C 315 471 362 451 397 413 C 432 375 450 323 450 258 L 450 239 L 75 239 L 75 232 C 75 164 92 111 126 72 C 160 32 209 13 271 13 C 301 13 330 18 358 28 C 386 38 413 54 439 74 L 439 48 C 412 29 385 15 357 5 C 329 -4 300 -9 271 -9 Z M 257 450 C 206 450 164 432 131 398 C 97 363 79 317 76 260 L 426 260 C 426 318 410 364 380 398 C 350 432 309 450 257 450 Z" unicode="è" />
<glyph horiz-adv-x="503" d="M 251 524 L 224 524 L 322 649 L 352 649 L 251 524 Z M 271 -9 C 201 -9 147 12 109 56 C 70 100 51 158 51 232 C 51 303 69 361 107 405 C 145 449 195 471 257 471 C 315 471 362 451 397 413 C 432 375 450 323 450 258 L 450 239 L 75 239 L 75 232 C 75 164 92 111 126 72 C 160 32 209 13 271 13 C 301 13 330 18 358 28 C 386 38 413 54 439 74 L 439 48 C 412 29 385 15 357 5 C 329 -4 300 -9 271 -9 Z M 257 450 C 206 450 164 432 131 398 C 97 363 79 317 76 260 L 426 260 C 426 318 410 364 380 398 C 350 432 309 450 257 450 Z" unicode="é" />
<glyph horiz-adv-x="503" d="M 173 524 L 145 524 L 248 643 L 264 643 L 367 524 L 339 524 L 256 619 L 173 524 Z M 271 -9 C 201 -9 147 12 109 56 C 70 100 51 158 51 232 C 51 303 69 361 107 405 C 145 449 195 471 257 471 C 315 471 362 451 397 413 C 432 375 450 323 450 258 L 450 239 L 75 239 L 75 232 C 75 164 92 111 126 72 C 160 32 209 13 271 13 C 301 13 330 18 358 28 C 386 38 413 54 439 74 L 439 48 C 412 29 385 15 357 5 C 329 -4 300 -9 271 -9 Z M 257 450 C 206 450 164 432 131 398 C 97 363 79 317 76 260 L 426 260 C 426 318 410 364 380 398 C 350 432 309 450 257 450 Z" unicode="ê" />
<glyph horiz-adv-x="503" d="M 172 543 L 172 577 L 207 577 L 207 543 L 172 543 Z M 304 543 L 304 577 L 339 577 L 339 543 L 304 543 Z M 271 -9 C 201 -9 147 12 109 56 C 70 100 51 158 51 232 C 51 303 69 361 107 405 C 145 449 195 471 257 471 C 315 471 362 451 397 413 C 432 375 450 323 450 258 L 450 239 L 75 239 L 75 232 C 75 164 92 111 126 72 C 160 32 209 13 271 13 C 301 13 330 18 358 28 C 386 38 413 54 439 74 L 439 48 C 412 29 385 15 357 5 C 329 -4 300 -9 271 -9 Z M 257 450 C 206 450 164 432 131 398 C 97 363 79 317 76 260 L 426 260 C 426 318 410 364 380 398 C 350 432 309 450 257 450 Z" unicode="ë" />
<glyph horiz-adv-x="175" d="M 94 524 L -7 649 L 23 649 L 121 524 L 94 524 Z M 76 0 L 76 462 L 99 462 L 99 0 L 76 0 Z" unicode="ì" />
<glyph horiz-adv-x="175" d="M 83 524 L 56 524 L 154 649 L 184 649 L 83 524 Z M 76 0 L 76 462 L 99 462 L 99 0 L 76 0 Z" unicode="í" />
<glyph horiz-adv-x="175" d="M 5 524 L -23 524 L 80 643 L 96 643 L 199 524 L 171 524 L 88 619 L 5 524 Z M 76 0 L 76 462 L 99 462 L 99 0 L 76 0 Z" unicode="î" />
<glyph horiz-adv-x="175" d="M 4 543 L 4 577 L 39 577 L 39 543 L 4 543 Z M 136 543 L 136 577 L 171 577 L 171 543 L 136 543 Z M 76 0 L 76 462 L 99 462 L 99 0 L 76 0 Z" unicode="ï" />
<glyph horiz-adv-x="555" d="M 274 -9 C 211 -9 158 13 115 57 C 72 101 51 160 51 234 C 51 306 72 363 116 406 C 160 449 214 471 278 471 C 330 471 373 457 408 429 C 443 401 467 366 480 322 C 475 378 461 433 438 487 C 415 541 383 591 341 637 L 250 607 L 249 629 L 324 654 C 309 668 293 682 276 696 C 259 710 241 723 223 736 L 247 745 C 265 732 283 719 300 705 C 316 691 332 676 347 661 L 436 690 L 437 668 L 363 644 C 407 593 442 536 466 472 C 490 408 503 342 503 274 C 503 188 481 119 438 68 C 394 16 340 -9 274 -9 Z M 274 12 C 338 12 388 35 424 82 C 460 128 479 185 479 252 C 470 314 447 363 411 398 C 375 432 330 450 278 450 C 216 450 166 429 130 388 C 93 346 75 295 75 234 C 75 170 93 117 129 75 C 165 33 214 12 274 12 Z" unicode="ð" />
<glyph horiz-adv-x="477" d="M 119 532 L 100 532 C 102 558 110 577 124 589 C 137 601 153 607 172 607 C 183 607 194 604 205 599 C 216 593 229 584 244 572 C 254 563 264 556 272 551 C 280 545 290 543 300 543 C 313 543 324 547 333 556 C 342 565 348 579 351 598 L 370 598 C 366 570 357 551 344 539 C 330 527 315 522 298 522 C 285 522 273 525 263 531 C 252 537 240 545 226 557 C 214 566 204 573 196 578 C 187 583 178 586 170 586 C 156 586 145 581 136 572 C 127 563 121 550 119 532 Z M 76 0 L 76 462 L 99 462 L 99 393 C 115 417 136 436 162 450 C 188 464 215 471 245 471 C 296 471 335 456 363 426 C 391 396 405 356 405 307 L 405 0 L 382 0 L 382 304 C 382 350 369 386 344 412 C 318 437 285 450 245 450 C 214 450 186 442 160 426 C 134 410 113 389 99 363 L 99 0 L 76 0 Z" unicode="ñ" />
<glyph horiz-adv-x="558" d="M 285 524 L 184 649 L 214 649 L 312 524 L 285 524 Z M 279 -9 C 211 -9 156 13 114 57 C 72 101 51 158 51 230 C 51 302 72 360 114 404 C 156 448 211 471 279 471 C 346 471 401 448 443 404 C 485 360 507 302 507 231 C 507 159 485 101 443 57 C 401 13 346 -9 279 -9 Z M 279 12 C 339 12 388 32 426 72 C 464 112 483 164 483 230 C 483 296 464 349 426 389 C 388 429 339 450 279 450 C 218 450 169 430 131 390 C 93 350 75 297 75 231 C 75 165 93 112 131 72 C 169 32 218 12 279 12 Z" unicode="ò" />
<glyph horiz-adv-x="558" d="M 274 524 L 247 524 L 345 649 L 375 649 L 274 524 Z M 279 -9 C 211 -9 156 13 114 57 C 72 101 51 158 51 230 C 51 302 72 360 114 404 C 156 448 211 471 279 471 C 346 471 401 448 443 404 C 485 360 507 302 507 231 C 507 159 485 101 443 57 C 401 13 346 -9 279 -9 Z M 279 12 C 339 12 388 32 426 72 C 464 112 483 164 483 230 C 483 296 464 349 426 389 C 388 429 339 450 279 450 C 218 450 169 430 131 390 C 93 350 75 297 75 231 C 75 165 93 112 131 72 C 169 32 218 12 279 12 Z" unicode="ó" />
<glyph horiz-adv-x="558" d="M 196 524 L 168 524 L 271 643 L 287 643 L 390 524 L 362 524 L 279 619 L 196 524 Z M 279 -9 C 211 -9 156 13 114 57 C 72 101 51 158 51 230 C 51 302 72 360 114 404 C 156 448 211 471 279 471 C 346 471 401 448 443 404 C 485 360 507 302 507 231 C 507 159 485 101 443 57 C 401 13 346 -9 279 -9 Z M 279 12 C 339 12 388 32 426 72 C 464 112 483 164 483 230 C 483 296 464 349 426 389 C 388 429 339 450 279 450 C 218 450 169 430 131 390 C 93 350 75 297 75 231 C 75 165 93 112 131 72 C 169 32 218 12 279 12 Z" unicode="ô" />
<glyph horiz-adv-x="558" d="M 161 532 L 142 532 C 144 558 152 577 166 589 C 179 601 195 607 214 607 C 225 607 236 604 247 599 C 258 593 271 584 286 572 C 296 563 306 556 314 551 C 322 545 332 543 342 543 C 355 543 366 547 375 556 C 384 565 390 579 393 598 L 412 598 C 408 570 399 551 386 539 C 372 527 357 522 340 522 C 327 522 315 525 305 531 C 294 537 282 545 268 557 C 256 566 246 573 238 578 C 229 583 220 586 212 586 C 198 586 187 581 178 572 C 169 563 163 550 161 532 Z M 279 -9 C 211 -9 156 13 114 57 C 72 101 51 158 51 230 C 51 302 72 360 114 404 C 156 448 211 471 279 471 C 346 471 401 448 443 404 C 485 360 507 302 507 231 C 507 159 485 101 443 57 C 401 13 346 -9 279 -9 Z M 279 12 C 339 12 388 32 426 72 C 464 112 483 164 483 230 C 483 296 464 349 426 389 C 388 429 339 450 279 450 C 218 450 169 430 131 390 C 93 350 75 297 75 231 C 75 165 93 112 131 72 C 169 32 218 12 279 12 Z" unicode="õ" />
<glyph horiz-adv-x="558" d="M 195 543 L 195 577 L 230 577 L 230 543 L 195 543 Z M 327 543 L 327 577 L 362 577 L 362 543 L 327 543 Z M 279 -9 C 211 -9 156 13 114 57 C 72 101 51 158 51 230 C 51 302 72 360 114 404 C 156 448 211 471 279 471 C 346 471 401 448 443 404 C 485 360 507 302 507 231 C 507 159 485 101 443 57 C 401 13 346 -9 279 -9 Z M 279 12 C 339 12 388 32 426 72 C 464 112 483 164 483 230 C 483 296 464 349 426 389 C 388 429 339 450 279 450 C 218 450 169 430 131 390 C 93 350 75 297 75 231 C 75 165 93 112 131 72 C 169 32 218 12 279 12 Z" unicode="ö" />
<glyph horiz-adv-x="532" d="M 250 437 L 250 470 L 284 470 L 284 437 L 250 437 Z M 52 277 L 52 298 L 480 298 L 480 277 L 52 277 Z M 250 104 L 250 137 L 284 137 L 284 104 L 250 104 Z" unicode="÷" />
<glyph horiz-adv-x="558" d="M 96 -48 L 144 31 C 115 51 92 79 76 113 C 59 147 51 186 51 230 C 51 302 72 360 114 404 C 156 448 211 471 279 471 C 300 471 320 468 340 463 C 359 458 377 451 394 443 L 435 510 L 459 510 L 412 432 C 441 412 464 384 481 350 C 498 315 507 275 507 231 C 507 159 485 101 443 57 C 401 13 346 -9 279 -9 C 257 -9 236 -6 216 -1 C 196 3 177 10 161 20 L 120 -48 L 96 -48 Z M 75 231 C 75 191 82 155 96 124 C 110 93 130 68 156 50 L 383 424 C 368 432 352 439 334 443 C 316 447 298 450 279 450 C 218 450 169 430 131 390 C 93 350 75 297 75 231 Z M 279 12 C 339 12 388 32 426 72 C 464 112 483 164 483 230 C 483 270 475 305 461 337 C 446 369 426 394 400 413 L 173 39 C 187 30 204 23 222 19 C 240 14 259 12 279 12 Z" unicode="ø" />
<glyph horiz-adv-x="478" d="M 244 524 L 143 649 L 173 649 L 271 524 L 244 524 Z M 234 -9 C 182 -9 143 6 116 37 C 88 68 75 108 75 158 L 75 462 L 98 462 L 98 158 C 98 112 110 76 135 50 C 159 24 192 12 234 12 C 267 12 296 20 322 37 C 347 54 366 76 379 103 L 379 462 L 402 462 L 402 0 L 382 0 L 379 69 C 364 44 344 25 319 11 C 293 -2 265 -9 234 -9 Z" unicode="ù" />
<glyph horiz-adv-x="478" d="M 233 524 L 206 524 L 304 649 L 334 649 L 233 524 Z M 234 -9 C 182 -9 143 6 116 37 C 88 68 75 108 75 158 L 75 462 L 98 462 L 98 158 C 98 112 110 76 135 50 C 159 24 192 12 234 12 C 267 12 296 20 322 37 C 347 54 366 76 379 103 L 379 462 L 402 462 L 402 0 L 382 0 L 379 69 C 364 44 344 25 319 11 C 293 -2 265 -9 234 -9 Z" unicode="ú" />
<glyph horiz-adv-x="478" d="M 155 524 L 127 524 L 230 643 L 246 643 L 349 524 L 321 524 L 238 619 L 155 524 Z M 234 -9 C 182 -9 143 6 116 37 C 88 68 75 108 75 158 L 75 462 L 98 462 L 98 158 C 98 112 110 76 135 50 C 159 24 192 12 234 12 C 267 12 296 20 322 37 C 347 54 366 76 379 103 L 379 462 L 402 462 L 402 0 L 382 0 L 379 69 C 364 44 344 25 319 11 C 293 -2 265 -9 234 -9 Z" unicode="û" />
<glyph horiz-adv-x="478" d="M 154 543 L 154 577 L 189 577 L 189 543 L 154 543 Z M 286 543 L 286 577 L 321 577 L 321 543 L 286 543 Z M 234 -9 C 182 -9 143 6 116 37 C 88 68 75 108 75 158 L 75 462 L 98 462 L 98 158 C 98 112 110 76 135 50 C 159 24 192 12 234 12 C 267 12 296 20 322 37 C 347 54 366 76 379 103 L 379 462 L 402 462 L 402 0 L 382 0 L 379 69 C 364 44 344 25 319 11 C 293 -2 265 -9 234 -9 Z" unicode="ü" />
<glyph horiz-adv-x="432" d="M 214 524 L 187 524 L 285 649 L 315 649 L 214 524 Z M -4 -220 L -12 -220 L -12 -198 L -4 -198 C 36 -198 73 -183 105 -154 C 137 -125 170 -73 204 2 L 199 14 L 16 462 L 41 462 L 200 71 L 216 32 L 231 71 L 390 462 L 413 462 L 224 -1 C 190 -81 155 -138 119 -171 C 83 -203 42 -220 -4 -220 Z" unicode="ý" />
<glyph horiz-adv-x="498" d="M 76 -220 L 76 724 L 99 724 L 99 413 C 117 431 139 446 164 456 C 189 466 215 471 242 471 C 304 471 353 449 391 406 C 428 363 447 306 447 234 C 447 159 426 100 386 56 C 346 12 295 -10 233 -10 C 209 -10 185 -5 162 2 C 138 10 117 22 99 36 L 99 -220 L 76 -220 Z M 233 11 C 287 11 333 31 369 71 C 405 111 423 166 423 234 C 423 300 406 352 373 391 C 339 430 296 450 242 450 C 214 450 189 445 165 435 C 141 425 119 409 99 389 L 99 60 C 117 44 138 32 162 24 C 185 15 209 11 233 11 Z" unicode="þ" />
<glyph horiz-adv-x="432" d="M 135 543 L 135 577 L 170 577 L 170 543 L 135 543 Z M 267 543 L 267 577 L 302 577 L 302 543 L 267 543 Z M -4 -220 L -12 -220 L -12 -198 L -4 -198 C 36 -198 73 -183 105 -154 C 137 -125 170 -73 204 2 L 199 14 L 16 462 L 41 462 L 200 71 L 216 32 L 231 71 L 390 462 L 413 462 L 224 -1 C 190 -81 155 -138 119 -171 C 83 -203 42 -220 -4 -220 Z" unicode="ÿ" />
<glyph horiz-adv-x="594" d="M 200 727 L 200 748 L 394 748 L 394 727 L 200 727 Z M 24 0 L 285 670 L 308 670 L 570 0 L 544 0 L 446 254 L 146 254 L 47 0 L 24 0 Z M 154 275 L 437 275 L 311 598 L 296 639 L 280 598 L 154 275 Z" unicode="Ā" />
<glyph horiz-adv-x="427" d="M 112 540 L 112 561 L 306 561 L 306 540 L 112 540 Z M 189 -9 C 145 -9 111 2 85 26 C 59 50 47 81 47 120 C 47 158 61 190 91 217 C 121 244 161 260 213 266 L 331 279 L 331 327 C 331 367 320 397 298 418 C 276 438 246 449 208 449 C 182 449 158 445 135 437 C 111 429 89 417 67 401 L 67 429 C 89 442 111 452 135 460 C 159 467 183 471 208 471 C 253 471 289 458 315 434 C 341 409 355 373 355 327 L 355 0 L 335 0 L 331 65 C 315 41 295 22 271 10 C 247 -2 219 -9 189 -9 Z M 189 12 C 221 12 249 19 274 35 C 298 51 317 72 331 98 L 331 258 L 216 245 C 170 240 134 226 109 204 C 83 181 71 153 71 120 C 71 87 81 61 103 41 C 124 21 153 12 189 12 Z" unicode="ā" />
<glyph horiz-adv-x="594" d="M 297 715 C 265 715 239 725 220 747 C 201 769 192 798 192 836 L 213 836 C 213 805 220 780 236 762 C 251 744 271 735 297 735 C 322 735 342 744 358 762 C 373 780 381 805 381 836 L 402 836 C 402 798 392 769 373 747 C 354 725 329 715 297 715 Z M 24 0 L 285 670 L 308 670 L 570 0 L 544 0 L 446 254 L 146 254 L 47 0 L 24 0 Z M 154 275 L 437 275 L 311 598 L 296 639 L 280 598 L 154 275 Z" unicode="Ă" />
<glyph horiz-adv-x="427" d="M 209 516 C 177 516 151 526 132 548 C 113 570 104 599 104 637 L 125 637 C 125 606 132 582 148 564 C 163 546 183 537 209 537 C 234 537 254 546 270 564 C 285 582 293 606 293 637 L 314 637 C 314 599 304 570 285 548 C 266 526 241 516 209 516 Z M 189 -9 C 145 -9 111 2 85 26 C 59 50 47 81 47 120 C 47 158 61 190 91 217 C 121 244 161 260 213 266 L 331 279 L 331 327 C 331 367 320 397 298 418 C 276 438 246 449 208 449 C 182 449 158 445 135 437 C 111 429 89 417 67 401 L 67 429 C 89 442 111 452 135 460 C 159 467 183 471 208 471 C 253 471 289 458 315 434 C 341 409 355 373 355 327 L 355 0 L 335 0 L 331 65 C 315 41 295 22 271 10 C 247 -2 219 -9 189 -9 Z M 189 12 C 221 12 249 19 274 35 C 298 51 317 72 331 98 L 331 258 L 216 245 C 170 240 134 226 109 204 C 83 181 71 153 71 120 C 71 87 81 61 103 41 C 124 21 153 12 189 12 Z" unicode="ă" />
<glyph horiz-adv-x="594" d="M 24 0 L 285 670 L 308 670 L 570 0 L 566 0 C 537 -1 513 -11 494 -29 C 474 -47 465 -70 465 -100 C 465 -128 475 -152 497 -171 C 518 -189 547 -199 583 -199 L 583 -220 C 541 -220 507 -208 481 -186 C 455 -163 443 -134 443 -100 C 443 -69 452 -44 470 -24 C 488 -4 511 9 538 16 L 446 254 L 146 254 L 47 0 L 24 0 Z M 154 275 L 437 275 L 311 598 L 296 639 L 280 598 L 154 275 Z" unicode="Ą" />
<glyph horiz-adv-x="427" d="M 189 -9 C 145 -9 111 2 85 26 C 59 50 47 81 47 120 C 47 158 61 190 91 217 C 121 244 161 260 213 266 L 331 279 L 331 327 C 331 367 320 397 298 418 C 276 438 246 449 208 449 C 182 449 158 445 135 437 C 111 429 89 417 67 401 L 67 429 C 89 442 111 452 135 460 C 159 467 183 471 208 471 C 253 471 289 458 315 434 C 341 409 355 373 355 327 L 355 0 L 350 0 C 319 -24 297 -47 283 -69 C 269 -90 262 -112 262 -135 C 262 -155 269 -171 285 -182 C 300 -193 322 -199 350 -199 L 350 -220 C 314 -220 286 -212 268 -197 C 249 -182 240 -161 240 -135 C 240 -110 247 -86 262 -63 C 277 -40 301 -14 334 14 L 331 65 C 315 41 295 22 271 10 C 247 -2 219 -9 189 -9 Z M 189 12 C 221 12 249 19 274 35 C 298 51 317 72 331 98 L 331 258 L 216 245 C 170 240 134 226 109 204 C 83 181 71 153 71 120 C 71 87 81 61 103 41 C 124 21 153 12 189 12 Z" unicode="ą" />
<glyph horiz-adv-x="660" d="M 392 729 L 365 729 L 463 854 L 493 854 L 392 729 Z M 398 -11 C 297 -11 215 19 152 81 C 88 143 57 225 57 328 C 57 430 88 513 150 575 C 212 637 295 669 398 669 C 436 669 471 665 505 657 C 539 649 571 637 603 621 L 603 595 C 571 613 539 626 506 634 C 472 642 436 647 398 647 C 302 647 226 617 168 559 C 110 501 82 424 82 328 C 82 231 111 154 170 97 C 228 39 304 11 398 11 C 437 11 474 16 509 26 C 543 36 577 52 610 74 L 610 47 C 577 27 543 13 508 3 C 472 -6 436 -11 398 -11 Z" unicode="Ć" />
<glyph horiz-adv-x="470" d="M 268 524 L 241 524 L 339 649 L 369 649 L 268 524 Z M 280 -9 C 212 -9 156 12 114 56 C 72 99 51 157 51 229 C 51 303 71 362 112 406 C 152 449 206 471 274 471 C 300 471 325 467 350 461 C 374 454 399 444 423 431 L 423 405 C 398 420 374 431 350 439 C 326 446 300 450 274 450 C 213 450 165 430 129 391 C 93 351 75 298 75 230 C 75 164 93 111 131 71 C 168 31 218 12 280 12 C 305 12 330 16 354 25 C 378 33 401 45 421 60 L 421 34 C 400 20 378 9 354 2 C 330 -5 305 -9 280 -9 Z" unicode="ć" />
<glyph horiz-adv-x="660" d="M 314 729 L 286 729 L 389 848 L 405 848 L 508 729 L 480 729 L 397 824 L 314 729 Z M 398 -11 C 297 -11 215 19 152 81 C 88 143 57 225 57 328 C 57 430 88 513 150 575 C 212 637 295 669 398 669 C 436 669 471 665 505 657 C 539 649 571 637 603 621 L 603 595 C 571 613 539 626 506 634 C 472 642 436 647 398 647 C 302 647 226 617 168 559 C 110 501 82 424 82 328 C 82 231 111 154 170 97 C 228 39 304 11 398 11 C 437 11 474 16 509 26 C 543 36 577 52 610 74 L 610 47 C 577 27 543 13 508 3 C 472 -6 436 -11 398 -11 Z" unicode="Ĉ" />
<glyph horiz-adv-x="470" d="M 190 524 L 162 524 L 265 643 L 281 643 L 384 524 L 356 524 L 273 619 L 190 524 Z M 280 -9 C 212 -9 156 12 114 56 C 72 99 51 157 51 229 C 51 303 71 362 112 406 C 152 449 206 471 274 471 C 300 471 325 467 350 461 C 374 454 399 444 423 431 L 423 405 C 398 420 374 431 350 439 C 326 446 300 450 274 450 C 213 450 165 430 129 391 C 93 351 75 298 75 230 C 75 164 93 111 131 71 C 168 31 218 12 280 12 C 305 12 330 16 354 25 C 378 33 401 45 421 60 L 421 34 C 400 20 378 9 354 2 C 330 -5 305 -9 280 -9 Z" unicode="ĉ" />
<glyph horiz-adv-x="660" d="M 377 729 L 377 766 L 414 766 L 414 729 L 377 729 Z M 398 -11 C 297 -11 215 19 152 81 C 88 143 57 225 57 328 C 57 430 88 513 150 575 C 212 637 295 669 398 669 C 436 669 471 665 505 657 C 539 649 571 637 603 621 L 603 595 C 571 613 539 626 506 634 C 472 642 436 647 398 647 C 302 647 226 617 168 559 C 110 501 82 424 82 328 C 82 231 111 154 170 97 C 228 39 304 11 398 11 C 437 11 474 16 509 26 C 543 36 577 52 610 74 L 610 47 C 577 27 543 13 508 3 C 472 -6 436 -11 398 -11 Z" unicode="Ċ" />
<glyph horiz-adv-x="470" d="M 254 543 L 254 580 L 292 580 L 292 543 L 254 543 Z M 280 -9 C 212 -9 156 12 114 56 C 72 99 51 157 51 229 C 51 303 71 362 112 406 C 152 449 206 471 274 471 C 300 471 325 467 350 461 C 374 454 399 444 423 431 L 423 405 C 398 420 374 431 350 439 C 326 446 300 450 274 450 C 213 450 165 430 129 391 C 93 351 75 298 75 230 C 75 164 93 111 131 71 C 168 31 218 12 280 12 C 305 12 330 16 354 25 C 378 33 401 45 421 60 L 421 34 C 400 20 378 9 354 2 C 330 -5 305 -9 280 -9 Z" unicode="ċ" />
<glyph horiz-adv-x="660" d="M 389 720 L 286 839 L 314 839 L 398 743 L 481 839 L 508 839 L 406 720 L 389 720 Z M 398 -11 C 297 -11 215 19 152 81 C 88 143 57 225 57 328 C 57 430 88 513 150 575 C 212 637 295 669 398 669 C 436 669 471 665 505 657 C 539 649 571 637 603 621 L 603 595 C 571 613 539 626 506 634 C 472 642 436 647 398 647 C 302 647 226 617 168 559 C 110 501 82 424 82 328 C 82 231 111 154 170 97 C 228 39 304 11 398 11 C 437 11 474 16 509 26 C 543 36 577 52 610 74 L 610 47 C 577 27 543 13 508 3 C 472 -6 436 -11 398 -11 Z" unicode="Č" />
<glyph horiz-adv-x="470" d="M 265 524 L 162 643 L 190 643 L 274 547 L 357 643 L 384 643 L 282 524 L 265 524 Z M 280 -9 C 212 -9 156 12 114 56 C 72 99 51 157 51 229 C 51 303 71 362 112 406 C 152 449 206 471 274 471 C 300 471 325 467 350 461 C 374 454 399 444 423 431 L 423 405 C 398 420 374 431 350 439 C 326 446 300 450 274 450 C 213 450 165 430 129 391 C 93 351 75 298 75 230 C 75 164 93 111 131 71 C 168 31 218 12 280 12 C 305 12 330 16 354 25 C 378 33 401 45 421 60 L 421 34 C 400 20 378 9 354 2 C 330 -5 305 -9 280 -9 Z" unicode="č" />
<glyph horiz-adv-x="681" d="M 257 715 L 154 834 L 182 834 L 266 738 L 349 834 L 376 834 L 274 715 L 257 715 Z M 84 0 L 84 658 L 260 658 C 369 658 457 628 523 570 C 589 511 623 433 623 337 C 623 236 589 155 522 93 C 454 31 364 0 252 0 L 84 0 Z M 108 22 L 253 22 C 357 22 441 50 504 108 C 567 165 599 241 599 337 C 599 427 568 499 507 554 C 445 608 363 636 261 636 L 108 636 L 108 22 Z" unicode="Ď" />
<glyph horiz-adv-x="604" d="M 258 -9 C 198 -9 148 11 109 53 C 70 94 51 153 51 231 C 51 308 71 367 111 409 C 151 450 201 471 261 471 C 288 471 314 466 339 457 C 363 448 386 435 407 419 L 407 724 L 431 724 L 431 0 L 411 0 L 407 65 C 389 41 368 22 342 10 C 316 -2 288 -9 258 -9 Z M 503 565 L 488 578 C 502 596 511 615 517 633 C 522 651 525 669 525 689 L 525 724 L 548 724 L 548 689 C 548 668 544 647 538 627 C 532 606 520 585 503 565 Z M 258 12 C 290 12 319 19 345 35 C 371 50 391 71 407 98 L 407 393 C 385 411 362 425 338 435 C 313 445 287 450 261 450 C 205 450 160 430 126 390 C 92 350 75 298 75 232 C 75 165 91 112 124 72 C 157 32 202 12 258 12 Z" unicode="ď" />
<glyph horiz-adv-x="681" d="M 86 0 L 86 323 L 18 323 L 18 345 L 86 345 L 86 658 L 262 658 C 371 658 459 628 525 570 C 591 511 625 433 625 337 C 625 236 591 155 524 93 C 456 31 366 0 254 0 L 86 0 Z M 110 22 L 255 22 C 359 22 443 50 506 108 C 569 165 601 241 601 337 C 601 427 570 499 509 554 C 447 608 365 636 263 636 L 110 636 L 110 345 L 258 345 L 258 323 L 110 323 L 110 22 Z" unicode="Đ" />
<glyph horiz-adv-x="507" d="M 258 -9 C 198 -9 148 11 109 53 C 70 94 51 153 51 231 C 51 308 71 367 111 409 C 151 450 201 471 261 471 C 288 471 314 466 339 457 C 363 448 386 435 407 419 L 407 598 L 312 598 L 312 619 L 407 619 L 407 724 L 431 724 L 431 619 L 489 619 L 489 598 L 431 598 L 431 0 L 411 0 L 407 65 C 389 41 368 22 342 10 C 316 -2 288 -9 258 -9 Z M 258 12 C 290 12 319 19 345 35 C 371 50 391 71 407 98 L 407 393 C 385 411 362 425 338 435 C 313 445 287 450 261 450 C 205 450 160 430 126 390 C 92 350 75 298 75 232 C 75 165 91 112 124 72 C 157 32 202 12 258 12 Z" unicode="đ" />
<glyph horiz-adv-x="475" d="M 155 727 L 155 748 L 349 748 L 349 727 L 155 727 Z M 84 0 L 84 658 L 404 658 L 404 636 L 108 636 L 108 344 L 388 344 L 388 323 L 108 323 L 108 22 L 416 22 L 416 0 L 84 0 Z" unicode="Ē" />
<glyph horiz-adv-x="503" d="M 160 540 L 160 561 L 354 561 L 354 540 L 160 540 Z M 271 -9 C 201 -9 147 12 109 56 C 70 100 51 158 51 232 C 51 303 69 361 107 405 C 145 449 195 471 257 471 C 315 471 362 451 397 413 C 432 375 450 323 450 258 L 450 239 L 75 239 L 75 232 C 75 164 92 111 126 72 C 160 32 209 13 271 13 C 301 13 330 18 358 28 C 386 38 413 54 439 74 L 439 48 C 412 29 385 15 357 5 C 329 -4 300 -9 271 -9 Z M 257 450 C 206 450 164 432 131 398 C 97 363 79 317 76 260 L 426 260 C 426 318 410 364 380 398 C 350 432 309 450 257 450 Z" unicode="ē" />
<glyph horiz-adv-x="475" d="M 252 715 C 220 715 194 725 175 747 C 156 769 147 798 147 836 L 168 836 C 168 805 175 780 191 762 C 206 744 226 735 252 735 C 277 735 297 744 313 762 C 328 780 336 805 336 836 L 357 836 C 357 798 347 769 328 747 C 309 725 284 715 252 715 Z M 84 0 L 84 658 L 404 658 L 404 636 L 108 636 L 108 344 L 388 344 L 388 323 L 108 323 L 108 22 L 416 22 L 416 0 L 84 0 Z" unicode="Ĕ" />
<glyph horiz-adv-x="503" d="M 257 516 C 225 516 199 526 180 548 C 161 570 152 599 152 637 L 173 637 C 173 606 180 582 196 564 C 211 546 231 537 257 537 C 282 537 302 546 318 564 C 333 582 341 606 341 637 L 362 637 C 362 599 352 570 333 548 C 314 526 289 516 257 516 Z M 271 -9 C 201 -9 147 12 109 56 C 70 100 51 158 51 232 C 51 303 69 361 107 405 C 145 449 195 471 257 471 C 315 471 362 451 397 413 C 432 375 450 323 450 258 L 450 239 L 75 239 L 75 232 C 75 164 92 111 126 72 C 160 32 209 13 271 13 C 301 13 330 18 358 28 C 386 38 413 54 439 74 L 439 48 C 412 29 385 15 357 5 C 329 -4 300 -9 271 -9 Z M 257 450 C 206 450 164 432 131 398 C 97 363 79 317 76 260 L 426 260 C 426 318 410 364 380 398 C 350 432 309 450 257 450 Z" unicode="ĕ" />
<glyph horiz-adv-x="475" d="M 231 724 L 231 761 L 268 761 L 268 724 L 231 724 Z M 84 0 L 84 658 L 404 658 L 404 636 L 108 636 L 108 344 L 388 344 L 388 323 L 108 323 L 108 22 L 416 22 L 416 0 L 84 0 Z" unicode="Ė" />
<glyph horiz-adv-x="503" d="M 237 543 L 237 580 L 275 580 L 275 543 L 237 543 Z M 271 -9 C 201 -9 147 12 109 56 C 70 100 51 158 51 232 C 51 303 69 361 107 405 C 145 449 195 471 257 471 C 315 471 362 451 397 413 C 432 375 450 323 450 258 L 450 239 L 75 239 L 75 232 C 75 164 92 111 126 72 C 160 32 209 13 271 13 C 301 13 330 18 358 28 C 386 38 413 54 439 74 L 439 48 C 412 29 385 15 357 5 C 329 -4 300 -9 271 -9 Z M 257 450 C 206 450 164 432 131 398 C 97 363 79 317 76 260 L 426 260 C 426 318 410 364 380 398 C 350 432 309 450 257 450 Z" unicode="ė" />
<glyph horiz-adv-x="475" d="M 84 0 L 84 658 L 404 658 L 404 636 L 108 636 L 108 344 L 388 344 L 388 323 L 108 323 L 108 22 L 416 22 L 416 0 L 414 0 C 385 -1 361 -11 342 -29 C 322 -47 313 -70 313 -100 C 313 -128 323 -152 345 -171 C 366 -189 395 -199 431 -199 L 431 -220 C 389 -220 355 -208 329 -186 C 303 -163 291 -134 291 -100 C 291 -77 296 -57 306 -40 C 316 -23 330 -10 347 0 L 84 0 Z" unicode="Ę" />
<glyph horiz-adv-x="506" d="M 443 -220 C 391 -220 350 -207 322 -182 C 294 -157 280 -126 280 -88 C 280 -71 282 -56 288 -42 C 294 -28 302 -16 312 -6 C 305 -6 298 -7 291 -8 C 284 -8 277 -9 271 -9 C 201 -9 147 12 109 56 C 70 100 51 158 51 232 C 51 303 69 361 107 405 C 145 449 195 471 257 471 C 315 471 362 451 397 413 C 432 375 450 323 450 258 L 450 239 L 75 239 L 75 232 C 75 164 92 111 126 72 C 160 32 209 13 271 13 C 301 13 330 18 358 28 C 386 38 413 54 439 74 L 439 48 C 426 39 414 32 403 26 C 392 20 380 14 367 9 C 345 0 329 -13 318 -30 C 307 -46 302 -66 302 -88 C 302 -120 314 -146 339 -167 C 363 -188 398 -199 443 -199 L 443 -220 Z M 257 450 C 206 450 164 432 131 398 C 97 363 79 317 76 260 L 426 260 C 426 318 410 364 380 398 C 350 432 309 450 257 450 Z" unicode="ę" />
<glyph horiz-adv-x="475" d="M 243 715 L 140 834 L 168 834 L 252 738 L 335 834 L 362 834 L 260 715 L 243 715 Z M 84 0 L 84 658 L 404 658 L 404 636 L 108 636 L 108 344 L 388 344 L 388 323 L 108 323 L 108 22 L 416 22 L 416 0 L 84 0 Z" unicode="Ě" />
<glyph horiz-adv-x="503" d="M 248 524 L 145 643 L 173 643 L 257 547 L 340 643 L 367 643 L 265 524 L 248 524 Z M 271 -9 C 201 -9 147 12 109 56 C 70 100 51 158 51 232 C 51 303 69 361 107 405 C 145 449 195 471 257 471 C 315 471 362 451 397 413 C 432 375 450 323 450 258 L 450 239 L 75 239 L 75 232 C 75 164 92 111 126 72 C 160 32 209 13 271 13 C 301 13 330 18 358 28 C 386 38 413 54 439 74 L 439 48 C 412 29 385 15 357 5 C 329 -4 300 -9 271 -9 Z M 257 450 C 206 450 164 432 131 398 C 97 363 79 317 76 260 L 426 260 C 426 318 410 364 380 398 C 350 432 309 450 257 450 Z" unicode="ě" />
<glyph horiz-adv-x="687" d="M 307 729 L 279 729 L 382 848 L 398 848 L 501 729 L 473 729 L 390 824 L 307 729 Z M 388 -11 C 290 -11 210 20 149 83 C 87 145 57 228 57 330 C 57 432 87 514 149 576 C 210 638 291 669 392 669 C 428 669 463 665 497 658 C 531 650 564 639 597 625 L 597 599 C 564 615 531 627 497 635 C 463 643 428 647 392 647 C 298 647 223 618 167 560 C 110 502 82 426 82 330 C 82 234 110 156 166 98 C 222 40 297 11 389 11 C 425 11 461 14 497 21 C 533 28 566 39 597 53 L 597 282 L 447 282 L 447 304 L 621 304 L 621 39 C 587 23 549 11 509 2 C 468 -6 428 -11 388 -11 Z" unicode="Ĝ" />
<glyph horiz-adv-x="509" d="M 178 524 L 150 524 L 253 643 L 269 643 L 372 524 L 344 524 L 261 619 L 178 524 Z M 240 -228 C 212 -228 182 -223 151 -215 C 120 -206 92 -194 68 -178 L 68 -151 C 92 -167 119 -180 150 -190 C 180 -200 210 -206 240 -206 C 292 -206 333 -189 365 -155 C 397 -121 413 -76 413 -20 L 413 65 C 395 41 373 22 347 10 C 321 -2 292 -9 262 -9 C 200 -9 150 11 111 53 C 71 95 52 154 52 231 C 52 308 72 367 113 409 C 153 450 204 471 264 471 C 291 471 318 465 345 455 C 372 445 395 431 413 414 L 419 462 L 436 462 L 436 -20 C 436 -82 418 -132 382 -170 C 346 -208 299 -228 240 -228 Z M 262 12 C 294 12 324 20 350 36 C 376 52 397 73 413 100 L 413 386 C 395 406 373 422 346 433 C 318 444 291 450 264 450 C 208 450 162 430 128 390 C 93 350 76 298 76 232 C 76 166 92 112 126 72 C 159 32 204 12 262 12 Z" unicode="ĝ" />
<glyph horiz-adv-x="687" d="M 391 720 C 359 720 333 730 314 752 C 295 774 286 803 286 841 L 307 841 C 307 810 314 785 330 767 C 345 749 365 740 391 740 C 416 740 436 749 452 767 C 467 785 475 810 475 841 L 496 841 C 496 803 486 774 467 752 C 448 730 423 720 391 720 Z M 388 -11 C 290 -11 210 20 149 83 C 87 145 57 228 57 330 C 57 432 87 514 149 576 C 210 638 291 669 392 669 C 428 669 463 665 497 658 C 531 650 564 639 597 625 L 597 599 C 564 615 531 627 497 635 C 463 643 428 647 392 647 C 298 647 223 618 167 560 C 110 502 82 426 82 330 C 82 234 110 156 166 98 C 222 40 297 11 389 11 C 425 11 461 14 497 21 C 533 28 566 39 597 53 L 597 282 L 447 282 L 447 304 L 621 304 L 621 39 C 587 23 549 11 509 2 C 468 -6 428 -11 388 -11 Z" unicode="Ğ" />
<glyph horiz-adv-x="509" d="M 262 516 C 230 516 204 526 185 548 C 166 570 157 599 157 637 L 178 637 C 178 606 185 582 201 564 C 216 546 236 537 262 537 C 287 537 307 546 323 564 C 338 582 346 606 346 637 L 367 637 C 367 599 357 570 338 548 C 319 526 294 516 262 516 Z M 240 -228 C 212 -228 182 -223 151 -215 C 120 -206 92 -194 68 -178 L 68 -151 C 92 -167 119 -180 150 -190 C 180 -200 210 -206 240 -206 C 292 -206 333 -189 365 -155 C 397 -121 413 -76 413 -20 L 413 65 C 395 41 373 22 347 10 C 321 -2 292 -9 262 -9 C 200 -9 150 11 111 53 C 71 95 52 154 52 231 C 52 308 72 367 113 409 C 153 450 204 471 264 471 C 291 471 318 465 345 455 C 372 445 395 431 413 414 L 419 462 L 436 462 L 436 -20 C 436 -82 418 -132 382 -170 C 346 -208 299 -228 240 -228 Z M 262 12 C 294 12 324 20 350 36 C 376 52 397 73 413 100 L 413 386 C 395 406 373 422 346 433 C 318 444 291 450 264 450 C 208 450 162 430 128 390 C 93 350 76 298 76 232 C 76 166 92 112 126 72 C 159 32 204 12 262 12 Z" unicode="ğ" />
<glyph horiz-adv-x="687" d="M 370 729 L 370 766 L 407 766 L 407 729 L 370 729 Z M 388 -11 C 290 -11 210 20 149 83 C 87 145 57 228 57 330 C 57 432 87 514 149 576 C 210 638 291 669 392 669 C 428 669 463 665 497 658 C 531 650 564 639 597 625 L 597 599 C 564 615 531 627 497 635 C 463 643 428 647 392 647 C 298 647 223 618 167 560 C 110 502 82 426 82 330 C 82 234 110 156 166 98 C 222 40 297 11 389 11 C 425 11 461 14 497 21 C 533 28 566 39 597 53 L 597 282 L 447 282 L 447 304 L 621 304 L 621 39 C 587 23 549 11 509 2 C 468 -6 428 -11 388 -11 Z" unicode="Ġ" />
<glyph horiz-adv-x="509" d="M 242 543 L 242 580 L 280 580 L 280 543 L 242 543 Z M 240 -228 C 212 -228 182 -223 151 -215 C 120 -206 92 -194 68 -178 L 68 -151 C 92 -167 119 -180 150 -190 C 180 -200 210 -206 240 -206 C 292 -206 333 -189 365 -155 C 397 -121 413 -76 413 -20 L 413 65 C 395 41 373 22 347 10 C 321 -2 292 -9 262 -9 C 200 -9 150 11 111 53 C 71 95 52 154 52 231 C 52 308 72 367 113 409 C 153 450 204 471 264 471 C 291 471 318 465 345 455 C 372 445 395 431 413 414 L 419 462 L 436 462 L 436 -20 C 436 -82 418 -132 382 -170 C 346 -208 299 -228 240 -228 Z M 262 12 C 294 12 324 20 350 36 C 376 52 397 73 413 100 L 413 386 C 395 406 373 422 346 433 C 318 444 291 450 264 450 C 208 450 162 430 128 390 C 93 350 76 298 76 232 C 76 166 92 112 126 72 C 159 32 204 12 262 12 Z" unicode="ġ" />
<glyph horiz-adv-x="687" d="M 388 -11 C 290 -11 210 20 149 83 C 87 145 57 228 57 330 C 57 432 87 514 149 576 C 210 638 291 669 392 669 C 428 669 463 665 497 658 C 531 650 564 639 597 625 L 597 599 C 564 615 531 627 497 635 C 463 643 428 647 392 647 C 298 647 223 618 167 560 C 110 502 82 426 82 330 C 82 234 110 156 166 98 C 222 40 297 11 389 11 C 425 11 461 14 497 21 C 533 28 566 39 597 53 L 597 282 L 447 282 L 447 304 L 621 304 L 621 39 C 587 23 549 11 509 2 C 468 -6 428 -11 388 -11 Z M 354 -212 L 339 -199 C 353 -180 362 -162 368 -144 C 373 -126 376 -107 376 -88 L 376 -53 L 399 -53 L 399 -88 C 399 -108 395 -129 389 -150 C 383 -170 371 -191 354 -212 Z" unicode="Ģ" />
<glyph horiz-adv-x="509" d="M 294 677 L 309 665 C 295 646 285 628 280 610 C 274 592 272 573 272 553 L 272 519 L 249 519 L 249 553 C 249 574 252 595 258 615 C 264 635 276 656 294 677 Z M 240 -228 C 212 -228 182 -223 151 -215 C 120 -206 92 -194 68 -178 L 68 -151 C 92 -167 119 -180 150 -190 C 180 -200 210 -206 240 -206 C 292 -206 333 -189 365 -155 C 397 -121 413 -76 413 -20 L 413 65 C 395 41 373 22 347 10 C 321 -2 292 -9 262 -9 C 200 -9 150 11 111 53 C 71 95 52 154 52 231 C 52 308 72 367 113 409 C 153 450 204 471 264 471 C 291 471 318 465 345 455 C 372 445 395 431 413 414 L 419 462 L 436 462 L 436 -20 C 436 -82 418 -132 382 -170 C 346 -208 299 -228 240 -228 Z M 262 12 C 294 12 324 20 350 36 C 376 52 397 73 413 100 L 413 386 C 395 406 373 422 346 433 C 318 444 291 450 264 450 C 208 450 162 430 128 390 C 93 350 76 298 76 232 C 76 166 92 112 126 72 C 159 32 204 12 262 12 Z" unicode="ģ" />
<glyph horiz-adv-x="670" d="M 252 724 L 224 724 L 327 843 L 343 843 L 446 724 L 418 724 L 335 819 L 252 724 Z M 84 0 L 84 658 L 108 658 L 108 349 L 562 349 L 562 658 L 586 658 L 586 0 L 562 0 L 562 327 L 108 327 L 108 0 L 84 0 Z" unicode="Ĥ" />
<glyph horiz-adv-x="477" d="M 4 725 L -24 725 L 79 844 L 95 844 L 198 725 L 170 725 L 87 820 L 4 725 Z M 76 0 L 76 724 L 99 724 L 99 393 C 115 417 136 436 162 450 C 188 464 215 471 245 471 C 296 471 335 456 363 426 C 391 396 405 356 405 307 L 405 0 L 382 0 L 382 304 C 382 350 369 386 344 412 C 319 437 286 450 245 450 C 214 450 186 442 160 426 C 134 410 113 389 99 363 L 99 0 L 76 0 Z" unicode="ĥ" />
<glyph horiz-adv-x="666" d="M 82 0 L 82 493 L 27 493 L 27 515 L 82 515 L 82 658 L 106 658 L 106 515 L 560 515 L 560 658 L 584 658 L 584 515 L 640 515 L 640 493 L 584 493 L 584 0 L 560 0 L 560 327 L 106 327 L 106 0 L 82 0 Z M 106 349 L 560 349 L 560 493 L 106 493 L 106 349 Z" unicode="Ħ" />
<glyph horiz-adv-x="477" d="M 76 0 L 76 598 L 14 598 L 14 619 L 76 619 L 76 724 L 99 724 L 99 619 L 199 619 L 199 598 L 99 598 L 99 393 C 115 417 136 436 162 450 C 188 464 215 471 245 471 C 296 471 335 456 363 426 C 391 396 405 356 405 307 L 405 0 L 382 0 L 382 304 C 382 350 369 386 344 412 C 319 437 286 450 245 450 C 214 450 186 442 160 426 C 134 410 113 389 99 363 L 99 0 L 76 0 Z" unicode="ħ" />
<glyph horiz-adv-x="192" d="M -22 725 L -41 725 C -38 751 -30 770 -17 782 C -3 794 12 800 31 800 C 42 800 53 797 64 792 C 75 786 88 777 103 765 C 113 756 123 749 131 744 C 139 739 149 737 159 737 C 172 737 183 741 192 750 C 201 759 207 773 210 792 L 229 792 C 225 764 216 744 203 733 C 189 721 174 716 157 716 C 144 716 132 718 122 724 C 111 730 99 739 85 751 C 73 760 63 767 55 772 C 46 776 37 779 29 779 C 15 779 4 774 -4 765 C -13 756 -19 743 -22 725 Z M 84 0 L 84 658 L 108 658 L 108 0 L 84 0 Z" unicode="Ĩ" />
<glyph horiz-adv-x="175" d="M -30 532 L -49 532 C -46 558 -38 577 -25 589 C -11 601 4 607 23 607 C 34 607 45 604 56 599 C 67 593 80 584 95 572 C 105 563 115 556 123 551 C 131 545 141 543 151 543 C 164 543 175 547 184 556 C 193 565 199 579 202 598 L 221 598 C 217 570 208 551 195 539 C 181 527 166 522 149 522 C 136 522 124 525 114 531 C 103 537 91 545 77 557 C 65 566 55 573 47 578 C 38 583 29 586 21 586 C 7 586 -3 581 -12 572 C -21 563 -27 550 -30 532 Z M 76 0 L 76 462 L 99 462 L 99 0 L 76 0 Z" unicode="ĩ" />
<glyph horiz-adv-x="192" d="M 0 727 L 0 748 L 194 748 L 194 727 L 0 727 Z M 84 0 L 84 658 L 108 658 L 108 0 L 84 0 Z" unicode="Ī" />
<glyph horiz-adv-x="175" d="M -8 540 L -8 561 L 186 561 L 186 540 L -8 540 Z M 76 0 L 76 462 L 99 462 L 99 0 L 76 0 Z" unicode="ī" />
<glyph horiz-adv-x="192" d="M 97 715 C 65 715 39 725 20 747 C 1 769 -8 798 -8 836 L 13 836 C 13 805 20 780 36 762 C 51 744 71 735 97 735 C 122 735 142 744 158 762 C 173 780 181 805 181 836 L 202 836 C 202 798 192 769 173 747 C 154 725 129 715 97 715 Z M 84 0 L 84 658 L 108 658 L 108 0 L 84 0 Z" unicode="Ĭ" />
<glyph horiz-adv-x="175" d="M 89 516 C 57 516 31 526 12 548 C -6 570 -16 599 -16 637 L 5 637 C 5 606 12 582 28 564 C 43 546 63 537 89 537 C 114 537 134 546 150 564 C 165 582 173 606 173 637 L 194 637 C 194 599 184 570 165 548 C 146 526 121 516 89 516 Z M 76 0 L 76 462 L 99 462 L 99 0 L 76 0 Z" unicode="ĭ" />
<glyph horiz-adv-x="192" d="M 105 -220 C 69 -220 41 -212 23 -197 C 4 -182 -5 -161 -5 -135 C -5 -111 2 -87 16 -65 C 30 -42 53 -17 84 9 L 84 658 L 108 658 L 108 0 L 105 0 C 74 -24 52 -47 38 -69 C 24 -90 17 -112 17 -135 C 17 -155 24 -171 40 -182 C 55 -193 77 -199 105 -199 L 105 -220 Z" unicode="Į" />
<glyph horiz-adv-x="184" d="M 76 643 L 76 675 L 108 675 L 108 643 L 76 643 Z M 102 -220 C 66 -220 38 -212 20 -197 C 1 -182 -8 -161 -8 -135 C -8 -111 0 -87 13 -65 C 27 -42 50 -17 81 9 L 81 462 L 104 462 L 104 0 L 102 0 C 71 -24 49 -47 35 -69 C 21 -90 14 -112 14 -135 C 14 -155 21 -171 37 -182 C 52 -193 74 -199 102 -199 L 102 -220 Z" unicode="į" />
<glyph horiz-adv-x="192" d="M 76 724 L 76 761 L 113 761 L 113 724 L 76 724 Z M 84 0 L 84 658 L 108 658 L 108 0 L 84 0 Z" unicode="İ" />
<glyph horiz-adv-x="175" d="M 76 0 L 76 462 L 99 462 L 99 0 L 76 0 Z" unicode="ı" />
<glyph horiz-adv-x="197" d="M 18 724 L -10 724 L 93 843 L 109 843 L 212 724 L 184 724 L 101 819 L 18 724 Z M -8 -209 L -16 -209 L -16 -188 L -8 -188 C 21 -188 44 -178 62 -160 C 80 -141 89 -115 89 -83 L 89 658 L 113 658 L 113 -83 C 113 -121 102 -151 80 -174 C 58 -197 28 -209 -8 -209 Z" unicode="Ĵ" />
<glyph horiz-adv-x="173" d="M 8 524 L -20 524 L 83 643 L 99 643 L 202 524 L 174 524 L 91 619 L 8 524 Z M -28 -209 L -36 -209 L -36 -188 L -28 -188 C 4 -188 29 -176 49 -153 C 68 -130 78 -100 78 -62 L 78 462 L 101 462 L 101 -62 C 101 -107 89 -143 65 -169 C 41 -195 10 -209 -28 -209 Z" unicode="ĵ" />
<glyph horiz-adv-x="518" d="M 84 0 L 84 658 L 108 658 L 108 346 L 433 658 L 466 658 L 129 337 L 476 1 L 442 0 L 108 324 L 108 0 L 84 0 Z M 241 -207 L 226 -194 C 240 -175 249 -157 255 -139 C 260 -121 263 -102 263 -83 L 263 -48 L 286 -48 L 286 -83 C 286 -103 282 -124 276 -145 C 270 -165 258 -186 241 -207 Z" unicode="Ķ" />
<glyph horiz-adv-x="424" d="M 76 0 L 76 724 L 99 724 L 99 249 L 337 462 L 369 462 L 123 242 L 396 0 L 361 0 L 99 231 L 99 0 L 76 0 Z M 194 -212 L 179 -200 C 193 -181 202 -162 208 -144 C 213 -126 216 -107 216 -88 L 216 -53 L 239 -53 L 239 -88 C 239 -108 235 -129 229 -150 C 223 -170 211 -191 194 -212 Z" unicode="ķ" />
<glyph horiz-adv-x="441" d="M 108 724 L 81 724 L 179 849 L 209 849 L 108 724 Z M 84 0 L 84 658 L 108 658 L 108 22 L 420 22 L 420 0 L 84 0 Z" unicode="Ĺ" />
<glyph horiz-adv-x="175" d="M 84 786 L 57 786 L 155 911 L 185 911 L 84 786 Z M 76 0 L 76 724 L 99 724 L 99 0 L 76 0 Z" unicode="ĺ" />
<glyph horiz-adv-x="441" d="M 84 0 L 84 658 L 108 658 L 108 22 L 420 22 L 420 0 L 84 0 Z M 226 -207 L 211 -194 C 225 -175 234 -157 240 -139 C 245 -121 248 -102 248 -83 L 248 -48 L 271 -48 L 271 -83 C 271 -103 267 -124 261 -145 C 255 -165 243 -186 226 -207 Z" unicode="Ļ" />
<glyph horiz-adv-x="175" d="M 76 0 L 76 724 L 99 724 L 99 0 L 76 0 Z M 55 -212 L 40 -200 C 54 -181 63 -162 69 -144 C 74 -126 77 -107 77 -88 L 77 -53 L 100 -53 L 100 -88 C 100 -108 96 -129 90 -150 C 84 -170 72 -191 55 -212 Z" unicode="ļ" />
<glyph horiz-adv-x="441" d="M 84 0 L 84 658 L 108 658 L 108 22 L 420 22 L 420 0 L 84 0 Z M 263 499 L 248 512 C 262 530 271 549 277 567 C 282 585 285 603 285 623 L 285 658 L 308 658 L 308 623 C 308 602 304 581 298 561 C 292 540 280 519 263 499 Z" unicode="Ľ" />
<glyph horiz-adv-x="274" d="M 76 0 L 76 724 L 99 724 L 99 0 L 76 0 Z M 173 565 L 158 578 C 172 596 181 615 187 633 C 192 651 195 669 195 689 L 195 724 L 218 724 L 218 689 C 218 668 214 647 208 627 C 202 606 190 585 173 565 Z" unicode="ľ" />
<glyph horiz-adv-x="441" d="M 84 0 L 84 658 L 108 658 L 108 22 L 420 22 L 420 0 L 84 0 Z M 297 326 L 297 360 L 331 360 L 331 326 L 297 326 Z" unicode="Ŀ" />
<glyph horiz-adv-x="175" d="M 76 0 L 76 724 L 99 724 L 99 0 L 76 0 Z M 158 335 L 158 369 L 192 369 L 192 335 L 158 335 Z" unicode="ŀ" />
<glyph horiz-adv-x="440" d="M 83 0 L 83 318 L 4 284 L 4 307 L 83 341 L 83 658 L 107 658 L 107 351 L 217 398 L 217 375 L 107 328 L 107 22 L 419 22 L 419 0 L 83 0 Z" unicode="Ł" />
<glyph horiz-adv-x="175" d="M 76 0 L 76 358 L 1 336 L 1 358 L 76 380 L 76 724 L 99 724 L 99 387 L 159 404 L 159 383 L 99 365 L 99 0 L 76 0 Z" unicode="ł" />
<glyph horiz-adv-x="703" d="M 346 724 L 319 724 L 417 849 L 447 849 L 346 724 Z M 84 0 L 84 658 L 113 658 L 565 71 L 597 29 L 597 658 L 619 658 L 619 0 L 590 0 L 138 587 L 106 629 L 106 0 L 84 0 Z" unicode="Ń" />
<glyph horiz-adv-x="477" d="M 232 524 L 205 524 L 303 649 L 333 649 L 232 524 Z M 76 0 L 76 462 L 99 462 L 99 393 C 115 417 136 436 162 450 C 188 464 215 471 245 471 C 296 471 335 456 363 426 C 391 396 405 356 405 307 L 405 0 L 382 0 L 382 304 C 382 350 369 386 344 412 C 318 437 285 450 245 450 C 214 450 186 442 160 426 C 134 410 113 389 99 363 L 99 0 L 76 0 Z" unicode="ń" />
<glyph horiz-adv-x="703" d="M 84 0 L 84 658 L 113 658 L 565 71 L 597 29 L 597 658 L 619 658 L 619 0 L 590 0 L 138 587 L 106 629 L 106 0 L 84 0 Z M 318 -212 L 303 -199 C 317 -180 326 -162 332 -144 C 337 -126 340 -107 340 -88 L 340 -53 L 363 -53 L 363 -88 C 363 -108 359 -129 353 -150 C 347 -170 335 -191 318 -212 Z" unicode="Ņ" />
<glyph horiz-adv-x="477" d="M 76 0 L 76 462 L 99 462 L 99 393 C 115 417 136 436 162 450 C 188 464 215 471 245 471 C 296 471 335 456 363 426 C 391 396 405 356 405 307 L 405 0 L 382 0 L 382 304 C 382 350 369 386 344 412 C 318 437 285 450 245 450 C 214 450 186 442 160 426 C 134 410 113 389 99 363 L 99 0 L 76 0 Z M 206 -212 L 191 -200 C 205 -181 214 -162 220 -144 C 225 -126 228 -107 228 -88 L 228 -53 L 251 -53 L 251 -88 C 251 -108 247 -129 241 -150 C 235 -170 223 -191 206 -212 Z" unicode="ņ" />
<glyph horiz-adv-x="703" d="M 343 715 L 240 834 L 268 834 L 352 738 L 435 834 L 462 834 L 360 715 L 343 715 Z M 84 0 L 84 658 L 113 658 L 565 71 L 597 29 L 597 658 L 619 658 L 619 0 L 590 0 L 138 587 L 106 629 L 106 0 L 84 0 Z" unicode="Ň" />
<glyph horiz-adv-x="477" d="M 229 524 L 126 643 L 154 643 L 238 547 L 321 643 L 348 643 L 246 524 L 229 524 Z M 76 0 L 76 462 L 99 462 L 99 393 C 115 417 136 436 162 450 C 188 464 215 471 245 471 C 296 471 335 456 363 426 C 391 396 405 356 405 307 L 405 0 L 382 0 L 382 304 C 382 350 369 386 344 412 C 318 437 285 450 245 450 C 214 450 186 442 160 426 C 134 410 113 389 99 363 L 99 0 L 76 0 Z" unicode="ň" />
<glyph horiz-adv-x="703" d="M 84 0 L 84 658 L 113 658 L 569 75 L 597 37 L 597 658 L 619 658 L 619 -90 C 619 -129 608 -160 586 -184 C 564 -208 534 -220 496 -220 L 488 -220 L 488 -199 L 496 -199 C 526 -199 551 -189 570 -170 C 588 -150 598 -124 598 -90 L 598 0 L 138 586 L 106 632 L 106 0 L 84 0 Z" unicode="Ŋ" />
<glyph horiz-adv-x="477" d="M 282 -220 L 274 -220 L 274 -199 L 282 -199 C 312 -199 337 -188 355 -167 C 373 -146 382 -118 382 -83 L 382 304 C 382 350 369 386 344 412 C 318 437 285 450 245 450 C 214 450 186 442 160 426 C 134 410 113 389 99 363 L 99 0 L 76 0 L 76 462 L 99 462 L 99 393 C 115 417 136 436 162 450 C 188 464 215 471 245 471 C 296 471 335 456 363 426 C 391 396 405 356 405 307 L 405 -83 C 405 -125 393 -158 371 -183 C 349 -207 319 -220 282 -220 Z" unicode="ŋ" />
<glyph horiz-adv-x="775" d="M 292 732 L 292 753 L 486 753 L 486 732 L 292 732 Z M 387 -12 C 290 -12 211 19 149 83 C 87 146 57 228 57 329 C 57 430 87 512 149 575 C 211 638 290 670 387 670 C 484 670 563 638 625 575 C 686 512 717 430 717 329 C 717 228 686 146 625 83 C 563 19 484 -12 387 -12 Z M 387 10 C 476 10 549 39 607 98 C 664 156 693 233 693 329 C 693 424 664 501 607 560 C 549 618 476 648 387 648 C 297 648 224 618 167 560 C 110 501 82 424 82 329 C 82 233 110 156 167 98 C 224 39 297 10 387 10 Z" unicode="Ō" />
<glyph horiz-adv-x="558" d="M 183 540 L 183 561 L 377 561 L 377 540 L 183 540 Z M 279 -9 C 211 -9 156 13 114 57 C 72 101 51 158 51 230 C 51 302 72 360 114 404 C 156 448 211 471 279 471 C 346 471 401 448 443 404 C 485 360 507 302 507 231 C 507 159 485 101 443 57 C 401 13 346 -9 279 -9 Z M 279 12 C 339 12 388 32 426 72 C 464 112 483 164 483 230 C 483 296 464 349 426 389 C 388 429 339 450 279 450 C 218 450 169 430 131 390 C 93 350 75 297 75 231 C 75 165 93 112 131 72 C 169 32 218 12 279 12 Z" unicode="ō" />
<glyph horiz-adv-x="775" d="M 389 720 C 357 720 331 730 312 752 C 293 774 284 803 284 841 L 305 841 C 305 810 312 785 328 767 C 343 749 363 740 389 740 C 414 740 434 749 450 767 C 465 785 473 810 473 841 L 494 841 C 494 803 484 774 465 752 C 446 730 421 720 389 720 Z M 387 -12 C 290 -12 211 19 149 83 C 87 146 57 228 57 329 C 57 430 87 512 149 575 C 211 638 290 670 387 670 C 484 670 563 638 625 575 C 686 512 717 430 717 329 C 717 228 686 146 625 83 C 563 19 484 -12 387 -12 Z M 387 10 C 476 10 549 39 607 98 C 664 156 693 233 693 329 C 693 424 664 501 607 560 C 549 618 476 648 387 648 C 297 648 224 618 167 560 C 110 501 82 424 82 329 C 82 233 110 156 167 98 C 224 39 297 10 387 10 Z" unicode="Ŏ" />
<glyph horiz-adv-x="558" d="M 280 516 C 248 516 222 526 203 548 C 184 570 175 599 175 637 L 196 637 C 196 606 203 582 219 564 C 234 546 254 537 280 537 C 305 537 325 546 341 564 C 356 582 364 606 364 637 L 385 637 C 385 599 375 570 356 548 C 337 526 312 516 280 516 Z M 279 -9 C 211 -9 156 13 114 57 C 72 101 51 158 51 230 C 51 302 72 360 114 404 C 156 448 211 471 279 471 C 346 471 401 448 443 404 C 485 360 507 302 507 231 C 507 159 485 101 443 57 C 401 13 346 -9 279 -9 Z M 279 12 C 339 12 388 32 426 72 C 464 112 483 164 483 230 C 483 296 464 349 426 389 C 388 429 339 450 279 450 C 218 450 169 430 131 390 C 93 350 75 297 75 231 C 75 165 93 112 131 72 C 169 32 218 12 279 12 Z" unicode="ŏ" />
<glyph horiz-adv-x="775" d="M 317 729 L 411 846 L 441 846 L 344 729 L 317 729 Z M 427 729 L 521 846 L 550 846 L 453 729 L 427 729 Z M 387 -12 C 290 -12 211 19 149 83 C 87 146 57 228 57 329 C 57 430 87 512 149 575 C 211 638 290 670 387 670 C 484 670 563 638 625 575 C 686 512 717 430 717 329 C 717 228 686 146 625 83 C 563 19 484 -12 387 -12 Z M 387 10 C 476 10 549 39 607 98 C 664 156 693 233 693 329 C 693 424 664 501 607 560 C 549 618 476 648 387 648 C 297 648 224 618 167 560 C 110 501 82 424 82 329 C 82 233 110 156 167 98 C 224 39 297 10 387 10 Z" unicode="Ő" />
<glyph horiz-adv-x="558" d="M 208 524 L 302 641 L 332 641 L 235 524 L 208 524 Z M 318 524 L 412 641 L 441 641 L 344 524 L 318 524 Z M 279 -9 C 211 -9 156 13 114 57 C 72 101 51 158 51 230 C 51 302 72 360 114 404 C 156 448 211 471 279 471 C 346 471 401 448 443 404 C 485 360 507 302 507 231 C 507 159 485 101 443 57 C 401 13 346 -9 279 -9 Z M 279 12 C 339 12 388 32 426 72 C 464 112 483 164 483 230 C 483 296 464 349 426 389 C 388 429 339 450 279 450 C 218 450 169 430 131 390 C 93 350 75 297 75 231 C 75 165 93 112 131 72 C 169 32 218 12 279 12 Z" unicode="ő" />
<glyph horiz-adv-x="883" d="M 394 0 C 292 0 210 30 149 91 C 87 151 57 232 57 333 C 57 431 88 510 150 569 C 212 628 294 658 397 658 L 812 658 L 812 636 L 516 636 L 516 344 L 796 344 L 796 323 L 516 323 L 516 22 L 824 22 L 824 0 L 394 0 Z M 394 22 L 492 22 L 492 636 L 397 636 C 301 636 225 608 168 553 C 110 498 82 425 82 333 C 82 237 110 162 167 106 C 223 50 299 22 394 22 Z" unicode="Œ" />
<glyph horiz-adv-x="919" d="M 273 -9 C 205 -9 151 13 111 57 C 71 101 51 158 51 230 C 51 302 71 360 111 404 C 151 448 205 471 273 471 C 326 471 370 457 406 429 C 442 401 466 364 480 317 C 492 364 516 401 550 429 C 584 457 625 471 673 471 C 732 471 779 451 814 413 C 849 375 867 323 867 258 L 867 239 L 492 239 L 492 231 C 492 164 509 111 543 72 C 577 32 626 13 688 13 C 718 13 747 18 775 28 C 803 38 830 54 856 74 L 856 48 C 829 29 802 15 774 5 C 746 -4 717 -9 688 -9 C 633 -9 588 4 552 31 C 516 58 492 96 480 144 C 466 97 442 60 406 32 C 370 4 325 -9 273 -9 Z M 673 450 C 623 450 581 432 548 398 C 514 363 496 317 493 260 L 843 260 C 843 318 827 364 797 398 C 766 432 725 450 673 450 Z M 273 12 C 333 12 381 32 416 72 C 451 112 469 165 469 231 C 469 297 451 350 416 390 C 381 430 333 450 273 450 C 211 450 163 430 128 390 C 92 350 75 297 75 231 C 75 165 92 112 128 72 C 163 32 211 12 273 12 Z" unicode="œ" />
<glyph horiz-adv-x="506" d="M 223 724 L 196 724 L 294 849 L 324 849 L 223 724 Z M 439 0 L 350 229 C 337 261 319 285 297 300 C 275 315 247 323 215 323 L 108 323 L 108 0 L 84 0 L 84 658 L 221 658 C 279 658 325 642 359 612 C 393 582 410 542 410 492 C 410 452 398 417 375 387 C 351 357 320 338 280 330 C 301 324 319 314 335 298 C 350 282 363 261 373 236 L 464 0 L 439 0 Z M 108 344 L 229 344 C 277 344 315 357 343 385 C 371 412 385 447 385 491 C 385 535 370 570 340 596 C 310 622 271 636 221 636 L 108 636 L 108 344 Z" unicode="Ŕ" />
<glyph horiz-adv-x="287" d="M 167 524 L 140 524 L 238 649 L 268 649 L 167 524 Z M 76 0 L 76 462 L 99 462 L 99 391 C 109 415 124 435 145 449 C 166 463 188 471 212 471 C 222 471 233 470 243 468 C 253 466 264 464 275 460 L 275 432 C 265 436 254 440 243 443 C 232 445 221 447 210 447 C 184 447 162 438 143 422 C 123 406 109 384 99 358 L 99 0 L 76 0 Z" unicode="ŕ" />
<glyph horiz-adv-x="506" d="M 439 0 L 350 229 C 337 261 319 285 297 300 C 275 315 247 323 215 323 L 108 323 L 108 0 L 84 0 L 84 658 L 221 658 C 279 658 325 642 359 612 C 393 582 410 542 410 492 C 410 452 398 417 375 387 C 351 357 320 338 280 330 C 301 324 319 314 335 298 C 350 282 363 261 373 236 L 464 0 L 439 0 Z M 108 344 L 229 344 C 277 344 315 357 343 385 C 371 412 385 447 385 491 C 385 535 370 570 340 596 C 310 622 271 636 221 636 L 108 636 L 108 344 Z M 234 -207 L 219 -194 C 233 -175 242 -157 248 -139 C 253 -121 256 -102 256 -83 L 256 -48 L 279 -48 L 279 -83 C 279 -103 275 -124 269 -145 C 263 -165 251 -186 234 -207 Z" unicode="Ŗ" />
<glyph horiz-adv-x="287" d="M 76 0 L 76 462 L 99 462 L 99 391 C 109 415 124 435 145 449 C 166 463 188 471 212 471 C 222 471 233 470 243 468 C 253 466 264 464 275 460 L 275 432 C 265 436 254 440 243 443 C 232 445 221 447 210 447 C 184 447 162 438 143 422 C 123 406 109 384 99 358 L 99 0 L 76 0 Z M 55 -212 L 40 -200 C 54 -181 63 -162 69 -144 C 74 -126 77 -107 77 -88 L 77 -53 L 100 -53 L 100 -88 C 100 -108 96 -129 90 -150 C 84 -170 72 -191 55 -212 Z" unicode="ŗ" />
<glyph horiz-adv-x="506" d="M 220 715 L 117 834 L 145 834 L 229 738 L 312 834 L 339 834 L 237 715 L 220 715 Z M 439 0 L 350 229 C 337 261 319 285 297 300 C 275 315 247 323 215 323 L 108 323 L 108 0 L 84 0 L 84 658 L 221 658 C 279 658 325 642 359 612 C 393 582 410 542 410 492 C 410 452 398 417 375 387 C 351 357 320 338 280 330 C 301 324 319 314 335 298 C 350 282 363 261 373 236 L 464 0 L 439 0 Z M 108 344 L 229 344 C 277 344 315 357 343 385 C 371 412 385 447 385 491 C 385 535 370 570 340 596 C 310 622 271 636 221 636 L 108 636 L 108 344 Z" unicode="Ř" />
<glyph horiz-adv-x="287" d="M 164 524 L 61 643 L 89 643 L 173 547 L 256 643 L 283 643 L 181 524 L 164 524 Z M 76 0 L 76 462 L 99 462 L 99 391 C 109 415 124 435 145 449 C 166 463 188 471 212 471 C 222 471 233 470 243 468 C 253 466 264 464 275 460 L 275 432 C 265 436 254 440 243 443 C 232 445 221 447 210 447 C 184 447 162 438 143 422 C 123 406 109 384 99 358 L 99 0 L 76 0 Z" unicode="ř" />
<glyph horiz-adv-x="503" d="M 255 729 L 228 729 L 326 854 L 356 854 L 255 729 Z M 245 -14 C 211 -14 179 -8 147 1 C 115 11 87 26 63 45 L 63 75 C 89 53 117 37 149 25 C 180 13 212 8 245 8 C 293 8 333 21 363 49 C 393 77 409 113 409 157 C 409 198 397 231 373 256 C 349 281 310 304 256 326 L 239 333 C 182 355 141 380 116 406 C 90 432 78 467 78 511 C 78 559 94 597 127 627 C 159 657 203 672 258 672 C 287 672 315 667 343 659 C 370 650 395 638 419 622 L 419 590 C 396 609 371 624 344 634 C 317 644 288 650 258 650 C 210 650 171 637 143 612 C 115 586 101 553 101 511 C 101 473 112 442 135 419 C 157 396 194 375 245 356 L 262 349 C 322 325 366 298 392 270 C 418 242 432 204 432 158 C 432 107 414 66 380 34 C 346 2 301 -14 245 -14 Z" unicode="Ś" />
<glyph horiz-adv-x="372" d="M 184 524 L 157 524 L 255 649 L 285 649 L 184 524 Z M 184 -9 C 158 -9 134 -5 111 2 C 88 9 67 20 47 34 L 47 61 C 67 45 88 32 112 24 C 135 16 159 12 184 12 C 219 12 247 21 269 40 C 290 58 301 83 301 114 C 301 141 291 164 273 182 C 254 200 225 216 187 229 L 171 234 C 131 246 101 262 82 282 C 63 301 54 326 54 357 C 54 391 66 418 91 440 C 115 461 148 472 190 472 C 212 472 234 469 256 463 C 278 457 298 449 317 439 L 317 412 C 298 424 278 434 256 440 C 234 446 212 450 190 450 C 156 450 128 441 108 425 C 88 408 78 386 78 358 C 78 334 86 313 102 297 C 118 281 143 267 178 257 L 195 251 C 240 236 273 218 294 197 C 314 176 325 149 325 115 C 325 79 312 49 286 26 C 260 2 226 -9 184 -9 Z" unicode="ś" />
<glyph horiz-adv-x="503" d="M 177 729 L 149 729 L 252 848 L 268 848 L 371 729 L 343 729 L 260 824 L 177 729 Z M 245 -14 C 211 -14 179 -8 147 1 C 115 11 87 26 63 45 L 63 75 C 89 53 117 37 149 25 C 180 13 212 8 245 8 C 293 8 333 21 363 49 C 393 77 409 113 409 157 C 409 198 397 231 373 256 C 349 281 310 304 256 326 L 239 333 C 182 355 141 380 116 406 C 90 432 78 467 78 511 C 78 559 94 597 127 627 C 159 657 203 672 258 672 C 287 672 315 667 343 659 C 370 650 395 638 419 622 L 419 590 C 396 609 371 624 344 634 C 317 644 288 650 258 650 C 210 650 171 637 143 612 C 115 586 101 553 101 511 C 101 473 112 442 135 419 C 157 396 194 375 245 356 L 262 349 C 322 325 366 298 392 270 C 418 242 432 204 432 158 C 432 107 414 66 380 34 C 346 2 301 -14 245 -14 Z" unicode="Ŝ" />
<glyph horiz-adv-x="372" d="M 106 524 L 78 524 L 181 643 L 197 643 L 300 524 L 272 524 L 189 619 L 106 524 Z M 184 -9 C 158 -9 134 -5 111 2 C 88 9 67 20 47 34 L 47 61 C 67 45 88 32 112 24 C 135 16 159 12 184 12 C 219 12 247 21 269 40 C 290 58 301 83 301 114 C 301 141 291 164 273 182 C 254 200 225 216 187 229 L 171 234 C 131 246 101 262 82 282 C 63 301 54 326 54 357 C 54 391 66 418 91 440 C 115 461 148 472 190 472 C 212 472 234 469 256 463 C 278 457 298 449 317 439 L 317 412 C 298 424 278 434 256 440 C 234 446 212 450 190 450 C 156 450 128 441 108 425 C 88 408 78 386 78 358 C 78 334 86 313 102 297 C 118 281 143 267 178 257 L 195 251 C 240 236 273 218 294 197 C 314 176 325 149 325 115 C 325 79 312 49 286 26 C 260 2 226 -9 184 -9 Z" unicode="ŝ" />
<glyph horiz-adv-x="503" d="M 245 -14 C 211 -14 179 -8 147 1 C 115 11 87 26 63 45 L 63 75 C 89 53 117 37 149 25 C 180 13 212 8 245 8 C 293 8 333 21 363 49 C 393 77 409 113 409 157 C 409 198 397 231 373 256 C 349 281 310 304 256 326 L 239 333 C 182 355 141 380 116 406 C 90 432 78 467 78 511 C 78 559 94 597 127 627 C 159 657 203 672 258 672 C 287 672 315 667 343 659 C 370 650 395 638 419 622 L 419 590 C 396 609 371 624 344 634 C 317 644 288 650 258 650 C 210 650 171 637 143 612 C 115 586 101 553 101 511 C 101 473 112 442 135 419 C 157 396 194 375 245 356 L 262 349 C 322 325 366 298 392 270 C 418 242 432 204 432 158 C 432 107 414 66 380 34 C 346 2 301 -14 245 -14 Z M 255 -181 C 245 -181 236 -179 226 -177 C 216 -174 207 -170 199 -166 L 199 -144 C 206 -149 215 -153 225 -157 C 235 -160 244 -162 254 -162 C 268 -162 280 -157 288 -149 C 296 -140 301 -129 301 -115 C 301 -100 296 -88 286 -80 C 276 -72 262 -68 246 -68 L 240 -68 L 240 -48 L 246 -48 C 269 -48 288 -54 302 -66 C 316 -78 323 -94 323 -114 C 323 -134 316 -150 304 -162 C 292 -174 275 -181 255 -181 Z" unicode="Ş" />
<glyph horiz-adv-x="372" d="M 184 -9 C 158 -9 134 -5 111 2 C 88 9 67 20 47 34 L 47 61 C 67 45 88 32 112 24 C 135 16 159 12 184 12 C 219 12 247 21 269 40 C 290 58 301 83 301 114 C 301 141 291 164 273 182 C 254 200 225 216 187 229 L 171 234 C 131 246 101 262 82 282 C 63 301 54 326 54 357 C 54 391 66 418 91 440 C 115 461 148 472 190 472 C 212 472 234 469 256 463 C 278 457 298 449 317 439 L 317 412 C 298 424 278 434 256 440 C 234 446 212 450 190 450 C 156 450 128 441 108 425 C 88 408 78 386 78 358 C 78 334 86 313 102 297 C 118 281 143 267 178 257 L 195 251 C 240 236 273 218 294 197 C 314 176 325 149 325 115 C 325 79 312 49 286 26 C 260 2 226 -9 184 -9 Z M 193 -181 C 183 -181 174 -179 164 -177 C 154 -174 145 -170 137 -166 L 137 -144 C 144 -149 153 -153 163 -157 C 173 -160 182 -162 192 -162 C 206 -162 218 -157 226 -149 C 234 -140 239 -129 239 -115 C 239 -100 234 -88 224 -80 C 214 -72 200 -68 184 -68 L 178 -68 L 178 -48 L 184 -48 C 207 -48 226 -54 240 -66 C 254 -78 261 -94 261 -114 C 261 -134 254 -150 242 -162 C 230 -174 213 -181 193 -181 Z" unicode="ş" />
<glyph horiz-adv-x="503" d="M 252 720 L 149 839 L 177 839 L 261 743 L 344 839 L 371 839 L 269 720 L 252 720 Z M 245 -14 C 211 -14 179 -8 147 1 C 115 11 87 26 63 45 L 63 75 C 89 53 117 37 149 25 C 180 13 212 8 245 8 C 293 8 333 21 363 49 C 393 77 409 113 409 157 C 409 198 397 231 373 256 C 349 281 310 304 256 326 L 239 333 C 182 355 141 380 116 406 C 90 432 78 467 78 511 C 78 559 94 597 127 627 C 159 657 203 672 258 672 C 287 672 315 667 343 659 C 370 650 395 638 419 622 L 419 590 C 396 609 371 624 344 634 C 317 644 288 650 258 650 C 210 650 171 637 143 612 C 115 586 101 553 101 511 C 101 473 112 442 135 419 C 157 396 194 375 245 356 L 262 349 C 322 325 366 298 392 270 C 418 242 432 204 432 158 C 432 107 414 66 380 34 C 346 2 301 -14 245 -14 Z" unicode="Š" />
<glyph horiz-adv-x="372" d="M 181 524 L 78 643 L 106 643 L 190 547 L 273 643 L 300 643 L 198 524 L 181 524 Z M 184 -9 C 158 -9 134 -5 111 2 C 88 9 67 20 47 34 L 47 61 C 67 45 88 32 112 24 C 135 16 159 12 184 12 C 219 12 247 21 269 40 C 290 58 301 83 301 114 C 301 141 291 164 273 182 C 254 200 225 216 187 229 L 171 234 C 131 246 101 262 82 282 C 63 301 54 326 54 357 C 54 391 66 418 91 440 C 115 461 148 472 190 472 C 212 472 234 469 256 463 C 278 457 298 449 317 439 L 317 412 C 298 424 278 434 256 440 C 234 446 212 450 190 450 C 156 450 128 441 108 425 C 88 408 78 386 78 358 C 78 334 86 313 102 297 C 118 281 143 267 178 257 L 195 251 C 240 236 273 218 294 197 C 314 176 325 149 325 115 C 325 79 312 49 286 26 C 260 2 226 -9 184 -9 Z" unicode="š" />
<glyph horiz-adv-x="536" d="M 256 0 L 256 636 L 20 636 L 20 658 L 516 658 L 516 636 L 280 636 L 280 0 L 256 0 Z M 273 -181 C 263 -181 254 -179 244 -177 C 234 -174 225 -170 217 -166 L 217 -144 C 224 -149 233 -153 243 -157 C 253 -160 262 -162 272 -162 C 286 -162 298 -157 306 -149 C 314 -140 319 -129 319 -115 C 319 -100 314 -88 304 -80 C 294 -72 280 -68 264 -68 L 258 -68 L 258 -48 L 264 -48 C 287 -48 306 -54 320 -66 C 334 -78 341 -94 341 -114 C 341 -134 334 -150 322 -162 C 310 -174 293 -181 273 -181 Z" unicode="Ţ" />
<glyph horiz-adv-x="290" d="M 183 -9 C 157 -9 137 -1 122 15 C 106 31 99 52 99 79 L 99 440 L 21 440 L 21 462 L 99 462 L 99 624 L 122 624 L 122 462 L 254 462 L 254 440 L 122 440 L 122 79 C 122 59 127 43 138 31 C 148 19 163 14 183 14 C 195 14 208 16 221 20 C 234 24 246 30 257 39 L 257 13 C 246 5 234 0 221 -3 C 208 -7 195 -9 183 -9 Z M 185 -181 C 175 -181 166 -179 156 -177 C 146 -174 137 -170 129 -166 L 129 -144 C 136 -149 145 -153 155 -157 C 165 -160 174 -162 184 -162 C 198 -162 210 -157 218 -149 C 226 -140 231 -129 231 -115 C 231 -100 226 -88 216 -80 C 206 -72 192 -68 176 -68 L 170 -68 L 170 -48 L 176 -48 C 199 -48 218 -54 232 -66 C 246 -78 253 -94 253 -114 C 253 -134 246 -150 234 -162 C 222 -174 205 -181 185 -181 Z" unicode="ţ" />
<glyph horiz-adv-x="536" d="M 260 715 L 157 834 L 185 834 L 269 738 L 352 834 L 379 834 L 277 715 L 260 715 Z M 256 0 L 256 636 L 20 636 L 20 658 L 516 658 L 516 636 L 280 636 L 280 0 L 256 0 Z" unicode="Ť" />
<glyph horiz-adv-x="308" d="M 215 565 L 200 578 C 214 596 223 615 229 633 C 234 651 237 669 237 689 L 237 724 L 260 724 L 260 689 C 260 668 256 647 250 627 C 244 606 232 585 215 565 Z M 183 -9 C 157 -9 137 -1 122 15 C 106 31 99 52 99 79 L 99 440 L 21 440 L 21 462 L 99 462 L 99 624 L 122 624 L 122 462 L 254 462 L 254 440 L 122 440 L 122 79 C 122 59 127 43 138 31 C 148 19 163 14 183 14 C 195 14 208 16 221 20 C 234 24 246 30 257 39 L 257 13 C 246 5 234 0 221 -3 C 208 -7 195 -9 183 -9 Z" unicode="ť" />
<glyph horiz-adv-x="536" d="M 256 0 L 256 358 L 116 358 L 116 379 L 256 379 L 256 636 L 20 636 L 20 658 L 516 658 L 516 636 L 280 636 L 280 379 L 421 379 L 421 358 L 280 358 L 280 0 L 256 0 Z" unicode="Ŧ" />
<glyph horiz-adv-x="290" d="M 183 -9 C 157 -9 137 -1 122 15 C 106 31 99 52 99 79 L 99 293 L 37 293 L 37 314 L 99 314 L 99 440 L 21 440 L 21 462 L 99 462 L 99 624 L 122 624 L 122 462 L 254 462 L 254 440 L 122 440 L 122 314 L 213 314 L 213 293 L 122 293 L 122 79 C 122 59 127 43 138 31 C 148 19 163 14 183 14 C 195 14 208 16 221 20 C 234 24 246 30 257 39 L 257 13 C 246 5 234 0 221 -3 C 208 -7 195 -9 183 -9 Z" unicode="ŧ" />
<glyph horiz-adv-x="662" d="M 215 725 L 196 725 C 198 751 206 770 220 782 C 233 794 249 800 268 800 C 279 800 290 797 301 792 C 312 786 325 777 340 765 C 350 756 360 749 368 744 C 376 739 386 737 396 737 C 409 737 420 741 429 750 C 438 759 444 773 447 792 L 466 792 C 462 764 453 744 440 733 C 426 721 411 716 394 716 C 381 716 369 718 359 724 C 348 730 336 739 322 751 C 310 760 300 767 292 772 C 283 776 274 779 266 779 C 252 779 241 774 232 765 C 223 756 217 743 215 725 Z M 330 -11 C 255 -11 194 13 148 63 C 102 112 79 177 79 257 L 79 658 L 103 658 L 103 257 C 103 183 124 124 166 79 C 208 34 262 12 330 12 C 399 12 455 34 497 79 C 539 124 560 183 560 257 L 560 658 L 583 658 L 583 257 C 583 177 559 112 513 63 C 467 13 406 -11 330 -11 Z" unicode="Ũ" />
<glyph horiz-adv-x="478" d="M 120 532 L 101 532 C 103 558 111 577 125 589 C 138 601 154 607 173 607 C 184 607 195 604 206 599 C 217 593 230 584 245 572 C 255 563 265 556 273 551 C 281 545 291 543 301 543 C 314 543 325 547 334 556 C 343 565 349 579 352 598 L 371 598 C 367 570 358 551 345 539 C 331 527 316 522 299 522 C 286 522 274 525 264 531 C 253 537 241 545 227 557 C 215 566 205 573 197 578 C 188 583 179 586 171 586 C 157 586 146 581 137 572 C 128 563 122 550 120 532 Z M 234 -9 C 182 -9 143 6 116 37 C 88 68 75 108 75 158 L 75 462 L 98 462 L 98 158 C 98 112 110 76 135 50 C 159 24 192 12 234 12 C 267 12 296 20 322 37 C 347 54 366 76 379 103 L 379 462 L 402 462 L 402 0 L 382 0 L 379 69 C 364 44 344 25 319 11 C 293 -2 265 -9 234 -9 Z" unicode="ũ" />
<glyph horiz-adv-x="662" d="M 237 727 L 237 748 L 431 748 L 431 727 L 237 727 Z M 330 -11 C 255 -11 194 13 148 63 C 102 112 79 177 79 257 L 79 658 L 103 658 L 103 257 C 103 183 124 124 166 79 C 208 34 262 12 330 12 C 399 12 455 34 497 79 C 539 124 560 183 560 257 L 560 658 L 583 658 L 583 257 C 583 177 559 112 513 63 C 467 13 406 -11 330 -11 Z" unicode="Ū" />
<glyph horiz-adv-x="478" d="M 142 540 L 142 561 L 336 561 L 336 540 L 142 540 Z M 234 -9 C 182 -9 143 6 116 37 C 88 68 75 108 75 158 L 75 462 L 98 462 L 98 158 C 98 112 110 76 135 50 C 159 24 192 12 234 12 C 267 12 296 20 322 37 C 347 54 366 76 379 103 L 379 462 L 402 462 L 402 0 L 382 0 L 379 69 C 364 44 344 25 319 11 C 293 -2 265 -9 234 -9 Z" unicode="ū" />
<glyph horiz-adv-x="662" d="M 334 715 C 302 715 276 725 257 747 C 238 769 229 798 229 836 L 250 836 C 250 805 257 780 273 762 C 288 744 308 735 334 735 C 359 735 379 744 395 762 C 410 780 418 805 418 836 L 439 836 C 439 798 429 769 410 747 C 391 725 366 715 334 715 Z M 330 -11 C 255 -11 194 13 148 63 C 102 112 79 177 79 257 L 79 658 L 103 658 L 103 257 C 103 183 124 124 166 79 C 208 34 262 12 330 12 C 399 12 455 34 497 79 C 539 124 560 183 560 257 L 560 658 L 583 658 L 583 257 C 583 177 559 112 513 63 C 467 13 406 -11 330 -11 Z" unicode="Ŭ" />
<glyph horiz-adv-x="478" d="M 239 516 C 207 516 181 526 162 548 C 143 570 134 599 134 637 L 155 637 C 155 606 162 582 178 564 C 193 546 213 537 239 537 C 264 537 284 546 300 564 C 315 582 323 606 323 637 L 344 637 C 344 599 334 570 315 548 C 296 526 271 516 239 516 Z M 234 -9 C 182 -9 143 6 116 37 C 88 68 75 108 75 158 L 75 462 L 98 462 L 98 158 C 98 112 110 76 135 50 C 159 24 192 12 234 12 C 267 12 296 20 322 37 C 347 54 366 76 379 103 L 379 462 L 402 462 L 402 0 L 382 0 L 379 69 C 364 44 344 25 319 11 C 293 -2 265 -9 234 -9 Z" unicode="ŭ" />
<glyph horiz-adv-x="662" d="M 334 652 C 313 652 296 658 284 671 C 272 684 266 700 266 719 C 266 737 272 753 284 767 C 296 780 313 787 334 787 C 354 787 370 780 382 767 C 394 753 401 737 401 719 C 401 700 394 684 382 671 C 370 658 354 652 334 652 Z M 334 671 C 346 671 357 675 366 684 C 375 693 380 705 380 719 C 380 733 375 745 366 754 C 357 762 346 767 334 767 C 321 767 310 762 301 754 C 292 745 288 733 288 719 C 288 705 292 693 301 684 C 310 675 321 671 334 671 Z M 330 -11 C 255 -11 194 13 148 63 C 102 112 79 177 79 257 L 79 658 L 103 658 L 103 257 C 103 183 124 124 166 79 C 208 34 262 12 330 12 C 399 12 455 34 497 79 C 539 124 560 183 560 257 L 560 658 L 583 658 L 583 257 C 583 177 559 112 513 63 C 467 13 406 -11 330 -11 Z" unicode="Ů" />
<glyph horiz-adv-x="478" d="M 239 500 C 218 500 201 506 189 520 C 177 533 171 549 171 568 C 171 586 177 602 189 616 C 201 629 218 636 239 636 C 259 636 275 629 287 616 C 299 602 306 586 306 568 C 306 549 299 533 287 520 C 275 506 259 500 239 500 Z M 239 520 C 251 520 262 524 271 533 C 280 542 285 554 285 568 C 285 582 280 593 271 602 C 262 611 251 616 239 616 C 226 616 215 611 206 602 C 197 593 193 582 193 568 C 193 554 197 542 206 533 C 215 524 226 520 239 520 Z M 234 -9 C 182 -9 143 6 116 37 C 88 68 75 108 75 158 L 75 462 L 98 462 L 98 158 C 98 112 110 76 135 50 C 159 24 192 12 234 12 C 267 12 296 20 322 37 C 347 54 366 76 379 103 L 379 462 L 402 462 L 402 0 L 382 0 L 379 69 C 364 44 344 25 319 11 C 293 -2 265 -9 234 -9 Z" unicode="ů" />
<glyph horiz-adv-x="662" d="M 262 724 L 356 841 L 386 841 L 289 724 L 262 724 Z M 372 724 L 466 841 L 495 841 L 398 724 L 372 724 Z M 330 -11 C 255 -11 194 13 148 63 C 102 112 79 177 79 257 L 79 658 L 103 658 L 103 257 C 103 183 124 124 166 79 C 208 34 262 12 330 12 C 399 12 455 34 497 79 C 539 124 560 183 560 257 L 560 658 L 583 658 L 583 257 C 583 177 559 112 513 63 C 467 13 406 -11 330 -11 Z" unicode="Ű" />
<glyph horiz-adv-x="478" d="M 167 524 L 261 641 L 291 641 L 194 524 L 167 524 Z M 277 524 L 371 641 L 400 641 L 303 524 L 277 524 Z M 234 -9 C 182 -9 143 6 116 37 C 88 68 75 108 75 158 L 75 462 L 98 462 L 98 158 C 98 112 110 76 135 50 C 159 24 192 12 234 12 C 267 12 296 20 322 37 C 347 54 366 76 379 103 L 379 462 L 402 462 L 402 0 L 382 0 L 379 69 C 364 44 344 25 319 11 C 293 -2 265 -9 234 -9 Z" unicode="ű" />
<glyph horiz-adv-x="662" d="M 512 -220 C 464 -220 427 -207 399 -182 C 371 -156 357 -125 357 -87 C 357 -70 359 -55 365 -41 C 370 -27 377 -16 387 -6 C 378 -7 369 -8 360 -9 C 350 -10 340 -11 330 -11 C 255 -11 194 13 148 63 C 102 112 79 177 79 257 L 79 658 L 103 658 L 103 257 C 103 183 124 124 166 79 C 208 34 262 12 330 12 C 399 12 455 34 497 79 C 539 124 560 183 560 257 L 560 658 L 583 658 L 583 257 C 583 200 570 150 546 107 C 522 64 489 33 447 15 C 425 5 409 -8 397 -26 C 385 -43 379 -63 379 -87 C 379 -119 391 -146 415 -167 C 439 -188 472 -199 512 -199 L 512 -220 Z" unicode="Ų" />
<glyph horiz-adv-x="478" d="M 234 -9 C 182 -9 143 6 116 37 C 88 68 75 108 75 158 L 75 462 L 98 462 L 98 158 C 98 112 110 76 135 50 C 159 24 192 12 234 12 C 267 12 296 20 322 37 C 347 54 366 76 379 103 L 379 462 L 402 462 L 402 0 L 399 0 C 368 -24 346 -47 332 -69 C 318 -90 311 -112 311 -135 C 311 -155 318 -171 334 -182 C 349 -193 371 -199 399 -199 L 399 -220 C 363 -220 335 -212 317 -197 C 298 -182 289 -161 289 -135 C 289 -110 296 -86 311 -63 C 325 -40 349 -15 381 12 L 379 69 C 364 44 344 25 319 11 C 293 -2 265 -9 234 -9 Z" unicode="ų" />
<glyph horiz-adv-x="904" d="M 371 724 L 343 724 L 446 843 L 462 843 L 565 724 L 537 724 L 454 819 L 371 724 Z M 230 0 L 21 658 L 46 658 L 233 71 L 244 36 L 255 71 L 442 658 L 466 658 L 652 71 L 663 35 L 674 71 L 861 658 L 883 658 L 674 0 L 649 0 L 464 588 L 453 625 L 441 588 L 255 0 L 230 0 Z" unicode="Ŵ" />
<glyph horiz-adv-x="700" d="M 269 524 L 241 524 L 344 643 L 360 643 L 463 524 L 435 524 L 352 619 L 269 524 Z M 180 0 L 20 462 L 45 462 L 180 71 L 192 36 L 204 71 L 339 462 L 363 462 L 498 71 L 511 35 L 523 71 L 658 462 L 680 462 L 520 0 L 498 0 L 363 391 L 351 429 L 338 391 L 201 0 L 180 0 Z" unicode="ŵ" />
<glyph horiz-adv-x="534" d="M 184 724 L 156 724 L 259 843 L 275 843 L 378 724 L 350 724 L 267 819 L 184 724 Z M 254 0 L 254 307 L 17 658 L 46 658 L 244 365 L 268 330 L 292 366 L 490 658 L 517 658 L 278 305 L 278 0 L 254 0 Z" unicode="Ŷ" />
<glyph horiz-adv-x="432" d="M 136 524 L 108 524 L 211 643 L 227 643 L 330 524 L 302 524 L 219 619 L 136 524 Z M -4 -220 L -12 -220 L -12 -198 L -4 -198 C 36 -198 73 -183 105 -154 C 137 -125 170 -73 204 2 L 199 14 L 16 462 L 41 462 L 200 71 L 216 32 L 231 71 L 390 462 L 413 462 L 224 -1 C 190 -81 155 -138 119 -171 C 83 -203 42 -220 -4 -220 Z" unicode="ŷ" />
<glyph horiz-adv-x="534" d="M 183 724 L 183 759 L 218 759 L 218 724 L 183 724 Z M 315 724 L 315 759 L 350 759 L 350 724 L 315 724 Z M 254 0 L 254 307 L 17 658 L 46 658 L 244 365 L 268 330 L 292 366 L 490 658 L 517 658 L 278 305 L 278 0 L 254 0 Z" unicode="Ÿ" />
<glyph horiz-adv-x="593" d="M 294 724 L 267 724 L 365 849 L 395 849 L 294 724 Z M 65 0 L 65 14 L 465 597 L 492 636 L 67 636 L 67 658 L 527 658 L 527 646 L 126 61 L 100 22 L 527 22 L 527 0 L 65 0 Z" unicode="Ź" />
<glyph horiz-adv-x="420" d="M 203 524 L 176 524 L 274 649 L 304 649 L 203 524 Z M 47 0 L 47 15 L 316 410 L 337 440 L 49 440 L 49 462 L 370 462 L 370 447 L 100 52 L 80 22 L 373 22 L 373 0 L 47 0 Z" unicode="ź" />
<glyph horiz-adv-x="593" d="M 279 724 L 279 761 L 316 761 L 316 724 L 279 724 Z M 65 0 L 65 14 L 465 597 L 492 636 L 67 636 L 67 658 L 527 658 L 527 646 L 126 61 L 100 22 L 527 22 L 527 0 L 65 0 Z" unicode="Ż" />
<glyph horiz-adv-x="420" d="M 189 543 L 189 580 L 227 580 L 227 543 L 189 543 Z M 47 0 L 47 15 L 316 410 L 337 440 L 49 440 L 49 462 L 370 462 L 370 447 L 100 52 L 80 22 L 373 22 L 373 0 L 47 0 Z" unicode="ż" />
<glyph horiz-adv-x="593" d="M 291 715 L 188 834 L 216 834 L 300 738 L 383 834 L 410 834 L 308 715 L 291 715 Z M 65 0 L 65 14 L 465 597 L 492 636 L 67 636 L 67 658 L 527 658 L 527 646 L 126 61 L 100 22 L 527 22 L 527 0 L 65 0 Z" unicode="Ž" />
<glyph horiz-adv-x="420" d="M 200 524 L 97 643 L 125 643 L 209 547 L 292 643 L 319 643 L 217 524 L 200 524 Z M 47 0 L 47 15 L 316 410 L 337 440 L 49 440 L 49 462 L 370 462 L 370 447 L 100 52 L 80 22 L 373 22 L 373 0 L 47 0 Z" unicode="ž" />
<glyph horiz-adv-x="503" d="M 45 -220 C 29 -220 13 -217 -1 -213 C -16 -209 -30 -202 -43 -194 L -43 -169 C -30 -177 -16 -184 -1 -190 C 13 -195 29 -198 46 -198 C 78 -198 105 -186 125 -162 C 145 -138 157 -106 162 -66 L 232 440 L 104 440 L 104 462 L 235 462 L 251 577 C 258 629 275 668 302 695 C 328 721 362 735 402 735 C 418 735 434 733 451 729 C 467 725 483 718 499 710 L 499 685 C 484 694 468 701 451 706 C 433 710 416 713 400 713 C 365 713 337 700 316 676 C 294 652 281 619 275 577 L 259 462 L 415 462 L 415 440 L 256 440 L 186 -66 C 179 -116 163 -154 137 -180 C 111 -206 81 -220 45 -220 Z" unicode="ƒ" />
<glyph horiz-adv-x="687" d="M 382 720 L 279 839 L 307 839 L 391 743 L 474 839 L 501 839 L 399 720 L 382 720 Z M 388 -11 C 290 -11 210 20 149 83 C 87 145 57 228 57 330 C 57 432 87 514 149 576 C 210 638 291 669 392 669 C 428 669 463 665 497 658 C 531 650 564 639 597 625 L 597 599 C 564 615 531 627 497 635 C 463 643 428 647 392 647 C 298 647 223 618 167 560 C 110 502 82 426 82 330 C 82 234 110 156 166 98 C 222 40 297 11 389 11 C 425 11 461 14 497 21 C 533 28 566 39 597 53 L 597 282 L 447 282 L 447 304 L 621 304 L 621 39 C 587 23 549 11 509 2 C 468 -6 428 -11 388 -11 Z" unicode="Ǧ" />
<glyph horiz-adv-x="509" d="M 253 524 L 150 643 L 178 643 L 262 547 L 345 643 L 372 643 L 270 524 L 253 524 Z M 240 -228 C 212 -228 182 -223 151 -215 C 120 -206 92 -194 68 -178 L 68 -151 C 92 -167 119 -180 150 -190 C 180 -200 210 -206 240 -206 C 292 -206 333 -189 365 -155 C 397 -121 413 -76 413 -20 L 413 65 C 395 41 373 22 347 10 C 321 -2 292 -9 262 -9 C 200 -9 150 11 111 53 C 71 95 52 154 52 231 C 52 308 72 367 113 409 C 153 450 204 471 264 471 C 291 471 318 465 345 455 C 372 445 395 431 413 414 L 419 462 L 436 462 L 436 -20 C 436 -82 418 -132 382 -170 C 346 -208 299 -228 240 -228 Z M 262 12 C 294 12 324 20 350 36 C 376 52 397 73 413 100 L 413 386 C 395 406 373 422 346 433 C 318 444 291 450 264 450 C 208 450 162 430 128 390 C 93 350 76 298 76 232 C 76 166 92 112 126 72 C 159 32 204 12 262 12 Z" unicode="ǧ" />
<glyph horiz-adv-x="594" d="M 281 799 L 338 879 L 365 879 L 307 799 L 281 799 Z M 24 0 L 279 654 C 265 657 253 664 245 675 C 236 686 232 699 232 714 C 232 732 238 746 250 758 C 262 770 277 776 296 776 C 314 776 329 770 341 758 C 353 746 359 732 359 714 C 359 699 354 686 346 675 C 338 664 327 657 314 654 L 570 0 L 544 0 L 446 254 L 146 254 L 47 0 L 24 0 Z M 296 671 C 308 671 318 675 326 683 C 334 691 338 701 338 714 C 338 726 334 737 326 745 C 318 753 308 757 296 757 C 283 757 273 753 265 745 C 257 737 253 726 253 714 C 253 701 257 691 265 683 C 273 675 283 671 296 671 Z M 154 275 L 437 275 L 311 598 L 296 639 L 280 598 L 154 275 Z" unicode="Ǻ" />
<glyph horiz-adv-x="427" d="M 193 627 L 250 707 L 277 707 L 219 627 L 193 627 Z M 208 475 C 189 475 174 480 162 492 C 150 504 144 519 144 537 C 144 555 150 570 162 582 C 174 594 189 600 208 600 C 226 600 241 594 253 582 C 265 570 271 555 271 537 C 271 519 265 504 253 492 C 241 480 226 475 208 475 Z M 208 495 C 220 495 230 498 238 506 C 246 514 250 524 250 537 C 250 549 246 560 238 568 C 230 576 220 580 208 580 C 195 580 185 576 177 568 C 169 560 165 549 165 537 C 165 524 169 514 177 506 C 185 498 195 495 208 495 Z M 189 -9 C 145 -9 111 2 85 26 C 59 50 47 81 47 120 C 47 158 61 190 91 217 C 121 244 161 260 213 266 L 331 279 L 331 327 C 331 367 320 397 298 418 C 276 438 246 449 208 449 C 182 449 158 445 135 437 C 111 429 89 417 67 401 L 67 429 C 89 442 111 452 135 460 C 159 467 183 471 208 471 C 253 471 289 458 315 434 C 341 409 355 373 355 327 L 355 0 L 335 0 L 331 65 C 315 41 295 22 271 10 C 247 -2 219 -9 189 -9 Z M 189 12 C 221 12 249 19 274 35 C 298 51 317 72 331 98 L 331 258 L 216 245 C 170 240 134 226 109 204 C 83 181 71 153 71 120 C 71 87 81 61 103 41 C 124 21 153 12 189 12 Z" unicode="ǻ" />
<glyph horiz-adv-x="800" d="M 508 724 L 481 724 L 579 849 L 609 849 L 508 724 Z M 13 0 L 271 439 L 299 448 L 386 598 L 407 637 L 407 646 L 412 646 L 407 637 L 407 481 L 299 448 L 194 267 L 223 267 L 163 219 L 13 0 Z M 732 129 L 732 112 L 409 112 L 409 378 L 407 378 L 407 481 L 428 488 L 428 504 L 481 504 L 546 524 L 545 504 L 481 504 L 428 488 L 428 232 L 722 232 L 722 215 L 431 215 L 431 129 L 732 129 Z M 364 380 L 362 378 L 407 378 L 407 267 L 223 267 L 362 378 L 355 378 L 364 380 Z" unicode="Ǽ" />
<glyph horiz-adv-x="770" d="M 374 524 L 347 524 L 445 649 L 475 649 L 374 524 Z M 185 -9 C 143 -9 109 2 84 26 C 59 50 47 81 47 120 C 47 160 61 193 91 219 C 121 244 162 259 214 264 L 329 273 L 329 318 C 329 362 317 394 294 416 C 270 438 241 449 207 449 C 181 449 155 445 131 437 C 106 429 83 417 62 401 L 62 429 C 84 442 107 452 132 460 C 156 467 181 471 207 471 C 247 471 280 460 306 438 C 332 416 346 386 350 348 C 366 387 388 417 418 439 C 448 460 483 471 525 471 C 583 471 630 452 665 414 C 699 376 717 324 717 259 L 717 238 L 353 238 L 353 228 C 353 166 368 114 399 74 C 429 33 476 13 538 13 C 568 13 597 18 625 28 C 653 38 680 54 707 75 L 707 49 C 679 29 652 15 624 5 C 596 -4 567 -9 538 -9 C 488 -9 447 3 415 28 C 383 53 359 88 345 132 C 335 86 316 51 287 27 C 257 3 223 -9 185 -9 Z M 525 450 C 475 450 434 432 403 398 C 372 363 355 317 353 259 L 693 259 C 693 318 677 365 647 399 C 617 433 576 450 525 450 Z M 185 12 C 226 12 260 26 286 56 C 312 86 326 120 329 160 L 329 252 L 217 242 C 169 238 132 225 108 204 C 83 182 71 154 71 120 C 71 87 81 61 102 41 C 122 21 150 12 185 12 Z" unicode="ǽ" />
<glyph horiz-adv-x="775" d="M 386 729 L 359 729 L 457 854 L 487 854 L 386 729 Z M 144 -48 L 199 41 C 155 69 120 108 95 158 C 69 208 57 265 57 329 C 57 430 87 512 149 575 C 211 638 290 670 387 670 C 419 670 450 666 479 659 C 507 651 534 641 559 627 L 607 706 L 633 706 L 578 616 C 620 587 654 548 679 498 C 704 448 717 392 717 329 C 717 228 686 146 625 83 C 563 19 484 -12 387 -12 C 355 -12 324 -8 296 -1 C 268 6 242 16 218 30 L 170 -48 L 144 -48 Z M 82 329 C 82 269 93 217 116 171 C 139 125 171 88 211 61 L 547 608 C 524 620 499 630 472 637 C 445 644 417 648 387 648 C 297 648 224 618 167 560 C 110 501 82 424 82 329 Z M 387 10 C 476 10 549 39 607 98 C 664 156 693 233 693 329 C 693 387 681 440 659 486 C 636 532 605 568 565 596 L 230 49 C 252 36 277 26 303 20 C 329 13 357 10 387 10 Z" unicode="Ǿ" />
<glyph horiz-adv-x="558" d="M 269 523 L 242 523 L 340 648 L 370 648 L 269 523 Z M 96 -48 L 144 31 C 115 51 92 79 76 113 C 59 147 51 186 51 230 C 51 302 72 360 114 404 C 156 448 211 471 279 471 C 300 471 320 468 340 463 C 359 458 377 451 394 443 L 435 510 L 459 510 L 412 432 C 441 412 464 384 481 350 C 498 315 507 275 507 231 C 507 159 485 101 443 57 C 401 13 346 -9 279 -9 C 257 -9 236 -6 216 -1 C 196 3 177 10 161 20 L 120 -48 L 96 -48 Z M 75 231 C 75 191 82 155 96 124 C 110 93 130 68 156 50 L 383 424 C 368 432 352 439 334 443 C 316 447 298 450 279 450 C 218 450 169 430 131 390 C 93 350 75 297 75 231 Z M 279 12 C 339 12 388 32 426 72 C 464 112 483 164 483 230 C 483 270 475 305 461 337 C 446 369 426 394 400 413 L 173 39 C 187 30 204 23 222 19 C 240 14 259 12 279 12 Z" unicode="ǿ" />
<glyph horiz-adv-x="503" d="M 245 -14 C 211 -14 179 -8 147 1 C 115 11 87 26 63 45 L 63 75 C 89 53 117 37 149 25 C 180 13 212 8 245 8 C 293 8 333 21 363 49 C 393 77 409 113 409 157 C 409 198 397 231 373 256 C 349 281 310 304 256 326 L 239 333 C 182 355 141 380 116 406 C 90 432 78 467 78 511 C 78 559 94 597 127 627 C 159 657 203 672 258 672 C 287 672 315 667 343 659 C 370 650 395 638 419 622 L 419 590 C 396 609 371 624 344 634 C 317 644 288 650 258 650 C 210 650 171 637 143 612 C 115 586 101 553 101 511 C 101 473 112 442 135 419 C 157 396 194 375 245 356 L 262 349 C 322 325 366 298 392 270 C 418 242 432 204 432 158 C 432 107 414 66 380 34 C 346 2 301 -14 245 -14 Z M 217 -207 L 202 -194 C 216 -175 225 -157 231 -139 C 236 -121 239 -102 239 -83 L 239 -48 L 262 -48 L 262 -83 C 262 -103 258 -124 252 -145 C 246 -165 234 -186 217 -207 Z" unicode="Ș" />
<glyph horiz-adv-x="372" d="M 184 -9 C 158 -9 134 -5 111 2 C 88 9 67 20 47 34 L 47 61 C 67 45 88 32 112 24 C 135 16 159 12 184 12 C 219 12 247 21 269 40 C 290 58 301 83 301 114 C 301 141 291 164 273 182 C 254 200 225 216 187 229 L 171 234 C 131 246 101 262 82 282 C 63 301 54 326 54 357 C 54 391 66 418 91 440 C 115 461 148 472 190 472 C 212 472 234 469 256 463 C 278 457 298 449 317 439 L 317 412 C 298 424 278 434 256 440 C 234 446 212 450 190 450 C 156 450 128 441 108 425 C 88 408 78 386 78 358 C 78 334 86 313 102 297 C 118 281 143 267 178 257 L 195 251 C 240 236 273 218 294 197 C 314 176 325 149 325 115 C 325 79 312 49 286 26 C 260 2 226 -9 184 -9 Z M 155 -212 L 140 -200 C 154 -181 163 -162 169 -144 C 174 -126 177 -107 177 -88 L 177 -53 L 200 -53 L 200 -88 C 200 -108 196 -129 190 -150 C 184 -170 172 -191 155 -212 Z" unicode="ș" />
<glyph horiz-adv-x="536" d="M 256 0 L 256 636 L 20 636 L 20 658 L 516 658 L 516 636 L 280 636 L 280 0 L 256 0 Z M 235 -207 L 220 -194 C 234 -175 243 -157 249 -139 C 254 -121 257 -102 257 -83 L 257 -48 L 280 -48 L 280 -83 C 280 -103 276 -124 270 -145 C 264 -165 252 -186 235 -207 Z" unicode="Ț" />
<glyph horiz-adv-x="290" d="M 183 -9 C 157 -9 137 -1 122 15 C 106 31 99 52 99 79 L 99 440 L 21 440 L 21 462 L 99 462 L 99 624 L 122 624 L 122 462 L 254 462 L 254 440 L 122 440 L 122 79 C 122 59 127 43 138 31 C 148 19 163 14 183 14 C 195 14 208 16 221 20 C 234 24 246 30 257 39 L 257 13 C 246 5 234 0 221 -3 C 208 -7 195 -9 183 -9 Z M 147 -212 L 132 -200 C 146 -181 155 -162 161 -144 C 166 -126 169 -107 169 -88 L 169 -53 L 192 -53 L 192 -88 C 192 -108 188 -129 182 -150 C 176 -170 164 -191 147 -212 Z" unicode="ț" />
<glyph horiz-adv-x="173" d="M -28 -209 L -36 -209 L -36 -188 L -28 -188 C 4 -188 29 -176 49 -153 C 68 -130 78 -100 78 -62 L 78 462 L 101 462 L 101 -62 C 101 -107 89 -143 65 -169 C 41 -195 10 -209 -28 -209 Z" unicode="ȷ" />
<glyph horiz-adv-x="500" d="M 243 -9 C 183 -9 135 10 100 49 C 64 88 47 141 47 209 L 47 228 L 428 228 L 428 231 C 428 297 410 349 375 389 C 340 429 291 449 229 449 C 198 449 168 444 140 434 C 111 424 83 408 57 388 L 57 415 C 85 433 113 447 141 457 C 169 467 199 472 229 472 C 299 472 353 450 393 406 C 432 362 452 304 452 231 C 452 157 432 99 394 56 C 356 12 305 -9 243 -9 Z M 243 13 C 295 13 339 30 373 65 C 407 99 425 147 428 207 L 70 207 C 70 146 85 98 116 64 C 147 30 189 13 243 13 Z" unicode="ə" />
<glyph horiz-adv-x="320" d="M 77 524 L 49 524 L 152 643 L 168 643 L 271 524 L 243 524 L 160 619 L 77 524 Z" unicode="ˆ" />
<glyph horiz-adv-x="321" d="M 152 524 L 49 643 L 77 643 L 161 547 L 244 643 L 271 643 L 169 524 L 152 524 Z" unicode="ˇ" />
<glyph horiz-adv-x="362" d="M 181 516 C 149 516 123 526 104 548 C 85 570 76 599 76 637 L 97 637 C 97 606 104 582 120 564 C 135 546 155 537 181 537 C 206 537 226 546 242 564 C 257 582 265 606 265 637 L 286 637 C 286 599 276 570 257 548 C 238 526 213 516 181 516 Z" unicode="˘" />
<glyph horiz-adv-x="137" d="M 49 543 L 49 580 L 87 580 L 87 543 L 49 543 Z" unicode="˙" />
<glyph horiz-adv-x="225" d="M 113 500 C 92 500 75 506 63 520 C 51 533 45 549 45 568 C 45 586 51 602 63 616 C 75 629 92 636 113 636 C 133 636 149 629 161 616 C 173 602 180 586 180 568 C 180 549 173 533 161 520 C 149 506 133 500 113 500 Z M 113 520 C 125 520 136 524 145 533 C 154 542 159 554 159 568 C 159 582 154 593 145 602 C 136 611 125 616 113 616 C 100 616 89 611 80 602 C 71 593 67 582 67 568 C 67 554 71 542 80 533 C 89 524 100 520 113 520 Z" unicode="˚" />
<glyph horiz-adv-x="238" d="M 204 -220 C 162 -220 128 -208 102 -186 C 76 -163 64 -134 64 -100 C 64 -65 75 -37 99 -16 C 123 5 150 17 182 19 L 187 0 C 157 -1 133 -11 114 -29 C 95 -47 86 -70 86 -100 C 86 -128 96 -152 118 -171 C 139 -189 168 -199 204 -199 L 204 -220 Z" unicode="˛" />
<glyph horiz-adv-x="328" d="M 46 532 L 27 532 C 29 558 37 577 51 589 C 64 601 80 607 99 607 C 110 607 121 604 132 599 C 143 593 156 584 171 572 C 181 563 191 556 199 551 C 207 545 217 543 227 543 C 240 543 251 547 260 556 C 269 565 275 579 278 598 L 297 598 C 293 570 284 551 271 539 C 257 527 242 522 225 522 C 212 522 200 525 190 531 C 179 537 167 545 153 557 C 141 566 131 573 123 578 C 114 583 105 586 97 586 C 83 586 72 581 63 572 C 54 563 48 550 46 532 Z" unicode="˜" />
<glyph horiz-adv-x="389" d="M 86 524 L 180 641 L 210 641 L 113 524 L 86 524 Z M 196 524 L 290 641 L 319 641 L 222 524 L 196 524 Z" unicode="˝" />
<glyph horiz-adv-x="0" d="M 6 524 L -95 649 L -65 649 L 33 524 L 6 524 Z" unicode="̀" />
<glyph horiz-adv-x="0" d="M -5 524 L -32 524 L 66 649 L 96 649 L -5 524 Z" unicode="́" />
<glyph horiz-adv-x="0" d="M -83 524 L -111 524 L -8 643 L 8 643 L 111 524 L 83 524 L 0 619 L -83 524 Z" unicode="̂" />
<glyph horiz-adv-x="0" d="M -118 532 L -137 532 C -134 558 -126 577 -113 589 C -99 601 -83 607 -65 607 C -53 607 -42 604 -31 599 C -20 593 -7 584 7 572 C 17 563 27 556 35 551 C 43 545 53 543 63 543 C 76 543 87 547 96 556 C 105 565 111 579 114 598 L 133 598 C 129 570 120 551 107 539 C 93 527 78 522 61 522 C 48 522 36 525 26 531 C 15 537 3 545 -11 557 C -22 566 -32 573 -41 578 C -49 583 -58 586 -67 586 C -80 586 -91 581 -100 572 C -109 563 -115 550 -118 532 Z" unicode="̃" />
<glyph horiz-adv-x="0" d="M -96 540 L -96 561 L 98 561 L 98 540 L -96 540 Z" unicode="̄" />
<glyph horiz-adv-x="0" d="M 1 516 C -31 516 -56 526 -75 548 C -94 570 -104 599 -104 637 L -83 637 C -83 606 -75 582 -60 564 C -44 546 -24 537 1 537 C 26 537 46 546 62 564 C 77 582 85 606 85 637 L 106 637 C 106 599 96 570 77 548 C 58 526 33 516 1 516 Z" unicode="̆" />
<glyph horiz-adv-x="0" d="M -19 543 L -19 580 L 19 580 L 19 543 L -19 543 Z" unicode="̇" />
<glyph horiz-adv-x="0" d="M -84 543 L -84 577 L -49 577 L -49 543 L -84 543 Z M 48 543 L 48 577 L 83 577 L 83 543 L 48 543 Z" unicode="̈" />
<glyph horiz-adv-x="0" d="M 1 500 C -19 500 -36 506 -48 520 C -60 533 -67 549 -67 568 C -67 586 -60 602 -48 616 C -36 629 -19 636 1 636 C 21 636 37 629 49 616 C 61 602 68 586 68 568 C 68 549 61 533 49 520 C 37 506 21 500 1 500 Z M 1 520 C 13 520 24 524 33 533 C 42 542 47 554 47 568 C 47 582 42 593 33 602 C 24 611 13 616 1 616 C -11 616 -22 611 -31 602 C -40 593 -45 582 -45 568 C -45 554 -40 542 -31 533 C -22 524 -11 520 1 520 Z" unicode="̊" />
<glyph horiz-adv-x="0" d="M -71 524 L 23 641 L 53 641 L -44 524 L -71 524 Z M 39 524 L 133 641 L 162 641 L 65 524 L 39 524 Z" unicode="̋" />
<glyph horiz-adv-x="0" d="M -8 524 L -111 643 L -83 643 L 1 547 L 84 643 L 111 643 L 9 524 L -8 524 Z" unicode="̌" />
<glyph horiz-adv-x="0" d="M 33 677 L 48 665 C 34 646 24 628 19 610 C 13 592 11 573 11 553 L 11 519 L -12 519 L -12 553 C -12 574 -8 595 -2 615 C 3 635 15 656 33 677 Z" unicode="̒" />
<glyph horiz-adv-x="0" d="M -33 -199 L -48 -186 C -34 -167 -24 -149 -19 -131 C -13 -113 -11 -95 -11 -75 L -11 -40 L 12 -40 L 12 -75 C 12 -95 8 -116 2 -137 C -3 -157 -15 -178 -33 -199 Z" unicode="̦" />
<glyph horiz-adv-x="0" d="M 5 -181 C -4 -181 -14 -179 -24 -177 C -34 -174 -43 -170 -51 -166 L -51 -144 C -43 -149 -35 -153 -25 -157 C -15 -160 -5 -162 4 -162 C 18 -162 30 -157 38 -149 C 46 -140 51 -129 51 -115 C 51 -100 46 -88 36 -80 C 26 -72 12 -68 -4 -68 L -10 -68 L -10 -48 L -4 -48 C 19 -48 38 -54 52 -66 C 66 -78 73 -94 73 -114 C 73 -134 66 -150 54 -162 C 42 -174 25 -181 5 -181 Z" unicode="̧" />
<glyph horiz-adv-x="0" d="M 16 -220 C -26 -220 -59 -208 -85 -186 C -111 -163 -124 -134 -124 -100 C -124 -65 -112 -37 -88 -16 C -64 5 -37 17 -6 19 L -1 0 C -30 -1 -54 -11 -73 -29 C -92 -47 -102 -70 -102 -100 C -102 -128 -91 -152 -70 -171 C -48 -189 -20 -199 16 -199 L 16 -220 Z" unicode="̨" />
<glyph horiz-adv-x="550" d="M 32 0 L 260 682 L 277 682 L 504 0 L 32 0 Z M 62 23 L 471 23 L 267 638 L 62 23 Z" unicode="Δ" />
<glyph horiz-adv-x="478" d="M 98 -220 L 75 -220 L 75 462 L 98 462 L 98 158 C 98 112 110 76 135 50 C 159 24 192 12 234 12 C 267 12 296 20 322 37 C 347 54 366 76 379 103 L 379 462 L 402 462 L 402 0 L 382 0 L 379 69 C 364 44 344 25 319 11 C 293 -2 265 -9 234 -9 C 200 -9 171 -1 147 12 C 123 26 105 46 94 71 L 98 -220 Z" unicode="μ" />
<glyph horiz-adv-x="501" d="M 116 0 L 116 440 L 41 440 L 41 462 L 460 462 L 460 440 L 385 440 L 385 0 L 364 0 L 364 440 L 137 440 L 137 0 L 116 0 Z" unicode="π" />
<glyph horiz-adv-x="904" d="M 460 724 L 359 849 L 389 849 L 487 724 L 460 724 Z M 230 0 L 21 658 L 46 658 L 233 71 L 244 36 L 255 71 L 442 658 L 466 658 L 652 71 L 663 35 L 674 71 L 861 658 L 883 658 L 674 0 L 649 0 L 464 588 L 453 625 L 441 588 L 255 0 L 230 0 Z" unicode="Ẁ" />
<glyph horiz-adv-x="700" d="M 358 524 L 257 649 L 287 649 L 385 524 L 358 524 Z M 180 0 L 20 462 L 45 462 L 180 71 L 192 36 L 204 71 L 339 462 L 363 462 L 498 71 L 511 35 L 523 71 L 658 462 L 680 462 L 520 0 L 498 0 L 363 391 L 351 429 L 338 391 L 201 0 L 180 0 Z" unicode="ẁ" />
<glyph horiz-adv-x="904" d="M 449 724 L 422 724 L 520 849 L 550 849 L 449 724 Z M 230 0 L 21 658 L 46 658 L 233 71 L 244 36 L 255 71 L 442 658 L 466 658 L 652 71 L 663 35 L 674 71 L 861 658 L 883 658 L 674 0 L 649 0 L 464 588 L 453 625 L 441 588 L 255 0 L 230 0 Z" unicode="Ẃ" />
<glyph horiz-adv-x="700" d="M 347 524 L 320 524 L 418 649 L 448 649 L 347 524 Z M 180 0 L 20 462 L 45 462 L 180 71 L 192 36 L 204 71 L 339 462 L 363 462 L 498 71 L 511 35 L 523 71 L 658 462 L 680 462 L 520 0 L 498 0 L 363 391 L 351 429 L 338 391 L 201 0 L 180 0 Z" unicode="ẃ" />
<glyph horiz-adv-x="904" d="M 370 724 L 370 759 L 405 759 L 405 724 L 370 724 Z M 502 724 L 502 759 L 537 759 L 537 724 L 502 724 Z M 230 0 L 21 658 L 46 658 L 233 71 L 244 36 L 255 71 L 442 658 L 466 658 L 652 71 L 663 35 L 674 71 L 861 658 L 883 658 L 674 0 L 649 0 L 464 588 L 453 625 L 441 588 L 255 0 L 230 0 Z" unicode="Ẅ" />
<glyph horiz-adv-x="700" d="M 268 543 L 268 577 L 303 577 L 303 543 L 268 543 Z M 400 543 L 400 577 L 435 577 L 435 543 L 400 543 Z M 180 0 L 20 462 L 45 462 L 180 71 L 192 36 L 204 71 L 339 462 L 363 462 L 498 71 L 511 35 L 523 71 L 658 462 L 680 462 L 520 0 L 498 0 L 363 391 L 351 429 L 338 391 L 201 0 L 180 0 Z" unicode="ẅ" />
<glyph horiz-adv-x="534" d="M 273 724 L 172 849 L 202 849 L 300 724 L 273 724 Z M 254 0 L 254 307 L 17 658 L 46 658 L 244 365 L 268 330 L 292 366 L 490 658 L 517 658 L 278 305 L 278 0 L 254 0 Z" unicode="Ỳ" />
<glyph horiz-adv-x="432" d="M 225 524 L 124 649 L 154 649 L 252 524 L 225 524 Z M -4 -220 L -12 -220 L -12 -198 L -4 -198 C 36 -198 73 -183 105 -154 C 137 -125 170 -73 204 2 L 199 14 L 16 462 L 41 462 L 200 71 L 216 32 L 231 71 L 390 462 L 413 462 L 224 -1 C 190 -81 155 -138 119 -171 C 83 -203 42 -220 -4 -220 Z" unicode="ỳ" />
<glyph horiz-adv-x="500" d="" unicode=" " />
<glyph horiz-adv-x="1000" d="" unicode=" " />
<glyph horiz-adv-x="650" d="" unicode=" " />
<glyph horiz-adv-x="0" d="" unicode=" " />
<glyph horiz-adv-x="650" d="M 107 269 L 107 290 L 543 290 L 543 269 L 107 269 Z" unicode="‒" />
<glyph horiz-adv-x="519" d="M 41 213 L 41 234 L 477 234 L 477 213 L 41 213 Z" unicode="–" />
<glyph horiz-adv-x="1019" d="M 41 213 L 41 234 L 977 234 L 977 213 L 41 213 Z" unicode="—" />
<glyph horiz-adv-x="360" d="M 41 210 L 41 232 L 305 232 L 305 210 L 41 210 Z" unicode="―" />
<glyph horiz-adv-x="152" d="M 61 557 L 61 611 C 61 631 63 650 69 670 C 75 690 86 710 103 731 L 120 719 C 107 700 98 682 93 665 C 88 648 86 630 86 611 L 86 557 L 61 557 Z" unicode="‘" />
<glyph horiz-adv-x="153" d="M 56 549 L 40 562 C 52 580 61 598 66 615 C 71 632 74 651 74 671 L 74 724 L 97 724 L 97 671 C 97 651 94 630 89 610 C 83 590 72 569 56 549 Z" unicode="’" />
<glyph horiz-adv-x="153" d="M 97 61 L 97 5 C 97 -15 94 -35 89 -55 C 83 -75 72 -95 56 -116 L 40 -104 C 52 -85 61 -67 66 -50 C 71 -33 74 -15 74 5 L 74 61 L 97 61 Z" unicode="‚" />
<glyph horiz-adv-x="238" d="M 61 560 L 61 611 C 61 631 63 651 69 671 C 75 691 86 711 103 732 L 120 720 C 107 701 98 683 93 666 C 88 649 86 631 86 611 L 86 560 L 61 560 Z M 147 560 L 147 611 C 147 631 149 651 155 671 C 161 691 172 711 189 732 L 206 720 C 193 701 184 683 179 666 C 174 649 172 631 172 611 L 172 560 L 147 560 Z" unicode="“" />
<glyph horiz-adv-x="238" d="M 56 549 L 40 562 C 52 580 61 598 66 615 C 71 632 74 651 74 671 L 74 724 L 97 724 L 97 671 C 97 651 94 630 89 610 C 83 590 72 569 56 549 Z M 141 549 L 125 562 C 137 580 146 598 151 615 C 156 632 159 651 159 671 L 159 724 L 182 724 L 182 671 C 182 651 179 630 174 610 C 168 590 157 569 141 549 Z" unicode="”" />
<glyph horiz-adv-x="237" d="M 97 61 L 97 5 C 97 -15 94 -35 89 -55 C 83 -75 72 -95 56 -116 L 40 -104 C 52 -85 61 -67 66 -50 C 71 -33 74 -15 74 5 L 74 61 L 97 61 Z M 181 61 L 181 5 C 181 -15 178 -35 172 -55 C 166 -75 155 -95 139 -116 L 123 -104 C 135 -85 144 -67 149 -50 C 154 -33 157 -15 157 5 L 157 61 L 181 61 Z" unicode="„" />
<glyph horiz-adv-x="468" d="M 223 0 L 223 486 L 64 486 L 64 508 L 223 508 L 223 724 L 245 724 L 245 508 L 404 508 L 404 486 L 245 486 L 245 0 L 223 0 Z" unicode="†" />
<glyph horiz-adv-x="468" d="M 223 0 L 223 224 L 64 224 L 64 246 L 223 246 L 223 486 L 64 486 L 64 508 L 223 508 L 223 724 L 245 724 L 245 508 L 404 508 L 404 486 L 245 486 L 245 246 L 404 246 L 404 224 L 245 224 L 245 0 L 223 0 Z" unicode="‡" />
<glyph horiz-adv-x="235" d="M 72 194 L 72 282 L 165 282 L 165 194 L 72 194 Z" unicode="•" />
<glyph horiz-adv-x="473" d="M 56 0 L 56 34 L 90 34 L 90 0 L 56 0 Z M 218 0 L 218 34 L 252 34 L 252 0 L 218 0 Z M 380 0 L 380 34 L 414 34 L 414 0 L 380 0 Z" unicode="…" />
<glyph horiz-adv-x="1183" d="M 195 352 C 147 352 109 369 83 403 C 57 437 44 482 44 540 C 44 597 57 643 83 677 C 109 711 147 728 195 728 C 242 728 279 711 305 677 C 331 643 345 597 345 541 C 345 483 331 437 305 403 C 279 369 242 352 195 352 Z M 263 0 L 519 724 L 541 724 L 285 0 L 263 0 Z M 195 374 C 235 374 266 389 288 419 C 310 449 322 490 322 540 C 322 590 310 630 288 660 C 266 690 235 706 195 706 C 155 706 123 691 101 661 C 78 631 67 591 67 541 C 67 491 78 450 101 420 C 123 389 155 374 195 374 Z M 990 -8 C 942 -8 904 9 878 43 C 852 77 839 122 839 180 C 839 237 852 283 878 317 C 904 351 942 368 990 368 C 1037 368 1074 351 1100 317 C 1126 283 1140 237 1140 181 C 1140 123 1126 77 1100 43 C 1074 9 1037 -8 990 -8 Z M 624 -8 C 576 -8 538 9 512 43 C 486 77 473 122 473 180 C 473 237 486 283 512 317 C 538 351 576 368 624 368 C 671 368 708 351 734 317 C 760 283 774 237 774 181 C 774 123 760 77 734 43 C 708 9 671 -8 624 -8 Z M 990 14 C 1030 14 1061 29 1083 59 C 1105 89 1117 130 1117 180 C 1117 230 1105 270 1083 300 C 1061 330 1030 346 990 346 C 950 346 918 331 896 301 C 873 271 862 231 862 181 C 862 131 873 90 896 60 C 918 29 950 14 990 14 Z M 624 14 C 664 14 695 29 717 59 C 739 89 751 130 751 180 C 751 230 739 270 717 300 C 695 330 664 346 624 346 C 584 346 552 331 530 301 C 507 271 496 231 496 181 C 496 131 507 90 530 60 C 552 29 584 14 624 14 Z" unicode="‰" />
<glyph horiz-adv-x="146" d="M 61 552 L 61 716 L 85 716 L 85 552 L 61 552 Z" unicode="′" />
<glyph horiz-adv-x="234" d="M 61 552 L 61 716 L 85 716 L 85 552 L 61 552 Z M 149 552 L 149 716 L 173 716 L 173 552 L 149 552 Z" unicode="″" />
<glyph horiz-adv-x="276" d="M 195 71 L 40 226 L 195 382 L 225 382 L 71 226 L 225 71 L 195 71 Z" unicode="‹" />
<glyph horiz-adv-x="276" d="M 51 71 L 205 226 L 51 382 L 81 382 L 236 226 L 81 71 L 51 71 Z" unicode="›" />
<glyph horiz-adv-x="100" d="M -89 0 L 167 724 L 189 724 L -67 0 L -89 0 Z" unicode="⁄" />
<glyph horiz-adv-x="388" d="M 195 432 C 147 432 109 449 83 483 C 57 517 44 562 44 620 C 44 677 57 723 83 757 C 109 791 147 808 195 808 C 242 808 279 791 305 757 C 331 723 345 677 345 621 C 345 563 331 517 305 483 C 279 449 242 432 195 432 Z M 195 454 C 235 454 266 469 288 499 C 310 529 322 570 322 620 C 322 670 310 710 288 740 C 266 770 235 786 195 786 C 155 786 123 771 101 741 C 78 711 67 671 67 621 C 67 571 78 530 101 500 C 123 469 155 454 195 454 Z" unicode="⁰" />
<glyph horiz-adv-x="313" d="M 198 440 L 198 542 L 28 542 L 28 559 L 193 803 L 221 803 L 221 563 L 282 563 L 282 542 L 221 542 L 221 440 L 198 440 Z M 198 563 L 198 774 L 56 563 L 198 563 Z" unicode="⁴" />
<glyph horiz-adv-x="296" d="M 143 432 C 123 432 104 435 86 441 C 68 447 51 457 37 470 L 37 499 C 51 484 67 473 85 465 C 103 457 122 454 143 454 C 169 454 191 462 209 479 C 226 495 235 518 235 546 C 235 572 225 594 207 610 C 189 626 165 634 137 634 C 122 634 107 632 91 630 C 75 627 60 624 48 621 L 62 800 L 240 800 L 240 777 L 82 777 L 71 648 C 82 650 93 652 105 654 C 116 655 127 656 137 656 C 175 656 204 646 226 626 C 248 606 259 579 259 546 C 259 512 248 484 227 463 C 205 442 177 432 143 432 Z" unicode="⁵" />
<glyph horiz-adv-x="318" d="M 159 432 C 126 432 97 445 73 472 C 49 499 37 536 37 582 C 37 660 50 718 77 754 C 104 790 142 808 192 808 C 204 808 217 806 231 803 C 245 800 257 797 267 793 L 267 769 C 256 773 244 777 231 781 C 218 785 205 787 192 787 C 150 787 118 773 97 745 C 75 717 63 676 61 623 C 69 641 83 654 101 664 C 119 674 139 679 161 679 C 197 679 226 667 248 644 C 270 620 281 592 281 560 C 281 522 269 491 245 467 C 221 443 192 432 159 432 Z M 159 453 C 189 453 213 463 231 483 C 248 503 257 528 257 559 C 257 585 248 608 232 628 C 215 648 191 658 161 658 C 134 658 111 651 92 637 C 73 623 62 605 60 584 C 60 546 68 514 86 490 C 104 465 128 453 159 453 Z" unicode="⁶" />
<glyph horiz-adv-x="306" d="M 97 440 L 244 777 L 37 777 L 37 800 L 269 800 L 269 779 L 123 440 L 97 440 Z" unicode="⁷" />
<glyph horiz-adv-x="302" d="M 151 432 C 117 432 90 440 70 458 C 50 476 40 499 40 528 C 40 550 47 570 61 587 C 75 604 93 617 116 626 C 92 635 75 647 63 663 C 51 679 45 697 45 718 C 45 744 54 766 74 783 C 93 799 118 808 150 808 C 181 808 206 799 226 783 C 246 767 256 745 256 719 C 256 700 249 683 236 667 C 223 651 205 638 183 629 C 207 619 227 605 241 588 C 255 570 262 550 262 528 C 262 499 251 476 231 458 C 210 440 183 432 151 432 Z M 143 640 L 151 638 C 175 644 194 654 210 669 C 225 683 233 700 233 719 C 233 739 225 756 210 769 C 194 781 174 788 150 788 C 126 788 106 781 91 768 C 75 755 68 738 68 718 C 68 699 74 683 88 670 C 101 656 119 646 143 640 Z M 63 528 C 63 505 71 487 87 473 C 103 459 124 452 151 452 C 177 452 199 459 215 473 C 231 487 239 505 239 528 C 239 548 231 566 217 581 C 203 595 182 606 155 614 L 146 617 C 119 610 98 599 84 583 C 70 567 63 548 63 528 Z" unicode="⁸" />
<glyph horiz-adv-x="318" d="M 131 432 C 115 432 100 433 86 436 C 72 439 60 443 50 447 L 50 471 C 60 466 72 462 86 458 C 100 454 115 453 131 453 C 171 453 201 467 222 495 C 242 523 254 565 257 619 C 249 600 236 586 218 576 C 200 566 179 561 157 561 C 119 561 90 572 69 596 C 47 620 37 648 37 681 C 37 721 49 752 73 774 C 97 796 125 808 159 808 C 191 808 220 795 244 769 C 268 743 281 706 281 658 C 281 579 267 522 241 486 C 214 450 177 432 131 432 Z M 157 582 C 184 582 207 589 226 603 C 244 617 255 634 258 656 C 258 694 249 726 231 750 C 213 774 189 787 159 787 C 127 787 103 777 86 757 C 68 737 60 712 60 682 C 60 655 68 632 85 612 C 102 592 126 582 157 582 Z" unicode="⁹" />
<glyph horiz-adv-x="358" d="M 53 440 L 53 800 L 77 800 L 77 752 C 89 768 105 782 125 793 C 145 803 166 809 189 809 C 228 809 258 797 280 773 C 302 749 313 718 313 680 L 313 440 L 289 440 L 289 677 C 289 712 279 739 261 758 C 242 777 217 787 186 787 C 163 787 142 781 123 770 C 103 758 88 743 77 725 L 77 440 L 53 440 Z" unicode="ⁿ" />
<glyph horiz-adv-x="388" d="M 195 -178 C 147 -178 109 -161 83 -127 C 57 -93 44 -47 44 10 C 44 67 57 113 83 147 C 109 181 147 198 195 198 C 242 198 279 181 305 147 C 331 113 345 67 345 11 C 345 -46 331 -92 305 -126 C 279 -160 242 -178 195 -178 Z M 195 -156 C 235 -156 266 -140 288 -110 C 310 -80 322 -40 322 10 C 322 60 310 100 288 130 C 266 160 235 176 195 176 C 155 176 123 161 101 131 C 78 101 67 61 67 11 C 67 -39 78 -79 101 -110 C 123 -140 155 -156 195 -156 Z" unicode="₀" />
<glyph horiz-adv-x="278" d="M 41 -170 L 41 -148 L 133 -148 L 133 174 L 35 153 L 35 176 L 157 204 L 157 -148 L 250 -148 L 250 -170 L 41 -170 Z" unicode="₁" />
<glyph horiz-adv-x="309" d="M 37 -170 L 37 -137 C 106 -93 157 -54 191 -20 C 225 14 242 49 242 85 C 242 112 233 134 216 151 C 198 167 175 176 147 176 C 129 176 112 173 94 167 C 76 161 59 152 45 142 L 45 168 C 58 177 74 184 92 190 C 110 195 128 198 147 198 C 183 198 211 187 233 166 C 255 145 266 118 266 86 C 266 48 248 10 213 -26 C 178 -63 127 -103 59 -147 L 272 -147 L 272 -170 L 37 -170 Z" unicode="₂" />
<glyph horiz-adv-x="297" d="M 145 -178 C 124 -178 105 -174 87 -168 C 69 -161 52 -151 37 -138 L 37 -110 C 51 -124 68 -136 86 -144 C 104 -152 124 -156 145 -156 C 172 -156 194 -148 211 -134 C 227 -119 236 -100 236 -77 C 236 -52 226 -32 208 -17 C 189 -1 162 6 127 6 L 112 6 L 112 28 L 126 28 C 158 28 184 35 202 49 C 220 63 229 83 229 107 C 229 128 221 145 207 157 C 192 169 173 176 149 176 C 131 176 114 173 98 167 C 82 161 67 152 55 140 L 55 166 C 68 176 83 183 99 189 C 115 195 132 198 149 198 C 181 198 206 190 225 174 C 243 158 253 136 253 108 C 253 85 245 66 231 50 C 217 34 196 23 170 17 C 198 13 220 2 236 -13 C 252 -29 260 -50 260 -76 C 260 -106 249 -131 229 -150 C 209 -168 181 -178 145 -178 Z" unicode="₃" />
<glyph horiz-adv-x="313" d="M 198 -170 L 198 -68 L 28 -68 L 28 -51 L 193 193 L 221 193 L 221 -47 L 282 -47 L 282 -68 L 221 -68 L 221 -170 L 198 -170 Z M 198 -47 L 198 164 L 56 -47 L 198 -47 Z" unicode="₄" />
<glyph horiz-adv-x="296" d="M 143 -178 C 123 -178 104 -174 86 -168 C 68 -162 51 -152 37 -140 L 37 -111 C 51 -125 67 -136 85 -144 C 103 -152 122 -156 143 -156 C 169 -156 191 -147 209 -131 C 226 -114 235 -92 235 -64 C 235 -37 225 -16 207 0 C 189 16 165 24 137 24 C 122 24 107 22 91 20 C 75 17 60 14 48 11 L 62 190 L 240 190 L 240 167 L 82 167 L 71 38 C 82 40 93 42 105 44 C 116 45 127 46 137 46 C 175 46 204 36 226 16 C 248 -4 259 -30 259 -64 C 259 -98 248 -125 227 -146 C 205 -167 177 -178 143 -178 Z" unicode="₅" />
<glyph horiz-adv-x="318" d="M 159 -178 C 126 -178 97 -164 73 -137 C 49 -110 37 -74 37 -28 C 37 50 50 108 77 144 C 104 180 142 198 192 198 C 204 198 217 196 231 193 C 245 190 257 187 267 183 L 267 159 C 256 163 244 167 231 171 C 218 175 205 177 192 177 C 150 177 118 163 97 135 C 75 107 63 66 61 13 C 69 31 83 44 101 54 C 119 64 139 69 161 69 C 197 69 226 57 248 34 C 270 10 281 -17 281 -50 C 281 -88 269 -118 245 -142 C 221 -166 192 -178 159 -178 Z M 159 -157 C 189 -157 213 -147 231 -127 C 248 -107 257 -81 257 -51 C 257 -24 248 -1 232 18 C 215 38 191 48 161 48 C 134 48 111 41 92 27 C 73 13 62 -4 60 -26 C 60 -64 68 -95 86 -120 C 104 -144 128 -157 159 -157 Z" unicode="₆" />
<glyph horiz-adv-x="306" d="M 97 -170 L 244 167 L 37 167 L 37 190 L 269 190 L 269 169 L 123 -170 L 97 -170 Z" unicode="₇" />
<glyph horiz-adv-x="302" d="M 151 -178 C 117 -178 90 -169 70 -151 C 50 -133 40 -110 40 -82 C 40 -59 47 -39 61 -22 C 75 -5 93 7 116 16 C 92 25 75 37 63 53 C 51 69 45 87 45 108 C 45 134 54 156 74 173 C 93 189 118 198 150 198 C 181 198 206 189 226 173 C 246 157 256 135 256 109 C 256 90 249 73 236 57 C 223 41 205 28 183 19 C 207 9 227 -4 241 -22 C 255 -39 262 -59 262 -82 C 262 -110 251 -133 231 -151 C 210 -169 183 -178 151 -178 Z M 143 30 L 151 28 C 175 34 194 44 210 59 C 225 73 233 90 233 109 C 233 129 225 146 210 159 C 194 171 174 178 150 178 C 126 178 106 171 91 158 C 75 145 68 128 68 108 C 68 89 74 73 88 60 C 101 46 119 36 143 30 Z M 63 -82 C 63 -104 71 -123 87 -137 C 103 -151 124 -158 151 -158 C 177 -158 199 -151 215 -137 C 231 -123 239 -104 239 -82 C 239 -61 231 -43 217 -29 C 203 -14 182 -3 155 4 L 146 7 C 119 0 98 -11 84 -27 C 70 -43 63 -61 63 -82 Z" unicode="₈" />
<glyph horiz-adv-x="318" d="M 131 -178 C 115 -178 100 -176 86 -173 C 72 -170 60 -167 50 -163 L 50 -139 C 60 -143 72 -147 86 -151 C 100 -155 115 -157 131 -157 C 171 -157 201 -142 222 -114 C 242 -86 254 -45 257 9 C 249 -9 236 -24 218 -34 C 200 -44 179 -49 157 -49 C 119 -49 90 -37 69 -13 C 47 10 37 38 37 71 C 37 111 49 142 73 164 C 97 186 125 198 159 198 C 191 198 220 185 244 159 C 268 133 281 96 281 48 C 281 -30 267 -88 241 -124 C 214 -160 177 -178 131 -178 Z M 157 -28 C 184 -28 207 -21 226 -7 C 244 7 255 24 258 46 C 258 84 249 116 231 140 C 213 164 189 177 159 177 C 127 177 103 167 86 147 C 68 127 60 102 60 72 C 60 45 68 22 85 2 C 102 -18 126 -28 157 -28 Z" unicode="₉" />
<glyph horiz-adv-x="712" d="M 29 275 L 29 296 L 106 296 C 105 300 105 305 105 311 C 105 317 105 322 105 328 C 105 334 105 341 105 347 C 105 353 106 360 107 367 L 29 367 L 29 388 L 109 388 C 121 473 157 541 217 592 C 277 643 353 669 446 669 C 484 669 519 665 553 657 C 587 649 619 637 651 621 L 651 595 C 619 613 587 626 554 634 C 520 642 484 647 446 647 C 360 647 290 623 235 577 C 179 530 146 467 134 388 L 313 388 L 313 367 L 132 367 C 131 360 130 353 130 347 C 130 341 130 334 130 328 C 130 322 130 317 130 311 C 130 305 130 300 131 296 L 315 296 L 315 275 L 133 275 C 143 193 177 129 234 82 C 290 34 361 11 446 11 C 485 11 522 16 557 26 C 591 36 625 52 658 74 L 658 47 C 625 27 591 13 556 3 C 520 -6 484 -11 446 -11 C 354 -11 277 14 216 66 C 154 118 118 187 108 275 L 29 275 Z" unicode="€" />
<glyph horiz-adv-x="504" d="M 84 0 L 84 658 L 183 658 L 183 786 L 205 786 L 205 658 L 228 658 C 233 658 238 658 244 658 C 250 658 255 657 260 657 L 260 786 L 282 786 L 282 654 C 328 646 362 628 386 600 C 410 572 422 537 422 495 C 422 457 411 424 391 395 C 370 365 337 346 292 338 C 346 329 386 309 410 279 C 434 249 446 214 446 174 C 446 126 432 86 405 56 C 377 25 336 7 282 2 L 282 -124 L 260 -124 L 260 0 C 257 0 255 0 253 0 C 251 0 248 0 246 0 L 205 0 L 205 -124 L 183 -124 L 183 0 L 84 0 Z M 108 347 L 227 347 C 278 347 319 359 351 385 C 382 410 398 447 398 495 C 398 541 382 576 351 600 C 320 624 279 636 228 636 L 108 636 L 108 347 Z M 108 22 L 246 22 C 300 22 343 35 375 61 C 406 87 422 124 422 174 C 422 222 405 260 372 286 C 338 312 292 325 232 325 L 108 325 L 108 22 Z" unicode="₿" />
<glyph horiz-adv-x="640" d="M 324 132 C 246 132 182 158 130 212 C 78 265 52 328 52 402 C 52 476 78 541 130 595 C 182 649 246 676 324 676 C 400 676 464 649 517 595 C 569 541 596 477 596 403 C 596 329 569 266 517 212 C 464 158 400 132 324 132 Z M 324 153 C 391 153 449 176 499 224 C 549 272 574 331 574 402 C 574 474 549 534 499 582 C 449 630 391 655 324 655 C 255 655 196 630 147 582 C 98 534 74 474 74 403 C 74 331 98 272 147 224 C 196 176 255 153 324 153 Z M 251 231 L 251 581 L 319 581 C 356 581 385 571 407 553 C 429 534 440 509 440 478 C 440 446 429 420 407 401 C 385 381 356 372 319 372 L 274 372 L 274 231 L 251 231 Z M 274 393 L 319 393 C 349 393 373 400 391 416 C 409 431 418 452 418 478 C 418 502 409 522 391 537 C 373 552 349 560 319 560 L 274 560 L 274 393 Z" unicode="℗" />
<glyph horiz-adv-x="540" d="M 105 462 L 105 703 L 17 703 L 17 724 L 215 724 L 215 703 L 127 703 L 127 462 L 105 462 Z M 246 462 L 246 724 L 283 724 L 372 539 L 461 724 L 496 724 L 496 462 L 473 462 L 473 700 L 381 511 L 360 511 L 267 702 L 267 462 L 246 462 Z" unicode="™" />
<glyph horiz-adv-x="493" d="M 244 -9 C 186 -9 138 10 100 49 C 62 88 44 140 44 205 C 44 269 63 320 102 359 C 141 397 189 417 245 417 C 281 417 316 407 350 389 C 384 370 408 343 423 308 C 416 388 388 464 339 536 C 290 608 202 644 76 644 L 76 665 C 222 665 321 620 372 530 C 423 440 449 353 449 267 C 449 171 429 101 389 57 C 349 13 300 -9 244 -9 Z M 244 12 C 296 12 340 33 374 75 C 408 117 425 174 425 246 C 417 288 397 324 365 353 C 333 381 293 396 245 396 C 192 396 149 377 117 341 C 84 304 68 258 68 204 C 68 150 83 104 114 67 C 145 30 188 12 244 12 Z" unicode="∂" />
<glyph horiz-adv-x="479" d="M 84 0 L 84 658 L 395 658 L 395 0 L 371 0 L 371 637 L 108 637 L 108 0 L 84 0 Z" unicode="∏" />
<glyph horiz-adv-x="462" d="M 40 0 L 40 18 L 306 331 L 40 640 L 40 658 L 420 658 L 420 637 L 74 637 L 335 333 L 73 24 L 422 24 L 422 0 L 40 0 Z" unicode="∑" />
<glyph horiz-adv-x="524" d="M 48 276 L 48 297 L 476 297 L 476 276 L 48 276 Z" unicode="−" />
<glyph horiz-adv-x="540" d="M 206 -7 L 16 469 L 40 469 L 216 28 L 496 729 L 519 729 L 226 -7 L 206 -7 Z" unicode="√" />
<glyph horiz-adv-x="790" d="M 209 62 C 163 62 126 76 98 106 C 70 135 56 174 56 222 C 56 270 70 308 98 338 C 126 367 163 382 209 382 C 245 382 277 370 305 348 C 333 326 363 292 395 246 L 396 244 C 428 290 459 325 489 347 C 518 369 549 381 583 381 C 628 381 664 366 692 338 C 720 309 734 271 734 223 C 734 174 720 135 692 106 C 664 76 628 62 583 62 C 547 62 514 73 486 97 C 457 120 427 155 395 203 C 362 155 331 119 302 96 C 272 73 241 62 209 62 Z M 79 223 C 79 181 91 147 115 121 C 139 95 170 83 209 83 C 238 83 266 93 293 115 C 319 136 349 172 382 222 L 374 234 C 343 279 315 311 290 331 C 265 351 238 361 209 361 C 170 361 139 348 115 323 C 91 298 79 265 79 223 Z M 415 216 C 446 168 474 133 500 113 C 525 93 553 83 583 83 C 621 83 652 95 676 121 C 700 146 712 180 712 222 C 712 264 700 297 676 322 C 652 347 621 360 583 360 C 554 360 526 349 500 329 C 473 308 443 273 409 225 L 415 216 Z" unicode="∞" />
<glyph horiz-adv-x="502" d="M 43 -225 C 27 -225 11 -223 -2 -219 C -16 -215 -30 -208 -43 -200 L -43 -174 C -30 -183 -16 -190 -2 -195 C 12 -200 28 -203 44 -203 C 78 -203 105 -190 125 -164 C 145 -138 158 -103 164 -58 L 251 566 C 259 622 276 665 302 693 C 328 721 360 735 400 735 C 416 735 432 733 448 729 C 463 725 478 718 492 710 L 492 685 C 477 694 462 701 447 706 C 431 710 415 713 399 713 C 364 713 336 700 316 674 C 295 648 281 612 275 566 L 188 -58 C 180 -114 164 -155 138 -183 C 112 -211 80 -225 43 -225 Z" unicode="∫" />
<glyph horiz-adv-x="356" d="M 66 300 L 56 315 C 64 329 75 340 88 348 C 100 355 113 359 126 359 C 136 359 146 357 156 354 C 166 350 176 345 186 338 C 195 330 204 324 213 320 C 221 316 230 314 240 314 C 252 314 262 317 272 324 C 281 331 290 340 298 351 L 308 336 C 299 321 288 310 276 303 C 264 295 251 292 238 292 C 229 292 220 293 210 297 C 200 300 190 305 180 313 C 170 321 160 327 152 331 C 144 335 134 337 124 337 C 112 337 102 333 93 327 C 83 321 74 312 66 300 Z M 66 164 L 56 179 C 64 193 75 204 88 212 C 100 219 113 223 126 223 C 136 223 146 221 156 218 C 166 214 176 209 186 202 C 195 194 204 188 213 184 C 221 180 230 178 240 178 C 252 178 262 181 272 188 C 281 195 290 204 298 215 L 308 200 C 299 185 288 174 276 167 C 264 159 251 156 238 156 C 229 156 220 157 210 161 C 200 164 190 169 180 177 C 170 185 160 191 152 195 C 144 199 134 201 124 201 C 112 201 102 197 93 191 C 83 185 74 176 66 164 Z" unicode="≈" />
<glyph horiz-adv-x="521" d="M 159 80 L 204 208 L 48 208 L 48 229 L 212 229 L 250 336 L 48 336 L 48 357 L 257 357 L 304 488 L 326 488 L 279 357 L 476 357 L 476 336 L 272 336 L 234 229 L 476 229 L 476 208 L 226 208 L 181 80 L 159 80 Z" unicode="≠" />
<glyph horiz-adv-x="408" d="M 308 79 L 64 277 L 308 475 L 344 475 L 100 277 L 344 79 L 308 79 Z M 72 -25 L 72 -4 L 336 -4 L 336 -25 L 72 -25 Z" unicode="≤" />
<glyph horiz-adv-x="408" d="M 64 79 L 308 277 L 64 475 L 100 475 L 344 277 L 100 79 L 64 79 Z M 71 -25 L 71 -4 L 336 -4 L 336 -25 L 71 -25 Z" unicode="≥" />
<glyph horiz-adv-x="608" d="M 304 -11 L 44 338 L 304 687 L 564 338 L 304 -11 Z M 304 26 L 536 338 L 304 650 L 72 338 L 304 26 Z" unicode="◊" />
<glyph horiz-adv-x="542" d="M 203 -7 L 13 469 L 38 469 L 214 27 L 493 728 L 516 728 L 223 -7 L 203 -7 Z" unicode="✓" />
<glyph horiz-adv-x="689" d="M 66 0 L 66 24 L 283 24 L 283 73 C 215 85 158 117 112 169 C 66 221 44 285 44 362 C 44 457 73 532 132 587 C 191 641 262 669 344 669 C 426 669 497 641 556 587 C 615 532 645 457 645 363 C 645 285 621 220 573 169 C 525 117 466 85 396 73 L 396 24 L 613 24 L 613 0 L 374 0 L 374 91 C 448 101 508 132 553 183 C 597 234 620 294 620 362 C 620 444 594 512 543 566 C 491 620 425 647 344 647 C 263 647 197 620 146 567 C 94 513 69 445 69 363 C 69 295 90 236 133 185 C 176 133 233 102 305 91 L 305 0 L 66 0 Z" unicode="Ꞷ" />
<glyph horiz-adv-x="145" d="M 36 -199 L 21 -186 C 35 -167 44 -149 50 -131 C 55 -113 58 -95 58 -75 L 58 -40 L 81 -40 L 81 -75 C 81 -95 77 -116 71 -137 C 65 -157 53 -178 36 -199 Z" unicode="" />
<glyph horiz-adv-x="664" d="M 0 0 L 0 658 L 664 658 L 664 0 L 0 0 Z M 220 77 L 243 77 L 243 560 L 360 560 L 360 77 L 383 77 L 383 309 L 413 309 C 456 309 491 321 518 347 C 544 372 558 405 558 446 C 558 486 544 519 518 544 C 491 569 456 582 413 582 L 105 582 L 105 560 L 220 560 L 220 77 Z" unicode="" />
<glyph horiz-adv-x="411" d="M 104 0 L 104 440 L 21 440 L 21 462 L 104 462 L 104 584 C 104 630 115 666 138 694 C 160 721 193 735 235 735 C 250 735 265 733 280 730 C 294 727 309 722 324 716 L 324 691 C 309 697 294 702 280 706 C 266 710 251 712 235 712 C 202 712 176 701 156 679 C 136 657 127 625 127 584 L 127 462 L 215 462 L 215 440 L 127 440 L 127 0 L 104 0 Z M 312 0 L 312 462 L 335 462 L 335 0 L 312 0 Z" unicode="ﬁ" />
<glyph horiz-adv-x="411" d="M 104 0 L 104 440 L 21 440 L 21 462 L 104 462 L 104 584 C 104 630 115 666 138 694 C 160 721 193 735 235 735 C 248 735 261 733 274 731 C 286 729 299 725 312 721 L 312 724 L 335 724 L 335 0 L 312 0 L 312 696 C 299 701 286 705 274 708 C 262 710 249 712 235 712 C 202 712 176 701 156 679 C 136 657 127 625 127 584 L 127 462 L 215 462 L 215 440 L 127 440 L 127 0 L 104 0 Z" unicode="ﬂ" />
</font>
</defs>
</svg>
