<?xml version="1.0" encoding="utf-8" ?><svg version="1.1" xmlns = 'http://www.w3.org/2000/svg'><defs><font id='web' horiz-adv-x="1000">
<font-face font-family="web" descent="-252" cap-height="658" units-per-em="1000" bbox="-146,-320,1189,1003" x-height="462" ascent="748" />
<missing-glyph horiz-adv-x="500" d="M 50 -252 L 450 -252 L 450 748 L 50 748 L 50 -252 Z M 100 -202 L 100 698 L 400 698 L 400 -202 L 100 -202 Z" /><glyph horiz-adv-x="200" d="" unicode=" " />
<glyph horiz-adv-x="167" d="M 94 165 L 171 716 L 193 716 L 116 165 L 94 165 Z M 65 0 L 70 35 L 105 35 L 100 0 L 65 0 Z" unicode="!" />
<glyph horiz-adv-x="235" d="M 143 560 L 166 724 L 190 724 L 167 560 L 143 560 Z M 226 560 L 249 724 L 273 724 L 250 560 L 226 560 Z" unicode="&#x22;" />
<glyph horiz-adv-x="505" d="M 131 -31 L 175 139 L 54 139 L 57 163 L 181 163 L 220 312 L 94 312 L 98 336 L 226 336 L 270 504 L 292 504 L 248 336 L 378 336 L 422 504 L 444 504 L 400 336 L 514 336 L 510 312 L 394 312 L 355 163 L 474 163 L 471 139 L 349 139 L 305 -31 L 283 -31 L 327 139 L 197 139 L 153 -31 L 131 -31 Z M 203 163 L 333 163 L 372 312 L 242 312 L 203 163 Z" unicode="#" />
<glyph horiz-adv-x="502" d="M 287 345 L 344 748 L 366 748 L 309 345 L 287 345 Z M 227 -90 L 287 338 L 308 338 L 249 -90 L 227 -90 Z M 259 -13 C 225 -13 191 -8 159 1 C 126 10 96 23 69 41 L 72 71 C 96 51 125 36 158 25 C 190 14 224 9 259 9 C 305 9 346 23 382 52 C 418 81 436 122 436 174 C 436 206 425 234 404 258 C 383 282 349 305 301 325 L 288 331 C 237 351 201 375 179 402 C 157 428 146 460 146 496 C 146 544 162 585 196 620 C 230 654 277 672 338 672 C 369 672 399 667 428 658 C 457 649 483 636 506 619 L 502 589 C 479 609 454 624 426 634 C 398 644 369 649 338 649 C 289 649 249 634 217 606 C 185 577 170 540 170 496 C 170 465 180 438 200 415 C 220 392 252 371 298 353 L 311 348 C 364 326 402 300 425 272 C 448 244 460 211 460 174 C 460 119 441 74 403 39 C 365 4 317 -13 259 -13 Z" unicode="$" />
<glyph horiz-adv-x="828" d="M 249 352 C 207 352 175 366 152 396 C 128 426 117 464 117 510 C 117 572 132 623 163 665 C 193 707 235 728 289 728 C 330 728 362 713 386 684 C 410 655 422 618 422 573 C 422 510 406 457 375 415 C 343 373 301 352 249 352 Z M 249 374 C 293 374 328 392 356 429 C 384 465 398 513 398 571 C 398 611 388 644 368 669 C 348 693 322 706 288 706 C 244 706 209 688 181 652 C 153 616 140 569 140 511 C 140 469 149 436 169 411 C 189 386 215 374 249 374 Z M 257 0 L 629 724 L 653 724 L 281 0 L 257 0 Z M 638 -8 C 596 -8 564 6 541 36 C 517 66 506 104 506 150 C 506 212 521 263 552 305 C 582 347 624 368 678 368 C 719 368 751 353 775 324 C 799 295 811 258 811 213 C 811 150 795 97 764 55 C 732 13 690 -8 638 -8 Z M 638 14 C 682 14 717 32 745 69 C 773 105 787 153 787 211 C 787 251 777 284 757 309 C 737 333 711 346 677 346 C 633 346 598 328 570 292 C 542 256 529 209 529 151 C 529 109 538 76 558 51 C 578 26 604 14 638 14 Z" unicode="%" />
<glyph horiz-adv-x="596" d="M 493 -114 C 466 -114 445 -105 431 -89 C 417 -72 412 -49 416 -21 L 429 67 L 439 122 C 422 82 397 49 363 25 C 329 1 291 -11 251 -11 C 203 -11 163 3 131 32 C 99 60 84 99 84 149 C 84 197 100 240 133 277 C 165 313 208 336 262 345 C 229 353 202 371 182 398 C 162 424 152 456 152 492 C 152 548 171 592 211 625 C 251 658 300 675 358 675 C 382 675 408 672 434 667 C 460 661 487 652 515 640 L 512 616 C 487 628 462 638 436 644 C 410 650 384 654 358 654 C 302 654 257 638 224 607 C 191 576 175 538 175 492 C 175 452 188 418 216 392 C 244 365 279 352 323 352 L 470 352 L 492 508 L 514 508 L 492 352 L 626 352 L 623 331 L 489 331 L 440 -22 C 437 -43 440 -60 450 -73 C 459 -86 473 -93 493 -93 C 504 -93 516 -90 530 -86 C 543 -81 555 -75 565 -68 L 562 -92 C 552 -98 540 -104 528 -108 C 515 -112 503 -114 493 -114 Z M 251 11 C 303 11 347 30 383 69 C 419 107 441 157 450 217 L 467 331 L 315 331 C 253 331 202 313 164 279 C 126 244 107 201 107 149 C 107 109 120 76 146 50 C 172 24 207 11 251 11 Z" unicode="&#x26;" />
<glyph horiz-adv-x="151" d="M 143 560 L 166 724 L 189 724 L 166 560 L 143 560 Z" unicode="'" />
<glyph horiz-adv-x="307" d="M 215 -220 C 179 -157 150 -91 130 -23 C 110 45 100 116 100 188 C 100 289 120 387 162 482 C 204 576 262 657 338 724 L 367 724 C 289 655 229 573 187 479 C 145 385 124 288 124 189 C 124 117 134 47 155 -21 C 175 -89 205 -156 244 -220 L 215 -220 Z" unicode="(" />
<glyph horiz-adv-x="307" d="M 11 -220 C 88 -150 148 -68 190 25 C 232 119 254 216 254 316 C 254 387 243 457 222 525 C 201 593 172 660 134 724 L 162 724 C 198 662 227 596 247 528 C 267 459 278 389 278 317 C 278 215 257 116 215 22 C 173 -72 115 -153 40 -220 L 11 -220 Z" unicode=")" />
<glyph horiz-adv-x="549" d="M 156 81 L 139 95 L 297 275 L 97 342 L 107 364 L 305 294 L 335 515 L 358 515 L 325 294 L 543 364 L 547 342 L 329 275 L 436 93 L 414 80 L 311 264 L 156 81 Z" unicode="*" />
<glyph horiz-adv-x="528" d="M 262 66 L 291 277 L 88 277 L 91 298 L 294 298 L 324 508 L 345 508 L 316 298 L 519 298 L 516 277 L 313 277 L 283 66 L 262 66 Z" unicode="+" />
<glyph horiz-adv-x="150" d="M 41 -117 L 26 -105 C 40 -87 51 -69 59 -51 C 67 -33 72 -15 75 5 L 83 61 L 106 61 L 98 5 C 95 -16 89 -37 81 -57 C 73 -77 59 -97 41 -117 Z" unicode="," />
<glyph horiz-adv-x="353" d="M 67 210 L 70 232 L 350 232 L 347 210 L 67 210 Z" unicode="-" />
<glyph horiz-adv-x="143" d="M 53 0 L 58 35 L 94 35 L 89 0 L 53 0 Z" unicode="." />
<glyph horiz-adv-x="353" d="M 21 0 L 410 724 L 434 724 L 45 0 L 21 0 Z" unicode="/" />
<glyph horiz-adv-x="553" d="M 286 -11 C 232 -11 187 9 151 49 C 115 89 97 153 97 239 C 97 348 119 447 165 536 C 211 624 275 669 359 669 C 413 669 458 648 494 608 C 530 567 548 504 548 419 C 548 309 525 210 479 122 C 433 33 369 -11 286 -11 Z M 286 10 C 361 10 419 53 461 139 C 503 225 524 318 524 419 C 524 495 508 552 477 590 C 446 628 407 647 359 647 C 283 647 225 604 183 519 C 141 434 121 341 121 239 C 121 162 136 105 167 67 C 198 29 238 10 286 10 Z" unicode="0" />
<glyph horiz-adv-x="333" d="M 178 0 L 269 646 L 131 619 L 134 640 L 296 672 L 202 0 L 178 0 Z" unicode="1" />
<glyph horiz-adv-x="479" d="M 53 0 L 57 33 L 202 146 C 298 221 364 284 402 336 C 439 387 458 440 458 494 C 458 538 444 574 418 603 C 391 632 356 647 312 647 C 281 647 252 641 224 631 C 196 621 168 605 140 585 L 144 614 C 172 632 199 646 226 655 C 252 664 281 669 312 669 C 361 669 402 653 434 622 C 466 591 483 549 483 495 C 483 435 462 377 422 323 C 382 269 313 204 215 128 L 79 24 L 429 24 L 426 0 L 53 0 Z" unicode="2" />
<glyph horiz-adv-x="471" d="M 238 -11 C 200 -11 165 -4 134 7 C 102 19 74 37 50 61 L 54 91 C 76 64 103 44 135 31 C 167 17 201 11 238 11 C 290 11 333 26 368 57 C 403 87 421 127 421 176 C 421 224 405 261 373 288 C 341 314 294 328 232 328 L 208 328 L 211 350 L 234 350 C 294 350 346 366 390 398 C 433 430 455 471 455 523 C 455 562 442 592 418 614 C 394 636 361 647 319 647 C 289 647 260 641 232 631 C 203 620 176 604 151 584 L 155 612 C 180 630 206 644 234 654 C 262 664 290 669 319 669 C 371 669 410 655 438 629 C 465 602 479 567 479 523 C 479 478 462 439 429 405 C 395 371 353 350 301 340 C 345 333 380 315 406 287 C 432 259 445 222 445 176 C 445 123 425 79 387 43 C 349 7 299 -11 238 -11 Z" unicode="3" />
<glyph horiz-adv-x="521" d="M 348 0 L 376 196 L 71 196 L 74 216 L 450 674 L 467 674 L 403 218 L 507 218 L 504 196 L 400 196 L 372 0 L 348 0 Z M 379 218 L 436 623 L 104 218 L 379 218 Z" unicode="4" />
<glyph horiz-adv-x="491" d="M 237 -11 C 200 -11 167 -4 138 8 C 109 21 85 39 65 62 L 69 92 C 88 65 112 45 140 31 C 168 17 201 11 237 11 C 293 11 341 29 379 65 C 417 101 437 147 437 203 C 437 252 421 291 391 320 C 361 348 320 363 268 363 C 243 363 218 360 194 356 C 169 352 146 346 125 339 L 193 658 L 498 658 L 494 634 L 209 634 L 153 367 C 169 372 187 376 207 379 C 227 382 247 384 268 384 C 326 384 373 368 408 336 C 443 304 461 260 461 204 C 461 142 439 90 397 50 C 354 9 301 -11 237 -11 Z" unicode="5" />
<glyph horiz-adv-x="525" d="M 280 -11 C 224 -11 179 8 145 47 C 111 86 95 138 95 202 C 95 346 123 459 181 543 C 239 627 313 669 404 669 C 425 669 446 666 468 661 C 490 656 510 649 529 641 L 526 615 C 508 624 488 632 467 638 C 445 644 424 647 404 647 C 324 647 259 612 209 543 C 159 473 129 385 120 277 C 135 317 161 350 199 374 C 236 398 276 410 319 410 C 369 410 412 393 446 361 C 480 328 497 284 497 228 C 497 160 476 103 435 57 C 393 11 342 -11 280 -11 Z M 280 11 C 334 11 380 31 417 72 C 453 113 472 165 472 227 C 472 275 458 314 430 344 C 402 374 365 389 319 389 C 269 389 223 370 181 333 C 139 295 119 248 119 192 C 119 140 134 96 165 62 C 195 28 234 11 280 11 Z" unicode="6" />
<glyph horiz-adv-x="460" d="M 152 0 L 473 634 L 137 634 L 140 658 L 504 658 L 501 643 L 177 0 L 152 0 Z" unicode="7" />
<glyph horiz-adv-x="492" d="M 258 -11 C 202 -11 158 3 128 33 C 98 63 83 99 83 141 C 82 185 98 224 131 260 C 164 296 207 323 260 342 C 221 359 190 381 168 407 C 146 433 135 463 135 496 C 134 545 152 586 189 619 C 225 652 271 669 325 669 C 375 669 415 654 444 625 C 472 596 487 564 488 528 C 488 486 473 450 444 419 C 415 387 373 361 319 341 C 363 320 396 296 420 268 C 444 240 456 207 456 171 C 456 119 437 75 399 41 C 361 6 314 -11 258 -11 Z M 279 358 L 291 353 C 347 371 389 395 419 425 C 448 455 463 489 463 527 C 462 559 449 587 424 611 C 398 635 365 647 325 647 C 278 647 239 632 207 604 C 175 575 159 539 159 497 C 159 468 169 441 191 417 C 213 393 242 373 279 358 Z M 107 142 C 107 103 121 71 149 47 C 177 23 213 11 258 11 C 306 11 347 26 381 56 C 415 86 432 125 432 171 C 432 204 420 233 397 259 C 373 285 340 307 297 326 L 286 331 L 284 330 C 232 313 190 288 157 255 C 123 221 107 184 107 142 Z" unicode="8" />
<glyph horiz-adv-x="525" d="M 213 -11 C 192 -11 171 -8 149 -3 C 127 1 107 8 89 17 L 92 43 C 109 33 128 26 150 20 C 172 14 193 11 213 11 C 293 11 358 45 408 115 C 458 185 488 274 498 383 C 483 341 457 308 419 284 C 381 260 341 248 298 248 C 248 248 206 264 172 297 C 138 329 121 374 121 430 C 121 498 142 554 184 600 C 226 646 278 669 342 669 C 396 669 440 649 473 610 C 506 571 523 520 523 456 C 523 312 494 198 436 114 C 378 30 304 -11 213 -11 Z M 298 269 C 348 269 394 287 436 325 C 478 362 499 409 499 466 C 499 518 484 561 454 595 C 424 629 387 647 342 647 C 286 647 239 626 201 585 C 163 544 145 493 145 431 C 145 383 159 344 187 314 C 215 284 252 269 298 269 Z" unicode="9" />
<glyph horiz-adv-x="144" d="M 53 0 L 58 35 L 94 35 L 89 0 L 53 0 Z M 99 316 L 104 351 L 140 351 L 135 316 L 99 316 Z" unicode=":" />
<glyph horiz-adv-x="146" d="M 41 -117 L 26 -105 C 40 -87 51 -69 59 -51 C 67 -33 72 -15 75 5 L 83 61 L 106 61 L 98 5 C 95 -16 89 -37 81 -57 C 73 -77 59 -97 41 -117 Z M 106 316 L 111 351 L 147 351 L 142 316 L 106 316 Z" unicode=";" />
<glyph horiz-adv-x="402" d="M 316 79 L 100 277 L 372 475 L 408 475 L 133 276 L 348 79 L 316 79 Z" unicode="&#x3C;" />
<glyph horiz-adv-x="533" d="M 101 336 L 104 357 L 532 357 L 529 336 L 101 336 Z M 84 208 L 87 229 L 515 229 L 512 208 L 84 208 Z" unicode="=" />
<glyph horiz-adv-x="402" d="M 72 79 L 347 278 L 132 475 L 164 475 L 380 277 L 108 79 L 72 79 Z" unicode="&#x3E;" />
<glyph horiz-adv-x="389" d="M 187 165 C 193 217 206 260 224 294 C 242 328 271 365 310 403 C 346 439 372 472 390 503 C 408 533 417 564 417 595 C 417 631 406 659 384 681 C 362 702 331 713 291 713 C 263 713 234 707 206 697 C 178 686 152 671 130 651 L 135 681 C 156 697 180 710 207 720 C 234 729 262 734 291 734 C 337 734 373 722 400 698 C 427 674 441 639 441 595 C 441 561 431 528 411 494 C 391 460 362 424 324 386 C 288 350 261 316 244 284 C 226 252 214 213 208 165 L 187 165 Z M 156 0 L 161 35 L 196 35 L 191 0 L 156 0 Z" unicode="?" />
<glyph horiz-adv-x="764" d="M 369 -67 C 285 -67 214 -38 158 17 C 102 73 74 144 74 228 C 74 347 111 443 186 516 C 261 588 355 625 467 625 C 553 625 625 598 683 545 C 740 492 769 423 769 338 C 769 269 754 214 724 172 C 694 130 659 109 617 109 C 588 109 564 118 545 137 C 526 156 515 186 513 226 C 499 184 478 154 451 136 C 424 118 398 109 372 109 C 336 109 307 120 285 144 C 263 167 252 199 252 239 C 252 303 272 357 314 400 C 356 443 408 465 471 465 C 483 465 497 464 513 463 C 528 461 543 459 559 457 L 535 272 C 529 228 534 193 548 168 C 562 142 585 130 617 130 C 653 130 684 149 709 189 C 733 229 746 278 746 337 C 746 410 721 473 671 525 C 621 577 553 604 467 604 C 356 604 267 568 199 496 C 131 424 97 335 97 228 C 97 150 123 85 175 33 C 227 -19 291 -46 369 -46 C 401 -46 432 -42 462 -35 C 491 -28 520 -18 549 -6 L 546 -30 C 517 -42 488 -52 459 -58 C 429 -64 399 -67 369 -67 Z M 372 130 C 400 130 429 143 459 170 C 489 196 510 257 522 351 L 534 439 C 523 440 512 441 502 442 C 492 443 481 444 471 444 C 415 444 368 424 331 385 C 293 346 275 297 275 239 C 275 206 284 180 302 160 C 320 140 343 130 372 130 Z" unicode="@" />
<glyph horiz-adv-x="590" d="M 21 0 L 376 670 L 400 670 L 569 0 L 545 0 L 481 254 L 180 254 L 45 0 L 21 0 Z M 362 598 L 191 275 L 476 275 L 395 598 L 385 643 L 362 598 Z" unicode="A" />
<glyph horiz-adv-x="509" d="M 83 0 L 175 658 L 325 658 C 381 658 424 643 453 615 C 482 586 497 550 497 507 C 497 466 484 429 458 396 C 432 363 392 343 337 336 C 387 330 423 312 445 284 C 467 256 479 224 479 190 C 479 134 460 88 422 53 C 384 17 329 0 259 0 L 83 0 Z M 155 347 L 275 347 C 336 347 384 361 420 389 C 455 417 473 456 473 506 C 473 546 459 578 432 601 C 404 624 368 636 322 636 L 196 636 L 155 347 Z M 110 22 L 259 22 C 318 22 365 36 401 66 C 436 95 454 136 454 188 C 454 229 439 262 409 287 C 379 312 338 325 285 325 L 152 325 L 110 22 Z" unicode="B" />
<glyph horiz-adv-x="675" d="M 420 -11 C 322 -11 244 16 187 72 C 130 128 102 199 102 287 C 102 395 138 486 210 559 C 282 632 371 669 477 669 C 517 669 555 664 592 654 C 628 644 665 630 703 610 L 700 585 C 666 605 630 621 594 631 C 557 641 518 647 477 647 C 377 647 294 612 227 544 C 160 475 127 389 127 287 C 127 203 153 137 207 87 C 260 37 331 12 420 12 C 457 12 495 17 533 27 C 571 37 607 52 641 72 L 637 45 C 602 26 566 12 529 3 C 492 -6 456 -11 420 -11 Z" unicode="C" />
<glyph horiz-adv-x="691" d="M 83 0 L 175 658 L 352 658 C 456 658 537 632 595 580 C 653 528 683 460 683 374 C 683 265 644 175 567 105 C 490 35 387 0 258 0 L 83 0 Z M 110 22 L 259 22 C 381 22 478 55 550 121 C 622 187 658 271 658 374 C 658 454 631 518 577 565 C 523 612 448 636 352 636 L 196 636 L 110 22 Z" unicode="D" />
<glyph horiz-adv-x="478" d="M 83 0 L 175 658 L 493 658 L 490 636 L 195 636 L 154 344 L 442 344 L 439 323 L 151 323 L 109 22 L 424 22 L 421 0 L 83 0 Z" unicode="E" />
<glyph horiz-adv-x="430" d="M 83 0 L 175 658 L 490 658 L 487 636 L 195 636 L 154 347 L 432 347 L 429 325 L 152 325 L 107 0 L 83 0 Z" unicode="F" />
<glyph horiz-adv-x="684" d="M 413 -11 C 317 -11 242 16 186 72 C 130 127 102 199 102 287 C 102 400 137 492 209 563 C 281 633 369 669 474 669 C 512 669 548 664 583 655 C 618 646 652 633 685 617 L 682 593 C 650 611 616 625 582 634 C 548 642 512 647 474 647 C 373 647 290 613 225 546 C 159 478 127 392 127 287 C 127 203 153 136 207 86 C 260 36 329 11 413 11 C 445 11 478 14 510 21 C 542 27 573 38 602 53 L 634 282 L 486 282 L 489 304 L 661 304 L 624 38 C 590 20 554 7 516 0 C 478 -7 443 -11 413 -11 Z" unicode="G" />
<glyph horiz-adv-x="675" d="M 83 0 L 175 658 L 199 658 L 155 349 L 616 349 L 659 658 L 683 658 L 591 0 L 567 0 L 614 327 L 153 327 L 107 0 L 83 0 Z" unicode="H" />
<glyph horiz-adv-x="191" d="M 83 0 L 175 658 L 199 658 L 107 0 L 83 0 Z" unicode="I" />
<glyph horiz-adv-x="201" d="M -34 -209 L -42 -209 L -39 -188 L -31 -188 C 0 -188 24 -178 44 -160 C 64 -142 76 -116 81 -82 L 185 658 L 209 658 L 105 -82 C 99 -124 83 -155 59 -177 C 35 -198 4 -209 -34 -209 Z" unicode="J" />
<glyph horiz-adv-x="500" d="M 83 0 L 175 658 L 199 658 L 155 349 L 523 658 L 555 658 L 173 336 L 472 0 L 441 0 L 152 326 L 106 0 L 83 0 Z" unicode="K" />
<glyph horiz-adv-x="443" d="M 83 0 L 175 658 L 199 658 L 110 22 L 425 22 L 422 0 L 83 0 Z" unicode="L" />
<glyph horiz-adv-x="721" d="M 83 0 L 175 658 L 206 658 L 365 194 L 379 152 L 405 194 L 695 658 L 729 658 L 637 0 L 613 0 L 695 587 L 701 627 L 676 587 L 386 124 L 365 124 L 206 587 L 192 627 L 186 587 L 104 0 L 83 0 Z" unicode="M" />
<glyph horiz-adv-x="699" d="M 83 0 L 175 658 L 203 658 L 570 71 L 597 29 L 603 71 L 685 658 L 707 658 L 615 0 L 586 0 L 220 587 L 193 630 L 186 587 L 104 0 L 83 0 Z" unicode="N" />
<glyph horiz-adv-x="766" d="M 398 -12 C 308 -12 237 16 183 73 C 129 130 102 201 102 287 C 102 394 135 485 201 559 C 267 633 353 670 461 670 C 550 670 622 641 676 584 C 730 527 757 456 757 371 C 757 265 723 174 657 100 C 591 25 504 -12 398 -12 Z M 398 10 C 495 10 575 44 638 113 C 700 182 732 268 732 371 C 732 449 707 514 657 568 C 607 621 542 648 461 648 C 363 648 283 613 221 545 C 158 477 127 391 127 287 C 127 209 151 143 201 90 C 250 36 316 10 398 10 Z" unicode="O" />
<glyph horiz-adv-x="445" d="M 83 0 L 175 658 L 263 658 C 325 658 373 642 409 610 C 445 578 463 534 463 479 C 463 415 441 364 397 325 C 353 285 294 266 222 266 L 143 266 L 106 0 L 83 0 Z M 146 288 L 222 288 C 287 288 339 305 379 341 C 419 376 439 422 439 479 C 439 526 423 564 392 593 C 361 621 318 636 263 636 L 195 636 L 146 288 Z" unicode="P" />
<glyph horiz-adv-x="767" d="M 677 -127 C 625 -113 578 -95 537 -73 C 495 -51 459 -26 429 3 L 456 10 C 483 -14 515 -36 551 -54 C 587 -72 630 -88 680 -103 L 677 -127 Z M 398 -12 C 308 -12 237 16 183 73 C 129 130 102 201 102 287 C 102 394 135 485 201 559 C 267 633 353 670 461 670 C 550 670 622 641 676 584 C 730 527 757 456 757 371 C 757 265 723 174 657 100 C 591 25 504 -12 398 -12 Z M 398 10 C 495 10 575 44 638 113 C 700 182 732 268 732 371 C 732 449 707 514 657 568 C 607 621 542 648 461 648 C 363 648 283 613 221 545 C 158 477 127 391 127 287 C 127 209 151 143 201 90 C 250 36 316 10 398 10 Z" unicode="Q" />
<glyph horiz-adv-x="486" d="M 83 0 L 175 658 L 291 658 C 341 658 382 644 412 616 C 442 588 457 552 457 508 C 457 458 440 416 407 384 C 374 351 332 332 281 327 C 297 321 312 311 324 297 C 336 283 346 266 355 246 L 458 0 L 431 0 L 333 239 C 322 264 308 284 290 300 C 272 315 251 323 226 323 L 152 323 L 107 0 L 83 0 Z M 155 344 L 251 344 C 305 344 348 359 382 391 C 416 422 433 461 433 508 C 433 546 420 576 394 600 C 368 624 334 636 291 636 L 196 636 L 155 344 Z" unicode="R" />
<glyph horiz-adv-x="500" d="M 259 -13 C 225 -13 191 -8 159 1 C 126 10 96 23 69 41 L 72 71 C 96 51 125 36 158 25 C 190 14 224 9 259 9 C 305 9 346 23 382 52 C 418 81 436 122 436 174 C 436 206 425 234 404 258 C 383 282 349 305 301 325 L 288 331 C 237 351 201 375 179 402 C 157 428 146 460 146 496 C 146 544 162 585 196 620 C 230 654 277 672 338 672 C 369 672 399 667 428 658 C 457 649 483 636 506 619 L 502 589 C 479 609 454 624 426 634 C 398 644 369 649 338 649 C 289 649 249 634 217 606 C 185 577 170 540 170 496 C 170 465 180 438 200 415 C 220 392 252 371 298 353 L 311 348 C 364 326 402 300 425 272 C 448 244 460 211 460 174 C 460 119 441 74 403 39 C 365 4 317 -13 259 -13 Z" unicode="S" />
<glyph horiz-adv-x="536" d="M 256 0 L 345 636 L 109 636 L 112 658 L 608 658 L 605 636 L 369 636 L 280 0 L 256 0 Z" unicode="T" />
<glyph horiz-adv-x="659" d="M 344 -11 C 260 -11 198 12 158 59 C 118 106 103 169 114 247 L 172 658 L 196 658 L 138 247 C 127 174 140 117 177 75 C 213 33 269 12 344 12 C 408 12 464 33 510 76 C 556 119 584 176 594 247 L 652 658 L 674 658 L 616 247 C 604 167 573 104 523 58 C 473 12 413 -11 344 -11 Z" unicode="U" />
<glyph horiz-adv-x="585" d="M 278 0 L 105 658 L 130 658 L 284 71 L 295 28 L 318 70 L 637 658 L 661 658 L 303 0 L 278 0 Z" unicode="V" />
<glyph horiz-adv-x="899" d="M 228 0 L 111 658 L 135 658 L 239 72 L 245 36 L 261 71 L 531 658 L 555 658 L 659 71 L 665 37 L 680 71 L 948 658 L 972 658 L 671 0 L 647 0 L 544 588 L 537 622 L 522 588 L 253 0 L 228 0 Z" unicode="W" />
<glyph horiz-adv-x="546" d="M 28 0 L 305 337 L 132 658 L 160 658 L 300 398 L 322 356 L 355 397 L 567 658 L 595 658 L 334 337 L 518 0 L 490 0 L 338 281 L 318 319 L 286 281 L 56 0 L 28 0 Z" unicode="X" />
<glyph horiz-adv-x="535" d="M 254 0 L 297 307 L 109 658 L 136 658 L 294 365 L 313 329 L 343 365 L 581 658 L 609 658 L 321 304 L 278 0 L 254 0 Z" unicode="Y" />
<glyph horiz-adv-x="578" d="M 59 0 L 61 14 L 537 597 L 569 636 L 146 636 L 149 658 L 609 658 L 608 646 L 130 61 L 98 22 L 521 22 L 518 0 L 59 0 Z" unicode="Z" />
<glyph horiz-adv-x="307" d="M 52 -220 L 185 724 L 348 724 L 345 703 L 206 703 L 79 -199 L 218 -199 L 215 -220 L 52 -220 Z" unicode="[" />
<glyph horiz-adv-x="453" d="M 409 0 L 121 724 L 143 724 L 431 0 L 409 0 Z" unicode="\" />
<glyph horiz-adv-x="301" d="M 23 -220 L 26 -199 L 165 -199 L 292 703 L 152 703 L 155 724 L 319 724 L 186 -220 L 23 -220 Z" unicode="]" />
<glyph horiz-adv-x="377" d="M 153 524 L 271 643 L 287 643 L 372 524 L 345 524 L 277 619 L 183 524 L 153 524 Z" unicode="^" />
<glyph horiz-adv-x="350" d="M -31 -220 L -28 -198 L 322 -198 L 319 -220 L -31 -220 Z" unicode="_" />
<glyph horiz-adv-x="234" d="M 219 524 L 128 649 L 155 649 L 246 524 L 219 524 Z" unicode="`" />
<glyph horiz-adv-x="498" d="M 233 -9 C 187 -9 150 8 120 44 C 90 79 76 123 76 176 C 76 256 103 326 158 384 C 212 442 279 471 357 471 C 377 471 398 469 418 467 C 438 464 461 459 485 453 L 436 111 C 433 90 431 71 430 53 C 428 35 428 17 428 0 L 404 0 C 404 16 404 34 406 54 C 408 73 410 92 413 111 L 420 159 C 401 103 375 61 341 33 C 307 5 271 -9 233 -9 Z M 233 12 C 271 12 312 32 354 73 C 396 114 425 198 443 325 L 458 436 C 442 440 425 444 409 446 C 393 448 375 450 357 450 C 285 450 224 423 174 369 C 124 315 99 250 99 176 C 99 125 112 85 139 56 C 166 26 197 12 233 12 Z" unicode="a" />
<glyph horiz-adv-x="505" d="M 220 -10 C 198 -10 175 -8 153 -6 C 131 -3 106 1 78 8 L 179 724 L 202 724 L 150 357 L 140 300 C 158 359 183 402 215 430 C 247 457 284 471 325 471 C 373 471 412 454 443 420 C 473 386 489 342 489 289 C 489 206 462 135 410 77 C 357 19 294 -10 220 -10 Z M 220 12 C 287 12 345 38 393 92 C 441 146 466 211 466 288 C 466 336 453 375 427 405 C 401 435 367 450 325 450 C 285 450 245 430 206 390 C 167 350 138 266 119 136 L 103 25 C 121 21 140 17 160 15 C 180 13 200 12 220 12 Z" unicode="b" />
<glyph horiz-adv-x="458" d="M 277 -9 C 216 -9 168 9 132 46 C 96 82 79 132 79 194 C 79 273 102 339 149 392 C 195 444 254 471 326 471 C 354 471 380 467 402 460 C 424 452 448 442 472 429 L 469 405 C 445 420 422 431 399 439 C 375 446 351 450 326 450 C 260 450 206 425 164 377 C 122 328 102 267 102 194 C 102 139 117 95 149 62 C 181 28 223 12 277 12 C 303 12 328 16 352 24 C 376 32 400 44 422 60 L 418 33 C 395 18 372 7 348 1 C 324 -5 301 -9 277 -9 Z" unicode="c" />
<glyph horiz-adv-x="508" d="M 242 -9 C 196 -9 158 8 128 43 C 98 78 83 122 83 176 C 83 256 110 326 164 384 C 218 442 283 471 357 471 C 375 471 394 469 413 465 C 431 461 450 454 469 446 L 509 724 L 532 724 L 446 111 C 443 90 441 71 439 53 C 437 35 437 17 437 0 L 414 0 C 414 16 414 34 416 54 C 417 73 419 92 422 111 L 429 157 C 411 101 384 59 350 32 C 315 4 279 -9 242 -9 Z M 242 12 C 280 12 319 32 361 73 C 403 113 433 197 452 325 L 466 423 C 449 431 431 438 413 443 C 394 447 375 450 356 450 C 289 450 231 423 181 369 C 131 315 106 250 106 176 C 106 124 119 84 147 55 C 175 26 206 12 242 12 Z" unicode="d" />
<glyph horiz-adv-x="466" d="M 274 -9 C 213 -9 166 10 132 48 C 98 86 81 137 81 203 C 81 279 103 342 149 394 C 194 445 250 471 316 471 C 356 471 387 461 410 443 C 433 424 445 399 445 368 C 445 322 424 288 382 266 C 340 243 273 229 180 223 L 105 218 L 105 204 C 105 144 119 97 149 63 C 179 29 220 12 274 12 C 301 12 327 16 351 26 C 375 35 399 50 423 71 L 419 40 C 396 22 373 10 350 2 C 326 -5 301 -9 274 -9 Z M 316 450 C 261 450 214 429 175 388 C 136 347 113 297 107 239 L 179 244 C 264 249 326 261 364 281 C 402 300 421 329 421 367 C 421 392 411 412 393 427 C 374 442 348 450 316 450 Z" unicode="e" />
<glyph horiz-adv-x="236" d="M 101 0 L 163 441 L 83 441 L 86 462 L 166 462 L 183 586 C 189 630 206 666 232 693 C 258 719 292 733 334 733 C 348 733 364 730 382 726 C 399 722 414 716 427 710 L 423 685 C 410 693 395 699 379 704 C 362 708 347 711 334 711 C 299 711 270 699 248 677 C 225 654 211 624 206 586 L 189 462 L 285 462 L 282 441 L 186 441 L 124 0 L 101 0 Z" unicode="f" />
<glyph horiz-adv-x="498" d="M 209 -227 C 177 -227 148 -223 120 -215 C 92 -207 65 -197 40 -183 L 43 -158 C 67 -173 94 -185 122 -193 C 150 -201 179 -205 209 -205 C 254 -205 295 -189 333 -158 C 370 -127 394 -71 405 9 L 426 157 C 408 100 381 58 347 31 C 313 4 277 -9 239 -9 C 193 -9 155 8 125 44 C 95 80 80 124 80 176 C 80 256 107 326 163 384 C 218 442 285 471 363 471 C 383 471 404 469 425 467 C 445 464 467 459 491 453 L 429 7 C 417 -76 390 -136 350 -172 C 310 -208 263 -227 209 -227 Z M 239 12 C 277 12 317 32 359 73 C 401 113 431 197 450 325 L 466 436 C 450 440 433 444 416 446 C 399 448 381 450 363 450 C 291 450 230 423 179 369 C 128 315 103 250 103 176 C 103 125 116 85 144 56 C 172 26 203 12 239 12 Z" unicode="g" />
<glyph horiz-adv-x="481" d="M 76 0 L 178 724 L 201 724 L 159 427 C 157 409 154 391 151 371 C 148 351 145 330 141 310 C 159 365 185 406 218 432 C 251 458 286 471 322 471 C 366 471 402 455 428 423 C 454 391 462 348 452 294 L 422 124 C 418 101 415 80 413 62 C 411 43 411 22 411 0 L 388 0 C 388 22 388 43 390 62 C 392 81 394 102 398 124 L 429 294 C 437 343 431 381 409 409 C 387 436 358 450 322 450 C 284 450 245 430 205 391 C 165 352 136 271 120 149 L 99 0 L 76 0 Z" unicode="h" />
<glyph horiz-adv-x="187" d="M 167 643 L 171 675 L 203 675 L 199 643 L 167 643 Z M 87 0 C 87 22 88 44 90 64 C 92 84 94 104 97 124 L 145 462 L 169 462 L 121 124 C 118 103 116 83 114 63 C 112 43 111 22 111 0 L 87 0 Z" unicode="i" />
<glyph horiz-adv-x="179" d="M 164 643 L 168 675 L 200 675 L 196 643 L 164 643 Z M -52 -209 L -60 -209 L -57 -188 L -49 -188 C -17 -188 8 -176 29 -153 C 49 -130 63 -98 69 -58 L 142 462 L 165 462 L 92 -58 C 85 -108 69 -146 43 -171 C 17 -196 -14 -209 -52 -209 Z" unicode="j" />
<glyph horiz-adv-x="418" d="M 76 0 L 178 724 L 201 724 L 134 249 C 187 281 236 314 282 348 C 327 382 368 420 405 462 L 434 462 C 394 418 351 378 306 343 C 261 307 212 274 158 242 L 392 0 L 360 0 L 132 236 L 99 0 L 76 0 Z" unicode="k" />
<glyph horiz-adv-x="179" d="M 85 0 C 85 22 86 45 88 67 C 90 89 92 109 95 129 L 179 724 L 202 724 L 118 124 C 115 103 113 83 111 63 C 109 43 108 22 108 0 L 85 0 Z" unicode="l" />
<glyph horiz-adv-x="795" d="M 83 0 L 133 357 C 135 377 137 396 139 413 C 140 430 141 446 141 462 L 164 462 C 164 446 163 430 162 412 C 160 394 158 375 156 357 L 148 310 C 166 365 191 406 223 432 C 255 458 288 471 324 471 C 362 471 395 458 422 433 C 448 408 460 370 458 318 C 478 375 505 415 538 437 C 571 459 603 471 634 471 C 680 471 715 455 741 423 C 766 391 774 348 765 294 L 736 124 C 732 101 730 80 728 62 C 726 43 726 22 726 0 L 702 0 C 702 22 703 43 705 62 C 707 81 709 102 713 124 L 742 294 C 750 341 744 379 724 407 C 704 435 674 450 634 450 C 582 450 540 424 506 372 C 472 320 448 246 435 149 L 414 0 L 391 0 L 431 291 C 437 339 431 378 412 407 C 393 435 364 450 324 450 C 272 450 230 424 197 372 C 163 320 140 246 127 149 L 106 0 L 83 0 Z" unicode="m" />
<glyph horiz-adv-x="479" d="M 83 0 L 133 357 C 135 377 137 396 139 413 C 140 430 141 446 141 462 L 164 462 C 164 446 163 429 162 410 C 160 391 158 373 156 357 L 149 310 C 166 365 190 406 221 432 C 252 458 285 471 320 471 C 368 471 403 454 427 421 C 450 387 457 345 449 294 L 419 124 C 415 101 412 80 411 62 C 410 43 410 22 410 0 L 386 0 C 386 22 386 43 388 62 C 389 81 392 102 396 124 L 426 294 C 434 341 427 379 407 407 C 387 435 358 450 320 450 C 284 450 247 430 209 390 C 171 350 143 269 127 149 L 106 0 L 83 0 Z" unicode="n" />
<glyph horiz-adv-x="523" d="M 276 -9 C 219 -9 172 9 135 47 C 97 84 79 134 79 197 C 79 274 101 339 145 392 C 189 444 245 471 311 471 C 368 471 415 452 453 415 C 490 377 509 327 509 265 C 509 187 486 122 442 70 C 397 17 342 -9 276 -9 Z M 276 12 C 335 12 385 36 425 84 C 465 132 485 192 485 264 C 485 320 469 365 438 399 C 407 433 365 450 311 450 C 252 450 202 425 162 377 C 122 329 102 269 102 198 C 102 142 117 97 149 63 C 180 29 222 12 276 12 Z" unicode="o" />
<glyph horiz-adv-x="512" d="M 52 -220 L 133 354 C 135 374 137 393 139 411 C 140 429 141 446 141 462 L 164 462 C 164 446 163 429 162 411 C 160 393 158 375 156 357 L 147 300 C 163 359 188 402 221 430 C 254 457 291 471 333 471 C 381 471 420 453 450 419 C 480 384 496 339 496 285 C 496 203 470 134 420 76 C 369 18 305 -10 227 -10 C 205 -10 185 -8 166 -4 C 147 0 128 6 109 15 L 76 -220 L 52 -220 Z M 227 12 C 298 12 357 38 403 92 C 449 145 472 209 472 285 C 472 337 458 377 431 406 C 403 435 371 450 333 450 C 292 450 252 430 212 391 C 172 351 144 266 126 136 L 112 38 C 130 28 149 22 168 18 C 187 14 207 12 227 12 Z" unicode="p" />
<glyph horiz-adv-x="493" d="M 371 -220 L 424 157 C 405 100 378 58 344 31 C 310 4 274 -9 237 -9 C 191 -9 152 8 122 44 C 92 79 77 123 77 176 C 77 256 104 326 160 384 C 216 442 283 471 361 471 C 381 471 402 469 422 467 C 442 464 464 459 489 453 L 394 -220 L 371 -220 Z M 237 12 C 275 12 315 32 358 73 C 400 114 430 198 447 325 L 462 435 C 444 440 427 444 412 446 C 396 448 379 450 361 450 C 289 450 228 423 177 369 C 126 315 101 250 101 176 C 101 125 114 85 142 56 C 169 26 201 12 237 12 Z" unicode="q" />
<glyph horiz-adv-x="307" d="M 83 0 L 133 357 C 135 375 137 393 139 410 C 140 427 141 444 141 462 L 164 462 C 164 446 163 430 162 412 C 160 394 158 375 156 357 L 148 312 C 166 371 190 412 218 436 C 246 459 274 471 301 471 C 309 471 317 470 326 469 C 334 468 343 466 352 464 L 349 441 C 341 443 332 445 324 447 C 315 448 307 449 300 449 C 277 449 247 431 210 397 C 172 362 145 279 127 149 L 106 0 L 83 0 Z" unicode="r" />
<glyph horiz-adv-x="365" d="M 187 -9 C 165 -9 142 -5 117 2 C 91 9 70 19 53 31 L 56 58 C 72 44 93 33 117 25 C 141 17 165 13 187 13 C 221 13 250 22 274 40 C 297 58 309 83 309 115 C 309 138 301 158 287 176 C 272 194 247 211 211 228 L 197 234 C 164 248 140 265 126 284 C 111 302 104 325 104 352 C 104 386 116 414 142 437 C 168 459 203 471 247 471 C 265 471 286 468 309 462 C 331 456 350 449 366 439 L 363 413 C 348 423 330 432 308 439 C 286 446 265 450 247 450 C 213 450 184 441 161 424 C 138 406 127 383 127 354 C 127 332 133 314 145 298 C 157 282 178 268 207 256 L 221 250 C 261 231 290 211 307 190 C 323 169 332 145 332 117 C 332 81 319 51 293 27 C 267 3 231 -9 187 -9 Z" unicode="s" />
<glyph horiz-adv-x="280" d="M 182 -9 C 154 -9 134 0 120 16 C 106 33 102 57 107 89 L 156 440 L 81 440 L 84 462 L 160 462 L 183 624 L 206 624 L 183 462 L 313 462 L 310 440 L 179 440 L 130 89 C 126 63 129 44 139 32 C 148 19 163 13 184 13 C 196 13 209 15 221 19 C 233 23 245 30 258 39 L 255 14 C 243 6 230 1 218 -3 C 206 -7 194 -9 182 -9 Z" unicode="t" />
<glyph horiz-adv-x="480" d="M 227 -11 C 181 -11 145 5 120 38 C 95 70 87 114 96 168 L 125 344 C 129 365 131 385 133 403 C 135 421 136 441 136 462 L 159 462 C 159 441 158 421 156 403 C 154 384 151 364 149 344 L 120 168 C 111 118 117 79 139 52 C 160 24 189 11 227 11 C 262 11 299 30 339 70 C 379 109 407 185 423 298 L 445 462 L 469 462 L 419 111 C 416 90 414 70 412 52 C 410 34 410 16 410 0 L 387 0 C 387 16 387 35 389 55 C 391 75 393 93 396 111 L 403 152 C 385 96 360 54 328 28 C 296 2 262 -11 227 -11 Z" unicode="u" />
<glyph horiz-adv-x="412" d="M 192 0 L 84 462 L 107 462 L 199 71 L 207 33 C 249 91 287 155 322 225 C 357 295 389 374 418 462 L 441 462 C 408 362 372 275 333 200 C 293 124 252 58 208 0 L 192 0 Z" unicode="v" />
<glyph horiz-adv-x="708" d="M 187 0 L 84 462 L 107 462 L 196 71 L 203 33 C 240 97 276 164 310 236 C 344 308 377 383 407 462 L 433 462 L 516 72 L 525 33 C 561 95 595 162 628 234 C 660 306 689 382 715 462 L 737 462 C 709 375 678 293 643 215 C 607 137 569 66 528 0 L 507 0 L 425 390 L 416 428 C 385 349 352 274 317 202 C 282 130 246 62 208 0 L 187 0 Z" unicode="w" />
<glyph horiz-adv-x="413" d="M 29 0 L 231 240 L 112 462 L 139 462 L 225 301 L 248 259 L 283 301 L 419 462 L 446 462 L 258 239 L 386 0 L 360 0 L 262 183 L 242 220 L 211 184 L 57 0 L 29 0 Z" unicode="x" />
<<<<<<< HEAD
<glyph horiz-adv-x="431" d="M 243 -29 C 197 -94 148 -142 97 -173 C 45 -204 -9 -220 -68 -220 L -76 -220 L -73 -198 L -65 -198 C -12 -198 39 -182 89 -151 C 139 -120 181 -79 217 -29 L 84 462 L 107 462 L 214 71 L 234 -8 C 274 54 312 125 347 206 C 381 287 411 372 437 462 L 461 462 C 427 353 392 258 356 176 C 319 94 281 26 243 -29 Z" unicode="y" />
=======
<glyph horiz-adv-x="431" d="M -68 -220 L -76 -220 L -73 -198 L -65 -198 C -12 -198 39 -182 89 -151 C 139 -120 181 -79 217 -29 L 84 462 L 107 462 L 214 71 L 235 -8 C 275 54 312 125 347 206 C 381 287 411 372 437 462 L 461 462 C 427 353 392 258 356 176 C 319 94 281 26 243 -29 C 197 -94 148 -142 97 -173 C 45 -204 -9 -220 -68 -220 Z" unicode="y" />
>>>>>>> origin/master
<glyph horiz-adv-x="418" d="M 47 0 L 48 12 L 373 410 L 397 440 L 112 440 L 115 462 L 435 462 L 434 449 L 111 52 L 86 22 L 376 22 L 373 0 L 47 0 Z" unicode="z" />
<glyph horiz-adv-x="429" d="M 319 -220 C 261 -220 218 -204 191 -172 C 163 -140 156 -94 169 -34 L 194 88 C 202 130 196 163 176 189 C 156 215 125 231 83 238 L 87 266 C 131 272 166 288 194 314 C 221 340 236 374 239 416 L 249 538 C 253 598 273 644 309 676 C 345 708 392 724 450 724 L 482 724 L 479 703 L 447 703 C 397 703 356 688 325 660 C 294 632 277 591 273 538 L 263 416 C 259 370 244 334 218 306 C 192 278 158 260 117 252 C 155 242 184 223 203 195 C 221 167 226 131 218 88 L 193 -34 C 182 -88 188 -129 211 -157 C 234 -185 271 -199 321 -199 L 353 -199 L 350 -220 L 319 -220 Z" unicode="{" />
<glyph horiz-adv-x="148" d="M 32 -220 L 165 724 L 187 724 L 54 -220 L 32 -220 Z" unicode="|" />
<glyph horiz-adv-x="428" d="M 18 -220 L 21 -199 L 53 -199 C 103 -199 143 -184 174 -156 C 205 -128 223 -87 227 -34 L 237 88 C 239 129 253 164 279 194 C 304 223 338 243 380 253 C 342 263 314 282 296 312 C 278 341 273 376 282 416 L 307 538 C 317 592 311 633 288 661 C 265 689 229 703 179 703 L 147 703 L 150 724 L 181 724 C 239 724 281 708 309 676 C 336 644 343 598 331 538 L 306 416 C 297 374 303 340 323 314 C 343 288 375 272 417 266 L 413 238 C 368 231 332 215 305 189 C 278 163 263 130 261 88 L 251 -34 C 246 -94 226 -140 190 -172 C 154 -204 108 -220 50 -220 L 18 -220 Z" unicode="}" />
<glyph horiz-adv-x="329" d="M 77 154 L 55 154 C 61 179 71 198 84 210 C 97 222 113 229 133 229 C 145 229 156 226 167 221 C 178 215 191 206 205 194 C 215 184 225 176 233 172 C 241 167 250 165 259 165 C 271 165 282 169 292 178 C 301 187 309 201 315 220 L 336 220 C 328 194 318 175 306 163 C 293 150 277 144 259 144 C 246 144 234 146 223 152 C 211 158 199 167 186 179 C 175 189 165 197 157 201 C 149 205 141 208 133 208 C 119 208 108 203 99 194 C 89 185 82 172 77 154 Z" unicode="~" />
<glyph horiz-adv-x="180" d="M 139 473 L 144 508 L 178 508 L 173 473 L 139 473 Z M 50 -208 L 127 343 L 150 343 L 73 -208 L 50 -208 Z" unicode="¡" />
<glyph horiz-adv-x="457" d="M 307 468 L 320 562 L 342 562 L 329 468 L 307 468 Z M 228 -98 L 307 461 L 328 461 L 250 -98 L 228 -98 Z M 277 -9 C 216 -9 168 9 132 46 C 96 82 79 132 79 194 C 79 273 102 339 149 392 C 195 444 254 471 326 471 C 354 471 380 467 402 460 C 424 452 448 442 472 429 L 469 405 C 445 420 422 431 399 439 C 375 446 351 450 326 450 C 260 450 206 425 164 377 C 122 328 102 267 102 194 C 102 139 117 95 149 62 C 181 28 223 12 277 12 C 303 12 328 16 352 24 C 376 32 400 44 422 60 L 418 33 C 395 18 372 7 348 1 C 324 -5 301 -9 277 -9 Z" unicode="¢" />
<glyph horiz-adv-x="507" d="M 59 0 L 62 22 C 110 50 145 87 169 134 C 193 180 202 238 198 306 L 196 330 L 94 330 L 97 352 L 195 352 L 191 399 C 185 482 199 548 235 597 C 271 645 322 670 390 670 C 418 670 446 666 472 658 C 498 650 521 640 543 627 L 539 599 C 517 615 493 628 467 636 C 441 644 415 648 390 648 C 330 648 284 625 252 581 C 220 537 207 477 213 401 L 217 352 L 416 352 L 413 330 L 218 330 L 220 308 C 224 244 217 188 198 140 C 179 92 146 54 100 24 L 444 24 L 440 0 L 59 0 Z" unicode="£" />
<<<<<<< HEAD
<glyph horiz-adv-x="552" d="M 74 51 L 60 67 L 177 169 C 166 182 158 197 152 213 C 146 229 144 247 144 266 C 144 295 149 322 159 346 C 169 370 183 390 201 407 L 153 467 L 140 516 L 197 445 L 206 412 C 221 425 239 435 259 443 C 279 450 301 454 324 454 C 350 454 375 448 398 438 C 420 428 439 414 454 397 L 481 443 L 559 514 L 527 462 L 455 395 C 465 382 474 367 480 350 C 486 332 490 314 490 295 C 490 266 485 240 475 216 C 465 192 451 172 435 156 L 511 67 L 493 52 L 417 140 C 402 129 386 121 368 115 C 350 109 330 107 310 107 C 286 107 263 111 243 119 C 223 127 205 138 191 153 L 74 51 Z M 310 128 C 354 128 391 144 421 176 C 451 208 467 247 467 293 C 467 333 453 366 426 393 C 398 419 364 433 324 433 C 280 433 242 417 212 385 C 182 353 167 314 167 268 C 167 228 180 194 208 168 C 235 141 269 128 310 128 Z" unicode="¤" />
<glyph horiz-adv-x="537" d="M 165 149 L 168 171 L 281 171 L 291 241 L 177 241 L 180 263 L 294 263 L 300 307 L 112 658 L 139 658 L 297 365 L 316 329 L 346 365 L 584 658 L 612 658 L 324 304 L 318 263 L 425 263 L 422 241 L 315 241 L 305 171 L 413 171 L 410 149 L 302 149 L 281 0 L 257 0 L 278 149 L 165 149 Z" unicode="¥" />
=======
<glyph horiz-adv-x="552" d="M 74 51 L 60 67 L 177 169 C 166 182 158 197 152 213 C 146 229 144 247 144 266 C 144 295 149 322 159 346 C 169 370 183 390 201 407 L 122 500 L 140 516 L 219 422 C 233 432 249 440 267 446 C 285 451 304 454 324 454 C 346 454 368 450 388 442 C 408 434 425 424 440 411 L 559 514 L 572 498 L 455 395 C 465 381 474 366 480 349 C 486 332 490 314 490 295 C 490 266 485 240 475 216 C 465 192 451 172 435 156 L 511 67 L 493 52 L 417 140 C 402 129 386 121 368 115 C 350 109 330 107 310 107 C 286 107 263 111 243 119 C 223 127 205 138 191 153 L 74 51 Z M 310 128 C 354 128 391 144 421 176 C 451 208 467 247 467 293 C 467 333 453 366 426 393 C 398 419 364 433 324 433 C 280 433 242 417 212 385 C 182 353 167 314 167 268 C 167 228 180 194 208 168 C 235 141 269 128 310 128 Z" unicode="¤" />
<glyph horiz-adv-x="537" d="M 177 241 L 180 263 L 425 263 L 422 241 L 177 241 Z M 165 149 L 168 171 L 413 171 L 410 149 L 165 149 Z M 257 0 L 300 307 L 112 658 L 139 658 L 297 365 L 316 329 L 346 365 L 584 658 L 612 658 L 324 304 L 281 0 L 257 0 Z" unicode="¥" />
>>>>>>> origin/master
<glyph horiz-adv-x="148" d="M 108 316 L 165 724 L 187 724 L 130 316 L 108 316 Z M 32 -220 L 89 188 L 112 188 L 54 -220 L 32 -220 Z" unicode="¦" />
<glyph horiz-adv-x="389" d="M 193 -8 C 168 -8 145 -4 123 3 C 101 10 82 20 65 34 L 68 61 C 84 45 103 33 124 25 C 145 17 168 13 193 13 C 231 13 261 23 283 43 C 305 63 317 89 317 122 C 317 144 309 165 295 183 C 280 201 256 216 223 230 L 208 236 C 177 248 154 263 138 281 C 122 299 115 321 115 347 C 115 371 121 393 135 413 C 148 432 167 447 191 458 C 176 468 165 481 158 495 C 150 509 147 524 147 542 C 147 580 160 610 186 634 C 212 657 247 669 289 669 C 311 669 332 666 352 661 C 372 655 391 647 410 635 L 406 609 C 388 622 369 632 350 638 C 331 644 310 648 288 648 C 253 648 225 638 203 619 C 181 600 170 575 170 545 C 170 525 176 508 189 493 C 201 478 222 465 251 453 L 266 447 C 300 433 327 416 345 396 C 363 376 372 351 372 322 C 372 297 365 276 352 258 C 339 240 321 225 297 215 C 311 203 321 189 328 175 C 335 160 339 143 339 125 C 339 85 325 52 299 28 C 273 4 237 -8 193 -8 Z M 234 250 C 242 246 250 243 257 239 C 264 235 271 232 278 228 C 300 238 318 250 330 266 C 342 282 349 300 349 322 C 349 344 341 364 326 382 C 310 399 286 414 254 427 L 239 433 C 234 435 229 437 225 439 C 221 441 217 443 213 445 C 188 436 169 423 156 406 C 143 389 137 370 137 348 C 137 328 143 310 157 295 C 170 279 191 266 219 256 L 234 250 Z" unicode="§" />
<glyph horiz-adv-x="266" d="M 131 543 L 136 577 L 171 577 L 166 543 L 131 543 Z M 255 543 L 260 577 L 295 577 L 290 543 L 255 543 Z" unicode="¨" />
<glyph horiz-adv-x="631" d="M 357 132 C 285 132 225 156 177 204 C 129 252 105 311 105 383 C 105 462 131 531 183 589 C 235 647 302 676 385 676 C 456 676 516 652 564 604 C 612 556 637 496 637 425 C 637 345 611 277 559 219 C 507 161 439 132 357 132 Z M 357 152 C 427 152 487 177 539 229 C 590 280 616 345 616 425 C 616 491 593 546 549 590 C 504 634 449 656 385 656 C 315 656 254 630 203 579 C 151 528 126 463 126 383 C 126 317 148 262 193 218 C 237 174 292 152 357 152 Z M 357 232 C 313 232 277 246 251 274 C 225 302 212 338 212 380 C 212 437 229 484 263 522 C 297 559 340 578 392 578 C 411 578 429 575 447 571 C 464 567 481 560 497 550 L 494 525 C 478 535 462 543 445 549 C 428 554 410 557 392 557 C 345 557 307 540 278 507 C 249 473 235 431 235 380 C 235 344 246 313 269 289 C 291 265 321 253 357 253 C 375 253 393 256 411 262 C 429 268 446 277 462 289 L 458 264 C 442 253 425 245 408 240 C 390 234 373 232 357 232 Z" unicode="©" />
<glyph horiz-adv-x="431" d="M 102 260 L 105 281 L 406 281 L 403 260 L 102 260 Z M 263 351 C 227 351 196 364 172 392 C 148 419 136 454 136 496 C 136 560 157 614 201 660 C 245 706 297 729 357 729 C 375 729 393 727 409 725 C 425 722 442 718 461 712 L 423 443 C 421 428 419 414 418 400 C 416 386 416 372 416 360 L 394 360 C 394 372 394 384 396 398 C 397 412 398 425 400 439 L 404 473 C 390 430 369 399 343 380 C 317 360 290 351 263 351 Z M 264 372 C 292 372 323 387 355 417 C 387 447 409 509 423 603 L 436 695 C 422 699 408 703 396 705 C 384 707 370 708 356 708 C 302 708 256 687 217 646 C 178 604 159 555 159 497 C 159 459 169 428 191 406 C 212 383 236 372 264 372 Z" unicode="ª" />
<glyph horiz-adv-x="408" d="M 341 71 L 208 226 L 385 382 L 415 382 L 239 226 L 371 71 L 341 71 Z M 205 71 L 72 226 L 249 382 L 279 382 L 103 226 L 235 71 L 205 71 Z" unicode="«" />
<glyph horiz-adv-x="355" d="M 323 191 L 336 281 L 64 281 L 67 303 L 360 303 L 345 191 L 323 191 Z" unicode="¬" />
<glyph horiz-adv-x="355" d="M 67 210 L 70 232 L 350 232 L 347 210 L 67 210 Z" unicode="­" />
<glyph horiz-adv-x="631" d="M 357 132 C 285 132 225 156 177 204 C 129 252 105 311 105 383 C 105 462 131 531 183 589 C 235 647 302 676 385 676 C 456 676 516 652 564 604 C 612 556 637 496 637 425 C 637 345 611 277 559 219 C 507 161 439 132 357 132 Z M 357 152 C 427 152 487 177 539 229 C 590 280 616 345 616 425 C 616 491 593 546 549 590 C 504 634 449 656 385 656 C 315 656 254 630 203 579 C 151 528 126 463 126 383 C 126 317 148 262 193 218 C 237 174 292 152 357 152 Z M 262 231 L 311 581 L 385 581 C 411 581 433 573 450 558 C 466 542 475 523 475 499 C 475 472 466 449 448 431 C 430 413 407 402 380 400 C 388 397 395 391 401 383 C 407 375 413 365 418 355 L 478 231 L 452 231 L 394 350 C 387 364 379 375 370 383 C 361 391 350 395 336 395 L 308 395 L 285 231 L 262 231 Z M 311 416 L 360 416 C 388 416 410 423 427 439 C 443 454 452 473 452 497 C 452 515 445 531 433 543 C 420 555 403 561 382 561 L 331 561 L 311 416 Z" unicode="®" />
<glyph horiz-adv-x="383" d="M 172 540 L 175 561 L 369 561 L 366 540 L 172 540 Z" unicode="¯" />
<glyph horiz-adv-x="321" d="M 238 496 C 207 496 182 506 163 526 C 144 546 135 570 135 600 C 135 636 147 666 171 691 C 195 715 225 728 259 728 C 289 728 314 718 333 698 C 351 678 361 653 361 624 C 361 588 348 557 324 533 C 299 508 270 496 238 496 Z M 239 516 C 267 516 291 526 311 548 C 330 569 340 594 340 624 C 340 648 332 668 316 684 C 300 700 280 708 258 708 C 229 708 205 697 186 676 C 166 654 157 629 157 600 C 157 575 164 555 180 539 C 195 523 215 516 239 516 Z" unicode="°" />
<glyph horiz-adv-x="528" d="M 46 -24 L 49 -3 L 477 -3 L 474 -24 L 46 -24 Z M 262 66 L 291 277 L 88 277 L 91 298 L 294 298 L 324 508 L 345 508 L 316 298 L 519 298 L 516 277 L 313 277 L 283 66 L 262 66 Z" unicode="±" />
<glyph horiz-adv-x="309" d="M 99 440 L 104 474 C 197 530 260 574 293 607 C 326 639 343 671 343 702 C 343 727 335 747 320 763 C 304 778 282 786 254 786 C 237 786 220 783 202 777 C 184 771 167 763 151 752 L 155 778 C 169 787 185 794 202 800 C 219 805 237 808 255 808 C 288 808 315 799 336 781 C 356 763 367 737 367 704 C 367 668 349 632 314 597 C 278 561 216 517 127 463 L 339 463 L 336 440 L 99 440 Z" unicode="²" />
<glyph horiz-adv-x="290" d="M 209 432 C 189 432 169 435 151 442 C 133 449 117 459 103 472 L 107 499 C 119 484 135 473 153 465 C 171 457 190 454 209 454 C 239 454 263 462 280 478 C 296 494 305 514 305 538 C 305 561 296 580 279 594 C 262 608 238 616 208 616 L 194 616 L 197 638 L 209 638 C 245 638 273 646 293 662 C 313 678 323 698 323 723 C 323 742 316 757 304 769 C 292 780 275 786 255 786 C 236 786 219 783 203 777 C 187 771 172 762 158 750 L 161 776 C 174 786 189 794 205 800 C 221 805 238 808 255 808 C 285 808 309 800 325 785 C 341 769 349 749 349 724 C 349 701 340 681 324 663 C 308 645 285 633 257 627 C 279 622 297 612 310 596 C 323 580 330 562 330 540 C 330 508 319 482 298 462 C 276 442 247 432 209 432 Z" unicode="³" />
<glyph horiz-adv-x="238" d="M 135 524 L 239 649 L 268 649 L 164 524 L 135 524 Z" unicode="´" />
<glyph horiz-adv-x="371" d="M 126 0 L 199 519 C 179 519 163 524 151 536 C 139 547 133 562 133 581 C 133 602 141 620 158 635 C 174 650 196 658 224 658 L 376 658 L 284 0 L 260 0 L 349 636 L 239 636 L 150 0 L 126 0 Z" unicode="¶" />
<glyph horiz-adv-x="142" d="M 81 194 L 86 228 L 120 228 L 115 194 L 81 194 Z" unicode="·" />
<glyph horiz-adv-x="226" d="M 95 -181 C 85 -181 76 -179 66 -177 C 56 -174 48 -170 40 -166 L 43 -144 C 49 -149 57 -153 67 -157 C 77 -160 86 -162 96 -162 C 112 -162 124 -157 134 -148 C 143 -139 148 -127 148 -113 C 148 -100 143 -89 134 -81 C 125 -72 113 -68 99 -68 L 93 -68 L 95 -48 L 101 -48 C 121 -48 138 -54 151 -66 C 163 -78 170 -93 170 -112 C 170 -132 163 -149 150 -162 C 136 -174 118 -181 95 -181 Z" unicode="¸" />
<glyph horiz-adv-x="273" d="M 102 440 L 104 462 L 195 462 L 240 785 L 140 764 L 144 788 L 268 815 L 218 462 L 308 462 L 305 440 L 102 440 Z" unicode="¹" />
<glyph horiz-adv-x="461" d="M 105 260 L 107 281 L 418 281 L 416 260 L 105 260 Z M 288 354 C 242 354 206 369 179 399 C 151 429 138 468 138 517 C 138 571 154 620 187 664 C 219 708 265 730 325 730 C 370 730 406 715 434 685 C 461 655 475 615 475 566 C 475 511 458 462 425 419 C 392 375 346 354 288 354 Z M 288 375 C 337 375 377 393 407 430 C 437 466 453 511 453 565 C 453 608 441 643 417 669 C 393 695 363 709 325 709 C 275 709 235 690 205 653 C 175 616 160 571 160 518 C 160 475 171 440 195 414 C 219 388 250 375 288 375 Z" unicode="º" />
<glyph horiz-adv-x="413" d="M 57 71 L 234 227 L 101 382 L 131 382 L 265 226 L 88 71 L 57 71 Z M 193 71 L 370 227 L 237 382 L 267 382 L 401 226 L 224 71 L 193 71 Z" unicode="»" />
<<<<<<< HEAD
<glyph horiz-adv-x="643" d="M 91 360 L 93 382 L 184 382 L 229 705 L 129 684 L 133 708 L 257 735 L 207 382 L 297 382 L 294 360 L 91 360 Z M 182 0 L 554 724 L 578 724 L 206 0 L 182 0 Z M 521 0 L 535 102 L 367 102 L 370 119 L 568 360 L 596 360 L 562 123 L 624 123 L 621 102 L 559 102 L 544 0 L 521 0 Z M 539 123 L 567 329 L 398 123 L 539 123 Z" unicode="¼" />
<glyph horiz-adv-x="670" d="M 91 360 L 93 382 L 184 382 L 229 705 L 129 684 L 133 708 L 257 735 L 207 382 L 297 382 L 294 360 L 91 360 Z M 178 0 L 550 724 L 574 724 L 202 0 L 178 0 Z M 396 0 L 401 34 C 494 90 557 134 590 167 C 623 199 640 231 640 262 C 640 287 632 307 617 323 C 601 338 579 346 551 346 C 534 346 517 343 499 337 C 481 331 464 323 448 312 L 452 338 C 466 347 482 354 499 360 C 516 365 534 368 552 368 C 585 368 612 359 633 341 C 653 323 664 297 664 264 C 664 228 646 192 611 157 C 575 121 513 77 424 23 L 636 23 L 633 0 L 396 0 Z" unicode="½" />
<glyph horiz-adv-x="631" d="M 198 352 C 178 352 158 355 140 362 C 122 369 106 379 92 392 L 96 419 C 108 404 124 393 142 385 C 160 377 179 374 198 374 C 228 374 252 382 269 398 C 285 414 294 434 294 458 C 294 481 285 500 268 514 C 251 528 227 536 197 536 L 183 536 L 186 558 L 198 558 C 234 558 262 566 282 582 C 302 598 312 618 312 643 C 312 662 305 677 293 689 C 281 700 264 706 244 706 C 225 706 208 703 192 697 C 176 691 161 682 147 670 L 150 696 C 163 706 178 714 194 720 C 210 725 227 728 244 728 C 274 728 298 720 314 705 C 330 689 338 669 338 644 C 338 621 329 601 313 583 C 297 565 274 553 246 547 C 268 542 286 532 299 516 C 312 500 319 482 319 460 C 319 428 308 402 287 382 C 265 362 236 352 198 352 Z M 186 0 L 558 724 L 582 724 L 210 0 L 186 0 Z M 517 0 L 531 102 L 363 102 L 366 119 L 564 360 L 592 360 L 558 123 L 620 123 L 617 102 L 555 102 L 540 0 L 517 0 Z M 535 123 L 563 329 L 394 123 L 535 123 Z" unicode="¾" />
<glyph horiz-adv-x="396" d="M 279 476 L 283 510 L 316 510 L 312 476 L 279 476 Z M 183 -219 C 137 -219 101 -206 75 -181 C 48 -155 35 -122 35 -80 C 35 -46 44 -13 64 20 C 84 54 113 90 151 129 C 187 165 213 198 231 229 C 248 260 260 299 267 347 L 289 347 C 281 295 268 253 250 219 C 232 185 203 150 165 112 C 129 76 102 42 85 12 C 67 -18 59 -49 59 -80 C 59 -114 69 -142 91 -164 C 112 -186 143 -198 183 -198 C 211 -198 240 -192 268 -182 C 296 -171 322 -156 345 -136 L 341 -166 C 319 -182 295 -195 267 -205 C 239 -214 211 -219 183 -219 Z" unicode="¿" />
<glyph horiz-adv-x="590" d="M 400 724 L 309 849 L 336 849 L 427 724 L 400 724 Z M 21 0 L 376 670 L 400 670 L 569 0 L 545 0 L 482 254 L 180 254 L 45 0 L 21 0 Z M 191 275 L 476 275 L 395 598 L 385 642 L 362 598 L 191 275 Z" unicode="À" />
<glyph horiz-adv-x="590" d="M 360 724 L 464 849 L 493 849 L 388 724 L 360 724 Z M 21 0 L 376 670 L 400 670 L 569 0 L 545 0 L 482 254 L 180 254 L 45 0 L 21 0 Z M 191 275 L 476 275 L 395 598 L 385 642 L 362 598 L 191 275 Z" unicode="Á" />
<glyph horiz-adv-x="590" d="M 284 724 L 402 843 L 418 843 L 503 724 L 477 724 L 409 819 L 314 724 L 284 724 Z M 21 0 L 376 670 L 400 670 L 569 0 L 545 0 L 482 254 L 180 254 L 45 0 L 21 0 Z M 191 275 L 476 275 L 395 598 L 385 642 L 362 598 L 191 275 Z" unicode="Â" />
<glyph horiz-adv-x="590" d="M 279 725 L 259 725 C 265 750 275 769 288 781 C 300 793 317 800 337 800 C 349 800 360 797 371 792 C 382 786 395 777 409 765 C 419 755 429 747 437 743 C 445 739 453 737 462 737 C 474 737 485 741 495 749 C 505 757 513 772 519 792 L 540 792 C 532 766 522 746 509 734 C 496 722 480 716 462 716 C 449 716 437 718 426 724 C 414 729 402 738 390 751 C 378 761 368 768 360 772 C 352 776 344 779 336 779 C 322 779 311 774 302 766 C 292 758 285 744 279 725 Z M 21 0 L 376 670 L 400 670 L 569 0 L 545 0 L 482 254 L 180 254 L 45 0 L 21 0 Z M 191 275 L 476 275 L 395 598 L 385 642 L 362 598 L 191 275 Z" unicode="Ã" />
<glyph horiz-adv-x="590" d="M 316 724 L 321 759 L 356 759 L 351 724 L 316 724 Z M 440 724 L 445 759 L 480 759 L 475 724 L 440 724 Z M 21 0 L 376 670 L 400 670 L 569 0 L 545 0 L 482 254 L 180 254 L 45 0 L 21 0 Z M 191 275 L 476 275 L 395 598 L 385 642 L 362 598 L 191 275 Z" unicode="Ä" />
<glyph horiz-adv-x="590" d="M 21 0 L 369 656 C 356 660 346 667 339 678 C 332 688 329 700 329 713 C 329 733 335 751 349 765 C 363 779 380 787 401 787 C 419 787 435 781 447 769 C 459 757 465 742 465 725 C 465 706 459 690 447 677 C 435 663 421 655 404 653 L 569 0 L 545 0 L 482 254 L 180 254 L 45 0 L 21 0 Z M 392 671 C 406 671 418 676 428 686 C 438 696 443 709 443 725 C 443 737 439 747 431 755 C 423 763 412 767 400 767 C 386 767 374 761 364 751 C 354 741 350 728 350 714 C 350 701 354 691 362 683 C 370 675 380 671 392 671 Z M 191 275 L 476 275 L 395 598 L 385 642 L 362 598 L 191 275 Z" unicode="Å" />
<glyph horiz-adv-x="797" d="M 13 0 L 481 658 L 815 658 L 812 636 L 514 636 L 474 344 L 761 344 L 758 323 L 471 323 L 428 22 L 743 22 L 740 0 L 401 0 L 436 248 L 215 248 L 39 0 L 13 0 Z M 230 269 L 439 269 L 490 636 L 465 598 L 230 269 Z" unicode="Æ" />
=======
<glyph horiz-adv-x="643" d="M 530 0 L 544 102 L 376 102 L 379 119 L 577 360 L 605 360 L 571 123 L 633 123 L 630 102 L 568 102 L 553 0 L 530 0 Z M 548 123 L 576 329 L 407 123 L 548 123 Z M 186 0 L 558 724 L 582 724 L 210 0 L 186 0 Z M 41 360 L 43 382 L 134 382 L 179 705 L 79 684 L 83 708 L 207 735 L 157 382 L 247 382 L 244 360 L 41 360 Z M 91 360 L 93 382 L 184 382 L 229 705 L 129 684 L 133 708 L 257 735 L 207 382 L 297 382 L 294 360 L 91 360 Z" unicode="¼" />
<glyph horiz-adv-x="670" d="M 396 0 L 401 34 C 494 90 557 134 590 167 C 623 199 640 231 640 262 C 640 287 632 307 617 323 C 601 338 579 346 551 346 C 534 346 517 343 499 337 C 481 331 464 323 448 312 L 452 338 C 466 347 482 354 499 360 C 516 365 534 368 552 368 C 585 368 612 359 633 341 C 653 323 664 297 664 264 C 664 228 646 192 611 157 C 575 121 513 77 424 23 L 636 23 L 633 0 L 396 0 Z M 186 0 L 558 724 L 582 724 L 210 0 L 186 0 Z M 41 360 L 43 382 L 134 382 L 179 705 L 79 684 L 83 708 L 207 735 L 157 382 L 247 382 L 244 360 L 41 360 Z M 91 360 L 93 382 L 184 382 L 229 705 L 129 684 L 133 708 L 257 735 L 207 382 L 297 382 L 294 360 L 91 360 Z" unicode="½" />
<glyph horiz-adv-x="631" d="M 517 0 L 531 102 L 363 102 L 366 119 L 564 360 L 592 360 L 558 123 L 620 123 L 617 102 L 555 102 L 540 0 L 517 0 Z M 535 123 L 563 329 L 394 123 L 535 123 Z M 186 0 L 558 724 L 582 724 L 210 0 L 186 0 Z M 198 352 C 178 352 158 355 140 362 C 122 369 106 379 92 392 L 96 419 C 108 404 124 393 142 385 C 160 377 179 374 198 374 C 228 374 252 382 269 398 C 285 414 294 434 294 458 C 294 481 285 500 268 514 C 251 528 227 536 197 536 L 183 536 L 186 558 L 198 558 C 234 558 262 566 282 582 C 302 598 312 618 312 643 C 312 662 305 677 293 689 C 281 700 264 706 244 706 C 225 706 208 703 192 697 C 176 691 161 682 147 670 L 150 696 C 163 706 178 714 194 720 C 210 725 227 728 244 728 C 274 728 298 720 314 705 C 330 689 338 669 338 644 C 338 621 329 601 313 583 C 297 565 274 553 246 547 C 268 542 286 532 299 516 C 312 500 319 482 319 460 C 319 428 308 402 287 382 C 265 362 236 352 198 352 Z" unicode="¾" />
<glyph horiz-adv-x="396" d="M 279 476 L 283 510 L 316 510 L 312 476 L 279 476 Z M 183 -219 C 137 -219 101 -206 75 -181 C 48 -155 35 -122 35 -80 C 35 -46 44 -13 64 20 C 84 54 113 90 151 129 C 187 165 213 198 231 229 C 248 260 260 299 267 347 L 289 347 C 281 295 268 253 250 219 C 232 185 203 150 165 112 C 129 76 102 42 85 12 C 67 -18 59 -49 59 -80 C 59 -114 69 -142 91 -164 C 112 -186 143 -198 183 -198 C 211 -198 240 -192 268 -182 C 296 -171 322 -156 345 -136 L 341 -166 C 319 -182 295 -195 267 -205 C 239 -214 211 -219 183 -219 Z" unicode="¿" />
<glyph horiz-adv-x="590" d="M 21 0 L 376 670 L 400 670 L 569 0 L 545 0 L 481 254 L 180 254 L 45 0 L 21 0 Z M 362 598 L 191 275 L 476 275 L 395 598 L 385 643 L 362 598 Z M 400 724 L 309 849 L 336 849 L 427 724 L 400 724 Z" unicode="À" />
<glyph horiz-adv-x="590" d="M 21 0 L 376 670 L 400 670 L 569 0 L 545 0 L 481 254 L 180 254 L 45 0 L 21 0 Z M 362 598 L 191 275 L 476 275 L 395 598 L 385 643 L 362 598 Z M 360 724 L 464 849 L 493 849 L 388 724 L 360 724 Z" unicode="Á" />
<glyph horiz-adv-x="590" d="M 21 0 L 376 670 L 400 670 L 569 0 L 545 0 L 481 254 L 180 254 L 45 0 L 21 0 Z M 362 598 L 191 275 L 476 275 L 395 598 L 385 643 L 362 598 Z M 284 724 L 402 843 L 418 843 L 503 724 L 477 724 L 409 819 L 314 724 L 284 724 Z" unicode="Â" />
<glyph horiz-adv-x="590" d="M 21 0 L 376 670 L 400 670 L 569 0 L 545 0 L 481 254 L 180 254 L 45 0 L 21 0 Z M 362 598 L 191 275 L 476 275 L 395 598 L 385 643 L 362 598 Z M 279 725 L 259 725 C 265 750 275 769 288 781 C 300 793 317 800 337 800 C 349 800 360 797 371 792 C 382 786 395 777 409 765 C 419 755 429 747 437 743 C 445 739 453 737 462 737 C 474 737 485 741 495 749 C 505 757 513 772 519 792 L 540 792 C 532 766 522 746 509 734 C 496 722 480 716 462 716 C 449 716 437 718 426 724 C 414 729 402 738 390 751 C 378 761 368 768 360 772 C 352 776 344 779 336 779 C 322 779 311 774 302 766 C 292 758 285 744 279 725 Z" unicode="Ã" />
<glyph horiz-adv-x="590" d="M 21 0 L 376 670 L 400 670 L 569 0 L 545 0 L 481 254 L 180 254 L 45 0 L 21 0 Z M 362 598 L 191 275 L 476 275 L 395 598 L 385 643 L 362 598 Z M 316 724 L 321 759 L 356 759 L 351 724 L 316 724 Z M 440 724 L 445 759 L 480 759 L 475 724 L 440 724 Z" unicode="Ä" />
<glyph horiz-adv-x="590" d="M 21 0 L 376 670 L 400 670 L 569 0 L 545 0 L 481 254 L 180 254 L 45 0 L 21 0 Z M 362 598 L 191 275 L 476 275 L 395 598 L 385 643 L 362 598 Z M 392 652 C 373 652 358 658 346 670 C 334 682 329 696 329 713 C 329 733 335 751 349 765 C 363 779 380 787 401 787 C 419 787 435 781 447 769 C 459 757 465 742 465 725 C 465 704 458 687 444 673 C 430 659 412 652 392 652 Z M 392 671 C 406 671 418 676 428 686 C 438 696 443 709 443 725 C 443 737 439 747 431 755 C 423 763 412 767 400 767 C 386 767 374 761 364 751 C 354 741 350 728 350 714 C 350 701 354 691 362 683 C 370 675 380 671 392 671 Z" unicode="Å" />
<glyph horiz-adv-x="797" d="M 13 0 L 481 658 L 815 658 L 812 636 L 514 636 L 474 344 L 761 344 L 758 323 L 471 323 L 428 22 L 743 22 L 740 0 L 401 0 L 436 248 L 216 248 L 39 0 L 13 0 Z M 465 598 L 231 269 L 439 269 L 490 635 L 465 598 Z" unicode="Æ" />
>>>>>>> origin/master
<glyph horiz-adv-x="675" d="M 420 -11 C 322 -11 244 16 187 72 C 130 128 102 199 102 287 C 102 395 138 486 210 559 C 282 632 371 669 477 669 C 517 669 555 664 592 654 C 628 644 665 630 703 610 L 700 585 C 666 605 630 621 594 631 C 557 641 518 647 477 647 C 377 647 294 612 227 544 C 160 475 127 389 127 287 C 127 203 153 137 207 87 C 260 37 331 12 420 12 C 457 12 495 17 533 27 C 571 37 607 52 641 72 L 637 45 C 602 26 566 12 529 3 C 492 -6 456 -11 420 -11 Z M 394 -181 C 384 -181 375 -179 365 -177 C 355 -174 346 -170 339 -166 L 342 -144 C 348 -149 356 -153 366 -157 C 376 -160 385 -162 395 -162 C 411 -162 423 -157 433 -148 C 442 -139 447 -127 447 -113 C 447 -100 442 -89 432 -81 C 422 -72 410 -68 396 -68 L 391 -68 L 394 -48 L 399 -48 C 419 -48 435 -54 448 -66 C 461 -78 468 -93 468 -112 C 468 -132 461 -149 448 -162 C 434 -174 416 -181 394 -181 Z" unicode="Ç" />
<glyph horiz-adv-x="478" d="M 83 0 L 175 658 L 493 658 L 490 636 L 195 636 L 154 344 L 442 344 L 439 323 L 151 323 L 109 22 L 424 22 L 421 0 L 83 0 Z M 355 724 L 264 849 L 291 849 L 382 724 L 355 724 Z" unicode="È" />
<glyph horiz-adv-x="478" d="M 83 0 L 175 658 L 493 658 L 490 636 L 195 636 L 154 344 L 442 344 L 439 323 L 151 323 L 109 22 L 424 22 L 421 0 L 83 0 Z M 315 724 L 419 849 L 448 849 L 343 724 L 315 724 Z" unicode="É" />
<glyph horiz-adv-x="478" d="M 83 0 L 175 658 L 493 658 L 490 636 L 195 636 L 154 344 L 442 344 L 439 323 L 151 323 L 109 22 L 424 22 L 421 0 L 83 0 Z M 239 724 L 357 843 L 373 843 L 458 724 L 432 724 L 364 819 L 269 724 L 239 724 Z" unicode="Ê" />
<glyph horiz-adv-x="478" d="M 83 0 L 175 658 L 493 658 L 490 636 L 195 636 L 154 344 L 442 344 L 439 323 L 151 323 L 109 22 L 424 22 L 421 0 L 83 0 Z M 271 724 L 276 759 L 311 759 L 306 724 L 271 724 Z M 395 724 L 400 759 L 435 759 L 430 724 L 395 724 Z" unicode="Ë" />
<glyph horiz-adv-x="191" d="M 83 0 L 175 658 L 199 658 L 107 0 L 83 0 Z M 201 724 L 110 849 L 137 849 L 228 724 L 201 724 Z" unicode="Ì" />
<glyph horiz-adv-x="191" d="M 83 0 L 175 658 L 199 658 L 107 0 L 83 0 Z M 161 724 L 265 849 L 294 849 L 189 724 L 161 724 Z" unicode="Í" />
<glyph horiz-adv-x="191" d="M 83 0 L 175 658 L 199 658 L 107 0 L 83 0 Z M 85 724 L 203 843 L 219 843 L 304 724 L 278 724 L 210 819 L 115 724 L 85 724 Z" unicode="Î" />
<glyph horiz-adv-x="191" d="M 83 0 L 175 658 L 199 658 L 107 0 L 83 0 Z M 117 724 L 122 759 L 157 759 L 152 724 L 117 724 Z M 241 724 L 246 759 L 281 759 L 276 724 L 241 724 Z" unicode="Ï" />
<glyph horiz-adv-x="693" d="M 63 323 L 66 345 L 306 345 L 303 323 L 63 323 Z M 84 0 L 176 658 L 353 658 C 457 658 538 632 596 580 C 654 528 684 460 684 374 C 684 265 645 175 568 105 C 491 35 388 0 259 0 L 84 0 Z M 111 22 L 260 22 C 382 22 479 55 551 121 C 623 187 659 271 659 374 C 659 454 632 518 578 565 C 524 612 449 636 353 636 L 197 636 L 111 22 Z" unicode="Ð" />
<glyph horiz-adv-x="699" d="M 83 0 L 175 658 L 203 658 L 570 71 L 597 29 L 603 71 L 685 658 L 707 658 L 615 0 L 586 0 L 220 587 L 193 630 L 186 587 L 104 0 L 83 0 Z M 324 725 L 304 725 C 310 750 320 769 333 781 C 345 793 362 800 382 800 C 394 800 405 797 416 792 C 427 786 440 777 454 765 C 464 755 474 747 482 743 C 490 739 498 737 507 737 C 519 737 530 741 540 749 C 550 757 558 772 564 792 L 585 792 C 577 766 567 746 554 734 C 541 722 525 716 507 716 C 494 716 482 718 471 724 C 459 729 447 738 435 751 C 423 761 413 768 405 772 C 397 776 389 779 381 779 C 367 779 356 774 347 766 C 337 758 330 744 324 725 Z" unicode="Ñ" />
<glyph horiz-adv-x="766" d="M 398 -12 C 308 -12 237 16 183 73 C 129 130 102 201 102 287 C 102 394 135 485 201 559 C 267 633 353 670 461 670 C 550 670 622 641 676 584 C 730 527 757 456 757 371 C 757 265 723 174 657 100 C 591 25 504 -12 398 -12 Z M 398 10 C 495 10 575 44 638 113 C 700 182 732 268 732 371 C 732 449 707 514 657 568 C 607 621 542 648 461 648 C 363 648 283 613 221 545 C 158 477 127 391 127 287 C 127 209 151 143 201 90 C 250 36 316 10 398 10 Z M 474 729 L 383 854 L 410 854 L 501 729 L 474 729 Z" unicode="Ò" />
<glyph horiz-adv-x="766" d="M 398 -12 C 308 -12 237 16 183 73 C 129 130 102 201 102 287 C 102 394 135 485 201 559 C 267 633 353 670 461 670 C 550 670 622 641 676 584 C 730 527 757 456 757 371 C 757 265 723 174 657 100 C 591 25 504 -12 398 -12 Z M 398 10 C 495 10 575 44 638 113 C 700 182 732 268 732 371 C 732 449 707 514 657 568 C 607 621 542 648 461 648 C 363 648 283 613 221 545 C 158 477 127 391 127 287 C 127 209 151 143 201 90 C 250 36 316 10 398 10 Z M 434 729 L 538 854 L 567 854 L 462 729 L 434 729 Z" unicode="Ó" />
<glyph horiz-adv-x="766" d="M 398 -12 C 308 -12 237 16 183 73 C 129 130 102 201 102 287 C 102 394 135 485 201 559 C 267 633 353 670 461 670 C 550 670 622 641 676 584 C 730 527 757 456 757 371 C 757 265 723 174 657 100 C 591 25 504 -12 398 -12 Z M 398 10 C 495 10 575 44 638 113 C 700 182 732 268 732 371 C 732 449 707 514 657 568 C 607 621 542 648 461 648 C 363 648 283 613 221 545 C 158 477 127 391 127 287 C 127 209 151 143 201 90 C 250 36 316 10 398 10 Z M 358 729 L 476 848 L 492 848 L 577 729 L 551 729 L 483 824 L 388 729 L 358 729 Z" unicode="Ô" />
<glyph horiz-adv-x="766" d="M 398 -12 C 308 -12 237 16 183 73 C 129 130 102 201 102 287 C 102 394 135 485 201 559 C 267 633 353 670 461 670 C 550 670 622 641 676 584 C 730 527 757 456 757 371 C 757 265 723 174 657 100 C 591 25 504 -12 398 -12 Z M 398 10 C 495 10 575 44 638 113 C 700 182 732 268 732 371 C 732 449 707 514 657 568 C 607 621 542 648 461 648 C 363 648 283 613 221 545 C 158 477 127 391 127 287 C 127 209 151 143 201 90 C 250 36 316 10 398 10 Z M 353 730 L 333 730 C 339 755 349 774 362 786 C 374 798 391 805 411 805 C 423 805 434 802 445 797 C 456 791 469 782 483 770 C 493 760 503 752 511 748 C 519 744 527 742 536 742 C 548 742 559 746 569 754 C 579 762 587 777 593 797 L 614 797 C 606 771 596 751 583 739 C 570 727 554 721 536 721 C 523 721 511 723 500 729 C 488 734 476 743 464 756 C 452 766 442 773 434 777 C 426 781 418 784 410 784 C 396 784 385 779 376 771 C 366 763 359 749 353 730 Z" unicode="Õ" />
<glyph horiz-adv-x="766" d="M 398 -12 C 308 -12 237 16 183 73 C 129 130 102 201 102 287 C 102 394 135 485 201 559 C 267 633 353 670 461 670 C 550 670 622 641 676 584 C 730 527 757 456 757 371 C 757 265 723 174 657 100 C 591 25 504 -12 398 -12 Z M 398 10 C 495 10 575 44 638 113 C 700 182 732 268 732 371 C 732 449 707 514 657 568 C 607 621 542 648 461 648 C 363 648 283 613 221 545 C 158 477 127 391 127 287 C 127 209 151 143 201 90 C 250 36 316 10 398 10 Z M 390 729 L 395 764 L 430 764 L 425 729 L 390 729 Z M 514 729 L 519 764 L 554 764 L 549 729 L 514 729 Z" unicode="Ö" />
<glyph horiz-adv-x="480" d="M 101 118 L 88 134 L 265 290 L 131 448 L 146 461 L 281 304 L 459 460 L 473 444 L 295 288 L 433 127 L 418 113 L 279 274 L 101 118 Z" unicode="×" />
<glyph horiz-adv-x="766" d="M 168 -48 L 671 706 L 696 706 L 193 -48 L 168 -48 Z M 398 -11 C 308 -11 237 17 183 74 C 129 131 102 202 102 288 C 102 395 135 486 201 560 C 267 634 353 671 461 671 C 550 671 622 642 676 585 C 730 528 757 457 757 372 C 757 266 723 175 657 101 C 591 26 504 -11 398 -11 Z M 398 11 C 495 11 575 45 638 114 C 700 183 732 269 732 372 C 732 450 707 515 657 569 C 607 622 542 649 461 649 C 363 649 283 614 221 546 C 158 478 127 392 127 288 C 127 210 151 144 201 91 C 250 37 316 11 398 11 Z" unicode="Ø" />
<glyph horiz-adv-x="659" d="M 344 -11 C 260 -11 198 12 158 59 C 118 106 103 169 114 247 L 172 658 L 196 658 L 138 247 C 127 174 140 117 177 75 C 213 33 269 12 344 12 C 408 12 464 33 510 76 C 556 119 584 176 594 247 L 652 658 L 674 658 L 616 247 C 604 167 573 104 523 58 C 473 12 413 -11 344 -11 Z M 437 724 L 346 849 L 373 849 L 464 724 L 437 724 Z" unicode="Ù" />
<glyph horiz-adv-x="659" d="M 344 -11 C 260 -11 198 12 158 59 C 118 106 103 169 114 247 L 172 658 L 196 658 L 138 247 C 127 174 140 117 177 75 C 213 33 269 12 344 12 C 408 12 464 33 510 76 C 556 119 584 176 594 247 L 652 658 L 674 658 L 616 247 C 604 167 573 104 523 58 C 473 12 413 -11 344 -11 Z M 397 724 L 501 849 L 530 849 L 425 724 L 397 724 Z" unicode="Ú" />
<glyph horiz-adv-x="659" d="M 344 -11 C 260 -11 198 12 158 59 C 118 106 103 169 114 247 L 172 658 L 196 658 L 138 247 C 127 174 140 117 177 75 C 213 33 269 12 344 12 C 408 12 464 33 510 76 C 556 119 584 176 594 247 L 652 658 L 674 658 L 616 247 C 604 167 573 104 523 58 C 473 12 413 -11 344 -11 Z M 321 724 L 439 843 L 455 843 L 540 724 L 514 724 L 446 819 L 351 724 L 321 724 Z" unicode="Û" />
<glyph horiz-adv-x="659" d="M 344 -11 C 260 -11 198 12 158 59 C 118 106 103 169 114 247 L 172 658 L 196 658 L 138 247 C 127 174 140 117 177 75 C 213 33 269 12 344 12 C 408 12 464 33 510 76 C 556 119 584 176 594 247 L 652 658 L 674 658 L 616 247 C 604 167 573 104 523 58 C 473 12 413 -11 344 -11 Z M 353 724 L 358 759 L 393 759 L 388 724 L 353 724 Z M 477 724 L 482 759 L 517 759 L 512 724 L 477 724 Z" unicode="Ü" />
<glyph horiz-adv-x="535" d="M 254 0 L 297 307 L 109 658 L 136 658 L 294 365 L 313 329 L 343 365 L 581 658 L 609 658 L 321 304 L 278 0 L 254 0 Z M 320 724 L 424 849 L 453 849 L 348 724 L 320 724 Z" unicode="Ý" />
<glyph horiz-adv-x="451" d="M 83 0 L 175 658 L 199 658 L 180 525 L 244 525 C 306 525 354 510 390 481 C 426 451 444 411 444 359 C 444 295 421 243 377 204 C 333 164 277 145 209 145 L 127 145 L 106 0 L 83 0 Z M 130 167 L 209 167 C 272 167 323 184 361 220 C 399 255 419 301 419 357 C 419 401 403 437 373 463 C 342 489 299 503 244 503 L 178 503 L 130 167 Z" unicode="Þ" />
<glyph horiz-adv-x="500" d="M 68 0 L 143 530 C 152 597 173 648 205 683 C 237 717 280 735 332 735 C 381 735 421 717 451 681 C 481 645 495 598 495 538 C 495 519 494 500 492 480 C 489 460 486 441 483 423 C 466 431 449 438 431 443 C 413 447 394 450 374 450 C 340 450 313 441 293 424 C 272 406 262 383 262 353 C 262 330 268 311 281 297 C 293 282 314 268 342 256 L 356 249 C 396 231 424 211 441 191 C 458 170 467 145 467 117 C 467 80 454 50 428 26 C 402 2 366 -9 322 -9 C 301 -9 278 -5 253 2 C 228 9 207 19 189 31 L 193 58 C 209 45 229 34 253 26 C 277 17 300 13 322 13 C 358 13 387 22 410 40 C 432 58 444 83 444 115 C 444 139 436 160 420 178 C 404 195 380 212 346 228 L 332 234 C 299 248 275 265 261 283 C 246 301 239 324 239 352 C 239 388 251 416 275 438 C 299 460 333 471 375 471 C 392 471 408 469 424 466 C 439 463 453 459 466 454 C 480 537 474 601 448 646 C 422 691 383 714 332 714 C 286 714 249 698 221 667 C 193 635 174 590 166 530 L 91 0 L 68 0 Z" unicode="ß" />
<glyph horiz-adv-x="498" d="M 233 -9 C 187 -9 150 8 120 44 C 90 79 76 123 76 176 C 76 256 103 326 158 384 C 212 442 279 471 357 471 C 377 471 398 469 418 467 C 438 464 461 459 485 453 L 436 111 C 433 90 431 71 430 53 C 428 35 428 17 428 0 L 404 0 C 404 16 404 34 406 54 C 408 73 410 92 413 111 L 420 159 C 401 103 375 61 341 33 C 307 5 271 -9 233 -9 Z M 233 12 C 271 12 312 32 354 73 C 396 114 425 198 443 325 L 458 436 C 442 440 425 444 409 446 C 393 448 375 450 357 450 C 285 450 224 423 174 369 C 124 315 99 250 99 176 C 99 125 112 85 139 56 C 166 26 197 12 233 12 Z M 357 524 L 266 649 L 293 649 L 384 524 L 357 524 Z" unicode="à" />
<glyph horiz-adv-x="498" d="M 233 -9 C 187 -9 150 8 120 44 C 90 79 76 123 76 176 C 76 256 103 326 158 384 C 212 442 279 471 357 471 C 377 471 398 469 418 467 C 438 464 461 459 485 453 L 436 111 C 433 90 431 71 430 53 C 428 35 428 17 428 0 L 404 0 C 404 16 404 34 406 54 C 408 73 410 92 413 111 L 420 159 C 401 103 375 61 341 33 C 307 5 271 -9 233 -9 Z M 233 12 C 271 12 312 32 354 73 C 396 114 425 198 443 325 L 458 436 C 442 440 425 444 409 446 C 393 448 375 450 357 450 C 285 450 224 423 174 369 C 124 315 99 250 99 176 C 99 125 112 85 139 56 C 166 26 197 12 233 12 Z M 318 524 L 422 649 L 451 649 L 347 524 L 318 524 Z" unicode="á" />
<glyph horiz-adv-x="498" d="M 233 -9 C 187 -9 150 8 120 44 C 90 79 76 123 76 176 C 76 256 103 326 158 384 C 212 442 279 471 357 471 C 377 471 398 469 418 467 C 438 464 461 459 485 453 L 436 111 C 433 90 431 71 430 53 C 428 35 428 17 428 0 L 404 0 C 404 16 404 34 406 54 C 408 73 410 92 413 111 L 420 159 C 401 103 375 61 341 33 C 307 5 271 -9 233 -9 Z M 233 12 C 271 12 312 32 354 73 C 396 114 425 198 443 325 L 458 436 C 442 440 425 444 409 446 C 393 448 375 450 357 450 C 285 450 224 423 174 369 C 124 315 99 250 99 176 C 99 125 112 85 139 56 C 166 26 197 12 233 12 Z M 244 524 L 362 643 L 378 643 L 463 524 L 436 524 L 368 619 L 274 524 L 244 524 Z" unicode="â" />
<glyph horiz-adv-x="498" d="M 233 -9 C 187 -9 150 8 120 44 C 90 79 76 123 76 176 C 76 256 103 326 158 384 C 212 442 279 471 357 471 C 377 471 398 469 418 467 C 438 464 461 459 485 453 L 436 111 C 433 90 431 71 430 53 C 428 35 428 17 428 0 L 404 0 C 404 16 404 34 406 54 C 408 73 410 92 413 111 L 420 159 C 401 103 375 61 341 33 C 307 5 271 -9 233 -9 Z M 233 12 C 271 12 312 32 354 73 C 396 114 425 198 443 325 L 458 436 C 442 440 425 444 409 446 C 393 448 375 450 357 450 C 285 450 224 423 174 369 C 124 315 99 250 99 176 C 99 125 112 85 139 56 C 166 26 197 12 233 12 Z M 241 532 L 219 532 C 225 557 235 576 248 588 C 261 600 277 607 297 607 C 309 607 320 604 331 599 C 342 593 355 584 369 572 C 379 562 389 554 397 550 C 405 545 414 543 423 543 C 435 543 446 547 456 556 C 465 565 473 579 479 598 L 500 598 C 492 572 482 553 470 541 C 457 528 441 522 423 522 C 410 522 398 524 387 530 C 375 536 363 545 350 557 C 339 567 329 575 321 579 C 313 583 305 586 297 586 C 283 586 272 581 263 572 C 253 563 246 550 241 532 Z" unicode="ã" />
<glyph horiz-adv-x="498" d="M 233 -9 C 187 -9 150 8 120 44 C 90 79 76 123 76 176 C 76 256 103 326 158 384 C 212 442 279 471 357 471 C 377 471 398 469 418 467 C 438 464 461 459 485 453 L 436 111 C 433 90 431 71 430 53 C 428 35 428 17 428 0 L 404 0 C 404 16 404 34 406 54 C 408 73 410 92 413 111 L 420 159 C 401 103 375 61 341 33 C 307 5 271 -9 233 -9 Z M 233 12 C 271 12 312 32 354 73 C 396 114 425 198 443 325 L 458 436 C 442 440 425 444 409 446 C 393 448 375 450 357 450 C 285 450 224 423 174 369 C 124 315 99 250 99 176 C 99 125 112 85 139 56 C 166 26 197 12 233 12 Z M 275 543 L 280 577 L 315 577 L 310 543 L 275 543 Z M 399 543 L 404 577 L 439 577 L 434 543 L 399 543 Z" unicode="ä" />
<glyph horiz-adv-x="498" d="M 233 -9 C 187 -9 150 8 120 44 C 90 79 76 123 76 176 C 76 256 103 326 158 384 C 212 442 279 471 357 471 C 377 471 398 469 418 467 C 438 464 461 459 485 453 L 436 111 C 433 90 431 71 430 53 C 428 35 428 17 428 0 L 404 0 C 404 16 404 34 406 54 C 408 73 410 92 413 111 L 420 159 C 401 103 375 61 341 33 C 307 5 271 -9 233 -9 Z M 233 12 C 271 12 312 32 354 73 C 396 114 425 198 443 325 L 458 436 C 442 440 425 444 409 446 C 393 448 375 450 357 450 C 285 450 224 423 174 369 C 124 315 99 250 99 176 C 99 125 112 85 139 56 C 166 26 197 12 233 12 Z M 356 500 C 337 500 322 506 310 518 C 298 530 292 544 292 562 C 292 582 299 600 313 614 C 327 628 344 636 365 636 C 383 636 398 630 410 618 C 422 606 428 591 428 574 C 428 553 421 535 407 521 C 393 507 376 500 356 500 Z M 356 520 C 370 520 382 525 392 535 C 402 545 407 558 407 573 C 407 585 402 596 394 604 C 386 612 376 616 364 616 C 350 616 338 610 328 600 C 318 590 314 577 314 563 C 314 550 318 540 326 532 C 334 524 344 520 356 520 Z" unicode="å" />
<glyph horiz-adv-x="746" d="M 196 -9 C 154 -9 121 2 99 25 C 76 47 65 74 65 106 C 65 150 81 184 113 207 C 145 230 188 243 240 245 L 366 251 L 376 324 C 381 365 374 396 354 417 C 334 438 307 449 273 449 C 246 449 220 445 194 437 C 168 429 143 417 119 401 L 123 429 C 146 442 170 452 196 460 C 221 467 247 471 273 471 C 313 471 344 460 367 438 C 389 416 400 386 400 349 C 420 385 447 415 481 437 C 515 459 553 471 596 471 C 636 471 667 461 690 443 C 713 424 725 399 725 368 C 725 322 704 290 662 270 C 620 250 553 238 460 234 L 386 231 C 385 227 385 223 385 219 C 385 215 385 211 385 207 L 385 204 C 385 144 399 97 429 63 C 459 29 500 12 554 12 C 581 12 607 16 631 26 C 655 35 679 50 703 71 L 699 40 C 676 22 653 10 630 2 C 606 -5 581 -9 554 -9 C 502 -9 460 4 429 32 C 398 60 378 98 370 148 C 359 98 337 60 305 32 C 272 4 236 -9 196 -9 Z M 596 450 C 543 450 497 430 459 392 C 421 354 397 307 389 252 L 459 255 C 544 259 606 269 644 285 C 682 301 701 329 701 367 C 701 392 691 412 673 427 C 654 442 628 450 596 450 Z M 197 12 C 237 12 271 26 301 56 C 330 85 348 125 355 175 L 363 230 L 240 224 C 198 222 162 212 133 193 C 103 174 89 145 89 106 C 89 78 99 55 119 38 C 139 20 165 12 197 12 Z" unicode="æ" />
<glyph horiz-adv-x="459" d="M 277 -9 C 216 -9 168 9 132 46 C 96 82 79 132 79 194 C 79 273 102 339 149 392 C 195 444 254 471 326 471 C 354 471 380 467 402 460 C 424 452 448 442 472 429 L 469 405 C 445 420 422 431 399 439 C 375 446 351 450 326 450 C 260 450 206 425 164 377 C 122 328 102 267 102 194 C 102 139 117 95 149 62 C 181 28 223 12 277 12 C 303 12 328 16 352 24 C 376 32 400 44 422 60 L 418 33 C 395 18 372 7 348 1 C 324 -5 301 -9 277 -9 Z M 221 -181 C 211 -181 202 -179 192 -177 C 182 -174 174 -170 166 -166 L 169 -144 C 175 -149 183 -153 193 -157 C 203 -160 212 -162 222 -162 C 238 -162 250 -157 260 -148 C 269 -139 274 -127 274 -113 C 274 -100 269 -89 260 -81 C 251 -72 239 -68 225 -68 L 219 -68 L 221 -48 L 227 -48 C 247 -48 264 -54 277 -66 C 289 -78 296 -93 296 -112 C 296 -132 289 -149 276 -162 C 262 -174 244 -181 221 -181 Z" unicode="ç" />
<<<<<<< HEAD
<glyph horiz-adv-x="466" d="M 309 524 L 218 649 L 245 649 L 336 524 L 309 524 Z M 274 -9 C 213 -9 166 10 132 48 C 98 86 81 137 81 203 C 81 279 103 342 149 394 C 194 445 250 471 316 471 C 356 471 387 461 410 443 C 433 424 445 399 445 368 C 445 322 424 288 382 266 C 340 243 273 229 180 223 L 105 218 L 105 204 C 105 144 119 97 149 63 C 179 29 220 12 274 12 C 301 12 327 16 351 26 C 375 35 399 50 423 71 L 419 40 C 396 22 373 10 350 2 C 326 -5 301 -9 274 -9 Z M 316 450 C 261 450 214 429 175 388 C 136 347 113 297 107 239 L 179 244 C 264 249 326 261 364 281 C 402 300 421 329 421 367 C 421 392 411 412 393 427 C 374 442 348 450 316 450 Z" unicode="è" />
<glyph horiz-adv-x="466" d="M 270 524 L 374 649 L 403 649 L 299 524 L 270 524 Z M 274 -9 C 213 -9 166 10 132 48 C 98 86 81 137 81 203 C 81 279 103 342 149 394 C 194 445 250 471 316 471 C 356 471 387 461 410 443 C 433 424 445 399 445 368 C 445 322 424 288 382 266 C 340 243 273 229 180 223 L 105 218 L 105 204 C 105 144 119 97 149 63 C 179 29 220 12 274 12 C 301 12 327 16 351 26 C 375 35 399 50 423 71 L 419 40 C 396 22 373 10 350 2 C 326 -5 301 -9 274 -9 Z M 316 450 C 261 450 214 429 175 388 C 136 347 113 297 107 239 L 179 244 C 264 249 326 261 364 281 C 402 300 421 329 421 367 C 421 392 411 412 393 427 C 374 442 348 450 316 450 Z" unicode="é" />
<glyph horiz-adv-x="466" d="M 196 524 L 314 643 L 330 643 L 415 524 L 388 524 L 320 619 L 226 524 L 196 524 Z M 274 -9 C 213 -9 166 10 132 48 C 98 86 81 137 81 203 C 81 279 103 342 149 394 C 194 445 250 471 316 471 C 356 471 387 461 410 443 C 433 424 445 399 445 368 C 445 322 424 288 382 266 C 340 243 273 229 180 223 L 105 218 L 105 204 C 105 144 119 97 149 63 C 179 29 220 12 274 12 C 301 12 327 16 351 26 C 375 35 399 50 423 71 L 419 40 C 396 22 373 10 350 2 C 326 -5 301 -9 274 -9 Z M 316 450 C 261 450 214 429 175 388 C 136 347 113 297 107 239 L 179 244 C 264 249 326 261 364 281 C 402 300 421 329 421 367 C 421 392 411 412 393 427 C 374 442 348 450 316 450 Z" unicode="ê" />
<glyph horiz-adv-x="466" d="M 227 543 L 232 577 L 267 577 L 262 543 L 227 543 Z M 351 543 L 356 577 L 391 577 L 386 543 L 351 543 Z M 274 -9 C 213 -9 166 10 132 48 C 98 86 81 137 81 203 C 81 279 103 342 149 394 C 194 445 250 471 316 471 C 356 471 387 461 410 443 C 433 424 445 399 445 368 C 445 322 424 288 382 266 C 340 243 273 229 180 223 L 105 218 L 105 204 C 105 144 119 97 149 63 C 179 29 220 12 274 12 C 301 12 327 16 351 26 C 375 35 399 50 423 71 L 419 40 C 396 22 373 10 350 2 C 326 -5 301 -9 274 -9 Z M 316 450 C 261 450 214 429 175 388 C 136 347 113 297 107 239 L 179 244 C 264 249 326 261 364 281 C 402 300 421 329 421 367 C 421 392 411 412 393 427 C 374 442 348 450 316 450 Z" unicode="ë" />
<glyph horiz-adv-x="182" d="M 167 524 L 76 649 L 103 649 L 194 524 L 167 524 Z M 84 0 C 84 20 85 41 87 61 C 89 81 91 102 94 124 L 142 462 L 165 462 L 117 124 C 114 102 111 81 109 61 C 107 40 106 20 106 0 L 84 0 Z" unicode="ì" />
<glyph horiz-adv-x="182" d="M 128 524 L 232 649 L 261 649 L 157 524 L 128 524 Z M 84 0 C 84 20 85 41 87 61 C 89 81 91 102 94 124 L 142 462 L 165 462 L 117 124 C 114 102 111 81 109 61 C 107 40 106 20 106 0 L 84 0 Z" unicode="í" />
<glyph horiz-adv-x="182" d="M 54 524 L 172 643 L 188 643 L 273 524 L 246 524 L 178 619 L 84 524 L 54 524 Z M 84 0 C 84 20 85 41 87 61 C 89 81 91 102 94 124 L 142 462 L 165 462 L 117 124 C 114 102 111 81 109 61 C 107 40 106 20 106 0 L 84 0 Z" unicode="î" />
<glyph horiz-adv-x="182" d="M 85 543 L 90 577 L 125 577 L 120 543 L 85 543 Z M 209 543 L 214 577 L 249 577 L 244 543 L 209 543 Z M 84 0 C 84 20 85 41 87 61 C 89 81 91 102 94 124 L 142 462 L 165 462 L 117 124 C 114 102 111 81 109 61 C 107 40 106 20 106 0 L 84 0 Z" unicode="ï" />
=======
<glyph horiz-adv-x="466" d="M 274 -9 C 213 -9 166 10 132 48 C 98 86 81 137 81 203 C 81 279 103 342 149 394 C 194 445 250 471 316 471 C 356 471 387 461 410 443 C 433 424 445 399 445 368 C 445 322 424 288 382 266 C 340 243 273 229 180 223 L 105 218 C 105 216 105 215 105 213 C 105 211 105 209 105 207 L 105 204 C 105 144 119 97 149 63 C 179 29 220 12 274 12 C 301 12 327 16 351 26 C 375 35 399 50 423 71 L 419 40 C 396 22 373 10 350 2 C 326 -5 301 -9 274 -9 Z M 316 450 C 261 450 214 429 175 388 C 136 347 113 297 107 239 L 179 244 C 264 249 326 261 364 281 C 402 300 421 329 421 367 C 421 392 411 412 393 427 C 374 442 348 450 316 450 Z M 309 524 L 218 649 L 245 649 L 336 524 L 309 524 Z" unicode="è" />
<glyph horiz-adv-x="466" d="M 274 -9 C 213 -9 166 10 132 48 C 98 86 81 137 81 203 C 81 279 103 342 149 394 C 194 445 250 471 316 471 C 356 471 387 461 410 443 C 433 424 445 399 445 368 C 445 322 424 288 382 266 C 340 243 273 229 180 223 L 105 218 C 105 216 105 215 105 213 C 105 211 105 209 105 207 L 105 204 C 105 144 119 97 149 63 C 179 29 220 12 274 12 C 301 12 327 16 351 26 C 375 35 399 50 423 71 L 419 40 C 396 22 373 10 350 2 C 326 -5 301 -9 274 -9 Z M 316 450 C 261 450 214 429 175 388 C 136 347 113 297 107 239 L 179 244 C 264 249 326 261 364 281 C 402 300 421 329 421 367 C 421 392 411 412 393 427 C 374 442 348 450 316 450 Z M 270 524 L 374 649 L 403 649 L 299 524 L 270 524 Z" unicode="é" />
<glyph horiz-adv-x="466" d="M 274 -9 C 213 -9 166 10 132 48 C 98 86 81 137 81 203 C 81 279 103 342 149 394 C 194 445 250 471 316 471 C 356 471 387 461 410 443 C 433 424 445 399 445 368 C 445 322 424 288 382 266 C 340 243 273 229 180 223 L 105 218 C 105 216 105 215 105 213 C 105 211 105 209 105 207 L 105 204 C 105 144 119 97 149 63 C 179 29 220 12 274 12 C 301 12 327 16 351 26 C 375 35 399 50 423 71 L 419 40 C 396 22 373 10 350 2 C 326 -5 301 -9 274 -9 Z M 316 450 C 261 450 214 429 175 388 C 136 347 113 297 107 239 L 179 244 C 264 249 326 261 364 281 C 402 300 421 329 421 367 C 421 392 411 412 393 427 C 374 442 348 450 316 450 Z M 196 524 L 314 643 L 330 643 L 415 524 L 388 524 L 320 619 L 226 524 L 196 524 Z" unicode="ê" />
<glyph horiz-adv-x="466" d="M 274 -9 C 213 -9 166 10 132 48 C 98 86 81 137 81 203 C 81 279 103 342 149 394 C 194 445 250 471 316 471 C 356 471 387 461 410 443 C 433 424 445 399 445 368 C 445 322 424 288 382 266 C 340 243 273 229 180 223 L 105 218 C 105 216 105 215 105 213 C 105 211 105 209 105 207 L 105 204 C 105 144 119 97 149 63 C 179 29 220 12 274 12 C 301 12 327 16 351 26 C 375 35 399 50 423 71 L 419 40 C 396 22 373 10 350 2 C 326 -5 301 -9 274 -9 Z M 316 450 C 261 450 214 429 175 388 C 136 347 113 297 107 239 L 179 244 C 264 249 326 261 364 281 C 402 300 421 329 421 367 C 421 392 411 412 393 427 C 374 442 348 450 316 450 Z M 227 543 L 232 577 L 267 577 L 262 543 L 227 543 Z M 351 543 L 356 577 L 391 577 L 386 543 L 351 543 Z" unicode="ë" />
<glyph horiz-adv-x="182" d="M 84 0 C 84 20 85 41 87 61 C 89 81 91 102 94 124 L 142 462 L 165 462 L 117 124 C 114 102 111 81 109 61 C 107 40 106 20 106 0 L 84 0 Z M 167 524 L 76 649 L 103 649 L 194 524 L 167 524 Z" unicode="ì" />
<glyph horiz-adv-x="182" d="M 84 0 C 84 20 85 41 87 61 C 89 81 91 102 94 124 L 142 462 L 165 462 L 117 124 C 114 102 111 81 109 61 C 107 40 106 20 106 0 L 84 0 Z M 128 524 L 232 649 L 261 649 L 157 524 L 128 524 Z" unicode="í" />
<glyph horiz-adv-x="182" d="M 84 0 C 84 20 85 41 87 61 C 89 81 91 102 94 124 L 142 462 L 165 462 L 117 124 C 114 102 111 81 109 61 C 107 40 106 20 106 0 L 84 0 Z M 54 524 L 172 643 L 188 643 L 273 524 L 246 524 L 178 619 L 84 524 L 54 524 Z" unicode="î" />
<glyph horiz-adv-x="182" d="M 84 0 C 84 20 85 41 87 61 C 89 81 91 102 94 124 L 142 462 L 165 462 L 117 124 C 114 102 111 81 109 61 C 107 40 106 20 106 0 L 84 0 Z M 85 543 L 90 577 L 125 577 L 120 543 L 85 543 Z M 209 543 L 214 577 L 249 577 L 244 543 L 209 543 Z" unicode="ï" />
>>>>>>> origin/master
<glyph horiz-adv-x="531" d="M 282 -9 C 218 -9 169 11 134 53 C 98 94 81 144 81 202 C 81 278 104 342 151 394 C 197 445 256 471 326 471 C 366 471 401 461 431 442 C 461 423 483 395 497 358 C 491 410 477 461 455 509 C 433 557 402 601 363 643 L 266 612 L 265 634 L 346 660 C 331 673 315 686 299 699 C 282 712 264 725 246 737 L 269 746 C 287 733 305 720 322 707 C 338 694 354 681 368 667 L 454 695 L 455 673 L 385 650 C 434 598 469 541 490 479 C 511 417 522 353 522 285 C 522 200 499 130 453 74 C 407 18 350 -9 282 -9 Z M 282 12 C 343 12 394 37 436 87 C 477 137 498 200 498 275 C 491 335 472 379 441 407 C 410 435 372 450 326 450 C 262 450 209 426 167 379 C 125 331 104 272 104 202 C 104 146 120 100 153 65 C 185 29 228 12 282 12 Z" unicode="ð" />
<glyph horiz-adv-x="479" d="M 83 0 L 133 357 C 135 377 137 396 139 413 C 140 430 141 446 141 462 L 164 462 C 164 446 163 429 162 410 C 160 391 158 373 156 357 L 149 310 C 166 365 190 406 221 432 C 252 458 285 471 320 471 C 368 471 403 454 427 421 C 450 387 457 345 449 294 L 419 124 C 415 101 412 80 411 62 C 410 43 410 22 410 0 L 386 0 C 386 22 386 43 388 62 C 389 81 392 102 396 124 L 426 294 C 434 341 427 379 407 407 C 387 435 358 450 320 450 C 284 450 247 430 209 390 C 171 350 143 269 127 149 L 106 0 L 83 0 Z M 224 532 L 202 532 C 208 557 218 576 231 588 C 244 600 260 607 280 607 C 292 607 303 604 314 599 C 325 593 338 584 352 572 C 362 562 372 554 380 550 C 388 545 397 543 406 543 C 418 543 429 547 439 556 C 448 565 456 579 462 598 L 483 598 C 475 572 465 553 453 541 C 440 528 424 522 406 522 C 393 522 381 524 370 530 C 358 536 346 545 333 557 C 322 567 312 575 304 579 C 296 583 288 586 280 586 C 266 586 255 581 246 572 C 236 563 229 550 224 532 Z" unicode="ñ" />
<glyph horiz-adv-x="524" d="M 276 -9 C 219 -9 172 9 135 47 C 97 84 79 134 79 197 C 79 274 101 339 145 392 C 189 444 245 471 311 471 C 368 471 415 452 453 415 C 490 377 509 327 509 265 C 509 187 486 122 442 70 C 397 17 342 -9 276 -9 Z M 276 12 C 335 12 385 36 425 84 C 465 132 485 192 485 264 C 485 320 469 365 438 399 C 407 433 365 450 311 450 C 252 450 202 425 162 377 C 122 329 102 269 102 198 C 102 142 117 97 149 63 C 180 29 222 12 276 12 Z M 336 524 L 245 649 L 272 649 L 363 524 L 336 524 Z" unicode="ò" />
<glyph horiz-adv-x="524" d="M 276 -9 C 219 -9 172 9 135 47 C 97 84 79 134 79 197 C 79 274 101 339 145 392 C 189 444 245 471 311 471 C 368 471 415 452 453 415 C 490 377 509 327 509 265 C 509 187 486 122 442 70 C 397 17 342 -9 276 -9 Z M 276 12 C 335 12 385 36 425 84 C 465 132 485 192 485 264 C 485 320 469 365 438 399 C 407 433 365 450 311 450 C 252 450 202 425 162 377 C 122 329 102 269 102 198 C 102 142 117 97 149 63 C 180 29 222 12 276 12 Z M 297 524 L 401 649 L 430 649 L 326 524 L 297 524 Z" unicode="ó" />
<glyph horiz-adv-x="524" d="M 276 -9 C 219 -9 172 9 135 47 C 97 84 79 134 79 197 C 79 274 101 339 145 392 C 189 444 245 471 311 471 C 368 471 415 452 453 415 C 490 377 509 327 509 265 C 509 187 486 122 442 70 C 397 17 342 -9 276 -9 Z M 276 12 C 335 12 385 36 425 84 C 465 132 485 192 485 264 C 485 320 469 365 438 399 C 407 433 365 450 311 450 C 252 450 202 425 162 377 C 122 329 102 269 102 198 C 102 142 117 97 149 63 C 180 29 222 12 276 12 Z M 223 524 L 341 643 L 357 643 L 442 524 L 415 524 L 347 619 L 253 524 L 223 524 Z" unicode="ô" />
<glyph horiz-adv-x="524" d="M 276 -9 C 219 -9 172 9 135 47 C 97 84 79 134 79 197 C 79 274 101 339 145 392 C 189 444 245 471 311 471 C 368 471 415 452 453 415 C 490 377 509 327 509 265 C 509 187 486 122 442 70 C 397 17 342 -9 276 -9 Z M 276 12 C 335 12 385 36 425 84 C 465 132 485 192 485 264 C 485 320 469 365 438 399 C 407 433 365 450 311 450 C 252 450 202 425 162 377 C 122 329 102 269 102 198 C 102 142 117 97 149 63 C 180 29 222 12 276 12 Z M 220 532 L 198 532 C 204 557 214 576 227 588 C 240 600 256 607 276 607 C 288 607 299 604 310 599 C 321 593 334 584 348 572 C 358 562 368 554 376 550 C 384 545 393 543 402 543 C 414 543 425 547 435 556 C 444 565 452 579 458 598 L 479 598 C 471 572 461 553 449 541 C 436 528 420 522 402 522 C 389 522 377 524 366 530 C 354 536 342 545 329 557 C 318 567 308 575 300 579 C 292 583 284 586 276 586 C 262 586 251 581 242 572 C 232 563 225 550 220 532 Z" unicode="õ" />
<glyph horiz-adv-x="524" d="M 276 -9 C 219 -9 172 9 135 47 C 97 84 79 134 79 197 C 79 274 101 339 145 392 C 189 444 245 471 311 471 C 368 471 415 452 453 415 C 490 377 509 327 509 265 C 509 187 486 122 442 70 C 397 17 342 -9 276 -9 Z M 276 12 C 335 12 385 36 425 84 C 465 132 485 192 485 264 C 485 320 469 365 438 399 C 407 433 365 450 311 450 C 252 450 202 425 162 377 C 122 329 102 269 102 198 C 102 142 117 97 149 63 C 180 29 222 12 276 12 Z M 254 543 L 259 577 L 294 577 L 289 543 L 254 543 Z M 378 543 L 383 577 L 418 577 L 413 543 L 378 543 Z" unicode="ö" />
<glyph horiz-adv-x="528" d="M 294 437 L 299 470 L 333 470 L 328 437 L 294 437 Z M 88 277 L 91 298 L 519 298 L 516 277 L 88 277 Z M 256 104 L 261 137 L 295 137 L 290 104 L 256 104 Z" unicode="÷" />
<<<<<<< HEAD
<glyph horiz-adv-x="524" d="M 100 -48 L 152 30 C 129 47 111 70 98 99 C 85 127 79 160 79 197 C 79 274 101 339 145 392 C 189 444 245 471 311 471 C 332 471 352 468 371 463 C 390 457 408 450 424 440 L 470 510 L 495 510 L 440 428 C 461 410 478 387 490 359 C 502 331 509 300 509 265 C 509 187 486 122 442 70 C 397 17 342 -9 276 -9 C 256 -9 236 -6 218 -1 C 200 3 183 10 169 19 L 125 -48 L 100 -48 Z M 102 198 C 102 165 107 136 118 111 C 128 85 144 65 164 49 L 412 422 C 398 430 383 437 366 442 C 349 447 331 450 311 450 C 252 450 202 425 162 377 C 122 329 102 269 102 198 Z M 276 12 C 335 12 385 36 425 84 C 465 132 485 192 485 264 C 485 294 480 322 470 347 C 460 372 446 393 428 409 L 181 37 C 193 29 208 22 224 18 C 240 14 257 12 276 12 Z" unicode="ø" />
<glyph horiz-adv-x="480" d="M 313 525 L 222 650 L 249 650 L 340 525 L 313 525 Z M 227 -11 C 181 -11 145 5 120 38 C 95 70 87 114 96 168 L 125 344 C 129 365 131 385 133 403 C 135 421 136 441 136 462 L 159 462 C 159 441 158 421 156 403 C 154 384 151 364 149 344 L 120 168 C 111 118 117 79 139 52 C 160 24 189 11 227 11 C 262 11 299 30 339 70 C 379 109 407 185 423 298 L 445 462 L 469 462 L 419 111 C 416 90 414 70 412 52 C 410 34 410 16 410 0 L 387 0 C 387 16 387 35 389 55 C 391 75 393 93 396 111 L 403 152 C 385 96 360 54 328 28 C 296 2 262 -11 227 -11 Z" unicode="ù" />
<glyph horiz-adv-x="480" d="M 274 525 L 378 650 L 407 650 L 303 525 L 274 525 Z M 227 -11 C 181 -11 145 5 120 38 C 95 70 87 114 96 168 L 125 344 C 129 365 131 385 133 403 C 135 421 136 441 136 462 L 159 462 C 159 441 158 421 156 403 C 154 384 151 364 149 344 L 120 168 C 111 118 117 79 139 52 C 160 24 189 11 227 11 C 262 11 299 30 339 70 C 379 109 407 185 423 298 L 445 462 L 469 462 L 419 111 C 416 90 414 70 412 52 C 410 34 410 16 410 0 L 387 0 C 387 16 387 35 389 55 C 391 75 393 93 396 111 L 403 152 C 385 96 360 54 328 28 C 296 2 262 -11 227 -11 Z" unicode="ú" />
<glyph horiz-adv-x="480" d="M 200 525 L 318 644 L 334 644 L 419 525 L 392 525 L 324 620 L 230 525 L 200 525 Z M 227 -11 C 181 -11 145 5 120 38 C 95 70 87 114 96 168 L 125 344 C 129 365 131 385 133 403 C 135 421 136 441 136 462 L 159 462 C 159 441 158 421 156 403 C 154 384 151 364 149 344 L 120 168 C 111 118 117 79 139 52 C 160 24 189 11 227 11 C 262 11 299 30 339 70 C 379 109 407 185 423 298 L 445 462 L 469 462 L 419 111 C 416 90 414 70 412 52 C 410 34 410 16 410 0 L 387 0 C 387 16 387 35 389 55 C 391 75 393 93 396 111 L 403 152 C 385 96 360 54 328 28 C 296 2 262 -11 227 -11 Z" unicode="û" />
<glyph horiz-adv-x="480" d="M 231 544 L 236 578 L 271 578 L 266 544 L 231 544 Z M 355 544 L 360 578 L 395 578 L 390 544 L 355 544 Z M 227 -11 C 181 -11 145 5 120 38 C 95 70 87 114 96 168 L 125 344 C 129 365 131 385 133 403 C 135 421 136 441 136 462 L 159 462 C 159 441 158 421 156 403 C 154 384 151 364 149 344 L 120 168 C 111 118 117 79 139 52 C 160 24 189 11 227 11 C 262 11 299 30 339 70 C 379 109 407 185 423 298 L 445 462 L 469 462 L 419 111 C 416 90 414 70 412 52 C 410 34 410 16 410 0 L 387 0 C 387 16 387 35 389 55 C 391 75 393 93 396 111 L 403 152 C 385 96 360 54 328 28 C 296 2 262 -11 227 -11 Z" unicode="ü" />
<glyph horiz-adv-x="447" d="M 262 524 L 366 649 L 395 649 L 291 524 L 262 524 Z M 243 -29 C 197 -94 148 -142 97 -173 C 45 -204 -9 -220 -68 -220 L -76 -220 L -73 -198 L -65 -198 C -12 -198 39 -182 89 -151 C 139 -120 181 -79 217 -29 L 84 462 L 107 462 L 214 71 L 234 -8 C 274 54 312 125 347 206 C 381 287 411 372 437 462 L 461 462 C 427 353 392 258 356 176 C 319 94 281 26 243 -29 Z" unicode="ý" />
<glyph horiz-adv-x="507" d="M 46 -220 L 179 724 L 202 724 L 150 357 C 149 347 148 338 146 328 C 144 318 142 309 140 300 C 157 359 182 402 215 430 C 248 457 285 471 327 471 C 375 471 414 453 444 419 C 474 384 490 339 490 285 C 490 203 464 134 414 76 C 363 18 299 -10 221 -10 C 199 -10 179 -8 160 -4 C 140 0 121 6 102 15 L 69 -220 L 46 -220 Z M 221 12 C 292 12 351 38 397 92 C 443 145 467 209 467 285 C 467 337 453 377 425 406 C 397 435 365 450 327 450 C 286 450 246 430 206 391 C 166 351 137 266 119 136 L 106 38 C 124 28 143 22 162 18 C 181 14 201 12 221 12 Z" unicode="þ" />
<glyph horiz-adv-x="447" d="M 219 543 L 224 577 L 259 577 L 254 543 L 219 543 Z M 343 543 L 348 577 L 383 577 L 378 543 L 343 543 Z M 243 -29 C 197 -94 148 -142 97 -173 C 45 -204 -9 -220 -68 -220 L -76 -220 L -73 -198 L -65 -198 C -12 -198 39 -182 89 -151 C 139 -120 181 -79 217 -29 L 84 462 L 107 462 L 214 71 L 234 -8 C 274 54 312 125 347 206 C 381 287 411 372 437 462 L 461 462 C 427 353 392 258 356 176 C 319 94 281 26 243 -29 Z" unicode="ÿ" />
<glyph horiz-adv-x="590" d="M 300 727 L 303 748 L 497 748 L 494 727 L 300 727 Z M 21 0 L 376 670 L 400 670 L 569 0 L 545 0 L 482 254 L 180 254 L 45 0 L 21 0 Z M 191 275 L 476 275 L 395 598 L 385 642 L 362 598 L 191 275 Z" unicode="Ā" />
<glyph horiz-adv-x="498" d="M 259 540 L 262 561 L 456 561 L 453 540 L 259 540 Z M 233 -9 C 187 -9 150 8 120 44 C 90 79 76 123 76 176 C 76 256 103 326 158 384 C 212 442 279 471 357 471 C 377 471 398 469 418 467 C 438 464 461 459 485 453 L 436 111 C 433 90 431 71 430 53 C 428 35 428 17 428 0 L 404 0 C 404 16 404 34 406 54 C 408 73 410 92 413 111 L 420 159 C 401 103 375 61 341 33 C 307 5 271 -9 233 -9 Z M 233 12 C 271 12 312 32 354 73 C 396 114 425 198 443 325 L 458 436 C 442 440 425 444 409 446 C 393 448 375 450 357 450 C 285 450 224 423 174 369 C 124 315 99 250 99 176 C 99 125 112 85 139 56 C 166 26 197 12 233 12 Z" unicode="ā" />
<glyph horiz-adv-x="590" d="M 396 715 C 362 715 336 726 318 750 C 300 773 293 802 297 836 L 318 836 C 316 805 322 780 335 762 C 347 744 368 735 397 735 C 421 735 442 744 458 762 C 474 780 483 805 486 836 L 507 836 C 503 796 491 765 470 745 C 449 725 424 715 396 715 Z M 21 0 L 376 670 L 400 670 L 569 0 L 545 0 L 482 254 L 180 254 L 45 0 L 21 0 Z M 191 275 L 476 275 L 395 598 L 385 642 L 362 598 L 191 275 Z" unicode="Ă" />
<glyph horiz-adv-x="498" d="M 354 516 C 319 516 293 527 276 551 C 258 575 251 603 254 637 L 275 637 C 273 606 279 582 292 564 C 304 546 325 537 354 537 C 378 537 399 546 415 564 C 431 582 441 606 443 637 L 464 637 C 461 597 449 566 428 546 C 407 526 382 516 354 516 Z M 233 -9 C 187 -9 150 8 120 44 C 90 79 76 123 76 176 C 76 256 103 326 158 384 C 212 442 279 471 357 471 C 377 471 398 469 418 467 C 438 464 461 459 485 453 L 436 111 C 433 90 431 71 430 53 C 428 35 428 17 428 0 L 404 0 C 404 16 404 34 406 54 C 408 73 410 92 413 111 L 420 159 C 401 103 375 61 341 33 C 307 5 271 -9 233 -9 Z M 233 12 C 271 12 312 32 354 73 C 396 114 425 198 443 325 L 458 436 C 442 440 425 444 409 446 C 393 448 375 450 357 450 C 285 450 224 423 174 369 C 124 315 99 250 99 176 C 99 125 112 85 139 56 C 166 26 197 12 233 12 Z" unicode="ă" />
<glyph horiz-adv-x="590" d="M 21 0 L 376 670 L 400 670 L 569 0 L 565 0 C 529 0 500 -10 476 -31 C 452 -52 441 -79 441 -112 C 441 -139 450 -160 470 -176 C 490 -191 515 -199 547 -199 L 544 -220 C 506 -220 475 -209 453 -189 C 430 -169 419 -143 419 -112 C 419 -77 430 -48 454 -25 C 478 -1 507 12 541 17 L 482 254 L 180 254 L 45 0 L 21 0 Z M 191 275 L 476 275 L 395 598 L 385 642 L 362 598 L 191 275 Z" unicode="Ą" />
<glyph horiz-adv-x="498" d="M 233 -9 C 187 -9 150 8 120 44 C 90 79 76 123 76 176 C 76 256 103 326 158 384 C 212 442 279 471 357 471 C 377 471 398 469 418 467 C 438 464 461 459 485 453 L 436 111 C 433 90 431 71 430 53 C 428 35 428 17 428 0 L 424 0 C 376 -29 345 -53 330 -73 C 315 -92 308 -112 308 -133 C 308 -153 316 -169 332 -181 C 348 -193 371 -199 403 -199 L 400 -220 C 362 -220 333 -212 314 -198 C 295 -183 286 -161 286 -133 C 286 -108 294 -85 311 -63 C 327 -41 358 -15 404 14 C 404 28 405 44 407 61 C 408 77 410 94 413 111 L 420 159 C 401 103 375 61 341 33 C 307 5 271 -9 233 -9 Z M 233 12 C 271 12 312 32 354 73 C 396 114 425 198 443 325 L 458 436 C 442 440 425 444 409 446 C 393 448 375 450 357 450 C 285 450 224 423 174 369 C 124 315 99 250 99 176 C 99 125 112 85 139 56 C 166 26 197 12 233 12 Z" unicode="ą" />
<glyph horiz-adv-x="675" d="M 449 729 L 553 854 L 582 854 L 477 729 L 449 729 Z M 420 -11 C 322 -11 244 16 187 72 C 130 128 102 199 102 287 C 102 395 138 486 210 559 C 282 632 371 669 477 669 C 517 669 555 664 592 654 C 628 644 665 630 703 610 L 700 585 C 666 605 630 621 594 631 C 557 641 518 647 477 647 C 377 647 294 612 227 544 C 160 475 127 389 127 287 C 127 203 153 137 207 87 C 260 37 331 12 420 12 C 457 12 495 17 533 27 C 571 37 607 52 641 72 L 637 45 C 602 26 566 12 529 3 C 492 -6 456 -11 420 -11 Z" unicode="Ć" />
<glyph horiz-adv-x="459" d="M 280 524 L 384 649 L 413 649 L 309 524 L 280 524 Z M 277 -9 C 216 -9 168 9 132 46 C 96 82 79 132 79 194 C 79 273 102 339 149 392 C 195 444 254 471 326 471 C 354 471 380 467 402 460 C 424 452 448 442 472 429 L 469 405 C 445 420 422 431 399 439 C 375 446 351 450 326 450 C 260 450 206 425 164 377 C 122 328 102 267 102 194 C 102 139 117 95 149 62 C 181 28 223 12 277 12 C 303 12 328 16 352 24 C 376 32 400 44 422 60 L 418 33 C 395 18 372 7 348 1 C 324 -5 301 -9 277 -9 Z" unicode="ć" />
<glyph horiz-adv-x="675" d="M 373 729 L 491 848 L 507 848 L 592 729 L 566 729 L 498 824 L 403 729 L 373 729 Z M 420 -11 C 322 -11 244 16 187 72 C 130 128 102 199 102 287 C 102 395 138 486 210 559 C 282 632 371 669 477 669 C 517 669 555 664 592 654 C 628 644 665 630 703 610 L 700 585 C 666 605 630 621 594 631 C 557 641 518 647 477 647 C 377 647 294 612 227 544 C 160 475 127 389 127 287 C 127 203 153 137 207 87 C 260 37 331 12 420 12 C 457 12 495 17 533 27 C 571 37 607 52 641 72 L 637 45 C 602 26 566 12 529 3 C 492 -6 456 -11 420 -11 Z" unicode="Ĉ" />
<glyph horiz-adv-x="459" d="M 206 524 L 324 643 L 340 643 L 425 524 L 398 524 L 330 619 L 236 524 L 206 524 Z M 277 -9 C 216 -9 168 9 132 46 C 96 82 79 132 79 194 C 79 273 102 339 149 392 C 195 444 254 471 326 471 C 354 471 380 467 402 460 C 424 452 448 442 472 429 L 469 405 C 445 420 422 431 399 439 C 375 446 351 450 326 450 C 260 450 206 425 164 377 C 122 328 102 267 102 194 C 102 139 117 95 149 62 C 181 28 223 12 277 12 C 303 12 328 16 352 24 C 376 32 400 44 422 60 L 418 33 C 395 18 372 7 348 1 C 324 -5 301 -9 277 -9 Z" unicode="ĉ" />
<glyph horiz-adv-x="675" d="M 466 729 L 471 766 L 509 766 L 504 729 L 466 729 Z M 420 -11 C 322 -11 244 16 187 72 C 130 128 102 199 102 287 C 102 395 138 486 210 559 C 282 632 371 669 477 669 C 517 669 555 664 592 654 C 628 644 665 630 703 610 L 700 585 C 666 605 630 621 594 631 C 557 641 518 647 477 647 C 377 647 294 612 227 544 C 160 475 127 389 127 287 C 127 203 153 137 207 87 C 260 37 331 12 420 12 C 457 12 495 17 533 27 C 571 37 607 52 641 72 L 637 45 C 602 26 566 12 529 3 C 492 -6 456 -11 420 -11 Z" unicode="Ċ" />
<glyph horiz-adv-x="459" d="M 297 543 L 302 580 L 340 580 L 335 543 L 297 543 Z M 277 -9 C 216 -9 168 9 132 46 C 96 82 79 132 79 194 C 79 273 102 339 149 392 C 195 444 254 471 326 471 C 354 471 380 467 402 460 C 424 452 448 442 472 429 L 469 405 C 445 420 422 431 399 439 C 375 446 351 450 326 450 C 260 450 206 425 164 377 C 122 328 102 267 102 194 C 102 139 117 95 149 62 C 181 28 223 12 277 12 C 303 12 328 16 352 24 C 376 32 400 44 422 60 L 418 33 C 395 18 372 7 348 1 C 324 -5 301 -9 277 -9 Z" unicode="ċ" />
<glyph horiz-adv-x="675" d="M 476 720 L 392 839 L 418 839 L 485 743 L 578 839 L 608 839 L 492 720 L 476 720 Z M 420 -11 C 322 -11 244 16 187 72 C 130 128 102 199 102 287 C 102 395 138 486 210 559 C 282 632 371 669 477 669 C 517 669 555 664 592 654 C 628 644 665 630 703 610 L 700 585 C 666 605 630 621 594 631 C 557 641 518 647 477 647 C 377 647 294 612 227 544 C 160 475 127 389 127 287 C 127 203 153 137 207 87 C 260 37 331 12 420 12 C 457 12 495 17 533 27 C 571 37 607 52 641 72 L 637 45 C 602 26 566 12 529 3 C 492 -6 456 -11 420 -11 Z" unicode="Č" />
<glyph horiz-adv-x="459" d="M 307 524 L 223 643 L 249 643 L 316 547 L 409 643 L 439 643 L 323 524 L 307 524 Z M 277 -9 C 216 -9 168 9 132 46 C 96 82 79 132 79 194 C 79 273 102 339 149 392 C 195 444 254 471 326 471 C 354 471 380 467 402 460 C 424 452 448 442 472 429 L 469 405 C 445 420 422 431 399 439 C 375 446 351 450 326 450 C 260 450 206 425 164 377 C 122 328 102 267 102 194 C 102 139 117 95 149 62 C 181 28 223 12 277 12 C 303 12 328 16 352 24 C 376 32 400 44 422 60 L 418 33 C 395 18 372 7 348 1 C 324 -5 301 -9 277 -9 Z" unicode="č" />
<glyph horiz-adv-x="691" d="M 353 715 L 269 834 L 295 834 L 362 738 L 455 834 L 485 834 L 369 715 L 353 715 Z M 83 0 L 175 658 L 352 658 C 456 658 537 632 595 580 C 653 528 683 460 683 374 C 683 265 644 175 567 105 C 490 35 387 0 258 0 L 83 0 Z M 110 22 L 259 22 C 381 22 478 55 550 121 C 622 187 658 271 658 374 C 658 454 631 518 577 565 C 523 612 448 636 352 636 L 196 636 L 110 22 Z" unicode="Ď" />
<glyph horiz-adv-x="568" d="M 242 -9 C 196 -9 158 8 128 43 C 98 78 83 122 83 176 C 83 256 110 326 164 384 C 218 442 283 471 357 471 C 375 471 394 469 413 465 C 431 461 450 454 469 446 L 509 724 L 532 724 L 446 111 C 443 90 441 71 439 53 C 437 35 437 17 437 0 L 414 0 C 414 16 414 34 416 54 C 417 73 419 92 422 111 L 429 157 C 411 101 384 59 350 32 C 315 4 279 -9 242 -9 Z M 583 565 L 569 577 C 585 595 597 614 605 632 C 613 650 618 668 621 687 L 626 724 L 649 724 L 644 687 C 641 667 635 646 626 626 C 616 606 602 585 583 565 Z M 242 12 C 280 12 319 32 361 73 C 403 113 433 197 452 325 L 466 423 C 449 431 431 438 413 443 C 394 447 375 450 356 450 C 289 450 231 423 181 369 C 131 315 106 250 106 176 C 106 124 119 84 147 55 C 175 26 206 12 242 12 Z" unicode="ď" />
<glyph horiz-adv-x="693" d="M 85 0 L 130 323 L 64 323 L 67 345 L 133 345 L 177 658 L 354 658 C 458 658 539 632 597 580 C 655 528 685 460 685 374 C 685 265 646 175 569 105 C 492 35 389 0 260 0 L 85 0 Z M 112 22 L 261 22 C 383 22 480 55 552 121 C 624 187 660 271 660 374 C 660 454 633 518 579 565 C 525 612 450 636 354 636 L 198 636 L 157 345 L 307 345 L 304 323 L 154 323 L 112 22 Z" unicode="Đ" />
<glyph horiz-adv-x="502" d="M 242 -9 C 196 -9 158 8 128 43 C 98 78 83 122 83 176 C 83 256 110 326 164 384 C 218 442 283 471 357 471 C 375 471 394 469 413 465 C 431 461 450 454 469 446 L 491 598 L 387 598 L 390 619 L 494 619 L 509 724 L 532 724 L 517 619 L 575 619 L 572 598 L 514 598 L 446 111 C 443 90 441 71 439 53 C 437 35 437 17 437 0 L 414 0 C 414 16 414 34 416 54 C 417 73 419 92 422 111 L 429 157 C 411 101 384 59 350 32 C 315 4 279 -9 242 -9 Z M 242 12 C 280 12 319 32 361 73 C 403 113 433 197 452 325 L 466 423 C 449 431 431 438 413 443 C 394 447 375 450 356 450 C 289 450 231 423 181 369 C 131 315 106 250 106 176 C 106 124 119 84 147 55 C 175 26 206 12 242 12 Z" unicode="đ" />
<glyph horiz-adv-x="478" d="M 255 727 L 258 748 L 452 748 L 449 727 L 255 727 Z M 83 0 L 175 658 L 493 658 L 490 636 L 195 636 L 154 344 L 442 344 L 439 323 L 151 323 L 109 22 L 424 22 L 421 0 L 83 0 Z" unicode="Ē" />
<glyph horiz-adv-x="466" d="M 211 540 L 214 561 L 408 561 L 405 540 L 211 540 Z M 274 -9 C 213 -9 166 10 132 48 C 98 86 81 137 81 203 C 81 279 103 342 149 394 C 194 445 250 471 316 471 C 356 471 387 461 410 443 C 433 424 445 399 445 368 C 445 322 424 288 382 266 C 340 243 273 229 180 223 L 105 218 L 105 204 C 105 144 119 97 149 63 C 179 29 220 12 274 12 C 301 12 327 16 351 26 C 375 35 399 50 423 71 L 419 40 C 396 22 373 10 350 2 C 326 -5 301 -9 274 -9 Z M 316 450 C 261 450 214 429 175 388 C 136 347 113 297 107 239 L 179 244 C 264 249 326 261 364 281 C 402 300 421 329 421 367 C 421 392 411 412 393 427 C 374 442 348 450 316 450 Z" unicode="ē" />
<glyph horiz-adv-x="478" d="M 351 715 C 317 715 291 726 273 750 C 255 773 248 802 252 836 L 273 836 C 271 805 277 780 290 762 C 302 744 323 735 352 735 C 376 735 397 744 413 762 C 429 780 438 805 441 836 L 462 836 C 458 796 446 765 425 745 C 404 725 379 715 351 715 Z M 83 0 L 175 658 L 493 658 L 490 636 L 195 636 L 154 344 L 442 344 L 439 323 L 151 323 L 109 22 L 424 22 L 421 0 L 83 0 Z" unicode="Ĕ" />
<glyph horiz-adv-x="466" d="M 306 516 C 271 516 245 527 228 551 C 210 575 203 603 206 637 L 227 637 C 225 606 231 582 244 564 C 256 546 277 537 306 537 C 330 537 351 546 367 564 C 383 582 393 606 395 637 L 416 637 C 413 597 401 566 380 546 C 359 526 334 516 306 516 Z M 274 -9 C 213 -9 166 10 132 48 C 98 86 81 137 81 203 C 81 279 103 342 149 394 C 194 445 250 471 316 471 C 356 471 387 461 410 443 C 433 424 445 399 445 368 C 445 322 424 288 382 266 C 340 243 273 229 180 223 L 105 218 L 105 204 C 105 144 119 97 149 63 C 179 29 220 12 274 12 C 301 12 327 16 351 26 C 375 35 399 50 423 71 L 419 40 C 396 22 373 10 350 2 C 326 -5 301 -9 274 -9 Z M 316 450 C 261 450 214 429 175 388 C 136 347 113 297 107 239 L 179 244 C 264 249 326 261 364 281 C 402 300 421 329 421 367 C 421 392 411 412 393 427 C 374 442 348 450 316 450 Z" unicode="ĕ" />
<glyph horiz-adv-x="478" d="M 332 724 L 337 761 L 375 761 L 370 724 L 332 724 Z M 83 0 L 175 658 L 493 658 L 490 636 L 195 636 L 154 344 L 442 344 L 439 323 L 151 323 L 109 22 L 424 22 L 421 0 L 83 0 Z" unicode="Ė" />
<glyph horiz-adv-x="466" d="M 287 543 L 292 580 L 330 580 L 325 543 L 287 543 Z M 274 -9 C 213 -9 166 10 132 48 C 98 86 81 137 81 203 C 81 279 103 342 149 394 C 194 445 250 471 316 471 C 356 471 387 461 410 443 C 433 424 445 399 445 368 C 445 322 424 288 382 266 C 340 243 273 229 180 223 L 105 218 L 105 204 C 105 144 119 97 149 63 C 179 29 220 12 274 12 C 301 12 327 16 351 26 C 375 35 399 50 423 71 L 419 40 C 396 22 373 10 350 2 C 326 -5 301 -9 274 -9 Z M 316 450 C 261 450 214 429 175 388 C 136 347 113 297 107 239 L 179 244 C 264 249 326 261 364 281 C 402 300 421 329 421 367 C 421 392 411 412 393 427 C 374 442 348 450 316 450 Z" unicode="ė" />
<glyph horiz-adv-x="478" d="M 83 0 L 175 658 L 493 658 L 490 636 L 195 636 L 154 344 L 442 344 L 439 323 L 151 323 L 109 22 L 424 22 L 421 0 L 417 0 C 381 0 352 -10 328 -31 C 304 -52 293 -79 293 -112 C 293 -139 302 -160 322 -176 C 342 -191 367 -199 399 -199 L 396 -220 C 358 -220 327 -209 305 -189 C 282 -169 271 -143 271 -112 C 271 -87 277 -65 290 -45 C 302 -25 319 -10 339 0 L 83 0 Z" unicode="Ę" />
<glyph horiz-adv-x="483" d="M 399 -220 C 357 -220 325 -209 301 -187 C 277 -165 265 -137 265 -103 C 265 -84 268 -66 276 -50 C 284 -34 294 -19 307 -7 C 301 -7 296 -8 290 -8 C 284 -8 279 -9 274 -9 C 213 -9 166 10 132 48 C 98 86 81 137 81 203 C 81 279 103 342 149 394 C 194 445 250 471 316 471 C 356 471 387 461 410 443 C 433 424 445 399 445 368 C 445 322 424 288 382 266 C 340 243 273 229 180 223 L 105 218 L 105 204 C 105 144 119 97 149 63 C 179 29 220 12 274 12 C 301 12 327 16 351 26 C 375 35 399 50 423 71 L 419 40 C 410 33 401 27 392 22 C 383 17 374 12 365 8 C 341 -2 322 -17 308 -37 C 294 -57 287 -79 287 -103 C 287 -133 297 -156 319 -173 C 341 -190 368 -199 402 -199 L 399 -220 Z M 316 450 C 261 450 214 429 175 388 C 136 347 113 297 107 239 L 179 244 C 264 249 326 261 364 281 C 402 300 421 329 421 367 C 421 392 411 412 393 427 C 374 442 348 450 316 450 Z" unicode="ę" />
<glyph horiz-adv-x="478" d="M 342 715 L 258 834 L 284 834 L 351 738 L 444 834 L 474 834 L 358 715 L 342 715 Z M 83 0 L 175 658 L 493 658 L 490 636 L 195 636 L 154 344 L 442 344 L 439 323 L 151 323 L 109 22 L 424 22 L 421 0 L 83 0 Z" unicode="Ě" />
<glyph horiz-adv-x="466" d="M 297 524 L 213 643 L 239 643 L 306 547 L 399 643 L 429 643 L 313 524 L 297 524 Z M 274 -9 C 213 -9 166 10 132 48 C 98 86 81 137 81 203 C 81 279 103 342 149 394 C 194 445 250 471 316 471 C 356 471 387 461 410 443 C 433 424 445 399 445 368 C 445 322 424 288 382 266 C 340 243 273 229 180 223 L 105 218 L 105 204 C 105 144 119 97 149 63 C 179 29 220 12 274 12 C 301 12 327 16 351 26 C 375 35 399 50 423 71 L 419 40 C 396 22 373 10 350 2 C 326 -5 301 -9 274 -9 Z M 316 450 C 261 450 214 429 175 388 C 136 347 113 297 107 239 L 179 244 C 264 249 326 261 364 281 C 402 300 421 329 421 367 C 421 392 411 412 393 427 C 374 442 348 450 316 450 Z" unicode="ě" />
<glyph horiz-adv-x="684" d="M 370 729 L 488 848 L 504 848 L 589 729 L 563 729 L 495 824 L 400 729 L 370 729 Z M 413 -11 C 317 -11 242 16 186 72 C 130 127 102 199 102 287 C 102 400 137 492 209 563 C 281 633 369 669 474 669 C 512 669 548 664 583 655 C 618 646 652 633 685 617 L 682 593 C 650 611 616 625 582 634 C 548 642 512 647 474 647 C 373 647 290 613 225 546 C 159 478 127 392 127 287 C 127 203 153 136 207 86 C 260 36 329 11 413 11 C 445 11 478 14 510 21 C 542 27 573 38 602 53 L 634 282 L 486 282 L 489 304 L 661 304 L 624 38 C 590 20 554 7 516 0 C 478 -7 443 -11 413 -11 Z" unicode="Ĝ" />
<glyph horiz-adv-x="498" d="M 220 524 L 338 643 L 354 643 L 439 524 L 412 524 L 344 619 L 250 524 L 220 524 Z M 209 -227 C 177 -227 148 -223 120 -215 C 92 -207 65 -197 40 -183 L 43 -158 C 67 -173 94 -185 122 -193 C 150 -201 179 -205 209 -205 C 254 -205 295 -189 333 -158 C 370 -127 394 -71 405 9 L 426 157 C 408 100 381 58 347 31 C 313 4 277 -9 239 -9 C 193 -9 155 8 125 44 C 95 80 80 124 80 176 C 80 256 107 326 163 384 C 218 442 285 471 363 471 C 383 471 404 469 425 467 C 445 464 467 459 491 453 L 429 7 C 417 -76 390 -136 350 -172 C 310 -208 263 -227 209 -227 Z M 239 12 C 277 12 317 32 359 73 C 401 113 431 197 450 325 L 466 436 C 450 440 433 444 416 446 C 399 448 381 450 363 450 C 291 450 230 423 179 369 C 128 315 103 250 103 176 C 103 125 116 85 144 56 C 172 26 203 12 239 12 Z" unicode="ĝ" />
<glyph horiz-adv-x="684" d="M 482 720 C 448 720 422 731 404 755 C 386 778 379 807 383 841 L 404 841 C 402 810 408 785 421 767 C 433 749 454 740 483 740 C 507 740 528 749 544 767 C 560 785 569 810 572 841 L 593 841 C 589 801 577 770 556 750 C 535 730 510 720 482 720 Z M 413 -11 C 317 -11 242 16 186 72 C 130 127 102 199 102 287 C 102 400 137 492 209 563 C 281 633 369 669 474 669 C 512 669 548 664 583 655 C 618 646 652 633 685 617 L 682 593 C 650 611 616 625 582 634 C 548 642 512 647 474 647 C 373 647 290 613 225 546 C 159 478 127 392 127 287 C 127 203 153 136 207 86 C 260 36 329 11 413 11 C 445 11 478 14 510 21 C 542 27 573 38 602 53 L 634 282 L 486 282 L 489 304 L 661 304 L 624 38 C 590 20 554 7 516 0 C 478 -7 443 -11 413 -11 Z" unicode="Ğ" />
<glyph horiz-adv-x="498" d="M 330 516 C 295 516 269 527 252 551 C 234 575 227 603 230 637 L 251 637 C 249 606 255 582 268 564 C 280 546 301 537 330 537 C 354 537 375 546 391 564 C 407 582 417 606 419 637 L 440 637 C 437 597 425 566 404 546 C 383 526 358 516 330 516 Z M 209 -227 C 177 -227 148 -223 120 -215 C 92 -207 65 -197 40 -183 L 43 -158 C 67 -173 94 -185 122 -193 C 150 -201 179 -205 209 -205 C 254 -205 295 -189 333 -158 C 370 -127 394 -71 405 9 L 426 157 C 408 100 381 58 347 31 C 313 4 277 -9 239 -9 C 193 -9 155 8 125 44 C 95 80 80 124 80 176 C 80 256 107 326 163 384 C 218 442 285 471 363 471 C 383 471 404 469 425 467 C 445 464 467 459 491 453 L 429 7 C 417 -76 390 -136 350 -172 C 310 -208 263 -227 209 -227 Z M 239 12 C 277 12 317 32 359 73 C 401 113 431 197 450 325 L 466 436 C 450 440 433 444 416 446 C 399 448 381 450 363 450 C 291 450 230 423 179 369 C 128 315 103 250 103 176 C 103 125 116 85 144 56 C 172 26 203 12 239 12 Z" unicode="ğ" />
<glyph horiz-adv-x="684" d="M 463 729 L 468 766 L 506 766 L 501 729 L 463 729 Z M 413 -11 C 317 -11 242 16 186 72 C 130 127 102 199 102 287 C 102 400 137 492 209 563 C 281 633 369 669 474 669 C 512 669 548 664 583 655 C 618 646 652 633 685 617 L 682 593 C 650 611 616 625 582 634 C 548 642 512 647 474 647 C 373 647 290 613 225 546 C 159 478 127 392 127 287 C 127 203 153 136 207 86 C 260 36 329 11 413 11 C 445 11 478 14 510 21 C 542 27 573 38 602 53 L 634 282 L 486 282 L 489 304 L 661 304 L 624 38 C 590 20 554 7 516 0 C 478 -7 443 -11 413 -11 Z" unicode="Ġ" />
<glyph horiz-adv-x="498" d="M 311 543 L 316 580 L 354 580 L 349 543 L 311 543 Z M 209 -227 C 177 -227 148 -223 120 -215 C 92 -207 65 -197 40 -183 L 43 -158 C 67 -173 94 -185 122 -193 C 150 -201 179 -205 209 -205 C 254 -205 295 -189 333 -158 C 370 -127 394 -71 405 9 L 426 157 C 408 100 381 58 347 31 C 313 4 277 -9 239 -9 C 193 -9 155 8 125 44 C 95 80 80 124 80 176 C 80 256 107 326 163 384 C 218 442 285 471 363 471 C 383 471 404 469 425 467 C 445 464 467 459 491 453 L 429 7 C 417 -76 390 -136 350 -172 C 310 -208 263 -227 209 -227 Z M 239 12 C 277 12 317 32 359 73 C 401 113 431 197 450 325 L 466 436 C 450 440 433 444 416 446 C 399 448 381 450 363 450 C 291 450 230 423 179 369 C 128 315 103 250 103 176 C 103 125 116 85 144 56 C 172 26 203 12 239 12 Z" unicode="ġ" />
=======
<glyph horiz-adv-x="524" d="M 100 -48 L 470 510 L 495 510 L 125 -48 L 100 -48 Z M 276 -9 C 219 -9 172 9 135 47 C 97 84 79 134 79 197 C 79 274 101 339 145 392 C 189 444 245 471 311 471 C 368 471 415 452 453 415 C 490 377 509 327 509 265 C 509 187 486 122 442 70 C 397 17 342 -9 276 -9 Z M 276 12 C 335 12 385 36 425 84 C 465 132 485 192 485 264 C 485 320 469 365 438 399 C 407 433 365 450 311 450 C 252 450 202 425 162 377 C 122 329 102 269 102 198 C 102 142 117 97 149 63 C 180 29 222 12 276 12 Z" unicode="ø" />
<glyph horiz-adv-x="480" d="M 227 -11 C 181 -11 145 5 120 38 C 95 70 87 114 96 168 L 125 344 C 129 365 131 385 133 403 C 135 421 136 441 136 462 L 159 462 C 159 441 158 421 156 403 C 154 384 151 364 149 344 L 120 168 C 111 118 117 79 139 52 C 160 24 189 11 227 11 C 262 11 299 30 339 70 C 379 109 407 185 423 298 L 445 462 L 469 462 L 419 111 C 416 90 414 70 412 52 C 410 34 410 16 410 0 L 387 0 C 387 16 387 35 389 55 C 391 75 393 93 396 111 L 403 152 C 385 96 360 54 328 28 C 296 2 262 -11 227 -11 Z M 313 525 L 222 650 L 249 650 L 340 525 L 313 525 Z" unicode="ù" />
<glyph horiz-adv-x="480" d="M 227 -11 C 181 -11 145 5 120 38 C 95 70 87 114 96 168 L 125 344 C 129 365 131 385 133 403 C 135 421 136 441 136 462 L 159 462 C 159 441 158 421 156 403 C 154 384 151 364 149 344 L 120 168 C 111 118 117 79 139 52 C 160 24 189 11 227 11 C 262 11 299 30 339 70 C 379 109 407 185 423 298 L 445 462 L 469 462 L 419 111 C 416 90 414 70 412 52 C 410 34 410 16 410 0 L 387 0 C 387 16 387 35 389 55 C 391 75 393 93 396 111 L 403 152 C 385 96 360 54 328 28 C 296 2 262 -11 227 -11 Z M 274 525 L 378 650 L 407 650 L 303 525 L 274 525 Z" unicode="ú" />
<glyph horiz-adv-x="480" d="M 227 -11 C 181 -11 145 5 120 38 C 95 70 87 114 96 168 L 125 344 C 129 365 131 385 133 403 C 135 421 136 441 136 462 L 159 462 C 159 441 158 421 156 403 C 154 384 151 364 149 344 L 120 168 C 111 118 117 79 139 52 C 160 24 189 11 227 11 C 262 11 299 30 339 70 C 379 109 407 185 423 298 L 445 462 L 469 462 L 419 111 C 416 90 414 70 412 52 C 410 34 410 16 410 0 L 387 0 C 387 16 387 35 389 55 C 391 75 393 93 396 111 L 403 152 C 385 96 360 54 328 28 C 296 2 262 -11 227 -11 Z M 200 525 L 318 644 L 334 644 L 419 525 L 392 525 L 324 620 L 230 525 L 200 525 Z" unicode="û" />
<glyph horiz-adv-x="480" d="M 227 -11 C 181 -11 145 5 120 38 C 95 70 87 114 96 168 L 125 344 C 129 365 131 385 133 403 C 135 421 136 441 136 462 L 159 462 C 159 441 158 421 156 403 C 154 384 151 364 149 344 L 120 168 C 111 118 117 79 139 52 C 160 24 189 11 227 11 C 262 11 299 30 339 70 C 379 109 407 185 423 298 L 445 462 L 469 462 L 419 111 C 416 90 414 70 412 52 C 410 34 410 16 410 0 L 387 0 C 387 16 387 35 389 55 C 391 75 393 93 396 111 L 403 152 C 385 96 360 54 328 28 C 296 2 262 -11 227 -11 Z M 231 544 L 236 578 L 271 578 L 266 544 L 231 544 Z M 355 544 L 360 578 L 395 578 L 390 544 L 355 544 Z" unicode="ü" />
<glyph horiz-adv-x="447" d="M -68 -220 L -76 -220 L -73 -198 L -65 -198 C -12 -198 39 -182 89 -151 C 139 -120 181 -79 217 -29 L 84 462 L 107 462 L 214 71 L 235 -8 C 275 54 312 125 347 206 C 381 287 411 372 437 462 L 461 462 C 427 353 392 258 356 176 C 319 94 281 26 243 -29 C 197 -94 148 -142 97 -173 C 45 -204 -9 -220 -68 -220 Z M 262 524 L 366 649 L 395 649 L 291 524 L 262 524 Z" unicode="ý" />
<glyph horiz-adv-x="507" d="M 46 -220 L 179 724 L 202 724 L 150 357 C 149 347 148 338 146 328 C 144 318 142 309 140 300 C 157 359 182 402 215 430 C 248 457 285 471 327 471 C 375 471 414 453 444 419 C 474 384 490 339 490 285 C 490 203 464 134 414 76 C 363 18 299 -10 221 -10 C 199 -10 179 -8 160 -4 C 140 0 121 6 102 15 L 69 -220 L 46 -220 Z M 221 12 C 292 12 351 38 397 92 C 443 145 467 209 467 285 C 467 337 453 377 425 406 C 397 435 365 450 327 450 C 286 450 246 430 206 391 C 166 351 137 266 119 136 L 106 38 C 124 28 143 22 162 18 C 181 14 201 12 221 12 Z" unicode="þ" />
<glyph horiz-adv-x="447" d="M -68 -220 L -76 -220 L -73 -198 L -65 -198 C -12 -198 39 -182 89 -151 C 139 -120 181 -79 217 -29 L 84 462 L 107 462 L 214 71 L 235 -8 C 275 54 312 125 347 206 C 381 287 411 372 437 462 L 461 462 C 427 353 392 258 356 176 C 319 94 281 26 243 -29 C 197 -94 148 -142 97 -173 C 45 -204 -9 -220 -68 -220 Z M 219 543 L 224 577 L 259 577 L 254 543 L 219 543 Z M 343 543 L 348 577 L 383 577 L 378 543 L 343 543 Z" unicode="ÿ" />
<glyph horiz-adv-x="590" d="M 21 0 L 376 670 L 400 670 L 569 0 L 545 0 L 481 254 L 180 254 L 45 0 L 21 0 Z M 362 598 L 191 275 L 476 275 L 395 598 L 385 643 L 362 598 Z M 300 727 L 303 748 L 497 748 L 494 727 L 300 727 Z" unicode="Ā" />
<glyph horiz-adv-x="498" d="M 233 -9 C 187 -9 150 8 120 44 C 90 79 76 123 76 176 C 76 256 103 326 158 384 C 212 442 279 471 357 471 C 377 471 398 469 418 467 C 438 464 461 459 485 453 L 436 111 C 433 90 431 71 430 53 C 428 35 428 17 428 0 L 404 0 C 404 16 404 34 406 54 C 408 73 410 92 413 111 L 420 159 C 401 103 375 61 341 33 C 307 5 271 -9 233 -9 Z M 233 12 C 271 12 312 32 354 73 C 396 114 425 198 443 325 L 458 436 C 442 440 425 444 409 446 C 393 448 375 450 357 450 C 285 450 224 423 174 369 C 124 315 99 250 99 176 C 99 125 112 85 139 56 C 166 26 197 12 233 12 Z M 259 540 L 262 561 L 456 561 L 453 540 L 259 540 Z" unicode="ā" />
<glyph horiz-adv-x="590" d="M 21 0 L 376 670 L 400 670 L 569 0 L 545 0 L 481 254 L 180 254 L 45 0 L 21 0 Z M 362 598 L 191 275 L 476 275 L 395 598 L 385 643 L 362 598 Z M 396 715 C 362 715 336 726 318 750 C 300 773 293 802 297 836 L 318 836 C 316 805 322 780 335 762 C 347 744 368 735 397 735 C 421 735 442 744 458 762 C 474 780 483 805 486 836 L 507 836 C 503 796 491 765 470 745 C 449 725 424 715 396 715 Z" unicode="Ă" />
<glyph horiz-adv-x="498" d="M 233 -9 C 187 -9 150 8 120 44 C 90 79 76 123 76 176 C 76 256 103 326 158 384 C 212 442 279 471 357 471 C 377 471 398 469 418 467 C 438 464 461 459 485 453 L 436 111 C 433 90 431 71 430 53 C 428 35 428 17 428 0 L 404 0 C 404 16 404 34 406 54 C 408 73 410 92 413 111 L 420 159 C 401 103 375 61 341 33 C 307 5 271 -9 233 -9 Z M 233 12 C 271 12 312 32 354 73 C 396 114 425 198 443 325 L 458 436 C 442 440 425 444 409 446 C 393 448 375 450 357 450 C 285 450 224 423 174 369 C 124 315 99 250 99 176 C 99 125 112 85 139 56 C 166 26 197 12 233 12 Z M 354 516 C 319 516 293 527 276 551 C 258 575 251 603 254 637 L 275 637 C 273 606 279 582 292 564 C 304 546 325 537 354 537 C 378 537 399 546 415 564 C 431 582 441 606 443 637 L 464 637 C 461 597 449 566 428 546 C 407 526 382 516 354 516 Z" unicode="ă" />
<glyph horiz-adv-x="590" d="M 21 0 L 376 670 L 400 670 L 569 0 L 545 0 L 481 254 L 180 254 L 45 0 L 21 0 Z M 362 598 L 191 275 L 476 275 L 395 598 L 385 643 L 362 598 Z M 544 -220 C 506 -220 475 -209 453 -189 C 430 -169 419 -143 419 -112 C 419 -74 432 -43 459 -19 C 486 4 519 17 557 18 L 565 0 C 529 0 500 -10 476 -31 C 452 -52 441 -79 441 -112 C 441 -139 450 -160 470 -176 C 490 -191 515 -199 547 -199 L 544 -220 Z" unicode="Ą" />
<glyph horiz-adv-x="498" d="M 233 -9 C 187 -9 150 8 120 44 C 90 79 76 123 76 176 C 76 256 103 326 158 384 C 212 442 279 471 357 471 C 377 471 398 469 418 467 C 438 464 461 459 485 453 L 436 111 C 433 90 431 71 430 53 C 428 35 428 17 428 0 L 404 0 C 404 16 404 34 406 54 C 408 73 410 92 413 111 L 420 159 C 401 103 375 61 341 33 C 307 5 271 -9 233 -9 Z M 233 12 C 271 12 312 32 354 73 C 396 114 425 198 443 325 L 458 436 C 442 440 425 444 409 446 C 393 448 375 450 357 450 C 285 450 224 423 174 369 C 124 315 99 250 99 176 C 99 125 112 85 139 56 C 166 26 197 12 233 12 Z M 400 -220 C 362 -220 333 -212 314 -198 C 295 -183 286 -161 286 -133 C 286 -107 295 -83 313 -60 C 331 -37 364 -10 414 20 L 424 0 C 376 -29 345 -53 330 -73 C 315 -92 308 -112 308 -133 C 308 -153 316 -169 332 -181 C 348 -193 371 -199 403 -199 L 400 -220 Z" unicode="ą" />
<glyph horiz-adv-x="675" d="M 420 -11 C 322 -11 244 16 187 72 C 130 128 102 199 102 287 C 102 395 138 486 210 559 C 282 632 371 669 477 669 C 517 669 555 664 592 654 C 628 644 665 630 703 610 L 700 585 C 666 605 630 621 594 631 C 557 641 518 647 477 647 C 377 647 294 612 227 544 C 160 475 127 389 127 287 C 127 203 153 137 207 87 C 260 37 331 12 420 12 C 457 12 495 17 533 27 C 571 37 607 52 641 72 L 637 45 C 602 26 566 12 529 3 C 492 -6 456 -11 420 -11 Z M 449 729 L 553 854 L 582 854 L 477 729 L 449 729 Z" unicode="Ć" />
<glyph horiz-adv-x="459" d="M 277 -9 C 216 -9 168 9 132 46 C 96 82 79 132 79 194 C 79 273 102 339 149 392 C 195 444 254 471 326 471 C 354 471 380 467 402 460 C 424 452 448 442 472 429 L 469 405 C 445 420 422 431 399 439 C 375 446 351 450 326 450 C 260 450 206 425 164 377 C 122 328 102 267 102 194 C 102 139 117 95 149 62 C 181 28 223 12 277 12 C 303 12 328 16 352 24 C 376 32 400 44 422 60 L 418 33 C 395 18 372 7 348 1 C 324 -5 301 -9 277 -9 Z M 280 524 L 384 649 L 413 649 L 309 524 L 280 524 Z" unicode="ć" />
<glyph horiz-adv-x="675" d="M 420 -11 C 322 -11 244 16 187 72 C 130 128 102 199 102 287 C 102 395 138 486 210 559 C 282 632 371 669 477 669 C 517 669 555 664 592 654 C 628 644 665 630 703 610 L 700 585 C 666 605 630 621 594 631 C 557 641 518 647 477 647 C 377 647 294 612 227 544 C 160 475 127 389 127 287 C 127 203 153 137 207 87 C 260 37 331 12 420 12 C 457 12 495 17 533 27 C 571 37 607 52 641 72 L 637 45 C 602 26 566 12 529 3 C 492 -6 456 -11 420 -11 Z M 373 729 L 491 848 L 507 848 L 592 729 L 566 729 L 498 824 L 403 729 L 373 729 Z" unicode="Ĉ" />
<glyph horiz-adv-x="459" d="M 277 -9 C 216 -9 168 9 132 46 C 96 82 79 132 79 194 C 79 273 102 339 149 392 C 195 444 254 471 326 471 C 354 471 380 467 402 460 C 424 452 448 442 472 429 L 469 405 C 445 420 422 431 399 439 C 375 446 351 450 326 450 C 260 450 206 425 164 377 C 122 328 102 267 102 194 C 102 139 117 95 149 62 C 181 28 223 12 277 12 C 303 12 328 16 352 24 C 376 32 400 44 422 60 L 418 33 C 395 18 372 7 348 1 C 324 -5 301 -9 277 -9 Z M 206 524 L 324 643 L 340 643 L 425 524 L 398 524 L 330 619 L 236 524 L 206 524 Z" unicode="ĉ" />
<glyph horiz-adv-x="675" d="M 420 -11 C 322 -11 244 16 187 72 C 130 128 102 199 102 287 C 102 395 138 486 210 559 C 282 632 371 669 477 669 C 517 669 555 664 592 654 C 628 644 665 630 703 610 L 700 585 C 666 605 630 621 594 631 C 557 641 518 647 477 647 C 377 647 294 612 227 544 C 160 475 127 389 127 287 C 127 203 153 137 207 87 C 260 37 331 12 420 12 C 457 12 495 17 533 27 C 571 37 607 52 641 72 L 637 45 C 602 26 566 12 529 3 C 492 -6 456 -11 420 -11 Z M 466 729 L 471 766 L 509 766 L 504 729 L 466 729 Z" unicode="Ċ" />
<glyph horiz-adv-x="459" d="M 277 -9 C 216 -9 168 9 132 46 C 96 82 79 132 79 194 C 79 273 102 339 149 392 C 195 444 254 471 326 471 C 354 471 380 467 402 460 C 424 452 448 442 472 429 L 469 405 C 445 420 422 431 399 439 C 375 446 351 450 326 450 C 260 450 206 425 164 377 C 122 328 102 267 102 194 C 102 139 117 95 149 62 C 181 28 223 12 277 12 C 303 12 328 16 352 24 C 376 32 400 44 422 60 L 418 33 C 395 18 372 7 348 1 C 324 -5 301 -9 277 -9 Z M 297 543 L 302 580 L 340 580 L 335 543 L 297 543 Z" unicode="ċ" />
<glyph horiz-adv-x="675" d="M 420 -11 C 322 -11 244 16 187 72 C 130 128 102 199 102 287 C 102 395 138 486 210 559 C 282 632 371 669 477 669 C 517 669 555 664 592 654 C 628 644 665 630 703 610 L 700 585 C 666 605 630 621 594 631 C 557 641 518 647 477 647 C 377 647 294 612 227 544 C 160 475 127 389 127 287 C 127 203 153 137 207 87 C 260 37 331 12 420 12 C 457 12 495 17 533 27 C 571 37 607 52 641 72 L 637 45 C 602 26 566 12 529 3 C 492 -6 456 -11 420 -11 Z M 476 720 L 392 839 L 418 839 L 485 743 L 578 839 L 608 839 L 492 720 L 476 720 Z" unicode="Č" />
<glyph horiz-adv-x="459" d="M 277 -9 C 216 -9 168 9 132 46 C 96 82 79 132 79 194 C 79 273 102 339 149 392 C 195 444 254 471 326 471 C 354 471 380 467 402 460 C 424 452 448 442 472 429 L 469 405 C 445 420 422 431 399 439 C 375 446 351 450 326 450 C 260 450 206 425 164 377 C 122 328 102 267 102 194 C 102 139 117 95 149 62 C 181 28 223 12 277 12 C 303 12 328 16 352 24 C 376 32 400 44 422 60 L 418 33 C 395 18 372 7 348 1 C 324 -5 301 -9 277 -9 Z M 307 524 L 223 643 L 249 643 L 316 547 L 409 643 L 439 643 L 323 524 L 307 524 Z" unicode="č" />
<glyph horiz-adv-x="691" d="M 83 0 L 175 658 L 352 658 C 456 658 537 632 595 580 C 653 528 683 460 683 374 C 683 265 644 175 567 105 C 490 35 387 0 258 0 L 83 0 Z M 110 22 L 259 22 C 381 22 478 55 550 121 C 622 187 658 271 658 374 C 658 454 631 518 577 565 C 523 612 448 636 352 636 L 196 636 L 110 22 Z M 353 715 L 269 834 L 295 834 L 362 738 L 455 834 L 485 834 L 369 715 L 353 715 Z" unicode="Ď" />
<glyph horiz-adv-x="568" d="M 242 -9 C 196 -9 158 8 128 43 C 98 78 83 122 83 176 C 83 256 110 326 164 384 C 218 442 283 471 357 471 C 375 471 394 469 413 465 C 431 461 450 454 469 446 L 509 724 L 532 724 L 446 111 C 443 90 441 71 439 53 C 437 35 437 17 437 0 L 414 0 C 414 16 414 34 416 54 C 417 73 419 92 422 111 L 429 157 C 411 101 384 59 350 32 C 315 4 279 -9 242 -9 Z M 242 12 C 280 12 319 32 361 73 C 403 113 433 197 452 325 L 466 423 C 449 431 431 438 413 443 C 394 447 375 450 356 450 C 289 450 231 423 181 369 C 131 315 106 250 106 176 C 106 124 119 84 147 55 C 175 26 206 12 242 12 Z M 583 565 L 569 577 C 585 595 597 614 605 632 C 613 650 618 668 621 687 L 626 724 L 649 724 L 644 687 C 641 667 635 646 626 626 C 616 606 602 585 583 565 Z" unicode="ď" />
<glyph horiz-adv-x="693" d="M 64 323 L 67 345 L 307 345 L 304 323 L 64 323 Z M 85 0 L 177 658 L 354 658 C 458 658 539 632 597 580 C 655 528 685 460 685 374 C 685 265 646 175 569 105 C 492 35 389 0 260 0 L 85 0 Z M 112 22 L 261 22 C 383 22 480 55 552 121 C 624 187 660 271 660 374 C 660 454 633 518 579 565 C 525 612 450 636 354 636 L 198 636 L 112 22 Z" unicode="Đ" />
<glyph horiz-adv-x="502" d="M 387 598 L 390 619 L 575 619 L 572 598 L 387 598 Z M 242 -9 C 196 -9 158 8 128 43 C 98 78 83 122 83 176 C 83 256 110 326 164 384 C 218 442 283 471 357 471 C 375 471 394 469 413 465 C 431 461 450 454 469 446 L 509 724 L 532 724 L 446 111 C 443 90 441 71 439 53 C 437 35 437 17 437 0 L 414 0 C 414 16 414 34 416 54 C 417 73 419 92 422 111 L 429 157 C 411 101 384 59 350 32 C 315 4 279 -9 242 -9 Z M 242 12 C 280 12 319 32 361 73 C 403 113 433 197 452 325 L 466 423 C 449 431 431 438 413 443 C 394 447 375 450 356 450 C 289 450 231 423 181 369 C 131 315 106 250 106 176 C 106 124 119 84 147 55 C 175 26 206 12 242 12 Z" unicode="đ" />
<glyph horiz-adv-x="478" d="M 83 0 L 175 658 L 493 658 L 490 636 L 195 636 L 154 344 L 442 344 L 439 323 L 151 323 L 109 22 L 424 22 L 421 0 L 83 0 Z M 255 727 L 258 748 L 452 748 L 449 727 L 255 727 Z" unicode="Ē" />
<glyph horiz-adv-x="466" d="M 274 -9 C 213 -9 166 10 132 48 C 98 86 81 137 81 203 C 81 279 103 342 149 394 C 194 445 250 471 316 471 C 356 471 387 461 410 443 C 433 424 445 399 445 368 C 445 322 424 288 382 266 C 340 243 273 229 180 223 L 105 218 C 105 216 105 215 105 213 C 105 211 105 209 105 207 L 105 204 C 105 144 119 97 149 63 C 179 29 220 12 274 12 C 301 12 327 16 351 26 C 375 35 399 50 423 71 L 419 40 C 396 22 373 10 350 2 C 326 -5 301 -9 274 -9 Z M 316 450 C 261 450 214 429 175 388 C 136 347 113 297 107 239 L 179 244 C 264 249 326 261 364 281 C 402 300 421 329 421 367 C 421 392 411 412 393 427 C 374 442 348 450 316 450 Z M 211 540 L 214 561 L 408 561 L 405 540 L 211 540 Z" unicode="ē" />
<glyph horiz-adv-x="478" d="M 83 0 L 175 658 L 493 658 L 490 636 L 195 636 L 154 344 L 442 344 L 439 323 L 151 323 L 109 22 L 424 22 L 421 0 L 83 0 Z M 351 715 C 317 715 291 726 273 750 C 255 773 248 802 252 836 L 273 836 C 271 805 277 780 290 762 C 302 744 323 735 352 735 C 376 735 397 744 413 762 C 429 780 438 805 441 836 L 462 836 C 458 796 446 765 425 745 C 404 725 379 715 351 715 Z" unicode="Ĕ" />
<glyph horiz-adv-x="466" d="M 274 -9 C 213 -9 166 10 132 48 C 98 86 81 137 81 203 C 81 279 103 342 149 394 C 194 445 250 471 316 471 C 356 471 387 461 410 443 C 433 424 445 399 445 368 C 445 322 424 288 382 266 C 340 243 273 229 180 223 L 105 218 C 105 216 105 215 105 213 C 105 211 105 209 105 207 L 105 204 C 105 144 119 97 149 63 C 179 29 220 12 274 12 C 301 12 327 16 351 26 C 375 35 399 50 423 71 L 419 40 C 396 22 373 10 350 2 C 326 -5 301 -9 274 -9 Z M 316 450 C 261 450 214 429 175 388 C 136 347 113 297 107 239 L 179 244 C 264 249 326 261 364 281 C 402 300 421 329 421 367 C 421 392 411 412 393 427 C 374 442 348 450 316 450 Z M 306 516 C 271 516 245 527 228 551 C 210 575 203 603 206 637 L 227 637 C 225 606 231 582 244 564 C 256 546 277 537 306 537 C 330 537 351 546 367 564 C 383 582 393 606 395 637 L 416 637 C 413 597 401 566 380 546 C 359 526 334 516 306 516 Z" unicode="ĕ" />
<glyph horiz-adv-x="478" d="M 83 0 L 175 658 L 493 658 L 490 636 L 195 636 L 154 344 L 442 344 L 439 323 L 151 323 L 109 22 L 424 22 L 421 0 L 83 0 Z M 332 724 L 337 761 L 375 761 L 370 724 L 332 724 Z" unicode="Ė" />
<glyph horiz-adv-x="466" d="M 274 -9 C 213 -9 166 10 132 48 C 98 86 81 137 81 203 C 81 279 103 342 149 394 C 194 445 250 471 316 471 C 356 471 387 461 410 443 C 433 424 445 399 445 368 C 445 322 424 288 382 266 C 340 243 273 229 180 223 L 105 218 C 105 216 105 215 105 213 C 105 211 105 209 105 207 L 105 204 C 105 144 119 97 149 63 C 179 29 220 12 274 12 C 301 12 327 16 351 26 C 375 35 399 50 423 71 L 419 40 C 396 22 373 10 350 2 C 326 -5 301 -9 274 -9 Z M 316 450 C 261 450 214 429 175 388 C 136 347 113 297 107 239 L 179 244 C 264 249 326 261 364 281 C 402 300 421 329 421 367 C 421 392 411 412 393 427 C 374 442 348 450 316 450 Z M 287 543 L 292 580 L 330 580 L 325 543 L 287 543 Z" unicode="ė" />
<glyph horiz-adv-x="478" d="M 83 0 L 175 658 L 493 658 L 490 636 L 195 636 L 154 344 L 442 344 L 439 323 L 151 323 L 109 22 L 424 22 L 421 0 L 83 0 Z M 396 -220 C 358 -220 327 -209 305 -189 C 282 -169 271 -143 271 -112 C 271 -74 284 -43 311 -19 C 338 4 371 17 409 18 L 417 0 C 381 0 352 -10 328 -31 C 304 -52 293 -79 293 -112 C 293 -139 302 -160 322 -176 C 342 -191 367 -199 399 -199 L 396 -220 Z" unicode="Ę" />
<glyph horiz-adv-x="483" d="M 399 -220 C 357 -220 325 -209 301 -187 C 277 -165 265 -137 265 -103 C 265 -84 268 -66 276 -50 C 284 -34 294 -19 307 -7 C 301 -7 296 -8 290 -8 C 284 -8 279 -9 274 -9 C 213 -9 166 10 132 48 C 98 86 81 137 81 203 C 81 279 103 342 149 394 C 194 445 250 471 316 471 C 356 471 387 461 410 443 C 433 424 445 399 445 368 C 445 322 424 288 382 266 C 340 243 273 229 180 223 L 105 218 C 105 216 105 215 105 213 C 105 211 105 209 105 207 L 105 204 C 105 144 119 97 149 63 C 179 29 220 12 274 12 C 301 12 327 16 351 26 C 375 35 399 50 423 71 L 419 40 C 410 33 401 27 392 22 C 383 17 374 12 365 8 C 341 -2 322 -17 308 -37 C 294 -57 287 -79 287 -103 C 287 -133 297 -156 319 -173 C 341 -190 368 -199 402 -199 L 399 -220 Z M 316 450 C 261 450 214 429 175 388 C 136 347 113 297 107 239 L 179 244 C 264 249 326 261 364 281 C 402 300 421 329 421 367 C 421 392 411 412 393 427 C 374 442 348 450 316 450 Z" unicode="ę" />
<glyph horiz-adv-x="478" d="M 83 0 L 175 658 L 493 658 L 490 636 L 195 636 L 154 344 L 442 344 L 439 323 L 151 323 L 109 22 L 424 22 L 421 0 L 83 0 Z M 342 715 L 258 834 L 284 834 L 351 738 L 444 834 L 474 834 L 358 715 L 342 715 Z" unicode="Ě" />
<glyph horiz-adv-x="466" d="M 274 -9 C 213 -9 166 10 132 48 C 98 86 81 137 81 203 C 81 279 103 342 149 394 C 194 445 250 471 316 471 C 356 471 387 461 410 443 C 433 424 445 399 445 368 C 445 322 424 288 382 266 C 340 243 273 229 180 223 L 105 218 C 105 216 105 215 105 213 C 105 211 105 209 105 207 L 105 204 C 105 144 119 97 149 63 C 179 29 220 12 274 12 C 301 12 327 16 351 26 C 375 35 399 50 423 71 L 419 40 C 396 22 373 10 350 2 C 326 -5 301 -9 274 -9 Z M 316 450 C 261 450 214 429 175 388 C 136 347 113 297 107 239 L 179 244 C 264 249 326 261 364 281 C 402 300 421 329 421 367 C 421 392 411 412 393 427 C 374 442 348 450 316 450 Z M 297 524 L 213 643 L 239 643 L 306 547 L 399 643 L 429 643 L 313 524 L 297 524 Z" unicode="ě" />
<glyph horiz-adv-x="684" d="M 413 -11 C 317 -11 242 16 186 72 C 130 127 102 199 102 287 C 102 400 137 492 209 563 C 281 633 369 669 474 669 C 512 669 548 664 583 655 C 618 646 652 633 685 617 L 682 593 C 650 611 616 625 582 634 C 548 642 512 647 474 647 C 373 647 290 613 225 546 C 159 478 127 392 127 287 C 127 203 153 136 207 86 C 260 36 329 11 413 11 C 445 11 478 14 510 21 C 542 27 573 38 602 53 L 634 282 L 486 282 L 489 304 L 661 304 L 624 38 C 590 20 554 7 516 0 C 478 -7 443 -11 413 -11 Z M 370 729 L 488 848 L 504 848 L 589 729 L 563 729 L 495 824 L 400 729 L 370 729 Z" unicode="Ĝ" />
<glyph horiz-adv-x="498" d="M 209 -227 C 177 -227 148 -223 120 -215 C 92 -207 65 -197 40 -183 L 43 -158 C 67 -173 94 -185 122 -193 C 150 -201 179 -205 209 -205 C 254 -205 295 -189 333 -158 C 370 -127 394 -71 405 9 L 426 157 C 408 100 381 58 347 31 C 313 4 277 -9 239 -9 C 193 -9 155 8 125 44 C 95 80 80 124 80 176 C 80 256 107 326 163 384 C 218 442 285 471 363 471 C 383 471 404 469 425 467 C 445 464 467 459 491 453 L 429 7 C 417 -76 390 -136 350 -172 C 310 -208 263 -227 209 -227 Z M 239 12 C 277 12 317 32 359 73 C 401 113 431 197 450 325 L 466 436 C 450 440 433 444 416 446 C 399 448 381 450 363 450 C 291 450 230 423 179 369 C 128 315 103 250 103 176 C 103 125 116 85 144 56 C 172 26 203 12 239 12 Z M 220 524 L 338 643 L 354 643 L 439 524 L 412 524 L 344 619 L 250 524 L 220 524 Z" unicode="ĝ" />
<glyph horiz-adv-x="684" d="M 413 -11 C 317 -11 242 16 186 72 C 130 127 102 199 102 287 C 102 400 137 492 209 563 C 281 633 369 669 474 669 C 512 669 548 664 583 655 C 618 646 652 633 685 617 L 682 593 C 650 611 616 625 582 634 C 548 642 512 647 474 647 C 373 647 290 613 225 546 C 159 478 127 392 127 287 C 127 203 153 136 207 86 C 260 36 329 11 413 11 C 445 11 478 14 510 21 C 542 27 573 38 602 53 L 634 282 L 486 282 L 489 304 L 661 304 L 624 38 C 590 20 554 7 516 0 C 478 -7 443 -11 413 -11 Z M 482 720 C 448 720 422 731 404 755 C 386 778 379 807 383 841 L 404 841 C 402 810 408 785 421 767 C 433 749 454 740 483 740 C 507 740 528 749 544 767 C 560 785 569 810 572 841 L 593 841 C 589 801 577 770 556 750 C 535 730 510 720 482 720 Z" unicode="Ğ" />
<glyph horiz-adv-x="498" d="M 209 -227 C 177 -227 148 -223 120 -215 C 92 -207 65 -197 40 -183 L 43 -158 C 67 -173 94 -185 122 -193 C 150 -201 179 -205 209 -205 C 254 -205 295 -189 333 -158 C 370 -127 394 -71 405 9 L 426 157 C 408 100 381 58 347 31 C 313 4 277 -9 239 -9 C 193 -9 155 8 125 44 C 95 80 80 124 80 176 C 80 256 107 326 163 384 C 218 442 285 471 363 471 C 383 471 404 469 425 467 C 445 464 467 459 491 453 L 429 7 C 417 -76 390 -136 350 -172 C 310 -208 263 -227 209 -227 Z M 239 12 C 277 12 317 32 359 73 C 401 113 431 197 450 325 L 466 436 C 450 440 433 444 416 446 C 399 448 381 450 363 450 C 291 450 230 423 179 369 C 128 315 103 250 103 176 C 103 125 116 85 144 56 C 172 26 203 12 239 12 Z M 330 516 C 295 516 269 527 252 551 C 234 575 227 603 230 637 L 251 637 C 249 606 255 582 268 564 C 280 546 301 537 330 537 C 354 537 375 546 391 564 C 407 582 417 606 419 637 L 440 637 C 437 597 425 566 404 546 C 383 526 358 516 330 516 Z" unicode="ğ" />
<glyph horiz-adv-x="684" d="M 413 -11 C 317 -11 242 16 186 72 C 130 127 102 199 102 287 C 102 400 137 492 209 563 C 281 633 369 669 474 669 C 512 669 548 664 583 655 C 618 646 652 633 685 617 L 682 593 C 650 611 616 625 582 634 C 548 642 512 647 474 647 C 373 647 290 613 225 546 C 159 478 127 392 127 287 C 127 203 153 136 207 86 C 260 36 329 11 413 11 C 445 11 478 14 510 21 C 542 27 573 38 602 53 L 634 282 L 486 282 L 489 304 L 661 304 L 624 38 C 590 20 554 7 516 0 C 478 -7 443 -11 413 -11 Z M 463 729 L 468 766 L 506 766 L 501 729 L 463 729 Z" unicode="Ġ" />
<glyph horiz-adv-x="498" d="M 209 -227 C 177 -227 148 -223 120 -215 C 92 -207 65 -197 40 -183 L 43 -158 C 67 -173 94 -185 122 -193 C 150 -201 179 -205 209 -205 C 254 -205 295 -189 333 -158 C 370 -127 394 -71 405 9 L 426 157 C 408 100 381 58 347 31 C 313 4 277 -9 239 -9 C 193 -9 155 8 125 44 C 95 80 80 124 80 176 C 80 256 107 326 163 384 C 218 442 285 471 363 471 C 383 471 404 469 425 467 C 445 464 467 459 491 453 L 429 7 C 417 -76 390 -136 350 -172 C 310 -208 263 -227 209 -227 Z M 239 12 C 277 12 317 32 359 73 C 401 113 431 197 450 325 L 466 436 C 450 440 433 444 416 446 C 399 448 381 450 363 450 C 291 450 230 423 179 369 C 128 315 103 250 103 176 C 103 125 116 85 144 56 C 172 26 203 12 239 12 Z M 311 543 L 316 580 L 354 580 L 349 543 L 311 543 Z" unicode="ġ" />
>>>>>>> origin/master
<glyph horiz-adv-x="684" d="M 413 -11 C 317 -11 242 16 186 72 C 130 127 102 199 102 287 C 102 400 137 492 209 563 C 281 633 369 669 474 669 C 512 669 548 664 583 655 C 618 646 652 633 685 617 L 682 593 C 650 611 616 625 582 634 C 548 642 512 647 474 647 C 373 647 290 613 225 546 C 159 478 127 392 127 287 C 127 203 153 136 207 86 C 260 36 329 11 413 11 C 445 11 478 14 510 21 C 542 27 573 38 602 53 L 634 282 L 486 282 L 489 304 L 661 304 L 624 38 C 590 20 554 7 516 0 C 478 -7 443 -11 413 -11 Z M 351 -212 L 337 -200 C 353 -181 365 -163 373 -145 C 381 -127 386 -108 389 -90 L 394 -53 L 416 -53 L 411 -90 C 408 -110 402 -130 393 -150 C 384 -170 370 -191 351 -212 Z" unicode="Ģ" />
<glyph horiz-adv-x="498" d="M 209 -227 C 177 -227 148 -223 120 -215 C 92 -207 65 -197 40 -183 L 43 -158 C 67 -173 94 -185 122 -193 C 150 -201 179 -205 209 -205 C 254 -205 295 -189 333 -158 C 370 -127 394 -71 405 9 L 426 157 C 408 100 381 58 347 31 C 313 4 277 -9 239 -9 C 193 -9 155 8 125 44 C 95 80 80 124 80 176 C 80 256 107 326 163 384 C 218 442 285 471 363 471 C 383 471 404 469 425 467 C 445 464 467 459 491 453 L 429 7 C 417 -76 390 -136 350 -172 C 310 -208 263 -227 209 -227 Z M 239 12 C 277 12 317 32 359 73 C 401 113 431 197 450 325 L 466 436 C 450 440 433 444 416 446 C 399 448 381 450 363 450 C 291 450 230 423 179 369 C 128 315 103 250 103 176 C 103 125 116 85 144 56 C 172 26 203 12 239 12 Z M 382 678 L 396 665 C 380 646 368 628 360 610 C 352 592 346 574 344 556 L 339 519 L 316 519 L 321 556 C 323 576 329 596 339 616 C 348 636 362 657 382 678 Z" unicode="ģ" />
<glyph horiz-adv-x="675" d="M 83 0 L 175 658 L 199 658 L 155 349 L 616 349 L 659 658 L 683 658 L 591 0 L 567 0 L 614 327 L 153 327 L 107 0 L 83 0 Z M 327 724 L 445 843 L 461 843 L 546 724 L 520 724 L 452 819 L 357 724 L 327 724 Z" unicode="Ĥ" />
<glyph horiz-adv-x="481" d="M 76 0 L 178 724 L 201 724 L 159 427 C 157 409 154 391 151 371 C 148 351 145 330 141 310 C 159 365 185 406 218 432 C 251 458 286 471 322 471 C 366 471 402 455 428 423 C 454 391 462 348 452 294 L 422 124 C 418 101 415 80 413 62 C 411 43 411 22 411 0 L 388 0 C 388 22 388 43 390 62 C 392 81 394 102 398 124 L 429 294 C 437 343 431 381 409 409 C 387 436 358 450 322 450 C 284 450 245 430 205 391 C 165 352 136 271 120 149 L 99 0 L 76 0 Z M 52 724 L 170 843 L 186 843 L 271 724 L 244 724 L 176 819 L 82 724 L 52 724 Z" unicode="ĥ" />
<glyph horiz-adv-x="667" d="M 80 0 L 149 493 L 97 493 L 100 514 L 152 514 L 172 658 L 196 658 L 176 514 L 631 514 L 651 658 L 675 658 L 655 514 L 707 514 L 704 493 L 652 493 L 583 0 L 559 0 L 605 327 L 150 327 L 104 0 L 80 0 Z M 153 349 L 608 349 L 628 493 L 173 493 L 153 349 Z" unicode="Ħ" />
<glyph horiz-adv-x="481" d="M 90 598 L 93 619 L 276 619 L 273 598 L 90 598 Z M 76 0 L 178 724 L 201 724 L 159 427 C 157 409 154 391 151 371 C 148 351 145 330 141 310 C 159 365 185 406 218 432 C 251 458 286 471 322 471 C 366 471 402 455 428 423 C 454 391 462 348 452 294 L 422 124 C 418 101 415 80 413 62 C 411 43 411 22 411 0 L 388 0 C 388 22 388 43 390 62 C 392 81 394 102 398 124 L 429 294 C 437 343 431 381 409 409 C 387 436 358 450 322 450 C 284 450 245 430 205 391 C 165 352 136 271 120 149 L 99 0 L 76 0 Z" unicode="ħ" />
<glyph horiz-adv-x="191" d="M 83 0 L 175 658 L 199 658 L 107 0 L 83 0 Z M 80 725 L 60 725 C 66 750 76 769 89 781 C 101 793 118 800 138 800 C 150 800 161 797 172 792 C 183 786 196 777 210 765 C 220 755 230 747 238 743 C 246 739 254 737 263 737 C 275 737 286 741 296 749 C 306 757 314 772 320 792 L 341 792 C 333 766 323 746 310 734 C 297 722 281 716 263 716 C 250 716 238 718 227 724 C 215 729 203 738 191 751 C 179 761 169 768 161 772 C 153 776 145 779 137 779 C 123 779 112 774 103 766 C 93 758 86 744 80 725 Z" unicode="Ĩ" />
<glyph horiz-adv-x="182" d="M 84 0 C 84 20 85 41 87 61 C 89 81 91 102 94 124 L 142 462 L 165 462 L 117 124 C 114 102 111 81 109 61 C 107 40 106 20 106 0 L 84 0 Z M 51 532 L 29 532 C 35 557 45 576 58 588 C 71 600 87 607 107 607 C 119 607 130 604 141 599 C 152 593 165 584 179 572 C 189 562 199 554 207 550 C 215 545 224 543 233 543 C 245 543 256 547 266 556 C 275 565 283 579 289 598 L 310 598 C 302 572 292 553 280 541 C 267 528 251 522 233 522 C 220 522 208 524 197 530 C 185 536 173 545 160 557 C 149 567 139 575 131 579 C 123 583 115 586 107 586 C 93 586 82 581 73 572 C 63 563 56 550 51 532 Z" unicode="ĩ" />
<glyph horiz-adv-x="191" d="M 83 0 L 175 658 L 199 658 L 107 0 L 83 0 Z M 101 727 L 104 748 L 298 748 L 295 727 L 101 727 Z" unicode="Ī" />
<glyph horiz-adv-x="182" d="M 84 0 C 84 20 85 41 87 61 C 89 81 91 102 94 124 L 142 462 L 165 462 L 117 124 C 114 102 111 81 109 61 C 107 40 106 20 106 0 L 84 0 Z M 69 540 L 72 561 L 266 561 L 263 540 L 69 540 Z" unicode="ī" />
<glyph horiz-adv-x="191" d="M 83 0 L 175 658 L 199 658 L 107 0 L 83 0 Z M 197 715 C 163 715 137 726 119 750 C 101 773 94 802 98 836 L 119 836 C 117 805 123 780 136 762 C 148 744 169 735 198 735 C 222 735 243 744 259 762 C 275 780 284 805 287 836 L 308 836 C 304 796 292 765 271 745 C 250 725 225 715 197 715 Z" unicode="Ĭ" />
<glyph horiz-adv-x="182" d="M 84 0 C 84 20 85 41 87 61 C 89 81 91 102 94 124 L 142 462 L 165 462 L 117 124 C 114 102 111 81 109 61 C 107 40 106 20 106 0 L 84 0 Z M 164 516 C 129 516 103 527 86 551 C 68 575 61 603 64 637 L 85 637 C 83 606 89 582 102 564 C 114 546 135 537 164 537 C 188 537 209 546 225 564 C 241 582 251 606 253 637 L 274 637 C 271 597 259 566 238 546 C 217 526 192 516 164 516 Z" unicode="ĭ" />
<glyph horiz-adv-x="191" d="M 83 0 L 175 658 L 199 658 L 107 0 L 83 0 Z M 85 -220 C 47 -220 18 -212 0 -198 C -19 -183 -29 -161 -29 -133 C -29 -107 -20 -83 -2 -60 C 16 -37 49 -10 99 20 L 109 0 C 61 -29 30 -53 15 -73 C 0 -92 -7 -112 -7 -133 C -7 -153 1 -169 17 -181 C 33 -193 56 -199 88 -199 L 85 -220 Z" unicode="Į" />
<glyph horiz-adv-x="187" d="M 167 643 L 171 675 L 203 675 L 199 643 L 167 643 Z M 87 0 C 87 22 88 44 90 64 C 92 84 94 104 97 124 L 145 462 L 169 462 L 121 124 C 118 103 116 83 114 63 C 112 43 111 22 111 0 L 87 0 Z" unicode="į" />
<glyph horiz-adv-x="191" d="M 83 0 L 175 658 L 199 658 L 107 0 L 83 0 Z M 178 724 L 183 761 L 221 761 L 216 724 L 178 724 Z" unicode="İ" />
<glyph horiz-adv-x="182" d="M 84 0 C 84 20 85 41 87 61 C 89 81 91 102 94 124 L 142 462 L 165 462 L 117 124 C 114 102 111 81 109 61 C 107 40 106 20 106 0 L 84 0 Z" unicode="ı" />
<glyph horiz-adv-x="201" d="M -34 -209 L -42 -209 L -39 -188 L -31 -188 C 0 -188 24 -178 44 -160 C 64 -142 76 -116 81 -82 L 185 658 L 209 658 L 105 -82 C 99 -124 83 -155 59 -177 C 35 -198 4 -209 -34 -209 Z M 95 724 L 213 843 L 229 843 L 314 724 L 288 724 L 220 819 L 125 724 L 95 724 Z" unicode="Ĵ" />
<glyph horiz-adv-x="174" d="M -52 -209 L -60 -209 L -57 -188 L -49 -188 C -17 -188 8 -176 29 -154 C 49 -132 62 -102 68 -64 L 142 462 L 165 462 L 91 -64 C 84 -108 68 -144 43 -170 C 17 -196 -14 -209 -52 -209 Z M 54 524 L 172 643 L 188 643 L 273 524 L 246 524 L 178 619 L 84 524 L 54 524 Z" unicode="ĵ" />
<glyph horiz-adv-x="500" d="M 83 0 L 175 658 L 199 658 L 155 349 L 523 658 L 555 658 L 173 336 L 472 0 L 441 0 L 152 326 L 106 0 L 83 0 Z M 201 -207 L 187 -195 C 203 -176 215 -158 223 -140 C 231 -122 236 -103 239 -85 L 244 -48 L 266 -48 L 261 -85 C 258 -105 252 -125 243 -145 C 234 -165 220 -186 201 -207 Z" unicode="Ķ" />
<glyph horiz-adv-x="418" d="M 76 0 L 178 724 L 201 724 L 134 249 C 187 281 236 314 282 348 C 327 382 368 420 405 462 L 434 462 C 394 418 351 378 306 343 C 261 307 212 274 158 242 L 392 0 L 360 0 L 132 236 L 99 0 L 76 0 Z M 165 -212 L 151 -200 C 167 -181 179 -163 187 -145 C 195 -127 200 -108 203 -90 L 208 -53 L 231 -53 L 226 -90 C 223 -110 217 -130 208 -150 C 198 -170 184 -191 165 -212 Z" unicode="ķ" />
<glyph horiz-adv-x="443" d="M 83 0 L 175 658 L 199 658 L 110 22 L 425 22 L 422 0 L 83 0 Z M 178 724 L 282 849 L 311 849 L 206 724 L 178 724 Z" unicode="Ĺ" />
<glyph horiz-adv-x="179" d="M 85 0 C 85 22 86 45 88 67 C 90 89 92 109 95 129 L 179 724 L 202 724 L 118 124 C 115 103 113 83 111 63 C 109 43 108 22 108 0 L 85 0 Z M 127 786 L 231 911 L 260 911 L 156 786 L 127 786 Z" unicode="ĺ" />
<glyph horiz-adv-x="443" d="M 83 0 L 175 658 L 199 658 L 110 22 L 425 22 L 422 0 L 83 0 Z M 201 -207 L 187 -195 C 203 -176 215 -158 223 -140 C 231 -122 236 -103 239 -85 L 244 -48 L 266 -48 L 261 -85 C 258 -105 252 -125 243 -145 C 234 -165 220 -186 201 -207 Z" unicode="Ļ" />
<glyph horiz-adv-x="179" d="M 85 0 C 85 22 86 45 88 67 C 90 89 92 109 95 129 L 179 724 L 202 724 L 118 124 C 115 103 113 83 111 63 C 109 43 108 22 108 0 L 85 0 Z M 32 -212 L 18 -200 C 34 -181 46 -163 54 -145 C 62 -127 67 -108 70 -90 L 75 -53 L 98 -53 L 93 -90 C 90 -110 84 -130 75 -150 C 65 -170 51 -191 32 -212 Z" unicode="ļ" />
<glyph horiz-adv-x="443" d="M 83 0 L 175 658 L 199 658 L 110 22 L 425 22 L 422 0 L 83 0 Z M 319 499 L 305 511 C 321 529 333 548 341 566 C 349 584 354 602 357 621 L 362 658 L 385 658 L 380 621 C 377 601 371 580 362 560 C 352 540 338 519 319 499 Z" unicode="Ľ" />
<glyph horiz-adv-x="239" d="M 85 0 C 85 22 86 45 88 67 C 90 89 92 109 95 129 L 179 724 L 202 724 L 118 124 C 115 103 113 83 111 63 C 109 43 108 22 108 0 L 85 0 Z M 255 564 L 241 576 C 257 594 269 613 277 631 C 285 649 290 667 293 686 L 298 723 L 321 723 L 316 686 C 313 666 307 645 298 625 C 288 605 274 584 255 564 Z" unicode="ľ" />
<glyph horiz-adv-x="443" d="M 83 0 L 175 658 L 199 658 L 110 22 L 425 22 L 422 0 L 83 0 Z M 351 326 L 356 360 L 390 360 L 385 326 L 351 326 Z" unicode="Ŀ" />
<glyph horiz-adv-x="179" d="M 85 0 C 85 22 86 45 88 67 C 90 89 92 109 95 129 L 179 724 L 202 724 L 118 124 C 115 103 113 83 111 63 C 109 43 108 22 108 0 L 85 0 Z M 204 334 L 209 368 L 243 368 L 238 334 L 204 334 Z" unicode="ŀ" />
<glyph horiz-adv-x="445" d="M 42 287 L 45 311 L 262 398 L 259 374 L 42 287 Z M 85 0 L 177 658 L 201 658 L 112 22 L 427 22 L 424 0 L 85 0 Z" unicode="Ł" />
<glyph horiz-adv-x="179" d="M 55 334 L 58 358 L 222 404 L 219 380 L 55 334 Z M 85 0 C 85 22 86 45 88 67 C 90 89 92 109 95 129 L 179 724 L 202 724 L 118 124 C 115 103 113 83 111 63 C 109 43 108 22 108 0 L 85 0 Z" unicode="ł" />
<glyph horiz-adv-x="699" d="M 83 0 L 175 658 L 203 658 L 570 71 L 597 29 L 603 71 L 685 658 L 707 658 L 615 0 L 586 0 L 220 587 L 193 630 L 186 587 L 104 0 L 83 0 Z M 405 724 L 509 849 L 538 849 L 433 724 L 405 724 Z" unicode="Ń" />
<glyph horiz-adv-x="479" d="M 83 0 L 133 357 C 135 377 137 396 139 413 C 140 430 141 446 141 462 L 164 462 C 164 446 163 429 162 410 C 160 391 158 373 156 357 L 149 310 C 166 365 190 406 221 432 C 252 458 285 471 320 471 C 368 471 403 454 427 421 C 450 387 457 345 449 294 L 419 124 C 415 101 412 80 411 62 C 410 43 410 22 410 0 L 386 0 C 386 22 386 43 388 62 C 389 81 392 102 396 124 L 426 294 C 434 341 427 379 407 407 C 387 435 358 450 320 450 C 284 450 247 430 209 390 C 171 350 143 269 127 149 L 106 0 L 83 0 Z M 301 524 L 405 649 L 434 649 L 330 524 L 301 524 Z" unicode="ń" />
<glyph horiz-adv-x="699" d="M 83 0 L 175 658 L 203 658 L 570 71 L 597 29 L 603 71 L 685 658 L 707 658 L 615 0 L 586 0 L 220 587 L 193 630 L 186 587 L 104 0 L 83 0 Z M 286 -212 L 272 -200 C 288 -181 300 -163 308 -145 C 316 -127 321 -108 324 -90 L 329 -53 L 351 -53 L 346 -90 C 343 -110 337 -130 328 -150 C 319 -170 305 -191 286 -212 Z" unicode="Ņ" />
<glyph horiz-adv-x="479" d="M 83 0 L 133 357 C 135 377 137 396 139 413 C 140 430 141 446 141 462 L 164 462 C 164 446 163 429 162 410 C 160 391 158 373 156 357 L 149 310 C 166 365 190 406 221 432 C 252 458 285 471 320 471 C 368 471 403 454 427 421 C 450 387 457 345 449 294 L 419 124 C 415 101 412 80 411 62 C 410 43 410 22 410 0 L 386 0 C 386 22 386 43 388 62 C 389 81 392 102 396 124 L 426 294 C 434 341 427 379 407 407 C 387 435 358 450 320 450 C 284 450 247 430 209 390 C 171 350 143 269 127 149 L 106 0 L 83 0 Z M 185 -212 L 171 -200 C 187 -181 199 -163 207 -145 C 215 -127 220 -108 223 -90 L 228 -53 L 251 -53 L 246 -90 C 243 -110 237 -130 228 -150 C 218 -170 204 -191 185 -212 Z" unicode="ņ" />
<glyph horiz-adv-x="699" d="M 83 0 L 175 658 L 203 658 L 570 71 L 597 29 L 603 71 L 685 658 L 707 658 L 615 0 L 586 0 L 220 587 L 193 630 L 186 587 L 104 0 L 83 0 Z M 432 715 L 348 834 L 374 834 L 441 738 L 534 834 L 564 834 L 448 715 L 432 715 Z" unicode="Ň" />
<glyph horiz-adv-x="479" d="M 83 0 L 133 357 C 135 377 137 396 139 413 C 140 430 141 446 141 462 L 164 462 C 164 446 163 429 162 410 C 160 391 158 373 156 357 L 149 310 C 166 365 190 406 221 432 C 252 458 285 471 320 471 C 368 471 403 454 427 421 C 450 387 457 345 449 294 L 419 124 C 415 101 412 80 411 62 C 410 43 410 22 410 0 L 386 0 C 386 22 386 43 388 62 C 389 81 392 102 396 124 L 426 294 C 434 341 427 379 407 407 C 387 435 358 450 320 450 C 284 450 247 430 209 390 C 171 350 143 269 127 149 L 106 0 L 83 0 Z M 328 524 L 244 643 L 270 643 L 337 547 L 430 643 L 460 643 L 344 524 L 328 524 Z" unicode="ň" />
<glyph horiz-adv-x="699" d="M 83 0 L 175 658 L 201 658 L 575 74 L 597 34 L 603 74 L 685 658 L 707 658 L 601 -91 C 595 -129 579 -160 553 -184 C 527 -208 495 -220 458 -220 L 450 -220 L 453 -199 L 461 -199 C 491 -199 517 -189 539 -169 C 561 -149 575 -123 580 -91 L 593 0 L 219 585 L 193 629 L 186 586 L 104 0 L 83 0 Z" unicode="Ŋ" />
<glyph horiz-adv-x="484" d="M 258 -221 L 250 -221 L 253 -199 L 261 -199 C 293 -199 319 -187 341 -164 C 363 -140 376 -109 381 -70 L 432 294 C 439 344 432 382 412 409 C 391 436 362 450 324 450 C 287 450 249 430 210 391 C 170 352 142 271 126 149 L 105 0 L 82 0 L 132 357 C 134 377 136 396 138 413 C 140 430 141 446 141 462 L 164 462 C 164 446 163 429 161 410 C 159 391 157 373 155 357 L 147 310 C 165 365 191 406 223 432 C 255 458 288 471 324 471 C 370 471 405 455 430 423 C 454 391 463 348 456 294 L 405 -70 C 398 -116 381 -153 355 -180 C 328 -207 296 -221 258 -221 Z" unicode="ŋ" />
<glyph horiz-adv-x="766" d="M 398 -12 C 308 -12 237 16 183 73 C 129 130 102 201 102 287 C 102 394 135 485 201 559 C 267 633 353 670 461 670 C 550 670 622 641 676 584 C 730 527 757 456 757 371 C 757 265 723 174 657 100 C 591 25 504 -12 398 -12 Z M 398 10 C 495 10 575 44 638 113 C 700 182 732 268 732 371 C 732 449 707 514 657 568 C 607 621 542 648 461 648 C 363 648 283 613 221 545 C 158 477 127 391 127 287 C 127 209 151 143 201 90 C 250 36 316 10 398 10 Z M 374 732 L 377 753 L 571 753 L 568 732 L 374 732 Z" unicode="Ō" />
<glyph horiz-adv-x="524" d="M 276 -9 C 219 -9 172 9 135 47 C 97 84 79 134 79 197 C 79 274 101 339 145 392 C 189 444 245 471 311 471 C 368 471 415 452 453 415 C 490 377 509 327 509 265 C 509 187 486 122 442 70 C 397 17 342 -9 276 -9 Z M 276 12 C 335 12 385 36 425 84 C 465 132 485 192 485 264 C 485 320 469 365 438 399 C 407 433 365 450 311 450 C 252 450 202 425 162 377 C 122 329 102 269 102 198 C 102 142 117 97 149 63 C 180 29 222 12 276 12 Z M 238 540 L 241 561 L 435 561 L 432 540 L 238 540 Z" unicode="ō" />
<glyph horiz-adv-x="766" d="M 398 -12 C 308 -12 237 16 183 73 C 129 130 102 201 102 287 C 102 394 135 485 201 559 C 267 633 353 670 461 670 C 550 670 622 641 676 584 C 730 527 757 456 757 371 C 757 265 723 174 657 100 C 591 25 504 -12 398 -12 Z M 398 10 C 495 10 575 44 638 113 C 700 182 732 268 732 371 C 732 449 707 514 657 568 C 607 621 542 648 461 648 C 363 648 283 613 221 545 C 158 477 127 391 127 287 C 127 209 151 143 201 90 C 250 36 316 10 398 10 Z M 470 720 C 436 720 410 731 392 755 C 374 778 367 807 371 841 L 392 841 C 390 810 396 785 409 767 C 421 749 442 740 471 740 C 495 740 516 749 532 767 C 548 785 557 810 560 841 L 581 841 C 577 801 565 770 544 750 C 523 730 498 720 470 720 Z" unicode="Ŏ" />
<glyph horiz-adv-x="524" d="M 276 -9 C 219 -9 172 9 135 47 C 97 84 79 134 79 197 C 79 274 101 339 145 392 C 189 444 245 471 311 471 C 368 471 415 452 453 415 C 490 377 509 327 509 265 C 509 187 486 122 442 70 C 397 17 342 -9 276 -9 Z M 276 12 C 335 12 385 36 425 84 C 465 132 485 192 485 264 C 485 320 469 365 438 399 C 407 433 365 450 311 450 C 252 450 202 425 162 377 C 122 329 102 269 102 198 C 102 142 117 97 149 63 C 180 29 222 12 276 12 Z M 333 516 C 298 516 272 527 255 551 C 237 575 230 603 233 637 L 254 637 C 252 606 258 582 271 564 C 283 546 304 537 333 537 C 357 537 378 546 394 564 C 410 582 420 606 422 637 L 443 637 C 440 597 428 566 407 546 C 386 526 361 516 333 516 Z" unicode="ŏ" />
<glyph horiz-adv-x="766" d="M 398 -12 C 308 -12 237 16 183 73 C 129 130 102 201 102 287 C 102 394 135 485 201 559 C 267 633 353 670 461 670 C 550 670 622 641 676 584 C 730 527 757 456 757 371 C 757 265 723 174 657 100 C 591 25 504 -12 398 -12 Z M 398 10 C 495 10 575 44 638 113 C 700 182 732 268 732 371 C 732 449 707 514 657 568 C 607 621 542 648 461 648 C 363 648 283 613 221 545 C 158 477 127 391 127 287 C 127 209 151 143 201 90 C 250 36 316 10 398 10 Z M 395 729 L 493 846 L 521 846 L 423 729 L 395 729 Z M 508 729 L 606 846 L 634 846 L 536 729 L 508 729 Z" unicode="Ő" />
<glyph horiz-adv-x="524" d="M 276 -9 C 219 -9 172 9 135 47 C 97 84 79 134 79 197 C 79 274 101 339 145 392 C 189 444 245 471 311 471 C 368 471 415 452 453 415 C 490 377 509 327 509 265 C 509 187 486 122 442 70 C 397 17 342 -9 276 -9 Z M 276 12 C 335 12 385 36 425 84 C 465 132 485 192 485 264 C 485 320 469 365 438 399 C 407 433 365 450 311 450 C 252 450 202 425 162 377 C 122 329 102 269 102 198 C 102 142 117 97 149 63 C 180 29 222 12 276 12 Z M 260 524 L 358 641 L 386 641 L 288 524 L 260 524 Z M 373 524 L 471 641 L 499 641 L 401 524 L 373 524 Z" unicode="ő" />
<glyph horiz-adv-x="893" d="M 425 0 C 325 0 247 27 189 82 C 131 137 102 205 102 287 C 102 393 138 482 212 552 C 285 622 381 658 501 658 L 908 658 L 905 636 L 609 636 L 569 344 L 857 344 L 854 323 L 566 323 L 524 22 L 839 22 L 836 0 L 425 0 Z M 425 22 L 500 22 L 585 636 L 501 636 C 388 636 297 603 229 537 C 161 471 127 387 127 287 C 127 211 153 148 207 98 C 261 47 333 22 425 22 Z" unicode="Œ" />
<<<<<<< HEAD
<glyph horiz-adv-x="856" d="M 269 -9 C 212 -9 166 9 132 47 C 97 84 80 134 80 197 C 80 274 101 339 143 392 C 185 444 240 471 306 471 C 356 471 397 456 429 428 C 461 400 482 361 491 313 C 508 360 536 398 574 427 C 612 456 656 471 706 471 C 745 471 776 461 799 443 C 822 424 834 399 834 368 C 834 322 813 288 771 266 C 729 243 662 229 569 223 L 494 218 L 494 204 C 494 144 508 97 538 63 C 568 29 609 12 663 12 C 690 12 716 16 740 26 C 764 35 788 50 812 71 L 808 40 C 785 22 762 10 739 2 C 715 -5 690 -9 663 -9 C 611 -9 569 5 537 33 C 505 61 484 100 476 150 C 459 102 432 64 396 35 C 359 5 317 -9 269 -9 Z M 706 450 C 650 450 603 429 564 388 C 525 347 502 297 496 239 L 568 244 C 653 249 715 261 753 281 C 791 300 810 329 810 367 C 810 392 800 412 782 427 C 763 442 738 450 706 450 Z M 271 12 C 330 12 378 36 416 84 C 454 132 473 192 473 264 C 473 320 458 365 430 399 C 401 433 360 450 306 450 C 246 450 198 425 160 377 C 122 329 104 269 104 198 C 104 142 118 97 147 63 C 176 29 217 12 271 12 Z" unicode="œ" />
<glyph horiz-adv-x="486" d="M 280 724 L 384 849 L 413 849 L 308 724 L 280 724 Z M 83 0 L 175 658 L 291 658 C 341 658 382 644 412 616 C 442 588 457 552 457 508 C 457 458 440 416 407 384 C 374 351 332 332 281 327 C 297 321 312 311 324 297 C 336 283 346 266 355 246 L 458 0 L 431 0 L 333 239 C 322 264 308 284 290 300 C 272 315 251 323 226 323 L 152 323 L 107 0 L 83 0 Z M 155 344 L 251 344 C 305 344 348 359 382 391 C 416 422 433 461 433 508 C 433 546 420 576 394 600 C 368 624 334 636 291 636 L 196 636 L 155 344 Z" unicode="Ŕ" />
<glyph horiz-adv-x="307" d="M 207 524 L 311 649 L 340 649 L 236 524 L 207 524 Z M 83 0 L 133 357 C 135 375 137 393 139 410 C 140 427 141 444 141 462 L 164 462 C 164 446 163 430 162 412 C 160 394 158 375 156 357 L 148 312 C 166 371 190 412 218 436 C 246 459 274 471 301 471 C 309 471 317 470 326 469 C 334 468 343 466 352 464 L 349 441 C 341 443 332 445 324 447 C 315 448 307 449 300 449 C 277 449 247 431 210 397 C 172 362 145 279 127 149 L 106 0 L 83 0 Z" unicode="ŕ" />
=======
<glyph horiz-adv-x="856" d="M 269 -9 C 212 -9 166 9 132 47 C 97 84 80 134 80 197 C 80 274 101 339 143 392 C 185 444 240 471 306 471 C 356 471 397 456 429 428 C 461 400 482 361 491 313 C 508 360 536 398 574 427 C 612 456 656 471 706 471 C 745 471 776 461 799 443 C 822 424 834 399 834 368 C 834 322 813 288 771 266 C 729 243 662 229 569 223 L 494 218 C 494 216 494 215 494 213 C 494 211 494 209 494 207 L 494 204 C 494 144 508 97 538 63 C 568 29 609 12 663 12 C 690 12 716 16 740 26 C 764 35 788 50 812 71 L 808 40 C 785 22 762 10 739 2 C 715 -5 690 -9 663 -9 C 611 -9 569 5 537 33 C 505 61 484 100 476 150 C 459 102 432 64 396 35 C 359 5 317 -9 269 -9 Z M 706 450 C 650 450 603 429 564 388 C 525 347 502 297 496 239 L 568 244 C 653 249 715 261 753 281 C 791 300 810 329 810 367 C 810 392 800 412 782 427 C 763 442 738 450 706 450 Z M 271 12 C 330 12 378 36 416 84 C 454 132 473 192 473 264 C 473 320 458 365 430 399 C 401 433 360 450 306 450 C 246 450 198 425 160 377 C 122 329 104 269 104 198 C 104 142 118 97 147 63 C 176 29 217 12 271 12 Z" unicode="œ" />
<glyph horiz-adv-x="486" d="M 83 0 L 175 658 L 291 658 C 341 658 382 644 412 616 C 442 588 457 552 457 508 C 457 458 440 416 407 384 C 374 351 332 332 281 327 C 297 321 312 311 324 297 C 336 283 346 266 355 246 L 458 0 L 431 0 L 333 239 C 322 264 308 284 290 300 C 272 315 251 323 226 323 L 152 323 L 107 0 L 83 0 Z M 155 344 L 251 344 C 305 344 348 359 382 391 C 416 422 433 461 433 508 C 433 546 420 576 394 600 C 368 624 334 636 291 636 L 196 636 L 155 344 Z M 280 724 L 384 849 L 413 849 L 308 724 L 280 724 Z" unicode="Ŕ" />
<glyph horiz-adv-x="307" d="M 83 0 L 133 357 C 135 375 137 393 139 410 C 140 427 141 444 141 462 L 164 462 C 164 446 163 430 162 412 C 160 394 158 375 156 357 L 148 312 C 166 371 190 412 218 436 C 246 459 274 471 301 471 C 309 471 317 470 326 469 C 334 468 343 466 352 464 L 349 441 C 341 443 332 445 324 447 C 315 448 307 449 300 449 C 277 449 247 431 210 397 C 172 362 145 279 127 149 L 106 0 L 83 0 Z M 207 524 L 311 649 L 340 649 L 236 524 L 207 524 Z" unicode="ŕ" />
>>>>>>> origin/master
<glyph horiz-adv-x="486" d="M 83 0 L 175 658 L 291 658 C 341 658 382 644 412 616 C 442 588 457 552 457 508 C 457 458 440 416 407 384 C 374 351 332 332 281 327 C 297 321 312 311 324 297 C 336 283 346 266 355 246 L 458 0 L 431 0 L 333 239 C 322 264 308 284 290 300 C 272 315 251 323 226 323 L 152 323 L 107 0 L 83 0 Z M 155 344 L 251 344 C 305 344 348 359 382 391 C 416 422 433 461 433 508 C 433 546 420 576 394 600 C 368 624 334 636 291 636 L 196 636 L 155 344 Z M 207 -207 L 193 -195 C 209 -176 221 -158 229 -140 C 237 -122 242 -103 245 -85 L 250 -48 L 272 -48 L 267 -85 C 264 -105 258 -125 249 -145 C 240 -165 226 -186 207 -207 Z" unicode="Ŗ" />
<glyph horiz-adv-x="307" d="M 83 0 L 133 357 C 135 375 137 393 139 410 C 140 427 141 444 141 462 L 164 462 C 164 446 163 430 162 412 C 160 394 158 375 156 357 L 148 312 C 166 371 190 412 218 436 C 246 459 274 471 301 471 C 309 471 317 470 326 469 C 334 468 343 466 352 464 L 349 441 C 341 443 332 445 324 447 C 315 448 307 449 300 449 C 277 449 247 431 210 397 C 172 362 145 279 127 149 L 106 0 L 83 0 Z M 33 -212 L 19 -200 C 35 -181 47 -163 55 -145 C 63 -127 68 -108 71 -90 L 76 -53 L 99 -53 L 94 -90 C 91 -110 85 -130 76 -150 C 66 -170 52 -191 33 -212 Z" unicode="ŗ" />
<glyph horiz-adv-x="486" d="M 83 0 L 175 658 L 291 658 C 341 658 382 644 412 616 C 442 588 457 552 457 508 C 457 458 440 416 407 384 C 374 351 332 332 281 327 C 297 321 312 311 324 297 C 336 283 346 266 355 246 L 458 0 L 431 0 L 333 239 C 322 264 308 284 290 300 C 272 315 251 323 226 323 L 152 323 L 107 0 L 83 0 Z M 155 344 L 251 344 C 305 344 348 359 382 391 C 416 422 433 461 433 508 C 433 546 420 576 394 600 C 368 624 334 636 291 636 L 196 636 L 155 344 Z M 307 715 L 223 834 L 249 834 L 316 738 L 409 834 L 439 834 L 323 715 L 307 715 Z" unicode="Ř" />
<glyph horiz-adv-x="307" d="M 83 0 L 133 357 C 135 375 137 393 139 410 C 140 427 141 444 141 462 L 164 462 C 164 446 163 430 162 412 C 160 394 158 375 156 357 L 148 312 C 166 371 190 412 218 436 C 246 459 274 471 301 471 C 309 471 317 470 326 469 C 334 468 343 466 352 464 L 349 441 C 341 443 332 445 324 447 C 315 448 307 449 300 449 C 277 449 247 431 210 397 C 172 362 145 279 127 149 L 106 0 L 83 0 Z M 234 524 L 150 643 L 176 643 L 243 547 L 336 643 L 366 643 L 250 524 L 234 524 Z" unicode="ř" />
<glyph horiz-adv-x="500" d="M 259 -13 C 225 -13 191 -8 159 1 C 126 10 96 23 69 41 L 72 71 C 96 51 125 36 158 25 C 190 14 224 9 259 9 C 305 9 346 23 382 52 C 418 81 436 122 436 174 C 436 206 425 234 404 258 C 383 282 349 305 301 325 L 288 331 C 237 351 201 375 179 402 C 157 428 146 460 146 496 C 146 544 162 585 196 620 C 230 654 277 672 338 672 C 369 672 399 667 428 658 C 457 649 483 636 506 619 L 502 589 C 479 609 454 624 426 634 C 398 644 369 649 338 649 C 289 649 249 634 217 606 C 185 577 170 540 170 496 C 170 465 180 438 200 415 C 220 392 252 371 298 353 L 311 348 C 364 326 402 300 425 272 C 448 244 460 211 460 174 C 460 119 441 74 403 39 C 365 4 317 -13 259 -13 Z M 310 729 L 414 854 L 443 854 L 338 729 L 310 729 Z" unicode="Ś" />
<glyph horiz-adv-x="365" d="M 187 -9 C 165 -9 142 -5 117 2 C 91 9 70 19 53 31 L 56 58 C 72 44 93 33 117 25 C 141 17 165 13 187 13 C 221 13 250 22 274 40 C 297 58 309 83 309 115 C 309 138 301 158 287 176 C 272 194 247 211 211 228 L 197 234 C 164 248 140 265 126 284 C 111 302 104 325 104 352 C 104 386 116 414 142 437 C 168 459 203 471 247 471 C 265 471 286 468 309 462 C 331 456 350 449 366 439 L 363 413 C 348 423 330 432 308 439 C 286 446 265 450 247 450 C 213 450 184 441 161 424 C 138 406 127 383 127 354 C 127 332 133 314 145 298 C 157 282 178 268 207 256 L 221 250 C 261 231 290 211 307 190 C 323 169 332 145 332 117 C 332 81 319 51 293 27 C 267 3 231 -9 187 -9 Z M 207 524 L 311 649 L 340 649 L 236 524 L 207 524 Z" unicode="ś" />
<glyph horiz-adv-x="500" d="M 259 -13 C 225 -13 191 -8 159 1 C 126 10 96 23 69 41 L 72 71 C 96 51 125 36 158 25 C 190 14 224 9 259 9 C 305 9 346 23 382 52 C 418 81 436 122 436 174 C 436 206 425 234 404 258 C 383 282 349 305 301 325 L 288 331 C 237 351 201 375 179 402 C 157 428 146 460 146 496 C 146 544 162 585 196 620 C 230 654 277 672 338 672 C 369 672 399 667 428 658 C 457 649 483 636 506 619 L 502 589 C 479 609 454 624 426 634 C 398 644 369 649 338 649 C 289 649 249 634 217 606 C 185 577 170 540 170 496 C 170 465 180 438 200 415 C 220 392 252 371 298 353 L 311 348 C 364 326 402 300 425 272 C 448 244 460 211 460 174 C 460 119 441 74 403 39 C 365 4 317 -13 259 -13 Z M 234 729 L 352 848 L 368 848 L 453 729 L 427 729 L 359 824 L 264 729 L 234 729 Z" unicode="Ŝ" />
<glyph horiz-adv-x="365" d="M 187 -9 C 165 -9 142 -5 117 2 C 91 9 70 19 53 31 L 56 58 C 72 44 93 33 117 25 C 141 17 165 13 187 13 C 221 13 250 22 274 40 C 297 58 309 83 309 115 C 309 138 301 158 287 176 C 272 194 247 211 211 228 L 197 234 C 164 248 140 265 126 284 C 111 302 104 325 104 352 C 104 386 116 414 142 437 C 168 459 203 471 247 471 C 265 471 286 468 309 462 C 331 456 350 449 366 439 L 363 413 C 348 423 330 432 308 439 C 286 446 265 450 247 450 C 213 450 184 441 161 424 C 138 406 127 383 127 354 C 127 332 133 314 145 298 C 157 282 178 268 207 256 L 221 250 C 261 231 290 211 307 190 C 323 169 332 145 332 117 C 332 81 319 51 293 27 C 267 3 231 -9 187 -9 Z M 133 524 L 251 643 L 267 643 L 352 524 L 325 524 L 257 619 L 163 524 L 133 524 Z" unicode="ŝ" />
<glyph horiz-adv-x="500" d="M 259 -13 C 225 -13 191 -8 159 1 C 126 10 96 23 69 41 L 72 71 C 96 51 125 36 158 25 C 190 14 224 9 259 9 C 305 9 346 23 382 52 C 418 81 436 122 436 174 C 436 206 425 234 404 258 C 383 282 349 305 301 325 L 288 331 C 237 351 201 375 179 402 C 157 428 146 460 146 496 C 146 544 162 585 196 620 C 230 654 277 672 338 672 C 369 672 399 667 428 658 C 457 649 483 636 506 619 L 502 589 C 479 609 454 624 426 634 C 398 644 369 649 338 649 C 289 649 249 634 217 606 C 185 577 170 540 170 496 C 170 465 180 438 200 415 C 220 392 252 371 298 353 L 311 348 C 364 326 402 300 425 272 C 448 244 460 211 460 174 C 460 119 441 74 403 39 C 365 4 317 -13 259 -13 Z M 248 -181 C 238 -181 229 -179 219 -177 C 209 -174 200 -170 193 -166 L 196 -144 C 202 -149 210 -153 220 -157 C 230 -160 239 -162 249 -162 C 265 -162 277 -157 287 -148 C 296 -139 301 -127 301 -113 C 301 -100 296 -89 286 -81 C 276 -72 264 -68 250 -68 L 245 -68 L 248 -48 L 253 -48 C 273 -48 289 -54 302 -66 C 315 -78 322 -93 322 -112 C 322 -132 315 -149 302 -162 C 288 -174 270 -181 248 -181 Z" unicode="Ş" />
<glyph horiz-adv-x="365" d="M 187 -9 C 165 -9 142 -5 117 2 C 91 9 70 19 53 31 L 56 58 C 72 44 93 33 117 25 C 141 17 165 13 187 13 C 221 13 250 22 274 40 C 297 58 309 83 309 115 C 309 138 301 158 287 176 C 272 194 247 211 211 228 L 197 234 C 164 248 140 265 126 284 C 111 302 104 325 104 352 C 104 386 116 414 142 437 C 168 459 203 471 247 471 C 265 471 286 468 309 462 C 331 456 350 449 366 439 L 363 413 C 348 423 330 432 308 439 C 286 446 265 450 247 450 C 213 450 184 441 161 424 C 138 406 127 383 127 354 C 127 332 133 314 145 298 C 157 282 178 268 207 256 L 221 250 C 261 231 290 211 307 190 C 323 169 332 145 332 117 C 332 81 319 51 293 27 C 267 3 231 -9 187 -9 Z M 168 -181 C 158 -181 149 -179 139 -177 C 129 -174 121 -170 113 -166 L 116 -144 C 122 -149 130 -153 140 -157 C 150 -160 159 -162 169 -162 C 185 -162 197 -157 207 -148 C 216 -139 221 -127 221 -113 C 221 -100 216 -89 207 -81 C 198 -72 186 -68 172 -68 L 166 -68 L 168 -48 L 174 -48 C 194 -48 211 -54 224 -66 C 236 -78 243 -93 243 -112 C 243 -132 236 -149 223 -162 C 209 -174 191 -181 168 -181 Z" unicode="ş" />
<glyph horiz-adv-x="500" d="M 259 -13 C 225 -13 191 -8 159 1 C 126 10 96 23 69 41 L 72 71 C 96 51 125 36 158 25 C 190 14 224 9 259 9 C 305 9 346 23 382 52 C 418 81 436 122 436 174 C 436 206 425 234 404 258 C 383 282 349 305 301 325 L 288 331 C 237 351 201 375 179 402 C 157 428 146 460 146 496 C 146 544 162 585 196 620 C 230 654 277 672 338 672 C 369 672 399 667 428 658 C 457 649 483 636 506 619 L 502 589 C 479 609 454 624 426 634 C 398 644 369 649 338 649 C 289 649 249 634 217 606 C 185 577 170 540 170 496 C 170 465 180 438 200 415 C 220 392 252 371 298 353 L 311 348 C 364 326 402 300 425 272 C 448 244 460 211 460 174 C 460 119 441 74 403 39 C 365 4 317 -13 259 -13 Z M 337 720 L 253 839 L 279 839 L 346 743 L 439 839 L 469 839 L 353 720 L 337 720 Z" unicode="Š" />
<glyph horiz-adv-x="365" d="M 187 -9 C 165 -9 142 -5 117 2 C 91 9 70 19 53 31 L 56 58 C 72 44 93 33 117 25 C 141 17 165 13 187 13 C 221 13 250 22 274 40 C 297 58 309 83 309 115 C 309 138 301 158 287 176 C 272 194 247 211 211 228 L 197 234 C 164 248 140 265 126 284 C 111 302 104 325 104 352 C 104 386 116 414 142 437 C 168 459 203 471 247 471 C 265 471 286 468 309 462 C 331 456 350 449 366 439 L 363 413 C 348 423 330 432 308 439 C 286 446 265 450 247 450 C 213 450 184 441 161 424 C 138 406 127 383 127 354 C 127 332 133 314 145 298 C 157 282 178 268 207 256 L 221 250 C 261 231 290 211 307 190 C 323 169 332 145 332 117 C 332 81 319 51 293 27 C 267 3 231 -9 187 -9 Z M 234 524 L 150 643 L 176 643 L 243 547 L 336 643 L 366 643 L 250 524 L 234 524 Z" unicode="š" />
<glyph horiz-adv-x="536" d="M 256 0 L 345 636 L 109 636 L 112 658 L 608 658 L 605 636 L 369 636 L 280 0 L 256 0 Z M 255 -181 C 245 -181 236 -179 226 -177 C 216 -174 207 -170 200 -166 L 203 -144 C 209 -149 217 -153 227 -157 C 237 -160 246 -162 256 -162 C 272 -162 284 -157 294 -148 C 303 -139 308 -127 308 -113 C 308 -100 303 -89 293 -81 C 283 -72 271 -68 257 -68 L 252 -68 L 255 -48 L 260 -48 C 280 -48 296 -54 309 -66 C 322 -78 329 -93 329 -112 C 329 -132 322 -149 309 -162 C 295 -174 277 -181 255 -181 Z" unicode="Ţ" />
<glyph horiz-adv-x="280" d="M 182 -9 C 154 -9 134 0 120 16 C 106 33 102 57 107 89 L 156 440 L 81 440 L 84 462 L 160 462 L 183 624 L 206 624 L 183 462 L 313 462 L 310 440 L 179 440 L 130 89 C 126 63 129 44 139 32 C 148 19 163 13 184 13 C 196 13 209 15 221 19 C 233 23 245 30 258 39 L 255 14 C 243 6 230 1 218 -3 C 206 -7 194 -9 182 -9 Z M 162 -181 C 152 -181 143 -179 133 -177 C 123 -174 115 -170 107 -166 L 110 -144 C 116 -149 124 -153 134 -157 C 144 -160 153 -162 163 -162 C 179 -162 191 -157 201 -148 C 210 -139 215 -127 215 -113 C 215 -100 210 -89 201 -81 C 192 -72 180 -68 166 -68 L 160 -68 L 162 -48 L 168 -48 C 188 -48 205 -54 218 -66 C 230 -78 237 -93 237 -112 C 237 -132 230 -149 217 -162 C 203 -174 185 -181 162 -181 Z" unicode="ţ" />
<<<<<<< HEAD
<glyph horiz-adv-x="536" d="M 361 715 L 277 834 L 303 834 L 370 738 L 463 834 L 493 834 L 377 715 L 361 715 Z M 256 0 L 345 636 L 109 636 L 112 658 L 608 658 L 605 636 L 369 636 L 280 0 L 256 0 Z" unicode="Ť" />
<glyph horiz-adv-x="296" d="M 286 565 L 272 577 C 288 595 300 614 308 632 C 316 650 321 668 324 687 L 329 724 L 352 724 L 347 687 C 344 667 338 646 329 626 C 319 606 305 585 286 565 Z M 182 -9 C 154 -9 134 0 120 16 C 106 33 102 57 107 89 L 156 440 L 81 440 L 84 462 L 160 462 L 183 624 L 206 624 L 183 462 L 313 462 L 310 440 L 179 440 L 130 89 C 126 63 129 44 139 32 C 148 19 163 13 184 13 C 196 13 209 15 221 19 C 233 23 245 30 258 39 L 255 14 C 243 6 230 1 218 -3 C 206 -7 194 -9 182 -9 Z" unicode="ť" />
<glyph horiz-adv-x="536" d="M 256 0 L 306 358 L 166 358 L 169 379 L 309 379 L 345 636 L 109 636 L 112 658 L 608 658 L 605 636 L 369 636 L 333 379 L 475 379 L 472 358 L 330 358 L 280 0 L 256 0 Z" unicode="Ŧ" />
<glyph horiz-adv-x="280" d="M 182 -9 C 154 -9 134 0 120 16 C 106 33 102 57 107 89 L 135 293 L 75 293 L 78 314 L 138 314 L 156 440 L 81 440 L 84 462 L 160 462 L 183 624 L 206 624 L 183 462 L 313 462 L 310 440 L 179 440 L 161 314 L 261 314 L 258 293 L 158 293 L 130 89 C 126 63 129 44 139 32 C 148 19 163 13 184 13 C 196 13 209 15 221 19 C 233 23 245 30 258 39 L 255 14 C 243 6 230 1 218 -3 C 206 -7 194 -9 182 -9 Z" unicode="ŧ" />
<glyph horiz-adv-x="659" d="M 316 725 L 296 725 C 302 750 312 769 325 781 C 337 793 354 800 374 800 C 386 800 397 797 408 792 C 419 786 432 777 446 765 C 456 755 466 747 474 743 C 482 739 490 737 499 737 C 511 737 522 741 532 749 C 542 757 550 772 556 792 L 577 792 C 569 766 559 746 546 734 C 533 722 517 716 499 716 C 486 716 474 718 463 724 C 451 729 439 738 427 751 C 415 761 405 768 397 772 C 389 776 381 779 373 779 C 359 779 348 774 339 766 C 329 758 322 744 316 725 Z M 344 -11 C 260 -11 198 12 158 59 C 118 106 103 169 114 247 L 172 658 L 196 658 L 138 247 C 127 174 140 117 177 75 C 213 33 269 12 344 12 C 408 12 464 33 510 76 C 556 119 584 176 594 247 L 652 658 L 674 658 L 616 247 C 604 167 573 104 523 58 C 473 12 413 -11 344 -11 Z" unicode="Ũ" />
<glyph horiz-adv-x="480" d="M 197 533 L 175 533 C 181 558 191 577 204 589 C 217 601 233 608 253 608 C 265 608 276 605 287 600 C 298 594 311 585 325 573 C 335 563 345 555 353 551 C 361 546 370 544 379 544 C 391 544 402 548 412 557 C 421 566 429 580 435 599 L 456 599 C 448 573 438 554 426 542 C 413 529 397 523 379 523 C 366 523 354 525 343 531 C 331 537 319 546 306 558 C 295 568 285 576 277 580 C 269 584 261 587 253 587 C 239 587 228 582 219 573 C 209 564 202 551 197 533 Z M 227 -11 C 181 -11 145 5 120 38 C 95 70 87 114 96 168 L 125 344 C 129 365 131 385 133 403 C 135 421 136 441 136 462 L 159 462 C 159 441 158 421 156 403 C 154 384 151 364 149 344 L 120 168 C 111 118 117 79 139 52 C 160 24 189 11 227 11 C 262 11 299 30 339 70 C 379 109 407 185 423 298 L 445 462 L 469 462 L 419 111 C 416 90 414 70 412 52 C 410 34 410 16 410 0 L 387 0 C 387 16 387 35 389 55 C 391 75 393 93 396 111 L 403 152 C 385 96 360 54 328 28 C 296 2 262 -11 227 -11 Z" unicode="ũ" />
<glyph horiz-adv-x="659" d="M 337 727 L 340 748 L 534 748 L 531 727 L 337 727 Z M 344 -11 C 260 -11 198 12 158 59 C 118 106 103 169 114 247 L 172 658 L 196 658 L 138 247 C 127 174 140 117 177 75 C 213 33 269 12 344 12 C 408 12 464 33 510 76 C 556 119 584 176 594 247 L 652 658 L 674 658 L 616 247 C 604 167 573 104 523 58 C 473 12 413 -11 344 -11 Z" unicode="Ū" />
<glyph horiz-adv-x="480" d="M 215 541 L 218 562 L 412 562 L 409 541 L 215 541 Z M 227 -11 C 181 -11 145 5 120 38 C 95 70 87 114 96 168 L 125 344 C 129 365 131 385 133 403 C 135 421 136 441 136 462 L 159 462 C 159 441 158 421 156 403 C 154 384 151 364 149 344 L 120 168 C 111 118 117 79 139 52 C 160 24 189 11 227 11 C 262 11 299 30 339 70 C 379 109 407 185 423 298 L 445 462 L 469 462 L 419 111 C 416 90 414 70 412 52 C 410 34 410 16 410 0 L 387 0 C 387 16 387 35 389 55 C 391 75 393 93 396 111 L 403 152 C 385 96 360 54 328 28 C 296 2 262 -11 227 -11 Z" unicode="ū" />
<glyph horiz-adv-x="659" d="M 433 715 C 399 715 373 726 355 750 C 337 773 330 802 334 836 L 355 836 C 353 805 359 780 372 762 C 384 744 405 735 434 735 C 458 735 479 744 495 762 C 511 780 520 805 523 836 L 544 836 C 540 796 528 765 507 745 C 486 725 461 715 433 715 Z M 344 -11 C 260 -11 198 12 158 59 C 118 106 103 169 114 247 L 172 658 L 196 658 L 138 247 C 127 174 140 117 177 75 C 213 33 269 12 344 12 C 408 12 464 33 510 76 C 556 119 584 176 594 247 L 652 658 L 674 658 L 616 247 C 604 167 573 104 523 58 C 473 12 413 -11 344 -11 Z" unicode="Ŭ" />
<glyph horiz-adv-x="480" d="M 310 517 C 275 517 249 528 232 552 C 214 576 207 604 210 638 L 231 638 C 229 607 235 583 248 565 C 260 547 281 538 310 538 C 334 538 355 547 371 565 C 387 583 397 607 399 638 L 420 638 C 417 598 405 567 384 547 C 363 527 338 517 310 517 Z M 227 -11 C 181 -11 145 5 120 38 C 95 70 87 114 96 168 L 125 344 C 129 365 131 385 133 403 C 135 421 136 441 136 462 L 159 462 C 159 441 158 421 156 403 C 154 384 151 364 149 344 L 120 168 C 111 118 117 79 139 52 C 160 24 189 11 227 11 C 262 11 299 30 339 70 C 379 109 407 185 423 298 L 445 462 L 469 462 L 419 111 C 416 90 414 70 412 52 C 410 34 410 16 410 0 L 387 0 C 387 16 387 35 389 55 C 391 75 393 93 396 111 L 403 152 C 385 96 360 54 328 28 C 296 2 262 -11 227 -11 Z" unicode="ŭ" />
<glyph horiz-adv-x="659" d="M 429 652 C 410 652 395 658 383 670 C 371 682 366 696 366 713 C 366 733 372 751 386 765 C 400 779 417 787 438 787 C 456 787 472 781 484 769 C 496 757 502 742 502 725 C 502 704 495 687 481 673 C 467 659 449 652 429 652 Z M 429 671 C 443 671 455 676 465 686 C 475 696 480 709 480 725 C 480 737 476 747 468 755 C 460 763 449 767 437 767 C 423 767 411 761 401 751 C 391 741 387 728 387 714 C 387 701 391 691 399 683 C 407 675 417 671 429 671 Z M 344 -11 C 260 -11 198 12 158 59 C 118 106 103 169 114 247 L 172 658 L 196 658 L 138 247 C 127 174 140 117 177 75 C 213 33 269 12 344 12 C 408 12 464 33 510 76 C 556 119 584 176 594 247 L 652 658 L 674 658 L 616 247 C 604 167 573 104 523 58 C 473 12 413 -11 344 -11 Z" unicode="Ů" />
<glyph horiz-adv-x="480" d="M 311 500 C 292 500 277 506 265 518 C 253 530 247 544 247 562 C 247 582 254 600 268 614 C 282 628 299 636 320 636 C 338 636 353 630 365 618 C 377 606 383 591 383 574 C 383 553 376 535 362 521 C 348 507 331 500 311 500 Z M 311 520 C 325 520 337 525 347 535 C 357 545 362 558 362 573 C 362 585 357 596 349 604 C 341 612 331 616 319 616 C 305 616 293 610 283 600 C 273 590 269 577 269 563 C 269 550 273 540 281 532 C 289 524 299 520 311 520 Z M 227 -11 C 181 -11 145 5 120 38 C 95 70 87 114 96 168 L 125 344 C 129 365 131 385 133 403 C 135 421 136 441 136 462 L 159 462 C 159 441 158 421 156 403 C 154 384 151 364 149 344 L 120 168 C 111 118 117 79 139 52 C 160 24 189 11 227 11 C 262 11 299 30 339 70 C 379 109 407 185 423 298 L 445 462 L 469 462 L 419 111 C 416 90 414 70 412 52 C 410 34 410 16 410 0 L 387 0 C 387 16 387 35 389 55 C 391 75 393 93 396 111 L 403 152 C 385 96 360 54 328 28 C 296 2 262 -11 227 -11 Z" unicode="ů" />
<glyph horiz-adv-x="659" d="M 358 724 L 456 841 L 484 841 L 386 724 L 358 724 Z M 471 724 L 569 841 L 597 841 L 499 724 L 471 724 Z M 344 -11 C 260 -11 198 12 158 59 C 118 106 103 169 114 247 L 172 658 L 196 658 L 138 247 C 127 174 140 117 177 75 C 213 33 269 12 344 12 C 408 12 464 33 510 76 C 556 119 584 176 594 247 L 652 658 L 674 658 L 616 247 C 604 167 573 104 523 58 C 473 12 413 -11 344 -11 Z" unicode="Ű" />
<glyph horiz-adv-x="480" d="M 237 525 L 335 642 L 363 642 L 265 525 L 237 525 Z M 350 525 L 448 642 L 476 642 L 378 525 L 350 525 Z M 227 -11 C 181 -11 145 5 120 38 C 95 70 87 114 96 168 L 125 344 C 129 365 131 385 133 403 C 135 421 136 441 136 462 L 159 462 C 159 441 158 421 156 403 C 154 384 151 364 149 344 L 120 168 C 111 118 117 79 139 52 C 160 24 189 11 227 11 C 262 11 299 30 339 70 C 379 109 407 185 423 298 L 445 462 L 469 462 L 419 111 C 416 90 414 70 412 52 C 410 34 410 16 410 0 L 387 0 C 387 16 387 35 389 55 C 391 75 393 93 396 111 L 403 152 C 385 96 360 54 328 28 C 296 2 262 -11 227 -11 Z" unicode="ű" />
<glyph horiz-adv-x="659" d="M 452 -220 C 411 -220 379 -209 355 -188 C 331 -166 319 -139 319 -107 C 319 -87 323 -69 331 -53 C 339 -36 351 -22 365 -10 C 361 -10 358 -11 354 -11 C 350 -11 347 -11 344 -11 C 260 -11 198 12 158 59 C 118 106 103 169 114 247 L 172 658 L 196 658 L 138 247 C 127 174 140 117 177 75 C 213 33 269 12 344 12 C 408 12 464 33 510 76 C 556 119 584 176 594 247 L 652 658 L 674 658 L 616 247 C 606 183 585 131 551 89 C 517 47 476 18 428 2 C 400 -6 379 -20 364 -40 C 348 -60 341 -82 341 -107 C 341 -135 351 -158 373 -174 C 394 -190 421 -199 455 -199 L 452 -220 Z" unicode="Ų" />
<glyph horiz-adv-x="480" d="M 227 -11 C 181 -11 145 5 120 38 C 95 70 87 114 96 168 L 125 344 C 129 365 131 385 133 403 C 135 421 136 441 136 462 L 159 462 C 159 441 158 421 156 403 C 154 384 151 364 149 344 L 120 168 C 111 118 117 79 139 52 C 160 24 189 11 227 11 C 262 11 299 30 339 70 C 379 109 407 185 423 298 L 445 462 L 469 462 L 419 111 C 416 90 414 70 412 52 C 410 34 410 16 410 0 L 408 0 C 360 -29 329 -53 314 -73 C 299 -92 292 -112 292 -133 C 292 -153 300 -169 316 -181 C 332 -193 355 -199 387 -199 L 384 -220 C 346 -220 317 -212 298 -198 C 279 -183 270 -161 270 -133 C 270 -108 278 -85 295 -63 C 311 -41 342 -15 387 13 C 387 29 388 45 390 62 C 391 79 393 95 396 111 L 403 152 C 385 96 360 54 328 28 C 296 2 262 -11 227 -11 Z" unicode="ų" />
<glyph horiz-adv-x="899" d="M 426 724 L 544 843 L 560 843 L 645 724 L 619 724 L 551 819 L 456 724 L 426 724 Z M 228 0 L 111 658 L 135 658 L 239 72 L 245 36 L 261 71 L 531 658 L 555 658 L 659 71 L 665 37 L 680 71 L 948 658 L 972 658 L 671 0 L 647 0 L 544 588 L 537 622 L 522 588 L 253 0 L 228 0 Z" unicode="Ŵ" />
<glyph horiz-adv-x="701" d="M 315 524 L 433 643 L 449 643 L 534 524 L 507 524 L 439 619 L 345 524 L 315 524 Z M 187 0 L 84 462 L 107 462 L 196 71 L 203 33 C 240 97 276 164 310 236 C 344 308 377 383 407 462 L 433 462 L 516 72 L 525 33 C 561 95 595 162 628 234 C 660 306 689 382 715 462 L 737 462 C 709 375 678 293 643 215 C 607 137 569 66 528 0 L 507 0 L 425 390 L 416 428 C 385 349 352 274 317 202 C 282 130 246 62 208 0 L 187 0 Z" unicode="ŵ" />
<glyph horiz-adv-x="535" d="M 244 724 L 362 843 L 378 843 L 463 724 L 437 724 L 369 819 L 274 724 L 244 724 Z M 254 0 L 297 307 L 109 658 L 136 658 L 294 365 L 313 329 L 343 365 L 581 658 L 609 658 L 321 304 L 278 0 L 254 0 Z" unicode="Ŷ" />
<glyph horiz-adv-x="447" d="M 188 524 L 306 643 L 322 643 L 407 524 L 380 524 L 312 619 L 218 524 L 188 524 Z M 243 -29 C 197 -94 148 -142 97 -173 C 45 -204 -9 -220 -68 -220 L -76 -220 L -73 -198 L -65 -198 C -12 -198 39 -182 89 -151 C 139 -120 181 -79 217 -29 L 84 462 L 107 462 L 214 71 L 234 -8 C 274 54 312 125 347 206 C 381 287 411 372 437 462 L 461 462 C 427 353 392 258 356 176 C 319 94 281 26 243 -29 Z" unicode="ŷ" />
<glyph horiz-adv-x="535" d="M 276 724 L 281 759 L 316 759 L 311 724 L 276 724 Z M 400 724 L 405 759 L 440 759 L 435 724 L 400 724 Z M 254 0 L 297 307 L 109 658 L 136 658 L 294 365 L 313 329 L 343 365 L 581 658 L 609 658 L 321 304 L 278 0 L 254 0 Z" unicode="Ÿ" />
<glyph horiz-adv-x="578" d="M 333 724 L 437 849 L 466 849 L 361 724 L 333 724 Z M 59 0 L 61 14 L 537 597 L 569 636 L 146 636 L 149 658 L 609 658 L 608 646 L 130 61 L 98 22 L 521 22 L 518 0 L 59 0 Z" unicode="Ź" />
<glyph horiz-adv-x="418" d="M 237 524 L 341 649 L 370 649 L 266 524 L 237 524 Z M 47 0 L 48 12 L 373 410 L 397 440 L 112 440 L 115 462 L 435 462 L 434 449 L 111 52 L 86 22 L 376 22 L 373 0 L 47 0 Z" unicode="ź" />
<glyph horiz-adv-x="578" d="M 350 724 L 355 761 L 393 761 L 388 724 L 350 724 Z M 59 0 L 61 14 L 537 597 L 569 636 L 146 636 L 149 658 L 609 658 L 608 646 L 130 61 L 98 22 L 521 22 L 518 0 L 59 0 Z" unicode="Ż" />
<glyph horiz-adv-x="418" d="M 254 543 L 259 580 L 297 580 L 292 543 L 254 543 Z M 47 0 L 48 12 L 373 410 L 397 440 L 112 440 L 115 462 L 435 462 L 434 449 L 111 52 L 86 22 L 376 22 L 373 0 L 47 0 Z" unicode="ż" />
<glyph horiz-adv-x="578" d="M 360 715 L 276 834 L 302 834 L 369 738 L 462 834 L 492 834 L 376 715 L 360 715 Z M 59 0 L 61 14 L 537 597 L 569 636 L 146 636 L 149 658 L 609 658 L 608 646 L 130 61 L 98 22 L 521 22 L 518 0 L 59 0 Z" unicode="Ž" />
<glyph horiz-adv-x="418" d="M 264 524 L 180 643 L 206 643 L 273 547 L 366 643 L 396 643 L 280 524 L 264 524 Z M 47 0 L 48 12 L 373 410 L 397 440 L 112 440 L 115 462 L 435 462 L 434 449 L 111 52 L 86 22 L 376 22 L 373 0 L 47 0 Z" unicode="ž" />
<glyph horiz-adv-x="394" d="M 33 -223 C 17 -223 2 -220 -13 -216 C -29 -212 -43 -205 -57 -197 L -53 -171 C -40 -180 -26 -187 -11 -192 C 3 -197 19 -200 35 -200 C 66 -200 92 -187 112 -163 C 132 -139 145 -107 151 -68 L 221 440 L 90 440 L 93 462 L 224 462 L 240 577 C 247 629 264 668 291 695 C 318 721 352 735 392 735 C 408 735 425 733 441 729 C 457 725 474 718 490 710 L 486 685 C 471 694 455 701 439 706 C 423 710 406 713 390 713 C 355 713 327 700 305 676 C 283 652 270 619 264 577 L 248 462 L 404 462 L 401 440 L 245 440 L 175 -69 C 168 -118 152 -156 126 -183 C 100 -209 69 -223 33 -223 Z" unicode="ƒ" />
<glyph horiz-adv-x="684" d="M 473 720 L 389 839 L 415 839 L 482 743 L 575 839 L 605 839 L 489 720 L 473 720 Z M 413 -11 C 317 -11 242 16 186 72 C 130 127 102 199 102 287 C 102 400 137 492 209 563 C 281 633 369 669 474 669 C 512 669 548 664 583 655 C 618 646 652 633 685 617 L 682 593 C 650 611 616 625 582 634 C 548 642 512 647 474 647 C 373 647 290 613 225 546 C 159 478 127 392 127 287 C 127 203 153 136 207 86 C 260 36 329 11 413 11 C 445 11 478 14 510 21 C 542 27 573 38 602 53 L 634 282 L 486 282 L 489 304 L 661 304 L 624 38 C 590 20 554 7 516 0 C 478 -7 443 -11 413 -11 Z" unicode="Ǧ" />
<glyph horiz-adv-x="498" d="M 321 524 L 237 643 L 263 643 L 330 547 L 423 643 L 453 643 L 337 524 L 321 524 Z M 209 -227 C 177 -227 148 -223 120 -215 C 92 -207 65 -197 40 -183 L 43 -158 C 67 -173 94 -185 122 -193 C 150 -201 179 -205 209 -205 C 254 -205 295 -189 333 -158 C 370 -127 394 -71 405 9 L 426 157 C 408 100 381 58 347 31 C 313 4 277 -9 239 -9 C 193 -9 155 8 125 44 C 95 80 80 124 80 176 C 80 256 107 326 163 384 C 218 442 285 471 363 471 C 383 471 404 469 425 467 C 445 464 467 459 491 453 L 429 7 C 417 -76 390 -136 350 -172 C 310 -208 263 -227 209 -227 Z M 239 12 C 277 12 317 32 359 73 C 401 113 431 197 450 325 L 466 436 C 450 440 433 444 416 446 C 399 448 381 450 363 450 C 291 450 230 423 179 369 C 128 315 103 250 103 176 C 103 125 116 85 144 56 C 172 26 203 12 239 12 Z" unicode="ǧ" />
<glyph horiz-adv-x="590" d="M 382 799 L 448 879 L 476 879 L 409 799 L 382 799 Z M 21 0 L 368 655 C 356 658 347 664 340 674 C 333 684 330 695 330 709 C 330 728 336 744 349 757 C 362 769 378 776 397 776 C 413 776 427 770 439 760 C 450 750 456 736 456 719 C 456 702 451 688 441 676 C 431 664 418 656 404 654 L 569 0 L 545 0 L 482 254 L 180 254 L 45 0 L 21 0 Z M 389 671 C 401 671 412 675 421 684 C 430 693 435 705 435 719 C 435 729 431 738 424 746 C 417 753 408 757 397 757 C 384 757 373 752 364 743 C 355 734 351 723 351 709 C 351 698 354 689 361 682 C 368 674 377 671 389 671 Z M 191 275 L 476 275 L 395 598 L 385 642 L 362 598 L 191 275 Z" unicode="Ǻ" />
<glyph horiz-adv-x="498" d="M 339 627 L 405 707 L 433 707 L 366 627 L 339 627 Z M 349 473 C 331 473 317 478 306 489 C 295 500 290 513 290 529 C 290 548 296 564 309 578 C 322 591 338 598 357 598 C 375 598 389 592 400 581 C 410 570 416 557 416 541 C 416 521 409 505 396 492 C 383 479 367 473 349 473 Z M 349 493 C 361 493 372 497 381 506 C 390 515 395 527 395 541 C 395 551 391 560 384 567 C 376 574 367 578 357 578 C 344 578 333 573 324 564 C 315 555 311 544 311 530 C 311 519 314 510 322 503 C 329 496 338 493 349 493 Z M 233 -9 C 187 -9 150 8 120 44 C 90 79 76 123 76 176 C 76 256 103 326 158 384 C 212 442 279 471 357 471 C 377 471 398 469 418 467 C 438 464 461 459 485 453 L 436 111 C 433 90 431 71 430 53 C 428 35 428 17 428 0 L 404 0 C 404 16 404 34 406 54 C 408 73 410 92 413 111 L 420 159 C 401 103 375 61 341 33 C 307 5 271 -9 233 -9 Z M 233 12 C 271 12 312 32 354 73 C 396 114 425 198 443 325 L 458 436 C 442 440 425 444 409 446 C 393 448 375 450 357 450 C 285 450 224 423 174 369 C 124 315 99 250 99 176 C 99 125 112 85 139 56 C 166 26 197 12 233 12 Z" unicode="ǻ" />
<glyph horiz-adv-x="797" d="M 557 724 L 661 849 L 690 849 L 585 724 L 557 724 Z M 13 0 L 481 658 L 815 658 L 812 636 L 514 636 L 474 344 L 761 344 L 758 323 L 471 323 L 428 22 L 743 22 L 740 0 L 401 0 L 436 248 L 215 248 L 39 0 L 13 0 Z M 230 269 L 439 269 L 490 636 L 465 598 L 230 269 Z" unicode="Ǽ" />
<glyph horiz-adv-x="746" d="M 399 524 L 503 649 L 532 649 L 428 524 L 399 524 Z M 196 -9 C 154 -9 121 2 99 25 C 76 47 65 74 65 106 C 65 150 81 184 113 207 C 145 230 188 243 240 245 L 366 251 L 376 324 C 381 365 374 396 354 417 C 334 438 307 449 273 449 C 246 449 220 445 194 437 C 168 429 143 417 119 401 L 123 429 C 146 442 170 452 196 460 C 221 467 247 471 273 471 C 313 471 344 460 367 438 C 389 416 400 386 400 349 C 420 385 447 415 481 437 C 515 459 553 471 596 471 C 636 471 667 461 690 443 C 713 424 725 399 725 368 C 725 322 704 290 662 270 C 620 250 553 238 460 234 L 386 231 C 385 227 385 223 385 219 C 385 215 385 211 385 207 L 385 204 C 385 144 399 97 429 63 C 459 29 500 12 554 12 C 581 12 607 16 631 26 C 655 35 679 50 703 71 L 699 40 C 676 22 653 10 630 2 C 606 -5 581 -9 554 -9 C 502 -9 460 4 429 32 C 398 60 378 98 370 148 C 359 98 337 60 305 32 C 272 4 236 -9 196 -9 Z M 596 450 C 543 450 497 430 459 392 C 421 354 397 307 389 252 L 459 255 C 544 259 606 269 644 285 C 682 301 701 329 701 367 C 701 392 691 412 673 427 C 654 442 628 450 596 450 Z M 197 12 C 237 12 271 26 301 56 C 330 85 348 125 355 175 L 363 230 L 240 224 C 198 222 162 212 133 193 C 103 174 89 145 89 106 C 89 78 99 55 119 38 C 139 20 165 12 197 12 Z" unicode="ǽ" />
<glyph horiz-adv-x="766" d="M 459 729 L 563 854 L 592 854 L 487 729 L 459 729 Z M 168 -48 L 225 38 C 186 64 156 98 134 142 C 112 185 102 234 102 288 C 102 395 135 486 201 560 C 267 634 353 671 461 671 C 491 671 520 667 547 660 C 573 652 598 642 620 630 L 671 706 L 696 706 L 638 619 C 675 592 704 557 725 514 C 746 471 757 424 757 372 C 757 266 723 175 657 101 C 591 26 504 -11 398 -11 C 368 -11 341 -7 315 -1 C 289 5 265 15 243 27 L 193 -48 L 168 -48 Z M 127 288 C 127 239 136 195 156 155 C 176 115 203 82 239 58 L 607 610 C 586 622 563 632 539 639 C 515 645 489 649 461 649 C 363 649 283 614 221 546 C 158 478 127 392 127 288 Z M 398 11 C 495 11 575 45 638 114 C 700 183 732 269 732 372 C 732 420 722 463 703 503 C 684 542 658 574 624 599 L 256 47 C 276 35 298 26 322 20 C 346 14 371 11 398 11 Z" unicode="Ǿ" />
<glyph horiz-adv-x="524" d="M 299 524 L 403 649 L 432 649 L 328 524 L 299 524 Z M 100 -48 L 152 30 C 129 47 111 70 98 99 C 85 127 79 160 79 197 C 79 274 101 339 145 392 C 189 444 245 471 311 471 C 332 471 352 468 371 463 C 390 457 408 450 424 440 L 470 510 L 495 510 L 440 428 C 461 410 478 387 490 359 C 502 331 509 300 509 265 C 509 187 486 122 442 70 C 397 17 342 -9 276 -9 C 256 -9 236 -6 218 -1 C 200 3 183 10 169 19 L 125 -48 L 100 -48 Z M 102 198 C 102 165 107 136 118 111 C 128 85 144 65 164 49 L 412 422 C 398 430 383 437 366 442 C 349 447 331 450 311 450 C 252 450 202 425 162 377 C 122 329 102 269 102 198 Z M 276 12 C 335 12 385 36 425 84 C 465 132 485 192 485 264 C 485 294 480 322 470 347 C 460 372 446 393 428 409 L 181 37 C 193 29 208 22 224 18 C 240 14 257 12 276 12 Z" unicode="ǿ" />
=======
<glyph horiz-adv-x="536" d="M 256 0 L 345 636 L 109 636 L 112 658 L 608 658 L 605 636 L 369 636 L 280 0 L 256 0 Z M 361 715 L 277 834 L 303 834 L 370 738 L 463 834 L 493 834 L 377 715 L 361 715 Z" unicode="Ť" />
<glyph horiz-adv-x="296" d="M 182 -9 C 154 -9 134 0 120 16 C 106 33 102 57 107 89 L 156 440 L 81 440 L 84 462 L 160 462 L 183 624 L 206 624 L 183 462 L 313 462 L 310 440 L 179 440 L 130 89 C 126 63 129 44 139 32 C 148 19 163 13 184 13 C 196 13 209 15 221 19 C 233 23 245 30 258 39 L 255 14 C 243 6 230 1 218 -3 C 206 -7 194 -9 182 -9 Z M 286 565 L 272 577 C 288 595 300 614 308 632 C 316 650 321 668 324 687 L 329 724 L 352 724 L 347 687 C 344 667 338 646 329 626 C 319 606 305 585 286 565 Z" unicode="ť" />
<glyph horiz-adv-x="536" d="M 166 358 L 169 379 L 475 379 L 472 358 L 166 358 Z M 256 0 L 345 636 L 109 636 L 112 658 L 608 658 L 605 636 L 369 636 L 280 0 L 256 0 Z" unicode="Ŧ" />
<glyph horiz-adv-x="280" d="M 75 293 L 78 314 L 261 314 L 258 293 L 75 293 Z M 182 -9 C 154 -9 134 0 120 16 C 106 33 102 57 107 89 L 156 440 L 81 440 L 84 462 L 160 462 L 183 624 L 206 624 L 183 462 L 313 462 L 310 440 L 179 440 L 130 89 C 126 63 129 44 139 32 C 148 19 163 13 184 13 C 196 13 209 15 221 19 C 233 23 245 30 258 39 L 255 14 C 243 6 230 1 218 -3 C 206 -7 194 -9 182 -9 Z" unicode="ŧ" />
<glyph horiz-adv-x="659" d="M 344 -11 C 260 -11 198 12 158 59 C 118 106 103 169 114 247 L 172 658 L 196 658 L 138 247 C 127 174 140 117 177 75 C 213 33 269 12 344 12 C 408 12 464 33 510 76 C 556 119 584 176 594 247 L 652 658 L 674 658 L 616 247 C 604 167 573 104 523 58 C 473 12 413 -11 344 -11 Z M 316 725 L 296 725 C 302 750 312 769 325 781 C 337 793 354 800 374 800 C 386 800 397 797 408 792 C 419 786 432 777 446 765 C 456 755 466 747 474 743 C 482 739 490 737 499 737 C 511 737 522 741 532 749 C 542 757 550 772 556 792 L 577 792 C 569 766 559 746 546 734 C 533 722 517 716 499 716 C 486 716 474 718 463 724 C 451 729 439 738 427 751 C 415 761 405 768 397 772 C 389 776 381 779 373 779 C 359 779 348 774 339 766 C 329 758 322 744 316 725 Z" unicode="Ũ" />
<glyph horiz-adv-x="480" d="M 227 -11 C 181 -11 145 5 120 38 C 95 70 87 114 96 168 L 125 344 C 129 365 131 385 133 403 C 135 421 136 441 136 462 L 159 462 C 159 441 158 421 156 403 C 154 384 151 364 149 344 L 120 168 C 111 118 117 79 139 52 C 160 24 189 11 227 11 C 262 11 299 30 339 70 C 379 109 407 185 423 298 L 445 462 L 469 462 L 419 111 C 416 90 414 70 412 52 C 410 34 410 16 410 0 L 387 0 C 387 16 387 35 389 55 C 391 75 393 93 396 111 L 403 152 C 385 96 360 54 328 28 C 296 2 262 -11 227 -11 Z M 197 533 L 175 533 C 181 558 191 577 204 589 C 217 601 233 608 253 608 C 265 608 276 605 287 600 C 298 594 311 585 325 573 C 335 563 345 555 353 551 C 361 546 370 544 379 544 C 391 544 402 548 412 557 C 421 566 429 580 435 599 L 456 599 C 448 573 438 554 426 542 C 413 529 397 523 379 523 C 366 523 354 525 343 531 C 331 537 319 546 306 558 C 295 568 285 576 277 580 C 269 584 261 587 253 587 C 239 587 228 582 219 573 C 209 564 202 551 197 533 Z" unicode="ũ" />
<glyph horiz-adv-x="659" d="M 344 -11 C 260 -11 198 12 158 59 C 118 106 103 169 114 247 L 172 658 L 196 658 L 138 247 C 127 174 140 117 177 75 C 213 33 269 12 344 12 C 408 12 464 33 510 76 C 556 119 584 176 594 247 L 652 658 L 674 658 L 616 247 C 604 167 573 104 523 58 C 473 12 413 -11 344 -11 Z M 337 727 L 340 748 L 534 748 L 531 727 L 337 727 Z" unicode="Ū" />
<glyph horiz-adv-x="480" d="M 227 -11 C 181 -11 145 5 120 38 C 95 70 87 114 96 168 L 125 344 C 129 365 131 385 133 403 C 135 421 136 441 136 462 L 159 462 C 159 441 158 421 156 403 C 154 384 151 364 149 344 L 120 168 C 111 118 117 79 139 52 C 160 24 189 11 227 11 C 262 11 299 30 339 70 C 379 109 407 185 423 298 L 445 462 L 469 462 L 419 111 C 416 90 414 70 412 52 C 410 34 410 16 410 0 L 387 0 C 387 16 387 35 389 55 C 391 75 393 93 396 111 L 403 152 C 385 96 360 54 328 28 C 296 2 262 -11 227 -11 Z M 215 541 L 218 562 L 412 562 L 409 541 L 215 541 Z" unicode="ū" />
<glyph horiz-adv-x="659" d="M 344 -11 C 260 -11 198 12 158 59 C 118 106 103 169 114 247 L 172 658 L 196 658 L 138 247 C 127 174 140 117 177 75 C 213 33 269 12 344 12 C 408 12 464 33 510 76 C 556 119 584 176 594 247 L 652 658 L 674 658 L 616 247 C 604 167 573 104 523 58 C 473 12 413 -11 344 -11 Z M 433 715 C 399 715 373 726 355 750 C 337 773 330 802 334 836 L 355 836 C 353 805 359 780 372 762 C 384 744 405 735 434 735 C 458 735 479 744 495 762 C 511 780 520 805 523 836 L 544 836 C 540 796 528 765 507 745 C 486 725 461 715 433 715 Z" unicode="Ŭ" />
<glyph horiz-adv-x="480" d="M 227 -11 C 181 -11 145 5 120 38 C 95 70 87 114 96 168 L 125 344 C 129 365 131 385 133 403 C 135 421 136 441 136 462 L 159 462 C 159 441 158 421 156 403 C 154 384 151 364 149 344 L 120 168 C 111 118 117 79 139 52 C 160 24 189 11 227 11 C 262 11 299 30 339 70 C 379 109 407 185 423 298 L 445 462 L 469 462 L 419 111 C 416 90 414 70 412 52 C 410 34 410 16 410 0 L 387 0 C 387 16 387 35 389 55 C 391 75 393 93 396 111 L 403 152 C 385 96 360 54 328 28 C 296 2 262 -11 227 -11 Z M 310 517 C 275 517 249 528 232 552 C 214 576 207 604 210 638 L 231 638 C 229 607 235 583 248 565 C 260 547 281 538 310 538 C 334 538 355 547 371 565 C 387 583 397 607 399 638 L 420 638 C 417 598 405 567 384 547 C 363 527 338 517 310 517 Z" unicode="ŭ" />
<glyph horiz-adv-x="659" d="M 344 -11 C 260 -11 198 12 158 59 C 118 106 103 169 114 247 L 172 658 L 196 658 L 138 247 C 127 174 140 117 177 75 C 213 33 269 12 344 12 C 408 12 464 33 510 76 C 556 119 584 176 594 247 L 652 658 L 674 658 L 616 247 C 604 167 573 104 523 58 C 473 12 413 -11 344 -11 Z M 429 652 C 410 652 395 658 383 670 C 371 682 366 696 366 713 C 366 733 372 751 386 765 C 400 779 417 787 438 787 C 456 787 472 781 484 769 C 496 757 502 742 502 725 C 502 704 495 687 481 673 C 467 659 449 652 429 652 Z M 429 671 C 443 671 455 676 465 686 C 475 696 480 709 480 725 C 480 737 476 747 468 755 C 460 763 449 767 437 767 C 423 767 411 761 401 751 C 391 741 387 728 387 714 C 387 701 391 691 399 683 C 407 675 417 671 429 671 Z" unicode="Ů" />
<glyph horiz-adv-x="480" d="M 227 -11 C 181 -11 145 5 120 38 C 95 70 87 114 96 168 L 125 344 C 129 365 131 385 133 403 C 135 421 136 441 136 462 L 159 462 C 159 441 158 421 156 403 C 154 384 151 364 149 344 L 120 168 C 111 118 117 79 139 52 C 160 24 189 11 227 11 C 262 11 299 30 339 70 C 379 109 407 185 423 298 L 445 462 L 469 462 L 419 111 C 416 90 414 70 412 52 C 410 34 410 16 410 0 L 387 0 C 387 16 387 35 389 55 C 391 75 393 93 396 111 L 403 152 C 385 96 360 54 328 28 C 296 2 262 -11 227 -11 Z M 312 501 C 293 501 278 507 266 519 C 254 531 248 545 248 563 C 248 583 255 601 269 615 C 283 629 300 637 321 637 C 339 637 354 631 366 619 C 378 607 384 592 384 575 C 384 554 377 536 363 522 C 349 508 332 501 312 501 Z M 312 521 C 326 521 338 526 348 536 C 358 546 363 559 363 574 C 363 586 358 597 350 605 C 342 613 332 617 320 617 C 306 617 294 611 284 601 C 274 591 270 578 270 564 C 270 551 274 541 282 533 C 290 525 300 521 312 521 Z" unicode="ů" />
<glyph horiz-adv-x="659" d="M 344 -11 C 260 -11 198 12 158 59 C 118 106 103 169 114 247 L 172 658 L 196 658 L 138 247 C 127 174 140 117 177 75 C 213 33 269 12 344 12 C 408 12 464 33 510 76 C 556 119 584 176 594 247 L 652 658 L 674 658 L 616 247 C 604 167 573 104 523 58 C 473 12 413 -11 344 -11 Z M 358 724 L 456 841 L 484 841 L 386 724 L 358 724 Z M 471 724 L 569 841 L 597 841 L 499 724 L 471 724 Z" unicode="Ű" />
<glyph horiz-adv-x="480" d="M 227 -11 C 181 -11 145 5 120 38 C 95 70 87 114 96 168 L 125 344 C 129 365 131 385 133 403 C 135 421 136 441 136 462 L 159 462 C 159 441 158 421 156 403 C 154 384 151 364 149 344 L 120 168 C 111 118 117 79 139 52 C 160 24 189 11 227 11 C 262 11 299 30 339 70 C 379 109 407 185 423 298 L 445 462 L 469 462 L 419 111 C 416 90 414 70 412 52 C 410 34 410 16 410 0 L 387 0 C 387 16 387 35 389 55 C 391 75 393 93 396 111 L 403 152 C 385 96 360 54 328 28 C 296 2 262 -11 227 -11 Z M 237 525 L 335 642 L 363 642 L 265 525 L 237 525 Z M 350 525 L 448 642 L 476 642 L 378 525 L 350 525 Z" unicode="ű" />
<glyph horiz-adv-x="659" d="M 452 -220 C 411 -220 379 -209 355 -188 C 331 -166 319 -139 319 -107 C 319 -87 323 -69 331 -53 C 339 -36 351 -22 365 -10 C 361 -10 358 -11 354 -11 C 350 -11 347 -11 344 -11 C 260 -11 198 12 158 59 C 118 106 103 169 114 247 L 172 658 L 196 658 L 138 247 C 127 174 140 117 177 75 C 213 33 269 12 344 12 C 408 12 464 33 510 76 C 556 119 584 176 594 247 L 652 658 L 674 658 L 616 247 C 606 183 585 131 551 89 C 517 47 476 18 428 2 C 400 -6 379 -20 364 -40 C 348 -60 341 -82 341 -107 C 341 -135 351 -158 373 -174 C 394 -190 421 -199 455 -199 L 452 -220 Z" unicode="Ų" />
<glyph horiz-adv-x="480" d="M 227 -11 C 181 -11 145 5 120 38 C 95 70 87 114 96 168 L 125 344 C 129 365 131 385 133 403 C 135 421 136 441 136 462 L 159 462 C 159 441 158 421 156 403 C 154 384 151 364 149 344 L 120 168 C 111 118 117 79 139 52 C 160 24 189 11 227 11 C 262 11 299 30 339 70 C 379 109 407 185 423 298 L 445 462 L 469 462 L 419 111 C 416 90 414 70 412 52 C 410 34 410 16 410 0 L 387 0 C 387 16 387 35 389 55 C 391 75 393 93 396 111 L 403 152 C 385 96 360 54 328 28 C 296 2 262 -11 227 -11 Z M 384 -220 C 346 -220 317 -212 298 -198 C 279 -183 270 -161 270 -133 C 270 -107 279 -83 297 -60 C 315 -37 348 -10 398 20 L 408 0 C 360 -29 329 -53 314 -73 C 299 -92 292 -112 292 -133 C 292 -153 300 -169 316 -181 C 332 -193 355 -199 387 -199 L 384 -220 Z" unicode="ų" />
<glyph horiz-adv-x="899" d="M 228 0 L 111 658 L 135 658 L 239 72 L 245 36 L 261 71 L 531 658 L 555 658 L 659 71 L 665 37 L 680 71 L 948 658 L 972 658 L 671 0 L 647 0 L 544 588 L 537 622 L 522 588 L 253 0 L 228 0 Z M 426 724 L 544 843 L 560 843 L 645 724 L 619 724 L 551 819 L 456 724 L 426 724 Z" unicode="Ŵ" />
<glyph horiz-adv-x="701" d="M 187 0 L 84 462 L 107 462 L 196 71 L 203 33 C 240 97 276 164 310 236 C 344 308 377 383 407 462 L 433 462 L 516 72 L 525 33 C 561 95 595 162 628 234 C 660 306 689 382 715 462 L 737 462 C 709 375 678 293 643 215 C 607 137 569 66 528 0 L 507 0 L 425 390 L 416 428 C 385 349 352 274 317 202 C 282 130 246 62 208 0 L 187 0 Z M 315 524 L 433 643 L 449 643 L 534 524 L 507 524 L 439 619 L 345 524 L 315 524 Z" unicode="ŵ" />
<glyph horiz-adv-x="535" d="M 254 0 L 297 307 L 109 658 L 136 658 L 294 365 L 313 329 L 343 365 L 581 658 L 609 658 L 321 304 L 278 0 L 254 0 Z M 244 724 L 362 843 L 378 843 L 463 724 L 437 724 L 369 819 L 274 724 L 244 724 Z" unicode="Ŷ" />
<glyph horiz-adv-x="447" d="M -68 -220 L -76 -220 L -73 -198 L -65 -198 C -12 -198 39 -182 89 -151 C 139 -120 181 -79 217 -29 L 84 462 L 107 462 L 214 71 L 235 -8 C 275 54 312 125 347 206 C 381 287 411 372 437 462 L 461 462 C 427 353 392 258 356 176 C 319 94 281 26 243 -29 C 197 -94 148 -142 97 -173 C 45 -204 -9 -220 -68 -220 Z M 188 524 L 306 643 L 322 643 L 407 524 L 380 524 L 312 619 L 218 524 L 188 524 Z" unicode="ŷ" />
<glyph horiz-adv-x="535" d="M 254 0 L 297 307 L 109 658 L 136 658 L 294 365 L 313 329 L 343 365 L 581 658 L 609 658 L 321 304 L 278 0 L 254 0 Z M 276 724 L 281 759 L 316 759 L 311 724 L 276 724 Z M 400 724 L 405 759 L 440 759 L 435 724 L 400 724 Z" unicode="Ÿ" />
<glyph horiz-adv-x="578" d="M 59 0 L 61 14 L 537 597 L 569 636 L 146 636 L 149 658 L 609 658 L 608 646 L 130 61 L 98 22 L 521 22 L 518 0 L 59 0 Z M 333 724 L 437 849 L 466 849 L 361 724 L 333 724 Z" unicode="Ź" />
<glyph horiz-adv-x="418" d="M 47 0 L 48 12 L 373 410 L 397 440 L 112 440 L 115 462 L 435 462 L 434 449 L 111 52 L 86 22 L 376 22 L 373 0 L 47 0 Z M 237 524 L 341 649 L 370 649 L 266 524 L 237 524 Z" unicode="ź" />
<glyph horiz-adv-x="578" d="M 59 0 L 61 14 L 537 597 L 569 636 L 146 636 L 149 658 L 609 658 L 608 646 L 130 61 L 98 22 L 521 22 L 518 0 L 59 0 Z M 350 724 L 355 761 L 393 761 L 388 724 L 350 724 Z" unicode="Ż" />
<glyph horiz-adv-x="418" d="M 47 0 L 48 12 L 373 410 L 397 440 L 112 440 L 115 462 L 435 462 L 434 449 L 111 52 L 86 22 L 376 22 L 373 0 L 47 0 Z M 254 543 L 259 580 L 297 580 L 292 543 L 254 543 Z" unicode="ż" />
<glyph horiz-adv-x="578" d="M 59 0 L 61 14 L 537 597 L 569 636 L 146 636 L 149 658 L 609 658 L 608 646 L 130 61 L 98 22 L 521 22 L 518 0 L 59 0 Z M 360 715 L 276 834 L 302 834 L 369 738 L 462 834 L 492 834 L 376 715 L 360 715 Z" unicode="Ž" />
<glyph horiz-adv-x="418" d="M 47 0 L 48 12 L 373 410 L 397 440 L 112 440 L 115 462 L 435 462 L 434 449 L 111 52 L 86 22 L 376 22 L 373 0 L 47 0 Z M 264 524 L 180 643 L 206 643 L 273 547 L 366 643 L 396 643 L 280 524 L 264 524 Z" unicode="ž" />
<glyph horiz-adv-x="394" d="M 33 -223 C 17 -223 2 -220 -13 -216 C -29 -212 -43 -205 -57 -197 L -53 -171 C -40 -180 -26 -187 -11 -192 C 3 -197 19 -200 35 -200 C 66 -200 92 -187 112 -163 C 132 -139 145 -107 151 -68 L 221 440 L 90 440 L 93 462 L 224 462 L 240 577 C 247 629 264 668 291 695 C 318 721 352 735 392 735 C 408 735 425 733 441 729 C 457 725 474 718 490 710 L 486 685 C 471 694 455 701 439 706 C 423 710 406 713 390 713 C 355 713 327 700 305 676 C 283 652 270 619 264 577 L 248 462 L 404 462 L 401 440 L 245 440 L 175 -69 C 168 -118 152 -156 126 -183 C 100 -209 69 -223 33 -223 Z" unicode="ƒ" />
<glyph horiz-adv-x="684" d="M 413 -11 C 317 -11 242 16 186 72 C 130 127 102 199 102 287 C 102 400 137 492 209 563 C 281 633 369 669 474 669 C 512 669 548 664 583 655 C 618 646 652 633 685 617 L 682 593 C 650 611 616 625 582 634 C 548 642 512 647 474 647 C 373 647 290 613 225 546 C 159 478 127 392 127 287 C 127 203 153 136 207 86 C 260 36 329 11 413 11 C 445 11 478 14 510 21 C 542 27 573 38 602 53 L 634 282 L 486 282 L 489 304 L 661 304 L 624 38 C 590 20 554 7 516 0 C 478 -7 443 -11 413 -11 Z M 473 720 L 389 839 L 415 839 L 482 743 L 575 839 L 605 839 L 489 720 L 473 720 Z" unicode="Ǧ" />
<glyph horiz-adv-x="498" d="M 209 -227 C 177 -227 148 -223 120 -215 C 92 -207 65 -197 40 -183 L 43 -158 C 67 -173 94 -185 122 -193 C 150 -201 179 -205 209 -205 C 254 -205 295 -189 333 -158 C 370 -127 394 -71 405 9 L 426 157 C 408 100 381 58 347 31 C 313 4 277 -9 239 -9 C 193 -9 155 8 125 44 C 95 80 80 124 80 176 C 80 256 107 326 163 384 C 218 442 285 471 363 471 C 383 471 404 469 425 467 C 445 464 467 459 491 453 L 429 7 C 417 -76 390 -136 350 -172 C 310 -208 263 -227 209 -227 Z M 239 12 C 277 12 317 32 359 73 C 401 113 431 197 450 325 L 466 436 C 450 440 433 444 416 446 C 399 448 381 450 363 450 C 291 450 230 423 179 369 C 128 315 103 250 103 176 C 103 125 116 85 144 56 C 172 26 203 12 239 12 Z M 321 524 L 237 643 L 263 643 L 330 547 L 423 643 L 453 643 L 337 524 L 321 524 Z" unicode="ǧ" />
</font>
</defs>
</svg>
