<?xml version="1.0" encoding="utf-8" ?><svg version="1.1" xmlns = 'http://www.w3.org/2000/svg'><defs><font id='web' horiz-adv-x="1000">
<font-face font-family="web" descent="-268" cap-height="658" units-per-em="1000" bbox="-167,-328,1236,997" x-height="466" ascent="732" />
<missing-glyph horiz-adv-x="500" d="M 50 -268 L 450 -268 L 450 732 L 50 732 L 50 -268 Z M 100 -218 L 100 682 L 400 682 L 400 -218 L 100 -218 Z" /><glyph horiz-adv-x="200" d="" unicode=" " />
<glyph horiz-adv-x="213" d="M 94 190 L 166 708 L 245 708 L 173 190 L 94 190 Z M 64 0 L 76 84 L 161 84 L 148 0 L 64 0 Z" unicode="!" />
<glyph horiz-adv-x="315" d="M 132 509 L 162 720 L 232 720 L 202 509 L 132 509 Z M 257 509 L 286 720 L 357 720 L 327 509 L 257 509 Z" unicode="&#x22;" />
<glyph horiz-adv-x="558" d="M 60 103 L 71 177 L 171 177 L 205 304 L 104 304 L 114 378 L 225 378 L 262 515 L 334 515 L 297 378 L 401 378 L 438 515 L 510 515 L 473 378 L 561 378 L 550 304 L 453 304 L 418 177 L 518 177 L 508 103 L 398 103 L 361 -35 L 290 -35 L 327 103 L 222 103 L 185 -35 L 114 -35 L 151 103 L 60 103 Z M 242 177 L 347 177 L 381 304 L 277 304 L 242 177 Z" unicode="#" />
<glyph horiz-adv-x="503" d="M 203 -96 L 214 -16 C 185 -13 158 -8 133 0 C 107 8 83 19 61 33 L 73 123 C 93 106 117 92 143 82 C 169 72 196 65 225 63 L 260 305 C 212 325 178 348 156 376 C 134 404 123 437 123 475 C 123 525 139 569 173 607 C 206 644 252 665 310 671 L 322 755 L 397 755 L 385 669 C 407 666 430 661 452 654 C 474 646 494 637 513 626 L 500 535 C 481 551 461 563 440 573 C 418 582 396 588 374 591 L 342 364 C 388 344 422 319 444 291 C 466 262 477 229 477 191 C 477 137 459 91 424 54 C 389 16 344 -6 290 -14 L 278 -96 L 203 -96 Z M 211 484 C 211 466 215 450 225 436 C 235 422 250 408 272 396 L 299 590 C 272 584 251 571 235 552 C 219 533 211 510 211 484 Z M 389 180 C 389 198 384 214 375 230 C 365 245 350 259 330 272 L 301 68 C 326 75 347 88 364 107 C 380 126 389 150 389 180 Z" unicode="$" />
<glyph horiz-adv-x="874" d="M 260 352 C 214 352 178 366 152 396 C 126 426 113 464 113 512 C 113 576 129 628 163 668 C 196 708 240 728 294 728 C 340 728 376 713 402 684 C 428 654 442 616 442 570 C 442 506 425 453 392 413 C 358 372 314 352 260 352 Z M 257 0 L 642 720 L 715 720 L 330 0 L 257 0 Z M 264 415 C 296 415 321 428 341 455 C 360 482 370 519 370 565 C 370 595 362 620 348 638 C 333 656 314 665 290 665 C 258 665 233 651 214 625 C 194 598 185 562 185 516 C 185 484 192 459 207 441 C 221 423 240 415 264 415 Z M 681 -8 C 635 -8 599 6 573 36 C 547 66 534 104 534 152 C 534 216 550 268 584 308 C 617 348 661 368 715 368 C 761 368 797 353 823 324 C 849 294 863 256 863 210 C 863 146 846 93 813 53 C 779 12 735 -8 681 -8 Z M 685 55 C 717 55 742 68 762 95 C 781 122 791 159 791 205 C 791 235 783 260 769 278 C 754 296 735 305 711 305 C 679 305 654 291 635 265 C 615 238 606 202 606 156 C 606 124 613 99 628 81 C 642 63 661 55 685 55 Z" unicode="%" />
<glyph horiz-adv-x="611" d="M 489 -105 C 459 -105 434 -96 416 -80 C 397 -63 390 -40 395 -10 L 403 44 L 417 99 C 397 61 372 32 342 14 C 311 -3 279 -13 245 -13 C 201 -13 162 0 128 27 C 94 54 78 95 78 151 C 78 189 90 227 116 263 C 141 299 180 323 234 337 C 200 349 174 367 156 393 C 138 419 129 450 129 486 C 129 546 150 592 192 626 C 234 660 289 677 357 677 C 381 677 407 674 435 668 C 463 662 490 654 517 644 L 505 563 C 482 575 458 585 432 592 C 406 598 381 602 357 602 C 311 602 275 590 250 567 C 225 544 213 515 213 479 C 213 449 224 423 248 402 C 271 381 303 371 343 371 L 449 371 L 467 501 L 549 501 L 531 371 L 639 371 L 629 298 L 520 298 L 482 28 C 479 10 482 -4 490 -14 C 498 -24 509 -30 525 -30 C 535 -30 545 -28 556 -25 C 566 -21 576 -17 585 -11 L 575 -84 C 562 -90 548 -95 532 -99 C 516 -103 502 -105 489 -105 Z M 276 65 C 310 65 342 78 373 106 C 403 133 422 174 429 228 L 439 298 L 331 298 C 278 298 237 286 209 262 C 181 238 167 206 167 167 C 167 138 176 114 195 94 C 214 74 241 65 276 65 Z" unicode="&#x26;" />
<glyph horiz-adv-x="196" d="M 132 509 L 162 720 L 237 720 L 208 509 L 132 509 Z" unicode="'" />
<glyph horiz-adv-x="344" d="M 221 -215 C 183 -149 154 -81 134 -13 C 114 54 104 125 104 197 C 104 294 123 387 162 477 C 200 567 256 648 330 720 L 426 720 C 347 646 287 565 247 475 C 206 385 186 293 186 198 C 186 130 196 61 216 -6 C 236 -74 266 -144 308 -215 L 221 -215 Z" unicode="(" />
<glyph horiz-adv-x="344" d="M -9 -215 C 69 -141 128 -60 168 29 C 208 119 229 211 229 307 C 229 375 219 443 199 511 C 179 579 148 649 108 720 L 195 720 C 231 654 260 586 280 518 C 300 450 311 380 311 308 C 311 210 291 116 252 26 C 213 -63 158 -144 86 -215 L -9 -215 Z" unicode=")" />
<glyph horiz-adv-x="580" d="M 188 30 L 121 85 L 272 239 L 86 285 L 127 374 L 299 298 L 311 495 L 405 495 L 361 297 L 556 374 L 572 285 L 373 239 L 482 85 L 398 30 L 318 203 L 188 30 Z" unicode="*" />
<glyph horiz-adv-x="511" d="M 228 76 L 253 255 L 82 255 L 92 326 L 264 326 L 289 505 L 363 505 L 338 326 L 508 326 L 498 255 L 327 255 L 302 76 L 228 76 Z" unicode="+" />
<glyph horiz-adv-x="193" d="M 60 -159 L 10 -118 C 28 -96 42 -74 51 -54 C 59 -34 66 -11 70 15 L 81 95 L 160 95 L 149 19 C 144 -18 134 -51 119 -81 C 104 -110 84 -136 60 -159 Z" unicode="," />
<glyph horiz-adv-x="365" d="M 72 200 L 82 272 L 362 272 L 352 200 L 72 200 Z" unicode="-" />
<glyph horiz-adv-x="186" d="M 50 0 L 62 85 L 148 85 L 136 0 L 50 0 Z" unicode="." />
<glyph horiz-adv-x="417" d="M 18 0 L 411 720 L 500 720 L 107 0 L 18 0 Z" unicode="/" />
<glyph horiz-adv-x="595" d="M 313 -14 C 247 -14 194 7 153 51 C 112 94 92 160 92 248 C 92 360 117 458 167 544 C 217 629 287 672 375 672 C 440 672 493 649 534 604 C 574 559 595 494 595 410 C 595 298 570 199 520 114 C 470 28 401 -14 313 -14 Z M 312 64 C 374 64 422 98 456 168 C 490 238 508 317 508 405 C 508 468 495 515 470 546 C 445 577 414 593 376 593 C 312 593 263 557 230 487 C 196 417 180 338 180 252 C 180 189 192 142 217 111 C 241 79 273 64 312 64 Z" unicode="0" />
<glyph horiz-adv-x="362" d="M 166 0 L 248 585 L 116 563 L 126 641 L 344 673 L 250 0 L 166 0 Z" unicode="1" />
<glyph horiz-adv-x="509" d="M 51 0 L 68 116 L 172 185 C 257 233 321 280 364 328 C 407 376 429 425 429 475 C 429 509 418 537 397 559 C 376 581 348 592 312 592 C 279 592 248 586 219 576 C 189 566 160 550 132 530 L 145 620 C 173 636 202 649 232 658 C 261 666 291 671 322 671 C 380 671 427 654 463 621 C 499 587 517 541 517 483 C 517 421 494 362 450 307 C 406 251 339 198 250 147 L 151 84 L 467 84 L 456 0 L 51 0 Z" unicode="2" />
<glyph horiz-adv-x="489" d="M 239 -13 C 199 -13 163 -8 133 1 C 102 11 73 25 47 45 L 60 134 C 83 111 110 94 141 83 C 172 71 205 66 239 66 C 283 66 318 76 344 97 C 370 118 383 147 383 185 C 383 219 370 246 344 266 C 318 285 282 295 234 295 L 198 295 L 209 374 L 239 374 C 291 374 333 385 365 409 C 397 432 414 463 414 503 C 414 533 404 555 386 570 C 368 584 341 592 307 592 C 278 592 249 587 221 577 C 192 567 164 553 138 535 L 149 620 C 178 636 207 649 236 657 C 264 665 294 670 325 670 C 379 670 421 657 453 632 C 485 606 501 568 501 516 C 501 474 486 436 456 402 C 426 368 388 346 340 336 C 378 328 408 311 432 285 C 455 258 467 224 467 182 C 467 123 446 76 405 40 C 364 4 309 -13 239 -13 Z" unicode="3" />
<glyph horiz-adv-x="559" d="M 339 0 L 363 172 L 66 172 L 75 231 L 413 666 L 516 666 L 457 247 L 552 247 L 542 172 L 447 172 L 423 0 L 339 0 Z M 373 247 L 417 557 L 177 247 L 373 247 Z" unicode="4" />
<glyph horiz-adv-x="517" d="M 231 -12 C 197 -12 165 -7 137 2 C 108 11 82 25 58 45 L 70 132 C 92 110 117 94 145 83 C 173 72 204 67 238 67 C 286 67 324 79 354 105 C 384 130 399 163 399 205 C 399 242 386 271 362 291 C 338 311 304 322 260 322 C 234 322 208 320 181 317 C 154 313 129 309 106 303 L 178 658 L 522 658 L 510 578 L 243 578 L 204 390 C 216 392 230 394 245 396 C 260 398 275 399 289 399 C 350 399 399 382 435 349 C 471 316 490 272 490 216 C 490 148 466 93 418 51 C 370 9 307 -12 231 -12 Z" unicode="5" />
<glyph horiz-adv-x="552" d="M 293 -12 C 230 -12 180 8 144 48 C 107 88 89 144 89 218 C 89 354 121 463 185 546 C 249 629 328 671 423 671 C 445 671 468 668 490 664 C 512 659 533 653 554 645 L 542 561 C 524 570 504 578 482 584 C 460 590 439 593 420 593 C 362 593 311 570 269 524 C 226 478 198 415 184 334 C 202 363 226 386 256 402 C 286 418 318 426 352 426 C 405 426 448 409 482 375 C 515 341 532 295 532 237 C 532 163 509 103 463 57 C 417 11 361 -12 293 -12 Z M 296 63 C 340 63 376 78 404 110 C 432 141 446 180 446 228 C 446 264 435 294 415 318 C 394 341 367 353 333 353 C 296 353 261 339 229 312 C 196 285 177 251 173 209 C 171 167 181 132 204 104 C 226 76 257 63 296 63 Z" unicode="6" />
<glyph horiz-adv-x="489" d="M 133 0 L 428 578 L 125 578 L 136 658 L 537 658 L 528 599 L 223 0 L 133 0 Z" unicode="7" />
<glyph horiz-adv-x="534" d="M 276 -14 C 216 -14 167 1 131 32 C 94 62 76 102 76 150 C 76 191 89 228 116 261 C 143 293 180 319 226 337 C 196 354 172 375 155 401 C 137 426 129 454 129 485 C 129 540 149 585 191 620 C 233 654 285 672 347 672 C 401 672 446 657 480 628 C 514 599 532 563 532 521 C 532 484 519 451 495 422 C 470 392 435 368 391 350 C 429 330 457 307 477 279 C 496 251 506 221 506 189 C 506 129 484 80 440 42 C 396 4 341 -14 276 -14 Z M 311 384 L 323 379 C 363 393 393 411 414 433 C 434 455 445 481 445 509 C 444 533 434 554 416 572 C 397 589 372 598 342 598 C 306 598 276 587 252 567 C 228 546 216 520 217 490 C 217 467 225 446 242 428 C 259 409 282 394 311 384 Z M 166 161 C 166 131 176 107 198 89 C 219 70 247 61 282 61 C 321 61 353 72 379 95 C 405 118 417 147 417 182 C 417 208 407 232 388 252 C 368 272 341 289 306 303 L 297 306 C 258 293 226 274 202 248 C 178 222 166 193 166 161 Z" unicode="8" />
<glyph horiz-adv-x="551" d="M 222 -12 C 199 -12 176 -9 153 -5 C 130 0 109 6 91 14 L 103 98 C 120 88 140 80 162 74 C 184 68 205 66 225 66 C 282 66 332 88 375 134 C 418 180 447 243 461 325 C 443 295 419 273 389 257 C 359 241 327 233 293 233 C 239 233 195 249 162 283 C 128 316 112 362 112 420 C 112 491 135 551 181 599 C 227 647 284 671 354 671 C 416 671 465 651 501 611 C 537 571 556 514 556 441 C 556 305 523 195 459 112 C 395 29 316 -12 222 -12 Z M 311 306 C 348 306 383 319 415 346 C 447 373 466 408 472 450 C 474 492 463 526 441 554 C 419 582 389 596 352 596 C 308 596 271 580 242 548 C 212 516 198 477 198 429 C 198 393 208 363 229 340 C 249 317 277 306 311 306 Z" unicode="9" />
<glyph horiz-adv-x="189" d="M 93 301 L 105 386 L 191 386 L 179 301 L 93 301 Z M 50 0 L 62 85 L 148 85 L 136 0 L 50 0 Z" unicode=":" />
<glyph horiz-adv-x="197" d="M 105 301 L 117 386 L 203 386 L 191 301 L 105 301 Z M 60 -159 L 10 -118 C 28 -96 42 -74 51 -54 C 59 -34 66 -11 70 15 L 81 95 L 160 95 L 149 19 C 144 -18 134 -51 119 -81 C 104 -110 84 -136 60 -159 Z" unicode=";" />
<glyph horiz-adv-x="466" d="M 303 81 L 100 288 L 363 495 L 476 495 L 212 287 L 415 81 L 303 81 Z" unicode="&#x3C;" />
<glyph horiz-adv-x="540" d="M 103 335 L 114 407 L 544 407 L 533 335 L 103 335 Z M 80 171 L 90 242 L 520 242 L 510 171 L 80 171 Z" unicode="=" />
<glyph horiz-adv-x="466" d="M 71 81 L 335 288 L 132 495 L 243 495 L 446 288 L 185 81 L 71 81 Z" unicode="&#x3E;" />
<glyph horiz-adv-x="432" d="M 187 190 C 193 236 205 275 223 307 C 241 339 268 372 304 406 C 336 436 358 463 372 487 C 386 511 393 534 393 557 C 393 586 383 609 364 626 C 344 643 317 652 281 652 C 254 652 226 647 198 639 C 170 630 144 617 122 601 L 135 686 C 158 698 184 708 214 715 C 243 722 272 726 302 726 C 356 726 399 712 431 685 C 463 657 479 620 479 572 C 479 538 469 505 449 472 C 429 439 401 406 365 372 C 333 341 309 312 293 285 C 277 258 267 226 263 190 L 187 190 Z M 157 0 L 169 84 L 253 84 L 242 0 L 157 0 Z" unicode="?" />
<glyph horiz-adv-x="788" d="M 382 -71 C 296 -71 224 -42 166 13 C 108 69 79 143 79 233 C 79 353 117 449 193 520 C 269 590 364 626 478 626 C 566 626 640 600 699 549 C 758 498 788 430 788 345 C 788 271 772 212 741 170 C 710 128 672 107 626 107 C 598 107 574 114 554 128 C 533 142 518 165 510 198 C 495 164 475 140 450 127 C 425 113 401 107 378 107 C 342 107 313 119 291 143 C 269 167 258 199 258 240 C 258 302 278 353 318 393 C 358 432 408 452 468 452 C 484 452 502 450 522 447 C 542 444 561 440 579 435 L 558 273 C 553 239 557 211 569 191 C 581 170 601 160 629 160 C 659 160 684 177 702 211 C 720 245 730 290 730 344 C 730 408 707 461 662 505 C 616 549 555 571 478 571 C 373 571 290 538 229 474 C 167 410 137 330 137 234 C 137 162 159 103 205 55 C 251 7 310 -16 382 -16 C 412 -16 443 -12 475 -4 C 506 3 535 13 562 26 L 560 -34 C 532 -46 503 -55 472 -61 C 440 -67 410 -71 382 -71 Z M 390 161 C 412 161 434 172 457 195 C 480 217 496 266 506 340 L 514 393 C 506 395 498 396 489 398 C 480 399 470 400 460 400 C 418 400 383 385 357 356 C 330 326 317 290 317 246 C 317 221 323 201 336 185 C 349 169 367 161 390 161 Z" unicode="@" />
<glyph horiz-adv-x="639" d="M 18 0 L 373 664 L 452 664 L 621 0 L 534 0 L 485 197 L 208 197 L 104 0 L 18 0 Z M 246 271 L 467 271 L 414 488 L 398 563 L 361 488 L 246 271 Z" unicode="A" />
<glyph horiz-adv-x="531" d="M 72 0 L 164 658 L 333 658 C 397 658 445 644 477 616 C 508 588 524 551 524 505 C 524 466 512 430 490 398 C 468 366 432 344 383 334 C 427 326 458 309 478 283 C 498 257 508 227 508 193 C 508 135 487 89 446 53 C 404 17 342 0 260 0 L 72 0 Z M 208 369 L 296 369 C 341 369 376 379 401 400 C 425 420 438 450 438 488 C 438 518 428 542 409 559 C 390 575 363 584 327 584 L 239 584 L 208 369 Z M 167 74 L 273 74 C 321 74 358 84 384 106 C 410 128 423 158 423 196 C 423 228 412 253 390 271 C 368 289 336 298 293 298 L 198 298 L 167 74 Z" unicode="B" />
<glyph horiz-adv-x="665" d="M 416 -14 C 316 -14 238 15 181 73 C 123 131 95 202 95 288 C 95 398 131 489 205 562 C 278 635 372 672 487 672 C 524 672 560 667 596 659 C 632 650 666 637 700 619 L 688 534 C 656 553 623 568 589 578 C 555 588 519 594 481 594 C 393 594 322 565 266 509 C 210 452 182 380 182 293 C 182 225 204 170 248 128 C 292 85 351 64 423 64 C 461 64 498 69 533 80 C 568 90 603 106 639 127 L 626 39 C 591 21 556 7 521 -1 C 486 -9 451 -14 416 -14 Z" unicode="C" />
<glyph horiz-adv-x="694" d="M 72 0 L 164 658 L 368 658 C 468 658 547 631 605 577 C 663 523 692 455 692 372 C 692 264 654 175 578 105 C 502 35 401 0 273 0 L 72 0 Z M 168 79 L 283 79 C 382 79 461 106 519 160 C 577 214 606 284 606 368 C 606 430 584 480 540 520 C 496 559 437 579 362 579 L 238 579 L 168 79 Z" unicode="D" />
<glyph horiz-adv-x="503" d="M 72 0 L 164 658 L 522 658 L 511 579 L 237 579 L 208 373 L 474 373 L 463 294 L 197 294 L 167 79 L 456 79 L 445 0 L 72 0 Z" unicode="E" />
<glyph horiz-adv-x="454" d="M 72 0 L 164 658 L 510 658 L 499 579 L 237 579 L 208 369 L 457 369 L 446 291 L 197 291 L 156 0 L 72 0 Z" unicode="F" />
<glyph horiz-adv-x="690" d="M 410 -14 C 312 -14 235 14 179 71 C 123 127 95 198 95 284 C 95 398 131 491 204 563 C 277 635 370 672 484 672 C 522 672 559 668 595 660 C 631 652 663 640 693 626 L 682 544 C 652 560 620 573 586 581 C 551 589 516 594 480 594 C 392 594 321 565 265 509 C 209 452 181 379 181 290 C 181 223 203 169 247 127 C 291 85 347 64 415 64 C 441 64 467 66 492 71 C 516 75 539 83 561 95 L 584 258 L 447 258 L 458 337 L 679 337 L 638 41 C 600 21 561 6 521 -1 C 481 -9 444 -14 410 -14 Z" unicode="G" />
<glyph horiz-adv-x="683" d="M 72 0 L 164 658 L 249 658 L 209 376 L 578 376 L 618 658 L 702 658 L 610 0 L 526 0 L 568 297 L 199 297 L 157 0 L 72 0 Z" unicode="H" />
<glyph horiz-adv-x="229" d="M 72 0 L 164 658 L 249 658 L 157 0 L 72 0 Z" unicode="I" />
<glyph horiz-adv-x="239" d="M -39 -211 L -47 -211 L -37 -133 L -29 -133 C 0 -133 23 -125 41 -111 C 59 -96 71 -72 76 -39 L 174 658 L 258 658 L 161 -38 C 152 -98 129 -141 93 -169 C 57 -197 13 -211 -39 -211 Z" unicode="J" />
<glyph horiz-adv-x="569" d="M 72 0 L 164 658 L 249 658 L 206 357 L 527 658 L 632 658 L 288 335 L 553 0 L 447 0 L 201 318 L 156 0 L 72 0 Z" unicode="K" />
<glyph horiz-adv-x="457" d="M 72 0 L 164 658 L 249 658 L 168 79 L 446 79 L 435 0 L 72 0 Z" unicode="L" />
<glyph horiz-adv-x="772" d="M 72 0 L 164 658 L 283 658 L 393 302 L 412 219 L 454 302 L 664 658 L 791 658 L 699 0 L 616 0 L 684 483 L 698 569 L 652 483 L 442 127 L 361 127 L 250 483 L 228 565 L 219 483 L 152 0 L 72 0 Z" unicode="M" />
<glyph horiz-adv-x="706" d="M 72 0 L 164 658 L 252 658 L 540 178 L 572 120 L 579 178 L 646 658 L 726 658 L 634 0 L 547 0 L 258 483 L 227 540 L 219 483 L 152 0 L 72 0 Z" unicode="N" />
<glyph horiz-adv-x="772" d="M 403 -15 C 311 -15 236 13 180 69 C 123 125 95 198 95 288 C 95 396 128 488 195 562 C 262 636 351 673 461 673 C 552 673 626 644 683 588 C 740 532 769 459 769 369 C 769 261 735 170 667 96 C 599 22 511 -15 403 -15 Z M 405 64 C 487 64 553 92 605 149 C 657 206 683 278 683 366 C 683 430 663 484 623 528 C 583 572 528 594 459 594 C 377 594 310 565 259 509 C 207 452 182 380 182 292 C 182 228 201 174 241 130 C 281 86 335 64 405 64 Z" unicode="O" />
<glyph horiz-adv-x="489" d="M 72 0 L 164 658 L 297 658 C 363 658 415 641 454 607 C 492 573 512 526 512 468 C 512 400 488 345 442 301 C 395 257 332 236 252 236 L 189 236 L 156 0 L 72 0 Z M 200 312 L 258 312 C 308 312 348 325 379 353 C 410 380 426 416 426 461 C 426 497 414 525 391 547 C 367 569 334 580 290 580 L 238 580 L 200 312 Z" unicode="P" />
<glyph horiz-adv-x="774" d="M 403 -15 C 311 -15 236 13 180 69 C 123 125 95 198 95 288 C 95 396 128 488 195 562 C 262 636 351 673 461 673 C 552 673 626 644 683 588 C 740 532 769 459 769 369 C 769 285 748 211 708 147 C 667 83 612 37 543 11 C 564 -5 587 -19 613 -31 C 639 -43 667 -53 698 -62 L 676 -144 C 628 -131 583 -114 541 -92 C 499 -70 463 -44 433 -14 C 428 -14 423 -15 418 -15 C 412 -15 407 -15 403 -15 Z M 405 64 C 487 64 553 92 605 149 C 657 206 683 278 683 366 C 683 430 663 484 623 528 C 583 572 528 594 459 594 C 377 594 310 565 259 509 C 207 452 182 380 182 292 C 182 228 201 174 241 130 C 281 86 335 64 405 64 Z" unicode="Q" />
<glyph horiz-adv-x="522" d="M 73 0 L 165 658 L 330 658 C 387 658 431 644 463 616 C 495 588 511 550 511 500 C 511 452 496 411 468 379 C 439 347 401 326 353 317 C 373 310 390 299 403 285 C 415 270 425 251 432 229 L 506 0 L 419 0 L 351 211 C 343 235 332 254 318 268 C 303 281 284 288 261 288 L 197 288 L 157 0 L 73 0 Z M 207 360 L 290 360 C 329 360 361 372 385 396 C 409 420 421 450 421 486 C 421 515 411 538 393 556 C 375 573 350 582 320 582 L 239 582 L 207 360 Z" unicode="R" />
<glyph horiz-adv-x="506" d="M 251 -16 C 215 -16 182 -11 150 -3 C 118 4 89 17 63 34 L 75 124 C 99 104 126 89 157 79 C 188 68 221 63 255 63 C 291 63 323 73 350 93 C 377 113 391 143 391 181 C 391 205 382 226 365 245 C 348 264 320 281 282 297 L 270 302 C 220 322 183 347 160 375 C 136 403 125 437 125 476 C 125 530 144 577 182 615 C 220 653 273 673 339 673 C 371 673 402 669 432 661 C 462 653 489 642 515 627 L 502 536 C 478 556 452 571 425 581 C 397 590 368 595 338 595 C 300 595 270 584 247 564 C 224 544 213 517 213 485 C 213 462 221 442 239 424 C 256 406 284 389 323 373 L 336 368 C 385 348 421 323 444 294 C 467 264 479 230 479 192 C 479 132 457 82 414 43 C 370 3 316 -16 251 -16 Z" unicode="S" />
<glyph horiz-adv-x="550" d="M 233 0 L 314 579 L 101 579 L 112 658 L 622 658 L 611 579 L 398 579 L 317 0 L 233 0 Z" unicode="T" />
<glyph horiz-adv-x="667" d="M 351 -12 C 262 -12 196 13 152 63 C 108 113 92 177 103 255 L 159 658 L 243 658 L 186 253 C 178 195 188 150 218 117 C 247 83 292 67 353 67 C 407 67 452 84 490 118 C 527 152 550 197 558 253 L 615 658 L 693 658 L 636 251 C 624 167 593 103 541 57 C 489 11 425 -12 351 -12 Z" unicode="U" />
<glyph horiz-adv-x="636" d="M 278 0 L 104 658 L 194 658 L 318 175 L 332 108 L 365 175 L 626 658 L 714 658 L 355 0 L 278 0 Z" unicode="V" />
<glyph horiz-adv-x="943" d="M 221 0 L 108 658 L 196 658 L 275 175 L 281 112 L 305 175 L 519 658 L 610 658 L 689 175 L 695 113 L 718 175 L 932 658 L 1019 658 L 721 0 L 634 0 L 556 483 L 549 547 L 524 483 L 310 0 L 221 0 Z" unicode="W" />
<glyph horiz-adv-x="596" d="M 16 0 L 296 340 L 122 658 L 219 658 L 330 450 L 353 402 L 391 450 L 560 658 L 661 658 L 394 336 L 580 0 L 482 0 L 359 229 L 337 271 L 302 229 L 118 0 L 16 0 Z" unicode="X" />
<glyph horiz-adv-x="591" d="M 252 0 L 292 280 L 104 658 L 198 658 L 321 414 L 344 360 L 381 414 L 570 658 L 669 658 L 375 281 L 336 0 L 252 0 Z" unicode="Y" />
<glyph horiz-adv-x="576" d="M 45 0 L 52 47 L 446 534 L 483 579 L 130 579 L 141 658 L 621 658 L 615 613 L 220 124 L 183 79 L 541 79 L 529 0 L 45 0 Z" unicode="Z" />
<glyph horiz-adv-x="343" d="M 50 -215 L 182 720 L 385 720 L 375 650 L 251 650 L 139 -145 L 263 -145 L 253 -215 L 50 -215 Z" unicode="[" />
<glyph horiz-adv-x="473" d="M 374 0 L 119 720 L 200 720 L 455 0 L 374 0 Z" unicode="\" />
<glyph horiz-adv-x="337" d="M 24 -215 L 34 -145 L 157 -145 L 269 650 L 146 650 L 155 720 L 358 720 L 227 -215 L 24 -215 Z" unicode="]" />
<glyph horiz-adv-x="376" d="M 131 524 L 247 658 L 314 658 L 393 524 L 321 524 L 273 600 L 205 524 L 131 524 Z" unicode="^" />
<glyph horiz-adv-x="422" d="M -31 -215 L -20 -143 L 402 -143 L 392 -215 L -31 -215 Z" unicode="_" />
<glyph horiz-adv-x="236" d="M 193 524 L 95 661 L 189 661 L 279 524 L 193 524 Z" unicode="`" />
<glyph horiz-adv-x="521" d="M 232 -10 C 184 -10 145 7 114 41 C 82 75 67 120 67 178 C 67 262 94 332 150 390 C 206 447 274 476 355 476 C 380 476 407 473 436 468 C 465 463 493 456 519 447 L 475 132 C 472 109 470 87 468 66 C 466 44 465 22 465 0 L 383 0 C 383 12 383 25 384 39 C 385 53 386 66 387 79 L 390 109 C 372 65 348 35 319 17 C 290 -1 261 -10 232 -10 Z M 253 63 C 283 63 315 79 348 112 C 380 145 404 213 419 316 L 429 392 C 416 396 403 399 389 401 C 375 403 360 404 345 404 C 291 404 245 382 206 340 C 167 297 148 246 148 187 C 148 146 158 115 179 94 C 199 73 224 63 253 63 Z" unicode="a" />
<glyph horiz-adv-x="520" d="M 236 -10 C 210 -10 181 -8 151 -5 C 121 -1 91 3 63 10 L 163 720 L 245 720 L 200 407 L 190 350 C 208 396 231 429 260 448 C 289 466 320 476 353 476 C 399 476 438 458 469 424 C 500 389 516 344 516 289 C 516 205 489 134 435 76 C 381 18 315 -10 236 -10 Z M 244 62 C 296 62 340 83 378 125 C 416 167 435 218 435 278 C 435 316 425 346 406 369 C 386 391 361 403 329 403 C 297 403 265 386 234 354 C 203 322 180 253 165 149 L 153 71 C 166 68 181 66 197 64 C 213 62 228 62 244 62 Z" unicode="b" />
<glyph horiz-adv-x="464" d="M 281 -10 C 217 -10 165 9 127 47 C 89 85 70 135 70 196 C 70 277 94 344 144 397 C 193 449 257 476 337 476 C 363 476 388 472 412 466 C 435 459 458 449 481 437 L 470 357 C 447 371 425 382 403 390 C 381 398 356 402 330 402 C 276 402 232 383 200 346 C 167 308 151 261 151 203 C 151 161 163 127 189 102 C 214 76 248 64 292 64 C 318 64 344 68 368 76 C 392 84 415 96 438 113 L 426 31 C 403 16 380 5 356 0 C 332 -6 307 -10 281 -10 Z" unicode="c" />
<glyph horiz-adv-x="526" d="M 237 -10 C 189 -10 150 7 119 41 C 87 75 72 120 72 178 C 72 262 99 332 154 390 C 209 447 275 476 353 476 C 367 476 382 474 398 471 C 413 468 428 463 443 457 L 481 720 L 563 720 L 480 132 C 477 109 475 87 473 66 C 471 44 470 22 470 0 L 388 0 C 388 12 388 24 389 38 C 390 51 391 65 393 79 L 395 107 C 377 63 354 33 325 16 C 296 -1 267 -10 237 -10 Z M 258 63 C 288 63 320 79 352 111 C 384 143 408 212 424 316 L 433 381 C 420 388 406 394 390 398 C 374 402 358 404 342 404 C 292 404 248 382 210 340 C 172 298 153 247 153 187 C 153 146 163 115 184 94 C 204 73 229 63 258 63 Z" unicode="d" />
<glyph horiz-adv-x="480" d="M 282 -10 C 214 -10 162 9 126 48 C 89 87 71 139 71 203 C 71 280 94 345 142 397 C 190 449 249 476 320 476 C 365 476 402 464 430 441 C 458 417 473 387 473 351 C 473 303 453 266 414 242 C 374 217 310 202 222 198 L 154 194 C 154 152 167 119 191 96 C 215 72 248 61 291 61 C 319 61 347 65 373 75 C 399 84 425 99 451 119 L 439 35 C 414 19 389 8 363 1 C 337 -6 310 -10 282 -10 Z M 312 406 C 272 406 237 391 209 362 C 181 332 164 296 159 254 L 227 259 C 283 262 324 271 350 285 C 376 299 390 320 390 348 C 390 366 383 380 369 390 C 355 400 336 406 312 406 Z" unicode="e" />
<glyph horiz-adv-x="270" d="M 88 0 L 143 393 L 73 393 L 83 466 L 153 466 L 165 550 C 172 604 192 647 226 680 C 260 713 302 730 352 730 C 368 730 386 727 406 723 C 426 718 443 712 459 704 L 448 626 C 434 634 418 641 402 647 C 386 652 370 655 354 655 C 324 655 299 645 281 626 C 262 607 250 581 246 549 L 234 466 L 318 466 L 308 393 L 224 393 L 169 0 L 88 0 Z" unicode="f" />
<glyph horiz-adv-x="518" d="M 214 -224 C 184 -224 155 -220 127 -214 C 99 -208 71 -199 45 -187 L 57 -107 C 79 -121 104 -131 132 -139 C 159 -147 186 -151 213 -151 C 257 -151 293 -139 323 -115 C 352 -91 371 -51 379 6 L 393 107 C 375 63 352 32 324 15 C 295 -1 266 -10 236 -10 C 188 -10 149 7 118 41 C 86 75 71 120 71 178 C 71 261 98 331 154 389 C 210 447 278 476 359 476 C 384 476 411 473 440 468 C 469 463 497 456 523 447 L 462 15 C 450 -69 422 -129 380 -167 C 337 -205 282 -224 214 -224 Z M 257 63 C 287 63 319 79 351 112 C 383 144 407 212 423 316 L 434 392 C 421 396 407 399 393 401 C 378 403 363 404 349 404 C 295 404 249 382 210 340 C 171 297 152 246 152 186 C 152 146 162 115 183 94 C 203 73 228 63 257 63 Z" unicode="g" />
<glyph horiz-adv-x="500" d="M 61 0 L 162 720 L 244 720 L 208 465 C 205 447 202 428 199 409 C 196 390 193 371 189 353 C 207 397 232 428 262 447 C 292 466 322 476 353 476 C 398 476 434 460 460 429 C 486 397 494 355 485 303 L 453 130 C 449 108 446 86 445 65 C 443 44 443 22 443 0 L 361 0 C 361 22 361 43 363 65 C 364 87 367 108 371 130 L 400 281 C 407 319 403 349 387 370 C 371 391 349 402 321 402 C 294 402 265 386 233 356 C 201 325 178 253 162 139 L 143 0 L 61 0 Z" unicode="h" />
<glyph horiz-adv-x="216" d="M 149 611 L 160 694 L 246 694 L 234 611 L 149 611 Z M 74 0 C 74 21 74 43 76 65 C 78 87 80 108 83 129 L 131 466 L 213 466 L 165 129 C 162 109 160 87 158 65 C 156 42 155 20 156 0 L 74 0 Z" unicode="i" />
<glyph horiz-adv-x="210" d="M 150 611 L 162 694 L 247 694 L 236 611 L 150 611 Z M -52 -211 L -60 -211 L -49 -136 L -41 -136 C -13 -136 9 -127 27 -109 C 45 -91 56 -67 61 -36 L 131 466 L 213 466 L 142 -36 C 134 -94 113 -137 79 -167 C 45 -196 2 -211 -52 -211 Z" unicode="j" />
<glyph horiz-adv-x="466" d="M 61 0 L 162 720 L 244 720 L 180 265 C 224 296 264 328 302 361 C 340 393 374 428 404 466 L 498 466 C 462 420 425 379 387 343 C 348 306 307 272 265 242 L 449 0 L 351 0 L 176 236 L 143 0 L 61 0 Z" unicode="k" />
<glyph horiz-adv-x="210" d="M 72 0 C 71 21 72 43 74 67 C 76 91 78 113 81 134 L 164 720 L 246 720 L 163 130 C 160 109 158 88 156 66 C 154 44 153 22 154 0 L 72 0 Z" unicode="l" />
<glyph horiz-adv-x="806" d="M 68 0 L 117 349 C 120 371 122 391 124 411 C 125 430 126 448 126 466 L 208 466 C 208 453 207 439 207 425 C 206 411 205 397 203 385 L 199 354 C 217 398 241 429 270 448 C 298 466 328 476 358 476 C 389 476 418 466 445 447 C 471 428 486 397 489 353 C 511 402 539 435 571 451 C 603 467 632 476 658 476 C 704 476 739 460 765 429 C 791 398 799 356 790 303 L 760 130 C 756 107 753 85 751 64 C 749 42 749 21 749 0 L 667 0 C 667 21 667 42 669 64 C 671 85 674 107 678 130 L 705 281 C 711 318 707 347 693 369 C 678 390 656 401 626 401 C 586 401 552 379 526 335 C 499 291 479 225 467 139 L 448 0 L 366 0 L 406 281 C 410 318 405 347 391 369 C 376 390 354 401 326 401 C 286 401 253 379 227 335 C 201 291 182 225 170 139 L 150 0 L 68 0 Z" unicode="m" />
<glyph horiz-adv-x="502" d="M 68 0 L 117 349 C 120 371 122 391 124 411 C 125 430 126 448 126 466 L 208 466 C 208 453 207 439 206 424 C 205 408 204 395 203 385 L 199 354 C 217 398 241 429 269 448 C 297 466 325 476 354 476 C 402 476 438 459 462 427 C 486 395 494 353 485 303 L 454 130 C 450 108 447 86 446 65 C 445 44 445 22 445 0 L 363 0 C 363 22 363 43 364 65 C 365 87 368 108 372 130 L 401 281 C 407 318 403 347 388 369 C 372 390 350 401 322 401 C 294 401 266 383 236 348 C 206 313 184 243 170 139 L 150 0 L 68 0 Z" unicode="n" />
<glyph horiz-adv-x="530" d="M 281 -11 C 217 -11 166 7 128 45 C 89 82 70 134 70 200 C 70 278 93 343 141 397 C 188 450 246 477 316 477 C 379 477 430 458 469 420 C 507 382 527 331 527 266 C 527 188 503 122 456 69 C 408 15 350 -11 281 -11 Z M 284 62 C 330 62 368 81 399 120 C 429 158 445 206 445 262 C 445 304 432 338 408 364 C 384 390 352 404 312 404 C 266 404 227 384 197 346 C 166 307 151 260 151 204 C 151 162 163 127 187 101 C 211 75 244 62 284 62 Z" unicode="o" />
<glyph horiz-adv-x="529" d="M 39 -215 L 118 347 C 121 369 123 390 124 409 C 125 428 126 447 126 466 L 207 466 C 207 453 206 439 206 425 C 205 410 204 396 203 384 L 198 347 C 215 395 238 429 268 448 C 298 466 328 476 359 476 C 406 476 445 459 477 425 C 509 391 525 344 525 286 C 525 202 499 132 447 75 C 395 18 330 -10 250 -10 C 232 -10 215 -8 199 -5 C 183 -2 167 2 153 8 L 121 -215 L 39 -215 Z M 256 60 C 310 60 355 81 390 124 C 425 166 443 217 443 275 C 443 317 432 348 412 370 C 391 392 366 403 338 403 C 310 403 279 388 246 360 C 212 332 188 261 173 148 L 164 78 C 178 71 192 66 208 64 C 223 61 239 60 256 60 Z" unicode="p" />
<glyph horiz-adv-x="514" d="M 345 -215 L 390 107 C 373 65 350 35 321 17 C 292 -1 263 -10 233 -10 C 186 -10 147 6 115 40 C 83 74 68 120 68 178 C 68 261 95 331 151 389 C 207 447 275 476 356 476 C 381 476 408 473 437 468 C 465 462 493 455 520 447 L 427 -215 L 345 -215 Z M 254 63 C 284 63 316 79 349 112 C 381 145 405 213 420 316 L 430 391 C 415 395 401 399 388 401 C 375 403 361 404 346 404 C 292 404 245 382 207 340 C 168 298 149 247 149 187 C 149 146 159 115 180 94 C 200 73 225 63 254 63 Z" unicode="q" />
<glyph horiz-adv-x="340" d="M 68 0 L 117 349 C 119 369 121 389 123 409 C 125 428 126 447 126 466 L 208 466 C 208 454 207 440 207 426 C 206 412 205 398 203 384 L 200 354 C 216 398 236 430 260 448 C 284 466 308 476 333 476 C 340 476 349 475 359 473 C 369 471 378 469 387 466 L 375 378 C 366 382 356 386 346 388 C 335 390 325 391 316 391 C 293 391 267 377 237 349 C 207 321 185 251 170 139 L 150 0 L 68 0 Z" unicode="r" />
<glyph horiz-adv-x="389" d="M 189 -10 C 167 -10 144 -7 118 -1 C 92 5 68 13 48 23 L 59 98 C 76 85 97 75 122 68 C 146 60 170 57 193 58 C 219 58 241 63 259 75 C 276 87 285 104 285 126 C 285 142 278 156 266 168 C 253 179 233 190 207 201 L 194 206 C 158 218 132 235 115 256 C 98 277 90 304 90 337 C 90 377 105 411 135 437 C 165 463 207 476 259 476 C 278 476 300 473 326 468 C 351 463 373 456 392 448 L 382 374 C 366 384 346 393 322 399 C 298 405 277 408 258 408 C 233 408 212 402 196 392 C 180 381 172 365 172 345 C 172 329 177 315 187 305 C 197 294 214 284 238 276 L 252 271 C 291 256 320 238 339 216 C 357 194 367 168 367 137 C 367 93 351 58 319 31 C 287 3 243 -10 189 -10 Z" unicode="s" />
<glyph horiz-adv-x="304" d="M 198 -9 C 162 -9 136 1 119 23 C 102 45 96 75 102 115 L 141 392 L 73 392 L 83 466 L 152 466 L 172 609 L 254 609 L 234 466 L 342 466 L 331 392 L 223 392 L 185 123 C 182 103 184 88 191 79 C 198 69 209 65 225 65 C 235 65 246 66 256 69 C 266 72 277 77 287 84 L 277 9 C 265 3 252 -1 238 -4 C 224 -7 210 -9 198 -9 Z" unicode="t" />
<glyph horiz-adv-x="504" d="M 215 -11 C 169 -11 133 4 107 36 C 81 67 72 109 81 163 L 110 342 C 114 365 117 387 119 407 C 121 427 122 446 122 466 L 204 466 C 204 444 203 423 201 403 C 199 382 196 361 192 339 L 167 185 C 160 145 164 114 179 94 C 193 74 216 64 246 64 C 274 64 304 80 334 114 C 364 147 387 214 401 316 L 422 466 L 504 466 L 456 120 C 453 99 451 78 450 58 C 448 38 448 18 448 0 L 366 0 C 366 12 366 25 367 39 C 367 53 368 66 370 79 L 374 112 C 355 68 331 36 302 17 C 273 -1 244 -11 215 -11 Z" unicode="u" />
<glyph horiz-adv-x="449" d="M 180 0 L 79 466 L 163 466 L 230 151 L 239 86 C 271 138 301 196 329 258 C 357 320 384 390 409 466 L 492 466 C 457 368 421 282 383 206 C 345 130 306 62 265 0 L 180 0 Z" unicode="v" />
<glyph horiz-adv-x="728" d="M 167 0 L 79 466 L 160 466 L 222 151 L 229 88 C 257 145 285 205 313 268 C 340 331 366 397 392 466 L 469 466 L 529 151 L 538 91 C 567 149 595 210 621 273 C 647 336 671 400 693 466 L 771 466 C 744 383 713 302 678 224 C 643 146 605 71 564 0 L 479 0 L 424 294 L 417 352 C 392 290 366 229 338 170 C 310 110 281 54 252 0 L 167 0 Z" unicode="w" />
<glyph horiz-adv-x="456" d="M 18 0 L 218 240 L 98 466 L 190 466 L 255 343 L 272 303 L 302 342 L 402 466 L 497 466 L 310 241 L 438 0 L 345 0 L 273 139 L 256 175 L 228 139 L 114 0 L 18 0 Z" unicode="x" />
<glyph horiz-adv-x="468" d="M 303 -6 C 253 -77 200 -130 144 -164 C 88 -198 27 -215 -39 -215 L -47 -215 L -37 -140 L -29 -140 C 14 -140 56 -129 97 -107 C 137 -85 172 -55 201 -19 L 79 466 L 168 466 L 244 152 L 261 51 C 292 105 321 166 349 236 C 376 306 401 382 425 466 L 509 466 C 477 363 445 272 411 194 C 377 115 341 48 303 -6 Z" unicode="y" />
<glyph horiz-adv-x="435" d="M 40 0 L 48 56 L 300 355 L 334 392 L 100 392 L 110 466 L 456 466 L 448 409 L 196 111 L 162 74 L 406 74 L 395 0 L 40 0 Z" unicode="z" />
<glyph horiz-adv-x="442" d="M 340 -215 C 268 -215 215 -199 182 -167 C 149 -135 140 -86 154 -21 L 177 91 C 183 126 177 154 158 175 C 138 195 108 209 66 216 L 77 289 C 121 295 155 309 180 330 C 205 350 219 378 222 414 L 229 526 C 233 591 256 640 298 672 C 340 704 397 720 469 720 L 493 720 L 482 648 L 458 648 C 412 648 377 637 352 615 C 326 593 312 560 310 515 L 304 414 C 301 370 287 334 261 308 C 235 282 202 263 162 253 L 162 252 C 199 240 227 220 245 194 C 263 167 267 133 259 91 L 238 -10 C 228 -55 233 -88 252 -110 C 271 -132 304 -143 350 -143 L 374 -143 L 364 -215 L 340 -215 Z" unicode="{" />
<glyph horiz-adv-x="207" d="M 37 -215 L 169 720 L 240 720 L 108 -215 L 37 -215 Z" unicode="|" />
<glyph horiz-adv-x="442" d="M 20 -215 L 30 -143 L 55 -143 C 100 -143 135 -132 161 -110 C 186 -88 200 -55 203 -10 L 209 91 C 211 132 224 166 249 194 C 274 221 308 240 350 252 L 350 253 C 313 264 286 284 268 312 C 250 340 245 374 254 414 L 275 515 C 284 560 279 593 260 615 C 241 637 209 648 163 648 L 139 648 L 149 720 L 173 720 C 245 720 297 704 330 672 C 363 640 373 591 359 526 L 336 414 C 328 378 334 350 354 330 C 374 309 405 295 447 289 L 436 216 C 392 209 357 195 332 175 C 307 154 293 126 291 91 L 284 -21 C 280 -86 257 -135 215 -167 C 173 -199 115 -215 43 -215 L 20 -215 Z" unicode="}" />
<glyph horiz-adv-x="372" d="M 113 146 L 60 146 C 66 182 78 209 94 227 C 110 245 132 255 159 255 C 171 255 183 252 195 248 C 206 243 218 235 231 225 C 241 217 249 211 256 207 C 263 203 270 202 277 202 C 287 202 297 206 305 214 C 313 222 318 233 322 248 L 375 248 C 368 212 356 184 340 166 C 324 148 303 139 277 139 C 263 139 250 141 239 146 C 227 150 216 158 204 169 C 194 177 186 182 179 186 C 171 190 164 192 158 192 C 147 192 138 188 130 180 C 122 172 116 160 113 146 Z" unicode="~" />
<glyph horiz-adv-x="223" d="M 129 428 L 142 512 L 226 512 L 214 428 L 129 428 Z M 44 -205 L 118 322 L 197 322 L 123 -205 L 44 -205 Z" unicode="¡" />
<glyph horiz-adv-x="464" d="M 214 -109 L 229 -5 C 180 5 141 28 113 64 C 84 100 70 144 70 196 C 70 270 90 332 132 383 C 174 434 228 464 296 473 L 310 575 L 379 575 L 365 475 C 385 473 405 468 424 462 C 443 456 462 447 481 437 L 470 357 C 450 369 431 379 413 387 C 394 394 374 399 354 401 L 307 64 C 331 65 353 70 375 78 C 396 86 417 98 438 113 L 426 31 C 405 18 384 8 363 2 C 341 -4 319 -8 297 -10 L 283 -109 L 214 -109 Z M 151 203 C 151 170 158 142 174 119 C 190 96 211 80 239 72 L 285 397 C 244 387 211 364 187 329 C 163 294 151 252 151 203 Z" unicode="¢" />
<glyph horiz-adv-x="524" d="M 59 0 L 71 80 C 107 100 136 129 157 167 C 177 204 186 248 184 298 L 92 298 L 102 373 L 178 373 L 176 403 C 169 485 185 551 224 600 C 262 648 322 673 404 673 C 434 673 462 669 490 662 C 517 654 542 644 566 632 L 554 550 C 532 566 508 579 482 587 C 456 595 430 599 404 599 C 354 599 316 582 290 549 C 264 515 253 468 258 406 L 261 373 L 420 373 L 410 298 L 267 298 C 269 254 262 213 246 176 C 230 138 206 106 172 80 L 481 80 L 469 0 L 59 0 Z" unicode="£" />
<glyph horiz-adv-x="625" d="M 118 36 L 62 102 L 184 209 C 179 219 175 231 172 243 C 169 255 168 267 168 280 C 168 304 171 326 177 347 C 183 367 192 386 203 403 L 116 506 L 190 571 L 278 469 C 263 461 249 452 236 441 C 223 429 212 417 203 403 L 226 377 L 300 443 L 278 469 C 292 475 308 481 324 485 C 340 489 357 491 375 491 C 393 491 411 488 428 483 C 445 478 460 471 474 462 L 451 442 L 507 376 L 531 397 C 525 410 517 422 507 433 C 497 444 486 454 474 462 L 598 570 L 654 505 L 531 397 C 535 386 539 375 542 363 C 545 351 547 338 547 326 C 547 301 543 278 537 256 C 530 234 521 215 509 199 L 593 101 L 519 36 L 433 135 C 419 128 405 123 389 120 C 373 116 357 115 341 115 C 322 115 304 117 287 122 C 270 127 255 134 241 144 L 118 36 Z M 349 189 C 384 189 413 201 436 226 C 459 250 471 280 471 315 C 471 343 461 366 441 386 C 421 406 396 416 366 416 C 330 416 300 403 278 379 C 255 354 244 325 244 291 C 244 262 253 238 273 218 C 293 198 318 189 349 189 Z" unicode="¤" />
<glyph horiz-adv-x="590" d="M 167 121 L 175 180 L 278 180 L 286 238 L 183 238 L 191 297 L 284 297 L 104 658 L 198 658 L 321 414 L 344 360 L 381 414 L 570 658 L 669 658 L 388 297 L 482 297 L 473 238 L 369 238 L 361 180 L 465 180 L 457 121 L 353 121 L 336 0 L 252 0 L 269 121 L 167 121 Z" unicode="¥" />
<glyph horiz-adv-x="207" d="M 112 312 L 169 720 L 240 720 L 183 312 L 112 312 Z M 37 -215 L 95 193 L 166 193 L 108 -215 L 37 -215 Z" unicode="¦" />
<glyph horiz-adv-x="412" d="M 199 -12 C 172 -12 147 -9 125 -3 C 102 3 80 11 60 23 L 70 95 C 89 80 109 69 130 62 C 151 55 174 52 200 52 C 230 52 254 58 271 72 C 288 86 297 105 297 130 C 297 146 290 161 278 174 C 265 186 245 197 217 207 L 203 212 C 171 222 145 237 127 255 C 109 273 100 297 100 328 C 100 350 105 371 117 391 C 128 411 145 427 167 440 C 154 450 144 463 138 478 C 131 492 128 508 128 525 C 128 568 142 603 171 630 C 200 656 242 670 296 670 C 320 670 344 667 366 663 C 388 658 409 650 429 640 L 419 570 C 401 582 381 592 361 598 C 341 604 319 607 297 607 C 269 607 247 600 232 588 C 216 575 209 557 209 535 C 209 521 214 508 225 498 C 235 487 253 477 277 469 L 290 465 C 326 452 355 436 375 416 C 395 396 406 370 406 340 C 406 316 400 295 390 275 C 379 255 363 239 341 227 C 353 215 363 202 369 188 C 375 174 378 159 378 143 C 378 97 362 59 332 31 C 301 2 257 -12 199 -12 Z M 288 206 C 298 208 307 211 316 215 C 325 218 333 222 341 227 C 334 233 326 239 318 245 C 309 251 299 256 289 261 C 301 267 309 276 315 287 C 321 298 324 311 324 325 C 324 341 317 356 305 368 C 293 380 273 390 246 400 L 232 405 C 230 405 228 406 226 407 C 224 407 222 408 221 409 C 224 411 228 412 233 414 C 237 416 242 417 247 418 L 216 458 C 206 456 197 453 189 450 C 181 447 173 444 167 440 C 173 433 181 427 191 422 C 200 417 210 413 221 409 C 208 402 198 392 192 380 C 185 367 182 354 182 341 C 182 327 187 314 197 304 C 207 293 224 284 248 276 L 261 272 C 265 270 270 269 275 267 C 279 265 284 263 289 261 C 285 258 280 256 275 254 C 269 252 264 250 258 250 L 288 206 Z" unicode="§" />
<glyph horiz-adv-x="266" d="M 91 535 L 103 616 L 184 616 L 173 535 L 91 535 Z M 247 535 L 258 616 L 340 616 L 329 535 L 247 535 Z" unicode="¨" />
<glyph horiz-adv-x="673" d="M 367 107 C 291 107 227 132 176 183 C 125 234 100 297 100 373 C 100 463 129 539 189 603 C 248 667 324 699 417 699 C 493 699 556 673 607 623 C 658 572 684 509 684 434 C 684 344 654 267 595 203 C 535 139 459 107 367 107 Z M 368 155 C 441 155 504 181 556 233 C 608 285 634 351 634 431 C 634 494 612 546 570 588 C 527 630 476 651 416 651 C 342 651 280 625 228 573 C 176 521 150 454 150 374 C 150 312 171 260 214 218 C 256 176 308 155 368 155 Z M 384 227 C 338 227 300 241 272 270 C 244 299 230 335 230 379 C 230 437 248 485 285 523 C 322 561 369 580 426 580 C 444 580 461 577 479 573 C 496 568 512 561 526 553 L 518 498 C 504 508 489 515 472 521 C 455 526 438 529 422 529 C 380 529 346 515 322 488 C 298 461 286 426 286 383 C 286 353 295 328 314 308 C 332 288 357 278 388 278 C 406 278 424 280 443 286 C 461 292 478 300 494 311 L 486 256 C 470 247 452 240 434 235 C 416 229 399 227 384 227 Z" unicode="©" />
<glyph horiz-adv-x="442" d="M 252 357 C 218 357 189 370 166 396 C 142 422 131 458 131 502 C 131 566 152 621 196 667 C 239 712 292 735 354 735 C 374 735 395 733 417 729 C 439 725 459 719 479 712 L 445 472 C 442 454 440 436 438 419 C 436 401 436 384 436 366 L 369 366 C 369 376 369 386 370 396 C 370 406 371 417 372 427 L 374 448 C 360 415 342 392 320 378 C 297 364 274 357 252 357 Z M 271 418 C 291 418 314 428 340 450 C 365 472 384 526 397 612 L 405 665 C 394 669 384 671 374 673 C 364 674 354 675 344 675 C 306 675 272 658 243 626 C 213 593 199 554 199 510 C 199 480 206 457 220 441 C 234 425 251 418 271 418 Z M 98 233 L 107 299 L 424 299 L 415 233 L 98 233 Z" unicode="ª" />
<glyph horiz-adv-x="508" d="M 384 67 L 255 226 L 428 386 L 522 386 L 350 226 L 478 67 L 384 67 Z M 201 67 L 72 226 L 245 386 L 339 386 L 167 226 L 295 67 L 201 67 Z" unicode="«" />
<glyph horiz-adv-x="425" d="M 340 156 L 354 257 L 72 257 L 82 329 L 430 329 L 406 156 L 340 156 Z" unicode="¬" />
<glyph horiz-adv-x="367" d="M 72 200 L 82 272 L 362 272 L 352 200 L 72 200 Z" unicode="­" />
<glyph horiz-adv-x="673" d="M 367 107 C 291 107 227 132 176 183 C 125 234 100 297 100 373 C 100 463 129 539 189 603 C 248 667 324 699 417 699 C 493 699 556 673 607 623 C 658 572 684 509 684 434 C 684 344 654 267 595 203 C 535 139 459 107 367 107 Z M 368 155 C 441 155 504 181 556 233 C 608 285 634 351 634 431 C 634 494 612 546 570 588 C 527 630 476 651 416 651 C 342 651 280 625 228 573 C 176 521 150 454 150 374 C 150 312 171 260 214 218 C 256 176 308 155 368 155 Z M 267 233 L 316 576 L 409 576 C 440 576 465 568 483 554 C 501 539 510 519 510 494 C 510 470 501 449 484 431 C 467 413 446 403 422 401 C 433 398 443 392 451 384 C 459 375 465 365 469 353 L 510 233 L 451 233 L 417 333 C 412 347 405 359 397 367 C 388 375 377 379 365 379 L 342 379 L 322 233 L 267 233 Z M 349 426 L 386 426 C 406 426 423 431 435 442 C 447 453 454 467 454 484 C 454 496 449 507 440 516 C 430 524 417 529 401 529 L 363 529 L 349 426 Z" unicode="®" />
<glyph horiz-adv-x="383" d="M 154 532 L 163 598 L 391 598 L 381 532 L 154 532 Z" unicode="¯" />
<glyph horiz-adv-x="349" d="M 248 473 C 212 473 183 484 163 507 C 143 529 133 556 133 587 C 133 629 146 663 174 689 C 201 715 234 729 272 729 C 308 729 336 717 357 695 C 377 672 388 645 388 615 C 388 573 374 539 346 513 C 318 486 286 473 248 473 Z M 252 529 C 274 529 292 537 307 553 C 322 569 330 587 330 609 C 330 627 324 643 312 655 C 300 667 285 673 268 673 C 245 673 226 665 212 649 C 197 633 190 615 190 593 C 190 574 195 559 207 547 C 219 535 234 529 252 529 Z" unicode="°" />
<glyph horiz-adv-x="511" d="M 228 76 L 253 255 L 82 255 L 92 326 L 264 326 L 289 505 L 363 505 L 338 326 L 508 326 L 498 255 L 327 255 L 302 76 L 228 76 Z M 35 -72 L 45 0 L 475 0 L 465 -72 L 35 -72 Z" unicode="±" />
<glyph horiz-adv-x="310" d="M 92 440 L 104 521 C 176 556 227 587 258 613 C 288 639 304 665 304 689 C 304 707 298 721 286 731 C 274 741 258 746 237 746 C 220 746 203 743 186 738 C 169 732 152 724 136 714 L 146 784 C 163 791 181 797 199 801 C 217 805 236 808 257 808 C 295 808 324 799 346 781 C 368 763 379 738 379 704 C 379 666 360 630 324 598 C 288 565 233 533 160 503 L 352 503 L 343 440 L 92 440 Z" unicode="²" />
<glyph horiz-adv-x="302" d="M 209 432 C 188 432 168 434 149 439 C 130 444 112 452 95 462 L 104 529 C 118 517 134 508 152 502 C 169 496 187 493 206 493 C 228 493 245 498 257 508 C 269 518 275 530 275 545 C 275 559 268 571 256 581 C 243 590 224 595 198 595 L 178 595 L 186 652 L 203 652 C 231 652 252 657 267 668 C 281 679 289 692 289 707 C 289 719 284 729 275 736 C 266 743 253 747 237 747 C 220 747 204 744 188 740 C 172 735 156 728 141 718 L 151 783 C 167 791 184 797 202 801 C 219 805 236 808 254 808 C 290 808 317 800 336 784 C 355 768 365 746 365 720 C 365 698 357 678 341 661 C 325 643 304 631 278 625 C 299 620 316 610 328 596 C 340 581 347 564 347 545 C 347 511 335 484 311 463 C 287 442 253 432 209 432 Z" unicode="³" />
<glyph horiz-adv-x="238" d="M 111 524 L 227 661 L 323 661 L 198 524 L 111 524 Z" unicode="´" />
<glyph horiz-adv-x="451" d="M 135 0 L 198 455 C 169 455 146 463 129 479 C 112 495 104 517 104 543 C 104 575 116 603 140 625 C 164 647 196 658 236 658 L 473 658 L 381 0 L 300 0 L 383 586 L 297 586 L 215 0 L 135 0 Z" unicode="¶" />
<glyph horiz-adv-x="187" d="M 76 188 L 88 272 L 172 272 L 160 188 L 76 188 Z" unicode="·" />
<glyph horiz-adv-x="227" d="M 92 -212 C 81 -212 70 -210 60 -208 C 49 -205 39 -201 30 -197 L 37 -146 C 44 -151 52 -155 62 -158 C 72 -161 81 -163 91 -163 C 103 -163 113 -159 121 -153 C 129 -146 133 -137 133 -126 C 133 -116 129 -107 122 -101 C 115 -95 106 -92 95 -92 L 89 -92 L 95 -44 L 101 -44 C 128 -44 150 -51 166 -65 C 182 -79 190 -99 190 -123 C 190 -149 180 -170 162 -187 C 144 -203 120 -212 92 -212 Z" unicode="¸" />
<glyph horiz-adv-x="293" d="M 101 440 L 109 500 L 187 500 L 221 740 L 132 727 L 141 789 L 302 813 L 258 500 L 336 500 L 328 440 L 101 440 Z" unicode="¹" />
<glyph horiz-adv-x="465" d="M 288 358 C 240 358 202 373 175 403 C 147 433 134 473 134 522 C 134 579 151 629 185 672 C 219 714 267 736 330 736 C 377 736 414 721 442 691 C 470 661 484 621 484 573 C 484 516 466 466 432 423 C 398 379 350 358 288 358 Z M 295 419 C 331 419 359 433 381 461 C 403 489 414 524 414 566 C 414 598 405 625 389 645 C 373 665 351 675 323 675 C 286 675 257 660 236 632 C 214 603 204 568 204 528 C 204 494 212 468 228 448 C 244 428 267 419 295 419 Z M 97 233 L 105 299 L 431 299 L 422 233 L 97 233 Z" unicode="º" />
<glyph horiz-adv-x="509" d="M 47 67 L 219 226 L 90 386 L 184 386 L 314 226 L 141 67 L 47 67 Z M 230 67 L 402 226 L 273 386 L 367 386 L 497 226 L 323 67 L 230 67 Z" unicode="»" />
<glyph horiz-adv-x="714" d="M 40 360 L 48 420 L 126 420 L 159 653 L 121 647 L 122 654 L 71 647 L 80 709 L 241 733 L 240 725 L 291 733 L 247 420 L 325 420 L 317 360 L 40 360 Z M 188 0 L 573 720 L 646 720 L 261 0 L 188 0 Z M 568 0 L 580 84 L 415 84 L 422 132 L 593 360 L 688 360 L 657 142 L 709 142 L 702 84 L 648 84 L 636 0 L 568 0 Z M 589 142 L 611 300 L 492 142 L 589 142 Z" unicode="¼" />
<glyph horiz-adv-x="713" d="M 40 360 L 48 420 L 126 420 L 159 653 L 121 647 L 122 654 L 71 647 L 80 709 L 241 733 L 240 725 L 291 733 L 247 420 L 325 420 L 317 360 L 40 360 Z M 188 0 L 573 720 L 646 720 L 261 0 L 188 0 Z M 431 0 L 443 81 C 515 116 566 147 597 173 C 627 199 643 225 643 249 C 643 267 637 281 625 291 C 613 301 597 306 576 306 C 559 306 542 303 525 298 C 508 292 491 284 475 274 L 485 344 C 502 351 520 357 538 361 C 556 365 575 368 596 368 C 634 368 663 359 685 341 C 707 323 718 298 718 264 C 718 226 699 190 663 158 C 627 125 572 93 499 63 L 691 63 L 682 0 L 431 0 Z" unicode="½" />
<glyph horiz-adv-x="691" d="M 198 352 C 177 352 157 354 138 359 C 119 364 101 372 84 382 L 93 449 C 107 437 123 428 141 422 C 158 416 176 413 195 413 C 217 413 234 418 246 428 C 258 438 264 450 264 465 C 264 479 257 491 245 501 C 232 510 213 515 187 515 L 167 515 L 175 572 L 192 572 C 220 572 241 577 256 588 C 270 599 278 612 278 627 C 278 639 273 649 264 656 C 255 663 242 667 226 667 C 209 667 193 664 177 660 C 161 655 145 648 130 638 L 140 703 C 156 711 173 717 191 721 C 208 725 225 728 243 728 C 279 728 306 720 325 704 C 344 688 354 666 354 640 C 354 618 346 598 330 581 C 314 563 293 551 267 545 C 288 540 305 530 317 516 C 329 501 336 484 336 465 C 336 431 324 404 300 383 C 276 362 242 352 198 352 Z M 174 0 L 559 720 L 632 720 L 247 0 L 174 0 Z M 546 0 L 558 84 L 393 84 L 400 132 L 571 360 L 666 360 L 635 142 L 687 142 L 680 84 L 626 84 L 614 0 L 546 0 Z M 567 142 L 589 300 L 470 142 L 567 142 Z" unicode="¾" />
<glyph horiz-adv-x="438" d="M 261 429 L 272 512 L 356 512 L 344 429 L 261 429 Z M 211 -210 C 157 -210 115 -195 83 -167 C 51 -139 36 -102 36 -56 C 36 -22 45 10 65 43 C 85 76 113 110 150 144 C 182 174 205 202 221 229 C 237 256 247 288 252 324 L 328 324 C 322 278 310 240 292 208 C 274 176 247 143 211 110 C 179 79 156 52 142 28 C 128 4 122 -18 122 -41 C 122 -68 131 -91 151 -109 C 170 -127 197 -136 233 -136 C 260 -136 288 -131 316 -123 C 344 -114 370 -101 393 -85 L 380 -170 C 356 -182 330 -192 301 -199 C 271 -206 241 -210 211 -210 Z" unicode="¿" />
<glyph horiz-adv-x="639" d="M 388 715 L 295 845 L 380 845 L 466 715 L 388 715 Z M 18 0 L 373 664 L 452 664 L 621 0 L 534 0 L 485 197 L 208 197 L 104 0 L 18 0 Z M 246 271 L 467 271 L 414 488 L 398 563 L 361 488 L 246 271 Z" unicode="À" />
<glyph horiz-adv-x="639" d="M 366 715 L 476 845 L 566 845 L 448 715 L 366 715 Z M 18 0 L 373 664 L 452 664 L 621 0 L 534 0 L 485 197 L 208 197 L 104 0 L 18 0 Z M 246 271 L 467 271 L 414 488 L 398 563 L 361 488 L 246 271 Z" unicode="Á" />
<glyph horiz-adv-x="639" d="M 292 715 L 403 842 L 464 842 L 540 715 L 474 715 L 428 789 L 361 715 L 292 715 Z M 18 0 L 373 664 L 452 664 L 621 0 L 534 0 L 485 197 L 208 197 L 104 0 L 18 0 Z M 246 271 L 467 271 L 414 488 L 398 563 L 361 488 L 246 271 Z" unicode="Â" />
<glyph horiz-adv-x="639" d="M 322 715 L 274 715 C 280 749 290 774 306 791 C 321 808 341 817 367 817 C 379 817 391 814 402 810 C 412 806 424 799 436 789 C 445 781 453 776 460 772 C 466 768 473 766 480 766 C 490 766 499 769 507 777 C 515 785 520 796 524 811 L 572 811 C 565 777 554 751 539 734 C 523 717 503 709 479 709 C 466 709 454 711 443 715 C 432 719 421 727 410 737 C 401 745 393 750 386 754 C 379 758 372 760 366 760 C 355 760 346 756 338 749 C 330 741 325 730 322 715 Z M 18 0 L 373 664 L 452 664 L 621 0 L 534 0 L 485 197 L 208 197 L 104 0 L 18 0 Z M 246 271 L 467 271 L 414 488 L 398 563 L 361 488 L 246 271 Z" unicode="Ã" />
<glyph horiz-adv-x="639" d="M 305 715 L 315 791 L 391 791 L 380 715 L 305 715 Z M 451 715 L 462 791 L 538 791 L 527 715 L 451 715 Z M 18 0 L 373 664 L 452 664 L 621 0 L 534 0 L 485 197 L 208 197 L 104 0 L 18 0 Z M 246 271 L 467 271 L 414 488 L 398 563 L 361 488 L 246 271 Z" unicode="Ä" />
<glyph horiz-adv-x="639" d="M 18 0 L 359 637 C 350 644 343 653 338 663 C 333 673 331 685 331 698 C 331 724 339 746 357 764 C 375 782 397 791 423 791 C 447 791 466 783 481 768 C 496 753 504 735 504 713 C 504 695 500 679 492 665 C 484 651 473 640 460 632 L 621 0 L 534 0 L 485 197 L 208 197 L 104 0 L 18 0 Z M 413 664 C 425 664 436 668 444 677 C 452 685 457 696 457 710 C 457 720 453 729 446 736 C 439 743 430 747 420 747 C 408 747 397 742 389 733 C 380 724 376 713 376 701 C 376 690 379 681 386 674 C 393 667 402 664 413 664 Z M 246 271 L 467 271 L 414 488 L 398 563 L 361 488 L 246 271 Z" unicode="Å" />
<glyph horiz-adv-x="884" d="M 4 0 L 426 658 L 907 658 L 888 526 L 632 526 L 614 399 L 861 399 L 842 267 L 596 267 L 577 132 L 843 132 L 824 0 L 418 0 L 440 160 L 260 160 L 158 0 L 4 0 Z M 345 292 L 459 292 L 492 525 L 419 408 L 345 292 Z" unicode="Æ" />
<glyph horiz-adv-x="665" d="M 416 -14 C 316 -14 238 15 181 73 C 123 131 95 202 95 288 C 95 398 131 489 205 562 C 278 635 372 672 487 672 C 524 672 560 667 596 659 C 632 650 666 637 700 619 L 688 534 C 656 553 623 568 589 578 C 555 588 519 594 481 594 C 393 594 322 565 266 509 C 210 452 182 380 182 293 C 182 225 204 170 248 128 C 292 85 351 64 423 64 C 461 64 498 69 533 80 C 568 90 603 106 639 127 L 626 39 C 591 21 556 7 521 -1 C 486 -9 451 -14 416 -14 Z M 384 -206 C 373 -206 363 -204 353 -202 C 343 -200 333 -196 325 -192 L 331 -144 C 337 -149 345 -153 354 -156 C 363 -159 372 -161 382 -161 C 394 -161 403 -157 411 -151 C 418 -144 422 -135 422 -125 C 422 -115 418 -108 411 -102 C 404 -96 395 -93 385 -93 L 377 -93 L 384 -48 L 391 -48 C 415 -48 435 -54 451 -68 C 467 -82 475 -100 475 -122 C 475 -146 466 -166 449 -182 C 431 -198 410 -206 384 -206 Z" unicode="Ç" />
<glyph horiz-adv-x="503" d="M 328 715 L 235 845 L 320 845 L 406 715 L 328 715 Z M 72 0 L 164 658 L 522 658 L 511 579 L 237 579 L 208 373 L 474 373 L 463 294 L 197 294 L 167 79 L 456 79 L 445 0 L 72 0 Z" unicode="È" />
<glyph horiz-adv-x="503" d="M 306 715 L 416 845 L 506 845 L 388 715 L 306 715 Z M 72 0 L 164 658 L 522 658 L 511 579 L 237 579 L 208 373 L 474 373 L 463 294 L 197 294 L 167 79 L 456 79 L 445 0 L 72 0 Z" unicode="É" />
<glyph horiz-adv-x="503" d="M 232 715 L 343 842 L 404 842 L 480 715 L 414 715 L 368 789 L 301 715 L 232 715 Z M 72 0 L 164 658 L 522 658 L 511 579 L 237 579 L 208 373 L 474 373 L 463 294 L 197 294 L 167 79 L 456 79 L 445 0 L 72 0 Z" unicode="Ê" />
<glyph horiz-adv-x="503" d="M 245 715 L 255 791 L 331 791 L 320 715 L 245 715 Z M 391 715 L 402 791 L 478 791 L 467 715 L 391 715 Z M 72 0 L 164 658 L 522 658 L 511 579 L 237 579 L 208 373 L 474 373 L 463 294 L 197 294 L 167 79 L 456 79 L 445 0 L 72 0 Z" unicode="Ë" />
<glyph horiz-adv-x="229" d="M 186 715 L 93 845 L 178 845 L 264 715 L 186 715 Z M 72 0 L 164 658 L 249 658 L 157 0 L 72 0 Z" unicode="Ì" />
<glyph horiz-adv-x="229" d="M 164 715 L 274 845 L 364 845 L 246 715 L 164 715 Z M 72 0 L 164 658 L 249 658 L 157 0 L 72 0 Z" unicode="Í" />
<glyph horiz-adv-x="229" d="M 90 715 L 201 842 L 262 842 L 338 715 L 272 715 L 226 789 L 159 715 L 90 715 Z M 72 0 L 164 658 L 249 658 L 157 0 L 72 0 Z" unicode="Î" />
<glyph horiz-adv-x="229" d="M 103 715 L 113 791 L 189 791 L 178 715 L 103 715 Z M 249 715 L 260 791 L 336 791 L 325 715 L 249 715 Z M 72 0 L 164 658 L 249 658 L 157 0 L 72 0 Z" unicode="Ï" />
<glyph horiz-adv-x="706" d="M 82 0 L 123 293 L 69 293 L 79 366 L 133 366 L 174 658 L 378 658 C 478 658 557 631 615 577 C 673 523 702 455 702 372 C 702 264 664 175 588 105 C 512 35 411 0 283 0 L 82 0 Z M 178 79 L 293 79 C 392 79 471 106 529 160 C 587 214 616 284 616 368 C 616 430 594 480 550 520 C 506 559 447 579 372 579 L 248 579 L 218 366 L 338 366 L 328 293 L 208 293 L 178 79 Z" unicode="Ð" />
<glyph horiz-adv-x="706" d="M 351 715 L 303 715 C 309 749 319 774 335 791 C 350 808 370 817 396 817 C 408 817 420 814 431 810 C 441 806 453 799 465 789 C 474 781 482 776 489 772 C 495 768 502 766 509 766 C 519 766 528 769 536 777 C 544 785 549 796 553 811 L 601 811 C 594 777 583 751 568 734 C 552 717 532 709 508 709 C 495 709 483 711 472 715 C 461 719 450 727 439 737 C 430 745 422 750 415 754 C 408 758 401 760 395 760 C 384 760 375 756 367 749 C 359 741 354 730 351 715 Z M 72 0 L 164 658 L 252 658 L 540 178 L 572 120 L 579 178 L 646 658 L 726 658 L 634 0 L 547 0 L 258 483 L 227 540 L 219 483 L 152 0 L 72 0 Z" unicode="Ñ" />
<glyph horiz-adv-x="772" d="M 445 723 L 352 853 L 437 853 L 523 723 L 445 723 Z M 403 -15 C 311 -15 236 13 180 69 C 123 125 95 198 95 288 C 95 396 128 488 195 562 C 262 636 351 673 461 673 C 552 673 626 644 683 588 C 740 532 769 459 769 369 C 769 261 735 170 667 96 C 599 22 511 -15 403 -15 Z M 405 64 C 487 64 553 92 605 149 C 657 206 683 278 683 366 C 683 430 663 484 623 528 C 583 572 528 594 459 594 C 377 594 310 565 259 509 C 207 452 182 380 182 292 C 182 228 201 174 241 130 C 281 86 335 64 405 64 Z" unicode="Ò" />
<glyph horiz-adv-x="772" d="M 423 723 L 533 853 L 623 853 L 505 723 L 423 723 Z M 403 -15 C 311 -15 236 13 180 69 C 123 125 95 198 95 288 C 95 396 128 488 195 562 C 262 636 351 673 461 673 C 552 673 626 644 683 588 C 740 532 769 459 769 369 C 769 261 735 170 667 96 C 599 22 511 -15 403 -15 Z M 405 64 C 487 64 553 92 605 149 C 657 206 683 278 683 366 C 683 430 663 484 623 528 C 583 572 528 594 459 594 C 377 594 310 565 259 509 C 207 452 182 380 182 292 C 182 228 201 174 241 130 C 281 86 335 64 405 64 Z" unicode="Ó" />
<glyph horiz-adv-x="772" d="M 349 723 L 460 850 L 521 850 L 597 723 L 531 723 L 485 797 L 418 723 L 349 723 Z M 403 -15 C 311 -15 236 13 180 69 C 123 125 95 198 95 288 C 95 396 128 488 195 562 C 262 636 351 673 461 673 C 552 673 626 644 683 588 C 740 532 769 459 769 369 C 769 261 735 170 667 96 C 599 22 511 -15 403 -15 Z M 405 64 C 487 64 553 92 605 149 C 657 206 683 278 683 366 C 683 430 663 484 623 528 C 583 572 528 594 459 594 C 377 594 310 565 259 509 C 207 452 182 380 182 292 C 182 228 201 174 241 130 C 281 86 335 64 405 64 Z" unicode="Ô" />
<glyph horiz-adv-x="772" d="M 379 723 L 331 723 C 337 757 347 782 363 799 C 378 816 398 825 424 825 C 436 825 448 822 459 818 C 469 814 481 807 493 797 C 502 789 510 784 517 780 C 523 776 530 774 537 774 C 547 774 556 777 564 785 C 572 793 577 804 581 819 L 629 819 C 622 785 611 759 596 742 C 580 725 560 717 536 717 C 523 717 511 719 500 723 C 489 727 478 735 467 745 C 458 753 450 758 443 762 C 436 766 429 768 423 768 C 412 768 403 764 395 757 C 387 749 382 738 379 723 Z M 403 -15 C 311 -15 236 13 180 69 C 123 125 95 198 95 288 C 95 396 128 488 195 562 C 262 636 351 673 461 673 C 552 673 626 644 683 588 C 740 532 769 459 769 369 C 769 261 735 170 667 96 C 599 22 511 -15 403 -15 Z M 405 64 C 487 64 553 92 605 149 C 657 206 683 278 683 366 C 683 430 663 484 623 528 C 583 572 528 594 459 594 C 377 594 310 565 259 509 C 207 452 182 380 182 292 C 182 228 201 174 241 130 C 281 86 335 64 405 64 Z" unicode="Õ" />
<glyph horiz-adv-x="772" d="M 362 723 L 372 799 L 448 799 L 437 723 L 362 723 Z M 508 723 L 519 799 L 595 799 L 584 723 L 508 723 Z M 403 -15 C 311 -15 236 13 180 69 C 123 125 95 198 95 288 C 95 396 128 488 195 562 C 262 636 351 673 461 673 C 552 673 626 644 683 588 C 740 532 769 459 769 369 C 769 261 735 170 667 96 C 599 22 511 -15 403 -15 Z M 405 64 C 487 64 553 92 605 149 C 657 206 683 278 683 366 C 683 430 663 484 623 528 C 583 572 528 594 459 594 C 377 594 310 565 259 509 C 207 452 182 380 182 292 C 182 228 201 174 241 130 C 281 86 335 64 405 64 Z" unicode="Ö" />
<glyph horiz-adv-x="512" d="M 140 95 L 89 153 L 241 287 L 120 428 L 178 479 L 300 338 L 458 476 L 509 418 L 351 280 L 468 143 L 410 92 L 293 228 L 140 95 Z" unicode="×" />
<glyph horiz-adv-x="772" d="M 138 -48 L 203 49 C 169 75 142 109 123 151 C 104 192 95 238 95 289 C 95 397 128 489 195 563 C 262 637 351 674 461 674 C 487 674 511 671 535 666 C 558 661 580 654 601 646 L 641 706 L 727 706 L 662 609 C 696 582 722 548 741 507 C 759 466 769 420 769 370 C 769 262 735 171 667 97 C 599 23 511 -14 403 -14 C 377 -14 353 -11 330 -7 C 306 -2 285 4 265 13 L 224 -48 L 138 -48 Z M 182 293 C 182 258 187 226 199 196 C 211 166 228 141 251 121 L 555 577 C 541 582 526 586 510 590 C 494 593 477 595 459 595 C 377 595 310 566 259 510 C 207 453 182 381 182 293 Z M 405 65 C 487 65 553 93 605 150 C 657 207 683 279 683 367 C 683 401 677 432 665 462 C 653 492 637 517 615 538 L 311 83 C 325 77 339 72 355 69 C 371 66 387 65 405 65 Z" unicode="Ø" />
<glyph horiz-adv-x="667" d="M 406 715 L 313 845 L 398 845 L 484 715 L 406 715 Z M 351 -12 C 262 -12 196 13 152 63 C 108 113 92 177 103 255 L 159 658 L 243 658 L 186 253 C 178 195 188 150 218 117 C 247 83 292 67 353 67 C 407 67 452 84 490 118 C 527 152 550 197 558 253 L 615 658 L 693 658 L 636 251 C 624 167 593 103 541 57 C 489 11 425 -12 351 -12 Z" unicode="Ù" />
<glyph horiz-adv-x="667" d="M 384 715 L 494 845 L 584 845 L 466 715 L 384 715 Z M 351 -12 C 262 -12 196 13 152 63 C 108 113 92 177 103 255 L 159 658 L 243 658 L 186 253 C 178 195 188 150 218 117 C 247 83 292 67 353 67 C 407 67 452 84 490 118 C 527 152 550 197 558 253 L 615 658 L 693 658 L 636 251 C 624 167 593 103 541 57 C 489 11 425 -12 351 -12 Z" unicode="Ú" />
<glyph horiz-adv-x="667" d="M 310 715 L 421 842 L 482 842 L 558 715 L 492 715 L 446 789 L 379 715 L 310 715 Z M 351 -12 C 262 -12 196 13 152 63 C 108 113 92 177 103 255 L 159 658 L 243 658 L 186 253 C 178 195 188 150 218 117 C 247 83 292 67 353 67 C 407 67 452 84 490 118 C 527 152 550 197 558 253 L 615 658 L 693 658 L 636 251 C 624 167 593 103 541 57 C 489 11 425 -12 351 -12 Z" unicode="Û" />
<glyph horiz-adv-x="667" d="M 323 715 L 333 791 L 409 791 L 398 715 L 323 715 Z M 469 715 L 480 791 L 556 791 L 545 715 L 469 715 Z M 351 -12 C 262 -12 196 13 152 63 C 108 113 92 177 103 255 L 159 658 L 243 658 L 186 253 C 178 195 188 150 218 117 C 247 83 292 67 353 67 C 407 67 452 84 490 118 C 527 152 550 197 558 253 L 615 658 L 693 658 L 636 251 C 624 167 593 103 541 57 C 489 11 425 -12 351 -12 Z" unicode="Ü" />
<glyph horiz-adv-x="591" d="M 334 715 L 444 845 L 534 845 L 416 715 L 334 715 Z M 252 0 L 292 280 L 104 658 L 198 658 L 321 414 L 344 360 L 381 414 L 570 658 L 669 658 L 375 281 L 336 0 L 252 0 Z" unicode="Ý" />
<glyph horiz-adv-x="493" d="M 72 0 L 164 658 L 249 658 L 233 543 L 282 543 C 348 543 400 527 439 495 C 477 463 497 419 497 364 C 497 293 472 235 424 191 C 376 147 313 125 237 125 L 174 125 L 156 0 L 72 0 Z M 185 202 L 243 202 C 293 202 333 215 364 243 C 395 271 411 306 411 350 C 411 385 399 413 376 434 C 352 455 319 466 275 466 L 222 466 L 185 202 Z" unicode="Þ" />
<glyph horiz-adv-x="553" d="M 60 0 L 129 491 C 140 571 166 631 206 671 C 246 711 299 731 364 731 C 423 731 470 711 505 671 C 540 631 557 577 557 509 C 557 486 556 463 552 440 C 548 416 543 396 539 380 C 521 388 502 395 484 400 C 465 405 446 408 428 408 C 401 408 380 402 365 390 C 349 378 342 362 342 342 C 342 325 347 312 357 302 C 367 292 382 283 402 276 L 417 271 C 453 258 481 240 501 218 C 520 196 530 169 530 139 C 530 93 514 57 483 30 C 451 3 409 -10 355 -10 C 334 -10 311 -7 286 -1 C 260 4 238 11 220 19 L 230 94 C 246 83 266 74 290 68 C 314 61 336 58 357 58 C 385 58 408 64 424 76 C 440 88 449 104 449 126 C 449 143 442 158 430 170 C 417 182 398 192 374 201 L 360 206 C 326 218 301 234 285 254 C 269 274 261 300 261 331 C 261 375 275 411 303 437 C 331 463 368 476 414 476 C 426 476 437 475 449 473 C 461 471 471 468 481 465 C 489 529 482 578 459 611 C 435 643 403 660 361 660 C 319 660 285 645 260 616 C 234 586 218 544 211 488 L 142 0 L 60 0 Z" unicode="ß" />
<glyph horiz-adv-x="521" d="M 322 524 L 224 661 L 318 661 L 408 524 L 322 524 Z M 232 -10 C 184 -10 145 7 114 41 C 82 75 67 120 67 178 C 67 262 94 332 150 390 C 206 447 274 476 355 476 C 380 476 407 473 436 468 C 465 463 493 456 519 447 L 475 132 C 472 109 470 87 468 66 C 466 44 465 22 465 0 L 383 0 C 383 12 383 25 384 39 C 385 53 386 66 387 79 L 390 109 C 372 65 348 35 319 17 C 290 -1 261 -10 232 -10 Z M 253 63 C 283 63 315 79 348 112 C 380 145 404 213 419 316 L 429 392 C 416 396 403 399 389 401 C 375 403 360 404 345 404 C 291 404 245 382 206 340 C 167 297 148 246 148 187 C 148 146 158 115 179 94 C 199 73 224 63 253 63 Z" unicode="à" />
<glyph horiz-adv-x="521" d="M 300 524 L 416 661 L 512 661 L 387 524 L 300 524 Z M 232 -10 C 184 -10 145 7 114 41 C 82 75 67 120 67 178 C 67 262 94 332 150 390 C 206 447 274 476 355 476 C 380 476 407 473 436 468 C 465 463 493 456 519 447 L 475 132 C 472 109 470 87 468 66 C 466 44 465 22 465 0 L 383 0 C 383 12 383 25 384 39 C 385 53 386 66 387 79 L 390 109 C 372 65 348 35 319 17 C 290 -1 261 -10 232 -10 Z M 253 63 C 283 63 315 79 348 112 C 380 145 404 213 419 316 L 429 392 C 416 396 403 399 389 401 C 375 403 360 404 345 404 C 291 404 245 382 206 340 C 167 297 148 246 148 187 C 148 146 158 115 179 94 C 199 73 224 63 253 63 Z" unicode="á" />
<glyph horiz-adv-x="521" d="M 224 524 L 340 658 L 407 658 L 486 524 L 414 524 L 366 600 L 298 524 L 224 524 Z M 232 -10 C 184 -10 145 7 114 41 C 82 75 67 120 67 178 C 67 262 94 332 150 390 C 206 447 274 476 355 476 C 380 476 407 473 436 468 C 465 463 493 456 519 447 L 475 132 C 472 109 470 87 468 66 C 466 44 465 22 465 0 L 383 0 C 383 12 383 25 384 39 C 385 53 386 66 387 79 L 390 109 C 372 65 348 35 319 17 C 290 -1 261 -10 232 -10 Z M 253 63 C 283 63 315 79 348 112 C 380 145 404 213 419 316 L 429 392 C 416 396 403 399 389 401 C 375 403 360 404 345 404 C 291 404 245 382 206 340 C 167 297 148 246 148 187 C 148 146 158 115 179 94 C 199 73 224 63 253 63 Z" unicode="â" />
<glyph horiz-adv-x="521" d="M 260 524 L 207 524 C 213 560 225 587 241 605 C 257 623 279 633 306 633 C 318 633 330 630 342 626 C 353 621 365 613 378 603 C 388 595 396 589 403 585 C 410 581 417 580 424 580 C 434 580 444 584 452 592 C 460 600 465 611 469 626 L 522 626 C 515 590 503 562 487 544 C 471 526 450 517 424 517 C 410 517 397 519 386 524 C 374 528 363 536 351 547 C 341 555 333 560 326 564 C 318 568 311 570 305 570 C 294 570 285 566 277 558 C 269 550 263 538 260 524 Z M 232 -10 C 184 -10 145 7 114 41 C 82 75 67 120 67 178 C 67 262 94 332 150 390 C 206 447 274 476 355 476 C 380 476 407 473 436 468 C 465 463 493 456 519 447 L 475 132 C 472 109 470 87 468 66 C 466 44 465 22 465 0 L 383 0 C 383 12 383 25 384 39 C 385 53 386 66 387 79 L 390 109 C 372 65 348 35 319 17 C 290 -1 261 -10 232 -10 Z M 253 63 C 283 63 315 79 348 112 C 380 145 404 213 419 316 L 429 392 C 416 396 403 399 389 401 C 375 403 360 404 345 404 C 291 404 245 382 206 340 C 167 297 148 246 148 187 C 148 146 158 115 179 94 C 199 73 224 63 253 63 Z" unicode="ã" />
<glyph horiz-adv-x="521" d="M 237 533 L 249 614 L 330 614 L 319 533 L 237 533 Z M 393 533 L 404 614 L 486 614 L 475 533 L 393 533 Z M 232 -10 C 184 -10 145 7 114 41 C 82 75 67 120 67 178 C 67 262 94 332 150 390 C 206 447 274 476 355 476 C 380 476 407 473 436 468 C 465 463 493 456 519 447 L 475 132 C 472 109 470 87 468 66 C 466 44 465 22 465 0 L 383 0 C 383 12 383 25 384 39 C 385 53 386 66 387 79 L 390 109 C 372 65 348 35 319 17 C 290 -1 261 -10 232 -10 Z M 253 63 C 283 63 315 79 348 112 C 380 145 404 213 419 316 L 429 392 C 416 396 403 399 389 401 C 375 403 360 404 345 404 C 291 404 245 382 206 340 C 167 297 148 246 148 187 C 148 146 158 115 179 94 C 199 73 224 63 253 63 Z" unicode="ä" />
<glyph horiz-adv-x="521" d="M 232 -10 C 184 -10 145 7 114 41 C 82 75 67 120 67 178 C 67 252 89 317 133 371 C 177 425 233 458 301 471 C 290 478 282 487 276 499 C 270 511 267 524 267 539 C 267 567 276 590 295 609 C 314 627 338 637 367 637 C 391 637 411 629 427 613 C 442 597 450 577 450 554 C 450 537 446 521 439 507 C 431 493 421 481 409 473 C 427 470 446 467 465 463 C 483 459 501 453 519 447 L 475 132 C 472 109 470 87 468 66 C 466 44 465 22 465 0 L 383 0 C 383 12 383 25 384 39 C 385 53 386 66 387 79 L 390 109 C 372 65 348 35 319 17 C 290 -1 261 -10 232 -10 Z M 355 504 C 367 504 378 508 387 517 C 396 526 401 537 401 551 C 401 562 397 571 389 579 C 381 586 372 590 362 590 C 349 590 338 585 330 576 C 321 566 317 555 317 542 C 317 530 320 521 328 514 C 335 507 344 504 355 504 Z M 253 63 C 283 63 315 79 348 112 C 380 145 404 213 419 316 L 429 392 C 416 396 403 399 389 401 C 375 403 360 404 345 404 C 291 404 245 382 206 340 C 167 297 148 246 148 187 C 148 146 158 115 179 94 C 199 73 224 63 253 63 Z" unicode="å" />
<glyph horiz-adv-x="743" d="M 199 -10 C 151 -10 115 2 91 26 C 67 50 56 79 56 112 C 56 158 72 195 106 222 C 139 248 184 263 242 265 L 343 270 L 349 316 C 353 347 346 370 330 385 C 313 399 289 407 259 407 C 232 407 206 403 181 397 C 155 390 131 379 107 365 L 117 440 C 143 452 170 461 196 467 C 222 473 249 476 275 476 C 313 476 343 469 365 455 C 387 441 402 421 409 397 C 429 421 455 441 485 455 C 515 469 547 476 583 476 C 628 476 665 464 693 441 C 721 417 736 387 736 351 C 736 303 716 268 677 248 C 638 228 575 216 489 213 L 418 210 C 416 164 427 127 451 101 C 474 74 508 61 554 61 C 582 61 610 65 636 75 C 662 84 688 99 713 119 L 702 35 C 677 19 652 8 626 1 C 600 -6 573 -10 545 -10 C 499 -10 460 0 430 18 C 400 37 377 63 363 97 C 347 63 325 37 295 18 C 265 0 233 -10 199 -10 Z M 575 410 C 537 410 504 396 477 370 C 449 343 432 310 425 270 L 490 273 C 546 275 587 282 613 293 C 639 304 653 323 653 351 C 653 368 646 382 632 393 C 618 404 599 410 575 410 Z M 216 57 C 245 57 270 67 290 86 C 310 105 323 131 328 163 L 335 209 L 245 205 C 214 203 189 196 169 182 C 149 168 140 147 140 121 C 140 101 147 86 161 74 C 175 62 193 57 216 57 Z" unicode="æ" />
<glyph horiz-adv-x="465" d="M 281 -10 C 217 -10 165 9 127 47 C 89 85 70 135 70 196 C 70 277 94 344 144 397 C 193 449 257 476 337 476 C 363 476 388 472 412 466 C 435 459 458 449 481 437 L 470 357 C 447 371 425 382 403 390 C 381 398 356 402 330 402 C 276 402 232 383 200 346 C 167 308 151 261 151 203 C 151 161 163 127 189 102 C 214 76 248 64 292 64 C 318 64 344 68 368 76 C 392 84 415 96 438 113 L 426 31 C 403 16 380 5 356 0 C 332 -6 307 -10 281 -10 Z M 220 -212 C 209 -212 198 -210 188 -208 C 177 -205 167 -201 158 -197 L 165 -146 C 172 -151 180 -155 190 -158 C 200 -161 209 -163 219 -163 C 231 -163 241 -159 249 -153 C 257 -146 261 -137 261 -126 C 261 -116 257 -107 250 -101 C 243 -95 234 -92 223 -92 L 217 -92 L 223 -44 L 229 -44 C 256 -44 278 -51 294 -65 C 310 -79 318 -99 318 -123 C 318 -149 308 -170 290 -187 C 272 -203 248 -212 220 -212 Z" unicode="ç" />
<glyph horiz-adv-x="480" d="M 280 524 L 182 661 L 276 661 L 366 524 L 280 524 Z M 282 -10 C 214 -10 162 9 126 48 C 89 87 71 139 71 203 C 71 280 94 345 142 397 C 190 449 249 476 320 476 C 365 476 402 464 430 441 C 458 417 473 387 473 351 C 473 303 453 266 414 242 C 374 217 310 202 222 198 L 154 194 C 154 152 167 119 191 96 C 215 72 248 61 291 61 C 319 61 347 65 373 75 C 399 84 425 99 451 119 L 439 35 C 414 19 389 8 363 1 C 337 -6 310 -10 282 -10 Z M 312 406 C 272 406 237 391 209 362 C 181 332 164 296 159 254 L 227 259 C 283 262 324 271 350 285 C 376 299 390 320 390 348 C 390 366 383 380 369 390 C 355 400 336 406 312 406 Z" unicode="è" />
<glyph horiz-adv-x="480" d="M 258 524 L 374 661 L 470 661 L 345 524 L 258 524 Z M 282 -10 C 214 -10 162 9 126 48 C 89 87 71 139 71 203 C 71 280 94 345 142 397 C 190 449 249 476 320 476 C 365 476 402 464 430 441 C 458 417 473 387 473 351 C 473 303 453 266 414 242 C 374 217 310 202 222 198 L 154 194 C 154 152 167 119 191 96 C 215 72 248 61 291 61 C 319 61 347 65 373 75 C 399 84 425 99 451 119 L 439 35 C 414 19 389 8 363 1 C 337 -6 310 -10 282 -10 Z M 312 406 C 272 406 237 391 209 362 C 181 332 164 296 159 254 L 227 259 C 283 262 324 271 350 285 C 376 299 390 320 390 348 C 390 366 383 380 369 390 C 355 400 336 406 312 406 Z" unicode="é" />
<glyph horiz-adv-x="480" d="M 182 524 L 298 658 L 365 658 L 444 524 L 372 524 L 324 600 L 256 524 L 182 524 Z M 282 -10 C 214 -10 162 9 126 48 C 89 87 71 139 71 203 C 71 280 94 345 142 397 C 190 449 249 476 320 476 C 365 476 402 464 430 441 C 458 417 473 387 473 351 C 473 303 453 266 414 242 C 374 217 310 202 222 198 L 154 194 C 154 152 167 119 191 96 C 215 72 248 61 291 61 C 319 61 347 65 373 75 C 399 84 425 99 451 119 L 439 35 C 414 19 389 8 363 1 C 337 -6 310 -10 282 -10 Z M 312 406 C 272 406 237 391 209 362 C 181 332 164 296 159 254 L 227 259 C 283 262 324 271 350 285 C 376 299 390 320 390 348 C 390 366 383 380 369 390 C 355 400 336 406 312 406 Z" unicode="ê" />
<glyph horiz-adv-x="480" d="M 195 533 L 207 614 L 288 614 L 277 533 L 195 533 Z M 351 533 L 362 614 L 444 614 L 433 533 L 351 533 Z M 282 -10 C 214 -10 162 9 126 48 C 89 87 71 139 71 203 C 71 280 94 345 142 397 C 190 449 249 476 320 476 C 365 476 402 464 430 441 C 458 417 473 387 473 351 C 473 303 453 266 414 242 C 374 217 310 202 222 198 L 154 194 C 154 152 167 119 191 96 C 215 72 248 61 291 61 C 319 61 347 65 373 75 C 399 84 425 99 451 119 L 439 35 C 414 19 389 8 363 1 C 337 -6 310 -10 282 -10 Z M 312 406 C 272 406 237 391 209 362 C 181 332 164 296 159 254 L 227 259 C 283 262 324 271 350 285 C 376 299 390 320 390 348 C 390 366 383 380 369 390 C 355 400 336 406 312 406 Z" unicode="ë" />
<glyph horiz-adv-x="214" d="M 146 524 L 48 661 L 142 661 L 232 524 L 146 524 Z M 71 0 C 71 20 72 41 74 63 C 76 85 78 107 81 129 L 129 466 L 211 466 L 163 129 C 160 108 158 86 156 63 C 154 40 153 19 153 0 L 71 0 Z" unicode="ì" />
<glyph horiz-adv-x="214" d="M 124 524 L 240 661 L 336 661 L 211 524 L 124 524 Z M 71 0 C 71 20 72 41 74 63 C 76 85 78 107 81 129 L 129 466 L 211 466 L 163 129 C 160 108 158 86 156 63 C 154 40 153 19 153 0 L 71 0 Z" unicode="í" />
<glyph horiz-adv-x="214" d="M 48 524 L 164 658 L 231 658 L 310 524 L 238 524 L 190 600 L 122 524 L 48 524 Z M 71 0 C 71 20 72 41 74 63 C 76 85 78 107 81 129 L 129 466 L 211 466 L 163 129 C 160 108 158 86 156 63 C 154 40 153 19 153 0 L 71 0 Z" unicode="î" />
<glyph horiz-adv-x="214" d="M 61 533 L 73 614 L 154 614 L 143 533 L 61 533 Z M 217 533 L 228 614 L 310 614 L 299 533 L 217 533 Z M 71 0 C 71 20 72 41 74 63 C 76 85 78 107 81 129 L 129 466 L 211 466 L 163 129 C 160 108 158 86 156 63 C 154 40 153 19 153 0 L 71 0 Z" unicode="ï" />
<glyph horiz-adv-x="553" d="M 289 -11 C 223 -11 170 9 130 51 C 90 92 71 143 71 205 C 71 282 95 347 143 399 C 191 451 251 477 323 477 C 357 477 387 471 413 459 C 439 447 459 429 474 405 C 467 438 456 470 440 502 C 424 534 404 564 380 594 L 275 561 L 266 627 L 329 647 C 315 659 301 670 286 682 C 270 693 254 704 238 715 L 324 747 C 340 735 356 723 371 711 C 386 699 400 686 413 673 L 511 703 L 521 637 L 459 618 C 490 575 513 528 529 477 C 545 425 553 372 553 316 C 553 218 527 139 477 79 C 427 19 364 -11 289 -11 Z M 292 65 C 342 65 383 84 415 122 C 447 160 463 207 463 265 C 459 311 445 345 419 368 C 393 390 363 402 327 402 C 277 402 236 383 203 347 C 170 310 154 264 154 210 C 154 168 166 133 192 106 C 217 78 250 65 292 65 Z" unicode="ð" />
<glyph horiz-adv-x="502" d="M 237 524 L 184 524 C 190 560 202 587 218 605 C 234 623 256 633 283 633 C 295 633 307 630 319 626 C 330 621 342 613 355 603 C 365 595 373 589 380 585 C 387 581 394 580 401 580 C 411 580 421 584 429 592 C 437 600 442 611 446 626 L 499 626 C 492 590 480 562 464 544 C 448 526 427 517 401 517 C 387 517 374 519 363 524 C 351 528 340 536 328 547 C 318 555 310 560 303 564 C 295 568 288 570 282 570 C 271 570 262 566 254 558 C 246 550 240 538 237 524 Z M 68 0 L 117 349 C 120 371 122 391 124 411 C 125 430 126 448 126 466 L 208 466 C 208 453 207 439 206 424 C 205 408 204 395 203 385 L 199 354 C 217 398 241 429 269 448 C 297 466 325 476 354 476 C 402 476 438 459 462 427 C 486 395 494 353 485 303 L 454 130 C 450 108 447 86 446 65 C 445 44 445 22 445 0 L 363 0 C 363 22 363 43 364 65 C 365 87 368 108 372 130 L 401 281 C 407 318 403 347 388 369 C 372 390 350 401 322 401 C 294 401 266 383 236 348 C 206 313 184 243 170 139 L 150 0 L 68 0 Z" unicode="ñ" />
<glyph horiz-adv-x="531" d="M 305 524 L 207 661 L 301 661 L 391 524 L 305 524 Z M 281 -11 C 217 -11 166 7 128 45 C 89 82 70 134 70 200 C 70 278 93 343 141 397 C 188 450 246 477 316 477 C 379 477 430 458 469 420 C 507 382 527 331 527 266 C 527 188 503 122 456 69 C 408 15 350 -11 281 -11 Z M 284 62 C 330 62 368 81 399 120 C 429 158 445 206 445 262 C 445 304 432 338 408 364 C 384 390 352 404 312 404 C 266 404 227 384 197 346 C 166 307 151 260 151 204 C 151 162 163 127 187 101 C 211 75 244 62 284 62 Z" unicode="ò" />
<glyph horiz-adv-x="531" d="M 283 524 L 399 661 L 495 661 L 370 524 L 283 524 Z M 281 -11 C 217 -11 166 7 128 45 C 89 82 70 134 70 200 C 70 278 93 343 141 397 C 188 450 246 477 316 477 C 379 477 430 458 469 420 C 507 382 527 331 527 266 C 527 188 503 122 456 69 C 408 15 350 -11 281 -11 Z M 284 62 C 330 62 368 81 399 120 C 429 158 445 206 445 262 C 445 304 432 338 408 364 C 384 390 352 404 312 404 C 266 404 227 384 197 346 C 166 307 151 260 151 204 C 151 162 163 127 187 101 C 211 75 244 62 284 62 Z" unicode="ó" />
<glyph horiz-adv-x="531" d="M 207 524 L 323 658 L 390 658 L 469 524 L 397 524 L 349 600 L 281 524 L 207 524 Z M 281 -11 C 217 -11 166 7 128 45 C 89 82 70 134 70 200 C 70 278 93 343 141 397 C 188 450 246 477 316 477 C 379 477 430 458 469 420 C 507 382 527 331 527 266 C 527 188 503 122 456 69 C 408 15 350 -11 281 -11 Z M 284 62 C 330 62 368 81 399 120 C 429 158 445 206 445 262 C 445 304 432 338 408 364 C 384 390 352 404 312 404 C 266 404 227 384 197 346 C 166 307 151 260 151 204 C 151 162 163 127 187 101 C 211 75 244 62 284 62 Z" unicode="ô" />
<glyph horiz-adv-x="531" d="M 243 524 L 190 524 C 196 560 208 587 224 605 C 240 623 262 633 289 633 C 301 633 313 630 325 626 C 336 621 348 613 361 603 C 371 595 379 589 386 585 C 393 581 400 580 407 580 C 417 580 427 584 435 592 C 443 600 448 611 452 626 L 505 626 C 498 590 486 562 470 544 C 454 526 433 517 407 517 C 393 517 380 519 369 524 C 357 528 346 536 334 547 C 324 555 316 560 309 564 C 301 568 294 570 288 570 C 277 570 268 566 260 558 C 252 550 246 538 243 524 Z M 281 -11 C 217 -11 166 7 128 45 C 89 82 70 134 70 200 C 70 278 93 343 141 397 C 188 450 246 477 316 477 C 379 477 430 458 469 420 C 507 382 527 331 527 266 C 527 188 503 122 456 69 C 408 15 350 -11 281 -11 Z M 284 62 C 330 62 368 81 399 120 C 429 158 445 206 445 262 C 445 304 432 338 408 364 C 384 390 352 404 312 404 C 266 404 227 384 197 346 C 166 307 151 260 151 204 C 151 162 163 127 187 101 C 211 75 244 62 284 62 Z" unicode="õ" />
<glyph horiz-adv-x="531" d="M 220 533 L 232 614 L 313 614 L 302 533 L 220 533 Z M 376 533 L 387 614 L 469 614 L 458 533 L 376 533 Z M 281 -11 C 217 -11 166 7 128 45 C 89 82 70 134 70 200 C 70 278 93 343 141 397 C 188 450 246 477 316 477 C 379 477 430 458 469 420 C 507 382 527 331 527 266 C 527 188 503 122 456 69 C 408 15 350 -11 281 -11 Z M 284 62 C 330 62 368 81 399 120 C 429 158 445 206 445 262 C 445 304 432 338 408 364 C 384 390 352 404 312 404 C 266 404 227 384 197 346 C 166 307 151 260 151 204 C 151 162 163 127 187 101 C 211 75 244 62 284 62 Z" unicode="ö" />
<glyph horiz-adv-x="524" d="M 272 426 L 283 503 L 361 503 L 349 426 L 272 426 Z M 82 255 L 92 326 L 522 326 L 512 255 L 82 255 Z M 230 78 L 241 155 L 319 155 L 307 78 L 230 78 Z" unicode="÷" />
<glyph horiz-adv-x="532" d="M 77 -48 L 135 39 C 114 57 98 79 87 107 C 75 134 70 165 70 200 C 70 278 93 343 141 397 C 188 450 246 477 316 477 C 334 477 351 475 367 472 C 383 469 399 464 413 458 L 450 514 L 522 514 L 464 426 C 484 407 499 384 510 357 C 521 330 527 300 527 266 C 527 188 503 122 456 69 C 408 15 350 -11 281 -11 C 263 -11 246 -9 230 -6 C 214 -3 199 1 185 7 L 149 -48 L 77 -48 Z M 151 204 C 151 185 153 167 159 151 C 164 135 171 121 181 109 L 369 393 C 360 396 351 399 342 401 C 332 403 322 404 312 404 C 266 404 227 384 197 346 C 166 307 151 260 151 204 Z M 284 62 C 330 62 368 81 399 120 C 429 158 445 206 445 262 C 445 280 442 297 437 313 C 432 329 425 343 417 355 L 229 72 C 237 69 245 67 255 65 C 264 63 274 62 284 62 Z" unicode="ø" />
<glyph horiz-adv-x="504" d="M 286 525 L 188 662 L 282 662 L 372 525 L 286 525 Z M 215 -11 C 169 -11 133 4 107 36 C 81 67 72 109 81 163 L 110 342 C 114 365 117 387 119 407 C 121 427 122 446 122 466 L 204 466 C 204 444 203 423 201 403 C 199 382 196 361 192 339 L 167 185 C 160 145 164 114 179 94 C 193 74 216 64 246 64 C 274 64 304 80 334 114 C 364 147 387 214 401 316 L 422 466 L 504 466 L 456 120 C 453 99 451 78 450 58 C 448 38 448 18 448 0 L 366 0 C 366 12 366 25 367 39 C 367 53 368 66 370 79 L 374 112 C 355 68 331 36 302 17 C 273 -1 244 -11 215 -11 Z" unicode="ù" />
<glyph horiz-adv-x="504" d="M 264 525 L 380 662 L 476 662 L 351 525 L 264 525 Z M 215 -11 C 169 -11 133 4 107 36 C 81 67 72 109 81 163 L 110 342 C 114 365 117 387 119 407 C 121 427 122 446 122 466 L 204 466 C 204 444 203 423 201 403 C 199 382 196 361 192 339 L 167 185 C 160 145 164 114 179 94 C 193 74 216 64 246 64 C 274 64 304 80 334 114 C 364 147 387 214 401 316 L 422 466 L 504 466 L 456 120 C 453 99 451 78 450 58 C 448 38 448 18 448 0 L 366 0 C 366 12 366 25 367 39 C 367 53 368 66 370 79 L 374 112 C 355 68 331 36 302 17 C 273 -1 244 -11 215 -11 Z" unicode="ú" />
<glyph horiz-adv-x="504" d="M 188 525 L 304 659 L 371 659 L 450 525 L 378 525 L 330 601 L 262 525 L 188 525 Z M 215 -11 C 169 -11 133 4 107 36 C 81 67 72 109 81 163 L 110 342 C 114 365 117 387 119 407 C 121 427 122 446 122 466 L 204 466 C 204 444 203 423 201 403 C 199 382 196 361 192 339 L 167 185 C 160 145 164 114 179 94 C 193 74 216 64 246 64 C 274 64 304 80 334 114 C 364 147 387 214 401 316 L 422 466 L 504 466 L 456 120 C 453 99 451 78 450 58 C 448 38 448 18 448 0 L 366 0 C 366 12 366 25 367 39 C 367 53 368 66 370 79 L 374 112 C 355 68 331 36 302 17 C 273 -1 244 -11 215 -11 Z" unicode="û" />
<glyph horiz-adv-x="504" d="M 201 534 L 213 615 L 294 615 L 283 534 L 201 534 Z M 357 534 L 368 615 L 450 615 L 439 534 L 357 534 Z M 215 -11 C 169 -11 133 4 107 36 C 81 67 72 109 81 163 L 110 342 C 114 365 117 387 119 407 C 121 427 122 446 122 466 L 204 466 C 204 444 203 423 201 403 C 199 382 196 361 192 339 L 167 185 C 160 145 164 114 179 94 C 193 74 216 64 246 64 C 274 64 304 80 334 114 C 364 147 387 214 401 316 L 422 466 L 504 466 L 456 120 C 453 99 451 78 450 58 C 448 38 448 18 448 0 L 366 0 C 366 12 366 25 367 39 C 367 53 368 66 370 79 L 374 112 C 355 68 331 36 302 17 C 273 -1 244 -11 215 -11 Z" unicode="ü" />
<glyph horiz-adv-x="480" d="M 255 524 L 371 661 L 467 661 L 342 524 L 255 524 Z M 303 -6 C 253 -77 200 -130 144 -164 C 88 -198 27 -215 -39 -215 L -47 -215 L -37 -140 L -29 -140 C 14 -140 56 -129 97 -107 C 137 -85 172 -55 201 -19 L 79 466 L 168 466 L 244 152 L 261 51 C 292 105 321 166 349 236 C 376 306 401 382 425 466 L 509 466 C 477 363 445 272 411 194 C 377 115 341 48 303 -6 Z" unicode="ý" />
<glyph horiz-adv-x="521" d="M 31 -215 L 163 720 L 245 720 L 201 411 C 199 400 198 389 196 379 C 194 368 191 357 189 347 C 207 395 230 429 260 448 C 290 466 320 476 351 476 C 398 476 437 459 469 425 C 501 391 517 344 517 286 C 517 202 491 132 439 75 C 387 18 322 -10 242 -10 C 224 -10 207 -8 191 -5 C 175 -2 159 2 145 8 L 113 -215 L 31 -215 Z M 248 60 C 302 60 347 81 382 124 C 417 166 435 217 435 275 C 435 316 424 347 404 369 C 383 391 358 402 329 402 C 301 402 271 388 238 360 C 204 332 180 261 165 148 L 156 78 C 170 71 184 66 200 64 C 215 61 231 60 248 60 Z" unicode="þ" />
<glyph horiz-adv-x="480" d="M 192 533 L 204 614 L 285 614 L 274 533 L 192 533 Z M 348 533 L 359 614 L 441 614 L 430 533 L 348 533 Z M 303 -6 C 253 -77 200 -130 144 -164 C 88 -198 27 -215 -39 -215 L -47 -215 L -37 -140 L -29 -140 C 14 -140 56 -129 97 -107 C 137 -85 172 -55 201 -19 L 79 466 L 168 466 L 244 152 L 261 51 C 292 105 321 166 349 236 C 376 306 401 382 425 466 L 509 466 C 477 363 445 272 411 194 C 377 115 341 48 303 -6 Z" unicode="ÿ" />
<glyph horiz-adv-x="639" d="M 312 715 L 321 776 L 536 776 L 527 715 L 312 715 Z M 18 0 L 373 664 L 452 664 L 621 0 L 534 0 L 485 197 L 208 197 L 104 0 L 18 0 Z M 246 271 L 467 271 L 414 488 L 398 563 L 361 488 L 246 271 Z" unicode="Ā" />
<glyph horiz-adv-x="521" d="M 243 532 L 252 598 L 480 598 L 470 532 L 243 532 Z M 232 -10 C 184 -10 145 7 114 41 C 82 75 67 120 67 178 C 67 262 94 332 150 390 C 206 447 274 476 355 476 C 380 476 407 473 436 468 C 465 463 493 456 519 447 L 475 132 C 472 109 470 87 468 66 C 466 44 465 22 465 0 L 383 0 C 383 12 383 25 384 39 C 385 53 386 66 387 79 L 390 109 C 372 65 348 35 319 17 C 290 -1 261 -10 232 -10 Z M 253 63 C 283 63 315 79 348 112 C 380 145 404 213 419 316 L 429 392 C 416 396 403 399 389 401 C 375 403 360 404 345 404 C 291 404 245 382 206 340 C 167 297 148 246 148 187 C 148 146 158 115 179 94 C 199 73 224 63 253 63 Z" unicode="ā" />
<glyph horiz-adv-x="639" d="M 419 706 C 381 706 353 718 334 742 C 315 766 308 796 312 833 L 364 833 C 363 810 367 792 377 779 C 386 766 401 760 421 760 C 439 760 454 766 466 779 C 478 792 484 810 486 833 L 539 833 C 534 792 520 761 498 739 C 476 717 449 706 419 706 Z M 18 0 L 373 664 L 452 664 L 621 0 L 534 0 L 485 197 L 208 197 L 104 0 L 18 0 Z M 246 271 L 467 271 L 414 488 L 398 563 L 361 488 L 246 271 Z" unicode="Ă" />
<glyph horiz-adv-x="521" d="M 357 516 C 317 516 288 528 268 553 C 248 578 240 610 245 650 L 301 650 C 300 626 304 608 314 595 C 324 581 339 575 360 575 C 378 575 394 581 406 595 C 418 608 426 626 428 650 L 485 650 C 480 607 466 574 442 551 C 418 527 390 516 357 516 Z M 232 -10 C 184 -10 145 7 114 41 C 82 75 67 120 67 178 C 67 262 94 332 150 390 C 206 447 274 476 355 476 C 380 476 407 473 436 468 C 465 463 493 456 519 447 L 475 132 C 472 109 470 87 468 66 C 466 44 465 22 465 0 L 383 0 C 383 12 383 25 384 39 C 385 53 386 66 387 79 L 390 109 C 372 65 348 35 319 17 C 290 -1 261 -10 232 -10 Z M 253 63 C 283 63 315 79 348 112 C 380 145 404 213 419 316 L 429 392 C 416 396 403 399 389 401 C 375 403 360 404 345 404 C 291 404 245 382 206 340 C 167 297 148 246 148 187 C 148 146 158 115 179 94 C 199 73 224 63 253 63 Z" unicode="ă" />
<glyph horiz-adv-x="639" d="M 18 0 L 373 664 L 452 664 L 621 0 L 614 0 C 587 0 565 -8 547 -25 C 529 -41 520 -62 520 -87 C 520 -107 527 -123 542 -135 C 556 -147 576 -153 600 -153 L 591 -220 C 547 -220 512 -209 486 -187 C 460 -165 448 -138 448 -104 C 448 -77 455 -53 470 -31 C 485 -9 505 6 529 18 L 485 197 L 208 197 L 104 0 L 18 0 Z M 246 271 L 467 271 L 414 488 L 398 563 L 361 488 L 246 271 Z" unicode="Ą" />
<glyph horiz-adv-x="521" d="M 232 -10 C 184 -10 145 7 114 41 C 82 75 67 120 67 178 C 67 262 94 332 150 390 C 206 447 274 476 355 476 C 380 476 407 473 436 468 C 465 463 493 456 519 447 L 475 132 C 472 109 470 87 468 66 C 466 44 465 22 465 0 L 459 0 C 426 -15 403 -30 391 -44 C 378 -58 372 -73 372 -91 C 372 -107 378 -121 392 -131 C 405 -141 425 -146 452 -146 L 442 -215 C 396 -215 361 -206 335 -190 C 309 -174 297 -149 297 -116 C 297 -92 304 -71 318 -51 C 332 -31 353 -12 383 7 C 383 19 383 31 384 43 C 385 55 386 67 387 79 L 390 109 C 372 65 348 35 319 17 C 290 -1 261 -10 232 -10 Z M 253 63 C 283 63 315 79 348 112 C 380 145 404 213 419 316 L 429 392 C 416 396 403 399 389 401 C 375 403 360 404 345 404 C 291 404 245 382 206 340 C 167 297 148 246 148 187 C 148 146 158 115 179 94 C 199 73 224 63 253 63 Z" unicode="ą" />
<glyph horiz-adv-x="665" d="M 445 723 L 555 853 L 645 853 L 527 723 L 445 723 Z M 416 -14 C 316 -14 238 15 181 73 C 123 131 95 202 95 288 C 95 398 131 489 205 562 C 278 635 372 672 487 672 C 524 672 560 667 596 659 C 632 650 666 637 700 619 L 688 534 C 656 553 623 568 589 578 C 555 588 519 594 481 594 C 393 594 322 565 266 509 C 210 452 182 380 182 293 C 182 225 204 170 248 128 C 292 85 351 64 423 64 C 461 64 498 69 533 80 C 568 90 603 106 639 127 L 626 39 C 591 21 556 7 521 -1 C 486 -9 451 -14 416 -14 Z" unicode="Ć" />
<glyph horiz-adv-x="465" d="M 269 524 L 385 661 L 481 661 L 356 524 L 269 524 Z M 281 -10 C 217 -10 165 9 127 47 C 89 85 70 135 70 196 C 70 277 94 344 144 397 C 193 449 257 476 337 476 C 363 476 388 472 412 466 C 435 459 458 449 481 437 L 470 357 C 447 371 425 382 403 390 C 381 398 356 402 330 402 C 276 402 232 383 200 346 C 167 308 151 261 151 203 C 151 161 163 127 189 102 C 214 76 248 64 292 64 C 318 64 344 68 368 76 C 392 84 415 96 438 113 L 426 31 C 403 16 380 5 356 0 C 332 -6 307 -10 281 -10 Z" unicode="ć" />
<glyph horiz-adv-x="665" d="M 371 723 L 482 850 L 543 850 L 619 723 L 553 723 L 507 797 L 440 723 L 371 723 Z M 416 -14 C 316 -14 238 15 181 73 C 123 131 95 202 95 288 C 95 398 131 489 205 562 C 278 635 372 672 487 672 C 524 672 560 667 596 659 C 632 650 666 637 700 619 L 688 534 C 656 553 623 568 589 578 C 555 588 519 594 481 594 C 393 594 322 565 266 509 C 210 452 182 380 182 293 C 182 225 204 170 248 128 C 292 85 351 64 423 64 C 461 64 498 69 533 80 C 568 90 603 106 639 127 L 626 39 C 591 21 556 7 521 -1 C 486 -9 451 -14 416 -14 Z" unicode="Ĉ" />
<glyph horiz-adv-x="465" d="M 193 524 L 309 658 L 376 658 L 455 524 L 383 524 L 335 600 L 267 524 L 193 524 Z M 281 -10 C 217 -10 165 9 127 47 C 89 85 70 135 70 196 C 70 277 94 344 144 397 C 193 449 257 476 337 476 C 363 476 388 472 412 466 C 435 459 458 449 481 437 L 470 357 C 447 371 425 382 403 390 C 381 398 356 402 330 402 C 276 402 232 383 200 346 C 167 308 151 261 151 203 C 151 161 163 127 189 102 C 214 76 248 64 292 64 C 318 64 344 68 368 76 C 392 84 415 96 438 113 L 426 31 C 403 16 380 5 356 0 C 332 -6 307 -10 281 -10 Z" unicode="ĉ" />
<glyph horiz-adv-x="665" d="M 455 723 L 467 804 L 548 804 L 536 723 L 455 723 Z M 416 -14 C 316 -14 238 15 181 73 C 123 131 95 202 95 288 C 95 398 131 489 205 562 C 278 635 372 672 487 672 C 524 672 560 667 596 659 C 632 650 666 637 700 619 L 688 534 C 656 553 623 568 589 578 C 555 588 519 594 481 594 C 393 594 322 565 266 509 C 210 452 182 380 182 293 C 182 225 204 170 248 128 C 292 85 351 64 423 64 C 461 64 498 69 533 80 C 568 90 603 106 639 127 L 626 39 C 591 21 556 7 521 -1 C 486 -9 451 -14 416 -14 Z" unicode="Ċ" />
<glyph horiz-adv-x="465" d="M 282 532 L 294 620 L 381 620 L 369 532 L 282 532 Z M 281 -10 C 217 -10 165 9 127 47 C 89 85 70 135 70 196 C 70 277 94 344 144 397 C 193 449 257 476 337 476 C 363 476 388 472 412 466 C 435 459 458 449 481 437 L 470 357 C 447 371 425 382 403 390 C 381 398 356 402 330 402 C 276 402 232 383 200 346 C 167 308 151 261 151 203 C 151 161 163 127 189 102 C 214 76 248 64 292 64 C 318 64 344 68 368 76 C 392 84 415 96 438 113 L 426 31 C 403 16 380 5 356 0 C 332 -6 307 -10 281 -10 Z" unicode="ċ" />
<glyph horiz-adv-x="665" d="M 466 718 L 390 845 L 456 845 L 502 771 L 569 845 L 638 845 L 527 718 L 466 718 Z M 416 -14 C 316 -14 238 15 181 73 C 123 131 95 202 95 288 C 95 398 131 489 205 562 C 278 635 372 672 487 672 C 524 672 560 667 596 659 C 632 650 666 637 700 619 L 688 534 C 656 553 623 568 589 578 C 555 588 519 594 481 594 C 393 594 322 565 266 509 C 210 452 182 380 182 293 C 182 225 204 170 248 128 C 292 85 351 64 423 64 C 461 64 498 69 533 80 C 568 90 603 106 639 127 L 626 39 C 591 21 556 7 521 -1 C 486 -9 451 -14 416 -14 Z" unicode="Č" />
<glyph horiz-adv-x="465" d="M 291 524 L 211 658 L 283 658 L 330 582 L 399 658 L 474 658 L 358 524 L 291 524 Z M 281 -10 C 217 -10 165 9 127 47 C 89 85 70 135 70 196 C 70 277 94 344 144 397 C 193 449 257 476 337 476 C 363 476 388 472 412 466 C 435 459 458 449 481 437 L 470 357 C 447 371 425 382 403 390 C 381 398 356 402 330 402 C 276 402 232 383 200 346 C 167 308 151 261 151 203 C 151 161 163 127 189 102 C 214 76 248 64 292 64 C 318 64 344 68 368 76 C 392 84 415 96 438 113 L 426 31 C 403 16 380 5 356 0 C 332 -6 307 -10 281 -10 Z" unicode="č" />
<glyph horiz-adv-x="694" d="M 339 710 L 263 837 L 329 837 L 375 763 L 442 837 L 511 837 L 400 710 L 339 710 Z M 72 0 L 164 658 L 368 658 C 468 658 547 631 605 577 C 663 523 692 455 692 372 C 692 264 654 175 578 105 C 502 35 401 0 273 0 L 72 0 Z M 168 79 L 283 79 C 382 79 461 106 519 160 C 577 214 606 284 606 368 C 606 430 584 480 540 520 C 496 559 437 579 362 579 L 238 579 L 168 79 Z" unicode="Ď" />
<glyph horiz-adv-x="667" d="M 237 -10 C 189 -10 150 7 119 41 C 87 75 72 120 72 178 C 72 262 99 332 154 390 C 209 447 275 476 353 476 C 367 476 382 474 398 471 C 413 468 428 463 443 457 L 481 720 L 563 720 L 480 132 C 477 109 475 87 473 66 C 471 44 470 22 470 0 L 388 0 C 388 12 388 24 389 38 C 390 51 391 65 393 79 L 395 107 C 377 63 354 33 325 16 C 296 -1 267 -10 237 -10 Z M 649 529 L 593 555 C 608 575 619 595 627 614 C 635 633 640 654 643 678 L 649 720 L 723 720 L 717 678 C 712 647 705 620 695 597 C 685 574 669 551 649 529 Z M 258 63 C 288 63 320 79 352 111 C 384 143 408 212 424 316 L 433 381 C 420 388 406 394 390 398 C 374 402 358 404 342 404 C 292 404 248 382 210 340 C 172 298 153 247 153 187 C 153 146 163 115 184 94 C 204 73 229 63 258 63 Z" unicode="ď" />
<glyph horiz-adv-x="704" d="M 81 0 L 122 293 L 68 293 L 78 366 L 132 366 L 173 658 L 377 658 C 477 658 556 631 614 577 C 672 523 701 455 701 372 C 701 264 663 175 587 105 C 511 35 410 0 282 0 L 81 0 Z M 177 79 L 292 79 C 391 79 470 106 528 160 C 586 214 615 284 615 368 C 615 430 593 480 549 520 C 505 559 446 579 371 579 L 247 579 L 217 366 L 337 366 L 327 293 L 207 293 L 177 79 Z" unicode="Đ" />
<glyph horiz-adv-x="522" d="M 237 -10 C 189 -10 150 7 119 41 C 87 75 72 120 72 178 C 72 262 99 332 154 390 C 209 447 275 476 353 476 C 367 476 382 474 398 471 C 413 468 428 463 443 457 L 458 561 L 384 561 L 394 630 L 468 630 L 481 720 L 563 720 L 550 630 L 605 630 L 595 561 L 541 561 L 480 132 C 477 109 475 87 473 66 C 471 44 470 22 470 0 L 388 0 C 388 12 388 24 389 38 C 390 51 391 65 393 79 L 395 107 C 377 63 354 33 325 16 C 296 -1 267 -10 237 -10 Z M 258 63 C 288 63 320 79 352 111 C 384 143 408 212 424 316 L 433 381 C 420 388 406 394 390 398 C 374 402 358 404 342 404 C 292 404 248 382 210 340 C 172 298 153 247 153 187 C 153 146 163 115 184 94 C 204 73 229 63 258 63 Z" unicode="đ" />
<glyph horiz-adv-x="503" d="M 252 715 L 261 776 L 476 776 L 467 715 L 252 715 Z M 72 0 L 164 658 L 522 658 L 511 579 L 237 579 L 208 373 L 474 373 L 463 294 L 197 294 L 167 79 L 456 79 L 445 0 L 72 0 Z" unicode="Ē" />
<glyph horiz-adv-x="480" d="M 201 532 L 210 598 L 438 598 L 428 532 L 201 532 Z M 282 -10 C 214 -10 162 9 126 48 C 89 87 71 139 71 203 C 71 280 94 345 142 397 C 190 449 249 476 320 476 C 365 476 402 464 430 441 C 458 417 473 387 473 351 C 473 303 453 266 414 242 C 374 217 310 202 222 198 L 154 194 C 154 152 167 119 191 96 C 215 72 248 61 291 61 C 319 61 347 65 373 75 C 399 84 425 99 451 119 L 439 35 C 414 19 389 8 363 1 C 337 -6 310 -10 282 -10 Z M 312 406 C 272 406 237 391 209 362 C 181 332 164 296 159 254 L 227 259 C 283 262 324 271 350 285 C 376 299 390 320 390 348 C 390 366 383 380 369 390 C 355 400 336 406 312 406 Z" unicode="ē" />
<glyph horiz-adv-x="503" d="M 359 706 C 321 706 293 718 274 742 C 255 766 248 796 252 833 L 304 833 C 303 810 307 792 317 779 C 326 766 341 760 361 760 C 379 760 394 766 406 779 C 418 792 424 810 426 833 L 479 833 C 474 792 460 761 438 739 C 416 717 389 706 359 706 Z M 72 0 L 164 658 L 522 658 L 511 579 L 237 579 L 208 373 L 474 373 L 463 294 L 197 294 L 167 79 L 456 79 L 445 0 L 72 0 Z" unicode="Ĕ" />
<glyph horiz-adv-x="480" d="M 315 516 C 275 516 246 528 226 553 C 206 578 198 610 203 650 L 259 650 C 258 626 262 608 272 595 C 282 581 297 575 318 575 C 336 575 352 581 364 595 C 376 608 384 626 386 650 L 443 650 C 438 607 424 574 400 551 C 376 527 348 516 315 516 Z M 282 -10 C 214 -10 162 9 126 48 C 89 87 71 139 71 203 C 71 280 94 345 142 397 C 190 449 249 476 320 476 C 365 476 402 464 430 441 C 458 417 473 387 473 351 C 473 303 453 266 414 242 C 374 217 310 202 222 198 L 154 194 C 154 152 167 119 191 96 C 215 72 248 61 291 61 C 319 61 347 65 373 75 C 399 84 425 99 451 119 L 439 35 C 414 19 389 8 363 1 C 337 -6 310 -10 282 -10 Z M 312 406 C 272 406 237 391 209 362 C 181 332 164 296 159 254 L 227 259 C 283 262 324 271 350 285 C 376 299 390 320 390 348 C 390 366 383 380 369 390 C 355 400 336 406 312 406 Z" unicode="ĕ" />
<glyph horiz-adv-x="503" d="M 316 715 L 328 796 L 409 796 L 397 715 L 316 715 Z M 72 0 L 164 658 L 522 658 L 511 579 L 237 579 L 208 373 L 474 373 L 463 294 L 197 294 L 167 79 L 456 79 L 445 0 L 72 0 Z" unicode="Ė" />
<glyph horiz-adv-x="480" d="M 271 532 L 283 620 L 370 620 L 358 532 L 271 532 Z M 282 -10 C 214 -10 162 9 126 48 C 89 87 71 139 71 203 C 71 280 94 345 142 397 C 190 449 249 476 320 476 C 365 476 402 464 430 441 C 458 417 473 387 473 351 C 473 303 453 266 414 242 C 374 217 310 202 222 198 L 154 194 C 154 152 167 119 191 96 C 215 72 248 61 291 61 C 319 61 347 65 373 75 C 399 84 425 99 451 119 L 439 35 C 414 19 389 8 363 1 C 337 -6 310 -10 282 -10 Z M 312 406 C 272 406 237 391 209 362 C 181 332 164 296 159 254 L 227 259 C 283 262 324 271 350 285 C 376 299 390 320 390 348 C 390 366 383 380 369 390 C 355 400 336 406 312 406 Z" unicode="ė" />
<glyph horiz-adv-x="503" d="M 72 0 L 164 658 L 522 658 L 511 579 L 237 579 L 208 373 L 474 373 L 463 294 L 197 294 L 167 79 L 456 79 L 445 0 L 441 0 C 414 0 392 -8 374 -25 C 356 -41 347 -62 347 -87 C 347 -107 354 -123 369 -135 C 383 -147 403 -153 427 -153 L 418 -220 C 374 -220 339 -209 313 -187 C 287 -165 275 -138 275 -104 C 275 -83 279 -64 289 -46 C 298 -28 311 -12 327 0 L 72 0 Z" unicode="Ę" />
<glyph horiz-adv-x="487" d="M 408 -215 C 360 -215 323 -203 295 -181 C 267 -159 254 -130 254 -94 C 254 -78 256 -62 262 -48 C 267 -34 275 -21 285 -10 L 282 -10 C 214 -10 162 9 126 48 C 89 87 71 139 71 203 C 71 280 94 345 142 397 C 190 449 249 476 320 476 C 365 476 402 464 430 441 C 458 417 473 387 473 351 C 473 303 453 266 414 242 C 374 217 310 202 222 198 L 154 194 C 154 152 167 119 191 96 C 215 72 248 61 291 61 C 319 61 347 65 373 75 C 399 84 425 99 451 119 L 439 35 C 431 30 423 26 415 22 C 407 18 399 14 391 10 C 371 1 355 -10 345 -26 C 334 -41 329 -58 329 -76 C 329 -99 337 -117 353 -131 C 369 -144 391 -151 417 -151 L 408 -215 Z M 312 406 C 272 406 237 391 209 362 C 181 332 164 296 159 254 L 227 259 C 283 262 324 271 350 285 C 376 299 390 320 390 348 C 390 366 383 380 369 390 C 355 400 336 406 312 406 Z" unicode="ę" />
<glyph horiz-adv-x="503" d="M 327 710 L 251 837 L 317 837 L 363 763 L 430 837 L 499 837 L 388 710 L 327 710 Z M 72 0 L 164 658 L 522 658 L 511 579 L 237 579 L 208 373 L 474 373 L 463 294 L 197 294 L 167 79 L 456 79 L 445 0 L 72 0 Z" unicode="Ě" />
<glyph horiz-adv-x="480" d="M 280 524 L 200 658 L 272 658 L 319 582 L 388 658 L 463 658 L 347 524 L 280 524 Z M 282 -10 C 214 -10 162 9 126 48 C 89 87 71 139 71 203 C 71 280 94 345 142 397 C 190 449 249 476 320 476 C 365 476 402 464 430 441 C 458 417 473 387 473 351 C 473 303 453 266 414 242 C 374 217 310 202 222 198 L 154 194 C 154 152 167 119 191 96 C 215 72 248 61 291 61 C 319 61 347 65 373 75 C 399 84 425 99 451 119 L 439 35 C 414 19 389 8 363 1 C 337 -6 310 -10 282 -10 Z M 312 406 C 272 406 237 391 209 362 C 181 332 164 296 159 254 L 227 259 C 283 262 324 271 350 285 C 376 299 390 320 390 348 C 390 366 383 380 369 390 C 355 400 336 406 312 406 Z" unicode="ě" />
<glyph horiz-adv-x="690" d="M 358 723 L 469 850 L 530 850 L 606 723 L 540 723 L 494 797 L 427 723 L 358 723 Z M 410 -14 C 312 -14 235 14 179 71 C 123 127 95 198 95 284 C 95 398 131 491 204 563 C 277 635 370 672 484 672 C 522 672 559 668 595 660 C 631 652 663 640 693 626 L 682 544 C 652 560 620 573 586 581 C 551 589 516 594 480 594 C 392 594 321 565 265 509 C 209 452 181 379 181 290 C 181 223 203 169 247 127 C 291 85 347 64 415 64 C 441 64 467 66 492 71 C 516 75 539 83 561 95 L 584 258 L 447 258 L 458 337 L 679 337 L 638 41 C 600 21 561 6 521 -1 C 481 -9 444 -14 410 -14 Z" unicode="Ĝ" />
<glyph horiz-adv-x="518" d="M 211 524 L 327 658 L 394 658 L 473 524 L 401 524 L 353 600 L 285 524 L 211 524 Z M 214 -224 C 184 -224 155 -220 127 -214 C 99 -208 71 -199 45 -187 L 57 -107 C 79 -121 104 -131 132 -139 C 159 -147 186 -151 213 -151 C 257 -151 293 -139 323 -115 C 352 -91 371 -51 379 6 L 393 107 C 375 63 352 32 324 15 C 295 -1 266 -10 236 -10 C 188 -10 149 7 118 41 C 86 75 71 120 71 178 C 71 261 98 331 154 389 C 210 447 278 476 359 476 C 384 476 411 473 440 468 C 469 463 497 456 523 447 L 462 15 C 450 -69 422 -129 380 -167 C 337 -205 282 -224 214 -224 Z M 257 63 C 287 63 319 79 351 112 C 383 144 407 212 423 316 L 434 392 C 421 396 407 399 393 401 C 378 403 363 404 349 404 C 295 404 249 382 210 340 C 171 297 152 246 152 186 C 152 146 162 115 183 94 C 203 73 228 63 257 63 Z" unicode="ĝ" />
<glyph horiz-adv-x="690" d="M 485 714 C 447 714 419 726 400 750 C 381 774 374 804 378 841 L 430 841 C 429 818 433 800 443 787 C 452 774 467 768 487 768 C 505 768 520 774 532 787 C 544 800 550 818 552 841 L 605 841 C 600 800 586 769 564 747 C 542 725 515 714 485 714 Z M 410 -14 C 312 -14 235 14 179 71 C 123 127 95 198 95 284 C 95 398 131 491 204 563 C 277 635 370 672 484 672 C 522 672 559 668 595 660 C 631 652 663 640 693 626 L 682 544 C 652 560 620 573 586 581 C 551 589 516 594 480 594 C 392 594 321 565 265 509 C 209 452 181 379 181 290 C 181 223 203 169 247 127 C 291 85 347 64 415 64 C 441 64 467 66 492 71 C 516 75 539 83 561 95 L 584 258 L 447 258 L 458 337 L 679 337 L 638 41 C 600 21 561 6 521 -1 C 481 -9 444 -14 410 -14 Z" unicode="Ğ" />
<glyph horiz-adv-x="518" d="M 344 516 C 304 516 275 528 255 553 C 235 578 227 610 232 650 L 288 650 C 287 626 291 608 301 595 C 311 581 326 575 347 575 C 365 575 381 581 393 595 C 405 608 413 626 415 650 L 472 650 C 467 607 453 574 429 551 C 405 527 377 516 344 516 Z M 214 -224 C 184 -224 155 -220 127 -214 C 99 -208 71 -199 45 -187 L 57 -107 C 79 -121 104 -131 132 -139 C 159 -147 186 -151 213 -151 C 257 -151 293 -139 323 -115 C 352 -91 371 -51 379 6 L 393 107 C 375 63 352 32 324 15 C 295 -1 266 -10 236 -10 C 188 -10 149 7 118 41 C 86 75 71 120 71 178 C 71 261 98 331 154 389 C 210 447 278 476 359 476 C 384 476 411 473 440 468 C 469 463 497 456 523 447 L 462 15 C 450 -69 422 -129 380 -167 C 337 -205 282 -224 214 -224 Z M 257 63 C 287 63 319 79 351 112 C 383 144 407 212 423 316 L 434 392 C 421 396 407 399 393 401 C 378 403 363 404 349 404 C 295 404 249 382 210 340 C 171 297 152 246 152 186 C 152 146 162 115 183 94 C 203 73 228 63 257 63 Z" unicode="ğ" />
<glyph horiz-adv-x="690" d="M 442 723 L 454 804 L 535 804 L 523 723 L 442 723 Z M 410 -14 C 312 -14 235 14 179 71 C 123 127 95 198 95 284 C 95 398 131 491 204 563 C 277 635 370 672 484 672 C 522 672 559 668 595 660 C 631 652 663 640 693 626 L 682 544 C 652 560 620 573 586 581 C 551 589 516 594 480 594 C 392 594 321 565 265 509 C 209 452 181 379 181 290 C 181 223 203 169 247 127 C 291 85 347 64 415 64 C 441 64 467 66 492 71 C 516 75 539 83 561 95 L 584 258 L 447 258 L 458 337 L 679 337 L 638 41 C 600 21 561 6 521 -1 C 481 -9 444 -14 410 -14 Z" unicode="Ġ" />
<glyph horiz-adv-x="518" d="M 300 532 L 312 620 L 399 620 L 387 532 L 300 532 Z M 214 -224 C 184 -224 155 -220 127 -214 C 99 -208 71 -199 45 -187 L 57 -107 C 79 -121 104 -131 132 -139 C 159 -147 186 -151 213 -151 C 257 -151 293 -139 323 -115 C 352 -91 371 -51 379 6 L 393 107 C 375 63 352 32 324 15 C 295 -1 266 -10 236 -10 C 188 -10 149 7 118 41 C 86 75 71 120 71 178 C 71 261 98 331 154 389 C 210 447 278 476 359 476 C 384 476 411 473 440 468 C 469 463 497 456 523 447 L 462 15 C 450 -69 422 -129 380 -167 C 337 -205 282 -224 214 -224 Z M 257 63 C 287 63 319 79 351 112 C 383 144 407 212 423 316 L 434 392 C 421 396 407 399 393 401 C 378 403 363 404 349 404 C 295 404 249 382 210 340 C 171 297 152 246 152 186 C 152 146 162 115 183 94 C 203 73 228 63 257 63 Z" unicode="ġ" />
<glyph horiz-adv-x="690" d="M 410 -14 C 312 -14 235 14 179 71 C 123 127 95 198 95 284 C 95 398 131 491 204 563 C 277 635 370 672 484 672 C 522 672 559 668 595 660 C 631 652 663 640 693 626 L 682 544 C 652 560 620 573 586 581 C 551 589 516 594 480 594 C 392 594 321 565 265 509 C 209 452 181 379 181 290 C 181 223 203 169 247 127 C 291 85 347 64 415 64 C 441 64 467 66 492 71 C 516 75 539 83 561 95 L 584 258 L 447 258 L 458 337 L 679 337 L 638 41 C 600 21 561 6 521 -1 C 481 -9 444 -14 410 -14 Z M 368 -236 L 316 -212 C 330 -192 341 -174 349 -156 C 356 -138 361 -118 364 -96 L 370 -56 L 437 -56 L 431 -96 C 427 -124 421 -148 411 -170 C 401 -192 387 -214 368 -236 Z" unicode="Ģ" />
<glyph horiz-adv-x="518" d="M 378 711 L 434 685 C 418 664 407 644 399 625 C 391 605 386 584 384 562 L 378 520 L 304 520 L 310 562 C 314 592 322 618 332 641 C 342 664 357 687 378 711 Z M 214 -224 C 184 -224 155 -220 127 -214 C 99 -208 71 -199 45 -187 L 57 -107 C 79 -121 104 -131 132 -139 C 159 -147 186 -151 213 -151 C 257 -151 293 -139 323 -115 C 352 -91 371 -51 379 6 L 393 107 C 375 63 352 32 324 15 C 295 -1 266 -10 236 -10 C 188 -10 149 7 118 41 C 86 75 71 120 71 178 C 71 261 98 331 154 389 C 210 447 278 476 359 476 C 384 476 411 473 440 468 C 469 463 497 456 523 447 L 462 15 C 450 -69 422 -129 380 -167 C 337 -205 282 -224 214 -224 Z M 257 63 C 287 63 319 79 351 112 C 383 144 407 212 423 316 L 434 392 C 421 396 407 399 393 401 C 378 403 363 404 349 404 C 295 404 249 382 210 340 C 171 297 152 246 152 186 C 152 146 162 115 183 94 C 203 73 228 63 257 63 Z" unicode="ģ" />
<glyph horiz-adv-x="683" d="M 316 714 L 427 841 L 488 841 L 564 714 L 498 714 L 452 788 L 385 714 L 316 714 Z M 72 0 L 164 658 L 249 658 L 209 376 L 578 376 L 618 658 L 702 658 L 610 0 L 526 0 L 568 297 L 199 297 L 157 0 L 72 0 Z" unicode="Ĥ" />
<glyph horiz-adv-x="500" d="M 46 736 L 162 870 L 229 870 L 308 736 L 236 736 L 188 812 L 120 736 L 46 736 Z M 61 0 L 162 720 L 244 720 L 208 465 C 205 447 202 428 199 409 C 196 390 193 371 189 353 C 207 397 232 428 262 447 C 292 466 322 476 353 476 C 398 476 434 460 460 429 C 486 397 494 355 485 303 L 453 130 C 449 108 446 86 445 65 C 443 44 443 22 443 0 L 361 0 C 361 22 361 43 363 65 C 364 87 367 108 371 130 L 400 281 C 407 319 403 349 387 370 C 371 391 349 402 321 402 C 294 402 265 386 233 356 C 201 325 178 253 162 139 L 143 0 L 61 0 Z" unicode="ĥ" />
<glyph horiz-adv-x="684" d="M 71 0 L 137 474 L 87 474 L 97 546 L 147 546 L 163 658 L 248 658 L 232 546 L 601 546 L 617 658 L 701 658 L 685 546 L 737 546 L 726 474 L 675 474 L 609 0 L 525 0 L 566 293 L 197 293 L 156 0 L 71 0 Z M 207 372 L 576 372 L 591 474 L 222 474 L 207 372 Z" unicode="Ħ" />
<glyph horiz-adv-x="500" d="M 61 0 L 140 561 L 93 561 L 103 630 L 149 630 L 162 720 L 244 720 L 231 630 L 315 630 L 306 561 L 222 561 L 208 465 C 205 447 202 428 199 409 C 196 390 193 371 189 353 C 207 397 232 428 262 447 C 292 466 322 476 353 476 C 398 476 434 460 460 429 C 486 397 494 355 485 303 L 453 130 C 449 108 446 86 445 65 C 443 44 443 22 443 0 L 361 0 C 361 22 361 43 363 65 C 364 87 367 108 371 130 L 400 281 C 407 319 403 349 387 370 C 371 391 349 402 321 402 C 294 402 265 386 233 356 C 201 325 178 253 162 139 L 143 0 L 61 0 Z" unicode="ħ" />
<glyph horiz-adv-x="229" d="M 120 715 L 72 715 C 78 749 88 774 104 791 C 119 808 139 817 165 817 C 177 817 189 814 200 810 C 210 806 222 799 234 789 C 243 781 251 776 258 772 C 264 768 271 766 278 766 C 288 766 297 769 305 777 C 313 785 318 796 322 811 L 370 811 C 363 777 352 751 337 734 C 321 717 301 709 277 709 C 264 709 252 711 241 715 C 230 719 219 727 208 737 C 199 745 191 750 184 754 C 177 758 170 760 164 760 C 153 760 144 756 136 749 C 128 741 123 730 120 715 Z M 72 0 L 164 658 L 249 658 L 157 0 L 72 0 Z" unicode="Ĩ" />
<glyph horiz-adv-x="214" d="M 84 524 L 31 524 C 37 560 49 587 65 605 C 81 623 103 633 130 633 C 142 633 154 630 166 626 C 177 621 189 613 202 603 C 212 595 220 589 227 585 C 234 581 241 580 248 580 C 258 580 268 584 276 592 C 284 600 289 611 293 626 L 346 626 C 339 590 327 562 311 544 C 295 526 274 517 248 517 C 234 517 221 519 210 524 C 198 528 187 536 175 547 C 165 555 157 560 150 564 C 142 568 135 570 129 570 C 118 570 109 566 101 558 C 93 550 87 538 84 524 Z M 71 0 C 71 20 72 41 74 63 C 76 85 78 107 81 129 L 129 466 L 211 466 L 163 129 C 160 108 158 86 156 63 C 154 40 153 19 153 0 L 71 0 Z" unicode="ĩ" />
<glyph horiz-adv-x="229" d="M 110 715 L 119 776 L 334 776 L 325 715 L 110 715 Z M 72 0 L 164 658 L 249 658 L 157 0 L 72 0 Z" unicode="Ī" />
<glyph horiz-adv-x="214" d="M 67 532 L 76 598 L 304 598 L 294 532 L 67 532 Z M 71 0 C 71 20 72 41 74 63 C 76 85 78 107 81 129 L 129 466 L 211 466 L 163 129 C 160 108 158 86 156 63 C 154 40 153 19 153 0 L 71 0 Z" unicode="ī" />
<glyph horiz-adv-x="229" d="M 217 706 C 179 706 151 718 132 742 C 113 766 106 796 110 833 L 162 833 C 161 810 165 792 175 779 C 184 766 199 760 219 760 C 237 760 252 766 264 779 C 276 792 282 810 284 833 L 337 833 C 332 792 318 761 296 739 C 274 717 247 706 217 706 Z M 72 0 L 164 658 L 249 658 L 157 0 L 72 0 Z" unicode="Ĭ" />
<glyph horiz-adv-x="214" d="M 182 516 C 142 516 113 528 93 553 C 73 578 65 610 70 650 L 126 650 C 125 626 129 608 139 595 C 149 581 164 575 185 575 C 203 575 219 581 231 595 C 243 608 251 626 253 650 L 310 650 C 305 607 291 574 267 551 C 243 527 215 516 182 516 Z M 72 0 C 72 20 73 41 75 63 C 77 85 79 107 82 129 L 130 466 L 212 466 L 164 129 C 161 108 159 86 157 63 C 155 40 154 19 154 0 L 72 0 Z" unicode="ĭ" />
<glyph horiz-adv-x="229" d="M 138 -216 C 92 -216 57 -207 31 -191 C 5 -175 -7 -150 -7 -117 C -7 -94 0 -73 12 -54 C 25 -35 45 -16 72 2 L 164 658 L 249 658 L 157 0 C 123 -15 99 -30 87 -44 C 74 -58 68 -74 68 -92 C 68 -108 74 -122 88 -132 C 101 -142 121 -147 148 -147 L 138 -216 Z" unicode="Į" />
<glyph horiz-adv-x="216" d="M 149 611 L 160 694 L 246 694 L 234 611 L 149 611 Z M 74 0 C 74 21 74 43 76 65 C 78 87 80 108 83 129 L 131 466 L 213 466 L 165 129 C 162 109 160 87 158 65 C 156 42 155 20 156 0 L 74 0 Z" unicode="į" />
<glyph horiz-adv-x="229" d="M 174 715 L 186 796 L 267 796 L 255 715 L 174 715 Z M 72 0 L 164 658 L 249 658 L 157 0 L 72 0 Z" unicode="İ" />
<glyph horiz-adv-x="214" d="M 71 0 C 71 20 72 41 74 63 C 76 85 78 107 81 129 L 129 466 L 211 466 L 163 129 C 160 108 158 86 156 63 C 154 40 153 19 153 0 L 71 0 Z" unicode="ı" />
<glyph horiz-adv-x="239" d="M 101 715 L 212 842 L 273 842 L 349 715 L 283 715 L 237 789 L 170 715 L 101 715 Z M -39 -211 L -47 -211 L -37 -133 L -29 -133 C 0 -133 23 -125 41 -111 C 59 -96 71 -72 76 -39 L 174 658 L 258 658 L 161 -38 C 152 -98 129 -141 93 -169 C 57 -197 13 -211 -39 -211 Z" unicode="Ĵ" />
<glyph horiz-adv-x="208" d="M 50 524 L 166 658 L 233 658 L 312 524 L 240 524 L 192 600 L 124 524 L 50 524 Z M -52 -211 L -60 -211 L -49 -136 L -41 -136 C -13 -136 9 -127 27 -109 C 45 -91 56 -67 61 -36 L 131 466 L 213 466 L 142 -36 C 134 -92 113 -135 79 -165 C 45 -195 2 -211 -52 -211 Z" unicode="ĵ" />
<glyph horiz-adv-x="569" d="M 72 0 L 164 658 L 249 658 L 206 357 L 527 658 L 632 658 L 288 335 L 553 0 L 447 0 L 201 318 L 156 0 L 72 0 Z M 257 -228 L 205 -204 C 219 -184 230 -166 238 -148 C 245 -130 250 -110 253 -88 L 259 -48 L 326 -48 L 320 -88 C 316 -116 310 -140 300 -162 C 290 -184 276 -206 257 -228 Z" unicode="Ķ" />
<glyph horiz-adv-x="466" d="M 61 0 L 162 720 L 244 720 L 180 265 C 224 296 264 328 302 361 C 340 393 374 428 404 466 L 498 466 C 462 420 425 379 387 343 C 348 306 307 272 265 242 L 449 0 L 351 0 L 176 236 L 143 0 L 61 0 Z M 205 -243 L 148 -217 C 164 -196 175 -176 183 -157 C 190 -138 195 -117 199 -94 L 205 -52 L 278 -52 L 272 -94 C 268 -124 261 -151 251 -174 C 241 -197 225 -220 205 -243 Z" unicode="ķ" />
<glyph horiz-adv-x="457" d="M 173 715 L 283 845 L 373 845 L 255 715 L 173 715 Z M 72 0 L 164 658 L 249 658 L 168 79 L 446 79 L 435 0 L 72 0 Z" unicode="Ĺ" />
<glyph horiz-adv-x="210" d="M 122 771 L 238 908 L 334 908 L 209 771 L 122 771 Z M 72 0 C 71 21 72 43 74 67 C 76 91 78 113 81 134 L 164 720 L 246 720 L 163 130 C 160 109 158 88 156 66 C 154 44 153 22 154 0 L 72 0 Z" unicode="ĺ" />
<glyph horiz-adv-x="457" d="M 72 0 L 164 658 L 249 658 L 168 79 L 446 79 L 435 0 L 72 0 Z M 226 -228 L 174 -204 C 188 -184 199 -166 207 -148 C 214 -130 219 -110 222 -88 L 228 -48 L 295 -48 L 289 -88 C 285 -116 279 -140 269 -162 C 259 -184 245 -206 226 -228 Z" unicode="Ļ" />
<glyph horiz-adv-x="213" d="M 71 0 C 70 21 71 43 73 67 C 75 91 77 113 80 134 L 163 720 L 245 720 L 162 130 C 159 109 157 88 155 66 C 153 44 152 22 153 0 L 71 0 Z M 68 -243 L 11 -217 C 27 -196 38 -176 46 -157 C 53 -138 58 -117 62 -94 L 68 -52 L 141 -52 L 135 -94 C 131 -124 124 -151 114 -174 C 104 -197 88 -220 68 -243 Z" unicode="ļ" />
<glyph horiz-adv-x="457" d="M 72 0 L 164 658 L 249 658 L 168 79 L 446 79 L 435 0 L 72 0 Z M 388 467 L 332 493 C 347 513 358 533 366 552 C 374 571 379 592 382 616 L 388 658 L 462 658 L 456 616 C 451 585 444 558 434 535 C 424 512 408 489 388 467 Z" unicode="Ľ" />
<glyph horiz-adv-x="352" d="M 72 0 C 71 21 72 43 74 67 C 76 91 78 113 81 134 L 164 720 L 246 720 L 163 130 C 160 109 158 88 156 66 C 154 44 153 22 154 0 L 72 0 Z M 335 529 L 279 555 C 294 575 305 595 313 614 C 321 633 326 654 329 678 L 335 720 L 409 720 L 403 678 C 398 647 391 620 381 597 C 371 574 355 551 335 529 Z" unicode="ľ" />
<glyph horiz-adv-x="457" d="M 72 0 L 164 658 L 249 658 L 168 79 L 446 79 L 435 0 L 72 0 Z M 361 315 L 373 399 L 457 399 L 445 315 L 361 315 Z" unicode="Ŀ" />
<glyph horiz-adv-x="289" d="M 72 0 C 71 21 72 43 74 67 C 76 91 78 113 81 134 L 164 720 L 246 720 L 163 130 C 160 109 158 88 156 66 C 154 44 153 22 154 0 L 72 0 Z M 248 315 L 260 399 L 344 399 L 332 315 L 248 315 Z" unicode="ŀ" />
<glyph horiz-adv-x="457" d="M 73 0 L 115 301 L 45 279 L 56 355 L 126 377 L 165 658 L 250 658 L 215 404 L 307 433 L 297 357 L 204 328 L 169 79 L 447 79 L 436 0 L 73 0 Z" unicode="Ł" />
<glyph horiz-adv-x="210" d="M 71 0 C 70 21 71 43 73 67 C 75 91 77 113 80 134 L 106 318 L 52 304 L 63 377 L 116 391 L 163 720 L 245 720 L 202 414 L 271 433 L 261 359 L 192 341 L 162 130 C 159 109 157 88 155 66 C 153 44 152 22 153 0 L 71 0 Z" unicode="ł" />
<glyph horiz-adv-x="706" d="M 395 715 L 505 845 L 595 845 L 477 715 L 395 715 Z M 72 0 L 164 658 L 252 658 L 540 178 L 572 120 L 579 178 L 646 658 L 726 658 L 634 0 L 547 0 L 258 483 L 227 540 L 219 483 L 152 0 L 72 0 Z" unicode="Ń" />
<glyph horiz-adv-x="502" d="M 277 524 L 393 661 L 489 661 L 364 524 L 277 524 Z M 68 0 L 117 349 C 120 371 122 391 124 411 C 125 430 126 448 126 466 L 208 466 C 208 453 207 439 206 424 C 205 408 204 395 203 385 L 199 354 C 217 398 241 429 269 448 C 297 466 325 476 354 476 C 402 476 438 459 462 427 C 486 395 494 353 485 303 L 454 130 C 450 108 447 86 446 65 C 445 44 445 22 445 0 L 363 0 C 363 22 363 43 364 65 C 365 87 368 108 372 130 L 401 281 C 407 318 403 347 388 369 C 372 390 350 401 322 401 C 294 401 266 383 236 348 C 206 313 184 243 170 139 L 150 0 L 68 0 Z" unicode="ń" />
<glyph horiz-adv-x="706" d="M 72 0 L 164 658 L 252 658 L 540 178 L 572 120 L 579 178 L 646 658 L 726 658 L 634 0 L 547 0 L 258 483 L 227 540 L 219 483 L 152 0 L 72 0 Z M 321 -228 L 269 -204 C 283 -184 294 -166 302 -148 C 309 -130 314 -110 317 -88 L 323 -48 L 390 -48 L 384 -88 C 380 -116 374 -140 364 -162 C 354 -184 340 -206 321 -228 Z" unicode="Ņ" />
<glyph horiz-adv-x="502" d="M 68 0 L 117 349 C 120 371 122 391 124 411 C 125 430 126 448 126 466 L 208 466 C 208 453 207 439 206 424 C 205 408 204 395 203 385 L 199 354 C 217 398 241 429 269 448 C 297 466 325 476 354 476 C 402 476 438 459 462 427 C 486 395 494 353 485 303 L 454 130 C 450 108 447 86 446 65 C 445 44 445 22 445 0 L 363 0 C 363 22 363 43 364 65 C 365 87 368 108 372 130 L 401 281 C 407 318 403 347 388 369 C 372 390 350 401 322 401 C 294 401 266 383 236 348 C 206 313 184 243 170 139 L 150 0 L 68 0 Z M 216 -243 L 159 -217 C 175 -196 186 -176 194 -157 C 201 -138 206 -117 210 -94 L 216 -52 L 289 -52 L 283 -94 C 279 -124 272 -151 262 -174 C 252 -197 236 -220 216 -243 Z" unicode="ņ" />
<glyph horiz-adv-x="706" d="M 416 710 L 340 837 L 406 837 L 452 763 L 519 837 L 588 837 L 477 710 L 416 710 Z M 72 0 L 164 658 L 252 658 L 540 178 L 572 120 L 579 178 L 646 658 L 726 658 L 634 0 L 547 0 L 258 483 L 227 540 L 219 483 L 152 0 L 72 0 Z" unicode="Ň" />
<glyph horiz-adv-x="502" d="M 299 524 L 219 658 L 291 658 L 338 582 L 407 658 L 482 658 L 366 524 L 299 524 Z M 68 0 L 117 349 C 120 371 122 391 124 411 C 125 430 126 448 126 466 L 208 466 C 208 453 207 439 206 424 C 205 408 204 395 203 385 L 199 354 C 217 398 241 429 269 448 C 297 466 325 476 354 476 C 402 476 438 459 462 427 C 486 395 494 353 485 303 L 454 130 C 450 108 447 86 446 65 C 445 44 445 22 445 0 L 363 0 C 363 22 363 43 364 65 C 365 87 368 108 372 130 L 401 281 C 407 318 403 347 388 369 C 372 390 350 401 322 401 C 294 401 266 383 236 348 C 206 313 184 243 170 139 L 150 0 L 68 0 Z" unicode="ň" />
<glyph horiz-adv-x="708" d="M 72 0 L 164 658 L 251 658 L 545 180 L 573 128 L 579 180 L 646 658 L 726 658 L 628 -55 C 620 -106 599 -145 565 -173 C 531 -201 486 -215 431 -215 L 423 -215 L 433 -141 L 441 -141 C 469 -141 493 -133 512 -117 C 531 -101 543 -81 548 -55 L 556 0 L 257 481 L 226 538 L 219 481 L 152 0 L 72 0 Z" unicode="Ŋ" />
<glyph horiz-adv-x="505" d="M 247 -215 L 239 -215 L 249 -140 L 257 -140 C 285 -140 308 -131 327 -113 C 345 -95 357 -70 361 -40 L 407 282 C 411 320 406 349 391 369 C 376 389 354 399 326 399 C 300 399 271 383 240 353 C 208 323 185 251 169 139 L 150 0 L 68 0 L 117 349 C 119 371 121 391 123 411 C 125 430 126 448 126 466 L 207 466 C 207 454 206 440 206 425 C 205 410 204 397 202 385 L 198 354 C 216 398 240 429 270 448 C 300 466 329 476 358 476 C 404 476 439 460 465 429 C 490 397 499 356 492 304 L 443 -42 C 435 -96 414 -139 380 -169 C 345 -199 301 -215 247 -215 Z" unicode="ŋ" />
<glyph horiz-adv-x="772" d="M 369 723 L 378 784 L 593 784 L 584 723 L 369 723 Z M 403 -15 C 311 -15 236 13 180 69 C 123 125 95 198 95 288 C 95 396 128 488 195 562 C 262 636 351 673 461 673 C 552 673 626 644 683 588 C 740 532 769 459 769 369 C 769 261 735 170 667 96 C 599 22 511 -15 403 -15 Z M 405 64 C 487 64 553 92 605 149 C 657 206 683 278 683 366 C 683 430 663 484 623 528 C 583 572 528 594 459 594 C 377 594 310 565 259 509 C 207 452 182 380 182 292 C 182 228 201 174 241 130 C 281 86 335 64 405 64 Z" unicode="Ō" />
<glyph horiz-adv-x="531" d="M 226 532 L 235 598 L 463 598 L 453 532 L 226 532 Z M 281 -11 C 217 -11 166 7 128 45 C 89 82 70 134 70 200 C 70 278 93 343 141 397 C 188 450 246 477 316 477 C 379 477 430 458 469 420 C 507 382 527 331 527 266 C 527 188 503 122 456 69 C 408 15 350 -11 281 -11 Z M 284 62 C 330 62 368 81 399 120 C 429 158 445 206 445 262 C 445 304 432 338 408 364 C 384 390 352 404 312 404 C 266 404 227 384 197 346 C 166 307 151 260 151 204 C 151 162 163 127 187 101 C 211 75 244 62 284 62 Z" unicode="ō" />
<glyph horiz-adv-x="772" d="M 476 714 C 438 714 410 726 391 750 C 372 774 365 804 369 841 L 421 841 C 420 818 424 800 434 787 C 443 774 458 768 478 768 C 496 768 511 774 523 787 C 535 800 541 818 543 841 L 596 841 C 591 800 577 769 555 747 C 533 725 506 714 476 714 Z M 403 -15 C 311 -15 236 13 180 69 C 123 125 95 198 95 288 C 95 396 128 488 195 562 C 262 636 351 673 461 673 C 552 673 626 644 683 588 C 740 532 769 459 769 369 C 769 261 735 170 667 96 C 599 22 511 -15 403 -15 Z M 405 64 C 487 64 553 92 605 149 C 657 206 683 278 683 366 C 683 430 663 484 623 528 C 583 572 528 594 459 594 C 377 594 310 565 259 509 C 207 452 182 380 182 292 C 182 228 201 174 241 130 C 281 86 335 64 405 64 Z" unicode="Ŏ" />
<glyph horiz-adv-x="531" d="M 340 516 C 300 516 271 528 251 553 C 231 578 223 610 228 650 L 284 650 C 283 626 287 608 297 595 C 307 581 322 575 343 575 C 361 575 377 581 389 595 C 401 608 409 626 411 650 L 468 650 C 463 607 449 574 425 551 C 401 527 373 516 340 516 Z M 281 -11 C 217 -11 166 7 128 45 C 89 82 70 134 70 200 C 70 278 93 343 141 397 C 188 450 246 477 316 477 C 379 477 430 458 469 420 C 507 382 527 331 527 266 C 527 188 503 122 456 69 C 408 15 350 -11 281 -11 Z M 284 62 C 330 62 368 81 399 120 C 429 158 445 206 445 262 C 445 304 432 338 408 364 C 384 390 352 404 312 404 C 266 404 227 384 197 346 C 166 307 151 260 151 204 C 151 162 163 127 187 101 C 211 75 244 62 284 62 Z" unicode="ŏ" />
<glyph horiz-adv-x="772" d="M 370 723 L 468 852 L 542 852 L 437 723 L 370 723 Z M 504 723 L 608 852 L 682 852 L 572 723 L 504 723 Z M 403 -15 C 311 -15 236 13 180 69 C 123 125 95 198 95 288 C 95 396 128 488 195 562 C 262 636 351 673 461 673 C 552 673 626 644 683 588 C 740 532 769 459 769 369 C 769 261 735 170 667 96 C 599 22 511 -15 403 -15 Z M 405 64 C 487 64 553 92 605 149 C 657 206 683 278 683 366 C 683 430 663 484 623 528 C 583 572 528 594 459 594 C 377 594 310 565 259 509 C 207 452 182 380 182 292 C 182 228 201 174 241 130 C 281 86 335 64 405 64 Z" unicode="Ő" />
<glyph horiz-adv-x="531" d="M 227 523 L 331 659 L 410 659 L 300 523 L 227 523 Z M 370 523 L 480 659 L 560 659 L 444 523 L 370 523 Z M 281 -11 C 217 -11 166 7 128 45 C 89 82 70 134 70 200 C 70 278 93 343 141 397 C 188 450 246 477 316 477 C 379 477 430 458 469 420 C 507 382 527 331 527 266 C 527 188 503 122 456 69 C 408 15 350 -11 281 -11 Z M 284 62 C 330 62 368 81 399 120 C 429 158 445 206 445 262 C 445 304 432 338 408 364 C 384 390 352 404 312 404 C 266 404 227 384 197 346 C 166 307 151 260 151 204 C 151 162 163 127 187 101 C 211 75 244 62 284 62 Z" unicode="ő" />
<glyph horiz-adv-x="900" d="M 414 0 C 312 0 233 28 178 84 C 123 140 96 209 96 293 C 96 401 132 489 204 557 C 276 624 375 658 501 658 L 919 658 L 908 579 L 633 579 L 604 373 L 871 373 L 860 294 L 594 294 L 564 79 L 853 79 L 842 0 L 414 0 Z M 416 79 L 480 79 L 549 579 L 483 579 C 390 579 317 552 263 500 C 209 448 182 380 182 297 C 182 233 203 180 245 140 C 287 99 344 79 416 79 Z" unicode="Œ" />
<glyph horiz-adv-x="837" d="M 275 -11 C 211 -11 161 8 125 46 C 89 84 71 136 71 200 C 71 278 93 343 139 397 C 184 450 241 477 311 477 C 353 477 388 467 418 449 C 448 431 470 406 486 376 C 508 406 535 431 568 449 C 600 467 637 476 677 476 C 722 476 759 464 787 441 C 815 417 830 387 830 351 C 830 303 810 266 771 242 C 731 217 667 202 579 198 L 511 194 C 511 152 524 119 548 96 C 572 72 606 61 648 61 C 677 61 705 65 731 75 C 757 84 782 99 808 119 L 796 35 C 771 19 746 8 720 1 C 694 -6 667 -10 639 -10 C 595 -10 558 -1 528 17 C 498 35 475 59 459 90 C 438 59 412 34 380 16 C 348 -1 313 -11 275 -11 Z M 669 406 C 629 406 594 391 566 362 C 538 332 521 296 516 254 L 584 259 C 640 262 681 271 707 285 C 733 299 747 320 747 348 C 747 366 740 380 726 390 C 712 400 693 406 669 406 Z M 279 62 C 325 62 362 81 391 120 C 419 158 434 206 434 262 C 434 304 422 338 400 364 C 378 390 347 404 307 404 C 261 404 224 384 195 346 C 166 307 152 260 152 204 C 152 162 163 127 185 101 C 207 75 239 62 279 62 Z" unicode="œ" />
<glyph horiz-adv-x="522" d="M 285 715 L 395 845 L 485 845 L 367 715 L 285 715 Z M 73 0 L 165 658 L 330 658 C 387 658 431 644 463 616 C 495 588 511 550 511 500 C 511 452 496 411 468 379 C 439 347 401 326 353 317 C 373 310 390 299 403 285 C 415 270 425 251 432 229 L 506 0 L 419 0 L 351 211 C 343 235 332 254 318 268 C 303 281 284 288 261 288 L 197 288 L 157 0 L 73 0 Z M 207 360 L 290 360 C 329 360 361 372 385 396 C 409 420 421 450 421 486 C 421 515 411 538 393 556 C 375 573 350 582 320 582 L 239 582 L 207 360 Z" unicode="Ŕ" />
<glyph horiz-adv-x="340" d="M 202 524 L 318 661 L 414 661 L 289 524 L 202 524 Z M 68 0 L 117 349 C 119 369 121 389 123 409 C 125 428 126 447 126 466 L 208 466 C 208 454 207 440 207 426 C 206 412 205 398 203 384 L 200 354 C 216 398 236 430 260 448 C 284 466 308 476 333 476 C 340 476 349 475 359 473 C 369 471 378 469 387 466 L 375 378 C 366 382 356 386 346 388 C 335 390 325 391 316 391 C 293 391 267 377 237 349 C 207 321 185 251 170 139 L 150 0 L 68 0 Z" unicode="ŕ" />
<glyph horiz-adv-x="522" d="M 73 0 L 165 658 L 330 658 C 387 658 431 644 463 616 C 495 588 511 550 511 500 C 511 452 496 411 468 379 C 439 347 401 326 353 317 C 373 310 390 299 403 285 C 415 270 425 251 432 229 L 506 0 L 419 0 L 351 211 C 343 235 332 254 318 268 C 303 281 284 288 261 288 L 197 288 L 157 0 L 73 0 Z M 207 360 L 290 360 C 329 360 361 372 385 396 C 409 420 421 450 421 486 C 421 515 411 538 393 556 C 375 573 350 582 320 582 L 239 582 L 207 360 Z M 248 -228 L 196 -204 C 210 -184 221 -166 229 -148 C 236 -130 241 -110 244 -88 L 250 -48 L 317 -48 L 311 -88 C 307 -116 301 -140 291 -162 C 281 -184 267 -206 248 -228 Z" unicode="Ŗ" />
<glyph horiz-adv-x="340" d="M 68 0 L 117 349 C 119 369 121 389 123 409 C 125 428 126 447 126 466 L 208 466 C 208 454 207 440 207 426 C 206 412 205 398 203 384 L 200 354 C 216 398 236 430 260 448 C 284 466 308 476 333 476 C 340 476 349 475 359 473 C 369 471 378 469 387 466 L 375 378 C 366 382 356 386 346 388 C 335 390 325 391 316 391 C 293 391 267 377 237 349 C 207 321 185 251 170 139 L 150 0 L 68 0 Z M 67 -243 L 10 -217 C 26 -196 37 -176 45 -157 C 52 -138 57 -117 61 -94 L 67 -52 L 140 -52 L 134 -94 C 130 -124 123 -151 113 -174 C 103 -197 87 -220 67 -243 Z" unicode="ŗ" />
<glyph horiz-adv-x="522" d="M 306 710 L 230 837 L 296 837 L 342 763 L 409 837 L 478 837 L 367 710 L 306 710 Z M 73 0 L 165 658 L 330 658 C 387 658 431 644 463 616 C 495 588 511 550 511 500 C 511 452 496 411 468 379 C 439 347 401 326 353 317 C 373 310 390 299 403 285 C 415 270 425 251 432 229 L 506 0 L 419 0 L 351 211 C 343 235 332 254 318 268 C 303 281 284 288 261 288 L 197 288 L 157 0 L 73 0 Z M 207 360 L 290 360 C 329 360 361 372 385 396 C 409 420 421 450 421 486 C 421 515 411 538 393 556 C 375 573 350 582 320 582 L 239 582 L 207 360 Z" unicode="Ř" />
<glyph horiz-adv-x="340" d="M 224 524 L 144 658 L 216 658 L 263 582 L 332 658 L 407 658 L 291 524 L 224 524 Z M 68 0 L 117 349 C 119 369 121 389 123 409 C 125 428 126 447 126 466 L 208 466 C 208 454 207 440 207 426 C 206 412 205 398 203 384 L 200 354 C 216 398 236 430 260 448 C 284 466 308 476 333 476 C 340 476 349 475 359 473 C 369 471 378 469 387 466 L 375 378 C 366 382 356 386 346 388 C 335 390 325 391 316 391 C 293 391 267 377 237 349 C 207 321 185 251 170 139 L 150 0 L 68 0 Z" unicode="ř" />
<glyph horiz-adv-x="506" d="M 297 723 L 407 853 L 497 853 L 379 723 L 297 723 Z M 251 -16 C 215 -16 182 -11 150 -3 C 118 4 89 17 63 34 L 75 124 C 99 104 126 89 157 79 C 188 68 221 63 255 63 C 291 63 323 73 350 93 C 377 113 391 143 391 181 C 391 205 382 226 365 245 C 348 264 320 281 282 297 L 270 302 C 220 322 183 347 160 375 C 136 403 125 437 125 476 C 125 530 144 577 182 615 C 220 653 273 673 339 673 C 371 673 402 669 432 661 C 462 653 489 642 515 627 L 502 536 C 478 556 452 571 425 581 C 397 590 368 595 338 595 C 300 595 270 584 247 564 C 224 544 213 517 213 485 C 213 462 221 442 239 424 C 256 406 284 389 323 373 L 336 368 C 385 348 421 323 444 294 C 467 264 479 230 479 192 C 479 132 457 82 414 43 C 370 3 316 -16 251 -16 Z" unicode="Ś" />
<glyph horiz-adv-x="389" d="M 206 524 L 322 661 L 418 661 L 293 524 L 206 524 Z M 189 -10 C 167 -10 144 -7 118 -1 C 92 5 68 13 48 23 L 59 98 C 76 85 97 75 122 68 C 146 60 170 57 193 58 C 219 58 241 63 259 75 C 276 87 285 104 285 126 C 285 142 278 156 266 168 C 253 179 233 190 207 201 L 194 206 C 158 218 132 235 115 256 C 98 277 90 304 90 337 C 90 377 105 411 135 437 C 165 463 207 476 259 476 C 278 476 300 473 326 468 C 351 463 373 456 392 448 L 382 374 C 366 384 346 393 322 399 C 298 405 277 408 258 408 C 233 408 212 402 196 392 C 180 381 172 365 172 345 C 172 329 177 315 187 305 C 197 294 214 284 238 276 L 252 271 C 291 256 320 238 339 216 C 357 194 367 168 367 137 C 367 93 351 58 319 31 C 287 3 243 -10 189 -10 Z" unicode="ś" />
<glyph horiz-adv-x="506" d="M 223 723 L 334 850 L 395 850 L 471 723 L 405 723 L 359 797 L 292 723 L 223 723 Z M 251 -16 C 215 -16 182 -11 150 -3 C 118 4 89 17 63 34 L 75 124 C 99 104 126 89 157 79 C 188 68 221 63 255 63 C 291 63 323 73 350 93 C 377 113 391 143 391 181 C 391 205 382 226 365 245 C 348 264 320 281 282 297 L 270 302 C 220 322 183 347 160 375 C 136 403 125 437 125 476 C 125 530 144 577 182 615 C 220 653 273 673 339 673 C 371 673 402 669 432 661 C 462 653 489 642 515 627 L 502 536 C 478 556 452 571 425 581 C 397 590 368 595 338 595 C 300 595 270 584 247 564 C 224 544 213 517 213 485 C 213 462 221 442 239 424 C 256 406 284 389 323 373 L 336 368 C 385 348 421 323 444 294 C 467 264 479 230 479 192 C 479 132 457 82 414 43 C 370 3 316 -16 251 -16 Z" unicode="Ŝ" />
<glyph horiz-adv-x="389" d="M 130 524 L 246 658 L 313 658 L 392 524 L 320 524 L 272 600 L 204 524 L 130 524 Z M 189 -10 C 167 -10 144 -7 118 -1 C 92 5 68 13 48 23 L 59 98 C 76 85 97 75 122 68 C 146 60 170 57 193 58 C 219 58 241 63 259 75 C 276 87 285 104 285 126 C 285 142 278 156 266 168 C 253 179 233 190 207 201 L 194 206 C 158 218 132 235 115 256 C 98 277 90 304 90 337 C 90 377 105 411 135 437 C 165 463 207 476 259 476 C 278 476 300 473 326 468 C 351 463 373 456 392 448 L 382 374 C 366 384 346 393 322 399 C 298 405 277 408 258 408 C 233 408 212 402 196 392 C 180 381 172 365 172 345 C 172 329 177 315 187 305 C 197 294 214 284 238 276 L 252 271 C 291 256 320 238 339 216 C 357 194 367 168 367 137 C 367 93 351 58 319 31 C 287 3 243 -10 189 -10 Z" unicode="ŝ" />
<glyph horiz-adv-x="506" d="M 251 -16 C 215 -16 182 -11 150 -3 C 118 4 89 17 63 34 L 75 124 C 99 104 126 89 157 79 C 188 68 221 63 255 63 C 291 63 323 73 350 93 C 377 113 391 143 391 181 C 391 205 382 226 365 245 C 348 264 320 281 282 297 L 270 302 C 220 322 183 347 160 375 C 136 403 125 437 125 476 C 125 530 144 577 182 615 C 220 653 273 673 339 673 C 371 673 402 669 432 661 C 462 653 489 642 515 627 L 502 536 C 478 556 452 571 425 581 C 397 590 368 595 338 595 C 300 595 270 584 247 564 C 224 544 213 517 213 485 C 213 462 221 442 239 424 C 256 406 284 389 323 373 L 336 368 C 385 348 421 323 444 294 C 467 264 479 230 479 192 C 479 132 457 82 414 43 C 370 3 316 -16 251 -16 Z M 245 -206 C 234 -206 224 -204 214 -202 C 204 -200 194 -196 186 -192 L 192 -144 C 198 -149 206 -153 215 -156 C 224 -159 233 -161 243 -161 C 255 -161 264 -157 272 -151 C 279 -144 283 -135 283 -125 C 283 -115 279 -108 272 -102 C 265 -96 256 -93 246 -93 L 238 -93 L 245 -48 L 252 -48 C 276 -48 296 -54 312 -68 C 328 -82 336 -100 336 -122 C 336 -146 327 -166 310 -182 C 292 -198 271 -206 245 -206 Z" unicode="Ş" />
<glyph horiz-adv-x="389" d="M 189 -10 C 167 -10 144 -7 118 -1 C 92 5 68 13 48 23 L 59 98 C 76 85 97 75 122 68 C 146 60 170 57 193 58 C 219 58 241 63 259 75 C 276 87 285 104 285 126 C 285 142 278 156 266 168 C 253 179 233 190 207 201 L 194 206 C 158 218 132 235 115 256 C 98 277 90 304 90 337 C 90 377 105 411 135 437 C 165 463 207 476 259 476 C 278 476 300 473 326 468 C 351 463 373 456 392 448 L 382 374 C 366 384 346 393 322 399 C 298 405 277 408 258 408 C 233 408 212 402 196 392 C 180 381 172 365 172 345 C 172 329 177 315 187 305 C 197 294 214 284 238 276 L 252 271 C 291 256 320 238 339 216 C 357 194 367 168 367 137 C 367 93 351 58 319 31 C 287 3 243 -10 189 -10 Z M 172 -212 C 161 -212 150 -210 140 -208 C 129 -205 119 -201 110 -197 L 117 -146 C 124 -151 132 -155 142 -158 C 152 -161 161 -163 171 -163 C 183 -163 193 -159 201 -153 C 209 -146 213 -137 213 -126 C 213 -116 209 -107 202 -101 C 195 -95 186 -92 175 -92 L 169 -92 L 175 -44 L 181 -44 C 208 -44 230 -51 246 -65 C 262 -79 270 -99 270 -123 C 270 -149 260 -170 242 -187 C 224 -203 200 -212 172 -212 Z" unicode="ş" />
<glyph horiz-adv-x="506" d="M 318 718 L 242 845 L 308 845 L 354 771 L 421 845 L 490 845 L 379 718 L 318 718 Z M 251 -16 C 215 -16 182 -11 150 -3 C 118 4 89 17 63 34 L 75 124 C 99 104 126 89 157 79 C 188 68 221 63 255 63 C 291 63 323 73 350 93 C 377 113 391 143 391 181 C 391 205 382 226 365 245 C 348 264 320 281 282 297 L 270 302 C 220 322 183 347 160 375 C 136 403 125 437 125 476 C 125 530 144 577 182 615 C 220 653 273 673 339 673 C 371 673 402 669 432 661 C 462 653 489 642 515 627 L 502 536 C 478 556 452 571 425 581 C 397 590 368 595 338 595 C 300 595 270 584 247 564 C 224 544 213 517 213 485 C 213 462 221 442 239 424 C 256 406 284 389 323 373 L 336 368 C 385 348 421 323 444 294 C 467 264 479 230 479 192 C 479 132 457 82 414 43 C 370 3 316 -16 251 -16 Z" unicode="Š" />
<glyph horiz-adv-x="389" d="M 228 524 L 148 658 L 220 658 L 267 582 L 336 658 L 411 658 L 295 524 L 228 524 Z M 189 -10 C 167 -10 144 -7 118 -1 C 92 5 68 13 48 23 L 59 98 C 76 85 97 75 122 68 C 146 60 170 57 193 58 C 219 58 241 63 259 75 C 276 87 285 104 285 126 C 285 142 278 156 266 168 C 253 179 233 190 207 201 L 194 206 C 158 218 132 235 115 256 C 98 277 90 304 90 337 C 90 377 105 411 135 437 C 165 463 207 476 259 476 C 278 476 300 473 326 468 C 351 463 373 456 392 448 L 382 374 C 366 384 346 393 322 399 C 298 405 277 408 258 408 C 233 408 212 402 196 392 C 180 381 172 365 172 345 C 172 329 177 315 187 305 C 197 294 214 284 238 276 L 252 271 C 291 256 320 238 339 216 C 357 194 367 168 367 137 C 367 93 351 58 319 31 C 287 3 243 -10 189 -10 Z" unicode="š" />
<glyph horiz-adv-x="550" d="M 233 0 L 314 579 L 101 579 L 112 658 L 622 658 L 611 579 L 398 579 L 317 0 L 233 0 Z M 261 -202 C 250 -202 240 -200 230 -198 C 220 -196 210 -192 202 -188 L 208 -140 C 214 -145 222 -149 231 -152 C 240 -155 249 -157 259 -157 C 271 -157 280 -153 288 -147 C 295 -140 299 -131 299 -121 C 299 -111 295 -104 288 -98 C 281 -92 272 -89 262 -89 L 254 -89 L 261 -44 L 268 -44 C 292 -44 312 -50 328 -64 C 344 -78 352 -96 352 -118 C 352 -142 343 -162 326 -178 C 308 -194 287 -202 261 -202 Z" unicode="Ţ" />
<glyph horiz-adv-x="304" d="M 198 -9 C 162 -9 136 1 119 23 C 102 45 96 75 102 115 L 141 392 L 73 392 L 83 466 L 152 466 L 172 609 L 254 609 L 234 466 L 342 466 L 331 392 L 223 392 L 185 123 C 182 103 184 88 191 79 C 198 69 209 65 225 65 C 235 65 246 66 256 69 C 266 72 277 77 287 84 L 277 9 C 265 3 252 -1 238 -4 C 224 -7 210 -9 198 -9 Z M 174 -216 C 163 -216 152 -214 142 -212 C 131 -209 121 -205 112 -201 L 119 -150 C 126 -155 134 -159 144 -162 C 154 -165 163 -167 173 -167 C 185 -167 195 -163 203 -157 C 211 -150 215 -141 215 -130 C 215 -120 211 -111 204 -105 C 197 -99 188 -96 177 -96 L 171 -96 L 177 -48 L 183 -48 C 210 -48 232 -55 248 -69 C 264 -83 272 -103 272 -127 C 272 -153 262 -174 244 -191 C 226 -207 202 -216 174 -216 Z" unicode="ţ" />
<glyph horiz-adv-x="550" d="M 343 710 L 267 837 L 333 837 L 379 763 L 446 837 L 515 837 L 404 710 L 343 710 Z M 233 0 L 314 579 L 101 579 L 112 658 L 622 658 L 611 579 L 398 579 L 317 0 L 233 0 Z" unicode="Ť" />
<glyph horiz-adv-x="381" d="M 363 530 L 307 556 C 322 576 333 596 341 615 C 349 634 354 655 357 679 L 363 721 L 437 721 L 431 679 C 426 648 419 621 409 598 C 399 575 383 552 363 530 Z M 198 -9 C 162 -9 136 1 119 23 C 102 45 96 75 102 115 L 141 392 L 73 392 L 83 466 L 152 466 L 172 609 L 254 609 L 234 466 L 342 466 L 331 392 L 223 392 L 185 123 C 182 103 184 88 191 79 C 198 69 209 65 225 65 C 235 65 246 66 256 69 C 266 72 277 77 287 84 L 277 9 C 265 3 252 -1 238 -4 C 224 -7 210 -9 198 -9 Z" unicode="ť" />
<glyph horiz-adv-x="550" d="M 233 0 L 276 310 L 152 310 L 163 383 L 287 383 L 314 579 L 101 579 L 112 658 L 622 658 L 611 579 L 398 579 L 371 383 L 495 383 L 484 310 L 360 310 L 317 0 L 233 0 Z" unicode="Ŧ" />
<glyph horiz-adv-x="304" d="M 198 -9 C 162 -9 136 1 119 23 C 102 45 96 75 102 115 L 119 237 L 64 237 L 73 306 L 129 306 L 141 392 L 73 392 L 83 466 L 152 466 L 172 609 L 254 609 L 234 466 L 342 466 L 331 392 L 223 392 L 211 306 L 284 306 L 274 237 L 201 237 L 185 123 C 182 103 184 88 191 79 C 198 69 209 65 225 65 C 235 65 246 66 256 69 C 266 72 277 77 287 84 L 277 9 C 265 3 252 -1 238 -4 C 224 -7 210 -9 198 -9 Z" unicode="ŧ" />
<glyph horiz-adv-x="667" d="M 340 715 L 292 715 C 298 749 308 774 324 791 C 339 808 359 817 385 817 C 397 817 409 814 420 810 C 430 806 442 799 454 789 C 463 781 471 776 478 772 C 484 768 491 766 498 766 C 508 766 517 769 525 777 C 533 785 538 796 542 811 L 590 811 C 583 777 572 751 557 734 C 541 717 521 709 497 709 C 484 709 472 711 461 715 C 450 719 439 727 428 737 C 419 745 411 750 404 754 C 397 758 390 760 384 760 C 373 760 364 756 356 749 C 348 741 343 730 340 715 Z M 351 -12 C 262 -12 196 13 152 63 C 108 113 92 177 103 255 L 159 658 L 243 658 L 186 253 C 178 195 188 150 218 117 C 247 83 292 67 353 67 C 407 67 452 84 490 118 C 527 152 550 197 558 253 L 615 658 L 693 658 L 636 251 C 624 167 593 103 541 57 C 489 11 425 -12 351 -12 Z" unicode="Ũ" />
<glyph horiz-adv-x="504" d="M 224 525 L 171 525 C 177 561 189 588 205 606 C 221 624 243 634 270 634 C 282 634 294 631 306 627 C 317 622 329 614 342 604 C 352 596 360 590 367 586 C 374 582 381 581 388 581 C 398 581 408 585 416 593 C 424 601 429 612 433 627 L 486 627 C 479 591 467 563 451 545 C 435 527 414 518 388 518 C 374 518 361 520 350 525 C 338 529 327 537 315 548 C 305 556 297 561 290 565 C 282 569 275 571 269 571 C 258 571 249 567 241 559 C 233 551 227 539 224 525 Z M 215 -11 C 169 -11 133 4 107 36 C 81 67 72 109 81 163 L 110 342 C 114 365 117 387 119 407 C 121 427 122 446 122 466 L 204 466 C 204 444 203 423 201 403 C 199 382 196 361 192 339 L 167 185 C 160 145 164 114 179 94 C 193 74 216 64 246 64 C 274 64 304 80 334 114 C 364 147 387 214 401 316 L 422 466 L 504 466 L 456 120 C 453 99 451 78 450 58 C 448 38 448 18 448 0 L 366 0 C 366 12 366 25 367 39 C 367 53 368 66 370 79 L 374 112 C 355 68 331 36 302 17 C 273 -1 244 -11 215 -11 Z" unicode="ũ" />
<glyph horiz-adv-x="667" d="M 330 715 L 339 776 L 554 776 L 545 715 L 330 715 Z M 351 -12 C 262 -12 196 13 152 63 C 108 113 92 177 103 255 L 159 658 L 243 658 L 186 253 C 178 195 188 150 218 117 C 247 83 292 67 353 67 C 407 67 452 84 490 118 C 527 152 550 197 558 253 L 615 658 L 693 658 L 636 251 C 624 167 593 103 541 57 C 489 11 425 -12 351 -12 Z" unicode="Ū" />
<glyph horiz-adv-x="504" d="M 207 533 L 216 599 L 444 599 L 434 533 L 207 533 Z M 215 -11 C 169 -11 133 4 107 36 C 81 67 72 109 81 163 L 110 342 C 114 365 117 387 119 407 C 121 427 122 446 122 466 L 204 466 C 204 444 203 423 201 403 C 199 382 196 361 192 339 L 167 185 C 160 145 164 114 179 94 C 193 74 216 64 246 64 C 274 64 304 80 334 114 C 364 147 387 214 401 316 L 422 466 L 504 466 L 456 120 C 453 99 451 78 450 58 C 448 38 448 18 448 0 L 366 0 C 366 12 366 25 367 39 C 367 53 368 66 370 79 L 374 112 C 355 68 331 36 302 17 C 273 -1 244 -11 215 -11 Z" unicode="ū" />
<glyph horiz-adv-x="667" d="M 437 706 C 399 706 371 718 352 742 C 333 766 326 796 330 833 L 382 833 C 381 810 385 792 395 779 C 404 766 419 760 439 760 C 457 760 472 766 484 779 C 496 792 502 810 504 833 L 557 833 C 552 792 538 761 516 739 C 494 717 467 706 437 706 Z M 351 -12 C 262 -12 196 13 152 63 C 108 113 92 177 103 255 L 159 658 L 243 658 L 186 253 C 178 195 188 150 218 117 C 247 83 292 67 353 67 C 407 67 452 84 490 118 C 527 152 550 197 558 253 L 615 658 L 693 658 L 636 251 C 624 167 593 103 541 57 C 489 11 425 -12 351 -12 Z" unicode="Ŭ" />
<glyph horiz-adv-x="504" d="M 321 517 C 281 517 252 529 232 554 C 212 579 204 611 209 651 L 265 651 C 264 627 268 609 278 596 C 288 582 303 576 324 576 C 342 576 358 582 370 596 C 382 609 390 627 392 651 L 449 651 C 444 608 430 575 406 552 C 382 528 354 517 321 517 Z M 215 -11 C 169 -11 133 4 107 36 C 81 67 72 109 81 163 L 110 342 C 114 365 117 387 119 407 C 121 427 122 446 122 466 L 204 466 C 204 444 203 423 201 403 C 199 382 196 361 192 339 L 167 185 C 160 145 164 114 179 94 C 193 74 216 64 246 64 C 274 64 304 80 334 114 C 364 147 387 214 401 316 L 422 466 L 504 466 L 456 120 C 453 99 451 78 450 58 C 448 38 448 18 448 0 L 366 0 C 366 12 366 25 367 39 C 367 53 368 66 370 79 L 374 112 C 355 68 331 36 302 17 C 273 -1 244 -11 215 -11 Z" unicode="ŭ" />
<glyph horiz-adv-x="667" d="M 430 620 C 405 620 385 627 371 642 C 356 657 349 676 349 698 C 349 724 357 746 375 764 C 393 782 415 791 441 791 C 465 791 484 783 499 768 C 514 753 522 735 522 713 C 522 687 513 665 496 647 C 479 629 457 620 430 620 Z M 431 664 C 443 664 454 668 462 677 C 470 685 475 696 475 710 C 475 720 471 729 464 736 C 457 743 448 747 438 747 C 426 747 415 742 407 733 C 398 724 394 713 394 701 C 394 690 397 681 404 674 C 411 667 420 664 431 664 Z M 351 -12 C 262 -12 196 13 152 63 C 108 113 92 177 103 255 L 159 658 L 243 658 L 186 253 C 178 195 188 150 218 117 C 247 83 292 67 353 67 C 407 67 452 84 490 118 C 527 152 550 197 558 253 L 615 658 L 693 658 L 636 251 C 624 167 593 103 541 57 C 489 11 425 -12 351 -12 Z" unicode="Ů" />
<glyph horiz-adv-x="504" d="M 315 457 C 290 457 270 465 254 481 C 238 497 231 516 231 540 C 231 568 240 591 259 610 C 278 628 302 638 331 638 C 355 638 375 630 391 614 C 406 598 414 578 414 555 C 414 527 405 504 387 485 C 369 466 345 457 315 457 Z M 319 505 C 331 505 342 509 351 518 C 360 527 365 538 365 552 C 365 563 361 572 353 580 C 345 587 336 591 326 591 C 313 591 302 586 294 577 C 285 567 281 556 281 543 C 281 531 284 522 292 515 C 299 508 308 505 319 505 Z M 215 -11 C 169 -11 133 4 107 36 C 81 67 72 109 81 163 L 110 342 C 114 365 117 387 119 407 C 121 427 122 446 122 466 L 204 466 C 204 444 203 423 201 403 C 199 382 196 361 192 339 L 167 185 C 160 145 164 114 179 94 C 193 74 216 64 246 64 C 274 64 304 80 334 114 C 364 147 387 214 401 316 L 422 466 L 504 466 L 456 120 C 453 99 451 78 450 58 C 448 38 448 18 448 0 L 366 0 C 366 12 366 25 367 39 C 367 53 368 66 370 79 L 374 112 C 355 68 331 36 302 17 C 273 -1 244 -11 215 -11 Z" unicode="ů" />
<glyph horiz-adv-x="667" d="M 331 715 L 429 844 L 503 844 L 398 715 L 331 715 Z M 465 715 L 569 844 L 643 844 L 533 715 L 465 715 Z M 351 -12 C 262 -12 196 13 152 63 C 108 113 92 177 103 255 L 159 658 L 243 658 L 186 253 C 178 195 188 150 218 117 C 247 83 292 67 353 67 C 407 67 452 84 490 118 C 527 152 550 197 558 253 L 615 658 L 693 658 L 636 251 C 624 167 593 103 541 57 C 489 11 425 -12 351 -12 Z" unicode="Ű" />
<glyph horiz-adv-x="504" d="M 208 524 L 312 660 L 391 660 L 281 524 L 208 524 Z M 351 524 L 461 660 L 541 660 L 425 524 L 351 524 Z M 215 -11 C 169 -11 133 4 107 36 C 81 67 72 109 81 163 L 110 342 C 114 365 117 387 119 407 C 121 427 122 446 122 466 L 204 466 C 204 444 203 423 201 403 C 199 382 196 361 192 339 L 167 185 C 160 145 164 114 179 94 C 193 74 216 64 246 64 C 274 64 304 80 334 114 C 364 147 387 214 401 316 L 422 466 L 504 466 L 456 120 C 453 99 451 78 450 58 C 448 38 448 18 448 0 L 366 0 C 366 12 366 25 367 39 C 367 53 368 66 370 79 L 374 112 C 355 68 331 36 302 17 C 273 -1 244 -11 215 -11 Z" unicode="ű" />
<glyph horiz-adv-x="667" d="M 461 -220 C 415 -220 378 -208 351 -186 C 323 -163 310 -134 310 -98 C 310 -82 312 -66 318 -52 C 324 -37 332 -24 342 -12 C 256 -12 191 11 148 59 C 105 107 89 171 101 253 L 158 658 L 242 658 L 185 251 C 177 193 187 148 215 116 C 243 83 286 67 345 67 C 401 67 448 83 487 117 C 525 150 549 194 557 250 L 614 658 L 692 658 L 635 248 C 626 186 605 134 572 93 C 539 51 499 22 451 6 C 430 -1 413 -12 401 -28 C 389 -43 383 -60 383 -79 C 383 -102 391 -120 407 -133 C 423 -146 444 -153 471 -153 L 461 -220 Z" unicode="Ų" />
<glyph horiz-adv-x="504" d="M 215 -11 C 169 -11 133 4 107 36 C 81 67 72 109 81 163 L 110 342 C 114 365 117 387 119 407 C 121 427 122 446 122 466 L 204 466 C 204 444 203 423 201 403 C 199 382 196 361 192 339 L 167 185 C 160 145 164 114 179 94 C 193 74 216 64 246 64 C 274 64 304 80 334 114 C 364 147 387 214 401 316 L 422 466 L 504 466 L 456 120 C 453 100 451 81 450 62 C 448 43 448 25 448 8 L 450 1 L 448 0 L 448 0 L 448 0 C 415 -15 392 -30 380 -44 C 367 -58 361 -73 361 -91 C 361 -107 367 -121 381 -131 C 394 -141 414 -146 441 -146 L 431 -215 C 385 -215 350 -206 324 -190 C 298 -174 286 -149 286 -116 C 286 -93 292 -72 305 -53 C 318 -34 338 -15 366 3 C 366 15 366 28 367 41 C 367 54 368 67 370 79 L 374 112 C 355 68 331 36 302 17 C 273 -1 244 -11 215 -11 Z" unicode="ų" />
<glyph horiz-adv-x="943" d="M 435 715 L 546 842 L 607 842 L 683 715 L 617 715 L 571 789 L 504 715 L 435 715 Z M 221 0 L 108 658 L 196 658 L 275 175 L 281 112 L 305 175 L 519 658 L 610 658 L 689 175 L 695 113 L 718 175 L 932 658 L 1019 658 L 721 0 L 634 0 L 556 483 L 549 547 L 524 483 L 310 0 L 221 0 Z" unicode="Ŵ" />
<glyph horiz-adv-x="723" d="M 304 524 L 420 658 L 487 658 L 566 524 L 494 524 L 446 600 L 378 524 L 304 524 Z M 167 0 L 79 466 L 160 466 L 222 151 L 229 88 C 257 145 285 205 313 268 C 340 331 366 397 392 466 L 469 466 L 529 151 L 538 91 C 567 149 595 210 621 273 C 647 336 671 400 693 466 L 771 466 C 744 383 713 302 678 224 C 643 146 605 71 564 0 L 479 0 L 424 294 L 417 352 C 392 290 366 229 338 170 C 310 110 281 54 252 0 L 167 0 Z" unicode="ŵ" />
<glyph horiz-adv-x="591" d="M 260 715 L 371 842 L 432 842 L 508 715 L 442 715 L 396 789 L 329 715 L 260 715 Z M 252 0 L 292 280 L 104 658 L 198 658 L 321 414 L 344 360 L 381 414 L 570 658 L 669 658 L 375 281 L 336 0 L 252 0 Z" unicode="Ŷ" />
<glyph horiz-adv-x="480" d="M 179 524 L 295 658 L 362 658 L 441 524 L 369 524 L 321 600 L 253 524 L 179 524 Z M 303 -6 C 253 -77 200 -130 144 -164 C 88 -198 27 -215 -39 -215 L -47 -215 L -37 -140 L -29 -140 C 14 -140 56 -129 97 -107 C 137 -85 172 -55 201 -19 L 79 466 L 168 466 L 244 152 L 261 51 C 292 105 321 166 349 236 C 376 306 401 382 425 466 L 509 466 C 477 363 445 272 411 194 C 377 115 341 48 303 -6 Z" unicode="ŷ" />
<glyph horiz-adv-x="591" d="M 273 715 L 283 791 L 359 791 L 348 715 L 273 715 Z M 419 715 L 430 791 L 506 791 L 495 715 L 419 715 Z M 252 0 L 292 280 L 104 658 L 198 658 L 321 414 L 344 360 L 381 414 L 570 658 L 669 658 L 375 281 L 336 0 L 252 0 Z" unicode="Ÿ" />
<glyph horiz-adv-x="576" d="M 323 715 L 433 845 L 523 845 L 405 715 L 323 715 Z M 45 0 L 52 47 L 446 534 L 483 579 L 130 579 L 141 658 L 621 658 L 615 613 L 220 124 L 183 79 L 541 79 L 529 0 L 45 0 Z" unicode="Ź" />
<glyph horiz-adv-x="435" d="M 226 524 L 342 661 L 438 661 L 313 524 L 226 524 Z M 40 0 L 48 56 L 300 355 L 334 392 L 100 392 L 110 466 L 456 466 L 448 409 L 196 111 L 162 74 L 406 74 L 395 0 L 40 0 Z" unicode="ź" />
<glyph horiz-adv-x="576" d="M 333 715 L 345 796 L 426 796 L 414 715 L 333 715 Z M 45 0 L 52 47 L 446 534 L 483 579 L 130 579 L 141 658 L 621 658 L 615 613 L 220 124 L 183 79 L 541 79 L 529 0 L 45 0 Z" unicode="Ż" />
<glyph horiz-adv-x="435" d="M 239 532 L 251 620 L 338 620 L 326 532 L 239 532 Z M 40 0 L 48 56 L 300 355 L 334 392 L 100 392 L 110 466 L 456 466 L 448 409 L 196 111 L 162 74 L 406 74 L 395 0 L 40 0 Z" unicode="ż" />
<glyph horiz-adv-x="576" d="M 344 710 L 268 837 L 334 837 L 380 763 L 447 837 L 516 837 L 405 710 L 344 710 Z M 45 0 L 52 47 L 446 534 L 483 579 L 130 579 L 141 658 L 621 658 L 615 613 L 220 124 L 183 79 L 541 79 L 529 0 L 45 0 Z" unicode="Ž" />
<glyph horiz-adv-x="435" d="M 248 524 L 168 658 L 240 658 L 287 582 L 356 658 L 431 658 L 315 524 L 248 524 Z M 40 0 L 48 56 L 300 355 L 334 392 L 100 392 L 110 466 L 456 466 L 448 409 L 196 111 L 162 74 L 406 74 L 395 0 L 40 0 Z" unicode="ž" />
<glyph horiz-adv-x="418" d="M 56 -219 C 41 -219 27 -217 13 -214 C 0 -211 -13 -206 -26 -200 L -16 -120 C -4 -126 8 -131 21 -135 C 34 -138 48 -140 64 -140 C 88 -140 108 -131 124 -113 C 139 -95 149 -71 153 -41 L 213 391 L 113 391 L 124 466 L 223 466 L 235 551 C 243 610 263 654 295 683 C 327 712 366 727 412 727 C 426 727 441 725 456 722 C 470 719 485 715 500 710 L 489 631 C 476 637 463 642 450 646 C 437 650 424 652 411 652 C 383 652 362 643 346 626 C 330 608 320 584 316 552 L 304 466 L 423 466 L 413 391 L 294 391 L 233 -43 C 225 -102 205 -146 174 -175 C 143 -204 104 -219 56 -219 Z" unicode="ƒ" />
<glyph horiz-adv-x="690" d="M 453 718 L 377 845 L 443 845 L 489 771 L 556 845 L 625 845 L 514 718 L 453 718 Z M 410 -14 C 312 -14 235 14 179 71 C 123 127 95 198 95 284 C 95 398 131 491 204 563 C 277 635 370 672 484 672 C 522 672 559 668 595 660 C 631 652 663 640 693 626 L 682 544 C 652 560 620 573 586 581 C 551 589 516 594 480 594 C 392 594 321 565 265 509 C 209 452 181 379 181 290 C 181 223 203 169 247 127 C 291 85 347 64 415 64 C 441 64 467 66 492 71 C 516 75 539 83 561 95 L 584 258 L 447 258 L 458 337 L 679 337 L 638 41 C 600 21 561 6 521 -1 C 481 -9 444 -14 410 -14 Z" unicode="Ǧ" />
<glyph horiz-adv-x="518" d="M 309 524 L 229 658 L 301 658 L 348 582 L 417 658 L 492 658 L 376 524 L 309 524 Z M 214 -224 C 184 -224 155 -220 127 -214 C 99 -208 71 -199 45 -187 L 57 -107 C 79 -121 104 -131 132 -139 C 159 -147 186 -151 213 -151 C 257 -151 293 -139 323 -115 C 352 -91 371 -51 379 6 L 393 107 C 375 63 352 32 324 15 C 295 -1 266 -10 236 -10 C 188 -10 149 7 118 41 C 86 75 71 120 71 178 C 71 261 98 331 154 389 C 210 447 278 476 359 476 C 384 476 411 473 440 468 C 469 463 497 456 523 447 L 462 15 C 450 -69 422 -129 380 -167 C 337 -205 282 -224 214 -224 Z M 257 63 C 287 63 319 79 351 112 C 383 144 407 212 423 316 L 434 392 C 421 396 407 399 393 401 C 378 403 363 404 349 404 C 295 404 249 382 210 340 C 171 297 152 246 152 186 C 152 146 162 115 183 94 C 203 73 228 63 257 63 Z" unicode="ǧ" />
<glyph horiz-adv-x="639" d="M 393 810 L 461 890 L 524 890 L 454 810 L 393 810 Z M 18 0 L 358 636 C 349 642 342 651 337 661 C 332 671 330 683 330 696 C 330 722 338 744 356 761 C 374 778 396 787 422 787 C 444 787 463 779 478 765 C 492 751 500 732 500 710 C 500 693 496 678 489 665 C 481 652 472 642 460 634 L 621 0 L 534 0 L 485 197 L 208 197 L 104 0 L 18 0 Z M 412 664 C 424 664 434 668 442 676 C 450 684 454 695 454 707 C 454 717 450 725 444 732 C 437 739 428 743 418 743 C 406 743 396 739 388 731 C 380 723 376 712 376 700 C 376 690 379 681 386 674 C 392 667 401 664 412 664 Z M 246 271 L 467 271 L 414 488 L 398 563 L 361 488 L 246 271 Z" unicode="Ǻ" />
<glyph horiz-adv-x="521" d="M 330 636 L 402 720 L 470 720 L 396 636 L 330 636 Z M 232 -10 C 184 -10 145 7 114 41 C 82 75 67 120 67 178 C 67 248 86 310 126 362 C 166 414 217 449 279 466 C 274 472 270 480 267 489 C 264 497 263 506 263 516 C 263 543 272 566 291 584 C 309 602 333 612 361 612 C 385 612 405 604 421 588 C 436 572 444 553 444 531 C 444 519 442 508 438 498 C 434 488 430 479 424 471 C 440 468 456 465 472 461 C 488 457 504 452 519 447 L 475 132 C 472 109 470 87 468 66 C 466 44 465 22 465 0 L 383 0 C 383 12 383 25 384 39 C 385 53 386 66 387 79 L 390 109 C 372 65 348 35 319 17 C 290 -1 261 -10 232 -10 Z M 349 482 C 361 482 372 486 381 495 C 389 503 394 514 394 528 C 394 538 390 547 383 554 C 376 560 367 564 357 564 C 344 564 333 559 325 551 C 317 542 313 531 313 519 C 313 508 316 499 323 492 C 330 485 339 482 349 482 Z M 253 63 C 283 63 315 79 348 112 C 380 145 404 213 419 316 L 429 392 C 416 396 403 399 389 401 C 375 403 360 404 345 404 C 291 404 245 382 206 340 C 167 297 148 246 148 187 C 148 146 158 115 179 94 C 199 73 224 63 253 63 Z" unicode="ǻ" />
<glyph horiz-adv-x="840" d="M 548 715 L 658 845 L 748 845 L 630 715 L 548 715 Z M 4 0 L 426 658 L 907 658 L 888 526 L 632 526 L 614 399 L 861 399 L 842 267 L 596 267 L 577 132 L 843 132 L 824 0 L 418 0 L 440 160 L 260 160 L 158 0 L 4 0 Z M 345 292 L 459 292 L 492 525 L 419 408 L 345 292 Z" unicode="Ǽ" />
<glyph horiz-adv-x="743" d="M 374 524 L 490 661 L 586 661 L 461 524 L 374 524 Z M 199 -10 C 151 -10 115 2 91 26 C 67 50 56 79 56 112 C 56 158 72 195 106 222 C 139 248 184 263 242 265 L 343 270 L 349 316 C 353 347 346 370 330 385 C 313 399 289 407 259 407 C 232 407 206 403 181 397 C 155 390 131 379 107 365 L 117 440 C 143 452 170 461 196 467 C 222 473 249 476 275 476 C 313 476 343 469 365 455 C 387 441 402 421 409 397 C 429 421 455 441 485 455 C 515 469 547 476 583 476 C 628 476 665 464 693 441 C 721 417 736 387 736 351 C 736 303 716 268 677 248 C 638 228 575 216 489 213 L 418 210 C 416 164 427 127 451 101 C 474 74 508 61 554 61 C 582 61 610 65 636 75 C 662 84 688 99 713 119 L 702 35 C 677 19 652 8 626 1 C 600 -6 573 -10 545 -10 C 499 -10 460 0 430 18 C 400 37 377 63 363 97 C 347 63 325 37 295 18 C 265 0 233 -10 199 -10 Z M 575 410 C 537 410 504 396 477 370 C 449 343 432 310 425 270 L 490 273 C 546 275 587 282 613 293 C 639 304 653 323 653 351 C 653 368 646 382 632 393 C 618 404 599 410 575 410 Z M 216 57 C 245 57 270 67 290 86 C 310 105 323 131 328 163 L 335 209 L 245 205 C 214 203 189 196 169 182 C 149 168 140 147 140 121 C 140 101 147 86 161 74 C 175 62 193 57 216 57 Z" unicode="ǽ" />
<glyph horiz-adv-x="772" d="M 424 727 L 534 857 L 624 857 L 506 727 L 424 727 Z M 138 -48 L 203 49 C 169 75 142 109 123 151 C 104 192 95 238 95 289 C 95 397 128 489 195 563 C 262 637 351 674 461 674 C 487 674 511 671 535 666 C 558 661 580 654 601 646 L 641 706 L 727 706 L 662 609 C 696 582 722 548 741 507 C 759 466 769 420 769 370 C 769 262 735 171 667 97 C 599 23 511 -14 403 -14 C 377 -14 353 -11 330 -7 C 306 -2 285 4 265 13 L 224 -48 L 138 -48 Z M 182 293 C 182 258 187 226 199 196 C 211 166 228 141 251 121 L 555 577 C 541 582 526 586 510 590 C 494 593 477 595 459 595 C 377 595 310 566 259 510 C 207 453 182 381 182 293 Z M 405 65 C 487 65 553 93 605 150 C 657 207 683 279 683 367 C 683 401 677 432 665 462 C 653 492 637 517 615 538 L 311 83 C 325 77 339 72 355 69 C 371 66 387 65 405 65 Z" unicode="Ǿ" />
<glyph horiz-adv-x="532" d="M 267 524 L 383 661 L 479 661 L 354 524 L 267 524 Z M 77 -48 L 135 39 C 114 57 98 79 87 107 C 75 134 70 165 70 200 C 70 278 93 343 141 397 C 188 450 246 477 316 477 C 334 477 351 475 367 472 C 383 469 399 464 413 458 L 450 514 L 522 514 L 464 426 C 484 407 499 384 510 357 C 521 330 527 300 527 266 C 527 188 503 122 456 69 C 408 15 350 -11 281 -11 C 263 -11 246 -9 230 -6 C 214 -3 199 1 185 7 L 149 -48 L 77 -48 Z M 151 204 C 151 185 153 167 159 151 C 164 135 171 121 181 109 L 369 393 C 360 396 351 399 342 401 C 332 403 322 404 312 404 C 266 404 227 384 197 346 C 166 307 151 260 151 204 Z M 284 62 C 330 62 368 81 399 120 C 429 158 445 206 445 262 C 445 280 442 297 437 313 C 432 329 425 343 417 355 L 229 72 C 237 69 245 67 255 65 C 264 63 274 62 284 62 Z" unicode="ǿ" />
<glyph horiz-adv-x="506" d="M 251 -16 C 215 -16 182 -11 150 -3 C 118 4 89 17 63 34 L 75 124 C 99 104 126 89 157 79 C 188 68 221 63 255 63 C 291 63 323 73 350 93 C 377 113 391 143 391 181 C 391 205 382 226 365 245 C 348 264 320 281 282 297 L 270 302 C 220 322 183 347 160 375 C 136 403 125 437 125 476 C 125 530 144 577 182 615 C 220 653 273 673 339 673 C 371 673 402 669 432 661 C 462 653 489 642 515 627 L 502 536 C 478 556 452 571 425 581 C 397 590 368 595 338 595 C 300 595 270 584 247 564 C 224 544 213 517 213 485 C 213 462 221 442 239 424 C 256 406 284 389 323 373 L 336 368 C 385 348 421 323 444 294 C 467 264 479 230 479 192 C 479 132 457 82 414 43 C 370 3 316 -16 251 -16 Z M 218 -232 L 166 -208 C 180 -188 191 -170 199 -152 C 206 -134 211 -114 214 -92 L 220 -52 L 287 -52 L 281 -92 C 277 -120 271 -144 261 -166 C 251 -188 237 -210 218 -232 Z" unicode="Ș" />
<glyph horiz-adv-x="389" d="M 189 -10 C 167 -10 144 -7 118 -1 C 92 5 68 13 48 23 L 59 98 C 76 85 97 75 122 68 C 146 60 170 57 193 58 C 219 58 241 63 259 75 C 276 87 285 104 285 126 C 285 142 278 156 266 168 C 253 179 233 190 207 201 L 194 206 C 158 218 132 235 115 256 C 98 277 90 304 90 337 C 90 377 105 411 135 437 C 165 463 207 476 259 476 C 278 476 300 473 326 468 C 351 463 373 456 392 448 L 382 374 C 366 384 346 393 322 399 C 298 405 277 408 258 408 C 233 408 212 402 196 392 C 180 381 172 365 172 345 C 172 329 177 315 187 305 C 197 294 214 284 238 276 L 252 271 C 291 256 320 238 339 216 C 357 194 367 168 367 137 C 367 93 351 58 319 31 C 287 3 243 -10 189 -10 Z M 149 -243 L 92 -217 C 108 -196 119 -176 127 -157 C 134 -138 139 -117 143 -94 L 149 -52 L 222 -52 L 216 -94 C 212 -124 205 -151 195 -174 C 185 -197 169 -220 149 -243 Z" unicode="ș" />
<glyph horiz-adv-x="550" d="M 233 0 L 314 579 L 101 579 L 112 658 L 622 658 L 611 579 L 398 579 L 317 0 L 233 0 Z M 234 -228 L 182 -204 C 196 -184 207 -166 215 -148 C 222 -130 227 -110 230 -88 L 236 -48 L 303 -48 L 297 -88 C 293 -116 287 -140 277 -162 C 267 -184 253 -206 234 -228 Z" unicode="Ț" />
<glyph horiz-adv-x="304" d="M 198 -9 C 162 -9 136 1 119 23 C 102 45 96 75 102 115 L 141 392 L 73 392 L 83 466 L 152 466 L 172 609 L 254 609 L 234 466 L 342 466 L 331 392 L 223 392 L 185 123 C 182 103 184 88 191 79 C 198 69 209 65 225 65 C 235 65 246 66 256 69 C 266 72 277 77 287 84 L 277 9 C 265 3 252 -1 238 -4 C 224 -7 210 -9 198 -9 Z M 151 -247 L 94 -221 C 110 -200 121 -180 129 -161 C 136 -142 141 -121 145 -98 L 151 -56 L 224 -56 L 218 -98 C 214 -128 207 -155 197 -178 C 187 -201 171 -224 151 -247 Z" unicode="ț" />
<glyph horiz-adv-x="208" d="M -52 -211 L -60 -211 L -49 -136 L -41 -136 C -13 -136 9 -127 27 -109 C 45 -91 56 -67 61 -36 L 131 466 L 213 466 L 142 -36 C 134 -92 113 -135 79 -165 C 45 -195 2 -211 -52 -211 Z" unicode="ȷ" />
<glyph horiz-adv-x="481" d="M 226 -10 C 179 -10 141 1 112 25 C 83 49 69 79 69 115 C 69 163 88 200 128 224 C 167 248 231 262 320 268 L 388 272 C 386 314 374 346 350 369 C 326 392 294 404 253 404 C 222 404 194 399 168 390 C 142 380 116 366 91 348 L 103 431 C 129 447 156 459 184 466 C 211 472 237 476 262 476 C 328 476 379 456 416 417 C 452 377 471 326 471 263 C 471 184 448 119 403 67 C 358 15 299 -10 226 -10 Z M 152 118 C 152 100 159 85 173 75 C 187 64 206 59 230 59 C 269 59 303 73 331 103 C 359 132 376 168 382 210 L 315 206 C 259 202 217 194 191 180 C 165 166 152 145 152 118 Z" unicode="ə" />
<glyph horiz-adv-x="314" d="M 101 524 L 217 658 L 284 658 L 363 524 L 291 524 L 243 600 L 175 524 L 101 524 Z" unicode="ˆ" />
<glyph horiz-adv-x="314" d="M 197 524 L 117 658 L 189 658 L 236 582 L 305 658 L 380 658 L 264 524 L 197 524 Z" unicode="ˇ" />
<glyph horiz-adv-x="359" d="M 257 516 C 217 516 188 528 168 553 C 148 578 140 610 145 650 L 201 650 C 200 626 204 608 214 595 C 224 581 239 575 260 575 C 278 575 294 581 306 595 C 318 608 326 626 328 650 L 385 650 C 380 607 366 574 342 551 C 318 527 290 516 257 516 Z" unicode="˘" />
<glyph horiz-adv-x="162" d="M 113 532 L 125 620 L 212 620 L 200 532 L 113 532 Z" unicode="˙" />
<glyph horiz-adv-x="219" d="M 180 456 C 155 456 135 464 119 480 C 103 496 96 515 96 539 C 96 567 105 590 124 609 C 143 627 167 637 196 637 C 220 637 240 629 256 613 C 271 597 279 577 279 554 C 279 526 270 503 252 484 C 234 465 210 456 180 456 Z M 184 504 C 196 504 207 508 216 517 C 225 526 230 537 230 551 C 230 562 226 571 218 579 C 210 586 201 590 191 590 C 178 590 167 585 159 576 C 150 566 146 555 146 542 C 146 530 149 521 157 514 C 164 507 173 504 184 504 Z" unicode="˚" />
<glyph horiz-adv-x="243" d="M 170 -220 C 126 -220 91 -209 66 -187 C 40 -165 28 -136 28 -102 C 28 -64 43 -31 73 -5 C 103 20 140 34 184 35 L 193 0 C 166 0 144 -8 126 -25 C 108 -41 99 -62 99 -87 C 99 -107 106 -123 121 -135 C 136 -147 155 -153 179 -153 L 170 -220 Z" unicode="˛" />
<glyph horiz-adv-x="327" d="M 143 524 L 90 524 C 96 560 108 587 124 605 C 140 623 162 633 189 633 C 201 633 213 630 225 626 C 236 621 248 613 261 603 C 271 595 279 589 286 585 C 293 581 300 580 307 580 C 317 580 327 584 335 592 C 343 600 348 611 352 626 L 405 626 C 398 590 386 562 370 544 C 354 526 333 517 307 517 C 293 517 280 519 269 524 C 257 528 246 536 234 547 C 224 555 216 560 209 564 C 201 568 194 570 188 570 C 177 570 168 566 160 558 C 152 550 146 538 143 524 Z" unicode="˜" />
<glyph horiz-adv-x="401" d="M 121 523 L 225 659 L 304 659 L 194 523 L 121 523 Z M 264 523 L 374 659 L 454 659 L 338 523 L 264 523 Z" unicode="˝" />
<glyph horiz-adv-x="0" d="M 41 524 L -57 661 L 37 661 L 127 524 L 41 524 Z" unicode="̀" />
<glyph horiz-adv-x="0" d="M 19 524 L 135 661 L 231 661 L 106 524 L 19 524 Z" unicode="́" />
<glyph horiz-adv-x="0" d="M -57 524 L 59 658 L 126 658 L 205 524 L 133 524 L 85 600 L 17 524 L -57 524 Z" unicode="̂" />
<glyph horiz-adv-x="0" d="M -21 524 L -74 524 C -67 560 -55 587 -39 605 C -23 623 -1 633 25 633 C 37 633 49 630 61 626 C 72 621 84 613 97 603 C 107 595 115 589 122 585 C 129 581 136 580 143 580 C 153 580 163 584 171 592 C 179 600 184 611 188 626 L 241 626 C 234 590 222 562 206 544 C 190 526 169 517 143 517 C 129 517 116 519 105 524 C 93 528 82 536 70 547 C 60 555 52 560 45 564 C 37 568 30 570 24 570 C 13 570 4 566 -4 558 C -12 550 -17 538 -21 524 Z" unicode="̃" />
<glyph horiz-adv-x="0" d="M -38 532 L -29 598 L 199 598 L 189 532 L -38 532 Z" unicode="̄" />
<glyph horiz-adv-x="0" d="M 76 516 C 36 516 7 528 -13 553 C -33 578 -40 610 -36 650 L 20 650 C 19 626 23 608 33 595 C 43 581 58 575 79 575 C 97 575 113 581 125 595 C 137 608 145 626 147 650 L 204 650 C 199 607 185 574 161 551 C 137 527 109 516 76 516 Z" unicode="̆" />
<glyph horiz-adv-x="0" d="M 32 532 L 44 620 L 131 620 L 119 532 L 32 532 Z" unicode="̇" />
<glyph horiz-adv-x="0" d="M -44 533 L -32 614 L 49 614 L 38 533 L -44 533 Z M 112 533 L 123 614 L 205 614 L 194 533 L 112 533 Z" unicode="̈" />
<glyph horiz-adv-x="0" d="M 70 456 C 45 456 25 464 9 480 C -6 496 -14 515 -14 539 C -14 567 -4 590 14 609 C 33 627 57 637 86 637 C 110 637 130 629 146 613 C 161 597 169 577 169 554 C 169 526 160 503 142 484 C 124 465 100 456 70 456 Z M 74 504 C 86 504 97 508 106 517 C 115 526 120 537 120 551 C 120 562 116 571 108 579 C 100 586 91 590 81 590 C 68 590 57 585 49 576 C 40 566 36 555 36 542 C 36 530 39 521 47 514 C 54 507 63 504 74 504 Z" unicode="̊" />
<glyph horiz-adv-x="0" d="M -37 523 L 67 659 L 146 659 L 36 523 L -37 523 Z M 106 523 L 216 659 L 296 659 L 180 523 L 106 523 Z" unicode="̋" />
<glyph horiz-adv-x="0" d="M 41 524 L -39 658 L 33 658 L 80 582 L 149 658 L 224 658 L 108 524 L 41 524 Z" unicode="̌" />
<glyph horiz-adv-x="0" d="M 110 711 L 166 685 C 150 664 139 644 131 625 C 123 605 118 584 116 562 L 110 520 L 36 520 L 42 562 C 46 592 54 618 64 641 C 74 664 89 687 110 711 Z" unicode="̒" />
<glyph horiz-adv-x="0" d="M -42 -231 L -98 -205 C -82 -184 -71 -164 -63 -145 C -55 -125 -50 -104 -48 -82 L -42 -40 L 32 -40 L 26 -82 C 21 -112 14 -139 4 -162 C -6 -185 -21 -208 -42 -231 Z" unicode="̦" />
<glyph horiz-adv-x="0" d="M -20 -212 C -30 -212 -41 -210 -52 -208 C -62 -205 -72 -201 -82 -197 L -75 -146 C -67 -151 -59 -155 -49 -158 C -39 -161 -30 -163 -21 -163 C -8 -163 1 -159 9 -153 C 17 -146 21 -137 21 -126 C 21 -116 17 -107 10 -101 C 3 -95 -5 -92 -17 -92 L -23 -92 L -17 -44 L -11 -44 C 16 -44 38 -51 54 -65 C 70 -79 78 -99 78 -123 C 78 -149 68 -170 50 -187 C 32 -203 8 -212 -20 -212 Z" unicode="̧" />
<glyph horiz-adv-x="0" d="M -24 -220 C -68 -220 -102 -209 -128 -187 C -153 -165 -166 -136 -166 -102 C -166 -64 -150 -31 -120 -5 C -90 20 -53 34 -10 35 L -1 0 C -27 0 -50 -8 -68 -25 C -86 -41 -95 -62 -95 -87 C -95 -107 -87 -123 -72 -135 C -57 -147 -38 -153 -15 -153 L -24 -220 Z" unicode="̨" />
<glyph horiz-adv-x="613" d="M 28 0 L 356 670 L 452 670 L 587 0 L 28 0 Z M 146 77 L 484 77 L 385 566 L 146 77 Z" unicode="Δ" />
<glyph horiz-adv-x="508" d="M 97 -210 L 27 -210 L 115 342 C 119 365 122 387 124 407 C 126 427 127 446 127 466 L 209 466 C 209 444 208 423 206 403 C 204 382 201 361 197 339 L 172 185 C 165 145 169 114 184 94 C 198 74 221 64 251 64 C 279 64 308 80 338 114 C 368 147 391 214 406 316 L 427 466 L 509 466 L 460 120 C 457 99 455 78 454 58 C 452 38 452 18 452 0 L 370 0 C 370 12 370 26 371 42 C 371 58 373 73 375 87 L 378 112 C 359 68 335 36 307 17 C 278 -1 249 -11 219 -11 C 198 -11 180 -7 164 0 C 148 8 135 19 126 34 L 97 -210 Z" unicode="μ" />
<glyph horiz-adv-x="510" d="M 102 0 L 158 391 L 89 391 L 100 466 L 541 466 L 531 391 L 463 391 L 429 153 C 425 124 422 97 421 72 C 419 46 419 22 419 0 L 336 0 C 336 24 336 47 338 71 C 339 95 342 122 347 153 L 381 391 L 240 391 L 184 0 L 102 0 Z" unicode="π" />
<glyph horiz-adv-x="943" d="M 531 715 L 438 845 L 523 845 L 609 715 L 531 715 Z M 221 0 L 108 658 L 196 658 L 275 175 L 281 112 L 305 175 L 519 658 L 610 658 L 689 175 L 695 113 L 718 175 L 932 658 L 1019 658 L 721 0 L 634 0 L 556 483 L 549 547 L 524 483 L 310 0 L 221 0 Z" unicode="Ẁ" />
<glyph horiz-adv-x="723" d="M 402 524 L 304 661 L 398 661 L 488 524 L 402 524 Z M 167 0 L 79 466 L 160 466 L 222 151 L 229 88 C 257 145 285 205 313 268 C 340 331 366 397 392 466 L 469 466 L 529 151 L 538 91 C 567 149 595 210 621 273 C 647 336 671 400 693 466 L 771 466 C 744 383 713 302 678 224 C 643 146 605 71 564 0 L 479 0 L 424 294 L 417 352 C 392 290 366 229 338 170 C 310 110 281 54 252 0 L 167 0 Z" unicode="ẁ" />
<glyph horiz-adv-x="943" d="M 509 715 L 619 845 L 709 845 L 591 715 L 509 715 Z M 221 0 L 108 658 L 196 658 L 275 175 L 281 112 L 305 175 L 519 658 L 610 658 L 689 175 L 695 113 L 718 175 L 932 658 L 1019 658 L 721 0 L 634 0 L 556 483 L 549 547 L 524 483 L 310 0 L 221 0 Z" unicode="Ẃ" />
<glyph horiz-adv-x="723" d="M 380 524 L 496 661 L 592 661 L 467 524 L 380 524 Z M 167 0 L 79 466 L 160 466 L 222 151 L 229 88 C 257 145 285 205 313 268 C 340 331 366 397 392 466 L 469 466 L 529 151 L 538 91 C 567 149 595 210 621 273 C 647 336 671 400 693 466 L 771 466 C 744 383 713 302 678 224 C 643 146 605 71 564 0 L 479 0 L 424 294 L 417 352 C 392 290 366 229 338 170 C 310 110 281 54 252 0 L 167 0 Z" unicode="ẃ" />
<glyph horiz-adv-x="943" d="M 448 715 L 458 791 L 534 791 L 523 715 L 448 715 Z M 594 715 L 605 791 L 681 791 L 670 715 L 594 715 Z M 221 0 L 108 658 L 196 658 L 275 175 L 281 112 L 305 175 L 519 658 L 610 658 L 689 175 L 695 113 L 718 175 L 932 658 L 1019 658 L 721 0 L 634 0 L 556 483 L 549 547 L 524 483 L 310 0 L 221 0 Z" unicode="Ẅ" />
<glyph horiz-adv-x="723" d="M 317 533 L 329 614 L 410 614 L 399 533 L 317 533 Z M 473 533 L 484 614 L 566 614 L 555 533 L 473 533 Z M 167 0 L 79 466 L 160 466 L 222 151 L 229 88 C 257 145 285 205 313 268 C 340 331 366 397 392 466 L 469 466 L 529 151 L 538 91 C 567 149 595 210 621 273 C 647 336 671 400 693 466 L 771 466 C 744 383 713 302 678 224 C 643 146 605 71 564 0 L 479 0 L 424 294 L 417 352 C 392 290 366 229 338 170 C 310 110 281 54 252 0 L 167 0 Z" unicode="ẅ" />
<glyph horiz-adv-x="591" d="M 356 715 L 263 845 L 348 845 L 434 715 L 356 715 Z M 252 0 L 292 280 L 104 658 L 198 658 L 321 414 L 344 360 L 381 414 L 570 658 L 669 658 L 375 281 L 336 0 L 252 0 Z" unicode="Ỳ" />
<glyph horiz-adv-x="480" d="M 277 524 L 179 661 L 273 661 L 363 524 L 277 524 Z M 303 -6 C 253 -77 200 -130 144 -164 C 88 -198 27 -215 -39 -215 L -47 -215 L -37 -140 L -29 -140 C 14 -140 56 -129 97 -107 C 137 -85 172 -55 201 -19 L 79 466 L 168 466 L 244 152 L 261 51 C 292 105 321 166 349 236 C 376 306 401 382 425 466 L 509 466 C 477 363 445 272 411 194 C 377 115 341 48 303 -6 Z" unicode="ỳ" />
<glyph horiz-adv-x="500" d="" unicode=" " />
<glyph horiz-adv-x="1000" d="" unicode=" " />
<glyph horiz-adv-x="650" d="" unicode=" " />
<glyph horiz-adv-x="0" d="" unicode=" " />
<glyph horiz-adv-x="650" d="M 151 256 L 161 328 L 581 328 L 571 256 L 151 256 Z" unicode="‒" />
<glyph horiz-adv-x="506" d="M 72 200 L 82 272 L 502 272 L 492 200 L 72 200 Z" unicode="–" />
<glyph horiz-adv-x="1006" d="M 72 200 L 82 272 L 1002 272 L 992 200 L 72 200 Z" unicode="—" />
<glyph horiz-adv-x="376" d="M 78 200 L 88 272 L 368 272 L 358 200 L 78 200 Z" unicode="―" />
<glyph horiz-adv-x="216" d="M 130 487 L 141 562 C 145 596 156 627 172 657 C 188 687 207 712 230 733 L 284 709 C 267 687 253 665 243 643 C 233 621 226 595 222 567 L 211 487 L 130 487 Z" unicode="‘" />
<glyph horiz-adv-x="193" d="M 149 472 L 97 496 C 113 518 126 541 136 563 C 146 585 154 610 159 640 L 170 720 L 249 720 L 238 644 C 233 610 223 578 207 548 C 191 518 171 492 149 472 Z" unicode="’" />
<glyph horiz-adv-x="194" d="M 61 -153 L 9 -129 C 25 -106 39 -84 49 -62 C 59 -40 66 -14 71 15 L 82 95 L 161 95 L 150 19 C 145 -14 135 -46 119 -76 C 103 -106 83 -132 61 -153 Z" unicode="‚" />
<glyph horiz-adv-x="355" d="M 131 490 L 141 563 C 145 596 156 628 172 658 C 188 688 207 713 230 734 L 284 710 C 267 688 253 666 243 644 C 233 622 226 596 222 567 L 212 490 L 131 490 Z M 270 490 L 281 563 C 285 596 295 628 311 658 C 327 688 346 713 369 734 L 423 710 C 406 688 393 666 383 644 C 373 622 366 596 362 567 L 351 490 L 270 490 Z" unicode="“" />
<glyph horiz-adv-x="328" d="M 149 472 L 97 496 C 113 518 126 541 136 563 C 146 585 154 610 159 640 L 170 720 L 249 720 L 238 644 C 233 610 223 578 207 548 C 191 518 171 492 149 472 Z M 283 472 L 231 496 C 247 518 261 541 271 563 C 281 585 289 610 293 640 L 305 720 L 384 720 L 373 644 C 368 610 357 578 341 548 C 325 518 305 492 283 472 Z" unicode="”" />
<glyph horiz-adv-x="325" d="M 61 -153 L 9 -129 C 25 -106 39 -84 49 -62 C 59 -40 66 -14 71 15 L 82 95 L 161 95 L 150 19 C 145 -14 135 -46 119 -76 C 103 -106 83 -132 61 -153 Z M 193 -153 L 141 -129 C 157 -106 171 -84 181 -62 C 191 -40 198 -14 203 15 L 214 95 L 293 95 L 282 19 C 277 -14 267 -46 251 -76 C 235 -106 215 -132 193 -153 Z" unicode="„" />
<glyph horiz-adv-x="456" d="M 187 0 L 255 461 L 107 457 L 117 532 L 264 528 L 287 720 L 370 720 L 340 528 L 488 532 L 478 457 L 330 461 L 270 0 L 187 0 Z" unicode="†" />
<glyph horiz-adv-x="457" d="M 187 0 L 219 199 L 70 195 L 81 270 L 228 266 L 256 461 L 107 457 L 118 532 L 265 528 L 288 720 L 371 720 L 340 528 L 489 532 L 478 457 L 331 461 L 303 266 L 452 270 L 441 195 L 294 199 L 270 0 L 187 0 Z" unicode="‡" />
<glyph horiz-adv-x="275" d="M 86 170 L 107 321 L 257 321 L 237 170 L 86 170 Z" unicode="•" />
<glyph horiz-adv-x="565" d="M 50 0 L 62 84 L 146 84 L 134 0 L 50 0 Z M 239 0 L 251 84 L 335 84 L 323 0 L 239 0 Z M 428 0 L 440 84 L 524 84 L 512 0 L 428 0 Z" unicode="…" />
<glyph horiz-adv-x="1247" d="M 260 352 C 214 352 178 366 152 396 C 126 426 113 464 113 512 C 113 576 129 628 163 668 C 196 708 240 728 294 728 C 340 728 376 713 402 684 C 428 654 442 616 442 570 C 442 506 425 453 392 413 C 358 372 314 352 260 352 Z M 252 0 L 637 720 L 710 720 L 325 0 L 252 0 Z M 264 415 C 296 415 321 428 341 455 C 360 482 370 519 370 565 C 370 595 362 620 348 638 C 333 656 314 665 290 665 C 258 665 233 651 214 625 C 194 598 185 562 185 516 C 185 484 192 459 207 441 C 221 423 240 415 264 415 Z M 671 -8 C 625 -8 589 6 563 36 C 537 66 524 104 524 152 C 524 216 540 268 574 308 C 607 348 651 368 705 368 C 751 368 787 353 813 324 C 839 294 853 256 853 210 C 853 146 836 93 803 53 C 769 12 725 -8 671 -8 Z M 1054 -8 C 1008 -8 972 6 946 36 C 920 66 907 104 907 152 C 907 216 923 268 957 308 C 990 348 1034 368 1088 368 C 1134 368 1170 353 1196 324 C 1222 294 1236 256 1236 210 C 1236 146 1219 93 1186 53 C 1152 12 1108 -8 1054 -8 Z M 675 55 C 707 55 732 68 752 95 C 771 122 781 159 781 205 C 781 235 773 260 759 278 C 744 296 725 305 701 305 C 669 305 644 291 625 265 C 605 238 596 202 596 156 C 596 124 603 99 618 81 C 632 63 651 55 675 55 Z M 1058 55 C 1090 55 1115 68 1135 95 C 1154 122 1164 159 1164 205 C 1164 235 1156 260 1142 278 C 1127 296 1108 305 1084 305 C 1052 305 1027 291 1008 265 C 988 238 979 202 979 156 C 979 124 986 99 1001 81 C 1015 63 1034 55 1058 55 Z" unicode="‰" />
<glyph horiz-adv-x="196" d="M 132 513 L 162 724 L 238 724 L 208 513 L 132 513 Z" unicode="′" />
<glyph horiz-adv-x="315" d="M 132 513 L 162 724 L 233 724 L 203 513 L 132 513 Z M 257 513 L 287 724 L 357 724 L 327 513 L 257 513 Z" unicode="″" />
<glyph horiz-adv-x="326" d="M 201 67 L 72 226 L 245 386 L 339 386 L 167 226 L 295 67 L 201 67 Z" unicode="‹" />
<glyph horiz-adv-x="326" d="M 46 67 L 218 226 L 90 386 L 184 386 L 313 226 L 140 67 L 46 67 Z" unicode="›" />
<glyph horiz-adv-x="143" d="M -107 0 L 278 720 L 351 720 L -34 0 L -107 0 Z" unicode="⁄" />
<glyph horiz-adv-x="394" d="M 266 432 C 220 432 184 446 158 476 C 132 506 119 544 119 592 C 119 656 135 708 169 748 C 202 788 246 808 300 808 C 346 808 382 793 408 764 C 434 734 448 696 448 650 C 448 586 431 533 398 493 C 364 452 320 432 266 432 Z M 270 495 C 302 495 327 508 347 535 C 366 562 376 599 376 645 C 376 675 368 700 354 718 C 339 736 320 745 296 745 C 264 745 239 731 220 705 C 200 678 191 642 191 596 C 191 564 198 539 213 521 C 227 503 246 495 270 495 Z" unicode="⁰" />
<glyph horiz-adv-x="333" d="M 249 440 L 261 524 L 96 524 L 103 572 L 274 800 L 369 800 L 338 582 L 390 582 L 383 524 L 329 524 L 317 440 L 249 440 Z M 270 582 L 292 740 L 173 582 L 270 582 Z" unicode="⁴" />
<glyph horiz-adv-x="307" d="M 205 432 C 184 432 164 434 146 440 C 128 445 111 452 95 462 L 104 529 C 117 517 132 507 149 501 C 165 495 183 492 202 492 C 224 492 243 497 257 509 C 271 520 278 535 278 553 C 278 569 272 582 260 592 C 248 602 231 607 209 607 C 195 607 180 606 165 604 C 150 602 134 598 118 594 L 160 800 L 366 800 L 357 737 L 203 737 L 186 657 C 194 659 203 660 211 661 C 219 662 226 663 233 663 C 271 663 301 653 321 634 C 341 615 351 590 351 559 C 351 523 337 492 311 468 C 284 444 249 432 205 432 Z" unicode="⁵" />
<glyph horiz-adv-x="345" d="M 247 432 C 206 432 174 445 150 471 C 126 497 115 532 115 578 C 115 642 132 697 168 741 C 203 785 250 808 308 808 C 322 808 337 806 353 804 C 368 801 382 797 396 793 L 387 730 C 374 735 361 739 347 743 C 333 746 319 748 305 748 C 272 748 245 736 225 714 C 204 692 191 662 185 624 C 195 640 209 652 226 662 C 243 671 262 676 283 676 C 316 676 342 666 362 647 C 381 628 391 602 391 570 C 391 528 376 495 348 470 C 319 444 285 432 247 432 Z M 248 491 C 269 491 287 497 301 511 C 315 525 323 543 323 565 C 323 583 317 598 307 609 C 296 619 282 625 264 625 C 246 625 229 619 215 607 C 200 595 190 580 184 562 C 183 543 188 526 198 512 C 208 498 225 491 248 491 Z" unicode="⁶" />
<glyph horiz-adv-x="308" d="M 133 440 L 303 735 L 131 735 L 140 800 L 392 800 L 384 745 L 210 440 L 133 440 Z" unicode="⁷" />
<glyph horiz-adv-x="321" d="M 229 432 C 190 432 160 440 139 456 C 117 472 107 494 107 521 C 107 541 114 560 128 577 C 142 594 161 609 187 621 C 169 631 155 642 146 656 C 137 669 133 684 133 702 C 133 732 145 758 170 778 C 194 798 225 808 261 808 C 296 808 324 800 345 785 C 365 769 376 748 376 722 C 376 703 370 686 359 671 C 347 655 329 641 305 629 C 323 618 337 605 347 591 C 357 577 362 560 362 542 C 362 508 349 481 324 461 C 298 441 267 432 229 432 Z M 249 652 L 255 650 C 271 656 284 665 294 677 C 304 689 309 701 309 714 C 309 726 304 737 295 745 C 286 753 274 757 259 757 C 242 757 228 752 217 742 C 206 732 201 720 201 705 C 201 693 205 682 214 673 C 222 664 234 657 249 652 Z M 174 530 C 174 516 179 504 190 496 C 200 487 214 483 232 483 C 250 483 265 488 277 498 C 288 508 294 522 294 539 C 294 553 289 564 279 574 C 269 583 256 591 240 598 L 236 600 C 217 592 202 582 191 570 C 179 558 174 544 174 530 Z" unicode="⁸" />
<glyph horiz-adv-x="343" d="M 209 432 C 194 432 179 433 164 436 C 148 438 134 442 121 447 L 130 510 C 142 504 155 500 169 497 C 183 493 197 492 212 492 C 244 492 271 503 292 525 C 312 547 326 577 332 615 C 321 598 307 585 289 575 C 271 565 252 561 232 561 C 199 561 173 570 154 590 C 135 610 126 636 126 670 C 126 711 140 744 169 770 C 197 795 231 808 271 808 C 311 808 342 795 366 769 C 390 743 402 707 402 662 C 402 597 384 542 349 498 C 313 454 267 432 209 432 Z M 253 613 C 271 613 287 618 302 630 C 316 641 327 656 333 675 C 333 695 328 712 318 727 C 307 741 290 749 268 749 C 247 749 229 742 215 728 C 201 714 194 697 194 675 C 194 655 199 640 210 629 C 220 618 235 613 253 613 Z" unicode="⁹" />
<glyph horiz-adv-x="392" d="M 108 440 L 145 704 C 147 720 149 736 150 753 C 151 770 152 786 152 800 L 219 800 C 219 790 218 778 217 766 C 216 754 215 743 215 735 L 212 715 C 226 748 245 772 269 787 C 292 801 315 809 338 809 C 376 809 404 796 423 772 C 442 747 448 714 442 673 L 420 542 C 417 524 415 507 414 490 C 412 473 412 456 412 440 L 344 440 C 344 458 344 475 345 492 C 346 509 348 526 352 542 L 372 654 C 377 682 374 705 362 721 C 350 737 333 745 310 745 C 282 745 257 729 237 699 C 216 668 201 616 191 544 L 176 440 L 108 440 Z" unicode="ⁿ" />
<glyph horiz-adv-x="393" d="M 180 -177 C 134 -177 98 -162 72 -132 C 46 -102 33 -64 33 -17 C 33 47 49 99 83 139 C 116 179 160 199 214 199 C 260 199 296 184 322 155 C 348 125 362 87 362 41 C 362 -23 345 -75 312 -116 C 278 -156 234 -177 180 -177 Z M 184 -114 C 216 -114 241 -100 261 -73 C 280 -46 290 -10 290 36 C 290 66 282 91 268 109 C 253 127 234 136 210 136 C 178 136 153 122 134 96 C 114 69 105 33 105 -13 C 105 -45 112 -69 127 -87 C 141 -105 160 -114 184 -114 Z" unicode="₀" />
<glyph horiz-adv-x="295" d="M 16 -170 L 24 -110 L 102 -110 L 136 130 L 47 117 L 56 179 L 217 203 L 173 -110 L 251 -110 L 243 -170 L 16 -170 Z" unicode="₁" />
<glyph horiz-adv-x="312" d="M 6 -170 L 18 -89 C 90 -53 141 -22 172 3 C 202 29 218 55 218 79 C 218 97 212 111 200 121 C 188 131 172 136 151 136 C 134 136 117 133 100 128 C 83 122 66 114 50 104 L 60 174 C 77 181 95 187 113 191 C 131 195 150 198 171 198 C 209 198 238 189 260 171 C 282 153 293 128 293 94 C 293 56 274 20 238 -12 C 202 -44 147 -76 74 -107 L 266 -107 L 257 -170 L 6 -170 Z" unicode="₂" />
<glyph horiz-adv-x="304" d="M 124 -178 C 103 -178 83 -175 64 -170 C 45 -165 27 -158 10 -148 L 19 -81 C 33 -93 49 -102 67 -108 C 84 -114 102 -117 121 -117 C 143 -117 160 -112 172 -102 C 184 -92 190 -79 190 -65 C 190 -50 183 -38 171 -29 C 158 -19 139 -15 113 -15 L 93 -15 L 101 42 L 118 42 C 146 42 167 47 182 58 C 196 69 204 82 204 97 C 204 109 199 119 190 126 C 181 133 168 137 152 137 C 135 137 119 134 103 130 C 87 125 71 118 56 108 L 66 173 C 82 181 99 187 117 191 C 134 195 151 198 169 198 C 205 198 232 190 251 174 C 270 158 280 136 280 110 C 280 88 272 68 256 51 C 240 33 219 21 193 15 C 214 10 231 0 243 -14 C 255 -28 262 -45 262 -65 C 262 -98 250 -125 226 -146 C 202 -167 168 -178 124 -178 Z" unicode="₃" />
<glyph horiz-adv-x="333" d="M 163 -170 L 175 -86 L 10 -86 L 17 -38 L 188 190 L 283 190 L 252 -28 L 304 -28 L 297 -86 L 243 -86 L 231 -170 L 163 -170 Z M 184 -28 L 206 130 L 87 -28 L 184 -28 Z" unicode="₄" />
<glyph horiz-adv-x="305" d="M 120 -178 C 99 -178 79 -175 61 -170 C 43 -164 26 -157 10 -148 L 19 -81 C 32 -93 47 -102 64 -108 C 80 -114 98 -118 117 -118 C 139 -118 158 -112 172 -101 C 186 -89 193 -75 193 -57 C 193 -40 187 -27 175 -17 C 163 -7 146 -3 124 -3 C 110 -3 95 -4 80 -6 C 65 -8 49 -11 33 -16 L 75 190 L 281 190 L 272 127 L 118 127 L 101 47 C 109 49 118 50 126 51 C 134 52 141 53 148 53 C 186 53 216 43 236 24 C 256 5 266 -19 266 -51 C 266 -87 252 -117 226 -141 C 199 -165 164 -178 120 -178 Z" unicode="₅" />
<glyph horiz-adv-x="344" d="M 161 -178 C 120 -178 88 -165 64 -139 C 40 -113 29 -77 29 -32 C 29 32 46 87 82 131 C 117 175 164 198 222 198 C 236 198 251 196 267 194 C 282 191 296 187 310 183 L 301 120 C 288 125 275 129 261 133 C 247 136 233 138 219 138 C 186 138 159 126 139 104 C 118 82 105 52 99 14 C 109 30 123 42 140 52 C 157 61 176 66 197 66 C 230 66 256 56 276 37 C 295 18 305 -7 305 -40 C 305 -81 290 -114 262 -140 C 233 -165 199 -178 161 -178 Z M 162 -119 C 183 -119 201 -112 215 -98 C 229 -84 237 -67 237 -45 C 237 -26 231 -11 221 -1 C 210 9 196 15 178 15 C 160 15 143 9 129 -2 C 114 -14 104 -29 98 -48 C 97 -66 102 -83 112 -97 C 122 -111 139 -119 162 -119 Z" unicode="₆" />
<glyph horiz-adv-x="306" d="M 48 -170 L 218 125 L 46 125 L 55 190 L 307 190 L 299 135 L 125 -170 L 48 -170 Z" unicode="₇" />
<glyph horiz-adv-x="319" d="M 143 -178 C 104 -178 74 -169 53 -153 C 31 -137 21 -115 21 -89 C 21 -68 28 -49 42 -32 C 56 -15 75 -1 101 11 C 83 21 69 32 60 46 C 51 59 47 74 47 92 C 47 122 59 148 84 168 C 108 188 139 198 175 198 C 210 198 238 190 259 175 C 279 159 290 138 290 112 C 290 93 284 76 273 61 C 261 45 243 31 219 19 C 237 8 251 -4 261 -18 C 271 -32 276 -49 276 -68 C 276 -102 263 -128 238 -148 C 212 -168 181 -178 143 -178 Z M 163 42 L 169 40 C 185 46 198 55 208 67 C 218 79 223 91 223 104 C 223 116 218 127 209 135 C 200 143 188 147 173 147 C 156 147 142 142 131 132 C 120 122 115 110 115 95 C 115 83 119 72 128 63 C 136 54 148 47 163 42 Z M 88 -80 C 88 -94 93 -105 104 -114 C 114 -122 128 -127 146 -127 C 164 -127 179 -121 191 -111 C 202 -101 208 -87 208 -71 C 208 -57 203 -45 193 -36 C 183 -26 170 -18 154 -12 L 150 -10 C 131 -17 116 -27 105 -39 C 93 -51 88 -65 88 -80 Z" unicode="₈" />
<glyph horiz-adv-x="342" d="M 123 -178 C 108 -178 93 -176 78 -174 C 62 -171 48 -167 35 -163 L 44 -100 C 56 -105 69 -109 83 -113 C 97 -116 111 -118 126 -118 C 158 -118 185 -107 206 -85 C 226 -63 240 -33 246 5 C 235 -11 221 -24 203 -34 C 185 -44 166 -49 146 -49 C 113 -49 87 -39 68 -19 C 49 0 40 26 40 60 C 40 101 54 134 83 160 C 111 185 145 198 185 198 C 225 198 256 185 280 159 C 304 133 316 97 316 52 C 316 -12 298 -67 263 -111 C 227 -155 181 -178 123 -178 Z M 167 3 C 185 3 201 8 216 20 C 230 31 241 46 247 65 C 247 85 242 102 232 117 C 221 131 204 139 182 139 C 161 139 143 132 129 118 C 115 104 108 87 108 65 C 108 45 113 30 124 19 C 134 8 149 3 167 3 Z" unicode="₉" />
<glyph horiz-adv-x="720" d="M 66 243 L 74 302 L 143 302 C 143 311 144 320 145 330 C 146 340 147 349 149 358 L 83 358 L 91 417 L 163 417 C 187 493 233 554 299 601 C 365 648 443 672 535 672 C 572 672 608 667 644 659 C 680 650 714 637 748 619 L 736 534 C 704 553 671 568 637 578 C 603 588 567 594 529 594 C 463 594 406 577 358 545 C 310 513 275 470 253 417 L 401 417 L 392 358 L 236 358 C 234 349 233 340 232 330 C 231 320 230 311 230 302 L 385 302 L 376 243 L 235 243 C 245 189 272 145 314 113 C 356 80 408 64 471 64 C 509 64 546 69 581 80 C 616 90 651 106 687 127 L 674 39 C 639 21 604 7 569 -1 C 534 -9 499 -14 464 -14 C 373 -14 300 10 244 59 C 188 107 155 169 146 243 L 66 243 Z" unicode="€" />
<glyph horiz-adv-x="529" d="M 72 0 L 164 658 L 251 658 L 269 786 L 330 786 L 312 658 L 333 658 C 339 658 346 657 352 657 C 358 657 363 656 369 656 L 387 786 L 448 786 L 427 644 C 459 632 484 615 500 591 C 516 567 524 538 524 505 C 524 466 512 430 490 398 C 468 366 432 344 383 334 C 427 326 458 309 478 283 C 498 257 508 227 508 193 C 508 145 493 105 465 72 C 437 39 394 17 338 7 L 320 -124 L 259 -124 L 277 0 C 274 0 271 0 268 0 C 265 0 262 0 260 0 L 220 0 L 202 -124 L 142 -124 L 159 0 L 72 0 Z M 208 369 L 296 369 C 341 369 376 379 401 400 C 425 420 438 450 438 488 C 438 518 428 542 409 559 C 390 575 363 584 327 584 L 239 584 L 208 369 Z M 167 74 L 273 74 C 321 74 358 84 384 106 C 410 128 423 158 423 196 C 423 228 412 253 390 271 C 368 289 336 298 293 298 L 198 298 L 167 74 Z" unicode="₿" />
<glyph horiz-adv-x="671" d="M 367 107 C 291 107 227 132 176 183 C 125 234 100 297 100 373 C 100 463 129 539 189 603 C 248 667 324 699 417 699 C 493 699 556 673 607 623 C 658 572 684 509 684 434 C 684 344 654 267 595 203 C 535 139 459 107 367 107 Z M 368 155 C 441 155 504 181 556 233 C 608 285 634 351 634 431 C 634 494 612 546 570 588 C 527 630 476 651 416 651 C 342 651 280 625 228 573 C 176 521 150 454 150 374 C 150 312 171 260 214 218 C 256 176 308 155 368 155 Z M 286 233 L 334 576 L 426 576 C 458 576 484 567 504 550 C 524 533 535 511 535 484 C 535 444 521 413 495 390 C 468 366 434 355 394 355 L 358 355 L 340 233 L 286 233 Z M 364 401 L 400 401 C 426 401 446 408 460 422 C 473 436 480 454 480 474 C 480 488 474 501 464 512 C 453 523 437 529 417 529 L 382 529 L 364 401 Z" unicode="℗" />
<glyph horiz-adv-x="597" d="M 168 458 L 198 671 L 122 671 L 129 720 L 338 720 L 331 671 L 255 671 L 225 458 L 168 458 Z M 330 458 L 367 720 L 451 720 L 494 584 L 574 720 L 657 720 L 620 458 L 564 458 L 592 663 L 496 502 L 461 502 L 408 666 L 378 458 L 330 458 Z" unicode="™" />
<glyph horiz-adv-x="540" d="M 281 -12 C 219 -12 168 5 129 43 C 90 81 71 132 71 197 C 71 267 93 326 137 374 C 181 421 236 445 300 445 C 336 445 368 436 395 420 C 422 404 442 381 455 353 C 452 433 426 494 378 538 C 330 582 258 604 163 604 L 175 689 C 306 689 400 653 456 581 C 512 509 541 427 541 334 C 541 229 517 145 469 83 C 421 20 358 -11 281 -12 Z M 285 64 C 329 64 365 80 395 114 C 424 148 441 192 446 247 C 445 281 433 310 409 334 C 385 357 353 369 315 369 C 271 369 234 353 204 321 C 174 289 160 249 160 201 C 160 161 171 129 195 103 C 218 77 248 64 285 64 Z" unicode="∂" />
<glyph horiz-adv-x="522" d="M 62 0 L 155 658 L 553 658 L 460 0 L 376 0 L 458 580 L 228 580 L 146 0 L 62 0 Z" unicode="∏" />
<glyph horiz-adv-x="495" d="M 42 0 L 53 77 L 322 339 L 125 583 L 135 658 L 546 658 L 535 580 L 239 580 L 429 342 L 168 84 L 466 84 L 455 0 L 42 0 Z" unicode="∑" />
<glyph horiz-adv-x="524" d="M 82 255 L 92 326 L 522 326 L 512 255 L 82 255 Z" unicode="−" />
<glyph horiz-adv-x="561" d="M 194 -5 L 80 494 L 164 494 L 255 90 L 572 716 L 652 716 L 284 -5 L 194 -5 Z" unicode="√" />
<glyph horiz-adv-x="824" d="M 221 36 C 175 36 138 51 110 82 C 82 113 68 155 68 209 C 68 272 87 323 127 363 C 167 402 216 422 275 422 C 315 422 349 411 379 391 C 408 370 434 339 456 298 C 488 338 520 369 553 390 C 585 410 621 421 659 421 C 705 421 743 405 773 375 C 803 345 818 303 818 251 C 818 187 798 135 759 95 C 720 55 672 36 614 36 C 572 36 537 46 508 67 C 479 88 453 121 431 165 C 398 121 364 89 330 68 C 296 46 259 36 221 36 Z M 148 217 C 148 185 156 159 172 139 C 188 119 211 110 240 110 C 266 110 292 119 318 137 C 344 155 371 185 400 227 C 378 271 357 302 336 320 C 314 338 291 348 266 348 C 232 348 203 335 181 310 C 159 285 148 254 148 217 Z M 644 347 C 617 347 591 338 567 321 C 543 303 516 274 488 234 C 510 188 531 156 551 138 C 571 119 594 110 622 110 C 656 110 683 122 705 148 C 727 173 738 204 738 242 C 738 273 729 298 712 318 C 695 337 672 347 644 347 Z" unicode="∞" />
<glyph horiz-adv-x="441" d="M 53 -223 C 38 -223 24 -221 10 -218 C -3 -215 -16 -210 -29 -204 L -18 -128 C -7 -134 3 -139 15 -143 C 27 -146 40 -148 54 -148 C 79 -148 99 -139 115 -121 C 131 -103 141 -78 145 -47 L 219 551 C 225 610 245 654 277 683 C 309 712 348 727 394 727 C 409 727 424 725 440 722 C 455 719 470 715 485 710 L 474 631 C 461 637 448 642 436 646 C 424 650 411 652 399 652 C 370 652 347 643 331 626 C 314 608 303 584 299 552 L 225 -50 C 218 -108 199 -151 168 -180 C 137 -208 99 -223 53 -223 Z" unicode="∫" />
<glyph horiz-adv-x="397" d="M 113 300 L 108 364 C 116 376 128 386 144 394 C 160 401 175 405 190 405 C 202 405 213 402 224 398 C 235 394 246 389 256 385 C 266 380 275 375 285 371 C 295 367 306 365 319 365 C 331 365 343 367 354 373 C 364 379 374 386 384 395 L 390 331 C 380 318 368 308 353 301 C 337 293 322 290 308 290 C 296 290 285 292 274 296 C 263 300 253 305 243 310 C 233 314 224 319 214 323 C 204 327 192 330 180 330 C 168 330 156 327 145 322 C 133 317 123 310 113 300 Z M 90 133 L 84 197 C 92 209 104 219 120 227 C 136 234 151 238 166 238 C 178 238 189 235 201 231 C 212 227 223 222 233 218 C 243 213 252 208 262 204 C 272 200 283 198 296 198 C 308 198 319 200 330 206 C 341 212 351 219 361 228 L 366 164 C 357 151 345 141 330 134 C 314 126 299 123 285 123 C 273 123 262 125 251 129 C 239 133 229 138 219 143 C 210 147 200 152 190 156 C 180 160 168 163 156 163 C 144 163 132 160 121 155 C 109 150 99 143 90 133 Z" unicode="≈" />
<glyph horiz-adv-x="540" d="M 108 50 L 189 171 L 80 171 L 90 242 L 237 242 L 299 335 L 103 335 L 114 407 L 347 407 L 426 525 L 503 525 L 424 407 L 544 407 L 533 335 L 375 335 L 313 242 L 520 242 L 510 171 L 265 171 L 184 50 L 108 50 Z" unicode="≠" />
<glyph horiz-adv-x="466" d="M 303 81 L 100 288 L 363 495 L 476 495 L 212 287 L 415 81 L 303 81 Z M 58 -71 L 68 0 L 395 0 L 385 -71 L 58 -71 Z" unicode="≤" />
<glyph horiz-adv-x="466" d="M 71 81 L 335 288 L 132 495 L 243 495 L 446 288 L 185 81 L 71 81 Z M 58 -71 L 69 0 L 398 0 L 388 -71 L 58 -71 Z" unicode="≥" />
<glyph horiz-adv-x="608" d="M 303 -26 L 92 315 L 400 656 L 607 315 L 303 -26 Z M 315 91 L 517 318 L 384 539 L 182 311 L 315 91 Z" unicode="◊" />
<glyph horiz-adv-x="568" d="M 201 -5 L 87 494 L 172 494 L 262 89 L 579 723 L 658 723 L 291 -5 L 201 -5 Z" unicode="✓" />
<glyph horiz-adv-x="691" d="M 58 0 L 69 80 L 262 80 L 267 118 C 219 132 177 160 143 203 C 109 246 92 299 92 361 C 92 452 123 527 185 585 C 247 643 325 672 417 672 C 501 672 570 647 625 599 C 679 550 707 484 707 401 C 707 328 683 265 635 212 C 587 159 527 126 457 114 L 452 80 L 644 80 L 633 0 L 377 0 L 401 174 C 469 180 523 205 562 247 C 601 289 621 338 621 396 C 621 452 603 499 567 537 C 531 575 480 594 415 594 C 345 594 288 571 244 526 C 199 480 177 427 177 365 C 177 315 191 273 221 238 C 251 203 290 182 339 175 L 315 0 L 58 0 Z" unicode="Ꞷ" />
<glyph horiz-adv-x="148" d="M 30 -231 L -26 -205 C -10 -184 0 -164 8 -145 C 16 -125 21 -104 24 -82 L 30 -40 L 104 -40 L 98 -82 C 93 -112 86 -139 76 -162 C 66 -185 50 -208 30 -231 Z" unicode="" />
<glyph horiz-adv-x="721" d="M 29 0 L 121 658 L 784 658 L 692 0 L 29 0 Z M 230 77 L 293 77 L 356 528 L 441 528 L 377 77 L 440 77 L 473 309 L 504 309 C 558 309 601 323 634 351 C 667 379 684 418 684 468 C 684 498 672 525 648 548 C 624 570 587 582 537 582 L 197 582 L 190 528 L 293 528 L 230 77 Z" unicode="" />
<glyph horiz-adv-x="476" d="M 90 0 L 145 393 L 73 393 L 83 466 L 155 466 L 167 550 C 174 604 194 647 228 680 C 262 713 304 730 354 730 C 370 730 389 728 409 724 C 429 720 448 714 465 706 L 454 628 C 439 636 423 643 405 648 C 387 652 371 655 356 655 C 326 655 301 645 283 626 C 264 607 252 581 248 549 L 236 466 L 319 466 L 309 393 L 226 393 L 171 0 L 90 0 Z M 330 0 C 330 20 331 41 333 63 C 335 85 337 107 340 129 L 388 466 L 470 466 L 422 129 C 419 108 417 86 415 63 C 413 40 412 19 412 0 L 330 0 Z" unicode="ﬁ" />
<glyph horiz-adv-x="478" d="M 90 0 L 145 393 L 73 393 L 83 466 L 155 466 L 167 550 C 174 604 194 647 228 680 C 262 713 304 730 354 730 C 364 730 376 729 389 727 C 401 725 414 723 427 720 L 507 720 L 424 130 C 421 109 419 88 417 66 C 415 44 414 22 415 0 L 333 0 C 332 21 333 43 335 67 C 337 91 339 113 342 134 L 414 645 C 404 648 394 650 384 652 C 374 654 364 655 356 655 C 326 655 301 645 283 626 C 264 607 252 581 248 549 L 236 466 L 319 466 L 309 393 L 226 393 L 171 0 L 90 0 Z" unicode="ﬂ" />
</font>
</defs>
</svg>
