<?xml version="1.0" encoding="utf-8" ?><svg version="1.1" xmlns = 'http://www.w3.org/2000/svg'><defs><font id='web' horiz-adv-x="1000">
<font-face font-family="web" descent="-252" cap-height="658" units-per-em="1000" bbox="-204,-345,1293,991" x-height="478" ascent="748" />
<missing-glyph horiz-adv-x="500" d="M 50 -252 L 450 -252 L 450 748 L 50 748 L 50 -252 Z M 100 -202 L 100 698 L 400 698 L 400 -202 L 100 -202 Z" /><glyph horiz-adv-x="200" d="" unicode=" " />
<<<<<<< HEAD
<glyph horiz-adv-x="301" d="M 52 224 L 248 224 L 248 716 L 52 716 L 52 224 Z M 53 0 L 249 0 L 249 164 L 53 164 L 53 0 Z" unicode="!" />
<glyph horiz-adv-x="477" d="M 56 422 L 212 422 L 212 716 L 56 716 L 56 422 Z M 265 422 L 421 422 L 421 716 L 265 716 L 265 422 Z" unicode="&#x22;" />
<glyph horiz-adv-x="616" d="M 93 0 L 225 0 L 238 96 L 320 96 L 307 0 L 439 0 L 452 96 L 557 96 L 557 260 L 474 260 L 485 341 L 572 341 L 572 505 L 506 505 L 519 599 L 387 599 L 374 505 L 292 505 L 305 599 L 173 599 L 160 505 L 60 505 L 60 341 L 139 341 L 128 260 L 44 260 L 44 96 L 106 96 L 93 0 Z M 260 260 L 271 341 L 353 341 L 342 260 L 260 260 Z" unicode="#" />
<glyph horiz-adv-x="597" d="M 219 -102 L 375 -102 L 375 -1 C 428 11 470 35 500 71 C 530 107 545 154 545 212 C 545 260 530 302 502 339 C 474 375 429 401 369 416 L 335 424 C 318 428 305 433 297 441 C 288 449 284 457 284 466 C 284 476 288 484 298 489 C 307 493 320 496 336 496 C 364 496 394 492 426 486 C 458 479 487 470 513 459 L 513 639 C 493 645 471 651 447 656 C 423 661 399 665 375 667 L 375 762 L 219 762 L 219 658 C 167 644 126 618 96 582 C 66 546 52 501 52 449 C 52 399 66 357 96 322 C 126 286 171 262 231 248 L 265 240 C 281 236 294 230 303 222 C 312 214 317 206 317 197 C 317 186 312 178 302 173 C 292 167 278 165 262 165 C 231 165 198 169 163 177 C 128 185 94 197 62 213 L 62 30 C 87 20 113 11 140 5 C 167 -1 193 -6 219 -9 L 219 -102 Z" unicode="$" />
<glyph horiz-adv-x="926" d="M 208 350 C 262 350 305 367 338 403 C 371 438 388 484 388 540 C 388 597 371 643 338 678 C 305 712 262 730 208 730 C 154 730 110 712 77 678 C 44 643 28 597 28 540 C 28 484 44 438 77 403 C 110 367 154 350 208 350 Z M 225 0 L 369 0 L 693 716 L 549 716 L 225 0 Z M 208 482 C 197 482 188 487 180 497 C 172 507 169 521 169 540 C 169 558 172 573 180 583 C 188 593 197 599 208 599 C 218 599 227 593 235 583 C 243 573 247 558 247 540 C 247 521 243 507 235 497 C 227 487 218 482 208 482 Z M 714 -10 C 768 -10 811 7 844 43 C 877 78 894 124 894 180 C 894 237 877 283 844 318 C 811 352 768 370 714 370 C 660 370 616 352 583 318 C 550 283 534 237 534 180 C 534 124 550 78 583 43 C 616 7 660 -10 714 -10 Z M 714 122 C 703 122 694 127 686 137 C 678 147 675 161 675 180 C 675 198 678 213 686 223 C 694 233 703 239 714 239 C 724 239 733 233 741 223 C 749 213 753 198 753 180 C 753 161 749 147 741 137 C 733 127 724 122 714 122 Z" unicode="%" />
<glyph horiz-adv-x="698" d="M 268 -12 C 302 -12 332 -7 359 1 C 386 9 410 22 430 40 L 463 0 L 694 0 L 560 155 C 576 183 589 216 597 253 C 605 290 610 332 610 380 L 447 380 C 447 363 446 347 445 333 C 444 318 443 304 441 292 L 374 369 C 360 383 351 397 345 409 C 339 421 337 435 337 450 C 337 467 343 481 355 492 C 367 502 385 508 408 508 C 430 508 451 505 471 501 C 491 497 511 490 533 481 L 533 644 C 509 654 482 662 452 667 C 422 671 392 674 362 674 C 292 674 237 655 197 619 C 156 583 136 540 136 490 C 136 467 137 447 141 429 C 145 411 151 393 159 377 C 119 354 88 326 67 293 C 46 259 36 224 36 186 C 36 128 56 81 97 44 C 137 6 194 -12 268 -12 Z M 215 216 C 215 226 217 235 221 244 C 225 253 231 261 239 269 L 328 162 C 322 158 315 155 308 153 C 301 151 294 150 286 150 C 263 150 245 156 233 168 C 221 180 215 196 215 216 Z" unicode="&#x26;" />
<glyph horiz-adv-x="268" d="M 56 422 L 212 422 L 212 716 L 56 716 L 56 422 Z" unicode="'" />
<glyph horiz-adv-x="448" d="M 204 -220 L 436 -220 C 383 -155 340 -81 308 0 C 276 82 260 165 260 248 C 260 330 276 413 308 495 C 340 577 383 651 436 716 L 204 716 C 158 654 122 582 94 500 C 66 418 52 334 52 248 C 52 162 66 77 94 -4 C 122 -86 158 -158 204 -220 Z" unicode="(" />
<glyph horiz-adv-x="448" d="M 12 -220 L 244 -220 C 289 -158 326 -86 354 -4 C 382 77 396 162 396 248 C 396 334 382 418 354 500 C 326 582 289 654 244 716 L 12 716 C 64 651 107 577 139 495 C 171 413 188 330 188 248 C 188 165 171 82 139 0 C 107 -81 64 -155 12 -220 Z" unicode=")" />
<glyph horiz-adv-x="573" d="M 227 -12 L 286 131 L 348 -13 L 505 102 L 387 203 L 541 216 L 480 402 L 349 323 L 384 478 L 189 478 L 224 323 L 93 402 L 32 217 L 186 204 L 70 103 L 227 -12 Z" unicode="*" />
<glyph horiz-adv-x="544" d="M 198 66 L 346 66 L 346 213 L 488 213 L 488 361 L 346 361 L 346 508 L 198 508 L 198 361 L 56 361 L 56 213 L 198 213 L 198 66 Z" unicode="+" />
<glyph horiz-adv-x="306" d="M 250 188 L 62 188 L 62 86 C 62 36 58 -6 50 -40 C 42 -74 30 -110 12 -148 L 160 -181 C 182 -160 202 -129 221 -87 C 240 -45 250 12 250 87 L 250 188 Z" unicode="," />
<glyph horiz-adv-x="360" d="M 40 163 L 320 163 L 320 311 L 40 311 L 40 163 Z" unicode="-" />
<glyph horiz-adv-x="300" d="M 56 0 L 244 0 L 244 188 L 56 188 L 56 0 Z" unicode="." />
<glyph horiz-adv-x="546" d="M 32 0 L 200 0 L 514 716 L 346 716 L 32 0 Z" unicode="/" />
<glyph horiz-adv-x="662" d="M 331 -16 C 427 -16 499 15 547 77 C 594 139 618 224 618 331 C 618 437 594 521 547 584 C 499 646 427 678 331 678 C 234 678 162 646 115 583 C 67 520 44 435 44 329 C 44 223 67 139 115 77 C 162 15 234 -16 331 -16 Z M 331 172 C 305 172 287 185 276 211 C 265 237 260 277 260 331 C 260 384 265 424 276 450 C 287 476 305 490 331 490 C 356 490 374 476 385 450 C 396 424 402 384 402 330 C 402 276 396 236 385 210 C 374 184 356 172 331 172 Z" unicode="0" />
<glyph horiz-adv-x="418" d="M 126 0 L 338 0 L 338 678 L 32 654 L 32 458 L 126 464 L 126 0 Z" unicode="1" />
<glyph horiz-adv-x="548" d="M 46 0 L 504 0 L 504 188 L 263 188 L 293 197 C 364 218 417 253 451 302 C 485 351 503 405 503 463 C 503 529 479 581 431 621 C 383 660 321 680 244 680 C 210 680 173 675 135 667 C 96 659 66 649 44 637 L 44 435 C 67 450 94 462 124 471 C 154 480 181 485 206 485 C 230 485 251 478 268 464 C 285 450 294 432 294 408 C 294 372 274 339 235 308 C 195 277 150 255 99 242 L 46 228 L 46 0 Z" unicode="2" />
<glyph horiz-adv-x="542" d="M 262 -12 C 335 -12 393 4 435 37 C 477 70 498 114 498 170 C 498 206 489 238 471 268 C 453 298 423 320 383 334 C 422 348 450 371 466 401 C 482 431 490 464 490 500 C 490 550 469 593 428 627 C 386 661 333 678 268 678 C 230 678 195 675 161 669 C 127 663 93 655 59 643 L 59 452 C 82 464 107 474 135 480 C 163 486 190 490 218 490 C 236 490 251 486 262 480 C 272 474 278 464 278 452 C 278 436 270 424 255 416 C 240 408 220 404 194 404 L 162 404 L 162 260 L 200 260 C 226 260 246 256 262 249 C 277 242 285 231 285 217 C 285 203 278 192 265 186 C 252 179 235 176 213 176 C 183 176 153 180 124 188 C 95 196 68 208 44 224 L 44 31 C 81 16 118 5 154 -1 C 190 -8 226 -12 262 -12 Z" unicode="3" />
<glyph horiz-adv-x="625" d="M 311 0 L 511 0 L 511 122 L 585 122 L 585 296 L 511 296 L 511 666 L 218 666 L 40 274 L 40 124 L 311 124 L 311 0 Z M 311 296 L 226 296 L 311 491 L 311 296 Z" unicode="4" />
<glyph horiz-adv-x="559" d="M 257 -12 C 344 -12 409 8 451 50 C 493 92 515 144 515 207 C 515 275 494 327 452 361 C 410 395 351 412 275 412 C 266 412 255 411 243 410 C 231 409 219 408 208 406 L 212 466 L 495 466 L 495 666 L 71 666 L 44 230 C 74 236 107 241 142 245 C 177 248 211 250 244 250 C 262 250 276 245 286 237 C 296 229 301 218 301 206 C 301 193 296 182 286 174 C 276 166 261 162 243 162 C 211 162 177 164 141 170 C 105 175 72 185 44 199 L 44 28 C 70 15 102 5 139 -1 C 175 -8 215 -12 257 -12 Z" unicode="5" />
<glyph horiz-adv-x="615" d="M 319 -12 C 389 -12 448 8 497 50 C 546 92 571 156 571 242 C 571 311 551 362 511 396 C 471 429 423 446 367 446 C 342 446 321 443 303 437 C 285 431 270 423 258 412 C 266 444 278 469 296 487 C 314 505 339 514 372 514 C 400 514 429 510 460 503 C 491 496 520 487 546 475 L 546 645 C 516 656 483 665 448 672 C 413 678 380 682 350 682 C 253 682 178 647 124 578 C 70 509 44 423 44 321 C 44 214 68 132 117 74 C 165 16 233 -12 319 -12 Z M 313 167 C 297 167 283 173 272 186 C 260 198 255 217 255 242 C 259 257 266 269 277 279 C 287 289 300 294 316 294 C 330 294 342 288 351 276 C 360 264 365 249 365 231 C 365 212 360 197 351 185 C 341 173 329 167 313 167 Z" unicode="6" />
<glyph horiz-adv-x="566" d="M 86 0 L 305 0 L 526 501 L 526 666 L 40 666 L 40 466 L 306 466 L 86 0 Z" unicode="7" />
<glyph horiz-adv-x="615" d="M 306 -16 C 386 -16 451 3 499 41 C 547 79 571 129 571 190 C 571 227 562 260 544 290 C 526 320 502 345 470 366 C 499 383 521 403 535 426 C 549 449 556 474 556 501 C 556 556 533 600 488 633 C 442 665 382 682 306 682 C 228 682 167 664 121 630 C 75 595 53 549 53 491 C 53 457 60 426 76 398 C 92 370 114 345 143 325 C 110 306 85 284 69 259 C 52 234 44 206 44 176 C 44 118 67 71 115 36 C 162 1 226 -16 306 -16 Z M 320 422 C 298 426 281 434 269 445 C 256 455 250 468 250 482 C 250 500 255 513 265 522 C 275 531 289 536 306 536 C 322 536 336 530 346 520 C 356 509 361 494 361 476 C 361 466 357 456 350 446 C 343 436 334 428 322 422 L 320 422 Z M 244 206 C 244 216 248 227 256 238 C 264 248 274 258 287 267 L 290 266 C 314 260 334 251 349 239 C 363 227 371 213 371 199 C 371 179 365 165 353 156 C 341 146 326 142 307 142 C 287 142 272 147 261 158 C 249 169 244 185 244 206 Z" unicode="8" />
<glyph horiz-adv-x="615" d="M 265 -12 C 361 -12 436 22 490 91 C 544 160 571 246 571 349 C 571 455 546 537 498 595 C 449 653 382 682 296 682 C 226 682 166 661 117 619 C 68 577 44 514 44 428 C 44 358 64 307 104 274 C 144 240 192 224 248 224 C 274 224 297 227 316 234 C 334 240 350 250 362 263 C 355 228 342 201 324 183 C 306 165 279 156 243 156 C 216 156 186 160 154 169 C 121 177 87 191 51 211 L 51 41 C 82 26 114 13 148 3 C 182 -6 221 -12 265 -12 Z M 302 379 C 287 379 275 385 266 397 C 257 409 253 424 253 442 C 253 462 257 477 267 489 C 276 500 289 506 305 506 C 322 506 336 499 346 486 C 356 472 361 454 361 432 C 356 412 349 398 340 390 C 330 382 318 379 302 379 Z" unicode="9" />
<glyph horiz-adv-x="300" d="M 56 284 L 244 284 L 244 472 L 56 472 L 56 284 Z M 56 0 L 244 0 L 244 188 L 56 188 L 56 0 Z" unicode=":" />
<glyph horiz-adv-x="314" d="M 73 285 L 261 285 L 261 473 L 73 473 L 73 285 Z M 262 188 L 74 188 L 74 86 C 74 36 70 -6 62 -40 C 54 -74 42 -110 24 -148 L 172 -181 C 194 -160 214 -129 233 -87 C 252 -45 262 12 262 87 L 262 188 Z" unicode=";" />
<glyph horiz-adv-x="531" d="M 243 68 L 475 68 L 286 285 L 475 500 L 245 500 L 56 284 L 243 68 Z" unicode="&#x3C;" />
<glyph horiz-adv-x="544" d="M 56 330 L 488 330 L 488 478 L 56 478 L 56 330 Z M 56 122 L 488 122 L 488 270 L 56 270 L 56 122 Z" unicode="=" />
<glyph horiz-adv-x="531" d="M 56 68 L 288 68 L 475 284 L 286 500 L 56 500 L 245 285 L 56 68 Z" unicode="&#x3E;" />
<glyph horiz-adv-x="482" d="M 116 225 L 296 225 C 296 251 303 276 318 300 C 333 323 351 343 371 360 C 393 378 412 402 427 430 C 442 458 450 492 450 533 C 450 591 427 633 382 660 C 336 686 288 700 236 700 C 192 700 154 697 122 692 C 90 687 56 679 20 667 L 20 502 C 44 512 67 520 88 525 C 109 530 133 533 160 533 C 182 533 200 527 214 517 C 228 507 235 493 235 477 C 235 463 231 450 225 437 C 218 424 207 411 191 399 C 175 386 159 365 142 337 C 124 308 116 271 116 225 Z M 109 1 L 305 1 L 305 165 L 109 165 L 109 1 Z" unicode="?" />
<glyph horiz-adv-x="808" d="M 393 -83 C 423 -83 452 -80 481 -74 C 510 -68 539 -60 569 -50 L 569 70 C 541 55 513 44 484 37 C 455 29 425 26 393 26 C 319 26 260 49 215 97 C 170 144 148 203 148 274 C 148 342 171 402 219 452 C 267 502 330 528 409 528 C 484 528 545 506 591 462 C 637 418 660 366 660 305 C 660 275 655 251 645 232 C 635 213 619 204 595 204 C 575 204 561 210 551 223 C 541 236 538 252 540 270 L 559 428 C 539 436 516 443 491 449 C 466 454 443 457 422 457 C 374 457 329 439 288 405 C 247 370 227 319 227 253 C 227 215 239 180 264 148 C 289 116 321 101 360 101 C 386 101 408 106 427 117 C 446 128 461 145 473 167 C 487 143 505 126 527 116 C 548 106 573 101 602 101 C 648 101 687 119 721 157 C 755 194 772 246 772 313 C 772 411 736 489 665 547 C 593 605 508 634 409 634 C 308 634 221 601 147 535 C 73 469 36 381 36 272 C 36 161 71 74 142 11 C 213 -51 297 -83 393 -83 Z M 390 226 C 379 226 370 230 363 239 C 355 247 352 258 352 272 C 352 291 357 307 369 320 C 381 332 393 339 407 339 C 412 339 417 338 422 338 C 427 338 433 337 441 337 L 437 306 C 432 273 426 251 418 241 C 410 231 400 226 390 226 Z" unicode="@" />
<glyph horiz-adv-x="756" d="M 12 0 L 210 0 L 246 96 L 479 96 L 515 0 L 744 0 L 482 658 L 275 658 L 12 0 Z M 297 232 L 320 294 L 363 418 L 405 294 L 428 232 L 297 232 Z" unicode="A" />
<glyph horiz-adv-x="624" d="M 60 0 L 369 0 C 442 0 499 16 539 48 C 579 80 600 124 600 179 C 600 219 587 252 562 278 C 537 304 500 321 452 331 C 494 343 525 363 547 390 C 568 417 579 451 579 491 C 579 542 558 583 518 613 C 477 643 422 658 352 658 L 60 658 L 60 0 Z M 270 396 L 270 517 L 306 517 C 323 517 337 511 348 500 C 359 489 365 474 365 456 C 365 439 359 425 348 413 C 337 401 323 396 306 396 L 270 396 Z M 270 153 L 270 274 L 321 274 C 339 274 354 268 366 257 C 378 246 384 232 384 214 C 384 196 378 182 366 170 C 354 158 339 153 321 153 L 270 153 Z" unicode="B" />
<glyph horiz-adv-x="642" d="M 408 -12 C 442 -12 474 -8 505 0 C 536 7 567 18 598 33 L 598 224 C 569 207 540 194 510 186 C 480 178 450 174 420 174 C 372 174 334 187 306 215 C 278 243 264 281 264 330 C 264 378 278 415 306 443 C 334 470 372 484 420 484 C 449 484 478 480 506 472 C 534 464 563 452 591 436 L 591 629 C 562 642 532 652 502 659 C 472 666 440 670 408 670 C 297 670 208 639 141 578 C 73 517 40 434 40 330 C 40 225 73 142 141 80 C 208 18 297 -12 408 -12 Z" unicode="C" />
<glyph horiz-adv-x="719" d="M 60 0 L 309 0 C 424 0 514 30 580 91 C 646 152 679 234 679 337 C 679 435 645 513 578 571 C 511 629 421 658 309 658 L 60 658 L 60 0 Z M 272 186 L 272 472 L 304 472 C 352 472 390 459 418 435 C 445 411 459 378 459 337 C 459 291 445 254 418 227 C 390 199 352 186 304 186 L 272 186 Z" unicode="D" />
<glyph horiz-adv-x="540" d="M 60 0 L 496 0 L 496 183 L 272 183 L 272 255 L 468 255 L 468 405 L 272 405 L 272 474 L 485 474 L 485 658 L 60 658 L 60 0 Z" unicode="E" />
<glyph horiz-adv-x="496" d="M 60 0 L 272 0 L 272 227 L 446 227 L 446 401 L 272 401 L 272 474 L 464 474 L 464 658 L 60 658 L 60 0 Z" unicode="F" />
<glyph horiz-adv-x="710" d="M 397 -12 C 449 -12 497 -8 542 -2 C 587 4 630 14 670 28 L 670 399 L 379 399 L 379 249 L 468 249 L 468 177 C 457 173 446 171 435 170 C 424 169 413 169 403 169 C 361 169 326 183 300 213 C 273 242 260 281 260 331 C 260 377 275 414 306 441 C 336 468 374 482 418 482 C 454 482 488 479 522 473 C 555 467 589 458 623 447 L 623 640 C 586 650 549 657 513 662 C 477 667 440 670 404 670 C 297 670 210 639 142 577 C 74 515 40 431 40 324 C 40 223 73 142 139 80 C 205 18 291 -12 397 -12 Z" unicode="G" />
<glyph horiz-adv-x="732" d="M 60 0 L 272 0 L 272 235 L 460 235 L 460 0 L 672 0 L 672 658 L 460 658 L 460 421 L 272 421 L 272 658 L 60 658 L 60 0 Z" unicode="H" />
<glyph horiz-adv-x="332" d="M 60 0 L 272 0 L 272 658 L 60 658 L 60 0 Z" unicode="I" />
<glyph horiz-adv-x="335" d="M -20 -220 C 79 -220 153 -195 202 -146 C 250 -96 275 -32 275 48 L 275 658 L 63 658 L 63 48 C 63 15 55 -8 40 -24 C 25 -40 5 -48 -20 -48 L -36 -48 L -36 -220 L -20 -220 Z" unicode="J" />
<glyph horiz-adv-x="733" d="M 60 0 L 272 0 L 272 293 L 467 0 L 715 0 L 477 341 L 717 658 L 490 658 L 272 354 L 272 658 L 60 658 L 60 0 Z" unicode="K" />
<glyph horiz-adv-x="521" d="M 60 0 L 497 0 L 497 188 L 272 188 L 272 658 L 60 658 L 60 0 Z" unicode="L" />
<glyph horiz-adv-x="932" d="M 60 0 L 248 0 L 248 312 L 241 445 L 287 313 L 398 46 L 509 46 L 620 312 L 667 446 L 660 311 L 660 0 L 872 0 L 872 658 L 575 658 L 501 468 L 467 361 L 433 468 L 359 658 L 60 658 L 60 0 Z" unicode="M" />
<glyph horiz-adv-x="776" d="M 60 0 L 248 0 L 248 286 L 244 376 L 294 286 L 473 0 L 716 0 L 716 658 L 528 658 L 528 372 L 532 286 L 484 372 L 309 658 L 60 658 L 60 0 Z" unicode="N" />
<glyph horiz-adv-x="799" d="M 400 -18 C 509 -18 596 13 661 76 C 726 138 759 223 759 329 C 759 435 726 520 661 582 C 596 644 509 676 400 676 C 290 676 202 644 137 582 C 72 520 40 435 40 329 C 40 223 72 138 137 76 C 202 13 290 -18 400 -18 Z M 400 167 C 357 167 323 181 298 210 C 272 239 260 279 260 329 C 260 379 272 418 298 447 C 323 476 357 491 400 491 C 442 491 475 476 501 447 C 526 418 539 379 539 329 C 539 279 526 239 501 210 C 475 181 442 167 400 167 Z" unicode="O" />
<glyph horiz-adv-x="610" d="M 60 0 L 272 0 L 272 167 L 322 167 C 402 167 466 191 514 241 C 562 290 586 348 586 416 C 586 482 562 538 516 586 C 469 634 406 658 327 658 L 60 658 L 60 0 Z M 272 337 L 272 486 L 299 486 C 321 486 339 479 353 466 C 366 453 373 436 373 416 C 373 392 366 372 353 358 C 339 344 322 337 300 337 L 272 337 Z" unicode="P" />
<glyph horiz-adv-x="802" d="M 625 -169 L 758 -14 C 734 -9 711 -2 687 7 C 663 16 639 27 616 39 C 661 68 696 107 721 157 C 746 207 759 264 759 329 C 759 435 726 520 661 582 C 596 644 509 676 400 676 C 290 676 202 644 137 582 C 72 520 40 435 40 329 C 40 225 71 141 134 79 C 196 17 281 -15 387 -18 C 421 -52 459 -82 502 -110 C 544 -137 585 -157 625 -169 Z M 400 167 C 357 167 323 181 298 210 C 272 239 260 279 260 329 C 260 379 272 418 298 447 C 323 476 357 491 400 491 C 442 491 475 476 501 447 C 526 418 539 379 539 329 C 539 279 526 239 501 210 C 475 181 442 167 400 167 Z" unicode="Q" />
<glyph horiz-adv-x="672" d="M 429 0 L 656 0 L 579 201 C 567 233 549 258 527 276 C 505 294 476 308 440 316 C 484 328 517 349 540 378 C 563 406 575 442 575 485 C 575 539 554 582 512 612 C 470 642 421 658 364 658 L 60 658 L 60 0 L 272 0 L 272 253 L 293 253 C 307 253 320 248 330 238 C 340 228 349 212 358 190 L 429 0 Z M 272 385 L 272 510 L 302 510 C 320 510 335 504 347 493 C 359 481 365 466 365 448 C 365 429 359 414 347 402 C 335 390 320 385 302 385 L 272 385 Z" unicode="R" />
<glyph horiz-adv-x="573" d="M 263 -12 C 345 -12 411 6 460 44 C 508 81 533 137 533 212 C 533 260 518 302 490 339 C 462 375 417 401 357 416 L 323 424 C 306 428 293 433 285 441 C 276 449 272 457 272 466 C 272 476 276 484 286 489 C 295 493 308 496 324 496 C 352 496 382 492 414 486 C 446 479 475 470 501 459 L 501 639 C 473 649 441 656 406 662 C 371 667 337 670 305 670 C 223 670 159 650 111 610 C 63 570 40 516 40 449 C 40 399 54 357 84 322 C 114 286 159 262 219 248 L 253 240 C 269 236 282 230 291 222 C 300 214 305 206 305 197 C 305 186 300 178 290 173 C 280 167 266 165 250 165 C 219 165 186 169 151 177 C 116 185 82 197 50 213 L 50 30 C 85 16 121 6 159 -1 C 196 -8 231 -12 263 -12 Z" unicode="S" />
<glyph horiz-adv-x="568" d="M 178 0 L 390 0 L 390 470 L 548 470 L 548 658 L 20 658 L 20 470 L 178 470 L 178 0 Z" unicode="T" />
<glyph horiz-adv-x="713" d="M 361 -12 C 447 -12 518 13 574 65 C 629 116 657 183 657 267 L 657 658 L 453 658 L 453 283 C 453 257 445 235 429 218 C 413 200 392 192 366 192 C 339 192 318 200 303 218 C 287 235 280 257 280 283 L 280 658 L 56 658 L 56 267 C 56 183 84 116 141 65 C 198 13 271 -12 361 -12 Z" unicode="U" />
<glyph horiz-adv-x="733" d="M 263 0 L 470 0 L 721 658 L 516 658 L 414 364 L 378 246 L 341 364 L 239 658 L 12 658 L 263 0 Z" unicode="V" />
<glyph horiz-adv-x="1098" d="M 205 0 L 444 0 L 512 238 L 545 377 L 576 238 L 645 0 L 887 0 L 1086 658 L 878 658 L 799 364 L 771 250 L 743 364 L 664 658 L 450 658 L 370 364 L 342 245 L 316 364 L 236 658 L 12 658 L 205 0 Z" unicode="W" />
<glyph horiz-adv-x="747" d="M 16 0 L 248 0 L 326 121 L 363 186 L 400 119 L 473 0 L 731 0 L 502 334 L 728 658 L 497 658 L 420 540 L 387 483 L 355 541 L 279 658 L 21 658 L 249 329 L 16 0 Z" unicode="X" />
<glyph horiz-adv-x="705" d="M 250 0 L 462 0 L 462 220 L 693 658 L 476 658 L 398 485 L 367 413 L 336 485 L 258 658 L 12 658 L 250 213 L 250 0 Z" unicode="Y" />
<glyph horiz-adv-x="675" d="M 52 0 L 622 0 L 622 188 L 360 188 L 414 255 L 623 538 L 623 658 L 56 658 L 56 470 L 317 470 L 263 403 L 52 120 L 52 0 Z" unicode="Z" />
<glyph horiz-adv-x="401" d="M 60 -220 L 369 -220 L 369 -70 L 248 -70 L 248 566 L 369 566 L 369 716 L 60 716 L 60 -220 Z" unicode="[" />
<glyph horiz-adv-x="522" d="M 334 0 L 502 0 L 188 716 L 20 716 L 334 0 Z" unicode="\" />
<glyph horiz-adv-x="401" d="M 32 -220 L 341 -220 L 341 716 L 32 716 L 32 566 L 153 566 L 153 -70 L 32 -70 L 32 -220 Z" unicode="]" />
<glyph horiz-adv-x="248" d="M 85 524 L 122 596 L 159 524 L 296 524 L 202 698 L 50 698 L -44 524 L 85 524 Z" unicode="^" />
<glyph horiz-adv-x="396" d="M 0 -210 L 396 -210 L 396 -78 L 0 -78 L 0 -210 Z" unicode="_" />
<glyph horiz-adv-x="247" d="M 47 524 L 203 524 L 101 682 L -80 682 L 47 524 Z" unicode="`" />
<glyph horiz-adv-x="535" d="M 171 -12 C 200 -12 225 -6 245 4 C 265 15 282 32 296 55 L 306 0 L 499 0 L 499 324 C 499 376 477 418 433 448 C 389 478 331 493 259 493 C 217 493 180 490 148 484 C 116 478 84 470 52 460 L 52 311 C 76 325 101 336 127 344 C 152 351 178 355 206 355 C 236 355 258 351 273 344 C 287 337 295 326 295 312 L 295 298 L 216 285 C 156 275 109 258 75 234 C 41 210 24 174 24 124 C 24 86 37 54 65 28 C 93 1 128 -12 171 -12 Z M 263 127 C 253 127 245 130 239 137 C 232 143 229 152 229 163 C 229 175 232 184 239 191 C 245 198 253 202 262 204 L 295 209 L 295 145 C 292 139 287 135 281 132 C 275 128 269 127 263 127 Z" unicode="a" />
<glyph horiz-adv-x="560" d="M 265 -12 C 347 -12 413 12 462 60 C 511 108 536 172 536 253 C 536 323 522 380 495 424 C 468 468 429 490 377 490 C 343 490 316 482 295 468 C 273 453 256 436 244 416 L 244 716 L 40 716 L 40 24 C 77 12 114 3 152 -3 C 189 -9 227 -12 265 -12 Z M 273 147 C 268 147 263 147 258 148 C 253 148 248 150 244 152 L 244 303 C 248 305 253 307 259 309 C 265 310 270 311 275 311 C 292 311 305 304 314 290 C 323 276 328 256 328 229 C 328 201 323 180 313 167 C 303 153 290 147 273 147 Z" unicode="b" />
<glyph horiz-adv-x="447" d="M 281 -12 C 301 -12 323 -9 346 -4 C 368 1 391 9 415 20 L 415 192 C 398 181 381 173 365 168 C 349 162 333 160 317 160 C 292 160 272 167 257 181 C 241 195 234 213 234 237 C 234 260 241 278 255 292 C 269 306 287 313 311 313 C 326 313 342 310 359 306 C 376 302 393 296 411 288 L 411 460 C 389 468 367 474 345 478 C 323 482 301 485 279 485 C 200 485 138 462 92 416 C 46 370 24 308 24 231 C 24 157 47 98 94 54 C 141 10 203 -12 281 -12 Z" unicode="c" />
<glyph horiz-adv-x="562" d="M 193 -10 C 222 -10 247 -3 267 9 C 287 22 304 41 318 66 L 326 0 L 522 0 L 522 716 L 318 716 L 318 456 C 304 465 290 472 275 477 C 259 482 244 485 228 485 C 168 485 119 461 81 414 C 43 367 24 304 24 226 C 24 155 39 98 71 55 C 102 11 143 -10 193 -10 Z M 284 164 C 268 164 255 171 247 185 C 238 199 234 218 234 242 C 234 266 238 285 247 299 C 256 313 268 320 284 320 C 290 320 295 319 301 318 C 307 316 312 314 318 312 L 318 175 C 313 171 308 168 302 166 C 296 164 290 164 284 164 Z" unicode="d" />
<glyph horiz-adv-x="531" d="M 290 -16 C 320 -16 353 -13 388 -7 C 423 -1 459 8 495 21 L 495 178 C 471 165 447 155 422 149 C 396 143 371 140 347 140 C 311 140 283 144 264 154 C 244 163 233 178 231 199 L 507 199 L 507 214 C 507 295 488 362 451 414 C 413 466 356 493 280 493 C 199 493 136 470 91 424 C 46 378 24 316 24 239 C 24 161 47 99 94 53 C 140 7 206 -16 290 -16 Z M 272 374 C 286 374 296 367 302 355 C 308 343 311 321 311 291 L 230 291 C 230 320 234 341 241 354 C 247 367 258 374 272 374 Z" unicode="e" />
<glyph horiz-adv-x="402" d="M 81 0 L 285 0 L 285 314 L 374 314 L 374 478 L 285 478 L 285 496 C 285 516 292 531 307 539 C 321 547 339 551 361 551 C 373 551 386 550 402 548 C 417 546 433 544 450 541 L 450 710 C 427 716 403 720 379 723 C 355 726 330 728 305 728 C 236 728 181 710 141 674 C 101 638 81 593 81 539 L 81 478 L 24 478 L 24 314 L 81 314 L 81 0 Z" unicode="f" />
<glyph horiz-adv-x="564" d="M 273 -220 C 333 -220 390 -201 444 -164 C 497 -127 524 -63 524 27 L 524 478 L 441 478 L 403 418 C 390 440 371 459 346 473 C 320 487 293 494 265 494 C 203 494 147 472 98 428 C 48 384 24 316 24 226 C 24 153 40 95 73 52 C 105 9 151 -12 210 -12 C 231 -12 251 -7 271 2 C 291 12 307 27 320 47 L 320 11 C 320 -29 304 -52 274 -60 C 244 -68 221 -72 207 -72 C 183 -72 157 -68 130 -60 C 103 -52 78 -39 56 -23 L 56 -182 C 90 -194 124 -204 160 -210 C 196 -216 233 -220 273 -220 Z M 282 156 C 267 156 255 163 247 177 C 238 191 234 211 234 236 C 234 259 238 278 247 292 C 256 306 268 314 284 314 C 290 314 295 313 301 312 C 307 310 312 308 318 306 L 318 167 C 313 163 307 161 301 159 C 295 157 288 156 282 156 Z" unicode="g" />
<glyph horiz-adv-x="559" d="M 40 0 L 244 0 L 244 303 C 247 309 252 313 259 316 C 265 318 272 320 280 320 C 290 320 299 316 307 310 C 315 303 319 294 319 282 L 319 0 L 523 0 L 523 332 C 523 380 508 418 480 447 C 452 475 417 490 375 490 C 344 490 318 483 296 469 C 274 455 256 439 244 419 L 244 716 L 40 716 L 40 0 Z" unicode="h" />
<glyph horiz-adv-x="284" d="M 40 542 L 244 542 L 244 716 L 40 716 L 40 542 Z M 40 0 L 244 0 L 244 478 L 40 478 L 40 0 Z" unicode="i" />
<glyph horiz-adv-x="282" d="M 38 542 L 242 542 L 242 716 L 38 716 L 38 542 Z M -56 -220 C 33 -220 105 -195 160 -147 C 214 -98 242 -35 242 42 L 242 478 L 38 478 L 38 43 C 38 14 29 -9 12 -28 C -5 -46 -28 -56 -56 -56 L -64 -56 L -64 -220 L -56 -220 Z" unicode="j" />
<glyph horiz-adv-x="589" d="M 40 0 L 244 0 L 244 186 L 350 0 L 577 0 L 429 256 L 575 478 L 359 478 L 244 295 L 244 716 L 40 716 L 40 0 Z" unicode="k" />
<glyph horiz-adv-x="284" d="M 40 0 L 244 0 L 244 716 L 40 716 L 40 0 Z" unicode="l" />
<glyph horiz-adv-x="834" d="M 40 0 L 244 0 L 244 303 C 247 309 252 313 258 316 C 264 318 271 320 279 320 C 289 320 298 316 306 310 C 313 303 317 294 317 282 L 317 0 L 521 0 L 521 302 C 525 306 530 310 536 314 C 542 318 549 320 556 320 C 566 320 575 316 583 310 C 590 303 594 294 594 282 L 594 0 L 798 0 L 798 332 C 798 380 783 418 755 447 C 726 475 690 490 646 490 C 620 490 595 484 571 474 C 547 463 524 443 502 414 C 489 436 472 455 450 469 C 428 483 403 490 375 490 C 343 490 317 483 295 469 C 273 455 256 438 244 418 L 244 478 L 40 478 L 40 0 Z" unicode="m" />
<glyph horiz-adv-x="559" d="M 40 0 L 244 0 L 244 303 C 247 309 252 313 259 316 C 265 318 272 320 280 320 C 290 320 299 316 307 310 C 315 303 319 294 319 282 L 319 0 L 523 0 L 523 332 C 523 380 509 418 481 447 C 453 475 418 490 378 490 C 346 490 318 483 296 469 C 274 455 256 438 244 418 L 244 478 L 40 478 L 40 0 Z" unicode="n" />
<glyph horiz-adv-x="568" d="M 284 -16 C 363 -16 426 7 473 54 C 520 101 544 164 544 244 C 544 320 520 380 473 426 C 426 471 363 494 284 494 C 204 494 141 471 94 425 C 47 379 24 318 24 242 C 24 163 47 100 94 54 C 141 7 204 -16 284 -16 Z M 284 157 C 269 157 257 164 248 178 C 238 192 234 212 234 240 C 234 266 238 286 248 300 C 257 314 269 321 284 321 C 298 321 310 314 320 300 C 329 286 334 266 334 240 C 334 212 329 192 320 178 C 310 164 298 157 284 157 Z" unicode="o" />
<glyph horiz-adv-x="560" d="M 40 -188 L 244 -188 L 244 0 C 253 -4 263 -7 275 -9 C 286 -11 297 -12 307 -12 C 375 -12 430 12 472 61 C 514 109 536 173 536 253 C 536 324 522 381 495 425 C 467 468 428 490 377 490 C 343 490 316 482 295 468 C 274 453 257 436 244 417 L 244 478 L 40 478 L 40 -188 Z M 273 152 C 268 152 263 152 258 154 C 252 155 248 157 244 160 L 244 308 C 248 310 253 312 259 314 C 264 315 269 316 274 316 C 290 316 303 309 313 295 C 323 281 328 260 328 234 C 328 205 323 184 313 171 C 303 158 290 152 273 152 Z" unicode="p" />
<glyph horiz-adv-x="564" d="M 320 -188 L 524 -188 L 524 478 L 441 478 L 404 418 C 391 437 372 454 346 468 C 320 482 292 490 264 490 C 194 490 137 466 92 418 C 46 370 24 307 24 229 C 24 155 40 97 74 54 C 107 10 151 -11 205 -11 C 227 -11 248 -6 268 2 C 288 10 305 24 320 42 L 320 -188 Z M 280 158 C 265 158 253 165 245 179 C 236 193 232 212 232 236 C 232 259 236 278 245 292 C 254 306 266 313 282 313 C 288 313 294 312 300 311 C 306 309 312 307 318 305 L 318 169 C 313 165 307 163 300 161 C 293 159 286 158 280 158 Z" unicode="q" />
<glyph horiz-adv-x="419" d="M 40 0 L 244 0 L 244 292 C 254 298 267 303 281 307 C 295 311 308 313 321 313 C 337 313 352 311 365 307 C 378 303 392 298 407 291 L 407 480 C 398 483 389 485 380 487 C 370 489 361 490 352 490 C 332 490 312 483 293 470 C 274 457 258 435 244 403 L 244 478 L 40 478 L 40 0 Z" unicode="r" />
<glyph horiz-adv-x="485" d="M 240 -16 C 314 -16 369 0 406 30 C 442 61 461 101 461 151 C 461 191 449 225 425 253 C 401 281 364 301 313 312 L 265 322 C 259 323 254 326 251 330 C 247 334 246 338 246 343 C 246 349 248 354 254 358 C 260 361 268 363 278 363 C 304 363 329 360 353 354 C 377 348 403 338 431 325 L 431 471 C 398 479 366 484 334 488 C 302 492 269 494 236 494 C 164 494 111 479 76 449 C 41 419 24 379 24 329 C 24 289 35 256 57 230 C 79 203 115 184 163 174 L 211 163 C 219 161 226 158 231 154 C 235 150 238 146 238 141 C 238 134 235 129 229 126 C 223 122 216 121 208 121 C 178 121 148 124 120 132 C 92 139 63 150 35 164 L 35 8 C 69 0 103 -6 137 -10 C 171 -14 205 -16 240 -16 Z" unicode="s" />
<glyph horiz-adv-x="397" d="M 239 -12 C 261 -12 284 -10 306 -6 C 328 -2 350 4 373 13 L 373 183 C 366 177 358 173 350 170 C 342 167 333 166 325 166 C 312 166 302 170 294 179 C 286 187 283 199 283 214 L 283 314 L 365 314 L 365 478 L 283 478 L 283 616 L 79 616 L 79 478 L 24 478 L 24 314 L 79 314 L 79 156 C 79 104 93 63 122 33 C 151 3 190 -12 239 -12 Z" unicode="t" />
<glyph horiz-adv-x="559" d="M 193 -12 C 215 -12 238 -5 262 7 C 285 20 303 38 315 60 L 323 0 L 519 0 L 519 478 L 315 478 L 315 175 C 311 169 306 164 300 162 C 293 159 286 158 279 158 C 268 158 259 161 251 168 C 243 174 240 184 240 196 L 240 478 L 36 478 L 36 146 C 36 98 50 59 79 31 C 108 2 146 -12 193 -12 Z" unicode="u" />
<glyph horiz-adv-x="574" d="M 160 0 L 414 0 L 562 478 L 377 478 L 334 320 L 304 196 L 273 320 L 230 478 L 12 478 L 160 0 Z" unicode="v" />
<glyph horiz-adv-x="907" d="M 156 0 L 377 0 L 410 116 L 443 241 L 477 116 L 511 0 L 732 0 L 895 478 L 714 478 L 665 320 L 630 196 L 594 320 L 546 478 L 360 478 L 316 320 L 287 197 L 260 320 L 220 478 L 12 478 L 156 0 Z" unicode="w" />
<glyph horiz-adv-x="588" d="M 12 0 L 224 0 L 270 73 L 280 94 L 291 73 L 337 0 L 576 0 L 406 246 L 564 478 L 359 478 L 312 400 L 303 381 L 293 400 L 247 478 L 19 478 L 180 242 L 12 0 Z" unicode="x" />
<glyph horiz-adv-x="573" d="M 51 -220 C 149 -220 230 -198 293 -156 C 356 -113 405 -36 439 75 L 561 478 L 372 478 L 334 320 L 301 169 L 269 320 L 231 478 L 12 478 L 165 4 L 203 1 C 187 -17 169 -30 148 -36 C 127 -42 95 -45 51 -45 L 43 -45 L 43 -220 L 51 -220 Z" unicode="y" />
<glyph horiz-adv-x="521" d="M 32 0 L 489 0 L 489 166 L 313 166 L 363 227 L 480 381 L 480 478 L 36 478 L 36 312 L 199 312 L 149 251 L 32 97 L 32 0 Z" unicode="z" />
<glyph horiz-adv-x="485" d="M 386 -220 L 445 -220 L 445 -75 L 429 -75 C 408 -75 391 -68 378 -54 C 365 -40 360 -20 362 6 L 368 87 C 370 125 361 158 341 187 C 320 215 290 235 251 247 L 251 249 C 291 259 321 278 342 306 C 362 334 371 369 369 409 L 363 490 C 361 516 366 536 379 550 C 392 564 409 571 429 571 L 445 571 L 445 716 L 386 716 C 314 716 260 699 224 666 C 188 633 171 590 174 536 L 180 424 C 181 395 171 372 150 356 C 129 339 99 328 60 323 L 60 173 C 99 167 129 156 150 140 C 171 123 181 100 180 72 L 174 -40 C 171 -94 188 -137 224 -170 C 260 -203 314 -220 386 -220 Z" unicode="{" />
<glyph horiz-adv-x="276" d="M 60 -219 L 216 -219 L 216 716 L 60 716 L 60 -219 Z" unicode="|" />
<glyph horiz-adv-x="485" d="M 40 -220 L 99 -220 C 171 -220 225 -203 261 -170 C 297 -137 313 -94 311 -40 L 305 72 C 303 100 313 123 334 140 C 355 156 385 167 425 173 L 425 323 C 385 328 355 339 334 356 C 313 372 303 395 305 424 L 311 536 C 313 590 297 633 261 666 C 225 699 171 716 99 716 L 40 716 L 40 571 L 56 571 C 76 571 92 564 105 550 C 118 536 124 516 122 490 L 116 409 C 113 369 122 334 143 306 C 163 278 194 259 234 249 L 234 247 C 194 235 164 215 144 187 C 123 158 114 125 117 87 L 123 6 C 125 -20 119 -40 106 -54 C 93 -68 76 -75 56 -75 L 40 -75 L 40 -220 Z" unicode="}" />
<glyph horiz-adv-x="384" d="M 122 146 C 122 156 123 164 127 170 C 131 175 136 178 144 178 C 147 178 150 177 154 176 C 158 174 162 172 168 168 C 181 158 193 150 205 146 C 217 142 230 140 244 140 C 284 140 314 153 334 179 C 354 205 364 244 364 295 L 262 295 C 261 284 259 276 255 271 C 251 265 246 263 240 263 C 236 263 232 263 229 265 C 225 266 221 269 216 274 C 204 283 192 290 180 294 C 168 298 155 301 140 301 C 100 301 70 287 50 261 C 30 235 20 196 20 146 L 122 146 Z" unicode="~" />
<glyph horiz-adv-x="301" d="M 52 360 L 248 360 L 248 524 L 52 524 L 52 360 Z M 53 -194 L 249 -194 L 249 300 L 53 300 L 53 -194 Z" unicode="¡" />
<glyph horiz-adv-x="447" d="M 198 -94 L 354 -94 L 354 -2 C 364 0 374 3 384 7 C 394 11 404 15 415 20 L 415 192 C 398 181 381 173 365 168 C 349 162 333 160 317 160 C 292 160 272 167 257 181 C 241 195 234 213 234 237 C 234 260 241 278 255 292 C 269 306 287 313 311 313 C 326 313 342 310 359 306 C 376 302 393 296 411 288 L 411 460 C 401 463 392 466 382 469 C 372 472 363 475 354 477 L 354 570 L 198 570 L 198 475 C 144 461 101 432 70 390 C 39 347 24 294 24 231 C 24 171 39 120 70 80 C 101 39 144 12 198 -2 L 198 -94 Z" unicode="¢" />
<glyph horiz-adv-x="592" d="M 56 0 L 540 0 L 540 189 L 297 189 C 301 200 305 212 307 224 C 309 236 311 249 312 262 L 393 262 L 393 419 L 289 419 C 289 445 298 464 314 477 C 330 489 352 496 381 496 C 410 496 438 491 464 483 C 490 475 515 462 540 446 L 540 633 C 511 647 482 657 454 664 C 425 670 395 674 365 674 C 268 674 199 651 158 605 C 116 559 100 497 109 419 L 52 419 L 52 262 L 131 262 C 130 233 123 208 110 187 C 96 165 78 148 56 136 L 56 0 Z" unicode="£" />
<glyph horiz-adv-x="779" d="M 196 -2 L 318 120 C 329 116 341 114 353 112 C 365 110 377 110 390 110 C 402 110 414 110 426 112 C 438 114 449 116 460 120 L 583 -3 L 720 134 L 603 251 C 607 263 611 277 613 291 C 615 305 617 319 617 335 C 617 348 616 361 614 373 C 612 385 609 397 607 409 L 727 529 L 590 666 L 474 550 C 505 538 532 520 556 496 C 579 472 596 443 607 409 L 556 358 L 419 495 L 474 550 C 461 554 447 558 433 560 C 419 562 404 564 390 564 C 375 564 360 562 346 560 C 332 557 318 553 306 549 L 360 495 L 223 358 L 173 408 C 183 442 199 471 223 495 C 247 519 274 537 306 549 L 189 666 L 52 529 L 173 408 C 170 397 168 385 166 373 C 164 360 163 347 163 335 C 163 320 164 306 166 292 C 168 278 172 265 176 253 L 59 136 L 196 -2 Z M 390 256 C 366 256 346 263 332 279 C 318 294 311 313 311 335 C 311 357 318 375 332 391 C 346 406 366 414 390 414 C 414 414 433 406 447 391 C 461 375 469 357 469 335 C 469 313 461 294 447 279 C 433 263 414 256 390 256 Z" unicode="¤" />
<glyph horiz-adv-x="725" d="M 132 93 L 262 93 L 262 0 L 474 0 L 474 93 L 604 93 L 604 193 L 474 193 L 474 220 L 482 236 L 604 236 L 604 336 L 535 336 L 705 658 L 488 658 L 410 485 L 379 413 L 348 485 L 270 658 L 24 658 L 196 336 L 132 336 L 132 236 L 250 236 L 262 213 L 262 193 L 132 193 L 132 93 Z" unicode="¥" />
<glyph horiz-adv-x="276" d="M 60 309 L 216 309 L 216 716 L 60 716 L 60 309 Z M 60 -220 L 216 -220 L 216 187 L 60 187 L 60 -220 Z" unicode="¦" />
<glyph horiz-adv-x="530" d="M 257 -12 C 331 -12 386 2 423 31 C 459 60 478 99 478 149 C 478 173 473 194 465 214 C 456 234 443 251 427 265 C 443 275 455 290 464 308 C 473 326 478 348 478 373 C 478 407 467 436 446 462 C 424 488 388 506 337 518 L 293 529 C 287 530 282 532 279 536 C 275 539 274 543 274 548 C 274 554 276 558 282 561 C 288 564 296 566 306 566 C 332 566 359 563 387 559 C 414 554 441 547 467 538 L 467 671 C 434 679 402 686 370 690 C 338 694 305 696 272 696 C 200 696 147 681 112 651 C 77 621 60 581 60 531 C 60 506 64 484 72 466 C 80 447 93 431 110 419 C 95 407 83 392 75 374 C 66 356 62 335 62 311 C 62 281 71 253 90 227 C 109 201 143 183 191 173 L 236 163 C 244 162 251 160 256 156 C 260 152 263 147 263 141 C 263 135 260 131 254 128 C 248 124 241 123 233 123 C 203 123 172 126 141 132 C 110 138 80 147 52 160 L 52 13 C 86 5 120 -1 154 -5 C 188 -9 222 -12 257 -12 Z M 268 310 C 255 311 246 316 240 325 C 234 333 231 342 231 350 C 231 356 232 361 234 367 C 236 373 238 378 241 383 L 261 380 C 275 378 286 373 294 367 C 302 360 306 352 306 342 C 306 335 304 329 301 323 C 298 317 294 312 290 308 L 268 310 Z" unicode="§" />
<glyph horiz-adv-x="250" d="M -40 524 L 100 524 L 100 664 L -40 664 L -40 524 Z M 150 524 L 290 524 L 290 664 L 150 664 L 150 524 Z" unicode="¨" />
<glyph horiz-adv-x="704" d="M 352 88 C 449 88 527 119 585 181 C 643 243 672 318 672 406 C 672 493 643 568 585 630 C 527 692 449 724 352 724 C 254 724 177 692 119 630 C 61 568 32 493 32 406 C 32 318 61 243 119 181 C 177 119 254 88 352 88 Z M 352 186 C 284 186 231 205 191 245 C 151 285 132 338 132 406 C 132 473 151 526 191 566 C 231 606 284 626 352 626 C 419 626 472 606 512 566 C 552 526 572 473 572 406 C 572 338 552 285 512 245 C 472 205 419 186 352 186 Z M 362 235 C 380 235 398 237 416 242 C 433 246 450 253 467 262 L 467 372 C 452 362 437 354 421 349 C 405 344 387 342 369 342 C 348 342 331 347 319 359 C 307 371 301 387 301 407 C 301 426 307 441 319 453 C 331 465 348 471 369 471 C 386 471 402 468 418 464 C 434 459 449 452 463 443 L 463 553 C 447 561 430 568 413 572 C 395 576 377 579 359 579 C 306 579 264 563 233 532 C 201 501 186 459 186 407 C 186 354 201 312 233 281 C 265 250 308 235 362 235 Z" unicode="©" />
<glyph horiz-adv-x="462" d="M 164 368 C 186 368 204 372 218 380 C 232 388 244 400 256 418 L 266 376 L 403 376 L 403 617 C 403 655 387 686 356 710 C 324 733 282 745 229 745 C 201 745 174 743 148 739 C 122 735 95 729 69 722 L 69 608 C 86 618 104 626 122 632 C 140 637 159 640 179 640 C 206 640 225 637 237 631 C 249 625 255 617 255 606 L 255 597 L 199 590 C 149 584 112 570 86 550 C 60 530 48 504 49 473 C 49 441 59 416 77 397 C 95 377 124 368 164 368 Z M 227 466 C 218 466 211 468 206 473 C 201 477 199 483 199 490 C 199 497 201 503 207 507 C 212 511 219 514 229 516 L 255 520 L 255 475 C 250 472 245 470 241 468 C 236 466 231 466 227 466 Z M 64 208 L 411 208 L 411 321 L 64 321 L 64 208 Z" unicode="ª" />
<glyph horiz-adv-x="699" d="M 187 55 L 379 55 L 233 226 L 379 398 L 187 398 L 40 226 L 187 55 Z M 467 55 L 659 55 L 513 226 L 659 398 L 467 398 L 320 226 L 467 55 Z" unicode="«" />
<glyph horiz-adv-x="502" d="M 318 103 L 450 103 L 450 338 L 52 338 L 52 206 L 318 206 L 318 103 Z" unicode="¬" />
<glyph horiz-adv-x="360" d="M 40 163 L 320 163 L 320 311 L 40 311 L 40 163 Z" unicode="­" />
<glyph horiz-adv-x="704" d="M 352 89 C 449 89 527 120 585 182 C 643 244 672 319 672 407 C 672 494 643 569 585 631 C 527 693 449 725 352 725 C 254 725 177 693 119 631 C 61 569 32 494 32 407 C 32 319 61 244 119 182 C 177 120 254 89 352 89 Z M 229 248 L 331 248 L 331 366 L 345 366 C 353 366 360 362 365 355 C 369 348 374 338 379 326 L 409 248 L 514 248 C 495 228 472 213 444 203 C 416 192 386 187 352 187 C 284 187 231 206 191 246 C 151 286 132 339 132 407 C 132 474 151 527 191 567 C 231 607 284 627 352 627 C 419 627 472 607 512 567 C 552 527 572 474 572 407 C 572 374 567 344 557 317 C 547 290 533 267 515 249 L 471 365 C 466 377 458 386 447 394 C 436 401 423 406 408 408 C 430 412 447 422 459 437 C 471 451 477 470 477 492 C 477 516 467 536 447 551 C 427 565 401 573 367 573 L 229 573 L 229 248 Z M 331 442 L 331 500 L 347 500 C 357 500 365 497 371 493 C 377 488 380 481 380 471 C 380 462 377 455 371 450 C 365 444 357 442 347 442 L 331 442 Z" unicode="®" />
<glyph horiz-adv-x="250" d="M 0 532 L 250 532 L 250 647 L 0 647 L 0 532 Z" unicode="¯" />
<glyph horiz-adv-x="378" d="M 189 435 C 237 435 275 449 303 479 C 331 509 346 545 346 587 C 346 629 331 665 303 695 C 275 725 237 740 189 740 C 141 740 102 725 74 695 C 46 665 32 629 32 587 C 32 545 46 509 74 479 C 102 449 141 435 189 435 Z M 189 542 C 176 542 165 546 157 554 C 148 562 144 573 144 587 C 144 601 148 612 157 620 C 165 628 176 633 189 633 C 201 633 212 628 221 620 C 229 612 234 601 234 587 C 234 573 229 562 221 554 C 212 546 201 542 189 542 Z" unicode="°" />
<glyph horiz-adv-x="544" d="M 198 66 L 346 66 L 346 213 L 488 213 L 488 361 L 346 361 L 346 508 L 198 508 L 198 361 L 56 361 L 56 213 L 198 213 L 198 66 Z M 56 -134 L 487 -134 L 487 14 L 56 14 L 56 -134 Z" unicode="±" />
<glyph horiz-adv-x="343" d="M 24 440 L 312 440 L 312 549 L 175 549 C 225 563 260 582 282 604 C 304 626 315 653 315 687 C 315 721 302 749 277 773 C 252 797 214 809 163 809 C 139 809 117 806 95 802 C 73 798 51 792 29 786 L 29 667 C 43 676 59 683 76 688 C 92 692 109 695 126 695 C 142 695 153 692 161 686 C 169 680 173 671 173 659 C 173 643 162 629 142 615 C 121 601 82 588 24 577 L 24 440 Z" unicode="²" />
<glyph horiz-adv-x="343" d="M 168 432 C 218 432 255 441 279 460 C 303 478 315 504 315 537 C 315 557 307 575 293 591 C 279 607 257 617 228 623 C 254 628 274 639 287 655 C 300 671 307 690 307 713 C 307 741 295 764 271 782 C 247 799 212 808 164 808 C 140 808 118 806 96 804 C 74 802 52 798 32 794 L 32 678 C 47 685 62 690 78 694 C 93 697 109 699 126 699 C 134 699 140 697 146 694 C 151 690 154 685 154 679 C 154 672 150 667 142 664 C 134 660 124 659 110 659 L 89 659 L 89 583 L 116 583 C 129 583 140 581 149 578 C 157 574 162 569 162 561 C 162 554 158 549 152 546 C 145 542 136 541 126 541 C 108 541 90 542 74 546 C 57 550 40 556 24 564 L 24 446 C 47 441 70 437 94 435 C 118 433 142 432 168 432 Z" unicode="³" />
<glyph horiz-adv-x="247" d="M 200 524 L 327 682 L 146 682 L 44 524 L 200 524 Z" unicode="´" />
<glyph horiz-adv-x="560" d="M 151 0 L 287 0 L 287 542 L 352 542 L 352 0 L 488 0 L 488 658 L 160 658 C 122 658 89 644 61 618 C 33 591 20 559 20 523 C 20 487 32 455 58 429 C 84 403 115 390 151 390 L 151 0 Z" unicode="¶" />
<glyph horiz-adv-x="248" d="M 52 194 L 192 194 L 192 334 L 52 334 L 52 194 Z" unicode="·" />
<glyph horiz-adv-x="256" d="M 137 -249 C 171 -249 198 -240 220 -222 C 241 -204 252 -179 252 -145 C 252 -111 239 -85 214 -67 C 188 -49 156 -40 116 -40 L 104 -40 L 104 -115 L 112 -115 C 120 -115 127 -117 133 -122 C 139 -126 142 -132 142 -139 C 142 -146 139 -152 134 -157 C 128 -161 121 -164 113 -164 C 104 -164 95 -162 86 -160 C 77 -157 68 -153 60 -149 L 60 -238 C 72 -242 84 -244 96 -246 C 108 -248 121 -249 137 -249 Z" unicode="¸" />
<glyph horiz-adv-x="320" d="M 24 440 L 292 440 L 292 550 L 235 550 L 235 804 L 24 786 L 24 675 L 81 679 L 81 550 L 24 550 L 24 440 Z" unicode="¹" />
<glyph horiz-adv-x="491" d="M 246 362 C 305 362 352 379 387 414 C 421 449 439 496 439 555 C 439 611 421 657 387 691 C 352 725 305 742 246 742 C 186 742 139 725 104 691 C 69 657 52 611 52 554 C 52 495 69 448 104 414 C 139 379 186 362 246 362 Z M 246 494 C 233 494 223 499 215 510 C 207 520 204 534 204 552 C 204 570 207 584 215 594 C 223 604 233 610 246 610 C 258 610 268 604 276 594 C 283 584 287 570 287 552 C 287 534 283 520 276 510 C 268 499 258 494 246 494 Z M 64 208 L 436 208 L 436 321 L 64 321 L 64 208 Z" unicode="º" />
<glyph horiz-adv-x="699" d="M 40 55 L 232 55 L 379 226 L 232 398 L 40 398 L 186 226 L 40 55 Z M 320 55 L 512 55 L 659 226 L 512 398 L 320 398 L 466 226 L 320 55 Z" unicode="»" />
<glyph horiz-adv-x="813" d="M 24 360 L 292 360 L 292 470 L 235 470 L 235 724 L 24 706 L 24 595 L 81 599 L 81 470 L 24 470 L 24 360 Z M 186 0 L 330 0 L 654 716 L 510 716 L 186 0 Z M 619 0 L 751 0 L 751 58 L 789 58 L 789 153 L 751 153 L 751 360 L 585 360 L 472 168 L 472 59 L 619 59 L 619 0 Z M 619 153 L 562 153 L 619 244 L 619 153 Z" unicode="¼" />
<glyph horiz-adv-x="840" d="M 24 360 L 292 360 L 292 470 L 235 470 L 235 724 L 24 706 L 24 595 L 81 599 L 81 470 L 24 470 L 24 360 Z M 178 0 L 322 0 L 646 716 L 502 716 L 178 0 Z M 521 1 L 809 1 L 809 110 L 672 110 C 722 124 757 143 779 165 C 801 187 812 214 812 248 C 812 282 799 310 774 334 C 749 358 711 370 660 370 C 636 370 614 367 592 363 C 570 359 548 353 526 347 L 526 228 C 540 237 556 244 573 249 C 589 253 606 256 623 256 C 639 256 650 253 658 247 C 666 241 670 232 670 220 C 670 204 659 190 639 176 C 618 162 579 149 521 138 L 521 1 Z" unicode="½" />
<glyph horiz-adv-x="795" d="M 168 352 C 218 352 255 361 279 380 C 303 398 315 424 315 457 C 315 477 307 495 293 511 C 279 527 257 537 228 543 C 254 548 274 559 287 575 C 300 591 307 610 307 633 C 307 661 295 684 271 702 C 247 719 212 728 164 728 C 140 728 118 726 96 724 C 74 722 52 718 32 714 L 32 598 C 47 605 62 610 78 614 C 93 617 109 619 126 619 C 134 619 140 617 146 614 C 151 610 154 605 154 599 C 154 592 150 587 142 584 C 134 580 124 579 110 579 L 89 579 L 89 503 L 116 503 C 129 503 140 501 149 498 C 157 494 162 489 162 481 C 162 474 158 469 152 466 C 145 462 136 461 126 461 C 108 461 90 462 74 466 C 57 470 40 476 24 484 L 24 366 C 47 361 70 357 94 355 C 118 353 142 352 168 352 Z M 174 0 L 318 0 L 642 716 L 498 716 L 174 0 Z M 601 0 L 733 0 L 733 58 L 771 58 L 771 153 L 733 153 L 733 360 L 567 360 L 454 168 L 454 59 L 601 59 L 601 0 Z M 601 153 L 544 153 L 601 244 L 601 153 Z" unicode="¾" />
<glyph horiz-adv-x="470" d="M 165 360 L 361 360 L 361 524 L 165 524 L 165 360 Z M 234 -175 C 278 -175 316 -172 348 -167 C 380 -162 414 -154 450 -142 L 450 23 C 425 12 402 4 381 0 C 360 -5 336 -8 310 -8 C 287 -8 269 -2 255 7 C 241 17 235 31 235 48 C 235 61 238 74 245 87 C 251 100 263 113 279 126 C 294 138 310 159 328 188 C 345 216 354 254 354 300 L 174 300 C 174 273 166 248 151 225 C 136 201 119 181 99 165 C 76 146 57 123 42 95 C 27 67 20 32 20 -8 C 20 -66 42 -108 88 -135 C 133 -161 182 -175 234 -175 Z" unicode="¿" />
<glyph horiz-adv-x="756" d="M 309 706 L 450 706 L 358 848 L 195 848 L 309 706 Z M 12 0 L 210 0 L 246 96 L 479 96 L 515 0 L 744 0 L 482 658 L 275 658 L 12 0 Z M 297 232 L 320 294 L 363 418 L 405 294 L 428 232 L 297 232 Z" unicode="À" />
<glyph horiz-adv-x="756" d="M 448 706 L 562 848 L 399 848 L 307 706 L 448 706 Z M 12 0 L 210 0 L 246 96 L 479 96 L 515 0 L 744 0 L 482 658 L 275 658 L 12 0 Z M 297 232 L 320 294 L 363 418 L 405 294 L 428 232 L 297 232 Z" unicode="Á" />
<glyph horiz-adv-x="756" d="M 343 706 L 376 771 L 410 706 L 533 706 L 448 862 L 312 862 L 227 706 L 343 706 Z M 12 0 L 210 0 L 246 96 L 479 96 L 515 0 L 744 0 L 482 658 L 275 658 L 12 0 Z M 297 232 L 320 294 L 363 418 L 405 294 L 428 232 L 297 232 Z" unicode="Â" />
<glyph horiz-adv-x="756" d="M 315 706 C 315 715 316 722 320 727 C 323 732 328 735 335 735 C 337 735 340 734 344 733 C 347 731 351 729 356 726 C 368 717 380 711 390 707 C 400 703 412 701 425 701 C 461 701 488 712 506 736 C 524 760 533 795 533 841 L 441 841 C 440 831 438 824 435 819 C 431 814 427 812 421 812 C 417 812 414 812 411 814 C 408 815 404 818 400 822 C 389 830 378 836 368 840 C 357 844 345 846 331 846 C 295 846 268 834 250 810 C 232 786 223 752 223 706 L 315 706 Z M 12 0 L 210 0 L 246 96 L 479 96 L 515 0 L 744 0 L 482 658 L 275 658 L 12 0 Z M 297 232 L 320 294 L 363 418 L 405 294 L 428 232 L 297 232 Z" unicode="Ã" />
<glyph horiz-adv-x="756" d="M 231 706 L 357 706 L 357 832 L 231 832 L 231 706 Z M 403 706 L 529 706 L 529 832 L 403 832 L 403 706 Z M 12 0 L 210 0 L 246 96 L 479 96 L 515 0 L 744 0 L 482 658 L 275 658 L 12 0 Z M 297 232 L 320 294 L 363 418 L 405 294 L 428 232 L 297 232 Z" unicode="Ä" />
<glyph horiz-adv-x="756" d="M 12 0 L 210 0 L 246 96 L 479 96 L 515 0 L 744 0 L 491 635 C 495 644 499 654 502 665 C 505 676 507 688 507 700 C 507 735 495 765 471 789 C 447 813 416 826 377 826 C 337 826 306 813 282 789 C 258 765 247 735 247 700 C 247 687 248 675 251 664 C 254 652 259 642 265 632 L 12 0 Z M 377 658 C 365 658 356 661 348 669 C 340 676 336 686 336 699 C 336 711 340 721 348 728 C 356 735 365 739 377 739 C 388 739 398 735 406 728 C 414 721 418 711 418 699 C 418 686 414 676 406 669 C 398 661 388 658 377 658 Z M 297 232 L 320 294 L 363 418 L 405 294 L 428 232 L 297 232 Z" unicode="Å" />
<glyph horiz-adv-x="961" d="M 12 0 L 225 0 L 293 126 L 481 126 L 481 0 L 917 0 L 917 188 L 693 188 L 693 248 L 889 248 L 889 410 L 693 410 L 693 470 L 906 470 L 906 658 L 369 658 L 12 0 Z M 376 279 L 424 368 L 481 477 L 481 279 L 376 279 Z" unicode="Æ" />
<glyph horiz-adv-x="642" d="M 408 -12 C 442 -12 474 -8 505 0 C 536 7 567 18 598 33 L 598 224 C 569 207 540 194 510 186 C 480 178 450 174 420 174 C 372 174 334 187 306 215 C 278 243 264 281 264 330 C 264 378 278 415 306 443 C 334 470 372 484 420 484 C 449 484 478 480 506 472 C 534 464 563 452 591 436 L 591 629 C 562 642 532 652 502 659 C 472 666 440 670 408 670 C 297 670 208 639 141 578 C 73 517 40 434 40 330 C 40 225 73 142 141 80 C 208 18 297 -12 408 -12 Z M 413 -242 C 445 -242 471 -233 491 -217 C 511 -201 521 -176 521 -144 C 521 -111 509 -86 485 -70 C 461 -54 430 -46 393 -46 L 382 -46 L 382 -116 L 389 -116 C 397 -116 404 -118 409 -122 C 414 -126 417 -132 417 -139 C 417 -145 414 -151 410 -156 C 405 -160 398 -163 390 -163 C 382 -163 374 -161 366 -158 C 358 -155 349 -152 341 -148 L 341 -232 C 352 -235 363 -237 374 -239 C 385 -241 398 -242 413 -242 Z" unicode="Ç" />
<glyph horiz-adv-x="540" d="M 208 706 L 349 706 L 257 848 L 94 848 L 208 706 Z M 60 0 L 496 0 L 496 183 L 272 183 L 272 255 L 468 255 L 468 405 L 272 405 L 272 474 L 485 474 L 485 658 L 60 658 L 60 0 Z" unicode="È" />
<glyph horiz-adv-x="540" d="M 347 706 L 461 848 L 298 848 L 206 706 L 347 706 Z M 60 0 L 496 0 L 496 183 L 272 183 L 272 255 L 468 255 L 468 405 L 272 405 L 272 474 L 485 474 L 485 658 L 60 658 L 60 0 Z" unicode="É" />
<glyph horiz-adv-x="540" d="M 242 706 L 275 771 L 309 706 L 432 706 L 347 862 L 211 862 L 126 706 L 242 706 Z M 60 0 L 496 0 L 496 183 L 272 183 L 272 255 L 468 255 L 468 405 L 272 405 L 272 474 L 485 474 L 485 658 L 60 658 L 60 0 Z" unicode="Ê" />
<glyph horiz-adv-x="540" d="M 130 706 L 256 706 L 256 832 L 130 832 L 130 706 Z M 302 706 L 428 706 L 428 832 L 302 832 L 302 706 Z M 60 0 L 496 0 L 496 183 L 272 183 L 272 255 L 468 255 L 468 405 L 272 405 L 272 474 L 485 474 L 485 658 L 60 658 L 60 0 Z" unicode="Ë" />
<glyph horiz-adv-x="332" d="M 99 706 L 240 706 L 148 848 L -15 848 L 99 706 Z M 60 0 L 272 0 L 272 658 L 60 658 L 60 0 Z" unicode="Ì" />
<glyph horiz-adv-x="332" d="M 238 706 L 352 848 L 189 848 L 97 706 L 238 706 Z M 60 0 L 272 0 L 272 658 L 60 658 L 60 0 Z" unicode="Í" />
<glyph horiz-adv-x="332" d="M 133 706 L 166 771 L 200 706 L 323 706 L 238 862 L 102 862 L 17 706 L 133 706 Z M 60 0 L 272 0 L 272 658 L 60 658 L 60 0 Z" unicode="Î" />
<glyph horiz-adv-x="332" d="M 21 706 L 147 706 L 147 832 L 21 832 L 21 706 Z M 193 706 L 319 706 L 319 832 L 193 832 L 193 706 Z M 60 0 L 272 0 L 272 658 L 60 658 L 60 0 Z" unicode="Ï" />
<glyph horiz-adv-x="723" d="M 64 0 L 313 0 C 428 0 518 30 584 91 C 650 152 683 234 683 337 C 683 435 649 513 582 571 C 515 629 425 658 313 658 L 64 658 L 64 410 L 20 410 L 20 254 L 64 254 L 64 0 Z M 276 186 L 276 254 L 339 254 L 339 410 L 276 410 L 276 472 L 308 472 C 356 472 394 459 422 435 C 449 411 463 378 463 337 C 463 291 449 254 422 227 C 394 199 356 186 308 186 L 276 186 Z" unicode="Ð" />
<glyph horiz-adv-x="776" d="M 324 706 C 324 715 325 722 329 727 C 332 732 337 735 344 735 C 346 735 349 734 353 733 C 356 731 360 729 365 726 C 377 717 389 711 399 707 C 409 703 421 701 434 701 C 470 701 497 712 515 736 C 533 760 542 795 542 841 L 450 841 C 449 831 447 824 444 819 C 440 814 436 812 430 812 C 426 812 423 812 420 814 C 417 815 413 818 409 822 C 398 830 387 836 377 840 C 366 844 354 846 340 846 C 304 846 277 834 259 810 C 241 786 232 752 232 706 L 324 706 Z M 60 0 L 248 0 L 248 286 L 244 376 L 294 286 L 473 0 L 716 0 L 716 658 L 528 658 L 528 372 L 532 286 L 484 372 L 309 658 L 60 658 L 60 0 Z" unicode="Ñ" />
<glyph horiz-adv-x="799" d="M 331 716 L 472 716 L 380 858 L 217 858 L 331 716 Z M 400 -18 C 509 -18 596 13 661 76 C 726 138 759 223 759 329 C 759 435 726 520 661 582 C 596 644 509 676 400 676 C 290 676 202 644 137 582 C 72 520 40 435 40 329 C 40 223 72 138 137 76 C 202 13 290 -18 400 -18 Z M 400 167 C 357 167 323 181 298 210 C 272 239 260 279 260 329 C 260 379 272 418 298 447 C 323 476 357 491 400 491 C 442 491 475 476 501 447 C 526 418 539 379 539 329 C 539 279 526 239 501 210 C 475 181 442 167 400 167 Z" unicode="Ò" />
<glyph horiz-adv-x="799" d="M 470 716 L 584 858 L 421 858 L 329 716 L 470 716 Z M 400 -18 C 509 -18 596 13 661 76 C 726 138 759 223 759 329 C 759 435 726 520 661 582 C 596 644 509 676 400 676 C 290 676 202 644 137 582 C 72 520 40 435 40 329 C 40 223 72 138 137 76 C 202 13 290 -18 400 -18 Z M 400 167 C 357 167 323 181 298 210 C 272 239 260 279 260 329 C 260 379 272 418 298 447 C 323 476 357 491 400 491 C 442 491 475 476 501 447 C 526 418 539 379 539 329 C 539 279 526 239 501 210 C 475 181 442 167 400 167 Z" unicode="Ó" />
<glyph horiz-adv-x="799" d="M 365 716 L 398 781 L 432 716 L 555 716 L 470 872 L 334 872 L 249 716 L 365 716 Z M 400 -18 C 509 -18 596 13 661 76 C 726 138 759 223 759 329 C 759 435 726 520 661 582 C 596 644 509 676 400 676 C 290 676 202 644 137 582 C 72 520 40 435 40 329 C 40 223 72 138 137 76 C 202 13 290 -18 400 -18 Z M 400 167 C 357 167 323 181 298 210 C 272 239 260 279 260 329 C 260 379 272 418 298 447 C 323 476 357 491 400 491 C 442 491 475 476 501 447 C 526 418 539 379 539 329 C 539 279 526 239 501 210 C 475 181 442 167 400 167 Z" unicode="Ô" />
<glyph horiz-adv-x="799" d="M 337 716 C 337 725 338 732 342 737 C 345 742 350 745 357 745 C 359 745 362 744 366 743 C 369 741 373 739 378 736 C 390 727 402 721 412 717 C 422 713 434 711 447 711 C 483 711 510 722 528 746 C 546 770 555 805 555 851 L 463 851 C 462 841 460 834 457 829 C 453 824 449 822 443 822 C 439 822 436 822 433 824 C 430 825 426 828 422 832 C 411 840 400 846 390 850 C 379 854 367 856 353 856 C 317 856 290 844 272 820 C 254 796 245 762 245 716 L 337 716 Z M 400 -18 C 509 -18 596 13 661 76 C 726 138 759 223 759 329 C 759 435 726 520 661 582 C 596 644 509 676 400 676 C 290 676 202 644 137 582 C 72 520 40 435 40 329 C 40 223 72 138 137 76 C 202 13 290 -18 400 -18 Z M 400 167 C 357 167 323 181 298 210 C 272 239 260 279 260 329 C 260 379 272 418 298 447 C 323 476 357 491 400 491 C 442 491 475 476 501 447 C 526 418 539 379 539 329 C 539 279 526 239 501 210 C 475 181 442 167 400 167 Z" unicode="Õ" />
<glyph horiz-adv-x="799" d="M 253 716 L 379 716 L 379 842 L 253 842 L 253 716 Z M 425 716 L 551 716 L 551 842 L 425 842 L 425 716 Z M 400 -18 C 509 -18 596 13 661 76 C 726 138 759 223 759 329 C 759 435 726 520 661 582 C 596 644 509 676 400 676 C 290 676 202 644 137 582 C 72 520 40 435 40 329 C 40 223 72 138 137 76 C 202 13 290 -18 400 -18 Z M 400 167 C 357 167 323 181 298 210 C 272 239 260 279 260 329 C 260 379 272 418 298 447 C 323 476 357 491 400 491 C 442 491 475 476 501 447 C 526 418 539 379 539 329 C 539 279 526 239 501 210 C 475 181 442 167 400 167 Z" unicode="Ö" />
<glyph horiz-adv-x="522" d="M 153 74 L 261 182 L 373 70 L 478 175 L 366 287 L 474 395 L 369 500 L 261 392 L 149 504 L 44 399 L 156 287 L 48 179 L 153 74 Z" unicode="×" />
<glyph horiz-adv-x="799" d="M 80 -47 L 258 -47 L 285 -4 C 302 -8 320 -12 340 -14 C 359 -16 379 -18 400 -18 C 509 -18 596 13 661 76 C 726 138 759 223 759 329 C 759 385 749 435 731 480 C 712 524 686 562 652 592 L 722 706 L 544 706 L 517 662 C 499 666 480 670 460 672 C 440 674 420 676 400 676 C 290 676 202 644 137 582 C 72 520 40 435 40 329 C 40 273 49 222 68 177 C 87 132 114 95 149 65 L 80 -47 Z M 400 167 C 357 167 323 181 298 210 C 272 239 260 279 260 329 C 260 379 272 418 298 447 C 323 476 357 491 400 491 C 442 491 475 476 501 447 C 526 418 539 379 539 329 C 539 279 526 239 501 210 C 475 181 442 167 400 167 Z" unicode="Ø" />
<glyph horiz-adv-x="713" d="M 298 706 L 439 706 L 347 848 L 184 848 L 298 706 Z M 361 -12 C 447 -12 518 13 574 65 C 629 116 657 183 657 267 L 657 658 L 453 658 L 453 283 C 453 257 445 235 429 218 C 413 200 392 192 366 192 C 339 192 318 200 303 218 C 287 235 280 257 280 283 L 280 658 L 56 658 L 56 267 C 56 183 84 116 141 65 C 198 13 271 -12 361 -12 Z" unicode="Ù" />
<glyph horiz-adv-x="713" d="M 437 706 L 551 848 L 388 848 L 296 706 L 437 706 Z M 361 -12 C 447 -12 518 13 574 65 C 629 116 657 183 657 267 L 657 658 L 453 658 L 453 283 C 453 257 445 235 429 218 C 413 200 392 192 366 192 C 339 192 318 200 303 218 C 287 235 280 257 280 283 L 280 658 L 56 658 L 56 267 C 56 183 84 116 141 65 C 198 13 271 -12 361 -12 Z" unicode="Ú" />
<glyph horiz-adv-x="713" d="M 332 706 L 365 771 L 399 706 L 522 706 L 437 862 L 301 862 L 216 706 L 332 706 Z M 361 -12 C 447 -12 518 13 574 65 C 629 116 657 183 657 267 L 657 658 L 453 658 L 453 283 C 453 257 445 235 429 218 C 413 200 392 192 366 192 C 339 192 318 200 303 218 C 287 235 280 257 280 283 L 280 658 L 56 658 L 56 267 C 56 183 84 116 141 65 C 198 13 271 -12 361 -12 Z" unicode="Û" />
<glyph horiz-adv-x="713" d="M 220 706 L 346 706 L 346 832 L 220 832 L 220 706 Z M 392 706 L 518 706 L 518 832 L 392 832 L 392 706 Z M 361 -12 C 447 -12 518 13 574 65 C 629 116 657 183 657 267 L 657 658 L 453 658 L 453 283 C 453 257 445 235 429 218 C 413 200 392 192 366 192 C 339 192 318 200 303 218 C 287 235 280 257 280 283 L 280 658 L 56 658 L 56 267 C 56 183 84 116 141 65 C 198 13 271 -12 361 -12 Z" unicode="Ü" />
<glyph horiz-adv-x="705" d="M 435 706 L 549 848 L 386 848 L 294 706 L 435 706 Z M 250 0 L 462 0 L 462 220 L 693 658 L 476 658 L 398 485 L 367 413 L 336 485 L 258 658 L 12 658 L 250 213 L 250 0 Z" unicode="Ý" />
<glyph horiz-adv-x="596" d="M 60 0 L 272 0 L 272 90 L 319 90 C 397 90 460 114 506 163 C 552 211 576 269 576 337 C 576 401 552 456 506 502 C 460 548 397 572 319 572 L 272 572 L 272 658 L 60 658 L 60 0 Z M 272 270 L 272 392 L 293 392 C 312 392 329 386 343 376 C 357 365 364 351 364 333 C 364 313 357 298 343 287 C 329 275 313 270 294 270 L 272 270 Z" unicode="Þ" />
<glyph horiz-adv-x="703" d="M 44 0 L 236 0 L 236 407 C 236 458 249 499 275 530 C 301 560 336 576 382 576 C 423 576 453 567 473 550 C 492 533 500 509 497 479 C 487 481 477 482 467 484 C 457 485 448 486 441 486 C 387 486 344 471 314 442 C 283 412 268 373 268 324 C 268 285 279 252 301 224 C 323 196 356 178 401 169 L 425 164 C 442 160 454 156 460 152 C 466 147 469 142 469 137 C 469 131 466 126 461 123 C 456 120 449 119 441 119 C 412 119 384 122 358 128 C 331 134 304 144 278 156 L 278 12 C 310 4 342 -2 374 -6 C 406 -10 438 -12 471 -12 C 540 -12 592 3 627 35 C 661 66 679 106 679 154 C 679 194 667 227 644 255 C 621 283 585 302 536 312 L 507 318 C 497 320 490 323 485 327 C 479 331 477 336 477 343 C 477 351 481 356 489 360 C 497 364 509 366 524 366 C 542 366 561 364 581 361 C 601 357 621 353 642 349 C 646 370 648 390 650 408 C 652 426 653 443 653 459 C 653 552 627 621 577 667 C 527 713 457 736 368 736 C 272 736 194 709 134 657 C 74 604 44 522 44 410 L 44 0 Z" unicode="ß" />
<glyph horiz-adv-x="535" d="M 191 532 L 347 532 L 245 690 L 64 690 L 191 532 Z M 171 -12 C 200 -12 225 -6 245 4 C 265 15 282 32 296 55 L 306 0 L 499 0 L 499 324 C 499 376 477 418 433 448 C 389 478 331 493 259 493 C 217 493 180 490 148 484 C 116 478 84 470 52 460 L 52 311 C 76 325 101 336 127 344 C 152 351 178 355 206 355 C 236 355 258 351 273 344 C 287 337 295 326 295 312 L 295 298 L 216 285 C 156 275 109 258 75 234 C 41 210 24 174 24 124 C 24 86 37 54 65 28 C 93 1 128 -12 171 -12 Z M 263 127 C 253 127 245 130 239 137 C 232 143 229 152 229 163 C 229 175 232 184 239 191 C 245 198 253 202 262 204 L 295 209 L 295 145 C 292 139 287 135 281 132 C 275 128 269 127 263 127 Z" unicode="à" />
<glyph horiz-adv-x="535" d="M 344 532 L 471 690 L 290 690 L 188 532 L 344 532 Z M 171 -12 C 200 -12 225 -6 245 4 C 265 15 282 32 296 55 L 306 0 L 499 0 L 499 324 C 499 376 477 418 433 448 C 389 478 331 493 259 493 C 217 493 180 490 148 484 C 116 478 84 470 52 460 L 52 311 C 76 325 101 336 127 344 C 152 351 178 355 206 355 C 236 355 258 351 273 344 C 287 337 295 326 295 312 L 295 298 L 216 285 C 156 275 109 258 75 234 C 41 210 24 174 24 124 C 24 86 37 54 65 28 C 93 1 128 -12 171 -12 Z M 263 127 C 253 127 245 130 239 137 C 232 143 229 152 229 163 C 229 175 232 184 239 191 C 245 198 253 202 262 204 L 295 209 L 295 145 C 292 139 287 135 281 132 C 275 128 269 127 263 127 Z" unicode="á" />
<glyph horiz-adv-x="535" d="M 229 532 L 266 604 L 303 532 L 440 532 L 346 706 L 194 706 L 100 532 L 229 532 Z M 171 -12 C 200 -12 225 -6 245 4 C 265 15 282 32 296 55 L 306 0 L 499 0 L 499 324 C 499 376 477 418 433 448 C 389 478 331 493 259 493 C 217 493 180 490 148 484 C 116 478 84 470 52 460 L 52 311 C 76 325 101 336 127 344 C 152 351 178 355 206 355 C 236 355 258 351 273 344 C 287 337 295 326 295 312 L 295 298 L 216 285 C 156 275 109 258 75 234 C 41 210 24 174 24 124 C 24 86 37 54 65 28 C 93 1 128 -12 171 -12 Z M 263 127 C 253 127 245 130 239 137 C 232 143 229 152 229 163 C 229 175 232 184 239 191 C 245 198 253 202 262 204 L 295 209 L 295 145 C 292 139 287 135 281 132 C 275 128 269 127 263 127 Z" unicode="â" />
<glyph horiz-adv-x="535" d="M 198 532 C 198 542 199 550 203 556 C 207 561 212 564 220 564 C 223 564 226 563 230 562 C 234 560 238 558 244 554 C 257 544 269 536 281 532 C 293 528 306 526 320 526 C 360 526 390 539 410 565 C 430 591 440 630 440 681 L 338 681 C 337 670 335 662 331 657 C 327 651 322 649 316 649 C 312 649 308 649 305 651 C 301 652 297 655 292 660 C 280 669 268 676 256 680 C 244 684 231 687 216 687 C 176 687 146 673 126 647 C 106 621 96 582 96 532 L 198 532 Z M 171 -12 C 200 -12 225 -6 245 4 C 265 15 282 32 296 55 L 306 0 L 499 0 L 499 324 C 499 376 477 418 433 448 C 389 478 331 493 259 493 C 217 493 180 490 148 484 C 116 478 84 470 52 460 L 52 311 C 76 325 101 336 127 344 C 152 351 178 355 206 355 C 236 355 258 351 273 344 C 287 337 295 326 295 312 L 295 298 L 216 285 C 156 275 109 258 75 234 C 41 210 24 174 24 124 C 24 86 37 54 65 28 C 93 1 128 -12 171 -12 Z M 263 127 C 253 127 245 130 239 137 C 232 143 229 152 229 163 C 229 175 232 184 239 191 C 245 198 253 202 262 204 L 295 209 L 295 145 C 292 139 287 135 281 132 C 275 128 269 127 263 127 Z" unicode="ã" />
<glyph horiz-adv-x="535" d="M 104 532 L 244 532 L 244 672 L 104 672 L 104 532 Z M 294 532 L 434 532 L 434 672 L 294 672 L 294 532 Z M 171 -12 C 200 -12 225 -6 245 4 C 265 15 282 32 296 55 L 306 0 L 499 0 L 499 324 C 499 376 477 418 433 448 C 389 478 331 493 259 493 C 217 493 180 490 148 484 C 116 478 84 470 52 460 L 52 311 C 76 325 101 336 127 344 C 152 351 178 355 206 355 C 236 355 258 351 273 344 C 287 337 295 326 295 312 L 295 298 L 216 285 C 156 275 109 258 75 234 C 41 210 24 174 24 124 C 24 86 37 54 65 28 C 93 1 128 -12 171 -12 Z M 263 127 C 253 127 245 130 239 137 C 232 143 229 152 229 163 C 229 175 232 184 239 191 C 245 198 253 202 262 204 L 295 209 L 295 145 C 292 139 287 135 281 132 C 275 128 269 127 263 127 Z" unicode="ä" />
<glyph horiz-adv-x="535" d="M 171 -12 C 200 -12 225 -6 245 4 C 265 15 282 32 296 55 L 306 0 L 499 0 L 499 324 C 499 364 485 398 458 426 C 431 454 395 473 349 484 C 369 496 384 512 395 534 C 406 555 412 578 412 604 C 412 643 399 676 373 703 C 347 730 312 744 268 744 C 224 744 189 730 163 703 C 137 676 124 643 124 604 C 124 580 128 558 138 538 C 148 518 161 501 179 489 C 156 486 134 482 114 477 C 93 472 72 466 52 460 L 52 311 C 76 325 101 336 127 344 C 152 351 178 355 206 355 C 236 355 258 351 273 344 C 287 337 295 326 295 312 L 295 298 L 216 285 C 156 275 109 258 75 234 C 41 210 24 174 24 124 C 24 86 37 54 65 28 C 93 1 128 -12 171 -12 Z M 268 558 C 255 558 244 561 235 569 C 226 577 222 588 222 603 C 222 617 226 628 235 636 C 244 644 255 648 268 648 C 280 648 291 644 300 636 C 309 628 314 617 314 603 C 314 588 309 577 300 569 C 291 561 280 558 268 558 Z M 263 127 C 253 127 245 130 239 137 C 232 143 229 152 229 163 C 229 175 232 184 239 191 C 245 198 253 202 262 204 L 295 209 L 295 145 C 292 139 287 135 281 132 C 275 128 269 127 263 127 Z" unicode="å" />
<glyph horiz-adv-x="799" d="M 177 -12 C 215 -12 247 -4 274 10 C 301 25 325 48 345 79 C 367 50 397 28 433 12 C 469 -4 511 -12 558 -12 C 588 -12 621 -9 656 -3 C 691 3 727 12 763 24 L 763 177 C 739 164 715 155 690 149 C 664 143 639 140 615 140 C 579 140 551 144 532 153 C 512 162 501 177 499 198 L 775 198 L 775 212 C 775 296 756 362 719 411 C 681 460 624 485 548 485 C 521 485 496 482 473 477 C 449 471 428 464 410 454 C 390 464 368 471 342 477 C 316 482 289 485 259 485 C 217 485 180 482 148 476 C 116 470 84 462 52 452 L 52 303 C 76 317 101 328 126 336 C 150 343 177 347 206 347 C 236 347 258 343 273 336 C 287 329 295 318 295 304 L 295 298 L 216 285 C 156 275 109 258 75 234 C 41 210 24 174 24 124 C 24 86 38 54 66 28 C 94 1 131 -12 177 -12 Z M 540 373 C 554 373 564 367 570 355 C 576 343 579 323 579 295 L 498 295 C 498 322 502 342 509 354 C 515 366 526 373 540 373 Z M 263 134 C 253 134 245 137 239 143 C 232 149 229 157 229 167 C 229 177 232 186 239 192 C 245 198 253 202 262 204 L 295 209 L 295 152 C 292 146 287 142 281 139 C 275 135 269 134 263 134 Z" unicode="æ" />
<glyph horiz-adv-x="447" d="M 281 -12 C 301 -12 323 -9 346 -4 C 368 1 391 9 415 20 L 415 192 C 398 181 381 173 365 168 C 349 162 333 160 317 160 C 292 160 272 167 257 181 C 241 195 234 213 234 237 C 234 260 241 278 255 292 C 269 306 287 313 311 313 C 326 313 342 310 359 306 C 376 302 393 296 411 288 L 411 460 C 389 468 367 474 345 478 C 323 482 301 485 279 485 C 200 485 138 462 92 416 C 46 370 24 308 24 231 C 24 157 47 98 94 54 C 141 10 203 -12 281 -12 Z M 241 -265 C 275 -265 302 -256 324 -238 C 345 -220 356 -195 356 -161 C 356 -127 343 -101 318 -83 C 292 -65 260 -56 220 -56 L 208 -56 L 208 -131 L 216 -131 C 224 -131 231 -133 237 -138 C 243 -142 246 -148 246 -155 C 246 -162 243 -168 238 -173 C 232 -177 225 -180 217 -180 C 208 -180 199 -178 190 -176 C 181 -173 172 -169 164 -165 L 164 -254 C 176 -258 188 -260 200 -262 C 212 -264 225 -265 241 -265 Z" unicode="ç" />
<glyph horiz-adv-x="531" d="M 201 532 L 357 532 L 255 690 L 74 690 L 201 532 Z M 290 -16 C 320 -16 353 -13 388 -7 C 423 -1 459 8 495 21 L 495 178 C 471 165 447 155 422 149 C 396 143 371 140 347 140 C 311 140 283 144 264 154 C 244 163 233 178 231 199 L 507 199 L 507 214 C 507 295 488 362 451 414 C 413 466 356 493 280 493 C 199 493 136 470 91 424 C 46 378 24 316 24 239 C 24 161 47 99 94 53 C 140 7 206 -16 290 -16 Z M 272 374 C 286 374 296 367 302 355 C 308 343 311 321 311 291 L 230 291 C 230 320 234 341 241 354 C 247 367 258 374 272 374 Z" unicode="è" />
<glyph horiz-adv-x="531" d="M 354 532 L 481 690 L 300 690 L 198 532 L 354 532 Z M 290 -16 C 320 -16 353 -13 388 -7 C 423 -1 459 8 495 21 L 495 178 C 471 165 447 155 422 149 C 396 143 371 140 347 140 C 311 140 283 144 264 154 C 244 163 233 178 231 199 L 507 199 L 507 214 C 507 295 488 362 451 414 C 413 466 356 493 280 493 C 199 493 136 470 91 424 C 46 378 24 316 24 239 C 24 161 47 99 94 53 C 140 7 206 -16 290 -16 Z M 272 374 C 286 374 296 367 302 355 C 308 343 311 321 311 291 L 230 291 C 230 320 234 341 241 354 C 247 367 258 374 272 374 Z" unicode="é" />
<glyph horiz-adv-x="531" d="M 239 532 L 276 604 L 313 532 L 450 532 L 356 706 L 204 706 L 110 532 L 239 532 Z M 290 -16 C 320 -16 353 -13 388 -7 C 423 -1 459 8 495 21 L 495 178 C 471 165 447 155 422 149 C 396 143 371 140 347 140 C 311 140 283 144 264 154 C 244 163 233 178 231 199 L 507 199 L 507 214 C 507 295 488 362 451 414 C 413 466 356 493 280 493 C 199 493 136 470 91 424 C 46 378 24 316 24 239 C 24 161 47 99 94 53 C 140 7 206 -16 290 -16 Z M 272 374 C 286 374 296 367 302 355 C 308 343 311 321 311 291 L 230 291 C 230 320 234 341 241 354 C 247 367 258 374 272 374 Z" unicode="ê" />
<glyph horiz-adv-x="531" d="M 114 532 L 254 532 L 254 672 L 114 672 L 114 532 Z M 304 532 L 444 532 L 444 672 L 304 672 L 304 532 Z M 290 -16 C 320 -16 353 -13 388 -7 C 423 -1 459 8 495 21 L 495 178 C 471 165 447 155 422 149 C 396 143 371 140 347 140 C 311 140 283 144 264 154 C 244 163 233 178 231 199 L 507 199 L 507 214 C 507 295 488 362 451 414 C 413 466 356 493 280 493 C 199 493 136 470 91 424 C 46 378 24 316 24 239 C 24 161 47 99 94 53 C 140 7 206 -16 290 -16 Z M 272 374 C 286 374 296 367 302 355 C 308 343 311 321 311 291 L 230 291 C 230 320 234 341 241 354 C 247 367 258 374 272 374 Z" unicode="ë" />
<glyph horiz-adv-x="284" d="M 65 524 L 221 524 L 119 682 L -62 682 L 65 524 Z M 40 0 L 244 0 L 244 478 L 40 478 L 40 0 Z" unicode="ì" />
<glyph horiz-adv-x="284" d="M 218 524 L 345 682 L 164 682 L 62 524 L 218 524 Z M 40 0 L 244 0 L 244 478 L 40 478 L 40 0 Z" unicode="í" />
<glyph horiz-adv-x="284" d="M 103 524 L 140 596 L 177 524 L 314 524 L 220 698 L 68 698 L -26 524 L 103 524 Z M 40 0 L 244 0 L 244 478 L 40 478 L 40 0 Z" unicode="î" />
<glyph horiz-adv-x="284" d="M -22 524 L 118 524 L 118 664 L -22 664 L -22 524 Z M 168 524 L 308 524 L 308 664 L 168 664 L 168 524 Z M 40 0 L 244 0 L 244 478 L 40 478 L 40 0 Z" unicode="ï" />
<glyph horiz-adv-x="578" d="M 286 -16 C 360 -16 424 9 476 59 C 528 109 554 187 554 294 C 554 351 544 405 524 457 C 504 509 479 556 449 598 L 515 619 L 480 712 L 377 679 C 363 692 348 704 333 716 C 318 728 303 738 288 748 L 118 677 C 134 668 149 659 164 650 C 178 641 192 632 205 623 L 152 606 L 187 513 L 290 546 C 300 535 310 524 319 512 C 327 500 335 487 343 475 C 332 479 320 483 307 485 C 293 487 279 489 263 489 C 197 489 141 466 94 421 C 47 375 24 315 24 239 C 24 161 47 99 95 53 C 142 7 206 -16 286 -16 Z M 288 164 C 272 164 259 169 249 181 C 239 193 234 211 234 236 C 234 260 239 279 249 291 C 259 303 272 309 288 309 C 304 309 317 303 327 291 C 337 279 342 260 342 236 C 342 212 337 194 327 182 C 317 170 304 164 288 164 Z" unicode="ð" />
<glyph horiz-adv-x="559" d="M 220 524 C 220 534 221 542 225 548 C 229 553 234 556 242 556 C 245 556 248 555 252 554 C 256 552 260 550 266 546 C 279 536 291 528 303 524 C 315 520 328 518 342 518 C 382 518 412 531 432 557 C 452 583 462 622 462 673 L 360 673 C 359 662 357 654 353 649 C 349 643 344 641 338 641 C 334 641 330 641 327 643 C 323 644 319 647 314 652 C 302 661 290 668 278 672 C 266 676 253 679 238 679 C 198 679 168 665 148 639 C 128 613 118 574 118 524 L 220 524 Z M 40 0 L 244 0 L 244 303 C 247 309 252 313 259 316 C 265 318 272 320 280 320 C 290 320 299 316 307 310 C 315 303 319 294 319 282 L 319 0 L 523 0 L 523 332 C 523 380 509 418 481 447 C 453 475 418 490 378 490 C 346 490 318 483 296 469 C 274 455 256 438 244 418 L 244 478 L 40 478 L 40 0 Z" unicode="ñ" />
<glyph horiz-adv-x="568" d="M 207 532 L 363 532 L 261 690 L 80 690 L 207 532 Z M 284 -16 C 363 -16 426 7 473 54 C 520 101 544 164 544 244 C 544 320 520 380 473 426 C 426 471 363 494 284 494 C 204 494 141 471 94 425 C 47 379 24 318 24 242 C 24 163 47 100 94 54 C 141 7 204 -16 284 -16 Z M 284 157 C 269 157 257 164 248 178 C 238 192 234 212 234 240 C 234 266 238 286 248 300 C 257 314 269 321 284 321 C 298 321 310 314 320 300 C 329 286 334 266 334 240 C 334 212 329 192 320 178 C 310 164 298 157 284 157 Z" unicode="ò" />
<glyph horiz-adv-x="568" d="M 360 532 L 487 690 L 306 690 L 204 532 L 360 532 Z M 284 -16 C 363 -16 426 7 473 54 C 520 101 544 164 544 244 C 544 320 520 380 473 426 C 426 471 363 494 284 494 C 204 494 141 471 94 425 C 47 379 24 318 24 242 C 24 163 47 100 94 54 C 141 7 204 -16 284 -16 Z M 284 157 C 269 157 257 164 248 178 C 238 192 234 212 234 240 C 234 266 238 286 248 300 C 257 314 269 321 284 321 C 298 321 310 314 320 300 C 329 286 334 266 334 240 C 334 212 329 192 320 178 C 310 164 298 157 284 157 Z" unicode="ó" />
<glyph horiz-adv-x="568" d="M 245 532 L 282 604 L 319 532 L 456 532 L 362 706 L 210 706 L 116 532 L 245 532 Z M 284 -16 C 363 -16 426 7 473 54 C 520 101 544 164 544 244 C 544 320 520 380 473 426 C 426 471 363 494 284 494 C 204 494 141 471 94 425 C 47 379 24 318 24 242 C 24 163 47 100 94 54 C 141 7 204 -16 284 -16 Z M 284 157 C 269 157 257 164 248 178 C 238 192 234 212 234 240 C 234 266 238 286 248 300 C 257 314 269 321 284 321 C 298 321 310 314 320 300 C 329 286 334 266 334 240 C 334 212 329 192 320 178 C 310 164 298 157 284 157 Z" unicode="ô" />
<glyph horiz-adv-x="568" d="M 214 532 C 214 542 215 550 219 556 C 223 561 228 564 236 564 C 239 564 242 563 246 562 C 250 560 254 558 260 554 C 273 544 285 536 297 532 C 309 528 322 526 336 526 C 376 526 406 539 426 565 C 446 591 456 630 456 681 L 354 681 C 353 670 351 662 347 657 C 343 651 338 649 332 649 C 328 649 324 649 321 651 C 317 652 313 655 308 660 C 296 669 284 676 272 680 C 260 684 247 687 232 687 C 192 687 162 673 142 647 C 122 621 112 582 112 532 L 214 532 Z M 284 -16 C 363 -16 426 7 473 54 C 520 101 544 164 544 244 C 544 320 520 380 473 426 C 426 471 363 494 284 494 C 204 494 141 471 94 425 C 47 379 24 318 24 242 C 24 163 47 100 94 54 C 141 7 204 -16 284 -16 Z M 284 157 C 269 157 257 164 248 178 C 238 192 234 212 234 240 C 234 266 238 286 248 300 C 257 314 269 321 284 321 C 298 321 310 314 320 300 C 329 286 334 266 334 240 C 334 212 329 192 320 178 C 310 164 298 157 284 157 Z" unicode="õ" />
<glyph horiz-adv-x="568" d="M 120 532 L 260 532 L 260 672 L 120 672 L 120 532 Z M 310 532 L 450 532 L 450 672 L 310 672 L 310 532 Z M 284 -16 C 363 -16 426 7 473 54 C 520 101 544 164 544 244 C 544 320 520 380 473 426 C 426 471 363 494 284 494 C 204 494 141 471 94 425 C 47 379 24 318 24 242 C 24 163 47 100 94 54 C 141 7 204 -16 284 -16 Z M 284 157 C 269 157 257 164 248 178 C 238 192 234 212 234 240 C 234 266 238 286 248 300 C 257 314 269 321 284 321 C 298 321 310 314 320 300 C 329 286 334 266 334 240 C 334 212 329 192 320 178 C 310 164 298 157 284 157 Z" unicode="ö" />
<glyph horiz-adv-x="536" d="M 197 413 L 337 413 L 337 553 L 197 553 L 197 413 Z M 52 211 L 484 211 L 484 359 L 52 359 L 52 211 Z M 197 17 L 337 17 L 337 157 L 197 157 L 197 17 Z" unicode="÷" />
<glyph horiz-adv-x="568" d="M 40 -48 L 183 -48 L 208 -7 C 219 -9 231 -11 244 -13 C 257 -15 270 -16 284 -16 C 363 -16 426 7 473 54 C 520 101 544 164 544 244 C 544 282 537 317 525 349 C 512 381 494 407 471 429 L 530 526 L 387 526 L 362 485 C 350 487 337 489 324 491 C 311 493 298 494 284 494 C 204 494 141 471 94 425 C 47 379 24 318 24 242 C 24 201 30 164 43 132 C 56 99 75 71 99 49 L 40 -48 Z M 284 157 C 269 157 257 164 248 178 C 238 192 234 212 234 240 C 234 266 238 286 248 300 C 257 314 269 321 284 321 C 298 321 310 314 320 300 C 329 286 334 266 334 240 C 334 212 329 192 320 178 C 310 164 298 157 284 157 Z" unicode="ø" />
<glyph horiz-adv-x="559" d="M 201 524 L 357 524 L 255 682 L 74 682 L 201 524 Z M 193 -12 C 215 -12 238 -5 262 7 C 285 20 303 38 315 60 L 323 0 L 519 0 L 519 478 L 315 478 L 315 175 C 311 169 306 164 300 162 C 293 159 286 158 279 158 C 268 158 259 161 251 168 C 243 174 240 184 240 196 L 240 478 L 36 478 L 36 146 C 36 98 50 59 79 31 C 108 2 146 -12 193 -12 Z" unicode="ù" />
<glyph horiz-adv-x="559" d="M 354 524 L 481 682 L 300 682 L 198 524 L 354 524 Z M 193 -12 C 215 -12 238 -5 262 7 C 285 20 303 38 315 60 L 323 0 L 519 0 L 519 478 L 315 478 L 315 175 C 311 169 306 164 300 162 C 293 159 286 158 279 158 C 268 158 259 161 251 168 C 243 174 240 184 240 196 L 240 478 L 36 478 L 36 146 C 36 98 50 59 79 31 C 108 2 146 -12 193 -12 Z" unicode="ú" />
<glyph horiz-adv-x="559" d="M 239 524 L 276 596 L 313 524 L 450 524 L 356 698 L 204 698 L 110 524 L 239 524 Z M 193 -12 C 215 -12 238 -5 262 7 C 285 20 303 38 315 60 L 323 0 L 519 0 L 519 478 L 315 478 L 315 175 C 311 169 306 164 300 162 C 293 159 286 158 279 158 C 268 158 259 161 251 168 C 243 174 240 184 240 196 L 240 478 L 36 478 L 36 146 C 36 98 50 59 79 31 C 108 2 146 -12 193 -12 Z" unicode="û" />
<glyph horiz-adv-x="559" d="M 114 524 L 254 524 L 254 664 L 114 664 L 114 524 Z M 304 524 L 444 524 L 444 664 L 304 664 L 304 524 Z M 193 -12 C 215 -12 238 -5 262 7 C 285 20 303 38 315 60 L 323 0 L 519 0 L 519 478 L 315 478 L 315 175 C 311 169 306 164 300 162 C 293 159 286 158 279 158 C 268 158 259 161 251 168 C 243 174 240 184 240 196 L 240 478 L 36 478 L 36 146 C 36 98 50 59 79 31 C 108 2 146 -12 193 -12 Z" unicode="ü" />
<glyph horiz-adv-x="573" d="M 371 524 L 498 682 L 317 682 L 215 524 L 371 524 Z M 51 -220 C 149 -220 230 -198 293 -156 C 356 -113 405 -36 439 75 L 561 478 L 372 478 L 334 320 L 301 169 L 269 320 L 231 478 L 12 478 L 165 4 L 203 1 C 187 -17 169 -30 148 -36 C 127 -42 95 -45 51 -45 L 43 -45 L 43 -220 L 51 -220 Z" unicode="ý" />
<glyph horiz-adv-x="560" d="M 40 -188 L 244 -188 L 244 -1 C 254 -4 265 -7 277 -9 C 288 -11 298 -12 307 -12 C 384 -12 441 11 479 59 C 517 107 536 171 536 251 C 536 321 521 378 493 421 C 464 463 423 485 369 485 C 343 485 320 480 300 471 C 279 461 260 448 244 432 L 244 716 L 40 716 L 40 -188 Z M 273 149 C 268 149 263 149 258 151 C 252 152 248 154 244 157 L 244 299 C 248 301 253 303 259 305 C 264 306 269 307 274 307 C 290 307 303 300 313 288 C 323 275 328 256 328 232 C 328 203 323 182 313 169 C 303 155 290 149 273 149 Z" unicode="þ" />
<glyph horiz-adv-x="573" d="M 131 524 L 271 524 L 271 664 L 131 664 L 131 524 Z M 321 524 L 461 524 L 461 664 L 321 664 L 321 524 Z M 51 -220 C 149 -220 230 -198 293 -156 C 356 -113 405 -36 439 75 L 561 478 L 372 478 L 334 320 L 301 169 L 269 320 L 231 478 L 12 478 L 165 4 L 203 1 C 187 -17 169 -30 148 -36 C 127 -42 95 -45 51 -45 L 43 -45 L 43 -220 L 51 -220 Z" unicode="ÿ" />
<glyph horiz-adv-x="756" d="M 267 706 L 493 706 L 493 810 L 267 810 L 267 706 Z M 12 0 L 210 0 L 246 96 L 479 96 L 515 0 L 744 0 L 482 658 L 275 658 L 12 0 Z M 297 232 L 320 294 L 363 418 L 405 294 L 428 232 L 297 232 Z" unicode="Ā" />
<glyph horiz-adv-x="535" d="M 144 540 L 394 540 L 394 655 L 144 655 L 144 540 Z M 171 -12 C 200 -12 225 -6 245 4 C 265 15 282 32 296 55 L 306 0 L 499 0 L 499 324 C 499 376 477 418 433 448 C 389 478 331 493 259 493 C 217 493 180 490 148 484 C 116 478 84 470 52 460 L 52 311 C 76 325 101 336 127 344 C 152 351 178 355 206 355 C 236 355 258 351 273 344 C 287 337 295 326 295 312 L 295 298 L 216 285 C 156 275 109 258 75 234 C 41 210 24 174 24 124 C 24 86 37 54 65 28 C 93 1 128 -12 171 -12 Z M 263 127 C 253 127 245 130 239 137 C 232 143 229 152 229 163 C 229 175 232 184 239 191 C 245 198 253 202 262 204 L 295 209 L 295 145 C 292 139 287 135 281 132 C 275 128 269 127 263 127 Z" unicode="ā" />
<glyph horiz-adv-x="756" d="M 378 706 C 418 706 449 718 473 744 C 497 770 509 804 509 848 L 416 848 C 416 835 412 825 405 817 C 398 809 389 806 378 806 C 366 806 357 809 350 817 C 343 825 340 835 340 848 L 247 848 C 247 804 258 770 282 744 C 306 718 338 706 378 706 Z M 12 0 L 210 0 L 246 96 L 479 96 L 515 0 L 744 0 L 482 658 L 275 658 L 12 0 Z M 297 232 L 320 294 L 363 418 L 405 294 L 428 232 L 297 232 Z" unicode="Ă" />
<glyph horiz-adv-x="535" d="M 269 532 C 313 532 348 546 374 575 C 400 603 414 642 414 690 L 311 690 C 311 675 307 663 299 655 C 291 647 281 643 269 643 C 256 643 246 647 238 655 C 230 663 227 675 227 690 L 124 690 C 124 642 137 603 163 575 C 189 546 225 532 269 532 Z M 171 -12 C 200 -12 225 -6 245 4 C 265 15 282 32 296 55 L 306 0 L 499 0 L 499 324 C 499 376 477 418 433 448 C 389 478 331 493 259 493 C 217 493 180 490 148 484 C 116 478 84 470 52 460 L 52 311 C 76 325 101 336 127 344 C 152 351 178 355 206 355 C 236 355 258 351 273 344 C 287 337 295 326 295 312 L 295 298 L 216 285 C 156 275 109 258 75 234 C 41 210 24 174 24 124 C 24 86 37 54 65 28 C 93 1 128 -12 171 -12 Z M 263 127 C 253 127 245 130 239 137 C 232 143 229 152 229 163 C 229 175 232 184 239 191 C 245 198 253 202 262 204 L 295 209 L 295 145 C 292 139 287 135 281 132 C 275 128 269 127 263 127 Z" unicode="ă" />
<glyph horiz-adv-x="756" d="M 12 0 L 210 0 L 246 96 L 479 96 L 514 3 C 500 -9 489 -23 482 -39 C 474 -54 471 -71 471 -89 C 471 -127 487 -158 520 -183 C 552 -207 598 -220 657 -220 L 657 -102 C 637 -102 621 -97 611 -88 C 601 -78 596 -67 596 -53 C 596 -38 601 -25 611 -15 C 621 -5 637 0 657 0 L 744 0 L 482 658 L 275 658 L 12 0 Z M 297 232 L 320 294 L 363 418 L 405 294 L 428 232 L 297 232 Z" unicode="Ą" />
<glyph horiz-adv-x="535" d="M 171 -12 C 200 -12 225 -6 245 4 C 265 15 282 32 296 55 L 306 0 L 309 0 C 296 -12 286 -26 279 -41 C 272 -56 269 -72 269 -89 C 269 -127 285 -158 318 -183 C 350 -207 396 -220 455 -220 L 455 -102 C 435 -102 419 -97 409 -88 C 399 -78 394 -67 394 -53 C 394 -38 399 -25 409 -15 C 419 -5 435 0 455 0 L 499 0 L 499 324 C 499 376 477 418 433 448 C 389 478 331 493 259 493 C 217 493 180 490 148 484 C 116 478 84 470 52 460 L 52 311 C 76 325 101 336 127 344 C 152 351 178 355 206 355 C 236 355 258 351 273 344 C 287 337 295 326 295 312 L 295 298 L 216 285 C 156 275 109 258 75 234 C 41 210 24 174 24 124 C 24 86 37 54 65 28 C 93 1 128 -12 171 -12 Z M 263 127 C 253 127 245 130 239 137 C 232 143 229 152 229 163 C 229 175 232 184 239 191 C 245 198 253 202 262 204 L 295 209 L 295 145 C 292 139 287 135 281 132 C 275 128 269 127 263 127 Z" unicode="ą" />
<glyph horiz-adv-x="642" d="M 453 718 L 567 860 L 404 860 L 312 718 L 453 718 Z M 408 -12 C 442 -12 474 -8 505 0 C 536 7 567 18 598 33 L 598 224 C 569 207 540 194 510 186 C 480 178 450 174 420 174 C 372 174 334 187 306 215 C 278 243 264 281 264 330 C 264 378 278 415 306 443 C 334 470 372 484 420 484 C 449 484 478 480 506 472 C 534 464 563 452 591 436 L 591 629 C 562 642 532 652 502 659 C 472 666 440 670 408 670 C 297 670 208 639 141 578 C 73 517 40 434 40 330 C 40 225 73 142 141 80 C 208 18 297 -12 408 -12 Z" unicode="Ć" />
<glyph horiz-adv-x="447" d="M 327 524 L 454 682 L 273 682 L 171 524 L 327 524 Z M 281 -12 C 301 -12 323 -9 346 -4 C 368 1 391 9 415 20 L 415 192 C 398 181 381 173 365 168 C 349 162 333 160 317 160 C 292 160 272 167 257 181 C 241 195 234 213 234 237 C 234 260 241 278 255 292 C 269 306 287 313 311 313 C 326 313 342 310 359 306 C 376 302 393 296 411 288 L 411 460 C 389 468 367 474 345 478 C 323 482 301 485 279 485 C 200 485 138 462 92 416 C 46 370 24 308 24 231 C 24 157 47 98 94 54 C 141 10 203 -12 281 -12 Z" unicode="ć" />
<glyph horiz-adv-x="642" d="M 348 718 L 381 783 L 415 718 L 538 718 L 453 874 L 317 874 L 232 718 L 348 718 Z M 408 -12 C 442 -12 474 -8 505 0 C 536 7 567 18 598 33 L 598 224 C 569 207 540 194 510 186 C 480 178 450 174 420 174 C 372 174 334 187 306 215 C 278 243 264 281 264 330 C 264 378 278 415 306 443 C 334 470 372 484 420 484 C 449 484 478 480 506 472 C 534 464 563 452 591 436 L 591 629 C 562 642 532 652 502 659 C 472 666 440 670 408 670 C 297 670 208 639 141 578 C 73 517 40 434 40 330 C 40 225 73 142 141 80 C 208 18 297 -12 408 -12 Z" unicode="Ĉ" />
<glyph horiz-adv-x="447" d="M 212 524 L 249 596 L 286 524 L 423 524 L 329 698 L 177 698 L 83 524 L 212 524 Z M 281 -12 C 301 -12 323 -9 346 -4 C 368 1 391 9 415 20 L 415 192 C 398 181 381 173 365 168 C 349 162 333 160 317 160 C 292 160 272 167 257 181 C 241 195 234 213 234 237 C 234 260 241 278 255 292 C 269 306 287 313 311 313 C 326 313 342 310 359 306 C 376 302 393 296 411 288 L 411 460 C 389 468 367 474 345 478 C 323 482 301 485 279 485 C 200 485 138 462 92 416 C 46 370 24 308 24 231 C 24 157 47 98 94 54 C 141 10 203 -12 281 -12 Z" unicode="ĉ" />
<glyph horiz-adv-x="642" d="M 320 718 L 446 718 L 446 844 L 320 844 L 320 718 Z M 408 -12 C 442 -12 474 -8 505 0 C 536 7 567 18 598 33 L 598 224 C 569 207 540 194 510 186 C 480 178 450 174 420 174 C 372 174 334 187 306 215 C 278 243 264 281 264 330 C 264 378 278 415 306 443 C 334 470 372 484 420 484 C 449 484 478 480 506 472 C 534 464 563 452 591 436 L 591 629 C 562 642 532 652 502 659 C 472 666 440 670 408 670 C 297 670 208 639 141 578 C 73 517 40 434 40 330 C 40 225 73 142 141 80 C 208 18 297 -12 408 -12 Z" unicode="Ċ" />
<glyph horiz-adv-x="447" d="M 179 524 L 319 524 L 319 664 L 179 664 L 179 524 Z M 281 -12 C 301 -12 323 -9 346 -4 C 368 1 391 9 415 20 L 415 192 C 398 181 381 173 365 168 C 349 162 333 160 317 160 C 292 160 272 167 257 181 C 241 195 234 213 234 237 C 234 260 241 278 255 292 C 269 306 287 313 311 313 C 326 313 342 310 359 306 C 376 302 393 296 411 288 L 411 460 C 389 468 367 474 345 478 C 323 482 301 485 279 485 C 200 485 138 462 92 416 C 46 370 24 308 24 231 C 24 157 47 98 94 54 C 141 10 203 -12 281 -12 Z" unicode="ċ" />
<glyph horiz-adv-x="642" d="M 313 718 L 449 718 L 534 875 L 418 875 L 385 809 L 351 875 L 228 875 L 313 718 Z M 408 -12 C 442 -12 474 -8 505 0 C 536 7 567 18 598 33 L 598 224 C 569 207 540 194 510 186 C 480 178 450 174 420 174 C 372 174 334 187 306 215 C 278 243 264 281 264 330 C 264 378 278 415 306 443 C 334 470 372 484 420 484 C 449 484 478 480 506 472 C 534 464 563 452 591 436 L 591 629 C 562 642 532 652 502 659 C 472 666 440 670 408 670 C 297 670 208 639 141 578 C 73 517 40 434 40 330 C 40 225 73 142 141 80 C 208 18 297 -12 408 -12 Z" unicode="Č" />
<glyph horiz-adv-x="447" d="M 173 524 L 325 524 L 419 698 L 290 698 L 253 626 L 216 698 L 79 698 L 173 524 Z M 281 -12 C 301 -12 323 -9 346 -4 C 368 1 391 9 415 20 L 415 192 C 398 181 381 173 365 168 C 349 162 333 160 317 160 C 292 160 272 167 257 181 C 241 195 234 213 234 237 C 234 260 241 278 255 292 C 269 306 287 313 311 313 C 326 313 342 310 359 306 C 376 302 393 296 411 288 L 411 460 C 389 468 367 474 345 478 C 323 482 301 485 279 485 C 200 485 138 462 92 416 C 46 370 24 308 24 231 C 24 157 47 98 94 54 C 141 10 203 -12 281 -12 Z" unicode="č" />
<glyph horiz-adv-x="719" d="M 247 706 L 383 706 L 468 863 L 352 863 L 319 797 L 285 863 L 162 863 L 247 706 Z M 60 0 L 309 0 C 424 0 514 30 580 91 C 646 152 679 234 679 337 C 679 435 645 513 578 571 C 511 629 421 658 309 658 L 60 658 L 60 0 Z M 272 186 L 272 472 L 304 472 C 352 472 390 459 418 435 C 445 411 459 378 459 337 C 459 291 445 254 418 227 C 390 199 352 186 304 186 L 272 186 Z" unicode="Ď" />
<glyph horiz-adv-x="803" d="M 193 -10 C 222 -10 247 -3 267 9 C 287 22 304 41 318 66 L 326 0 L 522 0 L 522 716 L 318 716 L 318 456 C 304 465 290 472 275 477 C 259 482 244 485 228 485 C 168 485 119 461 81 414 C 43 367 24 304 24 226 C 24 155 39 98 71 55 C 102 11 143 -10 193 -10 Z M 681 505 C 705 525 722 547 732 573 C 742 599 747 631 747 669 L 747 716 L 603 716 L 603 668 C 603 643 600 620 596 599 C 591 578 582 556 570 533 L 681 505 Z M 284 164 C 268 164 255 171 247 185 C 238 199 234 218 234 242 C 234 266 238 285 247 299 C 256 313 268 320 284 320 C 290 320 295 319 301 318 C 307 316 312 314 318 312 L 318 175 C 313 171 308 168 302 166 C 296 164 290 164 284 164 Z" unicode="ď" />
<glyph horiz-adv-x="723" d="M 64 0 L 313 0 C 428 0 518 30 584 91 C 650 152 683 234 683 337 C 683 435 649 513 582 571 C 515 629 425 658 313 658 L 64 658 L 64 410 L 20 410 L 20 254 L 64 254 L 64 0 Z M 276 186 L 276 254 L 339 254 L 339 410 L 276 410 L 276 472 L 308 472 C 356 472 394 459 422 435 C 449 411 463 378 463 337 C 463 291 449 254 422 227 C 394 199 356 186 308 186 L 276 186 Z" unicode="Đ" />
<glyph horiz-adv-x="562" d="M 193 -10 C 222 -10 247 -3 267 9 C 287 22 304 41 318 66 L 326 0 L 522 0 L 522 538 L 569 538 L 569 650 L 522 650 L 522 716 L 318 716 L 318 650 L 279 650 L 279 538 L 318 538 L 318 456 C 304 465 290 472 275 477 C 259 482 244 485 228 485 C 168 485 119 461 81 414 C 43 367 24 304 24 226 C 24 155 39 98 71 55 C 102 11 143 -10 193 -10 Z M 284 164 C 268 164 255 171 247 185 C 238 199 234 218 234 242 C 234 266 238 285 247 299 C 256 313 268 320 284 320 C 290 320 295 319 301 318 C 307 316 312 314 318 312 L 318 175 C 313 171 308 168 302 166 C 296 164 290 164 284 164 Z" unicode="đ" />
<glyph horiz-adv-x="540" d="M 166 706 L 392 706 L 392 810 L 166 810 L 166 706 Z M 60 0 L 496 0 L 496 183 L 272 183 L 272 255 L 468 255 L 468 405 L 272 405 L 272 474 L 485 474 L 485 658 L 60 658 L 60 0 Z" unicode="Ē" />
<glyph horiz-adv-x="531" d="M 154 540 L 404 540 L 404 655 L 154 655 L 154 540 Z M 290 -16 C 320 -16 353 -13 388 -7 C 423 -1 459 8 495 21 L 495 178 C 471 165 447 155 422 149 C 396 143 371 140 347 140 C 311 140 283 144 264 154 C 244 163 233 178 231 199 L 507 199 L 507 214 C 507 295 488 362 451 414 C 413 466 356 493 280 493 C 199 493 136 470 91 424 C 46 378 24 316 24 239 C 24 161 47 99 94 53 C 140 7 206 -16 290 -16 Z M 272 374 C 286 374 296 367 302 355 C 308 343 311 321 311 291 L 230 291 C 230 320 234 341 241 354 C 247 367 258 374 272 374 Z" unicode="ē" />
<glyph horiz-adv-x="540" d="M 277 706 C 317 706 348 718 372 744 C 396 770 408 804 408 848 L 315 848 C 315 835 311 825 304 817 C 297 809 288 806 277 806 C 265 806 256 809 249 817 C 242 825 239 835 239 848 L 146 848 C 146 804 157 770 181 744 C 205 718 237 706 277 706 Z M 60 0 L 496 0 L 496 183 L 272 183 L 272 255 L 468 255 L 468 405 L 272 405 L 272 474 L 485 474 L 485 658 L 60 658 L 60 0 Z" unicode="Ĕ" />
<glyph horiz-adv-x="531" d="M 279 532 C 323 532 358 546 384 575 C 410 603 424 642 424 690 L 321 690 C 321 675 317 663 309 655 C 301 647 291 643 279 643 C 266 643 256 647 248 655 C 240 663 237 675 237 690 L 134 690 C 134 642 147 603 173 575 C 199 546 235 532 279 532 Z M 290 -16 C 320 -16 353 -13 388 -7 C 423 -1 459 8 495 21 L 495 178 C 471 165 447 155 422 149 C 396 143 371 140 347 140 C 311 140 283 144 264 154 C 244 163 233 178 231 199 L 507 199 L 507 214 C 507 295 488 362 451 414 C 413 466 356 493 280 493 C 199 493 136 470 91 424 C 46 378 24 316 24 239 C 24 161 47 99 94 53 C 140 7 206 -16 290 -16 Z M 272 374 C 286 374 296 367 302 355 C 308 343 311 321 311 291 L 230 291 C 230 320 234 341 241 354 C 247 367 258 374 272 374 Z" unicode="ĕ" />
<glyph horiz-adv-x="540" d="M 214 706 L 340 706 L 340 832 L 214 832 L 214 706 Z M 60 0 L 496 0 L 496 183 L 272 183 L 272 255 L 468 255 L 468 405 L 272 405 L 272 474 L 485 474 L 485 658 L 60 658 L 60 0 Z" unicode="Ė" />
<glyph horiz-adv-x="531" d="M 206 532 L 346 532 L 346 672 L 206 672 L 206 532 Z M 290 -16 C 320 -16 353 -13 388 -7 C 423 -1 459 8 495 21 L 495 178 C 471 165 447 155 422 149 C 396 143 371 140 347 140 C 311 140 283 144 264 154 C 244 163 233 178 231 199 L 507 199 L 507 214 C 507 295 488 362 451 414 C 413 466 356 493 280 493 C 199 493 136 470 91 424 C 46 378 24 316 24 239 C 24 161 47 99 94 53 C 140 7 206 -16 290 -16 Z M 272 374 C 286 374 296 367 302 355 C 308 343 311 321 311 291 L 230 291 C 230 320 234 341 241 354 C 247 367 258 374 272 374 Z" unicode="ė" />
<glyph horiz-adv-x="540" d="M 60 0 L 346 0 C 333 -12 323 -26 316 -41 C 309 -56 306 -72 306 -89 C 306 -127 322 -158 355 -183 C 387 -207 433 -220 492 -220 L 492 -102 C 472 -102 456 -97 446 -88 C 436 -78 431 -67 431 -53 C 431 -38 436 -25 446 -15 C 456 -5 472 0 492 0 L 496 0 L 496 183 L 272 183 L 272 255 L 468 255 L 468 405 L 272 405 L 272 474 L 485 474 L 485 658 L 60 658 L 60 0 Z" unicode="Ę" />
<glyph horiz-adv-x="531" d="M 483 -220 L 483 -102 C 461 -102 444 -96 433 -86 C 421 -76 416 -63 416 -47 C 416 -34 419 -23 427 -13 C 434 -3 445 4 460 10 C 465 12 471 14 477 16 C 483 18 489 19 495 21 L 495 178 C 471 165 447 155 422 149 C 396 143 371 140 347 140 C 311 140 283 144 264 154 C 244 163 233 178 231 199 L 507 199 L 507 214 C 507 295 488 362 451 414 C 413 466 356 493 280 493 C 199 493 136 470 91 424 C 46 378 24 316 24 239 C 24 161 47 99 94 53 C 140 7 206 -16 290 -16 L 298 -16 C 292 -26 287 -36 284 -47 C 280 -58 279 -70 279 -82 C 279 -122 297 -155 333 -181 C 369 -207 419 -220 483 -220 Z M 272 374 C 286 374 296 367 302 355 C 308 343 311 321 311 291 L 230 291 C 230 320 234 341 241 354 C 247 367 258 374 272 374 Z" unicode="ę" />
<glyph horiz-adv-x="540" d="M 207 706 L 343 706 L 428 863 L 312 863 L 279 797 L 245 863 L 122 863 L 207 706 Z M 60 0 L 496 0 L 496 183 L 272 183 L 272 255 L 468 255 L 468 405 L 272 405 L 272 474 L 485 474 L 485 658 L 60 658 L 60 0 Z" unicode="Ě" />
<glyph horiz-adv-x="531" d="M 200 532 L 352 532 L 446 706 L 317 706 L 280 634 L 243 706 L 106 706 L 200 532 Z M 290 -16 C 320 -16 353 -13 388 -7 C 423 -1 459 8 495 21 L 495 178 C 471 165 447 155 422 149 C 396 143 371 140 347 140 C 311 140 283 144 264 154 C 244 163 233 178 231 199 L 507 199 L 507 214 C 507 295 488 362 451 414 C 413 466 356 493 280 493 C 199 493 136 470 91 424 C 46 378 24 316 24 239 C 24 161 47 99 94 53 C 140 7 206 -16 290 -16 Z M 272 374 C 286 374 296 367 302 355 C 308 343 311 321 311 291 L 230 291 C 230 320 234 341 241 354 C 247 367 258 374 272 374 Z" unicode="ě" />
<glyph horiz-adv-x="710" d="M 362 718 L 395 783 L 429 718 L 552 718 L 467 874 L 331 874 L 246 718 L 362 718 Z M 397 -12 C 449 -12 497 -8 542 -2 C 587 4 630 14 670 28 L 670 399 L 379 399 L 379 249 L 468 249 L 468 177 C 457 173 446 171 435 170 C 424 169 413 169 403 169 C 361 169 326 183 300 213 C 273 242 260 281 260 331 C 260 377 275 414 306 441 C 336 468 374 482 418 482 C 454 482 488 479 522 473 C 555 467 589 458 623 447 L 623 640 C 586 650 549 657 513 662 C 477 667 440 670 404 670 C 297 670 210 639 142 577 C 74 515 40 431 40 324 C 40 223 73 142 139 80 C 205 18 291 -12 397 -12 Z" unicode="Ĝ" />
<glyph horiz-adv-x="564" d="M 230 534 L 267 606 L 304 534 L 441 534 L 347 708 L 195 708 L 101 534 L 230 534 Z M 273 -220 C 333 -220 390 -201 444 -164 C 497 -127 524 -63 524 27 L 524 478 L 441 478 L 403 418 C 390 440 371 459 346 473 C 320 487 293 494 265 494 C 203 494 147 472 98 428 C 48 384 24 316 24 226 C 24 153 40 95 73 52 C 105 9 151 -12 210 -12 C 231 -12 251 -7 271 2 C 291 12 307 27 320 47 L 320 11 C 320 -29 304 -52 274 -60 C 244 -68 221 -72 207 -72 C 183 -72 157 -68 130 -60 C 103 -52 78 -39 56 -23 L 56 -182 C 90 -194 124 -204 160 -210 C 196 -216 233 -220 273 -220 Z M 282 156 C 267 156 255 163 247 177 C 238 191 234 211 234 236 C 234 259 238 278 247 292 C 256 306 268 314 284 314 C 290 314 295 313 301 312 C 307 310 312 308 318 306 L 318 167 C 313 163 307 161 301 159 C 295 157 288 156 282 156 Z" unicode="ĝ" />
<glyph horiz-adv-x="710" d="M 397 718 C 437 718 468 730 492 756 C 516 782 528 816 528 860 L 435 860 C 435 847 431 837 424 829 C 417 821 408 818 397 818 C 385 818 376 821 369 829 C 362 837 359 847 359 860 L 266 860 C 266 816 277 782 301 756 C 325 730 357 718 397 718 Z M 397 -12 C 449 -12 497 -8 542 -2 C 587 4 630 14 670 28 L 670 399 L 379 399 L 379 249 L 468 249 L 468 177 C 457 173 446 171 435 170 C 424 169 413 169 403 169 C 361 169 326 183 300 213 C 273 242 260 281 260 331 C 260 377 275 414 306 441 C 336 468 374 482 418 482 C 454 482 488 479 522 473 C 555 467 589 458 623 447 L 623 640 C 586 650 549 657 513 662 C 477 667 440 670 404 670 C 297 670 210 639 142 577 C 74 515 40 431 40 324 C 40 223 73 142 139 80 C 205 18 291 -12 397 -12 Z" unicode="Ğ" />
<glyph horiz-adv-x="564" d="M 270 534 C 314 534 349 548 375 577 C 401 605 415 644 415 692 L 312 692 C 312 677 308 665 300 657 C 292 649 282 645 270 645 C 257 645 247 649 239 657 C 231 665 228 677 228 692 L 125 692 C 125 644 138 605 164 577 C 190 548 226 534 270 534 Z M 273 -220 C 333 -220 390 -201 444 -164 C 497 -127 524 -63 524 27 L 524 478 L 441 478 L 403 418 C 390 440 371 459 346 473 C 320 487 293 494 265 494 C 203 494 147 472 98 428 C 48 384 24 316 24 226 C 24 153 40 95 73 52 C 105 9 151 -12 210 -12 C 231 -12 251 -7 271 2 C 291 12 307 27 320 47 L 320 11 C 320 -29 304 -52 274 -60 C 244 -68 221 -72 207 -72 C 183 -72 157 -68 130 -60 C 103 -52 78 -39 56 -23 L 56 -182 C 90 -194 124 -204 160 -210 C 196 -216 233 -220 273 -220 Z M 282 156 C 267 156 255 163 247 177 C 238 191 234 211 234 236 C 234 259 238 278 247 292 C 256 306 268 314 284 314 C 290 314 295 313 301 312 C 307 310 312 308 318 306 L 318 167 C 313 163 307 161 301 159 C 295 157 288 156 282 156 Z" unicode="ğ" />
<glyph horiz-adv-x="710" d="M 334 718 L 460 718 L 460 844 L 334 844 L 334 718 Z M 397 -12 C 449 -12 497 -8 542 -2 C 587 4 630 14 670 28 L 670 399 L 379 399 L 379 249 L 468 249 L 468 177 C 457 173 446 171 435 170 C 424 169 413 169 403 169 C 361 169 326 183 300 213 C 273 242 260 281 260 331 C 260 377 275 414 306 441 C 336 468 374 482 418 482 C 454 482 488 479 522 473 C 555 467 589 458 623 447 L 623 640 C 586 650 549 657 513 662 C 477 667 440 670 404 670 C 297 670 210 639 142 577 C 74 515 40 431 40 324 C 40 223 73 142 139 80 C 205 18 291 -12 397 -12 Z" unicode="Ġ" />
<glyph horiz-adv-x="564" d="M 197 534 L 337 534 L 337 674 L 197 674 L 197 534 Z M 273 -220 C 333 -220 390 -201 444 -164 C 497 -127 524 -63 524 27 L 524 478 L 441 478 L 403 418 C 390 440 371 459 346 473 C 320 487 293 494 265 494 C 203 494 147 472 98 428 C 48 384 24 316 24 226 C 24 153 40 95 73 52 C 105 9 151 -12 210 -12 C 231 -12 251 -7 271 2 C 291 12 307 27 320 47 L 320 11 C 320 -29 304 -52 274 -60 C 244 -68 221 -72 207 -72 C 183 -72 157 -68 130 -60 C 103 -52 78 -39 56 -23 L 56 -182 C 90 -194 124 -204 160 -210 C 196 -216 233 -220 273 -220 Z M 282 156 C 267 156 255 163 247 177 C 238 191 234 211 234 236 C 234 259 238 278 247 292 C 256 306 268 314 284 314 C 290 314 295 313 301 312 C 307 310 312 308 318 306 L 318 167 C 313 163 307 161 301 159 C 295 157 288 156 282 156 Z" unicode="ġ" />
<glyph horiz-adv-x="710" d="M 397 -12 C 449 -12 497 -8 542 -2 C 587 4 630 14 670 28 L 670 399 L 379 399 L 379 249 L 468 249 L 468 177 C 457 173 446 171 435 170 C 424 169 413 169 403 169 C 361 169 326 183 300 213 C 273 242 260 281 260 331 C 260 377 275 414 306 441 C 336 468 374 482 418 482 C 454 482 488 479 522 473 C 555 467 589 458 623 447 L 623 640 C 586 650 549 657 513 662 C 477 667 440 670 404 670 C 297 670 210 639 142 577 C 74 515 40 431 40 324 C 40 223 73 142 139 80 C 205 18 291 -12 397 -12 Z M 401 -246 C 422 -228 437 -207 446 -184 C 455 -160 460 -132 460 -98 L 460 -56 L 330 -56 L 330 -99 C 330 -121 327 -142 323 -161 C 319 -180 311 -200 301 -221 L 401 -246 Z" unicode="Ģ" />
<glyph horiz-adv-x="564" d="M 263 753 C 239 733 222 710 212 684 C 202 658 197 627 197 589 L 197 542 L 341 542 L 341 590 C 341 614 343 637 348 658 C 352 679 361 701 374 725 L 263 753 Z M 273 -220 C 333 -220 390 -201 444 -164 C 497 -127 524 -63 524 27 L 524 478 L 441 478 L 403 418 C 390 440 371 459 346 473 C 320 487 293 494 265 494 C 203 494 147 472 98 428 C 48 384 24 316 24 226 C 24 153 40 95 73 52 C 105 9 151 -12 210 -12 C 231 -12 251 -7 271 2 C 291 12 307 27 320 47 L 320 11 C 320 -29 304 -52 274 -60 C 244 -68 221 -72 207 -72 C 183 -72 157 -68 130 -60 C 103 -52 78 -39 56 -23 L 56 -182 C 90 -194 124 -204 160 -210 C 196 -216 233 -220 273 -220 Z M 282 156 C 267 156 255 163 247 177 C 238 191 234 211 234 236 C 234 259 238 278 247 292 C 256 306 268 314 284 314 C 290 314 295 313 301 312 C 307 310 312 308 318 306 L 318 167 C 313 163 307 161 301 159 C 295 157 288 156 282 156 Z" unicode="ģ" />
<glyph horiz-adv-x="732" d="M 330 706 L 363 771 L 397 706 L 520 706 L 435 862 L 299 862 L 214 706 L 330 706 Z M 60 0 L 272 0 L 272 235 L 460 235 L 460 0 L 672 0 L 672 658 L 460 658 L 460 421 L 272 421 L 272 658 L 60 658 L 60 0 Z" unicode="Ĥ" />
<glyph horiz-adv-x="559" d="M 103 748 L 140 820 L 177 748 L 314 748 L 220 922 L 68 922 L -26 748 L 103 748 Z M 40 0 L 244 0 L 244 303 C 247 309 252 313 259 316 C 265 318 272 320 280 320 C 290 320 299 316 307 310 C 315 303 319 294 319 282 L 319 0 L 523 0 L 523 332 C 523 380 508 418 480 447 C 452 475 417 490 375 490 C 344 490 318 483 296 469 C 274 455 256 439 244 419 L 244 716 L 40 716 L 40 0 Z" unicode="ĥ" />
<glyph horiz-adv-x="736" d="M 62 0 L 274 0 L 274 222 L 462 222 L 462 0 L 674 0 L 674 468 L 724 468 L 724 598 L 674 598 L 674 658 L 462 658 L 462 598 L 274 598 L 274 658 L 62 658 L 62 598 L 12 598 L 12 468 L 62 468 L 62 0 Z M 274 410 L 274 468 L 462 468 L 462 410 L 274 410 Z" unicode="Ħ" />
<glyph horiz-adv-x="559" d="M 40 0 L 244 0 L 244 303 C 247 309 252 313 259 316 C 265 318 272 320 280 320 C 290 320 299 316 307 310 C 315 303 319 294 319 282 L 319 0 L 523 0 L 523 332 C 523 380 508 418 480 447 C 452 475 417 490 375 490 C 344 490 318 483 296 469 C 274 455 256 439 244 419 L 244 538 L 300 538 L 300 650 L 244 650 L 244 716 L 40 716 L 40 650 L 4 650 L 4 538 L 40 538 L 40 0 Z" unicode="ħ" />
<glyph horiz-adv-x="332" d="M 105 706 C 105 715 106 722 110 727 C 113 732 118 735 125 735 C 127 735 130 734 134 733 C 137 731 141 729 146 726 C 158 717 170 711 180 707 C 190 703 202 701 215 701 C 251 701 278 712 296 736 C 314 760 323 795 323 841 L 231 841 C 230 831 228 824 225 819 C 221 814 217 812 211 812 C 207 812 204 812 201 814 C 198 815 194 818 190 822 C 179 830 168 836 158 840 C 147 844 135 846 121 846 C 85 846 58 834 40 810 C 22 786 13 752 13 706 L 105 706 Z M 60 0 L 272 0 L 272 658 L 60 658 L 60 0 Z" unicode="Ĩ" />
<glyph horiz-adv-x="284" d="M 72 524 C 72 534 73 542 77 548 C 81 553 86 556 94 556 C 97 556 100 555 104 554 C 108 552 112 550 118 546 C 131 536 143 528 155 524 C 167 520 180 518 194 518 C 234 518 264 531 284 557 C 304 583 314 622 314 673 L 212 673 C 211 662 209 654 205 649 C 201 643 196 641 190 641 C 186 641 182 641 179 643 C 175 644 171 647 166 652 C 154 661 142 668 130 672 C 118 676 105 679 90 679 C 50 679 20 665 0 639 C -20 613 -30 574 -30 524 L 72 524 Z M 40 0 L 244 0 L 244 478 L 40 478 L 40 0 Z" unicode="ĩ" />
<glyph horiz-adv-x="332" d="M 57 706 L 283 706 L 283 810 L 57 810 L 57 706 Z M 60 0 L 272 0 L 272 658 L 60 658 L 60 0 Z" unicode="Ī" />
<glyph horiz-adv-x="284" d="M 18 532 L 268 532 L 268 647 L 18 647 L 18 532 Z M 40 0 L 244 0 L 244 478 L 40 478 L 40 0 Z" unicode="ī" />
<glyph horiz-adv-x="332" d="M 168 706 C 208 706 239 718 263 744 C 287 770 299 804 299 848 L 206 848 C 206 835 202 825 195 817 C 188 809 179 806 168 806 C 156 806 147 809 140 817 C 133 825 130 835 130 848 L 37 848 C 37 804 48 770 72 744 C 96 718 128 706 168 706 Z M 60 0 L 272 0 L 272 658 L 60 658 L 60 0 Z" unicode="Ĭ" />
<glyph horiz-adv-x="284" d="M 143 524 C 187 524 222 538 248 567 C 274 595 288 634 288 682 L 185 682 C 185 667 181 655 173 647 C 165 639 155 635 143 635 C 130 635 120 639 112 647 C 104 655 101 667 101 682 L -2 682 C -2 634 11 595 37 567 C 63 538 99 524 143 524 Z M 40 0 L 244 0 L 244 478 L 40 478 L 40 0 Z" unicode="ĭ" />
<glyph horiz-adv-x="332" d="M 205 -220 L 205 -102 C 185 -102 169 -97 159 -88 C 149 -78 144 -67 144 -53 C 144 -38 149 -25 159 -15 C 169 -5 185 0 205 0 L 272 0 L 272 658 L 60 658 L 60 1 C 46 -11 36 -24 29 -40 C 22 -55 19 -71 19 -89 C 19 -127 35 -158 68 -183 C 100 -207 146 -220 205 -220 Z" unicode="Į" />
<glyph horiz-adv-x="284" d="M 40 542 L 244 542 L 244 716 L 40 716 L 40 542 Z M 40 0 L 43 0 C 30 -12 20 -26 13 -41 C 6 -56 3 -72 3 -89 C 3 -127 19 -158 52 -183 C 84 -207 130 -220 189 -220 L 189 -102 C 169 -102 153 -97 143 -88 C 133 -78 128 -67 128 -53 C 128 -38 133 -25 143 -15 C 153 -5 169 0 189 0 L 244 0 L 244 478 L 40 478 L 40 0 Z" unicode="į" />
<glyph horiz-adv-x="332" d="M 105 706 L 231 706 L 231 832 L 105 832 L 105 706 Z M 60 0 L 272 0 L 272 658 L 60 658 L 60 0 Z" unicode="İ" />
<glyph horiz-adv-x="284" d="M 40 0 L 244 0 L 244 478 L 40 478 L 40 0 Z" unicode="ı" />
<glyph horiz-adv-x="335" d="M 132 706 L 165 771 L 199 706 L 322 706 L 237 862 L 101 862 L 16 706 L 132 706 Z M -20 -220 C 79 -220 153 -195 202 -146 C 250 -96 275 -32 275 48 L 275 658 L 63 658 L 63 48 C 63 15 55 -8 40 -24 C 25 -40 5 -48 -20 -48 L -36 -48 L -36 -220 L -20 -220 Z" unicode="Ĵ" />
<glyph horiz-adv-x="282" d="M 102 524 L 139 596 L 176 524 L 313 524 L 219 698 L 67 698 L -27 524 L 102 524 Z M -56 -220 C 33 -220 105 -195 160 -146 C 214 -96 242 -32 242 47 L 242 478 L 38 478 L 38 48 C 38 17 29 -7 12 -27 C -5 -46 -28 -56 -56 -56 L -64 -56 L -64 -220 L -56 -220 Z" unicode="ĵ" />
<glyph horiz-adv-x="733" d="M 60 0 L 272 0 L 272 293 L 467 0 L 715 0 L 477 341 L 717 658 L 490 658 L 272 354 L 272 658 L 60 658 L 60 0 Z M 376 -238 C 397 -220 412 -199 421 -176 C 430 -152 435 -124 435 -90 L 435 -48 L 305 -48 L 305 -91 C 305 -113 302 -134 298 -153 C 294 -172 286 -192 276 -213 L 376 -238 Z" unicode="Ķ" />
<glyph horiz-adv-x="589" d="M 40 0 L 244 0 L 244 186 L 350 0 L 577 0 L 429 256 L 575 478 L 359 478 L 244 295 L 244 716 L 40 716 L 40 0 Z M 304 -251 C 328 -231 345 -208 355 -182 C 365 -156 370 -125 370 -87 L 370 -40 L 226 -40 L 226 -88 C 226 -112 223 -135 219 -156 C 214 -177 205 -199 193 -223 L 304 -251 Z" unicode="ķ" />
<glyph horiz-adv-x="521" d="M 237 706 L 351 848 L 188 848 L 96 706 L 237 706 Z M 60 0 L 497 0 L 497 188 L 272 188 L 272 658 L 60 658 L 60 0 Z" unicode="Ĺ" />
<glyph horiz-adv-x="284" d="M 220 762 L 347 920 L 166 920 L 64 762 L 220 762 Z M 40 0 L 244 0 L 244 716 L 40 716 L 40 0 Z" unicode="ĺ" />
<glyph horiz-adv-x="521" d="M 60 0 L 497 0 L 497 188 L 272 188 L 272 658 L 60 658 L 60 0 Z M 288 -238 C 309 -220 324 -199 333 -176 C 342 -152 347 -124 347 -90 L 347 -48 L 217 -48 L 217 -91 C 217 -113 214 -134 210 -153 C 206 -172 198 -192 188 -213 L 288 -238 Z" unicode="Ļ" />
<glyph horiz-adv-x="284" d="M 40 0 L 244 0 L 244 716 L 40 716 L 40 0 Z M 151 -251 C 175 -231 192 -208 202 -182 C 212 -156 217 -125 217 -87 L 217 -40 L 73 -40 L 73 -88 C 73 -112 70 -135 66 -156 C 61 -177 52 -199 40 -223 L 151 -251 Z" unicode="ļ" />
<glyph horiz-adv-x="521" d="M 60 0 L 497 0 L 497 188 L 272 188 L 272 658 L 60 658 L 60 0 Z M 436 447 C 460 467 477 489 487 515 C 497 541 502 573 502 611 L 502 658 L 358 658 L 358 610 C 358 585 355 562 351 541 C 346 520 337 498 325 475 L 436 447 Z" unicode="Ľ" />
<glyph horiz-adv-x="526" d="M 40 0 L 244 0 L 244 716 L 40 716 L 40 0 Z M 404 505 C 428 525 445 547 455 573 C 465 599 470 631 470 669 L 470 716 L 326 716 L 326 668 C 326 643 323 620 319 599 C 314 578 305 556 293 533 L 404 505 Z" unicode="ľ" />
<glyph horiz-adv-x="521" d="M 60 0 L 497 0 L 497 188 L 272 188 L 272 658 L 60 658 L 60 0 Z M 352 304 L 492 304 L 492 444 L 352 444 L 352 304 Z" unicode="Ŀ" />
<glyph horiz-adv-x="444" d="M 40 0 L 244 0 L 244 716 L 40 716 L 40 0 Z M 294 281 L 434 281 L 434 421 L 294 421 L 294 281 Z" unicode="ŀ" />
<glyph horiz-adv-x="521" d="M 60 0 L 497 0 L 497 188 L 272 188 L 272 307 L 339 321 L 339 494 L 272 480 L 272 658 L 60 658 L 60 436 L 4 424 L 4 251 L 60 263 L 60 0 Z" unicode="Ł" />
<glyph horiz-adv-x="284" d="M 40 0 L 244 0 L 244 312 L 286 322 L 286 494 L 244 484 L 244 716 L 40 716 L 40 433 L 12 426 L 12 254 L 40 261 L 40 0 Z" unicode="ł" />
<glyph horiz-adv-x="776" d="M 457 706 L 571 848 L 408 848 L 316 706 L 457 706 Z M 60 0 L 248 0 L 248 286 L 244 376 L 294 286 L 473 0 L 716 0 L 716 658 L 528 658 L 528 372 L 532 286 L 484 372 L 309 658 L 60 658 L 60 0 Z" unicode="Ń" />
<glyph horiz-adv-x="559" d="M 366 524 L 493 682 L 312 682 L 210 524 L 366 524 Z M 40 0 L 244 0 L 244 303 C 247 309 252 313 259 316 C 265 318 272 320 280 320 C 290 320 299 316 307 310 C 315 303 319 294 319 282 L 319 0 L 523 0 L 523 332 C 523 380 509 418 481 447 C 453 475 418 490 378 490 C 346 490 318 483 296 469 C 274 455 256 438 244 418 L 244 478 L 40 478 L 40 0 Z" unicode="ń" />
<glyph horiz-adv-x="776" d="M 60 0 L 248 0 L 248 286 L 244 376 L 294 286 L 473 0 L 716 0 L 716 658 L 528 658 L 528 372 L 532 286 L 484 372 L 309 658 L 60 658 L 60 0 Z M 392 -254 C 413 -236 428 -215 437 -192 C 446 -168 451 -140 451 -106 L 451 -64 L 321 -64 L 321 -107 C 321 -129 318 -150 314 -169 C 310 -188 302 -208 292 -229 L 392 -254 Z" unicode="Ņ" />
<glyph horiz-adv-x="559" d="M 40 0 L 244 0 L 244 303 C 247 309 252 313 259 316 C 265 318 272 320 280 320 C 290 320 299 316 307 310 C 315 303 319 294 319 282 L 319 0 L 523 0 L 523 332 C 523 380 509 418 481 447 C 453 475 418 490 378 490 C 346 490 318 483 296 469 C 274 455 256 438 244 418 L 244 478 L 40 478 L 40 0 Z M 290 -251 C 314 -231 331 -208 341 -182 C 351 -156 356 -125 356 -87 L 356 -40 L 212 -40 L 212 -88 C 212 -112 209 -135 205 -156 C 200 -177 191 -199 179 -223 L 290 -251 Z" unicode="ņ" />
<glyph horiz-adv-x="776" d="M 317 706 L 453 706 L 538 863 L 422 863 L 389 797 L 355 863 L 232 863 L 317 706 Z M 60 0 L 248 0 L 248 286 L 244 376 L 294 286 L 473 0 L 716 0 L 716 658 L 528 658 L 528 372 L 532 286 L 484 372 L 309 658 L 60 658 L 60 0 Z" unicode="Ň" />
<glyph horiz-adv-x="559" d="M 212 524 L 364 524 L 458 698 L 329 698 L 292 626 L 255 698 L 118 698 L 212 524 Z M 40 0 L 244 0 L 244 303 C 247 309 252 313 259 316 C 265 318 272 320 280 320 C 290 320 299 316 307 310 C 315 303 319 294 319 282 L 319 0 L 523 0 L 523 332 C 523 380 509 418 481 447 C 453 475 418 490 378 490 C 346 490 318 483 296 469 C 274 455 256 438 244 418 L 244 478 L 40 478 L 40 0 Z" unicode="ň" />
<glyph horiz-adv-x="776" d="M 60 0 L 248 0 L 248 286 L 244 376 L 294 286 L 473 0 L 528 0 L 528 -4 C 528 -26 521 -42 509 -54 C 497 -66 482 -72 466 -72 L 458 -72 L 458 -220 L 486 -220 C 557 -220 613 -199 654 -158 C 695 -117 716 -64 716 0 L 716 658 L 528 658 L 528 372 L 532 286 L 484 372 L 309 658 L 60 658 L 60 0 Z" unicode="Ŋ" />
<glyph horiz-adv-x="551" d="M 211 -210 C 304 -210 378 -185 433 -137 C 487 -88 515 -26 515 49 L 515 332 C 515 380 501 418 473 447 C 445 475 410 490 370 490 C 338 490 312 483 292 469 C 272 455 256 438 244 418 L 244 478 L 40 478 L 40 0 L 244 0 L 244 303 C 247 309 251 313 257 316 C 262 318 268 320 276 320 C 286 320 295 316 301 310 C 307 303 311 294 311 282 L 311 50 C 311 20 302 -2 285 -20 C 268 -37 243 -46 211 -46 L 203 -46 L 203 -210 L 211 -210 Z" unicode="ŋ" />
<glyph horiz-adv-x="799" d="M 289 716 L 515 716 L 515 820 L 289 820 L 289 716 Z M 400 -18 C 509 -18 596 13 661 76 C 726 138 759 223 759 329 C 759 435 726 520 661 582 C 596 644 509 676 400 676 C 290 676 202 644 137 582 C 72 520 40 435 40 329 C 40 223 72 138 137 76 C 202 13 290 -18 400 -18 Z M 400 167 C 357 167 323 181 298 210 C 272 239 260 279 260 329 C 260 379 272 418 298 447 C 323 476 357 491 400 491 C 442 491 475 476 501 447 C 526 418 539 379 539 329 C 539 279 526 239 501 210 C 475 181 442 167 400 167 Z" unicode="Ō" />
<glyph horiz-adv-x="568" d="M 160 540 L 410 540 L 410 655 L 160 655 L 160 540 Z M 284 -16 C 363 -16 426 7 473 54 C 520 101 544 164 544 244 C 544 320 520 380 473 426 C 426 471 363 494 284 494 C 204 494 141 471 94 425 C 47 379 24 318 24 242 C 24 163 47 100 94 54 C 141 7 204 -16 284 -16 Z M 284 157 C 269 157 257 164 248 178 C 238 192 234 212 234 240 C 234 266 238 286 248 300 C 257 314 269 321 284 321 C 298 321 310 314 320 300 C 329 286 334 266 334 240 C 334 212 329 192 320 178 C 310 164 298 157 284 157 Z" unicode="ō" />
<glyph horiz-adv-x="799" d="M 400 716 C 440 716 471 728 495 754 C 519 780 531 814 531 858 L 438 858 C 438 845 434 835 427 827 C 420 819 411 816 400 816 C 388 816 379 819 372 827 C 365 835 362 845 362 858 L 269 858 C 269 814 280 780 304 754 C 328 728 360 716 400 716 Z M 400 -18 C 509 -18 596 13 661 76 C 726 138 759 223 759 329 C 759 435 726 520 661 582 C 596 644 509 676 400 676 C 290 676 202 644 137 582 C 72 520 40 435 40 329 C 40 223 72 138 137 76 C 202 13 290 -18 400 -18 Z M 400 167 C 357 167 323 181 298 210 C 272 239 260 279 260 329 C 260 379 272 418 298 447 C 323 476 357 491 400 491 C 442 491 475 476 501 447 C 526 418 539 379 539 329 C 539 279 526 239 501 210 C 475 181 442 167 400 167 Z" unicode="Ŏ" />
<glyph horiz-adv-x="568" d="M 285 532 C 329 532 364 546 390 575 C 416 603 430 642 430 690 L 327 690 C 327 675 323 663 315 655 C 307 647 297 643 285 643 C 272 643 262 647 254 655 C 246 663 243 675 243 690 L 140 690 C 140 642 153 603 179 575 C 205 546 241 532 285 532 Z M 284 -16 C 363 -16 426 7 473 54 C 520 101 544 164 544 244 C 544 320 520 380 473 426 C 426 471 363 494 284 494 C 204 494 141 471 94 425 C 47 379 24 318 24 242 C 24 163 47 100 94 54 C 141 7 204 -16 284 -16 Z M 284 157 C 269 157 257 164 248 178 C 238 192 234 212 234 240 C 234 266 238 286 248 300 C 257 314 269 321 284 321 C 298 321 310 314 320 300 C 329 286 334 266 334 240 C 334 212 329 192 320 178 C 310 164 298 157 284 157 Z" unicode="ŏ" />
<glyph horiz-adv-x="799" d="M 253 716 L 372 716 L 468 858 L 341 858 L 253 716 Z M 425 716 L 544 716 L 648 858 L 521 858 L 425 716 Z M 400 -18 C 509 -18 596 13 661 76 C 726 138 759 223 759 329 C 759 435 726 520 661 582 C 596 644 509 676 400 676 C 290 676 202 644 137 582 C 72 520 40 435 40 329 C 40 223 72 138 137 76 C 202 13 290 -18 400 -18 Z M 400 167 C 357 167 323 181 298 210 C 272 239 260 279 260 329 C 260 379 272 418 298 447 C 323 476 357 491 400 491 C 442 491 475 476 501 447 C 526 418 539 379 539 329 C 539 279 526 239 501 210 C 475 181 442 167 400 167 Z" unicode="Ő" />
<glyph horiz-adv-x="568" d="M 120 540 L 252 540 L 359 698 L 218 698 L 120 540 Z M 311 540 L 443 540 L 559 698 L 418 698 L 311 540 Z M 284 -16 C 363 -16 426 7 473 54 C 520 101 544 164 544 244 C 544 320 520 380 473 426 C 426 471 363 494 284 494 C 204 494 141 471 94 425 C 47 379 24 318 24 242 C 24 163 47 100 94 54 C 141 7 204 -16 284 -16 Z M 284 157 C 269 157 257 164 248 178 C 238 192 234 212 234 240 C 234 266 238 286 248 300 C 257 314 269 321 284 321 C 298 321 310 314 320 300 C 329 286 334 266 334 240 C 334 212 329 192 320 178 C 310 164 298 157 284 157 Z" unicode="ő" />
<glyph horiz-adv-x="915" d="M 427 0 L 871 0 L 871 188 L 647 188 L 647 248 L 843 248 L 843 410 L 647 410 L 647 470 L 860 470 L 860 658 L 427 658 C 311 658 217 631 146 579 C 75 527 40 445 40 333 C 40 220 75 136 146 82 C 217 27 311 0 427 0 Z M 411 188 C 365 188 328 200 301 226 C 273 251 260 287 260 333 C 260 378 273 414 301 440 C 328 466 365 479 411 479 L 435 479 L 435 188 L 411 188 Z" unicode="Œ" />
<glyph horiz-adv-x="821" d="M 284 -16 C 314 -16 341 -11 365 -2 C 389 7 410 19 429 34 C 447 19 469 7 494 -2 C 519 -11 548 -16 580 -16 C 610 -16 643 -13 678 -7 C 713 -1 749 8 785 21 L 785 178 C 761 165 737 155 712 149 C 686 143 661 140 637 140 C 601 140 573 144 554 154 C 534 163 523 178 521 199 L 797 199 L 797 214 C 797 295 778 362 741 414 C 703 466 646 493 570 493 C 540 493 514 488 490 480 C 466 471 445 459 428 445 C 409 459 388 471 364 480 C 340 488 313 493 284 493 C 204 493 141 470 94 425 C 47 379 24 318 24 242 C 24 163 47 100 94 54 C 141 7 204 -16 284 -16 Z M 562 374 C 576 374 586 367 592 355 C 598 343 601 321 601 291 L 520 291 C 520 320 524 341 531 354 C 537 367 548 374 562 374 Z M 282 158 C 267 158 256 164 248 178 C 240 192 236 212 236 240 C 236 266 240 286 248 300 C 256 313 267 320 282 320 C 296 320 308 313 316 300 C 324 286 328 266 328 240 C 328 212 324 192 316 178 C 308 164 296 158 282 158 Z" unicode="œ" />
<glyph horiz-adv-x="672" d="M 393 706 L 507 848 L 344 848 L 252 706 L 393 706 Z M 429 0 L 656 0 L 579 201 C 567 233 549 258 527 276 C 505 294 476 308 440 316 C 484 328 517 349 540 378 C 563 406 575 442 575 485 C 575 539 554 582 512 612 C 470 642 421 658 364 658 L 60 658 L 60 0 L 272 0 L 272 253 L 293 253 C 307 253 320 248 330 238 C 340 228 349 212 358 190 L 429 0 Z M 272 385 L 272 510 L 302 510 C 320 510 335 504 347 493 C 359 481 365 466 365 448 C 365 429 359 414 347 402 C 335 390 320 385 302 385 L 272 385 Z" unicode="Ŕ" />
<glyph horiz-adv-x="419" d="M 308 524 L 435 682 L 254 682 L 152 524 L 308 524 Z M 40 0 L 244 0 L 244 292 C 254 298 267 303 281 307 C 295 311 308 313 321 313 C 337 313 352 311 365 307 C 378 303 392 298 407 291 L 407 480 C 398 483 389 485 380 487 C 370 489 361 490 352 490 C 332 490 312 483 293 470 C 274 457 258 435 244 403 L 244 478 L 40 478 L 40 0 Z" unicode="ŕ" />
<glyph horiz-adv-x="672" d="M 429 0 L 656 0 L 579 201 C 567 233 549 258 527 276 C 505 294 476 308 440 316 C 484 328 517 349 540 378 C 563 406 575 442 575 485 C 575 539 554 582 512 612 C 470 642 421 658 364 658 L 60 658 L 60 0 L 272 0 L 272 253 L 293 253 C 307 253 320 248 330 238 C 340 228 349 212 358 190 L 429 0 Z M 272 385 L 272 510 L 302 510 C 320 510 335 504 347 493 C 359 481 365 466 365 448 C 365 429 359 414 347 402 C 335 390 320 385 302 385 L 272 385 Z M 357 -238 C 378 -220 393 -199 402 -176 C 411 -152 416 -124 416 -90 L 416 -48 L 286 -48 L 286 -91 C 286 -113 283 -134 279 -153 C 275 -172 267 -192 257 -213 L 357 -238 Z" unicode="Ŗ" />
<glyph horiz-adv-x="419" d="M 40 0 L 244 0 L 244 292 C 254 298 267 303 281 307 C 295 311 308 313 321 313 C 337 313 352 311 365 307 C 378 303 392 298 407 291 L 407 480 C 398 483 389 485 380 487 C 370 489 361 490 352 490 C 332 490 312 483 293 470 C 274 457 258 435 244 403 L 244 478 L 40 478 L 40 0 Z M 150 -251 C 174 -231 191 -208 201 -182 C 211 -156 216 -125 216 -87 L 216 -40 L 72 -40 L 72 -88 C 72 -112 69 -135 65 -156 C 60 -177 51 -199 39 -223 L 150 -251 Z" unicode="ŗ" />
<glyph horiz-adv-x="672" d="M 253 706 L 389 706 L 474 863 L 358 863 L 325 797 L 291 863 L 168 863 L 253 706 Z M 429 0 L 656 0 L 579 201 C 567 233 549 258 527 276 C 505 294 476 308 440 316 C 484 328 517 349 540 378 C 563 406 575 442 575 485 C 575 539 554 582 512 612 C 470 642 421 658 364 658 L 60 658 L 60 0 L 272 0 L 272 253 L 293 253 C 307 253 320 248 330 238 C 340 228 349 212 358 190 L 429 0 Z M 272 385 L 272 510 L 302 510 C 320 510 335 504 347 493 C 359 481 365 466 365 448 C 365 429 359 414 347 402 C 335 390 320 385 302 385 L 272 385 Z" unicode="Ř" />
<glyph horiz-adv-x="419" d="M 154 524 L 306 524 L 400 698 L 271 698 L 234 626 L 197 698 L 60 698 L 154 524 Z M 40 0 L 244 0 L 244 292 C 254 298 267 303 281 307 C 295 311 308 313 321 313 C 337 313 352 311 365 307 C 378 303 392 298 407 291 L 407 480 C 398 483 389 485 380 487 C 370 489 361 490 352 490 C 332 490 312 483 293 470 C 274 457 258 435 244 403 L 244 478 L 40 478 L 40 0 Z" unicode="ř" />
<glyph horiz-adv-x="573" d="M 365 714 L 479 856 L 316 856 L 224 714 L 365 714 Z M 263 -12 C 345 -12 411 6 460 44 C 508 81 533 137 533 212 C 533 260 518 302 490 339 C 462 375 417 401 357 416 L 323 424 C 306 428 293 433 285 441 C 276 449 272 457 272 466 C 272 476 276 484 286 489 C 295 493 308 496 324 496 C 352 496 382 492 414 486 C 446 479 475 470 501 459 L 501 639 C 473 649 441 656 406 662 C 371 667 337 670 305 670 C 223 670 159 650 111 610 C 63 570 40 516 40 449 C 40 399 54 357 84 322 C 114 286 159 262 219 248 L 253 240 C 269 236 282 230 291 222 C 300 214 305 206 305 197 C 305 186 300 178 290 173 C 280 167 266 165 250 165 C 219 165 186 169 151 177 C 116 185 82 197 50 213 L 50 30 C 85 16 121 6 159 -1 C 196 -8 231 -12 263 -12 Z" unicode="Ś" />
<glyph horiz-adv-x="485" d="M 315 532 L 442 690 L 261 690 L 159 532 L 315 532 Z M 240 -16 C 314 -16 369 0 406 30 C 442 61 461 101 461 151 C 461 191 449 225 425 253 C 401 281 364 301 313 312 L 265 322 C 259 323 254 326 251 330 C 247 334 246 338 246 343 C 246 349 248 354 254 358 C 260 361 268 363 278 363 C 304 363 329 360 353 354 C 377 348 403 338 431 325 L 431 471 C 398 479 366 484 334 488 C 302 492 269 494 236 494 C 164 494 111 479 76 449 C 41 419 24 379 24 329 C 24 289 35 256 57 230 C 79 203 115 184 163 174 L 211 163 C 219 161 226 158 231 154 C 235 150 238 146 238 141 C 238 134 235 129 229 126 C 223 122 216 121 208 121 C 178 121 148 124 120 132 C 92 139 63 150 35 164 L 35 8 C 69 0 103 -6 137 -10 C 171 -14 205 -16 240 -16 Z" unicode="ś" />
<glyph horiz-adv-x="573" d="M 260 714 L 293 779 L 327 714 L 450 714 L 365 870 L 229 870 L 144 714 L 260 714 Z M 263 -12 C 345 -12 411 6 460 44 C 508 81 533 137 533 212 C 533 260 518 302 490 339 C 462 375 417 401 357 416 L 323 424 C 306 428 293 433 285 441 C 276 449 272 457 272 466 C 272 476 276 484 286 489 C 295 493 308 496 324 496 C 352 496 382 492 414 486 C 446 479 475 470 501 459 L 501 639 C 473 649 441 656 406 662 C 371 667 337 670 305 670 C 223 670 159 650 111 610 C 63 570 40 516 40 449 C 40 399 54 357 84 322 C 114 286 159 262 219 248 L 253 240 C 269 236 282 230 291 222 C 300 214 305 206 305 197 C 305 186 300 178 290 173 C 280 167 266 165 250 165 C 219 165 186 169 151 177 C 116 185 82 197 50 213 L 50 30 C 85 16 121 6 159 -1 C 196 -8 231 -12 263 -12 Z" unicode="Ŝ" />
<glyph horiz-adv-x="485" d="M 200 532 L 237 604 L 274 532 L 411 532 L 317 706 L 165 706 L 71 532 L 200 532 Z M 240 -16 C 314 -16 369 0 406 30 C 442 61 461 101 461 151 C 461 191 449 225 425 253 C 401 281 364 301 313 312 L 265 322 C 259 323 254 326 251 330 C 247 334 246 338 246 343 C 246 349 248 354 254 358 C 260 361 268 363 278 363 C 304 363 329 360 353 354 C 377 348 403 338 431 325 L 431 471 C 398 479 366 484 334 488 C 302 492 269 494 236 494 C 164 494 111 479 76 449 C 41 419 24 379 24 329 C 24 289 35 256 57 230 C 79 203 115 184 163 174 L 211 163 C 219 161 226 158 231 154 C 235 150 238 146 238 141 C 238 134 235 129 229 126 C 223 122 216 121 208 121 C 178 121 148 124 120 132 C 92 139 63 150 35 164 L 35 8 C 69 0 103 -6 137 -10 C 171 -14 205 -16 240 -16 Z" unicode="ŝ" />
<glyph horiz-adv-x="573" d="M 263 -12 C 345 -12 411 6 460 44 C 508 81 533 137 533 212 C 533 260 518 302 490 339 C 462 375 417 401 357 416 L 323 424 C 306 428 293 433 285 441 C 276 449 272 457 272 466 C 272 476 276 484 286 489 C 295 493 308 496 324 496 C 352 496 382 492 414 486 C 446 479 475 470 501 459 L 501 639 C 473 649 441 656 406 662 C 371 667 337 670 305 670 C 223 670 159 650 111 610 C 63 570 40 516 40 449 C 40 399 54 357 84 322 C 114 286 159 262 219 248 L 253 240 C 269 236 282 230 291 222 C 300 214 305 206 305 197 C 305 186 300 178 290 173 C 280 167 266 165 250 165 C 219 165 186 169 151 177 C 116 185 82 197 50 213 L 50 30 C 85 16 121 6 159 -1 C 196 -8 231 -12 263 -12 Z M 305 -242 C 337 -242 363 -233 383 -217 C 403 -201 413 -176 413 -144 C 413 -111 401 -86 377 -70 C 353 -54 322 -46 285 -46 L 274 -46 L 274 -116 L 281 -116 C 289 -116 296 -118 301 -122 C 306 -126 309 -132 309 -139 C 309 -145 306 -151 302 -156 C 297 -160 290 -163 282 -163 C 274 -163 266 -161 258 -158 C 250 -155 241 -152 233 -148 L 233 -232 C 244 -235 255 -237 266 -239 C 277 -241 290 -242 305 -242 Z" unicode="Ş" />
<glyph horiz-adv-x="485" d="M 240 -16 C 314 -16 369 0 406 30 C 442 61 461 101 461 151 C 461 191 449 225 425 253 C 401 281 364 301 313 312 L 265 322 C 259 323 254 326 251 330 C 247 334 246 338 246 343 C 246 349 248 354 254 358 C 260 361 268 363 278 363 C 304 363 329 360 353 354 C 377 348 403 338 431 325 L 431 471 C 398 479 366 484 334 488 C 302 492 269 494 236 494 C 164 494 111 479 76 449 C 41 419 24 379 24 329 C 24 289 35 256 57 230 C 79 203 115 184 163 174 L 211 163 C 219 161 226 158 231 154 C 235 150 238 146 238 141 C 238 134 235 129 229 126 C 223 122 216 121 208 121 C 178 121 148 124 120 132 C 92 139 63 150 35 164 L 35 8 C 69 0 103 -6 137 -10 C 171 -14 205 -16 240 -16 Z M 264 -253 C 298 -253 325 -244 347 -226 C 368 -208 379 -183 379 -149 C 379 -115 366 -89 341 -71 C 315 -53 283 -44 243 -44 L 231 -44 L 231 -119 L 239 -119 C 247 -119 254 -121 260 -126 C 266 -130 269 -136 269 -143 C 269 -150 266 -156 261 -161 C 255 -165 248 -168 240 -168 C 231 -168 222 -166 213 -164 C 204 -161 195 -157 187 -153 L 187 -242 C 199 -246 211 -248 223 -250 C 235 -252 248 -253 264 -253 Z" unicode="ş" />
<glyph horiz-adv-x="573" d="M 225 714 L 361 714 L 446 871 L 330 871 L 297 805 L 263 871 L 140 871 L 225 714 Z M 263 -12 C 345 -12 411 6 460 44 C 508 81 533 137 533 212 C 533 260 518 302 490 339 C 462 375 417 401 357 416 L 323 424 C 306 428 293 433 285 441 C 276 449 272 457 272 466 C 272 476 276 484 286 489 C 295 493 308 496 324 496 C 352 496 382 492 414 486 C 446 479 475 470 501 459 L 501 639 C 473 649 441 656 406 662 C 371 667 337 670 305 670 C 223 670 159 650 111 610 C 63 570 40 516 40 449 C 40 399 54 357 84 322 C 114 286 159 262 219 248 L 253 240 C 269 236 282 230 291 222 C 300 214 305 206 305 197 C 305 186 300 178 290 173 C 280 167 266 165 250 165 C 219 165 186 169 151 177 C 116 185 82 197 50 213 L 50 30 C 85 16 121 6 159 -1 C 196 -8 231 -12 263 -12 Z" unicode="Š" />
<glyph horiz-adv-x="485" d="M 161 532 L 313 532 L 407 706 L 278 706 L 241 634 L 204 706 L 67 706 L 161 532 Z M 240 -16 C 314 -16 369 0 406 30 C 442 61 461 101 461 151 C 461 191 449 225 425 253 C 401 281 364 301 313 312 L 265 322 C 259 323 254 326 251 330 C 247 334 246 338 246 343 C 246 349 248 354 254 358 C 260 361 268 363 278 363 C 304 363 329 360 353 354 C 377 348 403 338 431 325 L 431 471 C 398 479 366 484 334 488 C 302 492 269 494 236 494 C 164 494 111 479 76 449 C 41 419 24 379 24 329 C 24 289 35 256 57 230 C 79 203 115 184 163 174 L 211 163 C 219 161 226 158 231 154 C 235 150 238 146 238 141 C 238 134 235 129 229 126 C 223 122 216 121 208 121 C 178 121 148 124 120 132 C 92 139 63 150 35 164 L 35 8 C 69 0 103 -6 137 -10 C 171 -14 205 -16 240 -16 Z" unicode="š" />
<glyph horiz-adv-x="568" d="M 178 0 L 390 0 L 390 470 L 548 470 L 548 658 L 20 658 L 20 470 L 178 470 L 178 0 Z M 308 -234 C 340 -234 366 -225 386 -209 C 406 -193 416 -168 416 -136 C 416 -103 404 -78 380 -62 C 356 -46 325 -38 288 -38 L 277 -38 L 277 -108 L 284 -108 C 292 -108 299 -110 304 -114 C 309 -118 312 -124 312 -131 C 312 -137 309 -143 305 -148 C 300 -152 293 -155 285 -155 C 277 -155 269 -153 261 -150 C 253 -147 244 -144 236 -140 L 236 -224 C 247 -227 258 -229 269 -231 C 280 -233 293 -234 308 -234 Z" unicode="Ţ" />
<glyph horiz-adv-x="397" d="M 239 -12 C 261 -12 284 -10 306 -6 C 328 -2 350 4 373 13 L 373 183 C 366 177 358 173 350 170 C 342 167 333 166 325 166 C 312 166 302 170 294 179 C 286 187 283 199 283 214 L 283 314 L 365 314 L 365 478 L 283 478 L 283 616 L 79 616 L 79 478 L 24 478 L 24 314 L 79 314 L 79 156 C 79 104 93 63 122 33 C 151 3 190 -12 239 -12 Z M 262 -257 C 296 -257 323 -248 345 -230 C 366 -212 377 -187 377 -153 C 377 -119 364 -93 339 -75 C 313 -57 281 -48 241 -48 L 229 -48 L 229 -123 L 237 -123 C 245 -123 252 -125 258 -130 C 264 -134 267 -140 267 -147 C 267 -154 264 -160 259 -165 C 253 -169 246 -172 238 -172 C 229 -172 220 -170 211 -168 C 202 -165 193 -161 185 -157 L 185 -246 C 197 -250 209 -252 221 -254 C 233 -256 246 -257 262 -257 Z" unicode="ţ" />
<glyph horiz-adv-x="568" d="M 213 706 L 349 706 L 434 863 L 318 863 L 285 797 L 251 863 L 128 863 L 213 706 Z M 178 0 L 390 0 L 390 470 L 548 470 L 548 658 L 20 658 L 20 470 L 178 470 L 178 0 Z" unicode="Ť" />
<glyph horiz-adv-x="558" d="M 436 536 C 460 556 477 578 487 604 C 497 630 502 662 502 700 L 502 747 L 358 747 L 358 699 C 358 674 355 651 351 630 C 346 609 337 587 325 564 L 436 536 Z M 239 -12 C 261 -12 284 -10 306 -6 C 328 -2 350 4 373 13 L 373 183 C 366 177 358 173 350 170 C 342 167 333 166 325 166 C 312 166 302 170 294 179 C 286 187 283 199 283 214 L 283 314 L 365 314 L 365 478 L 283 478 L 283 616 L 79 616 L 79 478 L 24 478 L 24 314 L 79 314 L 79 156 C 79 104 93 63 122 33 C 151 3 190 -12 239 -12 Z" unicode="ť" />
<glyph horiz-adv-x="568" d="M 178 0 L 390 0 L 390 238 L 483 238 L 483 353 L 390 353 L 390 470 L 548 470 L 548 658 L 20 658 L 20 470 L 178 470 L 178 353 L 78 353 L 78 238 L 178 238 L 178 0 Z" unicode="Ŧ" />
<glyph horiz-adv-x="397" d="M 42 216 L 79 216 L 79 156 C 79 104 93 63 122 33 C 151 3 190 -12 239 -12 C 261 -12 284 -10 306 -6 C 328 -2 350 4 373 13 L 373 183 C 366 177 358 173 350 170 C 342 167 333 166 325 166 C 312 166 302 170 294 179 C 286 187 283 199 283 214 L 283 216 L 351 216 L 351 282 L 283 282 L 283 314 L 365 314 L 365 478 L 283 478 L 283 616 L 79 616 L 79 478 L 24 478 L 24 314 L 79 314 L 79 282 L 42 282 L 42 216 Z" unicode="ŧ" />
<glyph horiz-adv-x="713" d="M 304 706 C 304 715 305 722 309 727 C 312 732 317 735 324 735 C 326 735 329 734 333 733 C 336 731 340 729 345 726 C 357 717 369 711 379 707 C 389 703 401 701 414 701 C 450 701 477 712 495 736 C 513 760 522 795 522 841 L 430 841 C 429 831 427 824 424 819 C 420 814 416 812 410 812 C 406 812 403 812 400 814 C 397 815 393 818 389 822 C 378 830 367 836 357 840 C 346 844 334 846 320 846 C 284 846 257 834 239 810 C 221 786 212 752 212 706 L 304 706 Z M 361 -12 C 447 -12 518 13 574 65 C 629 116 657 183 657 267 L 657 658 L 453 658 L 453 283 C 453 257 445 235 429 218 C 413 200 392 192 366 192 C 339 192 318 200 303 218 C 287 235 280 257 280 283 L 280 658 L 56 658 L 56 267 C 56 183 84 116 141 65 C 198 13 271 -12 361 -12 Z" unicode="Ũ" />
<glyph horiz-adv-x="559" d="M 208 524 C 208 534 209 542 213 548 C 217 553 222 556 230 556 C 233 556 236 555 240 554 C 244 552 248 550 254 546 C 267 536 279 528 291 524 C 303 520 316 518 330 518 C 370 518 400 531 420 557 C 440 583 450 622 450 673 L 348 673 C 347 662 345 654 341 649 C 337 643 332 641 326 641 C 322 641 318 641 315 643 C 311 644 307 647 302 652 C 290 661 278 668 266 672 C 254 676 241 679 226 679 C 186 679 156 665 136 639 C 116 613 106 574 106 524 L 208 524 Z M 193 -12 C 215 -12 238 -5 262 7 C 285 20 303 38 315 60 L 323 0 L 519 0 L 519 478 L 315 478 L 315 175 C 311 169 306 164 300 162 C 293 159 286 158 279 158 C 268 158 259 161 251 168 C 243 174 240 184 240 196 L 240 478 L 36 478 L 36 146 C 36 98 50 59 79 31 C 108 2 146 -12 193 -12 Z" unicode="ũ" />
<glyph horiz-adv-x="713" d="M 256 706 L 482 706 L 482 810 L 256 810 L 256 706 Z M 361 -12 C 447 -12 518 13 574 65 C 629 116 657 183 657 267 L 657 658 L 453 658 L 453 283 C 453 257 445 235 429 218 C 413 200 392 192 366 192 C 339 192 318 200 303 218 C 287 235 280 257 280 283 L 280 658 L 56 658 L 56 267 C 56 183 84 116 141 65 C 198 13 271 -12 361 -12 Z" unicode="Ū" />
<glyph horiz-adv-x="559" d="M 154 532 L 404 532 L 404 647 L 154 647 L 154 532 Z M 193 -12 C 215 -12 238 -5 262 7 C 285 20 303 38 315 60 L 323 0 L 519 0 L 519 478 L 315 478 L 315 175 C 311 169 306 164 300 162 C 293 159 286 158 279 158 C 268 158 259 161 251 168 C 243 174 240 184 240 196 L 240 478 L 36 478 L 36 146 C 36 98 50 59 79 31 C 108 2 146 -12 193 -12 Z" unicode="ū" />
<glyph horiz-adv-x="713" d="M 367 706 C 407 706 438 718 462 744 C 486 770 498 804 498 848 L 405 848 C 405 835 401 825 394 817 C 387 809 378 806 367 806 C 355 806 346 809 339 817 C 332 825 329 835 329 848 L 236 848 C 236 804 247 770 271 744 C 295 718 327 706 367 706 Z M 361 -12 C 447 -12 518 13 574 65 C 629 116 657 183 657 267 L 657 658 L 453 658 L 453 283 C 453 257 445 235 429 218 C 413 200 392 192 366 192 C 339 192 318 200 303 218 C 287 235 280 257 280 283 L 280 658 L 56 658 L 56 267 C 56 183 84 116 141 65 C 198 13 271 -12 361 -12 Z" unicode="Ŭ" />
<glyph horiz-adv-x="559" d="M 279 524 C 323 524 358 538 384 567 C 410 595 424 634 424 682 L 321 682 C 321 667 317 655 309 647 C 301 639 291 635 279 635 C 266 635 256 639 248 647 C 240 655 237 667 237 682 L 134 682 C 134 634 147 595 173 567 C 199 538 235 524 279 524 Z M 193 -12 C 215 -12 238 -5 262 7 C 285 20 303 38 315 60 L 323 0 L 519 0 L 519 478 L 315 478 L 315 175 C 311 169 306 164 300 162 C 293 159 286 158 279 158 C 268 158 259 161 251 168 C 243 174 240 184 240 196 L 240 478 L 36 478 L 36 146 C 36 98 50 59 79 31 C 108 2 146 -12 193 -12 Z" unicode="ŭ" />
<glyph horiz-adv-x="713" d="M 361 -12 C 447 -12 518 13 574 65 C 629 116 657 183 657 267 L 657 658 L 491 658 C 493 664 494 671 495 678 C 496 685 497 692 497 700 C 497 735 485 765 461 789 C 437 813 406 826 367 826 C 327 826 296 813 272 789 C 248 765 237 735 237 700 C 237 692 237 685 238 678 C 239 671 241 664 243 658 L 56 658 L 56 267 C 56 183 84 116 141 65 C 198 13 271 -12 361 -12 Z M 367 658 C 355 658 346 661 338 669 C 330 676 326 686 326 699 C 326 711 330 721 338 728 C 346 735 355 739 367 739 C 378 739 388 735 396 728 C 404 721 408 711 408 699 C 408 686 404 676 396 669 C 388 661 378 658 367 658 Z M 367 572 C 384 572 400 574 415 580 C 429 585 442 592 453 601 L 453 283 C 453 257 445 235 429 218 C 413 200 392 192 366 192 C 339 192 318 200 303 218 C 287 235 280 257 280 283 L 280 602 C 290 592 303 585 318 580 C 333 574 349 572 367 572 Z" unicode="Ů" />
<glyph horiz-adv-x="559" d="M 278 516 C 322 516 357 529 383 557 C 409 584 422 618 422 658 C 422 697 409 730 383 757 C 357 784 322 798 278 798 C 234 798 199 784 173 757 C 147 730 134 697 134 658 C 134 618 147 584 173 557 C 199 529 234 516 278 516 Z M 278 612 C 265 612 254 615 245 623 C 236 631 232 642 232 657 C 232 671 236 682 245 690 C 254 698 265 702 278 702 C 290 702 301 698 310 690 C 319 682 324 671 324 657 C 324 642 319 631 310 623 C 301 615 290 612 278 612 Z M 193 -12 C 215 -12 238 -5 262 7 C 285 20 303 38 315 60 L 323 0 L 519 0 L 519 478 L 315 478 L 315 175 C 311 169 306 164 300 162 C 293 159 286 158 279 158 C 268 158 259 161 251 168 C 243 174 240 184 240 196 L 240 478 L 36 478 L 36 146 C 36 98 50 59 79 31 C 108 2 146 -12 193 -12 Z" unicode="ů" />
<glyph horiz-adv-x="713" d="M 220 706 L 339 706 L 435 848 L 308 848 L 220 706 Z M 392 706 L 511 706 L 615 848 L 488 848 L 392 706 Z M 361 -12 C 447 -12 518 13 574 65 C 629 116 657 183 657 267 L 657 658 L 453 658 L 453 283 C 453 257 445 235 429 218 C 413 200 392 192 366 192 C 339 192 318 200 303 218 C 287 235 280 257 280 283 L 280 658 L 56 658 L 56 267 C 56 183 84 116 141 65 C 198 13 271 -12 361 -12 Z" unicode="Ű" />
<glyph horiz-adv-x="559" d="M 114 532 L 246 532 L 353 690 L 212 690 L 114 532 Z M 305 532 L 437 532 L 553 690 L 412 690 L 305 532 Z M 193 -12 C 215 -12 238 -5 262 7 C 285 20 303 38 315 60 L 323 0 L 519 0 L 519 478 L 315 478 L 315 175 C 311 169 306 164 300 162 C 293 159 286 158 279 158 C 268 158 259 161 251 168 C 243 174 240 184 240 196 L 240 478 L 36 478 L 36 146 C 36 98 50 59 79 31 C 108 2 146 -12 193 -12 Z" unicode="ű" />
<glyph horiz-adv-x="713" d="M 512 -220 L 512 -102 C 490 -102 474 -96 463 -85 C 452 -74 447 -61 447 -46 C 447 -34 450 -23 457 -13 C 463 -3 475 4 492 11 C 540 31 580 64 611 108 C 641 152 657 205 657 267 L 657 658 L 453 658 L 453 283 C 453 257 445 235 429 218 C 413 200 392 192 366 192 C 339 192 318 200 303 218 C 287 235 280 257 280 283 L 280 658 L 56 658 L 56 267 C 56 187 81 122 133 72 C 185 21 252 -6 335 -11 C 328 -21 323 -32 319 -44 C 315 -56 314 -68 314 -81 C 314 -121 331 -155 366 -181 C 400 -207 449 -220 512 -220 Z" unicode="Ų" />
<glyph horiz-adv-x="559" d="M 193 -12 C 215 -12 238 -5 262 7 C 285 20 303 38 315 60 L 323 0 L 330 0 C 317 -12 307 -26 300 -41 C 293 -56 290 -72 290 -89 C 290 -127 306 -158 339 -183 C 371 -207 417 -220 476 -220 L 476 -102 C 456 -102 440 -97 430 -88 C 420 -78 415 -67 415 -53 C 415 -38 420 -25 430 -15 C 440 -5 456 0 476 0 L 519 0 L 519 478 L 315 478 L 315 175 C 311 169 306 164 300 162 C 293 159 286 158 279 158 C 268 158 259 161 251 168 C 243 174 240 184 240 196 L 240 478 L 36 478 L 36 146 C 36 98 50 59 79 31 C 108 2 146 -12 193 -12 Z" unicode="ų" />
<glyph horiz-adv-x="1098" d="M 514 706 L 547 771 L 581 706 L 704 706 L 619 862 L 483 862 L 398 706 L 514 706 Z M 205 0 L 444 0 L 512 238 L 545 377 L 576 238 L 645 0 L 887 0 L 1086 658 L 878 658 L 799 364 L 771 250 L 743 364 L 664 658 L 450 658 L 370 364 L 342 245 L 316 364 L 236 658 L 12 658 L 205 0 Z" unicode="Ŵ" />
<glyph horiz-adv-x="907" d="M 415 524 L 452 596 L 489 524 L 626 524 L 532 698 L 380 698 L 286 524 L 415 524 Z M 156 0 L 377 0 L 410 116 L 443 241 L 477 116 L 511 0 L 732 0 L 895 478 L 714 478 L 665 320 L 630 196 L 594 320 L 546 478 L 360 478 L 316 320 L 287 197 L 260 320 L 220 478 L 12 478 L 156 0 Z" unicode="ŵ" />
<glyph horiz-adv-x="705" d="M 330 706 L 363 771 L 397 706 L 520 706 L 435 862 L 299 862 L 214 706 L 330 706 Z M 250 0 L 462 0 L 462 220 L 693 658 L 476 658 L 398 485 L 367 413 L 336 485 L 258 658 L 12 658 L 250 213 L 250 0 Z" unicode="Ŷ" />
<glyph horiz-adv-x="573" d="M 256 524 L 293 596 L 330 524 L 467 524 L 373 698 L 221 698 L 127 524 L 256 524 Z M 51 -220 C 149 -220 230 -198 293 -156 C 356 -113 405 -36 439 75 L 561 478 L 372 478 L 334 320 L 301 169 L 269 320 L 231 478 L 12 478 L 165 4 L 203 1 C 187 -17 169 -30 148 -36 C 127 -42 95 -45 51 -45 L 43 -45 L 43 -220 L 51 -220 Z" unicode="ŷ" />
<glyph horiz-adv-x="705" d="M 218 706 L 344 706 L 344 832 L 218 832 L 218 706 Z M 390 706 L 516 706 L 516 832 L 390 832 L 390 706 Z M 250 0 L 462 0 L 462 220 L 693 658 L 476 658 L 398 485 L 367 413 L 336 485 L 258 658 L 12 658 L 250 213 L 250 0 Z" unicode="Ÿ" />
<glyph horiz-adv-x="675" d="M 415 706 L 529 848 L 366 848 L 274 706 L 415 706 Z M 52 0 L 622 0 L 622 188 L 360 188 L 414 255 L 623 538 L 623 658 L 56 658 L 56 470 L 317 470 L 263 403 L 52 120 L 52 0 Z" unicode="Ź" />
<glyph horiz-adv-x="521" d="M 346 524 L 473 682 L 292 682 L 190 524 L 346 524 Z M 32 0 L 489 0 L 489 166 L 313 166 L 363 227 L 480 381 L 480 478 L 36 478 L 36 312 L 199 312 L 149 251 L 32 97 L 32 0 Z" unicode="ź" />
<glyph horiz-adv-x="675" d="M 282 706 L 408 706 L 408 832 L 282 832 L 282 706 Z M 52 0 L 622 0 L 622 188 L 360 188 L 414 255 L 623 538 L 623 658 L 56 658 L 56 470 L 317 470 L 263 403 L 52 120 L 52 0 Z" unicode="Ż" />
<glyph horiz-adv-x="521" d="M 198 524 L 338 524 L 338 664 L 198 664 L 198 524 Z M 32 0 L 489 0 L 489 166 L 313 166 L 363 227 L 480 381 L 480 478 L 36 478 L 36 312 L 199 312 L 149 251 L 32 97 L 32 0 Z" unicode="ż" />
<glyph horiz-adv-x="675" d="M 275 706 L 411 706 L 496 863 L 380 863 L 347 797 L 313 863 L 190 863 L 275 706 Z M 52 0 L 622 0 L 622 188 L 360 188 L 414 255 L 623 538 L 623 658 L 56 658 L 56 470 L 317 470 L 263 403 L 52 120 L 52 0 Z" unicode="Ž" />
<glyph horiz-adv-x="521" d="M 192 524 L 344 524 L 438 698 L 309 698 L 272 626 L 235 698 L 98 698 L 192 524 Z M 32 0 L 489 0 L 489 166 L 313 166 L 363 227 L 480 381 L 480 478 L 36 478 L 36 312 L 199 312 L 149 251 L 32 97 L 32 0 Z" unicode="ž" />
<glyph horiz-adv-x="566" d="M 137 -220 C 193 -220 239 -203 276 -171 C 313 -138 336 -94 344 -39 L 393 309 L 494 309 L 494 473 L 416 473 L 421 510 C 423 522 427 532 435 540 C 443 547 454 551 468 551 C 479 551 490 550 501 548 C 512 546 523 544 534 541 L 534 713 C 516 717 498 721 481 724 C 463 726 446 728 429 728 C 373 728 326 713 290 683 C 253 653 230 607 222 547 L 212 473 L 124 473 L 124 309 L 189 309 L 145 -2 C 143 -14 137 -24 129 -32 C 121 -39 110 -43 98 -43 C 86 -43 75 -42 64 -40 C 53 -38 42 -36 32 -33 L 32 -205 C 50 -209 67 -213 85 -216 C 102 -218 119 -220 137 -220 Z" unicode="ƒ" />
<glyph horiz-adv-x="710" d="M 327 718 L 463 718 L 548 875 L 432 875 L 399 809 L 365 875 L 242 875 L 327 718 Z M 397 -12 C 449 -12 497 -8 542 -2 C 587 4 630 14 670 28 L 670 399 L 379 399 L 379 249 L 468 249 L 468 177 C 457 173 446 171 435 170 C 424 169 413 169 403 169 C 361 169 326 183 300 213 C 273 242 260 281 260 331 C 260 377 275 414 306 441 C 336 468 374 482 418 482 C 454 482 488 479 522 473 C 555 467 589 458 623 447 L 623 640 C 586 650 549 657 513 662 C 477 667 440 670 404 670 C 297 670 210 639 142 577 C 74 515 40 431 40 324 C 40 223 73 142 139 80 C 205 18 291 -12 397 -12 Z" unicode="Ǧ" />
<glyph horiz-adv-x="564" d="M 191 534 L 343 534 L 437 708 L 308 708 L 271 636 L 234 708 L 97 708 L 191 534 Z M 273 -220 C 333 -220 390 -201 444 -164 C 497 -127 524 -63 524 27 L 524 478 L 441 478 L 403 418 C 390 440 371 459 346 473 C 320 487 293 494 265 494 C 203 494 147 472 98 428 C 48 384 24 316 24 226 C 24 153 40 95 73 52 C 105 9 151 -12 210 -12 C 231 -12 251 -7 271 2 C 291 12 307 27 320 47 L 320 11 C 320 -29 304 -52 274 -60 C 244 -68 221 -72 207 -72 C 183 -72 157 -68 130 -60 C 103 -52 78 -39 56 -23 L 56 -182 C 90 -194 124 -204 160 -210 C 196 -216 233 -220 273 -220 Z M 282 156 C 267 156 255 163 247 177 C 238 191 234 211 234 236 C 234 259 238 278 247 292 C 256 306 268 314 284 314 C 290 314 295 313 301 312 C 307 310 312 308 318 306 L 318 167 C 313 163 307 161 301 159 C 295 157 288 156 282 156 Z" unicode="ǧ" />
<glyph horiz-adv-x="756" d="M 318 832 L 434 832 L 496 926 L 376 926 L 318 832 Z M 12 0 L 210 0 L 246 96 L 479 96 L 515 0 L 744 0 L 489 640 C 492 648 494 656 496 665 C 498 673 499 682 499 691 C 499 723 488 751 466 775 C 444 799 415 811 379 811 C 342 811 313 799 291 775 C 269 751 259 723 259 691 C 259 682 259 673 261 665 C 263 657 265 649 268 642 L 12 0 Z M 379 658 C 370 658 362 660 356 666 C 349 672 346 680 346 691 C 346 701 349 710 356 716 C 362 722 370 725 379 725 C 387 725 395 722 402 716 C 408 710 412 701 412 691 C 412 680 408 672 402 666 C 395 660 387 658 379 658 Z M 297 232 L 320 294 L 363 418 L 405 294 L 428 232 L 297 232 Z" unicode="Ǻ" />
<glyph horiz-adv-x="535" d="M 201 688 L 330 688 L 399 792 L 266 792 L 201 688 Z M 171 -12 C 200 -12 225 -6 245 4 C 265 15 282 32 296 55 L 306 0 L 499 0 L 499 324 C 499 358 489 387 469 413 C 449 438 423 457 389 471 C 393 479 397 489 399 499 C 401 509 402 520 402 531 C 402 567 390 598 366 624 C 342 650 309 664 269 664 C 228 664 196 650 172 624 C 148 598 136 567 136 531 C 136 522 136 514 138 506 C 139 498 141 491 144 484 C 128 481 112 478 97 474 C 82 470 67 465 52 460 L 52 311 C 76 325 101 336 127 344 C 152 351 178 355 206 355 C 236 355 258 351 273 344 C 287 337 295 326 295 312 L 295 298 L 216 285 C 156 275 109 258 75 234 C 41 210 24 174 24 124 C 24 86 37 54 65 28 C 93 1 128 -12 171 -12 Z M 269 494 C 259 494 250 497 243 504 C 235 510 232 519 232 531 C 232 542 235 551 243 558 C 250 565 259 569 269 569 C 279 569 287 565 295 558 C 302 551 306 542 306 531 C 306 519 302 510 295 504 C 287 497 279 494 269 494 Z M 263 127 C 253 127 245 130 239 137 C 232 143 229 152 229 163 C 229 175 232 184 239 191 C 245 198 253 202 262 204 L 295 209 L 295 145 C 292 139 287 135 281 132 C 275 128 269 127 263 127 Z" unicode="ǻ" />
<glyph horiz-adv-x="961" d="M 694 706 L 808 848 L 645 848 L 553 706 L 694 706 Z M 12 0 L 225 0 L 293 126 L 481 126 L 481 0 L 917 0 L 917 188 L 693 188 L 693 248 L 889 248 L 889 410 L 693 410 L 693 470 L 906 470 L 906 658 L 369 658 L 12 0 Z M 376 279 L 424 368 L 481 477 L 481 279 L 376 279 Z" unicode="Ǽ" />
<glyph horiz-adv-x="799" d="M 475 524 L 602 682 L 421 682 L 319 524 L 475 524 Z M 177 -12 C 215 -12 247 -4 274 10 C 301 25 325 48 345 79 C 367 50 397 28 433 12 C 469 -4 511 -12 558 -12 C 588 -12 621 -9 656 -3 C 691 3 727 12 763 24 L 763 177 C 739 164 715 155 690 149 C 664 143 639 140 615 140 C 579 140 551 144 532 153 C 512 162 501 177 499 198 L 775 198 L 775 212 C 775 296 756 362 719 411 C 681 460 624 485 548 485 C 521 485 496 482 473 477 C 449 471 428 464 410 454 C 390 464 368 471 342 477 C 316 482 289 485 259 485 C 217 485 180 482 148 476 C 116 470 84 462 52 452 L 52 303 C 76 317 101 328 126 336 C 150 343 177 347 206 347 C 236 347 258 343 273 336 C 287 329 295 318 295 304 L 295 298 L 216 285 C 156 275 109 258 75 234 C 41 210 24 174 24 124 C 24 86 38 54 66 28 C 94 1 131 -12 177 -12 Z M 540 373 C 554 373 564 367 570 355 C 576 343 579 323 579 295 L 498 295 C 498 322 502 342 509 354 C 515 366 526 373 540 373 Z M 263 134 C 253 134 245 137 239 143 C 232 149 229 157 229 167 C 229 177 232 186 239 192 C 245 198 253 202 262 204 L 295 209 L 295 152 C 292 146 287 142 281 139 C 275 135 269 134 263 134 Z" unicode="ǽ" />
<glyph horiz-adv-x="799" d="M 473 714 L 587 856 L 424 856 L 332 714 L 473 714 Z M 80 -48 L 258 -48 L 285 -4 C 302 -8 320 -12 340 -14 C 359 -16 379 -18 400 -18 C 509 -18 596 13 661 76 C 726 138 759 223 759 329 C 759 385 749 435 731 480 C 712 524 686 562 652 592 L 722 706 L 544 706 L 517 662 C 499 666 480 670 460 672 C 440 674 420 676 400 676 C 290 676 202 644 137 582 C 72 520 40 435 40 329 C 40 273 49 222 68 177 C 87 132 114 94 149 64 L 80 -48 Z M 400 167 C 357 167 323 181 298 210 C 272 239 260 279 260 329 C 260 379 272 418 298 447 C 323 476 357 491 400 491 C 442 491 475 476 501 447 C 526 418 539 379 539 329 C 539 279 526 239 501 210 C 475 181 442 167 400 167 Z" unicode="Ǿ" />
<glyph horiz-adv-x="568" d="M 336 533 L 463 691 L 282 691 L 180 533 L 336 533 Z M 40 -48 L 183 -48 L 208 -7 C 219 -9 231 -11 244 -13 C 257 -15 270 -16 284 -16 C 363 -16 426 7 473 54 C 520 101 544 164 544 244 C 544 282 537 317 525 349 C 512 381 494 407 471 429 L 530 526 L 387 526 L 362 485 C 350 487 337 489 324 491 C 311 493 298 494 284 494 C 204 494 141 471 94 425 C 47 379 24 318 24 242 C 24 201 30 164 43 132 C 56 99 75 71 99 49 L 40 -48 Z M 284 157 C 269 157 257 164 248 178 C 238 192 234 212 234 240 C 234 266 238 286 248 300 C 257 314 269 321 284 321 C 298 321 310 314 320 300 C 329 286 334 266 334 240 C 334 212 329 192 320 178 C 310 164 298 157 284 157 Z" unicode="ǿ" />
<glyph horiz-adv-x="573" d="M 263 -12 C 345 -12 411 6 460 44 C 508 81 533 137 533 212 C 533 260 518 302 490 339 C 462 375 417 401 357 416 L 323 424 C 306 428 293 433 285 441 C 276 449 272 457 272 466 C 272 476 276 484 286 489 C 295 493 308 496 324 496 C 352 496 382 492 414 486 C 446 479 475 470 501 459 L 501 639 C 473 649 441 656 406 662 C 371 667 337 670 305 670 C 223 670 159 650 111 610 C 63 570 40 516 40 449 C 40 399 54 357 84 322 C 114 286 159 262 219 248 L 253 240 C 269 236 282 230 291 222 C 300 214 305 206 305 197 C 305 186 300 178 290 173 C 280 167 266 165 250 165 C 219 165 186 169 151 177 C 116 185 82 197 50 213 L 50 30 C 85 16 121 6 159 -1 C 196 -8 231 -12 263 -12 Z M 289 -246 C 310 -228 325 -207 334 -184 C 343 -160 348 -132 348 -98 L 348 -56 L 218 -56 L 218 -99 C 218 -121 215 -142 211 -161 C 207 -180 199 -200 189 -221 L 289 -246 Z" unicode="Ș" />
<glyph horiz-adv-x="485" d="M 240 -16 C 314 -16 369 0 406 30 C 442 61 461 101 461 151 C 461 191 449 225 425 253 C 401 281 364 301 313 312 L 265 322 C 259 323 254 326 251 330 C 247 334 246 338 246 343 C 246 349 248 354 254 358 C 260 361 268 363 278 363 C 304 363 329 360 353 354 C 377 348 403 338 431 325 L 431 471 C 398 479 366 484 334 488 C 302 492 269 494 236 494 C 164 494 111 479 76 449 C 41 419 24 379 24 329 C 24 289 35 256 57 230 C 79 203 115 184 163 174 L 211 163 C 219 161 226 158 231 154 C 235 150 238 146 238 141 C 238 134 235 129 229 126 C 223 122 216 121 208 121 C 178 121 148 124 120 132 C 92 139 63 150 35 164 L 35 8 C 69 0 103 -6 137 -10 C 171 -14 205 -16 240 -16 Z M 250 -255 C 274 -235 291 -212 301 -186 C 311 -160 316 -129 316 -91 L 316 -44 L 172 -44 L 172 -92 C 172 -116 169 -139 165 -160 C 160 -181 151 -203 139 -227 L 250 -255 Z" unicode="ș" />
<glyph horiz-adv-x="568" d="M 178 0 L 390 0 L 390 470 L 548 470 L 548 658 L 20 658 L 20 470 L 178 470 L 178 0 Z M 292 -238 C 313 -220 328 -199 337 -176 C 346 -152 351 -124 351 -90 L 351 -48 L 221 -48 L 221 -91 C 221 -113 218 -134 214 -153 C 210 -172 202 -192 192 -213 L 292 -238 Z" unicode="Ț" />
<glyph horiz-adv-x="397" d="M 239 -12 C 261 -12 284 -10 306 -6 C 328 -2 350 4 373 13 L 373 183 C 366 177 358 173 350 170 C 342 167 333 166 325 166 C 312 166 302 170 294 179 C 286 187 283 199 283 214 L 283 314 L 365 314 L 365 478 L 283 478 L 283 616 L 79 616 L 79 478 L 24 478 L 24 314 L 79 314 L 79 156 C 79 104 93 63 122 33 C 151 3 190 -12 239 -12 Z M 248 -259 C 272 -239 289 -216 299 -190 C 309 -164 314 -133 314 -95 L 314 -48 L 170 -48 L 170 -96 C 170 -120 167 -143 163 -164 C 158 -185 149 -207 137 -231 L 248 -259 Z" unicode="ț" />
<glyph horiz-adv-x="282" d="M -56 -220 C 33 -220 105 -195 160 -146 C 214 -96 242 -32 242 47 L 242 478 L 38 478 L 38 48 C 38 17 29 -7 12 -27 C -5 -46 -28 -56 -56 -56 L -64 -56 L -64 -220 L -56 -220 Z" unicode="ȷ" />
<glyph horiz-adv-x="531" d="M 251 -16 C 331 -16 394 7 439 53 C 484 99 507 160 507 238 C 507 316 483 378 437 424 C 390 470 325 493 241 493 C 210 493 177 490 142 484 C 107 478 72 468 36 456 L 36 299 C 59 311 83 321 109 327 C 134 333 159 337 184 337 C 220 337 247 332 267 323 C 286 313 297 298 300 278 L 24 278 L 24 263 C 24 177 42 109 80 59 C 117 9 174 -16 251 -16 Z M 259 103 C 245 103 235 109 229 121 C 223 133 220 155 220 186 L 301 186 C 300 156 296 135 290 122 C 283 109 273 103 259 103 Z" unicode="ə" />
<glyph horiz-adv-x="248" d="M 85 524 L 122 596 L 159 524 L 296 524 L 202 698 L 50 698 L -44 524 L 85 524 Z" unicode="ˆ" />
<glyph horiz-adv-x="248" d="M 46 524 L 198 524 L 292 698 L 163 698 L 126 626 L 89 698 L -48 698 L 46 524 Z" unicode="ˇ" />
<glyph horiz-adv-x="250" d="M 125 524 C 169 524 204 538 230 567 C 256 595 270 634 270 682 L 167 682 C 167 667 163 655 155 647 C 147 639 137 635 125 635 C 112 635 102 639 94 647 C 86 655 83 667 83 682 L -20 682 C -20 634 -6 595 19 567 C 45 538 81 524 125 524 Z" unicode="˘" />
<glyph horiz-adv-x="248" d="M 52 524 L 192 524 L 192 664 L 52 664 L 52 524 Z" unicode="˙" />
<glyph horiz-adv-x="248" d="M 124 454 C 168 454 203 467 229 495 C 255 522 268 556 268 596 C 268 635 255 668 229 695 C 203 722 168 736 124 736 C 80 736 45 722 19 695 C -7 668 -20 635 -20 596 C -20 556 -7 522 19 495 C 45 467 80 454 124 454 Z M 124 550 C 111 550 100 553 91 561 C 82 569 78 580 78 595 C 78 609 82 620 91 628 C 100 636 111 640 124 640 C 136 640 147 636 156 628 C 165 620 170 609 170 595 C 170 580 165 569 156 561 C 147 553 136 550 124 550 Z" unicode="˚" />
<glyph horiz-adv-x="242" d="M 190 -220 L 190 -102 C 170 -102 154 -97 144 -88 C 134 -78 129 -67 129 -53 C 129 -38 134 -25 144 -15 C 154 -5 170 0 190 0 L 175 63 C 121 50 79 31 49 5 C 19 -21 4 -52 4 -89 C 4 -127 20 -158 53 -183 C 85 -207 131 -220 190 -220 Z" unicode="˛" />
<glyph horiz-adv-x="256" d="M 58 524 C 58 534 59 542 63 548 C 67 553 72 556 80 556 C 83 556 86 555 90 554 C 94 552 98 550 104 546 C 117 536 129 528 141 524 C 153 520 166 518 180 518 C 220 518 250 531 270 557 C 290 583 300 622 300 673 L 198 673 C 197 662 195 654 191 649 C 187 643 182 641 176 641 C 172 641 168 641 165 643 C 161 644 157 647 152 652 C 140 661 128 668 116 672 C 104 676 91 679 76 679 C 36 679 6 665 -14 639 C -34 613 -44 574 -44 524 L 58 524 Z" unicode="˜" />
<glyph horiz-adv-x="247" d="M -40 532 L 92 532 L 199 690 L 58 690 L -40 532 Z M 151 532 L 283 532 L 399 690 L 258 690 L 151 532 Z" unicode="˝" />
<glyph horiz-adv-x="0" d="M -77 524 L 79 524 L -23 682 L -204 682 L -77 524 Z" unicode="̀" />
<glyph horiz-adv-x="0" d="M 76 524 L 203 682 L 22 682 L -80 524 L 76 524 Z" unicode="́" />
<glyph horiz-adv-x="0" d="M -39 524 L -2 596 L 35 524 L 172 524 L 78 698 L -74 698 L -168 524 L -39 524 Z" unicode="̂" />
<glyph horiz-adv-x="0" d="M -64 706 C -64 715 -62 722 -59 727 C -55 732 -50 735 -44 735 C -41 735 -38 734 -35 733 C -31 731 -27 729 -23 726 C -10 717 1 711 11 707 C 21 703 33 701 46 701 C 82 701 109 712 127 736 C 145 760 154 795 154 841 L 62 841 C 61 831 59 824 56 819 C 52 814 48 812 42 812 C 38 812 35 812 32 814 C 29 815 25 818 21 822 C 10 830 0 836 -11 840 C -21 844 -34 846 -48 846 C -84 846 -111 834 -129 810 C -147 786 -156 752 -156 706 L -64 706 Z" unicode="̃" />
<glyph horiz-adv-x="0" d="M -124 532 L 126 532 L 126 647 L -124 647 L -124 532 Z" unicode="̄" />
<glyph horiz-adv-x="0" d="M 1 524 C 45 524 80 538 106 567 C 132 595 146 634 146 682 L 43 682 C 43 667 39 655 31 647 C 23 639 13 635 1 635 C -11 635 -21 639 -29 647 C -37 655 -41 667 -41 682 L -144 682 C -144 634 -130 595 -104 567 C -78 538 -43 524 1 524 Z" unicode="̆" />
<glyph horiz-adv-x="0" d="M -64 706 L 62 706 L 62 832 L -64 832 L -64 706 Z" unicode="̇" />
<glyph horiz-adv-x="0" d="M -164 524 L -24 524 L -24 664 L -164 664 L -164 524 Z M 26 524 L 166 524 L 166 664 L 26 664 L 26 524 Z" unicode="̈" />
<glyph horiz-adv-x="0" d="M -2 572 C 37 572 68 584 92 609 C 116 633 128 664 128 700 C 128 735 116 765 92 789 C 68 813 37 826 -2 826 C -41 826 -72 813 -96 789 C -120 765 -132 735 -132 700 C -132 664 -120 633 -96 609 C -72 584 -41 572 -2 572 Z M -2 658 C -13 658 -23 661 -31 669 C -39 676 -43 686 -43 699 C -43 711 -39 721 -31 728 C -23 735 -13 739 -2 739 C 9 739 19 735 27 728 C 35 721 39 711 39 699 C 39 686 35 676 27 669 C 19 661 9 658 -2 658 Z" unicode="̊" />
<glyph horiz-adv-x="0" d="M -164 532 L -32 532 L 75 690 L -66 690 L -164 532 Z M 27 532 L 159 532 L 275 690 L 134 690 L 27 532 Z" unicode="̋" />
<glyph horiz-adv-x="0" d="M -78 524 L 74 524 L 168 698 L 39 698 L 2 626 L -35 698 L -172 698 L -78 524 Z" unicode="̌" />
<glyph horiz-adv-x="0" d="M -6 743 C -30 723 -47 700 -57 674 C -67 648 -72 617 -72 579 L -72 532 L 72 532 L 72 580 C 72 604 74 627 79 648 C 83 669 92 691 105 715 L -6 743 Z" unicode="̒" />
<glyph horiz-adv-x="1" d="M 7 -251 C 31 -231 48 -208 58 -182 C 68 -156 73 -125 73 -87 L 73 -40 L -71 -40 L -71 -88 C -71 -112 -73 -135 -78 -156 C -82 -177 -91 -199 -104 -223 L 7 -251 Z" unicode="̦" />
<glyph horiz-adv-x="0" d="M 21 -249 C 55 -249 82 -240 104 -222 C 125 -204 136 -179 136 -145 C 136 -111 123 -85 98 -67 C 72 -49 40 -40 0 -40 L -12 -40 L -12 -115 L -4 -115 C 4 -115 11 -117 17 -122 C 23 -126 26 -132 26 -139 C 26 -146 23 -152 18 -157 C 12 -161 5 -164 -3 -164 C -11 -164 -20 -162 -29 -160 C -38 -157 -47 -153 -56 -149 L -56 -238 C -43 -242 -31 -244 -19 -246 C -7 -248 5 -249 21 -249 Z" unicode="̧" />
<glyph horiz-adv-x="0" d="M -2 -220 L -2 -102 C -22 -102 -37 -97 -47 -88 C -57 -78 -63 -67 -63 -53 C -63 -38 -57 -25 -47 -15 C -37 -5 -22 0 -2 0 L -17 63 C -70 50 -112 31 -142 5 C -172 -21 -188 -52 -188 -89 C -188 -127 -171 -158 -139 -183 C -106 -207 -60 -220 -2 -220 Z" unicode="̨" />
<glyph horiz-adv-x="729" d="M 12 0 L 717 0 L 466 658 L 264 658 L 12 0 Z M 251 159 L 347 409 L 442 159 L 251 159 Z" unicode="Δ" />
<glyph horiz-adv-x="559" d="M 162 -200 L 137 -4 C 145 -6 154 -8 164 -10 C 173 -11 183 -12 193 -12 C 215 -12 238 -5 262 7 C 285 20 303 38 315 60 L 323 0 L 519 0 L 519 478 L 315 478 L 315 175 C 311 169 306 164 300 162 C 293 159 286 158 279 158 C 268 158 259 161 251 168 C 243 174 240 184 240 196 L 240 478 L 36 478 L 36 -200 L 162 -200 Z" unicode="μ" />
<glyph horiz-adv-x="617" d="M 70 0 L 274 0 L 274 317 L 343 317 L 343 0 L 547 0 L 547 317 L 597 317 L 597 478 L 20 478 L 20 317 L 70 317 L 70 0 Z" unicode="π" />
<glyph horiz-adv-x="1098" d="M 480 706 L 621 706 L 529 848 L 366 848 L 480 706 Z M 205 0 L 444 0 L 512 238 L 545 377 L 576 238 L 645 0 L 887 0 L 1086 658 L 878 658 L 799 364 L 771 250 L 743 364 L 664 658 L 450 658 L 370 364 L 342 245 L 316 364 L 236 658 L 12 658 L 205 0 Z" unicode="Ẁ" />
<glyph horiz-adv-x="907" d="M 377 524 L 533 524 L 431 682 L 250 682 L 377 524 Z M 156 0 L 377 0 L 410 116 L 443 241 L 477 116 L 511 0 L 732 0 L 895 478 L 714 478 L 665 320 L 630 196 L 594 320 L 546 478 L 360 478 L 316 320 L 287 197 L 260 320 L 220 478 L 12 478 L 156 0 Z" unicode="ẁ" />
<glyph horiz-adv-x="1098" d="M 619 706 L 733 848 L 570 848 L 478 706 L 619 706 Z M 205 0 L 444 0 L 512 238 L 545 377 L 576 238 L 645 0 L 887 0 L 1086 658 L 878 658 L 799 364 L 771 250 L 743 364 L 664 658 L 450 658 L 370 364 L 342 245 L 316 364 L 236 658 L 12 658 L 205 0 Z" unicode="Ẃ" />
<glyph horiz-adv-x="907" d="M 530 524 L 657 682 L 476 682 L 374 524 L 530 524 Z M 156 0 L 377 0 L 410 116 L 443 241 L 477 116 L 511 0 L 732 0 L 895 478 L 714 478 L 665 320 L 630 196 L 594 320 L 546 478 L 360 478 L 316 320 L 287 197 L 260 320 L 220 478 L 12 478 L 156 0 Z" unicode="ẃ" />
<glyph horiz-adv-x="1098" d="M 402 706 L 528 706 L 528 832 L 402 832 L 402 706 Z M 574 706 L 700 706 L 700 832 L 574 832 L 574 706 Z M 205 0 L 444 0 L 512 238 L 545 377 L 576 238 L 645 0 L 887 0 L 1086 658 L 878 658 L 799 364 L 771 250 L 743 364 L 664 658 L 450 658 L 370 364 L 342 245 L 316 364 L 236 658 L 12 658 L 205 0 Z" unicode="Ẅ" />
<glyph horiz-adv-x="907" d="M 290 524 L 430 524 L 430 664 L 290 664 L 290 524 Z M 480 524 L 620 524 L 620 664 L 480 664 L 480 524 Z M 156 0 L 377 0 L 410 116 L 443 241 L 477 116 L 511 0 L 732 0 L 895 478 L 714 478 L 665 320 L 630 196 L 594 320 L 546 478 L 360 478 L 316 320 L 287 197 L 260 320 L 220 478 L 12 478 L 156 0 Z" unicode="ẅ" />
<glyph horiz-adv-x="705" d="M 296 706 L 437 706 L 345 848 L 182 848 L 296 706 Z M 250 0 L 462 0 L 462 220 L 693 658 L 476 658 L 398 485 L 367 413 L 336 485 L 258 658 L 12 658 L 250 213 L 250 0 Z" unicode="Ỳ" />
<glyph horiz-adv-x="573" d="M 218 524 L 374 524 L 272 682 L 91 682 L 218 524 Z M 51 -220 C 149 -220 230 -198 293 -156 C 356 -113 405 -36 439 75 L 561 478 L 372 478 L 334 320 L 301 169 L 269 320 L 231 478 L 12 478 L 165 4 L 203 1 C 187 -17 169 -30 148 -36 C 127 -42 95 -45 51 -45 L 43 -45 L 43 -220 L 51 -220 Z" unicode="ỳ" />
=======
<glyph horiz-adv-x="301" d="M 52 224 L 52 716 L 248 716 L 248 224 L 52 224 Z M 53 0 L 53 164 L 249 164 L 249 0 L 53 0 Z" unicode="!" />
<glyph horiz-adv-x="477" d="M 56 422 L 56 716 L 212 716 L 212 422 L 56 422 Z M 265 422 L 265 716 L 421 716 L 421 422 L 265 422 Z" unicode="&#x22;" />
<glyph horiz-adv-x="616" d="M 93 0 L 106 96 L 44 96 L 44 260 L 128 260 L 139 341 L 60 341 L 60 505 L 160 505 L 173 599 L 305 599 L 292 505 L 374 505 L 387 599 L 519 599 L 506 505 L 572 505 L 572 341 L 485 341 L 474 260 L 557 260 L 557 96 L 452 96 L 439 0 L 307 0 L 320 96 L 238 96 L 225 0 L 93 0 Z M 260 260 L 342 260 L 353 341 L 271 341 L 260 260 Z" unicode="#" />
<glyph horiz-adv-x="597" d="M 219 638 L 219 762 L 375 762 L 375 638 L 219 638 Z M 219 -102 L 219 31 L 375 31 L 375 -102 L 219 -102 Z M 275 -12 C 243 -12 208 -8 171 -1 C 133 6 97 16 62 30 L 62 213 C 94 197 128 185 163 177 C 198 169 231 165 262 165 C 278 165 292 167 302 173 C 312 178 317 186 317 197 C 317 206 312 214 303 222 C 294 230 281 236 265 240 L 231 248 C 171 262 126 286 96 322 C 66 357 52 399 52 449 C 52 516 75 570 123 610 C 171 650 235 670 317 670 C 349 670 383 667 418 662 C 453 656 485 649 513 639 L 513 459 C 487 470 458 479 426 486 C 394 492 364 496 336 496 C 320 496 307 493 298 489 C 288 484 284 476 284 466 C 284 457 288 449 297 441 C 305 433 318 428 335 424 L 369 416 C 429 401 474 375 502 339 C 530 302 545 260 545 212 C 545 137 520 81 472 44 C 423 6 357 -12 275 -12 Z" unicode="$" />
<glyph horiz-adv-x="926" d="M 208 350 C 154 350 110 367 77 403 C 44 438 28 484 28 540 C 28 597 44 643 77 678 C 110 712 154 730 208 730 C 262 730 305 712 338 678 C 371 643 388 597 388 540 C 388 484 371 438 338 403 C 305 367 262 350 208 350 Z M 208 482 C 218 482 227 487 235 497 C 243 507 247 521 247 540 C 247 558 243 573 235 583 C 227 593 218 599 208 599 C 197 599 188 593 180 583 C 172 573 169 558 169 540 C 169 521 172 507 180 497 C 188 487 197 482 208 482 Z M 225 0 L 549 716 L 693 716 L 369 0 L 225 0 Z M 714 -10 C 660 -10 616 7 583 43 C 550 78 534 124 534 180 C 534 237 550 283 583 318 C 616 352 660 370 714 370 C 768 370 811 352 844 318 C 877 283 894 237 894 180 C 894 124 877 78 844 43 C 811 7 768 -10 714 -10 Z M 714 122 C 724 122 733 127 741 137 C 749 147 753 161 753 180 C 753 198 749 213 741 223 C 733 233 724 239 714 239 C 703 239 694 233 686 223 C 678 213 675 198 675 180 C 675 161 678 147 686 137 C 694 127 703 122 714 122 Z" unicode="%" />
<glyph horiz-adv-x="698" d="M 268 -12 C 194 -12 137 6 97 44 C 56 81 36 128 36 186 C 36 224 46 259 67 293 C 88 326 119 354 159 377 C 151 393 145 411 141 429 C 137 447 136 467 136 490 C 136 540 156 583 197 619 C 237 655 292 674 362 674 C 392 674 422 671 452 667 C 482 662 509 654 533 644 L 533 481 C 511 490 491 497 471 501 C 451 505 430 508 408 508 C 385 508 367 502 355 492 C 343 481 337 467 337 450 C 337 435 339 421 345 409 C 351 397 360 383 374 369 L 441 292 C 443 304 444 318 445 333 C 446 347 447 363 447 380 L 610 380 C 610 332 605 290 597 253 C 589 216 576 183 560 155 L 694 0 L 463 0 L 430 40 C 410 22 386 9 359 1 C 332 -7 302 -12 268 -12 Z M 215 216 C 215 196 221 180 233 168 C 245 156 263 150 286 150 C 294 150 301 151 308 153 C 315 155 322 158 328 162 L 239 269 C 231 261 225 253 221 244 C 217 235 215 226 215 216 Z" unicode="&#x26;" />
<glyph horiz-adv-x="268" d="M 56 422 L 56 716 L 212 716 L 212 422 L 56 422 Z" unicode="'" />
<glyph horiz-adv-x="448" d="M 204 -220 C 158 -158 122 -86 94 -4 C 66 77 52 162 52 248 C 52 334 66 418 94 500 C 122 582 158 654 204 716 L 436 716 C 383 651 340 577 308 495 C 276 413 260 330 260 248 C 260 165 276 82 308 0 C 340 -81 383 -155 436 -220 L 204 -220 Z" unicode="(" />
<glyph horiz-adv-x="448" d="M 12 -220 C 64 -155 107 -81 139 0 C 171 82 188 165 188 248 C 188 330 171 413 139 495 C 107 577 64 651 12 716 L 244 716 C 289 654 326 582 354 500 C 382 418 396 334 396 248 C 396 162 382 77 354 -4 C 326 -86 289 -158 244 -220 L 12 -220 Z" unicode=")" />
<glyph horiz-adv-x="573" d="M 227 -12 L 70 103 L 186 204 L 32 217 L 93 402 L 224 323 L 189 478 L 384 478 L 349 323 L 480 402 L 541 216 L 387 203 L 505 102 L 348 -13 L 286 131 L 227 -12 Z" unicode="*" />
<glyph horiz-adv-x="544" d="M 198 66 L 198 213 L 56 213 L 56 361 L 198 361 L 198 508 L 346 508 L 346 361 L 488 361 L 488 213 L 346 213 L 346 66 L 198 66 Z" unicode="+" />
<glyph horiz-adv-x="306" d="M 250 188 L 250 87 C 250 12 240 -45 221 -87 C 202 -129 182 -160 160 -181 L 12 -148 C 30 -110 42 -74 50 -40 C 58 -6 62 36 62 86 L 62 188 L 250 188 Z" unicode="," />
<glyph horiz-adv-x="360" d="M 40 163 L 40 311 L 320 311 L 320 163 L 40 163 Z" unicode="-" />
<glyph horiz-adv-x="300" d="M 56 0 L 56 188 L 244 188 L 244 0 L 56 0 Z" unicode="." />
<glyph horiz-adv-x="546" d="M 32 0 L 346 716 L 514 716 L 200 0 L 32 0 Z" unicode="/" />
<glyph horiz-adv-x="662" d="M 331 -16 C 234 -16 162 15 115 77 C 67 139 44 223 44 329 C 44 435 67 520 115 583 C 162 646 234 678 331 678 C 427 678 499 646 547 584 C 594 521 618 437 618 331 C 618 224 594 139 547 77 C 499 15 427 -16 331 -16 Z M 331 172 C 356 172 374 184 385 210 C 396 236 402 276 402 330 C 402 384 396 424 385 450 C 374 476 356 490 331 490 C 305 490 287 476 276 450 C 265 424 260 384 260 331 C 260 277 265 237 276 211 C 287 185 305 172 331 172 Z" unicode="0" />
<glyph horiz-adv-x="418" d="M 126 0 L 126 464 L 32 458 L 32 654 L 338 678 L 338 0 L 126 0 Z" unicode="1" />
<glyph horiz-adv-x="548" d="M 46 0 L 46 228 L 99 242 C 150 255 195 277 235 308 C 274 339 294 372 294 408 C 294 432 285 450 268 464 C 251 478 230 485 206 485 C 181 485 154 480 124 471 C 94 462 67 450 44 435 L 44 637 C 66 649 96 659 135 667 C 173 675 210 680 244 680 C 321 680 383 660 431 621 C 479 581 503 529 503 463 C 503 405 485 351 451 302 C 417 253 364 218 293 197 L 263 188 L 504 188 L 504 0 L 46 0 Z" unicode="2" />
<glyph horiz-adv-x="542" d="M 262 -12 C 226 -12 190 -8 154 -1 C 118 5 81 16 44 31 L 44 224 C 68 208 95 196 124 188 C 153 180 183 176 213 176 C 235 176 252 179 265 186 C 278 192 285 203 285 217 C 285 231 277 242 262 249 C 246 256 226 260 200 260 L 162 260 L 162 404 L 194 404 C 220 404 240 408 255 416 C 270 424 278 436 278 452 C 278 464 272 474 262 480 C 251 486 236 490 218 490 C 190 490 163 486 135 480 C 107 474 82 464 59 452 L 59 643 C 93 655 127 663 161 669 C 195 675 230 678 268 678 C 333 678 386 661 428 627 C 469 593 490 550 490 500 C 490 464 482 431 466 401 C 450 371 422 348 383 334 C 423 320 453 298 471 268 C 489 238 498 206 498 170 C 498 114 477 70 435 37 C 393 4 335 -12 262 -12 Z" unicode="3" />
<glyph horiz-adv-x="625" d="M 311 0 L 311 124 L 40 124 L 40 274 L 218 666 L 511 666 L 511 296 L 585 296 L 585 122 L 511 122 L 511 0 L 311 0 Z M 311 296 L 311 491 L 226 296 L 311 296 Z" unicode="4" />
<glyph horiz-adv-x="559" d="M 257 -12 C 215 -12 175 -8 139 -1 C 102 5 70 15 44 28 L 44 199 C 72 185 105 175 141 170 C 177 164 211 162 243 162 C 261 162 276 166 286 174 C 296 182 301 193 301 206 C 301 218 296 229 286 237 C 276 245 262 250 244 250 C 211 250 177 248 142 245 C 107 241 74 236 44 230 L 71 666 L 495 666 L 495 466 L 212 466 L 208 406 C 219 408 231 409 243 410 C 255 411 266 412 275 412 C 351 412 410 395 452 361 C 494 327 515 275 515 207 C 515 144 493 92 451 50 C 409 8 344 -12 257 -12 Z" unicode="5" />
<glyph horiz-adv-x="615" d="M 319 -12 C 233 -12 165 16 117 74 C 68 132 44 214 44 321 C 44 423 70 509 124 578 C 178 647 253 682 350 682 C 380 682 413 678 448 672 C 483 665 516 656 546 645 L 546 475 C 520 487 491 496 460 503 C 429 510 400 514 372 514 C 339 514 314 505 296 487 C 278 469 266 444 258 412 C 270 423 285 431 303 437 C 321 443 342 446 367 446 C 423 446 471 429 511 396 C 551 362 571 311 571 242 C 571 156 546 92 497 50 C 448 8 389 -12 319 -12 Z M 313 167 C 329 167 341 173 351 185 C 360 197 365 212 365 231 C 365 249 360 264 351 276 C 342 288 330 294 316 294 C 300 294 287 289 277 279 C 266 269 259 257 255 242 C 255 217 260 198 272 186 C 283 173 297 167 313 167 Z" unicode="6" />
<glyph horiz-adv-x="566" d="M 86 0 L 306 466 L 40 466 L 40 666 L 526 666 L 526 501 L 305 0 L 86 0 Z" unicode="7" />
<glyph horiz-adv-x="615" d="M 306 -16 C 226 -16 162 1 115 36 C 67 71 44 118 44 176 C 44 206 52 234 69 259 C 85 284 110 306 143 325 C 114 345 92 370 76 398 C 60 426 53 457 53 491 C 53 549 75 595 121 630 C 167 664 228 682 306 682 C 382 682 442 665 488 633 C 533 600 556 556 556 501 C 556 474 549 449 535 426 C 521 403 499 383 470 366 C 502 345 526 320 544 290 C 562 260 571 227 571 190 C 571 129 547 79 499 41 C 451 3 386 -16 306 -16 Z M 320 422 L 322 422 C 334 428 343 436 350 446 C 357 456 361 466 361 476 C 361 494 356 509 346 520 C 336 530 322 536 306 536 C 289 536 275 531 265 522 C 255 513 250 500 250 482 C 250 468 256 455 269 445 C 281 434 298 426 320 422 Z M 244 206 C 244 185 249 169 261 158 C 272 147 287 142 307 142 C 326 142 341 146 353 156 C 365 165 371 179 371 199 C 371 213 363 227 349 239 C 334 251 314 260 290 266 L 287 267 C 274 258 264 248 256 238 C 248 227 244 216 244 206 Z" unicode="8" />
<glyph horiz-adv-x="615" d="M 265 -12 C 221 -12 182 -6 148 3 C 114 13 82 26 51 41 L 51 211 C 87 191 121 177 154 169 C 186 160 216 156 243 156 C 279 156 306 165 324 183 C 342 201 355 228 362 263 C 350 250 334 240 316 234 C 297 227 274 224 248 224 C 192 224 144 240 104 274 C 64 307 44 358 44 428 C 44 514 68 577 117 619 C 166 661 226 682 296 682 C 382 682 449 653 498 595 C 546 537 571 455 571 349 C 571 246 544 160 490 91 C 436 22 361 -12 265 -12 Z M 302 379 C 318 379 330 382 340 390 C 349 398 356 412 361 432 C 361 454 356 472 346 486 C 336 499 322 506 305 506 C 289 506 276 500 267 489 C 257 477 253 462 253 442 C 253 424 257 409 266 397 C 275 385 287 379 302 379 Z" unicode="9" />
<glyph horiz-adv-x="300" d="M 56 284 L 56 472 L 244 472 L 244 284 L 56 284 Z M 56 0 L 56 188 L 244 188 L 244 0 L 56 0 Z" unicode=":" />
<glyph horiz-adv-x="314" d="M 262 188 L 262 87 C 262 12 252 -45 233 -87 C 214 -129 194 -160 172 -181 L 24 -148 C 42 -110 54 -74 62 -40 C 70 -6 74 36 74 86 L 74 188 L 262 188 Z M 73 285 L 73 473 L 261 473 L 261 285 L 73 285 Z" unicode=";" />
<glyph horiz-adv-x="531" d="M 243 68 L 56 284 L 245 500 L 475 500 L 286 285 L 475 68 L 243 68 Z" unicode="&#x3C;" />
<glyph horiz-adv-x="544" d="M 56 330 L 56 478 L 488 478 L 488 330 L 56 330 Z M 56 122 L 56 270 L 488 270 L 488 122 L 56 122 Z" unicode="=" />
<glyph horiz-adv-x="531" d="M 56 68 L 245 285 L 56 500 L 286 500 L 475 284 L 288 68 L 56 68 Z" unicode="&#x3E;" />
<glyph horiz-adv-x="482" d="M 116 225 C 116 271 124 308 142 337 C 159 365 175 386 191 399 C 207 411 218 424 225 437 C 231 450 235 463 235 477 C 235 493 228 507 214 517 C 200 527 182 533 160 533 C 133 533 109 530 88 525 C 67 520 44 512 20 502 L 20 667 C 56 679 90 687 122 692 C 154 697 192 700 236 700 C 288 700 336 686 382 660 C 427 633 450 591 450 533 C 450 492 442 458 427 430 C 412 402 393 378 371 360 C 351 343 333 323 318 300 C 303 276 296 251 296 225 L 116 225 Z M 109 1 L 109 165 L 305 165 L 305 1 L 109 1 Z" unicode="?" />
<glyph horiz-adv-x="808" d="M 393 -83 C 297 -83 213 -51 142 11 C 71 74 36 161 36 272 C 36 381 73 469 147 535 C 221 601 308 634 409 634 C 508 634 593 605 665 547 C 736 489 772 411 772 313 C 772 246 755 194 721 157 C 687 119 648 101 602 101 C 573 101 548 106 527 116 C 505 126 487 143 473 167 C 461 145 446 128 427 117 C 408 106 386 101 360 101 C 321 101 289 116 264 148 C 239 180 227 215 227 253 C 227 319 247 370 288 405 C 329 439 374 457 422 457 C 443 457 466 454 491 449 C 516 443 539 436 559 428 L 540 270 C 538 252 541 236 551 223 C 561 210 575 204 595 204 C 619 204 635 213 645 232 C 655 251 660 275 660 305 C 660 366 637 418 591 462 C 545 506 484 528 409 528 C 330 528 267 502 219 452 C 171 402 148 342 148 274 C 148 203 170 144 215 97 C 260 49 319 26 393 26 C 425 26 455 29 484 37 C 513 44 541 55 569 70 L 569 -50 C 539 -60 510 -68 481 -74 C 452 -80 423 -83 393 -83 Z M 390 226 C 400 226 410 231 418 241 C 426 251 432 273 437 306 L 441 337 C 433 337 427 338 422 338 C 417 338 412 339 407 339 C 393 339 381 332 369 320 C 357 307 352 291 352 272 C 352 258 355 247 363 239 C 370 230 379 226 390 226 Z" unicode="@" />
<glyph horiz-adv-x="756" d="M 12 0 L 275 658 L 482 658 L 744 0 L 515 0 L 479 96 L 246 96 L 210 0 L 12 0 Z M 320 294 L 297 232 L 428 232 L 405 294 L 363 418 L 320 294 Z" unicode="A" />
<glyph horiz-adv-x="624" d="M 60 0 L 60 658 L 352 658 C 422 658 477 643 518 613 C 558 583 579 542 579 491 C 579 451 568 417 547 390 C 525 363 494 343 452 331 C 500 321 537 304 562 278 C 587 252 600 219 600 179 C 600 124 579 80 539 48 C 499 16 442 0 369 0 L 60 0 Z M 270 396 L 306 396 C 323 396 337 401 348 413 C 359 425 365 439 365 456 C 365 474 359 489 348 500 C 337 511 323 517 306 517 L 270 517 L 270 396 Z M 270 153 L 321 153 C 339 153 354 158 366 170 C 378 182 384 196 384 214 C 384 232 378 246 366 257 C 354 268 339 274 321 274 L 270 274 L 270 153 Z" unicode="B" />
<glyph horiz-adv-x="642" d="M 408 -12 C 297 -12 208 18 141 80 C 73 142 40 225 40 330 C 40 434 73 517 141 578 C 208 639 297 670 408 670 C 440 670 472 666 502 659 C 532 652 562 642 591 629 L 591 436 C 563 452 534 464 506 472 C 478 480 449 484 420 484 C 372 484 334 470 306 443 C 278 415 264 378 264 330 C 264 281 278 243 306 215 C 334 187 372 174 420 174 C 450 174 480 178 510 186 C 540 194 569 207 598 224 L 598 33 C 567 18 536 7 505 0 C 474 -8 442 -12 408 -12 Z" unicode="C" />
<glyph horiz-adv-x="719" d="M 60 0 L 60 658 L 309 658 C 421 658 511 629 578 571 C 645 513 679 435 679 337 C 679 234 646 152 580 91 C 514 30 424 0 309 0 L 60 0 Z M 272 186 L 304 186 C 352 186 390 199 418 227 C 445 254 459 291 459 337 C 459 378 445 411 418 435 C 390 459 352 472 304 472 L 272 472 L 272 186 Z" unicode="D" />
<glyph horiz-adv-x="540" d="M 60 0 L 60 658 L 485 658 L 485 474 L 272 474 L 272 405 L 468 405 L 468 255 L 272 255 L 272 183 L 496 183 L 496 0 L 60 0 Z" unicode="E" />
<glyph horiz-adv-x="496" d="M 60 0 L 60 658 L 464 658 L 464 474 L 272 474 L 272 401 L 446 401 L 446 227 L 272 227 L 272 0 L 60 0 Z" unicode="F" />
<glyph horiz-adv-x="710" d="M 397 -12 C 291 -12 205 18 139 80 C 73 142 40 223 40 324 C 40 431 74 515 142 577 C 210 639 297 670 404 670 C 440 670 477 667 513 662 C 549 657 586 650 623 640 L 623 447 C 589 458 555 467 522 473 C 488 479 454 482 418 482 C 374 482 336 468 306 441 C 275 414 260 377 260 331 C 260 281 273 242 300 213 C 326 183 361 169 403 169 C 413 169 424 169 435 170 C 446 171 457 173 468 177 L 468 249 L 379 249 L 379 399 L 670 399 L 670 28 C 630 14 587 4 542 -2 C 497 -8 449 -12 397 -12 Z" unicode="G" />
<glyph horiz-adv-x="732" d="M 60 0 L 60 658 L 272 658 L 272 421 L 460 421 L 460 658 L 672 658 L 672 0 L 460 0 L 460 235 L 272 235 L 272 0 L 60 0 Z" unicode="H" />
<glyph horiz-adv-x="332" d="M 60 0 L 60 658 L 272 658 L 272 0 L 60 0 Z" unicode="I" />
<glyph horiz-adv-x="335" d="M -20 -220 L -36 -220 L -36 -48 L -20 -48 C 5 -48 25 -40 40 -24 C 55 -8 63 15 63 48 L 63 658 L 275 658 L 275 48 C 275 -32 250 -96 202 -146 C 153 -195 79 -220 -20 -220 Z" unicode="J" />
<glyph horiz-adv-x="733" d="M 60 0 L 60 658 L 272 658 L 272 354 L 490 658 L 717 658 L 477 341 L 715 0 L 467 0 L 272 293 L 272 0 L 60 0 Z" unicode="K" />
<glyph horiz-adv-x="521" d="M 60 0 L 60 658 L 272 658 L 272 188 L 497 188 L 497 0 L 60 0 Z" unicode="L" />
<glyph horiz-adv-x="932" d="M 60 0 L 60 658 L 359 658 L 433 468 L 467 361 L 501 468 L 575 658 L 872 658 L 872 0 L 660 0 L 660 311 L 667 446 L 620 312 L 509 46 L 398 46 L 287 313 L 241 445 L 248 312 L 248 0 L 60 0 Z" unicode="M" />
<glyph horiz-adv-x="776" d="M 60 0 L 60 658 L 309 658 L 484 372 L 532 286 L 528 372 L 528 658 L 716 658 L 716 0 L 473 0 L 294 286 L 244 376 L 248 286 L 248 0 L 60 0 Z" unicode="N" />
<glyph horiz-adv-x="799" d="M 400 -18 C 290 -18 202 13 137 76 C 72 138 40 223 40 329 C 40 435 72 520 137 582 C 202 644 290 676 400 676 C 509 676 596 644 661 582 C 726 520 759 435 759 329 C 759 223 726 138 661 76 C 596 13 509 -18 400 -18 Z M 400 167 C 442 167 475 181 501 210 C 526 239 539 279 539 329 C 539 379 526 418 501 447 C 475 476 442 491 400 491 C 357 491 323 476 298 447 C 272 418 260 379 260 329 C 260 279 272 239 298 210 C 323 181 357 167 400 167 Z" unicode="O" />
<glyph horiz-adv-x="610" d="M 60 0 L 60 658 L 327 658 C 406 658 469 634 516 586 C 562 538 586 482 586 416 C 586 348 562 290 514 241 C 466 191 402 167 322 167 L 272 167 L 272 0 L 60 0 Z M 272 337 L 300 337 C 322 337 339 344 353 358 C 366 372 373 392 373 416 C 373 436 366 453 353 466 C 339 479 321 486 299 486 L 272 486 L 272 337 Z" unicode="P" />
<glyph horiz-adv-x="802" d="M 625 -169 C 579 -155 532 -131 483 -97 C 433 -63 391 -25 357 15 L 484 138 C 521 100 564 67 613 41 C 662 15 710 -3 758 -14 L 625 -169 Z M 400 -18 C 290 -18 202 13 137 76 C 72 138 40 223 40 329 C 40 435 72 520 137 582 C 202 644 290 676 400 676 C 509 676 596 644 661 582 C 726 520 759 435 759 329 C 759 223 726 138 661 76 C 596 13 509 -18 400 -18 Z M 400 167 C 442 167 475 181 501 210 C 526 239 539 279 539 329 C 539 379 526 418 501 447 C 475 476 442 491 400 491 C 357 491 323 476 298 447 C 272 418 260 379 260 329 C 260 279 272 239 298 210 C 323 181 357 167 400 167 Z" unicode="Q" />
<glyph horiz-adv-x="672" d="M 429 0 L 358 190 C 349 212 340 228 330 238 C 320 248 307 253 293 253 L 272 253 L 272 0 L 60 0 L 60 658 L 364 658 C 421 658 470 642 512 612 C 554 582 575 539 575 485 C 575 442 563 406 540 378 C 517 349 484 328 440 316 C 476 308 505 294 527 276 C 549 258 567 233 579 201 L 656 0 L 429 0 Z M 272 385 L 302 385 C 320 385 335 390 347 402 C 359 414 365 429 365 448 C 365 466 359 481 347 493 C 335 504 320 510 302 510 L 272 510 L 272 385 Z" unicode="R" />
<glyph horiz-adv-x="573" d="M 263 -12 C 231 -12 196 -8 159 -1 C 121 6 85 16 50 30 L 50 213 C 82 197 116 185 151 177 C 186 169 219 165 250 165 C 266 165 280 167 290 173 C 300 178 305 186 305 197 C 305 206 300 214 291 222 C 282 230 269 236 253 240 L 219 248 C 159 262 114 286 84 322 C 54 357 40 399 40 449 C 40 516 63 570 111 610 C 159 650 223 670 305 670 C 337 670 371 667 406 662 C 441 656 473 649 501 639 L 501 459 C 475 470 446 479 414 486 C 382 492 352 496 324 496 C 308 496 295 493 286 489 C 276 484 272 476 272 466 C 272 457 276 449 285 441 C 293 433 306 428 323 424 L 357 416 C 417 401 462 375 490 339 C 518 302 533 260 533 212 C 533 137 508 81 460 44 C 411 6 345 -12 263 -12 Z" unicode="S" />
<glyph horiz-adv-x="568" d="M 178 0 L 178 470 L 20 470 L 20 658 L 548 658 L 548 470 L 390 470 L 390 0 L 178 0 Z" unicode="T" />
<glyph horiz-adv-x="713" d="M 361 -12 C 271 -12 198 13 141 65 C 84 116 56 183 56 267 L 56 658 L 280 658 L 280 283 C 280 257 287 235 303 218 C 318 200 339 192 366 192 C 392 192 413 200 429 218 C 445 235 453 257 453 283 L 453 658 L 657 658 L 657 267 C 657 183 629 116 574 65 C 518 13 447 -12 361 -12 Z" unicode="U" />
<glyph horiz-adv-x="733" d="M 263 0 L 12 658 L 239 658 L 341 364 L 378 246 L 414 364 L 516 658 L 721 658 L 470 0 L 263 0 Z" unicode="V" />
<glyph horiz-adv-x="1098" d="M 205 0 L 12 658 L 236 658 L 316 364 L 342 245 L 370 364 L 450 658 L 664 658 L 743 364 L 771 250 L 799 364 L 878 658 L 1086 658 L 887 0 L 645 0 L 576 238 L 545 377 L 512 238 L 444 0 L 205 0 Z" unicode="W" />
<glyph horiz-adv-x="747" d="M 16 0 L 249 329 L 21 658 L 279 658 L 355 541 L 387 483 L 420 540 L 497 658 L 728 658 L 502 334 L 731 0 L 473 0 L 400 119 L 363 186 L 326 121 L 248 0 L 16 0 Z" unicode="X" />
<glyph horiz-adv-x="705" d="M 250 0 L 250 213 L 12 658 L 258 658 L 336 485 L 367 413 L 398 485 L 476 658 L 693 658 L 462 220 L 462 0 L 250 0 Z" unicode="Y" />
<glyph horiz-adv-x="675" d="M 52 0 L 52 120 L 263 403 L 317 470 L 56 470 L 56 658 L 623 658 L 623 538 L 414 255 L 360 188 L 622 188 L 622 0 L 52 0 Z" unicode="Z" />
<glyph horiz-adv-x="401" d="M 60 -220 L 60 716 L 369 716 L 369 566 L 248 566 L 248 -70 L 369 -70 L 369 -220 L 60 -220 Z" unicode="[" />
<glyph horiz-adv-x="522" d="M 334 0 L 20 716 L 188 716 L 502 0 L 334 0 Z" unicode="\" />
<glyph horiz-adv-x="401" d="M 32 -220 L 32 -70 L 153 -70 L 153 566 L 32 566 L 32 716 L 341 716 L 341 -220 L 32 -220 Z" unicode="]" />
<glyph horiz-adv-x="248" d="M 85 524 L -44 524 L 50 698 L 202 698 L 296 524 L 159 524 L 122 596 L 85 524 Z" unicode="^" />
<glyph horiz-adv-x="396" d="M 0 -210 L 0 -78 L 396 -78 L 396 -210 L 0 -210 Z" unicode="_" />
<glyph horiz-adv-x="247" d="M 47 524 L -80 682 L 101 682 L 203 524 L 47 524 Z" unicode="`" />
<glyph horiz-adv-x="535" d="M 171 -12 C 128 -12 93 1 65 28 C 37 54 24 86 24 124 C 24 174 41 210 75 234 C 109 258 156 275 216 285 L 295 298 L 295 312 C 295 326 287 337 273 344 C 258 351 236 355 206 355 C 178 355 152 351 127 344 C 101 336 76 325 52 311 L 52 460 C 84 470 116 478 148 484 C 180 490 217 493 259 493 C 331 493 389 478 433 448 C 477 418 499 376 499 324 L 499 0 L 306 0 L 296 55 C 282 32 265 15 245 4 C 225 -6 200 -12 171 -12 Z M 263 127 C 269 127 275 128 281 132 C 287 135 292 139 295 145 L 295 209 L 262 204 C 253 202 245 198 239 191 C 232 184 229 175 229 163 C 229 152 232 143 239 137 C 245 130 253 127 263 127 Z" unicode="a" />
<glyph horiz-adv-x="560" d="M 265 -12 C 227 -12 189 -9 152 -3 C 114 3 77 12 40 24 L 40 716 L 244 716 L 244 416 C 256 436 273 453 295 468 C 316 482 343 490 377 490 C 429 490 468 468 495 424 C 522 380 536 323 536 253 C 536 172 511 108 462 60 C 413 12 347 -12 265 -12 Z M 273 147 C 290 147 303 153 313 167 C 323 180 328 201 328 229 C 328 256 323 276 314 290 C 305 304 292 311 275 311 C 270 311 265 310 259 309 C 253 307 248 305 244 303 L 244 152 C 248 150 253 148 258 148 C 263 147 268 147 273 147 Z" unicode="b" />
<glyph horiz-adv-x="447" d="M 281 -12 C 203 -12 141 10 94 54 C 47 98 24 157 24 231 C 24 308 46 370 92 416 C 138 462 200 485 279 485 C 301 485 323 482 345 478 C 367 474 389 468 411 460 L 411 288 C 393 296 376 302 359 306 C 342 310 326 313 311 313 C 287 313 269 306 255 292 C 241 278 234 260 234 237 C 234 213 241 195 257 181 C 272 167 292 160 317 160 C 333 160 349 162 365 168 C 381 173 398 181 415 192 L 415 20 C 391 9 368 1 346 -4 C 323 -9 301 -12 281 -12 Z" unicode="c" />
<glyph horiz-adv-x="562" d="M 193 -10 C 143 -10 102 11 71 55 C 39 98 24 155 24 226 C 24 304 43 367 81 414 C 119 461 168 485 228 485 C 244 485 259 482 275 477 C 290 472 304 465 318 456 L 318 716 L 522 716 L 522 0 L 326 0 L 318 66 C 304 41 287 22 267 9 C 247 -3 222 -10 193 -10 Z M 284 164 C 290 164 296 164 302 166 C 308 168 313 171 318 175 L 318 312 C 312 314 307 316 301 318 C 295 319 290 320 284 320 C 268 320 256 313 247 299 C 238 285 234 266 234 242 C 234 218 238 199 247 185 C 255 171 268 164 284 164 Z" unicode="d" />
<glyph horiz-adv-x="531" d="M 290 -16 C 206 -16 140 7 94 53 C 47 99 24 161 24 239 C 24 316 46 378 91 424 C 136 470 199 493 280 493 C 356 493 413 466 451 414 C 488 362 507 295 507 214 L 507 199 L 231 199 C 233 178 244 163 264 154 C 283 144 311 140 347 140 C 371 140 396 143 422 149 C 447 155 471 165 495 178 L 495 21 C 459 8 423 -1 388 -7 C 353 -13 320 -16 290 -16 Z M 272 374 C 258 374 247 367 241 354 C 234 341 230 320 230 291 L 311 291 C 311 321 308 343 302 355 C 296 367 286 374 272 374 Z" unicode="e" />
<glyph horiz-adv-x="390" d="M 81 0 L 81 314 L 24 314 L 24 478 L 81 478 L 81 539 C 81 593 101 638 141 674 C 181 710 236 728 305 728 C 330 728 355 726 379 723 C 403 720 427 716 450 710 L 450 541 C 433 544 417 546 402 548 C 386 550 373 551 361 551 C 339 551 321 547 307 539 C 292 531 285 516 285 496 L 285 478 L 374 478 L 374 314 L 285 314 L 285 0 L 81 0 Z" unicode="f" />
<glyph horiz-adv-x="564" d="M 273 -220 C 233 -220 196 -216 160 -210 C 124 -204 90 -194 56 -182 L 56 -23 C 78 -39 103 -52 130 -60 C 157 -68 183 -72 207 -72 C 221 -72 244 -68 274 -60 C 304 -52 320 -29 320 11 L 320 47 C 307 27 291 12 271 2 C 251 -7 231 -12 210 -12 C 151 -12 105 9 73 52 C 40 95 24 153 24 226 C 24 316 48 384 98 428 C 147 472 203 494 265 494 C 293 494 320 487 346 473 C 371 459 390 440 403 418 L 441 478 L 524 478 L 524 27 C 524 -63 497 -127 444 -164 C 390 -201 333 -220 273 -220 Z M 282 156 C 288 156 295 157 301 159 C 307 161 313 163 318 167 L 318 306 C 312 308 307 310 301 312 C 295 313 290 314 284 314 C 268 314 256 306 247 292 C 238 278 234 259 234 236 C 234 211 238 191 247 177 C 255 163 267 156 282 156 Z" unicode="g" />
<glyph horiz-adv-x="559" d="M 40 0 L 40 716 L 244 716 L 244 419 C 256 439 274 455 296 469 C 318 483 344 490 375 490 C 417 490 452 475 480 447 C 508 418 523 380 523 332 L 523 0 L 319 0 L 319 282 C 319 294 315 303 307 310 C 299 316 290 320 280 320 C 272 320 265 318 259 316 C 252 313 247 309 244 303 L 244 0 L 40 0 Z" unicode="h" />
<glyph horiz-adv-x="284" d="M 40 542 L 40 716 L 244 716 L 244 542 L 40 542 Z M 40 0 L 40 478 L 244 478 L 244 0 L 40 0 Z" unicode="i" />
<glyph horiz-adv-x="282" d="M 38 542 L 38 716 L 242 716 L 242 542 L 38 542 Z M -56 -220 L -64 -220 L -64 -56 L -56 -56 C -28 -56 -5 -46 12 -28 C 29 -9 38 14 38 43 L 38 478 L 242 478 L 242 42 C 242 -35 214 -98 160 -147 C 105 -195 33 -220 -56 -220 Z" unicode="j" />
<glyph horiz-adv-x="589" d="M 40 0 L 40 716 L 244 716 L 244 295 L 359 478 L 575 478 L 429 256 L 577 0 L 350 0 L 244 186 L 244 0 L 40 0 Z" unicode="k" />
<glyph horiz-adv-x="284" d="M 40 0 L 40 716 L 244 716 L 244 0 L 40 0 Z" unicode="l" />
<glyph horiz-adv-x="834" d="M 40 0 L 40 478 L 244 478 L 244 418 C 256 438 273 455 295 469 C 317 483 343 490 375 490 C 403 490 428 483 450 469 C 472 455 489 436 502 414 C 524 443 547 463 571 474 C 595 484 620 490 646 490 C 690 490 726 475 755 447 C 783 418 798 380 798 332 L 798 0 L 594 0 L 594 282 C 594 294 590 303 583 310 C 575 316 566 320 556 320 C 549 320 542 318 536 314 C 530 310 525 306 521 302 L 521 0 L 317 0 L 317 282 C 317 294 313 303 306 310 C 298 316 289 320 279 320 C 271 320 264 318 258 316 C 252 313 247 309 244 303 L 244 0 L 40 0 Z" unicode="m" />
<glyph horiz-adv-x="559" d="M 40 0 L 40 478 L 244 478 L 244 418 C 256 438 274 455 296 469 C 318 483 346 490 378 490 C 418 490 453 475 481 447 C 509 418 523 380 523 332 L 523 0 L 319 0 L 319 282 C 319 294 315 303 307 310 C 299 316 290 320 280 320 C 272 320 265 318 259 316 C 252 313 247 309 244 303 L 244 0 L 40 0 Z" unicode="n" />
<glyph horiz-adv-x="568" d="M 284 -16 C 204 -16 141 7 94 54 C 47 100 24 163 24 242 C 24 318 47 379 94 425 C 141 471 204 494 284 494 C 363 494 426 471 473 426 C 520 380 544 320 544 244 C 544 164 520 101 473 54 C 426 7 363 -16 284 -16 Z M 284 157 C 298 157 310 164 320 178 C 329 192 334 212 334 240 C 334 266 329 286 320 300 C 310 314 298 321 284 321 C 269 321 257 314 248 300 C 238 286 234 266 234 240 C 234 212 238 192 248 178 C 257 164 269 157 284 157 Z" unicode="o" />
<glyph horiz-adv-x="560" d="M 40 -188 L 40 478 L 244 478 L 244 417 C 257 436 274 453 295 468 C 316 482 343 490 377 490 C 428 490 467 468 495 425 C 522 381 536 324 536 253 C 536 173 514 109 472 61 C 430 12 375 -12 307 -12 C 297 -12 286 -11 275 -9 C 263 -7 253 -4 244 0 L 244 -188 L 40 -188 Z M 273 152 C 290 152 303 158 313 171 C 323 184 328 205 328 234 C 328 260 323 281 313 295 C 303 309 290 316 274 316 C 269 316 264 315 259 314 C 253 312 248 310 244 308 L 244 160 C 248 157 252 155 258 154 C 263 152 268 152 273 152 Z" unicode="p" />
<glyph horiz-adv-x="564" d="M 320 -188 L 320 42 C 305 24 288 10 268 2 C 248 -6 227 -11 205 -11 C 151 -11 107 10 74 54 C 40 97 24 155 24 229 C 24 307 46 370 92 418 C 137 466 194 490 264 490 C 292 490 320 482 346 468 C 372 454 391 437 404 418 L 441 478 L 524 478 L 524 -188 L 320 -188 Z M 280 158 C 286 158 293 159 300 161 C 307 163 313 165 318 169 L 318 305 C 312 307 306 309 300 311 C 294 312 288 313 282 313 C 266 313 254 306 245 292 C 236 278 232 259 232 236 C 232 212 236 193 245 179 C 253 165 265 158 280 158 Z" unicode="q" />
<glyph horiz-adv-x="419" d="M 40 0 L 40 478 L 244 478 L 244 403 C 258 435 274 457 293 470 C 312 483 332 490 352 490 C 361 490 370 489 380 487 C 389 485 398 483 407 480 L 407 291 C 392 298 378 303 365 307 C 352 311 337 313 321 313 C 308 313 295 311 281 307 C 267 303 254 298 244 292 L 244 0 L 40 0 Z" unicode="r" />
<glyph horiz-adv-x="485" d="M 240 -16 C 205 -16 171 -14 137 -10 C 103 -6 69 0 35 8 L 35 164 C 63 150 92 139 120 132 C 148 124 178 121 208 121 C 216 121 223 122 229 126 C 235 129 238 134 238 141 C 238 146 235 150 231 154 C 226 158 219 161 211 163 L 163 174 C 115 184 79 203 57 230 C 35 256 24 289 24 329 C 24 379 41 419 76 449 C 111 479 164 494 236 494 C 269 494 302 492 334 488 C 366 484 398 479 431 471 L 431 325 C 403 338 377 348 353 354 C 329 360 304 363 278 363 C 268 363 260 361 254 358 C 248 354 246 349 246 343 C 246 338 247 334 251 330 C 254 326 259 323 265 322 L 313 312 C 364 301 401 281 425 253 C 449 225 461 191 461 151 C 461 101 442 61 406 30 C 369 0 314 -16 240 -16 Z" unicode="s" />
<glyph horiz-adv-x="397" d="M 239 -12 C 190 -12 151 3 122 33 C 93 63 79 104 79 156 L 79 314 L 24 314 L 24 478 L 79 478 L 79 616 L 283 616 L 283 478 L 365 478 L 365 314 L 283 314 L 283 214 C 283 199 286 187 294 179 C 302 170 312 166 325 166 C 333 166 342 167 350 170 C 358 173 366 177 373 183 L 373 13 C 350 4 328 -2 306 -6 C 284 -10 261 -12 239 -12 Z" unicode="t" />
<glyph horiz-adv-x="559" d="M 193 -12 C 146 -12 108 2 79 31 C 50 59 36 98 36 146 L 36 478 L 240 478 L 240 196 C 240 184 243 174 251 168 C 259 161 268 158 279 158 C 286 158 293 159 300 162 C 306 164 311 169 315 175 L 315 478 L 519 478 L 519 0 L 323 0 L 315 60 C 303 38 285 20 262 7 C 238 -5 215 -12 193 -12 Z" unicode="u" />
<glyph horiz-adv-x="574" d="M 160 0 L 12 478 L 230 478 L 273 320 L 304 196 L 334 320 L 377 478 L 562 478 L 414 0 L 160 0 Z" unicode="v" />
<glyph horiz-adv-x="907" d="M 156 0 L 12 478 L 220 478 L 260 320 L 287 197 L 316 320 L 360 478 L 546 478 L 594 320 L 630 196 L 665 320 L 714 478 L 895 478 L 732 0 L 511 0 L 477 116 L 443 241 L 410 116 L 377 0 L 156 0 Z" unicode="w" />
<glyph horiz-adv-x="588" d="M 12 0 L 180 242 L 19 478 L 247 478 L 293 400 L 303 381 L 312 400 L 359 478 L 564 478 L 406 246 L 576 0 L 337 0 L 291 73 L 280 94 L 270 73 L 224 0 L 12 0 Z" unicode="x" />
<glyph horiz-adv-x="573" d="M 51 -220 L 43 -220 L 43 -45 L 51 -45 C 95 -45 127 -42 148 -36 C 169 -30 187 -17 203 1 L 165 4 L 12 478 L 231 478 L 269 320 L 301 169 L 334 320 L 372 478 L 561 478 L 439 75 C 405 -36 356 -113 293 -156 C 230 -198 149 -220 51 -220 Z" unicode="y" />
<glyph horiz-adv-x="521" d="M 32 0 L 32 97 L 149 251 L 199 312 L 36 312 L 36 478 L 480 478 L 480 381 L 363 227 L 313 166 L 489 166 L 489 0 L 32 0 Z" unicode="z" />
<glyph horiz-adv-x="485" d="M 386 -220 C 314 -220 260 -203 224 -170 C 188 -137 171 -94 174 -40 L 180 72 C 181 100 171 123 150 140 C 129 156 99 167 60 173 L 60 323 C 99 328 129 339 150 356 C 171 372 181 395 180 424 L 174 536 C 171 590 188 633 224 666 C 260 699 314 716 386 716 L 445 716 L 445 571 L 429 571 C 409 571 392 564 379 550 C 366 536 361 516 363 490 L 369 409 C 371 369 362 334 342 306 C 321 278 291 259 251 249 L 251 247 C 290 235 320 215 341 187 C 361 158 370 125 368 87 L 362 6 C 360 -20 365 -40 378 -54 C 391 -68 408 -75 429 -75 L 445 -75 L 445 -220 L 386 -220 Z" unicode="{" />
<glyph horiz-adv-x="276" d="M 60 -219 L 60 716 L 216 716 L 216 -219 L 60 -219 Z" unicode="|" />
<glyph horiz-adv-x="485" d="M 40 -220 L 40 -75 L 56 -75 C 76 -75 93 -68 106 -54 C 119 -40 125 -20 123 6 L 117 87 C 114 125 123 158 144 187 C 164 215 194 235 234 247 L 234 249 C 194 259 163 278 143 306 C 122 334 113 369 116 409 L 122 490 C 124 516 118 536 105 550 C 92 564 76 571 56 571 L 40 571 L 40 716 L 99 716 C 171 716 225 699 261 666 C 297 633 313 590 311 536 L 305 424 C 303 395 313 372 334 356 C 355 339 385 328 425 323 L 425 173 C 385 167 355 156 334 140 C 313 123 303 100 305 72 L 311 -40 C 313 -94 297 -137 261 -170 C 225 -203 171 -220 99 -220 L 40 -220 Z" unicode="}" />
<glyph horiz-adv-x="384" d="M 122 146 L 20 146 C 20 196 30 235 50 261 C 70 287 100 301 140 301 C 155 301 168 298 180 294 C 192 290 204 283 216 274 C 221 269 225 266 229 265 C 232 263 236 263 240 263 C 246 263 251 265 255 271 C 259 276 261 284 262 295 L 364 295 C 364 244 354 205 334 179 C 314 153 284 140 244 140 C 230 140 217 142 205 146 C 193 150 181 158 168 168 C 162 172 158 174 154 176 C 150 177 147 178 144 178 C 136 178 131 175 127 170 C 123 164 122 156 122 146 Z" unicode="~" />
<glyph horiz-adv-x="301" d="M 52 360 L 52 524 L 248 524 L 248 360 L 52 360 Z M 53 -194 L 53 300 L 249 300 L 249 -194 L 53 -194 Z" unicode="¡" />
<glyph horiz-adv-x="447" d="M 198 383 L 198 570 L 354 570 L 354 383 L 198 383 Z M 198 -94 L 198 83 L 354 83 L 354 -94 L 198 -94 Z M 281 -12 C 203 -12 141 10 94 54 C 47 98 24 157 24 231 C 24 308 46 370 92 416 C 138 462 200 485 279 485 C 301 485 323 482 345 478 C 367 474 389 468 411 460 L 411 288 C 393 296 376 302 359 306 C 342 310 326 313 311 313 C 287 313 269 306 255 292 C 241 278 234 260 234 237 C 234 213 241 195 257 181 C 272 167 292 160 317 160 C 333 160 349 162 365 168 C 381 173 398 181 415 192 L 415 20 C 391 9 368 1 346 -4 C 323 -9 301 -12 281 -12 Z" unicode="¢" />
<glyph horiz-adv-x="592" d="M 56 0 L 56 136 C 78 148 96 165 110 187 C 123 208 130 233 131 262 L 52 262 L 52 419 L 109 419 C 100 497 116 559 158 605 C 199 651 268 674 365 674 C 395 674 425 670 454 664 C 482 657 511 647 540 633 L 540 446 C 515 462 490 475 464 483 C 438 491 410 496 381 496 C 352 496 330 489 314 477 C 298 464 289 445 289 419 L 393 419 L 393 262 L 312 262 C 311 249 309 236 307 224 C 305 211 301 199 297 189 L 540 189 L 540 0 L 56 0 Z" unicode="£" />
<glyph horiz-adv-x="779" d="M 196 -2 L 59 136 L 176 253 C 172 265 168 278 166 292 C 164 306 163 320 163 335 C 163 347 164 360 166 373 C 168 385 170 397 173 408 L 52 529 L 189 666 L 306 549 C 318 553 332 557 346 560 C 360 562 375 564 390 564 C 404 564 419 562 433 560 C 447 558 461 554 474 550 L 590 666 L 727 529 L 607 409 C 609 397 612 385 614 373 C 616 361 617 348 617 335 C 617 319 615 305 613 291 C 611 277 607 263 603 251 L 720 134 L 583 -3 L 460 120 C 449 116 438 114 426 112 C 414 110 402 110 390 110 C 377 110 365 110 353 112 C 341 114 329 116 318 120 L 196 -2 Z M 390 256 C 414 256 433 263 447 279 C 461 294 469 313 469 335 C 469 357 461 375 447 391 C 433 406 414 414 390 414 C 366 414 346 406 332 391 C 318 375 311 357 311 335 C 311 313 318 294 332 279 C 346 263 366 256 390 256 Z" unicode="¤" />
<glyph horiz-adv-x="725" d="M 132 236 L 132 336 L 604 336 L 604 236 L 132 236 Z M 132 93 L 132 193 L 604 193 L 604 93 L 132 93 Z M 262 0 L 262 213 L 24 658 L 270 658 L 348 485 L 379 413 L 410 485 L 488 658 L 705 658 L 474 220 L 474 0 L 262 0 Z" unicode="¥" />
<glyph horiz-adv-x="276" d="M 60 309 L 60 716 L 216 716 L 216 309 L 60 309 Z M 60 -220 L 60 187 L 216 187 L 216 -220 L 60 -220 Z" unicode="¦" />
<glyph horiz-adv-x="530" d="M 257 -12 C 222 -12 188 -9 154 -5 C 120 -1 86 5 52 13 L 52 160 C 80 147 110 138 141 132 C 172 126 203 123 233 123 C 241 123 248 124 254 128 C 260 131 263 135 263 141 C 263 147 260 152 256 156 C 251 160 244 162 236 163 L 191 173 C 143 183 109 201 90 227 C 71 253 62 281 62 311 C 62 335 66 356 75 374 C 83 392 95 407 110 419 C 93 431 80 447 72 466 C 64 484 60 506 60 531 C 60 581 77 621 112 651 C 147 681 200 696 272 696 C 305 696 338 694 370 690 C 402 686 434 679 467 671 L 467 538 C 441 547 414 554 387 559 C 359 563 332 566 306 566 C 296 566 288 564 282 561 C 276 558 274 554 274 548 C 274 543 275 539 279 536 C 282 532 287 530 293 529 L 337 518 C 388 506 424 488 446 462 C 467 436 478 407 478 373 C 478 348 473 326 464 308 C 455 290 443 275 427 265 C 443 251 456 234 465 214 C 473 194 478 173 478 149 C 478 99 459 60 423 31 C 386 2 331 -12 257 -12 Z M 268 310 L 290 308 C 294 312 298 317 301 323 C 304 329 306 335 306 342 C 306 352 302 360 294 367 C 286 373 275 378 261 380 L 241 383 C 238 378 236 373 234 367 C 232 361 231 356 231 350 C 231 342 234 333 240 325 C 246 316 255 311 268 310 Z" unicode="§" />
<glyph horiz-adv-x="250" d="M -40 524 L -40 664 L 100 664 L 100 524 L -40 524 Z M 150 524 L 150 664 L 290 664 L 290 524 L 150 524 Z" unicode="¨" />
<glyph horiz-adv-x="704" d="M 352 88 C 254 88 177 119 119 181 C 61 243 32 318 32 406 C 32 493 61 568 119 630 C 177 692 254 724 352 724 C 449 724 527 692 585 630 C 643 568 672 493 672 406 C 672 318 643 243 585 181 C 527 119 449 88 352 88 Z M 352 186 C 419 186 472 205 512 245 C 552 285 572 338 572 406 C 572 473 552 526 512 566 C 472 606 419 626 352 626 C 284 626 231 606 191 566 C 151 526 132 473 132 406 C 132 338 151 285 191 245 C 231 205 284 186 352 186 Z M 362 235 C 308 235 265 250 233 281 C 201 312 186 354 186 407 C 186 459 201 501 233 532 C 264 563 306 579 359 579 C 377 579 395 576 413 572 C 430 568 447 561 463 553 L 463 443 C 449 452 434 459 418 464 C 402 468 386 471 369 471 C 348 471 331 465 319 453 C 307 441 301 426 301 407 C 301 387 307 371 319 359 C 331 347 348 342 369 342 C 387 342 405 344 421 349 C 437 354 452 362 467 372 L 467 262 C 450 253 433 246 416 242 C 398 237 380 235 362 235 Z" unicode="©" />
<glyph horiz-adv-x="462" d="M 64 208 L 64 321 L 411 321 L 411 208 L 64 208 Z M 164 368 C 124 368 95 377 77 397 C 59 416 49 441 49 473 C 48 504 60 530 86 550 C 112 570 149 584 199 590 L 255 597 L 255 606 C 255 617 249 625 237 631 C 225 637 206 640 179 640 C 159 640 140 637 122 632 C 104 626 86 618 69 608 L 69 722 C 95 729 122 735 148 739 C 174 743 201 745 229 745 C 282 745 324 733 356 710 C 387 686 403 655 403 617 L 403 376 L 266 376 L 256 418 C 244 400 232 388 218 380 C 204 372 186 368 164 368 Z M 227 466 C 231 466 236 466 241 468 C 245 470 250 472 255 475 L 255 520 L 229 516 C 219 514 212 511 207 507 C 201 503 199 497 199 490 C 199 483 201 477 206 473 C 211 468 218 466 227 466 Z" unicode="ª" />
<glyph horiz-adv-x="699" d="M 187 55 L 40 226 L 187 398 L 379 398 L 233 226 L 379 55 L 187 55 Z M 467 55 L 320 226 L 467 398 L 659 398 L 513 226 L 659 55 L 467 55 Z" unicode="«" />
<glyph horiz-adv-x="502" d="M 318 103 L 318 206 L 52 206 L 52 338 L 450 338 L 450 103 L 318 103 Z" unicode="¬" />
<glyph horiz-adv-x="360" d="M 40 163 L 40 311 L 320 311 L 320 163 L 40 163 Z" unicode="­" />
<glyph horiz-adv-x="704" d="M 352 89 C 254 89 177 120 119 182 C 61 244 32 319 32 407 C 32 494 61 569 119 631 C 177 693 254 725 352 725 C 449 725 527 693 585 631 C 643 569 672 494 672 407 C 672 319 643 244 585 182 C 527 120 449 89 352 89 Z M 229 248 L 229 573 L 367 573 C 401 573 427 565 447 551 C 467 536 477 516 477 492 C 477 470 471 451 459 437 C 447 422 430 412 408 408 C 423 406 436 401 447 394 C 458 386 466 377 471 365 L 515 249 C 533 267 547 290 557 317 C 567 344 572 374 572 407 C 572 474 552 527 512 567 C 472 607 419 627 352 627 C 284 627 231 607 191 567 C 151 527 132 474 132 407 C 132 339 151 286 191 246 C 231 206 284 187 352 187 C 386 187 416 192 444 203 C 472 213 495 228 514 248 L 409 248 L 379 326 C 374 338 369 348 365 355 C 360 362 353 366 345 366 L 331 366 L 331 248 L 229 248 Z M 331 442 L 347 442 C 357 442 365 444 371 450 C 377 455 380 462 380 471 C 380 481 377 488 371 493 C 365 497 357 500 347 500 L 331 500 L 331 442 Z" unicode="®" />
<glyph horiz-adv-x="250" d="M 0 532 L 0 647 L 250 647 L 250 532 L 0 532 Z" unicode="¯" />
<glyph horiz-adv-x="378" d="M 189 435 C 141 435 102 449 74 479 C 46 509 32 545 32 587 C 32 629 46 665 74 695 C 102 725 141 740 189 740 C 237 740 275 725 303 695 C 331 665 346 629 346 587 C 346 545 331 509 303 479 C 275 449 237 435 189 435 Z M 189 542 C 201 542 212 546 221 554 C 229 562 234 573 234 587 C 234 601 229 612 221 620 C 212 628 201 633 189 633 C 176 633 165 628 157 620 C 148 612 144 601 144 587 C 144 573 148 562 157 554 C 165 546 176 542 189 542 Z" unicode="°" />
<glyph horiz-adv-x="544" d="M 56 -134 L 56 14 L 487 14 L 487 -134 L 56 -134 Z M 198 66 L 198 213 L 56 213 L 56 361 L 198 361 L 198 508 L 346 508 L 346 361 L 488 361 L 488 213 L 346 213 L 346 66 L 198 66 Z" unicode="±" />
<glyph horiz-adv-x="343" d="M 24 440 L 24 577 C 82 588 121 601 142 615 C 162 629 173 643 173 659 C 173 671 169 680 161 686 C 153 692 142 695 126 695 C 109 695 92 692 76 688 C 59 683 43 676 29 667 L 29 786 C 51 792 73 798 95 802 C 117 806 139 809 163 809 C 214 809 252 797 277 773 C 302 749 315 721 315 687 C 315 653 304 626 282 604 C 260 582 225 563 175 549 L 312 549 L 312 440 L 24 440 Z" unicode="²" />
<glyph horiz-adv-x="343" d="M 168 432 C 142 432 118 433 94 435 C 70 437 47 441 24 446 L 24 564 C 40 556 57 550 74 546 C 90 542 108 541 126 541 C 136 541 145 542 152 546 C 158 549 162 554 162 561 C 162 569 157 574 149 578 C 140 581 129 583 116 583 L 89 583 L 89 659 L 110 659 C 124 659 134 660 142 664 C 150 667 154 672 154 679 C 154 685 151 690 146 694 C 140 697 134 699 126 699 C 109 699 93 697 78 694 C 62 690 47 685 32 678 L 32 794 C 52 798 74 802 96 804 C 118 806 140 808 164 808 C 212 808 247 799 271 782 C 295 764 307 741 307 713 C 307 690 300 671 287 655 C 274 639 254 628 228 623 C 257 617 279 607 293 591 C 307 575 315 557 315 537 C 315 504 303 478 279 460 C 255 441 218 432 168 432 Z" unicode="³" />
<glyph horiz-adv-x="247" d="M 200 524 L 44 524 L 146 682 L 327 682 L 200 524 Z" unicode="´" />
<glyph horiz-adv-x="560" d="M 151 0 L 151 390 C 115 390 84 403 58 429 C 32 455 20 487 20 523 C 20 559 33 591 61 618 C 89 644 122 658 160 658 L 488 658 L 488 0 L 352 0 L 352 542 L 287 542 L 287 0 L 151 0 Z" unicode="¶" />
<glyph horiz-adv-x="248" d="M 52 194 L 52 334 L 192 334 L 192 194 L 52 194 Z" unicode="·" />
<glyph horiz-adv-x="256" d="M 137 -249 C 121 -249 108 -248 96 -246 C 84 -244 72 -242 60 -238 L 60 -149 C 68 -153 77 -157 86 -160 C 95 -162 104 -164 113 -164 C 121 -164 128 -161 134 -157 C 139 -152 142 -146 142 -139 C 142 -132 139 -126 133 -122 C 127 -117 120 -115 112 -115 L 104 -115 L 104 -40 L 116 -40 C 156 -40 188 -49 214 -67 C 239 -85 252 -111 252 -145 C 252 -179 241 -204 220 -222 C 198 -240 171 -249 137 -249 Z" unicode="¸" />
<glyph horiz-adv-x="320" d="M 24 440 L 24 550 L 81 550 L 81 679 L 24 675 L 24 786 L 235 804 L 235 550 L 292 550 L 292 440 L 24 440 Z" unicode="¹" />
<glyph horiz-adv-x="491" d="M 64 208 L 64 321 L 436 321 L 436 208 L 64 208 Z M 246 362 C 186 362 139 379 104 414 C 69 448 52 495 52 554 C 52 611 69 657 104 691 C 139 725 186 742 246 742 C 305 742 352 725 387 691 C 421 657 439 611 439 555 C 439 496 421 449 387 414 C 352 379 305 362 246 362 Z M 246 494 C 258 494 268 499 276 510 C 283 520 287 534 287 552 C 287 570 283 584 276 594 C 268 604 258 610 246 610 C 233 610 223 604 215 594 C 207 584 204 570 204 552 C 204 534 207 520 215 510 C 223 499 233 494 246 494 Z" unicode="º" />
<glyph horiz-adv-x="699" d="M 40 55 L 186 226 L 40 398 L 232 398 L 379 226 L 232 55 L 40 55 Z M 320 55 L 466 226 L 320 398 L 512 398 L 659 226 L 512 55 L 320 55 Z" unicode="»" />
<glyph horiz-adv-x="813" d="M 619 0 L 619 59 L 472 59 L 472 168 L 585 360 L 751 360 L 751 153 L 789 153 L 789 58 L 751 58 L 751 0 L 619 0 Z M 619 153 L 619 244 L 562 153 L 619 153 Z M 186 0 L 510 716 L 654 716 L 330 0 L 186 0 Z M 24 360 L 24 470 L 81 470 L 81 599 L 24 595 L 24 706 L 235 724 L 235 470 L 292 470 L 292 360 L 24 360 Z M 24 360 L 24 470 L 81 470 L 81 599 L 24 595 L 24 706 L 235 724 L 235 470 L 292 470 L 292 360 L 24 360 Z" unicode="¼" />
<glyph horiz-adv-x="840" d="M 521 1 L 521 138 C 579 149 618 162 639 176 C 659 190 670 204 670 220 C 670 232 666 241 658 247 C 650 253 639 256 623 256 C 606 256 589 253 573 249 C 556 244 540 237 526 228 L 526 347 C 548 353 570 359 592 363 C 614 367 636 370 660 370 C 711 370 749 358 774 334 C 799 310 812 282 812 248 C 812 214 801 187 779 165 C 757 143 722 124 672 110 L 809 110 L 809 1 L 521 1 Z M 186 0 L 510 716 L 654 716 L 330 0 L 186 0 Z M 24 360 L 24 470 L 81 470 L 81 599 L 24 595 L 24 706 L 235 724 L 235 470 L 292 470 L 292 360 L 24 360 Z M 24 360 L 24 470 L 81 470 L 81 599 L 24 595 L 24 706 L 235 724 L 235 470 L 292 470 L 292 360 L 24 360 Z" unicode="½" />
<glyph horiz-adv-x="795" d="M 601 0 L 601 59 L 454 59 L 454 168 L 567 360 L 733 360 L 733 153 L 771 153 L 771 58 L 733 58 L 733 0 L 601 0 Z M 601 153 L 601 244 L 544 153 L 601 153 Z M 174 0 L 498 716 L 642 716 L 318 0 L 174 0 Z M 168 352 C 142 352 118 353 94 355 C 70 357 47 361 24 366 L 24 484 C 40 476 57 470 74 466 C 90 462 108 461 126 461 C 136 461 145 462 152 466 C 158 469 162 474 162 481 C 162 489 157 494 149 498 C 140 501 129 503 116 503 L 89 503 L 89 579 L 110 579 C 124 579 134 580 142 584 C 150 587 154 592 154 599 C 154 605 151 610 146 614 C 140 617 134 619 126 619 C 109 619 93 617 78 614 C 62 610 47 605 32 598 L 32 714 C 52 718 74 722 96 724 C 118 726 140 728 164 728 C 212 728 247 719 271 702 C 295 684 307 661 307 633 C 307 610 300 591 287 575 C 274 559 254 548 228 543 C 257 537 279 527 293 511 C 307 495 315 477 315 457 C 315 424 303 398 279 380 C 255 361 218 352 168 352 Z" unicode="¾" />
<glyph horiz-adv-x="470" d="M 165 360 L 165 524 L 361 524 L 361 360 L 165 360 Z M 234 -175 C 182 -175 133 -161 88 -135 C 42 -108 20 -66 20 -8 C 20 32 27 67 42 95 C 57 123 76 146 99 165 C 119 181 136 201 151 225 C 166 248 174 273 174 300 L 354 300 C 354 254 345 216 328 188 C 310 159 294 138 279 126 C 263 113 251 100 245 87 C 238 74 235 61 235 48 C 235 31 241 17 255 7 C 269 -2 287 -8 310 -8 C 336 -8 360 -5 381 0 C 402 4 425 12 450 23 L 450 -142 C 414 -154 380 -162 348 -167 C 316 -172 278 -175 234 -175 Z" unicode="¿" />
<glyph horiz-adv-x="756" d="M 12 0 L 275 658 L 482 658 L 744 0 L 515 0 L 479 96 L 246 96 L 210 0 L 12 0 Z M 320 294 L 297 232 L 428 232 L 405 294 L 363 418 L 320 294 Z M 309 706 L 195 848 L 358 848 L 450 706 L 309 706 Z" unicode="À" />
<glyph horiz-adv-x="756" d="M 12 0 L 275 658 L 482 658 L 744 0 L 515 0 L 479 96 L 246 96 L 210 0 L 12 0 Z M 320 294 L 297 232 L 428 232 L 405 294 L 363 418 L 320 294 Z M 448 706 L 307 706 L 399 848 L 562 848 L 448 706 Z" unicode="Á" />
<glyph horiz-adv-x="756" d="M 12 0 L 275 658 L 482 658 L 744 0 L 515 0 L 479 96 L 246 96 L 210 0 L 12 0 Z M 320 294 L 297 232 L 428 232 L 405 294 L 363 418 L 320 294 Z M 343 706 L 227 706 L 312 862 L 448 862 L 533 706 L 410 706 L 376 771 L 343 706 Z" unicode="Â" />
<glyph horiz-adv-x="756" d="M 12 0 L 275 658 L 482 658 L 744 0 L 515 0 L 479 96 L 246 96 L 210 0 L 12 0 Z M 320 294 L 297 232 L 428 232 L 405 294 L 363 418 L 320 294 Z M 315 706 L 223 706 C 223 752 232 786 250 810 C 268 834 295 846 331 846 C 345 846 357 844 368 840 C 378 836 389 830 400 822 C 404 818 408 815 411 814 C 414 812 417 812 421 812 C 427 812 431 814 435 819 C 438 824 440 831 441 841 L 533 841 C 533 795 524 760 506 736 C 488 712 461 701 425 701 C 412 701 400 703 390 707 C 380 711 368 717 356 726 C 351 729 347 731 344 733 C 340 734 337 735 335 735 C 328 735 323 732 320 727 C 316 722 315 715 315 706 Z" unicode="Ã" />
<glyph horiz-adv-x="756" d="M 12 0 L 275 658 L 482 658 L 744 0 L 515 0 L 479 96 L 246 96 L 210 0 L 12 0 Z M 320 294 L 297 232 L 428 232 L 405 294 L 363 418 L 320 294 Z M 231 706 L 231 832 L 357 832 L 357 706 L 231 706 Z M 403 706 L 403 832 L 529 832 L 529 706 L 403 706 Z" unicode="Ä" />
<glyph horiz-adv-x="756" d="M 12 0 L 275 658 L 482 658 L 744 0 L 515 0 L 479 96 L 246 96 L 210 0 L 12 0 Z M 320 294 L 297 232 L 428 232 L 405 294 L 363 418 L 320 294 Z M 377 572 C 337 572 306 584 282 609 C 258 633 247 664 247 700 C 247 735 258 765 282 789 C 306 813 337 826 377 826 C 416 826 447 813 471 789 C 495 765 507 735 507 700 C 507 664 495 633 471 609 C 447 584 416 572 377 572 Z M 377 658 C 388 658 398 661 406 669 C 414 676 418 686 418 699 C 418 711 414 721 406 728 C 398 735 388 739 377 739 C 365 739 356 735 348 728 C 340 721 336 711 336 699 C 336 686 340 676 348 669 C 356 661 365 658 377 658 Z" unicode="Å" />
<glyph horiz-adv-x="961" d="M 12 0 L 369 658 L 906 658 L 906 470 L 693 470 L 693 410 L 889 410 L 889 248 L 693 248 L 693 188 L 917 188 L 917 0 L 481 0 L 481 126 L 293 126 L 225 0 L 12 0 Z M 424 368 L 376 279 L 481 279 L 481 477 L 424 368 Z" unicode="Æ" />
</font>
</defs>
</svg>
