<?xml version="1.0" encoding="utf-8" ?><svg version="1.1" xmlns = 'http://www.w3.org/2000/svg'><defs><font id='web' horiz-adv-x="1000">
<font-face font-family="web" descent="-252" cap-height="658" units-per-em="1000" bbox="-178,-332,1245,994" x-height="468" ascent="748" />
<missing-glyph horiz-adv-x="500" d="M 50 -252 L 450 -252 L 450 748 L 50 748 L 50 -252 Z M 100 -202 L 100 698 L 400 698 L 400 -202 L 100 -202 Z" /><glyph horiz-adv-x="200" d="" unicode=" " />
<glyph horiz-adv-x="237" d="M 94 204 L 164 704 L 270 704 L 200 204 L 94 204 Z M 64 0 L 80 108 L 188 108 L 172 0 L 64 0 Z" unicode="!" />
<glyph horiz-adv-x="352" d="M 126 482 L 159 718 L 251 718 L 217 482 L 126 482 Z M 270 482 L 304 718 L 395 718 L 362 482 L 270 482 Z" unicode="&#x22;" />
<glyph horiz-adv-x="582" d="M 63 86 L 77 182 L 166 182 L 199 302 L 108 302 L 122 398 L 226 398 L 259 520 L 355 520 L 321 398 L 415 398 L 448 520 L 544 520 L 510 398 L 586 398 L 572 302 L 484 302 L 451 182 L 541 182 L 528 86 L 424 86 L 390 -38 L 295 -38 L 329 86 L 235 86 L 201 -38 L 106 -38 L 140 86 L 63 86 Z M 262 182 L 355 182 L 388 302 L 295 302 L 262 182 Z" unicode="#" />
<glyph horiz-adv-x="505" d="M 297 619 L 317 758 L 416 758 L 396 619 L 297 619 Z M 197 -99 L 216 40 L 316 40 L 296 -99 L 197 -99 Z M 243 -15 C 209 -15 176 -11 145 -4 C 113 3 84 15 58 31 L 74 148 C 98 128 125 114 155 104 C 185 94 216 90 249 90 C 283 90 311 98 333 115 C 355 131 367 155 367 185 C 367 206 359 225 344 241 C 329 257 305 272 271 286 L 258 291 C 209 309 173 333 150 362 C 126 391 115 425 115 465 C 115 523 135 572 177 612 C 219 652 273 673 340 673 C 371 673 402 669 432 662 C 462 654 490 643 518 629 L 501 511 C 475 530 449 544 422 554 C 394 563 366 568 338 568 C 305 568 279 560 260 544 C 241 528 232 506 232 480 C 232 460 240 443 256 428 C 272 412 297 398 333 384 L 346 379 C 393 360 428 336 451 306 C 473 276 485 242 485 203 C 485 140 462 88 416 47 C 370 5 312 -15 243 -15 Z" unicode="$" />
<glyph horiz-adv-x="889" d="M 266 352 C 219 352 182 366 154 396 C 126 425 112 464 112 512 C 112 577 129 629 164 669 C 199 708 243 728 297 728 C 344 728 381 713 409 684 C 436 655 450 617 450 569 C 450 503 432 451 398 411 C 363 371 319 352 266 352 Z M 270 434 C 296 434 316 445 332 468 C 348 491 356 523 356 563 C 356 589 350 609 338 624 C 326 638 310 646 292 646 C 266 646 246 634 230 611 C 214 588 206 557 206 518 C 206 490 212 469 224 455 C 236 441 251 434 270 434 Z M 250 0 L 643 718 L 739 718 L 346 0 L 250 0 Z M 693 -8 C 646 -8 609 6 581 36 C 553 65 539 104 539 152 C 539 217 556 269 591 309 C 626 348 670 368 724 368 C 771 368 808 353 836 324 C 863 295 877 257 877 209 C 877 143 859 91 825 51 C 790 11 746 -8 693 -8 Z M 697 74 C 723 74 743 85 759 108 C 775 131 783 163 783 203 C 783 229 777 249 765 264 C 753 278 737 286 719 286 C 693 286 673 274 657 251 C 641 228 633 197 633 158 C 633 130 639 109 651 95 C 663 81 678 74 697 74 Z" unicode="%" />
<glyph horiz-adv-x="617" d="M 486 -98 C 454 -98 429 -90 409 -74 C 389 -58 381 -34 386 -4 L 391 35 L 407 93 C 385 54 359 27 331 11 C 302 -5 272 -13 240 -13 C 199 -13 161 0 127 25 C 92 51 75 93 75 151 C 75 185 86 220 110 256 C 133 292 172 317 227 332 C 189 344 162 364 144 390 C 126 416 118 447 118 483 C 118 543 139 591 183 625 C 226 659 283 676 355 676 C 380 676 407 673 436 667 C 464 661 491 653 516 643 L 501 537 C 479 549 456 559 431 566 C 405 572 380 576 356 576 C 313 576 281 566 261 547 C 240 528 230 503 230 473 C 230 448 240 426 262 408 C 283 390 313 381 352 381 L 440 381 L 456 496 L 565 496 L 549 381 L 645 381 L 631 283 L 535 283 L 503 54 C 500 37 502 24 510 15 C 517 6 527 2 541 2 C 549 2 558 3 567 5 C 576 7 585 11 593 16 L 581 -78 C 566 -84 550 -89 533 -93 C 516 -96 500 -98 486 -98 Z M 287 90 C 313 90 340 100 368 122 C 395 144 412 180 419 232 L 426 283 L 341 283 C 293 283 256 273 232 254 C 207 234 195 208 195 176 C 195 152 202 132 218 115 C 233 98 256 90 287 90 Z" unicode="&#x26;" />
<glyph horiz-adv-x="216" d="M 126 481 L 159 718 L 259 718 L 226 481 L 126 481 Z" unicode="'" />
<glyph horiz-adv-x="373" d="M 226 -213 C 188 -145 160 -76 140 -8 C 120 59 110 129 110 201 C 110 297 128 388 165 474 C 201 560 256 641 330 718 L 457 718 C 377 640 317 559 278 473 C 238 387 219 297 219 203 C 219 136 228 68 248 0 C 267 -67 298 -139 340 -213 L 226 -213 Z" unicode="(" />
<glyph horiz-adv-x="373" d="M -12 -213 C 68 -135 128 -54 167 32 C 205 118 225 208 225 302 C 225 368 215 436 196 504 C 176 572 146 644 104 718 L 218 718 C 255 650 284 582 304 514 C 324 446 334 376 334 304 C 334 208 315 117 278 29 C 240 -58 186 -139 115 -213 L -12 -213 Z" unicode=")" />
<glyph horiz-adv-x="595" d="M 205 3 L 112 79 L 261 219 L 80 254 L 137 376 L 297 296 L 299 483 L 427 483 L 377 294 L 561 376 L 584 253 L 394 218 L 504 79 L 389 4 L 321 170 L 205 3 Z" unicode="*" />
<glyph horiz-adv-x="501" d="M 212 82 L 235 245 L 79 245 L 93 340 L 250 340 L 273 503 L 372 503 L 349 340 L 503 340 L 490 245 L 334 245 L 311 82 L 212 82 Z" unicode="+" />
<glyph horiz-adv-x="212" d="M 66 -181 L 0 -126 C 20 -102 35 -79 44 -57 C 53 -35 60 -9 65 21 L 78 114 L 184 114 L 171 27 C 164 -20 152 -60 134 -94 C 116 -128 93 -157 66 -181 Z" unicode="," />
<glyph horiz-adv-x="379" d="M 77 194 L 90 289 L 370 289 L 357 194 L 77 194 Z" unicode="-" />
<glyph horiz-adv-x="203" d="M 47 0 L 63 109 L 171 109 L 156 0 L 47 0 Z" unicode="." />
<glyph horiz-adv-x="452" d="M 19 0 L 415 718 L 534 718 L 138 0 L 19 0 Z" unicode="/" />
<glyph horiz-adv-x="617" d="M 326 -15 C 254 -15 197 8 154 54 C 111 100 90 167 90 254 C 90 370 117 468 171 550 C 225 632 296 673 384 673 C 456 673 513 648 556 600 C 599 551 621 486 621 404 C 621 288 594 189 540 107 C 486 25 414 -15 326 -15 Z M 325 90 C 379 90 422 119 455 179 C 487 238 504 310 504 396 C 504 451 492 493 470 523 C 448 552 420 567 386 567 C 329 567 285 536 254 475 C 222 413 207 342 207 261 C 207 206 217 164 239 134 C 261 104 289 90 325 90 Z" unicode="0" />
<glyph horiz-adv-x="380" d="M 161 0 L 240 556 L 108 536 L 122 641 L 368 673 L 273 0 L 161 0 Z" unicode="1" />
<glyph horiz-adv-x="527" d="M 52 0 L 73 154 L 154 198 C 237 236 302 279 350 325 C 398 371 422 419 422 468 C 422 497 412 521 394 539 C 375 557 350 566 318 566 C 285 566 253 561 223 551 C 192 541 162 525 134 505 L 150 622 C 179 638 209 651 240 659 C 271 667 302 671 333 671 C 395 671 444 654 482 620 C 520 586 539 539 539 479 C 539 417 515 357 468 301 C 420 244 353 195 265 153 L 188 112 L 489 112 L 473 0 L 52 0 Z" unicode="2" />
<glyph horiz-adv-x="506" d="M 245 -13 C 205 -13 169 -8 138 0 C 107 7 77 20 49 37 L 66 152 C 91 131 119 116 149 106 C 179 96 211 92 245 92 C 285 92 316 100 338 117 C 360 133 371 157 371 188 C 371 216 359 239 337 255 C 315 271 282 279 239 279 L 197 279 L 212 384 L 247 384 C 295 384 332 393 359 413 C 386 433 400 459 400 492 C 400 516 392 535 376 547 C 360 559 336 566 304 566 C 276 566 248 561 220 552 C 192 543 163 530 135 512 L 151 624 C 181 639 211 650 240 658 C 268 666 299 670 332 670 C 386 670 430 657 465 632 C 499 607 517 567 517 512 C 517 471 503 434 475 400 C 447 366 409 344 361 334 C 398 326 428 309 450 283 C 472 257 483 225 483 185 C 483 123 461 74 419 39 C 376 4 318 -13 245 -13 Z" unicode="3" />
<glyph horiz-adv-x="582" d="M 338 0 L 361 160 L 64 160 L 74 236 L 396 662 L 543 662 L 486 259 L 575 259 L 561 160 L 473 160 L 450 0 L 338 0 Z M 374 259 L 412 527 L 211 259 L 374 259 Z" unicode="4" />
<glyph horiz-adv-x="529" d="M 227 -12 C 194 -12 163 -8 135 0 C 107 8 80 20 55 36 L 71 150 C 93 131 119 117 147 107 C 175 97 206 93 239 93 C 283 93 318 103 343 123 C 368 143 381 171 381 207 C 381 237 370 261 348 278 C 326 294 294 303 254 303 C 228 303 201 301 174 298 C 146 295 121 291 98 287 L 172 658 L 535 658 L 519 552 L 260 552 L 229 399 C 239 401 251 403 263 404 C 275 405 287 406 299 406 C 362 406 412 389 449 356 C 485 322 504 277 504 221 C 504 150 478 93 428 51 C 378 9 311 -12 227 -12 Z" unicode="5" />
<glyph horiz-adv-x="567" d="M 302 -12 C 236 -12 183 8 144 50 C 105 91 86 151 86 230 C 86 360 119 466 187 548 C 255 630 337 671 433 671 C 457 671 480 669 502 665 C 523 661 545 655 567 647 L 551 536 C 532 545 512 553 490 559 C 468 565 447 568 428 568 C 380 568 336 550 296 515 C 256 479 228 427 213 357 C 231 381 253 401 280 415 C 306 429 335 436 367 436 C 422 436 466 418 500 383 C 533 348 550 301 550 241 C 550 165 526 103 479 57 C 431 11 372 -12 302 -12 Z M 306 87 C 344 87 376 100 400 127 C 424 154 436 188 436 228 C 436 262 427 288 409 308 C 391 328 367 338 339 338 C 307 338 277 327 251 306 C 224 285 206 258 198 224 C 195 185 203 152 223 126 C 242 100 270 87 306 87 Z" unicode="6" />
<glyph horiz-adv-x="508" d="M 129 0 L 410 552 L 122 552 L 137 658 L 556 658 L 544 576 L 250 0 L 129 0 Z" unicode="7" />
<glyph horiz-adv-x="557" d="M 287 -15 C 225 -15 174 0 134 31 C 94 62 74 103 74 154 C 74 194 86 229 111 261 C 136 293 171 318 215 336 C 188 352 167 373 152 398 C 137 422 130 449 130 479 C 130 537 152 584 196 620 C 240 656 294 674 360 674 C 417 674 464 659 501 631 C 538 602 557 565 557 519 C 557 484 545 452 523 424 C 500 396 468 373 428 356 C 462 336 488 312 506 285 C 524 258 533 229 533 198 C 533 133 509 81 462 43 C 415 4 357 -15 287 -15 Z M 329 396 L 341 392 C 373 403 398 418 415 438 C 431 457 440 478 440 501 C 440 521 432 539 416 553 C 400 567 379 574 353 574 C 321 574 296 565 276 549 C 256 532 247 511 247 487 C 247 467 254 449 269 433 C 284 417 304 404 329 396 Z M 194 171 C 194 145 203 124 222 108 C 240 92 265 84 296 84 C 331 84 359 93 381 113 C 403 133 414 158 414 188 C 414 211 405 231 388 249 C 370 267 346 281 314 292 L 303 296 C 270 284 244 267 224 245 C 204 222 194 197 194 171 Z" unicode="8" />
<glyph horiz-adv-x="566" d="M 226 -12 C 202 -12 179 -9 156 -5 C 133 -1 112 5 92 13 L 108 123 C 126 113 146 105 168 100 C 189 94 210 92 230 92 C 278 92 322 109 362 144 C 402 179 430 232 445 302 C 427 277 404 258 378 244 C 351 230 322 224 291 224 C 236 224 192 241 159 275 C 125 309 109 356 109 415 C 109 488 132 549 180 598 C 227 646 286 671 358 671 C 424 671 476 650 514 609 C 552 567 572 508 572 430 C 572 298 538 192 471 110 C 403 28 322 -12 226 -12 Z M 320 322 C 351 322 380 332 407 353 C 434 374 452 402 460 436 C 462 474 454 507 435 533 C 416 559 389 572 354 572 C 316 572 285 558 260 531 C 235 504 223 470 223 428 C 223 395 232 369 250 350 C 268 331 291 322 320 322 Z" unicode="9" />
<glyph horiz-adv-x="207" d="M 47 0 L 63 109 L 171 109 L 156 0 L 47 0 Z M 89 292 L 105 401 L 213 401 L 198 292 L 89 292 Z" unicode=":" />
<glyph horiz-adv-x="217" d="M 66 -180 L 0 -125 C 20 -101 35 -78 44 -56 C 53 -34 60 -8 65 22 L 78 115 L 184 115 L 171 28 C 164 -19 152 -59 134 -93 C 116 -127 93 -156 66 -180 Z M 101 293 L 117 402 L 225 402 L 210 293 L 101 293 Z" unicode=";" />
<glyph horiz-adv-x="495" d="M 297 83 L 101 293 L 358 505 L 507 505 L 249 293 L 446 83 L 297 83 Z" unicode="&#x3C;" />
<glyph horiz-adv-x="547" d="M 106 337 L 119 431 L 550 431 L 537 337 L 106 337 Z M 80 152 L 93 247 L 524 247 L 510 152 L 80 152 Z" unicode="=" />
<glyph horiz-adv-x="495" d="M 72 83 L 329 294 L 133 505 L 280 505 L 477 293 L 222 83 L 72 83 Z" unicode="&#x3E;" />
<glyph horiz-adv-x="458" d="M 191 204 C 196 245 207 281 225 312 C 242 343 268 375 304 407 C 334 435 355 459 367 479 C 379 499 385 518 385 538 C 385 564 375 584 356 599 C 336 614 310 622 276 622 C 250 622 223 618 195 610 C 167 602 142 590 120 576 L 136 686 C 160 696 187 705 218 711 C 248 717 279 721 309 721 C 367 721 414 706 448 677 C 482 647 500 608 500 560 C 500 528 490 496 471 464 C 451 432 424 399 388 367 C 357 339 335 312 321 287 C 307 262 297 234 293 204 L 191 204 Z M 161 0 L 176 108 L 284 108 L 269 0 L 161 0 Z" unicode="?" />
<glyph horiz-adv-x="800" d="M 389 -73 C 301 -73 228 -44 170 12 C 112 68 83 143 83 237 C 83 357 121 453 198 523 C 274 593 370 628 485 628 C 573 628 647 602 707 552 C 767 502 797 434 797 349 C 797 274 780 215 748 172 C 715 129 675 108 627 108 C 601 108 577 113 556 125 C 535 137 519 158 509 188 C 494 158 475 138 451 126 C 427 114 403 108 381 108 C 347 108 318 119 296 143 C 274 167 263 199 263 240 C 263 302 282 352 321 390 C 360 428 409 447 467 447 C 483 447 503 445 526 441 C 548 437 569 431 588 425 L 568 273 C 564 243 567 219 578 201 C 589 182 607 173 631 173 C 659 173 682 189 699 223 C 715 256 724 298 724 348 C 724 407 702 457 659 498 C 616 538 558 559 485 559 C 383 559 303 528 244 467 C 185 405 156 329 156 238 C 156 169 177 112 219 66 C 261 20 318 -3 389 -3 C 417 -3 448 1 481 9 C 513 17 542 27 568 40 L 567 -36 C 541 -46 511 -55 479 -62 C 446 -69 416 -73 389 -73 Z M 401 176 C 421 176 441 187 459 209 C 477 231 490 268 498 321 L 505 373 C 499 375 491 376 482 378 C 473 380 464 381 455 381 C 420 381 392 368 371 343 C 349 318 339 287 339 249 C 339 227 344 210 355 196 C 366 182 381 176 401 176 Z" unicode="@" />
<glyph horiz-adv-x="663" d="M 17 0 L 371 661 L 476 661 L 646 0 L 529 0 L 488 168 L 220 168 L 133 0 L 17 0 Z M 356 429 L 272 268 L 463 268 L 424 429 L 403 526 L 356 429 Z" unicode="A" />
<glyph horiz-adv-x="543" d="M 68 0 L 160 658 L 338 658 C 405 658 455 644 488 617 C 520 589 537 552 537 504 C 537 464 525 429 503 398 C 481 366 446 345 400 333 C 441 325 472 308 492 284 C 512 260 522 230 522 195 C 522 135 500 88 457 53 C 413 17 348 0 261 0 L 68 0 Z M 234 379 L 309 379 C 346 379 374 387 394 405 C 414 422 424 447 424 479 C 424 505 416 525 400 539 C 384 553 361 560 331 560 L 259 560 L 234 379 Z M 195 98 L 281 98 C 323 98 354 107 376 125 C 397 143 408 168 408 201 C 408 227 399 248 381 263 C 363 277 336 285 300 285 L 220 285 L 195 98 Z" unicode="B" />
<glyph horiz-adv-x="658" d="M 412 -15 C 312 -15 234 14 177 72 C 120 130 92 202 92 288 C 92 398 128 490 200 563 C 272 636 368 673 487 673 C 523 673 559 668 594 660 C 628 652 661 639 693 622 L 677 510 C 646 528 614 543 581 553 C 547 563 513 569 477 569 C 396 569 331 543 281 492 C 231 440 207 375 207 295 C 207 235 226 185 265 147 C 304 108 357 89 423 89 C 461 89 497 94 532 105 C 566 116 601 132 636 153 L 620 38 C 585 19 550 5 516 -2 C 481 -10 446 -15 412 -15 Z" unicode="C" />
<glyph horiz-adv-x="695" d="M 68 0 L 160 658 L 376 658 C 474 658 552 631 610 577 C 667 523 696 454 696 369 C 696 260 658 171 583 103 C 508 34 408 0 282 0 L 68 0 Z M 195 105 L 296 105 C 383 105 452 129 503 177 C 554 225 580 288 580 364 C 580 418 561 463 523 499 C 485 535 434 553 368 553 L 258 553 L 195 105 Z" unicode="D" />
<glyph horiz-adv-x="516" d="M 68 0 L 160 658 L 537 658 L 522 553 L 258 553 L 234 386 L 490 386 L 475 280 L 220 280 L 195 105 L 472 105 L 457 0 L 68 0 Z" unicode="E" />
<glyph horiz-adv-x="464" d="M 68 0 L 160 658 L 518 658 L 503 553 L 258 553 L 233 379 L 466 379 L 451 273 L 218 273 L 180 0 L 68 0 Z" unicode="F" />
<glyph horiz-adv-x="695" d="M 408 -15 C 309 -15 231 13 175 70 C 119 126 91 197 91 282 C 91 394 127 488 200 562 C 272 636 368 673 486 673 C 524 673 561 669 599 661 C 636 653 669 642 698 628 L 683 518 C 655 534 622 546 586 555 C 550 564 514 569 478 569 C 397 569 332 542 282 490 C 232 438 207 371 207 290 C 207 232 226 184 265 146 C 303 108 353 90 415 90 C 439 90 461 91 482 95 C 503 98 522 104 540 113 L 559 248 L 425 248 L 440 353 L 687 353 L 644 42 C 604 22 564 7 524 -1 C 483 -10 444 -15 408 -15 Z" unicode="G" />
<glyph horiz-adv-x="687" d="M 68 0 L 160 658 L 273 658 L 235 387 L 561 387 L 598 658 L 711 658 L 619 0 L 506 0 L 547 282 L 221 282 L 181 0 L 68 0 Z" unicode="H" />
<glyph horiz-adv-x="249" d="M 68 0 L 160 658 L 273 658 L 181 0 L 68 0 Z" unicode="I" />
<glyph horiz-adv-x="257" d="M -42 -211 L -50 -211 L -36 -107 L -28 -107 C 0 -107 21 -100 39 -87 C 57 -73 68 -50 73 -16 L 168 658 L 281 658 L 186 -16 C 176 -85 151 -135 109 -165 C 67 -195 17 -211 -42 -211 Z" unicode="J" />
<glyph horiz-adv-x="610" d="M 68 0 L 160 658 L 273 658 L 231 359 L 535 658 L 674 658 L 343 336 L 594 0 L 455 0 L 225 314 L 181 0 L 68 0 Z" unicode="K" />
<glyph horiz-adv-x="466" d="M 68 0 L 160 658 L 273 658 L 196 105 L 459 105 L 443 0 L 68 0 Z" unicode="L" />
<glyph horiz-adv-x="799" d="M 68 0 L 160 658 L 321 658 L 406 360 L 430 251 L 484 360 L 652 658 L 823 658 L 731 0 L 620 0 L 680 426 L 700 542 L 639 426 L 469 128 L 361 128 L 273 426 L 247 534 L 235 426 L 175 0 L 68 0 Z" unicode="M" />
<glyph horiz-adv-x="711" d="M 68 0 L 160 658 L 275 658 L 522 236 L 560 163 L 569 236 L 628 658 L 734 658 L 642 0 L 529 0 L 280 426 L 243 495 L 235 426 L 175 0 L 68 0 Z" unicode="N" />
<glyph horiz-adv-x="772" d="M 404 -15 C 312 -15 237 12 179 68 C 121 123 92 196 92 288 C 92 398 126 489 194 563 C 262 636 350 673 459 673 C 550 673 625 645 684 589 C 742 533 772 459 772 367 C 772 258 737 167 669 94 C 601 21 512 -15 404 -15 Z M 407 90 C 480 90 540 115 587 167 C 633 218 657 283 657 363 C 657 421 639 469 603 509 C 567 548 518 568 457 568 C 383 568 322 542 276 491 C 230 440 207 375 207 295 C 207 237 224 188 260 149 C 296 109 345 90 407 90 Z" unicode="O" />
<glyph horiz-adv-x="511" d="M 68 0 L 160 658 L 315 658 C 382 658 436 640 476 605 C 516 570 536 523 536 464 C 536 396 511 339 463 293 C 415 247 349 224 266 224 L 212 224 L 181 0 L 68 0 Z M 226 325 L 274 325 C 318 325 353 336 381 360 C 408 384 422 415 422 453 C 422 483 411 508 391 526 C 371 544 342 554 306 554 L 258 554 L 226 325 Z" unicode="P" />
<glyph horiz-adv-x="775" d="M 675 -151 C 619 -135 567 -114 519 -86 C 471 -58 430 -23 398 17 L 497 90 C 520 59 550 32 587 9 C 623 -13 663 -31 707 -43 L 675 -151 Z M 404 -15 C 312 -15 237 12 179 68 C 121 123 92 196 92 288 C 92 398 126 489 194 563 C 262 636 350 673 459 673 C 550 673 625 645 684 589 C 742 533 772 459 772 367 C 772 258 737 167 669 94 C 601 21 512 -15 404 -15 Z M 407 90 C 480 90 540 115 587 167 C 633 218 657 283 657 363 C 657 421 639 469 603 509 C 567 548 518 568 457 568 C 383 568 322 542 276 491 C 230 440 207 375 207 295 C 207 237 224 188 260 149 C 296 109 345 90 407 90 Z" unicode="Q" />
<glyph horiz-adv-x="547" d="M 68 0 L 161 658 L 349 658 C 409 658 456 643 490 615 C 523 587 540 547 540 497 C 540 450 526 410 498 378 C 470 345 432 323 384 313 C 408 306 427 295 442 279 C 457 263 468 243 474 219 L 531 0 L 415 0 L 365 196 C 359 220 348 239 334 252 C 319 264 301 271 279 271 L 219 271 L 181 0 L 68 0 Z M 233 366 L 308 366 C 340 366 367 376 387 397 C 407 418 418 444 418 475 C 418 500 410 520 395 535 C 380 549 360 557 334 557 L 259 557 L 233 366 Z" unicode="R" />
<glyph horiz-adv-x="510" d="M 246 -15 C 212 -15 179 -11 148 -4 C 116 3 87 15 61 31 L 77 148 C 101 128 128 114 158 104 C 188 94 219 90 252 90 C 286 90 314 98 336 115 C 358 131 370 155 370 185 C 370 206 362 225 347 241 C 332 257 308 272 274 286 L 261 291 C 212 309 176 333 153 362 C 129 391 118 425 118 465 C 118 523 138 572 180 612 C 222 652 276 673 343 673 C 374 673 405 669 435 662 C 465 654 493 643 521 629 L 504 511 C 478 530 452 544 425 554 C 397 563 369 568 341 568 C 308 568 282 560 263 544 C 244 528 235 506 235 480 C 235 460 243 443 259 428 C 275 412 300 398 336 384 L 349 379 C 396 360 431 336 454 306 C 476 276 488 242 488 203 C 488 140 465 88 419 47 C 373 5 315 -15 246 -15 Z" unicode="S" />
<glyph horiz-adv-x="557" d="M 222 0 L 300 553 L 98 553 L 113 658 L 629 658 L 614 553 L 412 553 L 334 0 L 222 0 Z" unicode="T" />
<glyph horiz-adv-x="670" d="M 355 -12 C 265 -12 197 14 151 66 C 105 118 87 183 98 261 L 154 658 L 266 658 L 210 258 C 203 208 213 168 239 138 C 265 108 304 94 358 94 C 406 94 446 109 480 139 C 513 169 533 208 540 257 L 596 658 L 702 658 L 645 254 C 633 169 600 103 548 57 C 496 11 431 -12 355 -12 Z" unicode="U" />
<glyph horiz-adv-x="662" d="M 281 0 L 106 658 L 226 658 L 335 232 L 352 149 L 392 232 L 620 658 L 739 658 L 380 0 L 281 0 Z" unicode="V" />
<glyph horiz-adv-x="963" d="M 219 0 L 108 658 L 226 658 L 292 232 L 299 148 L 330 232 L 514 658 L 636 658 L 702 232 L 709 148 L 739 232 L 923 658 L 1039 658 L 744 0 L 627 0 L 563 427 L 554 515 L 521 427 L 337 0 L 219 0 Z" unicode="W" />
<glyph horiz-adv-x="629" d="M 16 0 L 297 341 L 123 658 L 253 658 L 347 479 L 373 423 L 416 479 L 562 658 L 698 658 L 427 336 L 613 0 L 484 0 L 377 200 L 352 249 L 313 200 L 152 0 L 16 0 Z" unicode="X" />
<glyph horiz-adv-x="616" d="M 251 0 L 289 268 L 102 658 L 228 658 L 333 439 L 358 375 L 401 439 L 565 658 L 695 658 L 400 269 L 363 0 L 251 0 Z" unicode="Y" />
<glyph horiz-adv-x="582" d="M 43 0 L 52 62 L 403 500 L 447 553 L 127 553 L 142 658 L 630 658 L 622 596 L 269 157 L 226 105 L 553 105 L 538 0 L 43 0 Z" unicode="Z" />
<glyph horiz-adv-x="358" d="M 50 -213 L 181 718 L 398 718 L 385 625 L 274 625 L 169 -119 L 280 -119 L 267 -213 L 50 -213 Z" unicode="[" />
<glyph horiz-adv-x="484" d="M 356 0 L 120 718 L 229 718 L 465 0 L 356 0 Z" unicode="\" />
<glyph horiz-adv-x="355" d="M 27 -213 L 40 -119 L 152 -119 L 257 625 L 145 625 L 158 718 L 375 718 L 244 -213 L 27 -213 Z" unicode="]" />
<glyph horiz-adv-x="376" d="M 120 524 L 236 666 L 328 666 L 404 524 L 312 524 L 272 595 L 213 524 L 120 524 Z" unicode="^" />
<glyph horiz-adv-x="461" d="M -30 -213 L -17 -118 L 444 -118 L 431 -213 L -30 -213 Z" unicode="_" />
<glyph horiz-adv-x="238" d="M 175 524 L 73 668 L 199 668 L 288 524 L 175 524 Z" unicode="`" />
<glyph horiz-adv-x="532" d="M 230 -10 C 182 -10 143 6 111 40 C 79 73 64 120 64 180 C 64 265 92 336 148 393 C 204 449 272 478 354 478 C 381 478 411 474 444 468 C 477 462 507 454 534 444 L 493 146 C 489 122 487 98 485 74 C 483 50 482 25 482 0 L 373 0 C 373 10 373 21 373 33 C 373 44 374 55 375 65 L 377 89 C 359 53 337 27 311 12 C 285 -2 258 -10 230 -10 Z M 262 86 C 292 86 320 101 347 132 C 374 163 393 217 404 295 L 415 370 C 403 374 390 378 378 380 C 365 382 352 383 338 383 C 293 383 254 364 222 326 C 189 288 173 244 173 192 C 173 156 181 130 197 112 C 213 94 235 86 262 86 Z" unicode="a" />
<glyph horiz-adv-x="525" d="M 241 -10 C 214 -10 183 -8 149 -4 C 115 0 83 5 54 12 L 154 718 L 263 718 L 223 434 L 212 374 C 228 410 250 437 276 453 C 302 469 332 478 365 478 C 411 478 449 460 480 426 C 511 391 527 345 527 287 C 527 202 500 131 446 75 C 392 18 324 -10 241 -10 Z M 253 85 C 299 85 338 103 370 139 C 402 175 418 220 418 272 C 418 306 410 332 394 352 C 378 372 355 382 327 382 C 296 382 268 366 243 336 C 217 306 199 251 187 172 L 176 93 C 186 90 199 88 213 87 C 227 85 241 85 253 85 Z" unicode="b" />
<glyph horiz-adv-x="466" d="M 283 -10 C 217 -10 165 9 126 48 C 86 87 67 137 67 197 C 67 280 92 348 143 400 C 193 452 260 478 342 478 C 367 478 391 474 415 468 C 438 462 461 453 484 442 L 469 336 C 445 350 423 361 403 369 C 382 376 359 380 333 380 C 285 380 246 363 218 331 C 190 299 176 258 176 209 C 176 172 187 143 209 121 C 231 99 261 88 299 88 C 326 88 351 92 375 100 C 398 108 421 121 444 137 L 429 31 C 405 17 382 6 358 0 C 334 -6 309 -10 283 -10 Z" unicode="c" />
<glyph horiz-adv-x="535" d="M 233 -10 C 185 -10 145 6 113 40 C 81 73 66 120 66 180 C 66 265 93 336 149 393 C 205 449 273 478 353 478 C 365 478 377 477 391 475 C 404 473 417 470 431 466 L 466 718 L 576 718 L 495 146 C 492 122 489 98 487 74 C 485 50 484 25 484 0 L 376 0 C 376 8 376 18 376 29 C 376 40 377 52 378 65 L 379 89 C 361 53 339 27 313 12 C 287 -2 260 -10 233 -10 Z M 265 86 C 295 86 323 101 350 132 C 376 163 395 217 407 295 L 417 365 C 405 371 393 375 379 378 C 365 381 351 383 337 383 C 293 383 255 364 223 327 C 191 289 175 245 175 193 C 175 157 183 131 200 113 C 216 95 238 86 265 86 Z" unicode="d" />
<glyph horiz-adv-x="485" d="M 287 -10 C 217 -10 163 9 125 49 C 87 88 68 139 68 201 C 68 280 92 346 141 399 C 189 451 250 478 324 478 C 370 478 409 465 440 440 C 470 414 486 382 486 343 C 486 293 466 256 427 231 C 387 206 323 191 235 187 L 177 183 C 179 151 191 127 213 110 C 235 92 264 84 300 84 C 328 84 356 88 383 97 C 410 105 436 118 461 136 L 445 30 C 420 16 394 6 368 0 C 342 -6 315 -10 287 -10 Z M 311 387 C 279 387 251 375 227 351 C 203 327 189 298 184 262 L 245 265 C 289 267 321 275 343 287 C 364 299 375 317 375 340 C 375 354 369 365 357 374 C 345 382 330 387 311 387 Z" unicode="e" />
<glyph horiz-adv-x="289" d="M 84 0 L 136 370 L 71 370 L 85 468 L 150 468 L 158 532 C 166 592 188 639 225 675 C 261 710 307 728 361 728 C 379 728 399 725 419 721 C 439 717 457 710 475 702 L 460 599 C 445 607 430 614 414 620 C 398 625 382 628 366 628 C 338 628 315 619 298 602 C 281 585 271 561 267 531 L 258 468 L 337 468 L 323 370 L 244 370 L 192 0 L 84 0 Z" unicode="f" />
<glyph horiz-adv-x="527" d="M 216 -222 C 188 -222 159 -219 130 -213 C 100 -207 73 -198 48 -188 L 62 -82 C 82 -94 107 -105 135 -113 C 163 -121 189 -125 214 -125 C 257 -125 291 -115 317 -95 C 342 -75 358 -41 365 5 L 377 89 C 360 53 339 27 313 12 C 287 -2 260 -10 232 -10 C 184 -10 145 6 113 40 C 81 73 66 120 66 180 C 66 264 94 335 150 392 C 206 449 274 478 356 478 C 383 478 413 474 447 468 C 480 462 510 454 537 444 L 476 19 C 464 -64 436 -125 393 -164 C 350 -202 291 -222 216 -222 Z M 264 86 C 294 86 322 101 349 132 C 376 163 395 217 406 295 L 417 370 C 405 374 393 378 380 380 C 367 382 354 383 341 383 C 295 383 256 364 224 326 C 191 288 175 244 175 192 C 175 156 183 130 199 112 C 215 94 237 86 264 86 Z" unicode="g" />
<glyph horiz-adv-x="507" d="M 52 0 L 154 718 L 263 718 L 228 466 C 225 451 222 435 220 419 C 217 403 214 387 211 371 C 229 407 252 434 280 452 C 308 469 337 478 367 478 C 412 478 447 462 473 431 C 499 400 507 359 498 307 L 466 133 C 462 111 459 89 458 67 C 457 45 457 22 457 0 L 347 0 C 347 22 347 44 349 67 C 350 90 353 112 357 133 L 385 274 C 391 307 388 333 374 351 C 360 369 342 379 318 379 C 294 379 268 364 242 336 C 216 308 196 245 183 147 L 162 0 L 52 0 Z" unicode="h" />
<glyph horiz-adv-x="228" d="M 139 597 L 155 705 L 266 705 L 251 597 L 139 597 Z M 66 0 C 66 22 67 44 69 66 C 71 88 73 109 76 131 L 123 468 L 232 468 L 185 131 C 182 111 180 89 178 66 C 176 42 175 20 176 0 L 66 0 Z" unicode="i" />
<glyph horiz-adv-x="226" d="M 144 597 L 160 705 L 271 705 L 256 597 L 144 597 Z M -48 -211 L -56 -211 L -43 -111 L -35 -111 C -8 -111 13 -103 29 -88 C 45 -72 55 -50 59 -22 L 128 468 L 236 468 L 168 -22 C 159 -84 136 -131 99 -163 C 62 -195 13 -211 -48 -211 Z" unicode="j" />
<glyph horiz-adv-x="488" d="M 52 0 L 154 718 L 263 718 L 200 271 C 240 301 277 333 311 366 C 345 399 375 433 402 469 L 526 468 C 494 422 460 381 424 344 C 388 306 351 272 313 242 L 474 0 L 347 0 L 195 239 L 162 0 L 52 0 Z" unicode="k" />
<glyph horiz-adv-x="223" d="M 64 0 C 63 22 63 44 65 68 C 66 91 68 113 71 135 L 154 718 L 263 718 L 181 133 C 178 111 176 89 174 67 C 172 45 172 22 173 0 L 64 0 Z" unicode="l" />
<glyph horiz-adv-x="807" d="M 60 0 L 109 345 C 111 367 113 389 115 409 C 117 429 118 449 118 468 L 227 468 C 227 457 226 445 226 433 C 225 421 224 410 224 400 L 221 373 C 239 409 262 435 289 452 C 315 469 343 478 373 478 C 401 478 428 469 454 453 C 480 436 496 408 502 369 C 524 413 550 443 582 457 C 614 471 642 478 667 478 C 712 478 748 462 774 431 C 800 400 808 359 799 307 L 767 133 C 763 110 760 88 758 66 C 756 44 756 22 756 0 L 646 0 C 646 22 646 44 648 66 C 649 88 652 111 657 134 L 685 274 C 691 306 688 332 674 351 C 660 369 641 379 617 379 C 583 379 555 359 533 320 C 510 280 493 223 483 147 L 462 0 L 352 0 L 391 274 C 395 306 391 332 379 351 C 367 369 348 379 324 379 C 290 379 261 359 239 320 C 217 280 200 223 190 147 L 170 0 L 60 0 Z" unicode="m" />
<glyph horiz-adv-x="512" d="M 60 0 L 109 345 C 111 367 113 389 115 409 C 117 429 118 449 118 468 L 227 468 C 227 457 226 445 226 433 C 225 420 224 409 224 400 L 222 373 C 239 409 261 435 288 452 C 315 469 343 478 372 478 C 418 478 453 462 478 430 C 503 398 511 357 502 307 L 471 133 C 467 111 464 89 463 67 C 462 45 462 22 462 0 L 352 0 C 352 22 352 44 353 67 C 354 90 357 112 361 133 L 389 274 C 395 306 392 332 379 351 C 365 369 347 379 323 379 C 295 379 268 361 244 327 C 220 292 202 232 190 147 L 170 0 L 60 0 Z" unicode="n" />
<glyph horiz-adv-x="534" d="M 284 -11 C 218 -11 165 8 126 46 C 86 84 67 136 67 201 C 67 280 91 346 139 399 C 187 452 248 479 321 479 C 386 479 438 459 477 421 C 516 383 536 331 536 267 C 536 187 511 121 463 68 C 415 15 355 -11 284 -11 Z M 288 86 C 327 86 360 102 387 136 C 413 169 427 211 427 261 C 427 297 416 326 395 348 C 374 370 347 382 315 382 C 275 382 241 365 215 332 C 189 298 176 257 176 207 C 176 171 186 141 207 119 C 228 97 255 86 288 86 Z" unicode="o" />
<glyph horiz-adv-x="534" d="M 32 -213 L 110 345 C 113 369 115 390 116 409 C 117 428 118 448 118 468 L 225 468 C 225 456 224 445 224 433 C 224 421 223 409 223 399 L 221 370 C 237 409 259 437 286 453 C 312 469 340 478 370 478 C 418 478 457 461 489 428 C 520 394 536 347 536 285 C 536 201 510 131 458 75 C 406 18 339 -10 259 -10 C 244 -10 229 -8 214 -6 C 199 -4 185 0 172 4 L 141 -213 L 32 -213 Z M 268 82 C 314 82 353 100 383 138 C 413 176 428 220 428 270 C 428 306 419 333 402 352 C 385 371 363 381 337 381 C 312 381 285 369 257 345 C 229 321 209 264 197 172 L 186 96 C 198 91 211 87 225 85 C 239 83 253 82 268 82 Z" unicode="p" />
<glyph horiz-adv-x="525" d="M 333 -213 L 376 89 C 360 54 339 29 313 13 C 287 -2 259 -10 231 -10 C 183 -10 144 6 112 40 C 80 73 64 120 64 180 C 64 264 92 334 148 392 C 204 449 273 478 355 478 C 381 478 411 474 445 468 C 478 462 508 454 535 444 L 443 -213 L 333 -213 Z M 262 86 C 292 86 321 101 348 132 C 375 163 394 217 405 295 L 416 370 C 403 374 390 378 378 380 C 366 382 353 383 339 383 C 293 383 254 364 222 327 C 189 289 173 245 173 193 C 173 157 181 131 197 113 C 213 95 235 86 262 86 Z" unicode="q" />
<glyph horiz-adv-x="351" d="M 60 0 L 109 345 C 111 367 113 388 115 408 C 117 428 118 448 118 468 L 227 468 C 227 458 226 447 226 435 C 226 423 225 410 225 398 L 223 373 C 237 409 255 435 276 452 C 296 469 319 478 344 478 C 352 478 361 477 371 475 C 381 473 391 470 400 468 L 383 347 C 373 352 363 356 352 359 C 340 362 330 364 320 364 C 294 364 269 350 245 324 C 221 297 202 238 190 147 L 170 0 L 60 0 Z" unicode="r" />
<glyph horiz-adv-x="406" d="M 193 -10 C 171 -10 146 -7 120 -1 C 94 4 70 11 49 21 L 63 117 C 81 105 103 95 128 88 C 152 81 176 78 199 78 C 221 78 240 83 254 91 C 268 99 276 113 276 131 C 276 144 270 155 259 164 C 247 172 230 181 208 189 L 195 193 C 159 205 132 222 114 245 C 96 268 87 297 87 331 C 87 375 103 410 135 437 C 167 464 211 478 267 478 C 287 478 310 475 337 471 C 363 466 387 459 408 451 L 395 356 C 377 366 357 375 333 381 C 309 387 286 390 266 390 C 245 390 228 386 216 378 C 203 370 197 358 197 342 C 197 329 201 318 211 309 C 220 300 235 292 256 285 L 269 281 C 308 267 337 249 357 227 C 376 205 386 178 386 147 C 386 100 368 62 334 33 C 300 4 253 -10 193 -10 Z" unicode="s" />
<glyph horiz-adv-x="317" d="M 206 -10 C 168 -10 139 2 120 27 C 100 51 94 85 101 128 L 135 370 L 71 370 L 85 468 L 149 468 L 167 601 L 277 601 L 258 468 L 354 468 L 341 370 L 244 370 L 212 142 C 209 124 211 110 217 102 C 223 94 233 90 247 90 C 257 90 266 91 275 93 C 284 95 293 99 303 104 L 289 7 C 276 1 262 -2 248 -5 C 234 -8 220 -10 206 -10 Z" unicode="t" />
<glyph horiz-adv-x="515" d="M 207 -11 C 161 -11 126 4 100 36 C 74 67 66 109 75 161 L 104 345 C 108 368 111 390 113 410 C 115 430 116 449 116 468 L 225 468 C 225 447 224 426 222 405 C 220 383 217 362 214 340 L 189 194 C 183 159 186 133 198 115 C 210 97 229 89 256 89 C 284 89 310 105 334 137 C 358 169 376 229 389 315 L 411 468 L 520 468 L 472 128 C 469 107 467 86 466 64 C 464 42 464 20 464 0 L 355 0 C 355 10 355 21 355 32 C 355 43 356 54 357 65 L 359 95 C 341 58 318 31 291 14 C 264 -2 236 -11 207 -11 Z" unicode="u" />
<glyph horiz-adv-x="467" d="M 172 0 L 76 468 L 189 468 L 242 195 L 253 111 C 281 162 308 217 334 277 C 359 337 383 400 405 468 L 515 468 C 481 374 446 289 409 212 C 371 134 333 64 293 0 L 172 0 Z" unicode="v" />
<glyph horiz-adv-x="740" d="M 155 0 L 76 468 L 185 468 L 230 195 L 237 115 C 263 169 288 226 312 285 C 336 344 360 405 383 468 L 485 468 L 532 195 L 543 116 C 570 174 596 232 620 291 C 644 350 665 409 685 468 L 789 468 C 762 387 731 307 697 228 C 662 149 624 73 582 0 L 466 0 L 425 242 L 417 320 C 395 266 372 212 348 158 C 323 104 298 51 272 0 L 155 0 Z" unicode="w" />
<glyph horiz-adv-x="480" d="M 15 0 L 214 241 L 92 468 L 216 468 L 268 365 L 285 326 L 314 365 L 396 468 L 523 468 L 336 242 L 465 0 L 342 0 L 282 115 L 265 154 L 235 115 L 143 0 L 15 0 Z" unicode="x" />
<glyph horiz-adv-x="485" d="M -27 -213 L -34 -213 L -20 -113 L -12 -113 C 26 -113 62 -104 98 -87 C 134 -70 165 -46 192 -16 L 77 468 L 196 468 L 256 195 L 274 80 C 300 128 324 183 348 247 C 371 310 394 384 418 468 L 530 468 C 500 367 469 278 436 200 C 402 122 367 57 331 3 C 280 -71 225 -125 166 -160 C 106 -195 42 -213 -27 -213 Z" unicode="y" />
<glyph horiz-adv-x="444" d="M 38 0 L 49 78 L 264 325 L 306 370 L 94 370 L 108 468 L 467 468 L 456 390 L 240 143 L 197 98 L 419 98 L 406 0 L 38 0 Z" unicode="z" />
<glyph horiz-adv-x="464" d="M 363 -213 C 285 -213 228 -196 192 -163 C 156 -130 145 -81 159 -15 L 182 93 C 188 125 182 150 162 168 C 142 186 111 199 69 206 L 82 299 C 126 305 160 318 185 337 C 210 355 224 380 226 412 L 232 520 C 236 586 260 636 305 669 C 350 701 412 718 491 718 L 510 718 L 497 623 L 477 623 C 433 623 399 613 377 593 C 354 573 341 543 339 503 L 335 412 C 333 368 318 334 292 308 C 265 282 231 264 191 254 L 191 253 C 228 240 256 220 275 194 C 294 168 299 134 291 93 L 271 2 C 262 -38 266 -67 284 -87 C 302 -107 332 -117 376 -117 L 396 -117 L 382 -213 L 363 -213 Z" unicode="{" />
<glyph horiz-adv-x="241" d="M 44 -213 L 175 718 L 269 718 L 137 -213 L 44 -213 Z" unicode="|" />
<glyph horiz-adv-x="464" d="M 25 -213 L 39 -117 L 59 -117 C 102 -117 135 -107 158 -87 C 181 -67 194 -38 196 2 L 201 93 C 202 135 216 169 242 196 C 268 222 302 241 344 252 L 344 253 C 306 265 278 284 260 311 C 241 338 236 372 245 412 L 265 503 C 273 543 269 573 251 593 C 233 613 203 623 160 623 L 139 623 L 153 718 L 172 718 C 250 718 308 701 344 669 C 380 636 391 586 377 520 L 354 412 C 347 380 353 355 373 337 C 393 318 424 305 466 299 L 453 206 C 409 199 374 186 349 168 C 324 150 311 125 310 93 L 304 -15 C 300 -81 275 -130 230 -163 C 185 -196 123 -213 44 -213 L 25 -213 Z" unicode="}" />
<glyph horiz-adv-x="395" d="M 134 146 L 67 146 C 73 186 85 216 103 237 C 121 257 144 268 174 268 C 186 268 198 266 209 262 C 220 258 232 251 244 243 C 253 236 261 231 267 227 C 273 223 280 221 287 221 C 296 221 304 224 311 232 C 318 239 323 249 326 262 L 393 262 C 386 222 374 191 356 171 C 338 151 314 141 286 141 C 272 141 259 143 248 147 C 237 151 226 157 216 166 C 207 173 199 178 193 182 C 186 185 179 187 173 187 C 163 187 154 183 147 176 C 140 168 136 158 134 146 Z" unicode="~" />
<glyph horiz-adv-x="241" d="M 124 406 L 139 514 L 247 514 L 232 406 L 124 406 Z M 40 -204 L 112 310 L 218 310 L 146 -204 L 40 -204 Z" unicode="¡" />
<glyph horiz-adv-x="466" d="M 296 444 L 315 583 L 405 583 L 386 444 L 296 444 Z M 217 -114 L 236 21 L 327 21 L 307 -114 L 217 -114 Z M 283 -10 C 217 -10 165 9 126 48 C 86 87 67 137 67 197 C 67 280 92 348 143 400 C 193 452 260 478 342 478 C 367 478 391 474 415 468 C 438 462 461 453 484 442 L 469 336 C 445 350 423 361 403 369 C 382 376 359 380 333 380 C 285 380 246 363 218 331 C 190 299 176 258 176 209 C 176 172 187 143 209 121 C 231 99 261 88 299 88 C 326 88 351 92 375 100 C 398 108 421 121 444 137 L 429 31 C 405 17 382 6 358 0 C 334 -6 309 -10 283 -10 Z" unicode="¢" />
<glyph horiz-adv-x="532" d="M 60 0 L 76 108 C 106 125 131 149 150 179 C 168 209 178 244 179 285 L 92 285 L 105 385 L 171 385 L 169 405 C 162 487 179 552 219 600 C 259 648 323 673 412 673 C 442 673 471 669 499 663 C 527 656 553 646 578 632 L 563 527 C 541 543 517 556 492 564 C 466 572 439 576 411 576 C 367 576 333 561 309 533 C 285 504 275 462 280 408 L 282 385 L 423 385 L 409 285 L 290 285 C 289 249 282 216 268 186 C 254 155 234 128 206 106 L 500 106 L 485 0 L 60 0 Z" unicode="£" />
<glyph horiz-adv-x="662" d="M 138 25 L 62 115 L 189 227 C 185 236 183 246 181 256 C 179 266 178 277 178 288 C 178 309 180 329 186 349 C 191 368 198 386 208 403 L 112 513 L 214 603 L 309 492 C 323 498 337 502 353 505 C 368 508 384 510 400 510 C 416 510 431 508 446 504 C 461 500 475 494 488 488 L 618 602 L 695 513 L 565 399 C 568 390 570 381 572 371 C 574 361 575 352 575 342 C 575 319 572 297 566 277 C 560 256 552 237 542 221 L 634 114 L 532 24 L 437 135 C 424 130 411 126 397 124 C 383 121 368 120 354 120 C 338 120 323 121 309 125 C 295 128 281 133 269 140 L 138 25 Z M 367 219 C 399 219 424 229 444 251 C 464 272 474 297 474 326 C 474 349 465 369 449 386 C 433 402 412 411 386 411 C 354 411 329 400 309 379 C 289 357 280 332 280 304 C 280 280 288 260 304 244 C 320 227 341 219 367 219 Z" unicode="¤" />
<glyph horiz-adv-x="616" d="M 184 237 L 195 312 L 512 312 L 502 237 L 184 237 Z M 166 107 L 177 183 L 494 183 L 483 107 L 166 107 Z M 251 0 L 289 268 L 102 658 L 228 658 L 333 439 L 358 375 L 401 439 L 565 658 L 695 658 L 400 269 L 363 0 L 251 0 Z" unicode="¥" />
<glyph horiz-adv-x="241" d="M 117 310 L 174 718 L 268 718 L 211 310 L 117 310 Z M 44 -213 L 101 195 L 195 195 L 137 -213 L 44 -213 Z" unicode="¦" />
<glyph horiz-adv-x="425" d="M 202 -12 C 175 -12 150 -9 126 -4 C 102 0 80 8 58 19 L 70 110 C 90 97 111 87 133 81 C 155 74 178 71 204 71 C 230 71 251 76 265 86 C 279 96 287 112 287 133 C 287 145 281 157 270 167 C 258 177 240 185 216 193 L 203 197 C 170 207 144 220 124 238 C 104 256 94 281 94 314 C 94 336 99 357 111 378 C 123 398 140 415 163 429 C 149 441 139 454 133 470 C 126 485 123 501 123 519 C 123 563 138 600 169 628 C 199 656 244 670 303 670 C 327 670 351 667 375 663 C 398 658 421 651 443 643 L 430 554 C 411 564 391 573 370 579 C 349 585 327 588 304 588 C 280 588 261 583 249 573 C 237 563 231 549 231 532 C 231 520 235 510 245 502 C 255 493 270 485 292 479 L 305 475 C 341 463 370 447 392 428 C 414 409 425 384 425 354 C 425 331 419 309 408 288 C 396 267 379 249 357 235 C 369 223 379 210 386 196 C 392 182 396 166 396 150 C 396 102 379 63 347 33 C 314 3 266 -12 202 -12 Z M 276 278 C 277 277 278 276 280 276 C 282 276 283 275 284 275 C 294 281 302 288 307 298 C 312 308 315 319 315 331 C 315 343 309 354 298 364 C 286 374 268 382 244 390 L 237 392 C 225 386 217 377 211 367 C 205 356 203 345 203 335 C 203 323 207 313 217 305 C 227 296 242 288 264 282 L 276 278 Z" unicode="§" />
<glyph horiz-adv-x="267" d="M 71 532 L 85 635 L 188 635 L 174 532 L 71 532 Z M 244 532 L 258 635 L 361 635 L 347 532 L 244 532 Z" unicode="¨" />
<glyph horiz-adv-x="700" d="M 375 93 C 295 93 229 119 177 172 C 124 224 98 290 98 368 C 98 464 130 546 194 612 C 258 678 339 712 437 712 C 516 712 582 685 635 633 C 687 581 714 516 714 438 C 714 341 681 259 617 193 C 553 126 472 93 375 93 Z M 376 154 C 453 154 518 180 572 233 C 625 286 652 353 652 435 C 652 497 630 548 588 589 C 546 630 495 651 435 651 C 357 651 292 624 239 571 C 186 518 160 451 160 370 C 160 308 181 257 223 216 C 265 174 316 154 376 154 Z M 400 224 C 354 224 316 239 286 269 C 256 299 242 336 242 380 C 242 437 261 485 299 523 C 337 561 386 581 445 581 C 461 581 479 578 497 574 C 515 570 530 563 544 555 L 534 489 C 521 497 506 504 489 510 C 471 515 454 518 438 518 C 398 518 367 505 345 481 C 322 457 311 425 311 385 C 311 357 319 334 337 316 C 354 297 377 288 407 288 C 424 288 442 290 461 296 C 480 302 498 309 514 319 L 504 252 C 488 243 470 236 451 231 C 432 226 415 224 400 224 Z" unicode="©" />
<glyph horiz-adv-x="452" d="M 98 220 L 110 308 L 436 308 L 423 220 L 98 220 Z M 247 361 C 213 361 185 373 163 398 C 141 423 130 459 130 505 C 130 570 151 625 195 670 C 238 714 291 737 355 737 C 375 737 398 735 422 731 C 446 727 468 720 487 712 L 455 486 C 452 466 450 447 448 428 C 446 409 446 389 446 369 L 359 369 C 359 377 359 386 359 395 C 359 403 360 412 361 420 L 362 438 C 348 410 330 390 310 378 C 289 366 268 361 247 361 Z M 275 438 C 293 438 313 447 335 466 C 356 485 372 530 383 601 L 391 652 C 383 655 374 657 366 659 C 357 660 348 661 340 661 C 307 661 278 646 254 617 C 230 588 218 554 218 516 C 218 490 223 471 234 458 C 244 444 258 438 275 438 Z" unicode="ª" />
<glyph horiz-adv-x="561" d="M 407 65 L 280 226 L 451 388 L 574 388 L 404 226 L 530 65 L 407 65 Z M 199 65 L 72 226 L 243 388 L 366 388 L 196 226 L 322 65 L 199 65 Z" unicode="«" />
<glyph horiz-adv-x="463" d="M 352 137 L 367 246 L 76 246 L 90 341 L 466 341 L 437 137 L 352 137 Z" unicode="¬" />
<glyph horiz-adv-x="380" d="M 77 194 L 90 289 L 370 289 L 357 194 L 77 194 Z" unicode="­" />
<glyph horiz-adv-x="700" d="M 375 93 C 295 93 229 119 177 172 C 124 224 98 290 98 368 C 98 464 130 546 194 612 C 258 678 339 712 437 712 C 516 712 582 685 635 633 C 687 581 714 516 714 438 C 714 341 681 259 617 193 C 553 126 472 93 375 93 Z M 376 154 C 453 154 518 180 572 233 C 625 286 652 353 652 435 C 652 497 630 548 588 589 C 546 630 495 651 435 651 C 357 651 292 624 239 571 C 186 518 160 451 160 370 C 160 308 181 257 223 216 C 265 174 316 154 376 154 Z M 272 234 L 320 573 L 421 573 C 455 573 481 566 500 552 C 518 538 528 517 528 491 C 528 469 519 449 502 431 C 485 413 465 404 442 403 C 455 400 466 394 475 385 C 484 376 490 365 494 352 L 525 234 L 453 234 L 431 325 C 428 340 422 352 414 360 C 405 368 394 372 382 372 L 358 372 L 339 234 L 272 234 Z M 367 429 L 399 429 C 417 429 432 433 442 442 C 452 451 458 463 458 478 C 458 488 453 497 445 505 C 437 512 425 516 411 516 L 379 516 L 367 429 Z" unicode="®" />
<glyph horiz-adv-x="384" d="M 144 532 L 156 619 L 402 619 L 390 532 L 144 532 Z" unicode="¯" />
<glyph horiz-adv-x="361" d="M 253 461 C 214 461 184 473 162 497 C 140 521 130 548 130 580 C 130 624 144 659 173 687 C 201 715 236 729 277 729 C 315 729 345 717 367 693 C 389 669 400 641 400 609 C 400 565 385 529 357 502 C 328 474 293 461 253 461 Z M 258 533 C 277 533 293 539 306 553 C 319 566 326 582 326 601 C 326 617 320 631 310 642 C 300 652 287 658 272 658 C 252 658 235 651 222 638 C 209 624 203 608 203 590 C 203 573 208 559 219 549 C 229 538 242 533 258 533 Z" unicode="°" />
<glyph horiz-adv-x="501" d="M 29 -96 L 43 -1 L 473 -1 L 459 -96 L 29 -96 Z M 212 82 L 235 245 L 79 245 L 93 340 L 250 340 L 273 503 L 372 503 L 349 340 L 503 340 L 490 245 L 334 245 L 311 82 L 212 82 Z" unicode="±" />
<glyph horiz-adv-x="313" d="M 89 440 L 103 539 C 167 567 213 593 242 616 C 271 639 286 661 286 682 C 286 697 280 708 270 716 C 259 724 245 728 227 728 C 211 728 196 725 180 720 C 164 715 147 708 131 698 L 144 787 C 162 793 180 798 198 802 C 216 806 235 808 256 808 C 296 808 327 799 350 781 C 372 763 384 738 384 704 C 384 666 366 631 332 601 C 298 570 248 543 184 521 L 359 521 L 348 440 L 89 440 Z" unicode="²" />
<glyph horiz-adv-x="309" d="M 209 432 C 188 432 168 433 149 437 C 129 441 110 447 91 456 L 103 540 C 118 530 134 522 151 517 C 167 512 185 510 204 510 C 222 510 237 513 247 521 C 257 529 263 538 263 549 C 263 559 257 568 246 575 C 235 581 218 585 194 585 L 171 585 L 180 658 L 201 658 C 224 658 242 662 256 670 C 269 678 276 688 276 700 C 276 708 272 715 264 721 C 256 727 244 730 228 730 C 211 730 195 728 180 724 C 165 720 150 714 135 706 L 146 786 C 164 792 182 798 200 802 C 218 806 235 808 253 808 C 291 808 320 799 341 783 C 362 767 373 745 373 719 C 373 695 365 675 350 658 C 334 641 313 629 287 623 C 308 619 325 610 337 596 C 349 582 355 566 355 548 C 355 513 342 485 316 464 C 290 442 255 432 209 432 Z" unicode="³" />
<glyph horiz-adv-x="239" d="M 100 524 L 224 668 L 350 668 L 214 524 L 100 524 Z" unicode="´" />
<glyph horiz-adv-x="494" d="M 138 0 L 199 439 C 168 439 143 447 125 465 C 106 483 97 505 97 532 C 97 568 110 598 136 622 C 162 646 196 658 239 658 L 521 658 L 429 0 L 323 0 L 402 563 L 323 563 L 244 0 L 138 0 Z" unicode="¶" />
<glyph horiz-adv-x="205" d="M 72 184 L 88 292 L 196 292 L 181 184 L 72 184 Z" unicode="·" />
<glyph horiz-adv-x="228" d="M 94 -227 C 82 -227 70 -225 59 -223 C 47 -220 37 -216 27 -212 L 36 -149 C 44 -154 53 -158 62 -161 C 71 -163 81 -165 91 -165 C 101 -165 110 -162 118 -156 C 125 -150 129 -141 129 -131 C 129 -122 125 -115 119 -110 C 113 -104 105 -102 95 -102 L 89 -102 L 97 -42 L 103 -42 C 133 -42 156 -49 174 -65 C 192 -81 201 -102 201 -128 C 201 -156 191 -180 171 -199 C 151 -217 125 -227 94 -227 Z" unicode="¸" />
<glyph horiz-adv-x="304" d="M 99 440 L 109 517 L 184 517 L 213 720 L 127 710 L 138 789 L 318 810 L 277 517 L 352 517 L 341 440 L 99 440 Z" unicode="¹" />
<glyph horiz-adv-x="471" d="M 96 220 L 108 308 L 442 308 L 430 220 L 96 220 Z M 291 359 C 242 359 204 374 176 405 C 148 435 134 475 134 523 C 134 583 151 634 187 676 C 223 718 272 739 335 739 C 383 739 421 723 450 693 C 478 663 493 624 493 576 C 493 516 475 464 439 422 C 403 380 353 359 291 359 Z M 301 439 C 331 439 355 450 373 474 C 391 498 400 528 400 565 C 400 593 393 615 379 633 C 365 650 347 659 325 659 C 294 659 270 646 252 622 C 234 598 226 568 226 533 C 226 504 232 481 246 464 C 259 447 277 439 301 439 Z" unicode="º" />
<glyph horiz-adv-x="561" d="M 49 65 L 219 226 L 93 388 L 216 388 L 343 226 L 172 65 L 49 65 Z M 257 65 L 427 226 L 301 388 L 423 388 L 551 226 L 380 65 L 257 65 Z" unicode="»" />
<glyph horiz-adv-x="752" d="M 591 0 L 602 76 L 437 76 L 445 138 L 605 360 L 730 360 L 700 150 L 749 150 L 739 76 L 690 76 L 679 0 L 591 0 Z M 612 150 L 631 289 L 532 150 L 612 150 Z M 189 0 L 582 718 L 678 718 L 285 0 L 189 0 Z M 37 360 L 47 437 L 122 437 L 151 640 L 65 630 L 76 709 L 256 730 L 215 437 L 290 437 L 279 360 L 37 360 Z M 88 360 L 98 437 L 173 437 L 202 640 L 116 630 L 127 709 L 307 730 L 266 437 L 341 437 L 330 360 L 88 360 Z" unicode="¼" />
<glyph horiz-adv-x="742" d="M 455 0 L 469 99 C 533 127 579 153 608 176 C 637 199 652 221 652 242 C 652 257 646 268 636 276 C 625 284 611 288 593 288 C 577 288 562 285 546 280 C 530 275 513 268 497 258 L 510 347 C 528 353 546 358 564 362 C 582 366 601 368 622 368 C 662 368 693 359 716 341 C 738 323 750 298 750 264 C 750 226 732 191 698 161 C 664 130 614 103 550 81 L 725 81 L 714 0 L 455 0 Z M 189 0 L 582 718 L 678 718 L 285 0 L 189 0 Z M 37 360 L 47 437 L 122 437 L 151 640 L 65 630 L 76 709 L 256 730 L 215 437 L 290 437 L 279 360 L 37 360 Z M 88 360 L 98 437 L 173 437 L 202 640 L 116 630 L 127 709 L 307 730 L 266 437 L 341 437 L 330 360 L 88 360 Z" unicode="½" />
<glyph horiz-adv-x="727" d="M 565 0 L 576 76 L 411 76 L 419 138 L 579 360 L 704 360 L 674 150 L 723 150 L 713 76 L 664 76 L 653 0 L 565 0 Z M 586 150 L 605 289 L 506 150 L 586 150 Z M 168 0 L 561 718 L 657 718 L 264 0 L 168 0 Z M 198 352 C 177 352 157 353 138 357 C 118 361 99 367 80 376 L 92 460 C 107 450 123 442 140 437 C 156 432 174 430 193 430 C 211 430 226 433 236 441 C 246 449 252 458 252 469 C 252 479 246 488 235 495 C 224 501 207 505 183 505 L 160 505 L 169 578 L 190 578 C 213 578 231 582 245 590 C 258 598 265 608 265 620 C 265 628 261 635 253 641 C 245 647 233 650 217 650 C 200 650 184 648 169 644 C 154 640 139 634 124 626 L 135 706 C 153 712 171 718 189 722 C 207 726 224 728 242 728 C 280 728 309 719 330 703 C 351 687 362 665 362 639 C 362 615 354 595 339 578 C 323 561 302 549 276 543 C 297 539 314 530 326 516 C 338 502 344 486 344 468 C 344 433 331 405 305 384 C 279 362 244 352 198 352 Z" unicode="¾" />
<glyph horiz-adv-x="462" d="M 252 406 L 266 514 L 374 514 L 359 406 L 252 406 Z M 226 -205 C 168 -205 121 -190 87 -160 C 53 -130 36 -92 36 -44 C 36 -12 45 20 65 52 C 84 84 112 116 148 149 C 178 177 201 203 215 228 C 229 252 238 280 243 311 L 345 311 C 339 269 328 233 311 203 C 293 172 267 141 232 109 C 201 81 180 57 168 37 C 156 17 151 -2 151 -22 C 151 -46 160 -66 179 -82 C 198 -98 225 -106 259 -106 C 285 -106 312 -102 340 -94 C 368 -86 393 -74 416 -60 L 400 -170 C 376 -180 348 -189 318 -195 C 287 -201 256 -205 226 -205 Z" unicode="¿" />
<glyph horiz-adv-x="663" d="M 17 0 L 371 661 L 476 661 L 646 0 L 529 0 L 488 168 L 220 168 L 133 0 L 17 0 Z M 356 429 L 272 268 L 463 268 L 424 429 L 403 526 L 356 429 Z M 383 711 L 289 843 L 401 843 L 483 711 L 383 711 Z" unicode="À" />
<glyph horiz-adv-x="663" d="M 17 0 L 371 661 L 476 661 L 646 0 L 529 0 L 488 168 L 220 168 L 133 0 L 17 0 Z M 356 429 L 272 268 L 463 268 L 424 429 L 403 526 L 356 429 Z M 371 711 L 485 843 L 603 843 L 477 711 L 371 711 Z" unicode="Á" />
<glyph horiz-adv-x="663" d="M 17 0 L 371 661 L 476 661 L 646 0 L 529 0 L 488 168 L 220 168 L 133 0 L 17 0 Z M 356 429 L 272 268 L 463 268 L 424 429 L 403 526 L 356 429 Z M 298 711 L 405 842 L 488 842 L 558 711 L 476 711 L 438 776 L 382 711 L 298 711 Z" unicode="Â" />
<glyph horiz-adv-x="663" d="M 17 0 L 371 661 L 476 661 L 646 0 L 529 0 L 488 168 L 220 168 L 133 0 L 17 0 Z M 356 429 L 272 268 L 463 268 L 424 429 L 403 526 L 356 429 Z M 345 711 L 285 711 C 290 747 301 775 318 794 C 334 812 356 822 383 822 C 395 822 406 820 416 816 C 426 812 437 806 448 798 C 456 792 464 787 470 784 C 476 780 482 779 488 779 C 496 779 504 782 511 789 C 518 795 523 805 525 818 L 586 818 C 579 780 568 752 552 733 C 536 714 514 705 488 705 C 474 705 463 707 453 711 C 443 715 433 721 423 729 C 414 735 406 740 400 744 C 394 747 388 749 382 749 C 373 749 365 745 359 739 C 352 733 347 723 345 711 Z" unicode="Ã" />
<glyph horiz-adv-x="663" d="M 17 0 L 371 661 L 476 661 L 646 0 L 529 0 L 488 168 L 220 168 L 133 0 L 17 0 Z M 356 429 L 272 268 L 463 268 L 424 429 L 403 526 L 356 429 Z M 300 711 L 314 804 L 408 804 L 394 711 L 300 711 Z M 459 711 L 473 804 L 566 804 L 553 711 L 459 711 Z" unicode="Ä" />
<glyph horiz-adv-x="663" d="M 17 0 L 371 661 L 476 661 L 646 0 L 529 0 L 488 168 L 220 168 L 133 0 L 17 0 Z M 356 429 L 272 268 L 463 268 L 424 429 L 403 526 L 356 429 Z M 422 607 C 395 607 374 615 358 631 C 342 647 334 667 334 691 C 334 719 343 743 363 762 C 382 781 405 791 433 791 C 459 791 480 782 496 766 C 512 750 521 730 521 706 C 521 678 512 655 494 636 C 476 616 452 607 422 607 Z M 424 661 C 436 661 445 664 453 672 C 461 680 465 690 465 702 C 465 712 461 720 455 726 C 448 732 440 736 430 736 C 419 736 410 732 402 724 C 394 716 390 706 390 696 C 390 686 393 677 400 671 C 406 664 414 661 424 661 Z" unicode="Å" />
<glyph horiz-adv-x="862" d="M 6 0 L 439 658 L 883 658 L 868 553 L 603 553 L 580 386 L 836 386 L 821 280 L 566 280 L 541 105 L 818 105 L 803 0 L 414 0 L 439 182 L 250 182 L 129 0 L 6 0 Z M 432 457 L 319 287 L 454 287 L 491 552 L 432 457 Z" unicode="Æ" />
<glyph horiz-adv-x="658" d="M 412 -15 C 312 -15 234 14 177 72 C 120 130 92 202 92 288 C 92 398 128 490 200 563 C 272 636 368 673 487 673 C 523 673 559 668 594 660 C 628 652 661 639 693 622 L 677 510 C 646 528 614 543 581 553 C 547 563 513 569 477 569 C 396 569 331 543 281 492 C 231 440 207 375 207 295 C 207 235 226 185 265 147 C 304 108 357 89 423 89 C 461 89 497 94 532 105 C 566 116 601 132 636 153 L 620 38 C 585 19 550 5 516 -2 C 481 -10 446 -15 412 -15 Z M 379 -218 C 368 -218 357 -216 346 -214 C 335 -212 325 -208 316 -204 L 324 -146 C 332 -150 340 -154 349 -157 C 357 -160 366 -162 375 -162 C 385 -162 394 -159 401 -153 C 407 -147 411 -139 411 -130 C 411 -122 407 -115 401 -110 C 395 -104 387 -102 378 -102 L 369 -102 L 376 -48 L 386 -48 C 413 -48 435 -55 451 -69 C 467 -83 476 -102 476 -126 C 476 -152 466 -174 447 -192 C 428 -209 405 -218 379 -218 Z" unicode="Ç" />
<glyph horiz-adv-x="516" d="M 68 0 L 160 658 L 537 658 L 522 553 L 258 553 L 234 386 L 490 386 L 475 280 L 220 280 L 195 105 L 472 105 L 457 0 L 68 0 Z M 314 711 L 220 843 L 332 843 L 414 711 L 314 711 Z" unicode="È" />
<glyph horiz-adv-x="516" d="M 68 0 L 160 658 L 537 658 L 522 553 L 258 553 L 234 386 L 490 386 L 475 280 L 220 280 L 195 105 L 472 105 L 457 0 L 68 0 Z M 302 711 L 416 843 L 534 843 L 408 711 L 302 711 Z" unicode="É" />
<glyph horiz-adv-x="516" d="M 68 0 L 160 658 L 537 658 L 522 553 L 258 553 L 234 386 L 490 386 L 475 280 L 220 280 L 195 105 L 472 105 L 457 0 L 68 0 Z M 229 711 L 336 842 L 419 842 L 489 711 L 407 711 L 369 776 L 313 711 L 229 711 Z" unicode="Ê" />
<glyph horiz-adv-x="516" d="M 68 0 L 160 658 L 537 658 L 522 553 L 258 553 L 234 386 L 490 386 L 475 280 L 220 280 L 195 105 L 472 105 L 457 0 L 68 0 Z M 231 711 L 245 804 L 339 804 L 325 711 L 231 711 Z M 390 711 L 404 804 L 497 804 L 484 711 L 390 711 Z" unicode="Ë" />
<glyph horiz-adv-x="249" d="M 68 0 L 160 658 L 273 658 L 181 0 L 68 0 Z M 179 711 L 85 843 L 197 843 L 279 711 L 179 711 Z" unicode="Ì" />
<glyph horiz-adv-x="249" d="M 68 0 L 160 658 L 273 658 L 181 0 L 68 0 Z M 167 711 L 281 843 L 399 843 L 273 711 L 167 711 Z" unicode="Í" />
<glyph horiz-adv-x="249" d="M 68 0 L 160 658 L 273 658 L 181 0 L 68 0 Z M 94 711 L 201 842 L 284 842 L 354 711 L 272 711 L 234 776 L 178 711 L 94 711 Z" unicode="Î" />
<glyph horiz-adv-x="249" d="M 68 0 L 160 658 L 273 658 L 181 0 L 68 0 Z M 96 711 L 110 804 L 204 804 L 190 711 L 96 711 Z M 255 711 L 269 804 L 362 804 L 349 711 L 255 711 Z" unicode="Ï" />
<glyph horiz-adv-x="713" d="M 71 279 L 85 375 L 353 375 L 340 279 L 71 279 Z M 83 0 L 175 658 L 391 658 C 489 658 567 631 625 577 C 682 523 711 454 711 369 C 711 260 673 171 598 103 C 523 34 423 0 297 0 L 83 0 Z M 210 105 L 311 105 C 398 105 467 129 518 177 C 569 225 595 288 595 364 C 595 418 576 463 538 499 C 500 535 449 553 383 553 L 273 553 L 210 105 Z" unicode="Ð" />
<glyph horiz-adv-x="711" d="M 68 0 L 160 658 L 275 658 L 522 236 L 560 163 L 569 236 L 628 658 L 734 658 L 642 0 L 529 0 L 280 426 L 243 495 L 235 426 L 175 0 L 68 0 Z M 366 711 L 306 711 C 311 747 322 775 339 794 C 355 812 377 822 404 822 C 416 822 427 820 437 816 C 447 812 458 806 469 798 C 477 792 485 787 491 784 C 497 780 503 779 509 779 C 517 779 525 782 532 789 C 539 795 544 805 546 818 L 607 818 C 600 780 589 752 573 733 C 557 714 535 705 509 705 C 495 705 484 707 474 711 C 464 715 454 721 444 729 C 435 735 427 740 421 744 C 415 747 409 749 403 749 C 394 749 386 745 380 739 C 373 733 368 723 366 711 Z" unicode="Ñ" />
<glyph horiz-adv-x="772" d="M 404 -15 C 312 -15 237 12 179 68 C 121 123 92 196 92 288 C 92 398 126 489 194 563 C 262 636 350 673 459 673 C 550 673 625 645 684 589 C 742 533 772 459 772 367 C 772 258 737 167 669 94 C 601 21 512 -15 404 -15 Z M 407 90 C 480 90 540 115 587 167 C 633 218 657 283 657 363 C 657 421 639 469 603 509 C 567 548 518 568 457 568 C 383 568 322 542 276 491 C 230 440 207 375 207 295 C 207 237 224 188 260 149 C 296 109 345 90 407 90 Z M 430 719 L 336 851 L 448 851 L 530 719 L 430 719 Z" unicode="Ò" />
<glyph horiz-adv-x="772" d="M 404 -15 C 312 -15 237 12 179 68 C 121 123 92 196 92 288 C 92 398 126 489 194 563 C 262 636 350 673 459 673 C 550 673 625 645 684 589 C 742 533 772 459 772 367 C 772 258 737 167 669 94 C 601 21 512 -15 404 -15 Z M 407 90 C 480 90 540 115 587 167 C 633 218 657 283 657 363 C 657 421 639 469 603 509 C 567 548 518 568 457 568 C 383 568 322 542 276 491 C 230 440 207 375 207 295 C 207 237 224 188 260 149 C 296 109 345 90 407 90 Z M 418 719 L 532 851 L 650 851 L 524 719 L 418 719 Z" unicode="Ó" />
<glyph horiz-adv-x="772" d="M 404 -15 C 312 -15 237 12 179 68 C 121 123 92 196 92 288 C 92 398 126 489 194 563 C 262 636 350 673 459 673 C 550 673 625 645 684 589 C 742 533 772 459 772 367 C 772 258 737 167 669 94 C 601 21 512 -15 404 -15 Z M 407 90 C 480 90 540 115 587 167 C 633 218 657 283 657 363 C 657 421 639 469 603 509 C 567 548 518 568 457 568 C 383 568 322 542 276 491 C 230 440 207 375 207 295 C 207 237 224 188 260 149 C 296 109 345 90 407 90 Z M 345 719 L 452 850 L 535 850 L 605 719 L 523 719 L 485 784 L 429 719 L 345 719 Z" unicode="Ô" />
<glyph horiz-adv-x="772" d="M 404 -15 C 312 -15 237 12 179 68 C 121 123 92 196 92 288 C 92 398 126 489 194 563 C 262 636 350 673 459 673 C 550 673 625 645 684 589 C 742 533 772 459 772 367 C 772 258 737 167 669 94 C 601 21 512 -15 404 -15 Z M 407 90 C 480 90 540 115 587 167 C 633 218 657 283 657 363 C 657 421 639 469 603 509 C 567 548 518 568 457 568 C 383 568 322 542 276 491 C 230 440 207 375 207 295 C 207 237 224 188 260 149 C 296 109 345 90 407 90 Z M 392 719 L 332 719 C 337 755 348 783 365 802 C 381 820 403 830 430 830 C 442 830 453 828 463 824 C 473 820 484 814 495 806 C 503 800 511 795 517 792 C 523 788 529 787 535 787 C 543 787 551 790 558 797 C 565 803 570 813 572 826 L 633 826 C 626 788 615 760 599 741 C 583 722 561 713 535 713 C 521 713 510 715 500 719 C 490 723 480 729 470 737 C 461 743 453 748 447 752 C 441 755 435 757 429 757 C 420 757 412 753 406 747 C 399 741 394 731 392 719 Z" unicode="Õ" />
<glyph horiz-adv-x="772" d="M 404 -15 C 312 -15 237 12 179 68 C 121 123 92 196 92 288 C 92 398 126 489 194 563 C 262 636 350 673 459 673 C 550 673 625 645 684 589 C 742 533 772 459 772 367 C 772 258 737 167 669 94 C 601 21 512 -15 404 -15 Z M 407 90 C 480 90 540 115 587 167 C 633 218 657 283 657 363 C 657 421 639 469 603 509 C 567 548 518 568 457 568 C 383 568 322 542 276 491 C 230 440 207 375 207 295 C 207 237 224 188 260 149 C 296 109 345 90 407 90 Z M 347 719 L 361 812 L 455 812 L 441 719 L 347 719 Z M 506 719 L 520 812 L 613 812 L 600 719 L 506 719 Z" unicode="Ö" />
<glyph horiz-adv-x="528" d="M 160 84 L 90 163 L 231 287 L 117 418 L 195 487 L 309 355 L 458 485 L 526 406 L 378 276 L 485 151 L 407 82 L 300 208 L 160 84 Z" unicode="×" />
<glyph horiz-adv-x="772" d="M 125 -48 L 628 706 L 742 706 L 239 -48 L 125 -48 Z M 404 -15 C 312 -15 237 12 179 68 C 121 123 92 196 92 288 C 92 398 126 489 194 563 C 262 636 350 673 459 673 C 550 673 625 645 684 589 C 742 533 772 459 772 367 C 772 258 737 167 669 94 C 601 21 512 -15 404 -15 Z M 407 90 C 480 90 540 115 587 167 C 633 218 657 283 657 363 C 657 421 639 469 603 509 C 567 548 518 568 457 568 C 383 568 322 542 276 491 C 230 440 207 375 207 295 C 207 237 224 188 260 149 C 296 109 345 90 407 90 Z" unicode="Ø" />
<glyph horiz-adv-x="670" d="M 355 -12 C 265 -12 197 14 151 66 C 105 118 87 183 98 261 L 154 658 L 266 658 L 210 258 C 203 208 213 168 239 138 C 265 108 304 94 358 94 C 406 94 446 109 480 139 C 513 169 533 208 540 257 L 596 658 L 702 658 L 645 254 C 633 169 600 103 548 57 C 496 11 431 -12 355 -12 Z M 390 711 L 296 843 L 408 843 L 490 711 L 390 711 Z" unicode="Ù" />
<glyph horiz-adv-x="670" d="M 355 -12 C 265 -12 197 14 151 66 C 105 118 87 183 98 261 L 154 658 L 266 658 L 210 258 C 203 208 213 168 239 138 C 265 108 304 94 358 94 C 406 94 446 109 480 139 C 513 169 533 208 540 257 L 596 658 L 702 658 L 645 254 C 633 169 600 103 548 57 C 496 11 431 -12 355 -12 Z M 378 711 L 492 843 L 610 843 L 484 711 L 378 711 Z" unicode="Ú" />
<glyph horiz-adv-x="670" d="M 355 -12 C 265 -12 197 14 151 66 C 105 118 87 183 98 261 L 154 658 L 266 658 L 210 258 C 203 208 213 168 239 138 C 265 108 304 94 358 94 C 406 94 446 109 480 139 C 513 169 533 208 540 257 L 596 658 L 702 658 L 645 254 C 633 169 600 103 548 57 C 496 11 431 -12 355 -12 Z M 305 711 L 412 842 L 495 842 L 565 711 L 483 711 L 445 776 L 389 711 L 305 711 Z" unicode="Û" />
<glyph horiz-adv-x="670" d="M 355 -12 C 265 -12 197 14 151 66 C 105 118 87 183 98 261 L 154 658 L 266 658 L 210 258 C 203 208 213 168 239 138 C 265 108 304 94 358 94 C 406 94 446 109 480 139 C 513 169 533 208 540 257 L 596 658 L 702 658 L 645 254 C 633 169 600 103 548 57 C 496 11 431 -12 355 -12 Z M 307 711 L 321 804 L 415 804 L 401 711 L 307 711 Z M 466 711 L 480 804 L 573 804 L 560 711 L 466 711 Z" unicode="Ü" />
<glyph horiz-adv-x="616" d="M 251 0 L 289 268 L 102 658 L 228 658 L 333 439 L 358 375 L 401 439 L 565 658 L 695 658 L 400 269 L 363 0 L 251 0 Z M 342 711 L 456 843 L 574 843 L 448 711 L 342 711 Z" unicode="Ý" />
<glyph horiz-adv-x="513" d="M 68 0 L 160 658 L 273 658 L 258 551 L 301 551 C 368 551 421 534 461 500 C 501 466 521 421 521 366 C 521 294 496 234 447 187 C 397 139 332 116 250 116 L 197 116 L 181 0 L 68 0 Z M 212 220 L 260 220 C 303 220 338 231 366 254 C 394 277 408 308 408 346 C 408 376 397 401 377 419 C 356 437 327 447 291 447 L 244 447 L 212 220 Z" unicode="Þ" />
<glyph horiz-adv-x="585" d="M 58 0 L 124 469 C 136 555 165 620 210 664 C 254 707 312 729 384 729 C 448 729 498 708 536 668 C 573 627 592 571 592 501 C 592 476 589 451 585 426 C 581 400 575 379 569 363 C 551 371 532 377 514 382 C 495 387 477 390 461 390 C 436 390 417 385 404 376 C 391 367 385 354 385 338 C 385 325 389 314 398 306 C 407 297 420 290 437 285 L 451 281 C 487 269 515 252 535 230 C 555 207 566 180 566 150 C 566 100 549 60 515 32 C 481 4 435 -10 378 -10 C 356 -10 332 -7 306 -2 C 280 2 258 8 239 15 L 253 111 C 269 101 289 93 313 87 C 337 81 359 78 381 78 C 405 78 424 82 438 92 C 451 101 458 114 458 131 C 458 143 452 154 441 164 C 429 174 413 182 392 189 L 378 193 C 344 204 319 220 302 241 C 285 262 277 289 277 321 C 277 369 292 407 322 435 C 352 463 390 478 438 478 C 447 478 456 477 465 476 C 474 475 483 473 492 471 C 500 524 493 564 471 592 C 449 620 418 634 379 634 C 337 634 304 619 280 590 C 256 561 240 519 233 464 L 168 0 L 58 0 Z" unicode="ß" />
<glyph horiz-adv-x="532" d="M 230 -10 C 182 -10 143 6 111 40 C 79 73 64 120 64 180 C 64 265 92 336 148 393 C 204 449 272 478 354 478 C 381 478 411 474 444 468 C 477 462 507 454 534 444 L 493 146 C 489 122 487 98 485 74 C 483 50 482 25 482 0 L 373 0 C 373 10 373 21 373 33 C 373 44 374 55 375 65 L 377 89 C 359 53 337 27 311 12 C 285 -2 258 -10 230 -10 Z M 262 86 C 292 86 320 101 347 132 C 374 163 393 217 404 295 L 415 370 C 403 374 390 378 378 380 C 365 382 352 383 338 383 C 293 383 254 364 222 326 C 189 288 173 244 173 192 C 173 156 181 130 197 112 C 213 94 235 86 262 86 Z M 302 524 L 200 668 L 326 668 L 415 524 L 302 524 Z" unicode="à" />
<glyph horiz-adv-x="532" d="M 230 -10 C 182 -10 143 6 111 40 C 79 73 64 120 64 180 C 64 265 92 336 148 393 C 204 449 272 478 354 478 C 381 478 411 474 444 468 C 477 462 507 454 534 444 L 493 146 C 489 122 487 98 485 74 C 483 50 482 25 482 0 L 373 0 C 373 10 373 21 373 33 C 373 44 374 55 375 65 L 377 89 C 359 53 337 27 311 12 C 285 -2 258 -10 230 -10 Z M 262 86 C 292 86 320 101 347 132 C 374 163 393 217 404 295 L 415 370 C 403 374 390 378 378 380 C 365 382 352 383 338 383 C 293 383 254 364 222 326 C 189 288 173 244 173 192 C 173 156 181 130 197 112 C 213 94 235 86 262 86 Z M 289 524 L 413 668 L 539 668 L 403 524 L 289 524 Z" unicode="á" />
<glyph horiz-adv-x="532" d="M 230 -10 C 182 -10 143 6 111 40 C 79 73 64 120 64 180 C 64 265 92 336 148 393 C 204 449 272 478 354 478 C 381 478 411 474 444 468 C 477 462 507 454 534 444 L 493 146 C 489 122 487 98 485 74 C 483 50 482 25 482 0 L 373 0 C 373 10 373 21 373 33 C 373 44 374 55 375 65 L 377 89 C 359 53 337 27 311 12 C 285 -2 258 -10 230 -10 Z M 262 86 C 292 86 320 101 347 132 C 374 163 393 217 404 295 L 415 370 C 403 374 390 378 378 380 C 365 382 352 383 338 383 C 293 383 254 364 222 326 C 189 288 173 244 173 192 C 173 156 181 130 197 112 C 213 94 235 86 262 86 Z M 211 524 L 327 666 L 419 666 L 495 524 L 403 524 L 363 595 L 304 524 L 211 524 Z" unicode="â" />
<glyph horiz-adv-x="532" d="M 230 -10 C 182 -10 143 6 111 40 C 79 73 64 120 64 180 C 64 265 92 336 148 393 C 204 449 272 478 354 478 C 381 478 411 474 444 468 C 477 462 507 454 534 444 L 493 146 C 489 122 487 98 485 74 C 483 50 482 25 482 0 L 373 0 C 373 10 373 21 373 33 C 373 44 374 55 375 65 L 377 89 C 359 53 337 27 311 12 C 285 -2 258 -10 230 -10 Z M 262 86 C 292 86 320 101 347 132 C 374 163 393 217 404 295 L 415 370 C 403 374 390 378 378 380 C 365 382 352 383 338 383 C 293 383 254 364 222 326 C 189 288 173 244 173 192 C 173 156 181 130 197 112 C 213 94 235 86 262 86 Z M 268 524 L 201 524 C 207 564 219 594 237 615 C 255 635 278 646 308 646 C 320 646 332 644 343 640 C 354 636 366 629 378 621 C 387 614 395 609 401 605 C 407 601 414 599 421 599 C 430 599 438 602 445 610 C 452 617 457 627 460 640 L 527 640 C 520 600 508 569 490 549 C 472 529 448 519 420 519 C 406 519 393 521 382 525 C 371 529 360 535 350 544 C 341 551 333 556 327 560 C 320 563 313 565 307 565 C 297 565 288 561 281 554 C 274 546 270 536 268 524 Z" unicode="ã" />
<glyph horiz-adv-x="532" d="M 230 -10 C 182 -10 143 6 111 40 C 79 73 64 120 64 180 C 64 265 92 336 148 393 C 204 449 272 478 354 478 C 381 478 411 474 444 468 C 477 462 507 454 534 444 L 493 146 C 489 122 487 98 485 74 C 483 50 482 25 482 0 L 373 0 C 373 10 373 21 373 33 C 373 44 374 55 375 65 L 377 89 C 359 53 337 27 311 12 C 285 -2 258 -10 230 -10 Z M 262 86 C 292 86 320 101 347 132 C 374 163 393 217 404 295 L 415 370 C 403 374 390 378 378 380 C 365 382 352 383 338 383 C 293 383 254 364 222 326 C 189 288 173 244 173 192 C 173 156 181 130 197 112 C 213 94 235 86 262 86 Z M 216 529 L 230 632 L 333 632 L 319 529 L 216 529 Z M 389 529 L 403 632 L 506 632 L 492 529 L 389 529 Z" unicode="ä" />
<glyph horiz-adv-x="532" d="M 230 -10 C 182 -10 143 6 111 40 C 79 73 64 120 64 180 C 64 265 92 336 148 393 C 204 449 272 478 354 478 C 381 478 411 474 444 468 C 477 462 507 454 534 444 L 493 146 C 489 122 487 98 485 74 C 483 50 482 25 482 0 L 373 0 C 373 10 373 21 373 33 C 373 44 374 55 375 65 L 377 89 C 359 53 337 27 311 12 C 285 -2 258 -10 230 -10 Z M 262 86 C 292 86 320 101 347 132 C 374 163 393 217 404 295 L 415 370 C 403 374 390 378 378 380 C 365 382 352 383 338 383 C 293 383 254 364 222 326 C 189 288 173 244 173 192 C 173 156 181 130 197 112 C 213 94 235 86 262 86 Z M 345 435 C 318 435 296 443 279 461 C 261 478 253 500 253 527 C 253 557 263 583 284 604 C 305 624 332 635 364 635 C 390 635 412 626 430 608 C 447 590 456 569 456 543 C 456 513 446 487 426 466 C 406 445 379 435 345 435 Z M 351 495 C 363 495 374 499 382 507 C 390 515 394 525 394 538 C 394 548 390 557 384 564 C 377 571 368 575 358 575 C 345 575 334 570 326 562 C 318 554 314 544 314 532 C 314 521 317 512 324 505 C 331 498 340 495 351 495 Z" unicode="å" />
<glyph horiz-adv-x="740" d="M 198 -10 C 148 -10 111 2 88 28 C 64 53 53 82 53 115 C 53 163 70 201 105 229 C 139 257 187 272 247 274 L 333 277 L 338 313 C 340 339 334 358 320 370 C 306 382 283 389 253 389 C 227 389 202 385 177 379 C 151 372 127 362 103 350 L 117 445 C 143 455 170 463 198 469 C 225 475 252 478 278 478 C 316 478 345 471 367 459 C 389 447 404 431 413 411 C 433 431 458 448 486 460 C 514 472 545 478 579 478 C 626 478 665 465 695 440 C 725 414 741 382 741 343 C 741 293 721 258 683 237 C 644 215 582 203 497 201 L 434 200 C 434 164 445 135 466 115 C 487 94 517 84 555 84 C 583 84 611 88 638 97 C 664 105 690 118 715 136 L 700 30 C 675 16 649 6 623 0 C 597 -6 570 -10 542 -10 C 496 -10 458 -1 428 15 C 398 32 375 55 359 84 C 341 54 318 31 290 15 C 261 -1 230 -10 198 -10 Z M 566 393 C 535 393 508 382 486 360 C 464 338 449 310 443 277 L 500 278 C 544 280 576 285 598 295 C 619 305 630 321 630 344 C 630 358 624 370 612 379 C 600 388 585 393 566 393 Z M 226 79 C 249 79 269 86 286 102 C 303 117 313 137 317 162 L 322 199 L 250 196 C 225 195 205 189 189 177 C 173 165 165 148 165 128 C 165 112 170 100 181 91 C 192 82 207 78 226 79 Z" unicode="æ" />
<glyph horiz-adv-x="466" d="M 283 -10 C 217 -10 165 9 126 48 C 86 87 67 137 67 197 C 67 280 92 348 143 400 C 193 452 260 478 342 478 C 367 478 391 474 415 468 C 438 462 461 453 484 442 L 469 336 C 445 350 423 361 403 369 C 382 376 359 380 333 380 C 285 380 246 363 218 331 C 190 299 176 258 176 209 C 176 172 187 143 209 121 C 231 99 261 88 299 88 C 326 88 351 92 375 100 C 398 108 421 121 444 137 L 429 31 C 405 17 382 6 358 0 C 334 -6 309 -10 283 -10 Z M 221 -227 C 209 -227 197 -225 186 -223 C 174 -220 164 -216 154 -212 L 163 -149 C 171 -154 180 -158 189 -161 C 198 -163 208 -165 218 -165 C 228 -165 237 -162 245 -156 C 252 -150 256 -141 256 -131 C 256 -122 252 -115 246 -110 C 240 -104 232 -102 222 -102 L 216 -102 L 224 -42 L 230 -42 C 260 -42 283 -49 301 -65 C 319 -81 328 -102 328 -128 C 328 -156 318 -180 298 -199 C 278 -217 252 -227 221 -227 Z" unicode="ç" />
<glyph horiz-adv-x="485" d="M 287 -10 C 217 -10 163 9 125 49 C 87 88 68 139 68 201 C 68 280 92 346 141 399 C 189 451 250 478 324 478 C 370 478 409 465 440 440 C 470 414 486 382 486 343 C 486 293 466 256 427 231 C 387 206 323 191 235 187 L 177 183 C 179 151 191 127 213 110 C 235 92 264 84 300 84 C 328 84 356 88 383 97 C 410 105 436 118 461 136 L 445 30 C 420 16 394 6 368 0 C 342 -6 315 -10 287 -10 Z M 311 387 C 279 387 251 375 227 351 C 203 327 189 298 184 262 L 245 265 C 289 267 321 275 343 287 C 364 299 375 317 375 340 C 375 354 369 365 357 374 C 345 382 330 387 311 387 Z M 268 524 L 166 668 L 292 668 L 381 524 L 268 524 Z" unicode="è" />
<glyph horiz-adv-x="485" d="M 287 -10 C 217 -10 163 9 125 49 C 87 88 68 139 68 201 C 68 280 92 346 141 399 C 189 451 250 478 324 478 C 370 478 409 465 440 440 C 470 414 486 382 486 343 C 486 293 466 256 427 231 C 387 206 323 191 235 187 L 177 183 C 179 151 191 127 213 110 C 235 92 264 84 300 84 C 328 84 356 88 383 97 C 410 105 436 118 461 136 L 445 30 C 420 16 394 6 368 0 C 342 -6 315 -10 287 -10 Z M 311 387 C 279 387 251 375 227 351 C 203 327 189 298 184 262 L 245 265 C 289 267 321 275 343 287 C 364 299 375 317 375 340 C 375 354 369 365 357 374 C 345 382 330 387 311 387 Z M 255 524 L 379 668 L 505 668 L 369 524 L 255 524 Z" unicode="é" />
<glyph horiz-adv-x="485" d="M 287 -10 C 217 -10 163 9 125 49 C 87 88 68 139 68 201 C 68 280 92 346 141 399 C 189 451 250 478 324 478 C 370 478 409 465 440 440 C 470 414 486 382 486 343 C 486 293 466 256 427 231 C 387 206 323 191 235 187 L 177 183 C 179 151 191 127 213 110 C 235 92 264 84 300 84 C 328 84 356 88 383 97 C 410 105 436 118 461 136 L 445 30 C 420 16 394 6 368 0 C 342 -6 315 -10 287 -10 Z M 311 387 C 279 387 251 375 227 351 C 203 327 189 298 184 262 L 245 265 C 289 267 321 275 343 287 C 364 299 375 317 375 340 C 375 354 369 365 357 374 C 345 382 330 387 311 387 Z M 177 524 L 293 666 L 385 666 L 461 524 L 369 524 L 329 595 L 270 524 L 177 524 Z" unicode="ê" />
<glyph horiz-adv-x="485" d="M 287 -10 C 217 -10 163 9 125 49 C 87 88 68 139 68 201 C 68 280 92 346 141 399 C 189 451 250 478 324 478 C 370 478 409 465 440 440 C 470 414 486 382 486 343 C 486 293 466 256 427 231 C 387 206 323 191 235 187 L 177 183 C 179 151 191 127 213 110 C 235 92 264 84 300 84 C 328 84 356 88 383 97 C 410 105 436 118 461 136 L 445 30 C 420 16 394 6 368 0 C 342 -6 315 -10 287 -10 Z M 311 387 C 279 387 251 375 227 351 C 203 327 189 298 184 262 L 245 265 C 289 267 321 275 343 287 C 364 299 375 317 375 340 C 375 354 369 365 357 374 C 345 382 330 387 311 387 Z M 182 529 L 196 632 L 299 632 L 285 529 L 182 529 Z M 355 529 L 369 632 L 472 632 L 458 529 L 355 529 Z" unicode="ë" />
<glyph horiz-adv-x="226" d="M 65 0 C 65 21 65 43 67 65 C 69 87 71 109 74 131 L 121 468 L 231 468 L 184 131 C 181 111 178 89 176 65 C 174 41 173 20 174 0 L 65 0 Z M 134 524 L 32 668 L 158 668 L 247 524 L 134 524 Z" unicode="ì" />
<glyph horiz-adv-x="226" d="M 65 0 C 65 21 65 43 67 65 C 69 87 71 109 74 131 L 121 468 L 231 468 L 184 131 C 181 111 178 89 176 65 C 174 41 173 20 174 0 L 65 0 Z M 121 524 L 245 668 L 371 668 L 235 524 L 121 524 Z" unicode="í" />
<glyph horiz-adv-x="226" d="M 65 0 C 65 21 65 43 67 65 C 69 87 71 109 74 131 L 121 468 L 231 468 L 184 131 C 181 111 178 89 176 65 C 174 41 173 20 174 0 L 65 0 Z M 43 524 L 159 666 L 251 666 L 327 524 L 235 524 L 195 595 L 136 524 L 43 524 Z" unicode="î" />
<glyph horiz-adv-x="226" d="M 65 0 C 65 21 65 43 67 65 C 69 87 71 109 74 131 L 121 468 L 231 468 L 184 131 C 181 111 178 89 176 65 C 174 41 173 20 174 0 L 65 0 Z M 48 529 L 62 632 L 165 632 L 151 529 L 48 529 Z M 221 529 L 235 632 L 338 632 L 324 529 L 221 529 Z" unicode="ï" />
<glyph horiz-adv-x="564" d="M 292 -11 C 226 -11 173 9 131 49 C 89 89 68 141 68 207 C 68 284 92 349 140 401 C 188 453 247 479 319 479 C 351 479 380 474 404 464 C 428 454 448 439 463 419 C 456 445 447 470 435 496 C 423 522 407 546 389 570 L 279 537 L 265 623 L 323 641 C 310 651 296 662 282 673 C 268 683 253 694 237 704 L 352 747 C 367 736 382 725 396 713 C 410 701 423 688 436 676 L 541 708 L 555 621 L 492 602 C 515 563 533 521 546 475 C 558 429 565 382 565 332 C 565 228 539 144 487 82 C 435 20 370 -11 292 -11 Z M 297 89 C 341 89 376 105 404 138 C 431 170 445 211 445 260 C 443 297 430 326 408 348 C 386 369 358 380 326 380 C 284 380 248 364 220 333 C 192 301 178 262 178 215 C 178 179 188 149 210 125 C 232 101 261 89 297 89 Z" unicode="ð" />
<glyph horiz-adv-x="512" d="M 60 0 L 109 345 C 111 367 113 389 115 409 C 117 429 118 449 118 468 L 227 468 C 227 457 226 445 226 433 C 225 420 224 409 224 400 L 222 373 C 239 409 261 435 288 452 C 315 469 343 478 372 478 C 418 478 453 462 478 430 C 503 398 511 357 502 307 L 471 133 C 467 111 464 89 463 67 C 462 45 462 22 462 0 L 352 0 C 352 22 352 44 353 67 C 354 90 357 112 361 133 L 389 274 C 395 306 392 332 379 351 C 365 369 347 379 323 379 C 295 379 268 361 244 327 C 220 292 202 232 190 147 L 170 0 L 60 0 Z M 243 524 L 176 524 C 182 564 194 594 212 615 C 230 635 253 646 283 646 C 295 646 307 644 318 640 C 329 636 341 629 353 621 C 362 614 370 609 376 605 C 382 601 389 599 396 599 C 405 599 413 602 420 610 C 427 617 432 627 435 640 L 502 640 C 495 600 483 569 465 549 C 447 529 423 519 395 519 C 381 519 368 521 357 525 C 346 529 335 535 325 544 C 316 551 308 556 302 560 C 295 563 288 565 282 565 C 272 565 263 561 256 554 C 249 546 245 536 243 524 Z" unicode="ñ" />
<glyph horiz-adv-x="535" d="M 284 -11 C 218 -11 165 8 126 46 C 86 84 67 136 67 201 C 67 280 91 346 139 399 C 187 452 248 479 321 479 C 386 479 438 459 477 421 C 516 383 536 331 536 267 C 536 187 511 121 463 68 C 415 15 355 -11 284 -11 Z M 288 86 C 327 86 360 102 387 136 C 413 169 427 211 427 261 C 427 297 416 326 395 348 C 374 370 347 382 315 382 C 275 382 241 365 215 332 C 189 298 176 257 176 207 C 176 171 186 141 207 119 C 228 97 255 86 288 86 Z M 289 524 L 187 668 L 313 668 L 402 524 L 289 524 Z" unicode="ò" />
<glyph horiz-adv-x="535" d="M 284 -11 C 218 -11 165 8 126 46 C 86 84 67 136 67 201 C 67 280 91 346 139 399 C 187 452 248 479 321 479 C 386 479 438 459 477 421 C 516 383 536 331 536 267 C 536 187 511 121 463 68 C 415 15 355 -11 284 -11 Z M 288 86 C 327 86 360 102 387 136 C 413 169 427 211 427 261 C 427 297 416 326 395 348 C 374 370 347 382 315 382 C 275 382 241 365 215 332 C 189 298 176 257 176 207 C 176 171 186 141 207 119 C 228 97 255 86 288 86 Z M 276 524 L 400 668 L 526 668 L 390 524 L 276 524 Z" unicode="ó" />
<glyph horiz-adv-x="535" d="M 284 -11 C 218 -11 165 8 126 46 C 86 84 67 136 67 201 C 67 280 91 346 139 399 C 187 452 248 479 321 479 C 386 479 438 459 477 421 C 516 383 536 331 536 267 C 536 187 511 121 463 68 C 415 15 355 -11 284 -11 Z M 288 86 C 327 86 360 102 387 136 C 413 169 427 211 427 261 C 427 297 416 326 395 348 C 374 370 347 382 315 382 C 275 382 241 365 215 332 C 189 298 176 257 176 207 C 176 171 186 141 207 119 C 228 97 255 86 288 86 Z M 198 524 L 314 666 L 406 666 L 482 524 L 390 524 L 350 595 L 291 524 L 198 524 Z" unicode="ô" />
<glyph horiz-adv-x="535" d="M 284 -11 C 218 -11 165 8 126 46 C 86 84 67 136 67 201 C 67 280 91 346 139 399 C 187 452 248 479 321 479 C 386 479 438 459 477 421 C 516 383 536 331 536 267 C 536 187 511 121 463 68 C 415 15 355 -11 284 -11 Z M 288 86 C 327 86 360 102 387 136 C 413 169 427 211 427 261 C 427 297 416 326 395 348 C 374 370 347 382 315 382 C 275 382 241 365 215 332 C 189 298 176 257 176 207 C 176 171 186 141 207 119 C 228 97 255 86 288 86 Z M 255 524 L 188 524 C 194 564 206 594 224 615 C 242 635 265 646 295 646 C 307 646 319 644 330 640 C 341 636 353 629 365 621 C 374 614 382 609 388 605 C 394 601 401 599 408 599 C 417 599 425 602 432 610 C 439 617 444 627 447 640 L 514 640 C 507 600 495 569 477 549 C 459 529 435 519 407 519 C 393 519 380 521 369 525 C 358 529 347 535 337 544 C 328 551 320 556 314 560 C 307 563 300 565 294 565 C 284 565 275 561 268 554 C 261 546 257 536 255 524 Z" unicode="õ" />
<glyph horiz-adv-x="535" d="M 284 -11 C 218 -11 165 8 126 46 C 86 84 67 136 67 201 C 67 280 91 346 139 399 C 187 452 248 479 321 479 C 386 479 438 459 477 421 C 516 383 536 331 536 267 C 536 187 511 121 463 68 C 415 15 355 -11 284 -11 Z M 288 86 C 327 86 360 102 387 136 C 413 169 427 211 427 261 C 427 297 416 326 395 348 C 374 370 347 382 315 382 C 275 382 241 365 215 332 C 189 298 176 257 176 207 C 176 171 186 141 207 119 C 228 97 255 86 288 86 Z M 203 529 L 217 632 L 320 632 L 306 529 L 203 529 Z M 376 529 L 390 632 L 493 632 L 479 529 L 376 529 Z" unicode="ö" />
<glyph horiz-adv-x="522" d="M 266 424 L 281 522 L 378 522 L 364 424 L 266 424 Z M 79 245 L 93 340 L 524 340 L 510 245 L 79 245 Z M 219 63 L 233 161 L 331 161 L 317 63 L 219 63 Z" unicode="÷" />
<glyph horiz-adv-x="535" d="M 67 -48 L 441 516 L 534 516 L 160 -48 L 67 -48 Z M 284 -11 C 218 -11 165 8 126 46 C 86 84 67 136 67 201 C 67 280 91 346 139 399 C 187 452 248 479 321 479 C 386 479 438 459 477 421 C 516 383 536 331 536 267 C 536 187 511 121 463 68 C 415 15 355 -11 284 -11 Z M 288 86 C 327 86 360 102 387 136 C 413 169 427 211 427 261 C 427 297 416 326 395 348 C 374 370 347 382 315 382 C 275 382 241 365 215 332 C 189 298 176 257 176 207 C 176 171 186 141 207 119 C 228 97 255 86 288 86 Z" unicode="ø" />
<glyph horiz-adv-x="515" d="M 207 -11 C 161 -11 126 4 100 36 C 74 67 66 109 75 161 L 104 345 C 108 368 111 390 113 410 C 115 430 116 449 116 468 L 225 468 C 225 447 224 426 222 405 C 220 383 217 362 214 340 L 189 194 C 183 159 186 133 198 115 C 210 97 229 89 256 89 C 284 89 310 105 334 137 C 358 169 376 229 389 315 L 411 468 L 520 468 L 472 128 C 469 107 467 86 466 64 C 464 42 464 20 464 0 L 355 0 C 355 10 355 21 355 32 C 355 43 356 54 357 65 L 359 95 C 341 58 318 31 291 14 C 264 -2 236 -11 207 -11 Z M 271 524 L 169 668 L 295 668 L 384 524 L 271 524 Z" unicode="ù" />
<glyph horiz-adv-x="515" d="M 207 -11 C 161 -11 126 4 100 36 C 74 67 66 109 75 161 L 104 345 C 108 368 111 390 113 410 C 115 430 116 449 116 468 L 225 468 C 225 447 224 426 222 405 C 220 383 217 362 214 340 L 189 194 C 183 159 186 133 198 115 C 210 97 229 89 256 89 C 284 89 310 105 334 137 C 358 169 376 229 389 315 L 411 468 L 520 468 L 472 128 C 469 107 467 86 466 64 C 464 42 464 20 464 0 L 355 0 C 355 10 355 21 355 32 C 355 43 356 54 357 65 L 359 95 C 341 58 318 31 291 14 C 264 -2 236 -11 207 -11 Z M 258 524 L 382 668 L 508 668 L 372 524 L 258 524 Z" unicode="ú" />
<glyph horiz-adv-x="515" d="M 207 -11 C 161 -11 126 4 100 36 C 74 67 66 109 75 161 L 104 345 C 108 368 111 390 113 410 C 115 430 116 449 116 468 L 225 468 C 225 447 224 426 222 405 C 220 383 217 362 214 340 L 189 194 C 183 159 186 133 198 115 C 210 97 229 89 256 89 C 284 89 310 105 334 137 C 358 169 376 229 389 315 L 411 468 L 520 468 L 472 128 C 469 107 467 86 466 64 C 464 42 464 20 464 0 L 355 0 C 355 10 355 21 355 32 C 355 43 356 54 357 65 L 359 95 C 341 58 318 31 291 14 C 264 -2 236 -11 207 -11 Z M 180 524 L 296 666 L 388 666 L 464 524 L 372 524 L 332 595 L 273 524 L 180 524 Z" unicode="û" />
<glyph horiz-adv-x="515" d="M 207 -11 C 161 -11 126 4 100 36 C 74 67 66 109 75 161 L 104 345 C 108 368 111 390 113 410 C 115 430 116 449 116 468 L 225 468 C 225 447 224 426 222 405 C 220 383 217 362 214 340 L 189 194 C 183 159 186 133 198 115 C 210 97 229 89 256 89 C 284 89 310 105 334 137 C 358 169 376 229 389 315 L 411 468 L 520 468 L 472 128 C 469 107 467 86 466 64 C 464 42 464 20 464 0 L 355 0 C 355 10 355 21 355 32 C 355 43 356 54 357 65 L 359 95 C 341 58 318 31 291 14 C 264 -2 236 -11 207 -11 Z M 185 529 L 199 632 L 302 632 L 288 529 L 185 529 Z M 358 529 L 372 632 L 475 632 L 461 529 L 358 529 Z" unicode="ü" />
<glyph horiz-adv-x="491" d="M -27 -213 L -34 -213 L -20 -113 L -12 -113 C 26 -113 62 -104 98 -87 C 134 -70 165 -46 192 -16 L 77 468 L 196 468 L 256 195 L 274 80 C 300 128 324 183 348 247 C 371 310 394 384 418 468 L 530 468 C 500 367 469 278 436 200 C 402 122 367 57 331 3 C 280 -71 225 -125 166 -160 C 106 -195 42 -213 -27 -213 Z M 244 524 L 368 668 L 494 668 L 358 524 L 244 524 Z" unicode="ý" />
<glyph horiz-adv-x="526" d="M 23 -213 L 154 718 L 263 718 L 224 441 C 222 428 220 416 218 404 C 216 392 214 381 212 370 C 228 409 250 437 277 453 C 304 469 332 478 362 478 C 409 478 448 461 480 428 C 512 394 528 347 528 285 C 528 201 501 131 449 75 C 397 18 331 -10 251 -10 C 235 -10 220 -8 206 -6 C 191 -4 177 0 163 4 L 133 -213 L 23 -213 Z M 260 82 C 306 82 344 100 374 138 C 404 176 419 220 419 270 C 419 306 410 333 393 352 C 376 370 354 380 328 380 C 303 380 277 368 249 344 C 221 320 200 263 188 172 L 178 96 C 190 91 203 87 217 85 C 231 83 245 82 260 82 Z" unicode="þ" />
<glyph horiz-adv-x="491" d="M -27 -213 L -34 -213 L -20 -113 L -12 -113 C 26 -113 62 -104 98 -87 C 134 -70 165 -46 192 -16 L 77 468 L 196 468 L 256 195 L 274 80 C 300 128 324 183 348 247 C 371 310 394 384 418 468 L 530 468 C 500 367 469 278 436 200 C 402 122 367 57 331 3 C 280 -71 225 -125 166 -160 C 106 -195 42 -213 -27 -213 Z M 171 529 L 185 632 L 288 632 L 274 529 L 171 529 Z M 344 529 L 358 632 L 461 632 L 447 529 L 344 529 Z" unicode="ÿ" />
<glyph horiz-adv-x="663" d="M 17 0 L 371 661 L 476 661 L 646 0 L 529 0 L 488 168 L 220 168 L 133 0 L 17 0 Z M 356 429 L 272 268 L 463 268 L 424 429 L 403 526 L 356 429 Z M 319 711 L 329 789 L 556 789 L 545 711 L 319 711 Z" unicode="Ā" />
<glyph horiz-adv-x="532" d="M 230 -10 C 182 -10 143 6 111 40 C 79 73 64 120 64 180 C 64 265 92 336 148 393 C 204 449 272 478 354 478 C 381 478 411 474 444 468 C 477 462 507 454 534 444 L 493 146 C 489 122 487 98 485 74 C 483 50 482 25 482 0 L 373 0 C 373 10 373 21 373 33 C 373 44 374 55 375 65 L 377 89 C 359 53 337 27 311 12 C 285 -2 258 -10 230 -10 Z M 262 86 C 292 86 320 101 347 132 C 374 163 393 217 404 295 L 415 370 C 403 374 390 378 378 380 C 365 382 352 383 338 383 C 293 383 254 364 222 326 C 189 288 173 244 173 192 C 173 156 181 130 197 112 C 213 94 235 86 262 86 Z M 231 532 L 243 619 L 489 619 L 477 532 L 231 532 Z" unicode="ā" />
<glyph horiz-adv-x="663" d="M 17 0 L 371 661 L 476 661 L 646 0 L 529 0 L 488 168 L 220 168 L 133 0 L 17 0 Z M 356 429 L 272 268 L 463 268 L 424 429 L 403 526 L 356 429 Z M 430 702 C 391 702 362 714 343 738 C 323 762 316 793 321 831 L 386 831 C 384 812 388 797 396 787 C 404 776 417 771 434 771 C 449 771 462 776 473 787 C 483 797 489 812 491 831 L 557 831 C 552 791 538 759 514 736 C 490 713 462 702 430 702 Z" unicode="Ă" />
<glyph horiz-adv-x="532" d="M 230 -10 C 182 -10 143 6 111 40 C 79 73 64 120 64 180 C 64 265 92 336 148 393 C 204 449 272 478 354 478 C 381 478 411 474 444 468 C 477 462 507 454 534 444 L 493 146 C 489 122 487 98 485 74 C 483 50 482 25 482 0 L 373 0 C 373 10 373 21 373 33 C 373 44 374 55 375 65 L 377 89 C 359 53 337 27 311 12 C 285 -2 258 -10 230 -10 Z M 262 86 C 292 86 320 101 347 132 C 374 163 393 217 404 295 L 415 370 C 403 374 390 378 378 380 C 365 382 352 383 338 383 C 293 383 254 364 222 326 C 189 288 173 244 173 192 C 173 156 181 130 197 112 C 213 94 235 86 262 86 Z M 356 516 C 314 516 282 528 261 554 C 240 580 232 614 237 656 L 309 656 C 307 636 311 620 320 609 C 328 597 342 592 360 592 C 376 592 390 597 401 609 C 412 620 419 636 421 656 L 493 656 C 487 612 472 577 447 553 C 421 528 391 516 356 516 Z" unicode="ă" />
<glyph horiz-adv-x="663" d="M 17 0 L 371 661 L 476 661 L 646 0 L 529 0 L 488 168 L 220 168 L 133 0 L 17 0 Z M 356 429 L 272 268 L 463 268 L 424 429 L 403 526 L 356 429 Z M 615 -220 C 567 -220 530 -209 502 -187 C 474 -165 461 -137 461 -101 C 461 -61 477 -27 509 0 C 541 28 582 42 630 43 L 637 0 C 613 0 594 -7 578 -21 C 562 -35 555 -53 555 -75 C 555 -93 561 -108 574 -118 C 587 -128 605 -133 627 -133 L 615 -220 Z" unicode="Ą" />
<glyph horiz-adv-x="532" d="M 230 -10 C 182 -10 143 6 111 40 C 79 73 64 120 64 180 C 64 265 92 336 148 393 C 204 449 272 478 354 478 C 381 478 411 474 444 468 C 477 462 507 454 534 444 L 493 146 C 489 122 487 98 485 74 C 483 50 482 25 482 0 L 373 0 C 373 10 373 21 373 33 C 373 44 374 55 375 65 L 377 89 C 359 53 337 27 311 12 C 285 -2 258 -10 230 -10 Z M 262 86 C 292 86 320 101 347 132 C 374 163 393 217 404 295 L 415 370 C 403 374 390 378 378 380 C 365 382 352 383 338 383 C 293 383 254 364 222 326 C 189 288 173 244 173 192 C 173 156 181 130 197 112 C 213 94 235 86 262 86 Z M 462 -214 C 414 -214 375 -205 347 -188 C 318 -170 304 -144 304 -110 C 304 -76 317 -47 344 -21 C 371 4 412 29 466 53 L 480 0 C 452 -7 433 -17 421 -29 C 409 -41 404 -55 404 -71 C 404 -86 410 -98 422 -108 C 434 -117 452 -122 475 -122 L 462 -214 Z" unicode="ą" />
<glyph horiz-adv-x="658" d="M 412 -15 C 312 -15 234 14 177 72 C 120 130 92 202 92 288 C 92 398 128 490 200 563 C 272 636 368 673 487 673 C 523 673 559 668 594 660 C 628 652 661 639 693 622 L 677 510 C 646 528 614 543 581 553 C 547 563 513 569 477 569 C 396 569 331 543 281 492 C 231 440 207 375 207 295 C 207 235 226 185 265 147 C 304 108 357 89 423 89 C 461 89 497 94 532 105 C 566 116 601 132 636 153 L 620 38 C 585 19 550 5 516 -2 C 481 -10 446 -15 412 -15 Z M 440 719 L 554 851 L 672 851 L 546 719 L 440 719 Z" unicode="Ć" />
<glyph horiz-adv-x="466" d="M 283 -10 C 217 -10 165 9 126 48 C 86 87 67 137 67 197 C 67 280 92 348 143 400 C 193 452 260 478 342 478 C 367 478 391 474 415 468 C 438 462 461 453 484 442 L 469 336 C 445 350 423 361 403 369 C 382 376 359 380 333 380 C 285 380 246 363 218 331 C 190 299 176 258 176 209 C 176 172 187 143 209 121 C 231 99 261 88 299 88 C 326 88 351 92 375 100 C 398 108 421 121 444 137 L 429 31 C 405 17 382 6 358 0 C 334 -6 309 -10 283 -10 Z M 263 524 L 387 668 L 513 668 L 377 524 L 263 524 Z" unicode="ć" />
<glyph horiz-adv-x="658" d="M 412 -15 C 312 -15 234 14 177 72 C 120 130 92 202 92 288 C 92 398 128 490 200 563 C 272 636 368 673 487 673 C 523 673 559 668 594 660 C 628 652 661 639 693 622 L 677 510 C 646 528 614 543 581 553 C 547 563 513 569 477 569 C 396 569 331 543 281 492 C 231 440 207 375 207 295 C 207 235 226 185 265 147 C 304 108 357 89 423 89 C 461 89 497 94 532 105 C 566 116 601 132 636 153 L 620 38 C 585 19 550 5 516 -2 C 481 -10 446 -15 412 -15 Z M 367 719 L 474 850 L 557 850 L 627 719 L 545 719 L 507 784 L 451 719 L 367 719 Z" unicode="Ĉ" />
<glyph horiz-adv-x="466" d="M 283 -10 C 217 -10 165 9 126 48 C 86 87 67 137 67 197 C 67 280 92 348 143 400 C 193 452 260 478 342 478 C 367 478 391 474 415 468 C 438 462 461 453 484 442 L 469 336 C 445 350 423 361 403 369 C 382 376 359 380 333 380 C 285 380 246 363 218 331 C 190 299 176 258 176 209 C 176 172 187 143 209 121 C 231 99 261 88 299 88 C 326 88 351 92 375 100 C 398 108 421 121 444 137 L 429 31 C 405 17 382 6 358 0 C 334 -6 309 -10 283 -10 Z M 185 524 L 301 666 L 393 666 L 469 524 L 377 524 L 337 595 L 278 524 L 185 524 Z" unicode="ĉ" />
<glyph horiz-adv-x="658" d="M 412 -15 C 312 -15 234 14 177 72 C 120 130 92 202 92 288 C 92 398 128 490 200 563 C 272 636 368 673 487 673 C 523 673 559 668 594 660 C 628 652 661 639 693 622 L 677 510 C 646 528 614 543 581 553 C 547 563 513 569 477 569 C 396 569 331 543 281 492 C 231 440 207 375 207 295 C 207 235 226 185 265 147 C 304 108 357 89 423 89 C 461 89 497 94 532 105 C 566 116 601 132 636 153 L 620 38 C 585 19 550 5 516 -2 C 481 -10 446 -15 412 -15 Z M 447 719 L 461 819 L 561 819 L 547 719 L 447 719 Z" unicode="Ċ" />
<glyph horiz-adv-x="466" d="M 283 -10 C 217 -10 165 9 126 48 C 86 87 67 137 67 197 C 67 280 92 348 143 400 C 193 452 260 478 342 478 C 367 478 391 474 415 468 C 438 462 461 453 484 442 L 469 336 C 445 350 423 361 403 369 C 382 376 359 380 333 380 C 285 380 246 363 218 331 C 190 299 176 258 176 209 C 176 172 187 143 209 121 C 231 99 261 88 299 88 C 326 88 351 92 375 100 C 398 108 421 121 444 137 L 429 31 C 405 17 382 6 358 0 C 334 -6 309 -10 283 -10 Z M 274 528 L 290 638 L 399 638 L 384 528 L 274 528 Z" unicode="ċ" />
<glyph horiz-adv-x="658" d="M 412 -15 C 312 -15 234 14 177 72 C 120 130 92 202 92 288 C 92 398 128 490 200 563 C 272 636 368 673 487 673 C 523 673 559 668 594 660 C 628 652 661 639 693 622 L 677 510 C 646 528 614 543 581 553 C 547 563 513 569 477 569 C 396 569 331 543 281 492 C 231 440 207 375 207 295 C 207 235 226 185 265 147 C 304 108 357 89 423 89 C 461 89 497 94 532 105 C 566 116 601 132 636 153 L 620 38 C 585 19 550 5 516 -2 C 481 -10 446 -15 412 -15 Z M 456 716 L 386 847 L 469 847 L 506 781 L 562 847 L 646 847 L 540 716 L 456 716 Z" unicode="Č" />
<glyph horiz-adv-x="466" d="M 283 -10 C 217 -10 165 9 126 48 C 86 87 67 137 67 197 C 67 280 92 348 143 400 C 193 452 260 478 342 478 C 367 478 391 474 415 468 C 438 462 461 453 484 442 L 469 336 C 445 350 423 361 403 369 C 382 376 359 380 333 380 C 285 380 246 363 218 331 C 190 299 176 258 176 209 C 176 172 187 143 209 121 C 231 99 261 88 299 88 C 326 88 351 92 375 100 C 398 108 421 121 444 137 L 429 31 C 405 17 382 6 358 0 C 334 -6 309 -10 283 -10 Z M 281 524 L 205 666 L 296 666 L 336 595 L 396 666 L 488 666 L 373 524 L 281 524 Z" unicode="č" />
<glyph horiz-adv-x="695" d="M 68 0 L 160 658 L 376 658 C 474 658 552 631 610 577 C 667 523 696 454 696 369 C 696 260 658 171 583 103 C 508 34 408 0 282 0 L 68 0 Z M 195 105 L 296 105 C 383 105 452 129 503 177 C 554 225 580 288 580 364 C 580 418 561 463 523 499 C 485 535 434 553 368 553 L 258 553 L 195 105 Z M 331 708 L 261 839 L 344 839 L 381 773 L 437 839 L 521 839 L 415 708 L 331 708 Z" unicode="Ď" />
<glyph horiz-adv-x="703" d="M 233 -10 C 185 -10 145 6 113 40 C 81 73 66 120 66 180 C 66 265 93 336 149 393 C 205 449 273 478 353 478 C 365 478 377 477 391 475 C 404 473 417 470 431 466 L 466 718 L 576 718 L 495 146 C 492 122 489 98 487 74 C 485 50 484 25 484 0 L 376 0 C 376 8 376 18 376 29 C 376 40 377 52 378 65 L 379 89 C 361 53 339 27 313 12 C 287 -2 260 -10 233 -10 Z M 265 86 C 295 86 323 101 350 132 C 376 163 395 217 407 295 L 417 365 C 405 371 393 375 379 378 C 365 381 351 383 337 383 C 293 383 255 364 223 327 C 191 289 175 245 175 193 C 175 157 183 131 200 113 C 216 95 238 86 265 86 Z M 682 511 L 604 543 C 620 565 631 585 639 605 C 646 625 652 647 656 673 L 662 718 L 759 718 L 752 673 C 747 637 739 608 729 584 C 719 560 703 535 682 511 Z" unicode="ď" />
<glyph horiz-adv-x="710" d="M 69 279 L 83 375 L 351 375 L 338 279 L 69 279 Z M 81 0 L 173 658 L 389 658 C 487 658 565 631 623 577 C 680 523 709 454 709 369 C 709 260 671 171 596 103 C 521 34 421 0 295 0 L 81 0 Z M 208 105 L 309 105 C 396 105 465 129 516 177 C 567 225 593 288 593 364 C 593 418 574 463 536 499 C 498 535 447 553 381 553 L 271 553 L 208 105 Z" unicode="Đ" />
<glyph horiz-adv-x="533" d="M 380 544 L 393 634 L 618 634 L 605 544 L 380 544 Z M 233 -10 C 185 -10 145 6 113 40 C 81 73 66 120 66 180 C 66 265 93 336 149 393 C 205 449 273 478 353 478 C 365 478 377 477 391 475 C 404 473 417 470 431 466 L 466 718 L 576 718 L 495 146 C 492 122 489 98 487 74 C 485 50 484 25 484 0 L 376 0 C 376 8 376 18 376 29 C 376 40 377 52 378 65 L 379 89 C 361 53 339 27 313 12 C 287 -2 260 -10 233 -10 Z M 265 86 C 295 86 323 101 350 132 C 376 163 395 217 407 295 L 417 365 C 405 371 393 375 379 378 C 365 381 351 383 337 383 C 293 383 255 364 223 327 C 191 289 175 245 175 193 C 175 157 183 131 200 113 C 216 95 238 86 265 86 Z" unicode="đ" />
<glyph horiz-adv-x="516" d="M 68 0 L 160 658 L 537 658 L 522 553 L 258 553 L 234 386 L 490 386 L 475 280 L 220 280 L 195 105 L 472 105 L 457 0 L 68 0 Z M 250 711 L 260 789 L 487 789 L 476 711 L 250 711 Z" unicode="Ē" />
<glyph horiz-adv-x="485" d="M 287 -10 C 217 -10 163 9 125 49 C 87 88 68 139 68 201 C 68 280 92 346 141 399 C 189 451 250 478 324 478 C 370 478 409 465 440 440 C 470 414 486 382 486 343 C 486 293 466 256 427 231 C 387 206 323 191 235 187 L 177 183 C 179 151 191 127 213 110 C 235 92 264 84 300 84 C 328 84 356 88 383 97 C 410 105 436 118 461 136 L 445 30 C 420 16 394 6 368 0 C 342 -6 315 -10 287 -10 Z M 311 387 C 279 387 251 375 227 351 C 203 327 189 298 184 262 L 245 265 C 289 267 321 275 343 287 C 364 299 375 317 375 340 C 375 354 369 365 357 374 C 345 382 330 387 311 387 Z M 197 532 L 209 619 L 455 619 L 443 532 L 197 532 Z" unicode="ē" />
<glyph horiz-adv-x="516" d="M 68 0 L 160 658 L 537 658 L 522 553 L 258 553 L 234 386 L 490 386 L 475 280 L 220 280 L 195 105 L 472 105 L 457 0 L 68 0 Z M 361 702 C 322 702 293 714 274 738 C 254 762 247 793 252 831 L 317 831 C 315 812 319 797 327 787 C 335 776 348 771 365 771 C 380 771 393 776 404 787 C 414 797 420 812 422 831 L 488 831 C 483 791 469 759 445 736 C 421 713 393 702 361 702 Z" unicode="Ĕ" />
<glyph horiz-adv-x="485" d="M 287 -10 C 217 -10 163 9 125 49 C 87 88 68 139 68 201 C 68 280 92 346 141 399 C 189 451 250 478 324 478 C 370 478 409 465 440 440 C 470 414 486 382 486 343 C 486 293 466 256 427 231 C 387 206 323 191 235 187 L 177 183 C 179 151 191 127 213 110 C 235 92 264 84 300 84 C 328 84 356 88 383 97 C 410 105 436 118 461 136 L 445 30 C 420 16 394 6 368 0 C 342 -6 315 -10 287 -10 Z M 311 387 C 279 387 251 375 227 351 C 203 327 189 298 184 262 L 245 265 C 289 267 321 275 343 287 C 364 299 375 317 375 340 C 375 354 369 365 357 374 C 345 382 330 387 311 387 Z M 322 516 C 280 516 248 528 227 554 C 206 580 198 614 203 656 L 275 656 C 273 636 277 620 286 609 C 294 597 308 592 326 592 C 342 592 356 597 367 609 C 378 620 385 636 387 656 L 459 656 C 453 612 438 577 413 553 C 387 528 357 516 322 516 Z" unicode="ĕ" />
<glyph horiz-adv-x="516" d="M 68 0 L 160 658 L 537 658 L 522 553 L 258 553 L 234 386 L 490 386 L 475 280 L 220 280 L 195 105 L 472 105 L 457 0 L 68 0 Z M 309 711 L 323 811 L 423 811 L 409 711 L 309 711 Z" unicode="Ė" />
<glyph horiz-adv-x="485" d="M 287 -10 C 217 -10 163 9 125 49 C 87 88 68 139 68 201 C 68 280 92 346 141 399 C 189 451 250 478 324 478 C 370 478 409 465 440 440 C 470 414 486 382 486 343 C 486 293 466 256 427 231 C 387 206 323 191 235 187 L 177 183 C 179 151 191 127 213 110 C 235 92 264 84 300 84 C 328 84 356 88 383 97 C 410 105 436 118 461 136 L 445 30 C 420 16 394 6 368 0 C 342 -6 315 -10 287 -10 Z M 311 387 C 279 387 251 375 227 351 C 203 327 189 298 184 262 L 245 265 C 289 267 321 275 343 287 C 364 299 375 317 375 340 C 375 354 369 365 357 374 C 345 382 330 387 311 387 Z M 266 528 L 282 638 L 391 638 L 376 528 L 266 528 Z" unicode="ė" />
<glyph horiz-adv-x="516" d="M 68 0 L 160 658 L 537 658 L 522 553 L 258 553 L 234 386 L 490 386 L 475 280 L 220 280 L 195 105 L 472 105 L 457 0 L 68 0 Z M 431 -220 C 383 -220 346 -209 318 -187 C 290 -165 277 -137 277 -101 C 277 -61 293 -27 325 0 C 357 28 398 42 446 43 L 453 0 C 429 0 410 -7 394 -21 C 378 -35 371 -53 371 -75 C 371 -93 377 -108 390 -118 C 403 -128 421 -133 443 -133 L 431 -220 Z" unicode="Ę" />
<glyph horiz-adv-x="488" d="M 410 -213 C 360 -213 320 -202 291 -180 C 261 -158 247 -128 247 -90 C 247 -75 249 -61 254 -47 C 259 -33 266 -21 275 -10 C 209 -7 158 13 122 52 C 86 91 68 141 68 201 C 68 280 92 346 141 399 C 189 451 250 478 324 478 C 370 478 409 465 440 440 C 470 414 486 382 486 343 C 486 293 466 256 427 231 C 387 206 323 191 235 187 L 177 183 C 179 151 191 127 213 110 C 235 92 264 84 300 84 C 328 84 356 88 383 97 C 410 105 436 118 461 136 L 445 30 C 438 26 431 22 424 19 C 417 16 410 13 403 10 C 384 2 370 -7 360 -20 C 350 -33 346 -48 346 -64 C 346 -84 352 -99 366 -111 C 380 -123 399 -129 423 -129 L 410 -213 Z M 311 387 C 279 387 251 375 227 351 C 203 327 189 298 184 262 L 245 265 C 289 267 321 275 343 287 C 364 299 375 317 375 340 C 375 354 369 365 357 374 C 345 382 330 387 311 387 Z" unicode="ę" />
<glyph horiz-adv-x="516" d="M 68 0 L 160 658 L 537 658 L 522 553 L 258 553 L 234 386 L 490 386 L 475 280 L 220 280 L 195 105 L 472 105 L 457 0 L 68 0 Z M 318 708 L 248 839 L 331 839 L 368 773 L 424 839 L 508 839 L 402 708 L 318 708 Z" unicode="Ě" />
<glyph horiz-adv-x="485" d="M 287 -10 C 217 -10 163 9 125 49 C 87 88 68 139 68 201 C 68 280 92 346 141 399 C 189 451 250 478 324 478 C 370 478 409 465 440 440 C 470 414 486 382 486 343 C 486 293 466 256 427 231 C 387 206 323 191 235 187 L 177 183 C 179 151 191 127 213 110 C 235 92 264 84 300 84 C 328 84 356 88 383 97 C 410 105 436 118 461 136 L 445 30 C 420 16 394 6 368 0 C 342 -6 315 -10 287 -10 Z M 311 387 C 279 387 251 375 227 351 C 203 327 189 298 184 262 L 245 265 C 289 267 321 275 343 287 C 364 299 375 317 375 340 C 375 354 369 365 357 374 C 345 382 330 387 311 387 Z M 273 524 L 197 666 L 288 666 L 328 595 L 388 666 L 480 666 L 365 524 L 273 524 Z" unicode="ě" />
<glyph horiz-adv-x="695" d="M 408 -15 C 309 -15 231 13 175 70 C 119 126 91 197 91 282 C 91 394 127 488 200 562 C 272 636 368 673 486 673 C 524 673 561 669 599 661 C 636 653 669 642 698 628 L 683 518 C 655 534 622 546 586 555 C 550 564 514 569 478 569 C 397 569 332 542 282 490 C 232 438 207 371 207 290 C 207 232 226 184 265 146 C 303 108 353 90 415 90 C 439 90 461 91 482 95 C 503 98 522 104 540 113 L 559 248 L 425 248 L 440 353 L 687 353 L 644 42 C 604 22 564 7 524 -1 C 483 -10 444 -15 408 -15 Z M 351 719 L 458 850 L 541 850 L 611 719 L 529 719 L 491 784 L 435 719 L 351 719 Z" unicode="Ĝ" />
<glyph horiz-adv-x="527" d="M 216 -222 C 188 -222 159 -219 130 -213 C 100 -207 73 -198 48 -188 L 62 -82 C 82 -94 107 -105 135 -113 C 163 -121 189 -125 214 -125 C 257 -125 291 -115 317 -95 C 342 -75 358 -41 365 5 L 377 89 C 360 53 339 27 313 12 C 287 -2 260 -10 232 -10 C 184 -10 145 6 113 40 C 81 73 66 120 66 180 C 66 264 94 335 150 392 C 206 449 274 478 356 478 C 383 478 413 474 447 468 C 480 462 510 454 537 444 L 476 19 C 464 -64 436 -125 393 -164 C 350 -202 291 -222 216 -222 Z M 264 86 C 294 86 322 101 349 132 C 376 163 395 217 406 295 L 417 370 C 405 374 393 378 380 380 C 367 382 354 383 341 383 C 295 383 256 364 224 326 C 191 288 175 244 175 192 C 175 156 183 130 199 112 C 215 94 237 86 264 86 Z M 206 524 L 322 666 L 414 666 L 490 524 L 398 524 L 358 595 L 299 524 L 206 524 Z" unicode="ĝ" />
<glyph horiz-adv-x="695" d="M 408 -15 C 309 -15 231 13 175 70 C 119 126 91 197 91 282 C 91 394 127 488 200 562 C 272 636 368 673 486 673 C 524 673 561 669 599 661 C 636 653 669 642 698 628 L 683 518 C 655 534 622 546 586 555 C 550 564 514 569 478 569 C 397 569 332 542 282 490 C 232 438 207 371 207 290 C 207 232 226 184 265 146 C 303 108 353 90 415 90 C 439 90 461 91 482 95 C 503 98 522 104 540 113 L 559 248 L 425 248 L 440 353 L 687 353 L 644 42 C 604 22 564 7 524 -1 C 483 -10 444 -15 408 -15 Z M 483 710 C 444 710 415 722 396 746 C 376 770 369 801 374 839 L 439 839 C 437 820 441 805 449 795 C 457 784 470 779 487 779 C 502 779 515 784 526 795 C 536 805 542 820 544 839 L 610 839 C 605 799 591 767 567 744 C 543 721 515 710 483 710 Z" unicode="Ğ" />
<glyph horiz-adv-x="527" d="M 216 -222 C 188 -222 159 -219 130 -213 C 100 -207 73 -198 48 -188 L 62 -82 C 82 -94 107 -105 135 -113 C 163 -121 189 -125 214 -125 C 257 -125 291 -115 317 -95 C 342 -75 358 -41 365 5 L 377 89 C 360 53 339 27 313 12 C 287 -2 260 -10 232 -10 C 184 -10 145 6 113 40 C 81 73 66 120 66 180 C 66 264 94 335 150 392 C 206 449 274 478 356 478 C 383 478 413 474 447 468 C 480 462 510 454 537 444 L 476 19 C 464 -64 436 -125 393 -164 C 350 -202 291 -222 216 -222 Z M 264 86 C 294 86 322 101 349 132 C 376 163 395 217 406 295 L 417 370 C 405 374 393 378 380 380 C 367 382 354 383 341 383 C 295 383 256 364 224 326 C 191 288 175 244 175 192 C 175 156 183 130 199 112 C 215 94 237 86 264 86 Z M 351 516 C 309 516 277 528 256 554 C 235 580 227 614 232 656 L 304 656 C 302 636 306 620 315 609 C 323 597 337 592 355 592 C 371 592 385 597 396 609 C 407 620 414 636 416 656 L 488 656 C 482 612 467 577 442 553 C 416 528 386 516 351 516 Z" unicode="ğ" />
<glyph horiz-adv-x="695" d="M 408 -15 C 309 -15 231 13 175 70 C 119 126 91 197 91 282 C 91 394 127 488 200 562 C 272 636 368 673 486 673 C 524 673 561 669 599 661 C 636 653 669 642 698 628 L 683 518 C 655 534 622 546 586 555 C 550 564 514 569 478 569 C 397 569 332 542 282 490 C 232 438 207 371 207 290 C 207 232 226 184 265 146 C 303 108 353 90 415 90 C 439 90 461 91 482 95 C 503 98 522 104 540 113 L 559 248 L 425 248 L 440 353 L 687 353 L 644 42 C 604 22 564 7 524 -1 C 483 -10 444 -15 408 -15 Z M 431 719 L 445 819 L 545 819 L 531 719 L 431 719 Z" unicode="Ġ" />
<glyph horiz-adv-x="527" d="M 216 -222 C 188 -222 159 -219 130 -213 C 100 -207 73 -198 48 -188 L 62 -82 C 82 -94 107 -105 135 -113 C 163 -121 189 -125 214 -125 C 257 -125 291 -115 317 -95 C 342 -75 358 -41 365 5 L 377 89 C 360 53 339 27 313 12 C 287 -2 260 -10 232 -10 C 184 -10 145 6 113 40 C 81 73 66 120 66 180 C 66 264 94 335 150 392 C 206 449 274 478 356 478 C 383 478 413 474 447 468 C 480 462 510 454 537 444 L 476 19 C 464 -64 436 -125 393 -164 C 350 -202 291 -222 216 -222 Z M 264 86 C 294 86 322 101 349 132 C 376 163 395 217 406 295 L 417 370 C 405 374 393 378 380 380 C 367 382 354 383 341 383 C 295 383 256 364 224 326 C 191 288 175 244 175 192 C 175 156 183 130 199 112 C 215 94 237 86 264 86 Z M 295 528 L 311 638 L 420 638 L 405 528 L 295 528 Z" unicode="ġ" />
<glyph horiz-adv-x="695" d="M 408 -15 C 309 -15 231 13 175 70 C 119 126 91 197 91 282 C 91 394 127 488 200 562 C 272 636 368 673 486 673 C 524 673 561 669 599 661 C 636 653 669 642 698 628 L 683 518 C 655 534 622 546 586 555 C 550 564 514 569 478 569 C 397 569 332 542 282 490 C 232 438 207 371 207 290 C 207 232 226 184 265 146 C 303 108 353 90 415 90 C 439 90 461 91 482 95 C 503 98 522 104 540 113 L 559 248 L 425 248 L 440 353 L 687 353 L 644 42 C 604 22 564 7 524 -1 C 483 -10 444 -15 408 -15 Z M 375 -246 L 305 -218 C 319 -197 330 -178 337 -160 C 343 -142 348 -121 352 -98 L 358 -56 L 446 -56 L 440 -98 C 435 -130 428 -157 418 -179 C 408 -201 394 -223 375 -246 Z" unicode="Ģ" />
<glyph horiz-adv-x="527" d="M 216 -222 C 188 -222 159 -219 130 -213 C 100 -207 73 -198 48 -188 L 62 -82 C 82 -94 107 -105 135 -113 C 163 -121 189 -125 214 -125 C 257 -125 291 -115 317 -95 C 342 -75 358 -41 365 5 L 377 89 C 360 53 339 27 313 12 C 287 -2 260 -10 232 -10 C 184 -10 145 6 113 40 C 81 73 66 120 66 180 C 66 264 94 335 150 392 C 206 449 274 478 356 478 C 383 478 413 474 447 468 C 480 462 510 454 537 444 L 476 19 C 464 -64 436 -125 393 -164 C 350 -202 291 -222 216 -222 Z M 264 86 C 294 86 322 101 349 132 C 376 163 395 217 406 295 L 417 370 C 405 374 393 378 380 380 C 367 382 354 383 341 383 C 295 383 256 364 224 326 C 191 288 175 244 175 192 C 175 156 183 130 199 112 C 215 94 237 86 264 86 Z M 376 728 L 454 697 C 438 674 426 653 419 634 C 411 614 406 592 402 567 L 396 522 L 299 522 L 306 567 C 310 602 318 632 328 656 C 338 680 354 704 376 728 Z" unicode="ģ" />
<glyph horiz-adv-x="687" d="M 68 0 L 160 658 L 273 658 L 235 387 L 561 387 L 598 658 L 711 658 L 619 0 L 506 0 L 547 282 L 221 282 L 181 0 L 68 0 Z M 312 709 L 419 840 L 502 840 L 572 709 L 490 709 L 452 774 L 396 709 L 312 709 Z" unicode="Ĥ" />
<glyph horiz-adv-x="507" d="M 52 0 L 154 718 L 263 718 L 228 466 C 225 451 222 435 220 419 C 217 403 214 387 211 371 C 229 407 252 434 280 452 C 308 469 337 478 367 478 C 412 478 447 462 473 431 C 499 400 507 359 498 307 L 466 133 C 462 111 459 89 458 67 C 457 45 457 22 457 0 L 347 0 C 347 22 347 44 349 67 C 350 90 353 112 357 133 L 385 274 C 391 307 388 333 374 351 C 360 369 342 379 318 379 C 294 379 268 364 242 336 C 216 308 196 245 183 147 L 162 0 L 52 0 Z M 41 742 L 157 884 L 249 884 L 325 742 L 233 742 L 193 813 L 134 742 L 41 742 Z" unicode="ĥ" />
<glyph horiz-adv-x="690" d="M 68 0 L 133 467 L 82 467 L 96 564 L 147 564 L 160 658 L 272 658 L 259 564 L 585 564 L 598 658 L 711 658 L 698 564 L 749 564 L 735 467 L 684 467 L 619 0 L 506 0 L 545 276 L 219 276 L 180 0 L 68 0 Z M 233 381 L 559 381 L 571 467 L 245 467 L 233 381 Z" unicode="Ħ" />
<glyph horiz-adv-x="507" d="M 90 544 L 103 634 L 331 634 L 318 544 L 90 544 Z M 52 0 L 154 718 L 263 718 L 228 466 C 225 451 222 435 220 419 C 217 403 214 387 211 371 C 229 407 252 434 280 452 C 308 469 337 478 367 478 C 412 478 447 462 473 431 C 499 400 507 359 498 307 L 466 133 C 462 111 459 89 458 67 C 457 45 457 22 457 0 L 347 0 C 347 22 347 44 349 67 C 350 90 353 112 357 133 L 385 274 C 391 307 388 333 374 351 C 360 369 342 379 318 379 C 294 379 268 364 242 336 C 216 308 196 245 183 147 L 162 0 L 52 0 Z" unicode="ħ" />
<glyph horiz-adv-x="249" d="M 68 0 L 160 658 L 273 658 L 181 0 L 68 0 Z M 141 711 L 81 711 C 86 747 97 775 114 794 C 130 812 152 822 179 822 C 191 822 202 820 212 816 C 222 812 233 806 244 798 C 252 792 260 787 266 784 C 272 780 278 779 284 779 C 292 779 300 782 307 789 C 314 795 319 805 321 818 L 382 818 C 375 780 364 752 348 733 C 332 714 310 705 284 705 C 270 705 259 707 249 711 C 239 715 229 721 219 729 C 210 735 202 740 196 744 C 190 747 184 749 178 749 C 169 749 161 745 155 739 C 148 733 143 723 141 711 Z" unicode="Ĩ" />
<glyph horiz-adv-x="226" d="M 65 0 C 65 21 65 43 67 65 C 69 87 71 109 74 131 L 121 468 L 231 468 L 184 131 C 181 111 178 89 176 65 C 174 41 173 20 174 0 L 65 0 Z M 100 524 L 33 524 C 39 564 51 594 69 615 C 87 635 110 646 140 646 C 152 646 164 644 175 640 C 186 636 198 629 210 621 C 219 614 227 609 233 605 C 239 601 246 599 253 599 C 262 599 270 602 277 610 C 284 617 289 627 292 640 L 359 640 C 352 600 340 569 322 549 C 304 529 280 519 252 519 C 238 519 225 521 214 525 C 203 529 192 535 182 544 C 173 551 165 556 159 560 C 152 563 145 565 139 565 C 129 565 120 561 113 554 C 106 546 102 536 100 524 Z" unicode="ĩ" />
<glyph horiz-adv-x="249" d="M 68 0 L 160 658 L 273 658 L 181 0 L 68 0 Z M 115 711 L 125 789 L 352 789 L 341 711 L 115 711 Z" unicode="Ī" />
<glyph horiz-adv-x="226" d="M 65 0 C 65 21 65 43 67 65 C 69 87 71 109 74 131 L 121 468 L 231 468 L 184 131 C 181 111 178 89 176 65 C 174 41 173 20 174 0 L 65 0 Z M 63 532 L 75 619 L 321 619 L 309 532 L 63 532 Z" unicode="ī" />
<glyph horiz-adv-x="249" d="M 68 0 L 160 658 L 273 658 L 181 0 L 68 0 Z M 226 702 C 187 702 158 714 139 738 C 119 762 112 793 117 831 L 182 831 C 180 812 184 797 192 787 C 200 776 213 771 230 771 C 245 771 258 776 269 787 C 279 797 285 812 287 831 L 353 831 C 348 791 334 759 310 736 C 286 713 258 702 226 702 Z" unicode="Ĭ" />
<glyph horiz-adv-x="226" d="M 65 0 C 65 21 65 43 67 65 C 69 87 71 109 74 131 L 121 468 L 231 468 L 184 131 C 181 111 178 89 176 65 C 174 41 173 20 174 0 L 65 0 Z M 188 516 C 146 516 114 528 93 554 C 72 580 64 614 69 656 L 141 656 C 139 636 143 620 152 609 C 160 597 174 592 192 592 C 208 592 222 597 233 609 C 244 620 251 636 253 656 L 325 656 C 319 612 304 577 279 553 C 253 528 223 516 188 516 Z" unicode="ĭ" />
<glyph horiz-adv-x="249" d="M 68 0 L 160 658 L 273 658 L 181 0 L 68 0 Z M 164 -214 C 116 -214 77 -205 49 -188 C 20 -170 6 -144 6 -110 C 6 -76 19 -47 46 -21 C 73 4 114 29 168 53 L 182 0 C 154 -7 135 -17 123 -29 C 111 -41 106 -55 106 -71 C 106 -86 112 -98 124 -108 C 136 -117 154 -122 177 -122 L 164 -214 Z" unicode="Į" />
<glyph horiz-adv-x="228" d="M 139 597 L 155 705 L 266 705 L 251 597 L 139 597 Z M 66 0 C 66 22 67 44 69 66 C 71 88 73 109 76 131 L 123 468 L 232 468 L 185 131 C 182 111 180 89 178 66 C 176 42 175 20 176 0 L 66 0 Z" unicode="į" />
<glyph horiz-adv-x="249" d="M 68 0 L 160 658 L 273 658 L 181 0 L 68 0 Z M 174 711 L 188 811 L 288 811 L 274 711 L 174 711 Z" unicode="İ" />
<glyph horiz-adv-x="226" d="M 65 0 C 65 21 65 43 67 65 C 69 87 71 109 74 131 L 121 468 L 231 468 L 184 131 C 181 111 178 89 176 65 C 174 41 173 20 174 0 L 65 0 Z" unicode="ı" />
<glyph horiz-adv-x="257" d="M -42 -211 L -50 -211 L -36 -107 L -28 -107 C 0 -107 21 -100 39 -87 C 57 -73 68 -50 73 -16 L 168 658 L 281 658 L 186 -16 C 176 -85 151 -135 109 -165 C 67 -195 17 -211 -42 -211 Z M 105 711 L 212 842 L 295 842 L 365 711 L 283 711 L 245 776 L 189 711 L 105 711 Z" unicode="Ĵ" />
<glyph horiz-adv-x="225" d="M -48 -211 L -56 -211 L -43 -111 L -35 -111 C -8 -111 13 -103 29 -88 C 45 -72 55 -50 59 -22 L 128 468 L 236 468 L 168 -22 C 159 -83 136 -130 99 -162 C 62 -194 13 -211 -48 -211 Z M 48 524 L 164 666 L 256 666 L 332 524 L 240 524 L 200 595 L 141 524 L 48 524 Z" unicode="ĵ" />
<glyph horiz-adv-x="610" d="M 68 0 L 160 658 L 273 658 L 231 359 L 535 658 L 674 658 L 343 336 L 594 0 L 455 0 L 225 314 L 181 0 L 68 0 Z M 282 -238 L 212 -210 C 226 -189 237 -170 244 -152 C 250 -134 255 -113 259 -90 L 265 -48 L 353 -48 L 347 -90 C 342 -122 335 -149 325 -171 C 315 -193 301 -215 282 -238 Z" unicode="Ķ" />
<glyph horiz-adv-x="488" d="M 52 0 L 154 718 L 263 718 L 200 271 C 240 301 277 333 311 366 C 345 399 375 433 402 469 L 526 468 C 494 422 460 381 424 344 C 388 306 351 272 313 242 L 474 0 L 347 0 L 195 239 L 162 0 L 52 0 Z M 219 -257 L 142 -225 C 157 -203 168 -182 176 -162 C 184 -142 189 -120 193 -95 L 199 -50 L 296 -50 L 290 -95 C 284 -130 276 -160 266 -184 C 256 -208 240 -232 219 -257 Z" unicode="ķ" />
<glyph horiz-adv-x="466" d="M 68 0 L 160 658 L 273 658 L 196 105 L 459 105 L 443 0 L 68 0 Z M 172 711 L 286 843 L 404 843 L 278 711 L 172 711 Z" unicode="Ĺ" />
<glyph horiz-adv-x="223" d="M 64 0 C 63 22 63 44 65 68 C 66 91 68 113 71 135 L 154 718 L 263 718 L 181 133 C 178 111 176 89 174 67 C 172 45 172 22 173 0 L 64 0 Z M 117 763 L 241 907 L 367 907 L 231 763 L 117 763 Z" unicode="ĺ" />
<glyph horiz-adv-x="467" d="M 68 0 L 160 658 L 273 658 L 196 105 L 459 105 L 443 0 L 68 0 Z M 240 -238 L 170 -210 C 184 -189 195 -170 202 -152 C 208 -134 213 -113 217 -90 L 223 -48 L 311 -48 L 305 -90 C 300 -122 293 -149 283 -171 C 273 -193 259 -215 240 -238 Z" unicode="Ļ" />
<glyph horiz-adv-x="229" d="M 64 0 C 63 22 63 44 65 68 C 66 91 68 113 71 135 L 154 718 L 263 718 L 181 133 C 178 111 176 89 174 67 C 172 45 172 22 173 0 L 64 0 Z M 82 -257 L 5 -225 C 20 -203 31 -182 39 -162 C 47 -142 52 -120 56 -95 L 62 -50 L 159 -50 L 153 -95 C 147 -130 139 -160 129 -184 C 119 -208 103 -232 82 -257 Z" unicode="ļ" />
<glyph horiz-adv-x="466" d="M 68 0 L 160 658 L 273 658 L 196 105 L 459 105 L 443 0 L 68 0 Z M 423 451 L 347 483 C 363 505 374 526 382 545 C 390 564 395 587 398 613 L 405 658 L 501 658 L 495 613 C 490 577 482 547 472 523 C 461 499 445 475 423 451 Z" unicode="Ľ" />
<glyph horiz-adv-x="394" d="M 64 0 C 63 22 63 44 65 68 C 66 91 68 113 71 135 L 154 718 L 263 718 L 181 133 C 178 111 176 89 174 67 C 172 45 172 22 173 0 L 64 0 Z M 373 511 L 295 543 C 311 565 322 585 330 605 C 337 625 343 647 347 673 L 353 718 L 450 718 L 443 673 C 438 637 430 608 420 584 C 410 560 394 535 373 511 Z" unicode="ľ" />
<glyph horiz-adv-x="466" d="M 68 0 L 160 658 L 273 658 L 196 105 L 459 105 L 443 0 L 68 0 Z M 365 309 L 381 417 L 489 417 L 474 309 L 365 309 Z" unicode="Ŀ" />
<glyph horiz-adv-x="345" d="M 64 0 C 63 22 63 44 65 68 C 66 91 68 113 71 135 L 154 718 L 263 718 L 181 133 C 178 111 176 89 174 67 C 172 45 172 22 173 0 L 64 0 Z M 267 305 L 283 413 L 391 413 L 376 305 L 267 305 Z" unicode="ŀ" />
<glyph horiz-adv-x="467" d="M 48 277 L 62 377 L 332 449 L 318 349 L 48 277 Z M 68 0 L 160 658 L 273 658 L 196 105 L 459 105 L 443 0 L 68 0 Z" unicode="Ł" />
<glyph horiz-adv-x="223" d="M 47 289 L 61 386 L 293 446 L 279 349 L 47 289 Z M 64 0 C 63 22 63 44 65 68 C 66 91 68 113 71 135 L 154 718 L 263 718 L 181 133 C 178 111 176 89 174 67 C 172 45 172 22 173 0 L 64 0 Z" unicode="ł" />
<glyph horiz-adv-x="711" d="M 68 0 L 160 658 L 275 658 L 522 236 L 560 163 L 569 236 L 628 658 L 734 658 L 642 0 L 529 0 L 280 426 L 243 495 L 235 426 L 175 0 L 68 0 Z M 392 711 L 506 843 L 624 843 L 498 711 L 392 711 Z" unicode="Ń" />
<glyph horiz-adv-x="512" d="M 60 0 L 109 345 C 111 367 113 389 115 409 C 117 429 118 449 118 468 L 227 468 C 227 457 226 445 226 433 C 225 420 224 409 224 400 L 222 373 C 239 409 261 435 288 452 C 315 469 343 478 372 478 C 418 478 453 462 478 430 C 503 398 511 357 502 307 L 471 133 C 467 111 464 89 463 67 C 462 45 462 22 462 0 L 352 0 C 352 22 352 44 353 67 C 354 90 357 112 361 133 L 389 274 C 395 306 392 332 379 351 C 365 369 347 379 323 379 C 295 379 268 361 244 327 C 220 292 202 232 190 147 L 170 0 L 60 0 Z M 264 524 L 388 668 L 514 668 L 378 524 L 264 524 Z" unicode="ń" />
<glyph horiz-adv-x="711" d="M 68 0 L 160 658 L 275 658 L 522 236 L 560 163 L 569 236 L 628 658 L 734 658 L 642 0 L 529 0 L 280 426 L 243 495 L 235 426 L 175 0 L 68 0 Z M 337 -238 L 267 -210 C 281 -189 292 -170 299 -152 C 305 -134 310 -113 314 -90 L 320 -48 L 408 -48 L 402 -90 C 397 -122 390 -149 380 -171 C 370 -193 356 -215 337 -238 Z" unicode="Ņ" />
<glyph horiz-adv-x="512" d="M 60 0 L 109 345 C 111 367 113 389 115 409 C 117 429 118 449 118 468 L 227 468 C 227 457 226 445 226 433 C 225 420 224 409 224 400 L 222 373 C 239 409 261 435 288 452 C 315 469 343 478 372 478 C 418 478 453 462 478 430 C 503 398 511 357 502 307 L 471 133 C 467 111 464 89 463 67 C 462 45 462 22 462 0 L 352 0 C 352 22 352 44 353 67 C 354 90 357 112 361 133 L 389 274 C 395 306 392 332 379 351 C 365 369 347 379 323 379 C 295 379 268 361 244 327 C 220 292 202 232 190 147 L 170 0 L 60 0 Z M 230 -257 L 153 -225 C 168 -203 179 -182 187 -162 C 195 -142 200 -120 204 -95 L 210 -50 L 307 -50 L 301 -95 C 295 -130 287 -160 277 -184 C 267 -208 251 -232 230 -257 Z" unicode="ņ" />
<glyph horiz-adv-x="711" d="M 68 0 L 160 658 L 275 658 L 522 236 L 560 163 L 569 236 L 628 658 L 734 658 L 642 0 L 529 0 L 280 426 L 243 495 L 235 426 L 175 0 L 68 0 Z M 408 708 L 338 839 L 421 839 L 458 773 L 514 839 L 598 839 L 492 708 L 408 708 Z" unicode="Ň" />
<glyph horiz-adv-x="512" d="M 60 0 L 109 345 C 111 367 113 389 115 409 C 117 429 118 449 118 468 L 227 468 C 227 457 226 445 226 433 C 225 420 224 409 224 400 L 222 373 C 239 409 261 435 288 452 C 315 469 343 478 372 478 C 418 478 453 462 478 430 C 503 398 511 357 502 307 L 471 133 C 467 111 464 89 463 67 C 462 45 462 22 462 0 L 352 0 C 352 22 352 44 353 67 C 354 90 357 112 361 133 L 389 274 C 395 306 392 332 379 351 C 365 369 347 379 323 379 C 295 379 268 361 244 327 C 220 292 202 232 190 147 L 170 0 L 60 0 Z M 282 524 L 206 666 L 297 666 L 337 595 L 397 666 L 489 666 L 374 524 L 282 524 Z" unicode="ň" />
<glyph horiz-adv-x="714" d="M 68 0 L 160 658 L 274 658 L 527 237 L 561 171 L 569 237 L 628 658 L 734 658 L 640 -36 C 632 -94 608 -138 570 -168 C 531 -198 480 -213 416 -213 L 408 -213 L 421 -113 L 430 -113 C 457 -113 480 -105 498 -91 C 516 -77 528 -58 532 -36 L 537 0 L 280 426 L 243 495 L 235 426 L 175 0 L 68 0 Z" unicode="Ŋ" />
<glyph horiz-adv-x="512" d="M 240 -213 L 232 -213 L 246 -113 L 254 -113 C 279 -113 300 -105 317 -89 C 334 -73 345 -51 349 -24 L 391 275 C 395 307 391 332 379 350 C 366 367 347 376 323 376 C 299 376 275 362 249 334 C 223 306 203 243 190 147 L 169 0 L 60 0 L 108 345 C 111 367 113 389 115 409 C 117 429 118 449 118 468 L 227 468 C 227 457 226 446 226 434 C 225 422 224 410 224 400 L 221 373 C 239 409 261 435 289 452 C 317 469 345 478 374 478 C 419 478 454 462 479 432 C 503 401 512 360 505 309 L 458 -27 C 449 -87 426 -133 389 -165 C 351 -197 302 -213 240 -213 Z" unicode="ŋ" />
<glyph horiz-adv-x="772" d="M 404 -15 C 312 -15 237 12 179 68 C 121 123 92 196 92 288 C 92 398 126 489 194 563 C 262 636 350 673 459 673 C 550 673 625 645 684 589 C 742 533 772 459 772 367 C 772 258 737 167 669 94 C 601 21 512 -15 404 -15 Z M 407 90 C 480 90 540 115 587 167 C 633 218 657 283 657 363 C 657 421 639 469 603 509 C 567 548 518 568 457 568 C 383 568 322 542 276 491 C 230 440 207 375 207 295 C 207 237 224 188 260 149 C 296 109 345 90 407 90 Z M 366 719 L 376 797 L 603 797 L 592 719 L 366 719 Z" unicode="Ō" />
<glyph horiz-adv-x="535" d="M 284 -11 C 218 -11 165 8 126 46 C 86 84 67 136 67 201 C 67 280 91 346 139 399 C 187 452 248 479 321 479 C 386 479 438 459 477 421 C 516 383 536 331 536 267 C 536 187 511 121 463 68 C 415 15 355 -11 284 -11 Z M 288 86 C 327 86 360 102 387 136 C 413 169 427 211 427 261 C 427 297 416 326 395 348 C 374 370 347 382 315 382 C 275 382 241 365 215 332 C 189 298 176 257 176 207 C 176 171 186 141 207 119 C 228 97 255 86 288 86 Z M 218 532 L 230 619 L 476 619 L 464 532 L 218 532 Z" unicode="ō" />
<glyph horiz-adv-x="772" d="M 404 -15 C 312 -15 237 12 179 68 C 121 123 92 196 92 288 C 92 398 126 489 194 563 C 262 636 350 673 459 673 C 550 673 625 645 684 589 C 742 533 772 459 772 367 C 772 258 737 167 669 94 C 601 21 512 -15 404 -15 Z M 407 90 C 480 90 540 115 587 167 C 633 218 657 283 657 363 C 657 421 639 469 603 509 C 567 548 518 568 457 568 C 383 568 322 542 276 491 C 230 440 207 375 207 295 C 207 237 224 188 260 149 C 296 109 345 90 407 90 Z M 477 710 C 438 710 409 722 390 746 C 370 770 363 801 368 839 L 433 839 C 431 820 435 805 443 795 C 451 784 464 779 481 779 C 496 779 509 784 520 795 C 530 805 536 820 538 839 L 604 839 C 599 799 585 767 561 744 C 537 721 509 710 477 710 Z" unicode="Ŏ" />
<glyph horiz-adv-x="535" d="M 284 -11 C 218 -11 165 8 126 46 C 86 84 67 136 67 201 C 67 280 91 346 139 399 C 187 452 248 479 321 479 C 386 479 438 459 477 421 C 516 383 536 331 536 267 C 536 187 511 121 463 68 C 415 15 355 -11 284 -11 Z M 288 86 C 327 86 360 102 387 136 C 413 169 427 211 427 261 C 427 297 416 326 395 348 C 374 370 347 382 315 382 C 275 382 241 365 215 332 C 189 298 176 257 176 207 C 176 171 186 141 207 119 C 228 97 255 86 288 86 Z M 343 516 C 301 516 269 528 248 554 C 227 580 219 614 224 656 L 296 656 C 294 636 298 620 307 609 C 315 597 329 592 347 592 C 363 592 377 597 388 609 C 399 620 406 636 408 656 L 480 656 C 474 612 459 577 434 553 C 408 528 378 516 343 516 Z" unicode="ŏ" />
<glyph horiz-adv-x="772" d="M 404 -15 C 312 -15 237 12 179 68 C 121 123 92 196 92 288 C 92 398 126 489 194 563 C 262 636 350 673 459 673 C 550 673 625 645 684 589 C 742 533 772 459 772 367 C 772 258 737 167 669 94 C 601 21 512 -15 404 -15 Z M 407 90 C 480 90 540 115 587 167 C 633 218 657 283 657 363 C 657 421 639 469 603 509 C 567 548 518 568 457 568 C 383 568 322 542 276 491 C 230 440 207 375 207 295 C 207 237 224 188 260 149 C 296 109 345 90 407 90 Z M 357 719 L 457 853 L 549 853 L 442 719 L 357 719 Z M 504 719 L 611 853 L 704 853 L 589 719 L 504 719 Z" unicode="Ő" />
<glyph horiz-adv-x="535" d="M 284 -11 C 218 -11 165 8 126 46 C 86 84 67 136 67 201 C 67 280 91 346 139 399 C 187 452 248 479 321 479 C 386 479 438 459 477 421 C 516 383 536 331 536 267 C 536 187 511 121 463 68 C 415 15 355 -11 284 -11 Z M 288 86 C 327 86 360 102 387 136 C 413 169 427 211 427 261 C 427 297 416 326 395 348 C 374 370 347 382 315 382 C 275 382 241 365 215 332 C 189 298 176 257 176 207 C 176 171 186 141 207 119 C 228 97 255 86 288 86 Z M 210 523 L 318 669 L 420 669 L 303 523 L 210 523 Z M 370 523 L 486 669 L 588 669 L 463 523 L 370 523 Z" unicode="ő" />
<glyph horiz-adv-x="904" d="M 411 0 C 308 0 229 28 175 85 C 120 142 93 212 93 296 C 93 405 129 493 203 559 C 276 625 377 658 505 658 L 926 658 L 910 553 L 645 553 L 621 386 L 878 386 L 863 280 L 607 280 L 582 105 L 860 105 L 845 0 L 411 0 Z M 415 105 L 470 105 L 533 553 L 475 553 C 393 553 328 530 280 484 C 232 438 208 378 208 303 C 208 244 226 196 264 160 C 301 123 351 105 415 105 Z" unicode="Œ" />
<glyph horiz-adv-x="825" d="M 277 -11 C 211 -11 159 8 122 46 C 85 84 67 136 67 201 C 67 280 90 346 137 399 C 183 452 243 479 315 479 C 353 479 387 471 416 456 C 444 440 467 420 484 394 C 506 419 532 439 563 455 C 594 470 628 478 664 478 C 711 478 750 465 781 440 C 811 414 827 382 827 343 C 827 293 807 256 767 231 C 727 206 664 191 576 187 L 518 183 C 520 151 532 127 554 110 C 575 92 604 84 641 84 C 669 84 697 88 724 97 C 750 105 776 118 801 136 L 786 30 C 761 16 735 6 709 0 C 683 -6 655 -10 627 -10 C 586 -10 551 -2 522 13 C 492 29 469 49 452 74 C 431 48 406 27 376 12 C 346 -3 313 -11 277 -11 Z M 652 387 C 620 387 592 375 568 351 C 544 327 530 298 524 262 L 585 265 C 629 267 661 275 683 287 C 704 299 715 317 715 340 C 715 354 709 365 698 374 C 686 382 671 387 652 387 Z M 283 86 C 322 86 354 102 379 136 C 403 169 416 211 416 261 C 416 297 406 326 387 348 C 367 370 341 382 309 382 C 269 382 236 365 212 332 C 188 298 176 257 176 207 C 176 171 185 141 204 119 C 223 97 249 86 283 86 Z" unicode="œ" />
<glyph horiz-adv-x="547" d="M 68 0 L 161 658 L 349 658 C 409 658 456 643 490 615 C 523 587 540 547 540 497 C 540 450 526 410 498 378 C 470 345 432 323 384 313 C 408 306 427 295 442 279 C 457 263 468 243 474 219 L 531 0 L 415 0 L 365 196 C 359 220 348 239 334 252 C 319 264 301 271 279 271 L 219 271 L 181 0 L 68 0 Z M 233 366 L 308 366 C 340 366 367 376 387 397 C 407 418 418 444 418 475 C 418 500 410 520 395 535 C 380 549 360 557 334 557 L 259 557 L 233 366 Z M 284 711 L 398 843 L 516 843 L 390 711 L 284 711 Z" unicode="Ŕ" />
<glyph horiz-adv-x="351" d="M 60 0 L 109 345 C 111 367 113 388 115 408 C 117 428 118 448 118 468 L 227 468 C 227 458 226 447 226 435 C 226 423 225 410 225 398 L 223 373 C 237 409 255 435 276 452 C 296 469 319 478 344 478 C 352 478 361 477 371 475 C 381 473 391 470 400 468 L 383 347 C 373 352 363 356 352 359 C 340 362 330 364 320 364 C 294 364 269 350 245 324 C 221 297 202 238 190 147 L 170 0 L 60 0 Z M 197 524 L 321 668 L 447 668 L 311 524 L 197 524 Z" unicode="ŕ" />
<glyph horiz-adv-x="547" d="M 68 0 L 161 658 L 349 658 C 409 658 456 643 490 615 C 523 587 540 547 540 497 C 540 450 526 410 498 378 C 470 345 432 323 384 313 C 408 306 427 295 442 279 C 457 263 468 243 474 219 L 531 0 L 415 0 L 365 196 C 359 220 348 239 334 252 C 319 264 301 271 279 271 L 219 271 L 181 0 L 68 0 Z M 233 366 L 308 366 C 340 366 367 376 387 397 C 407 418 418 444 418 475 C 418 500 410 520 395 535 C 380 549 360 557 334 557 L 259 557 L 233 366 Z M 265 -238 L 195 -210 C 209 -189 220 -170 227 -152 C 233 -134 238 -113 242 -90 L 248 -48 L 336 -48 L 330 -90 C 325 -122 318 -149 308 -171 C 298 -193 284 -215 265 -238 Z" unicode="Ŗ" />
<glyph horiz-adv-x="351" d="M 60 0 L 109 345 C 111 367 113 388 115 408 C 117 428 118 448 118 468 L 227 468 C 227 458 226 447 226 435 C 226 423 225 410 225 398 L 223 373 C 237 409 255 435 276 452 C 296 469 319 478 344 478 C 352 478 361 477 371 475 C 381 473 391 470 400 468 L 383 347 C 373 352 363 356 352 359 C 340 362 330 364 320 364 C 294 364 269 350 245 324 C 221 297 202 238 190 147 L 170 0 L 60 0 Z M 81 -257 L 4 -225 C 19 -203 30 -182 38 -162 C 46 -142 51 -120 55 -95 L 61 -50 L 158 -50 L 152 -95 C 146 -130 138 -160 128 -184 C 118 -208 102 -232 81 -257 Z" unicode="ŗ" />
<glyph horiz-adv-x="547" d="M 68 0 L 161 658 L 349 658 C 409 658 456 643 490 615 C 523 587 540 547 540 497 C 540 450 526 410 498 378 C 470 345 432 323 384 313 C 408 306 427 295 442 279 C 457 263 468 243 474 219 L 531 0 L 415 0 L 365 196 C 359 220 348 239 334 252 C 319 264 301 271 279 271 L 219 271 L 181 0 L 68 0 Z M 233 366 L 308 366 C 340 366 367 376 387 397 C 407 418 418 444 418 475 C 418 500 410 520 395 535 C 380 549 360 557 334 557 L 259 557 L 233 366 Z M 300 708 L 230 839 L 313 839 L 350 773 L 406 839 L 490 839 L 384 708 L 300 708 Z" unicode="Ř" />
<glyph horiz-adv-x="351" d="M 60 0 L 109 345 C 111 367 113 388 115 408 C 117 428 118 448 118 468 L 227 468 C 227 458 226 447 226 435 C 226 423 225 410 225 398 L 223 373 C 237 409 255 435 276 452 C 296 469 319 478 344 478 C 352 478 361 477 371 475 C 381 473 391 470 400 468 L 383 347 C 373 352 363 356 352 359 C 340 362 330 364 320 364 C 294 364 269 350 245 324 C 221 297 202 238 190 147 L 170 0 L 60 0 Z M 215 524 L 139 666 L 230 666 L 270 595 L 330 666 L 422 666 L 307 524 L 215 524 Z" unicode="ř" />
<glyph horiz-adv-x="510" d="M 246 -15 C 212 -15 179 -11 148 -4 C 116 3 87 15 61 31 L 77 148 C 101 128 128 114 158 104 C 188 94 219 90 252 90 C 286 90 314 98 336 115 C 358 131 370 155 370 185 C 370 206 362 225 347 241 C 332 257 308 272 274 286 L 261 291 C 212 309 176 333 153 362 C 129 391 118 425 118 465 C 118 523 138 572 180 612 C 222 652 276 673 343 673 C 374 673 405 669 435 662 C 465 654 493 643 521 629 L 504 511 C 478 530 452 544 425 554 C 397 563 369 568 341 568 C 308 568 282 560 263 544 C 244 528 235 506 235 480 C 235 460 243 443 259 428 C 275 412 300 398 336 384 L 349 379 C 396 360 431 336 454 306 C 476 276 488 242 488 203 C 488 140 465 88 419 47 C 373 5 315 -15 246 -15 Z M 295 719 L 409 851 L 527 851 L 401 719 L 295 719 Z" unicode="Ś" />
<glyph horiz-adv-x="406" d="M 193 -10 C 171 -10 146 -7 120 -1 C 94 4 70 11 49 21 L 63 117 C 81 105 103 95 128 88 C 152 81 176 78 199 78 C 221 78 240 83 254 91 C 268 99 276 113 276 131 C 276 144 270 155 259 164 C 247 172 230 181 208 189 L 195 193 C 159 205 132 222 114 245 C 96 268 87 297 87 331 C 87 375 103 410 135 437 C 167 464 211 478 267 478 C 287 478 310 475 337 471 C 363 466 387 459 408 451 L 395 356 C 377 366 357 375 333 381 C 309 387 286 390 266 390 C 245 390 228 386 216 378 C 203 370 197 358 197 342 C 197 329 201 318 211 309 C 220 300 235 292 256 285 L 269 281 C 308 267 337 249 357 227 C 376 205 386 178 386 147 C 386 100 368 62 334 33 C 300 4 253 -10 193 -10 Z M 210 524 L 334 668 L 460 668 L 324 524 L 210 524 Z" unicode="ś" />
<glyph horiz-adv-x="510" d="M 246 -15 C 212 -15 179 -11 148 -4 C 116 3 87 15 61 31 L 77 148 C 101 128 128 114 158 104 C 188 94 219 90 252 90 C 286 90 314 98 336 115 C 358 131 370 155 370 185 C 370 206 362 225 347 241 C 332 257 308 272 274 286 L 261 291 C 212 309 176 333 153 362 C 129 391 118 425 118 465 C 118 523 138 572 180 612 C 222 652 276 673 343 673 C 374 673 405 669 435 662 C 465 654 493 643 521 629 L 504 511 C 478 530 452 544 425 554 C 397 563 369 568 341 568 C 308 568 282 560 263 544 C 244 528 235 506 235 480 C 235 460 243 443 259 428 C 275 412 300 398 336 384 L 349 379 C 396 360 431 336 454 306 C 476 276 488 242 488 203 C 488 140 465 88 419 47 C 373 5 315 -15 246 -15 Z M 222 719 L 329 850 L 412 850 L 482 719 L 400 719 L 362 784 L 306 719 L 222 719 Z" unicode="Ŝ" />
<glyph horiz-adv-x="406" d="M 193 -10 C 171 -10 146 -7 120 -1 C 94 4 70 11 49 21 L 63 117 C 81 105 103 95 128 88 C 152 81 176 78 199 78 C 221 78 240 83 254 91 C 268 99 276 113 276 131 C 276 144 270 155 259 164 C 247 172 230 181 208 189 L 195 193 C 159 205 132 222 114 245 C 96 268 87 297 87 331 C 87 375 103 410 135 437 C 167 464 211 478 267 478 C 287 478 310 475 337 471 C 363 466 387 459 408 451 L 395 356 C 377 366 357 375 333 381 C 309 387 286 390 266 390 C 245 390 228 386 216 378 C 203 370 197 358 197 342 C 197 329 201 318 211 309 C 220 300 235 292 256 285 L 269 281 C 308 267 337 249 357 227 C 376 205 386 178 386 147 C 386 100 368 62 334 33 C 300 4 253 -10 193 -10 Z M 132 524 L 248 666 L 340 666 L 416 524 L 324 524 L 284 595 L 225 524 L 132 524 Z" unicode="ŝ" />
<glyph horiz-adv-x="510" d="M 246 -15 C 212 -15 179 -11 148 -4 C 116 3 87 15 61 31 L 77 148 C 101 128 128 114 158 104 C 188 94 219 90 252 90 C 286 90 314 98 336 115 C 358 131 370 155 370 185 C 370 206 362 225 347 241 C 332 257 308 272 274 286 L 261 291 C 212 309 176 333 153 362 C 129 391 118 425 118 465 C 118 523 138 572 180 612 C 222 652 276 673 343 673 C 374 673 405 669 435 662 C 465 654 493 643 521 629 L 504 511 C 478 530 452 544 425 554 C 397 563 369 568 341 568 C 308 568 282 560 263 544 C 244 528 235 506 235 480 C 235 460 243 443 259 428 C 275 412 300 398 336 384 L 349 379 C 396 360 431 336 454 306 C 476 276 488 242 488 203 C 488 140 465 88 419 47 C 373 5 315 -15 246 -15 Z M 245 -218 C 234 -218 223 -216 212 -214 C 201 -212 191 -208 182 -204 L 190 -146 C 198 -150 206 -154 215 -157 C 223 -160 232 -162 241 -162 C 251 -162 260 -159 267 -153 C 273 -147 277 -139 277 -130 C 277 -122 273 -115 267 -110 C 261 -104 253 -102 244 -102 L 235 -102 L 242 -48 L 252 -48 C 279 -48 301 -55 317 -69 C 333 -83 342 -102 342 -126 C 342 -152 332 -174 313 -192 C 294 -209 271 -218 245 -218 Z" unicode="Ş" />
<glyph horiz-adv-x="406" d="M 193 -10 C 171 -10 146 -7 120 -1 C 94 4 70 11 49 21 L 63 117 C 81 105 103 95 128 88 C 152 81 176 78 199 78 C 221 78 240 83 254 91 C 268 99 276 113 276 131 C 276 144 270 155 259 164 C 247 172 230 181 208 189 L 195 193 C 159 205 132 222 114 245 C 96 268 87 297 87 331 C 87 375 103 410 135 437 C 167 464 211 478 267 478 C 287 478 310 475 337 471 C 363 466 387 459 408 451 L 395 356 C 377 366 357 375 333 381 C 309 387 286 390 266 390 C 245 390 228 386 216 378 C 203 370 197 358 197 342 C 197 329 201 318 211 309 C 220 300 235 292 256 285 L 269 281 C 308 267 337 249 357 227 C 376 205 386 178 386 147 C 386 100 368 62 334 33 C 300 4 253 -10 193 -10 Z M 183 -227 C 171 -227 159 -225 148 -223 C 136 -220 126 -216 116 -212 L 125 -149 C 133 -154 142 -158 151 -161 C 160 -163 170 -165 180 -165 C 190 -165 199 -162 207 -156 C 214 -150 218 -141 218 -131 C 218 -122 214 -115 208 -110 C 202 -104 194 -102 184 -102 L 178 -102 L 186 -42 L 192 -42 C 222 -42 245 -49 263 -65 C 281 -81 290 -102 290 -128 C 290 -156 280 -180 260 -199 C 240 -217 214 -227 183 -227 Z" unicode="ş" />
<glyph horiz-adv-x="510" d="M 246 -15 C 212 -15 179 -11 148 -4 C 116 3 87 15 61 31 L 77 148 C 101 128 128 114 158 104 C 188 94 219 90 252 90 C 286 90 314 98 336 115 C 358 131 370 155 370 185 C 370 206 362 225 347 241 C 332 257 308 272 274 286 L 261 291 C 212 309 176 333 153 362 C 129 391 118 425 118 465 C 118 523 138 572 180 612 C 222 652 276 673 343 673 C 374 673 405 669 435 662 C 465 654 493 643 521 629 L 504 511 C 478 530 452 544 425 554 C 397 563 369 568 341 568 C 308 568 282 560 263 544 C 244 528 235 506 235 480 C 235 460 243 443 259 428 C 275 412 300 398 336 384 L 349 379 C 396 360 431 336 454 306 C 476 276 488 242 488 203 C 488 140 465 88 419 47 C 373 5 315 -15 246 -15 Z M 311 716 L 241 847 L 324 847 L 361 781 L 417 847 L 501 847 L 395 716 L 311 716 Z" unicode="Š" />
<glyph horiz-adv-x="406" d="M 193 -10 C 171 -10 146 -7 120 -1 C 94 4 70 11 49 21 L 63 117 C 81 105 103 95 128 88 C 152 81 176 78 199 78 C 221 78 240 83 254 91 C 268 99 276 113 276 131 C 276 144 270 155 259 164 C 247 172 230 181 208 189 L 195 193 C 159 205 132 222 114 245 C 96 268 87 297 87 331 C 87 375 103 410 135 437 C 167 464 211 478 267 478 C 287 478 310 475 337 471 C 363 466 387 459 408 451 L 395 356 C 377 366 357 375 333 381 C 309 387 286 390 266 390 C 245 390 228 386 216 378 C 203 370 197 358 197 342 C 197 329 201 318 211 309 C 220 300 235 292 256 285 L 269 281 C 308 267 337 249 357 227 C 376 205 386 178 386 147 C 386 100 368 62 334 33 C 300 4 253 -10 193 -10 Z M 228 524 L 152 666 L 243 666 L 283 595 L 343 666 L 435 666 L 320 524 L 228 524 Z" unicode="š" />
<glyph horiz-adv-x="557" d="M 222 0 L 300 553 L 98 553 L 113 658 L 629 658 L 614 553 L 412 553 L 334 0 L 222 0 Z M 267 -212 C 256 -212 245 -210 234 -208 C 223 -206 213 -202 204 -198 L 212 -140 C 220 -144 228 -148 237 -151 C 245 -154 254 -156 263 -156 C 273 -156 282 -153 289 -147 C 295 -141 299 -133 299 -124 C 299 -116 295 -109 289 -104 C 283 -98 275 -96 266 -96 L 257 -96 L 264 -42 L 274 -42 C 301 -42 323 -49 339 -63 C 355 -77 364 -96 364 -120 C 364 -146 354 -168 335 -186 C 316 -203 293 -212 267 -212 Z" unicode="Ţ" />
<glyph horiz-adv-x="317" d="M 206 -10 C 168 -10 139 2 120 27 C 100 51 94 85 101 128 L 135 370 L 71 370 L 85 468 L 149 468 L 167 601 L 277 601 L 258 468 L 354 468 L 341 370 L 244 370 L 212 142 C 209 124 211 110 217 102 C 223 94 233 90 247 90 C 257 90 266 91 275 93 C 284 95 293 99 303 104 L 289 7 C 276 1 262 -2 248 -5 C 234 -8 220 -10 206 -10 Z M 185 -233 C 173 -233 161 -231 150 -229 C 138 -226 128 -222 118 -218 L 127 -155 C 135 -160 144 -164 153 -167 C 162 -169 172 -171 182 -171 C 192 -171 201 -168 209 -162 C 216 -156 220 -147 220 -137 C 220 -128 216 -121 210 -116 C 204 -110 196 -108 186 -108 L 180 -108 L 188 -48 L 194 -48 C 224 -48 247 -55 265 -71 C 283 -87 292 -108 292 -134 C 292 -162 282 -186 262 -205 C 242 -223 216 -233 185 -233 Z" unicode="ţ" />
<glyph horiz-adv-x="557" d="M 222 0 L 300 553 L 98 553 L 113 658 L 629 658 L 614 553 L 412 553 L 334 0 L 222 0 Z M 334 708 L 264 839 L 347 839 L 384 773 L 440 839 L 524 839 L 418 708 L 334 708 Z" unicode="Ť" />
<glyph horiz-adv-x="422" d="M 206 -10 C 168 -10 139 2 120 27 C 100 51 94 85 101 128 L 135 370 L 71 370 L 85 468 L 149 468 L 167 601 L 277 601 L 258 468 L 354 468 L 341 370 L 244 370 L 212 142 C 209 124 211 110 217 102 C 223 94 233 90 247 90 C 257 90 266 91 275 93 C 284 95 293 99 303 104 L 289 7 C 276 1 262 -2 248 -5 C 234 -8 220 -10 206 -10 Z M 402 512 L 324 544 C 340 566 351 586 359 606 C 366 626 372 648 376 674 L 382 719 L 479 719 L 472 674 C 467 638 459 609 449 585 C 439 561 423 536 402 512 Z" unicode="ť" />
<glyph horiz-adv-x="557" d="M 146 287 L 159 383 L 505 383 L 492 287 L 146 287 Z M 222 0 L 300 553 L 98 553 L 113 658 L 629 658 L 614 553 L 412 553 L 334 0 L 222 0 Z" unicode="Ŧ" />
<glyph horiz-adv-x="317" d="M 62 211 L 75 301 L 293 301 L 281 211 L 62 211 Z M 206 -10 C 168 -10 139 2 120 27 C 100 51 94 85 101 128 L 135 370 L 71 370 L 85 468 L 149 468 L 167 601 L 277 601 L 258 468 L 354 468 L 341 370 L 244 370 L 212 142 C 209 124 211 110 217 102 C 223 94 233 90 247 90 C 257 90 266 91 275 93 C 284 95 293 99 303 104 L 289 7 C 276 1 262 -2 248 -5 C 234 -8 220 -10 206 -10 Z" unicode="ŧ" />
<glyph horiz-adv-x="670" d="M 355 -12 C 265 -12 197 14 151 66 C 105 118 87 183 98 261 L 154 658 L 266 658 L 210 258 C 203 208 213 168 239 138 C 265 108 304 94 358 94 C 406 94 446 109 480 139 C 513 169 533 208 540 257 L 596 658 L 702 658 L 645 254 C 633 169 600 103 548 57 C 496 11 431 -12 355 -12 Z M 352 711 L 292 711 C 297 747 308 775 325 794 C 341 812 363 822 390 822 C 402 822 413 820 423 816 C 433 812 444 806 455 798 C 463 792 471 787 477 784 C 483 780 489 779 495 779 C 503 779 511 782 518 789 C 525 795 530 805 532 818 L 593 818 C 586 780 575 752 559 733 C 543 714 521 705 495 705 C 481 705 470 707 460 711 C 450 715 440 721 430 729 C 421 735 413 740 407 744 C 401 747 395 749 389 749 C 380 749 372 745 366 739 C 359 733 354 723 352 711 Z" unicode="Ũ" />
<glyph horiz-adv-x="515" d="M 207 -11 C 161 -11 126 4 100 36 C 74 67 66 109 75 161 L 104 345 C 108 368 111 390 113 410 C 115 430 116 449 116 468 L 225 468 C 225 447 224 426 222 405 C 220 383 217 362 214 340 L 189 194 C 183 159 186 133 198 115 C 210 97 229 89 256 89 C 284 89 310 105 334 137 C 358 169 376 229 389 315 L 411 468 L 520 468 L 472 128 C 469 107 467 86 466 64 C 464 42 464 20 464 0 L 355 0 C 355 10 355 21 355 32 C 355 43 356 54 357 65 L 359 95 C 341 58 318 31 291 14 C 264 -2 236 -11 207 -11 Z M 237 524 L 170 524 C 176 564 188 594 206 615 C 224 635 247 646 277 646 C 289 646 301 644 312 640 C 323 636 335 629 347 621 C 356 614 364 609 370 605 C 376 601 383 599 390 599 C 399 599 407 602 414 610 C 421 617 426 627 429 640 L 496 640 C 489 600 477 569 459 549 C 441 529 417 519 389 519 C 375 519 362 521 351 525 C 340 529 329 535 319 544 C 310 551 302 556 296 560 C 289 563 282 565 276 565 C 266 565 257 561 250 554 C 243 546 239 536 237 524 Z" unicode="ũ" />
<glyph horiz-adv-x="670" d="M 355 -12 C 265 -12 197 14 151 66 C 105 118 87 183 98 261 L 154 658 L 266 658 L 210 258 C 203 208 213 168 239 138 C 265 108 304 94 358 94 C 406 94 446 109 480 139 C 513 169 533 208 540 257 L 596 658 L 702 658 L 645 254 C 633 169 600 103 548 57 C 496 11 431 -12 355 -12 Z M 326 711 L 336 789 L 563 789 L 552 711 L 326 711 Z" unicode="Ū" />
<glyph horiz-adv-x="515" d="M 207 -11 C 161 -11 126 4 100 36 C 74 67 66 109 75 161 L 104 345 C 108 368 111 390 113 410 C 115 430 116 449 116 468 L 225 468 C 225 447 224 426 222 405 C 220 383 217 362 214 340 L 189 194 C 183 159 186 133 198 115 C 210 97 229 89 256 89 C 284 89 310 105 334 137 C 358 169 376 229 389 315 L 411 468 L 520 468 L 472 128 C 469 107 467 86 466 64 C 464 42 464 20 464 0 L 355 0 C 355 10 355 21 355 32 C 355 43 356 54 357 65 L 359 95 C 341 58 318 31 291 14 C 264 -2 236 -11 207 -11 Z M 200 532 L 212 619 L 458 619 L 446 532 L 200 532 Z" unicode="ū" />
<glyph horiz-adv-x="670" d="M 355 -12 C 265 -12 197 14 151 66 C 105 118 87 183 98 261 L 154 658 L 266 658 L 210 258 C 203 208 213 168 239 138 C 265 108 304 94 358 94 C 406 94 446 109 480 139 C 513 169 533 208 540 257 L 596 658 L 702 658 L 645 254 C 633 169 600 103 548 57 C 496 11 431 -12 355 -12 Z M 437 702 C 398 702 369 714 350 738 C 330 762 323 793 328 831 L 393 831 C 391 812 395 797 403 787 C 411 776 424 771 441 771 C 456 771 469 776 480 787 C 490 797 496 812 498 831 L 564 831 C 559 791 545 759 521 736 C 497 713 469 702 437 702 Z" unicode="Ŭ" />
<glyph horiz-adv-x="515" d="M 207 -11 C 161 -11 126 4 100 36 C 74 67 66 109 75 161 L 104 345 C 108 368 111 390 113 410 C 115 430 116 449 116 468 L 225 468 C 225 447 224 426 222 405 C 220 383 217 362 214 340 L 189 194 C 183 159 186 133 198 115 C 210 97 229 89 256 89 C 284 89 310 105 334 137 C 358 169 376 229 389 315 L 411 468 L 520 468 L 472 128 C 469 107 467 86 466 64 C 464 42 464 20 464 0 L 355 0 C 355 10 355 21 355 32 C 355 43 356 54 357 65 L 359 95 C 341 58 318 31 291 14 C 264 -2 236 -11 207 -11 Z M 325 516 C 283 516 251 528 230 554 C 209 580 201 614 206 656 L 278 656 C 276 636 280 620 289 609 C 297 597 311 592 329 592 C 345 592 359 597 370 609 C 381 620 388 636 390 656 L 462 656 C 456 612 441 577 416 553 C 390 528 360 516 325 516 Z" unicode="ŭ" />
<glyph horiz-adv-x="670" d="M 355 -12 C 265 -12 197 14 151 66 C 105 118 87 183 98 261 L 154 658 L 266 658 L 210 258 C 203 208 213 168 239 138 C 265 108 304 94 358 94 C 406 94 446 109 480 139 C 513 169 533 208 540 257 L 596 658 L 702 658 L 645 254 C 633 169 600 103 548 57 C 496 11 431 -12 355 -12 Z M 429 607 C 402 607 381 615 365 631 C 349 647 341 667 341 691 C 341 719 350 743 370 762 C 389 781 412 791 440 791 C 466 791 487 782 503 766 C 519 750 528 730 528 706 C 528 678 519 655 501 636 C 483 616 459 607 429 607 Z M 431 661 C 443 661 452 664 460 672 C 468 680 472 690 472 702 C 472 712 468 720 462 726 C 455 732 447 736 437 736 C 426 736 417 732 409 724 C 401 716 397 706 397 696 C 397 686 400 677 407 671 C 413 664 421 661 431 661 Z" unicode="Ů" />
<glyph horiz-adv-x="515" d="M 207 -11 C 161 -11 126 4 100 36 C 74 67 66 109 75 161 L 104 345 C 108 368 111 390 113 410 C 115 430 116 449 116 468 L 225 468 C 225 447 224 426 222 405 C 220 383 217 362 214 340 L 189 194 C 183 159 186 133 198 115 C 210 97 229 89 256 89 C 284 89 310 105 334 137 C 358 169 376 229 389 315 L 411 468 L 520 468 L 472 128 C 469 107 467 86 466 64 C 464 42 464 20 464 0 L 355 0 C 355 10 355 21 355 32 C 355 43 356 54 357 65 L 359 95 C 341 58 318 31 291 14 C 264 -2 236 -11 207 -11 Z M 314 435 C 287 435 265 443 248 461 C 230 478 222 500 222 527 C 222 557 232 583 253 604 C 274 624 301 635 333 635 C 359 635 381 626 399 608 C 416 590 425 569 425 543 C 425 513 415 487 395 466 C 375 445 348 435 314 435 Z M 320 495 C 332 495 343 499 351 507 C 359 515 363 525 363 538 C 363 548 359 557 353 564 C 346 571 337 575 327 575 C 314 575 303 570 295 562 C 287 554 283 544 283 532 C 283 521 286 512 293 505 C 300 498 309 495 320 495 Z" unicode="ů" />
<glyph horiz-adv-x="670" d="M 355 -12 C 265 -12 197 14 151 66 C 105 118 87 183 98 261 L 154 658 L 266 658 L 210 258 C 203 208 213 168 239 138 C 265 108 304 94 358 94 C 406 94 446 109 480 139 C 513 169 533 208 540 257 L 596 658 L 702 658 L 645 254 C 633 169 600 103 548 57 C 496 11 431 -12 355 -12 Z M 317 711 L 417 845 L 509 845 L 402 711 L 317 711 Z M 464 711 L 571 845 L 664 845 L 549 711 L 464 711 Z" unicode="Ű" />
<glyph horiz-adv-x="515" d="M 207 -11 C 161 -11 126 4 100 36 C 74 67 66 109 75 161 L 104 345 C 108 368 111 390 113 410 C 115 430 116 449 116 468 L 225 468 C 225 447 224 426 222 405 C 220 383 217 362 214 340 L 189 194 C 183 159 186 133 198 115 C 210 97 229 89 256 89 C 284 89 310 105 334 137 C 358 169 376 229 389 315 L 411 468 L 520 468 L 472 128 C 469 107 467 86 466 64 C 464 42 464 20 464 0 L 355 0 C 355 10 355 21 355 32 C 355 43 356 54 357 65 L 359 95 C 341 58 318 31 291 14 C 264 -2 236 -11 207 -11 Z M 192 523 L 300 669 L 402 669 L 285 523 L 192 523 Z M 352 523 L 468 669 L 570 669 L 445 523 L 352 523 Z" unicode="ű" />
<glyph horiz-adv-x="670" d="M 464 -220 C 414 -220 374 -208 345 -186 C 316 -163 302 -133 302 -95 C 302 -79 304 -65 310 -51 C 315 -37 322 -24 331 -12 C 247 -10 184 15 142 63 C 100 111 85 176 97 257 L 153 658 L 265 658 L 209 254 C 202 204 211 164 235 136 C 259 108 296 94 346 94 C 397 94 440 108 476 137 C 511 165 532 204 539 253 L 595 658 L 701 658 L 643 250 C 634 187 613 135 580 94 C 547 52 506 23 458 7 C 439 0 424 -9 414 -22 C 403 -34 398 -49 398 -66 C 398 -86 404 -103 418 -115 C 432 -127 451 -133 476 -133 L 464 -220 Z" unicode="Ų" />
<glyph horiz-adv-x="515" d="M 207 -11 C 161 -11 126 4 100 36 C 74 67 66 109 75 161 L 104 345 C 108 368 111 390 113 410 C 115 430 116 449 116 468 L 225 468 C 225 447 224 426 222 405 C 220 383 217 362 214 340 L 189 194 C 183 159 186 133 198 115 C 210 97 229 89 256 89 C 284 89 310 105 334 137 C 358 169 376 229 389 315 L 411 468 L 520 468 L 472 128 C 469 107 467 86 466 64 C 464 42 464 20 464 0 L 355 0 C 355 10 355 21 355 32 C 355 43 356 54 357 65 L 359 95 C 341 58 318 31 291 14 C 264 -2 236 -11 207 -11 Z M 450 -213 C 402 -213 363 -204 335 -187 C 306 -169 292 -143 292 -109 C 292 -75 305 -46 332 -20 C 359 5 400 30 454 54 L 468 1 C 440 -6 421 -16 409 -28 C 397 -40 392 -54 392 -70 C 392 -85 398 -97 410 -107 C 422 -116 440 -121 463 -121 L 450 -213 Z" unicode="ų" />
<glyph horiz-adv-x="963" d="M 219 0 L 108 658 L 226 658 L 292 232 L 299 148 L 330 232 L 514 658 L 636 658 L 702 232 L 709 148 L 739 232 L 923 658 L 1039 658 L 744 0 L 627 0 L 563 427 L 554 515 L 521 427 L 337 0 L 219 0 Z M 443 711 L 550 842 L 633 842 L 703 711 L 621 711 L 583 776 L 527 711 L 443 711 Z" unicode="Ŵ" />
<glyph horiz-adv-x="737" d="M 155 0 L 76 468 L 185 468 L 230 195 L 237 115 C 263 169 288 226 312 285 C 336 344 360 405 383 468 L 485 468 L 532 195 L 543 116 C 570 174 596 232 620 291 C 644 350 665 409 685 468 L 789 468 C 762 387 731 307 697 228 C 662 149 624 73 582 0 L 466 0 L 425 242 L 417 320 C 395 266 372 212 348 158 C 323 104 298 51 272 0 L 155 0 Z M 296 524 L 412 666 L 504 666 L 580 524 L 488 524 L 448 595 L 389 524 L 296 524 Z" unicode="ŵ" />
<glyph horiz-adv-x="616" d="M 251 0 L 289 268 L 102 658 L 228 658 L 333 439 L 358 375 L 401 439 L 565 658 L 695 658 L 400 269 L 363 0 L 251 0 Z M 269 711 L 376 842 L 459 842 L 529 711 L 447 711 L 409 776 L 353 711 L 269 711 Z" unicode="Ŷ" />
<glyph horiz-adv-x="491" d="M -27 -213 L -34 -213 L -20 -113 L -12 -113 C 26 -113 62 -104 98 -87 C 134 -70 165 -46 192 -16 L 77 468 L 196 468 L 256 195 L 274 80 C 300 128 324 183 348 247 C 371 310 394 384 418 468 L 530 468 C 500 367 469 278 436 200 C 402 122 367 57 331 3 C 280 -71 225 -125 166 -160 C 106 -195 42 -213 -27 -213 Z M 166 524 L 282 666 L 374 666 L 450 524 L 358 524 L 318 595 L 259 524 L 166 524 Z" unicode="ŷ" />
<glyph horiz-adv-x="616" d="M 251 0 L 289 268 L 102 658 L 228 658 L 333 439 L 358 375 L 401 439 L 565 658 L 695 658 L 400 269 L 363 0 L 251 0 Z M 271 711 L 285 804 L 379 804 L 365 711 L 271 711 Z M 430 711 L 444 804 L 537 804 L 524 711 L 430 711 Z" unicode="Ÿ" />
<glyph horiz-adv-x="582" d="M 43 0 L 52 62 L 403 500 L 447 553 L 127 553 L 142 658 L 630 658 L 622 596 L 269 157 L 226 105 L 553 105 L 538 0 L 43 0 Z M 317 711 L 431 843 L 549 843 L 423 711 L 317 711 Z" unicode="Ź" />
<glyph horiz-adv-x="444" d="M 38 0 L 49 78 L 264 325 L 306 370 L 94 370 L 108 468 L 467 468 L 456 390 L 240 143 L 197 98 L 419 98 L 406 0 L 38 0 Z M 221 524 L 345 668 L 471 668 L 335 524 L 221 524 Z" unicode="ź" />
<glyph horiz-adv-x="582" d="M 43 0 L 52 62 L 403 500 L 447 553 L 127 553 L 142 658 L 630 658 L 622 596 L 269 157 L 226 105 L 553 105 L 538 0 L 43 0 Z M 324 711 L 338 811 L 438 811 L 424 711 L 324 711 Z" unicode="Ż" />
<glyph horiz-adv-x="444" d="M 38 0 L 49 78 L 264 325 L 306 370 L 94 370 L 108 468 L 467 468 L 456 390 L 240 143 L 197 98 L 419 98 L 406 0 L 38 0 Z M 232 528 L 248 638 L 357 638 L 342 528 L 232 528 Z" unicode="ż" />
<glyph horiz-adv-x="582" d="M 43 0 L 52 62 L 403 500 L 447 553 L 127 553 L 142 658 L 630 658 L 622 596 L 269 157 L 226 105 L 553 105 L 538 0 L 43 0 Z M 333 708 L 263 839 L 346 839 L 383 773 L 439 839 L 523 839 L 417 708 L 333 708 Z" unicode="Ž" />
<glyph horiz-adv-x="444" d="M 38 0 L 49 78 L 264 325 L 306 370 L 94 370 L 108 468 L 467 468 L 456 390 L 240 143 L 197 98 L 419 98 L 406 0 L 38 0 Z M 239 524 L 163 666 L 254 666 L 294 595 L 354 666 L 446 666 L 331 524 L 239 524 Z" unicode="ž" />
<glyph horiz-adv-x="427" d="M 65 -219 C 51 -219 38 -217 25 -214 C 12 -211 0 -207 -13 -203 L 1 -98 C 12 -102 24 -106 36 -109 C 48 -111 61 -113 75 -113 C 96 -113 113 -106 126 -92 C 139 -78 147 -59 150 -35 L 207 369 L 123 369 L 136 468 L 221 468 L 231 542 C 239 602 260 646 294 676 C 327 706 368 721 418 721 C 432 721 446 720 460 718 C 474 716 488 713 502 709 L 488 605 C 476 611 465 615 454 618 C 442 620 430 622 418 622 C 395 622 377 615 363 601 C 349 587 341 568 338 543 L 328 468 L 425 468 L 411 369 L 314 369 L 257 -38 C 248 -98 227 -143 195 -173 C 162 -203 119 -219 65 -219 Z" unicode="ƒ" />
<glyph horiz-adv-x="695" d="M 408 -15 C 309 -15 231 13 175 70 C 119 126 91 197 91 282 C 91 394 127 488 200 562 C 272 636 368 673 486 673 C 524 673 561 669 599 661 C 636 653 669 642 698 628 L 683 518 C 655 534 622 546 586 555 C 550 564 514 569 478 569 C 397 569 332 542 282 490 C 232 438 207 371 207 290 C 207 232 226 184 265 146 C 303 108 353 90 415 90 C 439 90 461 91 482 95 C 503 98 522 104 540 113 L 559 248 L 425 248 L 440 353 L 687 353 L 644 42 C 604 22 564 7 524 -1 C 483 -10 444 -15 408 -15 Z M 440 716 L 370 847 L 453 847 L 490 781 L 546 847 L 630 847 L 524 716 L 440 716 Z" unicode="Ǧ" />
<glyph horiz-adv-x="527" d="M 216 -222 C 188 -222 159 -219 130 -213 C 100 -207 73 -198 48 -188 L 62 -82 C 82 -94 107 -105 135 -113 C 163 -121 189 -125 214 -125 C 257 -125 291 -115 317 -95 C 342 -75 358 -41 365 5 L 377 89 C 360 53 339 27 313 12 C 287 -2 260 -10 232 -10 C 184 -10 145 6 113 40 C 81 73 66 120 66 180 C 66 264 94 335 150 392 C 206 449 274 478 356 478 C 383 478 413 474 447 468 C 480 462 510 454 537 444 L 476 19 C 464 -64 436 -125 393 -164 C 350 -202 291 -222 216 -222 Z M 264 86 C 294 86 322 101 349 132 C 376 163 395 217 406 295 L 417 370 C 405 374 393 378 380 380 C 367 382 354 383 341 383 C 295 383 256 364 224 326 C 191 288 175 244 175 192 C 175 156 183 130 199 112 C 215 94 237 86 264 86 Z M 302 524 L 226 666 L 317 666 L 357 595 L 417 666 L 509 666 L 394 524 L 302 524 Z" unicode="ǧ" />
<glyph horiz-adv-x="663" d="M 17 0 L 371 661 L 476 661 L 646 0 L 529 0 L 488 168 L 220 168 L 133 0 L 17 0 Z M 356 429 L 272 268 L 463 268 L 424 429 L 403 526 L 356 429 Z M 400 810 L 469 890 L 546 890 L 474 810 L 400 810 Z M 418 607 C 394 607 374 614 358 630 C 342 646 334 666 334 690 C 334 718 343 742 363 760 C 382 778 406 788 435 788 C 459 788 479 780 495 764 C 511 748 519 729 519 705 C 519 677 509 653 490 635 C 470 616 446 607 418 607 Z M 423 661 C 434 661 443 664 451 672 C 459 680 463 689 463 700 C 463 710 459 718 453 724 C 447 730 439 734 429 734 C 418 734 409 730 401 722 C 393 714 390 705 390 695 C 390 685 393 677 399 671 C 405 664 413 661 423 661 Z" unicode="Ǻ" />
<glyph horiz-adv-x="532" d="M 230 -10 C 182 -10 143 6 111 40 C 79 73 64 120 64 180 C 64 265 92 336 148 393 C 204 449 272 478 354 478 C 381 478 411 474 444 468 C 477 462 507 454 534 444 L 493 146 C 489 122 487 98 485 74 C 483 50 482 25 482 0 L 373 0 C 373 10 373 21 373 33 C 373 44 374 55 375 65 L 377 89 C 359 53 337 27 311 12 C 285 -2 258 -10 230 -10 Z M 262 86 C 292 86 320 101 347 132 C 374 163 393 217 404 295 L 415 370 C 403 374 390 378 378 380 C 365 382 352 383 338 383 C 293 383 254 364 222 326 C 189 288 173 244 173 192 C 173 156 181 130 197 112 C 213 94 235 86 262 86 Z M 323 646 L 398 732 L 482 732 L 404 646 L 323 646 Z M 342 425 C 316 425 294 433 277 450 C 259 467 251 489 251 515 C 251 545 261 571 282 591 C 303 611 329 622 361 622 C 387 622 409 613 426 596 C 443 578 452 557 452 531 C 452 500 441 475 421 455 C 400 435 374 425 342 425 Z M 348 484 C 360 484 371 488 379 496 C 387 504 391 514 391 527 C 391 537 387 546 381 553 C 374 559 365 563 355 563 C 343 563 332 558 324 550 C 316 542 312 532 312 520 C 312 509 315 500 322 494 C 329 487 338 484 348 484 Z" unicode="ǻ" />
<glyph horiz-adv-x="862" d="M 6 0 L 439 658 L 883 658 L 868 553 L 603 553 L 580 386 L 836 386 L 821 280 L 566 280 L 541 105 L 818 105 L 803 0 L 414 0 L 439 182 L 250 182 L 129 0 L 6 0 Z M 432 457 L 319 287 L 454 287 L 491 552 L 432 457 Z M 545 711 L 659 843 L 777 843 L 651 711 L 545 711 Z" unicode="Ǽ" />
<glyph horiz-adv-x="740" d="M 198 -10 C 148 -10 111 2 88 28 C 64 53 53 82 53 115 C 53 163 70 201 105 229 C 139 257 187 272 247 274 L 333 277 L 338 313 C 340 339 334 358 320 370 C 306 382 283 389 253 389 C 227 389 202 385 177 379 C 151 372 127 362 103 350 L 117 445 C 143 455 170 463 198 469 C 225 475 252 478 278 478 C 316 478 345 471 367 459 C 389 447 404 431 413 411 C 433 431 458 448 486 460 C 514 472 545 478 579 478 C 626 478 665 465 695 440 C 725 414 741 382 741 343 C 741 293 721 258 683 237 C 644 215 582 203 497 201 L 434 200 C 434 164 445 135 466 115 C 487 94 517 84 555 84 C 583 84 611 88 638 97 C 664 105 690 118 715 136 L 700 30 C 675 16 649 6 623 0 C 597 -6 570 -10 542 -10 C 496 -10 458 -1 428 15 C 398 32 375 55 359 84 C 341 54 318 31 290 15 C 261 -1 230 -10 198 -10 Z M 566 393 C 535 393 508 382 486 360 C 464 338 449 310 443 277 L 500 278 C 544 280 576 285 598 295 C 619 305 630 321 630 344 C 630 358 624 370 612 379 C 600 388 585 393 566 393 Z M 226 79 C 249 79 269 86 286 102 C 303 117 313 137 317 162 L 322 199 L 250 196 C 225 195 205 189 189 177 C 173 165 165 148 165 128 C 165 112 170 100 181 91 C 192 82 207 78 226 79 Z M 364 524 L 488 668 L 614 668 L 478 524 L 364 524 Z" unicode="ǽ" />
<glyph horiz-adv-x="772" d="M 125 -48 L 628 706 L 742 706 L 239 -48 L 125 -48 Z M 404 -15 C 312 -15 237 12 179 68 C 121 123 92 196 92 288 C 92 398 126 489 194 563 C 262 636 350 673 459 673 C 550 673 625 645 684 589 C 742 533 772 459 772 367 C 772 258 737 167 669 94 C 601 21 512 -15 404 -15 Z M 407 90 C 480 90 540 115 587 167 C 633 218 657 283 657 363 C 657 421 639 469 603 509 C 567 548 518 568 457 568 C 383 568 322 542 276 491 C 230 440 207 375 207 295 C 207 237 224 188 260 149 C 296 109 345 90 407 90 Z M 409 725 L 523 857 L 641 857 L 515 725 L 409 725 Z" unicode="Ǿ" />
<glyph horiz-adv-x="535" d="M 67 -48 L 441 516 L 534 516 L 160 -48 L 67 -48 Z M 284 -11 C 218 -11 165 8 126 46 C 86 84 67 136 67 201 C 67 280 91 346 139 399 C 187 452 248 479 321 479 C 386 479 438 459 477 421 C 516 383 536 331 536 267 C 536 187 511 121 463 68 C 415 15 355 -11 284 -11 Z M 288 86 C 327 86 360 102 387 136 C 413 169 427 211 427 261 C 427 297 416 326 395 348 C 374 370 347 382 315 382 C 275 382 241 365 215 332 C 189 298 176 257 176 207 C 176 171 186 141 207 119 C 228 97 255 86 288 86 Z M 248 524 L 372 668 L 498 668 L 362 524 L 248 524 Z" unicode="ǿ" />
<glyph horiz-adv-x="510" d="M 246 -15 C 212 -15 179 -11 148 -4 C 116 3 87 15 61 31 L 77 148 C 101 128 128 114 158 104 C 188 94 219 90 252 90 C 286 90 314 98 336 115 C 358 131 370 155 370 185 C 370 206 362 225 347 241 C 332 257 308 272 274 286 L 261 291 C 212 309 176 333 153 362 C 129 391 118 425 118 465 C 118 523 138 572 180 612 C 222 652 276 673 343 673 C 374 673 405 669 435 662 C 465 654 493 643 521 629 L 504 511 C 478 530 452 544 425 554 C 397 563 369 568 341 568 C 308 568 282 560 263 544 C 244 528 235 506 235 480 C 235 460 243 443 259 428 C 275 412 300 398 336 384 L 349 379 C 396 360 431 336 454 306 C 476 276 488 242 488 203 C 488 140 465 88 419 47 C 373 5 315 -15 246 -15 Z M 224 -244 L 154 -216 C 168 -195 179 -176 186 -158 C 192 -140 197 -119 201 -96 L 207 -54 L 295 -54 L 289 -96 C 284 -128 277 -155 267 -177 C 257 -199 243 -221 224 -244 Z" unicode="Ș" />
<glyph horiz-adv-x="406" d="M 193 -10 C 171 -10 146 -7 120 -1 C 94 4 70 11 49 21 L 63 117 C 81 105 103 95 128 88 C 152 81 176 78 199 78 C 221 78 240 83 254 91 C 268 99 276 113 276 131 C 276 144 270 155 259 164 C 247 172 230 181 208 189 L 195 193 C 159 205 132 222 114 245 C 96 268 87 297 87 331 C 87 375 103 410 135 437 C 167 464 211 478 267 478 C 287 478 310 475 337 471 C 363 466 387 459 408 451 L 395 356 C 377 366 357 375 333 381 C 309 387 286 390 266 390 C 245 390 228 386 216 378 C 203 370 197 358 197 342 C 197 329 201 318 211 309 C 220 300 235 292 256 285 L 269 281 C 308 267 337 249 357 227 C 376 205 386 178 386 147 C 386 100 368 62 334 33 C 300 4 253 -10 193 -10 Z M 166 -257 L 89 -225 C 104 -203 115 -182 123 -162 C 131 -142 136 -120 140 -95 L 146 -50 L 243 -50 L 237 -95 C 231 -130 223 -160 213 -184 C 203 -208 187 -232 166 -257 Z" unicode="ș" />
<glyph horiz-adv-x="557" d="M 222 0 L 300 553 L 98 553 L 113 658 L 629 658 L 614 553 L 412 553 L 334 0 L 222 0 Z M 246 -238 L 176 -210 C 190 -189 201 -170 208 -152 C 214 -134 219 -113 223 -90 L 229 -48 L 317 -48 L 311 -90 C 306 -122 299 -149 289 -171 C 279 -193 265 -215 246 -238 Z" unicode="Ț" />
<glyph horiz-adv-x="317" d="M 206 -10 C 168 -10 139 2 120 27 C 100 51 94 85 101 128 L 135 370 L 71 370 L 85 468 L 149 468 L 167 601 L 277 601 L 258 468 L 354 468 L 341 370 L 244 370 L 212 142 C 209 124 211 110 217 102 C 223 94 233 90 247 90 C 257 90 266 91 275 93 C 284 95 293 99 303 104 L 289 7 C 276 1 262 -2 248 -5 C 234 -8 220 -10 206 -10 Z M 168 -263 L 91 -231 C 106 -209 117 -188 125 -168 C 133 -148 138 -126 142 -101 L 148 -56 L 245 -56 L 239 -101 C 233 -136 225 -166 215 -190 C 205 -214 189 -238 168 -263 Z" unicode="ț" />
<glyph horiz-adv-x="225" d="M -48 -211 L -56 -211 L -43 -111 L -35 -111 C -8 -111 13 -103 29 -88 C 45 -72 55 -50 59 -22 L 128 468 L 236 468 L 168 -22 C 159 -83 136 -130 99 -162 C 62 -194 13 -211 -48 -211 Z" unicode="ȷ" />
<glyph horiz-adv-x="492" d="M 233 -10 C 184 -10 144 2 112 28 C 80 54 65 86 65 125 C 65 175 84 212 124 236 C 163 260 227 275 316 280 L 373 284 C 370 315 358 339 338 357 C 317 375 289 384 255 384 C 223 384 193 379 167 371 C 140 362 114 349 90 332 L 106 439 C 134 453 162 463 191 469 C 220 475 245 478 267 478 C 336 478 389 458 427 419 C 464 379 483 329 483 267 C 483 187 460 120 416 68 C 371 16 310 -10 233 -10 Z M 176 128 C 176 114 181 102 193 94 C 205 85 220 81 240 81 C 272 81 299 92 323 116 C 346 140 360 169 366 205 L 306 201 C 262 198 229 191 208 179 C 186 167 176 150 176 128 Z" unicode="ə" />
<glyph horiz-adv-x="313" d="M 89 524 L 205 666 L 297 666 L 373 524 L 281 524 L 241 595 L 182 524 L 89 524 Z" unicode="ˆ" />
<glyph horiz-adv-x="313" d="M 184 524 L 108 666 L 199 666 L 239 595 L 299 666 L 391 666 L 276 524 L 184 524 Z" unicode="ˇ" />
<glyph horiz-adv-x="360" d="M 258 516 C 216 516 184 528 163 554 C 142 580 134 614 139 656 L 211 656 C 209 636 213 620 222 609 C 230 597 244 592 262 592 C 278 592 292 597 303 609 C 314 620 321 636 323 656 L 395 656 C 389 612 374 577 349 553 C 323 528 293 516 258 516 Z" unicode="˘" />
<glyph horiz-adv-x="178" d="M 110 528 L 126 638 L 235 638 L 220 528 L 110 528 Z" unicode="˙" />
<glyph horiz-adv-x="221" d="M 177 435 C 150 435 128 443 111 461 C 93 478 85 500 85 527 C 85 557 95 583 116 604 C 137 624 164 635 196 635 C 222 635 244 626 262 608 C 279 590 288 569 288 543 C 288 513 278 487 258 466 C 238 445 211 435 177 435 Z M 183 495 C 195 495 206 499 214 507 C 222 515 226 525 226 538 C 226 548 222 557 216 564 C 209 571 200 575 190 575 C 177 575 166 570 158 562 C 150 554 146 544 146 532 C 146 521 149 512 156 505 C 163 498 172 495 183 495 Z" unicode="˚" />
<glyph horiz-adv-x="244" d="M 169 -220 C 122 -220 85 -209 57 -187 C 29 -165 16 -135 16 -98 C 16 -59 32 -26 64 0 C 96 26 136 40 184 41 L 192 0 C 169 0 150 -7 134 -21 C 118 -35 110 -53 110 -74 C 110 -92 116 -107 129 -117 C 142 -127 159 -133 181 -133 L 169 -220 Z" unicode="˛" />
<glyph horiz-adv-x="329" d="M 153 524 L 86 524 C 92 564 104 594 122 615 C 140 635 163 646 193 646 C 205 646 217 644 228 640 C 239 636 251 629 263 621 C 272 614 280 609 286 605 C 292 601 299 599 306 599 C 315 599 323 602 330 610 C 337 617 342 627 345 640 L 412 640 C 405 600 393 569 375 549 C 357 529 333 519 305 519 C 291 519 278 521 267 525 C 256 529 245 535 235 544 C 226 551 218 556 212 560 C 205 563 198 565 192 565 C 182 565 173 561 166 554 C 159 546 155 536 153 524 Z" unicode="˜" />
<glyph horiz-adv-x="403" d="M 101 523 L 209 669 L 311 669 L 194 523 L 101 523 Z M 261 523 L 377 669 L 479 669 L 354 523 L 261 523 Z" unicode="˝" />
<glyph horiz-adv-x="0" d="M 23 524 L -79 668 L 47 668 L 136 524 L 23 524 Z" unicode="̀" />
<glyph horiz-adv-x="0" d="M 10 524 L 134 668 L 260 668 L 124 524 L 10 524 Z" unicode="́" />
<glyph horiz-adv-x="0" d="M -68 524 L 48 666 L 140 666 L 216 524 L 124 524 L 84 595 L 25 524 L -68 524 Z" unicode="̂" />
<glyph horiz-adv-x="0" d="M -11 524 L -78 524 C -72 564 -60 594 -42 615 C -24 635 0 646 29 646 C 41 646 53 644 64 640 C 75 636 87 629 99 621 C 108 614 116 609 122 605 C 128 601 135 599 142 599 C 151 599 159 602 166 610 C 173 617 178 627 181 640 L 248 640 C 241 600 229 569 211 549 C 193 529 169 519 141 519 C 127 519 114 521 103 525 C 92 529 81 535 71 544 C 62 551 54 556 48 560 C 41 563 34 565 28 565 C 18 565 9 561 2 554 C -4 546 -9 536 -11 524 Z" unicode="̃" />
<glyph horiz-adv-x="0" d="M -48 532 L -36 619 L 210 619 L 198 532 L -48 532 Z" unicode="̄" />
<glyph horiz-adv-x="0" d="M 77 516 C 35 516 3 528 -17 554 C -38 580 -46 614 -42 656 L 30 656 C 28 636 32 620 41 609 C 49 597 63 592 81 592 C 97 592 111 597 122 609 C 133 620 140 636 142 656 L 214 656 C 208 612 193 577 168 553 C 142 528 112 516 77 516 Z" unicode="̆" />
<glyph horiz-adv-x="0" d="M 21 528 L 37 638 L 146 638 L 131 528 L 21 528 Z" unicode="̇" />
<glyph horiz-adv-x="0" d="M -63 529 L -49 632 L 54 632 L 40 529 L -63 529 Z M 110 529 L 124 632 L 227 632 L 213 529 L 110 529 Z" unicode="̈" />
<glyph horiz-adv-x="0" d="M 66 435 C 39 435 17 443 0 461 C -17 478 -26 500 -26 527 C -26 557 -15 583 5 604 C 26 624 53 635 85 635 C 111 635 133 626 151 608 C 168 590 177 569 177 543 C 177 513 167 487 147 466 C 127 445 100 435 66 435 Z M 72 495 C 84 495 95 499 103 507 C 111 515 115 525 115 538 C 115 548 111 557 105 564 C 98 571 89 575 79 575 C 66 575 55 570 47 562 C 39 554 35 544 35 532 C 35 521 38 512 45 505 C 52 498 61 495 72 495 Z" unicode="̊" />
<glyph horiz-adv-x="0" d="M -56 523 L 52 669 L 154 669 L 37 523 L -56 523 Z M 104 523 L 220 669 L 322 669 L 197 523 L 104 523 Z" unicode="̋" />
<glyph horiz-adv-x="0" d="M 28 524 L -48 666 L 43 666 L 83 595 L 143 666 L 235 666 L 120 524 L 28 524 Z" unicode="̌" />
<glyph horiz-adv-x="0" d="M 102 728 L 180 697 C 164 674 152 653 145 634 C 137 614 132 592 128 567 L 122 522 L 25 522 L 32 567 C 36 602 44 632 54 656 C 64 680 80 704 102 728 Z" unicode="̒" />
<glyph horiz-adv-x="0" d="M -34 -246 L -111 -215 C -95 -192 -83 -171 -76 -152 C -68 -132 -63 -110 -60 -85 L -53 -40 L 43 -40 L 37 -85 C 32 -120 24 -150 14 -174 C 3 -198 -12 -222 -34 -246 Z" unicode="̦" />
<glyph horiz-adv-x="0" d="M -18 -227 C -30 -227 -41 -225 -53 -223 C -64 -220 -75 -216 -85 -212 L -76 -149 C -67 -154 -58 -158 -49 -161 C -40 -163 -31 -165 -21 -165 C -10 -165 -1 -162 6 -156 C 13 -150 17 -141 17 -131 C 17 -122 13 -115 7 -110 C 1 -104 -7 -102 -17 -102 L -23 -102 L -15 -42 L -9 -42 C 21 -42 44 -49 62 -65 C 80 -81 89 -102 89 -128 C 89 -156 79 -180 59 -199 C 39 -217 13 -227 -18 -227 Z" unicode="̧" />
<glyph horiz-adv-x="0" d="M -24 -220 C -70 -220 -107 -209 -135 -187 C -163 -165 -177 -135 -177 -98 C -177 -59 -160 -26 -128 0 C -96 26 -56 40 -9 41 L -1 0 C -23 0 -43 -7 -59 -21 C -75 -35 -83 -53 -83 -74 C -83 -92 -76 -107 -63 -117 C -50 -127 -33 -133 -12 -133 L -24 -220 Z" unicode="̨" />
<glyph horiz-adv-x="650" d="M 24 0 L 354 664 L 489 664 L 627 0 L 24 0 Z M 180 102 L 487 102 L 398 539 L 180 102 Z" unicode="Δ" />
<glyph horiz-adv-x="517" d="M 112 -206 L 21 -206 L 107 345 C 110 368 113 390 115 410 C 117 430 119 449 119 468 L 228 468 C 228 447 227 426 225 405 C 223 383 220 362 217 340 L 192 194 C 185 159 188 133 200 115 C 212 97 231 89 258 89 C 286 89 313 105 337 137 C 361 169 379 229 392 315 L 413 468 L 523 468 L 475 128 C 472 107 470 86 469 64 C 467 42 467 20 467 0 L 358 0 C 358 12 358 24 358 38 C 358 51 359 64 360 77 L 362 95 C 344 58 321 31 294 14 C 267 -2 239 -11 210 -11 C 194 -11 179 -8 166 -3 C 153 2 142 9 134 18 L 112 -206 Z" unicode="μ" />
<glyph horiz-adv-x="527" d="M 97 0 L 149 369 L 83 369 L 97 468 L 562 468 L 548 369 L 482 369 L 454 168 C 449 136 446 106 445 79 C 444 51 444 25 444 0 L 333 0 C 333 27 333 53 335 79 C 337 104 340 134 345 168 L 373 369 L 259 369 L 207 0 L 97 0 Z" unicode="π" />
<glyph horiz-adv-x="963" d="M 219 0 L 108 658 L 226 658 L 292 232 L 299 148 L 330 232 L 514 658 L 636 658 L 702 232 L 709 148 L 739 232 L 923 658 L 1039 658 L 744 0 L 627 0 L 563 427 L 554 515 L 521 427 L 337 0 L 219 0 Z M 528 711 L 434 843 L 546 843 L 628 711 L 528 711 Z" unicode="Ẁ" />
<glyph horiz-adv-x="737" d="M 155 0 L 76 468 L 185 468 L 230 195 L 237 115 C 263 169 288 226 312 285 C 336 344 360 405 383 468 L 485 468 L 532 195 L 543 116 C 570 174 596 232 620 291 C 644 350 665 409 685 468 L 789 468 C 762 387 731 307 697 228 C 662 149 624 73 582 0 L 466 0 L 425 242 L 417 320 C 395 266 372 212 348 158 C 323 104 298 51 272 0 L 155 0 Z M 387 524 L 285 668 L 411 668 L 500 524 L 387 524 Z" unicode="ẁ" />
<glyph horiz-adv-x="963" d="M 219 0 L 108 658 L 226 658 L 292 232 L 299 148 L 330 232 L 514 658 L 636 658 L 702 232 L 709 148 L 739 232 L 923 658 L 1039 658 L 744 0 L 627 0 L 563 427 L 554 515 L 521 427 L 337 0 L 219 0 Z M 516 711 L 630 843 L 748 843 L 622 711 L 516 711 Z" unicode="Ẃ" />
<glyph horiz-adv-x="737" d="M 155 0 L 76 468 L 185 468 L 230 195 L 237 115 C 263 169 288 226 312 285 C 336 344 360 405 383 468 L 485 468 L 532 195 L 543 116 C 570 174 596 232 620 291 C 644 350 665 409 685 468 L 789 468 C 762 387 731 307 697 228 C 662 149 624 73 582 0 L 466 0 L 425 242 L 417 320 C 395 266 372 212 348 158 C 323 104 298 51 272 0 L 155 0 Z M 374 524 L 498 668 L 624 668 L 488 524 L 374 524 Z" unicode="ẃ" />
<glyph horiz-adv-x="963" d="M 219 0 L 108 658 L 226 658 L 292 232 L 299 148 L 330 232 L 514 658 L 636 658 L 702 232 L 709 148 L 739 232 L 923 658 L 1039 658 L 744 0 L 627 0 L 563 427 L 554 515 L 521 427 L 337 0 L 219 0 Z M 445 711 L 459 804 L 553 804 L 539 711 L 445 711 Z M 604 711 L 618 804 L 711 804 L 698 711 L 604 711 Z" unicode="Ẅ" />
<glyph horiz-adv-x="737" d="M 155 0 L 76 468 L 185 468 L 230 195 L 237 115 C 263 169 288 226 312 285 C 336 344 360 405 383 468 L 485 468 L 532 195 L 543 116 C 570 174 596 232 620 291 C 644 350 665 409 685 468 L 789 468 C 762 387 731 307 697 228 C 662 149 624 73 582 0 L 466 0 L 425 242 L 417 320 C 395 266 372 212 348 158 C 323 104 298 51 272 0 L 155 0 Z M 301 529 L 315 632 L 418 632 L 404 529 L 301 529 Z M 474 529 L 488 632 L 591 632 L 577 529 L 474 529 Z" unicode="ẅ" />
<glyph horiz-adv-x="616" d="M 251 0 L 289 268 L 102 658 L 228 658 L 333 439 L 358 375 L 401 439 L 565 658 L 695 658 L 400 269 L 363 0 L 251 0 Z M 354 711 L 260 843 L 372 843 L 454 711 L 354 711 Z" unicode="Ỳ" />
<glyph horiz-adv-x="491" d="M -27 -213 L -34 -213 L -20 -113 L -12 -113 C 26 -113 62 -104 98 -87 C 134 -70 165 -46 192 -16 L 77 468 L 196 468 L 256 195 L 274 80 C 300 128 324 183 348 247 C 371 310 394 384 418 468 L 530 468 C 500 367 469 278 436 200 C 402 122 367 57 331 3 C 280 -71 225 -125 166 -160 C 106 -195 42 -213 -27 -213 Z M 257 524 L 155 668 L 281 668 L 370 524 L 257 524 Z" unicode="ỳ" />
<glyph horiz-adv-x="500" d="" unicode=" " />
<glyph horiz-adv-x="1000" d="" unicode=" " />
<glyph horiz-adv-x="650" d="" unicode=" " />
<glyph horiz-adv-x="0" d="" unicode=" " />
<glyph horiz-adv-x="650" d="M 154 250 L 167 345 L 580 345 L 566 250 L 154 250 Z" unicode="‒" />
<glyph horiz-adv-x="511" d="M 77 194 L 90 289 L 503 289 L 489 194 L 77 194 Z" unicode="–" />
<glyph horiz-adv-x="1011" d="M 77 194 L 90 289 L 1003 289 L 989 194 L 77 194 Z" unicode="—" />
<glyph horiz-adv-x="384" d="M 80 194 L 93 289 L 373 289 L 360 194 L 80 194 Z" unicode="―" />
<glyph horiz-adv-x="246" d="M 124 450 L 137 536 C 142 576 155 614 175 650 C 195 685 217 713 241 734 L 312 705 C 295 681 281 656 269 632 C 257 607 248 577 244 543 L 231 450 L 124 450 Z" unicode="‘" />
<glyph horiz-adv-x="214" d="M 152 434 L 82 462 C 98 486 113 510 125 535 C 137 560 146 590 151 625 L 164 718 L 270 718 L 258 632 C 252 590 238 552 218 517 C 197 482 175 454 152 434 Z" unicode="’" />
<glyph horiz-adv-x="214" d="M 67 -171 L -3 -142 C 13 -118 28 -93 40 -69 C 52 -44 61 -14 66 21 L 80 114 L 185 114 L 173 27 C 167 -13 153 -51 133 -87 C 112 -122 90 -150 67 -171 Z" unicode="‚" />
<glyph horiz-adv-x="410" d="M 124 452 L 137 537 C 142 577 155 615 175 650 C 195 685 217 713 241 734 L 312 706 C 295 682 281 657 269 633 C 257 608 248 578 244 544 L 231 452 L 124 452 Z M 289 452 L 301 537 C 306 577 319 615 339 650 C 359 685 381 713 405 734 L 476 706 C 459 682 445 657 433 633 C 421 608 412 578 408 544 L 395 452 L 289 452 Z" unicode="“" />
<glyph horiz-adv-x="374" d="M 152 434 L 82 462 C 98 486 113 510 125 535 C 137 560 146 590 151 625 L 164 718 L 270 718 L 258 632 C 252 590 238 552 218 517 C 197 482 175 454 152 434 Z M 312 434 L 242 462 C 258 486 273 510 285 535 C 297 560 306 590 311 625 L 324 718 L 430 718 L 417 632 C 411 590 397 552 377 517 C 357 482 335 454 312 434 Z" unicode="”" />
<glyph horiz-adv-x="369" d="M 67 -171 L -3 -142 C 13 -118 28 -93 40 -69 C 52 -44 61 -14 66 21 L 80 114 L 185 114 L 173 27 C 167 -13 153 -51 133 -87 C 112 -122 90 -150 67 -171 Z M 222 -171 L 153 -142 C 169 -118 184 -93 196 -69 C 208 -44 217 -14 222 21 L 235 114 L 341 114 L 328 27 C 322 -13 308 -51 288 -87 C 268 -122 246 -150 222 -171 Z" unicode="„" />
<glyph horiz-adv-x="450" d="M 169 0 L 239 452 L 94 446 L 108 545 L 251 539 L 270 718 L 381 718 L 350 539 L 495 545 L 481 446 L 338 452 L 281 0 L 169 0 Z" unicode="†" />
<glyph horiz-adv-x="450" d="M 170 0 L 201 185 L 57 180 L 70 279 L 214 273 L 239 452 L 94 446 L 108 545 L 251 539 L 270 718 L 381 718 L 351 539 L 495 545 L 482 446 L 338 452 L 313 273 L 458 279 L 444 180 L 301 185 L 281 0 L 170 0 Z" unicode="‡" />
<glyph horiz-adv-x="296" d="M 84 158 L 107 331 L 281 331 L 257 158 L 84 158 Z" unicode="•" />
<glyph horiz-adv-x="613" d="M 47 0 L 63 108 L 171 108 L 156 0 L 47 0 Z M 250 0 L 266 108 L 374 108 L 359 0 L 250 0 Z M 454 0 L 470 108 L 578 108 L 563 0 L 454 0 Z" unicode="…" />
<glyph horiz-adv-x="1256" d="M 266 352 C 219 352 182 366 154 396 C 126 425 112 464 112 512 C 112 577 129 629 164 669 C 199 708 243 728 297 728 C 344 728 381 713 409 684 C 436 655 450 617 450 569 C 450 503 432 451 398 411 C 363 371 319 352 266 352 Z M 270 434 C 296 434 316 445 332 468 C 348 491 356 523 356 563 C 356 589 350 609 338 624 C 326 638 310 646 292 646 C 266 646 246 634 230 611 C 214 588 206 557 206 518 C 206 490 212 469 224 455 C 236 441 251 434 270 434 Z M 243 0 L 636 718 L 732 718 L 339 0 L 243 0 Z M 679 -8 C 632 -8 595 6 567 36 C 539 65 525 104 525 152 C 525 217 542 269 577 309 C 612 348 656 368 710 368 C 757 368 794 353 822 324 C 849 295 863 257 863 209 C 863 143 845 91 811 51 C 776 11 732 -8 679 -8 Z M 683 74 C 709 74 729 85 745 108 C 761 131 769 163 769 203 C 769 229 763 249 751 264 C 739 278 723 286 705 286 C 679 286 659 274 643 251 C 627 228 619 197 619 158 C 619 130 625 109 637 95 C 649 81 664 74 683 74 Z M 1061 -8 C 1014 -8 977 6 949 36 C 921 65 907 104 907 152 C 907 217 924 269 959 309 C 994 348 1038 368 1092 368 C 1139 368 1176 353 1204 324 C 1231 295 1245 257 1245 209 C 1245 143 1227 91 1193 51 C 1158 11 1114 -8 1061 -8 Z M 1065 74 C 1091 74 1111 85 1127 108 C 1143 131 1151 163 1151 203 C 1151 229 1145 249 1133 264 C 1121 278 1105 286 1087 286 C 1061 286 1041 274 1025 251 C 1009 228 1001 197 1001 158 C 1001 130 1007 109 1019 95 C 1031 81 1046 74 1065 74 Z" unicode="‰" />
<glyph horiz-adv-x="216" d="M 127 491 L 161 728 L 260 728 L 227 491 L 127 491 Z" unicode="′" />
<glyph horiz-adv-x="352" d="M 127 492 L 161 728 L 252 728 L 218 492 L 127 492 Z M 271 492 L 305 728 L 396 728 L 363 492 L 271 492 Z" unicode="″" />
<glyph horiz-adv-x="353" d="M 199 65 L 72 226 L 243 388 L 366 388 L 196 226 L 322 65 L 199 65 Z" unicode="‹" />
<glyph horiz-adv-x="353" d="M 49 65 L 219 226 L 93 388 L 216 388 L 343 226 L 172 65 L 49 65 Z" unicode="›" />
<glyph horiz-adv-x="148" d="M -120 0 L 273 718 L 369 718 L -24 0 L -120 0 Z" unicode="⁄" />
<glyph horiz-adv-x="395" d="M 268 432 C 221 432 184 446 156 476 C 128 505 114 544 114 592 C 114 657 131 709 166 749 C 201 788 245 808 299 808 C 346 808 383 793 411 764 C 438 735 452 697 452 649 C 452 583 434 531 400 491 C 365 451 321 432 268 432 Z M 272 514 C 298 514 318 525 334 548 C 350 571 358 603 358 643 C 358 669 352 689 340 704 C 328 718 312 726 294 726 C 268 726 248 714 232 691 C 216 668 208 637 208 598 C 208 570 214 549 226 535 C 238 521 253 514 272 514 Z" unicode="⁰" />
<glyph horiz-adv-x="348" d="M 248 440 L 259 516 L 94 516 L 102 578 L 262 800 L 387 800 L 357 590 L 406 590 L 396 516 L 347 516 L 336 440 L 248 440 Z M 269 590 L 288 729 L 189 590 L 269 590 Z" unicode="⁴" />
<glyph horiz-adv-x="316" d="M 208 432 C 187 432 167 434 148 438 C 129 442 110 449 92 457 L 104 540 C 118 529 134 521 150 516 C 166 510 184 508 202 508 C 222 508 238 512 250 520 C 262 528 269 540 269 554 C 269 566 263 576 252 584 C 240 592 224 596 204 596 C 190 596 175 595 159 593 C 143 591 127 588 112 585 L 155 800 L 378 800 L 367 719 L 208 719 L 196 660 C 204 661 212 662 220 663 C 228 664 235 665 242 665 C 282 665 312 655 333 637 C 353 618 364 593 364 563 C 364 526 349 495 320 470 C 291 444 254 432 208 432 Z" unicode="⁵" />
<glyph horiz-adv-x="354" d="M 251 432 C 208 432 174 445 149 472 C 124 498 112 535 112 581 C 112 644 130 698 168 742 C 205 786 254 808 315 808 C 330 808 345 806 361 804 C 376 801 391 797 407 793 L 395 712 C 381 718 367 722 353 726 C 339 729 324 731 310 731 C 281 731 258 722 240 704 C 222 686 210 661 204 631 C 214 645 227 655 243 663 C 259 671 276 675 295 675 C 329 675 355 665 374 647 C 393 628 403 603 403 572 C 403 530 388 496 358 470 C 328 444 293 432 251 432 Z M 254 507 C 271 507 285 512 297 523 C 308 533 314 548 314 566 C 314 580 309 590 301 598 C 292 606 281 610 267 610 C 253 610 241 606 229 599 C 217 591 208 581 202 569 C 200 551 204 537 213 525 C 221 513 235 507 254 507 Z" unicode="⁶" />
<glyph horiz-adv-x="313" d="M 123 440 L 285 716 L 125 716 L 136 800 L 401 800 L 391 731 L 225 440 L 123 440 Z" unicode="⁷" />
<glyph horiz-adv-x="331" d="M 232 432 C 190 432 158 440 136 457 C 114 473 103 495 103 522 C 103 541 109 559 123 575 C 136 591 154 605 178 617 C 161 627 148 638 140 651 C 131 664 127 679 127 696 C 127 728 140 754 167 776 C 193 797 226 808 265 808 C 303 808 333 799 356 783 C 378 767 390 745 390 719 C 390 700 384 683 374 669 C 363 655 346 642 322 630 C 339 620 352 608 361 594 C 370 580 375 564 375 547 C 375 511 361 483 334 463 C 307 442 273 432 232 432 Z M 257 656 L 263 654 C 275 660 285 668 293 678 C 300 688 304 698 304 708 C 304 718 300 727 292 735 C 284 742 274 746 262 746 C 249 746 238 741 229 733 C 219 725 215 714 215 701 C 215 690 218 681 226 673 C 234 665 244 660 257 656 Z M 191 535 C 191 523 195 513 203 505 C 211 497 223 494 237 494 C 251 494 262 498 272 507 C 282 516 287 528 287 543 C 287 555 282 565 274 572 C 266 579 255 585 243 590 L 238 591 C 224 586 213 578 204 568 C 195 558 191 547 191 535 Z" unicode="⁸" />
<glyph horiz-adv-x="351" d="M 211 432 C 195 432 179 433 164 436 C 148 438 133 442 119 447 L 130 528 C 144 522 158 517 172 514 C 186 510 200 509 215 509 C 243 509 266 517 284 534 C 302 551 315 575 321 605 C 310 591 296 580 280 572 C 264 564 246 561 227 561 C 194 561 168 570 150 590 C 131 609 122 635 122 668 C 122 710 136 743 166 769 C 196 795 232 808 275 808 C 317 808 350 794 376 768 C 401 741 414 705 414 659 C 414 595 395 542 357 498 C 319 454 271 432 211 432 Z M 259 625 C 272 625 284 628 296 636 C 308 644 317 654 324 667 C 326 685 322 701 312 714 C 302 726 288 733 270 733 C 253 733 239 727 228 717 C 217 706 212 692 212 674 C 212 658 216 646 224 638 C 232 629 244 625 259 625 Z" unicode="⁹" />
<glyph horiz-adv-x="405" d="M 107 440 L 143 698 C 145 714 147 732 148 750 C 149 768 150 784 150 800 L 237 800 C 237 792 236 782 236 771 C 235 760 234 750 234 742 L 233 726 C 247 754 265 775 287 788 C 309 801 331 808 354 808 C 390 808 418 795 438 771 C 458 747 464 715 458 675 L 435 544 C 432 527 430 510 429 493 C 427 475 427 458 427 440 L 339 440 C 339 458 339 475 340 493 C 341 511 343 528 346 544 L 367 648 C 371 672 368 692 358 706 C 348 720 333 727 314 727 C 291 727 270 714 252 688 C 234 662 220 616 210 548 L 195 440 L 107 440 Z" unicode="ⁿ" />
<glyph horiz-adv-x="395" d="M 182 -177 C 135 -177 98 -162 70 -133 C 42 -103 28 -65 28 -17 C 28 48 45 100 80 140 C 115 179 159 199 213 199 C 260 199 297 184 325 155 C 352 126 366 88 366 40 C 366 -25 348 -77 314 -117 C 279 -157 235 -177 182 -177 Z M 186 -95 C 212 -95 232 -83 248 -60 C 264 -37 272 -6 272 34 C 272 60 266 80 254 95 C 242 109 226 117 208 117 C 182 117 162 105 146 82 C 130 59 122 28 122 -11 C 122 -38 128 -59 140 -73 C 152 -87 167 -95 186 -95 Z" unicode="₀" />
<glyph horiz-adv-x="307" d="M 13 -170 L 23 -93 L 98 -93 L 127 110 L 41 100 L 52 179 L 232 200 L 191 -93 L 266 -93 L 255 -170 L 13 -170 Z" unicode="₁" />
<glyph horiz-adv-x="314" d="M 4 -170 L 18 -71 C 82 -42 128 -16 157 6 C 186 29 201 51 201 72 C 201 87 195 98 185 106 C 174 114 160 118 142 118 C 126 118 111 115 95 110 C 79 105 62 98 46 88 L 59 177 C 77 183 95 188 113 192 C 131 196 150 198 171 198 C 211 198 242 189 265 171 C 287 153 299 128 299 94 C 299 56 281 21 247 -9 C 213 -39 163 -66 99 -89 L 274 -89 L 263 -170 L 4 -170 Z" unicode="₂" />
<glyph horiz-adv-x="311" d="M 124 -178 C 103 -178 83 -176 64 -172 C 44 -168 25 -162 6 -154 L 18 -70 C 33 -80 49 -87 66 -92 C 82 -97 100 -100 119 -100 C 137 -100 152 -96 162 -88 C 172 -80 178 -71 178 -61 C 178 -50 172 -41 161 -35 C 150 -28 133 -25 109 -25 L 86 -25 L 95 48 L 116 48 C 139 48 157 52 171 60 C 184 68 191 78 191 90 C 191 98 187 105 179 111 C 171 117 159 120 143 120 C 126 120 110 118 95 114 C 80 110 65 104 50 96 L 61 176 C 79 182 97 188 115 192 C 133 196 150 198 168 198 C 206 198 235 189 256 173 C 277 157 288 135 288 109 C 288 85 280 65 265 48 C 249 31 228 19 202 13 C 223 9 240 0 252 -13 C 264 -27 270 -43 270 -62 C 270 -96 257 -124 231 -146 C 205 -167 170 -178 124 -178 Z" unicode="₃" />
<glyph horiz-adv-x="347" d="M 162 -170 L 173 -94 L 8 -94 L 16 -32 L 176 190 L 301 190 L 271 -20 L 320 -20 L 310 -94 L 261 -94 L 250 -170 L 162 -170 Z M 183 -20 L 202 119 L 103 -20 L 183 -20 Z" unicode="₄" />
<glyph horiz-adv-x="313" d="M 122 -178 C 101 -178 81 -175 62 -171 C 43 -167 24 -161 6 -153 L 18 -70 C 32 -80 48 -88 64 -94 C 80 -99 98 -102 116 -102 C 136 -102 152 -97 164 -89 C 176 -81 183 -70 183 -56 C 183 -43 177 -33 166 -25 C 154 -17 138 -14 118 -14 C 104 -14 89 -15 73 -17 C 57 -19 41 -21 26 -25 L 69 190 L 292 190 L 281 109 L 122 109 L 110 50 C 118 51 126 52 134 53 C 142 54 149 55 156 55 C 196 55 226 45 247 27 C 267 8 278 -16 278 -47 C 278 -83 263 -114 234 -140 C 205 -165 168 -178 122 -178 Z" unicode="₅" />
<glyph horiz-adv-x="354" d="M 165 -178 C 122 -178 88 -164 63 -138 C 38 -111 26 -75 26 -29 C 26 34 44 88 82 132 C 119 176 168 198 229 198 C 244 198 259 196 275 194 C 290 191 305 187 321 183 L 309 102 C 295 108 281 112 267 116 C 253 119 238 121 224 121 C 195 121 172 112 154 94 C 136 76 124 51 118 21 C 128 35 141 45 157 53 C 173 61 190 65 209 65 C 243 65 269 55 288 37 C 307 18 317 -6 317 -38 C 317 -80 302 -113 272 -139 C 242 -165 207 -178 165 -178 Z M 168 -103 C 185 -103 199 -97 211 -87 C 222 -76 228 -62 228 -44 C 228 -30 223 -19 215 -11 C 206 -3 195 0 181 0 C 167 0 155 -3 143 -11 C 131 -18 122 -28 116 -41 C 114 -58 118 -73 127 -85 C 135 -97 149 -103 168 -103 Z" unicode="₆" />
<glyph horiz-adv-x="312" d="M 38 -170 L 200 106 L 40 106 L 51 190 L 316 190 L 306 121 L 140 -170 L 38 -170 Z" unicode="₇" />
<glyph horiz-adv-x="327" d="M 146 -178 C 104 -178 72 -169 50 -153 C 28 -136 17 -114 17 -88 C 17 -68 23 -50 37 -34 C 50 -18 68 -4 92 7 C 75 17 62 28 54 41 C 45 54 41 69 41 86 C 41 118 54 144 81 166 C 107 187 140 198 179 198 C 217 198 247 189 270 173 C 292 157 304 135 304 109 C 304 90 298 73 288 59 C 277 45 260 32 236 20 C 253 10 266 -2 275 -16 C 284 -30 289 -45 289 -63 C 289 -98 275 -126 248 -147 C 221 -167 187 -178 146 -178 Z M 171 46 L 177 44 C 189 50 199 58 207 68 C 214 78 218 88 218 98 C 218 108 214 117 206 125 C 198 132 188 136 176 136 C 163 136 152 131 143 123 C 133 115 129 104 129 91 C 129 80 132 71 140 63 C 148 55 158 50 171 46 Z M 105 -75 C 105 -87 109 -96 117 -104 C 125 -112 137 -116 151 -116 C 165 -116 176 -111 186 -102 C 196 -93 201 -81 201 -67 C 201 -54 196 -44 188 -37 C 180 -30 169 -24 157 -20 L 152 -19 C 138 -23 127 -31 118 -41 C 109 -51 105 -63 105 -75 Z" unicode="₈" />
<glyph horiz-adv-x="351" d="M 125 -178 C 109 -178 93 -176 78 -174 C 62 -171 47 -167 33 -163 L 44 -82 C 58 -88 72 -92 86 -96 C 100 -99 114 -101 129 -101 C 157 -101 180 -92 198 -75 C 216 -58 229 -35 235 -5 C 224 -19 210 -29 194 -37 C 178 -45 160 -49 141 -49 C 108 -49 82 -39 64 -20 C 45 0 36 25 36 58 C 36 100 50 133 80 159 C 110 185 146 198 189 198 C 231 198 264 184 290 158 C 315 131 328 95 328 49 C 328 -14 309 -68 271 -112 C 233 -156 185 -178 125 -178 Z M 173 15 C 186 15 198 18 210 26 C 222 34 231 44 238 57 C 240 75 236 91 226 104 C 216 116 202 123 184 123 C 167 123 153 117 142 107 C 131 96 126 82 126 64 C 126 48 130 36 138 28 C 146 19 158 15 173 15 Z" unicode="₉" />
<glyph horiz-adv-x="708" d="M 87 354 L 98 430 L 421 430 L 410 354 L 87 354 Z M 68 227 L 79 302 L 403 302 L 393 227 L 68 227 Z M 461 -15 C 361 -15 283 14 226 72 C 169 130 141 202 141 288 C 141 398 177 490 249 563 C 321 636 417 673 536 673 C 572 673 608 668 643 660 C 677 652 710 639 742 622 L 726 510 C 695 528 663 543 630 553 C 596 563 562 569 526 569 C 445 569 380 543 330 492 C 280 440 256 375 256 295 C 256 235 275 185 314 147 C 353 108 406 89 472 89 C 510 89 546 94 581 105 C 615 116 650 132 685 153 L 669 38 C 634 19 599 5 565 -2 C 530 -10 495 -15 461 -15 Z" unicode="€" />
<glyph horiz-adv-x="543" d="M 232 575 L 262 786 L 339 786 L 310 575 L 232 575 Z M 367 575 L 396 786 L 474 786 L 444 575 L 367 575 Z M 134 -124 L 164 87 L 241 87 L 212 -124 L 134 -124 Z M 269 -124 L 298 87 L 376 87 L 346 -124 L 269 -124 Z M 68 0 L 160 658 L 338 658 C 405 658 455 644 488 617 C 520 589 537 552 537 504 C 537 464 525 429 503 398 C 481 366 446 345 400 333 C 441 325 472 308 492 284 C 512 260 522 230 522 195 C 522 135 500 88 457 53 C 413 17 348 0 261 0 L 68 0 Z M 234 379 L 309 379 C 346 379 374 387 394 405 C 414 422 424 447 424 479 C 424 505 416 525 400 539 C 384 553 361 560 331 560 L 259 560 L 234 379 Z M 195 98 L 281 98 C 323 98 354 107 376 125 C 397 143 408 168 408 201 C 408 227 399 248 381 263 C 363 277 336 285 300 285 L 220 285 L 195 98 Z" unicode="₿" />
<glyph horiz-adv-x="698" d="M 375 93 C 295 93 229 119 177 172 C 124 224 98 290 98 368 C 98 464 130 546 194 612 C 258 678 339 712 437 712 C 516 712 582 685 635 633 C 687 581 714 516 714 438 C 714 341 681 259 617 193 C 553 126 472 93 375 93 Z M 376 154 C 453 154 518 180 572 233 C 625 286 652 353 652 435 C 652 497 630 548 588 589 C 546 630 495 651 435 651 C 357 651 292 624 239 571 C 186 518 160 451 160 370 C 160 308 181 257 223 216 C 265 174 316 154 376 154 Z M 295 234 L 343 573 L 445 573 C 475 573 501 564 521 546 C 541 528 552 506 552 479 C 552 440 538 408 511 384 C 483 359 450 347 411 347 L 378 347 L 362 234 L 295 234 Z M 387 404 L 418 404 C 439 404 455 410 467 423 C 478 435 484 450 484 467 C 484 479 479 491 471 501 C 462 511 450 516 434 516 L 402 516 L 387 404 Z" unicode="℗" />
<glyph horiz-adv-x="638" d="M 170 455 L 199 659 L 127 659 L 135 718 L 350 718 L 341 659 L 269 659 L 240 455 L 170 455 Z M 341 455 L 378 718 L 482 718 L 518 600 L 587 718 L 688 718 L 651 455 L 581 455 L 609 649 L 517 496 L 477 496 L 428 650 L 401 455 L 341 455 Z" unicode="™" />
<glyph horiz-adv-x="564" d="M 294 -12 C 226 -12 172 7 132 46 C 92 84 72 137 72 205 C 72 276 94 336 140 386 C 186 435 241 460 305 460 C 336 460 364 453 388 441 C 412 429 431 411 445 389 C 436 453 408 502 361 536 C 313 570 247 588 161 588 L 178 702 C 306 702 403 666 468 595 C 532 524 565 435 565 329 C 565 226 539 143 489 81 C 439 19 374 -12 294 -12 Z M 301 90 C 343 90 376 105 400 135 C 424 165 438 204 441 252 C 440 282 430 307 410 327 C 390 347 362 357 328 357 C 288 357 256 342 230 314 C 204 286 191 251 191 210 C 191 175 201 146 222 124 C 242 101 269 90 301 90 Z" unicode="∂" />
<glyph horiz-adv-x="561" d="M 61 0 L 155 658 L 593 658 L 499 0 L 387 0 L 466 553 L 251 553 L 173 0 L 61 0 Z" unicode="∏" />
<glyph horiz-adv-x="513" d="M 43 0 L 58 106 L 306 341 L 122 553 L 137 658 L 564 658 L 549 553 L 277 553 L 453 346 L 212 113 L 488 113 L 472 0 L 43 0 Z" unicode="∑" />
<glyph horiz-adv-x="522" d="M 79 245 L 93 340 L 524 340 L 510 245 L 79 245 Z" unicode="−" />
<glyph horiz-adv-x="573" d="M 188 -3 L 78 505 L 191 505 L 271 118 L 560 708 L 665 708 L 313 -3 L 188 -3 Z" unicode="√" />
<glyph horiz-adv-x="841" d="M 225 24 C 178 24 139 40 109 74 C 78 107 63 153 63 211 C 63 280 84 336 127 378 C 170 420 224 441 288 441 C 328 441 363 431 393 411 C 423 391 448 361 470 321 C 498 360 529 390 563 410 C 597 430 633 440 673 440 C 722 440 763 423 795 390 C 827 357 844 312 844 256 C 844 186 822 130 779 88 C 735 45 682 24 618 24 C 576 24 541 34 512 54 C 482 74 457 105 436 145 C 406 105 374 74 339 54 C 304 34 266 24 225 24 Z M 651 341 C 626 341 603 333 581 317 C 559 301 535 274 511 238 C 531 197 550 168 568 150 C 586 132 606 124 630 124 C 662 124 688 135 708 158 C 727 181 737 210 737 244 C 737 272 729 296 714 314 C 698 332 677 341 651 341 Z M 170 222 C 170 193 177 169 192 151 C 207 133 228 124 254 124 C 278 124 302 132 326 149 C 350 165 373 191 396 227 C 375 267 355 296 337 314 C 319 332 298 341 276 341 C 244 341 218 329 199 307 C 179 284 170 256 170 222 Z" unicode="∞" />
<glyph horiz-adv-x="409" d="M 59 -221 C 45 -221 32 -219 19 -217 C 6 -214 -6 -210 -19 -205 L -5 -107 C 5 -111 15 -115 25 -117 C 35 -119 46 -121 59 -121 C 81 -121 99 -113 113 -99 C 126 -85 134 -64 137 -38 L 204 542 C 210 602 230 646 264 676 C 298 706 339 721 387 721 C 402 721 417 720 432 718 C 447 716 462 713 477 709 L 462 605 C 451 611 440 615 429 618 C 417 620 406 622 395 622 C 370 622 351 615 337 601 C 323 587 314 568 311 543 L 244 -43 C 237 -103 217 -147 185 -177 C 152 -206 110 -221 59 -221 Z" unicode="∫" />
<glyph horiz-adv-x="418" d="M 117 307 L 114 393 C 122 405 135 414 151 422 C 167 429 183 433 199 433 C 211 433 224 431 236 427 C 248 423 259 418 270 414 C 280 409 290 404 301 400 C 312 396 324 394 338 394 C 350 394 362 396 374 401 C 385 406 395 412 405 420 L 408 335 C 398 322 386 312 370 305 C 354 298 338 295 323 295 C 311 295 299 297 287 301 C 275 305 264 309 254 314 C 244 318 234 322 222 327 C 210 331 198 334 185 334 C 173 334 161 331 149 327 C 137 322 126 315 117 307 Z M 92 128 L 88 214 C 96 226 109 235 125 243 C 141 250 158 254 174 254 C 186 254 199 252 211 248 C 223 244 234 239 244 235 C 254 230 265 225 276 221 C 287 217 299 215 312 215 C 324 215 336 217 348 222 C 359 227 370 234 380 242 L 383 156 C 374 143 361 133 345 126 C 329 119 313 116 298 116 C 285 116 273 118 261 122 C 249 126 239 130 229 135 C 219 139 209 143 197 148 C 185 152 172 155 160 155 C 148 155 136 152 124 148 C 112 143 101 136 92 128 Z" unicode="≈" />
<glyph horiz-adv-x="547" d="M 107 33 L 417 544 L 515 544 L 206 33 L 107 33 Z M 106 337 L 119 431 L 550 431 L 537 337 L 106 337 Z M 80 152 L 93 247 L 524 247 L 510 152 L 80 152 Z" unicode="≠" />
<glyph horiz-adv-x="495" d="M 297 83 L 101 293 L 358 505 L 507 505 L 249 293 L 446 83 L 297 83 Z M 54 -95 L 68 0 L 426 0 L 413 -95 L 54 -95 Z" unicode="≤" />
<glyph horiz-adv-x="495" d="M 72 83 L 329 294 L 133 505 L 280 505 L 477 293 L 222 83 L 72 83 Z M 55 -95 L 68 0 L 427 0 L 414 -95 L 55 -95 Z" unicode="≥" />
<glyph horiz-adv-x="608" d="M 303 -35 L 93 302 L 399 640 L 604 302 L 303 -35 Z M 319 119 L 486 307 L 377 485 L 211 298 L 319 119 Z" unicode="◊" />
<glyph horiz-adv-x="584" d="M 198 -3 L 90 505 L 203 505 L 281 121 L 570 720 L 676 720 L 323 -3 L 198 -3 Z" unicode="✓" />
<glyph horiz-adv-x="686" d="M 55 0 L 70 106 L 245 106 L 250 140 C 205 154 167 182 137 223 C 107 264 92 313 92 369 C 92 457 121 529 181 587 C 241 644 319 673 415 673 C 498 673 567 649 622 602 C 676 555 704 492 704 412 C 704 342 682 282 638 232 C 594 182 539 150 474 136 L 470 106 L 645 106 L 630 0 L 373 0 L 403 215 C 461 219 506 239 540 274 C 574 309 591 353 591 405 C 591 451 575 489 543 521 C 511 553 468 569 412 569 C 352 569 302 550 264 513 C 225 475 206 429 206 374 C 206 332 218 296 243 267 C 268 238 301 221 343 216 L 313 0 L 55 0 Z" unicode="Ꞷ" />
<glyph horiz-adv-x="148" d="M 38 -246 L -39 -215 C -23 -192 -11 -171 -4 -152 C 3 -132 8 -110 12 -85 L 19 -40 L 115 -40 L 109 -85 C 104 -120 96 -150 86 -174 C 75 -198 59 -222 38 -246 Z" unicode="" />
<glyph horiz-adv-x="752" d="M 44 0 L 136 658 L 799 658 L 707 0 L 44 0 Z M 235 78 L 315 78 L 377 514 L 451 514 L 390 78 L 470 78 L 502 309 L 526 309 C 580 309 623 322 656 350 C 689 378 706 418 706 472 C 706 500 695 526 673 548 C 651 570 613 582 559 582 L 205 582 L 196 514 L 296 514 L 235 78 Z" unicode="" />
<glyph horiz-adv-x="504" d="M 87 0 L 139 370 L 71 370 L 85 468 L 153 468 L 161 532 C 169 592 191 639 228 675 C 264 710 310 728 364 728 C 382 728 402 726 424 722 C 446 718 466 712 484 704 L 469 601 C 454 609 438 616 420 621 C 402 625 385 628 369 628 C 341 628 318 619 301 602 C 284 585 273 561 269 531 L 261 468 L 339 468 L 325 370 L 247 370 L 195 0 L 87 0 Z M 337 0 C 337 21 337 43 339 65 C 341 87 343 109 346 131 L 393 468 L 503 468 L 456 131 C 453 111 450 89 448 65 C 446 41 445 20 446 0 L 337 0 Z" unicode="ﬁ" />
<glyph horiz-adv-x="507" d="M 87 0 L 139 370 L 71 370 L 85 468 L 153 468 L 161 532 C 169 592 191 639 228 675 C 264 710 310 728 364 728 C 382 728 402 726 424 722 C 446 718 466 712 484 704 L 469 601 C 454 609 438 616 420 621 C 402 625 385 628 369 628 C 341 628 318 619 301 602 C 284 585 273 561 269 531 L 261 468 L 339 468 L 325 370 L 247 370 L 195 0 L 87 0 Z M 341 0 C 340 22 340 44 342 68 C 343 91 345 113 348 135 L 431 718 L 540 718 L 458 133 C 455 111 453 89 451 67 C 449 45 449 22 450 0 L 341 0 Z" unicode="ﬂ" />
</font>
</defs>
</svg>
