<?xml version="1.0" encoding="utf-8" ?><svg version="1.1" xmlns = 'http://www.w3.org/2000/svg'><defs><font id='web' horiz-adv-x="1000">
<font-face font-family="web" descent="-252" cap-height="658" units-per-em="1000" bbox="-180,-336,1222,991" x-height="470" ascent="748" />
<missing-glyph horiz-adv-x="500" d="M 50 -252 L 450 -252 L 450 748 L 50 748 L 50 -252 Z M 100 -202 L 100 698 L 400 698 L 400 -202 L 100 -202 Z" /><glyph horiz-adv-x="200" d="" unicode=" " />
<glyph horiz-adv-x="262" d="M 65 217 L 65 700 L 197 700 L 197 217 L 65 217 Z M 65 0 L 65 132 L 197 132 L 197 0 L 65 0 Z" unicode="!" />
<glyph horiz-adv-x="396" d="M 60 455 L 60 716 L 172 716 L 172 455 L 60 455 Z M 224 455 L 224 716 L 336 716 L 336 455 L 224 455 Z" unicode="&#x22;" />
<glyph horiz-adv-x="624" d="M 55 69 L 55 187 L 142 187 L 158 300 L 71 300 L 71 418 L 175 418 L 190 526 L 308 526 L 293 418 L 381 418 L 396 526 L 513 526 L 498 418 L 569 418 L 569 300 L 481 300 L 465 187 L 553 187 L 553 69 L 448 69 L 433 -40 L 316 -40 L 331 69 L 243 69 L 228 -40 L 110 -40 L 125 69 L 55 69 Z M 260 187 L 348 187 L 364 300 L 276 300 L 260 187 Z" unicode="#" />
<glyph horiz-adv-x="513" d="M 201 -102 L 201 -12 C 175 -10 149 -5 125 0 C 101 6 77 15 53 27 L 53 171 C 80 152 109 138 140 129 C 170 120 203 116 237 116 C 264 116 285 122 301 134 C 317 146 325 163 325 185 C 325 204 317 220 301 234 C 285 248 260 260 226 271 L 207 277 C 153 293 113 319 86 353 C 58 387 45 428 45 478 C 45 526 59 566 87 600 C 115 634 153 656 201 666 L 201 762 L 325 762 L 325 667 C 343 664 362 660 382 654 C 401 648 421 640 442 631 L 442 487 C 413 505 385 518 357 528 C 329 537 301 542 271 542 C 244 542 223 537 209 527 C 195 517 188 502 188 482 C 188 464 195 448 210 436 C 224 424 247 413 277 404 L 296 398 C 352 380 395 355 424 322 C 453 288 468 248 468 202 C 468 152 455 108 430 72 C 404 36 369 11 325 -3 L 325 -102 L 201 -102 Z" unicode="$" />
<glyph horiz-adv-x="874" d="M 209 352 C 157 352 115 369 83 403 C 51 437 35 483 35 539 C 35 595 51 640 83 675 C 115 710 157 728 209 728 C 261 728 303 710 335 676 C 367 641 383 596 383 540 C 383 484 367 438 335 404 C 303 369 261 352 209 352 Z M 221 0 L 536 716 L 648 716 L 333 0 L 221 0 Z M 209 452 C 227 452 242 460 254 476 C 266 492 272 513 272 539 C 272 565 266 587 254 603 C 242 619 227 628 209 628 C 191 628 176 620 164 604 C 152 588 146 566 146 540 C 146 513 152 492 164 476 C 176 460 191 452 209 452 Z M 665 -8 C 613 -8 571 9 539 43 C 507 77 491 123 491 179 C 491 235 507 280 539 315 C 571 350 613 368 665 368 C 717 368 759 350 791 316 C 823 281 839 236 839 180 C 839 124 823 78 791 44 C 759 9 717 -8 665 -8 Z M 665 92 C 683 92 698 100 710 116 C 722 132 728 153 728 179 C 728 205 722 227 710 243 C 698 259 683 268 665 268 C 647 268 632 260 620 244 C 608 228 602 206 602 180 C 602 153 608 132 620 116 C 632 100 647 92 665 92 Z" unicode="%" />
<glyph horiz-adv-x="657" d="M 250 -16 C 182 -16 129 2 91 40 C 53 78 35 125 35 182 C 35 219 44 255 62 291 C 80 327 111 357 154 382 C 147 398 142 415 140 433 C 137 451 136 468 136 486 C 136 542 154 587 190 622 C 226 656 276 674 340 674 C 362 674 385 671 407 667 C 429 663 450 656 471 648 L 471 515 C 453 527 435 535 416 541 C 396 547 377 550 358 550 C 333 550 313 542 299 528 C 284 514 277 495 277 473 C 277 453 282 434 294 414 C 306 394 322 372 344 348 L 414 269 C 420 287 424 307 427 331 C 430 355 432 381 432 410 L 559 410 C 559 362 554 317 546 275 C 538 232 525 195 507 164 L 652 0 L 464 0 L 421 49 C 402 31 379 15 353 3 C 326 -9 292 -16 250 -16 Z M 176 192 C 176 167 184 147 200 131 C 216 115 237 108 264 108 C 278 108 292 111 305 117 C 317 123 329 131 339 142 L 221 276 C 205 265 193 253 186 241 C 179 228 176 212 176 192 Z" unicode="&#x26;" />
<glyph horiz-adv-x="232" d="M 60 454 L 60 716 L 172 716 L 172 454 L 60 454 Z" unicode="'" />
<glyph horiz-adv-x="398" d="M 242 -210 C 188 -147 148 -74 121 7 C 93 89 80 171 80 253 C 80 334 93 416 121 498 C 148 580 188 653 242 716 L 398 716 C 338 646 292 569 262 487 C 231 405 216 327 216 253 C 216 179 231 100 262 18 C 292 -63 338 -140 398 -210 L 242 -210 Z" unicode="(" />
<glyph horiz-adv-x="398" d="M 0 -210 C 60 -140 105 -63 136 18 C 166 100 182 179 182 253 C 182 327 166 405 136 487 C 105 569 60 646 0 716 L 156 716 C 209 653 249 580 277 498 C 304 416 318 334 318 253 C 318 171 304 89 277 7 C 249 -74 209 -147 156 -210 L 0 -210 Z" unicode=")" />
<glyph horiz-adv-x="612" d="M 226 -24 L 95 72 L 225 198 L 45 222 L 97 377 L 255 292 L 224 470 L 388 470 L 357 292 L 515 377 L 567 222 L 387 198 L 517 72 L 386 -24 L 306 138 L 226 -24 Z" unicode="*" />
<glyph horiz-adv-x="494" d="M 185 87 L 185 235 L 45 235 L 45 353 L 185 353 L 185 501 L 309 501 L 309 353 L 449 353 L 449 235 L 309 235 L 309 87 L 185 87 Z" unicode="+" />
<glyph horiz-adv-x="237" d="M 192 132 L 192 35 C 192 -13 182 -57 163 -97 C 144 -137 124 -168 102 -189 L 10 -156 C 24 -130 35 -103 45 -76 C 55 -48 60 -14 60 26 L 60 132 L 192 132 Z" unicode="," />
<glyph horiz-adv-x="390" d="M 55 188 L 55 306 L 335 306 L 335 188 L 55 188 Z" unicode="-" />
<glyph horiz-adv-x="222" d="M 45 0 L 45 132 L 177 132 L 177 0 L 45 0 Z" unicode="." />
<glyph horiz-adv-x="475" d="M 20 0 L 327 716 L 455 716 L 148 0 L 20 0 Z" unicode="/" />
<glyph horiz-adv-x="618" d="M 309 -16 C 221 -16 155 14 111 76 C 67 137 45 221 45 328 C 45 434 67 519 111 581 C 155 643 221 674 309 674 C 396 674 462 643 506 582 C 550 520 573 436 573 330 C 573 223 550 139 506 77 C 462 15 396 -16 309 -16 Z M 309 116 C 349 116 379 134 400 170 C 420 206 431 258 431 328 C 431 398 420 451 400 487 C 379 523 349 542 309 542 C 269 542 238 524 218 488 C 197 452 187 399 187 330 C 187 260 197 206 218 170 C 238 134 269 116 309 116 Z" unicode="0" />
<glyph horiz-adv-x="381" d="M 141 0 L 141 510 L 30 496 L 30 642 L 281 674 L 281 0 L 141 0 Z" unicode="1" />
<glyph horiz-adv-x="526" d="M 50 0 L 50 188 L 104 210 C 172 238 228 272 272 313 C 316 354 339 396 339 439 C 339 474 329 500 309 516 C 289 532 264 540 234 540 C 200 540 170 535 143 526 C 116 516 90 502 65 482 L 65 625 C 91 640 119 652 147 660 C 175 668 204 672 236 672 C 313 672 372 653 414 616 C 455 578 476 525 476 457 C 476 381 449 319 396 270 C 343 221 290 184 237 160 L 195 140 L 475 140 L 475 0 L 50 0 Z" unicode="2" />
<glyph horiz-adv-x="523" d="M 256 -14 C 224 -14 189 -10 152 -2 C 114 6 80 16 50 29 L 50 170 C 76 154 106 141 140 132 C 174 122 206 118 237 118 C 265 118 288 123 306 135 C 323 147 332 164 332 188 C 332 212 320 231 298 244 C 276 256 246 263 208 263 L 160 263 L 160 395 L 200 395 C 236 395 265 401 287 414 C 309 427 320 447 320 473 C 320 495 311 512 294 523 C 277 534 254 540 226 540 C 199 540 171 535 142 527 C 113 519 87 508 65 494 L 65 632 C 87 644 113 653 143 661 C 172 668 200 672 226 672 C 304 672 362 656 402 625 C 441 594 461 553 461 501 C 461 459 450 424 429 394 C 407 364 376 343 334 333 C 376 324 409 305 435 276 C 460 247 473 213 473 173 C 473 116 453 71 414 37 C 374 3 322 -14 256 -14 Z" unicode="3" />
<glyph horiz-adv-x="600" d="M 331 0 L 331 148 L 40 148 L 40 241 L 282 658 L 471 658 L 471 272 L 555 272 L 555 148 L 471 148 L 471 0 L 331 0 Z M 331 272 L 331 508 L 194 272 L 331 272 Z" unicode="4" />
<glyph horiz-adv-x="536" d="M 241 -12 C 203 -12 169 -8 139 -2 C 108 4 78 14 50 28 L 50 166 C 78 150 107 139 137 131 C 167 123 198 119 230 119 C 264 119 291 125 312 139 C 332 153 343 173 343 200 C 343 227 331 247 308 261 C 284 274 254 281 216 281 C 188 281 161 279 134 276 C 107 272 79 267 51 261 L 75 658 L 465 658 L 465 526 L 208 526 L 201 409 C 208 410 216 411 226 412 C 235 412 243 413 250 413 C 322 413 379 395 422 358 C 464 320 486 270 486 206 C 486 140 463 87 418 47 C 373 7 314 -12 241 -12 Z" unicode="5" />
<glyph horiz-adv-x="578" d="M 288 -12 C 216 -12 157 14 112 68 C 67 122 45 201 45 306 C 45 418 73 507 131 573 C 188 639 257 672 339 672 C 363 672 388 670 413 666 C 438 662 463 656 488 648 L 488 511 C 466 521 443 528 420 534 C 397 539 374 542 352 542 C 316 542 282 529 250 505 C 218 481 197 440 189 382 C 203 404 222 420 246 430 C 269 440 295 445 323 445 C 388 445 439 424 477 384 C 514 344 533 291 533 225 C 533 150 510 92 464 50 C 418 8 360 -12 288 -12 Z M 289 112 C 319 112 344 121 364 140 C 383 159 393 185 393 218 C 393 250 383 275 365 294 C 347 313 323 323 293 323 C 264 323 242 315 226 300 C 210 285 198 265 190 239 C 190 199 199 168 217 146 C 234 123 258 112 289 112 Z" unicode="6" />
<glyph horiz-adv-x="536" d="M 126 0 L 335 524 L 45 524 L 45 658 L 491 658 L 491 555 L 278 0 L 126 0 Z" unicode="7" />
<glyph horiz-adv-x="576" d="M 289 -16 C 205 -16 144 2 106 40 C 68 77 50 122 50 176 C 50 210 58 241 74 267 C 90 293 114 315 144 332 C 116 350 95 372 82 397 C 68 422 62 451 62 484 C 62 534 80 578 118 617 C 155 655 212 675 290 675 C 365 675 422 657 460 622 C 498 587 517 546 517 499 C 517 465 509 435 493 410 C 477 384 453 364 421 348 C 454 329 480 306 498 280 C 516 254 526 222 526 186 C 526 127 506 79 467 41 C 427 3 368 -16 289 -16 Z M 280 402 L 293 398 L 296 399 C 320 405 339 415 353 430 C 366 445 373 463 373 484 C 373 504 365 521 350 535 C 335 548 315 555 290 555 C 265 555 245 548 229 535 C 213 522 206 506 206 486 C 206 467 212 450 226 435 C 240 419 258 408 280 402 Z M 191 186 C 191 164 199 145 216 128 C 233 110 257 102 287 102 C 319 102 342 109 357 125 C 372 141 380 161 380 185 C 380 207 373 224 359 236 C 345 248 325 258 301 266 L 281 272 C 277 272 273 273 269 275 C 265 277 261 278 257 279 C 237 271 221 258 209 242 C 197 225 191 206 191 186 Z" unicode="8" />
<glyph horiz-adv-x="576" d="M 239 -12 C 214 -12 189 -10 164 -6 C 139 -2 114 3 90 12 L 90 151 C 112 141 134 133 157 128 C 180 122 203 120 226 120 C 260 120 294 132 326 156 C 358 180 379 220 388 278 C 373 256 354 240 331 230 C 307 220 282 215 255 215 C 189 215 138 235 101 275 C 63 315 45 369 45 435 C 45 509 67 567 112 609 C 157 651 216 672 288 672 C 360 672 419 646 464 595 C 508 544 531 463 531 352 C 531 239 502 150 446 85 C 389 20 320 -12 239 -12 Z M 285 337 C 313 337 336 344 352 359 C 368 374 380 395 388 421 C 387 460 378 491 360 514 C 342 536 317 548 287 548 C 256 548 231 538 213 519 C 194 500 185 474 185 442 C 185 410 194 384 212 365 C 230 346 255 337 285 337 Z" unicode="9" />
<glyph horiz-adv-x="222" d="M 45 284 L 45 416 L 177 416 L 177 284 L 45 284 Z M 45 0 L 45 132 L 177 132 L 177 0 L 45 0 Z" unicode=":" />
<glyph horiz-adv-x="237" d="M 60 285 L 60 417 L 192 417 L 192 285 L 60 285 Z M 192 132 L 192 35 C 192 -13 182 -57 163 -97 C 144 -137 124 -168 102 -189 L 10 -156 C 24 -130 35 -103 45 -76 C 55 -48 60 -14 60 26 L 60 132 L 192 132 Z" unicode=";" />
<glyph horiz-adv-x="510" d="M 265 84 L 60 300 L 265 516 L 450 516 L 245 300 L 450 84 L 265 84 Z" unicode="&#x3C;" />
<glyph horiz-adv-x="524" d="M 60 338 L 60 456 L 464 456 L 464 338 L 60 338 Z M 60 134 L 60 252 L 464 252 L 464 134 L 60 134 Z" unicode="=" />
<glyph horiz-adv-x="510" d="M 60 84 L 265 300 L 60 516 L 245 516 L 450 300 L 245 84 L 60 84 Z" unicode="&#x3E;" />
<glyph horiz-adv-x="484" d="M 165 217 C 165 257 171 292 184 322 C 197 352 219 381 249 411 C 268 429 282 447 290 463 C 298 479 303 497 303 516 C 303 538 292 557 271 571 C 250 585 222 592 187 592 C 161 592 136 588 111 581 C 86 574 62 564 40 551 L 40 685 C 68 695 97 702 126 708 C 155 713 184 716 213 716 C 290 716 348 697 386 660 C 424 623 444 579 444 529 C 444 496 437 466 424 439 C 411 412 390 384 360 355 C 336 331 318 308 308 287 C 298 265 293 242 293 217 L 165 217 Z M 164 0 L 164 132 L 296 132 L 296 0 L 164 0 Z" unicode="?" />
<glyph horiz-adv-x="819" d="M 407 -74 C 311 -74 227 -42 156 21 C 85 85 50 170 50 276 C 50 380 85 465 157 531 C 228 597 312 630 408 630 C 505 630 589 601 661 544 C 733 487 769 413 769 321 C 769 253 751 201 717 164 C 682 126 640 108 592 108 C 566 108 543 114 522 126 C 501 138 484 158 470 184 C 455 158 437 138 416 126 C 395 114 371 108 345 108 C 312 108 285 119 264 142 C 242 164 232 197 232 240 C 232 297 250 345 288 383 C 326 421 373 441 429 441 C 448 441 470 438 495 433 C 520 428 542 422 561 415 L 543 286 C 539 256 542 231 552 213 C 562 195 577 186 598 186 C 621 186 641 196 657 217 C 673 237 681 272 681 320 C 681 380 655 433 605 478 C 555 523 489 546 408 546 C 327 546 262 519 212 465 C 162 411 138 348 138 278 C 138 204 162 141 212 89 C 262 36 327 10 407 10 C 437 10 468 13 498 21 C 528 28 557 39 585 54 L 585 -37 C 556 -49 526 -58 496 -64 C 466 -70 436 -74 407 -74 Z M 375 190 C 389 190 404 196 420 210 C 435 224 446 254 453 302 L 461 353 C 454 355 446 357 438 359 C 430 361 421 362 413 362 C 389 362 368 351 350 329 C 332 307 324 281 324 252 C 324 231 328 215 337 205 C 345 195 358 190 375 190 Z" unicode="@" />
<glyph horiz-adv-x="685" d="M 15 0 L 277 658 L 408 658 L 670 0 L 518 0 L 465 140 L 212 140 L 159 0 L 15 0 Z M 257 264 L 419 264 L 379 370 L 338 486 L 296 370 L 257 264 Z" unicode="A" />
<glyph horiz-adv-x="550" d="M 65 0 L 65 658 L 259 658 C 334 658 390 644 428 616 C 465 588 484 547 484 493 C 484 455 475 422 457 396 C 439 369 414 349 384 337 C 421 327 450 309 472 283 C 494 257 505 224 505 184 C 505 123 485 77 445 46 C 405 15 347 0 272 0 L 65 0 Z M 205 388 L 260 388 C 285 388 305 394 321 407 C 337 420 345 439 345 465 C 345 489 337 507 321 519 C 305 531 285 537 260 537 L 205 537 L 205 388 Z M 205 121 L 277 121 C 303 121 325 127 341 140 C 357 153 366 172 366 198 C 366 222 357 241 341 254 C 325 267 303 274 277 274 L 205 274 L 205 121 Z" unicode="B" />
<glyph horiz-adv-x="654" d="M 401 -16 C 290 -16 202 15 137 78 C 72 141 40 225 40 330 C 40 433 72 516 137 579 C 202 642 290 674 401 674 C 437 674 471 670 504 662 C 537 654 570 642 602 626 L 602 486 C 570 505 537 519 504 529 C 471 539 437 544 401 544 C 335 544 282 524 242 485 C 202 445 182 394 182 330 C 182 264 202 212 242 173 C 282 133 335 114 401 114 C 441 114 477 119 510 130 C 543 140 576 156 609 176 L 609 36 C 576 17 543 4 509 -4 C 475 -12 439 -16 401 -16 Z" unicode="C" />
<glyph horiz-adv-x="688" d="M 65 0 L 65 658 L 295 658 C 402 658 488 628 552 570 C 616 512 648 434 648 337 C 648 234 615 152 550 91 C 484 30 397 0 287 0 L 65 0 Z M 205 132 L 295 132 C 359 132 411 150 450 188 C 488 225 508 275 508 337 C 508 394 489 440 452 474 C 414 508 365 526 303 526 L 205 526 L 205 132 Z" unicode="D" />
<glyph horiz-adv-x="537" d="M 65 0 L 65 658 L 469 658 L 469 526 L 205 526 L 205 399 L 461 399 L 461 267 L 205 267 L 205 132 L 477 132 L 477 0 L 65 0 Z" unicode="E" />
<glyph horiz-adv-x="474" d="M 65 0 L 65 658 L 434 658 L 434 526 L 205 526 L 205 388 L 421 388 L 421 256 L 205 256 L 205 0 L 65 0 Z" unicode="F" />
<glyph horiz-adv-x="687" d="M 387 -16 C 280 -16 195 15 133 79 C 71 142 40 227 40 333 C 40 436 71 519 134 581 C 197 643 282 674 388 674 C 424 674 462 670 502 662 C 542 654 577 643 607 630 L 607 495 C 576 511 543 523 507 531 C 471 539 433 544 394 544 C 329 544 277 524 239 486 C 201 448 182 397 182 333 C 182 267 200 214 236 174 C 272 134 319 114 377 114 C 401 114 422 115 441 118 C 460 121 479 126 497 132 L 497 238 L 363 238 L 363 370 L 637 370 L 637 38 C 599 20 558 6 516 -2 C 474 -11 431 -16 387 -16 Z" unicode="G" />
<glyph horiz-adv-x="698" d="M 65 0 L 65 658 L 205 658 L 205 399 L 493 399 L 493 658 L 633 658 L 633 0 L 493 0 L 493 267 L 205 267 L 205 0 L 65 0 Z" unicode="H" />
<glyph horiz-adv-x="270" d="M 65 0 L 65 658 L 205 658 L 205 0 L 65 0 Z" unicode="I" />
<glyph horiz-adv-x="270" d="M -20 -210 L -28 -210 L -28 -80 L -20 -80 C 6 -80 26 -71 42 -54 C 57 -37 65 -14 65 14 L 65 658 L 205 658 L 205 14 C 205 -54 184 -108 143 -149 C 102 -189 48 -210 -20 -210 Z" unicode="J" />
<glyph horiz-adv-x="652" d="M 65 0 L 65 658 L 205 658 L 205 367 L 443 658 L 611 658 L 349 346 L 637 0 L 454 0 L 205 307 L 205 0 L 65 0 Z" unicode="K" />
<glyph horiz-adv-x="502" d="M 65 0 L 65 658 L 205 658 L 205 132 L 477 132 L 477 0 L 65 0 Z" unicode="L" />
<glyph horiz-adv-x="832" d="M 65 0 L 65 658 L 279 658 L 371 418 L 417 294 L 464 420 L 556 658 L 767 658 L 767 0 L 629 0 L 629 370 L 632 507 L 579 370 L 484 130 L 348 130 L 250 370 L 195 510 L 199 370 L 199 0 L 65 0 Z" unicode="M" />
<glyph horiz-adv-x="717" d="M 65 0 L 65 658 L 211 658 L 464 296 L 520 212 L 518 294 L 518 658 L 652 658 L 652 0 L 508 0 L 251 368 L 197 448 L 199 370 L 199 0 L 65 0 Z" unicode="N" />
<glyph horiz-adv-x="772" d="M 386 -16 C 281 -16 197 16 134 80 C 71 144 40 227 40 329 C 40 430 72 513 137 577 C 202 641 285 674 386 674 C 486 674 569 642 634 580 C 699 517 732 433 732 329 C 732 224 700 140 637 78 C 574 15 490 -16 386 -16 Z M 386 114 C 448 114 497 133 534 172 C 571 211 590 263 590 329 C 590 394 571 446 534 485 C 497 524 448 544 386 544 C 324 544 274 524 237 485 C 200 446 182 394 182 329 C 182 263 200 211 237 172 C 274 133 324 114 386 114 Z" unicode="O" />
<glyph horiz-adv-x="535" d="M 65 0 L 65 658 L 242 658 C 321 658 384 638 430 598 C 476 558 500 503 500 434 C 500 364 476 309 430 270 C 384 231 322 212 244 212 L 205 212 L 205 0 L 65 0 Z M 205 338 L 250 338 C 282 338 308 346 328 364 C 348 382 358 405 358 434 C 358 462 348 485 328 502 C 308 519 282 528 249 528 L 205 528 L 205 338 Z" unicode="P" />
<glyph horiz-adv-x="772" d="M 386 -16 C 281 -16 197 16 134 80 C 71 144 40 227 40 329 C 40 430 72 513 137 577 C 202 641 285 674 386 674 C 486 674 569 642 634 580 C 699 517 732 433 732 329 C 732 261 718 201 691 150 C 663 98 625 59 577 31 C 591 18 608 7 628 -3 C 648 -13 669 -20 693 -26 L 643 -154 C 597 -136 556 -116 520 -95 C 484 -73 450 -47 416 -15 C 411 -15 406 -16 401 -16 C 395 -16 390 -16 386 -16 Z M 386 114 C 448 114 497 133 534 172 C 571 211 590 263 590 329 C 590 394 571 446 534 485 C 497 524 448 544 386 544 C 324 544 274 524 237 485 C 200 446 182 394 182 329 C 182 263 200 211 237 172 C 274 133 324 114 386 114 Z" unicode="Q" />
<glyph horiz-adv-x="566" d="M 398 0 L 336 182 C 328 206 316 224 302 236 C 287 248 269 255 249 255 L 205 255 L 205 0 L 65 0 L 65 658 L 275 658 C 343 658 396 641 435 607 C 473 573 493 530 493 477 C 493 437 482 403 461 374 C 440 344 409 323 369 311 C 393 304 414 292 432 276 C 449 259 463 237 473 211 L 551 0 L 398 0 Z M 205 373 L 270 373 C 294 373 314 380 329 395 C 343 410 351 430 351 454 C 351 477 343 496 329 510 C 314 524 294 532 270 532 L 205 532 L 205 373 Z" unicode="R" />
<glyph horiz-adv-x="513" d="M 245 -14 C 211 -14 178 -10 146 -4 C 114 1 83 12 53 27 L 53 171 C 80 152 109 138 140 129 C 170 120 203 116 237 116 C 264 116 285 122 301 134 C 317 146 325 163 325 185 C 325 204 317 220 301 234 C 285 248 260 260 226 271 L 207 277 C 153 293 113 319 86 353 C 58 387 45 428 45 478 C 45 534 64 581 103 617 C 142 653 194 672 260 672 C 290 672 319 668 349 662 C 378 656 409 645 442 631 L 442 487 C 413 505 385 518 357 528 C 329 537 301 542 271 542 C 244 542 223 537 209 527 C 195 517 188 502 188 482 C 188 464 195 448 210 436 C 224 424 247 413 277 404 L 296 398 C 352 380 395 355 424 322 C 453 288 468 248 468 202 C 468 138 447 86 407 46 C 367 6 313 -14 245 -14 Z" unicode="S" />
<glyph horiz-adv-x="580" d="M 220 0 L 220 526 L 20 526 L 20 658 L 560 658 L 560 526 L 360 526 L 360 0 L 220 0 Z" unicode="T" />
<glyph horiz-adv-x="668" d="M 336 -12 C 248 -12 180 12 130 62 C 80 111 55 177 55 261 L 55 658 L 195 658 L 195 261 C 195 218 207 184 233 158 C 259 132 293 120 337 120 C 381 120 415 132 440 158 C 464 184 477 218 477 261 L 477 658 L 613 658 L 613 261 C 613 177 587 111 537 62 C 487 12 420 -12 336 -12 Z" unicode="U" />
<glyph horiz-adv-x="686" d="M 282 0 L 15 658 L 168 658 L 310 288 L 347 181 L 385 288 L 527 658 L 671 658 L 404 0 L 282 0 Z" unicode="V" />
<glyph horiz-adv-x="982" d="M 216 0 L 15 658 L 162 658 L 264 288 L 292 171 L 320 288 L 422 658 L 569 658 L 670 288 L 698 173 L 725 288 L 826 658 L 967 658 L 766 0 L 619 0 L 517 370 L 491 482 L 465 370 L 363 0 L 216 0 Z" unicode="W" />
<glyph horiz-adv-x="669" d="M 15 0 L 249 338 L 28 658 L 200 658 L 300 507 L 336 453 L 372 507 L 471 658 L 633 658 L 415 344 L 654 0 L 482 0 L 366 172 L 328 228 L 291 172 L 177 0 L 15 0 Z" unicode="X" />
<glyph horiz-adv-x="642" d="M 252 0 L 252 256 L 10 658 L 172 658 L 283 464 L 326 385 L 371 464 L 480 658 L 632 658 L 392 256 L 392 0 L 252 0 Z" unicode="Y" />
<glyph horiz-adv-x="587" d="M 40 0 L 40 78 L 302 466 L 343 526 L 51 526 L 51 658 L 547 658 L 547 580 L 285 191 L 245 132 L 547 132 L 547 0 L 40 0 Z" unicode="Z" />
<glyph horiz-adv-x="388" d="M 80 -210 L 80 716 L 328 716 L 328 600 L 212 600 L 212 -94 L 328 -94 L 328 -210 L 80 -210 Z" unicode="[" />
<glyph horiz-adv-x="476" d="M 328 0 L 20 716 L 148 716 L 456 0 L 328 0 Z" unicode="\" />
<glyph horiz-adv-x="388" d="M 60 -210 L 60 -94 L 176 -94 L 176 600 L 60 600 L 60 716 L 308 716 L 308 -210 L 60 -210 Z" unicode="]" />
<glyph horiz-adv-x="369" d="M 146 524 L 35 524 L 129 674 L 245 674 L 339 524 L 228 524 L 187 588 L 146 524 Z" unicode="^" />
<glyph horiz-adv-x="500" d="M 0 -210 L 0 -92 L 500 -92 L 500 -210 L 0 -210 Z" unicode="_" />
<glyph horiz-adv-x="239" d="M 97 524 L -20 674 L 130 674 L 229 524 L 97 524 Z" unicode="`" />
<glyph horiz-adv-x="483" d="M 178 -10 C 136 -10 101 2 75 27 C 49 51 36 85 36 127 C 36 171 51 207 81 234 C 111 260 156 279 216 290 L 302 305 L 302 315 C 302 331 294 343 279 351 C 264 359 242 364 213 364 C 186 364 159 360 132 352 C 104 344 79 334 57 322 L 57 450 C 84 458 114 466 146 474 C 178 482 208 486 234 486 C 301 486 352 471 386 442 C 420 412 438 371 438 319 L 438 0 L 313 0 L 303 62 C 290 39 272 21 250 9 C 228 -3 204 -10 178 -10 Z M 225 98 C 242 98 258 102 272 112 C 286 121 296 133 302 149 L 302 213 L 233 201 C 213 197 198 191 187 181 C 175 171 170 159 170 143 C 170 129 175 118 185 110 C 195 102 208 98 225 98 Z" unicode="a" />
<glyph horiz-adv-x="529" d="M 244 -10 C 211 -10 179 -7 147 -1 C 115 5 82 14 50 28 L 50 716 L 186 716 L 186 438 C 202 451 220 461 241 469 C 262 476 283 480 304 480 C 363 480 410 459 446 417 C 481 375 499 319 499 249 C 499 169 476 106 430 60 C 384 13 322 -10 244 -10 Z M 253 108 C 287 108 313 120 333 144 C 353 168 363 199 363 237 C 363 273 355 303 339 326 C 323 348 299 360 267 360 C 253 360 238 357 224 353 C 209 349 196 342 186 334 L 186 117 C 196 114 207 112 219 110 C 231 108 242 108 253 108 Z" unicode="b" />
<glyph horiz-adv-x="460" d="M 278 -10 C 201 -10 140 11 96 55 C 52 99 30 159 30 235 C 30 310 52 370 97 414 C 142 458 203 480 279 480 C 301 480 325 477 349 471 C 373 465 396 457 417 447 L 417 311 C 397 324 376 334 354 342 C 332 350 309 354 286 354 C 250 354 221 343 199 323 C 177 303 167 274 167 236 C 167 197 177 167 199 147 C 221 126 250 116 288 116 C 310 116 333 120 357 130 C 381 139 402 151 420 166 L 420 30 C 400 18 378 8 352 1 C 326 -6 302 -10 278 -10 Z" unicode="c" />
<glyph horiz-adv-x="534" d="M 229 -10 C 169 -10 120 11 84 54 C 48 97 30 154 30 226 C 30 302 50 364 92 410 C 134 456 188 480 256 480 C 270 480 286 478 304 474 C 321 470 336 466 348 461 L 348 716 L 484 716 L 484 0 L 359 0 L 349 62 C 337 40 321 23 299 10 C 277 -3 253 -10 229 -10 Z M 263 110 C 279 110 294 114 309 122 C 324 130 337 142 348 156 L 348 342 C 339 348 328 353 315 357 C 302 361 290 363 278 363 C 244 363 217 351 197 327 C 177 303 167 271 167 232 C 167 196 175 166 193 144 C 211 121 234 110 263 110 Z" unicode="d" />
<glyph horiz-adv-x="492" d="M 271 -10 C 196 -10 137 12 94 56 C 51 100 30 160 30 236 C 30 309 50 368 90 413 C 130 457 184 480 253 480 C 317 480 368 458 406 415 C 443 372 462 307 462 220 L 462 187 L 169 187 C 171 161 182 141 204 126 C 226 111 255 104 291 104 C 315 104 340 107 367 115 C 393 123 420 134 448 149 L 448 25 C 418 13 389 5 359 -1 C 329 -7 299 -10 271 -10 Z M 252 370 C 226 370 206 362 192 347 C 177 331 169 311 169 287 L 326 287 C 326 311 319 331 306 347 C 293 362 275 370 252 370 Z" unicode="e" />
<glyph horiz-adv-x="306" d="M 80 0 L 80 348 L 20 348 L 20 470 L 80 470 L 80 512 C 80 577 98 629 135 668 C 171 706 220 726 281 726 C 299 726 318 724 337 721 C 355 717 373 712 391 706 L 391 576 C 378 583 363 589 346 594 C 328 599 312 602 297 602 C 270 602 250 594 236 579 C 222 563 216 542 216 516 L 216 470 L 291 470 L 291 348 L 216 348 L 216 0 L 80 0 Z" unicode="f" />
<glyph horiz-adv-x="529" d="M 242 -220 C 209 -220 178 -217 148 -211 C 118 -205 90 -196 64 -185 L 64 -53 C 90 -67 115 -78 141 -87 C 167 -95 193 -100 219 -100 C 255 -100 285 -90 308 -72 C 331 -54 343 -27 343 8 L 343 35 C 329 20 312 9 292 1 C 272 -6 251 -10 230 -10 C 166 -10 117 11 82 53 C 47 95 30 154 30 230 C 30 301 50 360 91 408 C 132 456 188 480 259 480 C 281 480 304 475 330 466 C 355 457 375 445 390 429 L 419 470 L 479 470 L 479 22 C 479 -51 457 -110 414 -154 C 370 -198 313 -220 242 -220 Z M 263 110 C 278 110 292 112 306 118 C 320 123 332 130 343 138 L 343 349 C 333 352 323 355 311 358 C 299 360 287 362 276 362 C 240 362 213 348 195 322 C 176 296 167 265 167 231 C 167 195 175 165 191 143 C 207 121 231 110 263 110 Z" unicode="g" />
<glyph horiz-adv-x="522" d="M 50 0 L 50 716 L 186 716 L 186 408 C 202 432 222 450 245 462 C 268 474 293 480 321 480 C 369 480 407 464 435 434 C 463 403 477 359 477 301 L 477 0 L 341 0 L 341 276 C 341 302 335 322 324 336 C 312 349 296 356 274 356 C 256 356 240 351 226 342 C 211 333 198 320 186 304 L 186 0 L 50 0 Z" unicode="h" />
<glyph horiz-adv-x="246" d="M 55 584 L 55 716 L 191 716 L 191 584 L 55 584 Z M 55 0 L 55 470 L 191 470 L 191 0 L 55 0 Z" unicode="i" />
<glyph horiz-adv-x="238" d="M 52 584 L 52 716 L 188 716 L 188 584 L 52 584 Z M -22 -210 L -30 -210 L -30 -86 L -22 -86 C 0 -86 18 -79 32 -65 C 45 -51 52 -32 52 -8 L 52 470 L 188 470 L 188 -8 C 188 -70 169 -119 131 -155 C 93 -191 42 -210 -22 -210 Z" unicode="j" />
<glyph horiz-adv-x="510" d="M 50 0 L 50 716 L 186 716 L 186 266 L 335 470 L 493 470 L 322 249 L 504 0 L 340 0 L 186 218 L 186 0 L 50 0 Z" unicode="k" />
<glyph horiz-adv-x="236" d="M 50 0 L 50 716 L 186 716 L 186 0 L 50 0 Z" unicode="l" />
<glyph horiz-adv-x="809" d="M 50 0 L 50 470 L 186 470 L 186 408 C 203 432 223 450 245 462 C 267 474 293 480 323 480 C 355 480 383 472 406 458 C 429 443 447 423 459 398 C 481 428 504 450 529 462 C 553 474 580 480 608 480 C 654 480 691 464 720 434 C 749 403 764 359 764 301 L 764 0 L 628 0 L 628 276 C 628 302 621 322 609 336 C 597 349 581 356 561 356 C 544 356 528 352 514 345 C 499 338 486 328 475 314 L 475 0 L 339 0 L 339 276 C 339 302 333 322 322 336 C 310 349 294 356 272 356 C 254 356 238 351 224 342 C 210 333 197 320 186 304 L 186 0 L 50 0 Z" unicode="m" />
<glyph horiz-adv-x="522" d="M 50 0 L 50 470 L 186 470 L 186 408 C 202 432 222 450 245 462 C 268 474 293 480 321 480 C 369 480 407 464 435 434 C 463 403 477 359 477 301 L 477 0 L 341 0 L 341 276 C 341 302 335 322 324 336 C 312 349 296 356 274 356 C 256 356 240 351 226 342 C 211 333 198 320 186 304 L 186 0 L 50 0 Z" unicode="n" />
<glyph horiz-adv-x="548" d="M 274 -12 C 201 -12 142 10 97 56 C 52 101 30 160 30 234 C 30 308 52 367 97 413 C 142 459 201 482 274 482 C 346 482 405 459 450 414 C 495 368 518 309 518 236 C 518 162 495 102 450 56 C 405 10 346 -12 274 -12 Z M 274 112 C 306 112 331 123 351 146 C 370 168 380 198 380 234 C 380 270 370 300 351 323 C 331 346 306 358 274 358 C 242 358 216 346 197 324 C 177 301 168 272 168 236 C 168 199 177 169 197 146 C 216 123 242 112 274 112 Z" unicode="o" />
<glyph horiz-adv-x="529" d="M 50 -210 L 50 470 L 186 470 L 186 418 C 200 439 218 455 240 465 C 262 475 287 480 316 480 C 370 480 414 458 448 415 C 482 371 499 316 499 249 C 499 169 478 106 436 60 C 394 13 337 -10 267 -10 C 256 -10 243 -9 228 -7 C 213 -5 199 -3 186 -1 L 186 -210 L 50 -210 Z M 254 108 C 287 108 313 119 333 142 C 353 165 363 197 363 237 C 363 273 355 303 339 326 C 323 348 299 360 268 360 C 252 360 237 356 223 350 C 208 344 196 335 186 325 L 186 116 C 197 113 208 111 220 110 C 231 108 242 108 254 108 Z" unicode="p" />
<glyph horiz-adv-x="530" d="M 344 -210 L 344 35 C 330 20 312 9 292 1 C 272 -6 251 -10 229 -10 C 169 -10 120 11 84 54 C 48 97 30 154 30 226 C 30 304 50 365 91 411 C 131 457 186 480 256 480 C 278 480 303 475 329 466 C 355 457 376 445 391 429 L 420 470 L 480 470 L 480 -210 L 344 -210 Z M 263 111 C 280 111 295 113 309 119 C 322 125 334 131 344 139 L 344 349 C 334 353 322 356 310 359 C 298 361 286 363 276 363 C 242 363 216 351 196 328 C 176 304 167 273 167 233 C 167 197 175 167 193 145 C 211 122 234 111 263 111 Z" unicode="q" />
<glyph horiz-adv-x="343" d="M 50 0 L 50 470 L 186 470 L 186 400 C 198 426 214 446 232 460 C 250 473 269 480 290 480 C 296 480 303 479 309 479 C 315 478 322 477 328 476 L 328 328 C 318 331 307 333 297 335 C 286 337 275 338 265 338 C 249 338 235 335 221 330 C 207 324 195 317 186 309 L 186 0 L 50 0 Z" unicode="r" />
<glyph horiz-adv-x="413" d="M 189 -10 C 166 -10 141 -7 114 -2 C 87 3 63 10 42 18 L 42 136 C 62 124 85 115 111 109 C 136 102 160 99 183 99 C 202 99 217 101 227 106 C 237 111 242 119 242 130 C 242 138 238 146 231 152 C 224 158 210 164 190 172 L 176 177 C 126 195 90 215 68 239 C 46 262 35 293 35 331 C 35 377 49 413 78 440 C 107 466 151 480 209 480 C 231 480 255 477 281 473 C 307 468 332 462 354 456 L 354 338 C 334 348 312 356 288 362 C 264 368 241 371 221 371 C 204 371 191 368 183 363 C 175 358 171 351 171 342 C 171 333 174 326 182 320 C 190 314 205 307 227 299 L 241 294 C 290 276 325 256 346 234 C 367 211 378 182 378 148 C 378 100 362 61 330 33 C 298 4 251 -10 189 -10 Z" unicode="s" />
<glyph horiz-adv-x="330" d="M 203 -10 C 163 -10 133 0 112 22 C 90 44 80 75 80 116 L 80 348 L 20 348 L 20 470 L 80 470 L 80 593 L 216 593 L 216 470 L 300 470 L 300 348 L 216 348 L 216 159 C 216 144 220 133 228 125 C 236 117 246 114 258 114 C 265 114 272 114 279 116 C 285 118 292 120 300 124 L 300 7 C 285 1 269 -3 251 -6 C 233 -8 217 -10 203 -10 Z" unicode="t" />
<glyph horiz-adv-x="522" d="M 199 -11 C 152 -11 115 5 87 37 C 59 69 45 113 45 169 L 45 470 L 181 470 L 181 193 C 181 169 187 149 200 135 C 213 120 230 113 251 113 C 269 113 285 117 299 126 C 313 135 325 147 336 162 L 336 470 L 472 470 L 472 0 L 346 0 L 336 62 C 318 38 299 19 277 7 C 255 -4 229 -11 199 -11 Z" unicode="u" />
<glyph horiz-adv-x="503" d="M 172 0 L 10 470 L 155 470 L 226 238 L 254 137 L 284 238 L 355 470 L 493 470 L 331 0 L 172 0 Z" unicode="v" />
<glyph horiz-adv-x="777" d="M 148 0 L 10 470 L 150 470 L 214 238 L 240 125 L 265 238 L 325 470 L 466 470 L 526 238 L 550 130 L 575 238 L 639 470 L 767 470 L 629 0 L 465 0 L 416 193 L 390 308 L 363 193 L 314 0 L 148 0 Z" unicode="w" />
<glyph horiz-adv-x="498" d="M 10 0 L 169 238 L 15 470 L 171 470 L 222 388 L 248 342 L 274 388 L 327 470 L 478 470 L 326 242 L 488 0 L 332 0 L 275 91 L 248 138 L 220 91 L 161 0 L 10 0 Z" unicode="x" />
<glyph horiz-adv-x="503" d="M 17 -210 L 9 -210 L 9 -86 L 17 -86 C 62 -86 97 -81 122 -71 C 147 -61 166 -44 180 -20 L 168 14 L 10 470 L 155 470 L 226 238 L 254 137 L 284 238 L 355 470 L 493 470 L 347 47 C 313 -52 272 -120 226 -156 C 180 -192 110 -210 17 -210 Z" unicode="y" />
<glyph horiz-adv-x="450" d="M 35 0 L 35 99 L 188 295 L 231 348 L 39 348 L 39 470 L 410 470 L 410 371 L 256 175 L 213 122 L 415 122 L 415 0 L 35 0 Z" unicode="z" />
<glyph horiz-adv-x="489" d="M 419 -210 C 333 -210 267 -193 223 -159 C 179 -125 159 -75 165 -8 L 173 95 C 175 123 165 145 143 162 C 121 178 88 190 45 197 L 45 309 C 88 315 121 327 143 344 C 165 360 175 383 173 411 L 165 514 C 159 581 179 631 223 665 C 267 699 333 716 419 716 L 434 716 L 434 597 L 418 597 C 376 597 347 588 329 571 C 311 553 303 527 306 491 L 313 411 C 317 368 307 334 283 308 C 259 282 228 264 188 254 L 188 253 C 227 240 258 221 282 195 C 306 169 316 135 313 95 L 306 15 C 303 -21 311 -47 329 -65 C 347 -82 376 -91 418 -91 L 434 -91 L 434 -210 L 419 -210 Z" unicode="{" />
<glyph horiz-adv-x="276" d="M 80 -210 L 80 716 L 196 716 L 196 -210 L 80 -210 Z" unicode="|" />
<glyph horiz-adv-x="489" d="M 55 -210 L 55 -91 L 71 -91 C 112 -91 142 -82 160 -65 C 178 -47 185 -21 183 15 L 176 95 C 172 137 181 171 205 197 C 229 223 261 241 301 252 L 301 253 C 261 265 230 285 206 311 C 182 337 172 370 176 411 L 183 491 C 185 527 178 553 160 571 C 142 588 112 597 71 597 L 55 597 L 55 716 L 70 716 C 156 716 221 699 265 665 C 309 631 329 581 324 514 L 316 411 C 314 383 324 360 346 344 C 368 327 400 315 444 309 L 444 197 C 400 190 368 178 346 162 C 324 145 314 123 316 95 L 324 -8 C 329 -75 309 -125 265 -159 C 221 -193 156 -210 70 -210 L 55 -210 Z" unicode="}" />
<glyph horiz-adv-x="373" d="M 110 146 L 30 146 C 30 186 39 218 57 243 C 75 268 99 281 129 281 C 140 281 151 279 161 276 C 171 273 183 268 196 260 C 206 254 215 249 221 246 C 227 242 234 241 240 241 C 248 241 255 244 260 251 C 265 257 268 266 268 277 L 348 277 C 348 237 339 204 321 179 C 303 154 279 142 249 142 C 237 142 226 143 216 146 C 205 148 194 154 182 163 C 172 169 164 174 157 177 C 150 180 144 182 138 182 C 129 182 122 178 117 172 C 112 165 110 156 110 146 Z" unicode="~" />
<glyph horiz-adv-x="262" d="M 65 384 L 65 516 L 197 516 L 197 384 L 65 384 Z M 65 -202 L 65 299 L 197 299 L 197 -202 L 65 -202 Z" unicode="¡" />
<glyph horiz-adv-x="460" d="M 213 -120 L 213 -4 C 155 7 110 33 78 75 C 46 117 30 170 30 235 C 30 299 46 351 79 393 C 111 435 156 462 213 474 L 213 590 L 329 590 L 329 476 C 344 473 359 469 374 464 C 389 459 403 453 417 447 L 417 311 C 397 324 376 334 354 342 C 332 350 309 354 286 354 C 250 354 221 343 199 323 C 177 303 167 274 167 236 C 167 197 177 167 199 147 C 221 126 250 116 288 116 C 310 116 333 120 357 130 C 381 139 402 151 420 166 L 420 30 C 407 22 393 15 377 9 C 361 3 345 -1 329 -5 L 329 -120 L 213 -120 Z" unicode="¢" />
<glyph horiz-adv-x="538" d="M 59 0 L 59 135 C 83 149 102 167 115 191 C 127 214 133 241 131 272 L 50 272 L 50 396 L 106 396 L 103 407 C 84 488 92 553 127 601 C 162 649 227 674 323 674 C 353 674 383 670 412 664 C 440 657 469 647 498 633 L 498 503 C 473 519 448 532 422 540 C 396 548 368 553 339 553 C 299 553 270 541 252 517 C 234 493 231 458 242 410 L 245 396 L 367 396 L 367 272 L 270 272 C 272 245 268 220 260 196 C 251 172 237 150 218 132 L 498 132 L 498 0 L 59 0 Z" unicode="£" />
<glyph horiz-adv-x="681" d="M 139 22 L 42 120 L 157 235 C 151 248 146 262 143 278 C 139 294 138 310 138 327 C 138 342 139 357 142 371 C 145 385 149 398 154 410 L 35 529 L 132 626 L 248 510 C 262 516 276 521 292 525 C 308 528 324 530 341 530 C 357 530 373 528 389 525 C 405 521 419 516 433 510 L 549 626 L 646 529 L 528 411 C 532 398 536 385 539 371 C 542 357 544 342 544 327 C 544 309 542 293 539 277 C 535 261 530 246 524 233 L 639 118 L 542 21 L 423 140 C 410 134 397 130 383 128 C 369 125 355 124 341 124 C 326 124 311 125 297 128 C 283 131 269 135 257 140 L 139 22 Z M 341 248 C 365 248 384 255 398 271 C 412 286 420 305 420 327 C 420 349 412 367 398 383 C 384 398 365 406 341 406 C 317 406 297 398 283 383 C 269 367 262 349 262 327 C 262 305 269 286 283 271 C 297 255 317 248 341 248 Z" unicode="¤" />
<glyph horiz-adv-x="642" d="M 155 93 L 155 185 L 252 185 L 252 236 L 155 236 L 155 328 L 209 328 L 10 658 L 172 658 L 283 464 L 326 385 L 371 464 L 480 658 L 632 658 L 435 328 L 491 328 L 491 236 L 392 236 L 392 185 L 491 185 L 491 93 L 392 93 L 392 0 L 252 0 L 252 93 L 155 93 Z" unicode="¥" />
<glyph horiz-adv-x="276" d="M 80 308 L 80 716 L 196 716 L 196 308 L 80 308 Z M 80 -210 L 80 198 L 196 198 L 196 -210 L 80 -210 Z" unicode="¦" />
<glyph horiz-adv-x="457" d="M 205 -12 C 181 -12 155 -9 127 -4 C 99 0 74 7 52 16 L 52 135 C 72 123 95 114 121 108 C 146 101 170 98 193 98 C 213 98 227 100 237 105 C 247 109 252 118 252 131 C 252 143 246 152 236 158 C 225 164 208 169 186 174 L 172 177 C 127 186 95 203 75 228 C 55 252 45 280 45 312 C 45 337 51 360 64 380 C 76 400 93 416 113 429 C 99 441 89 456 81 474 C 73 491 69 510 69 530 C 69 570 83 604 111 630 C 139 656 181 670 237 670 C 259 670 284 667 312 663 C 340 658 365 652 388 645 L 388 527 C 368 537 346 545 322 551 C 298 557 275 560 255 560 C 238 560 225 557 217 553 C 209 548 205 540 205 530 C 205 518 210 510 220 504 C 230 498 245 493 266 489 L 280 486 C 326 476 360 458 381 433 C 401 407 412 381 412 355 C 412 323 406 297 394 279 C 382 261 367 246 349 236 C 361 223 370 208 377 192 C 384 175 388 156 388 136 C 388 94 372 59 342 31 C 311 2 265 -12 205 -12 Z M 251 288 C 253 287 255 286 257 286 C 259 286 262 285 264 285 C 270 289 274 294 277 301 C 280 307 282 315 282 324 C 282 336 276 347 265 357 C 254 367 237 374 213 380 L 200 383 C 199 383 198 383 198 383 C 198 383 197 383 197 384 C 190 379 185 373 182 365 C 179 357 178 350 178 344 C 178 332 182 322 192 313 C 202 303 217 296 239 291 L 251 288 Z" unicode="§" />
<glyph horiz-adv-x="269" d="M -20 529 L -20 653 L 104 653 L 104 529 L -20 529 Z M 170 529 L 170 653 L 294 653 L 294 529 L 170 529 Z" unicode="¨" />
<glyph horiz-adv-x="723" d="M 361 80 C 265 80 187 112 128 177 C 69 241 40 316 40 402 C 40 488 69 564 128 628 C 187 692 265 724 361 724 C 455 724 533 692 593 628 C 653 564 683 488 683 402 C 683 316 653 240 593 176 C 533 112 455 80 361 80 Z M 361 152 C 425 152 482 175 534 222 C 585 268 611 328 611 402 C 611 477 585 537 534 583 C 482 629 425 652 361 652 C 293 652 235 629 186 583 C 136 537 112 476 112 402 C 112 328 136 267 186 221 C 235 175 293 152 361 152 Z M 367 221 C 317 221 273 237 236 271 C 199 305 181 349 181 403 C 181 457 199 500 236 533 C 273 566 317 583 367 583 C 383 583 400 580 418 576 C 436 571 452 565 466 557 L 466 479 C 452 487 436 494 418 499 C 400 504 383 507 367 507 C 336 507 311 496 292 476 C 272 455 263 431 263 403 C 263 374 272 349 292 328 C 311 307 336 297 367 297 C 383 297 401 299 420 305 C 439 311 456 318 470 327 L 470 248 C 455 240 438 233 419 228 C 399 223 382 221 367 221 Z" unicode="©" />
<glyph horiz-adv-x="433" d="M 167 364 C 133 364 105 373 85 392 C 65 411 55 436 55 468 C 55 504 67 532 91 552 C 115 572 150 586 196 594 L 260 605 L 260 612 C 260 624 254 634 243 640 C 232 646 215 650 193 650 C 173 650 152 647 131 643 C 110 638 91 631 74 621 L 74 716 C 96 723 120 729 146 733 C 172 737 197 740 223 740 C 269 740 306 728 335 705 C 363 682 378 650 378 610 L 378 372 L 269 372 L 261 418 C 251 400 238 387 221 378 C 204 368 186 364 167 364 Z M 213 454 C 223 454 233 456 242 462 C 250 468 256 475 260 485 L 260 531 L 215 524 C 203 522 193 518 186 512 C 178 506 175 497 175 487 C 175 477 178 469 185 463 C 192 457 201 454 213 454 Z M 67 208 L 67 316 L 377 316 L 377 208 L 67 208 Z" unicode="ª" />
<glyph horiz-adv-x="639" d="M 195 63 L 40 226 L 195 390 L 355 390 L 200 226 L 355 63 L 195 63 Z M 439 63 L 284 226 L 439 390 L 599 390 L 444 226 L 599 63 L 439 63 Z" unicode="«" />
<glyph horiz-adv-x="504" d="M 348 118 L 348 235 L 50 235 L 50 353 L 454 353 L 454 118 L 348 118 Z" unicode="¬" />
<glyph horiz-adv-x="390" d="M 55 188 L 55 306 L 335 306 L 335 188 L 55 188 Z" unicode="­" />
<glyph horiz-adv-x="723" d="M 361 80 C 265 80 187 112 128 177 C 69 241 40 316 40 402 C 40 488 69 564 128 628 C 187 692 265 724 361 724 C 455 724 533 692 593 628 C 653 564 683 488 683 402 C 683 316 653 240 593 176 C 533 112 455 80 361 80 Z M 361 152 C 425 152 482 175 534 222 C 585 268 611 328 611 402 C 611 477 585 537 534 583 C 482 629 425 652 361 652 C 293 652 235 629 186 583 C 136 537 112 476 112 402 C 112 328 136 267 186 221 C 235 175 293 152 361 152 Z M 244 235 L 244 570 L 361 570 C 397 570 425 562 445 547 C 465 532 476 512 476 487 C 476 466 470 448 458 433 C 446 418 429 408 407 404 C 423 400 437 394 449 384 C 460 374 468 363 472 351 L 506 235 L 420 235 L 398 323 C 394 337 387 348 378 355 C 368 361 358 365 347 365 L 324 365 L 324 235 L 244 235 Z M 324 432 L 357 432 C 369 432 379 435 386 441 C 392 447 396 455 396 467 C 396 479 392 488 386 494 C 379 500 369 503 357 503 L 324 503 L 324 432 Z" unicode="®" />
<glyph horiz-adv-x="374" d="M 60 532 L 60 639 L 324 639 L 324 532 L 60 532 Z" unicode="¯" />
<glyph horiz-adv-x="372" d="M 186 449 C 142 449 108 462 83 490 C 57 518 45 551 45 589 C 45 627 57 660 83 688 C 108 716 142 730 186 730 C 229 730 263 716 289 688 C 314 660 327 627 327 589 C 327 551 314 518 289 490 C 263 462 229 449 186 449 Z M 186 536 C 200 536 213 540 223 550 C 233 559 239 572 239 589 C 239 605 233 618 223 628 C 213 638 200 643 186 643 C 171 643 158 638 148 628 C 138 618 133 605 133 589 C 133 572 138 559 148 550 C 158 540 171 536 186 536 Z" unicode="°" />
<glyph horiz-adv-x="494" d="M 185 87 L 185 235 L 45 235 L 45 353 L 185 353 L 185 501 L 309 501 L 309 353 L 449 353 L 449 235 L 309 235 L 309 87 L 185 87 Z M 48 -120 L 48 -2 L 452 -2 L 452 -120 L 48 -120 Z" unicode="±" />
<glyph horiz-adv-x="316" d="M 25 440 L 25 557 C 74 577 111 597 137 616 C 162 634 175 652 175 669 C 175 683 169 694 158 700 C 147 706 134 710 118 710 C 103 710 88 707 74 703 C 60 698 45 691 31 682 L 31 790 C 51 796 71 801 89 804 C 107 806 128 808 152 808 C 194 808 227 798 253 778 C 278 758 291 731 291 695 C 291 659 278 627 252 601 C 226 575 189 554 139 538 L 291 538 L 291 440 L 25 440 Z" unicode="²" />
<glyph horiz-adv-x="316" d="M 153 432 C 132 432 111 433 91 436 C 70 438 48 443 25 451 L 25 552 C 43 544 61 538 77 534 C 93 530 111 528 130 528 C 146 528 157 529 164 533 C 171 537 175 543 175 551 C 175 558 170 564 160 568 C 150 572 133 574 111 574 L 84 574 L 84 664 L 107 664 C 128 664 143 666 153 670 C 163 674 168 680 168 689 C 168 696 164 702 157 706 C 149 710 137 712 121 712 C 105 712 90 710 76 707 C 62 703 47 698 33 692 L 33 790 C 53 795 73 799 92 803 C 110 806 129 808 149 808 C 189 808 222 799 247 781 C 272 763 285 740 285 712 C 285 690 278 670 265 654 C 251 638 234 627 212 622 C 236 617 256 607 270 591 C 284 575 291 557 291 537 C 291 506 278 481 254 461 C 230 441 196 432 153 432 Z" unicode="³" />
<glyph horiz-adv-x="244" d="M 147 524 L 15 524 L 114 674 L 264 674 L 147 524 Z" unicode="´" />
<glyph horiz-adv-x="527" d="M 138 0 L 138 422 C 100 422 70 432 48 453 C 26 474 15 503 15 539 C 15 575 27 603 51 625 C 75 647 107 658 147 658 L 467 658 L 467 0 L 343 0 L 343 540 L 262 540 L 262 0 L 138 0 Z" unicode="¶" />
<glyph horiz-adv-x="222" d="M 45 181 L 45 313 L 177 313 L 177 181 L 45 181 Z" unicode="·" />
<glyph horiz-adv-x="226" d="M 129 -242 C 117 -242 104 -241 92 -239 C 80 -237 67 -233 55 -229 L 55 -154 C 65 -158 74 -162 83 -164 C 92 -166 101 -168 110 -168 C 118 -168 125 -165 131 -160 C 137 -155 140 -148 140 -140 C 140 -131 137 -124 131 -119 C 125 -113 118 -111 110 -111 L 99 -111 L 99 -40 L 111 -40 C 148 -40 178 -49 201 -68 C 224 -86 236 -111 236 -142 C 236 -172 226 -196 206 -214 C 186 -232 161 -242 129 -242 Z" unicode="¸" />
<glyph horiz-adv-x="315" d="M 34 440 L 34 534 L 106 534 L 106 701 L 25 694 L 25 788 L 218 808 L 218 534 L 290 534 L 290 440 L 34 440 Z" unicode="¹" />
<glyph horiz-adv-x="492" d="M 246 361 C 188 361 141 378 107 413 C 72 447 55 494 55 552 C 55 610 72 656 107 691 C 141 725 188 743 246 743 C 304 743 350 725 385 691 C 419 657 437 611 437 553 C 437 494 419 447 385 413 C 350 378 304 361 246 361 Z M 246 466 C 268 466 285 473 298 489 C 311 504 318 525 318 552 C 318 578 311 599 298 614 C 285 629 268 637 246 637 C 224 637 206 629 193 615 C 180 600 174 579 174 553 C 174 526 180 505 193 489 C 206 473 224 466 246 466 Z M 68 208 L 68 316 L 428 316 L 428 208 L 68 208 Z" unicode="º" />
<glyph horiz-adv-x="639" d="M 40 63 L 195 226 L 40 390 L 200 390 L 355 226 L 200 63 L 40 63 Z M 284 63 L 439 226 L 284 390 L 444 390 L 599 226 L 444 63 L 284 63 Z" unicode="»" />
<glyph horiz-adv-x="794" d="M 34 360 L 34 454 L 106 454 L 106 621 L 25 614 L 25 708 L 218 728 L 218 454 L 290 454 L 290 360 L 34 360 Z M 186 0 L 501 716 L 613 716 L 298 0 L 186 0 Z M 615 0 L 615 68 L 451 68 L 451 144 L 568 360 L 723 360 L 723 158 L 769 158 L 769 68 L 723 68 L 723 0 L 615 0 Z M 615 158 L 615 277 L 550 158 L 615 158 Z" unicode="¼" />
<glyph horiz-adv-x="778" d="M 34 360 L 34 454 L 106 454 L 106 621 L 25 614 L 25 708 L 218 728 L 218 454 L 290 454 L 290 360 L 34 360 Z M 186 0 L 501 716 L 613 716 L 298 0 L 186 0 Z M 487 0 L 487 117 C 536 137 573 157 599 176 C 624 194 637 212 637 229 C 637 243 631 254 620 260 C 609 266 596 270 580 270 C 565 270 550 267 536 263 C 522 258 507 251 493 242 L 493 350 C 513 356 533 361 551 364 C 569 366 590 368 614 368 C 656 368 689 358 715 338 C 740 318 753 291 753 255 C 753 219 740 187 714 161 C 688 135 651 114 601 98 L 753 98 L 753 0 L 487 0 Z" unicode="½" />
<glyph horiz-adv-x="777" d="M 153 352 C 132 352 111 353 91 356 C 70 358 48 363 25 371 L 25 472 C 43 464 61 458 77 454 C 93 450 111 448 130 448 C 146 448 157 449 164 453 C 171 457 175 463 175 471 C 175 478 170 484 160 488 C 150 492 133 494 111 494 L 84 494 L 84 584 L 107 584 C 128 584 143 586 153 590 C 163 594 168 600 168 609 C 168 616 164 622 157 626 C 149 630 137 632 121 632 C 105 632 90 630 76 627 C 62 623 47 618 33 612 L 33 710 C 53 715 73 719 92 723 C 110 726 129 728 149 728 C 189 728 222 719 247 701 C 272 683 285 660 285 632 C 285 610 278 590 265 574 C 251 558 234 547 212 542 C 236 537 256 527 270 511 C 284 495 291 477 291 457 C 291 426 278 401 254 381 C 230 361 196 352 153 352 Z M 162 0 L 477 716 L 589 716 L 274 0 L 162 0 Z M 598 0 L 598 68 L 434 68 L 434 144 L 551 360 L 706 360 L 706 158 L 752 158 L 752 68 L 706 68 L 706 0 L 598 0 Z M 598 158 L 598 277 L 533 158 L 598 158 Z" unicode="¾" />
<glyph horiz-adv-x="484" d="M 188 384 L 188 516 L 320 516 L 320 384 L 188 384 Z M 271 -200 C 193 -200 135 -181 97 -144 C 59 -107 40 -63 40 -13 C 40 19 46 49 59 76 C 72 103 94 131 124 161 C 148 185 165 207 175 229 C 185 250 191 273 191 299 L 319 299 C 319 259 312 224 299 194 C 286 164 265 134 235 105 C 215 86 201 68 193 52 C 185 36 181 18 181 0 C 181 -22 191 -41 212 -55 C 233 -69 261 -76 297 -76 C 322 -76 347 -72 372 -65 C 397 -58 421 -48 444 -35 L 444 -169 C 415 -179 386 -186 357 -192 C 328 -197 299 -200 271 -200 Z" unicode="¿" />
<glyph horiz-adv-x="685" d="M 282 706 L 176 841 L 311 841 L 400 706 L 282 706 Z M 15 0 L 277 658 L 408 658 L 670 0 L 518 0 L 465 140 L 212 140 L 159 0 L 15 0 Z M 257 264 L 419 264 L 379 370 L 338 486 L 296 370 L 257 264 Z" unicode="À" />
<glyph horiz-adv-x="685" d="M 404 706 L 286 706 L 375 841 L 510 841 L 404 706 Z M 15 0 L 277 658 L 408 658 L 670 0 L 518 0 L 465 140 L 212 140 L 159 0 L 15 0 Z M 257 264 L 419 264 L 379 370 L 338 486 L 296 370 L 257 264 Z" unicode="Á" />
<glyph horiz-adv-x="685" d="M 306 706 L 206 706 L 291 841 L 395 841 L 480 706 L 380 706 L 343 764 L 306 706 Z M 15 0 L 277 658 L 408 658 L 670 0 L 518 0 L 465 140 L 212 140 L 159 0 L 15 0 Z M 257 264 L 419 264 L 379 370 L 338 486 L 296 370 L 257 264 Z" unicode="Â" />
<glyph horiz-adv-x="685" d="M 273 706 L 201 706 C 201 742 209 771 225 793 C 241 815 263 827 290 827 C 300 827 310 825 319 823 C 328 820 338 815 350 808 C 359 803 367 799 373 796 C 379 792 384 791 390 791 C 397 791 403 794 408 800 C 412 806 415 814 415 824 L 487 824 C 487 788 478 758 462 736 C 446 713 424 702 398 702 C 387 702 377 703 368 706 C 358 708 348 713 338 721 C 329 727 321 731 315 734 C 309 736 303 738 298 738 C 290 738 284 735 280 729 C 275 723 273 716 273 706 Z M 15 0 L 277 658 L 408 658 L 670 0 L 518 0 L 465 140 L 212 140 L 159 0 L 15 0 Z M 257 264 L 419 264 L 379 370 L 338 486 L 296 370 L 257 264 Z" unicode="Ã" />
<glyph horiz-adv-x="685" d="M 201 706 L 201 817 L 312 817 L 312 706 L 201 706 Z M 372 706 L 372 817 L 483 817 L 483 706 L 372 706 Z M 15 0 L 277 658 L 408 658 L 670 0 L 518 0 L 465 140 L 212 140 L 159 0 L 15 0 Z M 257 264 L 419 264 L 379 370 L 338 486 L 296 370 L 257 264 Z" unicode="Ä" />
<glyph horiz-adv-x="685" d="M 15 0 L 266 630 C 259 638 254 648 251 658 C 247 668 246 679 246 691 C 246 717 254 740 272 760 C 290 780 314 790 344 790 C 374 790 397 780 415 760 C 433 740 442 717 442 691 C 442 679 440 667 436 656 C 432 645 426 635 420 627 L 670 0 L 518 0 L 465 140 L 212 140 L 159 0 L 15 0 Z M 344 658 C 352 658 360 661 367 667 C 373 673 377 681 377 691 C 377 701 373 710 367 716 C 360 722 352 726 344 726 C 335 726 327 722 321 716 C 314 710 311 701 311 691 C 311 681 314 673 321 667 C 327 661 335 658 344 658 Z M 257 264 L 419 264 L 379 370 L 338 486 L 296 370 L 257 264 Z" unicode="Å" />
<glyph horiz-adv-x="880" d="M 5 0 L 337 658 L 812 658 L 812 526 L 548 526 L 548 399 L 804 399 L 804 267 L 548 267 L 548 132 L 820 132 L 820 0 L 408 0 L 408 160 L 233 160 L 152 0 L 5 0 Z M 299 292 L 408 292 L 408 512 L 358 408 L 299 292 Z" unicode="Æ" />
<glyph horiz-adv-x="654" d="M 401 -16 C 290 -16 202 15 137 78 C 72 141 40 225 40 330 C 40 433 72 516 137 579 C 202 642 290 674 401 674 C 437 674 471 670 504 662 C 537 654 570 642 602 626 L 602 486 C 570 505 537 519 504 529 C 471 539 437 544 401 544 C 335 544 282 524 242 485 C 202 445 182 394 182 330 C 182 264 202 212 242 173 C 282 133 335 114 401 114 C 441 114 477 119 510 130 C 543 140 576 156 609 176 L 609 36 C 576 17 543 4 509 -4 C 475 -12 439 -16 401 -16 Z M 402 -230 C 391 -230 380 -229 368 -227 C 356 -225 345 -222 335 -218 L 335 -150 C 343 -154 352 -158 360 -160 C 368 -162 376 -163 384 -163 C 392 -163 399 -160 404 -156 C 409 -151 412 -145 412 -138 C 412 -130 409 -123 404 -119 C 398 -114 392 -112 384 -112 L 375 -112 L 375 -48 L 385 -48 C 419 -48 446 -56 467 -73 C 487 -90 498 -112 498 -140 C 498 -166 489 -188 471 -205 C 453 -221 430 -230 402 -230 Z" unicode="Ç" />
<glyph horiz-adv-x="537" d="M 215 706 L 109 841 L 244 841 L 333 706 L 215 706 Z M 65 0 L 65 658 L 469 658 L 469 526 L 205 526 L 205 399 L 461 399 L 461 267 L 205 267 L 205 132 L 477 132 L 477 0 L 65 0 Z" unicode="È" />
<glyph horiz-adv-x="537" d="M 337 706 L 219 706 L 308 841 L 443 841 L 337 706 Z M 65 0 L 65 658 L 469 658 L 469 526 L 205 526 L 205 399 L 461 399 L 461 267 L 205 267 L 205 132 L 477 132 L 477 0 L 65 0 Z" unicode="É" />
<glyph horiz-adv-x="537" d="M 239 706 L 139 706 L 224 841 L 328 841 L 413 706 L 313 706 L 276 764 L 239 706 Z M 65 0 L 65 658 L 469 658 L 469 526 L 205 526 L 205 399 L 461 399 L 461 267 L 205 267 L 205 132 L 477 132 L 477 0 L 65 0 Z" unicode="Ê" />
<glyph horiz-adv-x="537" d="M 134 706 L 134 817 L 245 817 L 245 706 L 134 706 Z M 305 706 L 305 817 L 416 817 L 416 706 L 305 706 Z M 65 0 L 65 658 L 469 658 L 469 526 L 205 526 L 205 399 L 461 399 L 461 267 L 205 267 L 205 132 L 477 132 L 477 0 L 65 0 Z" unicode="Ë" />
<glyph horiz-adv-x="270" d="M 77 706 L -29 841 L 106 841 L 195 706 L 77 706 Z M 65 0 L 65 658 L 205 658 L 205 0 L 65 0 Z" unicode="Ì" />
<glyph horiz-adv-x="270" d="M 199 706 L 81 706 L 170 841 L 305 841 L 199 706 Z M 65 0 L 65 658 L 205 658 L 205 0 L 65 0 Z" unicode="Í" />
<glyph horiz-adv-x="270" d="M 101 706 L 1 706 L 86 841 L 190 841 L 275 706 L 175 706 L 138 764 L 101 706 Z M 65 0 L 65 658 L 205 658 L 205 0 L 65 0 Z" unicode="Î" />
<glyph horiz-adv-x="270" d="M -4 706 L -4 817 L 107 817 L 107 706 L -4 706 Z M 167 706 L 167 817 L 278 817 L 278 706 L 167 706 Z M 65 0 L 65 658 L 205 658 L 205 0 L 65 0 Z" unicode="Ï" />
<glyph horiz-adv-x="708" d="M 75 0 L 75 265 L 30 265 L 30 385 L 75 385 L 75 658 L 305 658 C 412 658 498 628 562 570 C 626 512 658 434 658 337 C 658 234 625 152 560 91 C 494 30 407 0 297 0 L 75 0 Z M 215 132 L 305 132 C 369 132 421 150 460 188 C 498 225 518 275 518 337 C 518 394 499 440 462 474 C 424 508 375 526 313 526 L 215 526 L 215 385 L 310 385 L 310 265 L 215 265 L 215 132 Z" unicode="Ð" />
<glyph horiz-adv-x="717" d="M 292 706 L 220 706 C 220 742 228 771 244 793 C 260 815 282 827 309 827 C 319 827 329 825 338 823 C 347 820 357 815 369 808 C 378 803 386 799 392 796 C 398 792 403 791 409 791 C 416 791 422 794 427 800 C 431 806 434 814 434 824 L 506 824 C 506 788 497 758 481 736 C 465 713 443 702 417 702 C 406 702 396 703 387 706 C 377 708 367 713 357 721 C 348 727 340 731 334 734 C 328 736 322 738 317 738 C 309 738 303 735 299 729 C 294 723 292 716 292 706 Z M 65 0 L 65 658 L 211 658 L 464 296 L 520 212 L 518 294 L 518 658 L 652 658 L 652 0 L 508 0 L 251 368 L 197 448 L 199 370 L 199 0 L 65 0 Z" unicode="Ñ" />
<glyph horiz-adv-x="772" d="M 327 714 L 221 849 L 356 849 L 445 714 L 327 714 Z M 386 -16 C 281 -16 197 16 134 80 C 71 144 40 227 40 329 C 40 430 72 513 137 577 C 202 641 285 674 386 674 C 486 674 569 642 634 580 C 699 517 732 433 732 329 C 732 224 700 140 637 78 C 574 15 490 -16 386 -16 Z M 386 114 C 448 114 497 133 534 172 C 571 211 590 263 590 329 C 590 394 571 446 534 485 C 497 524 448 544 386 544 C 324 544 274 524 237 485 C 200 446 182 394 182 329 C 182 263 200 211 237 172 C 274 133 324 114 386 114 Z" unicode="Ò" />
<glyph horiz-adv-x="772" d="M 449 714 L 331 714 L 420 849 L 555 849 L 449 714 Z M 386 -16 C 281 -16 197 16 134 80 C 71 144 40 227 40 329 C 40 430 72 513 137 577 C 202 641 285 674 386 674 C 486 674 569 642 634 580 C 699 517 732 433 732 329 C 732 224 700 140 637 78 C 574 15 490 -16 386 -16 Z M 386 114 C 448 114 497 133 534 172 C 571 211 590 263 590 329 C 590 394 571 446 534 485 C 497 524 448 544 386 544 C 324 544 274 524 237 485 C 200 446 182 394 182 329 C 182 263 200 211 237 172 C 274 133 324 114 386 114 Z" unicode="Ó" />
<glyph horiz-adv-x="772" d="M 351 714 L 251 714 L 336 849 L 440 849 L 525 714 L 425 714 L 388 772 L 351 714 Z M 386 -16 C 281 -16 197 16 134 80 C 71 144 40 227 40 329 C 40 430 72 513 137 577 C 202 641 285 674 386 674 C 486 674 569 642 634 580 C 699 517 732 433 732 329 C 732 224 700 140 637 78 C 574 15 490 -16 386 -16 Z M 386 114 C 448 114 497 133 534 172 C 571 211 590 263 590 329 C 590 394 571 446 534 485 C 497 524 448 544 386 544 C 324 544 274 524 237 485 C 200 446 182 394 182 329 C 182 263 200 211 237 172 C 274 133 324 114 386 114 Z" unicode="Ô" />
<glyph horiz-adv-x="772" d="M 318 714 L 246 714 C 246 750 254 779 270 801 C 286 823 308 835 335 835 C 345 835 355 833 364 831 C 373 828 383 823 395 816 C 404 811 412 807 418 804 C 424 800 429 799 435 799 C 442 799 448 802 453 808 C 457 814 460 822 460 832 L 532 832 C 532 796 523 766 507 744 C 491 721 469 710 443 710 C 432 710 422 711 413 714 C 403 716 393 721 383 729 C 374 735 366 739 360 742 C 354 744 348 746 343 746 C 335 746 329 743 325 737 C 320 731 318 724 318 714 Z M 386 -16 C 281 -16 197 16 134 80 C 71 144 40 227 40 329 C 40 430 72 513 137 577 C 202 641 285 674 386 674 C 486 674 569 642 634 580 C 699 517 732 433 732 329 C 732 224 700 140 637 78 C 574 15 490 -16 386 -16 Z M 386 114 C 448 114 497 133 534 172 C 571 211 590 263 590 329 C 590 394 571 446 534 485 C 497 524 448 544 386 544 C 324 544 274 524 237 485 C 200 446 182 394 182 329 C 182 263 200 211 237 172 C 274 133 324 114 386 114 Z" unicode="Õ" />
<glyph horiz-adv-x="772" d="M 246 714 L 246 825 L 357 825 L 357 714 L 246 714 Z M 417 714 L 417 825 L 528 825 L 528 714 L 417 714 Z M 386 -16 C 281 -16 197 16 134 80 C 71 144 40 227 40 329 C 40 430 72 513 137 577 C 202 641 285 674 386 674 C 486 674 569 642 634 580 C 699 517 732 433 732 329 C 732 224 700 140 637 78 C 574 15 490 -16 386 -16 Z M 386 114 C 448 114 497 133 534 172 C 571 211 590 263 590 329 C 590 394 571 446 534 485 C 497 524 448 544 386 544 C 324 544 274 524 237 485 C 200 446 182 394 182 329 C 182 263 200 211 237 172 C 274 133 324 114 386 114 Z" unicode="Ö" />
<glyph horiz-adv-x="538" d="M 145 70 L 55 160 L 179 283 L 55 407 L 145 498 L 269 374 L 393 498 L 483 408 L 359 284 L 483 160 L 393 70 L 269 194 L 145 70 Z" unicode="×" />
<glyph horiz-adv-x="772" d="M 89 -48 L 155 60 C 119 90 90 129 70 175 C 50 221 40 272 40 329 C 40 430 72 513 137 577 C 202 641 285 674 386 674 C 410 674 433 672 455 668 C 477 664 499 658 519 652 L 552 706 L 686 706 L 618 596 C 654 566 682 528 702 483 C 722 437 732 386 732 329 C 732 224 700 140 637 78 C 574 15 490 -16 386 -16 C 362 -16 339 -14 317 -10 C 295 -6 275 -1 255 5 L 223 -48 L 89 -48 Z M 182 329 C 182 298 186 270 194 246 C 202 221 214 199 230 181 L 448 536 C 438 538 428 540 418 542 C 407 543 396 544 386 544 C 324 544 274 524 237 485 C 200 446 182 394 182 329 Z M 386 114 C 448 114 497 133 534 172 C 571 211 590 263 590 329 C 590 358 586 385 578 410 C 570 434 558 456 544 475 L 327 121 C 335 118 345 116 355 115 C 365 114 375 114 386 114 Z" unicode="Ø" />
<glyph horiz-adv-x="668" d="M 279 706 L 173 841 L 308 841 L 397 706 L 279 706 Z M 336 -12 C 248 -12 180 12 130 62 C 80 111 55 177 55 261 L 55 658 L 195 658 L 195 261 C 195 218 207 184 233 158 C 259 132 293 120 337 120 C 381 120 415 132 440 158 C 464 184 477 218 477 261 L 477 658 L 613 658 L 613 261 C 613 177 587 111 537 62 C 487 12 420 -12 336 -12 Z" unicode="Ù" />
<glyph horiz-adv-x="668" d="M 401 706 L 283 706 L 372 841 L 507 841 L 401 706 Z M 336 -12 C 248 -12 180 12 130 62 C 80 111 55 177 55 261 L 55 658 L 195 658 L 195 261 C 195 218 207 184 233 158 C 259 132 293 120 337 120 C 381 120 415 132 440 158 C 464 184 477 218 477 261 L 477 658 L 613 658 L 613 261 C 613 177 587 111 537 62 C 487 12 420 -12 336 -12 Z" unicode="Ú" />
<glyph horiz-adv-x="668" d="M 303 706 L 203 706 L 288 841 L 392 841 L 477 706 L 377 706 L 340 764 L 303 706 Z M 336 -12 C 248 -12 180 12 130 62 C 80 111 55 177 55 261 L 55 658 L 195 658 L 195 261 C 195 218 207 184 233 158 C 259 132 293 120 337 120 C 381 120 415 132 440 158 C 464 184 477 218 477 261 L 477 658 L 613 658 L 613 261 C 613 177 587 111 537 62 C 487 12 420 -12 336 -12 Z" unicode="Û" />
<glyph horiz-adv-x="668" d="M 198 706 L 198 817 L 309 817 L 309 706 L 198 706 Z M 369 706 L 369 817 L 480 817 L 480 706 L 369 706 Z M 336 -12 C 248 -12 180 12 130 62 C 80 111 55 177 55 261 L 55 658 L 195 658 L 195 261 C 195 218 207 184 233 158 C 259 132 293 120 337 120 C 381 120 415 132 440 158 C 464 184 477 218 477 261 L 477 658 L 613 658 L 613 261 C 613 177 587 111 537 62 C 487 12 420 -12 336 -12 Z" unicode="Ü" />
<glyph horiz-adv-x="642" d="M 384 706 L 266 706 L 355 841 L 490 841 L 384 706 Z M 252 0 L 252 256 L 10 658 L 172 658 L 283 464 L 326 385 L 371 464 L 480 658 L 632 658 L 392 256 L 392 0 L 252 0 Z" unicode="Ý" />
<glyph horiz-adv-x="530" d="M 65 0 L 65 658 L 205 658 L 205 558 L 243 558 C 321 558 382 537 427 497 C 472 457 495 402 495 333 C 495 263 472 208 427 168 C 382 128 321 108 243 108 L 205 108 L 205 0 L 65 0 Z M 205 238 L 245 238 C 277 238 303 246 323 264 C 343 281 353 304 353 333 C 353 361 343 384 323 402 C 303 419 277 428 244 428 L 205 428 L 205 238 Z" unicode="Þ" />
<glyph horiz-adv-x="614" d="M 55 0 L 55 455 C 55 546 78 614 126 659 C 173 703 234 726 309 726 C 382 726 442 703 489 659 C 536 615 560 554 560 476 C 560 455 558 433 556 411 C 554 389 551 368 548 350 C 531 356 512 361 492 365 C 471 369 451 371 433 371 C 413 371 398 368 390 363 C 381 357 377 350 377 341 C 377 330 382 321 392 315 C 402 309 418 303 438 299 L 446 297 C 488 286 520 269 544 245 C 567 221 579 190 579 152 C 579 100 562 60 530 32 C 498 4 455 -10 402 -10 C 380 -10 356 -8 331 -4 C 305 0 279 4 253 11 L 253 129 C 275 119 298 111 322 106 C 345 101 368 99 391 99 C 409 99 423 101 433 107 C 442 113 447 121 447 133 C 447 143 441 152 431 158 C 421 164 406 169 388 174 L 380 176 C 336 186 302 204 279 230 C 256 255 245 289 245 331 C 245 373 258 409 286 437 C 314 465 349 480 392 480 C 400 480 408 479 414 479 C 420 479 427 478 436 478 C 440 516 432 548 412 572 C 391 596 358 608 312 608 C 275 608 246 594 224 568 C 202 542 191 507 191 463 L 191 0 L 55 0 Z" unicode="ß" />
<glyph horiz-adv-x="487" d="M 182 524 L 65 674 L 215 674 L 314 524 L 182 524 Z M 178 -10 C 136 -10 101 2 75 27 C 49 51 36 85 36 127 C 36 171 51 207 81 234 C 111 260 156 279 216 290 L 302 305 L 302 315 C 302 331 294 343 279 351 C 264 359 242 364 213 364 C 186 364 159 360 132 352 C 104 344 79 334 57 322 L 57 450 C 84 458 114 466 146 474 C 178 482 208 486 234 486 C 301 486 352 471 386 442 C 420 412 438 371 438 319 L 438 0 L 313 0 L 303 62 C 290 39 272 21 250 9 C 228 -3 204 -10 178 -10 Z M 225 98 C 242 98 258 102 272 112 C 286 121 296 133 302 149 L 302 213 L 233 201 C 213 197 198 191 187 181 C 175 171 170 159 170 143 C 170 129 175 118 185 110 C 195 102 208 98 225 98 Z" unicode="à" />
<glyph horiz-adv-x="487" d="M 302 524 L 170 524 L 269 674 L 419 674 L 302 524 Z M 178 -10 C 136 -10 101 2 75 27 C 49 51 36 85 36 127 C 36 171 51 207 81 234 C 111 260 156 279 216 290 L 302 305 L 302 315 C 302 331 294 343 279 351 C 264 359 242 364 213 364 C 186 364 159 360 132 352 C 104 344 79 334 57 322 L 57 450 C 84 458 114 466 146 474 C 178 482 208 486 234 486 C 301 486 352 471 386 442 C 420 412 438 371 438 319 L 438 0 L 313 0 L 303 62 C 290 39 272 21 250 9 C 228 -3 204 -10 178 -10 Z M 225 98 C 242 98 258 102 272 112 C 286 121 296 133 302 149 L 302 213 L 233 201 C 213 197 198 191 187 181 C 175 171 170 159 170 143 C 170 129 175 118 185 110 C 195 102 208 98 225 98 Z" unicode="á" />
<glyph horiz-adv-x="487" d="M 201 524 L 90 524 L 184 674 L 300 674 L 394 524 L 283 524 L 242 588 L 201 524 Z M 178 -10 C 136 -10 101 2 75 27 C 49 51 36 85 36 127 C 36 171 51 207 81 234 C 111 260 156 279 216 290 L 302 305 L 302 315 C 302 331 294 343 279 351 C 264 359 242 364 213 364 C 186 364 159 360 132 352 C 104 344 79 334 57 322 L 57 450 C 84 458 114 466 146 474 C 178 482 208 486 234 486 C 301 486 352 471 386 442 C 420 412 438 371 438 319 L 438 0 L 313 0 L 303 62 C 290 39 272 21 250 9 C 228 -3 204 -10 178 -10 Z M 225 98 C 242 98 258 102 272 112 C 286 121 296 133 302 149 L 302 213 L 233 201 C 213 197 198 191 187 181 C 175 171 170 159 170 143 C 170 129 175 118 185 110 C 195 102 208 98 225 98 Z" unicode="â" />
<glyph horiz-adv-x="487" d="M 165 524 L 85 524 C 85 564 94 596 112 621 C 130 646 154 659 184 659 C 195 659 206 657 216 654 C 226 651 238 646 251 638 C 261 632 270 627 276 624 C 282 620 289 619 295 619 C 303 619 310 622 315 629 C 320 635 323 644 323 655 L 403 655 C 403 615 394 582 376 557 C 358 532 334 520 304 520 C 292 520 281 521 271 524 C 260 526 249 532 237 541 C 227 547 219 552 212 555 C 205 558 199 560 193 560 C 184 560 177 556 172 550 C 167 543 165 534 165 524 Z M 178 -10 C 136 -10 101 2 75 27 C 49 51 36 85 36 127 C 36 171 51 207 81 234 C 111 260 156 279 216 290 L 302 305 L 302 315 C 302 331 294 343 279 351 C 264 359 242 364 213 364 C 186 364 159 360 132 352 C 104 344 79 334 57 322 L 57 450 C 84 458 114 466 146 474 C 178 482 208 486 234 486 C 301 486 352 471 386 442 C 420 412 438 371 438 319 L 438 0 L 313 0 L 303 62 C 290 39 272 21 250 9 C 228 -3 204 -10 178 -10 Z M 225 98 C 242 98 258 102 272 112 C 286 121 296 133 302 149 L 302 213 L 233 201 C 213 197 198 191 187 181 C 175 171 170 159 170 143 C 170 129 175 118 185 110 C 195 102 208 98 225 98 Z" unicode="ã" />
<glyph horiz-adv-x="487" d="M 85 525 L 85 649 L 209 649 L 209 525 L 85 525 Z M 275 525 L 275 649 L 399 649 L 399 525 L 275 525 Z M 178 -10 C 136 -10 101 2 75 27 C 49 51 36 85 36 127 C 36 171 51 207 81 234 C 111 260 156 279 216 290 L 302 305 L 302 315 C 302 331 294 343 279 351 C 264 359 242 364 213 364 C 186 364 159 360 132 352 C 104 344 79 334 57 322 L 57 450 C 84 458 114 466 146 474 C 178 482 208 486 234 486 C 301 486 352 471 386 442 C 420 412 438 371 438 319 L 438 0 L 313 0 L 303 62 C 290 39 272 21 250 9 C 228 -3 204 -10 178 -10 Z M 225 98 C 242 98 258 102 272 112 C 286 121 296 133 302 149 L 302 213 L 233 201 C 213 197 198 191 187 181 C 175 171 170 159 170 143 C 170 129 175 118 185 110 C 195 102 208 98 225 98 Z" unicode="ä" />
<glyph horiz-adv-x="487" d="M 178 -10 C 136 -10 101 2 75 27 C 49 51 36 85 36 127 C 36 171 51 207 81 234 C 111 260 156 279 216 290 L 302 305 L 302 315 C 302 331 294 343 279 351 C 264 359 242 364 213 364 C 186 364 159 360 132 352 C 104 344 79 334 57 322 L 57 450 C 70 454 84 459 100 463 C 115 467 130 471 145 474 C 142 481 140 489 138 497 C 136 505 135 514 135 523 C 135 553 144 578 164 600 C 184 621 210 632 244 632 C 277 632 303 621 323 600 C 343 578 353 553 353 523 C 353 513 351 503 349 494 C 347 485 344 477 340 469 C 372 456 397 437 413 411 C 429 385 438 355 438 319 L 438 0 L 313 0 L 303 62 C 290 39 272 21 250 9 C 228 -3 204 -10 178 -10 Z M 244 486 C 254 486 262 489 270 496 C 277 502 281 511 281 523 C 281 534 277 543 270 550 C 262 557 254 561 244 561 C 234 561 225 557 218 550 C 210 543 207 534 207 523 C 207 511 210 502 218 496 C 225 489 234 486 244 486 Z M 225 98 C 242 98 258 102 272 112 C 286 121 296 133 302 149 L 302 213 L 233 201 C 213 197 198 191 187 181 C 175 171 170 159 170 143 C 170 129 175 118 185 110 C 195 102 208 98 225 98 Z" unicode="å" />
<glyph horiz-adv-x="767" d="M 198 -10 C 150 -10 111 2 83 27 C 54 51 40 84 40 126 C 40 172 55 208 85 236 C 115 264 161 283 221 294 L 306 309 L 306 320 C 306 337 298 350 282 358 C 266 366 243 370 211 370 C 186 370 160 366 133 360 C 106 354 82 345 61 334 L 61 450 C 87 458 117 465 150 471 C 183 477 214 480 243 480 C 275 480 304 475 328 467 C 352 458 372 447 388 433 C 406 448 426 460 450 468 C 473 476 498 480 524 480 C 589 480 641 458 679 415 C 717 372 737 307 737 220 L 737 187 L 444 187 C 446 162 457 142 479 128 C 501 113 530 106 566 106 C 588 106 614 109 643 116 C 671 123 698 133 723 145 L 723 25 C 695 14 664 5 632 0 C 599 -6 570 -10 546 -10 C 504 -10 467 -3 435 11 C 403 25 378 44 358 69 C 339 43 316 23 290 10 C 264 -3 233 -10 198 -10 Z M 522 368 C 498 368 480 360 466 346 C 452 331 445 312 444 289 L 601 289 C 601 313 593 333 579 347 C 564 361 545 368 522 368 Z M 234 100 C 250 100 265 104 278 114 C 291 123 300 135 306 150 L 306 212 L 239 200 C 220 196 205 190 194 181 C 182 172 177 160 177 146 C 177 131 182 120 192 112 C 202 104 216 100 234 100 Z" unicode="æ" />
<glyph horiz-adv-x="460" d="M 278 -10 C 201 -10 140 11 96 55 C 52 99 30 159 30 235 C 30 310 52 370 97 414 C 142 458 203 480 279 480 C 301 480 325 477 349 471 C 373 465 396 457 417 447 L 417 311 C 397 324 376 334 354 342 C 332 350 309 354 286 354 C 250 354 221 343 199 323 C 177 303 167 274 167 236 C 167 197 177 167 199 147 C 221 126 250 116 288 116 C 310 116 333 120 357 130 C 381 139 402 151 420 166 L 420 30 C 400 18 378 8 352 1 C 326 -6 302 -10 278 -10 Z M 264 -242 C 252 -242 239 -241 227 -239 C 215 -237 202 -233 190 -229 L 190 -154 C 200 -158 209 -162 218 -164 C 227 -166 236 -168 245 -168 C 253 -168 260 -165 266 -160 C 272 -155 275 -148 275 -140 C 275 -131 272 -124 266 -119 C 260 -113 253 -111 245 -111 L 234 -111 L 234 -40 L 246 -40 C 283 -40 313 -49 336 -68 C 359 -86 371 -111 371 -142 C 371 -172 361 -196 341 -214 C 321 -232 296 -242 264 -242 Z" unicode="ç" />
<glyph horiz-adv-x="492" d="M 196 524 L 79 674 L 229 674 L 328 524 L 196 524 Z M 271 -10 C 196 -10 137 12 94 56 C 51 100 30 160 30 236 C 30 309 50 368 90 413 C 130 457 184 480 253 480 C 317 480 368 458 406 415 C 443 372 462 307 462 220 L 462 187 L 169 187 C 171 161 182 141 204 126 C 226 111 255 104 291 104 C 315 104 340 107 367 115 C 393 123 420 134 448 149 L 448 25 C 418 13 389 5 359 -1 C 329 -7 299 -10 271 -10 Z M 252 370 C 226 370 206 362 192 347 C 177 331 169 311 169 287 L 326 287 C 326 311 319 331 306 347 C 293 362 275 370 252 370 Z" unicode="è" />
<glyph horiz-adv-x="492" d="M 316 524 L 184 524 L 283 674 L 433 674 L 316 524 Z M 271 -10 C 196 -10 137 12 94 56 C 51 100 30 160 30 236 C 30 309 50 368 90 413 C 130 457 184 480 253 480 C 317 480 368 458 406 415 C 443 372 462 307 462 220 L 462 187 L 169 187 C 171 161 182 141 204 126 C 226 111 255 104 291 104 C 315 104 340 107 367 115 C 393 123 420 134 448 149 L 448 25 C 418 13 389 5 359 -1 C 329 -7 299 -10 271 -10 Z M 252 370 C 226 370 206 362 192 347 C 177 331 169 311 169 287 L 326 287 C 326 311 319 331 306 347 C 293 362 275 370 252 370 Z" unicode="é" />
<glyph horiz-adv-x="492" d="M 215 524 L 104 524 L 198 674 L 314 674 L 408 524 L 297 524 L 256 588 L 215 524 Z M 271 -10 C 196 -10 137 12 94 56 C 51 100 30 160 30 236 C 30 309 50 368 90 413 C 130 457 184 480 253 480 C 317 480 368 458 406 415 C 443 372 462 307 462 220 L 462 187 L 169 187 C 171 161 182 141 204 126 C 226 111 255 104 291 104 C 315 104 340 107 367 115 C 393 123 420 134 448 149 L 448 25 C 418 13 389 5 359 -1 C 329 -7 299 -10 271 -10 Z M 252 370 C 226 370 206 362 192 347 C 177 331 169 311 169 287 L 326 287 C 326 311 319 331 306 347 C 293 362 275 370 252 370 Z" unicode="ê" />
<glyph horiz-adv-x="492" d="M 99 525 L 99 649 L 223 649 L 223 525 L 99 525 Z M 289 525 L 289 649 L 413 649 L 413 525 L 289 525 Z M 271 -10 C 196 -10 137 12 94 56 C 51 100 30 160 30 236 C 30 309 50 368 90 413 C 130 457 184 480 253 480 C 317 480 368 458 406 415 C 443 372 462 307 462 220 L 462 187 L 169 187 C 171 161 182 141 204 126 C 226 111 255 104 291 104 C 315 104 340 107 367 115 C 393 123 420 134 448 149 L 448 25 C 418 13 389 5 359 -1 C 329 -7 299 -10 271 -10 Z M 252 370 C 226 370 206 362 192 347 C 177 331 169 311 169 287 L 326 287 C 326 311 319 331 306 347 C 293 362 275 370 252 370 Z" unicode="ë" />
<glyph horiz-adv-x="246" d="M 67 524 L -50 674 L 100 674 L 199 524 L 67 524 Z M 55 0 L 55 470 L 191 470 L 191 0 L 55 0 Z" unicode="ì" />
<glyph horiz-adv-x="246" d="M 187 524 L 55 524 L 154 674 L 304 674 L 187 524 Z M 55 0 L 55 470 L 191 470 L 191 0 L 55 0 Z" unicode="í" />
<glyph horiz-adv-x="246" d="M 86 524 L -25 524 L 69 674 L 185 674 L 279 524 L 168 524 L 127 588 L 86 524 Z M 55 0 L 55 470 L 191 470 L 191 0 L 55 0 Z" unicode="î" />
<glyph horiz-adv-x="246" d="M -30 525 L -30 649 L 94 649 L 94 525 L -30 525 Z M 160 525 L 160 649 L 284 649 L 284 525 L 160 525 Z M 55 0 L 55 470 L 191 470 L 191 0 L 55 0 Z" unicode="ï" />
<glyph horiz-adv-x="558" d="M 279 -12 C 203 -12 143 9 98 53 C 52 97 30 157 30 234 C 30 308 52 368 96 414 C 140 459 196 482 265 482 C 289 482 312 478 332 472 C 352 466 370 456 385 442 C 377 460 368 477 358 495 C 348 513 336 530 324 547 L 214 512 L 180 619 L 235 636 C 222 646 209 656 195 666 C 181 675 166 684 151 693 L 287 748 C 301 738 316 728 330 716 C 344 704 357 692 370 679 L 474 712 L 508 605 L 442 584 C 468 540 489 491 505 439 C 520 387 528 333 528 278 C 528 182 505 110 459 61 C 413 12 353 -12 279 -12 Z M 278 114 C 310 114 336 124 356 146 C 376 168 387 197 387 234 C 387 271 376 301 356 324 C 335 346 308 358 276 358 C 244 358 218 346 198 324 C 178 302 168 272 168 236 C 168 198 178 169 198 147 C 218 125 245 114 278 114 Z" unicode="ð" />
<glyph horiz-adv-x="522" d="M 189 524 L 109 524 C 109 564 118 596 136 621 C 154 646 178 659 208 659 C 219 659 230 657 240 654 C 250 651 262 646 275 638 C 285 632 294 627 300 624 C 306 620 313 619 319 619 C 327 619 334 622 339 629 C 344 635 347 644 347 655 L 427 655 C 427 615 418 582 400 557 C 382 532 358 520 328 520 C 316 520 305 521 295 524 C 284 526 273 532 261 541 C 251 547 243 552 236 555 C 229 558 223 560 217 560 C 208 560 201 556 196 550 C 191 543 189 534 189 524 Z M 50 0 L 50 470 L 186 470 L 186 408 C 202 432 222 450 245 462 C 268 474 293 480 321 480 C 369 480 407 464 435 434 C 463 403 477 359 477 301 L 477 0 L 341 0 L 341 276 C 341 302 335 322 324 336 C 312 349 296 356 274 356 C 256 356 240 351 226 342 C 211 333 198 320 186 304 L 186 0 L 50 0 Z" unicode="ñ" />
<glyph horiz-adv-x="548" d="M 216 524 L 99 674 L 249 674 L 348 524 L 216 524 Z M 274 -12 C 201 -12 142 10 97 56 C 52 101 30 160 30 234 C 30 308 52 367 97 413 C 142 459 201 482 274 482 C 346 482 405 459 450 414 C 495 368 518 309 518 236 C 518 162 495 102 450 56 C 405 10 346 -12 274 -12 Z M 274 112 C 306 112 331 123 351 146 C 370 168 380 198 380 234 C 380 270 370 300 351 323 C 331 346 306 358 274 358 C 242 358 216 346 197 324 C 177 301 168 272 168 236 C 168 199 177 169 197 146 C 216 123 242 112 274 112 Z" unicode="ò" />
<glyph horiz-adv-x="548" d="M 336 524 L 204 524 L 303 674 L 453 674 L 336 524 Z M 274 -12 C 201 -12 142 10 97 56 C 52 101 30 160 30 234 C 30 308 52 367 97 413 C 142 459 201 482 274 482 C 346 482 405 459 450 414 C 495 368 518 309 518 236 C 518 162 495 102 450 56 C 405 10 346 -12 274 -12 Z M 274 112 C 306 112 331 123 351 146 C 370 168 380 198 380 234 C 380 270 370 300 351 323 C 331 346 306 358 274 358 C 242 358 216 346 197 324 C 177 301 168 272 168 236 C 168 199 177 169 197 146 C 216 123 242 112 274 112 Z" unicode="ó" />
<glyph horiz-adv-x="548" d="M 235 524 L 124 524 L 218 674 L 334 674 L 428 524 L 317 524 L 276 588 L 235 524 Z M 274 -12 C 201 -12 142 10 97 56 C 52 101 30 160 30 234 C 30 308 52 367 97 413 C 142 459 201 482 274 482 C 346 482 405 459 450 414 C 495 368 518 309 518 236 C 518 162 495 102 450 56 C 405 10 346 -12 274 -12 Z M 274 112 C 306 112 331 123 351 146 C 370 168 380 198 380 234 C 380 270 370 300 351 323 C 331 346 306 358 274 358 C 242 358 216 346 197 324 C 177 301 168 272 168 236 C 168 199 177 169 197 146 C 216 123 242 112 274 112 Z" unicode="ô" />
<glyph horiz-adv-x="548" d="M 199 524 L 119 524 C 119 564 128 596 146 621 C 164 646 188 659 218 659 C 229 659 240 657 250 654 C 260 651 272 646 285 638 C 295 632 304 627 310 624 C 316 620 323 619 329 619 C 337 619 344 622 349 629 C 354 635 357 644 357 655 L 437 655 C 437 615 428 582 410 557 C 392 532 368 520 338 520 C 326 520 315 521 305 524 C 294 526 283 532 271 541 C 261 547 253 552 246 555 C 239 558 233 560 227 560 C 218 560 211 556 206 550 C 201 543 199 534 199 524 Z M 274 -12 C 201 -12 142 10 97 56 C 52 101 30 160 30 234 C 30 308 52 367 97 413 C 142 459 201 482 274 482 C 346 482 405 459 450 414 C 495 368 518 309 518 236 C 518 162 495 102 450 56 C 405 10 346 -12 274 -12 Z M 274 112 C 306 112 331 123 351 146 C 370 168 380 198 380 234 C 380 270 370 300 351 323 C 331 346 306 358 274 358 C 242 358 216 346 197 324 C 177 301 168 272 168 236 C 168 199 177 169 197 146 C 216 123 242 112 274 112 Z" unicode="õ" />
<glyph horiz-adv-x="548" d="M 119 525 L 119 649 L 243 649 L 243 525 L 119 525 Z M 309 525 L 309 649 L 433 649 L 433 525 L 309 525 Z M 274 -12 C 201 -12 142 10 97 56 C 52 101 30 160 30 234 C 30 308 52 367 97 413 C 142 459 201 482 274 482 C 346 482 405 459 450 414 C 495 368 518 309 518 236 C 518 162 495 102 450 56 C 405 10 346 -12 274 -12 Z M 274 112 C 306 112 331 123 351 146 C 370 168 380 198 380 234 C 380 270 370 300 351 323 C 331 346 306 358 274 358 C 242 358 216 346 197 324 C 177 301 168 272 168 236 C 168 199 177 169 197 146 C 216 123 242 112 274 112 Z" unicode="ö" />
<glyph horiz-adv-x="494" d="M 183 422 L 183 540 L 301 540 L 301 422 L 183 422 Z M 45 235 L 45 353 L 449 353 L 449 235 L 45 235 Z M 183 48 L 183 166 L 301 166 L 301 48 L 183 48 Z" unicode="÷" />
<glyph horiz-adv-x="548" d="M 47 -48 L 105 48 C 81 70 62 96 49 128 C 36 160 30 195 30 234 C 30 308 52 367 97 413 C 142 459 201 482 274 482 C 288 482 303 481 317 479 C 331 477 344 474 357 470 L 386 518 L 500 518 L 443 422 C 466 400 484 374 498 342 C 511 310 518 275 518 236 C 518 162 495 102 450 56 C 405 10 346 -12 274 -12 C 259 -12 244 -11 230 -9 C 216 -7 202 -4 190 0 L 161 -48 L 47 -48 Z M 168 236 C 168 224 169 213 171 203 C 173 192 176 182 180 174 L 290 357 C 287 357 284 358 282 358 C 279 358 276 358 274 358 C 242 358 216 346 197 324 C 177 301 168 272 168 236 Z M 274 112 C 306 112 331 123 351 146 C 370 168 380 198 380 234 C 380 246 379 257 377 268 C 375 278 372 288 368 297 L 258 113 C 260 112 263 112 266 112 C 268 112 271 112 274 112 Z" unicode="ø" />
<glyph horiz-adv-x="522" d="M 201 524 L 84 674 L 234 674 L 333 524 L 201 524 Z M 199 -11 C 152 -11 115 5 87 37 C 59 69 45 113 45 169 L 45 470 L 181 470 L 181 193 C 181 169 187 149 200 135 C 213 120 230 113 251 113 C 269 113 285 117 299 126 C 313 135 325 147 336 162 L 336 470 L 472 470 L 472 0 L 346 0 L 336 62 C 318 38 299 19 277 7 C 255 -4 229 -11 199 -11 Z" unicode="ù" />
<glyph horiz-adv-x="522" d="M 321 524 L 189 524 L 288 674 L 438 674 L 321 524 Z M 199 -11 C 152 -11 115 5 87 37 C 59 69 45 113 45 169 L 45 470 L 181 470 L 181 193 C 181 169 187 149 200 135 C 213 120 230 113 251 113 C 269 113 285 117 299 126 C 313 135 325 147 336 162 L 336 470 L 472 470 L 472 0 L 346 0 L 336 62 C 318 38 299 19 277 7 C 255 -4 229 -11 199 -11 Z" unicode="ú" />
<glyph horiz-adv-x="522" d="M 220 524 L 109 524 L 203 674 L 319 674 L 413 524 L 302 524 L 261 588 L 220 524 Z M 199 -11 C 152 -11 115 5 87 37 C 59 69 45 113 45 169 L 45 470 L 181 470 L 181 193 C 181 169 187 149 200 135 C 213 120 230 113 251 113 C 269 113 285 117 299 126 C 313 135 325 147 336 162 L 336 470 L 472 470 L 472 0 L 346 0 L 336 62 C 318 38 299 19 277 7 C 255 -4 229 -11 199 -11 Z" unicode="û" />
<glyph horiz-adv-x="522" d="M 104 525 L 104 649 L 228 649 L 228 525 L 104 525 Z M 294 525 L 294 649 L 418 649 L 418 525 L 294 525 Z M 199 -11 C 152 -11 115 5 87 37 C 59 69 45 113 45 169 L 45 470 L 181 470 L 181 193 C 181 169 187 149 200 135 C 213 120 230 113 251 113 C 269 113 285 117 299 126 C 313 135 325 147 336 162 L 336 470 L 472 470 L 472 0 L 346 0 L 336 62 C 318 38 299 19 277 7 C 255 -4 229 -11 199 -11 Z" unicode="ü" />
<glyph horiz-adv-x="504" d="M 314 524 L 182 524 L 281 674 L 431 674 L 314 524 Z M 17 -210 L 9 -210 L 9 -86 L 17 -86 C 62 -86 97 -81 122 -71 C 147 -61 166 -44 180 -20 L 168 14 L 10 470 L 155 470 L 226 238 L 254 137 L 284 238 L 355 470 L 493 470 L 347 47 C 313 -52 272 -120 226 -156 C 180 -192 110 -210 17 -210 Z" unicode="ý" />
<glyph horiz-adv-x="529" d="M 50 -210 L 50 716 L 186 716 L 186 418 C 200 439 217 455 239 465 C 260 475 285 480 313 480 C 369 480 414 458 448 415 C 482 371 499 316 499 249 C 499 169 478 106 436 60 C 394 13 337 -10 267 -10 C 256 -10 243 -9 228 -7 C 213 -5 199 -3 186 -1 L 186 -210 L 50 -210 Z M 254 108 C 287 108 313 119 333 142 C 353 165 363 197 363 237 C 363 273 353 302 335 324 C 317 346 292 357 262 357 C 247 357 233 354 219 348 C 205 342 194 335 186 325 L 186 116 C 197 113 208 111 220 110 C 231 108 242 108 254 108 Z" unicode="þ" />
<glyph horiz-adv-x="504" d="M 97 525 L 97 649 L 221 649 L 221 525 L 97 525 Z M 287 525 L 287 649 L 411 649 L 411 525 L 287 525 Z M 17 -210 L 9 -210 L 9 -86 L 17 -86 C 62 -86 97 -81 122 -71 C 147 -61 166 -44 180 -20 L 168 14 L 10 470 L 155 470 L 226 238 L 254 137 L 284 238 L 355 470 L 493 470 L 347 47 C 313 -52 272 -120 226 -156 C 180 -192 110 -210 17 -210 Z" unicode="ÿ" />
<glyph horiz-adv-x="685" d="M 226 706 L 226 802 L 464 802 L 464 706 L 226 706 Z M 15 0 L 277 658 L 408 658 L 670 0 L 518 0 L 465 140 L 212 140 L 159 0 L 15 0 Z M 257 264 L 419 264 L 379 370 L 338 486 L 296 370 L 257 264 Z" unicode="Ā" />
<glyph horiz-adv-x="487" d="M 110 532 L 110 639 L 374 639 L 374 532 L 110 532 Z M 178 -10 C 136 -10 101 2 75 27 C 49 51 36 85 36 127 C 36 171 51 207 81 234 C 111 260 156 279 216 290 L 302 305 L 302 315 C 302 331 294 343 279 351 C 264 359 242 364 213 364 C 186 364 159 360 132 352 C 104 344 79 334 57 322 L 57 450 C 84 458 114 466 146 474 C 178 482 208 486 234 486 C 301 486 352 471 386 442 C 420 412 438 371 438 319 L 438 0 L 313 0 L 303 62 C 290 39 272 21 250 9 C 228 -3 204 -10 178 -10 Z M 225 98 C 242 98 258 102 272 112 C 286 121 296 133 302 149 L 302 213 L 233 201 C 213 197 198 191 187 181 C 175 171 170 159 170 143 C 170 129 175 118 185 110 C 195 102 208 98 225 98 Z" unicode="ā" />
<glyph horiz-adv-x="685" d="M 343 698 C 306 698 276 710 254 734 C 232 758 221 790 221 830 L 300 830 C 300 815 304 803 312 794 C 320 785 330 781 343 781 C 356 781 367 785 375 794 C 383 803 387 815 387 830 L 466 830 C 466 790 454 758 432 734 C 410 710 380 698 343 698 Z M 15 0 L 277 658 L 408 658 L 670 0 L 518 0 L 465 140 L 212 140 L 159 0 L 15 0 Z M 257 264 L 419 264 L 379 370 L 338 486 L 296 370 L 257 264 Z" unicode="Ă" />
<glyph horiz-adv-x="487" d="M 241 516 C 199 516 166 529 142 556 C 117 582 105 618 105 663 L 193 663 C 193 646 197 633 206 623 C 214 613 226 609 241 609 C 255 609 267 613 276 623 C 285 633 290 646 290 663 L 377 663 C 377 618 364 582 340 556 C 315 529 282 516 241 516 Z M 178 -10 C 136 -10 101 2 75 27 C 49 51 36 85 36 127 C 36 171 51 207 81 234 C 111 260 156 279 216 290 L 302 305 L 302 315 C 302 331 294 343 279 351 C 264 359 242 364 213 364 C 186 364 159 360 132 352 C 104 344 79 334 57 322 L 57 450 C 84 458 114 466 146 474 C 178 482 208 486 234 486 C 301 486 352 471 386 442 C 420 412 438 371 438 319 L 438 0 L 313 0 L 303 62 C 290 39 272 21 250 9 C 228 -3 204 -10 178 -10 Z M 225 98 C 242 98 258 102 272 112 C 286 121 296 133 302 149 L 302 213 L 233 201 C 213 197 198 191 187 181 C 175 171 170 159 170 143 C 170 129 175 118 185 110 C 195 102 208 98 225 98 Z" unicode="ă" />
<glyph horiz-adv-x="685" d="M 15 0 L 277 658 L 408 658 L 670 0 L 661 0 C 641 0 625 -5 613 -15 C 601 -25 595 -40 595 -58 C 595 -74 601 -87 613 -97 C 625 -107 641 -112 661 -112 L 661 -220 C 607 -220 563 -208 530 -184 C 497 -160 481 -129 481 -90 C 481 -71 484 -54 490 -39 C 496 -23 505 -10 517 2 L 465 140 L 212 140 L 159 0 L 15 0 Z M 257 264 L 419 264 L 379 370 L 338 486 L 296 370 L 257 264 Z" unicode="Ą" />
<glyph horiz-adv-x="487" d="M 178 -10 C 136 -10 101 2 75 27 C 49 51 36 85 36 127 C 36 171 51 207 81 234 C 111 260 156 279 216 290 L 302 305 L 302 315 C 302 331 294 343 279 351 C 264 359 242 364 213 364 C 186 364 159 360 132 352 C 104 344 79 334 57 322 L 57 450 C 84 458 114 466 146 474 C 178 482 208 486 234 486 C 301 486 352 471 386 442 C 420 412 438 371 438 319 L 438 0 L 436 0 C 416 0 400 -5 388 -15 C 376 -25 370 -40 370 -58 C 370 -74 376 -87 388 -97 C 400 -107 416 -112 436 -112 L 436 -220 C 382 -220 338 -210 305 -192 C 272 -174 256 -144 256 -102 C 256 -80 260 -60 270 -43 C 280 -26 294 -11 313 1 L 303 62 C 290 39 272 21 250 9 C 228 -3 204 -10 178 -10 Z M 225 98 C 242 98 258 102 272 112 C 286 121 296 133 302 149 L 302 213 L 233 201 C 213 197 198 191 187 181 C 175 171 170 159 170 143 C 170 129 175 118 185 110 C 195 102 208 98 225 98 Z" unicode="ą" />
<glyph horiz-adv-x="654" d="M 447 714 L 329 714 L 418 849 L 553 849 L 447 714 Z M 401 -16 C 290 -16 202 15 137 78 C 72 141 40 225 40 330 C 40 433 72 516 137 579 C 202 642 290 674 401 674 C 437 674 471 670 504 662 C 537 654 570 642 602 626 L 602 486 C 570 505 537 519 504 529 C 471 539 437 544 401 544 C 335 544 282 524 242 485 C 202 445 182 394 182 330 C 182 264 202 212 242 173 C 282 133 335 114 401 114 C 441 114 477 119 510 130 C 543 140 576 156 609 176 L 609 36 C 576 17 543 4 509 -4 C 475 -12 439 -16 401 -16 Z" unicode="Ć" />
<glyph horiz-adv-x="460" d="M 325 524 L 193 524 L 292 674 L 442 674 L 325 524 Z M 278 -10 C 201 -10 140 11 96 55 C 52 99 30 159 30 235 C 30 310 52 370 97 414 C 142 458 203 480 279 480 C 301 480 325 477 349 471 C 373 465 396 457 417 447 L 417 311 C 397 324 376 334 354 342 C 332 350 309 354 286 354 C 250 354 221 343 199 323 C 177 303 167 274 167 236 C 167 197 177 167 199 147 C 221 126 250 116 288 116 C 310 116 333 120 357 130 C 381 139 402 151 420 166 L 420 30 C 400 18 378 8 352 1 C 326 -6 302 -10 278 -10 Z" unicode="ć" />
<glyph horiz-adv-x="654" d="M 349 714 L 249 714 L 334 849 L 438 849 L 523 714 L 423 714 L 386 772 L 349 714 Z M 401 -16 C 290 -16 202 15 137 78 C 72 141 40 225 40 330 C 40 433 72 516 137 579 C 202 642 290 674 401 674 C 437 674 471 670 504 662 C 537 654 570 642 602 626 L 602 486 C 570 505 537 519 504 529 C 471 539 437 544 401 544 C 335 544 282 524 242 485 C 202 445 182 394 182 330 C 182 264 202 212 242 173 C 282 133 335 114 401 114 C 441 114 477 119 510 130 C 543 140 576 156 609 176 L 609 36 C 576 17 543 4 509 -4 C 475 -12 439 -16 401 -16 Z" unicode="Ĉ" />
<glyph horiz-adv-x="460" d="M 224 524 L 113 524 L 207 674 L 323 674 L 417 524 L 306 524 L 265 588 L 224 524 Z M 278 -10 C 201 -10 140 11 96 55 C 52 99 30 159 30 235 C 30 310 52 370 97 414 C 142 458 203 480 279 480 C 301 480 325 477 349 471 C 373 465 396 457 417 447 L 417 311 C 397 324 376 334 354 342 C 332 350 309 354 286 354 C 250 354 221 343 199 323 C 177 303 167 274 167 236 C 167 197 177 167 199 147 C 221 126 250 116 288 116 C 310 116 333 120 357 130 C 381 139 402 151 420 166 L 420 30 C 400 18 378 8 352 1 C 326 -6 302 -10 278 -10 Z" unicode="ĉ" />
<glyph horiz-adv-x="654" d="M 329 714 L 329 833 L 447 833 L 447 714 L 329 714 Z M 401 -16 C 290 -16 202 15 137 78 C 72 141 40 225 40 330 C 40 433 72 516 137 579 C 202 642 290 674 401 674 C 437 674 471 670 504 662 C 537 654 570 642 602 626 L 602 486 C 570 505 537 519 504 529 C 471 539 437 544 401 544 C 335 544 282 524 242 485 C 202 445 182 394 182 330 C 182 264 202 212 242 173 C 282 133 335 114 401 114 C 441 114 477 119 510 130 C 543 140 576 156 609 176 L 609 36 C 576 17 543 4 509 -4 C 475 -12 439 -16 401 -16 Z" unicode="Ċ" />
<glyph horiz-adv-x="460" d="M 198 524 L 198 656 L 330 656 L 330 524 L 198 524 Z M 278 -10 C 201 -10 140 11 96 55 C 52 99 30 159 30 235 C 30 310 52 370 97 414 C 142 458 203 480 279 480 C 301 480 325 477 349 471 C 373 465 396 457 417 447 L 417 311 C 397 324 376 334 354 342 C 332 350 309 354 286 354 C 250 354 221 343 199 323 C 177 303 167 274 167 236 C 167 197 177 167 199 147 C 221 126 250 116 288 116 C 310 116 333 120 357 130 C 381 139 402 151 420 166 L 420 30 C 400 18 378 8 352 1 C 326 -6 302 -10 278 -10 Z" unicode="ċ" />
<glyph horiz-adv-x="654" d="M 334 714 L 249 849 L 349 849 L 386 791 L 423 849 L 523 849 L 438 714 L 334 714 Z M 401 -16 C 290 -16 202 15 137 78 C 72 141 40 225 40 330 C 40 433 72 516 137 579 C 202 642 290 674 401 674 C 437 674 471 670 504 662 C 537 654 570 642 602 626 L 602 486 C 570 505 537 519 504 529 C 471 539 437 544 401 544 C 335 544 282 524 242 485 C 202 445 182 394 182 330 C 182 264 202 212 242 173 C 282 133 335 114 401 114 C 441 114 477 119 510 130 C 543 140 576 156 609 176 L 609 36 C 576 17 543 4 509 -4 C 475 -12 439 -16 401 -16 Z" unicode="Č" />
<glyph horiz-adv-x="460" d="M 207 524 L 113 674 L 224 674 L 265 610 L 306 674 L 417 674 L 323 524 L 207 524 Z M 278 -10 C 201 -10 140 11 96 55 C 52 99 30 159 30 235 C 30 310 52 370 97 414 C 142 458 203 480 279 480 C 301 480 325 477 349 471 C 373 465 396 457 417 447 L 417 311 C 397 324 376 334 354 342 C 332 350 309 354 286 354 C 250 354 221 343 199 323 C 177 303 167 274 167 236 C 167 197 177 167 199 147 C 221 126 250 116 288 116 C 310 116 333 120 357 130 C 381 139 402 151 420 166 L 420 30 C 400 18 378 8 352 1 C 326 -6 302 -10 278 -10 Z" unicode="č" />
<glyph horiz-adv-x="688" d="M 254 706 L 169 841 L 269 841 L 306 783 L 343 841 L 443 841 L 358 706 L 254 706 Z M 65 0 L 65 658 L 295 658 C 402 658 488 628 552 570 C 616 512 648 434 648 337 C 648 234 615 152 550 91 C 484 30 397 0 287 0 L 65 0 Z M 205 132 L 295 132 C 359 132 411 150 450 188 C 488 225 508 275 508 337 C 508 394 489 440 452 474 C 414 508 365 526 303 526 L 205 526 L 205 132 Z" unicode="Ď" />
<glyph horiz-adv-x="749" d="M 229 -10 C 169 -10 120 11 84 54 C 48 97 30 154 30 226 C 30 302 50 364 92 410 C 134 456 188 480 256 480 C 270 480 286 478 304 474 C 321 470 336 466 348 461 L 348 716 L 484 716 L 484 0 L 359 0 L 349 62 C 337 40 321 23 299 10 C 277 -3 253 -10 229 -10 Z M 639 492 L 540 531 C 556 555 568 576 574 596 C 580 616 584 640 584 668 L 584 716 L 704 716 L 704 668 C 704 635 698 604 686 574 C 674 544 659 516 639 492 Z M 263 110 C 279 110 294 114 309 122 C 324 130 337 142 348 156 L 348 342 C 339 348 328 353 315 357 C 302 361 290 363 278 363 C 244 363 217 351 197 327 C 177 303 167 271 167 232 C 167 196 175 166 193 144 C 211 121 234 110 263 110 Z" unicode="ď" />
<glyph horiz-adv-x="718" d="M 70 0 L 70 265 L 25 265 L 25 385 L 70 385 L 70 658 L 300 658 C 407 658 493 628 557 570 C 621 512 653 434 653 337 C 653 234 620 152 555 91 C 489 30 402 0 292 0 L 70 0 Z M 210 132 L 300 132 C 364 132 416 150 455 188 C 493 225 513 275 513 337 C 513 394 494 440 457 474 C 419 508 370 526 308 526 L 210 526 L 210 385 L 305 385 L 305 265 L 210 265 L 210 132 Z" unicode="Đ" />
<glyph horiz-adv-x="534" d="M 229 -10 C 169 -10 120 11 84 54 C 48 97 30 154 30 226 C 30 302 50 364 92 410 C 134 456 188 480 256 480 C 270 480 286 478 304 474 C 321 470 336 466 348 461 L 348 526 L 295 526 L 295 638 L 348 638 L 348 716 L 484 716 L 484 638 L 542 638 L 542 526 L 484 526 L 484 0 L 359 0 L 349 62 C 337 40 321 23 299 10 C 277 -3 253 -10 229 -10 Z M 263 110 C 279 110 294 114 309 122 C 324 130 337 142 348 156 L 348 342 C 339 348 328 353 315 357 C 302 361 290 363 278 363 C 244 363 217 351 197 327 C 177 303 167 271 167 232 C 167 196 175 166 193 144 C 211 121 234 110 263 110 Z" unicode="đ" />
<glyph horiz-adv-x="537" d="M 159 706 L 159 802 L 397 802 L 397 706 L 159 706 Z M 65 0 L 65 658 L 469 658 L 469 526 L 205 526 L 205 399 L 461 399 L 461 267 L 205 267 L 205 132 L 477 132 L 477 0 L 65 0 Z" unicode="Ē" />
<glyph horiz-adv-x="492" d="M 124 532 L 124 639 L 388 639 L 388 532 L 124 532 Z M 271 -10 C 196 -10 137 12 94 56 C 51 100 30 160 30 236 C 30 309 50 368 90 413 C 130 457 184 480 253 480 C 317 480 368 458 406 415 C 443 372 462 307 462 220 L 462 187 L 169 187 C 171 161 182 141 204 126 C 226 111 255 104 291 104 C 315 104 340 107 367 115 C 393 123 420 134 448 149 L 448 25 C 418 13 389 5 359 -1 C 329 -7 299 -10 271 -10 Z M 252 370 C 226 370 206 362 192 347 C 177 331 169 311 169 287 L 326 287 C 326 311 319 331 306 347 C 293 362 275 370 252 370 Z" unicode="ē" />
<glyph horiz-adv-x="537" d="M 276 698 C 239 698 209 710 187 734 C 165 758 154 790 154 830 L 233 830 C 233 815 237 803 245 794 C 253 785 263 781 276 781 C 289 781 300 785 308 794 C 316 803 320 815 320 830 L 399 830 C 399 790 387 758 365 734 C 343 710 313 698 276 698 Z M 65 0 L 65 658 L 469 658 L 469 526 L 205 526 L 205 399 L 461 399 L 461 267 L 205 267 L 205 132 L 477 132 L 477 0 L 65 0 Z" unicode="Ĕ" />
<glyph horiz-adv-x="492" d="M 255 516 C 213 516 180 529 156 556 C 131 582 119 618 119 663 L 207 663 C 207 646 211 633 220 623 C 228 613 240 609 255 609 C 269 609 281 613 290 623 C 299 633 304 646 304 663 L 391 663 C 391 618 378 582 354 556 C 329 529 296 516 255 516 Z M 271 -10 C 196 -10 137 12 94 56 C 51 100 30 160 30 236 C 30 309 50 368 90 413 C 130 457 184 480 253 480 C 317 480 368 458 406 415 C 443 372 462 307 462 220 L 462 187 L 169 187 C 171 161 182 141 204 126 C 226 111 255 104 291 104 C 315 104 340 107 367 115 C 393 123 420 134 448 149 L 448 25 C 418 13 389 5 359 -1 C 329 -7 299 -10 271 -10 Z M 252 370 C 226 370 206 362 192 347 C 177 331 169 311 169 287 L 326 287 C 326 311 319 331 306 347 C 293 362 275 370 252 370 Z" unicode="ĕ" />
<glyph horiz-adv-x="537" d="M 219 706 L 219 825 L 337 825 L 337 706 L 219 706 Z M 65 0 L 65 658 L 469 658 L 469 526 L 205 526 L 205 399 L 461 399 L 461 267 L 205 267 L 205 132 L 477 132 L 477 0 L 65 0 Z" unicode="Ė" />
<glyph horiz-adv-x="492" d="M 189 524 L 189 656 L 321 656 L 321 524 L 189 524 Z M 271 -10 C 196 -10 137 12 94 56 C 51 100 30 160 30 236 C 30 309 50 368 90 413 C 130 457 184 480 253 480 C 317 480 368 458 406 415 C 443 372 462 307 462 220 L 462 187 L 169 187 C 171 161 182 141 204 126 C 226 111 255 104 291 104 C 315 104 340 107 367 115 C 393 123 420 134 448 149 L 448 25 C 418 13 389 5 359 -1 C 329 -7 299 -10 271 -10 Z M 252 370 C 226 370 206 362 192 347 C 177 331 169 311 169 287 L 326 287 C 326 311 319 331 306 347 C 293 362 275 370 252 370 Z" unicode="ė" />
<glyph horiz-adv-x="537" d="M 65 0 L 65 658 L 469 658 L 469 526 L 205 526 L 205 399 L 461 399 L 461 267 L 205 267 L 205 132 L 477 132 L 477 0 L 474 0 C 454 0 438 -5 426 -15 C 414 -25 408 -40 408 -58 C 408 -74 414 -87 426 -97 C 438 -107 454 -112 474 -112 L 474 -220 C 420 -220 376 -208 343 -184 C 310 -160 294 -129 294 -90 C 294 -72 297 -55 303 -40 C 309 -24 317 -11 329 0 L 65 0 Z" unicode="Ę" />
<glyph horiz-adv-x="492" d="M 420 -210 C 363 -210 317 -198 283 -174 C 248 -150 231 -118 231 -79 C 231 -66 232 -54 236 -42 C 239 -30 244 -19 250 -9 C 182 -5 128 18 89 62 C 49 105 30 163 30 236 C 30 309 50 368 90 413 C 130 457 184 480 253 480 C 317 480 368 458 406 415 C 443 372 462 307 462 220 L 462 187 L 169 187 C 171 161 182 141 204 126 C 226 111 255 104 291 104 C 315 104 340 107 367 115 C 393 123 420 134 448 149 L 448 25 C 440 22 431 19 423 17 C 414 14 405 11 397 8 C 383 2 372 -5 364 -15 C 355 -25 351 -37 351 -52 C 351 -68 357 -81 370 -91 C 382 -101 399 -107 420 -107 L 420 -210 Z M 252 370 C 226 370 206 362 192 347 C 177 331 169 311 169 287 L 326 287 C 326 311 319 331 306 347 C 293 362 275 370 252 370 Z" unicode="ę" />
<glyph horiz-adv-x="537" d="M 224 706 L 139 841 L 239 841 L 276 783 L 313 841 L 413 841 L 328 706 L 224 706 Z M 65 0 L 65 658 L 469 658 L 469 526 L 205 526 L 205 399 L 461 399 L 461 267 L 205 267 L 205 132 L 477 132 L 477 0 L 65 0 Z" unicode="Ě" />
<glyph horiz-adv-x="492" d="M 198 524 L 104 674 L 215 674 L 256 610 L 297 674 L 408 674 L 314 524 L 198 524 Z M 271 -10 C 196 -10 137 12 94 56 C 51 100 30 160 30 236 C 30 309 50 368 90 413 C 130 457 184 480 253 480 C 317 480 368 458 406 415 C 443 372 462 307 462 220 L 462 187 L 169 187 C 171 161 182 141 204 126 C 226 111 255 104 291 104 C 315 104 340 107 367 115 C 393 123 420 134 448 149 L 448 25 C 418 13 389 5 359 -1 C 329 -7 299 -10 271 -10 Z M 252 370 C 226 370 206 362 192 347 C 177 331 169 311 169 287 L 326 287 C 326 311 319 331 306 347 C 293 362 275 370 252 370 Z" unicode="ě" />
<glyph horiz-adv-x="687" d="M 341 714 L 241 714 L 326 849 L 430 849 L 515 714 L 415 714 L 378 772 L 341 714 Z M 387 -16 C 280 -16 195 15 133 79 C 71 142 40 227 40 333 C 40 436 71 519 134 581 C 197 643 282 674 388 674 C 424 674 462 670 502 662 C 542 654 577 643 607 630 L 607 495 C 576 511 543 523 507 531 C 471 539 433 544 394 544 C 329 544 277 524 239 486 C 201 448 182 397 182 333 C 182 267 200 214 236 174 C 272 134 319 114 377 114 C 401 114 422 115 441 118 C 460 121 479 126 497 132 L 497 238 L 363 238 L 363 370 L 637 370 L 637 38 C 599 20 558 6 516 -2 C 474 -11 431 -16 387 -16 Z" unicode="Ĝ" />
<glyph horiz-adv-x="529" d="M 220 524 L 109 524 L 203 674 L 319 674 L 413 524 L 302 524 L 261 588 L 220 524 Z M 242 -220 C 209 -220 178 -217 148 -211 C 118 -205 90 -196 64 -185 L 64 -53 C 90 -67 115 -78 141 -87 C 167 -95 193 -100 219 -100 C 255 -100 285 -90 308 -72 C 331 -54 343 -27 343 8 L 343 35 C 329 20 312 9 292 1 C 272 -6 251 -10 230 -10 C 166 -10 117 11 82 53 C 47 95 30 154 30 230 C 30 301 50 360 91 408 C 132 456 188 480 259 480 C 281 480 304 475 330 466 C 355 457 375 445 390 429 L 419 470 L 479 470 L 479 22 C 479 -51 457 -110 414 -154 C 370 -198 313 -220 242 -220 Z M 263 110 C 278 110 292 112 306 118 C 320 123 332 130 343 138 L 343 349 C 333 352 323 355 311 358 C 299 360 287 362 276 362 C 240 362 213 348 195 322 C 176 296 167 265 167 231 C 167 195 175 165 191 143 C 207 121 231 110 263 110 Z" unicode="ĝ" />
<glyph horiz-adv-x="687" d="M 378 706 C 341 706 311 718 289 742 C 267 766 256 798 256 838 L 335 838 C 335 823 339 811 347 802 C 355 793 365 789 378 789 C 391 789 402 793 410 802 C 418 811 422 823 422 838 L 501 838 C 501 798 489 766 467 742 C 445 718 415 706 378 706 Z M 387 -16 C 280 -16 195 15 133 79 C 71 142 40 227 40 333 C 40 436 71 519 134 581 C 197 643 282 674 388 674 C 424 674 462 670 502 662 C 542 654 577 643 607 630 L 607 495 C 576 511 543 523 507 531 C 471 539 433 544 394 544 C 329 544 277 524 239 486 C 201 448 182 397 182 333 C 182 267 200 214 236 174 C 272 134 319 114 377 114 C 401 114 422 115 441 118 C 460 121 479 126 497 132 L 497 238 L 363 238 L 363 370 L 637 370 L 637 38 C 599 20 558 6 516 -2 C 474 -11 431 -16 387 -16 Z" unicode="Ğ" />
<glyph horiz-adv-x="529" d="M 260 516 C 218 516 185 529 161 556 C 136 582 124 618 124 663 L 212 663 C 212 646 216 633 225 623 C 233 613 245 609 260 609 C 274 609 286 613 295 623 C 304 633 309 646 309 663 L 396 663 C 396 618 383 582 359 556 C 334 529 301 516 260 516 Z M 242 -220 C 209 -220 178 -217 148 -211 C 118 -205 90 -196 64 -185 L 64 -53 C 90 -67 115 -78 141 -87 C 167 -95 193 -100 219 -100 C 255 -100 285 -90 308 -72 C 331 -54 343 -27 343 8 L 343 35 C 329 20 312 9 292 1 C 272 -6 251 -10 230 -10 C 166 -10 117 11 82 53 C 47 95 30 154 30 230 C 30 301 50 360 91 408 C 132 456 188 480 259 480 C 281 480 304 475 330 466 C 355 457 375 445 390 429 L 419 470 L 479 470 L 479 22 C 479 -51 457 -110 414 -154 C 370 -198 313 -220 242 -220 Z M 263 110 C 278 110 292 112 306 118 C 320 123 332 130 343 138 L 343 349 C 333 352 323 355 311 358 C 299 360 287 362 276 362 C 240 362 213 348 195 322 C 176 296 167 265 167 231 C 167 195 175 165 191 143 C 207 121 231 110 263 110 Z" unicode="ğ" />
<glyph horiz-adv-x="687" d="M 321 714 L 321 833 L 439 833 L 439 714 L 321 714 Z M 387 -16 C 280 -16 195 15 133 79 C 71 142 40 227 40 333 C 40 436 71 519 134 581 C 197 643 282 674 388 674 C 424 674 462 670 502 662 C 542 654 577 643 607 630 L 607 495 C 576 511 543 523 507 531 C 471 539 433 544 394 544 C 329 544 277 524 239 486 C 201 448 182 397 182 333 C 182 267 200 214 236 174 C 272 134 319 114 377 114 C 401 114 422 115 441 118 C 460 121 479 126 497 132 L 497 238 L 363 238 L 363 370 L 637 370 L 637 38 C 599 20 558 6 516 -2 C 474 -11 431 -16 387 -16 Z" unicode="Ġ" />
<glyph horiz-adv-x="529" d="M 194 524 L 194 656 L 326 656 L 326 524 L 194 524 Z M 242 -220 C 209 -220 178 -217 148 -211 C 118 -205 90 -196 64 -185 L 64 -53 C 90 -67 115 -78 141 -87 C 167 -95 193 -100 219 -100 C 255 -100 285 -90 308 -72 C 331 -54 343 -27 343 8 L 343 35 C 329 20 312 9 292 1 C 272 -6 251 -10 230 -10 C 166 -10 117 11 82 53 C 47 95 30 154 30 230 C 30 301 50 360 91 408 C 132 456 188 480 259 480 C 281 480 304 475 330 466 C 355 457 375 445 390 429 L 419 470 L 479 470 L 479 22 C 479 -51 457 -110 414 -154 C 370 -198 313 -220 242 -220 Z M 263 110 C 278 110 292 112 306 118 C 320 123 332 130 343 138 L 343 349 C 333 352 323 355 311 358 C 299 360 287 362 276 362 C 240 362 213 348 195 322 C 176 296 167 265 167 231 C 167 195 175 165 191 143 C 207 121 231 110 263 110 Z" unicode="ġ" />
<glyph horiz-adv-x="687" d="M 387 -16 C 280 -16 195 15 133 79 C 71 142 40 227 40 333 C 40 436 71 519 134 581 C 197 643 282 674 388 674 C 424 674 462 670 502 662 C 542 654 577 643 607 630 L 607 495 C 576 511 543 523 507 531 C 471 539 433 544 394 544 C 329 544 277 524 239 486 C 201 448 182 397 182 333 C 182 267 200 214 236 174 C 272 134 319 114 377 114 C 401 114 422 115 441 118 C 460 121 479 126 497 132 L 497 238 L 363 238 L 363 370 L 637 370 L 637 38 C 599 20 558 6 516 -2 C 474 -11 431 -16 387 -16 Z M 382 -258 L 293 -223 C 307 -201 318 -182 324 -164 C 330 -146 333 -124 333 -100 L 333 -56 L 441 -56 L 441 -100 C 441 -129 435 -157 425 -184 C 415 -211 400 -236 382 -258 Z" unicode="Ģ" />
<glyph horiz-adv-x="529" d="M 269 748 L 368 709 C 351 685 339 663 333 643 C 327 623 324 600 324 572 L 324 524 L 204 524 L 204 572 C 204 604 209 636 221 666 C 233 696 249 723 269 748 Z M 242 -220 C 209 -220 178 -217 148 -211 C 118 -205 90 -196 64 -185 L 64 -53 C 90 -67 115 -78 141 -87 C 167 -95 193 -100 219 -100 C 255 -100 285 -90 308 -72 C 331 -54 343 -27 343 8 L 343 35 C 329 20 312 9 292 1 C 272 -6 251 -10 230 -10 C 166 -10 117 11 82 53 C 47 95 30 154 30 230 C 30 301 50 360 91 408 C 132 456 188 480 259 480 C 281 480 304 475 330 466 C 355 457 375 445 390 429 L 419 470 L 479 470 L 479 22 C 479 -51 457 -110 414 -154 C 370 -198 313 -220 242 -220 Z M 263 110 C 278 110 292 112 306 118 C 320 123 332 130 343 138 L 343 349 C 333 352 323 355 311 358 C 299 360 287 362 276 362 C 240 362 213 348 195 322 C 176 296 167 265 167 231 C 167 195 175 165 191 143 C 207 121 231 110 263 110 Z" unicode="ģ" />
<glyph horiz-adv-x="698" d="M 314 706 L 214 706 L 299 841 L 403 841 L 488 706 L 388 706 L 351 764 L 314 706 Z M 65 0 L 65 658 L 205 658 L 205 399 L 493 399 L 493 658 L 633 658 L 633 0 L 493 0 L 493 267 L 205 267 L 205 0 L 65 0 Z" unicode="Ĥ" />
<glyph horiz-adv-x="522" d="M 81 747 L -30 747 L 64 897 L 180 897 L 274 747 L 163 747 L 122 811 L 81 747 Z M 50 0 L 50 716 L 186 716 L 186 408 C 202 432 222 450 245 462 C 268 474 293 480 321 480 C 369 480 407 464 435 434 C 463 403 477 359 477 301 L 477 0 L 341 0 L 341 276 C 341 302 335 322 324 336 C 312 349 296 356 274 356 C 256 356 240 351 226 342 C 211 333 198 320 186 304 L 186 0 L 50 0 Z" unicode="ĥ" />
<glyph horiz-adv-x="744" d="M 87 0 L 87 461 L 35 461 L 35 581 L 87 581 L 87 658 L 227 658 L 227 581 L 515 581 L 515 658 L 655 658 L 655 581 L 709 581 L 709 461 L 655 461 L 655 0 L 515 0 L 515 259 L 227 259 L 227 0 L 87 0 Z M 227 391 L 515 391 L 515 461 L 227 461 L 227 391 Z" unicode="Ħ" />
<glyph horiz-adv-x="522" d="M 50 0 L 50 526 L 7 526 L 7 638 L 50 638 L 50 716 L 186 716 L 186 638 L 249 638 L 249 526 L 186 526 L 186 408 C 202 432 222 450 245 462 C 268 474 293 480 321 480 C 369 480 407 464 435 434 C 463 403 477 359 477 301 L 477 0 L 341 0 L 341 276 C 341 302 335 322 324 336 C 312 349 296 356 274 356 C 256 356 240 351 226 342 C 211 333 198 320 186 304 L 186 0 L 50 0 Z" unicode="ħ" />
<glyph horiz-adv-x="270" d="M 68 706 L -4 706 C -4 742 4 771 20 793 C 36 815 58 827 85 827 C 95 827 105 825 114 823 C 123 820 133 815 145 808 C 154 803 162 799 168 796 C 174 792 179 791 185 791 C 192 791 198 794 203 800 C 207 806 210 814 210 824 L 282 824 C 282 788 273 758 257 736 C 241 713 219 702 193 702 C 182 702 172 703 163 706 C 153 708 143 713 133 721 C 124 727 116 731 110 734 C 104 736 98 738 93 738 C 85 738 79 735 75 729 C 70 723 68 716 68 706 Z M 65 0 L 65 658 L 205 658 L 205 0 L 65 0 Z" unicode="Ĩ" />
<glyph horiz-adv-x="246" d="M 50 524 L -30 524 C -30 564 -21 596 -3 621 C 15 646 39 659 69 659 C 80 659 91 657 101 654 C 111 651 123 646 136 638 C 146 632 155 627 161 624 C 167 620 174 619 180 619 C 188 619 195 622 200 629 C 205 635 208 644 208 655 L 288 655 C 288 615 279 582 261 557 C 243 532 219 520 189 520 C 177 520 166 521 156 524 C 145 526 134 532 122 541 C 112 547 104 552 97 555 C 90 558 84 560 78 560 C 69 560 62 556 57 550 C 52 543 50 534 50 524 Z M 55 0 L 55 470 L 191 470 L 191 0 L 55 0 Z" unicode="ĩ" />
<glyph horiz-adv-x="270" d="M 21 706 L 21 802 L 259 802 L 259 706 L 21 706 Z M 65 0 L 65 658 L 205 658 L 205 0 L 65 0 Z" unicode="Ī" />
<glyph horiz-adv-x="246" d="M -5 532 L -5 639 L 259 639 L 259 532 L -5 532 Z M 55 0 L 55 470 L 191 470 L 191 0 L 55 0 Z" unicode="ī" />
<glyph horiz-adv-x="270" d="M 138 698 C 101 698 71 710 49 734 C 27 758 16 790 16 830 L 95 830 C 95 815 99 803 107 794 C 115 785 125 781 138 781 C 151 781 162 785 170 794 C 178 803 182 815 182 830 L 261 830 C 261 790 249 758 227 734 C 205 710 175 698 138 698 Z M 65 0 L 65 658 L 205 658 L 205 0 L 65 0 Z" unicode="Ĭ" />
<glyph horiz-adv-x="246" d="M 126 516 C 84 516 51 529 27 556 C 2 582 -10 618 -10 663 L 78 663 C 78 646 82 633 91 623 C 99 613 111 609 126 609 C 140 609 152 613 161 623 C 170 633 175 646 175 663 L 262 663 C 262 618 249 582 225 556 C 200 529 167 516 126 516 Z M 55 0 L 55 470 L 191 470 L 191 0 L 55 0 Z" unicode="ĭ" />
<glyph horiz-adv-x="270" d="M 204 -220 C 150 -220 106 -208 73 -184 C 40 -160 24 -129 24 -90 C 24 -70 27 -52 35 -36 C 42 -20 52 -6 65 6 L 65 658 L 205 658 L 205 0 L 204 0 C 184 0 168 -5 156 -15 C 144 -25 138 -40 138 -58 C 138 -74 144 -87 156 -97 C 168 -107 184 -112 204 -112 L 204 -220 Z" unicode="Į" />
<glyph horiz-adv-x="246" d="M 55 584 L 55 716 L 191 716 L 191 584 L 55 584 Z M 178 -220 C 124 -220 80 -210 47 -192 C 14 -174 -2 -144 -2 -102 C -2 -80 2 -60 12 -43 C 22 -26 36 -11 55 1 L 55 470 L 191 470 L 191 0 L 178 0 C 158 0 142 -5 130 -15 C 118 -25 112 -40 112 -58 C 112 -74 118 -87 130 -97 C 142 -107 158 -112 178 -112 L 178 -220 Z" unicode="į" />
<glyph horiz-adv-x="270" d="M 81 706 L 81 825 L 199 825 L 199 706 L 81 706 Z M 65 0 L 65 658 L 205 658 L 205 0 L 65 0 Z" unicode="İ" />
<glyph horiz-adv-x="246" d="M 55 0 L 55 470 L 191 470 L 191 0 L 55 0 Z" unicode="ı" />
<glyph horiz-adv-x="268" d="M 98 706 L -2 706 L 83 841 L 187 841 L 272 706 L 172 706 L 135 764 L 98 706 Z M -20 -210 L -28 -210 L -28 -80 L -20 -80 C 6 -80 26 -71 42 -54 C 57 -37 65 -14 65 14 L 65 658 L 205 658 L 205 14 C 205 -54 184 -108 143 -149 C 102 -189 48 -210 -20 -210 Z" unicode="Ĵ" />
<glyph horiz-adv-x="238" d="M 83 524 L -28 524 L 66 674 L 182 674 L 276 524 L 165 524 L 124 588 L 83 524 Z M -22 -210 L -30 -210 L -30 -86 L -22 -86 C 0 -86 18 -79 32 -65 C 45 -51 52 -32 52 -8 L 52 470 L 188 470 L 188 -8 C 188 -70 169 -119 131 -155 C 93 -191 42 -210 -22 -210 Z" unicode="ĵ" />
<glyph horiz-adv-x="652" d="M 65 0 L 65 658 L 205 658 L 205 367 L 443 658 L 611 658 L 349 346 L 637 0 L 454 0 L 205 307 L 205 0 L 65 0 Z M 330 -250 L 241 -215 C 255 -193 266 -174 272 -156 C 278 -138 281 -116 281 -92 L 281 -48 L 389 -48 L 389 -92 C 389 -121 383 -149 373 -176 C 363 -203 348 -228 330 -250 Z" unicode="Ķ" />
<glyph horiz-adv-x="514" d="M 50 0 L 50 716 L 186 716 L 186 266 L 335 470 L 493 470 L 322 249 L 504 0 L 340 0 L 186 218 L 186 0 L 50 0 Z M 258 -272 L 159 -233 C 175 -209 187 -187 193 -167 C 199 -147 203 -124 203 -96 L 203 -48 L 323 -48 L 323 -96 C 323 -128 317 -160 305 -190 C 293 -220 278 -247 258 -272 Z" unicode="ķ" />
<glyph horiz-adv-x="502" d="M 197 706 L 79 706 L 168 841 L 303 841 L 197 706 Z M 65 0 L 65 658 L 205 658 L 205 132 L 477 132 L 477 0 L 65 0 Z" unicode="Ĺ" />
<glyph horiz-adv-x="236" d="M 180 770 L 48 770 L 147 920 L 297 920 L 180 770 Z M 50 0 L 50 716 L 186 716 L 186 0 L 50 0 Z" unicode="ĺ" />
<glyph horiz-adv-x="502" d="M 65 0 L 65 658 L 205 658 L 205 132 L 477 132 L 477 0 L 65 0 Z M 282 -250 L 193 -215 C 207 -193 218 -174 224 -156 C 230 -138 233 -116 233 -92 L 233 -48 L 341 -48 L 341 -92 C 341 -121 335 -149 325 -176 C 315 -203 300 -228 282 -250 Z" unicode="Ļ" />
<glyph horiz-adv-x="236" d="M 50 0 L 50 716 L 186 716 L 186 0 L 50 0 Z M 117 -272 L 18 -233 C 34 -209 46 -187 52 -167 C 58 -147 62 -124 62 -96 L 62 -48 L 182 -48 L 182 -96 C 182 -128 176 -160 164 -190 C 152 -220 137 -247 117 -272 Z" unicode="ļ" />
<glyph horiz-adv-x="502" d="M 65 0 L 65 658 L 205 658 L 205 132 L 477 132 L 477 0 L 65 0 Z M 379 434 L 280 473 C 296 497 308 518 314 538 C 320 558 324 582 324 610 L 324 658 L 444 658 L 444 610 C 444 577 438 546 426 516 C 414 486 399 458 379 434 Z" unicode="Ľ" />
<glyph horiz-adv-x="435" d="M 50 0 L 50 716 L 186 716 L 186 0 L 50 0 Z M 325 492 L 226 531 C 242 555 254 576 260 596 C 266 616 270 640 270 668 L 270 716 L 390 716 L 390 668 C 390 635 384 604 372 574 C 360 544 345 516 325 492 Z" unicode="ľ" />
<glyph horiz-adv-x="502" d="M 65 0 L 65 658 L 205 658 L 205 132 L 477 132 L 477 0 L 65 0 Z M 330 303 L 330 435 L 462 435 L 462 303 L 330 303 Z" unicode="Ŀ" />
<glyph horiz-adv-x="394" d="M 50 0 L 50 716 L 186 716 L 186 0 L 50 0 Z M 249 296 L 249 428 L 381 428 L 381 296 L 249 296 Z" unicode="ŀ" />
<glyph horiz-adv-x="502" d="M 65 0 L 65 286 L 10 274 L 10 397 L 65 409 L 65 658 L 205 658 L 205 441 L 292 461 L 292 338 L 205 318 L 205 132 L 477 132 L 477 0 L 65 0 Z" unicode="Ł" />
<glyph horiz-adv-x="236" d="M 50 0 L 50 293 L -10 278 L -10 394 L 50 409 L 50 716 L 186 716 L 186 443 L 252 459 L 252 343 L 186 327 L 186 0 L 50 0 Z" unicode="ł" />
<glyph horiz-adv-x="717" d="M 423 706 L 305 706 L 394 841 L 529 841 L 423 706 Z M 65 0 L 65 658 L 211 658 L 464 296 L 520 212 L 518 294 L 518 658 L 652 658 L 652 0 L 508 0 L 251 368 L 197 448 L 199 370 L 199 0 L 65 0 Z" unicode="Ń" />
<glyph horiz-adv-x="522" d="M 326 524 L 194 524 L 293 674 L 443 674 L 326 524 Z M 50 0 L 50 470 L 186 470 L 186 408 C 202 432 222 450 245 462 C 268 474 293 480 321 480 C 369 480 407 464 435 434 C 463 403 477 359 477 301 L 477 0 L 341 0 L 341 276 C 341 302 335 322 324 336 C 312 349 296 356 274 356 C 256 356 240 351 226 342 C 211 333 198 320 186 304 L 186 0 L 50 0 Z" unicode="ń" />
<glyph horiz-adv-x="717" d="M 65 0 L 65 658 L 211 658 L 464 296 L 520 212 L 518 294 L 518 658 L 652 658 L 652 0 L 508 0 L 251 368 L 197 448 L 199 370 L 199 0 L 65 0 Z M 366 -250 L 277 -215 C 291 -193 302 -174 308 -156 C 314 -138 317 -116 317 -92 L 317 -48 L 425 -48 L 425 -92 C 425 -121 419 -149 409 -176 C 399 -203 384 -228 366 -250 Z" unicode="Ņ" />
<glyph horiz-adv-x="522" d="M 50 0 L 50 470 L 186 470 L 186 408 C 202 432 222 450 245 462 C 268 474 293 480 321 480 C 369 480 407 464 435 434 C 463 403 477 359 477 301 L 477 0 L 341 0 L 341 276 C 341 302 335 322 324 336 C 312 349 296 356 274 356 C 256 356 240 351 226 342 C 211 333 198 320 186 304 L 186 0 L 50 0 Z M 262 -272 L 163 -233 C 179 -209 191 -187 197 -167 C 203 -147 207 -124 207 -96 L 207 -48 L 327 -48 L 327 -96 C 327 -128 321 -160 309 -190 C 297 -220 282 -247 262 -272 Z" unicode="ņ" />
<glyph horiz-adv-x="717" d="M 310 706 L 225 841 L 325 841 L 362 783 L 399 841 L 499 841 L 414 706 L 310 706 Z M 65 0 L 65 658 L 211 658 L 464 296 L 520 212 L 518 294 L 518 658 L 652 658 L 652 0 L 508 0 L 251 368 L 197 448 L 199 370 L 199 0 L 65 0 Z" unicode="Ň" />
<glyph horiz-adv-x="522" d="M 208 524 L 114 674 L 225 674 L 266 610 L 307 674 L 418 674 L 324 524 L 208 524 Z M 50 0 L 50 470 L 186 470 L 186 408 C 202 432 222 450 245 462 C 268 474 293 480 321 480 C 369 480 407 464 435 434 C 463 403 477 359 477 301 L 477 0 L 341 0 L 341 276 C 341 302 335 322 324 336 C 312 349 296 356 274 356 C 256 356 240 351 226 342 C 211 333 198 320 186 304 L 186 0 L 50 0 Z" unicode="ň" />
<glyph horiz-adv-x="717" d="M 65 0 L 65 658 L 195 658 L 472 296 L 519 228 L 518 296 L 518 658 L 652 658 L 652 -3 C 652 -67 632 -118 592 -155 C 552 -191 498 -210 430 -210 L 422 -210 L 422 -86 L 430 -86 C 458 -86 480 -78 497 -64 C 513 -50 522 -29 522 -3 L 522 0 L 243 368 L 198 433 L 199 370 L 199 0 L 65 0 Z" unicode="Ŋ" />
<glyph horiz-adv-x="522" d="M 267 -210 L 259 -210 L 259 -86 L 267 -86 C 289 -86 307 -79 321 -65 C 334 -51 341 -32 341 -8 L 341 273 C 341 296 334 315 321 329 C 307 343 288 350 264 350 C 246 350 231 345 219 337 C 207 329 196 318 186 304 L 186 0 L 50 0 L 50 470 L 186 470 L 186 408 C 203 432 223 450 245 462 C 267 474 293 480 324 480 C 370 480 407 464 435 434 C 463 403 477 359 477 301 L 477 -8 C 477 -70 458 -119 420 -155 C 382 -191 331 -210 267 -210 Z" unicode="ŋ" />
<glyph horiz-adv-x="772" d="M 271 714 L 271 810 L 509 810 L 509 714 L 271 714 Z M 386 -16 C 281 -16 197 16 134 80 C 71 144 40 227 40 329 C 40 430 72 513 137 577 C 202 641 285 674 386 674 C 486 674 569 642 634 580 C 699 517 732 433 732 329 C 732 224 700 140 637 78 C 574 15 490 -16 386 -16 Z M 386 114 C 448 114 497 133 534 172 C 571 211 590 263 590 329 C 590 394 571 446 534 485 C 497 524 448 544 386 544 C 324 544 274 524 237 485 C 200 446 182 394 182 329 C 182 263 200 211 237 172 C 274 133 324 114 386 114 Z" unicode="Ō" />
<glyph horiz-adv-x="548" d="M 144 532 L 144 639 L 408 639 L 408 532 L 144 532 Z M 274 -12 C 201 -12 142 10 97 56 C 52 101 30 160 30 234 C 30 308 52 367 97 413 C 142 459 201 482 274 482 C 346 482 405 459 450 414 C 495 368 518 309 518 236 C 518 162 495 102 450 56 C 405 10 346 -12 274 -12 Z M 274 112 C 306 112 331 123 351 146 C 370 168 380 198 380 234 C 380 270 370 300 351 323 C 331 346 306 358 274 358 C 242 358 216 346 197 324 C 177 301 168 272 168 236 C 168 199 177 169 197 146 C 216 123 242 112 274 112 Z" unicode="ō" />
<glyph horiz-adv-x="772" d="M 388 706 C 351 706 321 718 299 742 C 277 766 266 798 266 838 L 345 838 C 345 823 349 811 357 802 C 365 793 375 789 388 789 C 401 789 412 793 420 802 C 428 811 432 823 432 838 L 511 838 C 511 798 499 766 477 742 C 455 718 425 706 388 706 Z M 386 -16 C 281 -16 197 16 134 80 C 71 144 40 227 40 329 C 40 430 72 513 137 577 C 202 641 285 674 386 674 C 486 674 569 642 634 580 C 699 517 732 433 732 329 C 732 224 700 140 637 78 C 574 15 490 -16 386 -16 Z M 386 114 C 448 114 497 133 534 172 C 571 211 590 263 590 329 C 590 394 571 446 534 485 C 497 524 448 544 386 544 C 324 544 274 524 237 485 C 200 446 182 394 182 329 C 182 263 200 211 237 172 C 274 133 324 114 386 114 Z" unicode="Ŏ" />
<glyph horiz-adv-x="548" d="M 275 516 C 233 516 200 529 176 556 C 151 582 139 618 139 663 L 227 663 C 227 646 231 633 240 623 C 248 613 260 609 275 609 C 289 609 301 613 310 623 C 319 633 324 646 324 663 L 411 663 C 411 618 398 582 374 556 C 349 529 316 516 275 516 Z M 274 -12 C 201 -12 142 10 97 56 C 52 101 30 160 30 234 C 30 308 52 367 97 413 C 142 459 201 482 274 482 C 346 482 405 459 450 414 C 495 368 518 309 518 236 C 518 162 495 102 450 56 C 405 10 346 -12 274 -12 Z M 274 112 C 306 112 331 123 351 146 C 370 168 380 198 380 234 C 380 270 370 300 351 323 C 331 346 306 358 274 358 C 242 358 216 346 197 324 C 177 301 168 272 168 236 C 168 199 177 169 197 146 C 216 123 242 112 274 112 Z" unicode="ŏ" />
<glyph horiz-adv-x="772" d="M 256 714 L 336 855 L 449 855 L 358 714 L 256 714 Z M 414 714 L 505 855 L 618 855 L 516 714 L 414 714 Z M 386 -16 C 281 -16 197 16 134 80 C 71 144 40 227 40 329 C 40 430 72 513 137 577 C 202 641 285 674 386 674 C 486 674 569 642 634 580 C 699 517 732 433 732 329 C 732 224 700 140 637 78 C 574 15 490 -16 386 -16 Z M 386 114 C 448 114 497 133 534 172 C 571 211 590 263 590 329 C 590 394 571 446 534 485 C 497 524 448 544 386 544 C 324 544 274 524 237 485 C 200 446 182 394 182 329 C 182 263 200 211 237 172 C 274 133 324 114 386 114 Z" unicode="Ő" />
<glyph horiz-adv-x="548" d="M 129 522 L 218 679 L 343 679 L 242 522 L 129 522 Z M 305 522 L 406 679 L 531 679 L 418 522 L 305 522 Z M 274 -12 C 201 -12 142 10 97 56 C 52 101 30 160 30 234 C 30 308 52 367 97 413 C 142 459 201 482 274 482 C 346 482 405 459 450 414 C 495 368 518 309 518 236 C 518 162 495 102 450 56 C 405 10 346 -12 274 -12 Z M 274 112 C 306 112 331 123 351 146 C 370 168 380 198 380 234 C 380 270 370 300 351 323 C 331 346 306 358 274 358 C 242 358 216 346 197 324 C 177 301 168 272 168 236 C 168 199 177 169 197 146 C 216 123 242 112 274 112 Z" unicode="ő" />
<glyph horiz-adv-x="899" d="M 390 0 C 283 0 198 29 135 89 C 71 149 40 229 40 329 C 40 429 72 508 136 568 C 200 628 285 658 393 658 L 831 658 L 831 526 L 568 526 L 568 399 L 823 399 L 823 267 L 568 267 L 568 132 L 839 132 L 839 0 L 390 0 Z M 384 132 L 427 132 L 427 526 L 387 526 C 325 526 275 508 238 472 C 200 436 182 389 182 329 C 182 269 200 221 237 185 C 273 149 322 132 384 132 Z" unicode="Œ" />
<glyph horiz-adv-x="826" d="M 270 -10 C 197 -10 139 12 95 57 C 51 101 30 160 30 234 C 30 308 51 367 95 412 C 139 457 197 480 270 480 C 304 480 335 473 363 461 C 391 449 414 432 433 412 C 451 432 473 449 499 461 C 525 473 554 480 587 480 C 651 480 702 458 740 415 C 777 372 796 307 796 220 L 796 187 L 503 187 C 505 161 516 141 538 126 C 560 111 589 104 625 104 C 649 104 674 107 701 115 C 727 123 754 134 782 149 L 782 25 C 752 13 723 5 693 -1 C 663 -7 633 -10 605 -10 C 568 -10 535 -3 506 8 C 477 20 453 38 434 60 C 415 38 392 21 364 9 C 336 -3 305 -10 270 -10 Z M 586 370 C 560 370 540 362 526 347 C 511 331 503 311 503 287 L 660 287 C 660 311 653 331 640 347 C 627 362 609 370 586 370 Z M 270 114 C 302 114 327 125 345 147 C 363 169 372 199 372 235 C 372 271 363 301 345 323 C 327 345 302 356 270 356 C 238 356 213 345 195 323 C 177 301 168 272 168 236 C 168 199 177 169 195 147 C 213 125 238 114 270 114 Z" unicode="œ" />
<glyph horiz-adv-x="566" d="M 319 706 L 201 706 L 290 841 L 425 841 L 319 706 Z M 398 0 L 336 182 C 328 206 316 224 302 236 C 287 248 269 255 249 255 L 205 255 L 205 0 L 65 0 L 65 658 L 275 658 C 343 658 396 641 435 607 C 473 573 493 530 493 477 C 493 437 482 403 461 374 C 440 344 409 323 369 311 C 393 304 414 292 432 276 C 449 259 463 237 473 211 L 551 0 L 398 0 Z M 205 373 L 270 373 C 294 373 314 380 329 395 C 343 410 351 430 351 454 C 351 477 343 496 329 510 C 314 524 294 532 270 532 L 205 532 L 205 373 Z" unicode="Ŕ" />
<glyph horiz-adv-x="343" d="M 253 524 L 121 524 L 220 674 L 370 674 L 253 524 Z M 50 0 L 50 470 L 186 470 L 186 400 C 198 426 214 446 232 460 C 250 473 269 480 290 480 C 296 480 303 479 309 479 C 315 478 322 477 328 476 L 328 328 C 318 331 307 333 297 335 C 286 337 275 338 265 338 C 249 338 235 335 221 330 C 207 324 195 317 186 309 L 186 0 L 50 0 Z" unicode="ŕ" />
<glyph horiz-adv-x="566" d="M 398 0 L 336 182 C 328 206 316 224 302 236 C 287 248 269 255 249 255 L 205 255 L 205 0 L 65 0 L 65 658 L 275 658 C 343 658 396 641 435 607 C 473 573 493 530 493 477 C 493 437 482 403 461 374 C 440 344 409 323 369 311 C 393 304 414 292 432 276 C 449 259 463 237 473 211 L 551 0 L 398 0 Z M 205 373 L 270 373 C 294 373 314 380 329 395 C 343 410 351 430 351 454 C 351 477 343 496 329 510 C 314 524 294 532 270 532 L 205 532 L 205 373 Z M 300 -250 L 211 -215 C 225 -193 236 -174 242 -156 C 248 -138 251 -116 251 -92 L 251 -48 L 359 -48 L 359 -92 C 359 -121 353 -149 343 -176 C 333 -203 318 -228 300 -250 Z" unicode="Ŗ" />
<glyph horiz-adv-x="343" d="M 50 0 L 50 470 L 186 470 L 186 400 C 198 426 214 446 232 460 C 250 473 269 480 290 480 C 296 480 303 479 309 479 C 315 478 322 477 328 476 L 328 328 C 318 331 307 333 297 335 C 286 337 275 338 265 338 C 249 338 235 335 221 330 C 207 324 195 317 186 309 L 186 0 L 50 0 Z M 118 -272 L 19 -233 C 35 -209 47 -187 53 -167 C 59 -147 63 -124 63 -96 L 63 -48 L 183 -48 L 183 -96 C 183 -128 177 -160 165 -190 C 153 -220 138 -247 118 -272 Z" unicode="ŗ" />
<glyph horiz-adv-x="566" d="M 206 706 L 121 841 L 221 841 L 258 783 L 295 841 L 395 841 L 310 706 L 206 706 Z M 398 0 L 336 182 C 328 206 316 224 302 236 C 287 248 269 255 249 255 L 205 255 L 205 0 L 65 0 L 65 658 L 275 658 C 343 658 396 641 435 607 C 473 573 493 530 493 477 C 493 437 482 403 461 374 C 440 344 409 323 369 311 C 393 304 414 292 432 276 C 449 259 463 237 473 211 L 551 0 L 398 0 Z M 205 373 L 270 373 C 294 373 314 380 329 395 C 343 410 351 430 351 454 C 351 477 343 496 329 510 C 314 524 294 532 270 532 L 205 532 L 205 373 Z" unicode="Ř" />
<glyph horiz-adv-x="343" d="M 135 524 L 41 674 L 152 674 L 193 610 L 234 674 L 345 674 L 251 524 L 135 524 Z M 50 0 L 50 470 L 186 470 L 186 400 C 198 426 214 446 232 460 C 250 473 269 480 290 480 C 296 480 303 479 309 479 C 315 478 322 477 328 476 L 328 328 C 318 331 307 333 297 335 C 286 337 275 338 265 338 C 249 338 235 335 221 330 C 207 324 195 317 186 309 L 186 0 L 50 0 Z" unicode="ř" />
<glyph horiz-adv-x="513" d="M 320 714 L 202 714 L 291 849 L 426 849 L 320 714 Z M 245 -14 C 211 -14 178 -10 146 -4 C 114 1 83 12 53 27 L 53 171 C 80 152 109 138 140 129 C 170 120 203 116 237 116 C 264 116 285 122 301 134 C 317 146 325 163 325 185 C 325 204 317 220 301 234 C 285 248 260 260 226 271 L 207 277 C 153 293 113 319 86 353 C 58 387 45 428 45 478 C 45 534 64 581 103 617 C 142 653 194 672 260 672 C 290 672 319 668 349 662 C 378 656 409 645 442 631 L 442 487 C 413 505 385 518 357 528 C 329 537 301 542 271 542 C 244 542 223 537 209 527 C 195 517 188 502 188 482 C 188 464 195 448 210 436 C 224 424 247 413 277 404 L 296 398 C 352 380 395 355 424 322 C 453 288 468 248 468 202 C 468 138 447 86 407 46 C 367 6 313 -14 245 -14 Z" unicode="Ś" />
<glyph horiz-adv-x="413" d="M 269 524 L 137 524 L 236 674 L 386 674 L 269 524 Z M 189 -10 C 166 -10 141 -7 114 -2 C 87 3 63 10 42 18 L 42 136 C 62 124 85 115 111 109 C 136 102 160 99 183 99 C 202 99 217 101 227 106 C 237 111 242 119 242 130 C 242 138 238 146 231 152 C 224 158 210 164 190 172 L 176 177 C 126 195 90 215 68 239 C 46 262 35 293 35 331 C 35 377 49 413 78 440 C 107 466 151 480 209 480 C 231 480 255 477 281 473 C 307 468 332 462 354 456 L 354 338 C 334 348 312 356 288 362 C 264 368 241 371 221 371 C 204 371 191 368 183 363 C 175 358 171 351 171 342 C 171 333 174 326 182 320 C 190 314 205 307 227 299 L 241 294 C 290 276 325 256 346 234 C 367 211 378 182 378 148 C 378 100 362 61 330 33 C 298 4 251 -10 189 -10 Z" unicode="ś" />
<glyph horiz-adv-x="513" d="M 222 714 L 122 714 L 207 849 L 311 849 L 396 714 L 296 714 L 259 772 L 222 714 Z M 245 -14 C 211 -14 178 -10 146 -4 C 114 1 83 12 53 27 L 53 171 C 80 152 109 138 140 129 C 170 120 203 116 237 116 C 264 116 285 122 301 134 C 317 146 325 163 325 185 C 325 204 317 220 301 234 C 285 248 260 260 226 271 L 207 277 C 153 293 113 319 86 353 C 58 387 45 428 45 478 C 45 534 64 581 103 617 C 142 653 194 672 260 672 C 290 672 319 668 349 662 C 378 656 409 645 442 631 L 442 487 C 413 505 385 518 357 528 C 329 537 301 542 271 542 C 244 542 223 537 209 527 C 195 517 188 502 188 482 C 188 464 195 448 210 436 C 224 424 247 413 277 404 L 296 398 C 352 380 395 355 424 322 C 453 288 468 248 468 202 C 468 138 447 86 407 46 C 367 6 313 -14 245 -14 Z" unicode="Ŝ" />
<glyph horiz-adv-x="413" d="M 168 524 L 57 524 L 151 674 L 267 674 L 361 524 L 250 524 L 209 588 L 168 524 Z M 189 -10 C 166 -10 141 -7 114 -2 C 87 3 63 10 42 18 L 42 136 C 62 124 85 115 111 109 C 136 102 160 99 183 99 C 202 99 217 101 227 106 C 237 111 242 119 242 130 C 242 138 238 146 231 152 C 224 158 210 164 190 172 L 176 177 C 126 195 90 215 68 239 C 46 262 35 293 35 331 C 35 377 49 413 78 440 C 107 466 151 480 209 480 C 231 480 255 477 281 473 C 307 468 332 462 354 456 L 354 338 C 334 348 312 356 288 362 C 264 368 241 371 221 371 C 204 371 191 368 183 363 C 175 358 171 351 171 342 C 171 333 174 326 182 320 C 190 314 205 307 227 299 L 241 294 C 290 276 325 256 346 234 C 367 211 378 182 378 148 C 378 100 362 61 330 33 C 298 4 251 -10 189 -10 Z" unicode="ŝ" />
<glyph horiz-adv-x="513" d="M 245 -14 C 211 -14 178 -10 146 -4 C 114 1 83 12 53 27 L 53 171 C 80 152 109 138 140 129 C 170 120 203 116 237 116 C 264 116 285 122 301 134 C 317 146 325 163 325 185 C 325 204 317 220 301 234 C 285 248 260 260 226 271 L 207 277 C 153 293 113 319 86 353 C 58 387 45 428 45 478 C 45 534 64 581 103 617 C 142 653 194 672 260 672 C 290 672 319 668 349 662 C 378 656 409 645 442 631 L 442 487 C 413 505 385 518 357 528 C 329 537 301 542 271 542 C 244 542 223 537 209 527 C 195 517 188 502 188 482 C 188 464 195 448 210 436 C 224 424 247 413 277 404 L 296 398 C 352 380 395 355 424 322 C 453 288 468 248 468 202 C 468 138 447 86 407 46 C 367 6 313 -14 245 -14 Z M 263 -230 C 252 -230 241 -229 229 -227 C 217 -225 206 -222 196 -218 L 196 -150 C 204 -154 213 -158 221 -160 C 229 -162 237 -163 245 -163 C 253 -163 260 -160 265 -156 C 270 -151 273 -145 273 -138 C 273 -130 270 -123 265 -119 C 259 -114 253 -112 245 -112 L 236 -112 L 236 -48 L 246 -48 C 280 -48 307 -56 328 -73 C 348 -90 359 -112 359 -140 C 359 -166 350 -188 332 -205 C 314 -221 291 -230 263 -230 Z" unicode="Ş" />
<glyph horiz-adv-x="413" d="M 189 -10 C 166 -10 141 -7 114 -2 C 87 3 63 10 42 18 L 42 136 C 62 124 85 115 111 109 C 136 102 160 99 183 99 C 202 99 217 101 227 106 C 237 111 242 119 242 130 C 242 138 238 146 231 152 C 224 158 210 164 190 172 L 176 177 C 126 195 90 215 68 239 C 46 262 35 293 35 331 C 35 377 49 413 78 440 C 107 466 151 480 209 480 C 231 480 255 477 281 473 C 307 468 332 462 354 456 L 354 338 C 334 348 312 356 288 362 C 264 368 241 371 221 371 C 204 371 191 368 183 363 C 175 358 171 351 171 342 C 171 333 174 326 182 320 C 190 314 205 307 227 299 L 241 294 C 290 276 325 256 346 234 C 367 211 378 182 378 148 C 378 100 362 61 330 33 C 298 4 251 -10 189 -10 Z M 227 -242 C 215 -242 202 -241 190 -239 C 178 -237 165 -233 153 -229 L 153 -154 C 163 -158 172 -162 181 -164 C 190 -166 199 -168 208 -168 C 216 -168 223 -165 229 -160 C 235 -155 238 -148 238 -140 C 238 -131 235 -124 229 -119 C 223 -113 216 -111 208 -111 L 197 -111 L 197 -40 L 209 -40 C 246 -40 276 -49 299 -68 C 322 -86 334 -111 334 -142 C 334 -172 324 -196 304 -214 C 284 -232 259 -242 227 -242 Z" unicode="ş" />
<glyph horiz-adv-x="513" d="M 207 714 L 122 849 L 222 849 L 259 791 L 296 849 L 396 849 L 311 714 L 207 714 Z M 245 -14 C 211 -14 178 -10 146 -4 C 114 1 83 12 53 27 L 53 171 C 80 152 109 138 140 129 C 170 120 203 116 237 116 C 264 116 285 122 301 134 C 317 146 325 163 325 185 C 325 204 317 220 301 234 C 285 248 260 260 226 271 L 207 277 C 153 293 113 319 86 353 C 58 387 45 428 45 478 C 45 534 64 581 103 617 C 142 653 194 672 260 672 C 290 672 319 668 349 662 C 378 656 409 645 442 631 L 442 487 C 413 505 385 518 357 528 C 329 537 301 542 271 542 C 244 542 223 537 209 527 C 195 517 188 502 188 482 C 188 464 195 448 210 436 C 224 424 247 413 277 404 L 296 398 C 352 380 395 355 424 322 C 453 288 468 248 468 202 C 468 138 447 86 407 46 C 367 6 313 -14 245 -14 Z" unicode="Š" />
<glyph horiz-adv-x="413" d="M 151 524 L 57 674 L 168 674 L 209 610 L 250 674 L 361 674 L 267 524 L 151 524 Z M 189 -10 C 166 -10 141 -7 114 -2 C 87 3 63 10 42 18 L 42 136 C 62 124 85 115 111 109 C 136 102 160 99 183 99 C 202 99 217 101 227 106 C 237 111 242 119 242 130 C 242 138 238 146 231 152 C 224 158 210 164 190 172 L 176 177 C 126 195 90 215 68 239 C 46 262 35 293 35 331 C 35 377 49 413 78 440 C 107 466 151 480 209 480 C 231 480 255 477 281 473 C 307 468 332 462 354 456 L 354 338 C 334 348 312 356 288 362 C 264 368 241 371 221 371 C 204 371 191 368 183 363 C 175 358 171 351 171 342 C 171 333 174 326 182 320 C 190 314 205 307 227 299 L 241 294 C 290 276 325 256 346 234 C 367 211 378 182 378 148 C 378 100 362 61 330 33 C 298 4 251 -10 189 -10 Z" unicode="š" />
<glyph horiz-adv-x="580" d="M 220 0 L 220 526 L 20 526 L 20 658 L 560 658 L 560 526 L 360 526 L 360 0 L 220 0 Z M 307 -222 C 296 -222 285 -221 273 -219 C 261 -217 250 -214 240 -210 L 240 -142 C 248 -146 257 -150 265 -152 C 273 -154 281 -155 289 -155 C 297 -155 304 -152 309 -148 C 314 -143 317 -137 317 -130 C 317 -122 314 -115 309 -111 C 303 -106 297 -104 289 -104 L 280 -104 L 280 -40 L 290 -40 C 324 -40 351 -48 372 -65 C 392 -82 403 -104 403 -132 C 403 -158 394 -180 376 -197 C 358 -213 335 -222 307 -222 Z" unicode="Ţ" />
<glyph horiz-adv-x="330" d="M 203 -10 C 163 -10 133 0 112 22 C 90 44 80 75 80 116 L 80 348 L 20 348 L 20 470 L 80 470 L 80 593 L 216 593 L 216 470 L 300 470 L 300 348 L 216 348 L 216 159 C 216 144 220 133 228 125 C 236 117 246 114 258 114 C 265 114 272 114 279 116 C 285 118 292 120 300 124 L 300 7 C 285 1 269 -3 251 -6 C 233 -8 217 -10 203 -10 Z M 221 -250 C 209 -250 196 -249 184 -247 C 172 -245 159 -241 147 -237 L 147 -162 C 157 -166 166 -170 175 -172 C 184 -174 193 -176 202 -176 C 210 -176 217 -173 223 -168 C 229 -163 232 -156 232 -148 C 232 -139 229 -132 223 -127 C 217 -121 210 -119 202 -119 L 191 -119 L 191 -48 L 203 -48 C 240 -48 270 -57 293 -76 C 316 -94 328 -119 328 -150 C 328 -180 318 -204 298 -222 C 278 -240 253 -250 221 -250 Z" unicode="ţ" />
<glyph horiz-adv-x="580" d="M 242 706 L 157 841 L 257 841 L 294 783 L 331 841 L 431 841 L 346 706 L 242 706 Z M 220 0 L 220 526 L 20 526 L 20 658 L 560 658 L 560 526 L 360 526 L 360 0 L 220 0 Z" unicode="Ť" />
<glyph horiz-adv-x="481" d="M 371 492 L 272 531 C 288 555 300 576 306 596 C 312 616 316 640 316 668 L 316 716 L 436 716 L 436 668 C 436 635 430 604 418 574 C 406 544 391 516 371 492 Z M 203 -10 C 163 -10 133 0 112 22 C 90 44 80 75 80 116 L 80 348 L 20 348 L 20 470 L 80 470 L 80 593 L 216 593 L 216 470 L 300 470 L 300 348 L 216 348 L 216 159 C 216 144 220 133 228 125 C 236 117 246 114 258 114 C 265 114 272 114 279 116 C 285 118 292 120 300 124 L 300 7 C 285 1 269 -3 251 -6 C 233 -8 217 -10 203 -10 Z" unicode="ť" />
<glyph horiz-adv-x="580" d="M 220 0 L 220 264 L 110 264 L 110 384 L 220 384 L 220 526 L 20 526 L 20 658 L 560 658 L 560 526 L 360 526 L 360 384 L 470 384 L 470 264 L 360 264 L 360 0 L 220 0 Z" unicode="Ŧ" />
<glyph horiz-adv-x="330" d="M 36 185 L 36 297 L 80 297 L 80 348 L 20 348 L 20 470 L 80 470 L 80 593 L 216 593 L 216 470 L 300 470 L 300 348 L 216 348 L 216 297 L 264 297 L 264 185 L 216 185 L 216 159 C 216 144 220 133 228 125 C 236 117 246 114 258 114 C 265 114 272 114 279 116 C 285 118 292 120 300 124 L 300 7 C 285 1 269 -3 251 -6 C 233 -8 217 -10 203 -10 C 163 -10 133 0 112 22 C 90 44 80 75 80 116 L 80 185 L 36 185 Z" unicode="ŧ" />
<glyph horiz-adv-x="668" d="M 270 706 L 198 706 C 198 742 206 771 222 793 C 238 815 260 827 287 827 C 297 827 307 825 316 823 C 325 820 335 815 347 808 C 356 803 364 799 370 796 C 376 792 381 791 387 791 C 394 791 400 794 405 800 C 409 806 412 814 412 824 L 484 824 C 484 788 475 758 459 736 C 443 713 421 702 395 702 C 384 702 374 703 365 706 C 355 708 345 713 335 721 C 326 727 318 731 312 734 C 306 736 300 738 295 738 C 287 738 281 735 277 729 C 272 723 270 716 270 706 Z M 336 -12 C 248 -12 180 12 130 62 C 80 111 55 177 55 261 L 55 658 L 195 658 L 195 261 C 195 218 207 184 233 158 C 259 132 293 120 337 120 C 381 120 415 132 440 158 C 464 184 477 218 477 261 L 477 658 L 613 658 L 613 261 C 613 177 587 111 537 62 C 487 12 420 -12 336 -12 Z" unicode="Ũ" />
<glyph horiz-adv-x="522" d="M 184 524 L 104 524 C 104 564 113 596 131 621 C 149 646 173 659 203 659 C 214 659 225 657 235 654 C 245 651 257 646 270 638 C 280 632 289 627 295 624 C 301 620 308 619 314 619 C 322 619 329 622 334 629 C 339 635 342 644 342 655 L 422 655 C 422 615 413 582 395 557 C 377 532 353 520 323 520 C 311 520 300 521 290 524 C 279 526 268 532 256 541 C 246 547 238 552 231 555 C 224 558 218 560 212 560 C 203 560 196 556 191 550 C 186 543 184 534 184 524 Z M 199 -11 C 152 -11 115 5 87 37 C 59 69 45 113 45 169 L 45 470 L 181 470 L 181 193 C 181 169 187 149 200 135 C 213 120 230 113 251 113 C 269 113 285 117 299 126 C 313 135 325 147 336 162 L 336 470 L 472 470 L 472 0 L 346 0 L 336 62 C 318 38 299 19 277 7 C 255 -4 229 -11 199 -11 Z" unicode="ũ" />
<glyph horiz-adv-x="668" d="M 223 706 L 223 802 L 461 802 L 461 706 L 223 706 Z M 336 -12 C 248 -12 180 12 130 62 C 80 111 55 177 55 261 L 55 658 L 195 658 L 195 261 C 195 218 207 184 233 158 C 259 132 293 120 337 120 C 381 120 415 132 440 158 C 464 184 477 218 477 261 L 477 658 L 613 658 L 613 261 C 613 177 587 111 537 62 C 487 12 420 -12 336 -12 Z" unicode="Ū" />
<glyph horiz-adv-x="522" d="M 129 532 L 129 639 L 393 639 L 393 532 L 129 532 Z M 199 -11 C 152 -11 115 5 87 37 C 59 69 45 113 45 169 L 45 470 L 181 470 L 181 193 C 181 169 187 149 200 135 C 213 120 230 113 251 113 C 269 113 285 117 299 126 C 313 135 325 147 336 162 L 336 470 L 472 470 L 472 0 L 346 0 L 336 62 C 318 38 299 19 277 7 C 255 -4 229 -11 199 -11 Z" unicode="ū" />
<glyph horiz-adv-x="668" d="M 340 698 C 303 698 273 710 251 734 C 229 758 218 790 218 830 L 297 830 C 297 815 301 803 309 794 C 317 785 327 781 340 781 C 353 781 364 785 372 794 C 380 803 384 815 384 830 L 463 830 C 463 790 451 758 429 734 C 407 710 377 698 340 698 Z M 336 -12 C 248 -12 180 12 130 62 C 80 111 55 177 55 261 L 55 658 L 195 658 L 195 261 C 195 218 207 184 233 158 C 259 132 293 120 337 120 C 381 120 415 132 440 158 C 464 184 477 218 477 261 L 477 658 L 613 658 L 613 261 C 613 177 587 111 537 62 C 487 12 420 -12 336 -12 Z" unicode="Ŭ" />
<glyph horiz-adv-x="522" d="M 260 516 C 218 516 185 529 161 556 C 136 582 124 618 124 663 L 212 663 C 212 646 216 633 225 623 C 233 613 245 609 260 609 C 274 609 286 613 295 623 C 304 633 309 646 309 663 L 396 663 C 396 618 383 582 359 556 C 334 529 301 516 260 516 Z M 199 -11 C 152 -11 115 5 87 37 C 59 69 45 113 45 169 L 45 470 L 181 470 L 181 193 C 181 169 187 149 200 135 C 213 120 230 113 251 113 C 269 113 285 117 299 126 C 313 135 325 147 336 162 L 336 470 L 472 470 L 472 0 L 346 0 L 336 62 C 318 38 299 19 277 7 C 255 -4 229 -11 199 -11 Z" unicode="ŭ" />
<glyph horiz-adv-x="668" d="M 341 594 C 311 594 287 603 269 622 C 251 641 243 664 243 691 C 243 717 251 740 269 760 C 287 780 311 790 341 790 C 371 790 394 780 412 760 C 430 740 439 717 439 691 C 439 664 430 641 412 622 C 394 603 371 594 341 594 Z M 341 658 C 349 658 357 661 364 667 C 370 673 374 681 374 691 C 374 701 370 710 364 716 C 357 722 349 726 341 726 C 332 726 324 722 318 716 C 311 710 308 701 308 691 C 308 681 311 673 318 667 C 324 661 332 658 341 658 Z M 336 -12 C 248 -12 180 12 130 62 C 80 111 55 177 55 261 L 55 658 L 195 658 L 195 261 C 195 218 207 184 233 158 C 259 132 293 120 337 120 C 381 120 415 132 440 158 C 464 184 477 218 477 261 L 477 658 L 613 658 L 613 261 C 613 177 587 111 537 62 C 487 12 420 -12 336 -12 Z" unicode="Ů" />
<glyph horiz-adv-x="522" d="M 262 508 C 228 508 202 518 182 539 C 162 560 153 586 153 616 C 153 646 162 671 182 693 C 202 714 228 725 262 725 C 295 725 321 714 341 693 C 361 671 371 646 371 616 C 371 586 361 560 341 539 C 321 518 295 508 262 508 Z M 262 579 C 272 579 280 582 288 589 C 295 595 299 604 299 616 C 299 627 295 636 288 643 C 280 650 272 654 262 654 C 252 654 243 650 236 643 C 228 636 225 627 225 616 C 225 604 228 595 236 589 C 243 582 252 579 262 579 Z M 199 -11 C 152 -11 115 5 87 37 C 59 69 45 113 45 169 L 45 470 L 181 470 L 181 193 C 181 169 187 149 200 135 C 213 120 230 113 251 113 C 269 113 285 117 299 126 C 313 135 325 147 336 162 L 336 470 L 472 470 L 472 0 L 346 0 L 336 62 C 318 38 299 19 277 7 C 255 -4 229 -11 199 -11 Z" unicode="ů" />
<glyph horiz-adv-x="668" d="M 208 706 L 288 847 L 401 847 L 310 706 L 208 706 Z M 366 706 L 457 847 L 570 847 L 468 706 L 366 706 Z M 336 -12 C 248 -12 180 12 130 62 C 80 111 55 177 55 261 L 55 658 L 195 658 L 195 261 C 195 218 207 184 233 158 C 259 132 293 120 337 120 C 381 120 415 132 440 158 C 464 184 477 218 477 261 L 477 658 L 613 658 L 613 261 C 613 177 587 111 537 62 C 487 12 420 -12 336 -12 Z" unicode="Ű" />
<glyph horiz-adv-x="522" d="M 114 522 L 203 679 L 328 679 L 227 522 L 114 522 Z M 290 522 L 391 679 L 516 679 L 403 522 L 290 522 Z M 199 -11 C 152 -11 115 5 87 37 C 59 69 45 113 45 169 L 45 470 L 181 470 L 181 193 C 181 169 187 149 200 135 C 213 120 230 113 251 113 C 269 113 285 117 299 126 C 313 135 325 147 336 162 L 336 470 L 472 470 L 472 0 L 346 0 L 336 62 C 318 38 299 19 277 7 C 255 -4 229 -11 199 -11 Z" unicode="ű" />
<glyph horiz-adv-x="668" d="M 490 -220 C 432 -220 386 -207 351 -182 C 315 -156 298 -123 298 -81 C 298 -68 299 -56 302 -44 C 305 -32 309 -21 315 -11 C 234 -7 170 19 124 68 C 78 116 55 181 55 261 L 55 658 L 195 658 L 195 261 C 195 218 207 184 233 158 C 259 132 293 120 337 120 C 381 120 415 132 440 158 C 464 184 477 218 477 261 L 477 658 L 613 658 L 613 261 C 613 199 599 147 571 104 C 543 60 506 29 458 10 C 445 5 435 -2 428 -12 C 420 -22 417 -35 417 -50 C 417 -68 423 -83 437 -95 C 450 -106 468 -112 490 -112 L 490 -220 Z" unicode="Ų" />
<glyph horiz-adv-x="522" d="M 199 -11 C 152 -11 115 5 87 37 C 59 69 45 113 45 169 L 45 470 L 181 470 L 181 193 C 181 169 187 149 200 135 C 213 120 230 113 251 113 C 269 113 285 117 299 126 C 313 135 325 147 336 162 L 336 470 L 472 470 L 472 18 L 477 0 C 457 0 441 -5 429 -15 C 417 -25 411 -40 411 -58 C 411 -74 417 -87 429 -97 C 441 -107 457 -112 477 -112 L 477 -220 C 423 -220 379 -210 346 -192 C 313 -174 297 -144 297 -102 C 297 -80 301 -61 311 -44 C 320 -27 334 -12 352 0 L 346 0 L 336 62 C 318 38 299 19 277 7 C 255 -4 229 -11 199 -11 Z" unicode="ų" />
<glyph horiz-adv-x="982" d="M 456 706 L 356 706 L 441 841 L 545 841 L 630 706 L 530 706 L 493 764 L 456 706 Z M 216 0 L 15 658 L 162 658 L 264 288 L 292 171 L 320 288 L 422 658 L 569 658 L 670 288 L 698 173 L 725 288 L 826 658 L 967 658 L 766 0 L 619 0 L 517 370 L 491 482 L 465 370 L 363 0 L 216 0 Z" unicode="Ŵ" />
<glyph horiz-adv-x="777" d="M 350 524 L 239 524 L 333 674 L 449 674 L 543 524 L 432 524 L 391 588 L 350 524 Z M 148 0 L 10 470 L 150 470 L 214 238 L 240 125 L 265 238 L 325 470 L 466 470 L 526 238 L 550 130 L 575 238 L 639 470 L 767 470 L 629 0 L 465 0 L 416 193 L 390 308 L 363 193 L 314 0 L 148 0 Z" unicode="ŵ" />
<glyph horiz-adv-x="642" d="M 286 706 L 186 706 L 271 841 L 375 841 L 460 706 L 360 706 L 323 764 L 286 706 Z M 252 0 L 252 256 L 10 658 L 172 658 L 283 464 L 326 385 L 371 464 L 480 658 L 632 658 L 392 256 L 392 0 L 252 0 Z" unicode="Ŷ" />
<glyph horiz-adv-x="504" d="M 213 524 L 102 524 L 196 674 L 312 674 L 406 524 L 295 524 L 254 588 L 213 524 Z M 17 -210 L 9 -210 L 9 -86 L 17 -86 C 62 -86 97 -81 122 -71 C 147 -61 166 -44 180 -20 L 168 14 L 10 470 L 155 470 L 226 238 L 254 137 L 284 238 L 355 470 L 493 470 L 347 47 C 313 -52 272 -120 226 -156 C 180 -192 110 -210 17 -210 Z" unicode="ŷ" />
<glyph horiz-adv-x="642" d="M 181 706 L 181 817 L 292 817 L 292 706 L 181 706 Z M 352 706 L 352 817 L 463 817 L 463 706 L 352 706 Z M 252 0 L 252 256 L 10 658 L 172 658 L 283 464 L 326 385 L 371 464 L 480 658 L 632 658 L 392 256 L 392 0 L 252 0 Z" unicode="Ÿ" />
<glyph horiz-adv-x="587" d="M 357 706 L 239 706 L 328 841 L 463 841 L 357 706 Z M 40 0 L 40 78 L 302 466 L 343 526 L 51 526 L 51 658 L 547 658 L 547 580 L 285 191 L 245 132 L 547 132 L 547 0 L 40 0 Z" unicode="Ź" />
<glyph horiz-adv-x="450" d="M 287 524 L 155 524 L 254 674 L 404 674 L 287 524 Z M 35 0 L 35 99 L 188 295 L 231 348 L 39 348 L 39 470 L 410 470 L 410 371 L 256 175 L 213 122 L 415 122 L 415 0 L 35 0 Z" unicode="ź" />
<glyph horiz-adv-x="587" d="M 239 706 L 239 825 L 357 825 L 357 706 L 239 706 Z M 40 0 L 40 78 L 302 466 L 343 526 L 51 526 L 51 658 L 547 658 L 547 580 L 285 191 L 245 132 L 547 132 L 547 0 L 40 0 Z" unicode="Ż" />
<glyph horiz-adv-x="450" d="M 160 524 L 160 656 L 292 656 L 292 524 L 160 524 Z M 35 0 L 35 99 L 188 295 L 231 348 L 39 348 L 39 470 L 410 470 L 410 371 L 256 175 L 213 122 L 415 122 L 415 0 L 35 0 Z" unicode="ż" />
<glyph horiz-adv-x="587" d="M 244 706 L 159 841 L 259 841 L 296 783 L 333 841 L 433 841 L 348 706 L 244 706 Z M 40 0 L 40 78 L 302 466 L 343 526 L 51 526 L 51 658 L 547 658 L 547 580 L 285 191 L 245 132 L 547 132 L 547 0 L 40 0 Z" unicode="Ž" />
<glyph horiz-adv-x="450" d="M 169 524 L 75 674 L 186 674 L 227 610 L 268 674 L 379 674 L 285 524 L 169 524 Z M 35 0 L 35 99 L 188 295 L 231 348 L 39 348 L 39 470 L 410 470 L 410 371 L 256 175 L 213 122 L 415 122 L 415 0 L 35 0 Z" unicode="ž" />
<glyph horiz-adv-x="494" d="M 88 -210 C 75 -210 63 -209 51 -207 C 39 -205 27 -202 15 -198 L 15 -76 C 27 -79 39 -81 52 -83 C 64 -85 78 -86 93 -86 C 109 -86 123 -81 134 -71 C 144 -61 151 -47 153 -28 L 192 346 L 129 346 L 129 470 L 205 470 L 212 533 C 218 595 239 641 274 671 C 309 701 352 716 402 716 C 414 716 427 715 440 714 C 453 712 466 710 479 708 L 479 580 C 467 584 455 587 443 589 C 431 591 418 592 406 592 C 388 592 373 587 363 577 C 353 567 347 553 345 534 L 338 470 L 407 470 L 407 346 L 325 346 L 286 -29 C 279 -89 258 -135 224 -165 C 189 -195 144 -210 88 -210 Z" unicode="ƒ" />
<glyph horiz-adv-x="687" d="M 326 714 L 241 849 L 341 849 L 378 791 L 415 849 L 515 849 L 430 714 L 326 714 Z M 387 -16 C 280 -16 195 15 133 79 C 71 142 40 227 40 333 C 40 436 71 519 134 581 C 197 643 282 674 388 674 C 424 674 462 670 502 662 C 542 654 577 643 607 630 L 607 495 C 576 511 543 523 507 531 C 471 539 433 544 394 544 C 329 544 277 524 239 486 C 201 448 182 397 182 333 C 182 267 200 214 236 174 C 272 134 319 114 377 114 C 401 114 422 115 441 118 C 460 121 479 126 497 132 L 497 238 L 363 238 L 363 370 L 637 370 L 637 38 C 599 20 558 6 516 -2 C 474 -11 431 -16 387 -16 Z" unicode="Ǧ" />
<glyph horiz-adv-x="529" d="M 203 524 L 109 674 L 220 674 L 261 610 L 302 674 L 413 674 L 319 524 L 203 524 Z M 242 -220 C 209 -220 178 -217 148 -211 C 118 -205 90 -196 64 -185 L 64 -53 C 90 -67 115 -78 141 -87 C 167 -95 193 -100 219 -100 C 255 -100 285 -90 308 -72 C 331 -54 343 -27 343 8 L 343 35 C 329 20 312 9 292 1 C 272 -6 251 -10 230 -10 C 166 -10 117 11 82 53 C 47 95 30 154 30 230 C 30 301 50 360 91 408 C 132 456 188 480 259 480 C 281 480 304 475 330 466 C 355 457 375 445 390 429 L 419 470 L 479 470 L 479 22 C 479 -51 457 -110 414 -154 C 370 -198 313 -220 242 -220 Z M 263 110 C 278 110 292 112 306 118 C 320 123 332 130 343 138 L 343 349 C 333 352 323 355 311 358 C 299 360 287 362 276 362 C 240 362 213 348 195 322 C 176 296 167 265 167 231 C 167 195 175 165 191 143 C 207 121 231 110 263 110 Z" unicode="ǧ" />
<glyph horiz-adv-x="685" d="M 297 811 L 356 891 L 447 891 L 385 811 L 297 811 Z M 15 0 L 266 631 C 259 639 254 649 251 659 C 247 669 246 680 246 692 C 246 718 254 741 272 761 C 290 780 314 790 344 790 C 374 790 397 780 415 761 C 433 741 442 718 442 692 C 442 680 440 668 436 657 C 432 646 426 636 420 628 L 670 0 L 518 0 L 465 140 L 212 140 L 159 0 L 15 0 Z M 344 658 C 352 658 360 661 367 667 C 373 673 377 681 377 692 C 377 702 373 710 367 716 C 360 722 352 726 344 726 C 335 726 327 722 321 716 C 314 710 311 702 311 692 C 311 681 314 673 321 667 C 327 661 335 658 344 658 Z M 257 264 L 419 264 L 379 370 L 338 486 L 296 370 L 257 264 Z" unicode="Ǻ" />
<glyph horiz-adv-x="487" d="M 192 656 L 257 744 L 358 744 L 289 656 L 192 656 Z M 178 -10 C 136 -10 101 2 75 27 C 49 51 36 85 36 127 C 36 171 51 207 81 234 C 111 260 156 279 216 290 L 302 305 L 302 315 C 302 331 294 343 279 351 C 264 359 242 364 213 364 C 186 364 159 360 132 352 C 104 344 79 334 57 322 L 57 450 C 70 454 84 459 100 463 C 115 467 130 471 146 475 C 142 481 140 489 138 497 C 136 505 135 514 135 523 C 135 553 144 578 164 600 C 184 621 210 632 244 632 C 277 632 303 621 323 600 C 343 578 353 553 353 523 C 353 513 351 503 349 494 C 347 485 344 477 340 469 C 372 456 397 437 413 411 C 429 385 438 355 438 319 L 438 0 L 313 0 L 303 62 C 290 39 272 21 250 9 C 228 -3 204 -10 178 -10 Z M 244 486 C 254 486 262 489 270 496 C 277 502 281 511 281 523 C 281 534 277 543 270 550 C 262 557 254 561 244 561 C 234 561 225 557 218 550 C 210 543 207 534 207 523 C 207 511 210 502 218 496 C 225 489 234 486 244 486 Z M 225 98 C 242 98 258 102 272 112 C 286 121 296 133 302 149 L 302 213 L 233 201 C 213 197 198 191 187 181 C 175 171 170 159 170 143 C 170 129 175 118 185 110 C 195 102 208 98 225 98 Z" unicode="ǻ" />
<glyph horiz-adv-x="880" d="M 537 706 L 419 706 L 508 841 L 643 841 L 537 706 Z M 5 0 L 337 658 L 812 658 L 812 526 L 548 526 L 548 399 L 804 399 L 804 267 L 548 267 L 548 132 L 820 132 L 820 0 L 408 0 L 408 160 L 233 160 L 152 0 L 5 0 Z M 299 292 L 408 292 L 408 512 L 358 408 L 299 292 Z" unicode="Ǽ" />
<glyph horiz-adv-x="767" d="M 447 524 L 315 524 L 414 674 L 564 674 L 447 524 Z M 198 -10 C 150 -10 111 2 83 27 C 54 51 40 84 40 126 C 40 172 55 208 85 236 C 115 264 161 283 221 294 L 306 309 L 306 320 C 306 337 298 350 282 358 C 266 366 243 370 211 370 C 186 370 160 366 133 360 C 106 354 82 345 61 334 L 61 450 C 87 458 117 465 150 471 C 183 477 214 480 243 480 C 275 480 304 475 328 467 C 352 458 372 447 388 433 C 406 448 426 460 450 468 C 473 476 498 480 524 480 C 589 480 641 458 679 415 C 717 372 737 307 737 220 L 737 187 L 444 187 C 446 162 457 142 479 128 C 501 113 530 106 566 106 C 588 106 614 109 643 116 C 671 123 698 133 723 145 L 723 25 C 695 14 664 5 632 0 C 599 -6 570 -10 546 -10 C 504 -10 467 -3 435 11 C 403 25 378 44 358 69 C 339 43 316 23 290 10 C 264 -3 233 -10 198 -10 Z M 522 368 C 498 368 480 360 466 346 C 452 331 445 312 444 289 L 601 289 C 601 313 593 333 579 347 C 564 361 545 368 522 368 Z M 234 100 C 250 100 265 104 278 114 C 291 123 300 135 306 150 L 306 212 L 239 200 C 220 196 205 190 194 181 C 182 172 177 160 177 146 C 177 131 182 120 192 112 C 202 104 216 100 234 100 Z" unicode="ǽ" />
<glyph horiz-adv-x="772" d="M 454 722 L 336 722 L 425 857 L 560 857 L 454 722 Z M 89 -48 L 155 60 C 119 90 90 129 70 175 C 50 221 40 272 40 329 C 40 430 72 513 137 577 C 202 641 285 674 386 674 C 410 674 433 672 455 668 C 477 664 499 658 519 652 L 552 706 L 686 706 L 618 596 C 654 566 682 528 702 483 C 722 437 732 386 732 329 C 732 224 700 140 637 78 C 574 15 490 -16 386 -16 C 362 -16 339 -14 317 -10 C 295 -6 275 -1 255 5 L 223 -48 L 89 -48 Z M 182 329 C 182 298 186 270 194 246 C 202 221 214 199 230 181 L 448 536 C 438 538 428 540 418 542 C 407 543 396 544 386 544 C 324 544 274 524 237 485 C 200 446 182 394 182 329 Z M 386 114 C 448 114 497 133 534 172 C 571 211 590 263 590 329 C 590 358 586 385 578 410 C 570 434 558 456 544 475 L 327 121 C 335 118 345 116 355 115 C 365 114 375 114 386 114 Z" unicode="Ǿ" />
<glyph horiz-adv-x="548" d="M 344 524 L 212 524 L 311 674 L 461 674 L 344 524 Z M 47 -48 L 105 48 C 81 70 62 96 49 128 C 36 160 30 195 30 234 C 30 308 52 367 97 413 C 142 459 201 482 274 482 C 288 482 303 481 317 479 C 331 477 344 474 357 470 L 386 518 L 500 518 L 443 422 C 466 400 484 374 498 342 C 511 310 518 275 518 236 C 518 162 495 102 450 56 C 405 10 346 -12 274 -12 C 259 -12 244 -11 230 -9 C 216 -7 202 -4 190 0 L 161 -48 L 47 -48 Z M 168 236 C 168 224 169 213 171 203 C 173 192 176 182 180 174 L 290 357 C 287 357 284 358 282 358 C 279 358 276 358 274 358 C 242 358 216 346 197 324 C 177 301 168 272 168 236 Z M 274 112 C 306 112 331 123 351 146 C 370 168 380 198 380 234 C 380 246 379 257 377 268 C 375 278 372 288 368 297 L 258 113 C 260 112 263 112 266 112 C 268 112 271 112 274 112 Z" unicode="ǿ" />
<glyph horiz-adv-x="513" d="M 245 -14 C 211 -14 178 -10 146 -4 C 114 1 83 12 53 27 L 53 171 C 80 152 109 138 140 129 C 170 120 203 116 237 116 C 264 116 285 122 301 134 C 317 146 325 163 325 185 C 325 204 317 220 301 234 C 285 248 260 260 226 271 L 207 277 C 153 293 113 319 86 353 C 58 387 45 428 45 478 C 45 534 64 581 103 617 C 142 653 194 672 260 672 C 290 672 319 668 349 662 C 378 656 409 645 442 631 L 442 487 C 413 505 385 518 357 528 C 329 537 301 542 271 542 C 244 542 223 537 209 527 C 195 517 188 502 188 482 C 188 464 195 448 210 436 C 224 424 247 413 277 404 L 296 398 C 352 380 395 355 424 322 C 453 288 468 248 468 202 C 468 138 447 86 407 46 C 367 6 313 -14 245 -14 Z M 245 -258 L 156 -223 C 170 -201 181 -182 187 -164 C 193 -146 196 -124 196 -100 L 196 -56 L 304 -56 L 304 -100 C 304 -129 298 -157 288 -184 C 278 -211 263 -236 245 -258 Z" unicode="Ș" />
<glyph horiz-adv-x="413" d="M 189 -10 C 166 -10 141 -7 114 -2 C 87 3 63 10 42 18 L 42 136 C 62 124 85 115 111 109 C 136 102 160 99 183 99 C 202 99 217 101 227 106 C 237 111 242 119 242 130 C 242 138 238 146 231 152 C 224 158 210 164 190 172 L 176 177 C 126 195 90 215 68 239 C 46 262 35 293 35 331 C 35 377 49 413 78 440 C 107 466 151 480 209 480 C 231 480 255 477 281 473 C 307 468 332 462 354 456 L 354 338 C 334 348 312 356 288 362 C 264 368 241 371 221 371 C 204 371 191 368 183 363 C 175 358 171 351 171 342 C 171 333 174 326 182 320 C 190 314 205 307 227 299 L 241 294 C 290 276 325 256 346 234 C 367 211 378 182 378 148 C 378 100 362 61 330 33 C 298 4 251 -10 189 -10 Z M 207 -272 L 108 -233 C 124 -209 136 -187 142 -167 C 148 -147 152 -124 152 -96 L 152 -48 L 272 -48 L 272 -96 C 272 -128 266 -160 254 -190 C 242 -220 227 -247 207 -272 Z" unicode="ș" />
<glyph horiz-adv-x="580" d="M 220 0 L 220 526 L 20 526 L 20 658 L 560 658 L 560 526 L 360 526 L 360 0 L 220 0 Z M 289 -250 L 200 -215 C 214 -193 225 -174 231 -156 C 237 -138 240 -116 240 -92 L 240 -48 L 348 -48 L 348 -92 C 348 -121 342 -149 332 -176 C 322 -203 307 -228 289 -250 Z" unicode="Ț" />
<glyph horiz-adv-x="330" d="M 203 -10 C 163 -10 133 0 112 22 C 90 44 80 75 80 116 L 80 348 L 20 348 L 20 470 L 80 470 L 80 593 L 216 593 L 216 470 L 300 470 L 300 348 L 216 348 L 216 159 C 216 144 220 133 228 125 C 236 117 246 114 258 114 C 265 114 272 114 279 116 C 285 118 292 120 300 124 L 300 7 C 285 1 269 -3 251 -6 C 233 -8 217 -10 203 -10 Z M 201 -280 L 102 -241 C 118 -217 130 -195 136 -175 C 142 -155 146 -132 146 -104 L 146 -56 L 266 -56 L 266 -104 C 266 -136 260 -168 248 -198 C 236 -228 221 -255 201 -280 Z" unicode="ț" />
<glyph horiz-adv-x="238" d="M -22 -210 L -30 -210 L -30 -86 L -22 -86 C 0 -86 18 -79 32 -65 C 45 -51 52 -32 52 -8 L 52 470 L 188 470 L 188 -8 C 188 -70 169 -119 131 -155 C 93 -191 42 -210 -22 -210 Z" unicode="ȷ" />
<glyph horiz-adv-x="491" d="M 242 -10 C 176 -10 124 12 86 58 C 48 103 30 162 30 236 L 30 287 L 322 287 C 320 311 308 331 286 346 C 264 360 236 368 200 368 C 177 368 151 364 123 357 C 94 350 67 341 43 329 L 43 446 C 71 456 101 465 134 471 C 166 477 195 480 220 480 C 294 480 353 458 396 414 C 439 370 461 310 461 234 C 461 160 441 101 402 57 C 362 12 309 -10 242 -10 Z M 245 102 C 267 102 285 110 299 126 C 313 142 320 161 322 185 L 166 185 C 166 161 173 141 187 125 C 201 109 221 102 245 102 Z" unicode="ə" />
<glyph horiz-adv-x="309" d="M 116 524 L 5 524 L 99 674 L 215 674 L 309 524 L 198 524 L 157 588 L 116 524 Z" unicode="ˆ" />
<glyph horiz-adv-x="309" d="M 99 524 L 5 674 L 116 674 L 157 610 L 198 674 L 309 674 L 215 524 L 99 524 Z" unicode="ˇ" />
<glyph horiz-adv-x="347" d="M 176 516 C 134 516 101 529 77 556 C 52 582 40 618 40 663 L 128 663 C 128 646 132 633 141 623 C 149 613 161 609 176 609 C 190 609 202 613 211 623 C 220 633 225 646 225 663 L 312 663 C 312 618 299 582 275 556 C 250 529 217 516 176 516 Z" unicode="˘" />
<glyph horiz-adv-x="187" d="M 30 524 L 30 656 L 162 656 L 162 524 L 30 524 Z" unicode="˙" />
<glyph horiz-adv-x="218" d="M 109 415 C 75 415 49 425 29 446 C 9 467 0 493 0 523 C 0 553 9 578 29 600 C 49 621 75 632 109 632 C 142 632 168 621 188 600 C 208 578 218 553 218 523 C 218 493 208 467 188 446 C 168 425 142 415 109 415 Z M 109 486 C 119 486 127 489 135 496 C 142 502 146 511 146 523 C 146 534 142 543 135 550 C 127 557 119 561 109 561 C 99 561 90 557 83 550 C 75 543 72 534 72 523 C 72 511 75 502 83 496 C 90 489 99 486 109 486 Z" unicode="˚" />
<glyph horiz-adv-x="240" d="M 190 -220 C 136 -220 92 -208 59 -184 C 26 -160 10 -129 10 -90 C 10 -48 25 -15 56 10 C 86 35 127 48 177 48 L 190 0 C 170 0 154 -5 142 -15 C 130 -25 124 -40 124 -58 C 124 -74 130 -87 142 -97 C 154 -107 170 -112 190 -112 L 190 -220 Z" unicode="˛" />
<glyph horiz-adv-x="318" d="M 80 524 L 0 524 C 0 564 9 596 27 621 C 45 646 69 659 99 659 C 110 659 121 657 131 654 C 141 651 153 646 166 638 C 176 632 185 627 191 624 C 197 620 204 619 210 619 C 218 619 225 622 230 629 C 235 635 238 644 238 655 L 318 655 C 318 615 309 582 291 557 C 273 532 249 520 219 520 C 207 520 196 521 186 524 C 175 526 164 532 152 541 C 142 547 134 552 127 555 C 120 558 114 560 108 560 C 99 560 92 556 87 550 C 82 543 80 534 80 524 Z" unicode="˜" />
<glyph horiz-adv-x="407" d="M 10 522 L 99 679 L 224 679 L 123 522 L 10 522 Z M 186 522 L 287 679 L 412 679 L 299 522 L 186 522 Z" unicode="˝" />
<glyph horiz-adv-x="0" d="M -58 524 L -175 674 L -25 674 L 74 524 L -58 524 Z" unicode="̀" />
<glyph horiz-adv-x="0" d="M 62 524 L -70 524 L 29 674 L 179 674 L 62 524 Z" unicode="́" />
<glyph horiz-adv-x="0" d="M -39 524 L -150 524 L -56 674 L 60 674 L 154 524 L 43 524 L 2 588 L -39 524 Z" unicode="̂" />
<glyph horiz-adv-x="0" d="M -75 524 L -155 524 C -155 564 -146 596 -128 621 C -110 646 -86 659 -56 659 C -44 659 -33 657 -23 654 C -13 651 -1 646 11 638 C 21 632 30 627 36 624 C 42 620 49 619 55 619 C 63 619 70 622 75 629 C 80 635 83 644 83 655 L 163 655 C 163 615 154 582 136 557 C 118 532 94 520 64 520 C 52 520 41 521 31 524 C 20 526 9 532 -3 541 C -12 547 -20 552 -27 555 C -34 558 -41 560 -47 560 C -55 560 -62 556 -67 550 C -72 543 -75 534 -75 524 Z" unicode="̃" />
<glyph horiz-adv-x="0" d="M -130 532 L -130 639 L 134 639 L 134 532 L -130 532 Z" unicode="̄" />
<glyph horiz-adv-x="0" d="M 1 516 C -40 516 -73 529 -98 556 C -122 582 -135 618 -135 663 L -47 663 C -47 646 -42 633 -34 623 C -25 613 -13 609 1 609 C 15 609 27 613 36 623 C 45 633 50 646 50 663 L 137 663 C 137 618 124 582 100 556 C 75 529 42 516 1 516 Z" unicode="̆" />
<glyph horiz-adv-x="0" d="M -65 524 L -65 656 L 67 656 L 67 524 L -65 524 Z" unicode="̇" />
<glyph horiz-adv-x="0" d="M -155 525 L -155 649 L -31 649 L -31 525 L -155 525 Z M 35 525 L 35 649 L 159 649 L 159 525 L 35 525 Z" unicode="̈" />
<glyph horiz-adv-x="0" d="M 4 415 C -29 415 -55 425 -75 446 C -95 467 -105 493 -105 523 C -105 553 -95 578 -75 600 C -55 621 -29 632 4 632 C 37 632 63 621 83 600 C 103 578 113 553 113 523 C 113 493 103 467 83 446 C 63 425 37 415 4 415 Z M 4 486 C 14 486 22 489 30 496 C 37 502 41 511 41 523 C 41 534 37 543 30 550 C 22 557 14 561 4 561 C -6 561 -14 557 -22 550 C -29 543 -33 534 -33 523 C -33 511 -29 502 -22 496 C -14 489 -6 486 4 486 Z" unicode="̊" />
<glyph horiz-adv-x="0" d="M -145 522 L -56 679 L 69 679 L -32 522 L -145 522 Z M 31 522 L 132 679 L 257 679 L 144 522 L 31 522 Z" unicode="̋" />
<glyph horiz-adv-x="0" d="M -56 524 L -150 674 L -39 674 L 2 610 L 43 674 L 154 674 L 60 524 L -56 524 Z" unicode="̌" />
<glyph horiz-adv-x="0" d="M 10 748 L 109 709 C 92 685 80 663 74 643 C 68 623 65 600 65 572 L 65 524 L -55 524 L -55 572 C -55 604 -49 636 -37 666 C -25 696 -10 723 10 748 Z" unicode="̒" />
<glyph horiz-adv-x="4" d="M -1 -264 L -100 -225 C -83 -201 -71 -179 -65 -159 C -59 -139 -56 -116 -56 -88 L -56 -40 L 64 -40 L 64 -88 C 64 -120 58 -152 46 -182 C 34 -212 19 -239 -1 -264 Z" unicode="̦" />
<glyph horiz-adv-x="0" d="M 19 -242 C 7 -242 -5 -241 -17 -239 C -29 -237 -42 -233 -55 -229 L -55 -154 C -45 -158 -35 -162 -26 -164 C -17 -166 -8 -168 0 -168 C 8 -168 15 -165 21 -160 C 27 -155 30 -148 30 -140 C 30 -131 27 -124 21 -119 C 15 -113 8 -111 0 -111 L -11 -111 L -11 -40 L 1 -40 C 38 -40 68 -49 91 -68 C 114 -86 126 -111 126 -142 C 126 -172 116 -196 96 -214 C 76 -232 51 -242 19 -242 Z" unicode="̧" />
<glyph horiz-adv-x="0" d="M 0 -220 C -54 -220 -97 -208 -130 -184 C -163 -160 -180 -129 -180 -90 C -180 -48 -164 -15 -134 10 C -103 35 -63 48 -13 48 L 0 0 C -19 0 -35 -5 -47 -15 C -59 -25 -66 -40 -66 -58 C -66 -74 -59 -87 -47 -97 C -35 -107 -19 -112 0 -112 L 0 -220 Z" unicode="̨" />
<glyph horiz-adv-x="666" d="M 10 0 L 246 658 L 420 658 L 656 0 L 10 0 Z M 189 127 L 461 127 L 325 518 L 189 127 Z" unicode="Δ" />
<glyph horiz-adv-x="522" d="M 163 -202 L 45 -202 L 45 470 L 181 470 L 181 193 C 181 169 187 149 200 135 C 213 120 230 113 251 113 C 269 113 285 117 299 126 C 313 135 325 147 336 162 L 336 470 L 472 470 L 472 0 L 346 0 L 336 62 C 318 38 299 19 277 7 C 255 -4 229 -11 199 -11 C 188 -11 178 -10 168 -8 C 158 -6 148 -3 140 0 L 163 -202 Z" unicode="μ" />
<glyph horiz-adv-x="546" d="M 94 0 L 94 346 L 30 346 L 30 470 L 516 470 L 516 346 L 452 346 L 452 0 L 316 0 L 316 346 L 230 346 L 230 0 L 94 0 Z" unicode="π" />
<glyph horiz-adv-x="982" d="M 432 706 L 326 841 L 461 841 L 550 706 L 432 706 Z M 216 0 L 15 658 L 162 658 L 264 288 L 292 171 L 320 288 L 422 658 L 569 658 L 670 288 L 698 173 L 725 288 L 826 658 L 967 658 L 766 0 L 619 0 L 517 370 L 491 482 L 465 370 L 363 0 L 216 0 Z" unicode="Ẁ" />
<glyph horiz-adv-x="777" d="M 331 524 L 214 674 L 364 674 L 463 524 L 331 524 Z M 148 0 L 10 470 L 150 470 L 214 238 L 240 125 L 265 238 L 325 470 L 466 470 L 526 238 L 550 130 L 575 238 L 639 470 L 767 470 L 629 0 L 465 0 L 416 193 L 390 308 L 363 193 L 314 0 L 148 0 Z" unicode="ẁ" />
<glyph horiz-adv-x="982" d="M 554 706 L 436 706 L 525 841 L 660 841 L 554 706 Z M 216 0 L 15 658 L 162 658 L 264 288 L 292 171 L 320 288 L 422 658 L 569 658 L 670 288 L 698 173 L 725 288 L 826 658 L 967 658 L 766 0 L 619 0 L 517 370 L 491 482 L 465 370 L 363 0 L 216 0 Z" unicode="Ẃ" />
<glyph horiz-adv-x="777" d="M 451 524 L 319 524 L 418 674 L 568 674 L 451 524 Z M 148 0 L 10 470 L 150 470 L 214 238 L 240 125 L 265 238 L 325 470 L 466 470 L 526 238 L 550 130 L 575 238 L 639 470 L 767 470 L 629 0 L 465 0 L 416 193 L 390 308 L 363 193 L 314 0 L 148 0 Z" unicode="ẃ" />
<glyph horiz-adv-x="982" d="M 351 706 L 351 817 L 462 817 L 462 706 L 351 706 Z M 522 706 L 522 817 L 633 817 L 633 706 L 522 706 Z M 216 0 L 15 658 L 162 658 L 264 288 L 292 171 L 320 288 L 422 658 L 569 658 L 670 288 L 698 173 L 725 288 L 826 658 L 967 658 L 766 0 L 619 0 L 517 370 L 491 482 L 465 370 L 363 0 L 216 0 Z" unicode="Ẅ" />
<glyph horiz-adv-x="777" d="M 234 525 L 234 649 L 358 649 L 358 525 L 234 525 Z M 424 525 L 424 649 L 548 649 L 548 525 L 424 525 Z M 148 0 L 10 470 L 150 470 L 214 238 L 240 125 L 265 238 L 325 470 L 466 470 L 526 238 L 550 130 L 575 238 L 639 470 L 767 470 L 629 0 L 465 0 L 416 193 L 390 308 L 363 193 L 314 0 L 148 0 Z" unicode="ẅ" />
<glyph horiz-adv-x="642" d="M 262 706 L 156 841 L 291 841 L 380 706 L 262 706 Z M 252 0 L 252 256 L 10 658 L 172 658 L 283 464 L 326 385 L 371 464 L 480 658 L 632 658 L 392 256 L 392 0 L 252 0 Z" unicode="Ỳ" />
<glyph horiz-adv-x="504" d="M 194 524 L 77 674 L 227 674 L 326 524 L 194 524 Z M 17 -210 L 9 -210 L 9 -86 L 17 -86 C 62 -86 97 -81 122 -71 C 147 -61 166 -44 180 -20 L 168 14 L 10 470 L 155 470 L 226 238 L 254 137 L 284 238 L 355 470 L 493 470 L 347 47 C 313 -52 272 -120 226 -156 C 180 -192 110 -210 17 -210 Z" unicode="ỳ" />
<glyph horiz-adv-x="500" d="" unicode=" " />
<glyph horiz-adv-x="1000" d="" unicode=" " />
<glyph horiz-adv-x="650" d="" unicode=" " />
<glyph horiz-adv-x="200" d="" unicode=" " />
<glyph horiz-adv-x="650" d="M 123 244 L 123 362 L 527 362 L 527 244 L 123 244 Z" unicode="‒" />
<glyph horiz-adv-x="514" d="M 55 188 L 55 306 L 459 306 L 459 188 L 55 188 Z" unicode="–" />
<glyph horiz-adv-x="1014" d="M 55 188 L 55 306 L 959 306 L 959 188 L 55 188 Z" unicode="—" />
<glyph horiz-adv-x="390" d="M 55 188 L 55 306 L 335 306 L 335 188 L 55 188 Z" unicode="―" />
<glyph horiz-adv-x="267" d="M 60 412 L 60 509 C 60 557 69 601 88 641 C 107 681 128 712 150 733 L 242 700 C 228 674 216 647 206 620 C 196 592 192 558 192 518 L 192 412 L 60 412 Z" unicode="‘" />
<glyph horiz-adv-x="237" d="M 102 395 L 10 428 C 24 454 35 480 45 508 C 55 535 60 569 60 610 L 60 716 L 192 716 L 192 619 C 192 571 182 526 163 486 C 144 446 124 415 102 395 Z" unicode="’" />
<glyph horiz-adv-x="237" d="M 192 132 L 192 35 C 192 -13 182 -57 163 -97 C 144 -137 124 -168 102 -189 L 10 -156 C 24 -130 35 -103 45 -76 C 55 -48 60 -14 60 26 L 60 132 L 192 132 Z" unicode="‚" />
<glyph horiz-adv-x="456" d="M 60 414 L 60 511 C 60 559 69 603 88 643 C 107 683 128 714 150 735 L 242 702 C 228 676 216 649 206 622 C 196 594 192 560 192 520 L 192 414 L 60 414 Z M 249 414 L 249 511 C 249 559 258 603 277 643 C 296 683 317 714 339 735 L 431 702 C 417 676 405 649 395 622 C 385 594 381 560 381 520 L 381 414 L 249 414 Z" unicode="“" />
<glyph horiz-adv-x="422" d="M 102 395 L 10 428 C 24 454 35 480 45 508 C 55 535 60 569 60 610 L 60 716 L 192 716 L 192 619 C 192 571 182 526 163 486 C 144 446 124 415 102 395 Z M 287 395 L 195 428 C 209 454 220 480 230 508 C 240 535 245 569 245 610 L 245 716 L 377 716 L 377 619 C 377 571 367 526 348 486 C 329 446 309 415 287 395 Z" unicode="”" />
<glyph horiz-adv-x="418" d="M 192 132 L 192 35 C 192 -13 182 -57 163 -97 C 144 -137 124 -168 102 -189 L 10 -156 C 24 -130 35 -103 45 -76 C 55 -48 60 -14 60 26 L 60 132 L 192 132 Z M 373 132 L 373 35 C 373 -13 363 -57 344 -97 C 325 -137 305 -168 283 -189 L 191 -156 C 205 -130 216 -103 226 -76 C 236 -48 241 -14 241 26 L 241 132 L 373 132 Z" unicode="„" />
<glyph horiz-adv-x="444" d="M 152 0 L 160 442 L 20 434 L 20 558 L 160 550 L 152 716 L 292 716 L 284 550 L 424 558 L 424 434 L 284 442 L 292 0 L 152 0 Z" unicode="†" />
<glyph horiz-adv-x="444" d="M 152 0 L 160 172 L 20 164 L 20 288 L 160 280 L 160 442 L 20 434 L 20 558 L 160 550 L 152 716 L 292 716 L 284 550 L 424 558 L 424 434 L 284 442 L 284 280 L 424 288 L 424 164 L 284 172 L 292 0 L 152 0 Z" unicode="‡" />
<glyph horiz-adv-x="316" d="M 60 145 L 60 341 L 256 341 L 256 145 L 60 145 Z" unicode="•" />
<glyph horiz-adv-x="658" d="M 45 0 L 45 132 L 177 132 L 177 0 L 45 0 Z M 263 0 L 263 132 L 395 132 L 395 0 L 263 0 Z M 481 0 L 481 132 L 613 132 L 613 0 L 481 0 Z" unicode="…" />
<glyph horiz-adv-x="1257" d="M 209 352 C 157 352 115 369 83 403 C 51 437 35 483 35 539 C 35 595 51 640 83 675 C 115 710 157 728 209 728 C 261 728 303 710 335 676 C 367 641 383 596 383 540 C 383 484 367 438 335 404 C 303 369 261 352 209 352 Z M 218 0 L 533 716 L 645 716 L 330 0 L 218 0 Z M 209 452 C 227 452 242 460 254 476 C 266 492 272 513 272 539 C 272 565 266 587 254 603 C 242 619 227 628 209 628 C 191 628 176 620 164 604 C 152 588 146 566 146 540 C 146 513 152 492 164 476 C 176 460 191 452 209 452 Z M 1048 -8 C 996 -8 954 9 922 43 C 890 77 874 123 874 179 C 874 235 890 280 922 315 C 954 350 996 368 1048 368 C 1100 368 1142 350 1174 316 C 1206 281 1222 236 1222 180 C 1222 124 1206 78 1174 44 C 1142 9 1100 -8 1048 -8 Z M 657 -9 C 605 -9 563 8 531 42 C 499 76 483 122 483 178 C 483 234 499 279 531 314 C 563 349 605 367 657 367 C 709 367 751 349 783 315 C 815 280 831 235 831 179 C 831 123 815 77 783 43 C 751 8 709 -9 657 -9 Z M 1048 92 C 1066 92 1081 100 1093 116 C 1105 132 1111 153 1111 179 C 1111 205 1105 227 1093 243 C 1081 259 1066 268 1048 268 C 1030 268 1015 260 1003 244 C 991 228 985 206 985 180 C 985 153 991 132 1003 116 C 1015 100 1030 92 1048 92 Z M 657 91 C 675 91 690 99 702 115 C 714 131 720 152 720 178 C 720 204 714 226 702 242 C 690 258 675 267 657 267 C 639 267 624 259 612 243 C 600 227 594 205 594 179 C 594 152 600 131 612 115 C 624 99 639 91 657 91 Z" unicode="‰" />
<glyph horiz-adv-x="232" d="M 60 470 L 60 732 L 172 732 L 172 470 L 60 470 Z" unicode="′" />
<glyph horiz-adv-x="396" d="M 60 471 L 60 732 L 172 732 L 172 471 L 60 471 Z M 224 471 L 224 732 L 336 732 L 336 471 L 224 471 Z" unicode="″" />
<glyph horiz-adv-x="395" d="M 195 63 L 40 226 L 195 390 L 355 390 L 200 226 L 355 63 L 195 63 Z" unicode="‹" />
<glyph horiz-adv-x="395" d="M 40 63 L 195 226 L 40 390 L 200 390 L 355 226 L 200 63 L 40 63 Z" unicode="›" />
<glyph horiz-adv-x="187" d="M -120 0 L 195 716 L 307 716 L -8 0 L -120 0 Z" unicode="⁄" />
<glyph horiz-adv-x="398" d="M 199 432 C 147 432 105 449 73 483 C 41 517 25 563 25 619 C 25 675 41 720 73 755 C 105 790 147 808 199 808 C 251 808 293 790 325 756 C 357 721 373 676 373 620 C 373 564 357 518 325 484 C 293 449 251 432 199 432 Z M 199 532 C 217 532 232 540 244 556 C 256 572 262 593 262 619 C 262 645 256 667 244 683 C 232 699 217 708 199 708 C 181 708 166 700 154 684 C 142 668 136 646 136 620 C 136 593 142 572 154 556 C 166 540 181 532 199 532 Z" unicode="⁰" />
<glyph horiz-adv-x="363" d="M 184 440 L 184 508 L 20 508 L 20 584 L 137 800 L 292 800 L 292 598 L 338 598 L 338 508 L 292 508 L 292 440 L 184 440 Z M 184 598 L 184 717 L 119 598 L 184 598 Z" unicode="⁴" />
<glyph horiz-adv-x="316" d="M 148 432 C 127 432 107 433 87 437 C 67 440 46 445 25 452 L 25 551 C 41 542 58 535 75 531 C 91 527 109 525 127 525 C 143 525 156 527 164 533 C 172 538 177 546 177 557 C 177 565 171 572 161 577 C 151 581 136 584 116 584 C 101 584 85 583 69 581 C 52 579 37 577 25 575 L 37 800 L 272 800 L 272 702 L 112 702 L 110 664 C 118 664 126 665 133 666 C 140 666 147 667 153 667 C 199 667 233 657 256 637 C 279 617 291 591 291 559 C 291 521 277 490 251 467 C 225 443 190 432 148 432 Z" unicode="⁵" />
<glyph horiz-adv-x="358" d="M 182 432 C 140 432 103 447 72 479 C 40 511 25 553 25 605 C 25 665 41 713 74 751 C 106 789 149 808 203 808 C 221 808 238 807 254 805 C 270 803 287 799 305 793 L 305 695 C 288 701 272 705 257 709 C 241 712 226 714 211 714 C 187 714 168 707 155 693 C 141 679 133 661 131 637 C 140 649 152 658 167 664 C 181 670 197 673 215 673 C 251 673 279 663 301 644 C 322 624 333 598 333 566 C 333 526 319 493 291 469 C 263 444 226 432 182 432 Z M 184 523 C 197 523 207 526 214 533 C 221 539 225 548 225 560 C 225 570 221 579 213 585 C 205 591 196 595 185 595 C 176 595 167 593 158 589 C 149 585 142 580 137 574 C 137 559 141 547 150 537 C 158 527 170 523 184 523 Z" unicode="⁶" />
<glyph horiz-adv-x="318" d="M 54 440 L 176 698 L 20 698 L 20 800 L 298 800 L 298 716 L 178 440 L 54 440 Z" unicode="⁷" />
<glyph horiz-adv-x="350" d="M 176 432 C 126 432 89 440 63 458 C 37 475 25 499 25 530 C 25 548 30 564 40 577 C 50 590 67 602 89 613 C 70 623 55 636 44 650 C 33 664 28 679 28 697 C 28 729 41 756 68 777 C 95 797 131 808 175 808 C 218 808 253 798 280 780 C 307 761 321 736 321 706 C 321 689 316 674 306 662 C 296 650 281 639 263 630 C 282 620 297 609 308 595 C 319 581 325 564 325 542 C 325 506 312 478 288 460 C 263 441 226 432 176 432 Z M 182 660 L 187 659 C 193 663 199 668 204 676 C 208 683 211 691 211 700 C 211 708 207 716 201 723 C 195 730 186 734 176 734 C 165 734 156 730 150 723 C 143 716 140 708 140 700 C 140 689 144 680 153 674 C 161 668 171 663 182 660 Z M 138 543 C 138 531 141 522 149 516 C 156 509 165 506 176 506 C 186 506 195 509 202 516 C 209 523 213 532 213 543 C 213 554 208 562 200 568 C 191 574 182 578 172 581 L 165 583 C 158 579 152 574 146 567 C 140 560 138 552 138 543 Z" unicode="⁸" />
<glyph horiz-adv-x="358" d="M 155 432 C 137 432 119 433 103 435 C 87 437 70 441 53 447 L 53 545 C 69 539 85 534 101 531 C 116 527 131 526 147 526 C 170 526 188 532 202 545 C 215 557 223 575 226 597 C 217 585 205 576 191 570 C 176 564 160 561 143 561 C 107 561 78 571 57 591 C 35 611 25 639 25 674 C 25 714 39 746 67 771 C 95 795 131 808 176 808 C 218 808 254 792 286 760 C 317 728 333 687 333 635 C 333 575 316 526 284 488 C 251 450 208 432 155 432 Z M 173 638 C 181 638 190 639 199 643 C 208 647 215 652 221 659 C 221 675 216 689 208 700 C 199 710 188 716 174 716 C 160 716 150 712 143 706 C 136 699 133 690 133 679 C 133 666 136 656 144 649 C 152 641 161 638 173 638 Z" unicode="⁹" />
<glyph horiz-adv-x="400" d="M 35 440 L 35 800 L 153 800 L 153 756 C 167 774 183 788 199 796 C 215 804 234 808 255 808 C 289 808 317 796 338 773 C 359 749 370 717 370 675 L 370 440 L 253 440 L 253 649 C 253 664 248 676 239 685 C 230 694 218 699 203 699 C 191 699 182 696 174 691 C 166 685 159 678 153 670 L 153 440 L 35 440 Z" unicode="ⁿ" />
<glyph horiz-adv-x="398" d="M 199 -178 C 147 -178 105 -160 73 -126 C 41 -92 25 -47 25 9 C 25 65 41 110 73 145 C 105 180 147 198 199 198 C 251 198 293 180 325 146 C 357 111 373 66 373 10 C 373 -46 357 -91 325 -126 C 293 -160 251 -178 199 -178 Z M 199 -78 C 217 -78 232 -70 244 -54 C 256 -38 262 -17 262 9 C 262 35 256 57 244 73 C 232 89 217 98 199 98 C 181 98 166 90 154 74 C 142 58 136 36 136 10 C 136 -16 142 -38 154 -54 C 166 -70 181 -78 199 -78 Z" unicode="₀" />
<glyph horiz-adv-x="315" d="M 34 -170 L 34 -76 L 106 -76 L 106 91 L 25 84 L 25 178 L 218 198 L 218 -76 L 290 -76 L 290 -170 L 34 -170 Z" unicode="₁" />
<glyph horiz-adv-x="316" d="M 25 -170 L 25 -53 C 74 -32 111 -12 137 6 C 162 24 175 42 175 59 C 175 73 169 84 158 90 C 147 96 134 100 118 100 C 103 100 88 97 74 93 C 60 88 45 81 31 72 L 31 180 C 51 186 71 191 89 194 C 107 196 128 198 152 198 C 194 198 227 188 253 168 C 278 148 291 121 291 85 C 291 49 278 17 252 -8 C 226 -34 189 -56 139 -72 L 291 -72 L 291 -170 L 25 -170 Z" unicode="₂" />
<glyph horiz-adv-x="316" d="M 153 -178 C 132 -178 111 -176 91 -174 C 70 -171 48 -166 25 -159 L 25 -58 C 43 -66 61 -72 77 -76 C 93 -80 111 -82 130 -82 C 146 -82 157 -80 164 -76 C 171 -72 175 -67 175 -59 C 175 -51 170 -46 160 -42 C 150 -38 133 -36 111 -36 L 84 -36 L 84 54 L 107 54 C 128 54 143 56 153 60 C 163 64 168 70 168 79 C 168 86 164 92 157 96 C 149 100 137 102 121 102 C 105 102 90 100 76 97 C 62 93 47 88 33 82 L 33 180 C 53 185 73 189 92 193 C 110 196 129 198 149 198 C 189 198 222 189 247 171 C 272 153 285 130 285 102 C 285 80 278 60 265 44 C 251 28 234 17 212 12 C 236 7 256 -2 270 -18 C 284 -34 291 -52 291 -73 C 291 -103 278 -128 254 -148 C 230 -168 196 -178 153 -178 Z" unicode="₃" />
<glyph horiz-adv-x="363" d="M 184 -170 L 184 -102 L 20 -102 L 20 -26 L 137 190 L 292 190 L 292 -12 L 338 -12 L 338 -102 L 292 -102 L 292 -170 L 184 -170 Z M 184 -12 L 184 107 L 119 -12 L 184 -12 Z" unicode="₄" />
<glyph horiz-adv-x="316" d="M 148 -178 C 127 -178 107 -176 87 -173 C 67 -169 46 -164 25 -158 L 25 -59 C 41 -67 58 -74 75 -78 C 91 -82 109 -85 127 -85 C 143 -85 156 -82 164 -77 C 172 -71 177 -63 177 -53 C 177 -44 171 -37 161 -33 C 151 -28 136 -26 116 -26 C 101 -26 85 -26 69 -28 C 52 -30 37 -32 25 -35 L 37 190 L 272 190 L 272 92 L 112 92 L 110 54 C 118 54 126 55 133 56 C 140 56 147 57 153 57 C 199 57 233 47 256 27 C 279 7 291 -18 291 -51 C 291 -89 277 -119 251 -143 C 225 -166 190 -178 148 -178 Z" unicode="₅" />
<glyph horiz-adv-x="358" d="M 182 -178 C 140 -178 103 -162 72 -130 C 40 -98 25 -57 25 -5 C 25 55 41 103 74 141 C 106 179 149 198 203 198 C 221 198 238 197 254 195 C 270 193 287 189 305 183 L 305 85 C 288 91 272 95 257 99 C 241 102 226 104 211 104 C 187 104 168 97 155 83 C 141 69 133 51 131 27 C 140 39 152 48 167 54 C 181 60 197 63 215 63 C 251 63 279 53 301 34 C 322 14 333 -11 333 -44 C 333 -84 319 -116 291 -141 C 263 -165 226 -178 182 -178 Z M 184 -87 C 197 -87 207 -83 214 -77 C 221 -70 225 -61 225 -50 C 225 -39 221 -30 213 -24 C 205 -18 196 -15 185 -15 C 176 -15 167 -16 158 -20 C 149 -24 142 -29 137 -36 C 137 -50 141 -62 150 -72 C 158 -82 170 -87 184 -87 Z" unicode="₆" />
<glyph horiz-adv-x="318" d="M 54 -170 L 176 88 L 20 88 L 20 190 L 298 190 L 298 106 L 178 -170 L 54 -170 Z" unicode="₇" />
<glyph horiz-adv-x="350" d="M 176 -178 C 126 -178 89 -169 63 -152 C 37 -134 25 -110 25 -80 C 25 -61 30 -45 40 -32 C 50 -19 67 -7 89 3 C 70 13 55 26 44 40 C 33 54 28 69 28 87 C 28 119 41 146 68 167 C 95 187 131 198 175 198 C 218 198 253 188 280 170 C 307 151 321 126 321 96 C 321 79 316 64 306 52 C 296 40 281 29 263 20 C 282 10 297 0 308 -14 C 319 -28 325 -46 325 -68 C 325 -104 312 -131 288 -150 C 263 -168 226 -178 176 -178 Z M 182 50 L 187 49 C 193 53 199 58 204 66 C 208 73 211 81 211 90 C 211 98 207 106 201 113 C 195 120 186 124 176 124 C 165 124 156 120 150 113 C 143 106 140 98 140 90 C 140 79 144 70 153 64 C 161 58 171 53 182 50 Z M 138 -67 C 138 -78 141 -87 149 -94 C 156 -100 165 -104 176 -104 C 186 -104 195 -100 202 -93 C 209 -86 213 -77 213 -67 C 213 -55 208 -47 200 -41 C 191 -35 182 -31 172 -29 L 165 -27 C 158 -30 152 -35 146 -42 C 140 -49 138 -57 138 -67 Z" unicode="₈" />
<glyph horiz-adv-x="358" d="M 155 -178 C 137 -178 119 -177 103 -175 C 87 -173 70 -169 53 -163 L 53 -65 C 69 -71 85 -75 101 -79 C 116 -82 131 -84 147 -84 C 170 -84 188 -77 202 -65 C 215 -52 223 -35 226 -13 C 217 -25 205 -34 191 -40 C 176 -46 160 -49 143 -49 C 107 -49 78 -38 57 -18 C 35 1 25 29 25 64 C 25 104 39 136 67 161 C 95 185 131 198 176 198 C 218 198 254 182 286 150 C 317 118 333 77 333 25 C 333 -35 316 -83 284 -121 C 251 -159 208 -178 155 -178 Z M 173 28 C 181 28 190 29 199 33 C 208 37 215 42 221 49 C 221 65 216 79 208 90 C 199 100 188 106 174 106 C 160 106 150 102 143 96 C 136 89 133 80 133 69 C 133 56 136 46 144 39 C 152 31 161 28 173 28 Z" unicode="₉" />
<glyph horiz-adv-x="696" d="M 35 211 L 35 303 L 88 303 C 87 307 87 312 87 316 C 87 320 87 325 87 330 C 87 333 87 336 87 340 C 87 344 87 347 87 351 L 35 351 L 35 443 L 102 443 C 122 514 163 570 223 612 C 283 653 358 674 448 674 C 484 674 518 670 551 662 C 584 654 617 642 649 626 L 649 486 C 617 505 584 519 551 529 C 518 539 484 544 448 544 C 404 544 366 535 333 517 C 300 499 275 474 257 443 L 401 443 L 401 351 L 230 351 C 229 347 229 344 229 340 C 229 336 229 333 229 330 C 229 325 229 320 229 316 C 229 312 229 307 230 303 L 401 303 L 401 211 L 259 211 C 277 180 303 156 336 139 C 368 122 406 114 448 114 C 488 114 524 119 557 130 C 590 140 623 156 656 176 L 656 36 C 623 17 590 4 556 -4 C 522 -12 486 -16 448 -16 C 360 -16 286 4 226 45 C 166 85 125 141 104 211 L 35 211 Z" unicode="€" />
<glyph horiz-adv-x="550" d="M 65 0 L 65 658 L 133 658 L 133 786 L 227 786 L 227 658 L 259 658 C 263 658 268 658 272 658 C 276 658 280 657 284 657 L 284 786 L 378 786 L 378 642 C 413 630 439 611 457 587 C 475 562 484 531 484 493 C 484 455 475 422 457 396 C 439 369 414 349 384 337 C 421 327 450 309 472 283 C 494 257 505 224 505 184 C 505 139 494 102 472 74 C 450 45 419 25 378 13 L 378 -124 L 284 -124 L 284 0 C 282 0 280 0 278 0 C 276 0 274 0 272 0 L 227 0 L 227 -124 L 133 -124 L 133 0 L 65 0 Z M 205 388 L 260 388 C 285 388 305 394 321 407 C 337 420 345 439 345 465 C 345 489 337 507 321 519 C 305 531 285 537 260 537 L 205 537 L 205 388 Z M 205 121 L 277 121 C 303 121 325 127 341 140 C 357 153 366 172 366 198 C 366 222 357 241 341 254 C 325 267 303 274 277 274 L 205 274 L 205 121 Z" unicode="₿" />
<glyph horiz-adv-x="723" d="M 361 80 C 265 80 187 112 128 177 C 69 241 40 316 40 402 C 40 488 69 564 128 628 C 187 692 265 724 361 724 C 455 724 533 692 593 628 C 653 564 683 488 683 402 C 683 316 653 240 593 176 C 533 112 455 80 361 80 Z M 361 152 C 425 152 482 175 534 222 C 585 268 611 328 611 402 C 611 477 585 537 534 583 C 482 629 425 652 361 652 C 293 652 235 629 186 583 C 136 537 112 476 112 402 C 112 328 136 267 186 221 C 235 175 293 152 361 152 Z M 266 235 L 266 570 L 379 570 C 412 570 440 559 464 539 C 488 518 500 491 500 457 C 500 421 488 392 464 371 C 440 350 411 340 377 340 L 346 340 L 346 235 L 266 235 Z M 346 407 L 370 407 C 384 407 396 411 405 421 C 414 431 419 442 419 455 C 419 467 414 478 405 488 C 396 498 384 503 370 503 L 346 503 L 346 407 Z" unicode="℗" />
<glyph horiz-adv-x="678" d="M 108 453 L 108 646 L 40 646 L 40 716 L 260 716 L 260 646 L 192 646 L 192 453 L 108 453 Z M 289 453 L 289 716 L 412 716 L 455 617 L 500 716 L 618 716 L 618 453 L 534 453 L 534 632 L 469 490 L 424 490 L 359 632 L 359 453 L 289 453 Z" unicode="™" />
<glyph horiz-adv-x="577" d="M 295 -12 C 219 -12 157 7 110 45 C 63 83 40 142 40 222 C 40 299 59 360 98 406 C 137 452 188 475 251 475 C 271 475 290 472 308 466 C 325 460 341 452 355 442 C 334 478 301 509 256 534 C 211 558 150 571 72 571 L 72 716 C 255 716 378 662 442 554 C 505 446 537 358 537 288 C 537 192 514 118 469 66 C 424 14 366 -12 295 -12 Z M 290 120 C 324 120 349 130 367 152 C 384 174 393 203 393 239 C 393 271 384 297 366 317 C 348 336 321 346 287 346 C 254 346 229 335 212 314 C 194 293 186 266 186 232 C 186 197 195 170 213 150 C 231 130 256 120 290 120 Z" unicode="∂" />
<glyph horiz-adv-x="599" d="M 60 0 L 60 658 L 539 658 L 539 0 L 399 0 L 399 526 L 200 526 L 200 0 L 60 0 Z" unicode="∏" />
<glyph horiz-adv-x="511" d="M 45 0 L 45 130 L 246 337 L 45 528 L 45 658 L 463 658 L 463 526 L 242 526 L 432 348 L 224 132 L 471 132 L 471 0 L 45 0 Z" unicode="∑" />
<glyph horiz-adv-x="494" d="M 45 235 L 45 353 L 449 353 L 449 235 L 45 235 Z" unicode="−" />
<glyph horiz-adv-x="643" d="M 219 0 L 5 516 L 153 516 L 291 182 L 504 700 L 638 700 L 348 0 L 219 0 Z" unicode="√" />
<glyph horiz-adv-x="848" d="M 227 13 C 163 13 112 33 75 74 C 38 114 20 168 20 236 C 20 304 39 358 79 398 C 119 438 169 459 229 459 C 275 459 316 449 354 429 C 391 409 420 380 442 342 C 466 384 496 414 531 432 C 565 450 598 459 628 459 C 689 459 738 438 774 398 C 810 358 828 304 828 236 C 828 168 808 113 768 73 C 728 33 674 13 607 13 C 569 13 532 22 495 41 C 458 59 429 88 408 127 C 384 88 357 59 325 41 C 293 22 261 13 227 13 Z M 152 236 C 152 205 161 181 179 163 C 197 145 221 137 250 137 C 266 137 285 145 306 161 C 326 177 344 202 359 236 C 339 276 321 302 303 315 C 285 328 266 335 248 335 C 220 335 197 326 179 308 C 161 290 152 266 152 236 Z M 600 335 C 583 335 564 327 544 311 C 523 295 504 271 488 240 C 504 207 522 182 542 164 C 562 146 583 137 606 137 C 630 137 651 145 669 163 C 687 181 696 205 696 236 C 696 266 686 290 668 308 C 650 326 627 335 600 335 Z" unicode="∞" />
<glyph horiz-adv-x="465" d="M 73 -218 C 60 -218 48 -217 36 -215 C 24 -213 12 -210 0 -206 L 0 -84 C 12 -87 24 -89 37 -91 C 49 -93 63 -94 78 -94 C 94 -94 108 -89 119 -79 C 129 -69 136 -55 138 -36 L 198 533 C 204 595 225 641 260 671 C 295 701 338 716 388 716 C 400 716 413 715 426 714 C 439 712 452 710 465 708 L 465 580 C 453 584 441 587 429 589 C 417 591 404 592 392 592 C 374 592 359 587 349 577 C 339 567 333 553 331 534 L 271 -37 C 264 -97 243 -143 209 -173 C 174 -203 129 -218 73 -218 Z" unicode="∫" />
<glyph horiz-adv-x="438" d="M 76 313 L 60 422 C 66 433 78 442 94 450 C 110 457 126 461 143 461 C 155 461 169 459 183 456 C 197 452 209 448 220 443 C 230 437 242 432 255 428 C 268 424 282 423 296 423 C 309 423 321 425 333 429 C 344 433 354 439 363 446 L 378 338 C 371 326 360 316 344 309 C 328 302 312 299 296 299 C 283 299 270 300 256 303 C 242 305 230 310 220 317 C 209 322 197 327 183 331 C 169 335 156 337 143 337 C 130 337 118 335 106 331 C 94 327 84 321 76 313 Z M 76 123 L 60 231 C 66 242 78 251 94 259 C 110 266 126 270 143 270 C 155 270 169 268 183 265 C 197 261 209 257 220 252 C 230 246 242 241 255 237 C 268 233 282 232 296 232 C 309 232 321 234 333 238 C 344 242 354 248 363 256 L 378 147 C 371 135 360 126 344 119 C 328 111 312 108 296 108 C 283 108 270 109 256 112 C 242 115 230 120 220 126 C 209 131 197 136 183 140 C 169 144 156 146 143 146 C 130 146 118 144 106 140 C 94 136 84 131 76 123 Z" unicode="≈" />
<glyph horiz-adv-x="524" d="M 89 17 L 136 134 L 60 134 L 60 252 L 184 252 L 219 338 L 60 338 L 60 456 L 266 456 L 310 564 L 424 564 L 380 456 L 464 456 L 464 338 L 333 338 L 298 252 L 464 252 L 464 134 L 250 134 L 203 17 L 89 17 Z" unicode="≠" />
<glyph horiz-adv-x="510" d="M 265 84 L 60 300 L 265 516 L 450 516 L 245 300 L 450 84 L 265 84 Z M 68 -118 L 68 0 L 442 0 L 442 -118 L 68 -118 Z" unicode="≤" />
<glyph horiz-adv-x="510" d="M 60 84 L 265 300 L 60 516 L 245 516 L 450 300 L 245 84 L 60 84 Z M 68 -118 L 68 0 L 442 0 L 442 -118 L 68 -118 Z" unicode="≥" />
<glyph horiz-adv-x="608" d="M 308 -43 L 50 290 L 308 623 L 558 290 L 308 -43 Z M 311 148 L 417 290 L 309 432 L 203 290 L 311 148 Z" unicode="◊" />
<glyph horiz-adv-x="648" d="M 219 0 L 20 470 L 168 470 L 289 183 L 504 716 L 638 716 L 348 0 L 219 0 Z" unicode="✓" />
<glyph horiz-adv-x="662" d="M 48 0 L 48 132 L 200 132 L 200 163 C 150 177 110 206 80 248 C 50 290 35 341 35 399 C 35 482 61 549 115 599 C 169 649 241 674 331 674 C 421 674 492 649 546 600 C 600 550 627 484 627 401 C 627 341 612 289 582 246 C 552 202 512 174 462 160 L 462 132 L 613 132 L 613 0 L 363 0 L 363 249 C 399 249 428 263 451 290 C 473 316 485 352 485 396 C 485 440 471 475 443 502 C 415 528 377 542 331 542 C 284 542 247 529 219 503 C 191 477 177 442 177 398 C 177 355 188 320 211 293 C 233 266 263 251 299 249 L 299 0 L 48 0 Z" unicode="Ꞷ" />
<glyph horiz-adv-x="144" d="M 74 -264 L -25 -225 C -8 -201 3 -179 9 -159 C 15 -139 19 -116 19 -88 L 19 -40 L 139 -40 L 139 -88 C 139 -120 133 -152 121 -182 C 109 -212 94 -239 74 -264 Z" unicode="" />
<glyph horiz-adv-x="783" d="M 60 0 L 60 658 L 723 658 L 723 0 L 60 0 Z M 230 78 L 327 78 L 327 501 L 391 501 L 391 78 L 488 78 L 488 309 L 507 309 C 559 309 599 321 626 346 C 653 370 667 403 667 444 C 667 486 653 519 627 544 C 601 569 561 582 507 582 L 131 582 L 131 501 L 230 501 L 230 78 Z" unicode="" />
<glyph horiz-adv-x="541" d="M 80 0 L 80 348 L 20 348 L 20 470 L 80 470 L 80 512 C 80 577 98 629 135 668 C 171 706 220 726 281 726 C 299 726 318 724 337 721 C 355 717 373 712 391 706 L 391 576 C 378 583 363 589 346 594 C 328 599 312 602 297 602 C 270 602 250 594 236 579 C 222 563 216 542 216 516 L 216 470 L 291 470 L 291 348 L 216 348 L 216 0 L 80 0 Z M 350 0 L 350 470 L 486 470 L 486 0 L 350 0 Z" unicode="ﬁ" />
<glyph horiz-adv-x="553" d="M 80 0 L 80 348 L 20 348 L 20 470 L 80 470 L 80 512 C 80 577 98 629 135 668 C 171 706 220 726 281 726 C 293 726 306 725 320 723 C 333 721 346 719 359 716 L 493 716 L 493 0 L 357 0 L 357 591 C 347 594 336 597 326 599 C 316 601 306 602 297 602 C 270 602 250 594 236 579 C 222 563 216 542 216 516 L 216 470 L 291 470 L 291 348 L 216 348 L 216 0 L 80 0 Z" unicode="ﬂ" />
</font>
</defs>
</svg>
