<?xml version="1.0" encoding="utf-8" ?><svg version="1.1" xmlns = 'http://www.w3.org/2000/svg'><defs><font id='web' horiz-adv-x="1000">
<font-face font-family="web" descent="-268" cap-height="658" units-per-em="1000" bbox="-206,-341,1256,976" x-height="490" ascent="732" />
<missing-glyph horiz-adv-x="500" d="M 50 -268 L 450 -268 L 450 732 L 50 732 L 50 -268 Z M 100 -218 L 100 682 L 400 682 L 400 -218 L 100 -218 Z" /><glyph horiz-adv-x="200" d="" unicode=" " />
<glyph horiz-adv-x="313" d="M 46 228 L 46 716 L 266 716 L 266 228 L 46 228 Z M 47 0 L 47 172 L 267 172 L 267 0 L 47 0 Z" unicode="!" />
<glyph horiz-adv-x="509" d="M 44 418 L 44 716 L 228 716 L 228 418 L 44 418 Z M 281 418 L 281 716 L 465 716 L 465 418 L 281 418 Z" unicode="&#x22;" />
<glyph horiz-adv-x="624" d="M 86 0 L 98 92 L 48 92 L 48 260 L 121 260 L 131 337 L 64 337 L 64 509 L 154 509 L 166 599 L 316 599 L 304 509 L 369 509 L 381 599 L 531 599 L 519 509 L 576 509 L 576 337 L 496 337 L 486 260 L 561 260 L 561 92 L 463 92 L 451 0 L 301 0 L 313 92 L 248 92 L 236 0 L 86 0 Z M 271 260 L 336 260 L 346 337 L 281 337 L 271 260 Z" unicode="#" />
<glyph horiz-adv-x="634" d="M 236 -102 L 236 -12 C 207 -9 178 -4 149 2 C 119 9 89 18 58 29 L 58 222 C 96 204 133 191 169 183 C 205 174 240 170 275 170 C 295 170 310 172 320 177 C 330 181 335 189 335 199 C 335 207 331 215 324 221 C 316 227 305 231 291 234 L 266 239 C 192 251 137 275 100 310 C 63 344 45 391 45 449 C 45 507 61 554 94 592 C 127 629 174 653 236 665 L 236 762 L 404 762 L 404 669 C 428 666 453 662 477 658 C 501 654 524 648 547 642 L 547 450 C 517 462 485 472 451 479 C 417 486 384 490 352 490 C 333 490 319 487 310 483 C 301 479 297 472 297 463 C 297 455 300 448 308 442 C 315 436 326 432 341 430 L 366 425 C 440 412 495 388 532 353 C 568 317 587 271 587 215 C 587 155 571 106 539 69 C 507 32 462 7 404 -5 L 404 -102 L 236 -102 Z" unicode="$" />
<glyph horiz-adv-x="907" d="M 225 347 C 165 347 118 364 84 400 C 50 435 34 481 34 537 C 34 595 50 641 84 676 C 118 711 165 729 225 729 C 285 729 331 711 365 676 C 398 641 415 595 415 538 C 415 481 398 435 365 400 C 331 364 285 347 225 347 Z M 228 0 L 537 716 L 685 716 L 376 0 L 228 0 Z M 225 482 C 235 482 243 486 249 496 C 255 505 259 519 259 538 C 259 557 255 571 249 581 C 243 590 235 595 225 595 C 214 595 206 590 200 581 C 194 571 191 557 191 539 C 191 519 194 505 200 496 C 206 486 214 482 225 482 Z M 681 -13 C 621 -13 574 4 540 40 C 506 75 490 121 490 177 C 490 235 506 281 540 316 C 574 351 621 369 681 369 C 741 369 787 351 821 316 C 854 281 871 235 871 178 C 871 121 854 75 821 40 C 787 4 741 -13 681 -13 Z M 681 122 C 691 122 699 126 705 136 C 711 145 715 159 715 178 C 715 197 711 211 705 221 C 699 230 691 235 681 235 C 670 235 662 230 656 221 C 650 211 647 197 647 179 C 647 159 650 145 656 136 C 662 126 670 122 681 122 Z" unicode="%" />
<glyph horiz-adv-x="753" d="M 268 -15 C 196 -15 139 3 97 39 C 55 75 34 124 34 184 C 34 226 45 264 68 298 C 91 332 125 360 169 384 C 162 399 157 415 154 432 C 150 448 149 466 149 485 C 149 539 171 584 215 621 C 259 657 319 676 394 676 C 424 676 454 673 483 669 C 512 665 542 658 572 648 L 572 465 C 550 472 530 477 512 481 C 494 485 475 487 457 487 C 437 487 422 482 412 474 C 401 465 396 454 396 440 C 396 428 398 417 404 407 C 409 397 417 384 429 370 L 479 312 C 480 322 481 334 482 348 C 483 361 484 375 484 390 L 676 390 C 676 338 671 292 661 254 C 651 215 635 181 615 151 L 743 0 L 470 0 L 435 43 C 414 23 390 9 362 0 C 334 -10 302 -15 268 -15 Z M 240 209 C 240 192 245 179 255 169 C 265 159 279 154 297 154 C 304 154 311 155 317 157 C 323 159 330 162 336 166 L 261 258 C 254 251 249 243 245 235 C 241 227 240 218 240 209 Z" unicode="&#x26;" />
<glyph horiz-adv-x="272" d="M 44 418 L 44 716 L 228 716 L 228 418 L 44 418 Z" unicode="'" />
<glyph horiz-adv-x="463" d="M 203 -220 C 156 -154 119 -80 93 0 C 67 79 54 162 54 248 C 54 333 67 416 93 496 C 119 576 156 650 203 716 L 441 716 C 389 646 348 571 319 491 C 290 410 276 329 276 248 C 276 166 290 85 319 5 C 348 -75 389 -150 441 -220 L 203 -220 Z" unicode="(" />
<glyph horiz-adv-x="463" d="M 22 -220 C 74 -150 114 -75 143 5 C 172 85 187 166 187 248 C 187 329 172 410 143 491 C 114 571 74 646 22 716 L 260 716 C 306 650 343 576 369 496 C 395 416 409 333 409 248 C 409 162 395 79 369 -1 C 343 -81 306 -154 260 -220 L 22 -220 Z" unicode=")" />
<glyph horiz-adv-x="600" d="M 242 -23 L 68 104 L 180 202 L 32 215 L 99 419 L 226 343 L 193 490 L 408 490 L 375 343 L 502 419 L 568 215 L 420 201 L 533 103 L 359 -23 L 300 114 L 242 -23 Z" unicode="*" />
<glyph horiz-adv-x="536" d="M 174 66 L 174 193 L 52 193 L 52 381 L 174 381 L 174 508 L 362 508 L 362 381 L 484 381 L 484 193 L 362 193 L 362 66 L 174 66 Z" unicode="+" />
<glyph horiz-adv-x="328" d="M 278 206 L 278 90 C 278 28 270 -22 256 -62 C 241 -101 222 -134 198 -162 L 22 -134 C 36 -95 47 -60 53 -28 C 59 4 62 43 62 89 L 62 206 L 278 206 Z" unicode="," />
<glyph horiz-adv-x="352" d="M 38 160 L 38 316 L 314 316 L 314 160 L 38 160 Z" unicode="-" />
<glyph horiz-adv-x="316" d="M 50 0 L 50 206 L 266 206 L 266 0 L 50 0 Z" unicode="." />
<glyph horiz-adv-x="541" d="M 22 0 L 321 716 L 519 716 L 220 0 L 22 0 Z" unicode="/" />
<glyph horiz-adv-x="700" d="M 350 -18 C 244 -18 166 13 114 76 C 62 139 36 224 36 330 C 36 436 62 521 114 584 C 166 646 244 678 350 678 C 456 678 534 646 586 584 C 638 521 664 437 664 331 C 664 224 638 139 586 76 C 534 13 456 -18 350 -18 Z M 350 191 C 371 191 386 202 396 225 C 405 247 410 282 410 330 C 410 377 405 412 396 435 C 386 458 371 470 350 470 C 328 470 313 458 304 435 C 294 412 290 377 290 331 C 290 283 294 248 304 225 C 313 202 328 191 350 191 Z" unicode="0" />
<glyph horiz-adv-x="419" d="M 109 0 L 109 447 L 26 444 L 26 652 L 353 674 L 353 0 L 109 0 Z" unicode="1" />
<glyph horiz-adv-x="569" d="M 37 0 L 37 245 L 90 261 C 154 281 202 303 236 329 C 269 354 286 380 286 408 C 286 427 278 442 262 453 C 246 463 227 469 204 469 C 178 469 150 464 119 456 C 87 447 60 435 36 421 L 36 637 C 60 649 93 660 135 668 C 177 676 217 680 255 680 C 337 680 404 660 455 622 C 506 583 532 532 532 468 C 532 409 509 355 465 305 C 421 255 356 221 272 203 L 526 203 L 526 0 L 37 0 Z" unicode="2" />
<glyph horiz-adv-x="573" d="M 269 -12 C 229 -12 190 -8 152 -2 C 114 4 75 15 36 29 L 36 238 C 61 223 89 211 121 203 C 152 195 184 191 217 191 C 239 191 256 193 269 199 C 282 205 289 213 289 225 C 289 237 282 245 269 251 C 256 257 239 260 218 260 L 146 260 L 146 408 L 209 408 C 231 408 248 411 261 417 C 274 423 281 432 281 445 C 281 455 275 463 265 468 C 254 473 240 476 222 476 C 191 476 160 472 130 466 C 100 460 72 450 48 438 L 48 642 C 85 654 123 663 161 669 C 199 675 238 678 280 678 C 353 678 413 661 459 627 C 505 593 529 549 529 495 C 529 457 519 423 499 395 C 479 367 450 346 412 334 C 452 321 483 301 505 273 C 526 245 537 212 537 174 C 537 118 513 73 465 39 C 417 5 352 -12 269 -12 Z" unicode="3" />
<glyph horiz-adv-x="648" d="M 313 0 L 313 108 L 35 108 L 35 271 L 220 666 L 549 666 L 549 293 L 613 293 L 613 106 L 549 106 L 549 0 L 313 0 Z M 313 294 L 313 478 L 230 294 L 313 294 Z" unicode="4" />
<glyph horiz-adv-x="579" d="M 256 -12 C 210 -12 169 -9 133 -4 C 97 0 64 7 36 16 L 36 210 C 63 200 93 193 127 189 C 160 185 193 183 225 183 C 247 183 264 186 276 193 C 288 199 294 208 294 219 C 294 229 288 238 277 245 C 266 252 249 256 227 256 C 194 256 161 254 129 251 C 97 248 66 243 38 237 L 63 666 L 520 666 L 520 448 L 235 448 L 232 396 C 241 398 251 399 263 400 C 274 401 285 402 297 402 C 374 402 434 385 478 352 C 521 318 543 271 543 211 C 543 145 518 91 468 50 C 418 8 347 -12 256 -12 Z" unicode="5" />
<glyph horiz-adv-x="645" d="M 330 -12 C 236 -12 164 16 113 74 C 61 131 36 212 36 317 C 36 427 65 516 123 582 C 181 648 263 682 370 682 C 406 682 441 679 476 673 C 511 667 546 659 580 647 L 580 462 C 552 474 522 484 492 491 C 461 498 431 502 403 502 C 369 502 342 493 322 477 C 302 460 288 435 280 403 C 292 416 309 426 329 433 C 349 440 374 444 402 444 C 461 444 510 426 550 390 C 589 354 609 304 609 239 C 609 159 582 97 530 53 C 477 9 410 -12 330 -12 Z M 326 174 C 340 174 350 179 358 190 C 366 201 370 216 370 234 C 370 252 366 267 359 279 C 352 290 342 296 330 296 C 317 296 306 291 297 282 C 287 272 281 260 278 245 C 278 221 282 204 291 192 C 300 180 312 174 326 174 Z" unicode="6" />
<glyph horiz-adv-x="585" d="M 69 0 L 277 440 L 34 440 L 34 666 L 551 666 L 551 489 L 334 0 L 69 0 Z" unicode="7" />
<glyph horiz-adv-x="647" d="M 319 -16 C 233 -16 165 0 113 33 C 61 66 36 112 36 170 C 36 200 44 229 62 255 C 79 281 106 303 142 322 C 110 341 85 364 69 392 C 53 419 45 451 45 487 C 45 549 70 597 122 631 C 173 665 241 682 327 682 C 408 682 473 666 522 635 C 571 603 596 560 596 506 C 596 478 588 452 573 429 C 557 406 533 386 501 369 C 537 349 564 324 583 295 C 601 266 611 232 611 193 C 611 127 584 76 531 39 C 477 2 407 -16 319 -16 Z M 335 424 L 337 424 C 347 430 356 438 362 448 C 368 457 371 467 371 477 C 371 493 366 505 358 515 C 349 524 337 529 323 529 C 308 529 296 524 287 516 C 277 508 273 496 273 481 C 273 467 278 455 290 445 C 301 435 316 428 335 424 Z M 268 206 C 268 188 273 174 283 164 C 293 154 307 149 324 149 C 340 149 354 153 364 161 C 374 169 380 182 380 199 C 380 213 373 227 359 239 C 345 251 327 260 305 265 L 302 266 C 291 257 283 247 277 237 C 271 227 268 216 268 206 Z" unicode="8" />
<glyph horiz-adv-x="646" d="M 276 -12 C 231 -12 191 -8 157 0 C 122 8 87 19 53 33 L 53 218 C 86 200 118 188 149 180 C 180 172 211 168 243 168 C 279 168 307 176 327 193 C 347 210 361 236 369 272 C 356 257 339 246 318 239 C 297 231 272 227 244 227 C 184 226 134 243 95 279 C 55 315 36 365 36 431 C 36 511 62 572 115 616 C 167 660 234 682 316 682 C 410 682 482 653 533 595 C 584 537 610 454 610 346 C 610 239 581 153 523 87 C 465 21 382 -12 276 -12 Z M 318 376 C 330 376 341 380 350 388 C 358 396 365 409 369 427 C 369 449 364 467 356 479 C 348 491 336 498 322 498 C 308 498 297 492 289 482 C 281 471 277 456 277 438 C 277 419 280 404 288 393 C 295 381 305 376 318 376 Z" unicode="9" />
<glyph horiz-adv-x="316" d="M 50 281 L 50 487 L 266 487 L 266 281 L 50 281 Z M 50 0 L 50 206 L 266 206 L 266 0 L 50 0 Z" unicode=":" />
<glyph horiz-adv-x="332" d="M 66 282 L 66 488 L 282 488 L 282 282 L 66 282 Z M 284 206 L 284 90 C 284 28 276 -22 262 -62 C 247 -101 228 -134 204 -162 L 28 -134 C 42 -95 53 -60 59 -28 C 65 4 68 43 68 89 L 68 206 L 284 206 Z" unicode=";" />
<glyph horiz-adv-x="540" d="M 231 68 L 52 297 L 233 525 L 488 525 L 307 298 L 488 68 L 231 68 Z" unicode="&#x3C;" />
<glyph horiz-adv-x="536" d="M 52 329 L 52 517 L 484 517 L 484 329 L 52 329 Z M 52 89 L 52 277 L 484 277 L 484 89 L 52 89 Z" unicode="=" />
<glyph horiz-adv-x="540" d="M 52 68 L 233 298 L 52 525 L 307 525 L 488 297 L 309 68 L 52 68 Z" unicode="&#x3E;" />
<glyph horiz-adv-x="511" d="M 116 229 C 116 269 122 303 136 330 C 150 356 167 379 187 397 C 201 409 212 421 219 433 C 226 445 230 457 230 470 C 230 484 223 496 210 505 C 197 514 180 519 160 519 C 135 519 112 516 91 511 C 70 505 46 497 20 486 L 20 666 C 56 678 90 687 122 692 C 154 697 192 700 236 700 C 307 700 366 685 412 656 C 458 627 481 584 481 528 C 481 490 473 457 457 429 C 441 401 417 373 383 345 C 364 330 349 313 337 293 C 325 273 320 251 320 229 L 116 229 Z M 109 1 L 109 173 L 329 173 L 329 1 L 109 1 Z" unicode="?" />
<glyph horiz-adv-x="814" d="M 399 -83 C 296 -83 210 -51 141 12 C 72 75 38 159 38 265 C 38 375 74 464 147 532 C 220 600 311 634 419 634 C 516 634 600 605 670 547 C 740 489 776 411 776 315 C 776 248 759 195 725 156 C 691 117 648 98 597 98 C 569 98 544 103 524 115 C 503 126 487 142 477 164 C 465 143 450 127 431 117 C 411 106 388 101 362 101 C 321 101 287 116 261 146 C 234 176 221 213 221 257 C 221 321 242 371 284 407 C 326 443 374 461 428 461 C 450 461 474 458 500 452 C 525 446 548 439 569 430 L 551 278 C 549 258 552 241 560 228 C 568 215 581 209 598 209 C 616 209 630 217 639 235 C 647 252 652 276 652 307 C 652 367 630 418 588 459 C 545 499 489 520 420 520 C 342 520 280 495 233 447 C 185 399 162 339 162 267 C 162 201 183 145 227 100 C 271 55 328 33 399 33 C 431 33 462 36 492 43 C 521 49 550 60 579 74 L 579 -54 C 549 -64 520 -71 491 -76 C 461 -80 431 -83 399 -83 Z M 391 226 C 400 226 408 231 415 241 C 422 251 428 270 432 297 L 437 336 C 432 336 428 337 424 337 C 420 337 417 338 413 338 C 398 338 385 331 375 317 C 364 303 359 287 359 268 C 359 255 362 245 368 237 C 374 229 382 226 391 226 Z" unicode="@" />
<glyph horiz-adv-x="746" d="M 12 0 L 232 658 L 515 658 L 734 0 L 481 0 L 454 93 L 260 93 L 233 0 L 12 0 Z M 303 239 L 411 239 L 394 296 L 358 430 L 320 296 L 303 239 Z" unicode="A" />
<glyph horiz-adv-x="652" d="M 52 0 L 52 658 L 382 658 C 454 658 511 643 551 614 C 591 584 611 544 611 492 C 611 451 601 417 581 390 C 561 363 531 343 493 331 C 537 321 571 304 594 278 C 616 252 628 219 628 179 C 628 123 607 79 567 47 C 526 15 466 0 386 0 L 52 0 Z M 285 400 L 317 400 C 333 400 347 406 357 416 C 367 426 372 439 372 456 C 372 472 367 486 357 496 C 347 506 333 511 317 511 L 285 511 L 285 400 Z M 285 157 L 328 157 C 346 157 360 162 370 172 C 380 182 386 195 386 212 C 386 229 380 242 370 252 C 360 262 346 267 328 268 L 285 268 L 285 157 Z" unicode="B" />
<glyph horiz-adv-x="624" d="M 400 -14 C 285 -14 195 17 130 79 C 64 141 32 225 32 330 C 32 434 64 517 129 579 C 194 641 281 672 391 672 C 425 672 458 668 490 662 C 522 656 552 647 581 637 L 581 422 C 555 435 530 445 504 452 C 478 459 451 463 425 463 C 384 463 351 451 327 429 C 302 406 290 373 290 330 C 290 286 302 252 327 229 C 351 206 384 195 425 195 C 453 195 480 198 507 206 C 534 213 561 224 588 238 L 588 24 C 558 11 527 1 496 -4 C 465 -10 433 -14 400 -14 Z" unicode="C" />
<glyph horiz-adv-x="728" d="M 52 0 L 52 658 L 320 658 C 438 658 530 629 596 573 C 662 516 696 437 696 337 C 696 231 663 149 598 89 C 532 29 440 0 320 0 L 52 0 Z M 296 203 L 325 203 C 361 203 390 214 410 238 C 430 262 440 295 440 337 C 440 373 430 402 410 424 C 390 445 361 456 325 456 L 296 456 L 296 203 Z" unicode="D" />
<glyph horiz-adv-x="561" d="M 52 0 L 52 658 L 511 658 L 511 466 L 296 466 L 296 405 L 499 405 L 499 255 L 296 255 L 296 192 L 519 192 L 519 0 L 52 0 Z" unicode="E" />
<glyph horiz-adv-x="504" d="M 52 0 L 52 658 L 478 658 L 478 466 L 296 466 L 296 402 L 459 402 L 459 217 L 296 217 L 296 0 L 52 0 Z" unicode="F" />
<glyph horiz-adv-x="721" d="M 395 -14 C 281 -14 192 17 128 79 C 64 141 32 224 32 327 C 32 431 65 515 133 578 C 200 640 291 672 407 672 C 447 672 488 669 528 664 C 568 659 605 652 640 642 L 640 440 C 606 450 571 459 537 465 C 502 471 467 474 431 474 C 389 474 354 462 328 438 C 302 414 289 379 289 332 C 289 282 298 244 318 219 C 337 193 364 181 399 181 C 407 181 416 181 425 183 C 433 184 442 186 452 189 L 452 249 L 383 249 L 383 401 L 685 401 L 685 35 C 641 19 595 7 547 -1 C 499 -9 448 -14 395 -14 Z" unicode="G" />
<glyph horiz-adv-x="730" d="M 52 0 L 52 658 L 296 658 L 296 427 L 434 427 L 434 658 L 678 658 L 678 0 L 434 0 L 434 224 L 296 224 L 296 0 L 52 0 Z" unicode="H" />
<glyph horiz-adv-x="348" d="M 52 0 L 52 658 L 296 658 L 296 0 L 52 0 Z" unicode="I" />
<glyph horiz-adv-x="354" d="M 7 -220 L -26 -220 L -26 -42 L -10 -42 C 11 -42 28 -35 40 -22 C 52 -8 58 11 58 39 L 58 658 L 302 658 L 302 43 C 302 -39 277 -104 228 -150 C 178 -196 105 -220 7 -220 Z" unicode="J" />
<glyph horiz-adv-x="739" d="M 52 0 L 52 658 L 296 658 L 296 361 L 461 658 L 720 658 L 526 340 L 722 0 L 447 0 L 296 285 L 296 0 L 52 0 Z" unicode="K" />
<glyph horiz-adv-x="510" d="M 52 0 L 52 658 L 296 658 L 296 204 L 488 204 L 488 0 L 52 0 Z" unicode="L" />
<glyph horiz-adv-x="948" d="M 52 0 L 52 658 L 388 658 L 446 458 L 473 340 L 503 458 L 561 658 L 896 658 L 896 0 L 657 0 L 657 296 L 662 436 L 624 296 L 537 23 L 376 23 L 289 297 L 250 444 L 256 296 L 256 0 L 52 0 Z" unicode="M" />
<glyph horiz-adv-x="771" d="M 52 0 L 52 658 L 330 658 L 463 417 L 513 316 L 509 417 L 509 658 L 719 658 L 719 0 L 444 0 L 307 242 L 258 343 L 262 242 L 262 0 L 52 0 Z" unicode="N" />
<glyph horiz-adv-x="784" d="M 392 -18 C 283 -18 196 12 130 73 C 64 133 32 219 32 329 C 32 439 64 525 130 585 C 196 645 283 676 392 676 C 500 676 587 645 653 585 C 719 525 752 439 752 329 C 752 219 719 133 653 73 C 587 12 500 -18 392 -18 Z M 392 189 C 425 189 451 200 469 224 C 487 248 496 283 496 329 C 496 375 487 410 469 434 C 451 458 425 470 392 470 C 358 470 333 458 315 434 C 297 410 288 375 288 329 C 288 283 297 248 315 224 C 333 200 358 189 392 189 Z" unicode="O" />
<glyph horiz-adv-x="655" d="M 52 0 L 52 658 L 354 658 C 442 658 510 634 559 588 C 608 541 633 481 633 408 C 633 332 608 270 558 222 C 508 174 439 150 351 150 L 296 150 L 296 0 L 52 0 Z M 296 333 L 324 333 C 343 333 358 339 370 352 C 381 365 387 383 387 406 C 387 426 381 442 370 454 C 358 466 343 472 323 472 L 296 472 L 296 333 Z" unicode="P" />
<glyph horiz-adv-x="786" d="M 608 -175 C 568 -162 526 -141 482 -113 C 438 -85 399 -53 365 -17 C 264 -12 183 20 123 80 C 62 140 32 223 32 329 C 32 439 64 525 130 585 C 196 645 283 676 392 676 C 500 676 587 645 653 585 C 719 525 752 439 752 329 C 752 265 740 208 717 160 C 694 112 662 73 620 45 C 641 33 663 22 685 13 C 707 4 730 -2 752 -7 L 608 -175 Z M 392 189 C 425 189 451 200 469 224 C 487 248 496 283 496 329 C 496 375 487 410 469 434 C 451 458 425 470 392 470 C 358 470 333 458 315 434 C 297 410 288 375 288 329 C 288 283 297 248 315 224 C 333 200 358 189 392 189 Z" unicode="Q" />
<glyph horiz-adv-x="697" d="M 426 0 L 373 187 C 367 205 359 219 350 227 C 340 235 328 239 314 239 L 296 239 L 296 0 L 52 0 L 52 658 L 399 658 C 465 658 518 642 559 612 C 599 582 620 538 620 482 C 620 440 609 404 587 376 C 565 348 534 327 492 315 C 526 306 555 292 577 273 C 599 253 614 228 623 198 L 681 0 L 426 0 Z M 296 383 L 324 383 C 342 383 357 388 367 399 C 377 409 383 424 383 442 C 383 459 377 473 367 483 C 357 493 342 498 324 498 L 296 498 L 296 383 Z" unicode="R" />
<glyph horiz-adv-x="604" d="M 286 -15 C 247 -15 208 -11 168 -4 C 128 3 87 14 44 29 L 44 222 C 82 204 119 191 155 183 C 191 174 226 170 261 170 C 281 170 296 172 306 177 C 316 181 321 189 321 199 C 321 207 317 215 310 221 C 302 227 291 231 277 234 L 252 239 C 178 251 123 275 86 310 C 49 344 31 391 31 449 C 31 520 55 575 104 614 C 152 653 221 673 311 673 C 347 673 384 670 423 665 C 461 659 498 652 533 642 L 533 450 C 503 462 471 472 437 479 C 403 486 370 490 338 490 C 319 490 305 487 296 483 C 287 479 283 472 283 463 C 283 455 286 448 294 442 C 301 436 312 432 327 430 L 352 425 C 426 412 481 388 518 353 C 554 317 573 271 573 215 C 573 139 548 82 498 43 C 448 4 377 -15 286 -15 Z" unicode="S" />
<glyph horiz-adv-x="566" d="M 161 0 L 161 454 L 20 454 L 20 658 L 546 658 L 546 454 L 405 454 L 405 0 L 161 0 Z" unicode="T" />
<glyph horiz-adv-x="716" d="M 361 -15 C 265 -15 188 9 132 59 C 76 109 48 176 48 260 L 48 658 L 298 658 L 298 276 C 298 254 304 236 316 222 C 328 208 345 201 366 201 C 388 201 405 208 417 222 C 429 236 435 254 435 276 L 435 658 L 668 658 L 668 260 C 668 176 640 109 585 59 C 529 9 455 -15 361 -15 Z" unicode="U" />
<glyph horiz-adv-x="730" d="M 224 0 L 12 658 L 272 658 L 351 362 L 379 241 L 407 362 L 486 658 L 718 658 L 507 0 L 224 0 Z" unicode="V" />
<glyph horiz-adv-x="1071" d="M 161 0 L 12 658 L 258 658 L 314 362 L 335 229 L 357 362 L 412 658 L 682 658 L 736 361 L 758 237 L 779 361 L 835 658 L 1059 658 L 907 0 L 602 0 L 551 238 L 529 366 L 505 238 L 455 0 L 161 0 Z" unicode="W" />
<glyph horiz-adv-x="730" d="M 16 0 L 205 321 L 21 658 L 298 658 L 356 542 L 381 478 L 406 542 L 465 658 L 712 658 L 529 339 L 714 0 L 437 0 L 380 119 L 352 189 L 325 121 L 264 0 L 16 0 Z" unicode="X" />
<glyph horiz-adv-x="704" d="M 231 0 L 231 187 L 12 658 L 283 658 L 340 497 L 366 416 L 392 497 L 449 658 L 692 658 L 475 187 L 475 0 L 231 0 Z" unicode="Y" />
<glyph horiz-adv-x="666" d="M 44 0 L 44 126 L 235 390 L 286 454 L 47 454 L 47 658 L 622 658 L 622 532 L 436 269 L 384 204 L 622 204 L 622 0 L 44 0 Z" unicode="Z" />
<glyph horiz-adv-x="421" d="M 62 -220 L 62 716 L 379 716 L 379 550 L 274 550 L 274 -54 L 379 -54 L 379 -220 L 62 -220 Z" unicode="[" />
<glyph horiz-adv-x="529" d="M 315 0 L 16 716 L 214 716 L 513 0 L 315 0 Z" unicode="\" />
<glyph horiz-adv-x="421" d="M 42 -220 L 42 -54 L 147 -54 L 147 550 L 42 550 L 42 716 L 359 716 L 359 -220 L 42 -220 Z" unicode="]" />
<glyph horiz-adv-x="328" d="M 124 541 L -20 541 L 74 716 L 250 716 L 346 541 L 194 541 L 159 611 L 124 541 Z" unicode="^" />
<glyph horiz-adv-x="396" d="M 0 -210 L 0 -78 L 396 -78 L 396 -210 L 0 -210 Z" unicode="_" />
<glyph horiz-adv-x="301" d="M 106 541 L -22 708 L 173 708 L 269 541 L 106 541 Z" unicode="`" />
<glyph horiz-adv-x="565" d="M 181 -12 C 133 -12 95 1 66 29 C 36 57 22 92 22 134 C 22 186 40 224 77 248 C 113 271 163 287 226 295 L 309 305 L 309 315 C 309 327 303 337 291 343 C 279 349 259 352 233 352 C 202 352 171 348 140 341 C 109 333 79 323 51 310 L 51 474 C 85 483 120 490 156 496 C 192 501 231 504 273 504 C 350 504 412 489 460 461 C 507 432 531 389 531 331 L 531 0 L 321 0 L 310 59 C 295 36 277 18 257 6 C 236 -5 211 -12 181 -12 Z M 276 138 C 282 138 289 139 295 143 C 301 146 305 150 309 156 L 309 211 L 276 207 C 266 205 258 201 252 195 C 246 189 243 180 243 170 C 243 160 246 152 252 146 C 258 140 266 138 276 138 Z" unicode="a" />
<glyph horiz-adv-x="596" d="M 287 -12 C 245 -12 203 -8 161 -2 C 119 3 78 13 37 25 L 37 716 L 264 716 L 264 443 C 274 457 290 471 310 483 C 330 495 356 502 390 502 C 444 502 488 480 522 436 C 556 392 573 333 573 261 C 573 177 548 111 499 62 C 449 12 379 -12 287 -12 Z M 293 158 C 310 158 323 164 333 178 C 343 191 348 212 348 241 C 348 267 343 287 334 300 C 324 313 311 320 295 320 C 290 320 285 319 279 318 C 273 316 268 314 264 312 L 264 165 C 268 162 273 160 278 159 C 283 158 288 158 293 158 Z" unicode="b" />
<glyph horiz-adv-x="471" d="M 292 -12 C 207 -12 141 10 94 54 C 46 98 23 159 23 239 C 23 322 46 387 93 433 C 139 479 205 502 291 502 C 315 502 340 500 365 496 C 390 492 415 486 439 480 L 439 290 C 421 296 402 302 384 306 C 366 310 348 312 332 312 C 307 312 288 306 276 294 C 263 282 257 266 257 246 C 257 224 263 208 277 196 C 291 184 311 178 337 178 C 353 178 371 180 389 185 C 407 190 425 197 442 207 L 442 17 C 417 7 392 0 367 -4 C 341 -9 316 -12 292 -12 Z" unicode="c" />
<glyph horiz-adv-x="600" d="M 201 -11 C 146 -11 103 11 71 56 C 39 101 23 161 23 235 C 23 315 41 379 79 427 C 117 475 169 500 236 500 C 252 500 269 497 287 493 C 305 489 321 482 336 474 L 336 716 L 563 716 L 563 0 L 345 0 L 336 65 C 321 40 303 21 281 8 C 259 -4 233 -11 201 -11 Z M 309 173 C 314 173 319 173 325 175 C 331 177 336 179 341 182 L 341 322 C 336 324 331 326 326 328 C 320 329 315 330 310 330 C 293 330 280 323 271 309 C 261 295 257 276 257 250 C 257 225 261 206 270 193 C 279 179 292 173 309 173 Z" unicode="d" />
<glyph horiz-adv-x="559" d="M 302 -18 C 216 -18 148 5 98 53 C 48 100 23 164 23 246 C 23 326 47 389 96 437 C 145 484 212 508 298 508 C 380 508 440 482 478 430 C 516 378 535 310 535 225 L 535 204 L 252 204 C 254 183 264 168 280 160 C 296 151 320 147 354 147 C 382 147 411 150 439 156 C 467 162 495 171 524 184 L 524 18 C 484 5 447 -3 413 -9 C 379 -15 342 -18 302 -18 Z M 295 372 C 281 372 271 366 264 355 C 257 344 253 325 252 298 L 336 298 C 336 322 332 341 326 353 C 320 365 309 372 295 372 Z" unicode="e" />
<glyph horiz-adv-x="396" d="M 73 0 L 73 318 L 24 318 L 24 490 L 73 490 L 73 540 C 73 596 92 641 132 676 C 172 710 230 728 307 728 C 329 728 351 726 373 724 C 395 722 417 718 440 714 L 440 547 C 425 549 411 551 398 553 C 385 554 374 555 365 555 C 344 555 328 551 317 543 C 305 535 300 523 300 507 L 300 490 L 372 490 L 372 318 L 300 318 L 300 0 L 73 0 Z" unicode="f" />
<glyph horiz-adv-x="600" d="M 291 -220 C 247 -220 206 -216 168 -210 C 129 -204 91 -194 54 -182 L 54 -10 C 78 -26 105 -39 134 -47 C 162 -55 190 -59 216 -59 C 242 -59 268 -53 296 -42 C 324 -31 338 -8 338 26 L 338 51 C 322 31 304 17 284 8 C 264 0 242 -5 219 -5 C 155 -5 106 17 73 61 C 39 105 23 165 23 240 C 23 325 48 391 98 437 C 148 483 205 506 269 506 C 305 506 336 499 364 485 C 392 471 413 453 428 433 L 461 490 L 563 490 L 563 40 C 563 -56 534 -123 476 -162 C 418 -200 357 -220 291 -220 Z M 304 163 C 310 163 315 164 321 166 C 327 168 332 170 337 173 L 337 314 C 332 316 327 318 321 320 C 315 321 310 322 305 322 C 288 322 275 315 266 301 C 257 287 253 267 253 241 C 253 216 257 197 266 183 C 275 169 288 163 304 163 Z" unicode="g" />
<glyph horiz-adv-x="592" d="M 37 0 L 37 716 L 264 716 L 264 431 C 278 451 296 468 318 482 C 339 496 367 504 403 504 C 444 504 480 489 511 459 C 542 429 558 390 558 342 L 558 0 L 331 0 L 331 277 C 331 287 328 296 322 303 C 316 309 307 313 296 313 C 289 313 283 311 277 309 C 271 306 266 302 264 298 L 264 0 L 37 0 Z" unicode="h" />
<glyph horiz-adv-x="301" d="M 37 546 L 37 716 L 264 716 L 264 546 L 37 546 Z M 37 0 L 37 490 L 264 490 L 264 0 L 37 0 Z" unicode="i" />
<glyph horiz-adv-x="300" d="M 36 546 L 36 716 L 263 716 L 263 546 L 36 546 Z M -21 -220 L -38 -220 L -38 -47 L -30 -47 C -10 -47 5 -40 17 -27 C 29 -14 36 2 36 24 L 36 490 L 263 490 L 263 23 C 263 -55 239 -115 191 -157 C 143 -199 72 -220 -21 -220 Z" unicode="j" />
<glyph horiz-adv-x="614" d="M 37 0 L 37 716 L 264 716 L 264 303 L 359 490 L 599 490 L 475 254 L 599 0 L 351 0 L 264 189 L 264 0 L 37 0 Z" unicode="k" />
<glyph horiz-adv-x="301" d="M 37 0 L 37 716 L 264 716 L 264 0 L 37 0 Z" unicode="l" />
<glyph horiz-adv-x="885" d="M 37 0 L 37 490 L 264 490 L 264 430 C 278 450 296 468 318 482 C 339 496 367 504 403 504 C 432 504 459 496 483 480 C 507 464 526 443 540 417 C 564 451 588 474 613 486 C 637 498 664 504 693 504 C 737 504 774 489 805 460 C 835 430 851 391 851 342 L 851 0 L 624 0 L 624 277 C 624 287 621 296 615 303 C 609 309 601 313 589 313 C 582 313 576 311 571 309 C 565 306 561 302 558 298 L 558 0 L 331 0 L 331 277 C 331 287 328 296 322 303 C 316 309 307 313 296 313 C 289 313 283 311 277 309 C 271 306 266 302 264 298 L 264 0 L 37 0 Z" unicode="m" />
<glyph horiz-adv-x="592" d="M 37 0 L 37 490 L 264 490 L 264 430 C 278 450 296 468 318 482 C 339 496 367 504 403 504 C 444 504 480 489 511 460 C 542 430 558 391 558 342 L 558 0 L 331 0 L 331 277 C 331 287 328 296 322 303 C 316 309 307 313 296 313 C 289 313 283 311 277 309 C 271 306 266 302 264 298 L 264 0 L 37 0 Z" unicode="n" />
<glyph horiz-adv-x="603" d="M 301 -20 C 212 -20 143 4 95 53 C 47 101 23 166 23 247 C 23 326 47 390 95 438 C 143 486 212 510 301 510 C 390 510 459 486 507 438 C 555 390 580 327 580 248 C 580 166 555 101 507 53 C 459 4 390 -20 301 -20 Z M 302 163 C 316 163 327 169 335 183 C 342 196 346 217 346 246 C 346 274 342 294 334 308 C 326 321 315 328 301 328 C 287 328 276 321 268 308 C 260 294 257 274 257 246 C 257 217 260 196 268 183 C 276 169 287 163 302 163 Z" unicode="o" />
<glyph horiz-adv-x="596" d="M 37 -193 L 37 490 L 264 490 L 264 430 C 278 450 295 467 317 481 C 339 495 366 502 399 502 C 455 502 498 479 528 435 C 558 391 573 332 573 260 C 573 180 550 115 504 64 C 458 13 399 -12 326 -12 C 316 -12 306 -11 295 -9 C 284 -7 274 -5 264 -2 L 264 -193 L 37 -193 Z M 293 157 C 310 157 323 163 333 176 C 343 189 348 210 348 239 C 348 265 343 285 333 298 C 323 311 310 318 294 318 C 289 318 284 317 279 316 C 273 314 268 312 264 310 L 264 165 C 268 162 272 160 278 159 C 283 157 288 157 293 157 Z" unicode="p" />
<glyph horiz-adv-x="607" d="M 343 -194 L 343 31 C 328 13 310 0 290 -8 C 269 -16 247 -21 223 -21 C 163 -21 114 1 78 47 C 41 93 23 154 23 230 C 23 311 47 377 96 427 C 145 477 206 502 280 502 C 310 502 339 495 365 482 C 391 469 412 452 427 432 L 454 490 L 570 490 L 570 -194 L 343 -194 Z M 309 156 C 315 156 321 157 327 159 C 333 161 338 163 343 166 L 343 305 C 338 307 333 309 327 311 C 321 312 315 313 310 313 C 293 313 280 306 271 292 C 262 278 258 259 258 233 C 258 208 262 189 271 176 C 280 162 293 156 309 156 Z" unicode="q" />
<glyph horiz-adv-x="442" d="M 37 0 L 37 490 L 260 490 L 265 415 C 279 447 295 470 315 484 C 334 497 354 504 375 504 C 384 504 393 503 403 501 C 412 499 421 497 430 494 L 430 273 C 415 281 401 286 388 290 C 374 294 359 296 343 296 C 330 296 316 294 302 290 C 287 286 274 280 264 274 L 264 0 L 37 0 Z" unicode="r" />
<glyph horiz-adv-x="502" d="M 247 -16 C 211 -16 175 -14 140 -10 C 105 -6 70 0 34 9 L 34 169 C 63 154 92 143 122 136 C 152 128 182 125 214 125 C 222 125 230 126 236 129 C 242 132 245 137 245 143 C 245 149 242 153 237 157 C 232 160 225 163 217 165 L 167 177 C 118 187 82 206 58 234 C 34 261 22 295 22 337 C 22 388 40 429 78 459 C 115 489 171 505 247 505 C 281 505 315 503 349 499 C 382 495 416 489 450 481 L 450 331 C 420 345 393 355 369 361 C 344 367 318 371 291 371 C 280 371 272 369 266 366 C 260 362 257 358 257 352 C 257 347 258 343 262 339 C 266 335 271 333 277 332 L 327 322 C 379 311 417 291 442 263 C 467 234 480 198 480 155 C 480 105 460 64 422 32 C 384 0 325 -16 247 -16 Z" unicode="s" />
<glyph horiz-adv-x="400" d="M 232 -12 C 188 -12 150 1 119 29 C 87 57 72 100 72 158 L 72 318 L 22 318 L 22 490 L 72 490 L 72 621 L 300 621 L 300 490 L 372 490 L 372 318 L 300 318 L 300 208 C 300 196 303 187 309 180 C 315 173 324 170 334 170 C 341 170 348 171 356 173 C 363 175 370 177 376 181 L 376 12 C 352 3 328 -2 304 -6 C 280 -10 256 -12 232 -12 Z" unicode="t" />
<glyph horiz-adv-x="592" d="M 196 -14 C 152 -14 114 0 82 30 C 50 60 34 99 34 149 L 34 490 L 261 490 L 261 213 C 261 202 264 193 270 187 C 276 181 284 178 296 178 C 302 178 309 179 315 182 C 321 184 325 188 328 193 L 328 490 L 555 490 L 555 0 L 336 0 L 328 60 C 314 39 297 21 275 7 C 253 -6 226 -14 196 -14 Z" unicode="u" />
<glyph horiz-adv-x="576" d="M 139 0 L 12 490 L 247 490 L 281 320 L 305 190 L 329 320 L 363 490 L 564 490 L 437 0 L 139 0 Z" unicode="v" />
<glyph horiz-adv-x="898" d="M 127 0 L 12 490 L 237 490 L 266 320 L 287 188 L 311 320 L 344 490 L 571 490 L 606 320 L 635 185 L 662 320 L 695 490 L 886 490 L 762 1 L 500 0 L 477 116 L 447 264 L 418 116 L 395 0 L 127 0 Z" unicode="w" />
<glyph horiz-adv-x="604" d="M 15 0 L 138 244 L 18 490 L 277 490 L 311 400 L 321 366 L 332 400 L 366 490 L 584 490 L 466 255 L 588 0 L 326 0 L 292 87 L 281 124 L 270 87 L 236 0 L 15 0 Z" unicode="x" />
<glyph horiz-adv-x="595" d="M 44 -220 L 35 -220 L 35 -47 L 44 -47 C 78 -47 107 -44 132 -39 C 156 -33 178 -22 198 -6 L 141 4 L 12 490 L 254 490 L 285 320 L 312 148 L 341 320 L 372 490 L 583 490 L 488 128 C 456 2 405 -86 334 -140 C 263 -193 166 -220 44 -220 Z" unicode="y" />
<glyph horiz-adv-x="539" d="M 31 0 L 31 99 L 146 253 L 194 312 L 33 312 L 33 490 L 503 490 L 503 392 L 388 237 L 340 178 L 508 178 L 508 0 L 31 0 Z" unicode="z" />
<glyph horiz-adv-x="492" d="M 387 -215 C 312 -215 254 -197 214 -163 C 173 -128 154 -82 158 -25 L 164 78 C 165 105 156 126 138 142 C 119 157 92 166 56 170 L 56 332 C 92 334 119 343 138 359 C 156 375 165 396 164 424 L 158 526 C 154 583 173 629 214 664 C 254 698 312 716 387 716 L 446 716 L 446 557 L 430 557 C 414 557 400 551 390 539 C 379 527 374 509 376 487 L 382 409 C 384 369 375 336 355 308 C 334 280 304 262 264 252 L 264 250 C 303 238 333 219 354 191 C 374 163 383 130 381 93 L 375 15 C 373 -8 378 -26 389 -38 C 399 -50 413 -56 430 -56 L 446 -56 L 446 -215 L 387 -215 Z" unicode="{" />
<glyph horiz-adv-x="284" d="M 50 -220 L 50 716 L 234 716 L 234 -220 L 50 -220 Z" unicode="|" />
<glyph horiz-adv-x="492" d="M 46 -215 L 46 -56 L 62 -56 C 78 -56 92 -50 103 -38 C 114 -26 119 -8 117 15 L 111 93 C 108 130 117 163 138 191 C 158 219 188 238 228 250 L 228 252 C 188 262 157 280 137 308 C 116 336 107 369 110 409 L 116 487 C 118 509 113 527 103 539 C 92 551 78 557 62 557 L 46 557 L 46 716 L 105 716 C 180 716 238 698 278 664 C 318 629 337 583 334 526 L 328 424 C 326 396 335 375 354 359 C 373 343 400 334 436 332 L 436 170 C 400 166 373 157 354 142 C 335 126 326 105 328 78 L 334 -25 C 337 -82 318 -128 278 -163 C 238 -197 180 -215 105 -215 L 46 -215 Z" unicode="}" />
<glyph horiz-adv-x="389" d="M 117 163 L 6 163 C 6 218 17 260 39 288 C 61 316 94 331 138 331 C 154 331 168 328 181 324 C 193 320 207 312 222 300 C 228 295 233 291 237 289 C 241 287 245 286 250 286 C 258 286 263 289 267 295 C 271 301 273 311 274 324 L 385 324 C 385 269 374 227 352 199 C 330 171 297 157 253 157 C 237 157 223 159 211 163 C 198 167 184 176 169 188 C 163 192 158 196 154 198 C 150 200 145 201 141 201 C 132 201 126 198 122 192 C 118 186 117 176 117 163 Z" unicode="~" />
<glyph horiz-adv-x="313" d="M 46 352 L 46 524 L 266 524 L 266 352 L 46 352 Z M 47 -193 L 47 296 L 267 296 L 267 -193 L 47 -193 Z" unicode="¡" />
<glyph horiz-adv-x="469" d="M 197 -105 L 197 -1 C 141 13 98 41 68 82 C 38 123 23 175 23 239 C 23 305 38 360 68 404 C 98 447 141 476 197 491 L 197 592 L 361 592 L 361 497 C 373 495 386 492 400 489 C 413 486 426 483 439 480 L 439 290 C 421 296 402 302 384 306 C 366 310 348 312 332 312 C 307 312 288 306 276 294 C 263 282 257 266 257 246 C 257 224 263 208 277 196 C 291 184 311 178 337 178 C 353 178 371 180 389 185 C 407 190 425 197 442 207 L 442 17 C 429 12 416 8 402 4 C 388 0 374 -3 361 -6 L 361 -105 L 197 -105 Z" unicode="¢" />
<glyph horiz-adv-x="636" d="M 60 0 L 60 164 C 81 176 98 191 112 208 C 125 225 133 245 135 268 L 56 268 L 56 422 L 111 422 C 103 500 123 562 170 608 C 217 654 291 677 392 677 C 425 677 457 674 488 668 C 519 662 550 653 580 642 L 580 439 C 557 451 534 461 511 468 C 487 475 463 479 437 479 C 411 479 391 474 376 465 C 361 456 353 442 352 422 L 461 422 L 461 268 L 373 268 C 372 258 370 249 368 241 C 365 232 362 223 358 215 L 580 215 L 580 0 L 60 0 Z" unicode="£" />
<glyph horiz-adv-x="765" d="M 195 -9 L 46 141 L 150 245 C 145 258 141 272 139 287 C 136 302 135 318 135 335 C 135 349 136 363 138 377 C 140 390 143 403 147 416 L 38 525 L 187 674 L 294 567 C 308 571 322 575 337 578 C 352 580 368 582 384 582 C 399 582 414 580 429 578 C 444 576 458 572 472 568 L 579 674 L 727 525 L 620 418 C 624 405 628 392 630 378 C 632 364 633 349 633 335 C 633 318 631 302 628 287 C 625 271 621 257 617 244 L 721 139 L 572 -10 L 460 102 C 448 98 435 96 422 94 C 409 92 396 92 384 92 C 370 92 357 93 344 95 C 331 97 319 99 307 103 L 195 -9 Z M 384 263 C 405 263 422 270 435 284 C 448 298 455 315 455 335 C 455 355 448 373 435 387 C 422 401 405 408 384 408 C 362 408 344 401 331 387 C 318 373 312 355 312 335 C 312 315 318 298 331 284 C 344 270 362 263 384 263 Z" unicode="¤" />
<glyph horiz-adv-x="718" d="M 107 90 L 107 190 L 238 190 L 219 230 L 107 230 L 107 330 L 173 330 L 20 658 L 291 658 L 348 497 L 374 416 L 400 497 L 457 658 L 700 658 L 549 330 L 617 330 L 617 230 L 503 230 L 484 190 L 617 190 L 617 90 L 483 90 L 483 0 L 239 0 L 239 90 L 107 90 Z" unicode="¥" />
<glyph horiz-adv-x="284" d="M 50 314 L 50 716 L 234 716 L 234 314 L 50 314 Z M 50 -220 L 50 183 L 234 183 L 234 -220 L 50 -220 Z" unicode="¦" />
<glyph horiz-adv-x="558" d="M 264 -12 C 228 -12 192 -9 156 -4 C 120 0 84 7 48 16 L 48 170 C 78 156 110 145 144 139 C 178 132 211 129 243 129 C 253 129 262 130 268 134 C 274 137 277 141 277 147 C 277 151 274 155 270 159 C 265 163 258 165 250 166 L 206 175 C 151 185 113 204 91 230 C 69 256 58 285 58 316 C 58 340 62 362 72 380 C 81 398 94 413 110 425 C 91 437 77 453 69 471 C 60 489 56 511 56 536 C 56 588 75 629 114 660 C 153 691 213 707 293 707 C 327 707 361 704 395 700 C 429 695 464 688 499 680 L 499 538 C 470 548 441 556 411 562 C 381 568 352 571 324 571 C 313 571 304 569 298 567 C 291 564 288 560 288 554 C 288 550 289 546 293 543 C 296 540 301 538 307 538 L 351 528 C 409 516 450 497 474 471 C 498 445 510 414 510 379 C 510 354 505 333 495 315 C 485 297 472 282 455 271 C 473 257 486 240 496 221 C 505 201 510 180 510 156 C 510 104 489 63 449 33 C 409 3 347 -12 264 -12 Z M 282 323 L 311 319 C 313 322 315 326 317 330 C 319 334 320 339 320 344 C 320 352 316 359 309 365 C 301 371 290 375 275 378 L 250 382 C 248 378 247 375 246 371 C 245 367 245 364 245 360 C 245 351 248 343 254 336 C 260 329 269 325 282 323 Z" unicode="§" />
<glyph horiz-adv-x="321" d="M -14 541 L -14 691 L 136 691 L 136 541 L -14 541 Z M 183 541 L 183 691 L 333 691 L 333 541 L 183 541 Z" unicode="¨" />
<glyph horiz-adv-x="726" d="M 363 86 C 265 86 186 116 127 177 C 67 237 38 313 38 405 C 38 496 67 572 127 633 C 186 693 265 724 363 724 C 461 724 539 693 599 633 C 658 572 688 496 688 405 C 688 313 658 237 599 177 C 539 116 461 86 363 86 Z M 363 189 C 428 189 480 208 520 248 C 559 287 579 339 579 405 C 579 470 559 522 520 562 C 480 601 428 621 363 621 C 297 621 245 601 206 562 C 166 522 147 470 147 405 C 147 339 166 287 206 248 C 245 208 297 189 363 189 Z M 373 232 C 318 232 274 247 242 279 C 209 310 193 352 193 406 C 193 459 209 501 241 533 C 273 564 316 580 370 580 C 389 580 407 578 425 574 C 443 570 460 563 476 554 L 476 437 C 462 446 448 453 432 458 C 416 462 400 465 384 465 C 364 465 349 459 339 449 C 328 439 323 424 323 406 C 323 387 328 372 339 362 C 349 351 364 346 384 346 C 402 346 419 348 435 354 C 450 359 465 366 480 376 L 480 259 C 463 250 446 243 428 239 C 410 234 391 232 373 232 Z" unicode="©" />
<glyph horiz-adv-x="469" d="M 165 367 C 126 367 97 376 77 396 C 57 416 46 442 46 475 C 46 512 59 540 86 560 C 112 580 150 592 198 597 L 257 603 L 257 612 C 257 620 251 627 241 631 C 231 635 213 638 187 638 C 166 638 145 635 125 631 C 104 626 84 619 66 611 L 66 724 C 92 730 119 735 145 739 C 171 743 199 745 231 745 C 287 745 332 734 366 712 C 400 690 417 659 417 617 L 417 376 L 267 376 L 258 419 C 246 402 233 389 219 380 C 205 371 187 367 165 367 Z M 232 474 C 236 474 241 474 245 476 C 249 478 253 481 257 485 L 257 524 L 233 521 C 224 520 217 517 213 513 C 208 509 206 503 206 497 C 206 490 208 484 212 480 C 216 476 223 474 232 474 Z M 58 205 L 58 321 L 421 321 L 421 205 L 58 205 Z" unicode="ª" />
<glyph horiz-adv-x="710" d="M 159 51 L 36 226 L 159 402 L 377 402 L 255 226 L 377 51 L 159 51 Z M 456 51 L 333 226 L 456 402 L 674 402 L 552 226 L 674 51 L 456 51 Z" unicode="«" />
<glyph horiz-adv-x="502" d="M 270 103 L 270 206 L 52 206 L 52 386 L 450 386 L 450 103 L 270 103 Z" unicode="¬" />
<glyph horiz-adv-x="348" d="M 38 160 L 38 316 L 314 316 L 314 160 L 38 160 Z" unicode="­" />
<glyph horiz-adv-x="726" d="M 363 87 C 265 87 186 117 127 178 C 67 238 38 314 38 406 C 38 497 67 573 127 634 C 186 694 265 725 363 725 C 461 725 539 694 599 634 C 658 573 688 497 688 406 C 688 314 658 238 599 178 C 539 117 461 87 363 87 Z M 235 246 L 235 571 L 377 571 C 413 571 441 563 462 548 C 483 532 494 512 494 486 C 494 464 488 447 477 433 C 465 419 448 410 426 406 C 440 404 451 399 461 392 C 471 385 478 376 483 365 L 524 253 C 541 271 554 294 564 320 C 574 346 579 374 579 406 C 579 471 559 523 520 563 C 480 602 428 622 363 622 C 297 622 245 602 206 563 C 166 523 147 471 147 406 C 147 340 166 288 206 249 C 245 209 297 190 363 190 C 395 190 424 194 450 204 C 476 214 498 228 517 246 L 411 246 L 383 332 C 379 342 375 350 371 356 C 367 361 361 364 355 364 L 345 364 L 345 246 L 235 246 Z M 345 442 L 357 442 C 366 442 373 444 378 449 C 383 453 386 460 386 469 C 386 477 383 484 378 488 C 373 492 366 495 357 495 L 345 495 L 345 442 Z" unicode="®" />
<glyph horiz-adv-x="277" d="M 8 545 L 8 673 L 269 673 L 269 545 L 8 545 Z" unicode="¯" />
<glyph horiz-adv-x="383" d="M 192 427 C 144 427 105 442 73 472 C 41 502 26 541 26 587 C 26 633 41 671 73 702 C 105 732 144 748 192 748 C 239 748 278 732 310 702 C 341 671 357 633 357 587 C 357 541 341 502 310 472 C 278 442 239 427 192 427 Z M 192 548 C 202 548 211 551 218 559 C 225 566 229 575 229 587 C 229 598 225 607 218 615 C 211 623 202 627 192 627 C 181 627 172 623 165 615 C 157 607 154 598 154 587 C 154 575 157 566 165 559 C 172 551 181 548 192 548 Z" unicode="°" />
<glyph horiz-adv-x="533" d="M 174 66 L 174 193 L 52 193 L 52 381 L 174 381 L 174 508 L 362 508 L 362 381 L 484 381 L 484 193 L 362 193 L 362 66 L 174 66 Z M 53 -166 L 53 22 L 484 22 L 484 -166 L 53 -166 Z" unicode="±" />
<glyph horiz-adv-x="348" d="M 22 440 L 22 589 C 78 599 116 610 136 622 C 156 634 167 646 167 659 C 167 668 163 675 155 680 C 147 685 136 688 120 688 C 104 688 88 685 72 681 C 56 677 41 671 27 665 L 27 790 C 49 796 71 801 93 805 C 115 809 137 811 161 811 C 216 811 257 799 284 775 C 310 751 324 724 324 693 C 324 660 313 633 292 613 C 271 593 236 575 186 561 L 321 561 L 321 440 L 22 440 Z" unicode="²" />
<glyph horiz-adv-x="352" d="M 170 426 C 144 426 119 427 95 429 C 71 431 46 434 22 440 L 22 561 C 38 554 54 549 71 547 C 88 544 106 543 124 543 C 137 543 148 544 156 547 C 164 549 168 554 168 561 C 168 567 162 572 151 575 C 140 578 126 580 110 580 L 83 580 L 83 658 L 104 658 C 122 658 135 659 145 662 C 155 665 160 670 160 676 C 160 682 156 687 150 690 C 143 692 134 694 124 694 C 107 694 91 692 76 690 C 60 687 45 682 30 676 L 30 796 C 51 800 73 804 96 806 C 118 808 142 810 166 810 C 218 810 256 801 282 783 C 307 765 320 741 320 711 C 320 688 313 669 299 653 C 285 637 263 627 235 621 C 266 615 289 605 305 589 C 320 573 328 555 328 535 C 328 501 315 475 289 455 C 263 435 224 426 170 426 Z" unicode="³" />
<glyph horiz-adv-x="303" d="M 197 541 L 34 541 L 130 708 L 325 708 L 197 541 Z" unicode="´" />
<glyph horiz-adv-x="590" d="M 159 0 L 159 382 C 121 382 89 394 64 420 C 38 446 26 478 26 516 C 26 556 40 590 70 617 C 99 644 136 658 180 658 L 514 658 L 514 0 L 366 0 L 366 529 L 307 529 L 307 0 L 159 0 Z" unicode="¶" />
<glyph horiz-adv-x="253" d="M 48 184 L 48 336 L 201 336 L 201 184 L 48 184 Z" unicode="·" />
<glyph horiz-adv-x="240" d="M 111 -255 C 94 -255 80 -254 68 -252 C 56 -250 45 -248 34 -246 L 34 -149 C 42 -153 51 -157 60 -159 C 69 -161 78 -163 86 -163 C 94 -163 101 -160 107 -156 C 112 -151 115 -145 115 -139 C 115 -133 112 -128 106 -124 C 100 -120 93 -118 84 -118 L 75 -118 L 75 -40 L 89 -40 C 131 -40 165 -49 192 -69 C 218 -88 232 -114 232 -148 C 232 -182 220 -208 198 -227 C 176 -245 147 -255 111 -255 Z" unicode="¸" />
<glyph horiz-adv-x="310" d="M 22 440 L 22 558 L 71 558 L 71 674 L 22 670 L 22 788 L 238 806 L 238 558 L 286 558 L 286 440 L 22 440 Z" unicode="¹" />
<glyph horiz-adv-x="505" d="M 252 358 C 187 358 137 375 101 411 C 65 447 48 494 48 554 C 48 612 65 658 101 693 C 137 728 187 746 252 746 C 318 746 368 728 404 693 C 439 658 457 612 457 554 C 457 494 439 447 404 411 C 368 375 318 358 252 358 Z M 252 493 C 264 493 273 498 279 508 C 285 518 289 533 289 553 C 289 571 285 586 279 596 C 273 606 264 611 252 611 C 240 611 231 606 225 596 C 219 586 216 571 216 553 C 216 533 219 518 225 508 C 231 498 240 493 252 493 Z M 58 205 L 58 321 L 451 321 L 451 205 L 58 205 Z" unicode="º" />
<glyph horiz-adv-x="702" d="M 36 51 L 158 226 L 36 402 L 254 402 L 377 226 L 254 51 L 36 51 Z M 325 51 L 447 226 L 325 402 L 543 402 L 666 226 L 543 51 L 325 51 Z" unicode="»" />
<glyph horiz-adv-x="809" d="M 22 360 L 22 478 L 71 478 L 71 594 L 22 590 L 22 708 L 238 726 L 238 478 L 286 478 L 286 360 L 22 360 Z M 183 0 L 492 716 L 640 716 L 331 0 L 183 0 Z M 610 0 L 610 50 L 461 50 L 461 159 L 576 356 L 752 356 L 752 151 L 787 151 L 787 49 L 752 49 L 752 0 L 610 0 Z M 610 151 L 610 235 L 560 151 L 610 151 Z" unicode="¼" />
<glyph horiz-adv-x="835" d="M 22 360 L 22 478 L 71 478 L 71 594 L 22 590 L 22 708 L 238 726 L 238 478 L 286 478 L 286 360 L 22 360 Z M 173 0 L 482 716 L 630 716 L 321 0 L 173 0 Z M 509 1 L 509 150 C 565 160 603 171 623 183 C 643 195 654 207 654 220 C 654 229 650 236 642 241 C 634 246 623 249 607 249 C 591 249 575 246 559 242 C 543 238 528 232 514 226 L 514 351 C 536 357 558 362 580 366 C 602 370 624 372 648 372 C 703 372 744 360 771 336 C 797 312 811 285 811 254 C 811 221 800 194 779 174 C 758 154 723 136 673 122 L 808 122 L 808 1 L 509 1 Z" unicode="½" />
<glyph horiz-adv-x="821" d="M 170 346 C 144 346 119 347 95 349 C 71 351 46 354 22 360 L 22 481 C 38 474 54 469 71 467 C 88 464 106 463 124 463 C 137 463 148 464 156 467 C 164 469 168 474 168 481 C 168 487 162 492 151 495 C 140 498 126 500 110 500 L 83 500 L 83 578 L 104 578 C 122 578 135 579 145 582 C 155 585 160 590 160 596 C 160 602 156 607 150 610 C 143 612 134 614 124 614 C 107 614 91 612 76 610 C 60 607 45 602 30 596 L 30 716 C 51 720 73 724 96 726 C 118 728 142 730 166 730 C 218 730 256 721 282 703 C 307 685 320 661 320 631 C 320 608 313 589 299 573 C 285 557 263 547 235 541 C 266 535 289 525 305 509 C 320 493 328 475 328 455 C 328 421 315 395 289 375 C 263 355 224 346 170 346 Z M 196 0 L 505 716 L 653 716 L 344 0 L 196 0 Z M 622 0 L 622 50 L 473 50 L 473 159 L 588 356 L 764 356 L 764 151 L 799 151 L 799 49 L 764 49 L 764 0 L 622 0 Z M 622 151 L 622 235 L 572 151 L 622 151 Z" unicode="¾" />
<glyph horiz-adv-x="507" d="M 178 352 L 178 524 L 398 524 L 398 352 L 178 352 Z M 271 -175 C 199 -175 141 -160 95 -131 C 49 -102 26 -59 26 -3 C 26 35 34 67 50 95 C 66 123 91 151 125 180 C 143 195 157 213 169 233 C 181 253 187 274 187 296 L 391 296 C 391 256 384 222 370 195 C 356 168 340 146 320 129 C 305 115 294 103 288 92 C 281 80 278 68 278 56 C 278 40 284 28 297 20 C 309 11 326 7 347 7 C 371 7 394 9 416 15 C 437 20 461 28 487 40 L 487 -141 C 451 -153 417 -162 385 -167 C 353 -172 315 -175 271 -175 Z" unicode="¿" />
<glyph horiz-adv-x="746" d="M 297 706 L 179 855 L 362 855 L 448 706 L 297 706 Z M 12 0 L 232 658 L 515 658 L 734 0 L 481 0 L 454 93 L 260 93 L 233 0 L 12 0 Z M 303 239 L 411 239 L 394 296 L 358 430 L 320 296 L 303 239 Z" unicode="À" />
<glyph horiz-adv-x="746" d="M 448 706 L 297 706 L 383 855 L 566 855 L 448 706 Z M 12 0 L 232 658 L 515 658 L 734 0 L 481 0 L 454 93 L 260 93 L 233 0 L 12 0 Z M 303 239 L 411 239 L 394 296 L 358 430 L 320 296 L 303 239 Z" unicode="Á" />
<glyph horiz-adv-x="746" d="M 341 706 L 211 706 L 295 862 L 454 862 L 540 706 L 403 706 L 372 769 L 341 706 Z M 12 0 L 232 658 L 515 658 L 734 0 L 481 0 L 454 93 L 260 93 L 233 0 L 12 0 Z M 303 239 L 411 239 L 394 296 L 358 430 L 320 296 L 303 239 Z" unicode="Â" />
<glyph horiz-adv-x="746" d="M 305 706 L 205 706 C 205 756 215 793 235 819 C 255 844 284 857 323 857 C 337 857 351 855 363 851 C 375 847 387 840 400 830 C 405 825 409 822 413 820 C 417 818 421 817 425 817 C 432 817 437 819 441 825 C 444 831 446 839 447 851 L 547 851 C 547 801 537 764 517 738 C 497 712 467 700 428 700 C 414 700 401 702 390 706 C 378 710 366 717 352 728 C 346 732 342 735 338 737 C 334 739 330 740 327 740 C 319 740 313 737 310 732 C 306 726 305 718 305 706 Z M 12 0 L 232 658 L 515 658 L 734 0 L 481 0 L 454 93 L 260 93 L 233 0 L 12 0 Z M 303 239 L 411 239 L 394 296 L 358 430 L 320 296 L 303 239 Z" unicode="Ã" />
<glyph horiz-adv-x="746" d="M 215 711 L 215 846 L 350 846 L 350 711 L 215 711 Z M 395 711 L 395 846 L 530 846 L 530 711 L 395 711 Z M 12 0 L 232 658 L 515 658 L 734 0 L 481 0 L 454 93 L 260 93 L 233 0 L 12 0 Z M 303 239 L 411 239 L 394 296 L 358 430 L 320 296 L 303 239 Z" unicode="Ä" />
<glyph horiz-adv-x="746" d="M 12 0 L 232 658 L 245 658 C 243 664 241 671 240 678 C 239 685 239 692 239 700 C 239 736 251 766 275 791 C 299 815 332 828 372 828 C 412 828 444 815 468 791 C 492 766 505 736 505 700 C 505 692 504 685 503 678 C 502 671 501 664 499 658 L 515 658 L 734 0 L 481 0 L 454 93 L 260 93 L 233 0 L 12 0 Z M 372 658 C 383 658 393 661 401 669 C 409 676 413 686 413 699 C 413 711 409 721 401 728 C 393 735 383 739 372 739 C 360 739 351 735 343 728 C 335 721 331 711 331 699 C 331 686 335 676 343 669 C 351 661 360 658 372 658 Z M 303 239 L 411 239 L 394 296 L 358 430 L 320 296 L 303 239 Z" unicode="Å" />
<glyph horiz-adv-x="967" d="M 12 0 L 314 658 L 916 658 L 916 464 L 702 464 L 702 407 L 905 407 L 905 251 L 702 251 L 702 194 L 925 194 L 925 0 L 458 0 L 458 108 L 294 108 L 244 0 L 12 0 Z M 365 270 L 458 270 L 458 485 L 405 362 L 365 270 Z" unicode="Æ" />
<glyph horiz-adv-x="624" d="M 400 -14 C 285 -14 195 17 130 79 C 64 141 32 225 32 330 C 32 434 64 517 129 579 C 194 641 281 672 391 672 C 425 672 458 668 490 662 C 522 656 552 647 581 637 L 581 422 C 555 435 530 445 504 452 C 478 459 451 463 425 463 C 384 463 351 451 327 429 C 302 406 290 373 290 330 C 290 286 302 252 327 229 C 351 206 384 195 425 195 C 453 195 480 198 507 206 C 534 213 561 224 588 238 L 588 24 C 558 11 527 1 496 -4 C 465 -10 433 -14 400 -14 Z M 403 -249 C 387 -249 373 -248 362 -246 C 351 -244 340 -242 330 -240 L 330 -148 C 338 -152 346 -155 355 -158 C 363 -160 371 -162 378 -162 C 386 -162 393 -160 398 -156 C 402 -152 405 -146 405 -140 C 405 -133 402 -128 398 -124 C 393 -120 386 -119 378 -119 L 369 -119 L 369 -46 L 382 -46 C 422 -46 454 -55 479 -73 C 503 -91 516 -116 516 -148 C 516 -180 505 -204 485 -222 C 464 -240 437 -249 403 -249 Z" unicode="Ç" />
<glyph horiz-adv-x="561" d="M 210 706 L 92 855 L 275 855 L 361 706 L 210 706 Z M 52 0 L 52 658 L 511 658 L 511 466 L 296 466 L 296 405 L 499 405 L 499 255 L 296 255 L 296 192 L 519 192 L 519 0 L 52 0 Z" unicode="È" />
<glyph horiz-adv-x="561" d="M 361 706 L 210 706 L 296 855 L 479 855 L 361 706 Z M 52 0 L 52 658 L 511 658 L 511 466 L 296 466 L 296 405 L 499 405 L 499 255 L 296 255 L 296 192 L 519 192 L 519 0 L 52 0 Z" unicode="É" />
<glyph horiz-adv-x="561" d="M 254 706 L 124 706 L 208 862 L 367 862 L 453 706 L 316 706 L 285 769 L 254 706 Z M 52 0 L 52 658 L 511 658 L 511 466 L 296 466 L 296 405 L 499 405 L 499 255 L 296 255 L 296 192 L 519 192 L 519 0 L 52 0 Z" unicode="Ê" />
<glyph horiz-adv-x="561" d="M 128 711 L 128 846 L 263 846 L 263 711 L 128 711 Z M 308 711 L 308 846 L 443 846 L 443 711 L 308 711 Z M 52 0 L 52 658 L 511 658 L 511 466 L 296 466 L 296 405 L 499 405 L 499 255 L 296 255 L 296 192 L 519 192 L 519 0 L 52 0 Z" unicode="Ë" />
<glyph horiz-adv-x="348" d="M 100 706 L -18 855 L 165 855 L 251 706 L 100 706 Z M 52 0 L 52 658 L 296 658 L 296 0 L 52 0 Z" unicode="Ì" />
<glyph horiz-adv-x="348" d="M 251 706 L 100 706 L 186 855 L 369 855 L 251 706 Z M 52 0 L 52 658 L 296 658 L 296 0 L 52 0 Z" unicode="Í" />
<glyph horiz-adv-x="348" d="M 144 706 L 14 706 L 98 862 L 257 862 L 343 706 L 206 706 L 175 769 L 144 706 Z M 52 0 L 52 658 L 296 658 L 296 0 L 52 0 Z" unicode="Î" />
<glyph horiz-adv-x="348" d="M 18 711 L 18 846 L 153 846 L 153 711 L 18 711 Z M 198 711 L 198 846 L 333 846 L 333 711 L 198 711 Z M 52 0 L 52 658 L 296 658 L 296 0 L 52 0 Z" unicode="Ï" />
<glyph horiz-adv-x="746" d="M 66 0 L 66 268 L 28 268 L 28 396 L 66 396 L 66 658 L 334 658 C 452 658 544 629 610 573 C 676 516 710 437 710 337 C 710 231 677 149 612 89 C 546 29 454 0 334 0 L 66 0 Z M 310 203 L 339 203 C 375 203 404 214 424 238 C 444 262 454 295 454 337 C 454 373 444 402 424 424 C 404 445 375 456 339 456 L 310 456 L 310 396 L 362 396 L 362 268 L 310 268 L 310 203 Z" unicode="Ð" />
<glyph horiz-adv-x="771" d="M 323 706 L 223 706 C 223 756 233 793 253 819 C 273 844 302 857 341 857 C 355 857 369 855 381 851 C 393 847 405 840 418 830 C 423 825 427 822 431 820 C 435 818 439 817 443 817 C 450 817 455 819 459 825 C 462 831 464 839 465 851 L 565 851 C 565 801 555 764 535 738 C 515 712 485 700 446 700 C 432 700 419 702 408 706 C 396 710 384 717 370 728 C 364 732 360 735 356 737 C 352 739 348 740 345 740 C 337 740 331 737 328 732 C 324 726 323 718 323 706 Z M 52 0 L 52 658 L 330 658 L 463 417 L 513 316 L 509 417 L 509 658 L 719 658 L 719 0 L 444 0 L 307 242 L 258 343 L 262 242 L 262 0 L 52 0 Z" unicode="Ñ" />
<glyph horiz-adv-x="784" d="M 317 719 L 199 868 L 382 868 L 468 719 L 317 719 Z M 392 -18 C 283 -18 196 12 130 73 C 64 133 32 219 32 329 C 32 439 64 525 130 585 C 196 645 283 676 392 676 C 500 676 587 645 653 585 C 719 525 752 439 752 329 C 752 219 719 133 653 73 C 587 12 500 -18 392 -18 Z M 392 189 C 425 189 451 200 469 224 C 487 248 496 283 496 329 C 496 375 487 410 469 434 C 451 458 425 470 392 470 C 358 470 333 458 315 434 C 297 410 288 375 288 329 C 288 283 297 248 315 224 C 333 200 358 189 392 189 Z" unicode="Ò" />
<glyph horiz-adv-x="784" d="M 468 719 L 317 719 L 403 868 L 586 868 L 468 719 Z M 392 -18 C 283 -18 196 12 130 73 C 64 133 32 219 32 329 C 32 439 64 525 130 585 C 196 645 283 676 392 676 C 500 676 587 645 653 585 C 719 525 752 439 752 329 C 752 219 719 133 653 73 C 587 12 500 -18 392 -18 Z M 392 189 C 425 189 451 200 469 224 C 487 248 496 283 496 329 C 496 375 487 410 469 434 C 451 458 425 470 392 470 C 358 470 333 458 315 434 C 297 410 288 375 288 329 C 288 283 297 248 315 224 C 333 200 358 189 392 189 Z" unicode="Ó" />
<glyph horiz-adv-x="784" d="M 361 719 L 231 719 L 315 875 L 474 875 L 560 719 L 423 719 L 392 782 L 361 719 Z M 392 -18 C 283 -18 196 12 130 73 C 64 133 32 219 32 329 C 32 439 64 525 130 585 C 196 645 283 676 392 676 C 500 676 587 645 653 585 C 719 525 752 439 752 329 C 752 219 719 133 653 73 C 587 12 500 -18 392 -18 Z M 392 189 C 425 189 451 200 469 224 C 487 248 496 283 496 329 C 496 375 487 410 469 434 C 451 458 425 470 392 470 C 358 470 333 458 315 434 C 297 410 288 375 288 329 C 288 283 297 248 315 224 C 333 200 358 189 392 189 Z" unicode="Ô" />
<glyph horiz-adv-x="784" d="M 325 719 L 225 719 C 225 769 235 806 255 832 C 275 857 304 870 343 870 C 357 870 371 868 383 864 C 395 860 407 853 420 843 C 425 838 429 835 433 833 C 437 831 441 830 445 830 C 452 830 457 832 461 838 C 464 844 466 852 467 864 L 567 864 C 567 814 557 777 537 751 C 517 725 487 713 448 713 C 434 713 421 715 410 719 C 398 723 386 730 372 741 C 366 745 362 748 358 750 C 354 752 350 753 347 753 C 339 753 333 750 330 745 C 326 739 325 731 325 719 Z M 392 -18 C 283 -18 196 12 130 73 C 64 133 32 219 32 329 C 32 439 64 525 130 585 C 196 645 283 676 392 676 C 500 676 587 645 653 585 C 719 525 752 439 752 329 C 752 219 719 133 653 73 C 587 12 500 -18 392 -18 Z M 392 189 C 425 189 451 200 469 224 C 487 248 496 283 496 329 C 496 375 487 410 469 434 C 451 458 425 470 392 470 C 358 470 333 458 315 434 C 297 410 288 375 288 329 C 288 283 297 248 315 224 C 333 200 358 189 392 189 Z" unicode="Õ" />
<glyph horiz-adv-x="784" d="M 235 724 L 235 859 L 370 859 L 370 724 L 235 724 Z M 415 724 L 415 859 L 550 859 L 550 724 L 415 724 Z M 392 -18 C 283 -18 196 12 130 73 C 64 133 32 219 32 329 C 32 439 64 525 130 585 C 196 645 283 676 392 676 C 500 676 587 645 653 585 C 719 525 752 439 752 329 C 752 219 719 133 653 73 C 587 12 500 -18 392 -18 Z M 392 189 C 425 189 451 200 469 224 C 487 248 496 283 496 329 C 496 375 487 410 469 434 C 451 458 425 470 392 470 C 358 470 333 458 315 434 C 297 410 288 375 288 329 C 288 283 297 248 315 224 C 333 200 358 189 392 189 Z" unicode="Ö" />
<glyph horiz-adv-x="546" d="M 177 58 L 44 191 L 140 287 L 42 385 L 175 518 L 273 420 L 369 516 L 502 383 L 406 287 L 504 189 L 371 56 L 273 154 L 177 58 Z" unicode="×" />
<glyph horiz-adv-x="784" d="M 82 -48 L 147 58 C 111 87 82 124 62 170 C 42 216 32 269 32 329 C 32 439 64 525 130 585 C 196 645 283 676 392 676 C 414 676 436 674 457 672 C 478 669 498 665 517 660 L 545 706 L 706 706 L 640 598 C 675 568 702 531 722 486 C 742 440 752 388 752 329 C 752 219 719 133 653 73 C 587 12 500 -18 392 -18 C 370 -18 349 -16 329 -14 C 309 -11 289 -7 271 -3 L 243 -48 L 82 -48 Z M 392 189 C 425 189 451 200 469 224 C 487 248 496 283 496 329 C 496 375 487 410 469 434 C 451 458 425 470 392 470 C 358 470 333 458 315 434 C 297 410 288 375 288 329 C 288 283 297 248 315 224 C 333 200 358 189 392 189 Z" unicode="Ø" />
<glyph horiz-adv-x="716" d="M 291 706 L 173 855 L 356 855 L 442 706 L 291 706 Z M 361 -15 C 265 -15 188 9 132 59 C 76 109 48 176 48 260 L 48 658 L 298 658 L 298 276 C 298 254 304 236 316 222 C 328 208 345 201 366 201 C 388 201 405 208 417 222 C 429 236 435 254 435 276 L 435 658 L 668 658 L 668 260 C 668 176 640 109 585 59 C 529 9 455 -15 361 -15 Z" unicode="Ù" />
<glyph horiz-adv-x="716" d="M 442 706 L 291 706 L 377 855 L 560 855 L 442 706 Z M 361 -15 C 265 -15 188 9 132 59 C 76 109 48 176 48 260 L 48 658 L 298 658 L 298 276 C 298 254 304 236 316 222 C 328 208 345 201 366 201 C 388 201 405 208 417 222 C 429 236 435 254 435 276 L 435 658 L 668 658 L 668 260 C 668 176 640 109 585 59 C 529 9 455 -15 361 -15 Z" unicode="Ú" />
<glyph horiz-adv-x="716" d="M 335 706 L 205 706 L 289 862 L 448 862 L 534 706 L 397 706 L 366 769 L 335 706 Z M 361 -15 C 265 -15 188 9 132 59 C 76 109 48 176 48 260 L 48 658 L 298 658 L 298 276 C 298 254 304 236 316 222 C 328 208 345 201 366 201 C 388 201 405 208 417 222 C 429 236 435 254 435 276 L 435 658 L 668 658 L 668 260 C 668 176 640 109 585 59 C 529 9 455 -15 361 -15 Z" unicode="Û" />
<glyph horiz-adv-x="716" d="M 209 711 L 209 846 L 344 846 L 344 711 L 209 711 Z M 389 711 L 389 846 L 524 846 L 524 711 L 389 711 Z M 361 -15 C 265 -15 188 9 132 59 C 76 109 48 176 48 260 L 48 658 L 298 658 L 298 276 C 298 254 304 236 316 222 C 328 208 345 201 366 201 C 388 201 405 208 417 222 C 429 236 435 254 435 276 L 435 658 L 668 658 L 668 260 C 668 176 640 109 585 59 C 529 9 455 -15 361 -15 Z" unicode="Ü" />
<glyph horiz-adv-x="704" d="M 440 706 L 289 706 L 375 855 L 558 855 L 440 706 Z M 231 0 L 231 187 L 12 658 L 283 658 L 340 497 L 366 416 L 392 497 L 449 658 L 692 658 L 475 187 L 475 0 L 231 0 Z" unicode="Ý" />
<glyph horiz-adv-x="646" d="M 52 0 L 52 658 L 296 658 L 296 585 L 349 585 C 436 585 504 561 554 515 C 603 469 628 409 628 336 C 628 260 603 199 554 152 C 504 104 436 81 349 81 L 296 81 L 296 0 L 52 0 Z M 296 269 L 320 269 C 338 269 354 274 367 285 C 379 296 386 312 386 333 C 386 352 379 367 366 378 C 353 389 337 395 319 395 L 296 395 L 296 269 Z" unicode="Þ" />
<glyph horiz-adv-x="706" d="M 34 0 L 34 384 C 34 499 65 585 127 643 C 189 701 271 730 374 730 C 461 730 530 707 582 663 C 633 618 659 550 659 459 C 659 443 658 426 656 408 C 654 390 651 370 648 348 C 627 352 607 356 587 359 C 567 362 548 364 530 364 C 515 364 503 362 495 359 C 487 355 483 350 483 343 C 483 336 485 331 491 328 C 496 324 503 322 513 320 L 542 314 C 590 304 626 285 649 257 C 672 229 684 194 684 154 C 684 105 666 65 632 33 C 598 1 546 -14 477 -14 C 444 -14 412 -12 381 -8 C 349 -4 317 2 285 10 L 285 157 C 311 145 338 135 365 129 C 391 123 419 120 447 120 C 455 120 462 121 467 124 C 472 127 475 132 475 138 C 475 143 472 148 466 152 C 460 156 448 160 431 164 L 408 169 C 363 178 330 196 308 224 C 286 252 275 285 275 324 C 275 374 290 415 321 445 C 351 475 393 490 447 490 C 453 490 461 489 470 488 C 478 487 487 486 496 485 C 495 507 486 525 470 538 C 454 550 429 557 397 557 C 353 557 317 542 287 512 C 257 482 243 439 243 383 L 243 0 L 34 0 Z" unicode="ß" />
<glyph horiz-adv-x="565" d="M 205 553 L 77 720 L 272 720 L 368 553 L 205 553 Z M 181 -12 C 133 -12 95 1 66 29 C 36 57 22 92 22 134 C 22 186 40 224 77 248 C 113 271 163 287 226 295 L 309 305 L 309 315 C 309 327 303 337 291 343 C 279 349 259 352 233 352 C 202 352 171 348 140 341 C 109 333 79 323 51 310 L 51 474 C 85 483 120 490 156 496 C 192 501 231 504 273 504 C 350 504 412 489 460 461 C 507 432 531 389 531 331 L 531 0 L 321 0 L 310 59 C 295 36 277 18 257 6 C 236 -5 211 -12 181 -12 Z M 276 138 C 282 138 289 139 295 143 C 301 146 305 150 309 156 L 309 211 L 276 207 C 266 205 258 201 252 195 C 246 189 243 180 243 170 C 243 160 246 152 252 146 C 258 140 266 138 276 138 Z" unicode="à" />
<glyph horiz-adv-x="565" d="M 362 553 L 199 553 L 295 720 L 490 720 L 362 553 Z M 181 -12 C 133 -12 95 1 66 29 C 36 57 22 92 22 134 C 22 186 40 224 77 248 C 113 271 163 287 226 295 L 309 305 L 309 315 C 309 327 303 337 291 343 C 279 349 259 352 233 352 C 202 352 171 348 140 341 C 109 333 79 323 51 310 L 51 474 C 85 483 120 490 156 496 C 192 501 231 504 273 504 C 350 504 412 489 460 461 C 507 432 531 389 531 331 L 531 0 L 321 0 L 310 59 C 295 36 277 18 257 6 C 236 -5 211 -12 181 -12 Z M 276 138 C 282 138 289 139 295 143 C 301 146 305 150 309 156 L 309 211 L 276 207 C 266 205 258 201 252 195 C 246 189 243 180 243 170 C 243 160 246 152 252 146 C 258 140 266 138 276 138 Z" unicode="á" />
<glyph horiz-adv-x="565" d="M 247 553 L 103 553 L 197 728 L 373 728 L 469 553 L 317 553 L 282 623 L 247 553 Z M 181 -12 C 133 -12 95 1 66 29 C 36 57 22 92 22 134 C 22 186 40 224 77 248 C 113 271 163 287 226 295 L 309 305 L 309 315 C 309 327 303 337 291 343 C 279 349 259 352 233 352 C 202 352 171 348 140 341 C 109 333 79 323 51 310 L 51 474 C 85 483 120 490 156 496 C 192 501 231 504 273 504 C 350 504 412 489 460 461 C 507 432 531 389 531 331 L 531 0 L 321 0 L 310 59 C 295 36 277 18 257 6 C 236 -5 211 -12 181 -12 Z M 276 138 C 282 138 289 139 295 143 C 301 146 305 150 309 156 L 309 211 L 276 207 C 266 205 258 201 252 195 C 246 189 243 180 243 170 C 243 160 246 152 252 146 C 258 140 266 138 276 138 Z" unicode="â" />
<glyph horiz-adv-x="565" d="M 206 553 L 95 553 C 95 608 106 650 128 678 C 150 706 183 721 227 721 C 243 721 257 718 270 714 C 282 710 296 702 311 690 C 317 685 322 681 326 679 C 330 677 334 676 339 676 C 347 676 352 679 356 685 C 360 691 362 701 363 714 L 474 714 C 474 659 463 617 441 589 C 419 561 386 547 342 547 C 326 547 312 549 300 553 C 287 557 273 566 258 578 C 252 582 247 586 243 588 C 239 590 234 591 230 591 C 221 591 215 588 211 582 C 207 576 206 566 206 553 Z M 181 -12 C 133 -12 95 1 66 29 C 36 57 22 92 22 134 C 22 186 40 224 77 248 C 113 271 163 287 226 295 L 309 305 L 309 315 C 309 327 303 337 291 343 C 279 349 259 352 233 352 C 202 352 171 348 140 341 C 109 333 79 323 51 310 L 51 474 C 85 483 120 490 156 496 C 192 501 231 504 273 504 C 350 504 412 489 460 461 C 507 432 531 389 531 331 L 531 0 L 321 0 L 310 59 C 295 36 277 18 257 6 C 236 -5 211 -12 181 -12 Z M 276 138 C 282 138 289 139 295 143 C 301 146 305 150 309 156 L 309 211 L 276 207 C 266 205 258 201 252 195 C 246 189 243 180 243 170 C 243 160 246 152 252 146 C 258 140 266 138 276 138 Z" unicode="ã" />
<glyph horiz-adv-x="565" d="M 109 553 L 109 703 L 259 703 L 259 553 L 109 553 Z M 306 553 L 306 703 L 456 703 L 456 553 L 306 553 Z M 181 -12 C 133 -12 95 1 66 29 C 36 57 22 92 22 134 C 22 186 40 224 77 248 C 113 271 163 287 226 295 L 309 305 L 309 315 C 309 327 303 337 291 343 C 279 349 259 352 233 352 C 202 352 171 348 140 341 C 109 333 79 323 51 310 L 51 474 C 85 483 120 490 156 496 C 192 501 231 504 273 504 C 350 504 412 489 460 461 C 507 432 531 389 531 331 L 531 0 L 321 0 L 310 59 C 295 36 277 18 257 6 C 236 -5 211 -12 181 -12 Z M 276 138 C 282 138 289 139 295 143 C 301 146 305 150 309 156 L 309 211 L 276 207 C 266 205 258 201 252 195 C 246 189 243 180 243 170 C 243 160 246 152 252 146 C 258 140 266 138 276 138 Z" unicode="ä" />
<glyph horiz-adv-x="565" d="M 181 -12 C 133 -12 95 1 66 29 C 36 57 22 92 22 134 C 22 186 40 224 77 248 C 113 271 163 287 226 295 L 309 305 L 309 315 C 309 327 303 337 291 343 C 279 349 259 352 233 352 C 202 352 171 348 140 341 C 109 333 79 323 51 310 L 51 474 C 69 478 88 483 107 487 C 125 491 144 494 163 497 C 154 509 147 522 142 538 C 137 554 135 570 135 587 C 135 627 148 660 175 688 C 201 716 237 730 282 730 C 327 730 363 716 390 688 C 416 660 430 627 430 587 C 430 568 427 550 421 533 C 415 516 406 501 395 489 C 437 477 470 457 494 431 C 518 405 531 371 531 331 L 531 0 L 321 0 L 310 59 C 295 36 277 18 257 6 C 236 -5 211 -12 181 -12 Z M 282 541 C 294 541 305 544 314 552 C 323 560 328 571 328 586 C 328 600 323 611 314 619 C 305 627 294 631 282 631 C 270 631 259 627 250 619 C 241 611 237 600 237 586 C 237 571 241 560 250 552 C 259 544 270 541 282 541 Z M 276 138 C 282 138 289 139 295 143 C 301 146 305 150 309 156 L 309 211 L 276 207 C 266 205 258 201 252 195 C 246 189 243 180 243 170 C 243 160 246 152 252 146 C 258 140 266 138 276 138 Z" unicode="å" />
<glyph horiz-adv-x="828" d="M 181 -12 C 133 -12 94 1 65 29 C 36 57 22 92 22 134 C 22 189 39 229 75 253 C 111 277 160 294 222 302 L 304 312 L 304 321 C 304 333 297 341 283 347 C 269 352 246 355 216 355 C 187 355 159 352 131 346 C 103 340 75 330 49 318 L 49 471 C 83 479 116 486 149 492 C 181 497 220 500 264 500 C 296 500 326 496 354 490 C 382 484 406 474 426 462 C 445 474 467 484 492 490 C 516 496 543 500 572 500 C 652 500 711 475 748 426 C 785 376 804 309 804 224 L 804 204 L 526 204 C 528 184 538 169 554 161 C 570 153 594 149 627 149 C 655 149 682 151 710 157 C 737 163 765 172 794 184 L 794 23 C 754 10 718 1 685 -4 C 651 -9 615 -12 576 -12 C 525 -12 481 -3 443 14 C 405 31 376 55 358 85 C 341 55 317 31 287 14 C 257 -3 221 -12 181 -12 Z M 569 370 C 555 370 545 364 538 354 C 531 343 527 325 526 299 L 609 299 C 609 323 606 340 600 352 C 594 364 583 370 569 370 Z M 273 142 C 279 142 285 143 291 146 C 296 149 300 153 304 159 L 304 212 L 271 208 C 261 206 254 203 248 197 C 242 191 239 183 239 173 C 239 163 242 155 248 150 C 254 144 262 142 273 142 Z" unicode="æ" />
<glyph horiz-adv-x="471" d="M 292 -12 C 207 -12 141 10 94 54 C 46 98 23 159 23 239 C 23 322 46 387 93 433 C 139 479 205 502 291 502 C 315 502 340 500 365 496 C 390 492 415 486 439 480 L 439 290 C 421 296 402 302 384 306 C 366 310 348 312 332 312 C 307 312 288 306 276 294 C 263 282 257 266 257 246 C 257 224 263 208 277 196 C 291 184 311 178 337 178 C 353 178 371 180 389 185 C 407 190 425 197 442 207 L 442 17 C 417 7 392 0 367 -4 C 341 -9 316 -12 292 -12 Z M 266 -263 C 249 -263 235 -262 223 -260 C 211 -258 200 -256 189 -254 L 189 -157 C 197 -161 206 -165 215 -167 C 224 -169 233 -171 241 -171 C 249 -171 256 -168 262 -164 C 267 -159 270 -153 270 -147 C 270 -141 267 -136 261 -132 C 255 -128 248 -126 239 -126 L 230 -126 L 230 -48 L 244 -48 C 286 -48 320 -57 347 -77 C 373 -96 387 -122 387 -156 C 387 -190 375 -216 353 -235 C 331 -253 302 -263 266 -263 Z" unicode="ç" />
<glyph horiz-adv-x="559" d="M 214 553 L 86 720 L 281 720 L 377 553 L 214 553 Z M 302 -18 C 216 -18 148 5 98 53 C 48 100 23 164 23 246 C 23 326 47 389 96 437 C 145 484 212 508 298 508 C 380 508 440 482 478 430 C 516 378 535 310 535 225 L 535 204 L 252 204 C 254 183 264 168 280 160 C 296 151 320 147 354 147 C 382 147 411 150 439 156 C 467 162 495 171 524 184 L 524 18 C 484 5 447 -3 413 -9 C 379 -15 342 -18 302 -18 Z M 295 372 C 281 372 271 366 264 355 C 257 344 253 325 252 298 L 336 298 C 336 322 332 341 326 353 C 320 365 309 372 295 372 Z" unicode="è" />
<glyph horiz-adv-x="559" d="M 371 553 L 208 553 L 304 720 L 499 720 L 371 553 Z M 302 -18 C 216 -18 148 5 98 53 C 48 100 23 164 23 246 C 23 326 47 389 96 437 C 145 484 212 508 298 508 C 380 508 440 482 478 430 C 516 378 535 310 535 225 L 535 204 L 252 204 C 254 183 264 168 280 160 C 296 151 320 147 354 147 C 382 147 411 150 439 156 C 467 162 495 171 524 184 L 524 18 C 484 5 447 -3 413 -9 C 379 -15 342 -18 302 -18 Z M 295 372 C 281 372 271 366 264 355 C 257 344 253 325 252 298 L 336 298 C 336 322 332 341 326 353 C 320 365 309 372 295 372 Z" unicode="é" />
<glyph horiz-adv-x="559" d="M 256 553 L 112 553 L 206 728 L 382 728 L 478 553 L 326 553 L 291 623 L 256 553 Z M 302 -18 C 216 -18 148 5 98 53 C 48 100 23 164 23 246 C 23 326 47 389 96 437 C 145 484 212 508 298 508 C 380 508 440 482 478 430 C 516 378 535 310 535 225 L 535 204 L 252 204 C 254 183 264 168 280 160 C 296 151 320 147 354 147 C 382 147 411 150 439 156 C 467 162 495 171 524 184 L 524 18 C 484 5 447 -3 413 -9 C 379 -15 342 -18 302 -18 Z M 295 372 C 281 372 271 366 264 355 C 257 344 253 325 252 298 L 336 298 C 336 322 332 341 326 353 C 320 365 309 372 295 372 Z" unicode="ê" />
<glyph horiz-adv-x="559" d="M 118 553 L 118 703 L 268 703 L 268 553 L 118 553 Z M 315 553 L 315 703 L 465 703 L 465 553 L 315 553 Z M 302 -18 C 216 -18 148 5 98 53 C 48 100 23 164 23 246 C 23 326 47 389 96 437 C 145 484 212 508 298 508 C 380 508 440 482 478 430 C 516 378 535 310 535 225 L 535 204 L 252 204 C 254 183 264 168 280 160 C 296 151 320 147 354 147 C 382 147 411 150 439 156 C 467 162 495 171 524 184 L 524 18 C 484 5 447 -3 413 -9 C 379 -15 342 -18 302 -18 Z M 295 372 C 281 372 271 366 264 355 C 257 344 253 325 252 298 L 336 298 C 336 322 332 341 326 353 C 320 365 309 372 295 372 Z" unicode="ë" />
<glyph horiz-adv-x="302" d="M 74 541 L -54 708 L 141 708 L 237 541 L 74 541 Z M 37 0 L 37 490 L 264 490 L 264 0 L 37 0 Z" unicode="ì" />
<glyph horiz-adv-x="302" d="M 231 541 L 68 541 L 164 708 L 359 708 L 231 541 Z M 37 0 L 37 490 L 264 490 L 264 0 L 37 0 Z" unicode="í" />
<glyph horiz-adv-x="302" d="M 116 541 L -28 541 L 66 716 L 242 716 L 338 541 L 186 541 L 151 611 L 116 541 Z M 37 0 L 37 490 L 264 490 L 264 0 L 37 0 Z" unicode="î" />
<glyph horiz-adv-x="302" d="M -22 541 L -22 691 L 128 691 L 128 541 L -22 541 Z M 175 541 L 175 691 L 325 691 L 325 541 L 175 541 Z M 37 0 L 37 490 L 264 490 L 264 0 L 37 0 Z" unicode="ï" />
<glyph horiz-adv-x="606" d="M 301 -20 C 217 -20 150 2 99 48 C 48 94 23 158 23 242 C 23 313 45 370 90 414 C 135 458 191 480 259 480 C 275 480 290 478 304 476 C 318 473 330 469 342 465 C 334 479 326 492 316 505 C 306 518 296 531 286 544 L 186 512 L 152 604 L 200 620 C 187 628 174 637 160 645 C 146 653 131 660 117 668 L 303 749 C 319 739 335 729 351 718 C 366 707 381 695 395 683 L 494 715 L 527 622 L 471 604 C 505 560 532 512 553 460 C 573 407 584 353 584 297 C 584 193 557 114 503 60 C 449 6 382 -20 301 -20 Z M 302 166 C 317 166 329 172 337 184 C 345 196 349 215 349 242 C 349 268 345 288 337 300 C 329 312 317 318 302 318 C 287 318 276 311 268 299 C 260 287 256 268 256 242 C 256 215 260 196 268 184 C 276 172 287 166 302 166 Z" unicode="ð" />
<glyph horiz-adv-x="592" d="M 224 545 L 113 545 C 113 600 124 642 146 670 C 168 698 201 713 245 713 C 261 713 275 710 288 706 C 300 702 314 694 329 682 C 335 677 340 673 344 671 C 348 669 352 668 357 668 C 365 668 370 671 374 677 C 378 683 380 693 381 706 L 492 706 C 492 651 481 609 459 581 C 437 553 404 539 360 539 C 344 539 330 541 318 545 C 305 549 291 558 276 570 C 270 574 265 578 261 580 C 257 582 252 583 248 583 C 239 583 233 580 229 574 C 225 568 224 558 224 545 Z M 37 0 L 37 490 L 264 490 L 264 430 C 278 450 296 468 318 482 C 339 496 367 504 403 504 C 444 504 480 489 511 460 C 542 430 558 391 558 342 L 558 0 L 331 0 L 331 277 C 331 287 328 296 322 303 C 316 309 307 313 296 313 C 289 313 283 311 277 309 C 271 306 266 302 264 298 L 264 0 L 37 0 Z" unicode="ñ" />
<glyph horiz-adv-x="603" d="M 223 553 L 95 720 L 290 720 L 386 553 L 223 553 Z M 301 -20 C 212 -20 143 4 95 53 C 47 101 23 166 23 247 C 23 326 47 390 95 438 C 143 486 212 510 301 510 C 390 510 459 486 507 438 C 555 390 580 327 580 248 C 580 166 555 101 507 53 C 459 4 390 -20 301 -20 Z M 302 163 C 316 163 327 169 335 183 C 342 196 346 217 346 246 C 346 274 342 294 334 308 C 326 321 315 328 301 328 C 287 328 276 321 268 308 C 260 294 257 274 257 246 C 257 217 260 196 268 183 C 276 169 287 163 302 163 Z" unicode="ò" />
<glyph horiz-adv-x="603" d="M 380 553 L 217 553 L 313 720 L 508 720 L 380 553 Z M 301 -20 C 212 -20 143 4 95 53 C 47 101 23 166 23 247 C 23 326 47 390 95 438 C 143 486 212 510 301 510 C 390 510 459 486 507 438 C 555 390 580 327 580 248 C 580 166 555 101 507 53 C 459 4 390 -20 301 -20 Z M 302 163 C 316 163 327 169 335 183 C 342 196 346 217 346 246 C 346 274 342 294 334 308 C 326 321 315 328 301 328 C 287 328 276 321 268 308 C 260 294 257 274 257 246 C 257 217 260 196 268 183 C 276 169 287 163 302 163 Z" unicode="ó" />
<glyph horiz-adv-x="603" d="M 265 553 L 121 553 L 215 728 L 391 728 L 487 553 L 335 553 L 300 623 L 265 553 Z M 301 -20 C 212 -20 143 4 95 53 C 47 101 23 166 23 247 C 23 326 47 390 95 438 C 143 486 212 510 301 510 C 390 510 459 486 507 438 C 555 390 580 327 580 248 C 580 166 555 101 507 53 C 459 4 390 -20 301 -20 Z M 302 163 C 316 163 327 169 335 183 C 342 196 346 217 346 246 C 346 274 342 294 334 308 C 326 321 315 328 301 328 C 287 328 276 321 268 308 C 260 294 257 274 257 246 C 257 217 260 196 268 183 C 276 169 287 163 302 163 Z" unicode="ô" />
<glyph horiz-adv-x="603" d="M 224 553 L 113 553 C 113 608 124 650 146 678 C 168 706 201 721 245 721 C 261 721 275 718 288 714 C 300 710 314 702 329 690 C 335 685 340 681 344 679 C 348 677 352 676 357 676 C 365 676 370 679 374 685 C 378 691 380 701 381 714 L 492 714 C 492 659 481 617 459 589 C 437 561 404 547 360 547 C 344 547 330 549 318 553 C 305 557 291 566 276 578 C 270 582 265 586 261 588 C 257 590 252 591 248 591 C 239 591 233 588 229 582 C 225 576 224 566 224 553 Z M 301 -20 C 212 -20 143 4 95 53 C 47 101 23 166 23 247 C 23 326 47 390 95 438 C 143 486 212 510 301 510 C 390 510 459 486 507 438 C 555 390 580 327 580 248 C 580 166 555 101 507 53 C 459 4 390 -20 301 -20 Z M 302 163 C 316 163 327 169 335 183 C 342 196 346 217 346 246 C 346 274 342 294 334 308 C 326 321 315 328 301 328 C 287 328 276 321 268 308 C 260 294 257 274 257 246 C 257 217 260 196 268 183 C 276 169 287 163 302 163 Z" unicode="õ" />
<glyph horiz-adv-x="603" d="M 127 553 L 127 703 L 277 703 L 277 553 L 127 553 Z M 324 553 L 324 703 L 474 703 L 474 553 L 324 553 Z M 301 -20 C 212 -20 143 4 95 53 C 47 101 23 166 23 247 C 23 326 47 390 95 438 C 143 486 212 510 301 510 C 390 510 459 486 507 438 C 555 390 580 327 580 248 C 580 166 555 101 507 53 C 459 4 390 -20 301 -20 Z M 302 163 C 316 163 327 169 335 183 C 342 196 346 217 346 246 C 346 274 342 294 334 308 C 326 321 315 328 301 328 C 287 328 276 321 268 308 C 260 294 257 274 257 246 C 257 217 260 196 268 183 C 276 169 287 163 302 163 Z" unicode="ö" />
<glyph horiz-adv-x="536" d="M 189 425 L 189 581 L 345 581 L 345 425 L 189 425 Z M 52 192 L 52 380 L 484 380 L 484 192 L 52 192 Z M 189 -9 L 189 147 L 345 147 L 345 -9 L 189 -9 Z" unicode="÷" />
<glyph horiz-adv-x="604" d="M 53 -48 L 107 42 C 79 64 58 93 44 128 C 30 163 23 203 23 247 C 23 326 47 390 95 438 C 143 486 212 510 301 510 C 315 510 330 509 344 507 C 358 505 372 503 385 501 L 407 538 L 550 538 L 496 449 C 523 426 544 397 558 363 C 572 329 580 290 580 248 C 580 166 555 101 507 53 C 459 4 390 -20 301 -20 C 286 -20 272 -19 258 -17 C 244 -15 230 -13 218 -11 L 196 -48 L 53 -48 Z M 302 163 C 316 163 327 169 335 183 C 342 196 346 217 346 246 C 346 274 342 294 334 308 C 326 321 315 328 301 328 C 287 328 276 321 268 308 C 260 294 257 274 257 246 C 257 217 260 196 268 183 C 276 169 287 163 302 163 Z" unicode="ø" />
<glyph horiz-adv-x="592" d="M 216 541 L 88 708 L 283 708 L 379 541 L 216 541 Z M 196 -14 C 152 -14 114 0 82 30 C 50 60 34 99 34 149 L 34 490 L 261 490 L 261 213 C 261 202 264 193 270 187 C 276 181 284 178 296 178 C 302 178 309 179 315 182 C 321 184 325 188 328 193 L 328 490 L 555 490 L 555 0 L 336 0 L 328 60 C 314 39 297 21 275 7 C 253 -6 226 -14 196 -14 Z" unicode="ù" />
<glyph horiz-adv-x="592" d="M 373 541 L 210 541 L 306 708 L 501 708 L 373 541 Z M 196 -14 C 152 -14 114 0 82 30 C 50 60 34 99 34 149 L 34 490 L 261 490 L 261 213 C 261 202 264 193 270 187 C 276 181 284 178 296 178 C 302 178 309 179 315 182 C 321 184 325 188 328 193 L 328 490 L 555 490 L 555 0 L 336 0 L 328 60 C 314 39 297 21 275 7 C 253 -6 226 -14 196 -14 Z" unicode="ú" />
<glyph horiz-adv-x="592" d="M 258 541 L 114 541 L 208 716 L 384 716 L 480 541 L 328 541 L 293 611 L 258 541 Z M 196 -14 C 152 -14 114 0 82 30 C 50 60 34 99 34 149 L 34 490 L 261 490 L 261 213 C 261 202 264 193 270 187 C 276 181 284 178 296 178 C 302 178 309 179 315 182 C 321 184 325 188 328 193 L 328 490 L 555 490 L 555 0 L 336 0 L 328 60 C 314 39 297 21 275 7 C 253 -6 226 -14 196 -14 Z" unicode="û" />
<glyph horiz-adv-x="592" d="M 120 541 L 120 691 L 270 691 L 270 541 L 120 541 Z M 317 541 L 317 691 L 467 691 L 467 541 L 317 541 Z M 196 -14 C 152 -14 114 0 82 30 C 50 60 34 99 34 149 L 34 490 L 261 490 L 261 213 C 261 202 264 193 270 187 C 276 181 284 178 296 178 C 302 178 309 179 315 182 C 321 184 325 188 328 193 L 328 490 L 555 490 L 555 0 L 336 0 L 328 60 C 314 39 297 21 275 7 C 253 -6 226 -14 196 -14 Z" unicode="ü" />
<glyph horiz-adv-x="595" d="M 390 541 L 227 541 L 323 708 L 518 708 L 390 541 Z M 44 -220 L 35 -220 L 35 -47 L 44 -47 C 78 -47 107 -44 132 -39 C 156 -33 178 -22 198 -6 L 141 4 L 12 490 L 254 490 L 285 320 L 312 148 L 341 320 L 372 490 L 583 490 L 488 128 C 456 2 405 -86 334 -140 C 263 -193 166 -220 44 -220 Z" unicode="ý" />
<glyph horiz-adv-x="596" d="M 37 -196 L 37 716 L 264 716 L 264 445 C 277 460 294 473 315 484 C 336 494 361 500 390 500 C 443 500 487 478 521 434 C 555 390 573 332 573 260 C 573 178 550 112 506 62 C 461 12 401 -12 326 -12 C 317 -12 307 -11 296 -10 C 285 -8 274 -6 264 -3 L 264 -196 L 37 -196 Z M 293 151 C 310 151 323 157 333 171 C 343 184 348 205 348 234 C 348 258 343 277 333 290 C 323 302 310 309 294 309 C 289 309 284 308 279 307 C 273 305 268 303 264 301 L 264 159 C 268 156 272 154 278 153 C 283 151 288 151 293 151 Z" unicode="þ" />
<glyph horiz-adv-x="595" d="M 137 541 L 137 691 L 287 691 L 287 541 L 137 541 Z M 334 541 L 334 691 L 484 691 L 484 541 L 334 541 Z M 44 -220 L 35 -220 L 35 -47 L 44 -47 C 78 -47 107 -44 132 -39 C 156 -33 178 -22 198 -6 L 141 4 L 12 490 L 254 490 L 285 320 L 312 148 L 341 320 L 372 490 L 583 490 L 488 128 C 456 2 405 -86 334 -140 C 263 -193 166 -220 44 -220 Z" unicode="ÿ" />
<glyph horiz-adv-x="746" d="M 239 706 L 239 821 L 506 821 L 506 706 L 239 706 Z M 12 0 L 232 658 L 515 658 L 734 0 L 481 0 L 454 93 L 260 93 L 233 0 L 12 0 Z M 303 239 L 411 239 L 394 296 L 358 430 L 320 296 L 303 239 Z" unicode="Ā" />
<glyph horiz-adv-x="565" d="M 153 557 L 153 685 L 414 685 L 414 557 L 153 557 Z M 181 -12 C 133 -12 95 1 66 29 C 36 57 22 92 22 134 C 22 186 40 224 77 248 C 113 271 163 287 226 295 L 309 305 L 309 315 C 309 327 303 337 291 343 C 279 349 259 352 233 352 C 202 352 171 348 140 341 C 109 333 79 323 51 310 L 51 474 C 85 483 120 490 156 496 C 192 501 231 504 273 504 C 350 504 412 489 460 461 C 507 432 531 389 531 331 L 531 0 L 321 0 L 310 59 C 295 36 277 18 257 6 C 236 -5 211 -12 181 -12 Z M 276 138 C 282 138 289 139 295 143 C 301 146 305 150 309 156 L 309 211 L 276 207 C 266 205 258 201 252 195 C 246 189 243 180 243 170 C 243 160 246 152 252 146 C 258 140 266 138 276 138 Z" unicode="ā" />
<glyph horiz-adv-x="746" d="M 371 706 C 327 706 292 719 266 747 C 240 775 227 812 227 858 L 336 858 C 336 845 339 835 345 827 C 351 819 360 816 371 816 C 381 816 390 819 397 827 C 403 835 407 845 407 858 L 516 858 C 516 812 502 775 476 747 C 450 719 415 706 371 706 Z M 12 0 L 232 658 L 515 658 L 734 0 L 481 0 L 454 93 L 260 93 L 233 0 L 12 0 Z M 303 239 L 411 239 L 394 296 L 358 430 L 320 296 L 303 239 Z" unicode="Ă" />
<glyph horiz-adv-x="565" d="M 283 548 C 235 548 196 563 167 594 C 137 625 123 666 123 717 L 244 717 C 244 702 247 690 254 682 C 261 674 271 670 283 670 C 295 670 304 674 311 682 C 318 690 322 702 322 717 L 443 717 C 443 666 428 625 399 594 C 369 563 331 548 283 548 Z M 181 -12 C 133 -12 95 1 66 29 C 36 57 22 92 22 134 C 22 186 40 224 77 248 C 113 271 163 287 226 295 L 309 305 L 309 315 C 309 327 303 337 291 343 C 279 349 259 352 233 352 C 202 352 171 348 140 341 C 109 333 79 323 51 310 L 51 474 C 85 483 120 490 156 496 C 192 501 231 504 273 504 C 350 504 412 489 460 461 C 507 432 531 389 531 331 L 531 0 L 321 0 L 310 59 C 295 36 277 18 257 6 C 236 -5 211 -12 181 -12 Z M 276 138 C 282 138 289 139 295 143 C 301 146 305 150 309 156 L 309 211 L 276 207 C 266 205 258 201 252 195 C 246 189 243 180 243 170 C 243 160 246 152 252 146 C 258 140 266 138 276 138 Z" unicode="ă" />
<glyph horiz-adv-x="746" d="M 12 0 L 232 658 L 515 658 L 734 0 L 638 0 C 618 0 604 -4 594 -14 C 584 -24 579 -36 579 -51 C 579 -65 584 -77 594 -86 C 604 -94 618 -99 638 -99 L 638 -220 C 578 -220 531 -208 497 -185 C 462 -161 445 -128 445 -84 C 445 -67 448 -51 454 -37 C 460 -23 468 -9 480 3 L 454 93 L 260 93 L 233 0 L 12 0 Z M 303 239 L 411 239 L 394 296 L 358 430 L 320 296 L 303 239 Z" unicode="Ą" />
<glyph horiz-adv-x="565" d="M 181 -12 C 133 -12 95 1 66 29 C 36 57 22 92 22 134 C 22 186 40 224 77 248 C 113 271 163 287 226 295 L 309 305 L 309 315 C 309 327 303 337 291 343 C 279 349 259 352 233 352 C 202 352 171 348 140 341 C 109 333 79 323 51 310 L 51 474 C 85 483 120 490 156 496 C 192 501 231 504 273 504 C 350 504 412 489 460 461 C 507 432 531 389 531 331 L 531 0 L 483 0 C 463 0 449 -4 439 -14 C 429 -24 424 -36 424 -51 C 424 -65 429 -76 439 -85 C 449 -94 463 -99 483 -99 L 483 -220 C 423 -220 376 -208 342 -185 C 307 -161 290 -128 290 -84 C 290 -67 292 -52 298 -38 C 304 -24 312 -12 323 0 L 321 0 L 310 59 C 295 36 277 18 257 6 C 236 -5 211 -12 181 -12 Z M 276 138 C 282 138 289 139 295 143 C 301 146 305 150 309 156 L 309 211 L 276 207 C 266 205 258 201 252 195 C 246 189 243 180 243 170 C 243 160 246 152 252 146 C 258 140 266 138 276 138 Z" unicode="ą" />
<glyph horiz-adv-x="624" d="M 450 718 L 299 718 L 385 867 L 568 867 L 450 718 Z M 400 -14 C 285 -14 195 17 130 79 C 64 141 32 225 32 330 C 32 434 64 517 129 579 C 194 641 281 672 391 672 C 425 672 458 668 490 662 C 522 656 552 647 581 637 L 581 422 C 555 435 530 445 504 452 C 478 459 451 463 425 463 C 384 463 351 451 327 429 C 302 406 290 373 290 330 C 290 286 302 252 327 229 C 351 206 384 195 425 195 C 453 195 480 198 507 206 C 534 213 561 224 588 238 L 588 24 C 558 11 527 1 496 -4 C 465 -10 433 -14 400 -14 Z" unicode="Ć" />
<glyph horiz-adv-x="471" d="M 348 547 L 185 547 L 281 714 L 476 714 L 348 547 Z M 292 -12 C 207 -12 141 10 94 54 C 46 98 23 159 23 239 C 23 322 46 387 93 433 C 139 479 205 502 291 502 C 315 502 340 500 365 496 C 390 492 415 486 439 480 L 439 290 C 421 296 402 302 384 306 C 366 310 348 312 332 312 C 307 312 288 306 276 294 C 263 282 257 266 257 246 C 257 224 263 208 277 196 C 291 184 311 178 337 178 C 353 178 371 180 389 185 C 407 190 425 197 442 207 L 442 17 C 417 7 392 0 367 -4 C 341 -9 316 -12 292 -12 Z" unicode="ć" />
<glyph horiz-adv-x="624" d="M 343 718 L 213 718 L 297 874 L 456 874 L 542 718 L 405 718 L 374 781 L 343 718 Z M 400 -14 C 285 -14 195 17 130 79 C 64 141 32 225 32 330 C 32 434 64 517 129 579 C 194 641 281 672 391 672 C 425 672 458 668 490 662 C 522 656 552 647 581 637 L 581 422 C 555 435 530 445 504 452 C 478 459 451 463 425 463 C 384 463 351 451 327 429 C 302 406 290 373 290 330 C 290 286 302 252 327 229 C 351 206 384 195 425 195 C 453 195 480 198 507 206 C 534 213 561 224 588 238 L 588 24 C 558 11 527 1 496 -4 C 465 -10 433 -14 400 -14 Z" unicode="Ĉ" />
<glyph horiz-adv-x="471" d="M 233 547 L 89 547 L 183 722 L 359 722 L 455 547 L 303 547 L 268 617 L 233 547 Z M 292 -12 C 207 -12 141 10 94 54 C 46 98 23 159 23 239 C 23 322 46 387 93 433 C 139 479 205 502 291 502 C 315 502 340 500 365 496 C 390 492 415 486 439 480 L 439 290 C 421 296 402 302 384 306 C 366 310 348 312 332 312 C 307 312 288 306 276 294 C 263 282 257 266 257 246 C 257 224 263 208 277 196 C 291 184 311 178 337 178 C 353 178 371 180 389 185 C 407 190 425 197 442 207 L 442 17 C 417 7 392 0 367 -4 C 341 -9 316 -12 292 -12 Z" unicode="ĉ" />
<glyph horiz-adv-x="624" d="M 307 718 L 307 855 L 444 855 L 444 718 L 307 718 Z M 400 -14 C 285 -14 195 17 130 79 C 64 141 32 225 32 330 C 32 434 64 517 129 579 C 194 641 281 672 391 672 C 425 672 458 668 490 662 C 522 656 552 647 581 637 L 581 422 C 555 435 530 445 504 452 C 478 459 451 463 425 463 C 384 463 351 451 327 429 C 302 406 290 373 290 330 C 290 286 302 252 327 229 C 351 206 384 195 425 195 C 453 195 480 198 507 206 C 534 213 561 224 588 238 L 588 24 C 558 11 527 1 496 -4 C 465 -10 433 -14 400 -14 Z" unicode="Ċ" />
<glyph horiz-adv-x="471" d="M 193 547 L 193 699 L 345 699 L 345 547 L 193 547 Z M 292 -12 C 207 -12 141 10 94 54 C 46 98 23 159 23 239 C 23 322 46 387 93 433 C 139 479 205 502 291 502 C 315 502 340 500 365 496 C 390 492 415 486 439 480 L 439 290 C 421 296 402 302 384 306 C 366 310 348 312 332 312 C 307 312 288 306 276 294 C 263 282 257 266 257 246 C 257 224 263 208 277 196 C 291 184 311 178 337 178 C 353 178 371 180 389 185 C 407 190 425 197 442 207 L 442 17 C 417 7 392 0 367 -4 C 341 -9 316 -12 292 -12 Z" unicode="ċ" />
<glyph horiz-adv-x="624" d="M 293 718 L 207 875 L 344 875 L 375 812 L 406 875 L 536 875 L 452 718 L 293 718 Z M 400 -14 C 285 -14 195 17 130 79 C 64 141 32 225 32 330 C 32 434 64 517 129 579 C 194 641 281 672 391 672 C 425 672 458 668 490 662 C 522 656 552 647 581 637 L 581 422 C 555 435 530 445 504 452 C 478 459 451 463 425 463 C 384 463 351 451 327 429 C 302 406 290 373 290 330 C 290 286 302 252 327 229 C 351 206 384 195 425 195 C 453 195 480 198 507 206 C 534 213 561 224 588 238 L 588 24 C 558 11 527 1 496 -4 C 465 -10 433 -14 400 -14 Z" unicode="Č" />
<glyph horiz-adv-x="471" d="M 179 547 L 83 721 L 235 721 L 270 652 L 305 721 L 449 721 L 355 547 L 179 547 Z M 292 -12 C 207 -12 141 10 94 54 C 46 98 23 159 23 239 C 23 322 46 387 93 433 C 139 479 205 502 291 502 C 315 502 340 500 365 496 C 390 492 415 486 439 480 L 439 290 C 421 296 402 302 384 306 C 366 310 348 312 332 312 C 307 312 288 306 276 294 C 263 282 257 266 257 246 C 257 224 263 208 277 196 C 291 184 311 178 337 178 C 353 178 371 180 389 185 C 407 190 425 197 442 207 L 442 17 C 417 7 392 0 367 -4 C 341 -9 316 -12 292 -12 Z" unicode="č" />
<glyph horiz-adv-x="728" d="M 241 706 L 155 863 L 292 863 L 323 800 L 354 863 L 484 863 L 400 706 L 241 706 Z M 52 0 L 52 658 L 320 658 C 438 658 530 629 596 573 C 662 516 696 437 696 337 C 696 231 663 149 598 89 C 532 29 440 0 320 0 L 52 0 Z M 296 203 L 325 203 C 361 203 390 214 410 238 C 430 262 440 295 440 337 C 440 373 430 402 410 424 C 390 445 361 456 325 456 L 296 456 L 296 203 Z" unicode="Ď" />
<glyph horiz-adv-x="845" d="M 201 -11 C 146 -11 103 11 71 56 C 39 101 23 161 23 235 C 23 315 41 379 79 427 C 117 475 169 500 236 500 C 252 500 269 497 287 493 C 305 489 321 482 336 474 L 336 716 L 563 716 L 563 0 L 345 0 L 336 65 C 321 40 303 21 281 8 C 259 -4 233 -11 201 -11 Z M 735 491 L 611 525 C 623 549 631 572 636 594 C 640 616 643 640 643 668 L 643 716 L 796 716 L 796 669 C 796 631 791 598 782 570 C 773 542 757 516 735 491 Z M 309 173 C 314 173 319 173 325 175 C 331 177 336 179 341 182 L 341 322 C 336 324 331 326 326 328 C 320 329 315 330 310 330 C 293 330 280 323 271 309 C 261 295 257 276 257 250 C 257 225 261 206 270 193 C 279 179 292 173 309 173 Z" unicode="ď" />
<glyph horiz-adv-x="736" d="M 60 0 L 60 268 L 22 268 L 22 396 L 60 396 L 60 658 L 328 658 C 446 658 538 629 604 573 C 670 516 704 437 704 337 C 704 231 671 149 606 89 C 540 29 448 0 328 0 L 60 0 Z M 304 203 L 333 203 C 369 203 398 214 418 238 C 438 262 448 295 448 337 C 448 373 438 402 418 424 C 398 445 369 456 333 456 L 304 456 L 304 396 L 356 396 L 356 268 L 304 268 L 304 203 Z" unicode="Đ" />
<glyph horiz-adv-x="600" d="M 201 -11 C 146 -11 103 11 71 56 C 39 101 23 161 23 235 C 23 315 41 379 79 427 C 117 475 169 500 236 500 C 252 500 269 497 287 493 C 305 489 321 482 336 474 L 336 538 L 291 538 L 291 658 L 336 658 L 336 716 L 563 716 L 563 658 L 610 658 L 610 538 L 563 538 L 563 0 L 345 0 L 336 65 C 321 40 303 21 281 8 C 259 -4 233 -11 201 -11 Z M 309 173 C 314 173 319 173 325 175 C 331 177 336 179 341 182 L 341 322 C 336 324 331 326 326 328 C 320 329 315 330 310 330 C 293 330 280 323 271 309 C 261 295 257 276 257 250 C 257 225 261 206 270 193 C 279 179 292 173 309 173 Z" unicode="đ" />
<glyph horiz-adv-x="561" d="M 152 706 L 152 821 L 419 821 L 419 706 L 152 706 Z M 52 0 L 52 658 L 511 658 L 511 466 L 296 466 L 296 405 L 499 405 L 499 255 L 296 255 L 296 192 L 519 192 L 519 0 L 52 0 Z" unicode="Ē" />
<glyph horiz-adv-x="559" d="M 162 557 L 162 685 L 423 685 L 423 557 L 162 557 Z M 302 -18 C 216 -18 148 5 98 53 C 48 100 23 164 23 246 C 23 326 47 389 96 437 C 145 484 212 508 298 508 C 380 508 440 482 478 430 C 516 378 535 310 535 225 L 535 204 L 252 204 C 254 183 264 168 280 160 C 296 151 320 147 354 147 C 382 147 411 150 439 156 C 467 162 495 171 524 184 L 524 18 C 484 5 447 -3 413 -9 C 379 -15 342 -18 302 -18 Z M 295 372 C 281 372 271 366 264 355 C 257 344 253 325 252 298 L 336 298 C 336 322 332 341 326 353 C 320 365 309 372 295 372 Z" unicode="ē" />
<glyph horiz-adv-x="561" d="M 284 706 C 240 706 205 719 179 747 C 153 775 140 812 140 858 L 249 858 C 249 845 252 835 258 827 C 264 819 273 816 284 816 C 294 816 303 819 310 827 C 316 835 320 845 320 858 L 429 858 C 429 812 415 775 389 747 C 363 719 328 706 284 706 Z M 52 0 L 52 658 L 511 658 L 511 466 L 296 466 L 296 405 L 499 405 L 499 255 L 296 255 L 296 192 L 519 192 L 519 0 L 52 0 Z" unicode="Ĕ" />
<glyph horiz-adv-x="559" d="M 292 548 C 244 548 205 563 176 594 C 146 625 132 666 132 717 L 253 717 C 253 702 256 690 263 682 C 270 674 280 670 292 670 C 304 670 313 674 320 682 C 327 690 331 702 331 717 L 452 717 C 452 666 437 625 408 594 C 378 563 340 548 292 548 Z M 302 -18 C 216 -18 148 5 98 53 C 48 100 23 164 23 246 C 23 326 47 389 96 437 C 145 484 212 508 298 508 C 380 508 440 482 478 430 C 516 378 535 310 535 225 L 535 204 L 252 204 C 254 183 264 168 280 160 C 296 151 320 147 354 147 C 382 147 411 150 439 156 C 467 162 495 171 524 184 L 524 18 C 484 5 447 -3 413 -9 C 379 -15 342 -18 302 -18 Z M 295 372 C 281 372 271 366 264 355 C 257 344 253 325 252 298 L 336 298 C 336 322 332 341 326 353 C 320 365 309 372 295 372 Z" unicode="ĕ" />
<glyph horiz-adv-x="561" d="M 218 706 L 218 843 L 355 843 L 355 706 L 218 706 Z M 52 0 L 52 658 L 511 658 L 511 466 L 296 466 L 296 405 L 499 405 L 499 255 L 296 255 L 296 192 L 519 192 L 519 0 L 52 0 Z" unicode="Ė" />
<glyph horiz-adv-x="559" d="M 216 553 L 216 705 L 368 705 L 368 553 L 216 553 Z M 302 -18 C 216 -18 148 5 98 53 C 48 100 23 164 23 246 C 23 326 47 389 96 437 C 145 484 212 508 298 508 C 380 508 440 482 478 430 C 516 378 535 310 535 225 L 535 204 L 252 204 C 254 183 264 168 280 160 C 296 151 320 147 354 147 C 382 147 411 150 439 156 C 467 162 495 171 524 184 L 524 18 C 484 5 447 -3 413 -9 C 379 -15 342 -18 302 -18 Z M 295 372 C 281 372 271 366 264 355 C 257 344 253 325 252 298 L 336 298 C 336 322 332 341 326 353 C 320 365 309 372 295 372 Z" unicode="ė" />
<glyph horiz-adv-x="561" d="M 52 0 L 52 658 L 511 658 L 511 466 L 296 466 L 296 405 L 499 405 L 499 255 L 296 255 L 296 192 L 519 192 L 519 0 L 516 0 C 496 0 482 -4 472 -14 C 462 -24 457 -36 457 -51 C 457 -65 462 -77 472 -86 C 482 -94 496 -99 516 -99 L 516 -220 C 456 -220 409 -208 375 -185 C 340 -161 323 -128 323 -84 C 323 -68 325 -53 331 -39 C 336 -25 344 -12 355 0 L 52 0 Z" unicode="Ę" />
<glyph horiz-adv-x="559" d="M 520 -220 C 454 -220 401 -207 362 -183 C 323 -158 304 -123 304 -79 C 304 -68 305 -57 308 -47 C 311 -36 315 -26 320 -18 L 302 -18 C 216 -18 148 5 98 53 C 48 100 23 164 23 246 C 23 326 47 389 96 437 C 145 484 212 508 298 508 C 380 508 440 482 478 430 C 516 378 535 310 535 225 L 535 204 L 252 204 C 254 183 264 168 280 160 C 296 151 320 147 354 147 C 382 147 411 150 439 156 C 467 162 495 171 524 184 L 524 18 C 520 17 516 16 512 15 C 508 13 504 12 500 11 C 482 4 470 -3 462 -13 C 454 -22 451 -33 451 -45 C 451 -59 456 -72 468 -82 C 480 -92 497 -97 520 -97 L 520 -220 Z M 295 372 C 281 372 271 366 264 355 C 257 344 253 325 252 298 L 336 298 C 336 322 332 341 326 353 C 320 365 309 372 295 372 Z" unicode="ę" />
<glyph horiz-adv-x="561" d="M 204 706 L 118 863 L 255 863 L 286 800 L 317 863 L 447 863 L 363 706 L 204 706 Z M 52 0 L 52 658 L 511 658 L 511 466 L 296 466 L 296 405 L 499 405 L 499 255 L 296 255 L 296 192 L 519 192 L 519 0 L 52 0 Z" unicode="Ě" />
<glyph horiz-adv-x="559" d="M 202 553 L 106 727 L 258 727 L 293 658 L 328 727 L 472 727 L 378 553 L 202 553 Z M 302 -18 C 216 -18 148 5 98 53 C 48 100 23 164 23 246 C 23 326 47 389 96 437 C 145 484 212 508 298 508 C 380 508 440 482 478 430 C 516 378 535 310 535 225 L 535 204 L 252 204 C 254 183 264 168 280 160 C 296 151 320 147 354 147 C 382 147 411 150 439 156 C 467 162 495 171 524 184 L 524 18 C 484 5 447 -3 413 -9 C 379 -15 342 -18 302 -18 Z M 295 372 C 281 372 271 366 264 355 C 257 344 253 325 252 298 L 336 298 C 336 322 332 341 326 353 C 320 365 309 372 295 372 Z" unicode="ě" />
<glyph horiz-adv-x="721" d="M 376 718 L 246 718 L 330 874 L 489 874 L 575 718 L 438 718 L 407 781 L 376 718 Z M 395 -14 C 281 -14 192 17 128 79 C 64 141 32 224 32 327 C 32 431 65 515 133 578 C 200 640 291 672 407 672 C 447 672 488 669 528 664 C 568 659 605 652 640 642 L 640 440 C 606 450 571 459 537 465 C 502 471 467 474 431 474 C 389 474 354 462 328 438 C 302 414 289 379 289 332 C 289 282 298 244 318 219 C 337 193 364 181 399 181 C 407 181 416 181 425 183 C 433 184 442 186 452 189 L 452 249 L 383 249 L 383 401 L 685 401 L 685 35 C 641 19 595 7 547 -1 C 499 -9 448 -14 395 -14 Z" unicode="Ĝ" />
<glyph horiz-adv-x="599" d="M 251 554 L 107 554 L 201 729 L 377 729 L 473 554 L 321 554 L 286 624 L 251 554 Z M 291 -220 C 247 -220 206 -216 168 -210 C 129 -204 91 -194 54 -182 L 54 -10 C 78 -26 105 -39 134 -47 C 162 -55 190 -59 216 -59 C 242 -59 268 -53 296 -42 C 324 -31 338 -8 338 26 L 338 51 C 322 31 304 17 284 8 C 264 0 242 -5 219 -5 C 155 -5 106 17 73 61 C 39 105 23 165 23 240 C 23 325 48 391 98 437 C 148 483 205 506 269 506 C 305 506 336 499 364 485 C 392 471 413 453 428 433 L 461 490 L 563 490 L 563 40 C 563 -56 534 -123 476 -162 C 418 -200 357 -220 291 -220 Z M 304 163 C 310 163 315 164 321 166 C 327 168 332 170 337 173 L 337 314 C 332 316 327 318 321 320 C 315 321 310 322 305 322 C 288 322 275 315 266 301 C 257 287 253 267 253 241 C 253 216 257 197 266 183 C 275 169 288 163 304 163 Z" unicode="ĝ" />
<glyph horiz-adv-x="721" d="M 406 718 C 362 718 327 731 301 759 C 275 787 262 824 262 870 L 371 870 C 371 857 374 847 380 839 C 386 831 395 828 406 828 C 416 828 425 831 432 839 C 438 847 442 857 442 870 L 551 870 C 551 824 537 787 511 759 C 485 731 450 718 406 718 Z M 395 -14 C 281 -14 192 17 128 79 C 64 141 32 224 32 327 C 32 431 65 515 133 578 C 200 640 291 672 407 672 C 447 672 488 669 528 664 C 568 659 605 652 640 642 L 640 440 C 606 450 571 459 537 465 C 502 471 467 474 431 474 C 389 474 354 462 328 438 C 302 414 289 379 289 332 C 289 282 298 244 318 219 C 337 193 364 181 399 181 C 407 181 416 181 425 183 C 433 184 442 186 452 189 L 452 249 L 383 249 L 383 401 L 685 401 L 685 35 C 641 19 595 7 547 -1 C 499 -9 448 -14 395 -14 Z" unicode="Ğ" />
<glyph horiz-adv-x="599" d="M 287 549 C 239 549 200 564 171 595 C 141 626 127 667 127 718 L 248 718 C 248 703 251 691 258 683 C 265 675 275 671 287 671 C 299 671 308 675 315 683 C 322 691 326 703 326 718 L 447 718 C 447 667 432 626 403 595 C 373 564 335 549 287 549 Z M 291 -220 C 247 -220 206 -216 168 -210 C 129 -204 91 -194 54 -182 L 54 -10 C 78 -26 105 -39 134 -47 C 162 -55 190 -59 216 -59 C 242 -59 268 -53 296 -42 C 324 -31 338 -8 338 26 L 338 51 C 322 31 304 17 284 8 C 264 0 242 -5 219 -5 C 155 -5 106 17 73 61 C 39 105 23 165 23 240 C 23 325 48 391 98 437 C 148 483 205 506 269 506 C 305 506 336 499 364 485 C 392 471 413 453 428 433 L 461 490 L 563 490 L 563 40 C 563 -56 534 -123 476 -162 C 418 -200 357 -220 291 -220 Z M 304 163 C 310 163 315 164 321 166 C 327 168 332 170 337 173 L 337 314 C 332 316 327 318 321 320 C 315 321 310 322 305 322 C 288 322 275 315 266 301 C 257 287 253 267 253 241 C 253 216 257 197 266 183 C 275 169 288 163 304 163 Z" unicode="ğ" />
<glyph horiz-adv-x="721" d="M 340 718 L 340 855 L 477 855 L 477 718 L 340 718 Z M 395 -14 C 281 -14 192 17 128 79 C 64 141 32 224 32 327 C 32 431 65 515 133 578 C 200 640 291 672 407 672 C 447 672 488 669 528 664 C 568 659 605 652 640 642 L 640 440 C 606 450 571 459 537 465 C 502 471 467 474 431 474 C 389 474 354 462 328 438 C 302 414 289 379 289 332 C 289 282 298 244 318 219 C 337 193 364 181 399 181 C 407 181 416 181 425 183 C 433 184 442 186 452 189 L 452 249 L 383 249 L 383 401 L 685 401 L 685 35 C 641 19 595 7 547 -1 C 499 -9 448 -14 395 -14 Z" unicode="Ġ" />
<glyph horiz-adv-x="599" d="M 211 554 L 211 706 L 363 706 L 363 554 L 211 554 Z M 291 -220 C 247 -220 206 -216 168 -210 C 129 -204 91 -194 54 -182 L 54 -10 C 78 -26 105 -39 134 -47 C 162 -55 190 -59 216 -59 C 242 -59 268 -53 296 -42 C 324 -31 338 -8 338 26 L 338 51 C 322 31 304 17 284 8 C 264 0 242 -5 219 -5 C 155 -5 106 17 73 61 C 39 105 23 165 23 240 C 23 325 48 391 98 437 C 148 483 205 506 269 506 C 305 506 336 499 364 485 C 392 471 413 453 428 433 L 461 490 L 563 490 L 563 40 C 563 -56 534 -123 476 -162 C 418 -200 357 -220 291 -220 Z M 304 163 C 310 163 315 164 321 166 C 327 168 332 170 337 173 L 337 314 C 332 316 327 318 321 320 C 315 321 310 322 305 322 C 288 322 275 315 266 301 C 257 287 253 267 253 241 C 253 216 257 197 266 183 C 275 169 288 163 304 163 Z" unicode="ġ" />
<glyph horiz-adv-x="721" d="M 395 -14 C 281 -14 192 17 128 79 C 64 141 32 224 32 327 C 32 431 65 515 133 578 C 200 640 291 672 407 672 C 447 672 488 669 528 664 C 568 659 605 652 640 642 L 640 440 C 606 450 571 459 537 465 C 502 471 467 474 431 474 C 389 474 354 462 328 438 C 302 414 289 379 289 332 C 289 282 298 244 318 219 C 337 193 364 181 399 181 C 407 181 416 181 425 183 C 433 184 442 186 452 189 L 452 249 L 383 249 L 383 401 L 685 401 L 685 35 C 641 19 595 7 547 -1 C 499 -9 448 -14 395 -14 Z M 405 -259 L 301 -229 C 311 -207 319 -186 323 -166 C 327 -146 329 -123 329 -99 L 329 -56 L 467 -56 L 467 -99 C 467 -133 462 -162 453 -187 C 443 -212 427 -236 405 -259 Z" unicode="Ģ" />
<glyph horiz-adv-x="599" d="M 280 784 L 396 750 C 384 726 375 702 370 680 C 365 658 363 633 363 606 L 363 558 L 211 558 L 211 606 C 211 643 216 675 227 703 C 237 731 255 758 280 784 Z M 291 -220 C 247 -220 206 -216 168 -210 C 129 -204 91 -194 54 -182 L 54 -10 C 78 -26 105 -39 134 -47 C 162 -55 190 -59 216 -59 C 242 -59 268 -53 296 -42 C 324 -31 338 -8 338 26 L 338 51 C 322 31 304 17 284 8 C 264 0 242 -5 219 -5 C 155 -5 106 17 73 61 C 39 105 23 165 23 240 C 23 325 48 391 98 437 C 148 483 205 506 269 506 C 305 506 336 499 364 485 C 392 471 413 453 428 433 L 461 490 L 563 490 L 563 40 C 563 -56 534 -123 476 -162 C 418 -200 357 -220 291 -220 Z M 304 163 C 310 163 315 164 321 166 C 327 168 332 170 337 173 L 337 314 C 332 316 327 318 321 320 C 315 321 310 322 305 322 C 288 322 275 315 266 301 C 257 287 253 267 253 241 C 253 216 257 197 266 183 C 275 169 288 163 304 163 Z" unicode="ģ" />
<glyph horiz-adv-x="730" d="M 333 714 L 203 714 L 287 870 L 446 870 L 532 714 L 395 714 L 364 777 L 333 714 Z M 52 0 L 52 658 L 296 658 L 296 427 L 434 427 L 434 658 L 678 658 L 678 0 L 434 0 L 434 224 L 296 224 L 296 0 L 52 0 Z" unicode="Ĥ" />
<glyph horiz-adv-x="592" d="M 116 753 L -28 753 L 66 928 L 242 928 L 338 753 L 186 753 L 151 823 L 116 753 Z M 37 0 L 37 716 L 264 716 L 264 431 C 278 451 296 468 318 482 C 339 496 367 504 403 504 C 444 504 480 489 511 459 C 542 429 558 390 558 342 L 558 0 L 331 0 L 331 277 C 331 287 328 296 322 303 C 316 309 307 313 296 313 C 289 313 283 311 277 309 C 271 306 266 302 264 298 L 264 0 L 37 0 Z" unicode="ĥ" />
<glyph horiz-adv-x="750" d="M 56 0 L 56 473 L 12 473 L 12 600 L 56 600 L 56 658 L 312 658 L 312 600 L 438 600 L 438 658 L 694 658 L 694 600 L 738 600 L 738 473 L 694 473 L 694 0 L 438 0 L 438 202 L 312 202 L 312 0 L 56 0 Z M 312 424 L 438 424 L 438 473 L 312 473 L 312 424 Z" unicode="Ħ" />
<glyph horiz-adv-x="592" d="M 37 0 L 37 538 L 5 538 L 5 658 L 37 658 L 37 716 L 264 716 L 264 658 L 309 658 L 309 538 L 264 538 L 264 431 C 278 451 296 468 318 482 C 339 496 367 504 403 504 C 444 504 480 489 511 459 C 542 429 558 390 558 342 L 558 0 L 331 0 L 331 277 C 331 287 328 296 322 303 C 316 309 307 313 296 313 C 289 313 283 311 277 309 C 271 306 266 302 264 298 L 264 0 L 37 0 Z" unicode="ħ" />
<glyph horiz-adv-x="348" d="M 108 706 L 8 706 C 8 756 18 793 38 819 C 58 844 87 857 126 857 C 140 857 154 855 166 851 C 178 847 190 840 203 830 C 208 825 212 822 216 820 C 220 818 224 817 228 817 C 235 817 240 819 244 825 C 247 831 249 839 250 851 L 350 851 C 350 801 340 764 320 738 C 300 712 270 700 231 700 C 217 700 204 702 193 706 C 181 710 169 717 155 728 C 149 732 145 735 141 737 C 137 739 133 740 130 740 C 122 740 116 737 113 732 C 109 726 108 718 108 706 Z M 52 0 L 52 658 L 296 658 L 296 0 L 52 0 Z" unicode="Ĩ" />
<glyph horiz-adv-x="302" d="M 75 541 L -36 541 C -36 596 -25 638 -3 666 C 19 694 52 709 96 709 C 112 709 126 706 139 702 C 151 698 165 690 180 678 C 186 673 191 669 195 667 C 199 665 203 664 208 664 C 216 664 221 667 225 673 C 229 679 231 689 232 702 L 343 702 C 343 647 332 605 310 577 C 288 549 255 535 211 535 C 195 535 181 537 169 541 C 156 545 142 554 127 566 C 121 570 116 574 112 576 C 108 578 103 579 99 579 C 90 579 84 576 80 570 C 76 564 75 554 75 541 Z M 37 0 L 37 490 L 264 490 L 264 0 L 37 0 Z" unicode="ĩ" />
<glyph horiz-adv-x="348" d="M 42 706 L 42 821 L 309 821 L 309 706 L 42 706 Z M 52 0 L 52 658 L 296 658 L 296 0 L 52 0 Z" unicode="Ī" />
<glyph horiz-adv-x="302" d="M 22 545 L 22 673 L 283 673 L 283 545 L 22 545 Z M 37 0 L 37 490 L 264 490 L 264 0 L 37 0 Z" unicode="ī" />
<glyph horiz-adv-x="348" d="M 174 706 C 130 706 95 719 69 747 C 43 775 30 812 30 858 L 139 858 C 139 845 142 835 148 827 C 154 819 163 816 174 816 C 184 816 193 819 200 827 C 206 835 210 845 210 858 L 319 858 C 319 812 305 775 279 747 C 253 719 218 706 174 706 Z M 52 0 L 52 658 L 296 658 L 296 0 L 52 0 Z" unicode="Ĭ" />
<glyph horiz-adv-x="302" d="M 152 536 C 104 536 65 551 36 582 C 6 613 -8 654 -8 705 L 113 705 C 113 690 116 678 123 670 C 130 662 140 658 152 658 C 164 658 173 662 180 670 C 187 678 191 690 191 705 L 312 705 C 312 654 297 613 268 582 C 238 551 200 536 152 536 Z M 37 0 L 37 490 L 264 490 L 264 0 L 37 0 Z" unicode="ĭ" />
<glyph horiz-adv-x="348" d="M 52 0 L 52 658 L 296 658 L 296 0 L 213 0 C 193 0 179 -4 169 -14 C 159 -24 154 -36 154 -51 C 154 -65 159 -76 169 -85 C 179 -94 193 -99 213 -99 L 213 -220 C 153 -220 106 -208 72 -185 C 37 -161 20 -128 20 -84 C 20 -67 22 -52 28 -38 C 34 -24 42 -12 53 0 L 52 0 Z" unicode="Į" />
<glyph horiz-adv-x="302" d="M 37 546 L 37 716 L 264 716 L 264 546 L 37 546 Z M 37 0 L 37 490 L 264 490 L 264 0 L 200 0 C 180 0 166 -4 156 -14 C 146 -24 141 -36 141 -51 C 141 -65 146 -76 156 -85 C 166 -94 180 -99 200 -99 L 200 -220 C 140 -220 93 -208 59 -185 C 24 -161 7 -128 7 -84 C 7 -67 9 -52 15 -38 C 21 -24 29 -12 40 0 L 37 0 Z" unicode="į" />
<glyph horiz-adv-x="348" d="M 108 706 L 108 843 L 245 843 L 245 706 L 108 706 Z M 52 0 L 52 658 L 296 658 L 296 0 L 52 0 Z" unicode="İ" />
<glyph horiz-adv-x="301" d="M 37 0 L 37 490 L 264 490 L 264 0 L 37 0 Z" unicode="ı" />
<glyph horiz-adv-x="354" d="M 147 706 L 17 706 L 101 862 L 260 862 L 346 706 L 209 706 L 178 769 L 147 706 Z M 7 -220 L -26 -220 L -26 -42 L -10 -42 C 11 -42 28 -35 40 -22 C 52 -8 58 11 58 39 L 58 658 L 302 658 L 302 43 C 302 -39 277 -104 228 -150 C 178 -196 105 -220 7 -220 Z" unicode="Ĵ" />
<glyph horiz-adv-x="300" d="M 114 541 L -30 541 L 64 716 L 240 716 L 336 541 L 184 541 L 149 611 L 114 541 Z M -21 -220 L -38 -220 L -38 -47 L -30 -47 C -10 -47 5 -40 17 -27 C 29 -13 36 5 36 30 L 36 490 L 263 490 L 263 26 C 263 -54 239 -115 191 -157 C 143 -199 72 -220 -21 -220 Z" unicode="ĵ" />
<glyph horiz-adv-x="739" d="M 52 0 L 52 658 L 296 658 L 296 361 L 461 658 L 720 658 L 526 340 L 722 0 L 447 0 L 296 285 L 296 0 L 52 0 Z M 378 -251 L 274 -221 C 284 -199 292 -178 296 -158 C 300 -138 302 -115 302 -91 L 302 -48 L 440 -48 L 440 -91 C 440 -125 435 -154 426 -179 C 416 -204 400 -228 378 -251 Z" unicode="Ķ" />
<glyph horiz-adv-x="615" d="M 37 0 L 37 716 L 264 716 L 264 303 L 359 490 L 599 490 L 475 254 L 599 0 L 351 0 L 264 189 L 264 0 L 37 0 Z M 314 -262 L 204 -230 C 214 -207 222 -185 227 -164 C 231 -143 234 -120 234 -94 L 234 -48 L 379 -48 L 379 -93 C 379 -129 374 -160 364 -186 C 354 -212 337 -237 314 -262 Z" unicode="ķ" />
<glyph horiz-adv-x="508" d="M 251 706 L 100 706 L 186 855 L 369 855 L 251 706 Z M 52 0 L 52 658 L 296 658 L 296 204 L 488 204 L 488 0 L 52 0 Z" unicode="Ĺ" />
<glyph horiz-adv-x="303" d="M 232 767 L 69 767 L 165 934 L 360 934 L 232 767 Z M 37 0 L 37 716 L 264 716 L 264 0 L 37 0 Z" unicode="ĺ" />
<glyph horiz-adv-x="508" d="M 52 0 L 52 658 L 296 658 L 296 204 L 488 204 L 488 0 L 52 0 Z M 282 -251 L 178 -221 C 188 -199 196 -178 200 -158 C 204 -138 206 -115 206 -91 L 206 -48 L 344 -48 L 344 -91 C 344 -125 339 -154 330 -179 C 320 -204 304 -228 282 -251 Z" unicode="Ļ" />
<glyph horiz-adv-x="303" d="M 37 0 L 37 716 L 264 716 L 264 0 L 37 0 Z M 159 -261 L 49 -229 C 59 -206 67 -184 72 -163 C 76 -142 79 -119 79 -93 L 79 -47 L 224 -47 L 224 -92 C 224 -128 219 -159 209 -185 C 199 -211 182 -236 159 -261 Z" unicode="ļ" />
<glyph horiz-adv-x="555" d="M 52 0 L 52 658 L 296 658 L 296 204 L 488 204 L 488 0 L 52 0 Z M 462 433 L 346 467 C 358 491 366 514 371 536 C 375 558 378 582 378 610 L 378 658 L 531 658 L 531 611 C 531 573 525 540 515 512 C 504 484 486 458 462 433 Z" unicode="Ľ" />
<glyph horiz-adv-x="548" d="M 37 0 L 37 716 L 264 716 L 264 0 L 37 0 Z M 438 491 L 314 525 C 326 549 334 572 339 594 C 343 616 346 640 346 668 L 346 716 L 499 716 L 499 669 C 499 631 494 598 485 570 C 476 542 460 516 438 491 Z" unicode="ľ" />
<glyph horiz-adv-x="510" d="M 52 0 L 52 658 L 296 658 L 296 204 L 488 204 L 488 0 L 52 0 Z M 364 298 L 364 450 L 517 450 L 517 298 L 364 298 Z" unicode="Ŀ" />
<glyph horiz-adv-x="491" d="M 37 0 L 37 716 L 264 716 L 264 0 L 37 0 Z M 320 281 L 320 433 L 473 433 L 473 281 L 320 281 Z" unicode="ŀ" />
<glyph horiz-adv-x="512" d="M 54 0 L 54 277 L 8 267 L 8 440 L 54 450 L 54 658 L 298 658 L 298 504 L 356 517 L 356 344 L 298 331 L 298 204 L 490 204 L 490 0 L 54 0 Z" unicode="Ł" />
<glyph horiz-adv-x="303" d="M 37 0 L 37 260 L 3 252 L 3 424 L 37 432 L 37 716 L 264 716 L 264 489 L 309 500 L 309 327 L 264 316 L 264 0 L 37 0 Z" unicode="ł" />
<glyph horiz-adv-x="771" d="M 466 706 L 315 706 L 401 855 L 584 855 L 466 706 Z M 52 0 L 52 658 L 330 658 L 463 417 L 513 316 L 509 417 L 509 658 L 719 658 L 719 0 L 444 0 L 307 242 L 258 343 L 262 242 L 262 0 L 52 0 Z" unicode="Ń" />
<glyph horiz-adv-x="592" d="M 380 545 L 217 545 L 313 712 L 508 712 L 380 545 Z M 37 0 L 37 490 L 264 490 L 264 430 C 278 450 296 468 318 482 C 339 496 367 504 403 504 C 444 504 480 489 511 460 C 542 430 558 391 558 342 L 558 0 L 331 0 L 331 277 C 331 287 328 296 322 303 C 316 309 307 313 296 313 C 289 313 283 311 277 309 C 271 306 266 302 264 298 L 264 0 L 37 0 Z" unicode="ń" />
<glyph horiz-adv-x="771" d="M 52 0 L 52 658 L 330 658 L 463 417 L 513 316 L 509 417 L 509 658 L 719 658 L 719 0 L 444 0 L 307 242 L 258 343 L 262 242 L 262 0 L 52 0 Z M 405 -259 L 301 -229 C 311 -207 319 -186 323 -166 C 327 -146 329 -123 329 -99 L 329 -56 L 467 -56 L 467 -99 C 467 -133 462 -162 453 -187 C 443 -212 427 -236 405 -259 Z" unicode="Ņ" />
<glyph horiz-adv-x="592" d="M 37 0 L 37 490 L 264 490 L 264 430 C 278 450 296 468 318 482 C 339 496 367 504 403 504 C 444 504 480 489 511 460 C 542 430 558 391 558 342 L 558 0 L 331 0 L 331 277 C 331 287 328 296 322 303 C 316 309 307 313 296 313 C 289 313 283 311 277 309 C 271 306 266 302 264 298 L 264 0 L 37 0 Z M 306 -262 L 196 -230 C 206 -207 214 -185 219 -164 C 223 -143 226 -120 226 -94 L 226 -48 L 371 -48 L 371 -93 C 371 -129 366 -160 356 -186 C 346 -212 329 -237 306 -262 Z" unicode="ņ" />
<glyph horiz-adv-x="771" d="M 309 706 L 223 863 L 360 863 L 391 800 L 422 863 L 552 863 L 468 706 L 309 706 Z M 52 0 L 52 658 L 330 658 L 463 417 L 513 316 L 509 417 L 509 658 L 719 658 L 719 0 L 444 0 L 307 242 L 258 343 L 262 242 L 262 0 L 52 0 Z" unicode="Ň" />
<glyph horiz-adv-x="592" d="M 211 545 L 115 719 L 267 719 L 302 650 L 337 719 L 481 719 L 387 545 L 211 545 Z M 37 0 L 37 490 L 264 490 L 264 430 C 278 450 296 468 318 482 C 339 496 367 504 403 504 C 444 504 480 489 511 460 C 542 430 558 391 558 342 L 558 0 L 331 0 L 331 277 C 331 287 328 296 322 303 C 316 309 307 313 296 313 C 289 313 283 311 277 309 C 271 306 266 302 264 298 L 264 0 L 37 0 Z" unicode="ň" />
<glyph horiz-adv-x="771" d="M 52 0 L 52 658 L 330 658 L 463 417 L 513 316 L 509 417 L 509 658 L 719 658 L 719 0 C 719 -68 698 -121 658 -161 C 618 -200 561 -220 487 -220 L 445 -220 L 445 -63 L 460 -63 C 476 -63 489 -58 501 -48 C 513 -38 519 -22 519 0 L 444 0 L 307 242 L 258 343 L 262 242 L 262 0 L 52 0 Z" unicode="Ŋ" />
<glyph horiz-adv-x="588" d="M 274 -210 L 251 -210 L 251 -43 L 259 -43 C 281 -43 297 -37 309 -25 C 321 -13 327 4 327 26 L 327 277 C 327 287 324 296 319 303 C 313 309 305 313 294 313 C 287 313 281 311 276 309 C 270 306 266 302 264 298 L 264 0 L 37 0 L 37 490 L 264 490 L 264 430 C 278 450 296 468 316 482 C 336 496 363 504 399 504 C 440 504 476 489 507 460 C 538 430 554 391 554 342 L 554 30 C 554 -47 530 -106 483 -148 C 435 -189 366 -210 274 -210 Z" unicode="ŋ" />
<glyph horiz-adv-x="784" d="M 259 719 L 259 834 L 526 834 L 526 719 L 259 719 Z M 392 -18 C 283 -18 196 12 130 73 C 64 133 32 219 32 329 C 32 439 64 525 130 585 C 196 645 283 676 392 676 C 500 676 587 645 653 585 C 719 525 752 439 752 329 C 752 219 719 133 653 73 C 587 12 500 -18 392 -18 Z M 392 189 C 425 189 451 200 469 224 C 487 248 496 283 496 329 C 496 375 487 410 469 434 C 451 458 425 470 392 470 C 358 470 333 458 315 434 C 297 410 288 375 288 329 C 288 283 297 248 315 224 C 333 200 358 189 392 189 Z" unicode="Ō" />
<glyph horiz-adv-x="603" d="M 171 557 L 171 685 L 432 685 L 432 557 L 171 557 Z M 301 -20 C 212 -20 143 4 95 53 C 47 101 23 166 23 247 C 23 326 47 390 95 438 C 143 486 212 510 301 510 C 390 510 459 486 507 438 C 555 390 580 327 580 248 C 580 166 555 101 507 53 C 459 4 390 -20 301 -20 Z M 302 163 C 316 163 327 169 335 183 C 342 196 346 217 346 246 C 346 274 342 294 334 308 C 326 321 315 328 301 328 C 287 328 276 321 268 308 C 260 294 257 274 257 246 C 257 217 260 196 268 183 C 276 169 287 163 302 163 Z" unicode="ō" />
<glyph horiz-adv-x="784" d="M 391 719 C 347 719 312 732 286 760 C 260 788 247 825 247 871 L 356 871 C 356 858 359 848 365 840 C 371 832 380 829 391 829 C 401 829 410 832 417 840 C 423 848 427 858 427 871 L 536 871 C 536 825 522 788 496 760 C 470 732 435 719 391 719 Z M 392 -18 C 283 -18 196 12 130 73 C 64 133 32 219 32 329 C 32 439 64 525 130 585 C 196 645 283 676 392 676 C 500 676 587 645 653 585 C 719 525 752 439 752 329 C 752 219 719 133 653 73 C 587 12 500 -18 392 -18 Z M 392 189 C 425 189 451 200 469 224 C 487 248 496 283 496 329 C 496 375 487 410 469 434 C 451 458 425 470 392 470 C 358 470 333 458 315 434 C 297 410 288 375 288 329 C 288 283 297 248 315 224 C 333 200 358 189 392 189 Z" unicode="Ŏ" />
<glyph horiz-adv-x="603" d="M 301 548 C 253 548 214 563 185 594 C 155 625 141 666 141 717 L 262 717 C 262 702 265 690 272 682 C 279 674 289 670 301 670 C 313 670 322 674 329 682 C 336 690 340 702 340 717 L 461 717 C 461 666 446 625 417 594 C 387 563 349 548 301 548 Z M 301 -20 C 212 -20 143 4 95 53 C 47 101 23 166 23 247 C 23 326 47 390 95 438 C 143 486 212 510 301 510 C 390 510 459 486 507 438 C 555 390 580 327 580 248 C 580 166 555 101 507 53 C 459 4 390 -20 301 -20 Z M 302 163 C 316 163 327 169 335 183 C 342 196 346 217 346 246 C 346 274 342 294 334 308 C 326 321 315 328 301 328 C 287 328 276 321 268 308 C 260 294 257 274 257 246 C 257 217 260 196 268 183 C 276 169 287 163 302 163 Z" unicode="ŏ" />
<glyph horiz-adv-x="784" d="M 235 719 L 319 868 L 460 868 L 368 719 L 235 719 Z M 414 719 L 504 868 L 645 868 L 548 719 L 414 719 Z M 392 -18 C 283 -18 196 12 130 73 C 64 133 32 219 32 329 C 32 439 64 525 130 585 C 196 645 283 676 392 676 C 500 676 587 645 653 585 C 719 525 752 439 752 329 C 752 219 719 133 653 73 C 587 12 500 -18 392 -18 Z M 392 189 C 425 189 451 200 469 224 C 487 248 496 283 496 329 C 496 375 487 410 469 434 C 451 458 425 470 392 470 C 358 470 333 458 315 434 C 297 410 288 375 288 329 C 288 283 297 248 315 224 C 333 200 358 189 392 189 Z" unicode="Ő" />
<glyph horiz-adv-x="603" d="M 125 557 L 218 724 L 375 724 L 273 557 L 125 557 Z M 324 557 L 423 724 L 580 724 L 472 557 L 324 557 Z M 301 -20 C 212 -20 143 4 95 53 C 47 101 23 166 23 247 C 23 326 47 390 95 438 C 143 486 212 510 301 510 C 390 510 459 486 507 438 C 555 390 580 327 580 248 C 580 166 555 101 507 53 C 459 4 390 -20 301 -20 Z M 302 163 C 316 163 327 169 335 183 C 342 196 346 217 346 246 C 346 274 342 294 334 308 C 326 321 315 328 301 328 C 287 328 276 321 268 308 C 260 294 257 274 257 246 C 257 217 260 196 268 183 C 276 169 287 163 302 163 Z" unicode="ő" />
<glyph horiz-adv-x="930" d="M 414 0 C 295 0 202 27 134 83 C 66 138 32 221 32 332 C 32 442 66 524 134 578 C 202 631 295 658 414 658 L 880 658 L 880 464 L 670 464 L 670 407 L 868 407 L 868 251 L 670 251 L 670 194 L 888 194 L 888 0 L 414 0 Z M 402 204 L 426 204 L 426 459 L 402 459 C 366 459 338 448 318 426 C 298 404 288 373 288 332 C 288 290 298 258 318 236 C 338 214 366 204 402 204 Z" unicode="Œ" />
<glyph horiz-adv-x="862" d="M 294 -18 C 208 -18 142 6 94 54 C 46 102 23 166 23 247 C 23 326 46 389 94 437 C 142 484 208 508 294 508 C 328 508 358 503 384 494 C 410 485 432 473 452 459 C 470 473 492 485 518 494 C 543 503 571 508 603 508 C 684 508 743 482 781 430 C 819 378 838 310 838 225 L 838 204 L 555 204 C 557 183 567 168 583 160 C 599 151 623 147 657 147 C 685 147 714 150 742 156 C 770 162 798 171 827 184 L 827 18 C 787 5 750 -3 717 -9 C 683 -15 649 -18 613 -18 C 579 -18 549 -13 523 -4 C 497 5 474 17 454 32 C 434 17 411 5 385 -4 C 358 -13 328 -18 294 -18 Z M 598 372 C 584 372 574 366 567 355 C 560 344 556 325 555 298 L 639 298 C 639 322 635 341 629 353 C 623 365 612 372 598 372 Z M 297 165 C 311 165 322 171 329 184 C 335 196 339 217 339 246 C 339 274 335 294 328 306 C 321 318 310 325 296 325 C 282 325 271 318 264 306 C 257 294 254 274 254 246 C 254 217 257 196 264 184 C 271 171 282 165 297 165 Z" unicode="œ" />
<glyph horiz-adv-x="697" d="M 409 706 L 258 706 L 344 855 L 527 855 L 409 706 Z M 426 0 L 373 187 C 367 205 359 219 350 227 C 340 235 328 239 314 239 L 296 239 L 296 0 L 52 0 L 52 658 L 399 658 C 465 658 518 642 559 612 C 599 582 620 538 620 482 C 620 440 609 404 587 376 C 565 348 534 327 492 315 C 526 306 555 292 577 273 C 599 253 614 228 623 198 L 681 0 L 426 0 Z M 296 383 L 324 383 C 342 383 357 388 367 399 C 377 409 383 424 383 442 C 383 459 377 473 367 483 C 357 493 342 498 324 498 L 296 498 L 296 383 Z" unicode="Ŕ" />
<glyph horiz-adv-x="442" d="M 317 541 L 154 541 L 250 708 L 445 708 L 317 541 Z M 37 0 L 37 490 L 260 490 L 265 415 C 279 447 295 470 315 484 C 334 497 354 504 375 504 C 384 504 393 503 403 501 C 412 499 421 497 430 494 L 430 273 C 415 281 401 286 388 290 C 374 294 359 296 343 296 C 330 296 316 294 302 290 C 287 286 274 280 264 274 L 264 0 L 37 0 Z" unicode="ŕ" />
<glyph horiz-adv-x="697" d="M 426 0 L 373 187 C 367 205 359 219 350 227 C 340 235 328 239 314 239 L 296 239 L 296 0 L 52 0 L 52 658 L 399 658 C 465 658 518 642 559 612 C 599 582 620 538 620 482 C 620 440 609 404 587 376 C 565 348 534 327 492 315 C 526 306 555 292 577 273 C 599 253 614 228 623 198 L 681 0 L 426 0 Z M 296 383 L 324 383 C 342 383 357 388 367 399 C 377 409 383 424 383 442 C 383 459 377 473 367 483 C 357 493 342 498 324 498 L 296 498 L 296 383 Z M 368 -251 L 264 -221 C 274 -199 282 -178 286 -158 C 290 -138 292 -115 292 -91 L 292 -48 L 430 -48 L 430 -91 C 430 -125 425 -154 416 -179 C 406 -204 390 -228 368 -251 Z" unicode="Ŗ" />
<glyph horiz-adv-x="442" d="M 37 0 L 37 490 L 260 490 L 265 415 C 279 447 295 470 315 484 C 334 497 354 504 375 504 C 384 504 393 503 403 501 C 412 499 421 497 430 494 L 430 273 C 415 281 401 286 388 290 C 374 294 359 296 343 296 C 330 296 316 294 302 290 C 287 286 274 280 264 274 L 264 0 L 37 0 Z M 161 -262 L 51 -230 C 61 -207 69 -185 74 -164 C 78 -143 81 -120 81 -94 L 81 -48 L 226 -48 L 226 -93 C 226 -129 221 -160 211 -186 C 201 -212 184 -237 161 -262 Z" unicode="ŗ" />
<glyph horiz-adv-x="697" d="M 252 706 L 166 863 L 303 863 L 334 800 L 365 863 L 495 863 L 411 706 L 252 706 Z M 426 0 L 373 187 C 367 205 359 219 350 227 C 340 235 328 239 314 239 L 296 239 L 296 0 L 52 0 L 52 658 L 399 658 C 465 658 518 642 559 612 C 599 582 620 538 620 482 C 620 440 609 404 587 376 C 565 348 534 327 492 315 C 526 306 555 292 577 273 C 599 253 614 228 623 198 L 681 0 L 426 0 Z M 296 383 L 324 383 C 342 383 357 388 367 399 C 377 409 383 424 383 442 C 383 459 377 473 367 483 C 357 493 342 498 324 498 L 296 498 L 296 383 Z" unicode="Ř" />
<glyph horiz-adv-x="442" d="M 148 541 L 52 715 L 204 715 L 239 646 L 274 715 L 418 715 L 324 541 L 148 541 Z M 37 0 L 37 490 L 260 490 L 265 415 C 279 447 295 470 315 484 C 334 497 354 504 375 504 C 384 504 393 503 403 501 C 412 499 421 497 430 494 L 430 273 C 415 281 401 286 388 290 C 374 294 359 296 343 296 C 330 296 316 294 302 290 C 287 286 274 280 264 274 L 264 0 L 37 0 Z" unicode="ř" />
<glyph horiz-adv-x="604" d="M 383 716 L 232 716 L 318 865 L 501 865 L 383 716 Z M 286 -15 C 247 -15 208 -11 168 -4 C 128 3 87 14 44 29 L 44 222 C 82 204 119 191 155 183 C 191 174 226 170 261 170 C 281 170 296 172 306 177 C 316 181 321 189 321 199 C 321 207 317 215 310 221 C 302 227 291 231 277 234 L 252 239 C 178 251 123 275 86 310 C 49 344 31 391 31 449 C 31 520 55 575 104 614 C 152 653 221 673 311 673 C 347 673 384 670 423 665 C 461 659 498 652 533 642 L 533 450 C 503 462 471 472 437 479 C 403 486 370 490 338 490 C 319 490 305 487 296 483 C 287 479 283 472 283 463 C 283 455 286 448 294 442 C 301 436 312 432 327 430 L 352 425 C 426 412 481 388 518 353 C 554 317 573 271 573 215 C 573 139 548 82 498 43 C 448 4 377 -15 286 -15 Z" unicode="Ś" />
<glyph horiz-adv-x="502" d="M 329 549 L 166 549 L 262 716 L 457 716 L 329 549 Z M 247 -16 C 211 -16 175 -14 140 -10 C 105 -6 70 0 34 9 L 34 169 C 63 154 92 143 122 136 C 152 128 182 125 214 125 C 222 125 230 126 236 129 C 242 132 245 137 245 143 C 245 149 242 153 237 157 C 232 160 225 163 217 165 L 167 177 C 118 187 82 206 58 234 C 34 261 22 295 22 337 C 22 388 40 429 78 459 C 115 489 171 505 247 505 C 281 505 315 503 349 499 C 382 495 416 489 450 481 L 450 331 C 420 345 393 355 369 361 C 344 367 318 371 291 371 C 280 371 272 369 266 366 C 260 362 257 358 257 352 C 257 347 258 343 262 339 C 266 335 271 333 277 332 L 327 322 C 379 311 417 291 442 263 C 467 234 480 198 480 155 C 480 105 460 64 422 32 C 384 0 325 -16 247 -16 Z" unicode="ś" />
<glyph horiz-adv-x="604" d="M 276 716 L 146 716 L 230 872 L 389 872 L 475 716 L 338 716 L 307 779 L 276 716 Z M 286 -15 C 247 -15 208 -11 168 -4 C 128 3 87 14 44 29 L 44 222 C 82 204 119 191 155 183 C 191 174 226 170 261 170 C 281 170 296 172 306 177 C 316 181 321 189 321 199 C 321 207 317 215 310 221 C 302 227 291 231 277 234 L 252 239 C 178 251 123 275 86 310 C 49 344 31 391 31 449 C 31 520 55 575 104 614 C 152 653 221 673 311 673 C 347 673 384 670 423 665 C 461 659 498 652 533 642 L 533 450 C 503 462 471 472 437 479 C 403 486 370 490 338 490 C 319 490 305 487 296 483 C 287 479 283 472 283 463 C 283 455 286 448 294 442 C 301 436 312 432 327 430 L 352 425 C 426 412 481 388 518 353 C 554 317 573 271 573 215 C 573 139 548 82 498 43 C 448 4 377 -15 286 -15 Z" unicode="Ŝ" />
<glyph horiz-adv-x="502" d="M 214 549 L 70 549 L 164 724 L 340 724 L 436 549 L 284 549 L 249 619 L 214 549 Z M 247 -16 C 211 -16 175 -14 140 -10 C 105 -6 70 0 34 9 L 34 169 C 63 154 92 143 122 136 C 152 128 182 125 214 125 C 222 125 230 126 236 129 C 242 132 245 137 245 143 C 245 149 242 153 237 157 C 232 160 225 163 217 165 L 167 177 C 118 187 82 206 58 234 C 34 261 22 295 22 337 C 22 388 40 429 78 459 C 115 489 171 505 247 505 C 281 505 315 503 349 499 C 382 495 416 489 450 481 L 450 331 C 420 345 393 355 369 361 C 344 367 318 371 291 371 C 280 371 272 369 266 366 C 260 362 257 358 257 352 C 257 347 258 343 262 339 C 266 335 271 333 277 332 L 327 322 C 379 311 417 291 442 263 C 467 234 480 198 480 155 C 480 105 460 64 422 32 C 384 0 325 -16 247 -16 Z" unicode="ŝ" />
<glyph horiz-adv-x="604" d="M 286 -15 C 247 -15 208 -11 168 -4 C 128 3 87 14 44 29 L 44 222 C 82 204 119 191 155 183 C 191 174 226 170 261 170 C 281 170 296 172 306 177 C 316 181 321 189 321 199 C 321 207 317 215 310 221 C 302 227 291 231 277 234 L 252 239 C 178 251 123 275 86 310 C 49 344 31 391 31 449 C 31 520 55 575 104 614 C 152 653 221 673 311 673 C 347 673 384 670 423 665 C 461 659 498 652 533 642 L 533 450 C 503 462 471 472 437 479 C 403 486 370 490 338 490 C 319 490 305 487 296 483 C 287 479 283 472 283 463 C 283 455 286 448 294 442 C 301 436 312 432 327 430 L 352 425 C 426 412 481 388 518 353 C 554 317 573 271 573 215 C 573 139 548 82 498 43 C 448 4 377 -15 286 -15 Z M 323 -251 C 307 -251 293 -250 282 -248 C 271 -246 260 -244 250 -242 L 250 -150 C 258 -154 266 -157 275 -160 C 283 -162 291 -164 298 -164 C 306 -164 313 -162 318 -158 C 322 -154 325 -148 325 -142 C 325 -135 322 -130 318 -126 C 313 -122 306 -121 298 -121 L 289 -121 L 289 -48 L 302 -48 C 342 -48 374 -57 399 -75 C 423 -93 436 -118 436 -150 C 436 -182 425 -206 405 -224 C 384 -242 357 -251 323 -251 Z" unicode="Ş" />
<glyph horiz-adv-x="502" d="M 247 -16 C 211 -16 175 -14 140 -10 C 105 -6 70 0 34 9 L 34 169 C 63 154 92 143 122 136 C 152 128 182 125 214 125 C 222 125 230 126 236 129 C 242 132 245 137 245 143 C 245 149 242 153 237 157 C 232 160 225 163 217 165 L 167 177 C 118 187 82 206 58 234 C 34 261 22 295 22 337 C 22 388 40 429 78 459 C 115 489 171 505 247 505 C 281 505 315 503 349 499 C 382 495 416 489 450 481 L 450 331 C 420 345 393 355 369 361 C 344 367 318 371 291 371 C 280 371 272 369 266 366 C 260 362 257 358 257 352 C 257 347 258 343 262 339 C 266 335 271 333 277 332 L 327 322 C 379 311 417 291 442 263 C 467 234 480 198 480 155 C 480 105 460 64 422 32 C 384 0 325 -16 247 -16 Z M 266 -261 C 249 -261 235 -260 223 -258 C 211 -256 200 -254 189 -252 L 189 -155 C 197 -159 206 -163 215 -165 C 224 -167 233 -169 241 -169 C 249 -169 256 -166 262 -162 C 267 -157 270 -151 270 -145 C 270 -139 267 -134 261 -130 C 255 -126 248 -124 239 -124 L 230 -124 L 230 -46 L 244 -46 C 286 -46 320 -55 347 -75 C 373 -94 387 -120 387 -154 C 387 -188 375 -214 353 -233 C 331 -251 302 -261 266 -261 Z" unicode="ş" />
<glyph horiz-adv-x="604" d="M 226 716 L 140 873 L 277 873 L 308 810 L 339 873 L 469 873 L 385 716 L 226 716 Z M 286 -15 C 247 -15 208 -11 168 -4 C 128 3 87 14 44 29 L 44 222 C 82 204 119 191 155 183 C 191 174 226 170 261 170 C 281 170 296 172 306 177 C 316 181 321 189 321 199 C 321 207 317 215 310 221 C 302 227 291 231 277 234 L 252 239 C 178 251 123 275 86 310 C 49 344 31 391 31 449 C 31 520 55 575 104 614 C 152 653 221 673 311 673 C 347 673 384 670 423 665 C 461 659 498 652 533 642 L 533 450 C 503 462 471 472 437 479 C 403 486 370 490 338 490 C 319 490 305 487 296 483 C 287 479 283 472 283 463 C 283 455 286 448 294 442 C 301 436 312 432 327 430 L 352 425 C 426 412 481 388 518 353 C 554 317 573 271 573 215 C 573 139 548 82 498 43 C 448 4 377 -15 286 -15 Z" unicode="Š" />
<glyph horiz-adv-x="502" d="M 160 549 L 64 723 L 216 723 L 251 654 L 286 723 L 430 723 L 336 549 L 160 549 Z M 247 -16 C 211 -16 175 -14 140 -10 C 105 -6 70 0 34 9 L 34 169 C 63 154 92 143 122 136 C 152 128 182 125 214 125 C 222 125 230 126 236 129 C 242 132 245 137 245 143 C 245 149 242 153 237 157 C 232 160 225 163 217 165 L 167 177 C 118 187 82 206 58 234 C 34 261 22 295 22 337 C 22 388 40 429 78 459 C 115 489 171 505 247 505 C 281 505 315 503 349 499 C 382 495 416 489 450 481 L 450 331 C 420 345 393 355 369 361 C 344 367 318 371 291 371 C 280 371 272 369 266 366 C 260 362 257 358 257 352 C 257 347 258 343 262 339 C 266 335 271 333 277 332 L 327 322 C 379 311 417 291 442 263 C 467 234 480 198 480 155 C 480 105 460 64 422 32 C 384 0 325 -16 247 -16 Z" unicode="š" />
<glyph horiz-adv-x="566" d="M 161 0 L 161 454 L 20 454 L 20 658 L 546 658 L 546 454 L 405 454 L 405 0 L 161 0 Z M 309 -241 C 293 -241 279 -240 268 -238 C 257 -236 246 -234 236 -232 L 236 -140 C 244 -144 252 -147 261 -150 C 269 -152 277 -154 284 -154 C 292 -154 299 -152 304 -148 C 308 -144 311 -138 311 -132 C 311 -125 308 -120 304 -116 C 299 -112 292 -111 284 -111 L 275 -111 L 275 -38 L 288 -38 C 328 -38 360 -47 385 -65 C 409 -83 422 -108 422 -140 C 422 -172 411 -196 391 -214 C 370 -232 343 -241 309 -241 Z" unicode="Ţ" />
<glyph horiz-adv-x="400" d="M 232 -12 C 188 -12 150 1 119 29 C 87 57 72 100 72 158 L 72 318 L 22 318 L 22 490 L 72 490 L 72 621 L 300 621 L 300 490 L 372 490 L 372 318 L 300 318 L 300 208 C 300 196 303 187 309 180 C 315 173 324 170 334 170 C 341 170 348 171 356 173 C 363 175 370 177 376 181 L 376 12 C 352 3 328 -2 304 -6 C 280 -10 256 -12 232 -12 Z M 249 -263 C 232 -263 218 -262 206 -260 C 194 -258 183 -256 172 -254 L 172 -157 C 180 -161 189 -165 198 -167 C 207 -169 216 -171 224 -171 C 232 -171 239 -168 245 -164 C 250 -159 253 -153 253 -147 C 253 -141 250 -136 244 -132 C 238 -128 231 -126 222 -126 L 213 -126 L 213 -48 L 227 -48 C 269 -48 303 -57 330 -77 C 356 -96 370 -122 370 -156 C 370 -190 358 -216 336 -235 C 314 -253 285 -263 249 -263 Z" unicode="ţ" />
<glyph horiz-adv-x="566" d="M 202 706 L 116 863 L 253 863 L 284 800 L 315 863 L 445 863 L 361 706 L 202 706 Z M 161 0 L 161 454 L 20 454 L 20 658 L 546 658 L 546 454 L 405 454 L 405 0 L 161 0 Z" unicode="Ť" />
<glyph horiz-adv-x="575" d="M 464 535 L 340 569 C 352 593 360 616 365 638 C 369 660 372 684 372 712 L 372 760 L 525 760 L 525 713 C 525 675 520 642 511 614 C 502 586 486 560 464 535 Z M 232 -12 C 188 -12 150 1 119 29 C 87 57 72 100 72 158 L 72 318 L 22 318 L 22 490 L 72 490 L 72 621 L 300 621 L 300 490 L 372 490 L 372 318 L 300 318 L 300 208 C 300 196 303 187 309 180 C 315 173 324 170 334 170 C 341 170 348 171 356 173 C 363 175 370 177 376 181 L 376 12 C 352 3 328 -2 304 -6 C 280 -10 256 -12 232 -12 Z" unicode="ť" />
<glyph horiz-adv-x="566" d="M 161 0 L 161 198 L 77 198 L 77 338 L 161 338 L 161 454 L 20 454 L 20 658 L 546 658 L 546 454 L 405 454 L 405 338 L 486 338 L 486 198 L 405 198 L 405 0 L 161 0 Z" unicode="Ŧ" />
<glyph horiz-adv-x="400" d="M 38 217 L 38 284 L 72 284 L 72 318 L 22 318 L 22 490 L 72 490 L 72 621 L 300 621 L 300 490 L 372 490 L 372 318 L 300 318 L 300 284 L 355 284 L 355 217 L 300 217 L 300 208 C 300 196 303 187 309 180 C 315 173 324 170 334 170 C 341 170 348 171 356 173 C 363 175 370 177 376 181 L 376 12 C 352 3 328 -2 304 -6 C 280 -10 256 -12 232 -12 C 188 -12 150 1 119 29 C 87 57 72 100 72 158 L 72 217 L 38 217 Z" unicode="ŧ" />
<glyph horiz-adv-x="716" d="M 299 706 L 199 706 C 199 756 209 793 229 819 C 249 844 278 857 317 857 C 331 857 345 855 357 851 C 369 847 381 840 394 830 C 399 825 403 822 407 820 C 411 818 415 817 419 817 C 426 817 431 819 435 825 C 438 831 440 839 441 851 L 541 851 C 541 801 531 764 511 738 C 491 712 461 700 422 700 C 408 700 395 702 384 706 C 372 710 360 717 346 728 C 340 732 336 735 332 737 C 328 739 324 740 321 740 C 313 740 307 737 304 732 C 300 726 299 718 299 706 Z M 361 -15 C 265 -15 188 9 132 59 C 76 109 48 176 48 260 L 48 658 L 298 658 L 298 276 C 298 254 304 236 316 222 C 328 208 345 201 366 201 C 388 201 405 208 417 222 C 429 236 435 254 435 276 L 435 658 L 668 658 L 668 260 C 668 176 640 109 585 59 C 529 9 455 -15 361 -15 Z" unicode="Ũ" />
<glyph horiz-adv-x="592" d="M 217 541 L 106 541 C 106 596 117 638 139 666 C 161 694 194 709 238 709 C 254 709 268 706 281 702 C 293 698 307 690 322 678 C 328 673 333 669 337 667 C 341 665 345 664 350 664 C 358 664 363 667 367 673 C 371 679 373 689 374 702 L 485 702 C 485 647 474 605 452 577 C 430 549 397 535 353 535 C 337 535 323 537 311 541 C 298 545 284 554 269 566 C 263 570 258 574 254 576 C 250 578 245 579 241 579 C 232 579 226 576 222 570 C 218 564 217 554 217 541 Z M 196 -14 C 152 -14 114 0 82 30 C 50 60 34 99 34 149 L 34 490 L 261 490 L 261 213 C 261 202 264 193 270 187 C 276 181 284 178 296 178 C 302 178 309 179 315 182 C 321 184 325 188 328 193 L 328 490 L 555 490 L 555 0 L 336 0 L 328 60 C 314 39 297 21 275 7 C 253 -6 226 -14 196 -14 Z" unicode="ũ" />
<glyph horiz-adv-x="716" d="M 233 706 L 233 821 L 500 821 L 500 706 L 233 706 Z M 361 -15 C 265 -15 188 9 132 59 C 76 109 48 176 48 260 L 48 658 L 298 658 L 298 276 C 298 254 304 236 316 222 C 328 208 345 201 366 201 C 388 201 405 208 417 222 C 429 236 435 254 435 276 L 435 658 L 668 658 L 668 260 C 668 176 640 109 585 59 C 529 9 455 -15 361 -15 Z" unicode="Ū" />
<glyph horiz-adv-x="592" d="M 164 545 L 164 673 L 425 673 L 425 545 L 164 545 Z M 196 -14 C 152 -14 114 0 82 30 C 50 60 34 99 34 149 L 34 490 L 261 490 L 261 213 C 261 202 264 193 270 187 C 276 181 284 178 296 178 C 302 178 309 179 315 182 C 321 184 325 188 328 193 L 328 490 L 555 490 L 555 0 L 336 0 L 328 60 C 314 39 297 21 275 7 C 253 -6 226 -14 196 -14 Z" unicode="ū" />
<glyph horiz-adv-x="716" d="M 365 706 C 321 706 286 719 260 747 C 234 775 221 812 221 858 L 330 858 C 330 845 333 835 339 827 C 345 819 354 816 365 816 C 375 816 384 819 391 827 C 397 835 401 845 401 858 L 510 858 C 510 812 496 775 470 747 C 444 719 409 706 365 706 Z M 361 -15 C 265 -15 188 9 132 59 C 76 109 48 176 48 260 L 48 658 L 298 658 L 298 276 C 298 254 304 236 316 222 C 328 208 345 201 366 201 C 388 201 405 208 417 222 C 429 236 435 254 435 276 L 435 658 L 668 658 L 668 260 C 668 176 640 109 585 59 C 529 9 455 -15 361 -15 Z" unicode="Ŭ" />
<glyph horiz-adv-x="592" d="M 294 536 C 246 536 207 551 178 582 C 148 613 134 654 134 705 L 255 705 C 255 690 258 678 265 670 C 272 662 282 658 294 658 C 306 658 315 662 322 670 C 329 678 333 690 333 705 L 454 705 C 454 654 439 613 410 582 C 380 551 342 536 294 536 Z M 196 -14 C 152 -14 114 0 82 30 C 50 60 34 99 34 149 L 34 490 L 261 490 L 261 213 C 261 202 264 193 270 187 C 276 181 284 178 296 178 C 302 178 309 179 315 182 C 321 184 325 188 328 193 L 328 490 L 555 490 L 555 0 L 336 0 L 328 60 C 314 39 297 21 275 7 C 253 -6 226 -14 196 -14 Z" unicode="ŭ" />
<glyph horiz-adv-x="716" d="M 361 -15 C 265 -15 188 9 132 59 C 76 109 48 176 48 260 L 48 658 L 240 658 C 238 664 236 671 235 678 C 234 685 234 692 234 700 C 234 736 246 766 270 791 C 294 815 327 828 367 828 C 407 828 439 815 463 791 C 487 766 500 736 500 700 C 500 692 499 685 498 678 C 497 671 496 664 494 658 L 668 658 L 668 260 C 668 176 640 109 585 59 C 529 9 455 -15 361 -15 Z M 367 658 C 378 658 388 661 396 669 C 404 676 408 686 408 699 C 408 711 404 721 396 728 C 388 735 378 739 367 739 C 355 739 346 735 338 728 C 330 721 326 711 326 699 C 326 686 330 676 338 669 C 346 661 355 658 367 658 Z M 367 569 C 354 569 342 570 330 573 C 318 576 307 580 298 586 L 298 276 C 298 254 304 236 316 222 C 328 208 345 201 366 201 C 388 201 405 208 417 222 C 429 236 435 254 435 276 L 435 585 C 425 580 415 576 403 573 C 391 570 379 569 367 569 Z" unicode="Ů" />
<glyph horiz-adv-x="592" d="M 293 525 C 248 525 212 539 186 567 C 159 595 146 629 146 670 C 146 710 159 743 186 771 C 212 799 248 813 293 813 C 338 813 374 799 401 771 C 427 743 441 710 441 670 C 441 629 427 595 401 567 C 374 539 338 525 293 525 Z M 293 624 C 305 624 316 627 325 635 C 334 643 339 654 339 669 C 339 683 334 694 325 702 C 316 710 305 714 293 714 C 281 714 270 710 261 702 C 252 694 248 683 248 669 C 248 654 252 643 261 635 C 270 627 281 624 293 624 Z M 196 -14 C 152 -14 114 0 82 30 C 50 60 34 99 34 149 L 34 490 L 261 490 L 261 213 C 261 202 264 193 270 187 C 276 181 284 178 296 178 C 302 178 309 179 315 182 C 321 184 325 188 328 193 L 328 490 L 555 490 L 555 0 L 336 0 L 328 60 C 314 39 297 21 275 7 C 253 -6 226 -14 196 -14 Z" unicode="ů" />
<glyph horiz-adv-x="716" d="M 209 706 L 293 855 L 434 855 L 342 706 L 209 706 Z M 388 706 L 478 855 L 619 855 L 522 706 L 388 706 Z M 361 -15 C 265 -15 188 9 132 59 C 76 109 48 176 48 260 L 48 658 L 298 658 L 298 276 C 298 254 304 236 316 222 C 328 208 345 201 366 201 C 388 201 405 208 417 222 C 429 236 435 254 435 276 L 435 658 L 668 658 L 668 260 C 668 176 640 109 585 59 C 529 9 455 -15 361 -15 Z" unicode="Ű" />
<glyph horiz-adv-x="592" d="M 118 545 L 211 712 L 368 712 L 266 545 L 118 545 Z M 317 545 L 416 712 L 573 712 L 465 545 L 317 545 Z M 196 -14 C 152 -14 114 0 82 30 C 50 60 34 99 34 149 L 34 490 L 261 490 L 261 213 C 261 202 264 193 270 187 C 276 181 284 178 296 178 C 302 178 309 179 315 182 C 321 184 325 188 328 193 L 328 490 L 555 490 L 555 0 L 336 0 L 328 60 C 314 39 297 21 275 7 C 253 -6 226 -14 196 -14 Z" unicode="ű" />
<glyph horiz-adv-x="716" d="M 530 -220 C 463 -220 410 -207 372 -183 C 333 -158 314 -123 314 -78 C 314 -66 315 -54 319 -43 C 323 -32 328 -22 335 -14 C 246 -9 176 17 125 66 C 73 115 48 180 48 260 L 48 658 L 298 658 L 298 276 C 298 254 304 236 316 222 C 328 208 345 201 366 201 C 388 201 405 208 417 222 C 429 236 435 254 435 276 L 435 658 L 668 658 L 668 260 C 668 200 653 148 625 106 C 597 64 559 32 511 12 C 492 3 479 -5 472 -14 C 465 -22 462 -33 462 -46 C 462 -60 467 -71 479 -81 C 490 -91 507 -96 530 -96 L 530 -220 Z" unicode="Ų" />
<glyph horiz-adv-x="592" d="M 196 -14 C 152 -14 114 0 82 30 C 50 60 34 99 34 149 L 34 490 L 261 490 L 261 213 C 261 202 264 193 270 187 C 276 181 284 178 296 178 C 302 178 309 179 315 182 C 321 184 325 188 328 193 L 328 490 L 555 490 L 555 0 L 500 0 C 480 0 466 -4 456 -14 C 446 -24 441 -36 441 -51 C 441 -65 446 -76 456 -85 C 466 -94 480 -99 500 -99 L 500 -220 C 440 -220 393 -208 359 -185 C 324 -161 307 -128 307 -84 C 307 -67 309 -52 315 -38 C 321 -24 329 -12 340 0 L 336 0 L 328 60 C 314 39 297 21 275 7 C 253 -6 226 -14 196 -14 Z" unicode="ų" />
<glyph horiz-adv-x="1071" d="M 511 706 L 381 706 L 465 862 L 624 862 L 710 706 L 573 706 L 542 769 L 511 706 Z M 161 0 L 12 658 L 258 658 L 314 362 L 335 229 L 357 362 L 412 658 L 682 658 L 736 361 L 758 237 L 779 361 L 835 658 L 1059 658 L 907 0 L 602 0 L 551 238 L 529 366 L 505 238 L 455 0 L 161 0 Z" unicode="Ŵ" />
<glyph horiz-adv-x="898" d="M 422 547 L 278 547 L 372 722 L 548 722 L 644 547 L 492 547 L 457 617 L 422 547 Z M 127 0 L 12 490 L 237 490 L 266 320 L 287 188 L 311 320 L 344 490 L 571 490 L 606 320 L 635 185 L 662 320 L 695 490 L 886 490 L 762 1 L 500 0 L 477 116 L 447 264 L 418 116 L 395 0 L 127 0 Z" unicode="ŵ" />
<glyph horiz-adv-x="704" d="M 333 706 L 203 706 L 287 862 L 446 862 L 532 706 L 395 706 L 364 769 L 333 706 Z M 231 0 L 231 187 L 12 658 L 283 658 L 340 497 L 366 416 L 392 497 L 449 658 L 692 658 L 475 187 L 475 0 L 231 0 Z" unicode="Ŷ" />
<glyph horiz-adv-x="595" d="M 275 541 L 131 541 L 225 716 L 401 716 L 497 541 L 345 541 L 310 611 L 275 541 Z M 44 -220 L 35 -220 L 35 -47 L 44 -47 C 78 -47 107 -44 132 -39 C 156 -33 178 -22 198 -6 L 141 4 L 12 490 L 254 490 L 285 320 L 312 148 L 341 320 L 372 490 L 583 490 L 488 128 C 456 2 405 -86 334 -140 C 263 -193 166 -220 44 -220 Z" unicode="ŷ" />
<glyph horiz-adv-x="704" d="M 207 711 L 207 846 L 342 846 L 342 711 L 207 711 Z M 387 711 L 387 846 L 522 846 L 522 711 L 387 711 Z M 231 0 L 231 187 L 12 658 L 283 658 L 340 497 L 366 416 L 392 497 L 449 658 L 692 658 L 475 187 L 475 0 L 231 0 Z" unicode="Ÿ" />
<glyph horiz-adv-x="666" d="M 416 706 L 265 706 L 351 855 L 534 855 L 416 706 Z M 44 0 L 44 126 L 235 390 L 286 454 L 47 454 L 47 658 L 622 658 L 622 532 L 436 269 L 384 204 L 622 204 L 622 0 L 44 0 Z" unicode="Ź" />
<glyph horiz-adv-x="540" d="M 367 541 L 204 541 L 300 708 L 495 708 L 367 541 Z M 31 0 L 31 99 L 146 253 L 194 312 L 33 312 L 33 490 L 503 490 L 503 392 L 388 237 L 340 178 L 508 178 L 508 0 L 31 0 Z" unicode="ź" />
<glyph horiz-adv-x="666" d="M 273 706 L 273 843 L 410 843 L 410 706 L 273 706 Z M 44 0 L 44 126 L 235 390 L 286 454 L 47 454 L 47 658 L 622 658 L 622 532 L 436 269 L 384 204 L 622 204 L 622 0 L 44 0 Z" unicode="Ż" />
<glyph horiz-adv-x="540" d="M 212 541 L 212 693 L 364 693 L 364 541 L 212 541 Z M 31 0 L 31 99 L 146 253 L 194 312 L 33 312 L 33 490 L 503 490 L 503 392 L 388 237 L 340 178 L 508 178 L 508 0 L 31 0 Z" unicode="ż" />
<glyph horiz-adv-x="666" d="M 259 706 L 173 863 L 310 863 L 341 800 L 372 863 L 502 863 L 418 706 L 259 706 Z M 44 0 L 44 126 L 235 390 L 286 454 L 47 454 L 47 658 L 622 658 L 622 532 L 436 269 L 384 204 L 622 204 L 622 0 L 44 0 Z" unicode="Ž" />
<glyph horiz-adv-x="540" d="M 198 541 L 102 715 L 254 715 L 289 646 L 324 715 L 468 715 L 374 541 L 198 541 Z M 31 0 L 31 99 L 146 253 L 194 312 L 33 312 L 33 490 L 503 490 L 503 392 L 388 237 L 340 178 L 508 178 L 508 0 L 31 0 Z" unicode="ž" />
<glyph horiz-adv-x="566" d="M 129 -227 C 113 -227 97 -226 81 -224 C 65 -222 48 -218 32 -214 L 32 -44 C 41 -46 50 -49 59 -51 C 67 -53 76 -54 86 -54 C 100 -54 112 -49 120 -40 C 128 -30 133 -18 136 -3 L 177 316 L 122 316 L 122 488 L 200 488 L 206 537 C 214 601 239 649 281 681 C 323 712 375 728 437 728 C 453 728 469 727 485 725 C 501 723 517 719 534 715 L 534 545 C 524 547 515 550 507 552 C 498 554 489 555 480 555 C 465 555 454 550 446 541 C 438 531 432 519 430 504 L 428 488 L 492 488 L 492 316 L 406 316 L 360 -36 C 352 -98 327 -145 285 -178 C 243 -210 191 -227 129 -227 Z" unicode="ƒ" />
<glyph horiz-adv-x="721" d="M 326 718 L 240 875 L 377 875 L 408 812 L 439 875 L 569 875 L 485 718 L 326 718 Z M 395 -14 C 281 -14 192 17 128 79 C 64 141 32 224 32 327 C 32 431 65 515 133 578 C 200 640 291 672 407 672 C 447 672 488 669 528 664 C 568 659 605 652 640 642 L 640 440 C 606 450 571 459 537 465 C 502 471 467 474 431 474 C 389 474 354 462 328 438 C 302 414 289 379 289 332 C 289 282 298 244 318 219 C 337 193 364 181 399 181 C 407 181 416 181 425 183 C 433 184 442 186 452 189 L 452 249 L 383 249 L 383 401 L 685 401 L 685 35 C 641 19 595 7 547 -1 C 499 -9 448 -14 395 -14 Z" unicode="Ǧ" />
<glyph horiz-adv-x="599" d="M 197 554 L 101 728 L 253 728 L 288 659 L 323 728 L 467 728 L 373 554 L 197 554 Z M 291 -220 C 247 -220 206 -216 168 -210 C 129 -204 91 -194 54 -182 L 54 -10 C 78 -26 105 -39 134 -47 C 162 -55 190 -59 216 -59 C 242 -59 268 -53 296 -42 C 324 -31 338 -8 338 26 L 338 51 C 322 31 304 17 284 8 C 264 0 242 -5 219 -5 C 155 -5 106 17 73 61 C 39 105 23 165 23 240 C 23 325 48 391 98 437 C 148 483 205 506 269 506 C 305 506 336 499 364 485 C 392 471 413 453 428 433 L 461 490 L 563 490 L 563 40 C 563 -56 534 -123 476 -162 C 418 -200 357 -220 291 -220 Z M 304 163 C 310 163 315 164 321 166 C 327 168 332 170 337 173 L 337 314 C 332 316 327 318 321 320 C 315 321 310 322 305 322 C 288 322 275 315 266 301 C 257 287 253 267 253 241 C 253 216 257 197 266 183 C 275 169 288 163 304 163 Z" unicode="ǧ" />
<glyph horiz-adv-x="746" d="M 311 832 L 369 925 L 490 925 L 428 832 L 311 832 Z M 12 0 L 232 658 L 255 658 C 253 662 252 668 252 674 C 251 680 251 685 251 691 C 251 723 261 751 283 775 C 305 798 334 810 372 810 C 409 810 438 798 460 775 C 482 751 493 723 493 691 C 493 685 492 680 492 674 C 491 668 490 662 489 658 L 515 658 L 734 0 L 481 0 L 454 93 L 260 93 L 233 0 L 12 0 Z M 372 658 C 380 658 388 660 394 666 C 400 672 404 680 404 691 C 404 700 400 708 394 714 C 388 720 380 723 372 723 C 363 723 355 720 349 714 C 342 708 339 700 339 691 C 339 680 342 672 349 666 C 355 660 363 658 372 658 Z M 303 239 L 411 239 L 394 296 L 358 430 L 320 296 L 303 239 Z" unicode="Ǻ" />
<glyph horiz-adv-x="565" d="M 215 700 L 280 804 L 414 804 L 345 700 L 215 700 Z M 181 -12 C 133 -12 95 1 66 29 C 36 57 22 92 22 134 C 22 186 40 224 77 248 C 113 271 163 287 226 295 L 309 305 L 309 315 C 309 327 303 337 291 343 C 279 349 259 352 233 352 C 202 352 171 348 140 341 C 109 333 79 323 51 310 L 51 474 C 68 478 85 482 103 486 C 120 490 138 493 157 496 C 154 503 152 510 151 518 C 149 526 149 534 149 543 C 149 579 161 610 185 636 C 209 662 241 676 283 676 C 324 676 357 662 381 636 C 405 610 417 579 417 543 C 417 533 416 523 414 513 C 412 503 409 494 405 486 C 444 473 475 454 497 428 C 519 402 531 369 531 331 L 531 0 L 321 0 L 310 59 C 295 36 277 18 257 6 C 236 -5 211 -12 181 -12 Z M 283 507 C 293 507 301 510 308 517 C 315 523 319 532 319 543 C 319 553 315 562 308 569 C 301 576 293 580 283 580 C 273 580 264 576 257 569 C 250 562 247 553 247 543 C 247 532 250 523 257 517 C 264 510 273 507 283 507 Z M 276 138 C 282 138 289 139 295 143 C 301 146 305 150 309 156 L 309 211 L 276 207 C 266 205 258 201 252 195 C 246 189 243 180 243 170 C 243 160 246 152 252 146 C 258 140 266 138 276 138 Z" unicode="ǻ" />
<glyph horiz-adv-x="967" d="M 672 706 L 521 706 L 607 855 L 790 855 L 672 706 Z M 12 0 L 314 658 L 916 658 L 916 464 L 702 464 L 702 407 L 905 407 L 905 251 L 702 251 L 702 194 L 925 194 L 925 0 L 458 0 L 458 108 L 294 108 L 244 0 L 12 0 Z M 365 270 L 458 270 L 458 485 L 405 362 L 365 270 Z" unicode="Ǽ" />
<glyph horiz-adv-x="828" d="M 495 541 L 332 541 L 428 708 L 623 708 L 495 541 Z M 181 -12 C 133 -12 94 1 65 29 C 36 57 22 92 22 134 C 22 189 39 229 75 253 C 111 277 160 294 222 302 L 304 312 L 304 321 C 304 333 297 341 283 347 C 269 352 246 355 216 355 C 187 355 159 352 131 346 C 103 340 75 330 49 318 L 49 471 C 83 479 116 486 149 492 C 181 497 220 500 264 500 C 296 500 326 496 354 490 C 382 484 406 474 426 462 C 445 474 467 484 492 490 C 516 496 543 500 572 500 C 652 500 711 475 748 426 C 785 376 804 309 804 224 L 804 204 L 526 204 C 528 184 538 169 554 161 C 570 153 594 149 627 149 C 655 149 682 151 710 157 C 737 163 765 172 794 184 L 794 23 C 754 10 718 1 685 -4 C 651 -9 615 -12 576 -12 C 525 -12 481 -3 443 14 C 405 31 376 55 358 85 C 341 55 317 31 287 14 C 257 -3 221 -12 181 -12 Z M 569 370 C 555 370 545 364 538 354 C 531 343 527 325 526 299 L 609 299 C 609 323 606 340 600 352 C 594 364 583 370 569 370 Z M 273 142 C 279 142 285 143 291 146 C 296 149 300 153 304 159 L 304 212 L 271 208 C 261 206 254 203 248 197 C 242 191 239 183 239 173 C 239 163 242 155 248 150 C 254 144 262 142 273 142 Z" unicode="ǽ" />
<glyph horiz-adv-x="784" d="M 462 718 L 311 718 L 397 867 L 580 867 L 462 718 Z M 82 -48 L 147 58 C 111 87 82 124 62 170 C 42 216 32 269 32 329 C 32 439 64 525 130 585 C 196 645 283 676 392 676 C 414 676 436 674 457 672 C 478 669 498 665 517 660 L 545 706 L 706 706 L 640 598 C 675 568 702 531 722 486 C 742 440 752 388 752 329 C 752 219 719 133 653 73 C 587 12 500 -18 392 -18 C 370 -18 348 -16 328 -14 C 308 -11 288 -7 270 -3 L 243 -48 L 82 -48 Z M 392 189 C 425 189 451 200 469 224 C 487 248 496 283 496 329 C 496 375 487 410 469 434 C 451 458 425 470 392 470 C 358 470 333 458 315 434 C 297 410 288 375 288 329 C 288 283 297 248 315 224 C 333 200 358 189 392 189 Z" unicode="Ǿ" />
<glyph horiz-adv-x="603" d="M 365 558 L 202 558 L 298 725 L 493 725 L 365 558 Z M 53 -48 L 107 42 C 79 64 58 93 44 128 C 30 163 23 203 23 247 C 23 326 47 390 95 438 C 143 486 212 510 301 510 C 315 510 330 509 344 508 C 358 506 372 504 385 502 L 407 538 L 550 538 L 496 450 C 523 427 544 398 558 364 C 572 329 580 290 580 248 C 580 166 555 101 507 53 C 459 4 390 -20 301 -20 C 286 -20 272 -19 258 -17 C 244 -15 230 -13 218 -11 L 196 -48 L 53 -48 Z M 302 163 C 316 163 327 169 335 183 C 342 196 346 217 346 246 C 346 274 342 294 334 308 C 326 321 315 328 301 328 C 287 328 276 321 268 308 C 260 294 257 274 257 246 C 257 217 260 196 268 183 C 276 169 287 163 302 163 Z" unicode="ǿ" />
<glyph horiz-adv-x="604" d="M 286 -15 C 247 -15 208 -11 168 -4 C 128 3 87 14 44 29 L 44 222 C 82 204 119 191 155 183 C 191 174 226 170 261 170 C 281 170 296 172 306 177 C 316 181 321 189 321 199 C 321 207 317 215 310 221 C 302 227 291 231 277 234 L 252 239 C 178 251 123 275 86 310 C 49 344 31 391 31 449 C 31 520 55 575 104 614 C 152 653 221 673 311 673 C 347 673 384 670 423 665 C 461 659 498 652 533 642 L 533 450 C 503 462 471 472 437 479 C 403 486 370 490 338 490 C 319 490 305 487 296 483 C 287 479 283 472 283 463 C 283 455 286 448 294 442 C 301 436 312 432 327 430 L 352 425 C 426 412 481 388 518 353 C 554 317 573 271 573 215 C 573 139 548 82 498 43 C 448 4 377 -15 286 -15 Z M 308 -261 L 204 -231 C 214 -209 222 -188 226 -168 C 230 -148 232 -125 232 -101 L 232 -58 L 370 -58 L 370 -101 C 370 -135 365 -164 356 -189 C 346 -214 330 -238 308 -261 Z" unicode="Ș" />
<glyph horiz-adv-x="502" d="M 247 -16 C 211 -16 175 -14 140 -10 C 105 -6 70 0 34 9 L 34 169 C 63 154 92 143 122 136 C 152 128 182 125 214 125 C 222 125 230 126 236 129 C 242 132 245 137 245 143 C 245 149 242 153 237 157 C 232 160 225 163 217 165 L 167 177 C 118 187 82 206 58 234 C 34 261 22 295 22 337 C 22 388 40 429 78 459 C 115 489 171 505 247 505 C 281 505 315 503 349 499 C 382 495 416 489 450 481 L 450 331 C 420 345 393 355 369 361 C 344 367 318 371 291 371 C 280 371 272 369 266 366 C 260 362 257 358 257 352 C 257 347 258 343 262 339 C 266 335 271 333 277 332 L 327 322 C 379 311 417 291 442 263 C 467 234 480 198 480 155 C 480 105 460 64 422 32 C 384 0 325 -16 247 -16 Z M 255 -268 L 145 -236 C 155 -213 163 -191 168 -170 C 172 -149 175 -126 175 -100 L 175 -54 L 320 -54 L 320 -99 C 320 -135 315 -166 305 -192 C 295 -218 278 -243 255 -268 Z" unicode="ș" />
<glyph horiz-adv-x="566" d="M 161 0 L 161 454 L 20 454 L 20 658 L 546 658 L 546 454 L 405 454 L 405 0 L 161 0 Z M 294 -251 L 190 -221 C 200 -199 208 -178 212 -158 C 216 -138 218 -115 218 -91 L 218 -48 L 356 -48 L 356 -91 C 356 -125 351 -154 342 -179 C 332 -204 316 -228 294 -251 Z" unicode="Ț" />
<glyph horiz-adv-x="400" d="M 232 -12 C 188 -12 150 1 119 29 C 87 57 72 100 72 158 L 72 318 L 22 318 L 22 490 L 72 490 L 72 621 L 300 621 L 300 490 L 372 490 L 372 318 L 300 318 L 300 208 C 300 196 303 187 309 180 C 315 173 324 170 334 170 C 341 170 348 171 356 173 C 363 175 370 177 376 181 L 376 12 C 352 3 328 -2 304 -6 C 280 -10 256 -12 232 -12 Z M 238 -270 L 128 -238 C 138 -215 146 -193 151 -172 C 155 -151 158 -128 158 -102 L 158 -56 L 303 -56 L 303 -101 C 303 -137 298 -168 288 -194 C 278 -220 261 -245 238 -270 Z" unicode="ț" />
<glyph horiz-adv-x="300" d="M -21 -220 L -38 -220 L -38 -47 L -30 -47 C -10 -47 5 -40 17 -27 C 29 -13 36 5 36 30 L 36 490 L 263 490 L 263 26 C 263 -54 239 -115 191 -157 C 143 -199 72 -220 -21 -220 Z" unicode="ȷ" />
<glyph horiz-adv-x="556" d="M 259 -18 C 176 -18 116 7 78 58 C 40 108 22 177 22 265 L 22 286 L 305 286 C 302 306 293 321 277 330 C 261 338 236 343 203 343 C 174 343 146 340 118 334 C 90 328 61 318 33 306 L 33 472 C 73 484 110 493 144 499 C 178 505 215 508 255 508 C 341 508 409 484 459 437 C 509 389 534 325 534 244 C 534 164 509 100 460 53 C 411 5 344 -18 259 -18 Z M 262 118 C 275 118 285 123 292 134 C 299 145 303 164 305 192 L 221 192 C 221 167 224 148 230 136 C 236 124 247 118 262 118 Z" unicode="ə" />
<glyph horiz-adv-x="328" d="M 124 541 L -20 541 L 74 716 L 250 716 L 346 541 L 194 541 L 159 611 L 124 541 Z" unicode="ˆ" />
<glyph horiz-adv-x="332" d="M 80 541 L -16 715 L 136 715 L 171 646 L 206 715 L 350 715 L 256 541 L 80 541 Z" unicode="ˇ" />
<glyph horiz-adv-x="310" d="M 154 536 C 106 536 67 551 38 582 C 8 613 -6 654 -6 705 L 115 705 C 115 690 118 678 125 670 C 132 662 142 658 154 658 C 166 658 175 662 182 670 C 189 678 193 690 193 705 L 314 705 C 314 654 299 613 270 582 C 240 551 202 536 154 536 Z" unicode="˘" />
<glyph horiz-adv-x="226" d="M 36 541 L 36 693 L 188 693 L 188 541 L 36 541 Z" unicode="˙" />
<glyph horiz-adv-x="301" d="M 149 430 C 104 430 68 444 42 472 C 15 500 2 534 2 575 C 2 615 15 648 42 676 C 68 704 104 718 149 718 C 194 718 230 704 257 676 C 283 648 297 615 297 575 C 297 534 283 500 257 472 C 230 444 194 430 149 430 Z M 149 529 C 161 529 172 532 181 540 C 190 548 195 559 195 574 C 195 588 190 599 181 607 C 172 615 161 619 149 619 C 137 619 126 615 117 607 C 108 599 104 588 104 574 C 104 559 108 548 117 540 C 126 532 137 529 149 529 Z" unicode="˚" />
<glyph horiz-adv-x="240" d="M 201 -220 C 141 -220 94 -208 60 -185 C 25 -161 8 -128 8 -84 C 8 -46 22 -15 51 11 C 80 37 125 58 185 75 L 201 0 C 181 0 167 -4 157 -14 C 147 -24 142 -36 142 -51 C 142 -65 147 -77 157 -86 C 167 -94 181 -99 201 -99 L 201 -220 Z" unicode="˛" />
<glyph horiz-adv-x="347" d="M 93 541 L -18 541 C -18 596 -7 638 15 666 C 37 694 70 709 114 709 C 130 709 144 706 157 702 C 169 698 183 690 198 678 C 204 673 209 669 213 667 C 217 665 221 664 226 664 C 234 664 239 667 243 673 C 247 679 249 689 250 702 L 361 702 C 361 647 350 605 328 577 C 306 549 273 535 229 535 C 213 535 199 537 187 541 C 174 545 160 554 145 566 C 139 570 134 574 130 576 C 126 578 121 579 117 579 C 108 579 102 576 98 570 C 94 564 93 554 93 541 Z" unicode="˜" />
<glyph horiz-adv-x="369" d="M -18 545 L 75 712 L 232 712 L 130 545 L -18 545 Z M 181 545 L 280 712 L 437 712 L 329 545 L 181 545 Z" unicode="˝" />
<glyph horiz-adv-x="0" d="M -78 541 L -206 708 L -11 708 L 85 541 L -78 541 Z" unicode="̀" />
<glyph horiz-adv-x="0" d="M 79 541 L -84 541 L 12 708 L 207 708 L 79 541 Z" unicode="́" />
<glyph horiz-adv-x="0" d="M -36 541 L -180 541 L -86 716 L 90 716 L 186 541 L 34 541 L -1 611 L -36 541 Z" unicode="̂" />
<glyph horiz-adv-x="0" d="M -77 541 L -188 541 C -188 596 -177 638 -155 666 C -133 694 -100 709 -56 709 C -40 709 -25 706 -13 702 C 0 698 13 690 28 678 C 34 673 39 669 43 667 C 47 665 51 664 56 664 C 64 664 69 667 73 673 C 77 679 79 689 80 702 L 191 702 C 191 647 180 605 158 577 C 136 549 103 535 59 535 C 43 535 29 537 17 541 C 4 545 -9 554 -25 566 C -31 570 -36 574 -40 576 C -44 578 -48 579 -53 579 C -61 579 -67 576 -71 570 C -75 564 -77 554 -77 541 Z" unicode="̃" />
<glyph horiz-adv-x="0" d="M -130 545 L -130 673 L 131 673 L 131 545 L -130 545 Z" unicode="̄" />
<glyph horiz-adv-x="0" d="M 0 536 C -48 536 -86 551 -116 582 C -145 613 -160 654 -160 705 L -39 705 C -39 690 -35 678 -28 670 C -21 662 -12 658 0 658 C 12 658 21 662 28 670 C 35 678 39 690 39 705 L 160 705 C 160 654 145 613 116 582 C 86 551 48 536 0 536 Z" unicode="̆" />
<glyph horiz-adv-x="0" d="M -76 541 L -76 693 L 76 693 L 76 541 L -76 541 Z" unicode="̇" />
<glyph horiz-adv-x="0" d="M -174 541 L -174 691 L -24 691 L -24 541 L -174 541 Z M 23 541 L 23 691 L 173 691 L 173 541 L 23 541 Z" unicode="̈" />
<glyph horiz-adv-x="0" d="M -1 430 C -45 430 -81 444 -108 472 C -134 500 -148 534 -148 575 C -148 615 -134 648 -108 676 C -81 704 -45 718 -1 718 C 44 718 80 704 107 676 C 133 648 147 615 147 575 C 147 534 133 500 107 472 C 80 444 44 430 -1 430 Z M -1 529 C 11 529 22 532 31 540 C 40 548 45 559 45 574 C 45 588 40 599 31 607 C 22 615 11 619 -1 619 C -13 619 -23 615 -32 607 C -41 599 -46 588 -46 574 C -46 559 -41 548 -32 540 C -23 532 -13 529 -1 529 Z" unicode="̊" />
<glyph horiz-adv-x="0" d="M -176 545 L -83 712 L 74 712 L -28 545 L -176 545 Z M 23 545 L 122 712 L 279 712 L 171 545 L 23 545 Z" unicode="̋" />
<glyph horiz-adv-x="0" d="M -90 541 L -186 715 L -34 715 L 1 646 L 36 715 L 180 715 L 86 541 L -90 541 Z" unicode="̌" />
<glyph horiz-adv-x="0" d="M -7 771 L 109 737 C 97 713 88 689 83 667 C 78 645 76 620 76 593 L 76 545 L -76 545 L -76 593 C -76 630 -70 662 -60 690 C -49 718 -31 745 -7 771 Z" unicode="̒" />
<glyph horiz-adv-x="1" d="M 8 -266 L -108 -232 C -96 -208 -87 -184 -83 -162 C -78 -140 -76 -115 -76 -88 L -76 -40 L 77 -40 L 77 -88 C 77 -125 71 -157 61 -185 C 50 -213 32 -240 8 -266 Z" unicode="̦" />
<glyph horiz-adv-x="0" d="M 17 -255 C 0 -255 -13 -254 -25 -252 C -37 -250 -48 -248 -60 -246 L -60 -149 C -51 -153 -42 -157 -33 -159 C -24 -161 -16 -163 -8 -163 C 0 -163 7 -160 13 -156 C 18 -151 21 -145 21 -139 C 21 -133 18 -128 12 -124 C 6 -120 0 -118 -10 -118 L -19 -118 L -19 -40 L -5 -40 C 37 -40 71 -49 98 -69 C 124 -88 138 -114 138 -148 C 138 -182 126 -208 104 -227 C 82 -245 53 -255 17 -255 Z" unicode="̧" />
<glyph horiz-adv-x="0" d="M -1 -220 C -60 -220 -107 -208 -142 -185 C -176 -161 -194 -128 -194 -84 C -194 -46 -179 -15 -150 11 C -121 37 -77 58 -17 75 L -1 0 C -20 0 -35 -4 -45 -14 C -55 -24 -60 -36 -60 -51 C -60 -65 -55 -77 -45 -86 C -35 -94 -20 -99 -1 -99 L -1 -220 Z" unicode="̨" />
<glyph horiz-adv-x="744" d="M 8 0 L 241 658 L 504 658 L 736 0 L 8 0 Z M 280 190 L 428 190 L 355 401 L 280 190 Z" unicode="Δ" />
<glyph horiz-adv-x="592" d="M 176 -201 L 34 -201 L 34 490 L 261 490 L 261 213 C 261 202 264 193 270 187 C 276 181 284 178 296 178 C 302 178 309 179 315 182 C 321 184 325 188 328 193 L 328 490 L 555 490 L 555 0 L 336 0 L 328 60 C 314 39 297 21 275 7 C 253 -6 226 -14 196 -14 C 189 -14 182 -13 175 -12 C 168 -11 161 -10 155 -9 L 176 -201 Z" unicode="μ" />
<glyph horiz-adv-x="645" d="M 64 0 L 64 320 L 18 320 L 18 490 L 627 490 L 627 320 L 581 320 L 581 0 L 354 0 L 354 320 L 291 320 L 291 0 L 64 0 Z" unicode="π" />
<glyph horiz-adv-x="1071" d="M 467 706 L 349 855 L 532 855 L 618 706 L 467 706 Z M 161 0 L 12 658 L 258 658 L 314 362 L 335 229 L 357 362 L 412 658 L 682 658 L 736 361 L 758 237 L 779 361 L 835 658 L 1059 658 L 907 0 L 602 0 L 551 238 L 529 366 L 505 238 L 455 0 L 161 0 Z" unicode="Ẁ" />
<glyph horiz-adv-x="898" d="M 380 547 L 252 714 L 447 714 L 543 547 L 380 547 Z M 127 0 L 12 490 L 237 490 L 266 320 L 287 188 L 311 320 L 344 490 L 571 490 L 606 320 L 635 185 L 662 320 L 695 490 L 886 490 L 762 1 L 500 0 L 477 116 L 447 264 L 418 116 L 395 0 L 127 0 Z" unicode="ẁ" />
<glyph horiz-adv-x="1071" d="M 618 706 L 467 706 L 553 855 L 736 855 L 618 706 Z M 161 0 L 12 658 L 258 658 L 314 362 L 335 229 L 357 362 L 412 658 L 682 658 L 736 361 L 758 237 L 779 361 L 835 658 L 1059 658 L 907 0 L 602 0 L 551 238 L 529 366 L 505 238 L 455 0 L 161 0 Z" unicode="Ẃ" />
<glyph horiz-adv-x="898" d="M 537 547 L 374 547 L 470 714 L 665 714 L 537 547 Z M 127 0 L 12 490 L 237 490 L 266 320 L 287 188 L 311 320 L 344 490 L 571 490 L 606 320 L 635 185 L 662 320 L 695 490 L 886 490 L 762 1 L 500 0 L 477 116 L 447 264 L 418 116 L 395 0 L 127 0 Z" unicode="ẃ" />
<glyph horiz-adv-x="1071" d="M 385 711 L 385 846 L 520 846 L 520 711 L 385 711 Z M 565 711 L 565 846 L 700 846 L 700 711 L 565 711 Z M 161 0 L 12 658 L 258 658 L 314 362 L 335 229 L 357 362 L 412 658 L 682 658 L 736 361 L 758 237 L 779 361 L 835 658 L 1059 658 L 907 0 L 602 0 L 551 238 L 529 366 L 505 238 L 455 0 L 161 0 Z" unicode="Ẅ" />
<glyph horiz-adv-x="898" d="M 284 547 L 284 697 L 434 697 L 434 547 L 284 547 Z M 481 547 L 481 697 L 631 697 L 631 547 L 481 547 Z M 127 0 L 12 490 L 237 490 L 266 320 L 287 188 L 311 320 L 344 490 L 571 490 L 606 320 L 635 185 L 662 320 L 695 490 L 886 490 L 762 1 L 500 0 L 477 116 L 447 264 L 418 116 L 395 0 L 127 0 Z" unicode="ẅ" />
<glyph horiz-adv-x="704" d="M 289 706 L 171 855 L 354 855 L 440 706 L 289 706 Z M 231 0 L 231 187 L 12 658 L 283 658 L 340 497 L 366 416 L 392 497 L 449 658 L 692 658 L 475 187 L 475 0 L 231 0 Z" unicode="Ỳ" />
<glyph horiz-adv-x="595" d="M 233 541 L 105 708 L 300 708 L 396 541 L 233 541 Z M 44 -220 L 35 -220 L 35 -47 L 44 -47 C 78 -47 107 -44 132 -39 C 156 -33 178 -22 198 -6 L 141 4 L 12 490 L 254 490 L 285 320 L 312 148 L 341 320 L 372 490 L 583 490 L 488 128 C 456 2 405 -86 334 -140 C 263 -193 166 -220 44 -220 Z" unicode="ỳ" />
<glyph horiz-adv-x="500" d="" unicode=" " />
<glyph horiz-adv-x="1000" d="" unicode=" " />
<glyph horiz-adv-x="650" d="" unicode=" " />
<glyph horiz-adv-x="0" d="" unicode=" " />
<glyph horiz-adv-x="650" d="M 111 216 L 111 372 L 539 372 L 539 216 L 111 216 Z" unicode="‒" />
<glyph horiz-adv-x="504" d="M 38 160 L 38 316 L 466 316 L 466 160 L 38 160 Z" unicode="–" />
<glyph horiz-adv-x="1004" d="M 38 159 L 38 315 L 966 315 L 966 159 L 38 159 Z" unicode="—" />
<glyph horiz-adv-x="348" d="M 38 160 L 38 316 L 314 316 L 314 160 L 38 160 Z" unicode="―" />
<glyph horiz-adv-x="330" d="M 48 389 L 48 505 C 48 567 55 617 70 656 C 84 695 104 729 128 757 L 308 728 C 293 689 283 654 277 622 C 271 590 268 551 268 506 L 268 389 L 48 389 Z" unicode="‘" />
<glyph horiz-adv-x="328" d="M 198 377 L 22 406 C 36 444 47 480 53 512 C 59 544 62 582 62 628 L 62 745 L 278 745 L 278 629 C 278 567 270 516 256 477 C 241 438 222 405 198 377 Z" unicode="’" />
<glyph horiz-adv-x="328" d="M 278 206 L 278 90 C 278 28 270 -22 256 -62 C 241 -101 222 -134 198 -162 L 22 -134 C 36 -95 47 -60 53 -28 C 59 4 62 43 62 89 L 62 206 L 278 206 Z" unicode="‚" />
<glyph horiz-adv-x="606" d="M 48 388 L 48 505 C 48 567 55 617 70 656 C 84 695 104 729 128 757 L 308 728 C 293 689 283 654 277 622 C 271 590 268 551 268 506 L 268 388 L 48 388 Z M 324 388 L 324 505 C 324 567 331 617 346 656 C 360 695 380 729 404 757 L 584 728 C 569 689 559 654 553 622 C 547 590 544 551 544 506 L 544 388 L 324 388 Z" unicode="“" />
<glyph horiz-adv-x="600" d="M 198 377 L 22 406 C 36 444 47 480 53 512 C 59 544 62 582 62 628 L 62 745 L 278 745 L 278 629 C 278 567 270 516 256 477 C 241 438 222 405 198 377 Z M 470 377 L 294 406 C 308 444 319 480 325 512 C 331 544 334 582 334 628 L 334 745 L 550 745 L 550 629 C 550 567 542 516 528 477 C 513 438 494 405 470 377 Z" unicode="”" />
<glyph horiz-adv-x="604" d="M 278 206 L 278 90 C 278 28 270 -22 256 -62 C 241 -101 222 -134 198 -162 L 22 -134 C 36 -95 47 -60 53 -28 C 59 4 62 43 62 89 L 62 206 L 278 206 Z M 554 206 L 554 90 C 554 28 546 -22 532 -62 C 517 -101 498 -134 474 -162 L 298 -134 C 312 -95 323 -60 329 -28 C 335 4 338 43 338 89 L 338 206 L 554 206 Z" unicode="„" />
<glyph horiz-adv-x="496" d="M 140 0 L 148 400 L 26 392 L 26 582 L 148 574 L 140 716 L 356 716 L 348 574 L 470 582 L 470 392 L 348 400 L 356 0 L 140 0 Z" unicode="†" />
<glyph horiz-adv-x="496" d="M 140 0 L 148 146 L 26 138 L 26 328 L 148 320 L 148 400 L 26 392 L 26 582 L 148 574 L 140 716 L 356 716 L 348 574 L 470 582 L 470 392 L 348 400 L 348 320 L 470 328 L 470 138 L 348 146 L 356 0 L 140 0 Z" unicode="‡" />
<glyph horiz-adv-x="380" d="M 52 122 L 52 398 L 328 398 L 328 122 L 52 122 Z" unicode="•" />
<glyph horiz-adv-x="725" d="M 48 0 L 48 152 L 201 152 L 201 0 L 48 0 Z M 284 0 L 284 152 L 437 152 L 437 0 L 284 0 Z M 520 0 L 520 152 L 673 152 L 673 0 L 520 0 Z" unicode="…" />
<glyph horiz-adv-x="1292" d="M 225 347 C 165 347 118 364 84 400 C 50 435 34 481 34 537 C 34 595 50 641 84 676 C 118 711 165 729 225 729 C 285 729 331 711 365 676 C 398 641 415 595 415 538 C 415 481 398 435 365 400 C 331 364 285 347 225 347 Z M 230 1 L 539 717 L 687 717 L 378 1 L 230 1 Z M 225 482 C 235 482 243 486 249 496 C 255 505 259 519 259 538 C 259 557 255 571 249 581 C 243 590 235 595 225 595 C 214 595 206 590 200 581 C 194 571 191 557 191 539 C 191 519 194 505 200 496 C 206 486 214 482 225 482 Z M 1066 -9 C 1006 -9 959 8 925 44 C 891 79 875 125 875 181 C 875 239 891 285 925 320 C 959 355 1006 373 1066 373 C 1126 373 1172 355 1206 320 C 1239 285 1256 239 1256 182 C 1256 125 1239 79 1206 44 C 1172 8 1126 -9 1066 -9 Z M 682 -12 C 622 -12 575 5 541 41 C 507 76 491 122 491 178 C 491 236 507 282 541 317 C 575 352 622 370 682 370 C 742 370 788 352 822 317 C 855 282 872 236 872 179 C 872 122 855 76 822 41 C 788 5 742 -12 682 -12 Z M 1066 126 C 1076 126 1084 130 1090 140 C 1096 149 1100 163 1100 182 C 1100 201 1096 215 1090 225 C 1084 234 1076 239 1066 239 C 1055 239 1047 234 1041 225 C 1035 215 1032 201 1032 183 C 1032 163 1035 149 1041 140 C 1047 130 1055 126 1066 126 Z M 682 123 C 692 123 700 127 706 137 C 712 146 716 160 716 179 C 716 198 712 212 706 222 C 700 231 692 236 682 236 C 671 236 663 231 657 222 C 651 212 648 198 648 180 C 648 160 651 146 657 137 C 663 127 671 123 682 123 Z" unicode="‰" />
<glyph horiz-adv-x="272" d="M 44 418 L 44 716 L 228 716 L 228 418 L 44 418 Z" unicode="′" />
<glyph horiz-adv-x="509" d="M 44 418 L 44 716 L 228 716 L 228 418 L 44 418 Z M 281 418 L 281 716 L 465 716 L 465 418 L 281 418 Z" unicode="″" />
<glyph horiz-adv-x="413" d="M 159 51 L 36 226 L 159 402 L 377 402 L 255 226 L 377 51 L 159 51 Z" unicode="‹" />
<glyph horiz-adv-x="413" d="M 36 51 L 158 226 L 36 402 L 254 402 L 377 226 L 254 51 L 36 51 Z" unicode="›" />
<glyph horiz-adv-x="185" d="M -136 0 L 173 716 L 321 716 L 12 0 L -136 0 Z" unicode="⁄" />
<glyph horiz-adv-x="427" d="M 213 427 C 153 427 106 444 72 480 C 38 515 22 561 22 617 C 22 675 38 721 72 756 C 106 791 153 809 213 809 C 273 809 319 791 353 756 C 386 721 403 675 403 618 C 403 561 386 515 353 480 C 319 444 273 427 213 427 Z M 213 562 C 223 562 231 566 237 576 C 243 585 247 599 247 618 C 247 637 243 651 237 661 C 231 670 223 675 213 675 C 202 675 194 670 188 661 C 182 651 179 637 179 619 C 179 599 182 585 188 576 C 194 566 202 562 213 562 Z" unicode="⁰" />
<glyph horiz-adv-x="368" d="M 169 440 L 169 490 L 20 490 L 20 599 L 135 796 L 311 796 L 311 591 L 346 591 L 346 489 L 311 489 L 311 440 L 169 440 Z M 169 591 L 169 675 L 119 591 L 169 591 Z" unicode="⁴" />
<glyph horiz-adv-x="343" d="M 160 426 C 138 426 115 427 93 430 C 70 432 46 437 22 443 L 22 552 C 41 546 60 541 79 539 C 97 536 117 535 139 535 C 149 535 157 537 161 541 C 165 545 167 551 167 557 C 167 564 163 569 157 573 C 151 577 141 579 129 579 C 114 579 98 578 80 576 C 62 574 42 572 22 570 L 35 800 L 299 800 L 299 685 L 144 685 L 142 655 C 149 655 156 656 163 656 C 170 656 175 657 179 657 C 225 657 260 648 284 631 C 307 613 319 586 319 549 C 319 512 305 482 279 460 C 253 437 213 426 160 426 Z" unicode="⁵" />
<glyph horiz-adv-x="390" d="M 190 428 C 138 428 97 443 67 473 C 37 503 22 543 22 594 C 22 661 42 714 83 753 C 124 792 173 812 230 812 C 256 812 277 810 291 808 C 305 806 323 803 344 799 L 344 690 C 327 694 310 698 293 700 C 275 702 259 704 245 704 C 226 704 211 700 199 694 C 187 688 179 678 173 664 C 181 668 190 672 200 675 C 210 677 222 679 236 679 C 272 679 303 670 328 654 C 353 638 366 610 366 571 C 366 529 350 495 318 468 C 286 441 243 428 190 428 Z M 194 533 C 202 533 209 536 214 544 C 219 551 222 560 222 572 C 222 581 219 589 214 595 C 209 601 203 605 195 605 C 186 605 179 602 174 596 C 169 590 167 581 167 571 C 167 559 169 550 174 543 C 178 536 185 533 194 533 Z" unicode="⁶" />
<glyph horiz-adv-x="345" d="M 46 440 L 147 670 L 22 670 L 22 800 L 321 800 L 321 711 L 205 440 L 46 440 Z" unicode="⁷" />
<glyph horiz-adv-x="385" d="M 191 426 C 134 426 92 435 64 455 C 36 475 22 500 22 532 C 22 548 26 563 36 577 C 46 590 61 601 81 610 C 63 620 49 632 40 646 C 30 660 26 677 26 697 C 26 731 39 759 67 779 C 95 799 136 810 190 810 C 243 810 283 801 311 785 C 339 768 353 743 353 711 C 353 696 348 682 339 668 C 329 654 316 642 298 632 C 318 621 334 608 345 593 C 355 577 361 560 361 541 C 361 507 346 479 318 458 C 289 436 247 426 191 426 Z M 191 665 L 203 662 C 207 666 210 670 212 675 C 214 680 216 685 216 691 C 216 701 213 708 208 713 C 203 718 197 721 190 721 C 182 721 176 718 171 714 C 166 709 164 702 164 694 C 164 686 166 680 171 675 C 176 669 183 666 191 665 Z M 163 547 C 163 540 165 534 171 529 C 176 524 183 522 192 522 C 200 522 207 524 212 528 C 217 532 220 538 220 547 C 220 555 217 561 211 567 C 205 572 197 576 188 578 L 179 580 C 174 576 170 572 167 566 C 164 560 163 553 163 547 Z" unicode="⁸" />
<glyph horiz-adv-x="390" d="M 158 426 C 131 426 110 427 96 429 C 82 431 64 435 44 439 L 44 548 C 60 543 77 539 95 537 C 112 535 128 534 143 534 C 162 534 178 537 190 544 C 202 551 211 562 217 578 C 208 572 198 568 188 566 C 177 563 165 562 152 562 C 115 562 84 570 59 586 C 34 602 22 630 22 670 C 22 710 38 743 70 770 C 102 796 144 810 198 810 C 249 810 290 795 320 765 C 350 735 366 696 366 646 C 366 578 345 525 304 485 C 263 445 214 426 158 426 Z M 193 636 C 201 636 208 639 213 645 C 218 651 221 659 221 670 C 221 680 218 689 214 696 C 209 702 202 706 194 706 C 185 706 178 702 173 695 C 168 688 166 679 166 669 C 166 659 168 651 173 645 C 178 639 185 636 193 636 Z" unicode="⁹" />
<glyph horiz-adv-x="430" d="M 28 440 L 28 800 L 191 800 L 191 761 C 201 775 214 786 228 796 C 242 805 261 810 286 810 C 317 810 344 799 367 778 C 390 756 402 728 402 692 L 402 440 L 238 440 L 238 646 C 238 652 236 658 232 663 C 228 667 222 670 214 670 C 209 670 204 669 200 667 C 196 665 193 663 191 660 L 191 440 L 28 440 Z" unicode="ⁿ" />
<glyph horiz-adv-x="427" d="M 213 -183 C 153 -183 106 -165 72 -130 C 38 -94 22 -49 22 7 C 22 65 38 111 72 146 C 106 181 153 199 213 199 C 273 199 319 181 353 146 C 386 111 403 65 403 8 C 403 -48 386 -94 353 -130 C 319 -165 273 -183 213 -183 Z M 213 -48 C 223 -48 231 -43 237 -34 C 243 -24 247 -10 247 8 C 247 27 243 41 237 51 C 231 60 223 65 213 65 C 202 65 194 60 188 51 C 182 41 179 27 179 9 C 179 -10 182 -24 188 -34 C 194 -43 202 -48 213 -48 Z" unicode="₀" />
<glyph horiz-adv-x="310" d="M 22 -170 L 22 -52 L 71 -52 L 71 64 L 22 60 L 22 178 L 238 196 L 238 -52 L 286 -52 L 286 -170 L 22 -170 Z" unicode="₁" />
<glyph horiz-adv-x="348" d="M 22 -170 L 22 -21 C 78 -10 116 0 136 12 C 156 24 167 36 167 49 C 167 58 163 65 155 70 C 147 75 136 78 120 78 C 104 78 88 75 72 71 C 56 67 41 61 27 55 L 27 180 C 49 186 71 191 93 195 C 115 199 137 201 161 201 C 216 201 257 189 284 165 C 310 141 324 114 324 83 C 324 50 313 23 292 3 C 271 -16 236 -34 186 -49 L 321 -49 L 321 -170 L 22 -170 Z" unicode="₂" />
<glyph horiz-adv-x="352" d="M 170 -184 C 144 -184 119 -183 95 -181 C 71 -179 46 -175 22 -170 L 22 -49 C 38 -55 54 -60 71 -63 C 88 -65 106 -67 124 -67 C 137 -67 148 -65 156 -63 C 164 -60 168 -55 168 -49 C 168 -42 162 -37 151 -34 C 140 -31 126 -30 110 -30 L 83 -30 L 83 48 L 104 48 C 122 48 135 49 145 52 C 155 55 160 60 160 66 C 160 72 156 77 150 80 C 143 82 134 84 124 84 C 107 84 91 82 76 80 C 60 77 45 72 30 66 L 30 186 C 51 190 73 194 96 196 C 118 198 142 200 166 200 C 218 200 256 191 282 173 C 307 155 320 131 320 101 C 320 78 313 59 299 43 C 285 27 263 17 235 11 C 266 5 289 -4 305 -20 C 320 -36 328 -54 328 -75 C 328 -108 315 -134 289 -154 C 263 -174 224 -184 170 -184 Z" unicode="₃" />
<glyph horiz-adv-x="368" d="M 169 -170 L 169 -120 L 20 -120 L 20 -11 L 135 186 L 311 186 L 311 -19 L 346 -19 L 346 -121 L 311 -121 L 311 -170 L 169 -170 Z M 169 -19 L 169 65 L 119 -19 L 169 -19 Z" unicode="₄" />
<glyph horiz-adv-x="343" d="M 160 -184 C 138 -184 115 -182 93 -180 C 70 -177 46 -173 22 -167 L 22 -58 C 41 -64 60 -68 79 -71 C 97 -73 117 -75 139 -75 C 149 -75 157 -72 161 -68 C 165 -64 167 -59 167 -53 C 167 -45 163 -40 157 -36 C 151 -32 141 -31 129 -31 C 114 -31 98 -31 80 -33 C 62 -35 42 -37 22 -40 L 35 190 L 299 190 L 299 75 L 144 75 L 142 45 C 149 45 156 46 163 46 C 170 46 175 47 179 47 C 225 47 260 38 284 21 C 307 3 319 -23 319 -61 C 319 -97 305 -127 279 -150 C 253 -172 213 -184 160 -184 Z" unicode="₅" />
<glyph horiz-adv-x="390" d="M 190 -184 C 138 -184 97 -169 67 -139 C 37 -109 22 -68 22 -18 C 22 49 42 102 83 141 C 124 180 173 200 230 200 C 256 200 277 198 291 196 C 305 194 323 191 344 187 L 344 78 C 327 82 310 86 293 88 C 275 90 259 92 245 92 C 226 92 211 88 199 82 C 187 76 179 66 173 52 C 181 56 190 60 200 63 C 210 65 222 67 236 67 C 272 67 303 58 328 42 C 353 26 366 -1 366 -41 C 366 -82 350 -116 318 -143 C 286 -170 243 -184 190 -184 Z M 194 -79 C 202 -79 209 -75 214 -68 C 219 -60 222 -51 222 -40 C 222 -30 219 -22 214 -16 C 209 -10 203 -7 195 -7 C 186 -7 179 -10 174 -16 C 169 -22 167 -30 167 -41 C 167 -52 169 -61 174 -68 C 178 -75 185 -79 194 -79 Z" unicode="₆" />
<glyph horiz-adv-x="345" d="M 46 -170 L 147 60 L 22 60 L 22 190 L 321 190 L 321 101 L 205 -170 L 46 -170 Z" unicode="₇" />
<glyph horiz-adv-x="385" d="M 191 -184 C 134 -184 92 -174 64 -154 C 36 -134 22 -109 22 -78 C 22 -61 26 -46 36 -33 C 46 -19 61 -8 81 0 C 63 10 49 22 40 36 C 30 50 26 67 26 87 C 26 121 39 149 67 169 C 95 189 136 200 190 200 C 243 200 283 191 311 175 C 339 158 353 133 353 101 C 353 86 348 72 339 58 C 329 44 316 32 298 22 C 318 11 334 -1 345 -17 C 355 -32 361 -49 361 -69 C 361 -103 346 -130 318 -152 C 289 -173 247 -184 191 -184 Z M 191 55 L 203 52 C 207 56 210 60 212 65 C 214 70 216 75 216 81 C 216 91 213 98 208 103 C 203 108 197 111 190 111 C 182 111 176 108 171 104 C 166 99 164 92 164 84 C 164 76 166 70 171 65 C 176 59 183 56 191 55 Z M 163 -63 C 163 -69 165 -75 171 -80 C 176 -85 183 -88 192 -88 C 200 -88 207 -86 212 -82 C 217 -78 220 -71 220 -63 C 220 -55 217 -48 211 -43 C 205 -37 197 -34 188 -32 L 179 -30 C 174 -33 170 -38 167 -44 C 164 -50 163 -56 163 -63 Z" unicode="₈" />
<glyph horiz-adv-x="390" d="M 158 -184 C 131 -184 110 -182 96 -180 C 82 -178 64 -175 44 -171 L 44 -62 C 60 -66 77 -70 95 -72 C 112 -74 128 -76 143 -76 C 162 -76 178 -72 190 -65 C 202 -58 211 -47 217 -32 C 208 -37 198 -41 188 -44 C 177 -46 165 -48 152 -48 C 115 -48 84 -39 59 -23 C 34 -7 22 20 22 60 C 22 100 38 133 70 160 C 102 186 144 200 198 200 C 249 200 290 185 320 155 C 350 125 366 86 366 36 C 366 -31 345 -84 304 -124 C 263 -164 214 -184 158 -184 Z M 193 26 C 201 26 208 29 213 35 C 218 41 221 49 221 60 C 221 70 218 79 214 86 C 209 92 202 96 194 96 C 185 96 178 92 173 85 C 168 78 166 69 166 59 C 166 49 168 41 173 35 C 178 29 185 26 193 26 Z" unicode="₉" />
<glyph horiz-adv-x="691" d="M 32 247 L 32 311 L 82 311 C 82 313 82 316 82 320 C 82 324 82 327 82 330 C 82 332 82 335 82 338 C 82 341 82 344 82 347 L 32 347 L 32 411 L 89 411 C 105 492 144 556 206 602 C 268 648 346 672 441 672 C 475 672 508 668 540 662 C 572 656 602 647 631 637 L 631 422 C 605 435 580 445 554 452 C 528 459 501 463 475 463 C 449 463 427 458 407 449 C 387 440 372 427 362 411 L 464 411 L 464 347 L 341 347 C 340 344 340 341 340 338 C 340 335 340 332 340 330 C 340 326 340 323 340 320 C 340 316 340 313 341 311 L 465 311 L 465 247 L 362 247 C 373 230 388 217 408 208 C 428 199 450 195 475 195 C 503 195 530 198 557 206 C 584 213 611 224 638 238 L 638 24 C 608 11 577 1 546 -4 C 515 -10 483 -14 450 -14 C 351 -14 270 9 208 56 C 145 102 106 166 90 247 L 32 247 Z" unicode="€" />
<glyph horiz-adv-x="662" d="M 54 0 L 54 658 L 169 658 L 169 786 L 282 786 L 282 658 L 342 658 L 342 786 L 455 786 L 455 652 C 505 643 544 625 572 598 C 599 570 613 535 613 492 C 613 451 603 417 583 390 C 563 363 533 343 495 331 C 539 321 573 304 596 278 C 618 252 630 219 630 179 C 630 131 615 92 586 62 C 556 32 513 12 455 4 L 455 -124 L 342 -124 L 342 0 L 282 0 L 282 -124 L 169 -124 L 169 0 L 54 0 Z M 287 400 L 319 400 C 335 400 349 406 359 416 C 369 426 374 439 374 456 C 374 472 369 486 359 496 C 349 506 335 511 319 511 L 287 511 L 287 400 Z M 287 157 L 330 157 C 348 157 362 162 372 172 C 382 182 388 195 388 212 C 388 229 382 242 372 252 C 362 262 348 267 330 268 L 287 268 L 287 157 Z" unicode="₿" />
<glyph horiz-adv-x="724" d="M 363 87 C 265 87 186 117 127 178 C 67 238 38 314 38 406 C 38 497 67 573 127 634 C 186 694 265 725 363 725 C 461 725 539 694 599 634 C 658 573 688 497 688 406 C 688 314 658 238 599 178 C 539 117 461 87 363 87 Z M 363 190 C 428 190 480 209 520 249 C 559 288 579 340 579 406 C 579 471 559 523 520 563 C 480 602 428 622 363 622 C 297 622 245 602 206 563 C 166 523 147 471 147 406 C 147 340 166 288 206 249 C 245 209 297 190 363 190 Z M 250 242 L 250 573 L 396 573 C 432 573 461 562 484 541 C 506 519 518 491 518 455 C 518 417 506 387 483 365 C 460 343 430 332 394 332 L 360 332 L 360 242 L 250 242 Z M 360 418 L 372 418 C 384 418 392 420 398 426 C 404 432 407 441 407 453 C 407 464 404 472 398 478 C 392 484 384 487 372 487 L 360 487 L 360 418 Z" unicode="℗" />
<glyph horiz-adv-x="764" d="M 94 402 L 94 614 L 26 614 L 26 716 L 284 716 L 284 614 L 218 614 L 218 402 L 94 402 Z M 311 402 L 311 716 L 487 716 L 515 589 L 540 716 L 722 716 L 722 402 L 601 402 L 601 594 L 558 419 L 452 419 L 409 592 L 409 402 L 311 402 Z" unicode="™" />
<glyph horiz-adv-x="627" d="M 310 -20 C 224 -20 156 1 106 45 C 55 89 30 152 30 234 C 30 303 49 360 89 404 C 128 448 181 470 247 470 C 259 470 270 469 281 468 C 291 467 301 466 310 464 C 285 481 255 494 219 504 C 183 514 142 519 96 519 L 96 724 C 276 724 404 682 481 598 C 558 514 597 415 597 301 C 597 196 570 116 517 62 C 464 7 395 -20 310 -20 Z M 315 165 C 330 165 342 171 350 184 C 358 196 362 214 362 238 C 362 261 358 279 350 292 C 342 304 330 311 314 311 C 298 311 286 304 278 292 C 270 279 266 261 266 238 C 266 214 270 196 278 184 C 286 171 298 165 315 165 Z" unicode="∂" />
<glyph horiz-adv-x="687" d="M 50 0 L 50 658 L 637 658 L 637 0 L 393 0 L 393 458 L 294 458 L 294 0 L 50 0 Z" unicode="∏" />
<glyph horiz-adv-x="639" d="M 60 0 L 60 174 L 217 339 L 60 489 L 60 658 L 579 658 L 579 459 L 387 459 L 505 347 L 379 216 L 581 216 L 581 0 L 60 0 Z" unicode="∑" />
<glyph horiz-adv-x="538" d="M 52 193 L 52 381 L 484 381 L 484 193 L 52 193 Z" unicode="−" />
<glyph horiz-adv-x="682" d="M 172 0 L 12 491 L 255 491 L 324 272 L 452 717 L 670 717 L 458 0 L 172 0 Z" unicode="√" />
<glyph horiz-adv-x="916" d="M 256 -12 C 194 -12 142 11 102 58 C 62 105 42 166 42 242 C 42 326 63 391 105 439 C 147 487 203 511 273 511 C 316 511 355 502 391 484 C 426 466 457 436 484 396 C 506 434 533 463 563 482 C 593 501 629 511 669 511 C 729 511 778 487 816 441 C 854 394 874 331 874 252 C 874 170 853 106 813 59 C 772 11 721 -12 659 -12 C 613 -12 572 -2 535 17 C 498 36 466 65 439 103 C 416 65 390 36 362 17 C 333 -2 298 -12 256 -12 Z M 621 317 C 607 317 595 311 583 301 C 571 291 560 277 551 261 C 563 235 576 215 589 202 C 601 189 615 183 631 183 C 643 183 654 189 664 201 C 674 213 679 229 679 250 C 679 270 673 287 662 299 C 651 311 637 317 621 317 Z M 238 250 C 238 229 243 213 253 201 C 263 189 277 183 294 183 C 308 183 322 188 335 198 C 347 208 359 220 369 236 C 355 263 342 283 330 297 C 318 310 304 317 290 317 C 274 317 262 311 252 299 C 242 287 238 270 238 250 Z" unicode="∞" />
<glyph horiz-adv-x="514" d="M 103 -223 C 87 -223 71 -222 55 -220 C 39 -218 22 -214 6 -210 L 6 -40 C 15 -42 24 -45 33 -47 C 41 -49 50 -50 60 -50 C 74 -50 86 -45 94 -36 C 102 -26 107 -14 110 2 L 180 538 C 188 602 213 650 255 682 C 297 713 349 729 411 729 C 427 729 443 728 459 726 C 475 724 491 720 508 716 L 508 546 C 498 548 489 551 481 553 C 472 555 463 556 454 556 C 439 556 428 551 420 542 C 412 532 406 520 404 505 L 334 -32 C 326 -94 301 -141 259 -174 C 217 -206 165 -223 103 -223 Z" unicode="∫" />
<glyph horiz-adv-x="475" d="M 62 313 L 52 491 C 62 505 75 515 92 523 C 109 531 127 535 146 535 C 161 535 176 532 192 528 C 207 524 221 519 234 514 C 245 509 258 505 274 501 C 289 497 304 496 319 496 C 335 496 351 498 368 504 C 384 510 398 518 408 528 L 418 350 C 408 336 394 325 376 317 C 358 309 338 305 318 305 C 302 305 286 307 272 311 C 258 315 245 319 233 324 C 220 329 206 334 191 338 C 175 342 161 344 147 344 C 131 344 116 341 101 336 C 85 330 72 323 62 313 Z M 68 63 L 58 241 C 67 255 80 265 97 273 C 114 281 132 285 151 285 C 166 285 181 282 197 278 C 213 274 227 269 240 264 C 251 259 264 255 279 251 C 294 247 309 246 324 246 C 340 246 357 248 373 254 C 389 259 403 267 413 278 L 423 100 C 414 86 400 75 382 67 C 363 59 344 55 324 55 C 307 55 291 57 277 61 C 263 65 250 69 238 74 C 225 78 211 83 196 87 C 181 91 167 94 153 94 C 137 94 122 91 107 86 C 91 80 78 73 68 63 Z" unicode="≈" />
<glyph horiz-adv-x="538" d="M 75 10 L 104 89 L 52 89 L 52 277 L 172 277 L 191 329 L 52 329 L 52 517 L 259 517 L 285 590 L 457 590 L 431 517 L 484 517 L 484 329 L 363 329 L 344 277 L 484 277 L 484 89 L 276 89 L 247 10 L 75 10 Z" unicode="≠" />
<glyph horiz-adv-x="540" d="M 231 68 L 52 297 L 233 525 L 488 525 L 307 298 L 488 68 L 231 68 Z M 64 -164 L 64 16 L 478 16 L 478 -164 L 64 -164 Z" unicode="≤" />
<glyph horiz-adv-x="540" d="M 52 68 L 233 298 L 52 525 L 307 525 L 488 297 L 309 68 L 52 68 Z M 62 -164 L 62 16 L 476 16 L 476 -164 L 62 -164 Z" unicode="≥" />
<glyph horiz-adv-x="779" d="M 390 -86 L 36 279 L 390 644 L 743 279 L 390 -86 Z M 390 165 L 493 279 L 390 393 L 287 279 L 390 165 Z" unicode="◊" />
<glyph horiz-adv-x="665" d="M 161 0 L 8 490 L 245 490 L 312 265 L 439 716 L 657 716 L 447 0 L 161 0 Z" unicode="✓" />
<glyph horiz-adv-x="722" d="M 41 0 L 41 191 L 191 191 L 191 212 C 141 226 101 250 72 285 C 42 320 28 365 28 421 C 28 492 58 552 118 601 C 178 649 259 674 361 674 C 463 674 544 650 604 602 C 664 554 694 495 694 427 C 694 369 679 322 650 286 C 621 250 582 225 532 212 L 532 191 L 681 191 L 681 0 L 385 0 L 385 279 C 401 282 416 292 428 308 C 440 324 446 346 446 374 C 446 402 438 425 422 443 C 406 460 385 469 361 469 C 337 469 316 460 300 443 C 284 426 276 403 276 375 C 276 347 282 326 294 310 C 306 294 321 283 338 279 L 338 0 L 41 0 Z" unicode="Ꞷ" />
<glyph horiz-adv-x="217" d="M 124 -266 L 8 -232 C 20 -208 28 -184 33 -162 C 37 -140 40 -115 40 -88 L 40 -40 L 193 -40 L 193 -88 C 193 -125 187 -157 177 -185 C 166 -213 148 -240 124 -266 Z" unicode="" />
<glyph horiz-adv-x="664" d="M 0 0 L 0 658 L 664 658 L 664 0 L 0 0 Z M 171 60 L 280 60 L 280 504 L 332 504 L 332 60 L 441 60 L 441 330 L 447 330 C 489 330 522 343 547 370 C 572 397 585 428 585 464 C 585 500 571 531 544 558 C 516 584 480 598 434 598 L 75 598 L 75 504 L 171 504 L 171 60 Z" unicode="" />
<glyph horiz-adv-x="689" d="M 73 0 L 73 318 L 24 318 L 24 490 L 73 490 L 73 522 C 73 585 93 635 135 672 C 176 709 238 728 320 728 C 344 728 367 726 390 723 C 413 720 435 716 455 712 L 455 539 C 439 543 423 547 408 549 C 392 551 376 553 360 553 C 341 553 326 548 316 539 C 305 530 300 517 300 501 L 300 490 L 367 490 L 367 318 L 300 318 L 300 0 L 73 0 Z M 419 0 L 419 490 L 646 490 L 646 0 L 419 0 Z" unicode="ﬁ" />
<glyph horiz-adv-x="689" d="M 73 0 L 73 318 L 24 318 L 24 490 L 73 490 L 73 522 C 73 585 93 635 135 672 C 176 709 238 728 320 728 C 340 728 361 727 381 725 C 401 723 420 720 438 716 L 646 716 L 646 0 L 419 0 L 419 548 C 409 549 400 550 390 551 C 380 552 370 553 360 553 C 341 553 326 548 316 539 C 305 530 300 517 300 501 L 300 490 L 367 490 L 367 318 L 300 318 L 300 0 L 73 0 Z" unicode="ﬂ" />
</font>
</defs>
</svg>
