<?xml version="1.0" encoding="utf-8" ?><svg version="1.1" xmlns = 'http://www.w3.org/2000/svg'><defs><font id='web' horiz-adv-x="1000">
<font-face font-family="web" descent="-252" cap-height="658" units-per-em="1000" bbox="-189,-336,1255,991" x-height="470" ascent="748" />
<missing-glyph horiz-adv-x="500" d="M 50 -252 L 450 -252 L 450 748 L 50 748 L 50 -252 Z M 100 -202 L 100 698 L 400 698 L 400 -202 L 100 -202 Z" /><glyph horiz-adv-x="200" d="" unicode=" " />
<glyph horiz-adv-x="261" d="M 95 217 L 162 700 L 294 700 L 227 217 L 95 217 Z M 64 0 L 83 132 L 215 132 L 196 0 L 64 0 Z" unicode="!" />
<glyph horiz-adv-x="388" d="M 120 455 L 157 716 L 269 716 L 232 455 L 120 455 Z M 284 455 L 321 716 L 433 716 L 396 455 L 284 455 Z" unicode="&#x22;" />
<glyph horiz-adv-x="607" d="M 66 69 L 83 187 L 162 187 L 194 300 L 113 300 L 130 418 L 227 418 L 257 526 L 375 526 L 345 418 L 429 418 L 459 526 L 577 526 L 547 418 L 610 418 L 593 300 L 514 300 L 482 187 L 564 187 L 547 69 L 449 69 L 418 -40 L 300 -40 L 331 69 L 247 69 L 216 -40 L 98 -40 L 129 69 L 66 69 Z M 280 187 L 364 187 L 396 300 L 312 300 L 280 187 Z" unicode="#" />
<glyph horiz-adv-x="507" d="M 186 -102 L 199 -14 C 172 -12 147 -7 123 -1 C 99 5 77 15 55 27 L 75 171 C 100 152 127 138 156 129 C 184 120 214 116 245 116 C 277 116 302 122 320 136 C 337 149 346 167 346 189 C 346 207 339 223 326 237 C 312 250 291 262 261 274 L 248 279 C 201 297 166 320 142 350 C 118 380 106 415 106 455 C 106 509 123 555 159 595 C 194 634 239 658 294 668 L 307 762 L 431 762 L 417 665 C 435 662 453 658 471 652 C 489 646 506 640 523 632 L 502 487 C 475 505 448 519 421 528 C 393 537 366 542 340 542 C 312 542 291 536 276 524 C 261 512 254 495 254 475 C 254 458 261 443 275 431 C 289 419 313 406 345 394 L 358 389 C 402 371 436 348 459 318 C 482 288 494 253 494 213 C 494 161 478 116 446 77 C 414 38 374 11 324 -3 L 310 -102 L 186 -102 Z" unicode="$" />
<glyph horiz-adv-x="903" d="M 270 352 C 222 352 184 366 155 395 C 125 423 111 462 111 512 C 111 578 129 631 166 670 C 202 708 247 728 299 728 C 347 728 385 713 414 685 C 443 656 458 617 458 568 C 458 502 439 449 403 410 C 366 371 322 352 270 352 Z M 244 0 L 644 716 L 762 716 L 362 0 L 244 0 Z M 276 452 C 295 452 311 461 323 481 C 335 500 342 527 342 561 C 342 581 337 598 328 610 C 318 622 307 628 293 628 C 273 628 257 618 245 598 C 233 578 227 552 227 519 C 227 496 231 479 241 468 C 251 457 262 452 276 452 Z M 705 -8 C 657 -8 619 6 590 35 C 560 63 546 102 546 152 C 546 218 564 271 601 310 C 637 348 682 368 734 368 C 782 368 820 353 849 325 C 878 296 893 257 893 208 C 893 142 874 89 838 50 C 801 11 757 -8 705 -8 Z M 711 92 C 730 92 746 101 758 121 C 770 140 777 167 777 201 C 777 221 772 238 763 250 C 753 262 742 268 728 268 C 708 268 692 258 680 238 C 668 218 662 192 662 159 C 662 136 666 119 676 108 C 686 97 697 92 711 92 Z" unicode="%" />
<glyph horiz-adv-x="624" d="M 483 -92 C 450 -92 423 -84 401 -68 C 379 -52 371 -28 376 2 L 380 27 L 397 86 C 373 47 347 21 320 7 C 293 -7 265 -14 235 -14 C 197 -14 160 -1 125 23 C 89 48 72 91 72 151 C 72 181 82 214 104 250 C 125 285 164 311 220 327 C 180 341 151 360 133 386 C 115 412 106 443 106 480 C 106 542 128 589 172 623 C 216 657 277 674 353 674 C 379 674 407 671 436 665 C 465 659 492 651 516 642 L 497 510 C 476 522 453 532 428 539 C 402 546 378 550 354 550 C 316 550 288 542 272 527 C 255 512 247 492 247 466 C 247 446 256 428 276 413 C 295 397 324 390 362 390 L 430 390 L 444 491 L 581 491 L 567 390 L 651 390 L 634 268 L 550 268 L 523 80 C 520 64 522 53 529 45 C 536 37 546 34 558 34 C 564 34 571 34 579 36 C 586 38 594 40 602 44 L 586 -72 C 570 -78 553 -83 535 -87 C 517 -90 499 -92 483 -92 Z M 298 116 C 316 116 337 123 362 139 C 387 155 403 187 409 236 L 413 268 L 351 268 C 307 268 274 260 254 246 C 234 232 224 211 224 185 C 224 166 229 150 241 136 C 253 122 272 116 298 116 Z" unicode="&#x26;" />
<glyph horiz-adv-x="236" d="M 120 454 L 157 716 L 281 716 L 244 454 L 120 454 Z" unicode="'" />
<glyph horiz-adv-x="402" d="M 232 -210 C 194 -140 165 -71 145 -3 C 125 65 116 134 116 206 C 116 300 133 389 168 471 C 203 553 257 635 331 716 L 489 716 C 407 634 347 553 309 471 C 271 389 252 301 252 208 C 252 142 261 76 280 8 C 298 -60 329 -132 372 -210 L 232 -210 Z" unicode="(" />
<glyph horiz-adv-x="402" d="M -14 -210 C 68 -128 127 -47 165 35 C 202 117 221 204 221 298 C 221 363 211 430 193 498 C 174 566 143 638 101 716 L 241 716 C 279 646 307 577 327 509 C 347 441 357 371 357 300 C 357 205 339 116 303 32 C 267 -52 214 -132 144 -210 L -14 -210 Z" unicode=")" />
<glyph horiz-adv-x="609" d="M 221 -24 L 104 72 L 250 198 L 75 223 L 147 377 L 294 293 L 287 470 L 450 470 L 394 291 L 567 377 L 596 222 L 414 197 L 526 72 L 380 -23 L 324 138 L 221 -24 Z" unicode="*" />
<glyph horiz-adv-x="492" d="M 196 87 L 217 235 L 77 235 L 94 353 L 236 353 L 257 501 L 381 501 L 360 353 L 498 353 L 481 235 L 341 235 L 320 87 L 196 87 Z" unicode="+" />
<glyph horiz-adv-x="232" d="M 71 -203 L -11 -134 C 11 -108 28 -83 38 -60 C 48 -36 55 -8 60 26 L 75 132 L 207 132 L 193 35 C 185 -21 170 -69 149 -107 C 127 -145 101 -177 71 -203 Z" unicode="," />
<glyph horiz-adv-x="392" d="M 82 188 L 99 306 L 379 306 L 362 188 L 82 188 Z" unicode="-" />
<glyph horiz-adv-x="220" d="M 44 0 L 63 132 L 195 132 L 176 0 L 44 0 Z" unicode="." />
<glyph horiz-adv-x="487" d="M 20 0 L 418 716 L 568 716 L 170 0 L 20 0 Z" unicode="/" />
<glyph horiz-adv-x="640" d="M 339 -16 C 261 -16 200 8 155 58 C 109 107 87 174 87 260 C 87 379 116 478 174 556 C 232 634 305 674 394 674 C 472 674 534 647 579 595 C 623 543 646 477 646 398 C 646 278 617 179 559 101 C 501 23 427 -16 339 -16 Z M 338 116 C 384 116 422 140 453 190 C 484 239 500 305 500 387 C 500 435 490 472 471 500 C 451 527 426 541 396 541 C 346 541 306 515 277 463 C 248 411 234 346 234 270 C 234 222 243 185 262 157 C 280 129 306 116 338 116 Z" unicode="0" />
<glyph horiz-adv-x="397" d="M 157 0 L 231 528 L 100 510 L 118 642 L 392 674 L 297 0 L 157 0 Z" unicode="1" />
<glyph horiz-adv-x="544" d="M 52 0 L 79 192 L 136 212 C 217 240 284 277 336 323 C 388 368 414 414 414 460 C 414 484 405 504 389 518 C 373 532 351 540 323 540 C 290 540 258 535 227 525 C 195 515 165 500 136 480 L 156 625 C 185 640 216 652 249 660 C 281 668 313 672 344 672 C 410 672 463 654 502 619 C 541 583 561 535 561 475 C 561 413 535 353 485 295 C 435 237 366 192 279 159 L 230 140 L 510 140 L 490 0 L 52 0 Z" unicode="2" />
<glyph horiz-adv-x="523" d="M 251 -14 C 211 -14 175 -10 144 -3 C 112 3 82 14 52 29 L 72 170 C 98 152 127 139 157 131 C 187 122 219 118 251 118 C 287 118 314 124 332 136 C 350 148 359 167 359 192 C 359 214 349 231 330 244 C 310 256 282 263 244 263 L 196 263 L 215 395 L 254 395 C 298 395 332 402 354 418 C 376 433 387 454 387 481 C 387 500 379 515 365 525 C 351 535 329 540 301 540 C 274 540 247 535 219 527 C 191 519 162 506 133 490 L 152 627 C 184 641 215 652 244 659 C 273 666 304 670 338 670 C 392 670 438 657 476 633 C 514 608 533 566 533 507 C 533 467 519 431 492 398 C 465 364 428 342 380 332 C 417 323 446 306 467 281 C 488 256 499 225 499 187 C 499 122 477 72 433 38 C 389 3 328 -14 251 -14 Z" unicode="3" />
<glyph horiz-adv-x="604" d="M 337 0 L 358 148 L 61 148 L 74 241 L 379 658 L 569 658 L 515 272 L 598 272 L 581 148 L 498 148 L 477 0 L 337 0 Z M 375 272 L 407 498 L 242 272 L 375 272 Z" unicode="4" />
<glyph horiz-adv-x="542" d="M 224 -12 C 192 -12 162 -8 134 -2 C 106 4 78 14 52 28 L 71 167 C 95 151 122 140 150 132 C 178 124 208 120 240 120 C 280 120 311 127 332 142 C 353 157 364 179 364 208 C 364 233 354 252 335 265 C 315 277 287 284 249 284 C 222 284 195 282 167 280 C 139 278 114 274 90 270 L 166 658 L 548 658 L 529 526 L 277 526 L 254 409 C 262 409 271 410 281 411 C 291 411 300 412 309 412 C 373 412 424 395 462 362 C 500 328 519 283 519 227 C 519 153 492 95 439 52 C 386 9 314 -12 224 -12 Z" unicode="5" />
<glyph horiz-adv-x="581" d="M 311 -12 C 241 -12 186 9 145 52 C 104 94 84 157 84 241 C 84 367 119 471 190 551 C 260 631 345 672 443 672 C 468 672 491 670 513 666 C 534 662 556 656 580 648 L 560 511 C 541 520 520 527 498 533 C 476 539 455 542 437 542 C 399 542 361 529 323 505 C 285 480 258 438 242 379 C 259 399 280 415 304 427 C 328 439 354 445 383 445 C 439 445 484 427 518 391 C 551 355 568 307 568 246 C 568 166 543 103 494 57 C 445 11 384 -12 311 -12 Z M 316 112 C 349 112 375 123 395 145 C 415 167 425 195 425 229 C 425 259 417 282 402 298 C 386 314 367 323 344 323 C 318 323 294 315 272 300 C 250 285 234 265 224 239 C 220 203 226 172 242 148 C 258 124 283 112 316 112 Z" unicode="6" />
<glyph horiz-adv-x="527" d="M 124 0 L 393 526 L 118 526 L 137 658 L 575 658 L 560 554 L 276 0 L 124 0 Z" unicode="7" />
<glyph horiz-adv-x="581" d="M 298 -16 C 233 -16 179 0 136 30 C 93 61 72 104 72 158 C 72 197 83 232 107 262 C 130 292 163 316 205 334 C 181 351 163 371 150 395 C 137 419 131 445 131 474 C 131 536 154 585 200 621 C 246 657 304 675 374 675 C 433 675 482 660 522 632 C 562 604 582 565 582 517 C 582 484 571 454 551 427 C 530 399 501 377 464 361 C 496 341 520 317 536 291 C 552 264 560 236 560 207 C 560 138 535 84 485 44 C 435 4 373 -16 298 -16 Z M 347 408 L 359 405 C 384 414 403 426 416 442 C 429 458 436 475 436 493 C 436 509 429 523 417 534 C 404 545 386 551 364 551 C 337 551 316 544 300 531 C 284 518 277 502 277 484 C 277 467 283 452 296 438 C 308 424 325 414 347 408 Z M 223 180 C 223 159 230 142 246 128 C 262 114 283 108 310 108 C 341 108 366 116 384 132 C 402 148 411 169 411 194 C 411 214 403 231 388 246 C 372 261 350 273 322 282 L 312 285 C 284 275 262 261 246 242 C 230 223 223 202 223 180 Z" unicode="8" />
<glyph horiz-adv-x="580" d="M 230 -12 C 206 -12 182 -10 159 -6 C 136 -2 114 4 93 12 L 113 149 C 133 138 154 130 175 125 C 195 120 216 118 236 118 C 274 118 311 130 349 155 C 387 179 414 221 431 281 C 413 260 393 244 369 232 C 345 220 318 215 290 215 C 233 215 188 232 155 267 C 121 302 105 350 105 410 C 105 484 129 547 178 597 C 227 647 288 672 362 672 C 431 672 486 650 527 608 C 568 565 589 502 589 419 C 589 292 553 188 483 108 C 412 28 328 -12 230 -12 Z M 329 337 C 355 337 378 344 400 359 C 422 374 438 395 449 421 C 453 457 446 487 430 511 C 414 535 389 548 357 548 C 325 548 299 536 279 514 C 258 491 248 462 248 427 C 248 398 255 376 271 360 C 286 344 305 337 329 337 Z" unicode="9" />
<glyph horiz-adv-x="225" d="M 84 284 L 103 416 L 235 416 L 216 284 L 84 284 Z M 44 0 L 63 132 L 195 132 L 176 0 L 44 0 Z" unicode=":" />
<glyph horiz-adv-x="237" d="M 97 285 L 116 417 L 248 417 L 229 285 L 97 285 Z M 71 -202 L -11 -133 C 11 -107 28 -82 38 -59 C 48 -35 55 -7 60 27 L 75 133 L 207 133 L 193 36 C 185 -20 170 -68 149 -106 C 127 -144 101 -176 71 -202 Z" unicode=";" />
<glyph horiz-adv-x="525" d="M 291 84 L 102 299 L 354 516 L 538 516 L 286 299 L 477 84 L 291 84 Z" unicode="&#x3C;" />
<glyph horiz-adv-x="553" d="M 108 338 L 125 456 L 557 456 L 540 338 L 108 338 Z M 79 134 L 96 252 L 528 252 L 511 134 L 79 134 Z" unicode="=" />
<glyph horiz-adv-x="524" d="M 72 84 L 323 299 L 133 516 L 317 516 L 507 299 L 258 84 L 72 84 Z" unicode="&#x3E;" />
<glyph horiz-adv-x="484" d="M 195 217 C 199 255 210 288 227 318 C 244 348 269 378 303 408 C 331 434 351 455 361 471 C 371 487 376 503 376 519 C 376 541 366 559 348 572 C 329 585 304 592 272 592 C 246 592 220 588 192 581 C 164 573 139 563 117 551 L 137 685 C 161 694 190 701 222 707 C 254 713 285 716 316 716 C 378 716 428 700 465 669 C 501 638 520 598 520 549 C 520 517 510 486 492 455 C 473 423 446 392 410 361 C 381 336 360 312 347 289 C 334 266 326 242 323 217 L 195 217 Z M 165 0 L 183 132 L 315 132 L 297 0 L 165 0 Z" unicode="?" />
<glyph horiz-adv-x="812" d="M 395 -74 C 307 -74 233 -45 174 10 C 115 66 86 143 86 240 C 86 360 124 455 202 525 C 279 595 376 630 492 630 C 581 630 655 605 715 555 C 775 505 805 438 805 353 C 805 277 788 218 754 174 C 720 130 678 108 628 108 C 603 108 580 113 558 123 C 536 133 519 151 507 178 C 493 153 474 135 452 124 C 430 113 407 108 385 108 C 351 108 323 119 301 143 C 279 167 268 199 268 240 C 268 302 286 351 324 387 C 362 423 409 441 465 441 C 483 441 505 438 529 434 C 553 429 576 423 597 415 L 578 274 C 574 249 578 228 588 211 C 598 194 613 186 634 186 C 659 186 679 201 694 233 C 709 265 717 304 717 352 C 717 407 696 453 656 490 C 616 527 561 546 492 546 C 394 546 316 517 259 459 C 202 401 174 328 174 242 C 174 176 193 120 233 76 C 273 32 327 10 395 10 C 421 10 452 14 486 22 C 520 30 549 41 573 54 L 573 -37 C 548 -47 519 -56 485 -63 C 451 -70 421 -74 395 -74 Z M 411 190 C 429 190 446 200 460 222 C 474 243 484 270 489 302 L 497 353 C 492 355 485 357 476 359 C 467 361 458 362 449 362 C 421 362 400 351 384 330 C 368 309 360 283 360 252 C 360 234 364 219 373 207 C 382 195 395 190 411 190 Z" unicode="@" />
<glyph horiz-adv-x="687" d="M 16 0 L 370 658 L 501 658 L 671 0 L 524 0 L 490 140 L 234 140 L 161 0 L 16 0 Z M 297 264 L 460 264 L 435 370 L 410 489 L 352 370 L 297 264 Z" unicode="A" />
<glyph horiz-adv-x="554" d="M 64 0 L 156 658 L 344 658 C 414 658 466 644 500 617 C 534 590 551 552 551 503 C 551 463 540 427 518 397 C 496 367 463 345 420 333 C 456 324 485 308 505 285 C 525 262 535 233 535 197 C 535 135 512 87 468 52 C 423 17 355 0 263 0 L 64 0 Z M 259 389 L 321 389 C 351 389 373 396 387 410 C 401 424 409 444 409 470 C 409 491 403 507 391 519 C 379 530 360 536 336 536 L 280 536 L 259 389 Z M 222 122 L 290 122 C 324 122 350 129 367 144 C 384 158 393 179 393 206 C 393 227 385 243 371 255 C 357 267 335 273 306 273 L 243 273 L 222 122 Z" unicode="B" />
<glyph horiz-adv-x="652" d="M 408 -16 C 308 -16 229 13 173 71 C 117 129 89 201 89 287 C 89 398 124 490 196 564 C 267 637 364 674 486 674 C 522 674 557 670 591 662 C 625 654 657 641 687 625 L 667 485 C 636 503 605 518 573 528 C 541 538 508 544 473 544 C 399 544 340 521 297 475 C 254 429 233 370 233 297 C 233 245 250 201 284 166 C 318 131 364 114 422 114 C 460 114 496 119 530 130 C 564 141 598 157 633 179 L 613 36 C 579 18 544 4 510 -3 C 476 -11 442 -16 408 -16 Z" unicode="C" />
<glyph horiz-adv-x="696" d="M 64 0 L 156 658 L 385 658 C 482 658 559 631 615 577 C 671 523 699 453 699 367 C 699 258 662 170 588 102 C 514 34 414 0 290 0 L 64 0 Z M 223 132 L 309 132 C 385 132 445 153 489 195 C 533 237 555 292 555 360 C 555 408 538 447 506 479 C 474 510 429 526 373 526 L 278 526 L 223 132 Z" unicode="D" />
<glyph horiz-adv-x="530" d="M 64 0 L 156 658 L 553 658 L 534 526 L 278 526 L 260 399 L 507 399 L 488 267 L 242 267 L 223 132 L 489 132 L 470 0 L 64 0 Z" unicode="E" />
<glyph horiz-adv-x="474" d="M 64 0 L 156 658 L 526 658 L 507 526 L 278 526 L 259 388 L 475 388 L 456 256 L 240 256 L 204 0 L 64 0 Z" unicode="F" />
<glyph horiz-adv-x="699" d="M 406 -16 C 306 -16 228 12 172 69 C 116 125 88 195 88 279 C 88 391 124 484 196 560 C 268 636 365 674 487 674 C 525 674 564 670 603 662 C 641 654 675 643 703 629 L 684 492 C 657 507 625 519 587 529 C 549 539 513 544 477 544 C 403 544 343 520 299 472 C 254 424 232 364 232 291 C 232 240 248 198 282 165 C 316 131 360 115 416 115 C 436 115 455 116 473 119 C 491 121 506 125 520 131 L 535 238 L 403 238 L 422 370 L 695 370 L 649 43 C 609 23 568 8 527 -1 C 486 -11 446 -16 406 -16 Z" unicode="G" />
<glyph horiz-adv-x="692" d="M 64 0 L 156 658 L 297 658 L 261 399 L 543 399 L 579 658 L 720 658 L 628 0 L 487 0 L 525 267 L 243 267 L 205 0 L 64 0 Z" unicode="H" />
<glyph horiz-adv-x="269" d="M 64 0 L 156 658 L 297 658 L 205 0 L 64 0 Z" unicode="I" />
<glyph horiz-adv-x="275" d="M -45 -210 L -53 -210 L -35 -80 L -27 -80 C 0 -80 21 -74 38 -62 C 54 -50 65 -28 70 6 L 162 658 L 303 658 L 212 7 C 201 -72 172 -128 125 -161 C 77 -193 21 -210 -45 -210 Z" unicode="J" />
<glyph horiz-adv-x="652" d="M 64 0 L 156 658 L 297 658 L 255 363 L 543 658 L 715 658 L 397 335 L 636 0 L 462 0 L 249 311 L 205 0 L 64 0 Z" unicode="K" />
<glyph horiz-adv-x="476" d="M 64 0 L 156 658 L 297 658 L 224 132 L 471 132 L 452 0 L 64 0 Z" unicode="L" />
<glyph horiz-adv-x="826" d="M 64 0 L 156 658 L 358 658 L 419 418 L 448 283 L 513 418 L 640 658 L 854 658 L 762 0 L 624 0 L 676 370 L 701 514 L 626 370 L 497 130 L 361 130 L 297 370 L 264 506 L 250 370 L 198 0 L 64 0 Z" unicode="M" />
<glyph horiz-adv-x="715" d="M 64 0 L 156 658 L 298 658 L 504 294 L 548 209 L 558 294 L 609 658 L 743 658 L 651 0 L 511 0 L 302 370 L 260 451 L 250 370 L 198 0 L 64 0 Z" unicode="N" />
<glyph horiz-adv-x="772" d="M 405 -16 C 315 -16 239 11 179 66 C 119 121 89 195 89 289 C 89 399 123 491 192 564 C 261 637 349 674 457 674 C 547 674 623 646 684 591 C 744 535 775 460 775 366 C 775 255 740 164 670 92 C 600 20 512 -16 405 -16 Z M 409 116 C 475 116 528 138 569 184 C 610 229 631 288 631 360 C 631 412 615 455 583 490 C 551 524 508 542 454 542 C 388 542 334 519 294 474 C 253 428 233 370 233 298 C 233 246 248 202 280 168 C 312 133 355 116 409 116 Z" unicode="O" />
<glyph horiz-adv-x="534" d="M 64 0 L 156 658 L 334 658 C 403 658 458 639 499 603 C 539 567 560 519 560 460 C 560 391 534 332 484 284 C 434 236 365 212 279 212 L 235 212 L 205 0 L 64 0 Z M 252 338 L 291 338 C 327 338 357 347 381 367 C 405 387 418 413 418 446 C 418 471 409 491 392 506 C 374 520 351 528 321 528 L 279 528 L 252 338 Z" unicode="P" />
<glyph horiz-adv-x="776" d="M 405 -16 C 315 -16 239 11 179 66 C 119 121 89 195 89 289 C 89 399 123 491 192 564 C 261 637 349 674 457 674 C 547 674 623 646 684 591 C 744 535 775 460 775 366 C 775 291 758 225 726 167 C 694 109 650 64 595 32 C 613 19 633 8 654 -1 C 674 -11 695 -18 717 -24 L 675 -159 C 627 -145 580 -127 536 -103 C 491 -79 452 -50 419 -16 C 416 -16 414 -16 412 -16 C 410 -16 407 -16 405 -16 Z M 409 116 C 475 116 528 138 569 184 C 610 229 631 288 631 360 C 631 412 615 455 583 490 C 551 524 508 542 454 542 C 388 542 334 519 294 474 C 253 428 233 370 233 298 C 233 246 248 202 280 168 C 312 133 355 116 409 116 Z" unicode="Q" />
<glyph horiz-adv-x="571" d="M 64 0 L 157 658 L 368 658 C 432 658 482 643 517 615 C 551 586 569 546 569 494 C 569 448 555 408 529 376 C 502 344 465 322 418 310 C 444 303 466 291 483 274 C 499 257 510 235 515 209 L 555 0 L 411 0 L 379 181 C 374 206 364 225 350 237 C 335 249 317 255 296 255 L 241 255 L 205 0 L 64 0 Z M 258 373 L 327 373 C 352 373 373 382 390 400 C 407 418 416 439 416 464 C 416 484 409 501 397 513 C 385 525 368 532 348 532 L 280 532 L 258 373 Z" unicode="R" />
<glyph horiz-adv-x="514" d="M 241 -15 C 207 -15 175 -11 145 -5 C 115 1 86 12 59 27 L 79 171 C 104 152 131 138 160 129 C 188 120 218 116 249 116 C 281 116 306 122 324 136 C 341 149 350 167 350 189 C 350 207 343 223 330 237 C 316 250 295 262 265 274 L 252 279 C 205 297 170 320 146 350 C 122 380 110 415 110 455 C 110 517 132 568 177 610 C 222 651 278 672 346 672 C 376 672 407 668 438 662 C 468 655 498 645 527 632 L 506 487 C 479 505 452 519 425 528 C 397 537 370 542 344 542 C 316 542 295 536 280 524 C 265 512 258 495 258 475 C 258 458 265 443 279 431 C 293 419 317 406 349 394 L 362 389 C 406 371 440 348 463 318 C 486 288 498 253 498 213 C 498 147 473 93 424 50 C 375 6 314 -15 241 -15 Z" unicode="S" />
<glyph horiz-adv-x="565" d="M 212 0 L 286 526 L 94 526 L 113 658 L 637 658 L 618 526 L 426 526 L 352 0 L 212 0 Z" unicode="T" />
<glyph horiz-adv-x="673" d="M 357 -12 C 265 -12 196 15 148 69 C 100 123 82 189 93 266 L 148 658 L 288 658 L 232 262 C 226 220 234 185 257 159 C 280 133 315 120 361 120 C 403 120 439 133 468 159 C 497 185 515 219 521 261 L 577 658 L 709 658 L 653 257 C 641 171 608 104 555 58 C 502 11 436 -12 357 -12 Z" unicode="U" />
<glyph horiz-adv-x="688" d="M 283 0 L 108 658 L 259 658 L 351 288 L 371 188 L 419 288 L 615 658 L 764 658 L 405 0 L 283 0 Z" unicode="V" />
<glyph horiz-adv-x="984" d="M 217 0 L 108 658 L 256 658 L 308 288 L 317 184 L 354 288 L 509 658 L 662 658 L 714 288 L 723 183 L 759 288 L 914 658 L 1060 658 L 767 0 L 620 0 L 570 370 L 560 480 L 519 370 L 364 0 L 217 0 Z" unicode="W" />
<glyph horiz-adv-x="663" d="M 16 0 L 299 343 L 125 658 L 287 658 L 365 507 L 394 445 L 441 507 L 564 658 L 734 658 L 461 335 L 647 0 L 485 0 L 394 172 L 367 226 L 323 172 L 186 0 L 16 0 Z" unicode="X" />
<glyph horiz-adv-x="642" d="M 250 0 L 286 255 L 100 658 L 257 658 L 344 464 L 373 390 L 420 464 L 559 658 L 722 658 L 426 257 L 390 0 L 250 0 Z" unicode="Y" />
<glyph horiz-adv-x="587" d="M 40 0 L 51 78 L 361 466 L 411 526 L 124 526 L 143 658 L 639 658 L 629 580 L 318 191 L 269 132 L 566 132 L 547 0 L 40 0 Z" unicode="Z" />
<glyph horiz-adv-x="372" d="M 51 -210 L 181 716 L 412 716 L 396 600 L 296 600 L 198 -94 L 298 -94 L 282 -210 L 51 -210 Z" unicode="[" />
<glyph horiz-adv-x="495" d="M 339 0 L 121 716 L 257 716 L 475 0 L 339 0 Z" unicode="\" />
<glyph horiz-adv-x="372" d="M 31 -210 L 47 -94 L 147 -94 L 245 600 L 145 600 L 161 716 L 392 716 L 262 -210 L 31 -210 Z" unicode="]" />
<glyph horiz-adv-x="376" d="M 110 524 L 225 674 L 341 674 L 414 524 L 303 524 L 271 588 L 221 524 L 110 524 Z" unicode="^" />
<glyph horiz-adv-x="500" d="M -30 -210 L -13 -92 L 487 -92 L 470 -210 L -30 -210 Z" unicode="_" />
<glyph horiz-adv-x="239" d="M 157 524 L 51 674 L 209 674 L 297 524 L 157 524 Z" unicode="`" />
<glyph horiz-adv-x="543" d="M 228 -10 C 180 -10 140 6 108 39 C 76 71 61 119 61 181 C 61 268 88 340 144 396 C 200 452 269 480 353 480 C 382 480 415 476 453 468 C 491 460 523 451 550 440 L 511 161 C 507 134 504 108 502 82 C 500 56 499 28 499 0 L 363 0 L 363 70 C 345 41 325 20 302 8 C 278 -3 254 -10 228 -10 Z M 271 110 C 300 110 325 124 347 154 C 368 183 382 223 390 273 L 401 349 C 390 353 379 357 368 359 C 356 361 344 362 332 362 C 296 362 264 345 237 313 C 210 281 197 242 197 198 C 197 168 203 145 215 131 C 227 117 246 110 271 110 Z" unicode="a" />
<glyph horiz-adv-x="532" d="M 246 -10 C 218 -10 185 -7 147 -3 C 109 0 75 6 46 13 L 145 716 L 282 716 L 246 461 L 235 398 C 250 424 269 445 293 459 C 317 473 345 480 377 480 C 423 480 461 462 492 427 C 522 392 538 345 538 285 C 538 199 511 129 457 73 C 403 17 333 -10 246 -10 Z M 263 108 C 303 108 336 123 362 153 C 388 183 402 221 402 266 C 402 296 395 320 382 336 C 369 352 350 360 326 360 C 295 360 270 346 251 318 C 231 290 218 249 210 195 L 198 115 C 206 112 217 110 230 109 C 242 108 253 108 263 108 Z" unicode="b" />
<glyph horiz-adv-x="468" d="M 284 -10 C 218 -10 164 9 124 49 C 84 89 64 139 64 199 C 64 282 90 350 142 402 C 194 454 262 480 348 480 C 372 480 395 477 418 471 C 441 465 464 457 486 447 L 468 316 C 444 330 423 340 403 347 C 383 354 361 358 335 358 C 293 358 260 344 236 317 C 212 290 200 256 200 214 C 200 182 209 157 228 139 C 247 121 273 112 306 112 C 334 112 359 116 382 125 C 404 133 427 145 450 161 L 432 30 C 408 16 385 6 361 0 C 337 -6 311 -10 284 -10 Z" unicode="c" />
<glyph horiz-adv-x="543" d="M 228 -10 C 180 -10 140 6 108 39 C 76 71 61 119 61 181 C 61 268 88 340 144 396 C 200 452 269 480 353 480 C 362 480 372 479 384 478 C 395 477 406 476 418 474 L 452 716 L 589 716 L 511 161 C 507 134 504 108 502 82 C 500 56 499 28 499 0 L 363 0 L 363 70 C 345 41 325 20 302 8 C 278 -3 254 -10 228 -10 Z M 271 110 C 300 110 325 124 347 154 C 368 183 382 223 390 273 L 401 349 C 391 353 380 357 368 359 C 356 361 344 362 332 362 C 296 362 264 346 237 314 C 210 282 197 243 197 199 C 197 169 203 146 215 132 C 227 117 246 110 271 110 Z" unicode="d" />
<glyph horiz-adv-x="489" d="M 291 -10 C 218 -10 162 9 123 49 C 83 89 64 139 64 199 C 64 279 89 345 139 399 C 189 453 252 480 328 480 C 376 480 417 466 450 439 C 482 411 499 377 499 336 C 499 285 479 247 440 221 C 400 195 337 180 249 176 L 202 174 C 206 152 218 136 237 124 C 255 112 279 107 309 107 C 337 107 365 111 393 119 C 420 127 446 138 471 154 L 452 25 C 426 13 400 5 373 -1 C 346 -7 319 -10 291 -10 Z M 311 367 C 286 367 264 358 245 340 C 226 322 214 298 209 269 L 262 272 C 294 273 319 279 335 289 C 351 299 360 314 360 332 C 360 342 355 351 346 357 C 337 363 325 367 311 367 Z" unicode="e" />
<glyph horiz-adv-x="308" d="M 80 0 L 129 348 L 69 348 L 86 470 L 146 470 L 152 514 C 160 579 184 631 224 669 C 263 707 312 726 371 726 C 390 726 410 723 431 719 C 451 715 471 708 490 700 L 472 573 C 456 581 441 588 426 594 C 410 599 394 602 377 602 C 351 602 330 594 315 579 C 300 564 291 542 287 513 L 281 470 L 356 470 L 339 348 L 264 348 L 215 0 L 80 0 Z" unicode="f" />
<glyph horiz-adv-x="536" d="M 217 -220 C 191 -220 163 -217 133 -211 C 103 -205 75 -198 50 -189 L 68 -58 C 87 -69 111 -79 139 -87 C 167 -95 192 -99 215 -99 C 257 -99 290 -90 312 -74 C 334 -58 347 -32 352 3 L 361 70 C 344 41 324 20 301 8 C 278 -3 254 -10 228 -10 C 180 -10 140 6 108 38 C 76 70 61 118 61 181 C 61 267 88 338 144 395 C 200 451 269 480 353 480 C 382 480 415 476 453 468 C 491 460 523 451 550 440 L 491 23 C 479 -60 451 -121 407 -161 C 363 -200 299 -220 217 -220 Z M 271 110 C 300 110 325 124 347 154 C 368 183 382 223 390 273 L 401 349 C 391 353 380 357 368 359 C 356 361 344 362 332 362 C 296 362 264 345 237 313 C 210 281 197 242 197 197 C 197 167 203 145 215 131 C 227 117 246 110 271 110 Z" unicode="g" />
<glyph horiz-adv-x="514" d="M 44 0 L 145 716 L 282 716 L 247 468 C 245 455 242 442 240 428 C 237 414 234 401 232 389 C 249 418 271 440 297 456 C 323 472 351 480 381 480 C 426 480 461 464 487 434 C 512 403 520 362 511 312 L 479 136 C 475 115 472 93 471 70 C 470 46 470 23 470 0 L 333 0 C 333 22 333 45 334 69 C 335 93 338 115 342 136 L 369 267 C 375 295 372 316 361 332 C 350 348 335 356 315 356 C 293 356 271 343 251 317 C 231 291 215 237 203 155 L 181 0 L 44 0 Z" unicode="h" />
<glyph horiz-adv-x="240" d="M 130 584 L 149 716 L 286 716 L 267 584 L 130 584 Z M 59 0 C 59 22 59 45 61 67 C 63 89 65 111 68 134 L 115 470 L 252 470 L 205 134 C 202 114 200 91 198 67 C 196 43 195 20 196 0 L 59 0 Z" unicode="i" />
<glyph horiz-adv-x="242" d="M 139 584 L 158 716 L 295 716 L 276 584 L 139 584 Z M -45 -210 L -53 -210 L -36 -86 L -28 -86 C -3 -86 16 -79 30 -66 C 44 -53 53 -34 57 -8 L 124 470 L 260 470 L 193 -8 C 183 -74 159 -125 119 -159 C 79 -193 24 -210 -45 -210 Z" unicode="j" />
<glyph horiz-adv-x="510" d="M 44 0 L 145 716 L 282 716 L 220 279 C 256 309 290 341 321 373 C 351 405 378 437 401 471 L 555 470 C 526 424 495 382 461 344 C 427 305 393 271 359 242 L 499 0 L 342 0 L 214 237 L 181 0 L 44 0 Z" unicode="k" />
<glyph horiz-adv-x="237" d="M 56 0 C 55 22 55 45 57 68 C 58 90 60 113 63 136 L 145 716 L 282 716 L 200 136 C 197 114 195 91 194 69 C 192 46 192 23 193 0 L 56 0 Z" unicode="l" />
<glyph horiz-adv-x="807" d="M 52 0 L 100 341 C 103 364 105 386 107 408 C 109 429 110 450 110 470 L 246 470 C 246 461 246 451 246 441 C 246 431 245 422 245 415 L 244 391 C 261 420 282 442 307 457 C 332 472 359 480 389 480 C 414 480 439 473 464 459 C 488 445 505 422 515 389 C 537 427 564 451 594 463 C 624 474 651 480 676 480 C 721 480 756 464 782 434 C 808 403 816 362 807 312 L 774 136 C 770 114 767 91 765 68 C 763 44 763 22 763 0 L 626 0 C 626 22 626 44 628 68 C 629 91 632 114 637 137 L 664 267 C 670 295 667 316 656 332 C 644 348 629 356 609 356 C 581 356 558 339 540 305 C 521 271 507 221 498 155 L 476 0 L 339 0 L 377 267 C 381 295 377 317 367 333 C 357 348 342 356 322 356 C 294 356 271 339 253 305 C 234 271 220 221 211 155 L 189 0 L 52 0 Z" unicode="m" />
<glyph horiz-adv-x="522" d="M 52 0 L 100 341 C 103 364 105 386 107 408 C 109 429 110 450 110 470 L 246 470 C 246 461 246 451 246 441 C 246 431 245 422 245 415 L 244 391 C 261 420 282 442 308 457 C 333 472 360 480 389 480 C 434 480 469 464 495 434 C 520 403 528 362 519 312 L 487 136 C 483 115 480 93 479 70 C 478 46 478 23 478 0 L 341 0 C 341 22 341 45 342 69 C 343 93 346 115 350 136 L 377 267 C 383 295 380 316 369 332 C 358 348 343 356 323 356 C 295 356 272 339 253 305 C 234 271 220 221 211 155 L 189 0 L 52 0 Z" unicode="n" />
<glyph horiz-adv-x="541" d="M 286 -12 C 217 -12 163 7 123 45 C 83 83 64 136 64 202 C 64 281 88 347 138 401 C 188 455 250 482 325 482 C 392 482 445 462 485 424 C 525 386 545 334 545 268 C 545 188 520 122 470 68 C 420 14 359 -12 286 -12 Z M 292 109 C 325 109 353 123 375 152 C 397 181 409 217 409 260 C 409 288 400 312 382 332 C 364 351 343 361 317 361 C 283 361 255 346 233 317 C 211 288 200 252 200 210 C 200 181 208 157 226 138 C 243 118 265 109 292 109 Z" unicode="o" />
<glyph horiz-adv-x="542" d="M 24 -210 L 102 342 C 105 366 107 388 108 408 C 109 428 110 448 110 470 L 244 470 L 244 392 C 260 422 280 445 304 459 C 328 473 353 480 381 480 C 429 480 468 463 500 431 C 532 398 548 349 548 285 C 548 200 521 130 469 74 C 416 18 349 -10 268 -10 C 256 -10 243 -9 229 -7 C 215 -5 203 -2 191 0 L 161 -210 L 24 -210 Z M 280 104 C 318 104 350 120 375 152 C 399 184 412 222 412 264 C 412 295 405 319 392 335 C 379 351 360 359 336 359 C 314 359 292 349 269 330 C 245 311 229 266 220 195 L 209 114 C 219 110 231 108 243 106 C 255 104 267 104 280 104 Z" unicode="p" />
<glyph horiz-adv-x="537" d="M 322 -210 L 361 70 C 346 43 327 23 303 10 C 279 -3 254 -10 228 -10 C 180 -10 141 6 109 38 C 77 70 61 118 61 181 C 61 266 88 337 144 394 C 200 451 269 480 353 480 C 382 480 415 476 453 468 C 491 460 523 451 550 440 L 459 -210 L 322 -210 Z M 271 110 C 300 110 325 124 347 154 C 368 183 382 223 390 273 L 401 349 C 390 353 379 357 368 359 C 356 361 344 362 332 362 C 295 362 263 346 237 314 C 210 282 197 243 197 199 C 197 169 203 146 215 132 C 227 117 246 110 271 110 Z" unicode="q" />
<glyph horiz-adv-x="362" d="M 52 0 L 100 341 C 103 364 105 386 107 408 C 109 430 110 450 110 470 L 246 470 L 246 391 C 258 419 274 440 292 456 C 310 472 331 480 356 480 C 363 480 372 479 383 477 C 393 475 403 472 412 469 L 391 317 C 381 323 369 327 357 331 C 345 334 333 336 323 336 C 293 336 270 323 252 298 C 234 272 221 225 211 155 L 189 0 L 52 0 Z" unicode="r" />
<glyph horiz-adv-x="422" d="M 198 -10 C 175 -10 150 -7 123 -2 C 96 2 71 9 49 18 L 66 135 C 85 123 107 114 132 108 C 157 101 182 98 206 99 C 224 99 238 102 250 108 C 262 113 268 122 268 135 C 268 145 263 153 253 159 C 243 165 228 171 209 177 L 196 181 C 158 191 130 209 111 233 C 92 257 83 288 83 325 C 83 371 100 409 135 437 C 169 465 216 480 276 480 C 296 480 320 477 348 473 C 376 469 401 463 424 455 L 408 339 C 389 349 367 356 343 362 C 318 368 295 371 274 371 C 258 371 245 368 235 363 C 225 358 221 350 221 339 C 221 329 225 320 233 314 C 241 307 255 301 274 295 L 287 291 C 326 278 356 260 376 238 C 396 216 406 188 406 156 C 406 106 387 65 350 35 C 313 5 262 -10 198 -10 Z" unicode="s" />
<glyph horiz-adv-x="329" d="M 215 -10 C 173 -10 141 3 121 31 C 100 58 93 95 100 142 L 129 348 L 69 348 L 86 470 L 146 470 L 163 593 L 300 593 L 283 470 L 367 470 L 350 348 L 266 348 L 239 160 C 237 144 238 133 243 125 C 248 117 257 114 269 114 C 277 114 286 114 294 116 C 302 118 310 120 318 124 L 301 4 C 288 0 274 -4 259 -6 C 244 -8 229 -10 215 -10 Z" unicode="t" />
<glyph horiz-adv-x="525" d="M 199 -10 C 153 -10 118 5 93 36 C 68 66 60 107 68 158 L 98 347 C 102 371 105 393 107 413 C 109 433 110 452 110 470 L 247 470 C 247 449 246 428 244 406 C 242 384 239 363 235 341 L 211 203 C 205 173 207 151 216 136 C 225 121 241 114 265 114 C 293 114 316 129 334 161 C 352 192 366 243 377 315 L 399 470 L 536 470 L 489 136 C 486 114 484 92 483 68 C 481 44 481 22 481 0 L 344 0 L 344 79 C 326 49 305 27 280 12 C 255 -2 228 -10 199 -10 Z" unicode="u" />
<glyph horiz-adv-x="485" d="M 165 0 L 74 470 L 215 470 L 254 238 L 266 138 C 291 188 315 240 338 296 C 360 352 381 410 401 470 L 539 470 C 507 381 472 297 435 218 C 398 139 360 66 320 0 L 165 0 Z" unicode="v" />
<glyph horiz-adv-x="752" d="M 143 0 L 74 470 L 210 470 L 239 238 L 247 146 C 269 197 291 250 313 304 C 334 358 355 413 375 470 L 501 470 L 536 238 L 548 143 C 573 198 596 253 618 308 C 640 362 659 416 676 470 L 806 470 C 780 390 750 311 715 232 C 680 153 642 76 600 0 L 452 0 L 426 190 L 417 286 C 398 240 378 192 357 144 C 335 96 313 48 291 0 L 143 0 Z" unicode="w" />
<glyph horiz-adv-x="504" d="M 12 0 L 209 241 L 87 470 L 241 470 L 282 388 L 299 347 L 327 387 L 390 470 L 548 470 L 363 243 L 492 0 L 338 0 L 292 91 L 274 133 L 242 91 L 172 0 L 12 0 Z" unicode="x" />
<glyph horiz-adv-x="502" d="M 358 12 C 306 -64 249 -120 187 -156 C 125 -192 58 -210 -14 -210 L -21 -210 L -4 -86 L 4 -86 C 38 -86 70 -79 101 -66 C 131 -53 159 -35 183 -11 L 74 470 L 225 470 L 267 239 L 286 107 C 306 149 327 198 347 256 C 367 314 388 385 412 470 L 552 470 C 524 370 493 283 461 207 C 429 131 394 66 358 12 Z" unicode="y" />
<glyph horiz-adv-x="452" d="M 36 0 L 50 100 L 228 295 L 278 348 L 89 348 L 106 470 L 477 470 L 463 370 L 283 175 L 232 122 L 433 122 L 416 0 L 36 0 Z" unicode="z" />
<glyph horiz-adv-x="487" d="M 386 -210 C 301 -210 239 -193 200 -159 C 161 -125 149 -75 164 -8 L 186 95 C 192 123 185 145 165 162 C 145 178 114 190 72 197 L 88 309 C 132 315 166 327 191 344 C 215 360 228 383 230 411 L 235 514 C 238 581 264 631 312 665 C 360 699 427 716 513 716 L 528 716 L 511 597 L 495 597 C 453 597 422 588 402 571 C 381 553 370 527 369 491 L 366 411 C 364 368 350 334 322 308 C 294 282 260 264 219 254 L 219 253 C 257 240 285 221 305 195 C 325 169 330 135 322 95 L 304 15 C 296 -21 300 -47 316 -65 C 332 -82 360 -91 402 -91 L 418 -91 L 401 -210 L 386 -210 Z" unicode="{" />
<glyph horiz-adv-x="276" d="M 50 -210 L 181 716 L 297 716 L 166 -210 L 50 -210 Z" unicode="|" />
<glyph horiz-adv-x="487" d="M 30 -210 L 47 -91 L 63 -91 C 104 -91 135 -82 156 -65 C 176 -47 187 -21 189 15 L 192 95 C 193 137 207 171 235 197 C 263 223 297 241 339 252 L 339 253 C 301 265 272 285 252 311 C 232 337 227 370 236 411 L 254 491 C 262 527 258 553 242 571 C 226 588 197 597 156 597 L 140 597 L 157 716 L 172 716 C 256 716 318 699 357 665 C 396 631 408 581 394 514 L 372 411 C 366 383 373 360 393 344 C 413 327 444 315 486 309 L 470 197 C 426 190 391 178 367 162 C 342 145 329 123 328 95 L 323 -8 C 319 -75 293 -125 245 -159 C 197 -193 130 -210 45 -210 L 30 -210 Z" unicode="}" />
<glyph horiz-adv-x="418" d="M 153 146 L 73 146 C 79 190 91 224 110 247 C 129 269 155 281 187 281 C 199 281 211 279 222 276 C 233 272 244 267 255 260 C 264 254 272 249 278 246 C 284 242 290 241 296 241 C 304 241 312 244 318 251 C 324 257 327 266 329 277 L 409 277 C 402 232 389 198 370 176 C 351 153 326 142 295 142 C 280 142 267 143 257 147 C 247 150 237 155 227 163 C 218 169 210 174 204 177 C 198 180 192 182 186 182 C 177 182 170 178 164 172 C 158 165 154 156 153 146 Z" unicode="~" />
<glyph horiz-adv-x="260" d="M 118 384 L 137 516 L 269 516 L 250 384 L 118 384 Z M 36 -202 L 106 299 L 238 299 L 168 -202 L 36 -202 Z" unicode="¡" />
<glyph horiz-adv-x="468" d="M 210 -120 L 226 -4 C 176 6 137 30 108 67 C 78 104 64 148 64 199 C 64 273 84 335 126 385 C 168 435 224 465 294 476 L 310 590 L 422 590 L 406 474 C 419 471 432 467 446 463 C 460 459 473 453 486 447 L 468 316 C 444 330 423 340 403 347 C 383 354 361 358 335 358 C 293 358 260 344 236 317 C 212 290 200 256 200 214 C 200 182 209 157 228 139 C 247 121 273 112 306 112 C 334 112 359 116 382 125 C 404 133 427 145 450 161 L 432 30 C 416 21 401 14 386 8 C 370 2 354 -2 338 -5 L 322 -120 L 210 -120 Z" unicode="¢" />
<glyph horiz-adv-x="541" d="M 62 0 L 81 135 C 107 149 128 167 144 191 C 160 214 169 241 172 272 L 91 272 L 108 396 L 164 396 L 163 407 C 156 488 173 553 215 601 C 256 649 324 674 420 674 C 450 674 480 670 508 664 C 536 657 563 647 590 633 L 571 503 C 549 519 525 532 500 540 C 475 548 448 553 419 553 C 379 553 348 541 327 517 C 306 493 298 458 302 410 L 303 396 L 425 396 L 408 272 L 311 272 C 309 245 302 220 290 196 C 278 172 261 150 239 132 L 519 132 L 501 0 L 62 0 Z" unicode="£" />
<glyph horiz-adv-x="699" d="M 158 14 L 61 128 L 196 246 C 193 254 191 262 190 270 C 189 278 189 287 189 296 C 189 314 191 333 195 351 C 199 369 205 385 213 401 L 109 521 L 238 634 L 340 515 C 312 505 287 490 265 470 C 243 450 225 427 213 401 L 243 366 L 371 479 L 340 515 C 352 519 366 523 381 526 C 395 528 410 530 425 530 C 439 530 452 528 465 525 C 478 522 490 518 502 514 L 462 479 L 560 366 L 598 400 C 592 426 580 448 563 468 C 546 488 526 503 502 514 L 639 634 L 736 521 L 598 400 C 599 393 600 386 601 379 C 602 372 603 365 603 358 C 603 336 600 316 595 297 C 589 277 582 259 574 243 L 674 126 L 545 13 L 440 135 C 429 131 417 129 405 127 C 393 125 380 124 368 124 C 355 124 343 125 331 127 C 319 129 308 133 298 137 L 158 14 Z M 385 248 C 413 248 435 257 452 275 C 468 293 477 314 477 338 C 477 356 470 371 457 385 C 444 399 427 406 407 406 C 379 406 356 396 340 378 C 324 360 316 339 316 316 C 316 298 322 282 335 268 C 347 254 364 248 385 248 Z" unicode="¤" />
<glyph horiz-adv-x="642" d="M 165 93 L 178 185 L 276 185 L 283 236 L 185 236 L 198 328 L 253 328 L 100 658 L 257 658 L 344 464 L 373 390 L 420 464 L 559 658 L 722 658 L 478 328 L 543 328 L 530 236 L 423 236 L 416 185 L 522 185 L 509 93 L 403 93 L 390 0 L 250 0 L 263 93 L 165 93 Z" unicode="¥" />
<glyph horiz-adv-x="276" d="M 123 308 L 180 716 L 296 716 L 239 308 L 123 308 Z M 50 -210 L 108 198 L 224 198 L 166 -210 L 50 -210 Z" unicode="¦" />
<glyph horiz-adv-x="438" d="M 205 -12 C 178 -12 152 -9 128 -5 C 103 0 79 6 56 15 L 71 125 C 93 113 114 105 136 99 C 158 93 181 90 207 90 C 229 90 247 93 259 101 C 271 108 278 119 278 135 C 278 145 272 153 262 160 C 252 167 236 173 215 179 L 202 182 C 168 191 141 205 120 223 C 98 241 88 267 88 301 C 88 322 94 343 106 365 C 118 386 135 404 159 419 C 145 431 135 446 128 462 C 121 478 118 495 118 513 C 118 559 134 596 166 626 C 198 655 245 670 309 670 C 335 670 361 668 385 664 C 409 660 433 653 456 645 L 441 537 C 421 547 400 555 379 561 C 357 566 335 569 312 569 C 292 569 277 565 267 558 C 257 551 253 541 253 529 C 253 520 257 512 266 506 C 274 499 288 493 308 488 L 320 485 C 357 474 387 459 410 441 C 432 422 444 397 444 367 C 444 343 438 321 426 299 C 414 277 397 258 373 243 C 387 231 397 217 404 203 C 410 188 414 172 414 156 C 414 106 396 66 362 35 C 327 3 275 -12 205 -12 Z M 277 210 C 296 212 314 216 330 222 C 346 228 360 235 373 243 C 363 251 351 259 337 266 C 323 273 308 279 291 284 L 280 287 L 277 288 C 287 292 294 299 299 308 C 303 316 306 326 306 336 C 306 344 301 352 293 359 C 285 366 272 372 254 377 C 258 379 263 381 268 383 C 273 384 279 385 286 385 L 247 449 C 229 446 213 442 199 437 C 184 432 171 426 159 419 C 167 411 178 403 190 397 C 202 391 215 386 230 383 L 243 380 C 243 380 243 379 244 379 C 245 379 248 378 254 377 C 244 371 236 364 232 355 C 227 345 225 336 225 328 C 225 319 229 311 237 305 C 245 298 259 292 277 288 C 272 285 266 283 260 282 C 254 280 247 280 239 280 L 277 210 Z" unicode="§" />
<glyph horiz-adv-x="267" d="M 51 529 L 68 653 L 192 653 L 175 529 L 51 529 Z M 241 529 L 258 653 L 382 653 L 365 529 L 241 529 Z" unicode="¨" />
<glyph horiz-adv-x="726" d="M 382 80 C 300 80 231 107 177 161 C 122 215 95 282 95 363 C 95 465 129 551 199 620 C 268 689 354 724 457 724 C 539 724 607 697 662 643 C 716 589 744 523 744 443 C 744 339 709 253 640 184 C 570 114 484 80 382 80 Z M 384 152 C 465 152 533 179 588 234 C 642 288 670 356 670 438 C 670 499 649 550 607 591 C 565 631 514 652 455 652 C 373 652 305 624 251 569 C 196 514 169 446 169 365 C 169 305 190 254 232 213 C 274 172 324 152 384 152 Z M 417 221 C 370 221 331 236 300 266 C 268 296 253 334 253 380 C 253 438 273 486 313 525 C 353 563 404 583 464 583 C 480 583 497 580 515 576 C 533 571 548 565 561 557 L 550 479 C 537 487 522 494 505 499 C 487 504 471 507 455 507 C 418 507 389 496 368 474 C 346 452 336 423 336 387 C 336 362 344 341 360 323 C 376 305 398 297 426 297 C 442 297 460 299 480 305 C 500 311 517 318 533 327 L 522 248 C 506 240 488 233 468 228 C 448 223 431 221 417 221 Z" unicode="©" />
<glyph horiz-adv-x="461" d="M 243 364 C 211 364 184 376 162 400 C 140 424 130 460 130 507 C 130 573 151 628 195 673 C 239 717 293 740 357 740 C 377 740 401 737 428 732 C 455 727 478 720 497 712 L 467 500 C 464 479 462 458 460 437 C 458 416 457 394 457 372 L 350 372 L 350 428 C 336 405 319 389 301 379 C 283 369 263 364 243 364 Z M 280 459 C 296 459 313 466 331 482 C 348 498 361 534 371 590 L 379 639 C 373 641 366 643 359 645 C 351 646 344 647 338 647 C 311 647 288 634 268 609 C 248 584 238 555 238 522 C 238 501 241 485 248 475 C 255 464 266 459 280 459 Z M 98 208 L 113 316 L 447 316 L 432 208 L 98 208 Z" unicode="ª" />
<glyph horiz-adv-x="613" d="M 430 63 L 305 226 L 474 390 L 626 390 L 458 226 L 582 63 L 430 63 Z M 197 63 L 72 226 L 241 390 L 393 390 L 225 226 L 349 63 L 197 63 Z" unicode="«" />
<glyph horiz-adv-x="500" d="M 363 118 L 379 235 L 81 235 L 98 353 L 502 353 L 469 118 L 363 118 Z" unicode="¬" />
<glyph horiz-adv-x="392" d="M 82 188 L 99 306 L 379 306 L 362 188 L 82 188 Z" unicode="­" />
<glyph horiz-adv-x="726" d="M 382 80 C 300 80 231 107 177 161 C 122 215 95 282 95 363 C 95 465 129 551 199 620 C 268 689 354 724 457 724 C 539 724 607 697 662 643 C 716 589 744 523 744 443 C 744 339 709 253 640 184 C 570 114 484 80 382 80 Z M 384 152 C 465 152 533 179 588 234 C 642 288 670 356 670 438 C 670 499 649 550 607 591 C 565 631 514 652 455 652 C 373 652 305 624 251 569 C 196 514 169 446 169 365 C 169 305 190 254 232 213 C 274 172 324 152 384 152 Z M 277 235 L 325 570 L 434 570 C 470 570 498 563 517 549 C 535 535 545 515 545 489 C 545 467 536 448 520 431 C 503 413 484 404 462 404 C 477 401 490 395 500 387 C 510 378 516 366 519 352 L 541 235 L 456 235 L 446 317 C 444 333 438 345 430 353 C 421 361 411 365 399 365 L 375 365 L 357 235 L 277 235 Z M 385 432 L 412 432 C 428 432 440 435 449 443 C 457 450 462 460 462 472 C 462 480 458 488 451 494 C 444 500 434 503 422 503 L 395 503 L 385 432 Z" unicode="®" />
<glyph horiz-adv-x="384" d="M 135 532 L 150 639 L 414 639 L 399 532 L 135 532 Z" unicode="¯" />
<glyph horiz-adv-x="374" d="M 258 449 C 216 449 184 461 161 487 C 138 512 127 541 127 574 C 127 620 141 658 171 687 C 201 715 238 730 282 730 C 323 730 355 717 378 692 C 401 666 413 637 413 604 C 413 558 398 520 368 492 C 338 463 302 449 258 449 Z M 264 536 C 280 536 294 541 306 552 C 317 562 323 576 323 593 C 323 607 318 619 309 629 C 299 638 288 643 275 643 C 258 643 244 637 233 627 C 221 616 216 602 216 586 C 216 571 220 559 230 550 C 239 540 250 536 264 536 Z" unicode="°" />
<glyph horiz-adv-x="492" d="M 196 87 L 217 235 L 77 235 L 94 353 L 236 353 L 257 501 L 381 501 L 360 353 L 498 353 L 481 235 L 341 235 L 320 87 L 196 87 Z M 23 -120 L 40 -2 L 471 -2 L 454 -120 L 23 -120 Z" unicode="±" />
<glyph horiz-adv-x="315" d="M 86 440 L 102 557 C 156 577 198 598 226 618 C 254 638 268 657 268 675 C 268 687 263 696 253 702 C 243 707 231 710 217 710 C 202 710 187 707 173 703 C 158 698 142 691 126 682 L 141 790 C 161 796 179 800 197 803 C 214 806 234 808 256 808 C 298 808 330 799 354 781 C 377 763 389 738 389 704 C 389 667 373 634 342 606 C 310 577 268 554 214 538 L 366 538 L 352 440 L 86 440 Z" unicode="²" />
<glyph horiz-adv-x="316" d="M 209 432 C 189 432 169 433 149 436 C 129 438 108 443 87 451 L 101 551 C 117 543 134 537 150 533 C 166 529 183 527 202 527 C 216 527 228 529 237 534 C 246 539 251 545 251 552 C 251 559 246 565 237 569 C 227 573 212 575 190 575 L 163 575 L 175 663 L 198 663 C 218 663 233 665 245 671 C 257 676 263 683 263 692 C 263 698 259 703 252 707 C 245 711 234 713 219 713 C 203 713 188 711 174 708 C 159 704 144 699 128 693 L 142 790 C 162 795 181 799 199 803 C 217 806 235 808 253 808 C 293 808 324 799 347 782 C 370 765 382 743 382 717 C 382 693 374 672 358 656 C 342 640 321 628 295 622 C 317 618 334 609 346 596 C 358 582 364 567 364 550 C 364 514 350 485 322 464 C 294 442 257 432 209 432 Z" unicode="³" />
<glyph horiz-adv-x="239" d="M 90 524 L 220 674 L 378 674 L 230 524 L 90 524 Z" unicode="´" />
<glyph horiz-adv-x="538" d="M 141 0 L 200 422 C 166 422 140 431 120 450 C 100 468 91 492 91 521 C 91 560 104 593 132 619 C 159 645 196 658 242 658 L 570 658 L 478 0 L 346 0 L 422 540 L 349 540 L 273 0 L 141 0 Z" unicode="¶" />
<glyph horiz-adv-x="224" d="M 69 181 L 88 313 L 220 313 L 201 181 L 69 181 Z" unicode="·" />
<glyph horiz-adv-x="229" d="M 95 -242 C 82 -242 70 -240 58 -238 C 46 -236 34 -232 24 -228 L 34 -153 C 43 -157 52 -161 62 -164 C 71 -166 80 -168 90 -168 C 100 -168 108 -165 115 -159 C 121 -153 125 -146 125 -137 C 125 -129 122 -122 116 -118 C 110 -113 103 -111 94 -111 L 88 -111 L 98 -40 L 104 -40 C 137 -40 163 -48 183 -65 C 203 -82 213 -105 213 -133 C 213 -163 201 -189 179 -210 C 157 -231 129 -242 95 -242 Z" unicode="¸" />
<glyph horiz-adv-x="315" d="M 95 440 L 108 534 L 180 534 L 204 701 L 122 694 L 135 788 L 333 808 L 294 534 L 366 534 L 353 440 L 95 440 Z" unicode="¹" />
<glyph horiz-adv-x="477" d="M 293 361 C 243 361 203 376 175 408 C 147 440 133 479 133 526 C 133 589 151 641 188 682 C 225 722 276 743 340 743 C 388 743 427 727 456 697 C 485 666 500 627 500 580 C 500 518 481 466 444 424 C 406 382 356 361 293 361 Z M 307 459 C 330 459 349 468 364 488 C 378 507 386 533 386 566 C 386 588 380 607 369 622 C 358 637 344 645 326 645 C 301 645 282 634 268 614 C 254 594 247 568 247 538 C 247 514 252 494 263 480 C 273 466 288 459 307 459 Z M 95 208 L 110 316 L 452 316 L 437 208 L 95 208 Z" unicode="º" />
<glyph horiz-adv-x="613" d="M 51 63 L 219 226 L 95 390 L 247 390 L 372 226 L 203 63 L 51 63 Z M 284 63 L 452 226 L 328 390 L 480 390 L 605 226 L 436 63 L 284 63 Z" unicode="»" />
<glyph horiz-adv-x="790" d="M 33 360 L 46 454 L 118 454 L 141 617 L 111 614 L 112 618 L 60 614 L 73 708 L 271 728 L 270 723 L 322 728 L 283 454 L 355 454 L 342 360 L 33 360 Z M 192 0 L 592 716 L 710 716 L 310 0 L 192 0 Z M 612 0 L 622 68 L 458 68 L 468 144 L 616 360 L 771 360 L 742 158 L 788 158 L 776 68 L 730 68 L 720 0 L 612 0 Z M 634 158 L 651 277 L 569 158 L 634 158 Z" unicode="¼" />
<glyph horiz-adv-x="770" d="M 33 360 L 46 454 L 118 454 L 141 617 L 111 614 L 112 618 L 60 614 L 73 708 L 271 728 L 270 723 L 322 728 L 283 454 L 355 454 L 342 360 L 33 360 Z M 192 0 L 592 716 L 710 716 L 310 0 L 192 0 Z M 479 0 L 495 117 C 549 137 591 158 619 178 C 647 198 661 217 661 235 C 661 247 656 256 646 262 C 636 267 624 270 610 270 C 595 270 580 267 566 263 C 551 258 535 251 519 242 L 534 350 C 554 356 572 360 590 363 C 607 366 627 368 649 368 C 691 368 723 359 747 341 C 770 323 782 298 782 264 C 782 227 766 194 735 166 C 703 137 661 114 607 98 L 759 98 L 745 0 L 479 0 Z" unicode="½" />
<glyph horiz-adv-x="762" d="M 198 352 C 178 352 158 353 138 356 C 118 358 97 363 76 371 L 90 471 C 106 463 123 457 139 453 C 155 449 172 447 191 447 C 205 447 217 449 226 454 C 235 459 240 465 240 472 C 240 479 235 485 226 489 C 216 493 201 495 179 495 L 152 495 L 164 583 L 187 583 C 207 583 222 585 234 591 C 246 596 252 603 252 612 C 252 618 248 623 241 627 C 234 631 223 633 208 633 C 192 633 177 631 163 628 C 148 624 133 619 117 613 L 131 710 C 151 715 170 719 188 723 C 206 726 224 728 242 728 C 282 728 313 719 336 702 C 359 685 371 663 371 637 C 371 613 363 592 347 576 C 331 560 310 548 284 542 C 306 538 323 529 335 516 C 347 502 353 487 353 470 C 353 434 339 405 311 384 C 283 362 246 352 198 352 Z M 163 0 L 563 716 L 681 716 L 281 0 L 163 0 Z M 584 0 L 594 68 L 430 68 L 440 144 L 588 360 L 743 360 L 714 158 L 760 158 L 748 68 L 702 68 L 692 0 L 584 0 Z M 606 158 L 623 277 L 541 158 L 606 158 Z" unicode="¾" />
<glyph horiz-adv-x="485" d="M 242 384 L 260 516 L 392 516 L 374 384 L 242 384 Z M 241 -200 C 178 -200 128 -184 92 -153 C 55 -122 37 -82 37 -33 C 37 -1 46 29 65 61 C 83 92 111 123 147 155 C 175 179 196 203 209 226 C 222 249 230 273 234 299 L 362 299 C 357 261 346 227 329 197 C 312 167 287 138 254 108 C 225 82 206 60 196 44 C 186 28 181 12 181 -3 C 181 -25 190 -43 209 -56 C 227 -69 253 -76 285 -76 C 310 -76 336 -72 364 -65 C 392 -57 417 -47 440 -35 L 420 -169 C 395 -178 367 -185 335 -191 C 303 -197 271 -200 241 -200 Z" unicode="¿" />
<glyph horiz-adv-x="687" d="M 377 706 L 282 841 L 421 841 L 500 706 L 377 706 Z M 16 0 L 370 658 L 501 658 L 671 0 L 524 0 L 490 140 L 234 140 L 161 0 L 16 0 Z M 297 264 L 460 264 L 435 370 L 410 489 L 352 370 L 297 264 Z" unicode="À" />
<glyph horiz-adv-x="687" d="M 375 706 L 492 841 L 638 841 L 505 706 L 375 706 Z M 16 0 L 370 658 L 501 658 L 671 0 L 524 0 L 490 140 L 234 140 L 161 0 L 16 0 Z M 297 264 L 460 264 L 435 370 L 410 489 L 352 370 L 297 264 Z" unicode="Á" />
<glyph horiz-adv-x="687" d="M 303 706 L 406 841 L 511 841 L 576 706 L 477 706 L 448 764 L 403 706 L 303 706 Z M 16 0 L 370 658 L 501 658 L 671 0 L 524 0 L 490 140 L 234 140 L 161 0 L 16 0 Z M 297 264 L 460 264 L 435 370 L 410 489 L 352 370 L 297 264 Z" unicode="Â" />
<glyph horiz-adv-x="687" d="M 367 706 L 295 706 C 300 746 311 776 329 796 C 346 816 369 827 398 827 C 409 827 419 825 429 822 C 439 819 449 814 459 808 C 467 803 474 799 480 796 C 485 792 490 791 496 791 C 503 791 509 794 515 800 C 521 806 524 814 526 824 L 598 824 C 592 784 580 753 563 733 C 546 712 523 702 495 702 C 482 702 471 703 461 706 C 451 709 442 714 434 721 C 426 727 419 731 413 734 C 407 736 402 738 397 738 C 389 738 383 735 377 729 C 371 723 368 716 367 706 Z M 16 0 L 370 658 L 501 658 L 671 0 L 524 0 L 490 140 L 234 140 L 161 0 L 16 0 Z M 297 264 L 460 264 L 435 370 L 410 489 L 352 370 L 297 264 Z" unicode="Ã" />
<glyph horiz-adv-x="687" d="M 295 706 L 311 817 L 423 817 L 407 706 L 295 706 Z M 466 706 L 482 817 L 594 817 L 578 706 L 466 706 Z M 16 0 L 370 658 L 501 658 L 671 0 L 524 0 L 490 140 L 234 140 L 161 0 L 16 0 Z M 297 264 L 460 264 L 435 370 L 410 489 L 352 370 L 297 264 Z" unicode="Ä" />
<glyph horiz-adv-x="687" d="M 16 0 L 354 629 C 348 636 344 644 341 654 C 338 663 337 673 337 684 C 337 714 347 740 368 760 C 388 780 413 790 443 790 C 470 790 492 781 510 764 C 528 746 537 725 537 700 C 537 685 534 671 529 659 C 524 646 517 635 509 626 L 671 0 L 524 0 L 490 140 L 234 140 L 161 0 L 16 0 Z M 434 658 C 444 658 453 661 460 668 C 467 674 471 683 471 694 C 471 702 467 710 461 716 C 455 722 447 726 439 726 C 429 726 420 722 413 715 C 405 707 402 699 402 690 C 402 681 405 673 411 667 C 417 661 425 658 434 658 Z M 297 264 L 460 264 L 435 370 L 410 489 L 352 370 L 297 264 Z" unicode="Å" />
<glyph horiz-adv-x="884" d="M 4 0 L 426 658 L 907 658 L 888 526 L 632 526 L 614 399 L 861 399 L 842 267 L 596 267 L 577 132 L 843 132 L 824 0 L 418 0 L 440 160 L 260 160 L 158 0 L 4 0 Z M 345 292 L 459 292 L 492 525 L 419 408 L 345 292 Z" unicode="Æ" />
<glyph horiz-adv-x="652" d="M 408 -16 C 308 -16 229 13 173 71 C 117 129 89 201 89 287 C 89 398 124 490 196 564 C 267 637 364 674 486 674 C 522 674 557 670 591 662 C 625 654 657 641 687 625 L 667 485 C 636 503 605 518 573 528 C 541 538 508 544 473 544 C 399 544 340 521 297 475 C 254 429 233 370 233 297 C 233 245 250 201 284 166 C 318 131 364 114 422 114 C 460 114 496 119 530 130 C 564 141 598 157 633 179 L 613 36 C 579 18 544 4 510 -3 C 476 -11 442 -16 408 -16 Z M 375 -230 C 363 -230 352 -229 341 -227 C 329 -225 319 -221 309 -217 L 318 -149 C 326 -153 335 -157 343 -159 C 351 -161 359 -163 368 -163 C 376 -163 384 -160 390 -155 C 396 -150 400 -143 400 -135 C 400 -128 397 -122 392 -118 C 387 -114 380 -112 372 -112 L 361 -112 L 370 -48 L 381 -48 C 411 -48 434 -55 452 -71 C 470 -86 479 -106 479 -131 C 479 -159 468 -183 448 -202 C 427 -220 403 -230 375 -230 Z" unicode="Ç" />
<glyph horiz-adv-x="530" d="M 301 706 L 206 841 L 345 841 L 424 706 L 301 706 Z M 64 0 L 156 658 L 553 658 L 534 526 L 278 526 L 260 399 L 507 399 L 488 267 L 242 267 L 223 132 L 489 132 L 470 0 L 64 0 Z" unicode="È" />
<glyph horiz-adv-x="530" d="M 299 706 L 416 841 L 562 841 L 429 706 L 299 706 Z M 64 0 L 156 658 L 553 658 L 534 526 L 278 526 L 260 399 L 507 399 L 488 267 L 242 267 L 223 132 L 489 132 L 470 0 L 64 0 Z" unicode="É" />
<glyph horiz-adv-x="530" d="M 227 706 L 330 841 L 435 841 L 500 706 L 401 706 L 372 764 L 327 706 L 227 706 Z M 64 0 L 156 658 L 553 658 L 534 526 L 278 526 L 260 399 L 507 399 L 488 267 L 242 267 L 223 132 L 489 132 L 470 0 L 64 0 Z" unicode="Ê" />
<glyph horiz-adv-x="530" d="M 219 706 L 235 817 L 347 817 L 331 706 L 219 706 Z M 390 706 L 406 817 L 518 817 L 502 706 L 390 706 Z M 64 0 L 156 658 L 553 658 L 534 526 L 278 526 L 260 399 L 507 399 L 488 267 L 242 267 L 223 132 L 489 132 L 470 0 L 64 0 Z" unicode="Ë" />
<glyph horiz-adv-x="269" d="M 172 706 L 77 841 L 216 841 L 295 706 L 172 706 Z M 64 0 L 156 658 L 297 658 L 205 0 L 64 0 Z" unicode="Ì" />
<glyph horiz-adv-x="269" d="M 170 706 L 287 841 L 433 841 L 300 706 L 170 706 Z M 64 0 L 156 658 L 297 658 L 205 0 L 64 0 Z" unicode="Í" />
<glyph horiz-adv-x="269" d="M 98 706 L 201 841 L 306 841 L 371 706 L 272 706 L 243 764 L 198 706 L 98 706 Z M 64 0 L 156 658 L 297 658 L 205 0 L 64 0 Z" unicode="Î" />
<glyph horiz-adv-x="269" d="M 90 706 L 106 817 L 218 817 L 202 706 L 90 706 Z M 261 706 L 277 817 L 389 817 L 373 706 L 261 706 Z M 64 0 L 156 658 L 297 658 L 205 0 L 64 0 Z" unicode="Ï" />
<glyph horiz-adv-x="720" d="M 84 0 L 121 265 L 73 265 L 90 385 L 138 385 L 176 658 L 405 658 C 502 658 579 631 635 577 C 691 523 719 453 719 367 C 719 258 682 170 608 102 C 534 34 434 0 310 0 L 84 0 Z M 243 132 L 329 132 C 405 132 465 153 509 195 C 553 237 575 292 575 360 C 575 408 558 447 526 479 C 494 510 449 526 393 526 L 298 526 L 278 385 L 369 385 L 352 265 L 262 265 L 243 132 Z" unicode="Ð" />
<glyph horiz-adv-x="715" d="M 381 706 L 309 706 C 314 746 325 776 343 796 C 360 816 383 827 412 827 C 423 827 433 825 443 822 C 453 819 463 814 473 808 C 481 803 488 799 494 796 C 499 792 504 791 510 791 C 517 791 523 794 529 800 C 535 806 538 814 540 824 L 612 824 C 606 784 594 753 577 733 C 560 712 537 702 509 702 C 496 702 485 703 475 706 C 465 709 456 714 448 721 C 440 727 433 731 427 734 C 421 736 416 738 411 738 C 403 738 397 735 391 729 C 385 723 382 716 381 706 Z M 64 0 L 156 658 L 298 658 L 504 294 L 548 209 L 558 294 L 609 658 L 743 658 L 651 0 L 511 0 L 302 370 L 260 451 L 250 370 L 198 0 L 64 0 Z" unicode="Ñ" />
<glyph horiz-adv-x="772" d="M 414 714 L 319 849 L 458 849 L 537 714 L 414 714 Z M 405 -16 C 315 -16 239 11 179 66 C 119 121 89 195 89 289 C 89 399 123 491 192 564 C 261 637 349 674 457 674 C 547 674 623 646 684 591 C 744 535 775 460 775 366 C 775 255 740 164 670 92 C 600 20 512 -16 405 -16 Z M 409 116 C 475 116 528 138 569 184 C 610 229 631 288 631 360 C 631 412 615 455 583 490 C 551 524 508 542 454 542 C 388 542 334 519 294 474 C 253 428 233 370 233 298 C 233 246 248 202 280 168 C 312 133 355 116 409 116 Z" unicode="Ò" />
<glyph horiz-adv-x="772" d="M 412 714 L 529 849 L 675 849 L 542 714 L 412 714 Z M 405 -16 C 315 -16 239 11 179 66 C 119 121 89 195 89 289 C 89 399 123 491 192 564 C 261 637 349 674 457 674 C 547 674 623 646 684 591 C 744 535 775 460 775 366 C 775 255 740 164 670 92 C 600 20 512 -16 405 -16 Z M 409 116 C 475 116 528 138 569 184 C 610 229 631 288 631 360 C 631 412 615 455 583 490 C 551 524 508 542 454 542 C 388 542 334 519 294 474 C 253 428 233 370 233 298 C 233 246 248 202 280 168 C 312 133 355 116 409 116 Z" unicode="Ó" />
<glyph horiz-adv-x="772" d="M 340 714 L 443 849 L 548 849 L 613 714 L 514 714 L 485 772 L 440 714 L 340 714 Z M 405 -16 C 315 -16 239 11 179 66 C 119 121 89 195 89 289 C 89 399 123 491 192 564 C 261 637 349 674 457 674 C 547 674 623 646 684 591 C 744 535 775 460 775 366 C 775 255 740 164 670 92 C 600 20 512 -16 405 -16 Z M 409 116 C 475 116 528 138 569 184 C 610 229 631 288 631 360 C 631 412 615 455 583 490 C 551 524 508 542 454 542 C 388 542 334 519 294 474 C 253 428 233 370 233 298 C 233 246 248 202 280 168 C 312 133 355 116 409 116 Z" unicode="Ô" />
<glyph horiz-adv-x="772" d="M 404 714 L 332 714 C 337 754 348 784 366 804 C 383 824 406 835 435 835 C 446 835 456 833 466 830 C 476 827 486 822 496 816 C 504 811 511 807 517 804 C 522 800 527 799 533 799 C 540 799 546 802 552 808 C 558 814 561 822 563 832 L 635 832 C 629 792 617 761 600 741 C 583 720 560 710 532 710 C 519 710 508 711 498 714 C 488 717 479 722 471 729 C 463 735 456 739 450 742 C 444 744 439 746 434 746 C 426 746 420 743 414 737 C 408 731 405 724 404 714 Z M 405 -16 C 315 -16 239 11 179 66 C 119 121 89 195 89 289 C 89 399 123 491 192 564 C 261 637 349 674 457 674 C 547 674 623 646 684 591 C 744 535 775 460 775 366 C 775 255 740 164 670 92 C 600 20 512 -16 405 -16 Z M 409 116 C 475 116 528 138 569 184 C 610 229 631 288 631 360 C 631 412 615 455 583 490 C 551 524 508 542 454 542 C 388 542 334 519 294 474 C 253 428 233 370 233 298 C 233 246 248 202 280 168 C 312 133 355 116 409 116 Z" unicode="Õ" />
<glyph horiz-adv-x="772" d="M 332 714 L 348 825 L 460 825 L 444 714 L 332 714 Z M 503 714 L 519 825 L 631 825 L 615 714 L 503 714 Z M 405 -16 C 315 -16 239 11 179 66 C 119 121 89 195 89 289 C 89 399 123 491 192 564 C 261 637 349 674 457 674 C 547 674 623 646 684 591 C 744 535 775 460 775 366 C 775 255 740 164 670 92 C 600 20 512 -16 405 -16 Z M 409 116 C 475 116 528 138 569 184 C 610 229 631 288 631 360 C 631 412 615 455 583 490 C 551 524 508 542 454 542 C 388 542 334 519 294 474 C 253 428 233 370 233 298 C 233 246 248 202 280 168 C 312 133 355 116 409 116 Z" unicode="Ö" />
<glyph horiz-adv-x="545" d="M 179 74 L 92 173 L 221 286 L 113 409 L 212 496 L 319 372 L 458 493 L 544 394 L 405 273 L 503 159 L 404 72 L 308 187 L 179 74 Z" unicode="×" />
<glyph horiz-adv-x="772" d="M 112 -48 L 185 61 C 155 87 131 120 114 159 C 97 197 89 241 89 289 C 89 399 123 491 192 564 C 261 637 349 674 457 674 C 479 674 500 672 521 669 C 541 665 561 660 580 654 L 615 706 L 757 706 L 682 593 C 710 566 733 533 750 495 C 766 457 775 414 775 366 C 775 255 740 164 670 92 C 600 20 512 -16 405 -16 C 384 -16 364 -14 344 -11 C 324 -8 305 -4 288 2 L 254 -48 L 112 -48 Z M 233 298 C 233 276 236 255 242 236 C 248 216 256 199 267 184 L 502 536 C 494 538 487 539 479 540 C 471 541 462 542 454 542 C 388 542 334 519 294 474 C 253 428 233 370 233 298 Z M 409 116 C 475 116 528 138 569 184 C 610 229 631 288 631 360 C 631 380 628 400 623 419 C 617 438 609 455 599 470 L 366 120 C 372 118 379 117 387 117 C 394 116 401 116 409 116 Z" unicode="Ø" />
<glyph horiz-adv-x="673" d="M 374 706 L 279 841 L 418 841 L 497 706 L 374 706 Z M 357 -12 C 265 -12 196 15 148 69 C 100 123 82 189 93 266 L 148 658 L 288 658 L 232 262 C 226 220 234 185 257 159 C 280 133 315 120 361 120 C 403 120 439 133 468 159 C 497 185 515 219 521 261 L 577 658 L 709 658 L 653 257 C 641 171 608 104 555 58 C 502 11 436 -12 357 -12 Z" unicode="Ù" />
<glyph horiz-adv-x="673" d="M 372 706 L 489 841 L 635 841 L 502 706 L 372 706 Z M 357 -12 C 265 -12 196 15 148 69 C 100 123 82 189 93 266 L 148 658 L 288 658 L 232 262 C 226 220 234 185 257 159 C 280 133 315 120 361 120 C 403 120 439 133 468 159 C 497 185 515 219 521 261 L 577 658 L 709 658 L 653 257 C 641 171 608 104 555 58 C 502 11 436 -12 357 -12 Z" unicode="Ú" />
<glyph horiz-adv-x="673" d="M 300 706 L 403 841 L 508 841 L 573 706 L 474 706 L 445 764 L 400 706 L 300 706 Z M 357 -12 C 265 -12 196 15 148 69 C 100 123 82 189 93 266 L 148 658 L 288 658 L 232 262 C 226 220 234 185 257 159 C 280 133 315 120 361 120 C 403 120 439 133 468 159 C 497 185 515 219 521 261 L 577 658 L 709 658 L 653 257 C 641 171 608 104 555 58 C 502 11 436 -12 357 -12 Z" unicode="Û" />
<glyph horiz-adv-x="673" d="M 292 706 L 308 817 L 420 817 L 404 706 L 292 706 Z M 463 706 L 479 817 L 591 817 L 575 706 L 463 706 Z M 357 -12 C 265 -12 196 15 148 69 C 100 123 82 189 93 266 L 148 658 L 288 658 L 232 262 C 226 220 234 185 257 159 C 280 133 315 120 361 120 C 403 120 439 133 468 159 C 497 185 515 219 521 261 L 577 658 L 709 658 L 653 257 C 641 171 608 104 555 58 C 502 11 436 -12 357 -12 Z" unicode="Ü" />
<glyph horiz-adv-x="642" d="M 351 706 L 468 841 L 614 841 L 481 706 L 351 706 Z M 250 0 L 286 255 L 100 658 L 257 658 L 344 464 L 373 390 L 420 464 L 559 658 L 722 658 L 426 257 L 390 0 L 250 0 Z" unicode="Ý" />
<glyph horiz-adv-x="533" d="M 64 0 L 156 658 L 297 658 L 283 558 L 320 558 C 389 558 444 540 485 504 C 525 468 546 423 546 369 C 546 295 520 233 470 183 C 419 133 350 108 264 108 L 220 108 L 205 0 L 64 0 Z M 238 238 L 277 238 C 313 238 343 247 367 266 C 391 284 404 310 404 343 C 404 368 395 388 378 404 C 360 420 337 428 307 428 L 265 428 L 238 238 Z" unicode="Þ" />
<glyph horiz-adv-x="618" d="M 56 0 L 119 447 C 132 540 163 610 212 656 C 261 702 325 726 403 726 C 471 726 526 705 566 664 C 606 622 626 565 626 492 C 626 464 623 437 618 410 C 612 383 606 361 599 345 C 581 352 562 358 544 363 C 526 368 509 371 494 371 C 472 371 456 367 445 361 C 434 355 429 345 429 333 C 429 323 432 315 439 309 C 446 303 457 298 471 295 L 486 291 C 521 281 549 265 570 242 C 591 218 602 191 602 160 C 602 106 583 64 547 34 C 510 4 461 -10 400 -10 C 377 -10 353 -8 327 -4 C 301 0 278 4 258 10 L 275 127 C 291 118 311 111 335 106 C 359 101 382 99 404 99 C 426 99 441 102 451 108 C 461 114 466 123 466 135 C 466 143 461 151 452 159 C 442 166 429 172 411 177 L 397 181 C 363 191 337 207 319 229 C 301 251 293 278 293 311 C 293 363 309 404 341 434 C 373 464 413 480 462 480 C 468 480 475 479 482 479 C 489 478 496 477 503 476 C 510 518 503 551 482 574 C 461 596 433 608 397 608 C 356 608 324 593 301 565 C 277 536 262 495 255 441 L 193 0 L 56 0 Z" unicode="ß" />
<glyph horiz-adv-x="543" d="M 281 524 L 175 674 L 333 674 L 421 524 L 281 524 Z M 228 -10 C 180 -10 140 6 108 39 C 76 71 61 119 61 181 C 61 268 88 340 144 396 C 200 452 269 480 353 480 C 382 480 415 476 453 468 C 491 460 523 451 550 440 L 511 161 C 507 134 504 108 502 82 C 500 56 499 28 499 0 L 363 0 L 363 70 C 345 41 325 20 302 8 C 278 -3 254 -10 228 -10 Z M 271 110 C 300 110 325 124 347 154 C 368 183 382 223 390 273 L 401 349 C 390 353 379 357 368 359 C 356 361 344 362 332 362 C 296 362 264 345 237 313 C 210 281 197 242 197 198 C 197 168 203 145 215 131 C 227 117 246 110 271 110 Z" unicode="à" />
<glyph horiz-adv-x="543" d="M 278 524 L 408 674 L 566 674 L 418 524 L 278 524 Z M 228 -10 C 180 -10 140 6 108 39 C 76 71 61 119 61 181 C 61 268 88 340 144 396 C 200 452 269 480 353 480 C 382 480 415 476 453 468 C 491 460 523 451 550 440 L 511 161 C 507 134 504 108 502 82 C 500 56 499 28 499 0 L 363 0 L 363 70 C 345 41 325 20 302 8 C 278 -3 254 -10 228 -10 Z M 271 110 C 300 110 325 124 347 154 C 368 183 382 223 390 273 L 401 349 C 390 353 379 357 368 359 C 356 361 344 362 332 362 C 296 362 264 345 237 313 C 210 281 197 242 197 198 C 197 168 203 145 215 131 C 227 117 246 110 271 110 Z" unicode="á" />
<glyph horiz-adv-x="543" d="M 198 524 L 313 674 L 429 674 L 502 524 L 391 524 L 359 588 L 309 524 L 198 524 Z M 228 -10 C 180 -10 140 6 108 39 C 76 71 61 119 61 181 C 61 268 88 340 144 396 C 200 452 269 480 353 480 C 382 480 415 476 453 468 C 491 460 523 451 550 440 L 511 161 C 507 134 504 108 502 82 C 500 56 499 28 499 0 L 363 0 L 363 70 C 345 41 325 20 302 8 C 278 -3 254 -10 228 -10 Z M 271 110 C 300 110 325 124 347 154 C 368 183 382 223 390 273 L 401 349 C 390 353 379 357 368 359 C 356 361 344 362 332 362 C 296 362 264 345 237 313 C 210 281 197 242 197 198 C 197 168 203 145 215 131 C 227 117 246 110 271 110 Z" unicode="â" />
<glyph horiz-adv-x="543" d="M 274 524 L 194 524 C 200 568 212 602 231 625 C 250 647 276 659 308 659 C 320 659 332 657 343 654 C 354 650 365 645 376 638 C 385 632 393 627 399 624 C 405 620 411 619 417 619 C 425 619 433 622 439 629 C 445 635 448 644 450 655 L 530 655 C 523 610 510 576 491 554 C 472 531 447 520 416 520 C 401 520 388 521 378 525 C 368 528 358 533 348 541 C 339 547 331 552 325 555 C 319 558 313 560 307 560 C 298 560 291 556 285 550 C 279 543 275 534 274 524 Z M 228 -10 C 180 -10 140 6 108 39 C 76 71 61 119 61 181 C 61 268 88 340 144 396 C 200 452 269 480 353 480 C 382 480 415 476 453 468 C 491 460 523 451 550 440 L 511 161 C 507 134 504 108 502 82 C 500 56 499 28 499 0 L 363 0 L 363 70 C 345 41 325 20 302 8 C 278 -3 254 -10 228 -10 Z M 271 110 C 300 110 325 124 347 154 C 368 183 382 223 390 273 L 401 349 C 390 353 379 357 368 359 C 356 361 344 362 332 362 C 296 362 264 345 237 313 C 210 281 197 242 197 198 C 197 168 203 145 215 131 C 227 117 246 110 271 110 Z" unicode="ã" />
<glyph horiz-adv-x="543" d="M 194 525 L 211 649 L 335 649 L 318 525 L 194 525 Z M 384 525 L 401 649 L 525 649 L 508 525 L 384 525 Z M 228 -10 C 180 -10 140 6 108 39 C 76 71 61 119 61 181 C 61 268 88 340 144 396 C 200 452 269 480 353 480 C 382 480 415 476 453 468 C 491 460 523 451 550 440 L 511 161 C 507 134 504 108 502 82 C 500 56 499 28 499 0 L 363 0 L 363 70 C 345 41 325 20 302 8 C 278 -3 254 -10 228 -10 Z M 271 110 C 300 110 325 124 347 154 C 368 183 382 223 390 273 L 401 349 C 390 353 379 357 368 359 C 356 361 344 362 332 362 C 296 362 264 345 237 313 C 210 281 197 242 197 198 C 197 168 203 145 215 131 C 227 117 246 110 271 110 Z" unicode="ä" />
<glyph horiz-adv-x="543" d="M 228 -10 C 180 -10 140 6 108 39 C 76 71 61 119 61 181 C 61 249 78 308 114 358 C 149 408 195 443 251 463 C 247 470 243 478 241 487 C 239 496 238 505 238 515 C 238 548 249 576 273 598 C 296 620 325 632 360 632 C 388 632 412 622 431 603 C 450 584 460 560 460 532 C 460 520 458 509 455 499 C 452 488 448 478 444 470 C 462 466 481 462 500 457 C 518 452 535 446 550 440 L 511 161 C 507 134 504 108 502 82 C 500 56 499 28 499 0 L 363 0 L 363 70 C 345 41 325 20 302 8 C 278 -3 254 -10 228 -10 Z M 346 486 C 358 486 367 489 375 497 C 383 505 387 514 387 526 C 387 536 383 544 377 551 C 370 557 362 561 352 561 C 340 561 331 557 323 549 C 315 541 311 531 311 521 C 311 511 314 502 321 496 C 327 489 336 486 346 486 Z M 271 110 C 300 110 325 124 347 154 C 368 183 382 223 390 273 L 401 349 C 390 353 379 357 368 359 C 356 361 344 362 332 362 C 296 362 264 345 237 313 C 210 281 197 242 197 198 C 197 168 203 145 215 131 C 227 117 246 110 271 110 Z" unicode="å" />
<glyph horiz-adv-x="736" d="M 198 -10 C 146 -10 108 2 85 28 C 61 54 50 83 50 117 C 50 167 68 206 104 236 C 140 266 189 281 251 283 L 323 285 L 326 309 C 328 329 323 345 310 355 C 297 365 276 370 247 370 C 222 370 197 366 172 360 C 146 354 122 345 100 334 L 116 450 C 144 460 172 467 200 472 C 228 477 255 480 280 480 C 318 480 348 474 370 464 C 392 454 407 440 417 424 C 437 441 461 455 488 465 C 515 475 544 480 575 480 C 623 480 664 466 697 439 C 729 411 746 377 746 336 C 746 285 726 248 688 226 C 649 204 588 192 505 190 L 450 189 C 452 164 463 144 481 129 C 499 114 524 107 556 107 C 584 107 612 111 639 119 C 666 127 692 138 717 154 L 699 25 C 673 13 647 5 620 -1 C 593 -7 566 -10 538 -10 C 494 -10 456 -2 426 12 C 395 27 371 47 355 73 C 336 47 313 26 285 12 C 257 -2 228 -10 198 -10 Z M 558 375 C 534 375 514 366 496 349 C 478 332 466 310 460 283 L 509 284 C 541 284 566 289 582 298 C 598 306 607 320 607 338 C 607 348 602 357 593 364 C 584 371 572 375 558 375 Z M 235 100 C 253 100 268 106 282 118 C 295 130 303 144 306 162 L 310 189 L 256 187 C 235 186 219 181 207 171 C 195 161 190 149 190 135 C 190 123 194 114 202 108 C 210 102 221 99 235 100 Z" unicode="æ" />
<glyph horiz-adv-x="468" d="M 284 -10 C 218 -10 164 9 124 49 C 84 89 64 139 64 199 C 64 282 90 350 142 402 C 194 454 262 480 348 480 C 372 480 395 477 418 471 C 441 465 464 457 486 447 L 468 316 C 444 330 423 340 403 347 C 383 354 361 358 335 358 C 293 358 260 344 236 317 C 212 290 200 256 200 214 C 200 182 209 157 228 139 C 247 121 273 112 306 112 C 334 112 359 116 382 125 C 404 133 427 145 450 161 L 432 30 C 408 16 385 6 361 0 C 337 -6 311 -10 284 -10 Z M 222 -242 C 209 -242 197 -240 185 -238 C 173 -236 161 -232 151 -228 L 161 -153 C 170 -157 179 -161 189 -164 C 198 -166 207 -168 217 -168 C 227 -168 235 -165 242 -159 C 248 -153 252 -146 252 -137 C 252 -129 249 -122 243 -118 C 237 -113 230 -111 221 -111 L 215 -111 L 225 -40 L 231 -40 C 264 -40 290 -48 310 -65 C 330 -82 340 -105 340 -133 C 340 -163 328 -189 306 -210 C 284 -231 256 -242 222 -242 Z" unicode="ç" />
<glyph horiz-adv-x="489" d="M 255 524 L 149 674 L 307 674 L 395 524 L 255 524 Z M 291 -10 C 218 -10 162 9 123 49 C 83 89 64 139 64 199 C 64 279 89 345 139 399 C 189 453 252 480 328 480 C 376 480 417 466 450 439 C 482 411 499 377 499 336 C 499 285 479 247 440 221 C 400 195 337 180 249 176 L 202 174 C 206 152 218 136 237 124 C 255 112 279 107 309 107 C 337 107 365 111 393 119 C 420 127 446 138 471 154 L 452 25 C 426 13 400 5 373 -1 C 346 -7 319 -10 291 -10 Z M 311 367 C 286 367 264 358 245 340 C 226 322 214 298 209 269 L 262 272 C 294 273 319 279 335 289 C 351 299 360 314 360 332 C 360 342 355 351 346 357 C 337 363 325 367 311 367 Z" unicode="è" />
<glyph horiz-adv-x="489" d="M 252 524 L 382 674 L 540 674 L 392 524 L 252 524 Z M 291 -10 C 218 -10 162 9 123 49 C 83 89 64 139 64 199 C 64 279 89 345 139 399 C 189 453 252 480 328 480 C 376 480 417 466 450 439 C 482 411 499 377 499 336 C 499 285 479 247 440 221 C 400 195 337 180 249 176 L 202 174 C 206 152 218 136 237 124 C 255 112 279 107 309 107 C 337 107 365 111 393 119 C 420 127 446 138 471 154 L 452 25 C 426 13 400 5 373 -1 C 346 -7 319 -10 291 -10 Z M 311 367 C 286 367 264 358 245 340 C 226 322 214 298 209 269 L 262 272 C 294 273 319 279 335 289 C 351 299 360 314 360 332 C 360 342 355 351 346 357 C 337 363 325 367 311 367 Z" unicode="é" />
<glyph horiz-adv-x="489" d="M 172 524 L 287 674 L 403 674 L 476 524 L 365 524 L 333 588 L 283 524 L 172 524 Z M 291 -10 C 218 -10 162 9 123 49 C 83 89 64 139 64 199 C 64 279 89 345 139 399 C 189 453 252 480 328 480 C 376 480 417 466 450 439 C 482 411 499 377 499 336 C 499 285 479 247 440 221 C 400 195 337 180 249 176 L 202 174 C 206 152 218 136 237 124 C 255 112 279 107 309 107 C 337 107 365 111 393 119 C 420 127 446 138 471 154 L 452 25 C 426 13 400 5 373 -1 C 346 -7 319 -10 291 -10 Z M 311 367 C 286 367 264 358 245 340 C 226 322 214 298 209 269 L 262 272 C 294 273 319 279 335 289 C 351 299 360 314 360 332 C 360 342 355 351 346 357 C 337 363 325 367 311 367 Z" unicode="ê" />
<glyph horiz-adv-x="489" d="M 168 525 L 185 649 L 309 649 L 292 525 L 168 525 Z M 358 525 L 375 649 L 499 649 L 482 525 L 358 525 Z M 291 -10 C 218 -10 162 9 123 49 C 83 89 64 139 64 199 C 64 279 89 345 139 399 C 189 453 252 480 328 480 C 376 480 417 466 450 439 C 482 411 499 377 499 336 C 499 285 479 247 440 221 C 400 195 337 180 249 176 L 202 174 C 206 152 218 136 237 124 C 255 112 279 107 309 107 C 337 107 365 111 393 119 C 420 127 446 138 471 154 L 452 25 C 426 13 400 5 373 -1 C 346 -7 319 -10 291 -10 Z M 311 367 C 286 367 264 358 245 340 C 226 322 214 298 209 269 L 262 272 C 294 273 319 279 335 289 C 351 299 360 314 360 332 C 360 342 355 351 346 357 C 337 363 325 367 311 367 Z" unicode="ë" />
<glyph horiz-adv-x="239" d="M 122 524 L 16 674 L 174 674 L 262 524 L 122 524 Z M 58 0 C 58 22 58 45 60 67 C 62 89 64 111 67 134 L 114 470 L 251 470 L 204 134 C 201 114 199 91 197 67 C 195 43 194 20 195 0 L 58 0 Z" unicode="ì" />
<glyph horiz-adv-x="239" d="M 119 524 L 249 674 L 407 674 L 259 524 L 119 524 Z M 58 0 C 58 22 58 45 60 67 C 62 89 64 111 67 134 L 114 470 L 251 470 L 204 134 C 201 114 199 91 197 67 C 195 43 194 20 195 0 L 58 0 Z" unicode="í" />
<glyph horiz-adv-x="239" d="M 39 524 L 154 674 L 270 674 L 343 524 L 232 524 L 200 588 L 150 524 L 39 524 Z M 58 0 C 58 22 58 45 60 67 C 62 89 64 111 67 134 L 114 470 L 251 470 L 204 134 C 201 114 199 91 197 67 C 195 43 194 20 195 0 L 58 0 Z" unicode="î" />
<glyph horiz-adv-x="239" d="M 35 525 L 52 649 L 176 649 L 159 525 L 35 525 Z M 225 525 L 242 649 L 366 649 L 349 525 L 225 525 Z M 58 0 C 58 22 58 45 60 67 C 62 89 64 111 67 134 L 114 470 L 251 470 L 204 134 C 201 114 199 91 197 67 C 195 43 194 20 195 0 L 58 0 Z" unicode="ï" />
<glyph horiz-adv-x="575" d="M 296 -12 C 230 -12 175 7 131 46 C 87 85 65 139 65 209 C 65 286 88 351 136 403 C 184 455 243 482 315 482 C 345 482 372 477 396 469 C 419 460 438 447 453 431 C 447 451 439 470 430 490 C 420 509 409 528 397 547 L 283 513 L 264 619 L 317 635 C 305 645 292 655 279 665 C 265 675 251 684 237 693 L 381 748 C 395 738 408 728 422 716 C 435 704 447 691 459 678 L 571 712 L 590 605 L 522 585 C 539 551 553 514 563 474 C 573 434 578 392 578 349 C 578 238 551 150 497 85 C 443 20 376 -12 296 -12 Z M 302 114 C 340 114 370 127 393 154 C 415 181 427 215 427 255 C 427 283 417 308 398 328 C 378 348 354 358 324 358 C 290 358 261 344 238 318 C 214 292 203 259 203 219 C 203 189 211 164 229 144 C 247 124 271 114 302 114 Z" unicode="ð" />
<glyph horiz-adv-x="522" d="M 248 524 L 168 524 C 174 568 186 602 205 625 C 224 647 250 659 282 659 C 294 659 306 657 317 654 C 328 650 339 645 350 638 C 359 632 367 627 373 624 C 379 620 385 619 391 619 C 399 619 407 622 413 629 C 419 635 422 644 424 655 L 504 655 C 497 610 484 576 465 554 C 446 531 421 520 390 520 C 375 520 362 521 352 525 C 342 528 332 533 322 541 C 313 547 305 552 299 555 C 293 558 287 560 281 560 C 272 560 265 556 259 550 C 253 543 249 534 248 524 Z M 52 0 L 100 341 C 103 364 105 386 107 408 C 109 429 110 450 110 470 L 246 470 C 246 461 246 451 246 441 C 246 431 245 422 245 415 L 244 391 C 261 420 282 442 308 457 C 333 472 360 480 389 480 C 434 480 469 464 495 434 C 520 403 528 362 519 312 L 487 136 C 483 115 480 93 479 70 C 478 46 478 23 478 0 L 341 0 C 341 22 341 45 342 69 C 343 93 346 115 350 136 L 377 267 C 383 295 380 316 369 332 C 358 348 343 356 323 356 C 295 356 272 339 253 305 C 234 271 220 221 211 155 L 189 0 L 52 0 Z" unicode="ñ" />
<glyph horiz-adv-x="541" d="M 273 524 L 167 674 L 325 674 L 413 524 L 273 524 Z M 286 -12 C 217 -12 163 7 123 45 C 83 83 64 136 64 202 C 64 281 88 347 138 401 C 188 455 250 482 325 482 C 392 482 445 462 485 424 C 525 386 545 334 545 268 C 545 188 520 122 470 68 C 420 14 359 -12 286 -12 Z M 292 109 C 325 109 353 123 375 152 C 397 181 409 217 409 260 C 409 288 400 312 382 332 C 364 351 343 361 317 361 C 283 361 255 346 233 317 C 211 288 200 252 200 210 C 200 181 208 157 226 138 C 243 118 265 109 292 109 Z" unicode="ò" />
<glyph horiz-adv-x="541" d="M 270 524 L 400 674 L 558 674 L 410 524 L 270 524 Z M 286 -12 C 217 -12 163 7 123 45 C 83 83 64 136 64 202 C 64 281 88 347 138 401 C 188 455 250 482 325 482 C 392 482 445 462 485 424 C 525 386 545 334 545 268 C 545 188 520 122 470 68 C 420 14 359 -12 286 -12 Z M 292 109 C 325 109 353 123 375 152 C 397 181 409 217 409 260 C 409 288 400 312 382 332 C 364 351 343 361 317 361 C 283 361 255 346 233 317 C 211 288 200 252 200 210 C 200 181 208 157 226 138 C 243 118 265 109 292 109 Z" unicode="ó" />
<glyph horiz-adv-x="541" d="M 190 524 L 305 674 L 421 674 L 494 524 L 383 524 L 351 588 L 301 524 L 190 524 Z M 286 -12 C 217 -12 163 7 123 45 C 83 83 64 136 64 202 C 64 281 88 347 138 401 C 188 455 250 482 325 482 C 392 482 445 462 485 424 C 525 386 545 334 545 268 C 545 188 520 122 470 68 C 420 14 359 -12 286 -12 Z M 292 109 C 325 109 353 123 375 152 C 397 181 409 217 409 260 C 409 288 400 312 382 332 C 364 351 343 361 317 361 C 283 361 255 346 233 317 C 211 288 200 252 200 210 C 200 181 208 157 226 138 C 243 118 265 109 292 109 Z" unicode="ô" />
<glyph horiz-adv-x="541" d="M 266 524 L 186 524 C 192 568 204 602 223 625 C 242 647 268 659 300 659 C 312 659 324 657 335 654 C 346 650 357 645 368 638 C 377 632 385 627 391 624 C 397 620 403 619 409 619 C 417 619 425 622 431 629 C 437 635 440 644 442 655 L 522 655 C 515 610 502 576 483 554 C 464 531 439 520 408 520 C 393 520 380 521 370 525 C 360 528 350 533 340 541 C 331 547 323 552 317 555 C 311 558 305 560 299 560 C 290 560 283 556 277 550 C 271 543 267 534 266 524 Z M 286 -12 C 217 -12 163 7 123 45 C 83 83 64 136 64 202 C 64 281 88 347 138 401 C 188 455 250 482 325 482 C 392 482 445 462 485 424 C 525 386 545 334 545 268 C 545 188 520 122 470 68 C 420 14 359 -12 286 -12 Z M 292 109 C 325 109 353 123 375 152 C 397 181 409 217 409 260 C 409 288 400 312 382 332 C 364 351 343 361 317 361 C 283 361 255 346 233 317 C 211 288 200 252 200 210 C 200 181 208 157 226 138 C 243 118 265 109 292 109 Z" unicode="õ" />
<glyph horiz-adv-x="541" d="M 186 525 L 203 649 L 327 649 L 310 525 L 186 525 Z M 376 525 L 393 649 L 517 649 L 500 525 L 376 525 Z M 286 -12 C 217 -12 163 7 123 45 C 83 83 64 136 64 202 C 64 281 88 347 138 401 C 188 455 250 482 325 482 C 392 482 445 462 485 424 C 525 386 545 334 545 268 C 545 188 520 122 470 68 C 420 14 359 -12 286 -12 Z M 292 109 C 325 109 353 123 375 152 C 397 181 409 217 409 260 C 409 288 400 312 382 332 C 364 351 343 361 317 361 C 283 361 255 346 233 317 C 211 288 200 252 200 210 C 200 181 208 157 226 138 C 243 118 265 109 292 109 Z" unicode="ö" />
<glyph horiz-adv-x="520" d="M 261 422 L 278 540 L 396 540 L 379 422 L 261 422 Z M 77 235 L 94 353 L 526 353 L 509 235 L 77 235 Z M 208 48 L 225 166 L 343 166 L 326 48 L 208 48 Z" unicode="÷" />
<glyph horiz-adv-x="543" d="M 56 -48 L 120 48 C 102 66 88 89 78 115 C 68 141 64 170 64 202 C 64 281 88 347 138 401 C 188 455 250 482 325 482 C 339 482 352 481 365 479 C 378 477 390 475 402 472 L 433 518 L 547 518 L 485 425 C 504 406 519 383 529 357 C 539 330 545 300 545 268 C 545 188 520 122 470 68 C 420 14 359 -12 286 -12 C 270 -12 256 -11 242 -9 C 228 -7 214 -4 202 0 L 170 -48 L 56 -48 Z M 200 210 C 200 204 200 198 201 192 C 202 186 203 180 205 176 L 328 360 C 326 360 324 361 322 361 C 320 361 319 361 317 361 C 283 361 255 346 233 317 C 211 288 200 252 200 210 Z M 292 109 C 325 109 353 123 375 152 C 397 181 409 217 409 260 C 409 267 408 274 407 281 C 405 287 404 294 402 300 L 276 110 C 278 109 281 109 284 109 C 286 109 289 109 292 109 Z" unicode="ø" />
<glyph horiz-adv-x="525" d="M 257 524 L 151 674 L 309 674 L 397 524 L 257 524 Z M 199 -10 C 153 -10 118 5 93 36 C 68 66 60 107 68 158 L 98 347 C 102 371 105 393 107 413 C 109 433 110 452 110 470 L 247 470 C 247 449 246 428 244 406 C 242 384 239 363 235 341 L 211 203 C 205 173 207 151 216 136 C 225 121 241 114 265 114 C 293 114 316 129 334 161 C 352 192 366 243 377 315 L 399 470 L 536 470 L 489 136 C 486 114 484 92 483 68 C 481 44 481 22 481 0 L 344 0 L 344 79 C 326 49 305 27 280 12 C 255 -2 228 -10 199 -10 Z" unicode="ù" />
<glyph horiz-adv-x="525" d="M 254 524 L 384 674 L 542 674 L 394 524 L 254 524 Z M 199 -10 C 153 -10 118 5 93 36 C 68 66 60 107 68 158 L 98 347 C 102 371 105 393 107 413 C 109 433 110 452 110 470 L 247 470 C 247 449 246 428 244 406 C 242 384 239 363 235 341 L 211 203 C 205 173 207 151 216 136 C 225 121 241 114 265 114 C 293 114 316 129 334 161 C 352 192 366 243 377 315 L 399 470 L 536 470 L 489 136 C 486 114 484 92 483 68 C 481 44 481 22 481 0 L 344 0 L 344 79 C 326 49 305 27 280 12 C 255 -2 228 -10 199 -10 Z" unicode="ú" />
<glyph horiz-adv-x="525" d="M 174 524 L 289 674 L 405 674 L 478 524 L 367 524 L 335 588 L 285 524 L 174 524 Z M 199 -10 C 153 -10 118 5 93 36 C 68 66 60 107 68 158 L 98 347 C 102 371 105 393 107 413 C 109 433 110 452 110 470 L 247 470 C 247 449 246 428 244 406 C 242 384 239 363 235 341 L 211 203 C 205 173 207 151 216 136 C 225 121 241 114 265 114 C 293 114 316 129 334 161 C 352 192 366 243 377 315 L 399 470 L 536 470 L 489 136 C 486 114 484 92 483 68 C 481 44 481 22 481 0 L 344 0 L 344 79 C 326 49 305 27 280 12 C 255 -2 228 -10 199 -10 Z" unicode="û" />
<glyph horiz-adv-x="525" d="M 170 525 L 187 649 L 311 649 L 294 525 L 170 525 Z M 360 525 L 377 649 L 501 649 L 484 525 L 360 525 Z M 199 -10 C 153 -10 118 5 93 36 C 68 66 60 107 68 158 L 98 347 C 102 371 105 393 107 413 C 109 433 110 452 110 470 L 247 470 C 247 449 246 428 244 406 C 242 384 239 363 235 341 L 211 203 C 205 173 207 151 216 136 C 225 121 241 114 265 114 C 293 114 316 129 334 161 C 352 192 366 243 377 315 L 399 470 L 536 470 L 489 136 C 486 114 484 92 483 68 C 481 44 481 22 481 0 L 344 0 L 344 79 C 326 49 305 27 280 12 C 255 -2 228 -10 199 -10 Z" unicode="ü" />
<glyph horiz-adv-x="502" d="M 233 524 L 363 674 L 521 674 L 373 524 L 233 524 Z M 358 12 C 306 -64 249 -120 187 -156 C 125 -192 58 -210 -14 -210 L -21 -210 L -4 -86 L 4 -86 C 38 -86 70 -79 101 -66 C 131 -53 159 -35 183 -11 L 74 470 L 225 470 L 267 239 L 286 107 C 306 149 327 198 347 256 C 367 314 388 385 412 470 L 552 470 C 524 370 493 283 461 207 C 429 131 394 66 358 12 Z" unicode="ý" />
<glyph horiz-adv-x="533" d="M 15 -210 L 145 716 L 282 716 L 247 470 C 245 456 243 443 241 430 C 239 417 236 404 234 392 C 250 422 271 445 295 459 C 319 473 344 480 372 480 C 420 480 459 463 491 431 C 523 398 539 349 539 285 C 539 200 512 130 460 74 C 407 18 340 -10 259 -10 C 246 -10 233 -9 220 -7 C 206 -5 194 -2 182 0 L 152 -210 L 15 -210 Z M 271 104 C 309 104 341 120 366 152 C 390 184 403 222 403 264 C 403 294 396 318 383 334 C 370 350 351 358 326 358 C 304 358 282 348 259 329 C 236 310 220 265 211 195 L 200 114 C 210 110 221 108 233 106 C 245 104 258 104 271 104 Z" unicode="þ" />
<glyph horiz-adv-x="502" d="M 149 525 L 166 649 L 290 649 L 273 525 L 149 525 Z M 339 525 L 356 649 L 480 649 L 463 525 L 339 525 Z M 358 12 C 306 -64 249 -120 187 -156 C 125 -192 58 -210 -14 -210 L -21 -210 L -4 -86 L 4 -86 C 38 -86 70 -79 101 -66 C 131 -53 159 -35 183 -11 L 74 470 L 225 470 L 267 239 L 286 107 C 306 149 327 198 347 256 C 367 314 388 385 412 470 L 552 470 C 524 370 493 283 461 207 C 429 131 394 66 358 12 Z" unicode="ÿ" />
<glyph horiz-adv-x="687" d="M 324 706 L 337 802 L 575 802 L 561 706 L 324 706 Z M 16 0 L 370 658 L 501 658 L 671 0 L 524 0 L 490 140 L 234 140 L 161 0 L 16 0 Z M 297 264 L 460 264 L 435 370 L 410 489 L 352 370 L 297 264 Z" unicode="Ā" />
<glyph horiz-adv-x="543" d="M 219 532 L 234 639 L 498 639 L 483 532 L 219 532 Z M 228 -10 C 180 -10 140 6 108 39 C 76 71 61 119 61 181 C 61 268 88 340 144 396 C 200 452 269 480 353 480 C 382 480 415 476 453 468 C 491 460 523 451 550 440 L 511 161 C 507 134 504 108 502 82 C 500 56 499 28 499 0 L 363 0 L 363 70 C 345 41 325 20 302 8 C 278 -3 254 -10 228 -10 Z M 271 110 C 300 110 325 124 347 154 C 368 183 382 223 390 273 L 401 349 C 390 353 379 357 368 359 C 356 361 344 362 332 362 C 296 362 264 345 237 313 C 210 281 197 242 197 198 C 197 168 203 145 215 131 C 227 117 246 110 271 110 Z" unicode="ā" />
<glyph horiz-adv-x="687" d="M 440 698 C 400 698 370 710 350 734 C 330 758 323 790 329 830 L 407 830 C 405 815 407 803 414 794 C 421 785 432 781 446 781 C 458 781 469 785 478 794 C 487 803 492 815 494 830 L 574 830 C 568 790 552 758 528 734 C 504 710 474 698 440 698 Z M 16 0 L 370 658 L 501 658 L 671 0 L 524 0 L 490 140 L 234 140 L 161 0 L 16 0 Z M 297 264 L 460 264 L 435 370 L 410 489 L 352 370 L 297 264 Z" unicode="Ă" />
<glyph horiz-adv-x="543" d="M 353 516 C 308 516 274 529 252 556 C 230 582 222 618 229 663 L 316 663 C 314 646 316 633 324 623 C 332 613 343 609 359 609 C 373 609 385 613 395 623 C 405 633 411 646 413 663 L 501 663 C 494 618 477 582 450 556 C 423 529 391 516 353 516 Z M 228 -10 C 180 -10 140 6 108 39 C 76 71 61 119 61 181 C 61 268 88 340 144 396 C 200 452 269 480 353 480 C 382 480 415 476 453 468 C 491 460 523 451 550 440 L 511 161 C 507 134 504 108 502 82 C 500 56 499 28 499 0 L 363 0 L 363 70 C 345 41 325 20 302 8 C 278 -3 254 -10 228 -10 Z M 271 110 C 300 110 325 124 347 154 C 368 183 382 223 390 273 L 401 349 C 390 353 379 357 368 359 C 356 361 344 362 332 362 C 296 362 264 345 237 313 C 210 281 197 242 197 198 C 197 168 203 145 215 131 C 227 117 246 110 271 110 Z" unicode="ă" />
<glyph horiz-adv-x="687" d="M 16 0 L 370 658 L 501 658 L 671 0 L 660 0 C 639 0 622 -6 609 -18 C 596 -30 590 -45 590 -63 C 590 -78 595 -90 606 -99 C 616 -107 632 -112 652 -112 L 637 -220 C 587 -220 547 -209 517 -187 C 487 -165 473 -136 473 -98 C 473 -78 477 -59 486 -41 C 495 -23 507 -8 523 5 L 490 140 L 234 140 L 161 0 L 16 0 Z M 297 264 L 460 264 L 435 370 L 410 489 L 352 370 L 297 264 Z" unicode="Ą" />
<glyph horiz-adv-x="543" d="M 228 -10 C 180 -10 140 6 108 39 C 76 71 61 119 61 181 C 61 268 88 340 144 396 C 200 452 269 480 353 480 C 382 480 415 476 453 468 C 491 460 523 451 550 440 L 511 161 C 507 134 504 108 502 82 C 500 56 499 28 499 0 L 484 0 C 468 -2 457 -8 449 -17 C 441 -26 437 -37 437 -50 C 437 -63 442 -74 452 -83 C 462 -92 478 -97 498 -97 L 482 -211 C 431 -211 390 -202 359 -184 C 327 -166 312 -138 312 -102 C 312 -82 316 -63 326 -47 C 335 -30 349 -14 367 0 L 363 0 L 363 70 C 345 41 325 20 302 8 C 278 -3 254 -10 228 -10 Z M 271 110 C 300 110 325 124 347 154 C 368 183 382 223 390 273 L 401 349 C 390 353 379 357 368 359 C 356 361 344 362 332 362 C 296 362 264 345 237 313 C 210 281 197 242 197 198 C 197 168 203 145 215 131 C 227 117 246 110 271 110 Z" unicode="ą" />
<glyph horiz-adv-x="652" d="M 435 714 L 552 849 L 698 849 L 565 714 L 435 714 Z M 408 -16 C 308 -16 229 13 173 71 C 117 129 89 201 89 287 C 89 398 124 490 196 564 C 267 637 364 674 486 674 C 522 674 557 670 591 662 C 625 654 657 641 687 625 L 667 485 C 636 503 605 518 573 528 C 541 538 508 544 473 544 C 399 544 340 521 297 475 C 254 429 233 370 233 297 C 233 245 250 201 284 166 C 318 131 364 114 422 114 C 460 114 496 119 530 130 C 564 141 598 157 633 179 L 613 36 C 579 18 544 4 510 -3 C 476 -11 442 -16 408 -16 Z" unicode="Ć" />
<glyph horiz-adv-x="468" d="M 259 524 L 389 674 L 547 674 L 399 524 L 259 524 Z M 284 -10 C 218 -10 164 9 124 49 C 84 89 64 139 64 199 C 64 282 90 350 142 402 C 194 454 262 480 348 480 C 372 480 395 477 418 471 C 441 465 464 457 486 447 L 468 316 C 444 330 423 340 403 347 C 383 354 361 358 335 358 C 293 358 260 344 236 317 C 212 290 200 256 200 214 C 200 182 209 157 228 139 C 247 121 273 112 306 112 C 334 112 359 116 382 125 C 404 133 427 145 450 161 L 432 30 C 408 16 385 6 361 0 C 337 -6 311 -10 284 -10 Z" unicode="ć" />
<glyph horiz-adv-x="652" d="M 363 714 L 466 849 L 571 849 L 636 714 L 537 714 L 508 772 L 463 714 L 363 714 Z M 408 -16 C 308 -16 229 13 173 71 C 117 129 89 201 89 287 C 89 398 124 490 196 564 C 267 637 364 674 486 674 C 522 674 557 670 591 662 C 625 654 657 641 687 625 L 667 485 C 636 503 605 518 573 528 C 541 538 508 544 473 544 C 399 544 340 521 297 475 C 254 429 233 370 233 297 C 233 245 250 201 284 166 C 318 131 364 114 422 114 C 460 114 496 119 530 130 C 564 141 598 157 633 179 L 613 36 C 579 18 544 4 510 -3 C 476 -11 442 -16 408 -16 Z" unicode="Ĉ" />
<glyph horiz-adv-x="468" d="M 179 524 L 294 674 L 410 674 L 483 524 L 372 524 L 340 588 L 290 524 L 179 524 Z M 284 -10 C 218 -10 164 9 124 49 C 84 89 64 139 64 199 C 64 282 90 350 142 402 C 194 454 262 480 348 480 C 372 480 395 477 418 471 C 441 465 464 457 486 447 L 468 316 C 444 330 423 340 403 347 C 383 354 361 358 335 358 C 293 358 260 344 236 317 C 212 290 200 256 200 214 C 200 182 209 157 228 139 C 247 121 273 112 306 112 C 334 112 359 116 382 125 C 404 133 427 145 450 161 L 432 30 C 408 16 385 6 361 0 C 337 -6 311 -10 284 -10 Z" unicode="ĉ" />
<glyph horiz-adv-x="652" d="M 439 714 L 456 833 L 575 833 L 558 714 L 439 714 Z M 408 -16 C 308 -16 229 13 173 71 C 117 129 89 201 89 287 C 89 398 124 490 196 564 C 267 637 364 674 486 674 C 522 674 557 670 591 662 C 625 654 657 641 687 625 L 667 485 C 636 503 605 518 573 528 C 541 538 508 544 473 544 C 399 544 340 521 297 475 C 254 429 233 370 233 297 C 233 245 250 201 284 166 C 318 131 364 114 422 114 C 460 114 496 119 530 130 C 564 141 598 157 633 179 L 613 36 C 579 18 544 4 510 -3 C 476 -11 442 -16 408 -16 Z" unicode="Ċ" />
<glyph horiz-adv-x="468" d="M 267 524 L 286 656 L 418 656 L 399 524 L 267 524 Z M 284 -10 C 218 -10 164 9 124 49 C 84 89 64 139 64 199 C 64 282 90 350 142 402 C 194 454 262 480 348 480 C 372 480 395 477 418 471 C 441 465 464 457 486 447 L 468 316 C 444 330 423 340 403 347 C 383 354 361 358 335 358 C 293 358 260 344 236 317 C 212 290 200 256 200 214 C 200 182 209 157 228 139 C 247 121 273 112 306 112 C 334 112 359 116 382 125 C 404 133 427 145 450 161 L 432 30 C 408 16 385 6 361 0 C 337 -6 311 -10 284 -10 Z" unicode="ċ" />
<glyph horiz-adv-x="652" d="M 447 714 L 382 849 L 482 849 L 510 791 L 555 849 L 655 849 L 552 714 L 447 714 Z M 408 -16 C 308 -16 229 13 173 71 C 117 129 89 201 89 287 C 89 398 124 490 196 564 C 267 637 364 674 486 674 C 522 674 557 670 591 662 C 625 654 657 641 687 625 L 667 485 C 636 503 605 518 573 528 C 541 538 508 544 473 544 C 399 544 340 521 297 475 C 254 429 233 370 233 297 C 233 245 250 201 284 166 C 318 131 364 114 422 114 C 460 114 496 119 530 130 C 564 141 598 157 633 179 L 613 36 C 579 18 544 4 510 -3 C 476 -11 442 -16 408 -16 Z" unicode="Č" />
<glyph horiz-adv-x="468" d="M 273 524 L 200 674 L 311 674 L 342 610 L 393 674 L 504 674 L 389 524 L 273 524 Z M 284 -10 C 218 -10 164 9 124 49 C 84 89 64 139 64 199 C 64 282 90 350 142 402 C 194 454 262 480 348 480 C 372 480 395 477 418 471 C 441 465 464 457 486 447 L 468 316 C 444 330 423 340 403 347 C 383 354 361 358 335 358 C 293 358 260 344 236 317 C 212 290 200 256 200 214 C 200 182 209 157 228 139 C 247 121 273 112 306 112 C 334 112 359 116 382 125 C 404 133 427 145 450 161 L 432 30 C 408 16 385 6 361 0 C 337 -6 311 -10 284 -10 Z" unicode="č" />
<glyph horiz-adv-x="696" d="M 324 706 L 259 841 L 359 841 L 387 783 L 432 841 L 532 841 L 429 706 L 324 706 Z M 64 0 L 156 658 L 385 658 C 482 658 559 631 615 577 C 671 523 699 453 699 367 C 699 258 662 170 588 102 C 514 34 414 0 290 0 L 64 0 Z M 223 132 L 309 132 C 385 132 445 153 489 195 C 533 237 555 292 555 360 C 555 408 538 447 506 479 C 474 510 429 526 373 526 L 278 526 L 223 132 Z" unicode="Ď" />
<glyph horiz-adv-x="738" d="M 228 -10 C 180 -10 140 6 108 39 C 76 71 61 119 61 181 C 61 268 88 340 144 396 C 200 452 269 480 353 480 C 362 480 372 479 384 478 C 395 477 406 476 418 474 L 452 716 L 589 716 L 511 161 C 507 134 504 108 502 82 C 500 56 499 28 499 0 L 363 0 L 363 70 C 345 41 325 20 302 8 C 278 -3 254 -10 228 -10 Z M 714 494 L 616 531 C 632 554 643 576 651 596 C 658 616 664 640 668 668 L 675 716 L 795 716 L 788 668 C 782 627 773 594 763 569 C 752 544 736 519 714 494 Z M 271 110 C 300 110 325 124 347 154 C 368 183 382 223 390 273 L 401 349 C 391 353 380 357 368 359 C 356 361 344 362 332 362 C 296 362 264 346 237 314 C 210 282 197 243 197 199 C 197 169 203 146 215 132 C 227 117 246 110 271 110 Z" unicode="ď" />
<glyph horiz-adv-x="716" d="M 81 0 L 118 265 L 70 265 L 87 385 L 135 385 L 173 658 L 402 658 C 499 658 576 631 632 577 C 688 523 716 453 716 367 C 716 258 679 170 605 102 C 531 34 431 0 307 0 L 81 0 Z M 240 132 L 326 132 C 402 132 462 153 506 195 C 550 237 572 292 572 360 C 572 408 555 447 523 479 C 491 510 446 526 390 526 L 295 526 L 275 385 L 366 385 L 349 265 L 259 265 L 240 132 Z" unicode="Đ" />
<glyph horiz-adv-x="543" d="M 228 -10 C 180 -10 140 6 108 39 C 76 71 61 119 61 181 C 61 268 88 340 144 396 C 200 452 269 480 353 480 C 362 480 372 479 384 478 C 395 477 406 476 418 474 L 425 526 L 375 526 L 391 638 L 441 638 L 452 716 L 589 716 L 578 638 L 630 638 L 614 526 L 562 526 L 511 161 C 507 134 504 108 502 82 C 500 56 499 28 499 0 L 363 0 L 363 70 C 345 41 325 20 302 8 C 278 -3 254 -10 228 -10 Z M 271 110 C 300 110 325 124 347 154 C 368 183 382 223 390 273 L 401 349 C 391 353 380 357 368 359 C 356 361 344 362 332 362 C 296 362 264 346 237 314 C 210 282 197 243 197 199 C 197 169 203 146 215 132 C 227 117 246 110 271 110 Z" unicode="đ" />
<glyph horiz-adv-x="530" d="M 248 706 L 261 802 L 499 802 L 485 706 L 248 706 Z M 64 0 L 156 658 L 553 658 L 534 526 L 278 526 L 260 399 L 507 399 L 488 267 L 242 267 L 223 132 L 489 132 L 470 0 L 64 0 Z" unicode="Ē" />
<glyph horiz-adv-x="489" d="M 193 532 L 208 639 L 472 639 L 457 532 L 193 532 Z M 291 -10 C 218 -10 162 9 123 49 C 83 89 64 139 64 199 C 64 279 89 345 139 399 C 189 453 252 480 328 480 C 376 480 417 466 450 439 C 482 411 499 377 499 336 C 499 285 479 247 440 221 C 400 195 337 180 249 176 L 202 174 C 206 152 218 136 237 124 C 255 112 279 107 309 107 C 337 107 365 111 393 119 C 420 127 446 138 471 154 L 452 25 C 426 13 400 5 373 -1 C 346 -7 319 -10 291 -10 Z M 311 367 C 286 367 264 358 245 340 C 226 322 214 298 209 269 L 262 272 C 294 273 319 279 335 289 C 351 299 360 314 360 332 C 360 342 355 351 346 357 C 337 363 325 367 311 367 Z" unicode="ē" />
<glyph horiz-adv-x="530" d="M 364 698 C 324 698 294 710 274 734 C 254 758 247 790 253 830 L 331 830 C 329 815 331 803 338 794 C 345 785 356 781 370 781 C 382 781 393 785 402 794 C 411 803 416 815 418 830 L 498 830 C 492 790 476 758 452 734 C 428 710 398 698 364 698 Z M 64 0 L 156 658 L 553 658 L 534 526 L 278 526 L 260 399 L 507 399 L 488 267 L 242 267 L 223 132 L 489 132 L 470 0 L 64 0 Z" unicode="Ĕ" />
<glyph horiz-adv-x="489" d="M 327 516 C 282 516 248 529 226 556 C 204 582 196 618 203 663 L 290 663 C 288 646 290 633 298 623 C 306 613 317 609 333 609 C 347 609 359 613 369 623 C 379 633 385 646 387 663 L 475 663 C 468 618 451 582 424 556 C 397 529 365 516 327 516 Z M 291 -10 C 218 -10 162 9 123 49 C 83 89 64 139 64 199 C 64 279 89 345 139 399 C 189 453 252 480 328 480 C 376 480 417 466 450 439 C 482 411 499 377 499 336 C 499 285 479 247 440 221 C 400 195 337 180 249 176 L 202 174 C 206 152 218 136 237 124 C 255 112 279 107 309 107 C 337 107 365 111 393 119 C 420 127 446 138 471 154 L 452 25 C 426 13 400 5 373 -1 C 346 -7 319 -10 291 -10 Z M 311 367 C 286 367 264 358 245 340 C 226 322 214 298 209 269 L 262 272 C 294 273 319 279 335 289 C 351 299 360 314 360 332 C 360 342 355 351 346 357 C 337 363 325 367 311 367 Z" unicode="ĕ" />
<glyph horiz-adv-x="530" d="M 303 706 L 320 825 L 439 825 L 422 706 L 303 706 Z M 64 0 L 156 658 L 553 658 L 534 526 L 278 526 L 260 399 L 507 399 L 488 267 L 242 267 L 223 132 L 489 132 L 470 0 L 64 0 Z" unicode="Ė" />
<glyph horiz-adv-x="489" d="M 260 524 L 279 656 L 411 656 L 392 524 L 260 524 Z M 291 -10 C 218 -10 162 9 123 49 C 83 89 64 139 64 199 C 64 279 89 345 139 399 C 189 453 252 480 328 480 C 376 480 417 466 450 439 C 482 411 499 377 499 336 C 499 285 479 247 440 221 C 400 195 337 180 249 176 L 202 174 C 206 152 218 136 237 124 C 255 112 279 107 309 107 C 337 107 365 111 393 119 C 420 127 446 138 471 154 L 452 25 C 426 13 400 5 373 -1 C 346 -7 319 -10 291 -10 Z M 311 367 C 286 367 264 358 245 340 C 226 322 214 298 209 269 L 262 272 C 294 273 319 279 335 289 C 351 299 360 314 360 332 C 360 342 355 351 346 357 C 337 363 325 367 311 367 Z" unicode="ė" />
<glyph horiz-adv-x="530" d="M 64 0 L 156 658 L 553 658 L 534 526 L 278 526 L 260 399 L 507 399 L 488 267 L 242 267 L 223 132 L 489 132 L 470 0 L 466 0 C 445 0 428 -6 415 -18 C 402 -30 396 -45 396 -63 C 396 -78 401 -90 412 -99 C 422 -107 438 -112 458 -112 L 443 -220 C 393 -220 353 -209 323 -187 C 293 -165 279 -136 279 -98 C 279 -79 282 -61 290 -44 C 298 -27 309 -12 323 0 L 64 0 Z" unicode="Ę" />
<glyph horiz-adv-x="489" d="M 413 -210 C 359 -210 316 -199 285 -177 C 254 -155 239 -125 239 -87 C 239 -72 241 -58 245 -45 C 249 -31 256 -19 265 -9 C 201 -4 151 17 116 56 C 81 94 64 142 64 199 C 64 279 89 345 139 399 C 189 453 252 480 328 480 C 376 480 417 466 450 439 C 482 411 499 377 499 336 C 499 285 479 247 440 221 C 400 195 337 180 249 176 L 202 174 C 206 152 218 136 237 124 C 255 112 279 107 309 107 C 337 107 365 111 393 119 C 420 127 446 138 471 154 L 452 25 C 445 22 439 20 433 18 C 427 16 421 13 415 11 C 397 4 384 -4 376 -15 C 367 -25 363 -37 363 -51 C 363 -68 368 -82 379 -92 C 390 -102 406 -107 428 -107 L 413 -210 Z M 311 367 C 286 367 264 358 245 340 C 226 322 214 298 209 269 L 262 272 C 294 273 319 279 335 289 C 351 299 360 314 360 332 C 360 342 355 351 346 357 C 337 363 325 367 311 367 Z" unicode="ę" />
<glyph horiz-adv-x="530" d="M 311 706 L 246 841 L 346 841 L 374 783 L 419 841 L 519 841 L 416 706 L 311 706 Z M 64 0 L 156 658 L 553 658 L 534 526 L 278 526 L 260 399 L 507 399 L 488 267 L 242 267 L 223 132 L 489 132 L 470 0 L 64 0 Z" unicode="Ě" />
<glyph horiz-adv-x="489" d="M 266 524 L 193 674 L 304 674 L 335 610 L 386 674 L 497 674 L 382 524 L 266 524 Z M 291 -10 C 218 -10 162 9 123 49 C 83 89 64 139 64 199 C 64 279 89 345 139 399 C 189 453 252 480 328 480 C 376 480 417 466 450 439 C 482 411 499 377 499 336 C 499 285 479 247 440 221 C 400 195 337 180 249 176 L 202 174 C 206 152 218 136 237 124 C 255 112 279 107 309 107 C 337 107 365 111 393 119 C 420 127 446 138 471 154 L 452 25 C 426 13 400 5 373 -1 C 346 -7 319 -10 291 -10 Z M 311 367 C 286 367 264 358 245 340 C 226 322 214 298 209 269 L 262 272 C 294 273 319 279 335 289 C 351 299 360 314 360 332 C 360 342 355 351 346 357 C 337 363 325 367 311 367 Z" unicode="ě" />
<glyph horiz-adv-x="699" d="M 345 714 L 448 849 L 553 849 L 618 714 L 519 714 L 490 772 L 445 714 L 345 714 Z M 406 -16 C 306 -16 228 12 172 69 C 116 125 88 195 88 279 C 88 391 124 484 196 560 C 268 636 365 674 487 674 C 525 674 564 670 603 662 C 641 654 675 643 703 629 L 684 492 C 657 507 625 519 587 529 C 549 539 513 544 477 544 C 403 544 343 520 299 472 C 254 424 232 364 232 291 C 232 240 248 198 282 165 C 316 131 360 115 416 115 C 436 115 455 116 473 119 C 491 121 506 125 520 131 L 535 238 L 403 238 L 422 370 L 695 370 L 649 43 C 609 23 568 8 527 -1 C 486 -11 446 -16 406 -16 Z" unicode="Ĝ" />
<glyph horiz-adv-x="536" d="M 202 524 L 317 674 L 433 674 L 506 524 L 395 524 L 363 588 L 313 524 L 202 524 Z M 217 -220 C 191 -220 163 -217 133 -211 C 103 -205 75 -198 50 -189 L 68 -58 C 87 -69 111 -79 139 -87 C 167 -95 192 -99 215 -99 C 257 -99 290 -90 312 -74 C 334 -58 347 -32 352 3 L 361 70 C 344 41 324 20 301 8 C 278 -3 254 -10 228 -10 C 180 -10 140 6 108 38 C 76 70 61 118 61 181 C 61 267 88 338 144 395 C 200 451 269 480 353 480 C 382 480 415 476 453 468 C 491 460 523 451 550 440 L 491 23 C 479 -60 451 -121 407 -161 C 363 -200 299 -220 217 -220 Z M 271 110 C 300 110 325 124 347 154 C 368 183 382 223 390 273 L 401 349 C 391 353 380 357 368 359 C 356 361 344 362 332 362 C 296 362 264 345 237 313 C 210 281 197 242 197 197 C 197 167 203 145 215 131 C 227 117 246 110 271 110 Z" unicode="ĝ" />
<glyph horiz-adv-x="699" d="M 482 706 C 442 706 412 718 392 742 C 372 766 365 798 371 838 L 449 838 C 447 823 449 811 456 802 C 463 793 474 789 488 789 C 500 789 511 793 520 802 C 529 811 534 823 536 838 L 616 838 C 610 798 594 766 570 742 C 546 718 516 706 482 706 Z M 406 -16 C 306 -16 228 12 172 69 C 116 125 88 195 88 279 C 88 391 124 484 196 560 C 268 636 365 674 487 674 C 525 674 564 670 603 662 C 641 654 675 643 703 629 L 684 492 C 657 507 625 519 587 529 C 549 539 513 544 477 544 C 403 544 343 520 299 472 C 254 424 232 364 232 291 C 232 240 248 198 282 165 C 316 131 360 115 416 115 C 436 115 455 116 473 119 C 491 121 506 125 520 131 L 535 238 L 403 238 L 422 370 L 695 370 L 649 43 C 609 23 568 8 527 -1 C 486 -11 446 -16 406 -16 Z" unicode="Ğ" />
<glyph horiz-adv-x="536" d="M 357 516 C 312 516 278 529 256 556 C 234 582 226 618 233 663 L 320 663 C 318 646 320 633 328 623 C 336 613 347 609 363 609 C 377 609 389 613 399 623 C 409 633 415 646 417 663 L 505 663 C 498 618 481 582 454 556 C 427 529 395 516 357 516 Z M 217 -220 C 191 -220 163 -217 133 -211 C 103 -205 75 -198 50 -189 L 68 -58 C 87 -69 111 -79 139 -87 C 167 -95 192 -99 215 -99 C 257 -99 290 -90 312 -74 C 334 -58 347 -32 352 3 L 361 70 C 344 41 324 20 301 8 C 278 -3 254 -10 228 -10 C 180 -10 140 6 108 38 C 76 70 61 118 61 181 C 61 267 88 338 144 395 C 200 451 269 480 353 480 C 382 480 415 476 453 468 C 491 460 523 451 550 440 L 491 23 C 479 -60 451 -121 407 -161 C 363 -200 299 -220 217 -220 Z M 271 110 C 300 110 325 124 347 154 C 368 183 382 223 390 273 L 401 349 C 391 353 380 357 368 359 C 356 361 344 362 332 362 C 296 362 264 345 237 313 C 210 281 197 242 197 197 C 197 167 203 145 215 131 C 227 117 246 110 271 110 Z" unicode="ğ" />
<glyph horiz-adv-x="699" d="M 421 714 L 438 833 L 557 833 L 540 714 L 421 714 Z M 406 -16 C 306 -16 228 12 172 69 C 116 125 88 195 88 279 C 88 391 124 484 196 560 C 268 636 365 674 487 674 C 525 674 564 670 603 662 C 641 654 675 643 703 629 L 684 492 C 657 507 625 519 587 529 C 549 539 513 544 477 544 C 403 544 343 520 299 472 C 254 424 232 364 232 291 C 232 240 248 198 282 165 C 316 131 360 115 416 115 C 436 115 455 116 473 119 C 491 121 506 125 520 131 L 535 238 L 403 238 L 422 370 L 695 370 L 649 43 C 609 23 568 8 527 -1 C 486 -11 446 -16 406 -16 Z" unicode="Ġ" />
<glyph horiz-adv-x="536" d="M 290 524 L 309 656 L 441 656 L 422 524 L 290 524 Z M 217 -220 C 191 -220 163 -217 133 -211 C 103 -205 75 -198 50 -189 L 68 -58 C 87 -69 111 -79 139 -87 C 167 -95 192 -99 215 -99 C 257 -99 290 -90 312 -74 C 334 -58 347 -32 352 3 L 361 70 C 344 41 324 20 301 8 C 278 -3 254 -10 228 -10 C 180 -10 140 6 108 38 C 76 70 61 118 61 181 C 61 267 88 338 144 395 C 200 451 269 480 353 480 C 382 480 415 476 453 468 C 491 460 523 451 550 440 L 491 23 C 479 -60 451 -121 407 -161 C 363 -200 299 -220 217 -220 Z M 271 110 C 300 110 325 124 347 154 C 368 183 382 223 390 273 L 401 349 C 391 353 380 357 368 359 C 356 361 344 362 332 362 C 296 362 264 345 237 313 C 210 281 197 242 197 197 C 197 167 203 145 215 131 C 227 117 246 110 271 110 Z" unicode="ġ" />
<glyph horiz-adv-x="699" d="M 406 -16 C 306 -16 228 12 172 69 C 116 125 88 195 88 279 C 88 391 124 484 196 560 C 268 636 365 674 487 674 C 525 674 564 670 603 662 C 641 654 675 643 703 629 L 684 492 C 657 507 625 519 587 529 C 549 539 513 544 477 544 C 403 544 343 520 299 472 C 254 424 232 364 232 291 C 232 240 248 198 282 165 C 316 131 360 115 416 115 C 436 115 455 116 473 119 C 491 121 506 125 520 131 L 535 238 L 403 238 L 422 370 L 695 370 L 649 43 C 609 23 568 8 527 -1 C 486 -11 446 -16 406 -16 Z M 382 -256 L 294 -223 C 308 -202 318 -182 325 -164 C 331 -146 336 -124 340 -100 L 347 -56 L 455 -56 L 448 -100 C 443 -136 436 -165 426 -188 C 416 -210 401 -233 382 -256 Z" unicode="Ģ" />
<glyph horiz-adv-x="536" d="M 375 746 L 473 709 C 457 685 445 664 438 644 C 430 624 425 600 421 572 L 414 524 L 294 524 L 301 572 C 307 612 315 645 326 670 C 336 695 353 720 375 746 Z M 217 -220 C 191 -220 163 -217 133 -211 C 103 -205 75 -198 50 -189 L 68 -58 C 87 -69 111 -79 139 -87 C 167 -95 192 -99 215 -99 C 257 -99 290 -90 312 -74 C 334 -58 347 -32 352 3 L 361 70 C 344 41 324 20 301 8 C 278 -3 254 -10 228 -10 C 180 -10 140 6 108 38 C 76 70 61 118 61 181 C 61 267 88 338 144 395 C 200 451 269 480 353 480 C 382 480 415 476 453 468 C 491 460 523 451 550 440 L 491 23 C 479 -60 451 -121 407 -161 C 363 -200 299 -220 217 -220 Z M 271 110 C 300 110 325 124 347 154 C 368 183 382 223 390 273 L 401 349 C 391 353 380 357 368 359 C 356 361 344 362 332 362 C 296 362 264 345 237 313 C 210 281 197 242 197 197 C 197 167 203 145 215 131 C 227 117 246 110 271 110 Z" unicode="ģ" />
<glyph horiz-adv-x="692" d="M 308 703 L 411 838 L 516 838 L 581 703 L 482 703 L 453 761 L 408 703 L 308 703 Z M 64 0 L 156 658 L 297 658 L 261 399 L 543 399 L 579 658 L 720 658 L 628 0 L 487 0 L 525 267 L 243 267 L 205 0 L 64 0 Z" unicode="Ĥ" />
<glyph horiz-adv-x="514" d="M 37 748 L 152 898 L 268 898 L 341 748 L 230 748 L 198 812 L 148 748 L 37 748 Z M 44 0 L 145 716 L 282 716 L 247 468 C 245 455 242 442 240 428 C 237 414 234 401 232 389 C 249 418 271 440 297 456 C 323 472 351 480 381 480 C 426 480 461 464 487 434 C 512 403 520 362 511 312 L 479 136 C 475 115 472 93 471 70 C 470 46 470 23 470 0 L 333 0 C 333 22 333 45 334 69 C 335 93 338 115 342 136 L 369 267 C 375 295 372 316 361 332 C 350 348 335 356 315 356 C 293 356 271 343 251 317 C 231 291 215 237 203 155 L 181 0 L 44 0 Z" unicode="ĥ" />
<glyph horiz-adv-x="695" d="M 64 0 L 128 461 L 77 461 L 94 581 L 145 581 L 156 658 L 297 658 L 286 581 L 568 581 L 579 658 L 720 658 L 709 581 L 761 581 L 744 461 L 692 461 L 628 0 L 487 0 L 523 259 L 241 259 L 205 0 L 64 0 Z M 259 391 L 541 391 L 551 461 L 269 461 L 259 391 Z" unicode="Ħ" />
<glyph horiz-adv-x="514" d="M 44 0 L 118 526 L 86 526 L 102 638 L 134 638 L 145 716 L 282 716 L 271 638 L 347 638 L 331 526 L 255 526 L 247 468 C 245 455 242 442 240 428 C 237 414 234 401 232 389 C 249 418 271 440 297 456 C 323 472 351 480 381 480 C 426 480 461 464 487 434 C 512 403 520 362 511 312 L 479 136 C 475 115 472 93 471 70 C 470 46 470 23 470 0 L 333 0 C 333 22 333 45 334 69 C 335 93 338 115 342 136 L 369 267 C 375 295 372 316 361 332 C 350 348 335 356 315 356 C 293 356 271 343 251 317 C 231 291 215 237 203 155 L 181 0 L 44 0 Z" unicode="ħ" />
<glyph horiz-adv-x="269" d="M 162 706 L 90 706 C 95 746 106 776 124 796 C 141 816 164 827 193 827 C 204 827 214 825 224 822 C 234 819 244 814 254 808 C 262 803 269 799 275 796 C 280 792 285 791 291 791 C 298 791 304 794 310 800 C 316 806 319 814 321 824 L 393 824 C 387 784 375 753 358 733 C 341 712 318 702 290 702 C 277 702 266 703 256 706 C 246 709 237 714 229 721 C 221 727 214 731 208 734 C 202 736 197 738 192 738 C 184 738 178 735 172 729 C 166 723 163 716 162 706 Z M 64 0 L 156 658 L 297 658 L 205 0 L 64 0 Z" unicode="Ĩ" />
<glyph horiz-adv-x="239" d="M 115 524 L 35 524 C 41 568 53 602 72 625 C 91 647 117 659 149 659 C 161 659 173 657 184 654 C 195 650 206 645 217 638 C 226 632 234 627 240 624 C 246 620 252 619 258 619 C 266 619 274 622 280 629 C 286 635 289 644 291 655 L 371 655 C 364 610 351 576 332 554 C 313 531 288 520 257 520 C 242 520 229 521 219 525 C 209 528 199 533 189 541 C 180 547 172 552 166 555 C 160 558 154 560 148 560 C 139 560 132 556 126 550 C 120 543 116 534 115 524 Z M 58 0 C 58 22 58 45 60 67 C 62 89 64 111 67 134 L 114 470 L 251 470 L 204 134 C 201 114 199 91 197 67 C 195 43 194 20 195 0 L 58 0 Z" unicode="ĩ" />
<glyph horiz-adv-x="269" d="M 119 706 L 132 802 L 370 802 L 356 706 L 119 706 Z M 64 0 L 156 658 L 297 658 L 205 0 L 64 0 Z" unicode="Ī" />
<glyph horiz-adv-x="239" d="M 60 532 L 75 639 L 339 639 L 324 532 L 60 532 Z M 58 0 C 58 22 58 45 60 67 C 62 89 64 111 67 134 L 114 470 L 251 470 L 204 134 C 201 114 199 91 197 67 C 195 43 194 20 195 0 L 58 0 Z" unicode="ī" />
<glyph horiz-adv-x="269" d="M 235 698 C 195 698 165 710 145 734 C 125 758 118 790 124 830 L 202 830 C 200 815 202 803 209 794 C 216 785 227 781 241 781 C 253 781 264 785 273 794 C 282 803 287 815 289 830 L 369 830 C 363 790 347 758 323 734 C 299 710 269 698 235 698 Z M 64 0 L 156 658 L 297 658 L 205 0 L 64 0 Z" unicode="Ĭ" />
<glyph horiz-adv-x="239" d="M 194 516 C 149 516 115 529 93 556 C 71 582 63 618 70 663 L 157 663 C 155 646 157 633 165 623 C 173 613 184 609 200 609 C 214 609 226 613 236 623 C 246 633 252 646 254 663 L 342 663 C 335 618 318 582 291 556 C 264 529 232 516 194 516 Z M 58 0 C 58 22 58 45 60 67 C 62 89 64 111 67 134 L 114 470 L 251 470 L 204 134 C 201 114 199 91 197 67 C 195 43 194 20 195 0 L 58 0 Z" unicode="ĭ" />
<glyph horiz-adv-x="269" d="M 64 0 L 156 658 L 297 658 L 205 3 L 206 0 C 186 0 170 -5 160 -15 C 150 -25 145 -37 145 -51 C 145 -64 150 -75 160 -84 C 170 -93 186 -98 206 -98 L 190 -212 C 139 -212 98 -203 67 -185 C 35 -167 20 -139 20 -103 C 20 -83 24 -64 34 -47 C 44 -30 58 -14 77 0 L 64 0 Z" unicode="Į" />
<glyph horiz-adv-x="240" d="M 130 584 L 149 716 L 286 716 L 267 584 L 130 584 Z M 59 0 C 59 22 59 45 61 67 C 63 89 65 111 68 134 L 115 470 L 252 470 L 205 134 C 202 114 200 93 198 69 C 196 45 195 22 196 2 L 196 2 L 196 2 C 196 1 196 1 196 1 C 196 1 196 0 196 0 L 177 0 C 163 -2 152 -8 145 -18 C 138 -27 135 -37 135 -49 C 135 -62 140 -73 150 -82 C 160 -91 176 -96 196 -96 L 180 -210 C 129 -210 88 -201 57 -183 C 25 -165 10 -137 10 -101 C 10 -81 14 -63 24 -47 C 33 -30 46 -14 64 0 L 59 0 Z" unicode="į" />
<glyph horiz-adv-x="269" d="M 174 706 L 191 825 L 310 825 L 293 706 L 174 706 Z M 64 0 L 156 658 L 297 658 L 205 0 L 64 0 Z" unicode="İ" />
<glyph horiz-adv-x="239" d="M 58 0 C 58 22 58 45 60 67 C 62 89 64 111 67 134 L 114 470 L 251 470 L 204 134 C 201 114 199 91 197 67 C 195 43 194 20 195 0 L 58 0 Z" unicode="ı" />
<glyph horiz-adv-x="275" d="M 108 706 L 211 841 L 316 841 L 381 706 L 282 706 L 253 764 L 208 706 L 108 706 Z M -45 -210 L -53 -210 L -35 -80 L -27 -80 C 0 -80 21 -74 38 -62 C 54 -50 65 -28 70 6 L 162 658 L 303 658 L 212 7 C 201 -72 172 -128 125 -161 C 77 -193 21 -210 -45 -210 Z" unicode="Ĵ" />
<glyph horiz-adv-x="242" d="M 48 524 L 163 674 L 279 674 L 352 524 L 241 524 L 209 588 L 159 524 L 48 524 Z M -45 -210 L -53 -210 L -36 -86 L -28 -86 C -3 -86 16 -79 30 -66 C 44 -53 53 -34 57 -8 L 124 470 L 260 470 L 193 -8 C 183 -74 159 -125 119 -159 C 79 -193 24 -210 -45 -210 Z" unicode="ĵ" />
<glyph horiz-adv-x="652" d="M 64 0 L 156 658 L 297 658 L 255 363 L 543 658 L 715 658 L 397 335 L 636 0 L 462 0 L 249 311 L 205 0 L 64 0 Z M 308 -248 L 220 -215 C 234 -194 244 -174 251 -156 C 257 -138 262 -116 266 -92 L 273 -48 L 381 -48 L 374 -92 C 369 -128 362 -157 352 -180 C 342 -202 327 -225 308 -248 Z" unicode="Ķ" />
<glyph horiz-adv-x="510" d="M 44 0 L 145 716 L 282 716 L 220 279 C 256 309 290 341 321 373 C 351 405 378 437 401 471 L 555 470 C 526 424 495 382 461 344 C 427 305 393 271 359 242 L 499 0 L 342 0 L 214 237 L 181 0 L 44 0 Z M 234 -270 L 136 -233 C 152 -209 163 -188 171 -168 C 178 -148 184 -124 188 -96 L 195 -48 L 315 -48 L 308 -96 C 302 -136 293 -169 283 -194 C 272 -219 256 -244 234 -270 Z" unicode="ķ" />
<glyph horiz-adv-x="476" d="M 171 706 L 288 841 L 434 841 L 301 706 L 171 706 Z M 64 0 L 156 658 L 297 658 L 224 132 L 471 132 L 452 0 L 64 0 Z" unicode="Ĺ" />
<glyph horiz-adv-x="237" d="M 114 755 L 244 905 L 402 905 L 254 755 L 114 755 Z M 56 0 C 55 22 55 45 57 68 C 58 90 60 113 63 136 L 145 716 L 282 716 L 200 136 C 197 114 195 91 194 69 C 192 46 192 23 193 0 L 56 0 Z" unicode="ĺ" />
<glyph horiz-adv-x="476" d="M 64 0 L 156 658 L 297 658 L 224 132 L 471 132 L 452 0 L 64 0 Z M 253 -248 L 165 -215 C 179 -194 189 -174 196 -156 C 202 -138 207 -116 211 -92 L 218 -48 L 326 -48 L 319 -92 C 314 -128 307 -157 297 -180 C 287 -202 272 -225 253 -248 Z" unicode="Ļ" />
<glyph horiz-adv-x="245" d="M 56 0 C 55 22 55 45 57 68 C 58 90 60 113 63 136 L 145 716 L 282 716 L 200 136 C 197 114 195 91 194 69 C 192 46 192 23 193 0 L 56 0 Z M 97 -270 L -1 -233 C 15 -209 26 -188 34 -168 C 41 -148 47 -124 51 -96 L 58 -48 L 178 -48 L 171 -96 C 165 -136 156 -169 146 -194 C 135 -219 119 -244 97 -270 Z" unicode="ļ" />
<glyph horiz-adv-x="476" d="M 64 0 L 156 658 L 297 658 L 224 132 L 471 132 L 452 0 L 64 0 Z M 459 435 L 362 473 C 378 496 389 517 397 537 C 405 557 410 581 414 610 L 421 658 L 541 658 L 534 610 C 528 569 519 536 509 511 C 498 485 481 460 459 435 Z" unicode="Ľ" />
<glyph horiz-adv-x="435" d="M 56 0 C 55 22 55 45 57 68 C 58 90 60 113 63 136 L 145 716 L 282 716 L 200 136 C 197 114 195 91 194 69 C 192 46 192 23 193 0 L 56 0 Z M 411 494 L 313 531 C 329 554 340 576 348 596 C 355 616 361 640 365 668 L 372 716 L 492 716 L 485 668 C 479 627 470 594 460 569 C 449 544 433 519 411 494 Z" unicode="ľ" />
<glyph horiz-adv-x="476" d="M 64 0 L 156 658 L 297 658 L 224 132 L 471 132 L 452 0 L 64 0 Z M 371 303 L 390 435 L 522 435 L 503 303 L 371 303 Z" unicode="Ŀ" />
<glyph horiz-adv-x="402" d="M 56 0 C 55 22 55 45 57 68 C 58 90 60 113 63 136 L 145 716 L 282 716 L 200 136 C 197 114 195 91 194 69 C 192 46 192 23 193 0 L 56 0 Z M 289 296 L 308 428 L 440 428 L 421 296 L 289 296 Z" unicode="ŀ" />
<glyph horiz-adv-x="476" d="M 64 0 L 104 286 L 51 274 L 68 398 L 121 410 L 156 658 L 297 658 L 267 444 L 357 465 L 340 341 L 250 320 L 224 132 L 471 132 L 452 0 L 64 0 Z" unicode="Ł" />
<glyph horiz-adv-x="237" d="M 56 0 C 55 22 55 45 57 68 C 58 90 60 113 63 136 L 84 286 L 42 275 L 59 395 L 101 406 L 145 716 L 282 716 L 243 442 L 314 460 L 297 340 L 226 322 L 200 136 C 197 114 195 91 194 69 C 192 46 192 23 193 0 L 56 0 Z" unicode="ł" />
<glyph horiz-adv-x="715" d="M 389 706 L 506 841 L 652 841 L 519 706 L 389 706 Z M 64 0 L 156 658 L 298 658 L 504 294 L 548 209 L 558 294 L 609 658 L 743 658 L 651 0 L 511 0 L 302 370 L 260 451 L 250 370 L 198 0 L 64 0 Z" unicode="Ń" />
<glyph horiz-adv-x="522" d="M 252 524 L 382 674 L 540 674 L 392 524 L 252 524 Z M 52 0 L 100 341 C 103 364 105 386 107 408 C 109 429 110 450 110 470 L 246 470 C 246 461 246 451 246 441 C 246 431 245 422 245 415 L 244 391 C 261 420 282 442 308 457 C 333 472 360 480 389 480 C 434 480 469 464 495 434 C 520 403 528 362 519 312 L 487 136 C 483 115 480 93 479 70 C 478 46 478 23 478 0 L 341 0 C 341 22 341 45 342 69 C 343 93 346 115 350 136 L 377 267 C 383 295 380 316 369 332 C 358 348 343 356 323 356 C 295 356 272 339 253 305 C 234 271 220 221 211 155 L 189 0 L 52 0 Z" unicode="ń" />
<glyph horiz-adv-x="715" d="M 64 0 L 156 658 L 298 658 L 504 294 L 548 209 L 558 294 L 609 658 L 743 658 L 651 0 L 511 0 L 302 370 L 260 451 L 250 370 L 198 0 L 64 0 Z M 354 -248 L 266 -215 C 280 -194 290 -174 297 -156 C 303 -138 308 -116 312 -92 L 319 -48 L 427 -48 L 420 -92 C 415 -128 408 -157 398 -180 C 388 -202 373 -225 354 -248 Z" unicode="Ņ" />
<glyph horiz-adv-x="522" d="M 52 0 L 100 341 C 103 364 105 386 107 408 C 109 429 110 450 110 470 L 246 470 C 246 461 246 451 246 441 C 246 431 245 422 245 415 L 244 391 C 261 420 282 442 308 457 C 333 472 360 480 389 480 C 434 480 469 464 495 434 C 520 403 528 362 519 312 L 487 136 C 483 115 480 93 479 70 C 478 46 478 23 478 0 L 341 0 C 341 22 341 45 342 69 C 343 93 346 115 350 136 L 377 267 C 383 295 380 316 369 332 C 358 348 343 356 323 356 C 295 356 272 339 253 305 C 234 271 220 221 211 155 L 189 0 L 52 0 Z M 243 -270 L 145 -233 C 161 -209 172 -188 180 -168 C 187 -148 193 -124 197 -96 L 204 -48 L 324 -48 L 317 -96 C 311 -136 302 -169 292 -194 C 281 -219 265 -244 243 -270 Z" unicode="ņ" />
<glyph horiz-adv-x="715" d="M 401 706 L 336 841 L 436 841 L 464 783 L 509 841 L 609 841 L 506 706 L 401 706 Z M 64 0 L 156 658 L 298 658 L 504 294 L 548 209 L 558 294 L 609 658 L 743 658 L 651 0 L 511 0 L 302 370 L 260 451 L 250 370 L 198 0 L 64 0 Z" unicode="Ň" />
<glyph horiz-adv-x="522" d="M 266 524 L 193 674 L 304 674 L 335 610 L 386 674 L 497 674 L 382 524 L 266 524 Z M 52 0 L 100 341 C 103 364 105 386 107 408 C 109 429 110 450 110 470 L 246 470 C 246 461 246 451 246 441 C 246 431 245 422 245 415 L 244 391 C 261 420 282 442 308 457 C 333 472 360 480 389 480 C 434 480 469 464 495 434 C 520 403 528 362 519 312 L 487 136 C 483 115 480 93 479 70 C 478 46 478 23 478 0 L 341 0 C 341 22 341 45 342 69 C 343 93 346 115 350 136 L 377 267 C 383 295 380 316 369 332 C 358 348 343 356 323 356 C 295 356 272 339 253 305 C 234 271 220 221 211 155 L 189 0 L 52 0 Z" unicode="ň" />
<glyph horiz-adv-x="719" d="M 64 0 L 156 658 L 298 658 L 508 294 L 549 215 L 558 294 L 609 658 L 743 658 L 652 -18 C 643 -82 617 -130 575 -162 C 532 -194 474 -210 401 -210 L 393 -210 L 410 -86 L 419 -86 C 445 -86 467 -79 485 -66 C 502 -53 512 -37 516 -18 L 519 0 L 302 370 L 260 451 L 250 370 L 198 0 L 64 0 Z" unicode="Ŋ" />
<glyph horiz-adv-x="519" d="M 234 -210 L 226 -210 L 243 -86 L 251 -86 C 273 -86 292 -79 308 -65 C 324 -51 333 -32 337 -8 L 376 269 C 379 295 376 316 366 330 C 356 344 341 352 321 352 C 299 352 278 339 258 313 C 238 287 222 235 211 155 L 189 0 L 52 0 L 100 341 C 103 364 105 386 107 408 C 109 429 110 450 110 470 L 246 470 C 246 461 246 452 246 443 C 246 433 245 424 245 415 L 244 391 C 261 420 282 442 308 457 C 333 472 360 480 389 480 C 433 480 468 464 492 434 C 516 404 525 364 519 314 L 473 -12 C 464 -76 439 -125 399 -159 C 358 -193 303 -210 234 -210 Z" unicode="ŋ" />
<glyph horiz-adv-x="772" d="M 361 714 L 374 810 L 612 810 L 598 714 L 361 714 Z M 405 -16 C 315 -16 239 11 179 66 C 119 121 89 195 89 289 C 89 399 123 491 192 564 C 261 637 349 674 457 674 C 547 674 623 646 684 591 C 744 535 775 460 775 366 C 775 255 740 164 670 92 C 600 20 512 -16 405 -16 Z M 409 116 C 475 116 528 138 569 184 C 610 229 631 288 631 360 C 631 412 615 455 583 490 C 551 524 508 542 454 542 C 388 542 334 519 294 474 C 253 428 233 370 233 298 C 233 246 248 202 280 168 C 312 133 355 116 409 116 Z" unicode="Ō" />
<glyph horiz-adv-x="541" d="M 211 532 L 226 639 L 490 639 L 475 532 L 211 532 Z M 286 -12 C 217 -12 163 7 123 45 C 83 83 64 136 64 202 C 64 281 88 347 138 401 C 188 455 250 482 325 482 C 392 482 445 462 485 424 C 525 386 545 334 545 268 C 545 188 520 122 470 68 C 420 14 359 -12 286 -12 Z M 292 109 C 325 109 353 123 375 152 C 397 181 409 217 409 260 C 409 288 400 312 382 332 C 364 351 343 361 317 361 C 283 361 255 346 233 317 C 211 288 200 252 200 210 C 200 181 208 157 226 138 C 243 118 265 109 292 109 Z" unicode="ō" />
<glyph horiz-adv-x="772" d="M 477 706 C 437 706 407 718 387 742 C 367 766 360 798 366 838 L 444 838 C 442 823 444 811 451 802 C 458 793 469 789 483 789 C 495 789 506 793 515 802 C 524 811 529 823 531 838 L 611 838 C 605 798 589 766 565 742 C 541 718 511 706 477 706 Z M 405 -16 C 315 -16 239 11 179 66 C 119 121 89 195 89 289 C 89 399 123 491 192 564 C 261 637 349 674 457 674 C 547 674 623 646 684 591 C 744 535 775 460 775 366 C 775 255 740 164 670 92 C 600 20 512 -16 405 -16 Z M 409 116 C 475 116 528 138 569 184 C 610 229 631 288 631 360 C 631 412 615 455 583 490 C 551 524 508 542 454 542 C 388 542 334 519 294 474 C 253 428 233 370 233 298 C 233 246 248 202 280 168 C 312 133 355 116 409 116 Z" unicode="Ŏ" />
<glyph horiz-adv-x="541" d="M 345 516 C 300 516 266 529 244 556 C 222 582 214 618 221 663 L 308 663 C 306 646 308 633 316 623 C 324 613 335 609 351 609 C 365 609 377 613 387 623 C 397 633 403 646 405 663 L 493 663 C 486 618 469 582 442 556 C 415 529 383 516 345 516 Z M 286 -12 C 217 -12 163 7 123 45 C 83 83 64 136 64 202 C 64 281 88 347 138 401 C 188 455 250 482 325 482 C 392 482 445 462 485 424 C 525 386 545 334 545 268 C 545 188 520 122 470 68 C 420 14 359 -12 286 -12 Z M 292 109 C 325 109 353 123 375 152 C 397 181 409 217 409 260 C 409 288 400 312 382 332 C 364 351 343 361 317 361 C 283 361 255 346 233 317 C 211 288 200 252 200 210 C 200 181 208 157 226 138 C 243 118 265 109 292 109 Z" unicode="ŏ" />
<glyph horiz-adv-x="772" d="M 344 714 L 444 855 L 556 855 L 445 714 L 344 714 Z M 502 714 L 613 855 L 725 855 L 604 714 L 502 714 Z M 405 -16 C 315 -16 239 11 179 66 C 119 121 89 195 89 289 C 89 399 123 491 192 564 C 261 637 349 674 457 674 C 547 674 623 646 684 591 C 744 535 775 460 775 366 C 775 255 740 164 670 92 C 600 20 512 -16 405 -16 Z M 409 116 C 475 116 528 138 569 184 C 610 229 631 288 631 360 C 631 412 615 455 583 490 C 551 524 508 542 454 542 C 388 542 334 519 294 474 C 253 428 233 370 233 298 C 233 246 248 202 280 168 C 312 133 355 116 409 116 Z" unicode="Ő" />
<glyph horiz-adv-x="541" d="M 193 522 L 304 679 L 429 679 L 306 522 L 193 522 Z M 369 522 L 492 679 L 617 679 L 482 522 L 369 522 Z M 286 -12 C 217 -12 163 7 123 45 C 83 83 64 136 64 202 C 64 281 88 347 138 401 C 188 455 250 482 325 482 C 392 482 445 462 485 424 C 525 386 545 334 545 268 C 545 188 520 122 470 68 C 420 14 359 -12 286 -12 Z M 292 109 C 325 109 353 123 375 152 C 397 181 409 217 409 260 C 409 288 400 312 382 332 C 364 351 343 361 317 361 C 283 361 255 346 233 317 C 211 288 200 252 200 210 C 200 181 208 157 226 138 C 243 118 265 109 292 109 Z" unicode="ő" />
<glyph horiz-adv-x="909" d="M 408 0 C 305 0 226 28 172 86 C 117 143 90 214 90 299 C 90 409 127 496 201 561 C 275 625 377 658 508 658 L 932 658 L 913 526 L 656 526 L 638 399 L 886 399 L 867 267 L 620 267 L 601 132 L 868 132 L 849 0 L 408 0 Z M 413 132 L 461 132 L 516 526 L 468 526 C 396 526 339 506 297 467 C 255 427 234 374 234 308 C 234 254 250 212 283 180 C 315 148 359 132 413 132 Z" unicode="Œ" />
<glyph horiz-adv-x="813" d="M 280 -12 C 211 -12 158 7 120 45 C 82 83 64 136 64 202 C 64 281 87 347 135 401 C 183 455 244 482 319 482 C 355 482 387 475 415 462 C 442 448 464 431 481 409 C 503 430 528 447 557 460 C 586 473 618 480 652 480 C 700 480 741 466 774 439 C 806 411 823 377 823 336 C 823 285 803 247 764 221 C 724 195 661 180 573 176 L 526 174 C 530 152 542 136 561 124 C 579 112 603 107 633 107 C 661 107 689 111 717 119 C 744 127 770 138 795 154 L 776 25 C 750 13 724 5 697 -1 C 670 -7 643 -10 615 -10 C 577 -10 543 -3 515 9 C 487 22 464 39 446 60 C 425 38 400 20 372 7 C 344 -5 313 -12 280 -12 Z M 635 367 C 610 367 588 358 569 340 C 550 322 538 298 533 269 L 586 272 C 618 273 643 279 659 289 C 675 299 684 314 684 332 C 684 342 679 351 670 357 C 661 363 649 367 635 367 Z M 286 109 C 319 109 346 123 366 152 C 386 181 397 217 397 260 C 397 288 389 312 373 332 C 357 351 337 361 311 361 C 277 361 250 346 230 317 C 210 288 200 252 200 210 C 200 181 207 157 223 138 C 238 118 259 109 286 109 Z" unicode="œ" />
<glyph horiz-adv-x="571" d="M 283 706 L 400 841 L 546 841 L 413 706 L 283 706 Z M 64 0 L 157 658 L 368 658 C 432 658 482 643 517 615 C 551 586 569 546 569 494 C 569 448 555 408 529 376 C 502 344 465 322 418 310 C 444 303 466 291 483 274 C 499 257 510 235 515 209 L 555 0 L 411 0 L 379 181 C 374 206 364 225 350 237 C 335 249 317 255 296 255 L 241 255 L 205 0 L 64 0 Z M 258 373 L 327 373 C 352 373 373 382 390 400 C 407 418 416 439 416 464 C 416 484 409 501 397 513 C 385 525 368 532 348 532 L 280 532 L 258 373 Z" unicode="Ŕ" />
<glyph horiz-adv-x="362" d="M 194 524 L 324 674 L 482 674 L 334 524 L 194 524 Z M 52 0 L 100 341 C 103 364 105 386 107 408 C 109 430 110 450 110 470 L 246 470 L 246 391 C 258 419 274 440 292 456 C 310 472 331 480 356 480 C 363 480 372 479 383 477 C 393 475 403 472 412 469 L 391 317 C 381 323 369 327 357 331 C 345 334 333 336 323 336 C 293 336 270 323 252 298 C 234 272 221 225 211 155 L 189 0 L 52 0 Z" unicode="ŕ" />
<glyph horiz-adv-x="571" d="M 64 0 L 157 658 L 368 658 C 432 658 482 643 517 615 C 551 586 569 546 569 494 C 569 448 555 408 529 376 C 502 344 465 322 418 310 C 444 303 466 291 483 274 C 499 257 510 235 515 209 L 555 0 L 411 0 L 379 181 C 374 206 364 225 350 237 C 335 249 317 255 296 255 L 241 255 L 205 0 L 64 0 Z M 258 373 L 327 373 C 352 373 373 382 390 400 C 407 418 416 439 416 464 C 416 484 409 501 397 513 C 385 525 368 532 348 532 L 280 532 L 258 373 Z M 283 -248 L 195 -215 C 209 -194 219 -174 226 -156 C 232 -138 237 -116 241 -92 L 248 -48 L 356 -48 L 349 -92 C 344 -128 337 -157 327 -180 C 317 -202 302 -225 283 -248 Z" unicode="Ŗ" />
<glyph horiz-adv-x="362" d="M 52 0 L 100 341 C 103 364 105 386 107 408 C 109 430 110 450 110 470 L 246 470 L 246 391 C 258 419 274 440 292 456 C 310 472 331 480 356 480 C 363 480 372 479 383 477 C 393 475 403 472 412 469 L 391 317 C 381 323 369 327 357 331 C 345 334 333 336 323 336 C 293 336 270 323 252 298 C 234 272 221 225 211 155 L 189 0 L 52 0 Z M 95 -270 L -3 -233 C 13 -209 24 -188 32 -168 C 39 -148 45 -124 49 -96 L 56 -48 L 176 -48 L 169 -96 C 163 -136 154 -169 144 -194 C 133 -219 117 -244 95 -270 Z" unicode="ŗ" />
<glyph horiz-adv-x="571" d="M 295 706 L 230 841 L 330 841 L 358 783 L 403 841 L 503 841 L 400 706 L 295 706 Z M 64 0 L 157 658 L 368 658 C 432 658 482 643 517 615 C 551 586 569 546 569 494 C 569 448 555 408 529 376 C 502 344 465 322 418 310 C 444 303 466 291 483 274 C 499 257 510 235 515 209 L 555 0 L 411 0 L 379 181 C 374 206 364 225 350 237 C 335 249 317 255 296 255 L 241 255 L 205 0 L 64 0 Z M 258 373 L 327 373 C 352 373 373 382 390 400 C 407 418 416 439 416 464 C 416 484 409 501 397 513 C 385 525 368 532 348 532 L 280 532 L 258 373 Z" unicode="Ř" />
<glyph horiz-adv-x="362" d="M 208 524 L 135 674 L 246 674 L 277 610 L 328 674 L 439 674 L 324 524 L 208 524 Z M 52 0 L 100 341 C 103 364 105 386 107 408 C 109 430 110 450 110 470 L 246 470 L 246 391 C 258 419 274 440 292 456 C 310 472 331 480 356 480 C 363 480 372 479 383 477 C 393 475 403 472 412 469 L 391 317 C 381 323 369 327 357 331 C 345 334 333 336 323 336 C 293 336 270 323 252 298 C 234 272 221 225 211 155 L 189 0 L 52 0 Z" unicode="ř" />
<glyph horiz-adv-x="514" d="M 293 714 L 410 849 L 556 849 L 423 714 L 293 714 Z M 241 -15 C 207 -15 175 -11 145 -5 C 115 1 86 12 59 27 L 79 171 C 104 152 131 138 160 129 C 188 120 218 116 249 116 C 281 116 306 122 324 136 C 341 149 350 167 350 189 C 350 207 343 223 330 237 C 316 250 295 262 265 274 L 252 279 C 205 297 170 320 146 350 C 122 380 110 415 110 455 C 110 517 132 568 177 610 C 222 651 278 672 346 672 C 376 672 407 668 438 662 C 468 655 498 645 527 632 L 506 487 C 479 505 452 519 425 528 C 397 537 370 542 344 542 C 316 542 295 536 280 524 C 265 512 258 495 258 475 C 258 458 265 443 279 431 C 293 419 317 406 349 394 L 362 389 C 406 371 440 348 463 318 C 486 288 498 253 498 213 C 498 147 473 93 424 50 C 375 6 314 -15 241 -15 Z" unicode="Ś" />
<glyph horiz-adv-x="422" d="M 215 524 L 345 674 L 503 674 L 355 524 L 215 524 Z M 198 -10 C 175 -10 150 -7 123 -2 C 96 2 71 9 49 18 L 66 135 C 85 123 107 114 132 108 C 157 101 182 98 206 99 C 224 99 238 102 250 108 C 262 113 268 122 268 135 C 268 145 263 153 253 159 C 243 165 228 171 209 177 L 196 181 C 158 191 130 209 111 233 C 92 257 83 288 83 325 C 83 371 100 409 135 437 C 169 465 216 480 276 480 C 296 480 320 477 348 473 C 376 469 401 463 424 455 L 408 339 C 389 349 367 356 343 362 C 318 368 295 371 274 371 C 258 371 245 368 235 363 C 225 358 221 350 221 339 C 221 329 225 320 233 314 C 241 307 255 301 274 295 L 287 291 C 326 278 356 260 376 238 C 396 216 406 188 406 156 C 406 106 387 65 350 35 C 313 5 262 -10 198 -10 Z" unicode="ś" />
<glyph horiz-adv-x="514" d="M 221 714 L 324 849 L 429 849 L 494 714 L 395 714 L 366 772 L 321 714 L 221 714 Z M 241 -15 C 207 -15 175 -11 145 -5 C 115 1 86 12 59 27 L 79 171 C 104 152 131 138 160 129 C 188 120 218 116 249 116 C 281 116 306 122 324 136 C 341 149 350 167 350 189 C 350 207 343 223 330 237 C 316 250 295 262 265 274 L 252 279 C 205 297 170 320 146 350 C 122 380 110 415 110 455 C 110 517 132 568 177 610 C 222 651 278 672 346 672 C 376 672 407 668 438 662 C 468 655 498 645 527 632 L 506 487 C 479 505 452 519 425 528 C 397 537 370 542 344 542 C 316 542 295 536 280 524 C 265 512 258 495 258 475 C 258 458 265 443 279 431 C 293 419 317 406 349 394 L 362 389 C 406 371 440 348 463 318 C 486 288 498 253 498 213 C 498 147 473 93 424 50 C 375 6 314 -15 241 -15 Z" unicode="Ŝ" />
<glyph horiz-adv-x="422" d="M 135 524 L 250 674 L 366 674 L 439 524 L 328 524 L 296 588 L 246 524 L 135 524 Z M 198 -10 C 175 -10 150 -7 123 -2 C 96 2 71 9 49 18 L 66 135 C 85 123 107 114 132 108 C 157 101 182 98 206 99 C 224 99 238 102 250 108 C 262 113 268 122 268 135 C 268 145 263 153 253 159 C 243 165 228 171 209 177 L 196 181 C 158 191 130 209 111 233 C 92 257 83 288 83 325 C 83 371 100 409 135 437 C 169 465 216 480 276 480 C 296 480 320 477 348 473 C 376 469 401 463 424 455 L 408 339 C 389 349 367 356 343 362 C 318 368 295 371 274 371 C 258 371 245 368 235 363 C 225 358 221 350 221 339 C 221 329 225 320 233 314 C 241 307 255 301 274 295 L 287 291 C 326 278 356 260 376 238 C 396 216 406 188 406 156 C 406 106 387 65 350 35 C 313 5 262 -10 198 -10 Z" unicode="ŝ" />
<glyph horiz-adv-x="514" d="M 241 -15 C 207 -15 175 -11 145 -5 C 115 1 86 12 59 27 L 79 171 C 104 152 131 138 160 129 C 188 120 218 116 249 116 C 281 116 306 122 324 136 C 341 149 350 167 350 189 C 350 207 343 223 330 237 C 316 250 295 262 265 274 L 252 279 C 205 297 170 320 146 350 C 122 380 110 415 110 455 C 110 517 132 568 177 610 C 222 651 278 672 346 672 C 376 672 407 668 438 662 C 468 655 498 645 527 632 L 506 487 C 479 505 452 519 425 528 C 397 537 370 542 344 542 C 316 542 295 536 280 524 C 265 512 258 495 258 475 C 258 458 265 443 279 431 C 293 419 317 406 349 394 L 362 389 C 406 371 440 348 463 318 C 486 288 498 253 498 213 C 498 147 473 93 424 50 C 375 6 314 -15 241 -15 Z M 245 -230 C 233 -230 222 -229 211 -227 C 199 -225 189 -221 179 -217 L 188 -149 C 196 -153 205 -157 213 -159 C 221 -161 229 -163 238 -163 C 246 -163 254 -160 260 -155 C 266 -150 270 -143 270 -135 C 270 -128 267 -122 262 -118 C 257 -114 250 -112 242 -112 L 231 -112 L 240 -48 L 251 -48 C 281 -48 304 -55 322 -71 C 340 -86 349 -106 349 -131 C 349 -159 338 -183 318 -202 C 297 -220 273 -230 245 -230 Z" unicode="Ş" />
<glyph horiz-adv-x="422" d="M 198 -10 C 175 -10 150 -7 123 -2 C 96 2 71 9 49 18 L 66 135 C 85 123 107 114 132 108 C 157 101 182 98 206 99 C 224 99 238 102 250 108 C 262 113 268 122 268 135 C 268 145 263 153 253 159 C 243 165 228 171 209 177 L 196 181 C 158 191 130 209 111 233 C 92 257 83 288 83 325 C 83 371 100 409 135 437 C 169 465 216 480 276 480 C 296 480 320 477 348 473 C 376 469 401 463 424 455 L 408 339 C 389 349 367 356 343 362 C 318 368 295 371 274 371 C 258 371 245 368 235 363 C 225 358 221 350 221 339 C 221 329 225 320 233 314 C 241 307 255 301 274 295 L 287 291 C 326 278 356 260 376 238 C 396 216 406 188 406 156 C 406 106 387 65 350 35 C 313 5 262 -10 198 -10 Z M 192 -242 C 179 -242 167 -240 155 -238 C 143 -236 131 -232 121 -228 L 131 -153 C 140 -157 149 -161 159 -164 C 168 -166 177 -168 187 -168 C 197 -168 205 -165 212 -159 C 218 -153 222 -146 222 -137 C 222 -129 219 -122 213 -118 C 207 -113 200 -111 191 -111 L 185 -111 L 195 -40 L 201 -40 C 234 -40 260 -48 280 -65 C 300 -82 310 -105 310 -133 C 310 -163 298 -189 276 -210 C 254 -231 226 -242 192 -242 Z" unicode="ş" />
<glyph horiz-adv-x="514" d="M 305 714 L 240 849 L 340 849 L 368 791 L 413 849 L 513 849 L 410 714 L 305 714 Z M 241 -15 C 207 -15 175 -11 145 -5 C 115 1 86 12 59 27 L 79 171 C 104 152 131 138 160 129 C 188 120 218 116 249 116 C 281 116 306 122 324 136 C 341 149 350 167 350 189 C 350 207 343 223 330 237 C 316 250 295 262 265 274 L 252 279 C 205 297 170 320 146 350 C 122 380 110 415 110 455 C 110 517 132 568 177 610 C 222 651 278 672 346 672 C 376 672 407 668 438 662 C 468 655 498 645 527 632 L 506 487 C 479 505 452 519 425 528 C 397 537 370 542 344 542 C 316 542 295 536 280 524 C 265 512 258 495 258 475 C 258 458 265 443 279 431 C 293 419 317 406 349 394 L 362 389 C 406 371 440 348 463 318 C 486 288 498 253 498 213 C 498 147 473 93 424 50 C 375 6 314 -15 241 -15 Z" unicode="Š" />
<glyph horiz-adv-x="422" d="M 229 524 L 156 674 L 267 674 L 298 610 L 349 674 L 460 674 L 345 524 L 229 524 Z M 198 -10 C 175 -10 150 -7 123 -2 C 96 2 71 9 49 18 L 66 135 C 85 123 107 114 132 108 C 157 101 182 98 206 99 C 224 99 238 102 250 108 C 262 113 268 122 268 135 C 268 145 263 153 253 159 C 243 165 228 171 209 177 L 196 181 C 158 191 130 209 111 233 C 92 257 83 288 83 325 C 83 371 100 409 135 437 C 169 465 216 480 276 480 C 296 480 320 477 348 473 C 376 469 401 463 424 455 L 408 339 C 389 349 367 356 343 362 C 318 368 295 371 274 371 C 258 371 245 368 235 363 C 225 358 221 350 221 339 C 221 329 225 320 233 314 C 241 307 255 301 274 295 L 287 291 C 326 278 356 260 376 238 C 396 216 406 188 406 156 C 406 106 387 65 350 35 C 313 5 262 -10 198 -10 Z" unicode="š" />
<glyph horiz-adv-x="565" d="M 212 0 L 286 526 L 94 526 L 113 658 L 637 658 L 618 526 L 426 526 L 352 0 L 212 0 Z M 273 -222 C 261 -222 250 -221 239 -219 C 227 -217 217 -213 207 -209 L 216 -141 C 224 -145 233 -149 241 -151 C 249 -153 257 -155 266 -155 C 274 -155 282 -152 288 -147 C 294 -142 298 -135 298 -127 C 298 -120 295 -114 290 -110 C 285 -106 278 -104 270 -104 L 259 -104 L 268 -40 L 279 -40 C 309 -40 332 -47 350 -63 C 368 -78 377 -98 377 -123 C 377 -151 366 -175 346 -194 C 325 -212 301 -222 273 -222 Z" unicode="Ţ" />
<glyph horiz-adv-x="329" d="M 215 -10 C 173 -10 141 3 121 31 C 100 58 93 95 100 142 L 129 348 L 69 348 L 86 470 L 146 470 L 163 593 L 300 593 L 283 470 L 367 470 L 350 348 L 266 348 L 239 160 C 237 144 238 133 243 125 C 248 117 257 114 269 114 C 277 114 286 114 294 116 C 302 118 310 120 318 124 L 301 4 C 288 0 274 -4 259 -6 C 244 -8 229 -10 215 -10 Z M 195 -250 C 182 -250 170 -248 158 -246 C 146 -244 134 -240 124 -236 L 134 -161 C 143 -165 152 -169 162 -172 C 171 -174 180 -176 190 -176 C 200 -176 208 -173 215 -167 C 221 -161 225 -154 225 -145 C 225 -137 222 -130 216 -126 C 210 -121 203 -119 194 -119 L 188 -119 L 198 -48 L 204 -48 C 237 -48 263 -56 283 -73 C 303 -90 313 -113 313 -141 C 313 -171 301 -197 279 -218 C 257 -239 229 -250 195 -250 Z" unicode="ţ" />
<glyph horiz-adv-x="565" d="M 326 706 L 261 841 L 361 841 L 389 783 L 434 841 L 534 841 L 431 706 L 326 706 Z M 212 0 L 286 526 L 94 526 L 113 658 L 637 658 L 618 526 L 426 526 L 352 0 L 212 0 Z" unicode="Ť" />
<glyph horiz-adv-x="463" d="M 439 495 L 341 532 C 357 555 368 577 376 597 C 383 617 389 641 393 669 L 400 717 L 520 717 L 513 669 C 507 628 498 595 488 570 C 477 545 461 520 439 495 Z M 215 -10 C 173 -10 141 3 121 31 C 100 58 93 95 100 142 L 129 348 L 69 348 L 86 470 L 146 470 L 163 593 L 300 593 L 283 470 L 367 470 L 350 348 L 266 348 L 239 160 C 237 144 238 133 243 125 C 248 117 257 114 269 114 C 277 114 286 114 294 116 C 302 118 310 120 318 124 L 301 4 C 288 0 274 -4 259 -6 C 244 -8 229 -10 215 -10 Z" unicode="ť" />
<glyph horiz-adv-x="565" d="M 212 0 L 249 264 L 139 264 L 156 384 L 266 384 L 286 526 L 94 526 L 113 658 L 637 658 L 618 526 L 426 526 L 406 384 L 516 384 L 499 264 L 389 264 L 352 0 L 212 0 Z" unicode="Ŧ" />
<glyph horiz-adv-x="329" d="M 61 185 L 77 297 L 122 297 L 129 348 L 69 348 L 86 470 L 146 470 L 163 593 L 300 593 L 283 470 L 367 470 L 350 348 L 266 348 L 259 297 L 303 297 L 287 185 L 243 185 L 239 160 C 237 144 238 133 243 125 C 248 117 257 114 269 114 C 277 114 286 114 294 116 C 302 118 310 120 318 124 L 301 4 C 288 0 274 -4 259 -6 C 244 -8 229 -10 215 -10 C 173 -10 141 3 121 31 C 100 58 93 95 100 142 L 106 185 L 61 185 Z" unicode="ŧ" />
<glyph horiz-adv-x="673" d="M 364 706 L 292 706 C 297 746 308 776 326 796 C 343 816 366 827 395 827 C 406 827 416 825 426 822 C 436 819 446 814 456 808 C 464 803 471 799 477 796 C 482 792 487 791 493 791 C 500 791 506 794 512 800 C 518 806 521 814 523 824 L 595 824 C 589 784 577 753 560 733 C 543 712 520 702 492 702 C 479 702 468 703 458 706 C 448 709 439 714 431 721 C 423 727 416 731 410 734 C 404 736 399 738 394 738 C 386 738 380 735 374 729 C 368 723 365 716 364 706 Z M 357 -12 C 265 -12 196 15 148 69 C 100 123 82 189 93 266 L 148 658 L 288 658 L 232 262 C 226 220 234 185 257 159 C 280 133 315 120 361 120 C 403 120 439 133 468 159 C 497 185 515 219 521 261 L 577 658 L 709 658 L 653 257 C 641 171 608 104 555 58 C 502 11 436 -12 357 -12 Z" unicode="Ũ" />
<glyph horiz-adv-x="525" d="M 250 524 L 170 524 C 176 568 188 602 207 625 C 226 647 252 659 284 659 C 296 659 308 657 319 654 C 330 650 341 645 352 638 C 361 632 369 627 375 624 C 381 620 387 619 393 619 C 401 619 409 622 415 629 C 421 635 424 644 426 655 L 506 655 C 499 610 486 576 467 554 C 448 531 423 520 392 520 C 377 520 364 521 354 525 C 344 528 334 533 324 541 C 315 547 307 552 301 555 C 295 558 289 560 283 560 C 274 560 267 556 261 550 C 255 543 251 534 250 524 Z M 199 -10 C 153 -10 118 5 93 36 C 68 66 60 107 68 158 L 98 347 C 102 371 105 393 107 413 C 109 433 110 452 110 470 L 247 470 C 247 449 246 428 244 406 C 242 384 239 363 235 341 L 211 203 C 205 173 207 151 216 136 C 225 121 241 114 265 114 C 293 114 316 129 334 161 C 352 192 366 243 377 315 L 399 470 L 536 470 L 489 136 C 486 114 484 92 483 68 C 481 44 481 22 481 0 L 344 0 L 344 79 C 326 49 305 27 280 12 C 255 -2 228 -10 199 -10 Z" unicode="ũ" />
<glyph horiz-adv-x="673" d="M 321 706 L 334 802 L 572 802 L 558 706 L 321 706 Z M 357 -12 C 265 -12 196 15 148 69 C 100 123 82 189 93 266 L 148 658 L 288 658 L 232 262 C 226 220 234 185 257 159 C 280 133 315 120 361 120 C 403 120 439 133 468 159 C 497 185 515 219 521 261 L 577 658 L 709 658 L 653 257 C 641 171 608 104 555 58 C 502 11 436 -12 357 -12 Z" unicode="Ū" />
<glyph horiz-adv-x="525" d="M 195 532 L 210 639 L 474 639 L 459 532 L 195 532 Z M 199 -10 C 153 -10 118 5 93 36 C 68 66 60 107 68 158 L 98 347 C 102 371 105 393 107 413 C 109 433 110 452 110 470 L 247 470 C 247 449 246 428 244 406 C 242 384 239 363 235 341 L 211 203 C 205 173 207 151 216 136 C 225 121 241 114 265 114 C 293 114 316 129 334 161 C 352 192 366 243 377 315 L 399 470 L 536 470 L 489 136 C 486 114 484 92 483 68 C 481 44 481 22 481 0 L 344 0 L 344 79 C 326 49 305 27 280 12 C 255 -2 228 -10 199 -10 Z" unicode="ū" />
<glyph horiz-adv-x="673" d="M 437 698 C 397 698 367 710 347 734 C 327 758 320 790 326 830 L 404 830 C 402 815 404 803 411 794 C 418 785 429 781 443 781 C 455 781 466 785 475 794 C 484 803 489 815 491 830 L 571 830 C 565 790 549 758 525 734 C 501 710 471 698 437 698 Z M 357 -12 C 265 -12 196 15 148 69 C 100 123 82 189 93 266 L 148 658 L 288 658 L 232 262 C 226 220 234 185 257 159 C 280 133 315 120 361 120 C 403 120 439 133 468 159 C 497 185 515 219 521 261 L 577 658 L 709 658 L 653 257 C 641 171 608 104 555 58 C 502 11 436 -12 357 -12 Z" unicode="Ŭ" />
<glyph horiz-adv-x="525" d="M 329 516 C 284 516 250 529 228 556 C 206 582 198 618 205 663 L 292 663 C 290 646 292 633 300 623 C 308 613 319 609 335 609 C 349 609 361 613 371 623 C 381 633 387 646 389 663 L 477 663 C 470 618 453 582 426 556 C 399 529 367 516 329 516 Z M 199 -10 C 153 -10 118 5 93 36 C 68 66 60 107 68 158 L 98 347 C 102 371 105 393 107 413 C 109 433 110 452 110 470 L 247 470 C 247 449 246 428 244 406 C 242 384 239 363 235 341 L 211 203 C 205 173 207 151 216 136 C 225 121 241 114 265 114 C 293 114 316 129 334 161 C 352 192 366 243 377 315 L 399 470 L 536 470 L 489 136 C 486 114 484 92 483 68 C 481 44 481 22 481 0 L 344 0 L 344 79 C 326 49 305 27 280 12 C 255 -2 228 -10 199 -10 Z" unicode="ŭ" />
<glyph horiz-adv-x="673" d="M 428 594 C 400 594 377 602 360 619 C 342 636 334 658 334 684 C 334 714 344 740 365 760 C 385 780 410 790 440 790 C 467 790 489 781 507 764 C 525 746 534 725 534 700 C 534 670 524 645 505 625 C 486 604 460 594 428 594 Z M 431 658 C 441 658 450 661 457 668 C 464 674 468 683 468 694 C 468 702 464 710 458 716 C 452 722 444 726 436 726 C 426 726 417 722 410 715 C 402 707 399 699 399 690 C 399 681 402 673 408 667 C 414 661 422 658 431 658 Z M 357 -12 C 265 -12 196 15 148 69 C 100 123 82 189 93 266 L 148 658 L 288 658 L 232 262 C 226 220 234 185 257 159 C 280 133 315 120 361 120 C 403 120 439 133 468 159 C 497 185 515 219 521 261 L 577 658 L 709 658 L 653 257 C 641 171 608 104 555 58 C 502 11 436 -12 357 -12 Z" unicode="Ů" />
<glyph horiz-adv-x="525" d="M 199 -10 C 153 -10 118 5 93 36 C 68 66 60 107 68 158 L 98 347 C 102 371 105 393 107 413 C 109 433 110 452 110 470 L 224 470 C 220 476 218 483 216 491 C 214 498 214 506 214 515 C 214 548 225 576 249 598 C 272 620 301 632 336 632 C 364 632 388 622 407 603 C 426 584 436 560 436 532 C 436 520 434 509 431 499 C 428 488 424 478 420 470 L 536 470 L 489 136 C 486 114 484 92 483 68 C 481 44 481 22 481 0 L 344 0 L 344 79 C 326 49 305 27 280 12 C 255 -2 228 -10 199 -10 Z M 322 486 C 334 486 343 489 351 497 C 359 505 363 514 363 526 C 363 536 359 544 353 551 C 346 557 338 561 328 561 C 316 561 307 557 299 549 C 291 541 287 531 287 521 C 287 511 290 502 297 496 C 303 489 312 486 322 486 Z M 314 415 C 300 415 288 417 276 421 C 264 425 254 432 246 440 C 245 423 244 406 242 390 C 240 374 237 357 235 341 L 211 203 C 205 173 207 151 216 136 C 225 121 241 114 265 114 C 293 114 316 129 334 161 C 352 192 366 243 377 315 L 395 441 C 385 433 373 426 359 422 C 345 417 330 415 314 415 Z" unicode="ů" />
<glyph horiz-adv-x="673" d="M 304 706 L 404 847 L 516 847 L 405 706 L 304 706 Z M 462 706 L 573 847 L 685 847 L 564 706 L 462 706 Z M 357 -12 C 265 -12 196 15 148 69 C 100 123 82 189 93 266 L 148 658 L 288 658 L 232 262 C 226 220 234 185 257 159 C 280 133 315 120 361 120 C 403 120 439 133 468 159 C 497 185 515 219 521 261 L 577 658 L 709 658 L 653 257 C 641 171 608 104 555 58 C 502 11 436 -12 357 -12 Z" unicode="Ű" />
<glyph horiz-adv-x="525" d="M 177 522 L 288 679 L 413 679 L 290 522 L 177 522 Z M 353 522 L 476 679 L 601 679 L 466 522 L 353 522 Z M 199 -10 C 153 -10 118 5 93 36 C 68 66 60 107 68 158 L 98 347 C 102 371 105 393 107 413 C 109 433 110 452 110 470 L 247 470 C 247 449 246 428 244 406 C 242 384 239 363 235 341 L 211 203 C 205 173 207 151 216 136 C 225 121 241 114 265 114 C 293 114 316 129 334 161 C 352 192 366 243 377 315 L 399 470 L 536 470 L 489 136 C 486 114 484 92 483 68 C 481 44 481 22 481 0 L 344 0 L 344 79 C 326 49 305 27 280 12 C 255 -2 228 -10 199 -10 Z" unicode="ű" />
<glyph horiz-adv-x="673" d="M 466 -220 C 412 -220 370 -208 339 -186 C 308 -163 293 -131 293 -91 C 293 -76 295 -62 299 -49 C 303 -35 310 -23 319 -11 C 238 -7 177 19 136 68 C 95 116 80 181 92 261 L 148 658 L 288 658 L 232 257 C 226 215 233 181 253 157 C 273 132 305 120 347 120 C 393 120 432 132 464 156 C 496 180 515 214 521 256 L 577 658 L 709 658 L 652 252 C 643 188 622 136 589 95 C 555 53 514 24 464 8 C 448 2 435 -5 426 -16 C 417 -26 413 -38 413 -52 C 413 -70 418 -85 430 -96 C 441 -106 458 -112 481 -112 L 466 -220 Z" unicode="Ų" />
<glyph horiz-adv-x="525" d="M 199 -10 C 153 -10 118 5 93 36 C 68 66 60 107 68 158 L 98 347 C 102 371 105 393 107 413 C 109 433 110 452 110 470 L 247 470 C 247 449 246 428 244 406 C 242 384 239 363 235 341 L 211 203 C 205 173 207 151 216 136 C 225 121 241 114 265 114 C 293 114 316 129 334 161 C 352 192 366 243 377 315 L 399 470 L 536 470 L 489 136 C 486 117 484 97 483 77 C 482 57 481 37 481 18 L 485 2 L 481 2 L 481 0 L 466 0 C 452 -2 441 -8 434 -18 C 427 -27 424 -37 424 -49 C 424 -62 429 -73 439 -82 C 449 -91 465 -96 485 -96 L 469 -210 C 418 -210 377 -201 346 -183 C 314 -165 299 -137 299 -101 C 299 -81 303 -63 313 -47 C 322 -30 335 -14 353 0 L 344 0 L 344 79 C 326 49 305 27 280 12 C 255 -2 228 -10 199 -10 Z" unicode="ų" />
<glyph horiz-adv-x="984" d="M 451 706 L 554 841 L 659 841 L 724 706 L 625 706 L 596 764 L 551 706 L 451 706 Z M 217 0 L 108 658 L 256 658 L 308 288 L 317 184 L 354 288 L 509 658 L 662 658 L 714 288 L 723 183 L 759 288 L 914 658 L 1060 658 L 767 0 L 620 0 L 570 370 L 560 480 L 519 370 L 364 0 L 217 0 Z" unicode="Ŵ" />
<glyph horiz-adv-x="752" d="M 289 524 L 404 674 L 520 674 L 593 524 L 482 524 L 450 588 L 400 524 L 289 524 Z M 143 0 L 74 470 L 210 470 L 239 238 L 247 146 C 269 197 291 250 313 304 C 334 358 355 413 375 470 L 501 470 L 536 238 L 548 143 C 573 198 596 253 618 308 C 640 362 659 416 676 470 L 806 470 C 780 390 750 311 715 232 C 680 153 642 76 600 0 L 452 0 L 426 190 L 417 286 C 398 240 378 192 357 144 C 335 96 313 48 291 0 L 143 0 Z" unicode="ŵ" />
<glyph horiz-adv-x="642" d="M 279 706 L 382 841 L 487 841 L 552 706 L 453 706 L 424 764 L 379 706 L 279 706 Z M 250 0 L 286 255 L 100 658 L 257 658 L 344 464 L 373 390 L 420 464 L 559 658 L 722 658 L 426 257 L 390 0 L 250 0 Z" unicode="Ŷ" />
<glyph horiz-adv-x="502" d="M 153 524 L 268 674 L 384 674 L 457 524 L 346 524 L 314 588 L 264 524 L 153 524 Z M 358 12 C 306 -64 249 -120 187 -156 C 125 -192 58 -210 -14 -210 L -21 -210 L -4 -86 L 4 -86 C 38 -86 70 -79 101 -66 C 131 -53 159 -35 183 -11 L 74 470 L 225 470 L 267 239 L 286 107 C 306 149 327 198 347 256 C 367 314 388 385 412 470 L 552 470 C 524 370 493 283 461 207 C 429 131 394 66 358 12 Z" unicode="ŷ" />
<glyph horiz-adv-x="642" d="M 271 706 L 287 817 L 399 817 L 383 706 L 271 706 Z M 442 706 L 458 817 L 570 817 L 554 706 L 442 706 Z M 250 0 L 286 255 L 100 658 L 257 658 L 344 464 L 373 390 L 420 464 L 559 658 L 722 658 L 426 257 L 390 0 L 250 0 Z" unicode="Ÿ" />
<glyph horiz-adv-x="587" d="M 310 706 L 427 841 L 573 841 L 440 706 L 310 706 Z M 40 0 L 51 78 L 361 466 L 411 526 L 124 526 L 143 658 L 639 658 L 629 580 L 318 191 L 269 132 L 566 132 L 547 0 L 40 0 Z" unicode="Ź" />
<glyph horiz-adv-x="452" d="M 216 524 L 346 674 L 504 674 L 356 524 L 216 524 Z M 36 0 L 50 100 L 228 295 L 278 348 L 89 348 L 106 470 L 477 470 L 463 370 L 283 175 L 232 122 L 433 122 L 416 0 L 36 0 Z" unicode="ź" />
<glyph horiz-adv-x="587" d="M 314 706 L 331 825 L 450 825 L 433 706 L 314 706 Z M 40 0 L 51 78 L 361 466 L 411 526 L 124 526 L 143 658 L 639 658 L 629 580 L 318 191 L 269 132 L 566 132 L 547 0 L 40 0 Z" unicode="Ż" />
<glyph horiz-adv-x="452" d="M 224 524 L 243 656 L 375 656 L 356 524 L 224 524 Z M 36 0 L 50 100 L 228 295 L 278 348 L 89 348 L 106 470 L 477 470 L 463 370 L 283 175 L 232 122 L 433 122 L 416 0 L 36 0 Z" unicode="ż" />
<glyph horiz-adv-x="587" d="M 322 706 L 257 841 L 357 841 L 385 783 L 430 841 L 530 841 L 427 706 L 322 706 Z M 40 0 L 51 78 L 361 466 L 411 526 L 124 526 L 143 658 L 639 658 L 629 580 L 318 191 L 269 132 L 566 132 L 547 0 L 40 0 Z" unicode="Ž" />
<glyph horiz-adv-x="452" d="M 230 524 L 157 674 L 268 674 L 299 610 L 350 674 L 461 674 L 346 524 L 230 524 Z M 36 0 L 50 100 L 228 295 L 278 348 L 89 348 L 106 470 L 477 470 L 463 370 L 283 175 L 232 122 L 433 122 L 416 0 L 36 0 Z" unicode="ž" />
<glyph horiz-adv-x="436" d="M 74 -218 C 61 -218 48 -217 36 -215 C 24 -213 12 -210 0 -206 L 17 -76 C 27 -79 38 -81 50 -83 C 61 -85 73 -86 87 -86 C 104 -86 118 -81 128 -71 C 138 -61 145 -47 148 -28 L 201 346 L 132 346 L 149 470 L 218 470 L 227 533 C 235 595 257 641 293 671 C 329 701 373 716 425 716 C 437 716 450 715 464 714 C 478 712 491 710 504 708 L 486 580 C 476 584 467 587 457 589 C 447 591 436 592 426 592 C 406 592 391 587 380 577 C 369 567 362 553 360 534 L 351 470 L 427 470 L 410 346 L 334 346 L 281 -32 C 272 -94 250 -140 215 -171 C 180 -202 133 -218 74 -218 Z" unicode="ƒ" />
<glyph horiz-adv-x="699" d="M 429 714 L 364 849 L 464 849 L 492 791 L 537 849 L 637 849 L 534 714 L 429 714 Z M 406 -16 C 306 -16 228 12 172 69 C 116 125 88 195 88 279 C 88 391 124 484 196 560 C 268 636 365 674 487 674 C 525 674 564 670 603 662 C 641 654 675 643 703 629 L 684 492 C 657 507 625 519 587 529 C 549 539 513 544 477 544 C 403 544 343 520 299 472 C 254 424 232 364 232 291 C 232 240 248 198 282 165 C 316 131 360 115 416 115 C 436 115 455 116 473 119 C 491 121 506 125 520 131 L 535 238 L 403 238 L 422 370 L 695 370 L 649 43 C 609 23 568 8 527 -1 C 486 -11 446 -16 406 -16 Z" unicode="Ǧ" />
<glyph horiz-adv-x="536" d="M 296 524 L 223 674 L 334 674 L 365 610 L 416 674 L 527 674 L 412 524 L 296 524 Z M 217 -220 C 191 -220 163 -217 133 -211 C 103 -205 75 -198 50 -189 L 68 -58 C 87 -69 111 -79 139 -87 C 167 -95 192 -99 215 -99 C 257 -99 290 -90 312 -74 C 334 -58 347 -32 352 3 L 361 70 C 344 41 324 20 301 8 C 278 -3 254 -10 228 -10 C 180 -10 140 6 108 38 C 76 70 61 118 61 181 C 61 267 88 338 144 395 C 200 451 269 480 353 480 C 382 480 415 476 453 468 C 491 460 523 451 550 440 L 491 23 C 479 -60 451 -121 407 -161 C 363 -200 299 -220 217 -220 Z M 271 110 C 300 110 325 124 347 154 C 368 183 382 223 390 273 L 401 349 C 391 353 380 357 368 359 C 356 361 344 362 332 362 C 296 362 264 345 237 313 C 210 281 197 242 197 197 C 197 167 203 145 215 131 C 227 117 246 110 271 110 Z" unicode="ǧ" />
<glyph horiz-adv-x="687" d="M 406 811 L 476 891 L 567 891 L 493 811 L 406 811 Z M 16 0 L 354 629 C 348 636 344 644 341 654 C 338 663 337 673 337 684 C 337 714 347 740 368 760 C 389 780 415 790 447 790 C 472 790 493 781 511 764 C 528 746 537 725 537 700 C 537 685 534 671 529 659 C 524 647 517 636 509 627 L 671 0 L 524 0 L 490 140 L 234 140 L 161 0 L 16 0 Z M 434 658 C 444 658 453 661 460 668 C 467 675 471 684 471 694 C 471 702 467 710 461 716 C 455 722 447 726 439 726 C 429 726 420 722 413 715 C 406 708 403 700 403 690 C 403 681 406 673 412 667 C 418 661 425 658 434 658 Z M 297 264 L 460 264 L 435 370 L 410 489 L 352 370 L 297 264 Z" unicode="Ǻ" />
<glyph horiz-adv-x="543" d="M 315 656 L 393 744 L 494 744 L 412 656 L 315 656 Z M 228 -10 C 180 -10 140 6 108 39 C 76 71 61 119 61 181 C 61 249 78 308 114 358 C 149 408 195 443 251 463 C 247 470 243 478 241 487 C 239 496 238 505 238 515 C 238 548 249 576 273 598 C 296 620 325 632 360 632 C 388 632 412 622 431 603 C 450 584 460 560 460 532 C 460 520 458 509 455 499 C 452 489 448 479 443 471 C 462 467 481 462 500 457 C 518 452 535 446 550 440 L 511 161 C 507 134 504 108 502 82 C 500 56 499 28 499 0 L 363 0 L 363 70 C 345 41 325 20 302 8 C 278 -3 254 -10 228 -10 Z M 346 486 C 357 486 367 489 375 497 C 383 505 387 514 387 526 C 387 536 383 544 377 551 C 370 557 362 561 352 561 C 340 561 331 557 323 549 C 315 541 311 531 311 521 C 311 511 314 502 321 496 C 327 489 336 486 346 486 Z M 271 110 C 300 110 325 124 347 154 C 368 183 382 223 390 273 L 401 349 C 390 353 379 357 368 359 C 356 361 344 362 332 362 C 296 362 264 345 237 313 C 210 281 197 242 197 198 C 197 168 203 145 215 131 C 227 117 246 110 271 110 Z" unicode="ǻ" />
<glyph horiz-adv-x="884" d="M 542 706 L 659 841 L 805 841 L 672 706 L 542 706 Z M 4 0 L 426 658 L 907 658 L 888 526 L 632 526 L 614 399 L 861 399 L 842 267 L 596 267 L 577 132 L 843 132 L 824 0 L 418 0 L 440 160 L 260 160 L 158 0 L 4 0 Z M 345 292 L 459 292 L 492 525 L 419 408 L 345 292 Z" unicode="Ǽ" />
<glyph horiz-adv-x="736" d="M 354 524 L 484 674 L 642 674 L 494 524 L 354 524 Z M 198 -10 C 146 -10 108 2 85 28 C 61 54 50 83 50 117 C 50 167 68 206 104 236 C 140 266 189 281 251 283 L 323 285 L 326 309 C 328 329 323 345 310 355 C 297 365 276 370 247 370 C 222 370 197 366 172 360 C 146 354 122 345 100 334 L 116 450 C 144 460 172 467 200 472 C 228 477 255 480 280 480 C 318 480 348 474 370 464 C 392 454 407 440 417 424 C 437 441 461 455 488 465 C 515 475 544 480 575 480 C 623 480 664 466 697 439 C 729 411 746 377 746 336 C 746 285 726 248 688 226 C 649 204 588 192 505 190 L 450 189 C 452 164 463 144 481 129 C 499 114 524 107 556 107 C 584 107 612 111 639 119 C 666 127 692 138 717 154 L 699 25 C 673 13 647 5 620 -1 C 593 -7 566 -10 538 -10 C 494 -10 456 -2 426 12 C 395 27 371 47 355 73 C 336 47 313 26 285 12 C 257 -2 228 -10 198 -10 Z M 558 375 C 534 375 514 366 496 349 C 478 332 466 310 460 283 L 509 284 C 541 284 566 289 582 298 C 598 306 607 320 607 338 C 607 348 602 357 593 364 C 584 371 572 375 558 375 Z M 235 100 C 253 100 268 106 282 118 C 295 130 303 144 306 162 L 310 189 L 256 187 C 235 186 219 181 207 171 C 195 161 190 149 190 135 C 190 123 194 114 202 108 C 210 102 221 99 235 100 Z" unicode="ǽ" />
<glyph horiz-adv-x="772" d="M 393 722 L 510 857 L 656 857 L 523 722 L 393 722 Z M 112 -48 L 185 61 C 155 87 131 120 114 159 C 97 197 89 241 89 289 C 89 399 123 491 192 564 C 261 637 349 674 457 674 C 479 674 500 672 521 669 C 541 665 561 660 580 654 L 615 706 L 757 706 L 682 593 C 710 566 733 533 750 495 C 766 457 775 414 775 366 C 775 255 740 164 670 92 C 600 20 512 -16 405 -16 C 384 -16 364 -14 344 -11 C 324 -8 305 -4 288 2 L 254 -48 L 112 -48 Z M 233 298 C 233 276 236 255 242 236 C 248 216 256 199 267 184 L 502 536 C 494 538 487 539 479 540 C 471 541 462 542 454 542 C 388 542 334 519 294 474 C 253 428 233 370 233 298 Z M 409 116 C 475 116 528 138 569 184 C 610 229 631 288 631 360 C 631 380 628 400 623 419 C 617 438 609 455 599 470 L 366 120 C 372 118 379 117 387 117 C 394 116 401 116 409 116 Z" unicode="Ǿ" />
<glyph horiz-adv-x="543" d="M 231 524 L 361 674 L 519 674 L 371 524 L 231 524 Z M 56 -48 L 120 48 C 102 66 88 89 78 115 C 68 141 64 170 64 202 C 64 281 88 347 138 401 C 188 455 250 482 325 482 C 339 482 352 481 365 479 C 378 477 390 475 402 472 L 433 518 L 547 518 L 485 425 C 504 406 519 383 529 357 C 539 330 545 300 545 268 C 545 188 520 122 470 68 C 420 14 359 -12 286 -12 C 270 -12 256 -11 242 -9 C 228 -7 214 -4 202 0 L 170 -48 L 56 -48 Z M 200 210 C 200 204 200 198 201 192 C 202 186 203 180 205 176 L 328 360 C 326 360 324 361 322 361 C 320 361 319 361 317 361 C 283 361 255 346 233 317 C 211 288 200 252 200 210 Z M 292 109 C 325 109 353 123 375 152 C 397 181 409 217 409 260 C 409 267 408 274 407 281 C 405 287 404 294 402 300 L 276 110 C 278 109 281 109 284 109 C 286 109 289 109 292 109 Z" unicode="ǿ" />
<glyph horiz-adv-x="514" d="M 241 -15 C 207 -15 175 -11 145 -5 C 115 1 86 12 59 27 L 79 171 C 104 152 131 138 160 129 C 188 120 218 116 249 116 C 281 116 306 122 324 136 C 341 149 350 167 350 189 C 350 207 343 223 330 237 C 316 250 295 262 265 274 L 252 279 C 205 297 170 320 146 350 C 122 380 110 415 110 455 C 110 517 132 568 177 610 C 222 651 278 672 346 672 C 376 672 407 668 438 662 C 468 655 498 645 527 632 L 506 487 C 479 505 452 519 425 528 C 397 537 370 542 344 542 C 316 542 295 536 280 524 C 265 512 258 495 258 475 C 258 458 265 443 279 431 C 293 419 317 406 349 394 L 362 389 C 406 371 440 348 463 318 C 486 288 498 253 498 213 C 498 147 473 93 424 50 C 375 6 314 -15 241 -15 Z M 230 -256 L 142 -223 C 156 -202 166 -182 173 -164 C 179 -146 184 -124 188 -100 L 195 -56 L 303 -56 L 296 -100 C 291 -136 284 -165 274 -188 C 264 -210 249 -233 230 -256 Z" unicode="Ș" />
<glyph horiz-adv-x="422" d="M 198 -10 C 175 -10 150 -7 123 -2 C 96 2 71 9 49 18 L 66 135 C 85 123 107 114 132 108 C 157 101 182 98 206 99 C 224 99 238 102 250 108 C 262 113 268 122 268 135 C 268 145 263 153 253 159 C 243 165 228 171 209 177 L 196 181 C 158 191 130 209 111 233 C 92 257 83 288 83 325 C 83 371 100 409 135 437 C 169 465 216 480 276 480 C 296 480 320 477 348 473 C 376 469 401 463 424 455 L 408 339 C 389 349 367 356 343 362 C 318 368 295 371 274 371 C 258 371 245 368 235 363 C 225 358 221 350 221 339 C 221 329 225 320 233 314 C 241 307 255 301 274 295 L 287 291 C 326 278 356 260 376 238 C 396 216 406 188 406 156 C 406 106 387 65 350 35 C 313 5 262 -10 198 -10 Z M 182 -270 L 84 -233 C 100 -209 111 -188 119 -168 C 126 -148 132 -124 136 -96 L 143 -48 L 263 -48 L 256 -96 C 250 -136 241 -169 231 -194 C 220 -219 204 -244 182 -270 Z" unicode="ș" />
<glyph horiz-adv-x="565" d="M 212 0 L 286 526 L 94 526 L 113 658 L 637 658 L 618 526 L 426 526 L 352 0 L 212 0 Z M 258 -248 L 170 -215 C 184 -194 194 -174 201 -156 C 207 -138 212 -116 216 -92 L 223 -48 L 331 -48 L 324 -92 C 319 -128 312 -157 302 -180 C 292 -202 277 -225 258 -248 Z" unicode="Ț" />
<glyph horiz-adv-x="329" d="M 215 -10 C 173 -10 141 3 121 31 C 100 58 93 95 100 142 L 129 348 L 69 348 L 86 470 L 146 470 L 163 593 L 300 593 L 283 470 L 367 470 L 350 348 L 266 348 L 239 160 C 237 144 238 133 243 125 C 248 117 257 114 269 114 C 277 114 286 114 294 116 C 302 118 310 120 318 124 L 301 4 C 288 0 274 -4 259 -6 C 244 -8 229 -10 215 -10 Z M 185 -278 L 87 -241 C 103 -217 114 -196 122 -176 C 129 -156 135 -132 139 -104 L 146 -56 L 266 -56 L 259 -104 C 253 -144 244 -177 234 -202 C 223 -227 207 -252 185 -278 Z" unicode="ț" />
<glyph horiz-adv-x="242" d="M -45 -210 L -53 -210 L -36 -86 L -28 -86 C -3 -86 16 -79 30 -66 C 44 -53 53 -34 57 -8 L 124 470 L 260 470 L 193 -8 C 183 -74 159 -125 119 -159 C 79 -193 24 -210 -45 -210 Z" unicode="ȷ" />
<glyph horiz-adv-x="502" d="M 240 -10 C 188 -10 146 3 112 31 C 78 59 61 93 61 134 C 61 185 80 223 120 248 C 159 273 223 288 311 293 L 357 295 C 352 316 341 333 323 345 C 305 357 283 363 256 363 C 223 363 193 359 166 351 C 139 343 113 331 89 317 L 108 446 C 137 458 167 467 198 472 C 229 477 254 480 273 480 C 344 480 399 460 438 420 C 476 380 496 331 496 271 C 496 189 473 122 429 69 C 384 16 321 -10 240 -10 Z M 200 138 C 200 127 204 118 213 112 C 222 106 234 103 249 103 C 273 103 295 111 313 129 C 331 147 344 170 350 199 L 298 196 C 265 194 240 189 224 179 C 208 169 200 156 200 138 Z" unicode="ə" />
<glyph horiz-adv-x="312" d="M 78 524 L 193 674 L 309 674 L 382 524 L 271 524 L 239 588 L 189 524 L 78 524 Z" unicode="ˆ" />
<glyph horiz-adv-x="312" d="M 172 524 L 99 674 L 210 674 L 241 610 L 292 674 L 403 674 L 288 524 L 172 524 Z" unicode="ˇ" />
<glyph horiz-adv-x="360" d="M 258 516 C 213 516 179 529 157 556 C 135 582 127 618 134 663 L 221 663 C 219 646 221 633 229 623 C 237 613 248 609 264 609 C 278 609 290 613 300 623 C 310 633 316 646 318 663 L 406 663 C 399 618 382 582 355 556 C 328 529 296 516 258 516 Z" unicode="˘" />
<glyph horiz-adv-x="193" d="M 106 524 L 125 656 L 257 656 L 238 524 L 106 524 Z" unicode="˙" />
<glyph horiz-adv-x="223" d="M 174 415 C 145 415 121 424 102 443 C 83 462 74 486 74 515 C 74 548 85 576 109 598 C 132 620 161 632 196 632 C 224 632 248 622 267 603 C 286 584 296 560 296 532 C 296 499 285 471 263 449 C 241 426 212 415 174 415 Z M 182 486 C 194 486 203 489 211 497 C 219 505 223 514 223 526 C 223 536 219 544 213 551 C 206 557 198 561 188 561 C 176 561 167 557 159 549 C 151 541 147 531 147 521 C 147 511 150 502 157 496 C 163 489 172 486 182 486 Z" unicode="˚" />
<glyph horiz-adv-x="246" d="M 167 -220 C 117 -220 77 -208 48 -186 C 18 -164 4 -133 4 -94 C 4 -55 21 -22 55 5 C 89 33 133 47 185 47 L 191 0 C 171 0 154 -6 141 -18 C 127 -30 121 -45 121 -62 C 121 -77 126 -89 137 -98 C 148 -107 163 -112 182 -112 L 167 -220 Z" unicode="˛" />
<glyph horiz-adv-x="330" d="M 162 524 L 82 524 C 88 568 100 602 119 625 C 138 647 164 659 196 659 C 208 659 220 657 231 654 C 242 650 253 645 264 638 C 273 632 281 627 287 624 C 293 620 299 619 305 619 C 313 619 321 622 327 629 C 333 635 336 644 338 655 L 418 655 C 411 610 398 576 379 554 C 360 531 335 520 304 520 C 289 520 276 521 266 525 C 256 528 246 533 236 541 C 227 547 219 552 213 555 C 207 558 201 560 195 560 C 186 560 179 556 173 550 C 167 543 163 534 162 524 Z" unicode="˜" />
<glyph horiz-adv-x="406" d="M 81 522 L 192 679 L 317 679 L 194 522 L 81 522 Z M 257 522 L 380 679 L 505 679 L 370 522 L 257 522 Z" unicode="˝" />
<glyph horiz-adv-x="0" d="M 5 524 L -101 674 L 57 674 L 145 524 L 5 524 Z" unicode="̀" />
<glyph horiz-adv-x="0" d="M 2 524 L 132 674 L 290 674 L 142 524 L 2 524 Z" unicode="́" />
<glyph horiz-adv-x="0" d="M -78 524 L 37 674 L 153 674 L 226 524 L 115 524 L 83 588 L 33 524 L -78 524 Z" unicode="̂" />
<glyph horiz-adv-x="0" d="M -2 524 L -82 524 C -76 568 -63 602 -44 625 C -25 647 0 659 32 659 C 44 659 56 657 67 654 C 78 650 89 645 100 638 C 109 632 117 627 123 624 C 129 620 135 619 141 619 C 149 619 157 622 163 629 C 169 635 172 644 174 655 L 254 655 C 247 610 234 576 215 554 C 196 531 171 520 140 520 C 125 520 112 521 102 525 C 92 528 82 533 72 541 C 63 547 55 552 49 555 C 43 558 37 560 31 560 C 22 560 15 556 9 550 C 3 543 0 534 -2 524 Z" unicode="̃" />
<glyph horiz-adv-x="0" d="M -57 532 L -42 639 L 222 639 L 207 532 L -57 532 Z" unicode="̄" />
<glyph horiz-adv-x="0" d="M 77 516 C 32 516 -1 529 -23 556 C -45 582 -53 618 -47 663 L 40 663 C 38 646 40 633 48 623 C 56 613 67 609 83 609 C 97 609 109 613 119 623 C 129 633 135 646 137 663 L 225 663 C 218 618 201 582 174 556 C 147 529 115 516 77 516 Z" unicode="̆" />
<glyph horiz-adv-x="0" d="M 10 524 L 29 656 L 161 656 L 142 524 L 10 524 Z" unicode="̇" />
<glyph horiz-adv-x="0" d="M -82 525 L -65 649 L 59 649 L 42 525 L -82 525 Z M 108 525 L 125 649 L 249 649 L 232 525 L 108 525 Z" unicode="̈" />
<glyph horiz-adv-x="0" d="M 62 415 C 33 415 9 424 -9 443 C -28 462 -38 486 -38 515 C -38 548 -26 576 -3 598 C 20 620 49 632 84 632 C 112 632 136 622 155 603 C 174 584 184 560 184 532 C 184 499 173 471 151 449 C 129 426 100 415 62 415 Z M 70 486 C 82 486 91 489 99 497 C 107 505 111 514 111 526 C 111 536 107 544 101 551 C 94 557 86 561 76 561 C 64 561 55 557 47 549 C 39 541 35 531 35 521 C 35 511 38 502 45 496 C 51 489 60 486 70 486 Z" unicode="̊" />
<glyph horiz-adv-x="0" d="M -75 522 L 36 679 L 161 679 L 38 522 L -75 522 Z M 101 522 L 224 679 L 349 679 L 214 522 L 101 522 Z" unicode="̋" />
<glyph horiz-adv-x="0" d="M 16 524 L -57 674 L 54 674 L 85 610 L 136 674 L 247 674 L 132 524 L 16 524 Z" unicode="̌" />
<glyph horiz-adv-x="0" d="M 95 746 L 193 709 C 177 685 165 664 158 644 C 150 624 145 600 141 572 L 134 524 L 14 524 L 21 572 C 27 612 35 645 46 670 C 56 695 73 720 95 746 Z" unicode="̒" />
<glyph horiz-adv-x="1" d="M -26 -262 L -124 -225 C -108 -201 -96 -180 -89 -160 C -81 -140 -76 -116 -72 -88 L -65 -40 L 55 -40 L 48 -88 C 42 -128 33 -161 23 -186 C 12 -211 -4 -236 -26 -262 Z" unicode="̦" />
<glyph horiz-adv-x="0" d="M -17 -242 C -29 -242 -42 -240 -54 -238 C -66 -236 -77 -232 -88 -228 L -78 -153 C -68 -157 -59 -161 -50 -164 C -40 -166 -31 -168 -22 -168 C -12 -168 -3 -165 3 -159 C 9 -153 13 -146 13 -137 C 13 -129 10 -122 4 -118 C -1 -113 -8 -111 -18 -111 L -24 -111 L -14 -40 L -8 -40 C 25 -40 51 -48 71 -65 C 91 -82 101 -105 101 -133 C 101 -163 89 -189 67 -210 C 45 -231 17 -242 -17 -242 Z" unicode="̧" />
<glyph horiz-adv-x="0" d="M -25 -220 C -75 -220 -114 -208 -144 -186 C -173 -164 -188 -133 -188 -94 C -188 -55 -170 -22 -136 5 C -102 33 -59 47 -7 47 L -1 0 C -21 0 -37 -6 -51 -18 C -64 -30 -71 -45 -71 -62 C -71 -77 -65 -89 -54 -98 C -43 -107 -28 -112 -10 -112 L -25 -220 Z" unicode="̨" />
<glyph horiz-adv-x="686" d="M 20 0 L 352 658 L 527 658 L 666 0 L 20 0 Z M 215 127 L 491 127 L 410 511 L 215 127 Z" unicode="Δ" />
<glyph horiz-adv-x="526" d="M 127 -202 L 16 -202 L 99 347 C 102 371 105 393 107 413 C 109 433 111 452 111 470 L 248 470 C 248 449 247 428 245 406 C 243 384 240 363 236 341 L 212 203 C 206 173 208 151 217 136 C 226 121 242 114 266 114 C 294 114 317 129 335 161 C 353 192 367 243 378 315 L 400 470 L 537 470 L 490 136 C 487 114 485 92 484 68 C 482 44 482 22 482 0 L 345 0 L 345 79 C 327 49 306 27 281 12 C 256 -2 229 -10 200 -10 C 189 -10 179 -9 169 -7 C 159 -5 150 -2 142 1 L 127 -202 Z" unicode="μ" />
<glyph horiz-adv-x="545" d="M 92 0 L 141 346 L 77 346 L 94 470 L 583 470 L 566 346 L 502 346 L 479 184 C 474 149 471 117 470 87 C 469 57 469 28 469 0 L 330 0 C 330 30 330 59 332 86 C 333 113 336 146 342 184 L 365 346 L 278 346 L 229 0 L 92 0 Z" unicode="π" />
<glyph horiz-adv-x="984" d="M 525 706 L 430 841 L 569 841 L 648 706 L 525 706 Z M 217 0 L 108 658 L 256 658 L 308 288 L 317 184 L 354 288 L 509 658 L 662 658 L 714 288 L 723 183 L 759 288 L 914 658 L 1060 658 L 767 0 L 620 0 L 570 370 L 560 480 L 519 370 L 364 0 L 217 0 Z" unicode="Ẁ" />
<glyph horiz-adv-x="752" d="M 372 524 L 266 674 L 424 674 L 512 524 L 372 524 Z M 143 0 L 74 470 L 210 470 L 239 238 L 247 146 C 269 197 291 250 313 304 C 334 358 355 413 375 470 L 501 470 L 536 238 L 548 143 C 573 198 596 253 618 308 C 640 362 659 416 676 470 L 806 470 C 780 390 750 311 715 232 C 680 153 642 76 600 0 L 452 0 L 426 190 L 417 286 C 398 240 378 192 357 144 C 335 96 313 48 291 0 L 143 0 Z" unicode="ẁ" />
<glyph horiz-adv-x="984" d="M 523 706 L 640 841 L 786 841 L 653 706 L 523 706 Z M 217 0 L 108 658 L 256 658 L 308 288 L 317 184 L 354 288 L 509 658 L 662 658 L 714 288 L 723 183 L 759 288 L 914 658 L 1060 658 L 767 0 L 620 0 L 570 370 L 560 480 L 519 370 L 364 0 L 217 0 Z" unicode="Ẃ" />
<glyph horiz-adv-x="752" d="M 369 524 L 499 674 L 657 674 L 509 524 L 369 524 Z M 143 0 L 74 470 L 210 470 L 239 238 L 247 146 C 269 197 291 250 313 304 C 334 358 355 413 375 470 L 501 470 L 536 238 L 548 143 C 573 198 596 253 618 308 C 640 362 659 416 676 470 L 806 470 C 780 390 750 311 715 232 C 680 153 642 76 600 0 L 452 0 L 426 190 L 417 286 C 398 240 378 192 357 144 C 335 96 313 48 291 0 L 143 0 Z" unicode="ẃ" />
<glyph horiz-adv-x="984" d="M 443 706 L 459 817 L 571 817 L 555 706 L 443 706 Z M 614 706 L 630 817 L 742 817 L 726 706 L 614 706 Z M 217 0 L 108 658 L 256 658 L 308 288 L 317 184 L 354 288 L 509 658 L 662 658 L 714 288 L 723 183 L 759 288 L 914 658 L 1060 658 L 767 0 L 620 0 L 570 370 L 560 480 L 519 370 L 364 0 L 217 0 Z" unicode="Ẅ" />
<glyph horiz-adv-x="752" d="M 285 525 L 302 649 L 426 649 L 409 525 L 285 525 Z M 475 525 L 492 649 L 616 649 L 599 525 L 475 525 Z M 143 0 L 74 470 L 210 470 L 239 238 L 247 146 C 269 197 291 250 313 304 C 334 358 355 413 375 470 L 501 470 L 536 238 L 548 143 C 573 198 596 253 618 308 C 640 362 659 416 676 470 L 806 470 C 780 390 750 311 715 232 C 680 153 642 76 600 0 L 452 0 L 426 190 L 417 286 C 398 240 378 192 357 144 C 335 96 313 48 291 0 L 143 0 Z" unicode="ẅ" />
<glyph horiz-adv-x="642" d="M 353 706 L 258 841 L 397 841 L 476 706 L 353 706 Z M 250 0 L 286 255 L 100 658 L 257 658 L 344 464 L 373 390 L 420 464 L 559 658 L 722 658 L 426 257 L 390 0 L 250 0 Z" unicode="Ỳ" />
<glyph horiz-adv-x="502" d="M 236 524 L 130 674 L 288 674 L 376 524 L 236 524 Z M 358 12 C 306 -64 249 -120 187 -156 C 125 -192 58 -210 -14 -210 L -21 -210 L -4 -86 L 4 -86 C 38 -86 70 -79 101 -66 C 131 -53 159 -35 183 -11 L 74 470 L 225 470 L 267 239 L 286 107 C 306 149 327 198 347 256 C 367 314 388 385 412 470 L 552 470 C 524 370 493 283 461 207 C 429 131 394 66 358 12 Z" unicode="ỳ" />
<glyph horiz-adv-x="500" d="" unicode=" " />
<glyph horiz-adv-x="1000" d="" unicode=" " />
<glyph horiz-adv-x="650" d="" unicode=" " />
<glyph horiz-adv-x="0" d="" unicode=" " />
<glyph horiz-adv-x="650" d="M 157 244 L 174 362 L 578 362 L 561 244 L 157 244 Z" unicode="‒" />
<glyph horiz-adv-x="516" d="M 82 188 L 99 306 L 503 306 L 486 188 L 82 188 Z" unicode="–" />
<glyph horiz-adv-x="1016" d="M 82 188 L 99 306 L 1003 306 L 986 188 L 82 188 Z" unicode="—" />
<glyph horiz-adv-x="392" d="M 82 188 L 99 306 L 379 306 L 362 188 L 82 188 Z" unicode="―" />
<glyph horiz-adv-x="277" d="M 118 413 L 132 510 C 138 558 154 602 179 642 C 203 682 228 713 253 734 L 340 701 C 322 675 307 648 293 621 C 279 593 270 559 265 519 L 250 413 L 118 413 Z" unicode="‘" />
<glyph horiz-adv-x="234" d="M 155 395 L 68 428 C 85 454 100 480 114 508 C 128 535 138 569 144 610 L 159 716 L 291 716 L 277 619 C 270 571 254 526 229 486 C 204 446 179 415 155 395 Z" unicode="’" />
<glyph horiz-adv-x="234" d="M 73 -189 L -14 -156 C 3 -130 18 -103 32 -76 C 46 -48 56 -14 62 26 L 77 132 L 209 132 L 195 35 C 188 -13 172 -57 147 -97 C 122 -137 97 -168 73 -189 Z" unicode="‚" />
<glyph horiz-adv-x="466" d="M 118 414 L 132 511 C 138 559 154 603 179 643 C 203 683 228 714 253 735 L 340 702 C 322 676 307 649 293 622 C 279 594 270 560 265 520 L 250 414 L 118 414 Z M 307 414 L 321 511 C 327 559 343 603 368 643 C 392 683 417 714 442 735 L 529 702 C 511 676 496 649 482 622 C 468 594 459 560 454 520 L 439 414 L 307 414 Z" unicode="“" />
<glyph horiz-adv-x="419" d="M 155 395 L 68 428 C 85 454 100 480 114 508 C 128 535 138 569 144 610 L 159 716 L 291 716 L 277 619 C 270 571 254 526 229 486 C 204 446 179 415 155 395 Z M 340 395 L 253 428 C 270 454 285 480 299 508 C 313 535 323 569 329 610 L 344 716 L 476 716 L 462 619 C 455 571 439 526 414 486 C 389 446 364 415 340 395 Z" unicode="”" />
<glyph horiz-adv-x="413" d="M 73 -189 L -14 -156 C 3 -130 18 -103 32 -76 C 46 -48 56 -14 62 26 L 77 132 L 209 132 L 195 35 C 188 -13 172 -57 147 -97 C 122 -137 97 -168 73 -189 Z M 252 -189 L 165 -156 C 182 -130 197 -103 211 -76 C 225 -48 235 -14 241 26 L 256 132 L 388 132 L 374 35 C 367 -13 351 -57 326 -97 C 301 -137 276 -168 252 -189 Z" unicode="„" />
<glyph horiz-adv-x="444" d="M 152 0 L 222 442 L 81 434 L 98 558 L 237 550 L 252 716 L 392 716 L 361 550 L 502 558 L 485 434 L 346 442 L 292 0 L 152 0 Z" unicode="†" />
<glyph horiz-adv-x="444" d="M 152 0 L 184 172 L 43 164 L 60 288 L 199 280 L 222 442 L 81 434 L 98 558 L 237 550 L 252 716 L 392 716 L 361 550 L 502 558 L 485 434 L 346 442 L 323 280 L 464 288 L 447 164 L 308 172 L 292 0 L 152 0 Z" unicode="‡" />
<glyph horiz-adv-x="317" d="M 81 145 L 108 341 L 304 341 L 277 145 L 81 145 Z" unicode="•" />
<glyph horiz-adv-x="660" d="M 44 0 L 63 132 L 195 132 L 176 0 L 44 0 Z M 262 0 L 281 132 L 413 132 L 394 0 L 262 0 Z M 480 0 L 499 132 L 631 132 L 612 0 L 480 0 Z" unicode="…" />
<glyph horiz-adv-x="1265" d="M 270 352 C 222 352 184 366 155 395 C 125 423 111 462 111 512 C 111 578 129 631 166 670 C 202 708 247 728 299 728 C 347 728 385 713 414 685 C 443 656 458 617 458 568 C 458 502 439 449 403 410 C 366 371 322 352 270 352 Z M 234 0 L 634 716 L 752 716 L 352 0 L 234 0 Z M 276 452 C 295 452 311 461 323 481 C 335 500 342 527 342 561 C 342 581 337 598 328 610 C 318 622 307 628 293 628 C 273 628 257 618 245 598 C 233 578 227 552 227 519 C 227 496 231 479 241 468 C 251 457 262 452 276 452 Z M 685 -8 C 637 -8 599 6 570 35 C 540 63 526 102 526 152 C 526 218 544 271 581 310 C 617 348 662 368 714 368 C 762 368 800 353 829 325 C 858 296 873 257 873 208 C 873 142 854 89 818 50 C 781 11 737 -8 685 -8 Z M 1067 -8 C 1019 -8 981 6 952 35 C 922 63 908 102 908 152 C 908 218 926 271 963 310 C 999 348 1044 368 1096 368 C 1144 368 1182 353 1211 325 C 1240 296 1255 257 1255 208 C 1255 142 1236 89 1200 50 C 1163 11 1119 -8 1067 -8 Z M 691 92 C 710 92 726 101 738 121 C 750 140 757 167 757 201 C 757 221 752 238 743 250 C 733 262 722 268 708 268 C 688 268 672 258 660 238 C 648 218 642 192 642 159 C 642 136 646 119 656 108 C 666 97 677 92 691 92 Z M 1073 92 C 1092 92 1108 101 1120 121 C 1132 140 1139 167 1139 201 C 1139 221 1134 238 1125 250 C 1115 262 1104 268 1090 268 C 1070 268 1054 258 1042 238 C 1030 218 1024 192 1024 159 C 1024 136 1028 119 1038 108 C 1048 97 1059 92 1073 92 Z" unicode="‰" />
<glyph horiz-adv-x="236" d="M 122 470 L 159 732 L 283 732 L 246 470 L 122 470 Z" unicode="′" />
<glyph horiz-adv-x="388" d="M 122 471 L 159 732 L 271 732 L 234 471 L 122 471 Z M 286 471 L 323 732 L 435 732 L 398 471 L 286 471 Z" unicode="″" />
<glyph horiz-adv-x="380" d="M 197 63 L 72 226 L 241 390 L 393 390 L 225 226 L 349 63 L 197 63 Z" unicode="‹" />
<glyph horiz-adv-x="380" d="M 51 63 L 219 226 L 95 390 L 247 390 L 372 226 L 203 63 L 51 63 Z" unicode="›" />
<glyph horiz-adv-x="153" d="M -132 0 L 268 716 L 386 716 L -14 0 L -132 0 Z" unicode="⁄" />
<glyph horiz-adv-x="397" d="M 269 432 C 221 432 183 446 154 475 C 124 503 110 542 110 592 C 110 658 128 711 165 750 C 201 788 246 808 298 808 C 346 808 384 793 413 765 C 442 736 457 697 457 648 C 457 582 438 529 402 490 C 365 451 321 432 269 432 Z M 275 532 C 294 532 310 541 322 561 C 334 580 341 607 341 641 C 341 661 336 678 327 690 C 317 702 306 708 292 708 C 272 708 256 698 244 678 C 232 658 226 632 226 599 C 226 576 230 559 240 548 C 250 537 261 532 275 532 Z" unicode="⁰" />
<glyph horiz-adv-x="363" d="M 246 440 L 256 508 L 92 508 L 102 584 L 250 800 L 405 800 L 376 598 L 422 598 L 410 508 L 364 508 L 354 440 L 246 440 Z M 268 598 L 285 717 L 203 598 L 268 598 Z" unicode="⁴" />
<glyph horiz-adv-x="326" d="M 209 432 C 188 432 168 433 148 437 C 128 440 108 445 88 452 L 102 551 C 118 542 134 535 150 531 C 166 527 183 525 201 525 C 218 525 232 527 242 533 C 252 538 258 546 258 556 C 258 564 252 571 242 576 C 232 581 217 584 199 584 C 184 584 168 583 151 581 C 134 579 119 577 105 575 L 150 800 L 390 800 L 376 702 L 213 702 L 205 664 C 213 664 221 665 229 666 C 236 666 243 667 249 667 C 291 667 323 658 344 640 C 365 622 376 597 376 567 C 376 529 360 497 328 471 C 296 445 257 432 209 432 Z" unicode="⁵" />
<glyph horiz-adv-x="364" d="M 256 432 C 210 432 174 445 148 473 C 122 500 109 537 109 585 C 109 645 128 698 168 742 C 207 786 258 808 321 808 C 337 808 353 806 369 804 C 385 802 401 798 418 793 L 404 695 C 388 701 374 705 360 709 C 346 712 331 714 315 714 C 290 714 270 707 254 693 C 238 679 227 660 221 636 C 231 648 244 657 259 663 C 273 669 290 673 308 673 C 341 673 367 664 386 646 C 405 628 415 604 415 574 C 415 530 399 495 369 470 C 339 444 301 432 256 432 Z M 259 524 C 273 524 284 527 292 535 C 300 543 305 553 305 566 C 305 575 301 582 295 588 C 289 593 280 596 270 596 C 261 596 252 594 243 590 C 233 586 225 581 219 575 C 217 560 219 548 227 538 C 234 528 245 524 259 524 Z" unicode="⁶" />
<glyph horiz-adv-x="318" d="M 113 440 L 268 698 L 118 698 L 132 800 L 410 800 L 398 716 L 239 440 L 113 440 Z" unicode="⁷" />
<glyph horiz-adv-x="341" d="M 235 432 C 191 432 157 440 134 456 C 110 472 99 495 99 523 C 99 541 105 557 117 573 C 129 588 147 601 170 613 C 154 622 142 633 134 646 C 126 658 122 673 122 690 C 122 724 136 752 164 774 C 192 796 228 808 270 808 C 310 808 343 799 368 783 C 392 766 405 744 405 717 C 405 698 400 682 390 668 C 380 654 363 642 341 631 C 357 621 369 609 377 596 C 385 583 389 568 389 552 C 389 515 374 486 345 464 C 315 442 279 432 235 432 Z M 266 659 L 270 658 C 278 662 284 669 290 677 C 296 685 299 694 299 703 C 299 711 296 718 290 724 C 284 730 276 734 266 734 C 256 734 248 730 241 724 C 233 717 230 708 230 696 C 230 686 233 678 240 672 C 246 666 255 661 266 659 Z M 207 539 C 207 529 210 521 216 515 C 222 509 231 506 242 506 C 251 506 260 509 268 517 C 276 524 281 534 281 547 C 281 557 277 565 269 570 C 261 575 253 579 245 582 L 240 584 C 230 579 222 572 216 564 C 210 556 207 547 207 539 Z" unicode="⁸" />
<glyph horiz-adv-x="359" d="M 213 432 C 196 432 180 433 164 435 C 148 437 132 441 116 447 L 130 545 C 145 539 160 534 174 531 C 188 527 203 526 219 526 C 243 526 263 532 279 545 C 295 558 306 576 313 599 C 302 587 289 577 273 571 C 257 564 240 561 222 561 C 190 561 164 570 146 589 C 128 607 119 633 119 666 C 119 710 134 744 164 770 C 194 795 233 808 279 808 C 323 808 359 794 385 767 C 411 739 425 702 425 655 C 425 594 405 542 366 498 C 326 454 275 432 213 432 Z M 264 638 C 272 638 281 639 291 643 C 300 647 308 652 315 659 C 317 675 315 689 307 700 C 299 710 287 716 273 716 C 259 716 249 712 241 704 C 233 696 229 686 229 674 C 229 662 232 653 238 647 C 244 641 253 638 264 638 Z" unicode="⁹" />
<glyph horiz-adv-x="417" d="M 106 440 L 141 692 C 143 709 145 727 146 746 C 147 765 148 783 148 800 L 255 800 C 255 794 254 786 254 776 C 253 766 253 757 253 750 L 253 738 C 266 760 283 778 304 790 C 325 802 347 808 370 808 C 406 808 433 796 453 772 C 473 748 479 716 473 677 L 450 547 C 447 530 445 513 444 495 C 443 477 443 458 443 440 L 334 440 C 334 457 334 475 335 494 C 335 513 337 531 341 547 L 361 641 C 365 662 363 678 354 690 C 345 702 333 708 317 708 C 300 708 284 697 268 677 C 252 657 239 615 230 551 L 214 440 L 106 440 Z" unicode="ⁿ" />
<glyph horiz-adv-x="397" d="M 183 -178 C 135 -178 97 -163 68 -135 C 38 -106 24 -67 24 -18 C 24 48 42 101 79 140 C 115 178 160 198 212 198 C 260 198 298 183 327 155 C 356 126 371 87 371 38 C 371 -28 352 -80 316 -119 C 279 -158 235 -178 183 -178 Z M 189 -78 C 208 -78 224 -68 236 -49 C 248 -29 255 -3 255 31 C 255 51 250 68 241 80 C 231 92 220 98 206 98 C 186 98 170 88 158 68 C 146 48 140 22 140 -11 C 140 -33 144 -50 154 -61 C 164 -72 175 -78 189 -78 Z" unicode="₀" />
<glyph horiz-adv-x="319" d="M 9 -170 L 22 -76 L 94 -76 L 118 91 L 36 84 L 49 178 L 247 198 L 208 -76 L 280 -76 L 267 -170 L 9 -170 Z" unicode="₁" />
<glyph horiz-adv-x="316" d="M 1 -170 L 17 -53 C 71 -32 113 -12 141 8 C 169 28 183 47 183 65 C 183 77 178 86 168 92 C 158 97 146 100 132 100 C 117 100 102 97 88 93 C 73 88 57 81 41 72 L 56 180 C 76 186 94 190 112 193 C 129 196 149 198 171 198 C 213 198 245 189 269 171 C 292 153 304 128 304 94 C 304 57 288 24 257 -4 C 225 -32 183 -55 129 -72 L 281 -72 L 267 -170 L 1 -170 Z" unicode="₂" />
<glyph horiz-adv-x="317" d="M 124 -178 C 104 -178 84 -176 64 -174 C 44 -171 23 -166 2 -159 L 16 -59 C 32 -67 49 -73 65 -77 C 81 -81 98 -83 117 -83 C 131 -83 143 -80 152 -75 C 161 -70 166 -64 166 -58 C 166 -50 161 -45 152 -41 C 142 -37 127 -35 105 -35 L 78 -35 L 90 53 L 113 53 C 133 53 148 55 160 61 C 172 66 178 73 178 82 C 178 88 174 93 167 97 C 160 101 149 103 134 103 C 118 103 103 101 89 98 C 74 94 59 89 43 83 L 57 180 C 77 185 96 189 114 193 C 132 196 150 198 168 198 C 208 198 239 189 262 172 C 285 155 297 133 297 107 C 297 83 289 62 273 46 C 257 30 236 18 210 12 C 232 8 249 0 261 -14 C 273 -27 279 -42 279 -60 C 279 -96 265 -124 237 -146 C 209 -167 172 -178 124 -178 Z" unicode="₃" />
<glyph horiz-adv-x="362" d="M 160 -170 L 170 -102 L 6 -102 L 16 -26 L 164 190 L 319 190 L 290 -12 L 336 -12 L 324 -102 L 278 -102 L 268 -170 L 160 -170 Z M 182 -12 L 199 107 L 117 -12 L 182 -12 Z" unicode="₄" />
<glyph horiz-adv-x="321" d="M 123 -178 C 102 -178 82 -176 62 -173 C 42 -169 22 -164 2 -158 L 16 -59 C 32 -67 48 -74 64 -78 C 80 -82 97 -85 115 -85 C 132 -85 146 -82 156 -77 C 166 -71 172 -64 172 -54 C 172 -45 166 -38 156 -33 C 146 -28 131 -26 113 -26 C 98 -26 82 -26 65 -28 C 48 -30 33 -32 19 -35 L 64 190 L 304 190 L 290 92 L 127 92 L 119 54 C 127 54 135 55 143 56 C 150 56 157 57 163 57 C 205 57 237 48 258 30 C 279 12 290 -12 290 -43 C 290 -81 274 -113 242 -139 C 210 -165 171 -178 123 -178 Z" unicode="₅" />
<glyph horiz-adv-x="364" d="M 170 -178 C 124 -178 88 -164 62 -137 C 36 -109 23 -72 23 -25 C 23 35 42 88 82 132 C 121 176 172 198 235 198 C 251 198 267 196 283 194 C 299 192 315 188 332 183 L 318 85 C 302 91 288 95 274 99 C 260 102 245 104 229 104 C 204 104 184 97 168 83 C 152 69 141 50 135 26 C 145 38 158 47 173 53 C 187 59 204 63 222 63 C 255 63 281 54 300 36 C 319 18 329 -5 329 -36 C 329 -80 313 -114 283 -140 C 253 -165 215 -178 170 -178 Z M 173 -86 C 187 -86 198 -82 206 -74 C 214 -66 219 -56 219 -44 C 219 -34 215 -27 209 -22 C 203 -16 194 -14 184 -14 C 175 -14 166 -15 157 -19 C 147 -23 139 -28 133 -35 C 131 -49 133 -61 141 -71 C 148 -81 159 -86 173 -86 Z" unicode="₆" />
<glyph horiz-adv-x="318" d="M 28 -170 L 183 88 L 33 88 L 47 190 L 325 190 L 313 106 L 154 -170 L 28 -170 Z" unicode="₇" />
<glyph horiz-adv-x="336" d="M 149 -178 C 105 -178 71 -169 48 -153 C 24 -137 13 -115 13 -87 C 13 -69 19 -52 31 -37 C 43 -21 61 -8 84 3 C 68 12 56 23 48 36 C 40 48 36 63 36 80 C 36 114 50 142 78 164 C 106 186 142 198 184 198 C 224 198 257 189 282 173 C 306 156 319 134 319 107 C 319 88 314 72 304 58 C 294 44 277 32 255 21 C 271 11 283 0 291 -13 C 299 -26 303 -41 303 -58 C 303 -94 288 -123 259 -145 C 229 -167 193 -178 149 -178 Z M 180 49 L 184 48 C 192 52 198 59 204 67 C 210 75 213 84 213 93 C 213 101 210 108 204 114 C 198 120 190 124 180 124 C 170 124 162 120 155 114 C 147 107 144 98 144 86 C 144 76 147 68 154 62 C 160 56 169 51 180 49 Z M 121 -71 C 121 -80 124 -88 130 -94 C 136 -100 145 -104 156 -104 C 165 -104 174 -100 182 -93 C 190 -85 195 -75 195 -63 C 195 -52 191 -44 183 -39 C 175 -34 167 -30 159 -28 L 154 -26 C 144 -30 136 -37 130 -45 C 124 -53 121 -62 121 -71 Z" unicode="₈" />
<glyph horiz-adv-x="359" d="M 127 -178 C 110 -178 94 -176 78 -174 C 62 -172 46 -168 30 -163 L 44 -65 C 59 -71 74 -75 88 -79 C 102 -82 117 -84 133 -84 C 157 -84 177 -77 193 -64 C 209 -51 220 -33 227 -11 C 216 -23 203 -32 187 -39 C 171 -45 154 -49 136 -49 C 104 -49 78 -39 60 -21 C 42 -2 33 23 33 56 C 33 100 48 134 78 160 C 108 185 147 198 193 198 C 237 198 273 184 299 157 C 325 129 339 92 339 45 C 339 -15 319 -68 280 -112 C 240 -156 189 -178 127 -178 Z M 178 28 C 186 28 195 29 205 33 C 214 37 222 42 229 49 C 231 65 229 79 221 90 C 213 100 201 106 187 106 C 173 106 163 102 155 94 C 147 86 143 76 143 64 C 143 52 146 43 152 37 C 158 31 167 28 178 28 Z" unicode="₉" />
<glyph horiz-adv-x="697" d="M 70 211 L 83 303 L 138 303 C 138 311 139 319 140 327 C 140 335 141 343 142 351 L 91 351 L 104 443 L 166 443 C 192 512 238 568 302 610 C 366 652 443 674 535 674 C 571 674 606 670 640 662 C 674 654 706 641 736 625 L 716 485 C 685 503 654 518 622 528 C 590 538 557 544 522 544 C 476 544 436 535 402 517 C 368 499 341 474 321 443 L 441 443 L 428 351 L 286 351 C 285 343 284 336 283 328 C 282 320 282 311 282 303 L 422 303 L 409 211 L 301 211 C 315 181 336 158 366 140 C 395 122 430 114 471 114 C 509 114 545 119 579 130 C 613 141 647 157 682 179 L 662 36 C 628 18 593 4 559 -3 C 525 -11 491 -16 457 -16 C 372 -16 303 5 249 48 C 195 90 160 145 146 211 L 70 211 Z" unicode="€" />
<glyph horiz-adv-x="558" d="M 64 0 L 156 658 L 237 658 L 255 786 L 349 786 L 331 658 L 344 658 C 351 658 358 657 366 657 C 374 657 381 656 388 656 L 406 786 L 500 786 L 478 632 C 502 619 521 602 533 580 C 545 558 551 532 551 503 C 551 463 540 427 518 397 C 496 367 463 345 420 333 C 456 324 485 308 505 285 C 525 262 535 233 535 197 C 535 152 523 114 499 83 C 475 52 440 30 392 16 L 372 -124 L 278 -124 L 296 1 C 290 0 285 0 279 0 C 273 0 268 0 263 0 L 238 0 L 221 -124 L 127 -124 L 144 0 L 64 0 Z M 259 389 L 321 389 C 351 389 373 396 387 410 C 401 424 409 444 409 470 C 409 491 403 507 391 519 C 379 530 360 536 336 536 L 280 536 L 259 389 Z M 222 122 L 290 122 C 324 122 350 129 367 144 C 384 158 393 179 393 206 C 393 227 385 243 371 255 C 357 267 335 273 306 273 L 243 273 L 222 122 Z" unicode="₿" />
<glyph horiz-adv-x="726" d="M 382 80 C 300 80 231 107 177 161 C 122 215 95 282 95 363 C 95 465 129 551 199 620 C 268 689 354 724 457 724 C 539 724 607 697 662 643 C 716 589 744 523 744 443 C 744 339 709 253 640 184 C 570 114 484 80 382 80 Z M 384 152 C 465 152 533 179 588 234 C 642 288 670 356 670 438 C 670 499 649 550 607 591 C 565 631 514 652 455 652 C 373 652 305 624 251 569 C 196 514 169 446 169 365 C 169 305 190 254 232 213 C 274 172 324 152 384 152 Z M 304 235 L 351 570 L 464 570 C 492 570 517 560 538 542 C 558 524 569 501 569 473 C 569 435 555 403 527 378 C 499 352 467 340 429 340 L 399 340 L 384 235 L 304 235 Z M 409 407 L 437 407 C 453 407 465 412 474 423 C 483 433 488 445 488 459 C 488 470 484 480 478 489 C 471 498 462 503 450 503 L 422 503 L 409 407 Z" unicode="℗" />
<glyph horiz-adv-x="678" d="M 172 453 L 199 646 L 131 646 L 141 716 L 361 716 L 351 646 L 283 646 L 256 453 L 172 453 Z M 353 453 L 390 716 L 513 716 L 543 617 L 601 716 L 719 716 L 682 453 L 598 453 L 623 632 L 539 490 L 494 490 L 449 633 L 423 453 L 353 453 Z" unicode="™" />
<glyph horiz-adv-x="589" d="M 307 -12 C 235 -12 178 8 136 48 C 94 88 73 143 73 213 C 73 286 96 348 143 399 C 190 449 246 475 310 475 C 335 475 358 470 378 462 C 398 454 416 442 430 427 C 414 473 384 509 339 534 C 293 558 233 571 159 571 L 180 716 C 306 716 405 680 479 610 C 552 539 589 443 589 323 C 589 222 562 141 510 80 C 458 18 390 -12 307 -12 Z M 316 116 C 355 116 385 129 405 156 C 425 182 436 216 436 256 C 436 282 427 303 411 320 C 395 337 371 346 341 346 C 307 346 278 333 256 309 C 234 284 223 254 223 219 C 223 188 231 163 249 144 C 267 125 289 116 316 116 Z" unicode="∂" />
<glyph horiz-adv-x="601" d="M 60 0 L 154 658 L 633 658 L 539 0 L 399 0 L 474 526 L 275 526 L 200 0 L 60 0 Z" unicode="∏" />
<glyph horiz-adv-x="530" d="M 44 0 L 63 134 L 290 341 L 119 524 L 138 658 L 582 658 L 563 526 L 316 526 L 477 349 L 256 141 L 510 141 L 490 0 L 44 0 Z" unicode="∑" />
<glyph horiz-adv-x="520" d="M 77 235 L 94 353 L 526 353 L 509 235 L 77 235 Z" unicode="−" />
<glyph horiz-adv-x="585" d="M 182 0 L 77 516 L 218 516 L 288 153 L 547 700 L 679 700 L 342 0 L 182 0 Z" unicode="√" />
<glyph horiz-adv-x="859" d="M 230 13 C 180 13 139 30 106 66 C 73 102 57 150 57 212 C 57 287 80 347 127 392 C 174 436 232 459 302 459 C 343 459 378 449 408 429 C 438 409 463 381 484 345 C 510 383 540 411 574 430 C 608 449 645 459 687 459 C 739 459 782 441 817 406 C 851 370 869 322 869 261 C 869 185 845 124 798 80 C 750 35 692 13 622 13 C 580 13 545 22 516 42 C 486 62 461 90 441 126 C 414 88 383 60 348 41 C 312 22 273 13 230 13 Z M 658 335 C 634 335 612 328 592 314 C 572 300 552 276 533 244 C 551 206 568 179 584 162 C 600 145 618 137 638 137 C 668 137 691 147 709 168 C 726 188 735 214 735 245 C 735 271 728 292 714 309 C 700 326 682 335 658 335 Z M 191 227 C 191 201 197 179 211 162 C 225 145 244 137 268 137 C 290 137 312 144 333 159 C 354 174 374 196 392 225 C 373 263 356 290 340 308 C 324 326 306 335 286 335 C 256 335 233 324 216 304 C 199 283 191 257 191 227 Z" unicode="∞" />
<glyph horiz-adv-x="377" d="M 65 -218 C 52 -218 39 -217 27 -215 C 15 -213 3 -210 -9 -206 L 8 -85 C 16 -87 25 -89 35 -91 C 44 -93 54 -94 65 -94 C 83 -94 98 -88 110 -78 C 121 -67 128 -51 130 -30 L 190 533 C 196 595 217 641 252 671 C 287 701 330 716 380 716 C 394 716 409 715 424 714 C 439 712 454 710 469 708 L 451 580 C 441 584 431 587 421 589 C 411 591 402 592 392 592 C 371 592 355 587 344 577 C 332 567 325 553 323 534 L 263 -37 C 256 -97 235 -143 201 -173 C 166 -203 121 -218 65 -218 Z" unicode="∫" />
<glyph horiz-adv-x="439" d="M 120 313 L 120 422 C 128 433 141 442 158 450 C 174 457 191 461 208 461 C 220 461 233 459 247 455 C 260 451 272 447 283 443 C 293 439 305 434 317 430 C 329 425 342 423 356 423 C 369 423 381 425 393 429 C 405 433 416 439 426 446 L 426 338 C 417 326 404 316 388 309 C 371 302 354 299 338 299 C 325 299 312 300 300 304 C 287 308 275 312 265 317 C 255 321 243 325 230 330 C 217 334 204 337 191 337 C 178 337 165 335 153 331 C 140 327 129 321 120 313 Z M 94 123 L 93 231 C 101 242 114 251 131 259 C 147 266 164 270 181 270 C 193 270 206 268 220 264 C 233 260 245 256 256 252 C 266 248 278 243 290 239 C 302 234 315 232 329 232 C 342 232 354 234 366 238 C 378 242 389 248 399 256 L 399 147 C 390 135 377 126 361 119 C 344 111 327 108 311 108 C 298 108 285 109 273 113 C 260 117 248 121 238 126 C 228 130 217 134 204 139 C 190 143 177 146 164 146 C 151 146 138 144 126 140 C 113 136 102 131 94 123 Z" unicode="≈" />
<glyph horiz-adv-x="553" d="M 107 17 L 171 134 L 79 134 L 96 252 L 236 252 L 283 338 L 108 338 L 125 456 L 348 456 L 407 564 L 527 564 L 468 456 L 557 456 L 540 338 L 403 338 L 356 252 L 528 252 L 511 134 L 291 134 L 227 17 L 107 17 Z" unicode="≠" />
<glyph horiz-adv-x="525" d="M 291 84 L 102 299 L 354 516 L 538 516 L 286 299 L 477 84 L 291 84 Z M 51 -118 L 68 0 L 457 0 L 440 -118 L 51 -118 Z" unicode="≤" />
<glyph horiz-adv-x="524" d="M 72 84 L 323 299 L 133 516 L 317 516 L 507 299 L 258 84 L 72 84 Z M 51 -118 L 68 0 L 457 0 L 440 -118 L 51 -118 Z" unicode="≥" />
<glyph horiz-adv-x="608" d="M 304 -43 L 93 290 L 398 623 L 601 290 L 304 -43 Z M 324 148 L 455 295 L 371 432 L 240 285 L 324 148 Z" unicode="◊" />
<glyph horiz-adv-x="600" d="M 195 0 L 93 516 L 234 516 L 301 156 L 561 716 L 693 716 L 355 0 L 195 0 Z" unicode="✓" />
<glyph horiz-adv-x="681" d="M 53 0 L 72 132 L 228 132 L 232 163 C 192 177 158 203 132 242 C 105 280 92 325 92 377 C 92 462 120 533 177 589 C 234 645 312 674 412 674 C 495 674 564 651 619 606 C 674 561 702 500 702 423 C 702 357 681 300 641 252 C 601 204 551 173 493 159 L 489 132 L 645 132 L 626 0 L 368 0 L 404 257 C 452 259 490 275 518 303 C 546 331 560 368 560 414 C 560 450 546 481 519 506 C 491 530 454 543 408 543 C 357 543 315 528 283 499 C 250 470 234 432 234 384 C 234 349 244 320 265 297 C 285 274 313 261 348 257 L 312 0 L 53 0 Z" unicode="Ꞷ" />
<glyph horiz-adv-x="149" d="M 46 -262 L -52 -225 C -36 -201 -24 -180 -17 -160 C -9 -140 -4 -116 0 -88 L 7 -40 L 127 -40 L 120 -88 C 114 -128 105 -161 95 -186 C 84 -211 68 -236 46 -262 Z" unicode="" />
<glyph horiz-adv-x="783" d="M 60 0 L 152 658 L 815 658 L 723 0 L 60 0 Z M 241 78 L 338 78 L 397 501 L 461 501 L 402 78 L 499 78 L 531 309 L 549 309 C 602 309 645 322 679 350 C 712 377 729 419 729 475 C 729 501 718 526 698 548 C 678 570 639 582 582 582 L 213 582 L 202 501 L 300 501 L 241 78 Z" unicode="" />
<glyph horiz-adv-x="531" d="M 84 0 L 133 348 L 69 348 L 86 470 L 150 470 L 156 514 C 164 579 188 631 228 669 C 267 707 316 726 375 726 C 394 726 415 724 439 720 C 462 716 483 710 502 702 L 484 575 C 468 583 452 590 434 595 C 416 599 398 602 381 602 C 355 602 334 594 319 579 C 304 564 295 542 291 513 L 285 470 L 358 470 L 341 348 L 268 348 L 219 0 L 84 0 Z M 342 0 C 342 22 342 45 344 67 C 346 89 348 111 351 134 L 398 470 L 535 470 L 488 134 C 485 114 483 91 481 67 C 479 43 478 20 479 0 L 342 0 Z" unicode="ﬁ" />
<glyph horiz-adv-x="536" d="M 84 0 L 133 348 L 69 348 L 86 470 L 150 470 L 156 514 C 164 579 188 631 228 669 C 267 707 316 726 375 726 C 387 726 401 725 415 723 C 429 721 444 719 458 716 L 573 716 L 491 136 C 488 114 486 91 485 69 C 483 46 483 23 484 0 L 347 0 C 346 22 346 45 348 68 C 349 90 351 113 354 136 L 419 598 C 413 599 406 600 400 601 C 394 601 387 602 381 602 C 355 602 334 594 319 579 C 304 564 295 542 291 513 L 285 470 L 358 470 L 341 348 L 268 348 L 219 0 L 84 0 Z" unicode="ﬂ" />
</font>
</defs>
</svg>
