<?xml version="1.0" encoding="utf-8" ?><svg version="1.1" xmlns = 'http://www.w3.org/2000/svg'><defs><font id='web' horiz-adv-x="1000">
<font-face font-family="web" descent="-268" cap-height="658" units-per-em="1000" bbox="-165,-332,1206,994" x-height="468" ascent="732" />
<missing-glyph horiz-adv-x="500" d="M 50 -268 L 450 -268 L 450 732 L 50 732 L 50 -268 Z M 100 -218 L 100 682 L 400 682 L 400 -218 L 100 -218 Z" /><glyph horiz-adv-x="200" d="" unicode=" " />
<glyph horiz-adv-x="238" d="M 66 204 L 66 704 L 172 704 L 172 204 L 66 204 Z M 65 0 L 65 108 L 173 108 L 173 0 L 65 0 Z" unicode="!" />
<glyph horiz-adv-x="357" d="M 60 482 L 60 718 L 151 718 L 151 482 L 60 482 Z M 206 482 L 206 718 L 297 718 L 297 482 L 206 482 Z" unicode="&#x22;" />
<glyph horiz-adv-x="595" d="M 50 86 L 50 182 L 146 182 L 162 302 L 66 302 L 66 398 L 175 398 L 192 520 L 286 520 L 270 398 L 367 398 L 384 520 L 478 520 L 461 398 L 543 398 L 543 302 L 448 302 L 432 182 L 527 182 L 527 86 L 419 86 L 402 -38 L 308 -38 L 325 86 L 228 86 L 211 -38 L 116 -38 L 133 86 L 50 86 Z M 241 182 L 338 182 L 354 302 L 257 302 L 241 182 Z" unicode="#" />
<glyph horiz-adv-x="508" d="M 211 -99 L 211 -14 C 183 -12 155 -7 129 0 C 103 8 77 18 53 31 L 53 148 C 80 128 109 114 140 104 C 170 94 203 89 237 89 C 269 89 295 97 314 113 C 333 129 343 150 343 177 C 343 201 334 222 316 239 C 298 255 270 270 232 284 L 213 290 C 159 308 118 334 91 366 C 64 398 51 438 51 486 C 51 534 65 574 94 607 C 122 639 161 660 211 669 L 211 758 L 310 758 L 310 669 C 330 666 351 661 371 655 C 391 648 412 639 434 629 L 434 511 C 407 529 380 544 353 554 C 325 564 296 569 266 569 C 233 569 208 562 191 548 C 173 534 165 515 165 489 C 165 466 173 447 190 433 C 206 418 232 404 267 392 L 286 386 C 343 366 386 341 414 309 C 442 277 457 237 457 190 C 457 140 444 98 418 63 C 392 28 356 5 310 -7 L 310 -99 L 211 -99 Z" unicode="$" />
<glyph horiz-adv-x="863" d="M 205 352 C 154 352 113 369 82 403 C 51 437 36 483 36 539 C 36 595 51 641 82 676 C 113 710 154 728 205 728 C 256 728 297 710 328 676 C 359 642 375 597 375 541 C 375 483 359 437 328 403 C 297 369 256 352 205 352 Z M 231 0 L 531 718 L 622 718 L 322 0 L 231 0 Z M 205 434 C 228 434 247 443 262 463 C 276 482 284 507 284 539 C 284 571 276 597 262 617 C 247 636 228 646 205 646 C 181 646 162 636 148 617 C 133 597 126 572 126 541 C 126 508 133 482 148 463 C 162 443 181 434 205 434 Z M 658 -8 C 607 -8 566 9 535 43 C 504 77 489 123 489 179 C 489 235 504 281 535 316 C 566 350 607 368 658 368 C 709 368 750 350 781 316 C 812 282 828 237 828 181 C 828 123 812 77 781 43 C 750 9 709 -8 658 -8 Z M 658 74 C 681 74 700 83 715 103 C 729 122 737 147 737 179 C 737 211 729 237 715 257 C 700 276 681 286 658 286 C 634 286 615 276 601 257 C 586 237 579 212 579 181 C 579 148 586 122 601 103 C 615 83 634 74 658 74 Z" unicode="%" />
<glyph horiz-adv-x="631" d="M 242 -15 C 175 -15 123 3 86 40 C 48 76 30 123 30 180 C 30 218 39 255 58 291 C 77 326 107 355 149 378 C 140 396 133 415 129 435 C 125 455 123 475 123 495 C 123 548 140 591 175 624 C 209 656 257 673 317 673 C 341 673 365 670 389 664 C 413 658 435 648 457 636 L 457 527 C 437 542 416 554 395 562 C 373 570 352 574 331 574 C 302 574 279 566 262 550 C 244 534 236 512 236 486 C 236 466 241 445 252 425 C 262 405 278 383 299 360 L 413 230 C 421 250 427 274 431 302 C 435 329 438 360 438 394 L 539 394 C 539 346 534 300 526 257 C 517 214 503 177 485 147 L 613 0 L 463 0 L 417 54 C 397 34 374 18 346 5 C 318 -8 283 -15 242 -15 Z M 143 187 C 143 156 153 131 173 112 C 193 93 219 84 253 84 C 272 84 290 88 307 96 C 323 104 338 115 351 129 L 206 297 C 184 283 168 267 158 250 C 148 232 143 211 143 187 Z" unicode="&#x26;" />
<glyph horiz-adv-x="211" d="M 60 481 L 60 718 L 151 718 L 151 481 L 60 481 Z" unicode="'" />
<glyph horiz-adv-x="380" d="M 244 -213 C 191 -149 150 -76 122 6 C 94 88 80 171 80 253 C 80 335 94 417 122 500 C 150 582 191 655 244 718 L 369 718 C 311 648 266 572 235 490 C 204 408 189 329 189 253 C 189 176 204 96 235 14 C 266 -67 311 -143 369 -213 L 244 -213 Z" unicode="(" />
<glyph horiz-adv-x="380" d="M 10 -213 C 68 -143 112 -67 144 14 C 175 96 191 176 191 253 C 191 329 175 408 144 490 C 112 572 68 648 10 718 L 136 718 C 188 655 228 582 257 500 C 285 417 300 335 300 253 C 300 171 285 88 257 6 C 228 -76 188 -149 136 -213 L 10 -213 Z" unicode=")" />
<glyph horiz-adv-x="598" d="M 207 3 L 103 79 L 234 219 L 47 253 L 88 376 L 258 295 L 234 483 L 364 483 L 340 295 L 510 376 L 551 253 L 364 219 L 495 79 L 391 3 L 299 170 L 207 3 Z" unicode="*" />
<glyph horiz-adv-x="504" d="M 202 82 L 202 245 L 47 245 L 47 340 L 202 340 L 202 503 L 301 503 L 301 340 L 457 340 L 457 245 L 301 245 L 301 82 L 202 82 Z" unicode="+" />
<glyph horiz-adv-x="217" d="M 170 114 L 170 27 C 170 -13 162 -51 146 -87 C 130 -122 112 -150 92 -171 L 19 -142 C 32 -118 43 -93 52 -69 C 60 -44 65 -14 65 21 L 65 114 L 170 114 Z" unicode="," />
<glyph horiz-adv-x="376" d="M 50 194 L 50 289 L 326 289 L 326 194 L 50 194 Z" unicode="-" />
<glyph horiz-adv-x="204" d="M 48 0 L 48 109 L 157 109 L 157 0 L 48 0 Z" unicode="." />
<glyph horiz-adv-x="443" d="M 19 0 L 321 718 L 424 718 L 122 0 L 19 0 Z" unicode="/" />
<glyph horiz-adv-x="601" d="M 301 -15 C 217 -15 153 15 111 77 C 69 138 48 222 48 328 C 48 434 69 518 111 580 C 153 642 217 673 301 673 C 384 673 447 642 490 581 C 532 519 554 436 554 330 C 554 223 532 139 490 77 C 447 15 384 -15 301 -15 Z M 301 90 C 345 90 380 110 404 150 C 428 190 440 249 440 328 C 440 407 428 467 404 507 C 380 547 345 568 301 568 C 256 568 222 548 198 508 C 174 468 162 408 162 330 C 162 250 174 190 198 150 C 222 110 256 90 301 90 Z" unicode="0" />
<glyph horiz-adv-x="368" d="M 149 0 L 149 544 L 34 527 L 34 643 L 261 675 L 261 0 L 149 0 Z" unicode="1" />
<glyph horiz-adv-x="512" d="M 51 0 L 51 151 L 123 197 C 190 233 245 272 287 314 C 329 356 350 402 350 450 C 350 488 338 516 316 536 C 294 556 265 566 231 566 C 197 566 167 561 140 551 C 112 541 86 526 62 506 L 62 622 C 88 638 115 651 143 659 C 171 667 201 671 233 671 C 305 671 361 652 401 616 C 440 579 460 528 460 463 C 460 389 435 328 387 280 C 338 231 285 189 227 155 L 153 112 L 460 112 L 460 0 L 51 0 Z" unicode="2" />
<glyph horiz-adv-x="511" d="M 250 -13 C 216 -13 182 -8 147 0 C 111 8 78 21 48 37 L 48 152 C 74 133 104 118 138 108 C 171 97 204 92 236 92 C 270 92 297 99 318 115 C 338 131 349 153 349 182 C 349 214 335 238 309 254 C 283 270 247 279 202 279 L 160 279 L 160 384 L 196 384 C 239 384 273 392 299 409 C 324 425 337 450 337 482 C 337 509 327 530 307 544 C 287 558 261 566 230 566 C 202 566 173 561 145 552 C 116 543 90 531 68 515 L 68 627 C 90 641 116 651 145 659 C 174 667 202 671 230 671 C 301 671 355 655 393 624 C 431 593 450 553 450 503 C 450 461 438 425 416 395 C 394 365 361 345 317 335 C 361 327 396 308 422 279 C 448 250 462 214 462 171 C 462 115 442 70 404 37 C 366 3 314 -13 250 -13 Z" unicode="3" />
<glyph horiz-adv-x="581" d="M 336 0 L 336 160 L 41 160 L 41 236 L 302 662 L 448 662 L 448 259 L 537 259 L 537 160 L 448 160 L 448 0 L 336 0 Z M 336 259 L 336 538 L 167 259 L 336 259 Z" unicode="4" />
<glyph horiz-adv-x="526" d="M 240 -12 C 202 -12 168 -8 138 0 C 108 8 79 20 52 37 L 52 150 C 78 131 107 117 137 107 C 167 97 198 93 232 93 C 269 93 300 101 324 119 C 348 137 360 163 360 197 C 360 231 347 256 321 274 C 295 291 260 300 217 300 C 191 300 165 298 140 296 C 114 293 87 289 59 283 L 84 658 L 454 658 L 454 552 L 190 552 L 178 401 C 188 402 199 403 211 404 C 222 405 232 406 242 406 C 313 406 370 388 412 352 C 454 315 475 265 475 202 C 475 138 453 86 410 47 C 366 7 310 -12 240 -12 Z" unicode="5" />
<glyph horiz-adv-x="563" d="M 280 -12 C 212 -12 156 13 113 64 C 69 114 48 190 48 291 C 48 411 75 504 129 571 C 183 637 251 671 333 671 C 357 671 381 669 405 665 C 429 661 453 654 476 646 L 476 536 C 455 545 433 553 410 559 C 387 565 364 568 342 568 C 298 568 260 551 226 518 C 192 485 171 434 164 364 C 179 388 199 407 225 419 C 250 431 278 437 308 437 C 370 437 420 417 458 377 C 496 337 515 285 515 221 C 515 147 492 90 448 49 C 403 8 347 -12 280 -12 Z M 281 87 C 317 87 346 98 369 122 C 391 146 403 177 403 215 C 403 251 392 280 370 304 C 348 327 320 339 285 339 C 252 339 225 329 204 311 C 182 292 169 268 164 238 C 164 192 175 155 196 128 C 216 100 245 87 281 87 Z" unicode="6" />
<glyph horiz-adv-x="517" d="M 131 0 L 347 550 L 45 550 L 45 658 L 472 658 L 472 577 L 252 0 L 131 0 Z" unicode="7" />
<glyph horiz-adv-x="557" d="M 279 -15 C 201 -15 144 3 107 39 C 70 75 52 119 52 171 C 52 207 61 239 80 267 C 98 294 124 316 158 333 C 126 351 103 373 87 399 C 71 425 64 455 64 489 C 64 539 82 582 118 619 C 154 655 208 674 279 674 C 349 674 402 657 439 623 C 476 589 495 548 495 502 C 495 466 486 436 468 410 C 450 384 423 362 388 346 C 425 326 454 303 474 276 C 494 249 505 217 505 179 C 505 123 486 76 448 40 C 410 3 353 -15 279 -15 Z M 270 391 L 284 387 L 285 387 C 315 395 338 408 355 426 C 371 444 380 465 380 490 C 380 515 370 536 352 552 C 334 568 309 577 279 577 C 249 577 225 568 207 552 C 188 536 179 515 179 491 C 179 468 187 448 204 430 C 220 412 242 399 270 391 Z M 164 178 C 164 152 174 130 195 110 C 215 90 243 80 277 80 C 313 80 341 89 360 108 C 379 126 389 150 389 178 C 389 204 380 225 362 241 C 344 257 320 270 290 280 L 267 288 C 265 288 263 289 261 289 C 259 289 257 290 256 291 C 228 281 206 267 189 247 C 172 227 164 204 164 178 Z" unicode="8" />
<glyph horiz-adv-x="562" d="M 230 -12 C 206 -12 181 -10 157 -6 C 133 -2 109 4 87 13 L 87 125 C 107 115 129 108 152 102 C 175 96 198 93 221 93 C 265 93 303 109 337 141 C 371 173 391 224 399 296 C 383 271 363 253 338 241 C 312 229 285 223 255 223 C 193 223 143 242 105 282 C 67 322 48 374 48 439 C 48 512 70 569 114 610 C 158 650 214 671 282 671 C 350 671 405 646 449 598 C 492 549 514 472 514 368 C 514 246 487 152 433 86 C 379 20 312 -12 230 -12 Z M 277 320 C 310 320 337 329 358 348 C 379 366 393 391 399 421 C 398 467 387 503 366 531 C 345 558 317 572 281 572 C 245 572 215 560 193 536 C 171 512 160 482 160 444 C 160 408 170 378 192 355 C 214 331 242 320 277 320 Z" unicode="9" />
<glyph horiz-adv-x="204" d="M 48 292 L 48 401 L 157 401 L 157 292 L 48 292 Z M 48 0 L 48 109 L 157 109 L 157 0 L 48 0 Z" unicode=":" />
<glyph horiz-adv-x="217" d="M 64 293 L 64 402 L 173 402 L 173 293 L 64 293 Z M 170 114 L 170 27 C 170 -13 162 -51 146 -87 C 130 -122 112 -150 92 -171 L 19 -142 C 32 -118 43 -93 52 -69 C 60 -44 65 -14 65 21 L 65 114 L 170 114 Z" unicode=";" />
<glyph horiz-adv-x="485" d="M 275 83 L 60 294 L 275 505 L 425 505 L 209 294 L 425 83 L 275 83 Z" unicode="&#x3C;" />
<glyph horiz-adv-x="523" d="M 58 337 L 58 431 L 468 431 L 468 337 L 58 337 Z M 58 152 L 58 247 L 468 247 L 468 152 L 58 152 Z" unicode="=" />
<glyph horiz-adv-x="485" d="M 60 83 L 275 294 L 60 505 L 209 505 L 425 294 L 209 83 L 60 83 Z" unicode="&#x3E;" />
<glyph horiz-adv-x="471" d="M 169 204 C 169 242 175 277 189 308 C 202 339 225 370 257 401 C 279 421 294 441 304 460 C 314 479 319 499 319 521 C 319 551 307 576 284 594 C 260 612 229 622 189 622 C 162 622 136 617 110 609 C 84 600 61 588 40 573 L 40 683 C 66 695 93 704 122 711 C 150 717 179 721 208 721 C 281 721 337 702 375 666 C 413 629 432 584 432 531 C 432 498 425 468 411 440 C 397 412 375 384 345 354 C 319 329 300 305 289 282 C 277 258 272 232 272 204 L 169 204 Z M 167 0 L 167 108 L 275 108 L 275 0 L 167 0 Z" unicode="?" />
<glyph horiz-adv-x="808" d="M 399 -73 C 304 -73 222 -41 152 23 C 82 87 47 171 47 276 C 47 380 82 464 153 530 C 223 595 306 628 402 628 C 498 628 581 599 653 542 C 724 484 760 409 760 317 C 760 251 744 200 712 163 C 680 126 641 108 594 108 C 567 108 543 114 522 128 C 500 142 484 163 473 193 C 458 162 439 140 417 127 C 394 114 370 108 345 108 C 311 108 283 119 261 143 C 239 166 228 199 228 243 C 228 302 247 351 286 389 C 324 427 373 447 431 447 C 449 447 469 445 492 441 C 514 437 535 431 553 425 L 533 282 C 529 248 533 222 545 202 C 557 182 574 173 598 173 C 624 173 646 184 662 208 C 678 231 687 267 687 316 C 687 381 660 438 608 486 C 556 534 487 559 402 559 C 318 559 250 530 198 474 C 146 417 120 351 120 277 C 120 201 145 135 197 80 C 248 24 315 -3 399 -3 C 429 -3 460 0 490 8 C 520 15 549 26 577 41 L 577 -35 C 548 -47 518 -56 488 -63 C 458 -69 428 -73 399 -73 Z M 367 176 C 383 176 401 184 420 200 C 439 216 453 257 462 321 L 470 373 C 462 375 454 377 446 379 C 437 380 428 381 419 381 C 387 381 360 368 338 343 C 315 318 304 287 304 251 C 304 227 309 208 320 195 C 331 182 347 176 367 176 Z" unicode="@" />
<glyph horiz-adv-x="664" d="M 17 0 L 279 661 L 384 661 L 646 0 L 525 0 L 461 168 L 196 168 L 132 0 L 17 0 Z M 233 268 L 424 268 L 362 429 L 328 523 L 294 429 L 233 268 Z" unicode="A" />
<glyph horiz-adv-x="537" d="M 69 0 L 69 658 L 251 658 C 323 658 378 644 414 616 C 450 588 468 547 468 494 C 468 456 459 423 441 396 C 423 369 398 349 364 337 C 404 327 435 308 457 281 C 479 254 490 221 490 181 C 490 122 471 77 433 46 C 395 15 339 0 265 0 L 69 0 Z M 181 378 L 250 378 C 282 378 308 386 328 402 C 347 418 357 441 357 473 C 357 503 347 525 328 539 C 308 553 283 561 251 561 L 181 561 L 181 378 Z M 181 97 L 269 97 C 302 97 329 104 349 120 C 369 136 379 160 379 192 C 379 222 368 246 348 262 C 327 278 299 286 265 286 L 181 286 L 181 97 Z" unicode="B" />
<glyph horiz-adv-x="657" d="M 401 -15 C 292 -15 205 16 141 79 C 76 141 44 225 44 329 C 44 432 76 515 141 578 C 205 641 292 673 401 673 C 437 673 472 669 505 661 C 538 653 571 641 603 625 L 603 512 C 571 531 538 545 506 555 C 473 564 438 569 401 569 C 327 569 268 547 224 503 C 180 459 158 401 158 329 C 158 256 180 198 225 154 C 270 110 329 89 401 89 C 441 89 477 94 511 105 C 544 115 577 131 610 152 L 610 39 C 577 20 543 6 509 -2 C 475 -10 439 -15 401 -15 Z" unicode="C" />
<glyph horiz-adv-x="686" d="M 69 0 L 69 658 L 286 658 C 394 658 480 628 545 570 C 609 512 642 434 642 337 C 642 235 609 153 543 92 C 477 30 388 0 278 0 L 69 0 Z M 181 105 L 284 105 C 358 105 418 126 463 168 C 507 210 530 267 530 337 C 530 402 508 454 465 494 C 421 533 364 553 292 553 L 181 553 L 181 105 Z" unicode="D" />
<glyph horiz-adv-x="520" d="M 69 0 L 69 658 L 452 658 L 452 553 L 181 553 L 181 386 L 442 386 L 442 280 L 181 280 L 181 105 L 461 105 L 461 0 L 69 0 Z" unicode="E" />
<glyph horiz-adv-x="462" d="M 69 0 L 69 658 L 424 658 L 424 553 L 181 553 L 181 379 L 406 379 L 406 273 L 181 273 L 181 0 L 69 0 Z" unicode="F" />
<glyph horiz-adv-x="687" d="M 387 -15 C 282 -15 199 16 137 80 C 75 143 44 227 44 332 C 44 435 75 518 138 580 C 200 642 284 673 389 673 C 425 673 463 669 501 661 C 539 653 573 643 604 629 L 604 520 C 573 536 540 548 505 556 C 469 564 432 569 393 569 C 321 569 264 547 222 504 C 179 461 158 404 158 332 C 158 258 178 199 219 155 C 260 111 314 89 380 89 C 406 89 431 91 455 95 C 478 99 500 105 522 113 L 522 248 L 385 248 L 385 353 L 634 353 L 634 39 C 596 21 557 8 515 -1 C 473 -10 430 -15 387 -15 Z" unicode="G" />
<glyph horiz-adv-x="692" d="M 69 0 L 69 658 L 181 658 L 181 387 L 511 387 L 511 658 L 623 658 L 623 0 L 511 0 L 511 282 L 181 282 L 181 0 L 69 0 Z" unicode="H" />
<glyph horiz-adv-x="250" d="M 69 0 L 69 658 L 181 658 L 181 0 L 69 0 Z" unicode="I" />
<glyph horiz-adv-x="250" d="M -19 -211 L -27 -211 L -27 -107 L -19 -107 C 7 -107 29 -98 45 -80 C 61 -62 69 -39 69 -10 L 69 658 L 181 658 L 181 -10 C 181 -71 162 -120 126 -156 C 90 -192 41 -211 -19 -211 Z" unicode="J" />
<glyph horiz-adv-x="619" d="M 69 0 L 69 658 L 181 658 L 181 361 L 441 658 L 577 658 L 296 344 L 599 0 L 451 0 L 181 311 L 181 0 L 69 0 Z" unicode="K" />
<glyph horiz-adv-x="486" d="M 69 0 L 69 658 L 181 658 L 181 105 L 462 105 L 462 0 L 69 0 Z" unicode="L" />
<glyph horiz-adv-x="807" d="M 69 0 L 69 658 L 238 658 L 366 360 L 404 260 L 443 361 L 571 658 L 738 658 L 738 0 L 628 0 L 628 426 L 630 535 L 587 426 L 457 128 L 350 128 L 217 426 L 173 537 L 176 426 L 176 0 L 69 0 Z" unicode="M" />
<glyph horiz-adv-x="713" d="M 69 0 L 69 658 L 187 658 L 491 238 L 538 167 L 537 236 L 537 658 L 644 658 L 644 0 L 528 0 L 221 425 L 175 493 L 176 426 L 176 0 L 69 0 Z" unicode="N" />
<glyph horiz-adv-x="774" d="M 387 -15 C 284 -15 201 17 138 81 C 75 145 44 227 44 329 C 44 430 76 513 140 577 C 204 641 287 673 387 673 C 487 673 569 641 633 579 C 697 516 729 433 729 329 C 729 225 697 141 635 79 C 572 16 489 -15 387 -15 Z M 387 88 C 455 88 510 110 552 154 C 594 198 616 256 616 329 C 616 401 594 460 552 504 C 510 548 455 570 387 570 C 319 570 263 548 221 504 C 179 460 158 401 158 329 C 158 256 179 198 221 154 C 263 110 319 88 387 88 Z" unicode="O" />
<glyph horiz-adv-x="513" d="M 69 0 L 69 658 L 225 658 C 303 658 365 638 410 599 C 454 559 477 506 477 440 C 477 372 454 319 410 281 C 365 243 304 224 227 224 L 181 224 L 181 0 L 69 0 Z M 181 325 L 231 325 C 271 325 303 335 327 355 C 351 375 363 404 363 440 C 363 476 350 504 326 524 C 302 544 270 554 230 554 L 181 554 L 181 325 Z" unicode="P" />
<glyph horiz-adv-x="774" d="M 387 -15 C 284 -15 201 17 138 81 C 75 145 44 227 44 329 C 44 430 76 513 140 577 C 204 641 287 673 387 673 C 487 673 569 641 633 579 C 697 516 729 433 729 329 C 729 256 713 193 682 140 C 650 86 607 46 553 20 C 571 4 591 -8 614 -19 C 637 -30 663 -38 692 -44 L 655 -148 C 608 -133 566 -115 528 -93 C 490 -71 454 -45 421 -14 C 415 -14 410 -15 404 -15 C 398 -15 393 -15 387 -15 Z M 387 88 C 455 88 510 110 552 154 C 594 198 616 256 616 329 C 616 401 594 460 552 504 C 510 548 455 570 387 570 C 319 570 263 548 221 504 C 179 460 158 401 158 329 C 158 256 179 198 221 154 C 263 110 319 88 387 88 Z" unicode="Q" />
<glyph horiz-adv-x="550" d="M 407 0 L 338 194 C 329 220 316 239 300 252 C 284 264 264 271 240 271 L 181 271 L 181 0 L 69 0 L 69 658 L 262 658 C 327 658 378 641 416 609 C 453 576 472 533 472 481 C 472 442 461 408 441 378 C 420 348 390 327 350 315 C 372 308 392 297 408 281 C 424 265 438 244 448 218 L 529 0 L 407 0 Z M 181 366 L 260 366 C 290 366 314 375 332 393 C 350 411 359 434 359 463 C 359 491 349 514 331 531 C 313 548 288 557 258 557 L 181 557 L 181 366 Z" unicode="R" />
<glyph horiz-adv-x="507" d="M 244 -15 C 210 -15 177 -11 145 -3 C 113 4 83 15 54 31 L 54 148 C 81 128 110 114 141 104 C 171 94 204 89 238 89 C 270 89 296 97 315 113 C 334 129 344 150 344 177 C 344 201 335 222 317 239 C 299 255 271 270 233 284 L 214 290 C 160 308 119 334 92 366 C 65 398 52 438 52 486 C 52 540 70 585 108 620 C 146 655 196 673 259 673 C 289 673 318 669 346 662 C 374 655 404 644 435 629 L 435 511 C 408 529 381 544 354 554 C 326 564 297 569 267 569 C 234 569 209 562 192 548 C 174 534 166 515 166 489 C 166 466 174 447 191 433 C 207 418 233 404 268 392 L 287 386 C 344 366 387 341 415 309 C 443 277 458 237 458 190 C 458 130 438 80 400 42 C 361 4 309 -15 244 -15 Z" unicode="S" />
<glyph horiz-adv-x="569" d="M 228 0 L 228 553 L 20 553 L 20 658 L 549 658 L 549 553 L 340 553 L 340 0 L 228 0 Z" unicode="T" />
<glyph horiz-adv-x="666" d="M 334 -12 C 250 -12 183 12 134 62 C 84 111 60 177 60 261 L 60 658 L 172 658 L 172 261 C 172 210 186 169 216 139 C 246 109 285 94 335 94 C 385 94 424 109 453 139 C 482 169 497 210 497 261 L 497 658 L 606 658 L 606 261 C 606 177 581 111 532 62 C 482 12 416 -12 334 -12 Z" unicode="U" />
<glyph horiz-adv-x="664" d="M 282 0 L 16 658 L 138 658 L 304 232 L 336 143 L 367 232 L 533 658 L 647 658 L 381 0 L 282 0 Z" unicode="V" />
<glyph horiz-adv-x="964" d="M 219 0 L 16 658 L 134 658 L 258 232 L 281 138 L 303 232 L 427 658 L 544 658 L 668 232 L 690 141 L 712 232 L 836 658 L 948 658 L 744 0 L 627 0 L 504 427 L 483 518 L 461 427 L 337 0 L 219 0 Z" unicode="W" />
<glyph horiz-adv-x="643" d="M 20 0 L 253 338 L 34 658 L 170 658 L 290 479 L 322 429 L 355 479 L 474 658 L 603 658 L 385 342 L 623 0 L 486 0 L 316 250 L 283 200 L 149 0 L 20 0 Z" unicode="X" />
<glyph horiz-adv-x="616" d="M 253 0 L 253 268 L 12 658 L 141 658 L 274 439 L 312 370 L 351 439 L 483 658 L 605 658 L 365 270 L 365 0 L 253 0 Z" unicode="Y" />
<glyph horiz-adv-x="587" d="M 45 0 L 45 62 L 342 500 L 378 553 L 54 553 L 54 658 L 542 658 L 542 596 L 244 157 L 209 105 L 542 105 L 542 0 L 45 0 Z" unicode="Z" />
<glyph horiz-adv-x="370" d="M 85 -213 L 85 718 L 315 718 L 315 625 L 191 625 L 191 -119 L 315 -119 L 315 -213 L 85 -213 Z" unicode="[" />
<glyph horiz-adv-x="443" d="M 322 0 L 19 718 L 122 718 L 424 0 L 322 0 Z" unicode="\" />
<glyph horiz-adv-x="370" d="M 55 -213 L 55 -119 L 178 -119 L 178 625 L 55 625 L 55 718 L 284 718 L 284 -213 L 55 -213 Z" unicode="]" />
<glyph horiz-adv-x="372" d="M 137 524 L 45 524 L 142 666 L 233 666 L 330 524 L 238 524 L 188 595 L 137 524 Z" unicode="^" />
<glyph horiz-adv-x="461" d="M 0 -213 L 0 -118 L 461 -118 L 461 -213 L 0 -213 Z" unicode="_" />
<glyph horiz-adv-x="238" d="M 111 524 L -2 668 L 120 668 L 218 524 L 111 524 Z" unicode="`" />
<glyph horiz-adv-x="470" d="M 181 -10 C 137 -10 103 2 77 27 C 51 51 38 84 38 125 C 38 169 53 204 83 231 C 113 258 157 276 216 285 L 309 300 L 309 318 C 309 340 300 357 284 368 C 267 378 243 384 212 384 C 185 384 158 380 132 372 C 106 364 81 354 59 341 L 59 445 C 85 455 113 463 143 471 C 173 478 201 482 228 482 C 290 482 337 468 369 440 C 401 412 418 373 418 321 L 418 0 L 318 0 L 310 63 C 296 40 278 22 255 9 C 232 -3 207 -10 181 -10 Z M 215 77 C 236 77 255 82 273 94 C 290 105 302 120 309 139 L 309 224 L 230 212 C 203 208 182 199 168 187 C 153 174 146 157 146 137 C 146 118 152 103 164 93 C 176 82 193 77 215 77 Z" unicode="a" />
<glyph horiz-adv-x="522" d="M 240 -10 C 209 -10 178 -7 148 -2 C 118 3 87 12 57 25 L 57 718 L 166 718 L 166 432 C 182 446 200 458 222 466 C 244 474 266 478 289 478 C 349 478 396 457 432 415 C 468 373 486 316 486 246 C 486 167 463 105 419 59 C 375 13 315 -10 240 -10 Z M 247 85 C 287 85 318 98 342 126 C 365 154 377 190 377 236 C 377 280 367 315 347 342 C 327 368 298 382 262 382 C 244 382 226 379 210 373 C 193 367 178 358 166 346 L 166 97 C 178 93 191 90 205 88 C 219 86 233 85 247 85 Z" unicode="b" />
<glyph horiz-adv-x="463" d="M 279 -10 C 204 -10 145 11 101 55 C 57 98 36 157 36 233 C 36 309 57 368 101 412 C 145 456 204 478 278 478 C 302 478 326 475 350 469 C 374 463 397 454 419 443 L 419 333 C 398 347 376 358 354 366 C 332 373 308 377 284 377 C 241 377 207 364 182 340 C 157 315 145 280 145 234 C 145 188 157 153 183 128 C 209 103 243 91 286 91 C 310 91 334 95 358 105 C 381 114 402 126 421 141 L 421 31 C 401 18 378 8 353 1 C 328 -6 303 -10 279 -10 Z" unicode="c" />
<glyph horiz-adv-x="528" d="M 237 -10 C 177 -10 128 11 91 53 C 54 95 36 153 36 227 C 36 304 56 365 97 410 C 138 455 191 478 257 478 C 275 478 293 475 312 471 C 331 466 348 459 363 451 L 363 718 L 471 718 L 471 0 L 372 0 L 363 63 C 350 40 332 22 309 9 C 286 -3 262 -10 237 -10 Z M 262 86 C 282 86 301 91 319 102 C 336 112 351 126 363 144 L 363 354 C 350 363 336 370 320 376 C 304 381 289 384 274 384 C 234 384 203 370 180 342 C 156 314 145 278 145 232 C 145 188 155 152 176 126 C 197 99 226 86 262 86 Z" unicode="d" />
<glyph horiz-adv-x="496" d="M 272 -10 C 198 -10 140 12 98 56 C 56 100 36 159 36 235 C 36 307 55 366 95 411 C 134 455 187 478 254 478 C 318 478 368 457 405 415 C 441 373 460 312 460 231 L 460 199 L 147 199 C 147 163 160 134 185 113 C 209 92 243 82 287 82 C 312 82 338 86 366 94 C 393 102 420 115 447 132 L 447 32 C 418 18 389 7 359 0 C 329 -6 300 -10 272 -10 Z M 254 389 C 222 389 197 379 178 359 C 159 339 149 312 147 280 L 351 280 C 351 313 342 339 325 359 C 308 379 284 389 254 389 Z" unicode="e" />
<glyph horiz-adv-x="291" d="M 85 0 L 85 370 L 20 370 L 20 468 L 85 468 L 85 529 C 85 589 101 638 135 674 C 168 710 213 728 269 728 C 287 728 304 726 322 723 C 340 719 357 714 374 708 L 374 602 C 361 610 346 616 329 621 C 312 625 296 628 281 628 C 253 628 231 619 216 603 C 201 586 194 562 194 532 L 194 468 L 274 468 L 274 370 L 194 370 L 194 0 L 85 0 Z" unicode="f" />
<glyph horiz-adv-x="525" d="M 244 -222 C 212 -222 180 -218 150 -212 C 120 -206 91 -196 65 -184 L 65 -76 C 91 -90 117 -102 144 -111 C 171 -120 199 -125 227 -125 C 267 -125 299 -114 324 -92 C 348 -70 361 -40 361 0 L 361 43 C 346 25 328 12 306 3 C 284 -5 262 -10 239 -10 C 176 -10 126 11 90 53 C 54 95 36 154 36 230 C 36 303 56 363 98 409 C 139 455 193 478 261 478 C 283 478 307 473 333 464 C 359 454 379 442 395 426 L 419 468 L 469 468 L 469 11 C 469 -59 448 -116 407 -158 C 366 -200 312 -222 244 -222 Z M 264 86 C 284 86 302 90 319 99 C 335 107 349 118 361 131 L 361 357 C 350 364 336 370 320 375 C 304 380 288 383 273 383 C 233 383 201 368 179 338 C 156 308 145 273 145 231 C 145 187 155 151 176 125 C 196 99 226 86 264 86 Z" unicode="g" />
<glyph horiz-adv-x="512" d="M 57 0 L 57 718 L 166 718 L 166 405 C 182 429 202 447 226 459 C 250 471 275 478 303 478 C 352 478 390 462 418 432 C 446 401 460 358 460 303 L 460 0 L 352 0 L 352 283 C 352 315 344 339 330 355 C 315 371 294 379 268 379 C 247 379 228 373 211 363 C 193 352 178 337 166 319 L 166 0 L 57 0 Z" unicode="h" />
<glyph horiz-adv-x="231" d="M 60 597 L 60 705 L 171 705 L 171 597 L 60 597 Z M 61 0 L 61 468 L 170 468 L 170 0 L 61 0 Z" unicode="i" />
<glyph horiz-adv-x="224" d="M 57 597 L 57 705 L 168 705 L 168 597 L 57 597 Z M -23 -211 L -31 -211 L -31 -111 L -23 -111 C 1 -111 21 -102 36 -86 C 50 -70 58 -48 58 -22 L 58 468 L 167 468 L 167 -22 C 167 -80 149 -126 115 -160 C 81 -194 35 -211 -23 -211 Z" unicode="j" />
<glyph horiz-adv-x="490" d="M 57 0 L 57 718 L 166 718 L 166 261 L 336 468 L 463 468 L 275 247 L 479 0 L 345 0 L 166 221 L 166 0 L 57 0 Z" unicode="k" />
<glyph horiz-adv-x="222" d="M 57 0 L 57 718 L 166 718 L 166 0 L 57 0 Z" unicode="l" />
<glyph horiz-adv-x="802" d="M 57 0 L 57 468 L 166 468 L 166 405 C 182 429 202 447 225 459 C 248 471 274 478 304 478 C 338 478 367 470 391 454 C 415 438 432 418 443 393 C 463 424 486 446 512 459 C 538 471 565 478 593 478 C 640 478 678 462 707 432 C 735 402 750 359 750 303 L 750 0 L 641 0 L 641 284 C 641 314 633 338 618 354 C 603 370 583 379 558 379 C 538 379 519 374 502 365 C 485 356 470 342 458 322 L 458 0 L 349 0 L 349 285 C 349 315 341 338 327 354 C 313 370 292 379 266 379 C 245 379 226 373 210 363 C 193 352 178 337 166 319 L 166 0 L 57 0 Z" unicode="m" />
<glyph horiz-adv-x="512" d="M 57 0 L 57 468 L 166 468 L 166 405 C 182 429 202 447 226 459 C 250 471 275 478 303 478 C 352 478 390 462 418 432 C 446 401 460 358 460 303 L 460 0 L 352 0 L 352 283 C 352 315 344 339 330 355 C 315 371 294 379 268 379 C 247 379 228 373 211 363 C 193 352 178 337 166 319 L 166 0 L 57 0 Z" unicode="n" />
<glyph horiz-adv-x="552" d="M 276 -11 C 204 -11 146 11 102 56 C 58 100 36 159 36 233 C 36 306 58 365 102 411 C 146 456 204 479 276 479 C 347 479 405 456 449 412 C 493 367 516 308 516 235 C 516 161 493 102 449 57 C 405 11 347 -11 276 -11 Z M 276 88 C 314 88 346 101 370 128 C 394 154 406 189 406 233 C 406 277 394 312 370 339 C 346 366 314 380 276 380 C 237 380 206 366 182 340 C 158 313 146 278 146 235 C 146 191 158 155 182 128 C 206 101 237 88 276 88 Z" unicode="o" />
<glyph horiz-adv-x="522" d="M 57 -213 L 57 468 L 166 468 L 166 414 C 180 435 198 451 221 462 C 244 472 270 478 298 478 C 354 478 399 456 434 413 C 469 369 487 314 487 246 C 487 167 466 105 424 59 C 382 13 328 -10 260 -10 C 245 -10 229 -8 213 -5 C 196 -1 180 2 166 8 L 166 -213 L 57 -213 Z M 250 85 C 288 85 318 98 342 125 C 366 152 378 189 378 236 C 378 280 367 315 347 342 C 327 368 298 382 262 382 C 243 382 225 377 208 369 C 190 361 176 350 166 336 L 166 102 C 178 96 192 92 206 89 C 220 86 235 85 250 85 Z" unicode="p" />
<glyph horiz-adv-x="524" d="M 360 -213 L 360 43 C 345 25 327 12 305 3 C 283 -5 260 -10 236 -10 C 176 -10 127 11 91 53 C 54 95 36 153 36 227 C 36 305 56 367 96 411 C 136 455 190 478 257 478 C 280 478 305 473 331 464 C 357 454 378 442 394 426 L 417 468 L 468 468 L 468 -213 L 360 -213 Z M 261 87 C 283 87 302 91 319 99 C 335 107 349 118 360 131 L 360 357 C 348 365 334 371 318 376 C 302 381 286 384 272 384 C 233 384 202 370 179 343 C 156 315 145 279 145 233 C 145 189 155 153 176 127 C 196 100 225 87 261 87 Z" unicode="q" />
<glyph horiz-adv-x="331" d="M 57 0 L 57 468 L 166 468 L 166 399 C 176 425 191 444 210 458 C 229 471 249 478 271 478 C 279 478 287 477 295 476 C 302 475 309 474 316 472 L 316 353 C 306 356 295 359 285 361 C 274 363 263 364 252 364 C 234 364 217 360 202 352 C 186 344 174 333 166 321 L 166 0 L 57 0 Z" unicode="r" />
<glyph horiz-adv-x="402" d="M 187 -10 C 163 -10 139 -7 113 -1 C 87 5 63 12 43 21 L 43 118 C 63 105 86 95 111 88 C 135 81 159 78 183 78 C 206 78 224 82 236 90 C 248 98 255 111 255 127 C 255 139 250 150 240 159 C 230 168 212 177 188 186 L 173 191 C 125 207 91 227 70 249 C 49 271 39 301 39 337 C 39 380 52 414 80 440 C 108 465 149 478 203 478 C 225 478 249 475 274 470 C 299 465 322 459 344 452 L 344 355 C 324 365 303 374 279 380 C 255 386 233 390 212 390 C 191 390 175 386 164 378 C 153 370 148 360 148 346 C 148 333 152 322 162 314 C 172 306 189 297 214 289 L 228 284 C 276 267 310 247 332 225 C 353 203 364 174 364 140 C 364 94 349 58 319 31 C 289 3 245 -10 187 -10 Z" unicode="s" />
<glyph horiz-adv-x="319" d="M 197 -10 C 161 -10 133 0 113 20 C 93 40 83 69 83 107 L 83 370 L 19 370 L 19 468 L 83 468 L 83 601 L 192 601 L 192 468 L 288 468 L 288 370 L 192 370 L 192 139 C 192 123 196 111 205 103 C 213 94 224 90 238 90 C 246 90 255 91 263 93 C 271 95 279 99 288 104 L 288 9 C 274 2 259 -2 243 -5 C 227 -8 211 -10 197 -10 Z" unicode="t" />
<glyph horiz-adv-x="513" d="M 209 -11 C 160 -11 122 5 94 37 C 66 69 53 112 53 166 L 53 468 L 162 468 L 162 184 C 162 154 169 131 185 114 C 200 96 221 88 247 88 C 269 88 289 93 306 104 C 322 115 336 130 347 148 L 347 468 L 456 468 L 456 0 L 356 0 L 347 63 C 330 39 310 20 288 8 C 266 -4 239 -11 209 -11 Z" unicode="u" />
<glyph horiz-adv-x="487" d="M 182 0 L 13 468 L 129 468 L 223 195 L 246 115 L 271 195 L 365 468 L 475 468 L 306 0 L 182 0 Z" unicode="v" />
<glyph horiz-adv-x="759" d="M 156 0 L 13 468 L 125 468 L 207 195 L 229 106 L 249 195 L 329 468 L 441 468 L 521 195 L 541 109 L 561 195 L 644 468 L 746 468 L 603 0 L 474 0 L 402 244 L 381 338 L 358 244 L 287 0 L 156 0 Z" unicode="w" />
<glyph horiz-adv-x="478" d="M 14 0 L 175 238 L 20 468 L 146 468 L 212 365 L 238 322 L 264 365 L 331 468 L 453 468 L 300 242 L 465 0 L 339 0 L 264 115 L 238 159 L 211 115 L 134 0 L 14 0 Z" unicode="x" />
<glyph horiz-adv-x="486" d="M 12 -213 L 4 -213 L 4 -113 L 12 -113 C 57 -113 93 -105 120 -91 C 147 -77 169 -51 186 -14 L 175 16 L 12 468 L 128 468 L 221 195 L 245 114 L 270 195 L 364 468 L 474 468 L 317 35 C 283 -60 244 -125 200 -160 C 156 -195 93 -213 12 -213 Z" unicode="y" />
<glyph horiz-adv-x="442" d="M 37 0 L 37 78 L 220 325 L 256 370 L 41 370 L 41 468 L 400 468 L 400 390 L 217 143 L 181 98 L 405 98 L 405 0 L 37 0 Z" unicode="z" />
<glyph horiz-adv-x="474" d="M 404 -213 C 324 -213 264 -196 223 -163 C 182 -130 164 -81 169 -15 L 177 93 C 179 125 169 150 147 168 C 125 186 92 199 49 206 L 49 299 C 92 305 125 318 147 337 C 169 355 179 380 177 412 L 169 520 C 164 586 182 636 223 669 C 264 701 324 718 404 718 L 423 718 L 423 623 L 403 623 C 359 623 327 613 307 593 C 287 573 278 543 282 503 L 289 412 C 292 368 282 334 260 308 C 237 282 206 264 167 254 L 167 253 C 205 240 236 220 259 194 C 282 168 292 134 289 93 L 282 2 C 278 -38 287 -67 307 -87 C 327 -107 359 -117 403 -117 L 423 -117 L 423 -213 L 404 -213 Z" unicode="{" />
<glyph horiz-adv-x="254" d="M 80 -213 L 80 718 L 174 718 L 174 -213 L 80 -213 Z" unicode="|" />
<glyph horiz-adv-x="474" d="M 51 -213 L 51 -117 L 71 -117 C 114 -117 146 -107 166 -87 C 186 -67 195 -38 192 2 L 185 93 C 181 135 191 170 214 196 C 236 222 267 241 307 252 L 307 253 C 268 265 237 284 214 310 C 191 336 181 370 185 412 L 192 503 C 195 543 186 573 166 593 C 146 613 114 623 71 623 L 51 623 L 51 718 L 70 718 C 149 718 209 701 250 669 C 291 636 309 586 305 520 L 297 412 C 295 380 305 355 327 337 C 349 318 381 305 425 299 L 425 206 C 381 199 349 186 327 168 C 305 150 295 125 297 93 L 305 -15 C 309 -81 291 -130 250 -163 C 209 -196 149 -213 70 -213 L 51 -213 Z" unicode="}" />
<glyph horiz-adv-x="376" d="M 101 146 L 35 146 C 35 183 44 213 61 235 C 78 257 101 268 129 268 C 140 268 151 266 162 262 C 172 258 184 251 198 243 C 208 236 216 231 223 227 C 230 223 237 221 244 221 C 254 221 262 224 268 232 C 274 239 277 249 278 262 L 344 262 C 343 224 334 194 316 173 C 298 151 276 141 250 141 C 238 141 226 142 216 146 C 205 150 193 156 181 166 C 171 172 163 177 156 181 C 148 185 141 187 135 187 C 125 187 117 183 111 176 C 105 168 101 158 101 146 Z" unicode="~" />
<glyph horiz-adv-x="238" d="M 65 406 L 65 514 L 173 514 L 173 406 L 65 406 Z M 66 -204 L 66 310 L 172 310 L 172 -204 L 66 -204 Z" unicode="¡" />
<glyph horiz-adv-x="463" d="M 222 -114 L 222 -5 C 164 5 118 31 85 73 C 52 114 36 167 36 233 C 36 299 52 353 85 395 C 118 437 164 463 222 473 L 222 583 L 315 583 L 315 476 C 333 473 350 469 368 464 C 386 458 403 451 419 443 L 419 333 C 398 347 376 358 354 366 C 332 373 308 377 284 377 C 241 377 207 364 182 340 C 157 315 145 280 145 234 C 145 188 157 153 183 128 C 209 103 243 91 286 91 C 310 91 334 95 358 105 C 381 114 402 126 421 141 L 421 31 C 406 21 389 12 371 6 C 352 0 333 -4 315 -7 L 315 -114 L 222 -114 Z" unicode="¢" />
<glyph horiz-adv-x="531" d="M 59 0 L 59 108 C 88 125 110 148 125 178 C 139 208 144 243 138 285 L 51 285 L 51 385 L 116 385 L 111 408 C 92 488 100 553 134 601 C 168 649 229 673 317 673 C 347 673 376 669 404 663 C 432 657 460 647 488 634 L 488 529 C 463 545 437 556 411 564 C 385 572 357 576 329 576 C 285 576 253 561 233 533 C 213 505 210 464 222 411 L 228 385 L 368 385 L 368 285 L 249 285 C 253 249 251 216 241 186 C 231 155 214 128 189 106 L 484 106 L 484 0 L 59 0 Z" unicode="£" />
<glyph horiz-adv-x="664" d="M 121 29 L 45 107 L 160 219 C 152 232 147 247 143 263 C 139 279 137 297 137 315 C 137 333 139 350 143 366 C 147 382 152 397 160 411 L 53 521 L 130 598 L 238 487 C 252 494 267 500 283 504 C 299 508 315 510 332 510 C 350 510 368 507 385 503 C 401 499 417 492 432 484 L 547 596 L 624 519 L 507 405 C 513 392 518 378 522 363 C 525 347 527 331 527 315 C 527 295 524 277 520 260 C 515 242 508 226 500 212 L 606 103 L 528 26 L 419 139 C 406 132 392 127 377 124 C 362 121 347 120 332 120 C 315 120 299 122 283 126 C 267 130 252 135 238 143 L 121 29 Z M 332 219 C 360 219 383 228 401 247 C 419 265 428 288 428 315 C 428 341 419 364 401 383 C 383 401 360 411 332 411 C 304 411 281 401 263 383 C 245 364 237 341 237 315 C 237 288 245 265 263 247 C 281 228 304 219 332 219 Z" unicode="¤" />
<glyph horiz-adv-x="616" d="M 151 107 L 151 183 L 253 183 L 253 237 L 151 237 L 151 312 L 226 312 L 12 658 L 141 658 L 274 439 L 312 370 L 351 439 L 483 658 L 605 658 L 391 312 L 466 312 L 466 237 L 365 237 L 365 183 L 466 183 L 466 107 L 365 107 L 365 0 L 253 0 L 253 107 L 151 107 Z" unicode="¥" />
<glyph horiz-adv-x="254" d="M 80 310 L 80 718 L 174 718 L 174 310 L 80 310 Z M 80 -213 L 80 195 L 173 195 L 173 -213 L 80 -213 Z" unicode="¦" />
<glyph horiz-adv-x="443" d="M 202 -11 C 177 -11 152 -8 126 -3 C 100 2 76 10 54 20 L 54 118 C 74 105 97 95 121 88 C 145 81 169 78 193 78 C 215 78 232 82 245 90 C 257 98 264 110 264 127 C 264 142 258 154 246 164 C 234 174 215 182 189 189 L 175 192 C 132 202 101 219 81 243 C 61 267 52 294 52 325 C 52 349 58 370 70 389 C 82 407 98 423 117 436 C 103 448 93 463 85 480 C 77 496 74 514 74 534 C 74 572 87 604 114 630 C 140 656 180 669 232 669 C 254 669 278 666 304 662 C 329 657 353 650 375 642 L 375 545 C 356 555 335 564 312 570 C 288 576 266 580 245 580 C 225 580 209 576 198 568 C 187 560 182 548 182 534 C 182 520 187 509 198 501 C 208 493 225 485 249 479 L 263 476 C 309 465 342 447 363 422 C 383 397 394 371 394 343 C 394 312 388 288 377 271 C 365 253 350 240 332 231 C 344 218 354 203 361 187 C 368 170 372 151 372 131 C 372 91 357 57 328 30 C 299 2 257 -11 202 -11 Z M 239 281 C 243 279 248 278 253 276 C 257 274 262 273 266 272 C 274 276 280 283 284 291 C 288 299 290 309 290 320 C 290 335 283 349 270 361 C 257 373 237 382 211 390 L 198 393 C 195 393 192 394 190 395 C 188 395 185 396 183 397 C 175 391 168 384 164 375 C 160 366 158 357 158 349 C 158 334 163 321 174 310 C 185 299 203 290 227 284 L 239 281 Z" unicode="§" />
<glyph horiz-adv-x="268" d="M -4 532 L -4 635 L 99 635 L 99 532 L -4 532 Z M 171 532 L 171 635 L 274 635 L 274 532 L 171 532 Z" unicode="¨" />
<glyph horiz-adv-x="704" d="M 351 93 C 260 93 186 123 129 185 C 71 247 43 319 43 402 C 43 485 71 557 129 619 C 186 681 260 712 351 712 C 440 712 514 681 572 619 C 630 557 660 485 660 402 C 660 318 630 246 572 185 C 514 123 440 93 351 93 Z M 351 154 C 415 154 473 177 524 224 C 574 271 600 330 600 402 C 600 475 574 535 524 581 C 473 627 415 651 351 651 C 283 651 225 627 177 581 C 128 535 104 475 104 402 C 104 330 128 270 177 224 C 225 177 283 154 351 154 Z M 356 224 C 308 224 266 240 230 273 C 194 306 177 349 177 403 C 177 457 194 500 230 533 C 266 565 308 582 356 582 C 372 582 389 579 407 575 C 425 570 442 563 457 555 L 457 489 C 443 497 426 504 408 510 C 390 516 372 519 356 519 C 322 519 295 507 275 484 C 255 461 245 434 245 404 C 245 372 255 345 276 322 C 296 298 323 287 356 287 C 373 287 391 290 411 296 C 430 302 447 309 461 318 L 461 252 C 445 243 428 236 408 231 C 388 226 371 224 356 224 Z" unicode="©" />
<glyph horiz-adv-x="417" d="M 168 361 C 134 361 107 370 87 389 C 67 407 57 432 57 464 C 57 498 68 526 92 546 C 116 566 150 580 196 588 L 265 599 L 265 613 C 265 629 259 642 247 650 C 235 658 216 663 192 663 C 172 663 151 660 131 655 C 111 650 92 642 75 632 L 75 711 C 95 719 118 726 142 730 C 166 734 190 737 215 737 C 259 737 294 726 321 704 C 347 682 361 651 361 611 L 361 369 L 273 369 L 266 416 C 256 398 242 384 225 375 C 207 365 188 361 168 361 Z M 203 434 C 217 434 230 437 241 445 C 252 453 260 463 265 475 L 265 537 L 211 530 C 193 527 179 521 169 513 C 159 504 154 493 154 479 C 154 465 158 454 167 446 C 176 438 188 434 203 434 Z M 65 220 L 65 308 L 358 308 L 358 220 L 65 220 Z" unicode="ª" />
<glyph horiz-adv-x="580" d="M 195 65 L 40 226 L 195 388 L 324 388 L 169 226 L 324 65 L 195 65 Z M 411 65 L 256 226 L 411 388 L 540 388 L 385 226 L 540 65 L 411 65 Z" unicode="«" />
<glyph horiz-adv-x="475" d="M 337 137 L 337 246 L 47 246 L 47 341 L 423 341 L 423 137 L 337 137 Z" unicode="¬" />
<glyph horiz-adv-x="374" d="M 50 194 L 50 289 L 326 289 L 326 194 L 50 194 Z" unicode="­" />
<glyph horiz-adv-x="704" d="M 351 93 C 260 93 186 123 129 185 C 71 247 43 319 43 402 C 43 485 71 557 129 619 C 186 681 260 712 351 712 C 440 712 514 681 572 619 C 630 557 660 485 660 402 C 660 318 630 246 572 185 C 514 123 440 93 351 93 Z M 351 154 C 415 154 473 177 524 224 C 574 271 600 330 600 402 C 600 475 574 535 524 581 C 473 627 415 651 351 651 C 283 651 225 627 177 581 C 128 535 104 475 104 402 C 104 330 128 270 177 224 C 225 177 283 154 351 154 Z M 243 234 L 243 573 L 349 573 C 383 573 410 565 430 550 C 450 534 461 514 461 488 C 461 467 455 449 443 433 C 431 417 413 406 391 402 C 405 398 417 392 427 384 C 437 375 445 364 450 352 L 495 234 L 422 234 L 387 329 C 382 343 375 354 365 361 C 355 368 343 372 331 372 L 310 372 L 310 234 L 243 234 Z M 310 429 L 346 429 C 361 429 373 432 381 440 C 389 448 394 458 394 472 C 394 486 389 497 381 505 C 373 512 361 516 346 516 L 310 516 L 310 429 Z" unicode="®" />
<glyph horiz-adv-x="377" d="M 70 532 L 70 619 L 316 619 L 316 532 L 70 532 Z" unicode="¯" />
<glyph horiz-adv-x="361" d="M 180 461 C 139 461 107 474 83 501 C 59 527 47 559 47 595 C 47 631 59 663 83 689 C 107 715 139 729 180 729 C 220 729 253 715 277 689 C 301 663 314 631 314 595 C 314 559 301 527 277 501 C 253 474 220 461 180 461 Z M 180 533 C 196 533 211 538 223 550 C 235 561 241 576 241 595 C 241 613 235 628 223 640 C 211 652 196 658 180 658 C 163 658 149 652 137 640 C 125 628 119 613 119 595 C 119 576 125 561 137 550 C 149 538 163 533 180 533 Z" unicode="°" />
<glyph horiz-adv-x="504" d="M 202 82 L 202 245 L 47 245 L 47 340 L 202 340 L 202 503 L 301 503 L 301 340 L 457 340 L 457 245 L 301 245 L 301 82 L 202 82 Z M 46 -96 L 46 -1 L 456 -1 L 456 -96 L 46 -96 Z" unicode="±" />
<glyph horiz-adv-x="313" d="M 28 440 L 28 539 C 81 565 121 588 149 610 C 177 632 191 653 191 675 C 191 692 184 705 172 714 C 159 723 143 728 124 728 C 109 728 94 725 79 720 C 63 715 48 708 34 698 L 34 787 C 52 793 71 798 89 802 C 107 806 127 808 150 808 C 190 808 223 797 248 777 C 272 757 285 729 285 695 C 285 657 270 624 241 596 C 211 567 168 542 111 521 L 285 521 L 285 440 L 28 440 Z" unicode="²" />
<glyph horiz-adv-x="312" d="M 151 432 C 130 432 110 433 90 437 C 70 441 49 447 28 456 L 28 541 C 45 531 62 523 79 518 C 96 513 114 511 134 511 C 152 511 166 514 176 520 C 185 526 190 535 190 547 C 190 558 184 567 172 574 C 160 580 141 584 115 584 L 92 584 L 92 658 L 112 658 C 136 658 154 661 166 668 C 177 674 183 684 183 696 C 183 706 178 714 169 720 C 160 726 147 729 129 729 C 112 729 96 727 82 723 C 68 719 53 713 39 705 L 39 786 C 57 792 76 798 94 802 C 112 806 130 808 149 808 C 187 808 218 799 242 782 C 266 765 278 742 278 714 C 278 691 271 672 258 656 C 244 640 226 629 204 623 C 228 618 248 608 262 592 C 276 576 284 558 284 537 C 284 505 272 480 249 461 C 225 441 193 432 151 432 Z" unicode="³" />
<glyph horiz-adv-x="243" d="M 132 524 L 25 524 L 124 668 L 245 668 L 132 524 Z" unicode="´" />
<glyph horiz-adv-x="486" d="M 135 0 L 135 439 C 100 439 72 448 51 468 C 30 487 20 513 20 547 C 20 581 31 608 53 628 C 75 648 106 658 144 658 L 421 658 L 421 0 L 320 0 L 320 563 L 235 563 L 235 0 L 135 0 Z" unicode="¶" />
<glyph horiz-adv-x="204" d="M 48 184 L 48 292 L 156 292 L 156 184 L 48 184 Z" unicode="·" />
<glyph horiz-adv-x="228" d="M 128 -227 C 117 -227 105 -225 93 -223 C 81 -221 69 -217 59 -213 L 59 -150 C 68 -155 77 -159 87 -161 C 96 -163 105 -165 114 -165 C 124 -165 132 -162 138 -156 C 144 -150 147 -143 147 -134 C 147 -124 143 -117 137 -111 C 130 -105 122 -102 112 -102 L 102 -102 L 102 -42 L 112 -42 C 146 -42 173 -50 194 -67 C 214 -84 225 -107 225 -135 C 225 -162 216 -184 198 -201 C 180 -218 156 -227 128 -227 Z" unicode="¸" />
<glyph horiz-adv-x="306" d="M 37 440 L 37 517 L 113 517 L 113 720 L 28 710 L 28 788 L 204 810 L 204 517 L 280 517 L 280 440 L 37 440 Z" unicode="¹" />
<glyph horiz-adv-x="489" d="M 244 359 C 187 359 141 376 107 410 C 73 444 56 491 56 549 C 56 607 73 653 107 687 C 141 721 187 739 244 739 C 301 739 347 721 381 687 C 415 653 432 607 432 550 C 432 492 415 445 381 411 C 347 376 301 359 244 359 Z M 244 444 C 272 444 294 453 311 472 C 327 490 336 516 336 549 C 336 581 327 606 311 625 C 294 643 272 653 244 653 C 216 653 194 643 178 625 C 161 607 153 582 153 550 C 153 517 161 491 178 472 C 194 453 216 444 244 444 Z M 68 220 L 68 308 L 424 308 L 424 220 L 68 220 Z" unicode="º" />
<glyph horiz-adv-x="580" d="M 40 65 L 195 226 L 40 388 L 169 388 L 324 226 L 169 65 L 40 65 Z M 256 65 L 411 226 L 256 388 L 385 388 L 540 226 L 385 65 L 256 65 Z" unicode="»" />
<glyph horiz-adv-x="754" d="M 37 360 L 37 437 L 113 437 L 113 640 L 28 630 L 28 708 L 204 730 L 204 437 L 280 437 L 280 360 L 37 360 Z M 186 0 L 486 718 L 577 718 L 277 0 L 186 0 Z M 591 0 L 591 76 L 426 76 L 426 138 L 555 361 L 679 361 L 679 150 L 728 150 L 728 76 L 679 76 L 679 0 L 591 0 Z M 591 150 L 591 289 L 510 150 L 591 150 Z" unicode="¼" />
<glyph horiz-adv-x="750" d="M 37 360 L 37 437 L 113 437 L 113 640 L 28 630 L 28 708 L 204 730 L 204 437 L 280 437 L 280 360 L 37 360 Z M 186 0 L 486 718 L 577 718 L 277 0 L 186 0 Z M 465 0 L 465 99 C 518 125 558 148 586 170 C 614 192 628 213 628 235 C 628 252 621 265 609 274 C 596 283 580 288 561 288 C 546 288 531 285 516 280 C 500 275 485 268 471 258 L 471 347 C 489 353 508 358 526 362 C 544 366 564 368 587 368 C 627 368 660 357 685 337 C 709 317 722 289 722 255 C 722 217 707 184 678 156 C 648 127 605 102 548 81 L 722 81 L 722 0 L 465 0 Z" unicode="½" />
<glyph horiz-adv-x="746" d="M 151 352 C 130 352 110 353 90 357 C 70 361 49 367 28 376 L 28 461 C 45 451 62 443 79 438 C 96 433 114 431 134 431 C 152 431 166 434 176 440 C 185 446 190 455 190 467 C 190 478 184 487 172 494 C 160 500 141 504 115 504 L 92 504 L 92 578 L 112 578 C 136 578 154 581 166 588 C 177 594 183 604 183 616 C 183 626 178 634 169 640 C 160 646 147 649 129 649 C 112 649 96 647 82 643 C 68 639 53 633 39 625 L 39 706 C 57 712 76 718 94 722 C 112 726 130 728 149 728 C 187 728 218 719 242 702 C 266 685 278 662 278 634 C 278 611 271 592 258 576 C 244 560 226 549 204 543 C 228 538 248 528 262 512 C 276 496 284 478 284 457 C 284 425 272 400 249 381 C 225 361 193 352 151 352 Z M 173 0 L 473 718 L 564 718 L 264 0 L 173 0 Z M 582 0 L 582 76 L 417 76 L 417 138 L 546 361 L 670 361 L 670 150 L 719 150 L 719 76 L 670 76 L 670 0 L 582 0 Z M 582 150 L 582 289 L 501 150 L 582 150 Z" unicode="¾" />
<glyph horiz-adv-x="471" d="M 197 406 L 197 514 L 304 514 L 304 406 L 197 406 Z M 263 -205 C 189 -205 134 -186 96 -150 C 58 -113 40 -69 40 -17 C 40 16 46 47 60 75 C 73 103 95 132 127 162 C 152 186 170 210 182 233 C 194 256 200 282 200 311 L 303 311 C 303 271 296 236 282 206 C 268 176 246 145 214 115 C 192 94 177 74 167 55 C 157 35 153 15 153 -7 C 153 -36 164 -60 188 -78 C 211 -96 242 -106 282 -106 C 308 -106 335 -101 361 -93 C 387 -84 410 -72 432 -57 L 432 -167 C 405 -179 377 -188 349 -195 C 320 -201 291 -205 263 -205 Z" unicode="¿" />
<glyph horiz-adv-x="664" d="M 288 711 L 183 843 L 293 843 L 384 711 L 288 711 Z M 17 0 L 279 661 L 384 661 L 646 0 L 525 0 L 461 168 L 196 168 L 132 0 L 17 0 Z M 233 268 L 424 268 L 362 429 L 328 523 L 294 429 L 233 268 Z" unicode="À" />
<glyph horiz-adv-x="664" d="M 378 711 L 281 711 L 372 843 L 482 843 L 378 711 Z M 17 0 L 279 661 L 384 661 L 646 0 L 525 0 L 461 168 L 196 168 L 132 0 L 17 0 Z M 233 268 L 424 268 L 362 429 L 328 523 L 294 429 L 233 268 Z" unicode="Á" />
<glyph horiz-adv-x="664" d="M 285 711 L 201 711 L 291 842 L 374 842 L 464 711 L 380 711 L 332 777 L 285 711 Z M 17 0 L 279 661 L 384 661 L 646 0 L 525 0 L 461 168 L 196 168 L 132 0 L 17 0 Z M 233 268 L 424 268 L 362 429 L 328 523 L 294 429 L 233 268 Z" unicode="Â" />
<glyph horiz-adv-x="664" d="M 250 711 L 190 711 C 190 745 198 772 214 792 C 230 812 250 822 276 822 C 286 822 296 820 306 816 C 316 812 327 806 340 798 C 349 792 357 788 364 784 C 370 780 377 779 384 779 C 392 779 399 782 405 789 C 411 795 414 805 415 818 L 475 818 C 474 782 466 755 450 735 C 434 715 413 705 389 705 C 377 705 367 706 357 710 C 347 714 336 720 325 729 C 316 735 308 740 301 744 C 294 747 288 749 282 749 C 272 749 265 745 259 739 C 253 732 250 723 250 711 Z M 17 0 L 279 661 L 384 661 L 646 0 L 525 0 L 461 168 L 196 168 L 132 0 L 17 0 Z M 233 268 L 424 268 L 362 429 L 328 523 L 294 429 L 233 268 Z" unicode="Ã" />
<glyph horiz-adv-x="664" d="M 204 711 L 204 804 L 298 804 L 298 711 L 204 711 Z M 365 711 L 365 804 L 458 804 L 458 711 L 365 711 Z M 17 0 L 279 661 L 384 661 L 646 0 L 525 0 L 461 168 L 196 168 L 132 0 L 17 0 Z M 233 268 L 424 268 L 362 429 L 328 523 L 294 429 L 233 268 Z" unicode="Ä" />
<glyph horiz-adv-x="664" d="M 17 0 L 268 632 C 259 640 252 650 248 662 C 244 673 242 685 242 698 C 242 723 250 745 266 763 C 282 781 305 791 333 791 C 361 791 384 781 400 763 C 416 745 425 723 425 698 C 425 684 422 671 417 659 C 412 647 405 638 396 630 L 646 0 L 525 0 L 461 168 L 196 168 L 132 0 L 17 0 Z M 333 661 C 343 661 351 664 359 671 C 366 678 370 687 370 698 C 370 709 366 718 359 725 C 351 732 343 736 333 736 C 323 736 315 732 308 725 C 300 718 297 709 297 698 C 297 687 300 678 308 671 C 315 664 323 661 333 661 Z M 233 268 L 424 268 L 362 429 L 328 523 L 294 429 L 233 268 Z" unicode="Å" />
<glyph horiz-adv-x="860" d="M 7 0 L 352 658 L 792 658 L 792 553 L 521 553 L 521 386 L 781 386 L 781 280 L 521 280 L 521 105 L 801 105 L 801 0 L 409 0 L 409 181 L 221 181 L 125 0 L 7 0 Z M 274 286 L 409 286 L 409 543 L 367 457 L 274 286 Z" unicode="Æ" />
<glyph horiz-adv-x="657" d="M 401 -15 C 292 -15 205 16 141 79 C 76 141 44 225 44 329 C 44 432 76 515 141 578 C 205 641 292 673 401 673 C 437 673 472 669 505 661 C 538 653 571 641 603 625 L 603 512 C 571 531 538 545 506 555 C 473 564 438 569 401 569 C 327 569 268 547 224 503 C 180 459 158 401 158 329 C 158 256 180 198 225 154 C 270 110 329 89 401 89 C 441 89 477 94 511 105 C 544 115 577 131 610 152 L 610 39 C 577 20 543 6 509 -2 C 475 -10 439 -15 401 -15 Z M 402 -218 C 391 -218 380 -217 369 -215 C 358 -213 348 -209 338 -205 L 338 -147 C 346 -151 355 -155 363 -158 C 371 -160 380 -162 388 -162 C 397 -162 404 -159 410 -154 C 416 -148 419 -141 419 -133 C 419 -123 416 -116 410 -110 C 404 -104 396 -102 386 -102 L 378 -102 L 378 -48 L 387 -48 C 417 -48 442 -55 461 -71 C 480 -87 490 -108 490 -134 C 490 -158 482 -178 466 -194 C 450 -210 428 -218 402 -218 Z" unicode="Ç" />
<glyph horiz-adv-x="520" d="M 225 711 L 120 843 L 230 843 L 321 711 L 225 711 Z M 69 0 L 69 658 L 452 658 L 452 553 L 181 553 L 181 386 L 442 386 L 442 280 L 181 280 L 181 105 L 461 105 L 461 0 L 69 0 Z" unicode="È" />
<glyph horiz-adv-x="520" d="M 315 711 L 218 711 L 309 843 L 419 843 L 315 711 Z M 69 0 L 69 658 L 452 658 L 452 553 L 181 553 L 181 386 L 442 386 L 442 280 L 181 280 L 181 105 L 461 105 L 461 0 L 69 0 Z" unicode="É" />
<glyph horiz-adv-x="520" d="M 222 711 L 138 711 L 228 842 L 311 842 L 401 711 L 317 711 L 269 777 L 222 711 Z M 69 0 L 69 658 L 452 658 L 452 553 L 181 553 L 181 386 L 442 386 L 442 280 L 181 280 L 181 105 L 461 105 L 461 0 L 69 0 Z" unicode="Ê" />
<glyph horiz-adv-x="520" d="M 141 711 L 141 804 L 235 804 L 235 711 L 141 711 Z M 302 711 L 302 804 L 395 804 L 395 711 L 302 711 Z M 69 0 L 69 658 L 452 658 L 452 553 L 181 553 L 181 386 L 442 386 L 442 280 L 181 280 L 181 105 L 461 105 L 461 0 L 69 0 Z" unicode="Ë" />
<glyph horiz-adv-x="250" d="M 83 711 L -22 843 L 88 843 L 179 711 L 83 711 Z M 69 0 L 69 658 L 181 658 L 181 0 L 69 0 Z" unicode="Ì" />
<glyph horiz-adv-x="250" d="M 173 711 L 76 711 L 167 843 L 277 843 L 173 711 Z M 69 0 L 69 658 L 181 658 L 181 0 L 69 0 Z" unicode="Í" />
<glyph horiz-adv-x="250" d="M 80 711 L -4 711 L 86 842 L 169 842 L 259 711 L 175 711 L 127 777 L 80 711 Z M 69 0 L 69 658 L 181 658 L 181 0 L 69 0 Z" unicode="Î" />
<glyph horiz-adv-x="250" d="M -1 711 L -1 804 L 93 804 L 93 711 L -1 711 Z M 160 711 L 160 804 L 253 804 L 253 711 L 160 711 Z M 69 0 L 69 658 L 181 658 L 181 0 L 69 0 Z" unicode="Ï" />
<glyph horiz-adv-x="701" d="M 76 0 L 76 279 L 27 279 L 27 375 L 76 375 L 76 658 L 293 658 C 401 658 487 628 552 570 C 616 512 649 434 649 337 C 649 235 616 153 550 92 C 484 30 395 0 285 0 L 76 0 Z M 188 105 L 291 105 C 365 105 425 126 470 168 C 514 210 537 267 537 337 C 537 402 515 454 472 494 C 428 533 371 553 299 553 L 188 553 L 188 375 L 297 375 L 297 279 L 188 279 L 188 105 Z" unicode="Ð" />
<glyph horiz-adv-x="713" d="M 276 711 L 216 711 C 216 745 224 772 240 792 C 256 812 276 822 302 822 C 312 822 322 820 332 816 C 342 812 353 806 366 798 C 375 792 383 788 390 784 C 396 780 403 779 410 779 C 418 779 425 782 431 789 C 437 795 440 805 441 818 L 501 818 C 500 782 492 755 476 735 C 460 715 439 705 415 705 C 403 705 393 706 383 710 C 373 714 362 720 351 729 C 342 735 334 740 327 744 C 320 747 314 749 308 749 C 298 749 291 745 285 739 C 279 732 276 723 276 711 Z M 69 0 L 69 658 L 187 658 L 491 238 L 538 167 L 537 236 L 537 658 L 644 658 L 644 0 L 528 0 L 221 425 L 175 493 L 176 426 L 176 0 L 69 0 Z" unicode="Ñ" />
<glyph horiz-adv-x="774" d="M 344 719 L 239 851 L 349 851 L 440 719 L 344 719 Z M 387 -15 C 284 -15 201 17 138 81 C 75 145 44 227 44 329 C 44 430 76 513 140 577 C 204 641 287 673 387 673 C 487 673 569 641 633 579 C 697 516 729 433 729 329 C 729 225 697 141 635 79 C 572 16 489 -15 387 -15 Z M 387 88 C 455 88 510 110 552 154 C 594 198 616 256 616 329 C 616 401 594 460 552 504 C 510 548 455 570 387 570 C 319 570 263 548 221 504 C 179 460 158 401 158 329 C 158 256 179 198 221 154 C 263 110 319 88 387 88 Z" unicode="Ò" />
<glyph horiz-adv-x="774" d="M 434 719 L 337 719 L 428 851 L 538 851 L 434 719 Z M 387 -15 C 284 -15 201 17 138 81 C 75 145 44 227 44 329 C 44 430 76 513 140 577 C 204 641 287 673 387 673 C 487 673 569 641 633 579 C 697 516 729 433 729 329 C 729 225 697 141 635 79 C 572 16 489 -15 387 -15 Z M 387 88 C 455 88 510 110 552 154 C 594 198 616 256 616 329 C 616 401 594 460 552 504 C 510 548 455 570 387 570 C 319 570 263 548 221 504 C 179 460 158 401 158 329 C 158 256 179 198 221 154 C 263 110 319 88 387 88 Z" unicode="Ó" />
<glyph horiz-adv-x="774" d="M 341 719 L 257 719 L 347 850 L 430 850 L 520 719 L 436 719 L 388 785 L 341 719 Z M 387 -15 C 284 -15 201 17 138 81 C 75 145 44 227 44 329 C 44 430 76 513 140 577 C 204 641 287 673 387 673 C 487 673 569 641 633 579 C 697 516 729 433 729 329 C 729 225 697 141 635 79 C 572 16 489 -15 387 -15 Z M 387 88 C 455 88 510 110 552 154 C 594 198 616 256 616 329 C 616 401 594 460 552 504 C 510 548 455 570 387 570 C 319 570 263 548 221 504 C 179 460 158 401 158 329 C 158 256 179 198 221 154 C 263 110 319 88 387 88 Z" unicode="Ô" />
<glyph horiz-adv-x="774" d="M 306 719 L 246 719 C 246 753 254 780 270 800 C 286 820 306 830 332 830 C 342 830 352 828 362 824 C 372 820 383 814 396 806 C 405 800 413 796 420 792 C 426 788 433 787 440 787 C 448 787 455 790 461 797 C 467 803 470 813 471 826 L 531 826 C 530 790 522 763 506 743 C 490 723 469 713 445 713 C 433 713 423 714 413 718 C 403 722 392 728 381 737 C 372 743 364 748 357 752 C 350 755 344 757 338 757 C 328 757 321 753 315 747 C 309 740 306 731 306 719 Z M 387 -15 C 284 -15 201 17 138 81 C 75 145 44 227 44 329 C 44 430 76 513 140 577 C 204 641 287 673 387 673 C 487 673 569 641 633 579 C 697 516 729 433 729 329 C 729 225 697 141 635 79 C 572 16 489 -15 387 -15 Z M 387 88 C 455 88 510 110 552 154 C 594 198 616 256 616 329 C 616 401 594 460 552 504 C 510 548 455 570 387 570 C 319 570 263 548 221 504 C 179 460 158 401 158 329 C 158 256 179 198 221 154 C 263 110 319 88 387 88 Z" unicode="Õ" />
<glyph horiz-adv-x="774" d="M 260 719 L 260 812 L 354 812 L 354 719 L 260 719 Z M 421 719 L 421 812 L 514 812 L 514 719 L 421 719 Z M 387 -15 C 284 -15 201 17 138 81 C 75 145 44 227 44 329 C 44 430 76 513 140 577 C 204 641 287 673 387 673 C 487 673 569 641 633 579 C 697 516 729 433 729 329 C 729 225 697 141 635 79 C 572 16 489 -15 387 -15 Z M 387 88 C 455 88 510 110 552 154 C 594 198 616 256 616 329 C 616 401 594 460 552 504 C 510 548 455 570 387 570 C 319 570 263 548 221 504 C 179 460 158 401 158 329 C 158 256 179 198 221 154 C 263 110 319 88 387 88 Z" unicode="Ö" />
<glyph horiz-adv-x="523" d="M 130 81 L 58 153 L 190 284 L 57 417 L 129 489 L 262 357 L 393 488 L 465 416 L 334 285 L 466 152 L 395 80 L 262 213 L 130 81 Z" unicode="×" />
<glyph horiz-adv-x="774" d="M 102 -48 L 166 56 C 128 86 98 124 76 171 C 54 218 44 271 44 329 C 44 430 76 513 140 577 C 204 641 287 673 387 673 C 413 673 437 670 461 666 C 485 662 507 655 529 647 L 565 706 L 674 706 L 609 601 C 646 571 675 532 697 486 C 718 440 729 387 729 329 C 729 225 697 141 635 79 C 572 16 489 -15 387 -15 C 361 -15 336 -12 313 -8 C 289 -4 267 2 247 10 L 211 -48 L 102 -48 Z M 158 329 C 158 291 163 257 175 227 C 187 197 203 171 224 151 L 473 556 C 460 560 446 564 432 566 C 417 568 402 570 387 570 C 319 570 263 548 221 504 C 179 460 158 401 158 329 Z M 387 88 C 455 88 510 110 552 154 C 594 198 616 256 616 329 C 616 365 610 399 599 429 C 587 459 571 485 551 506 L 303 102 C 315 97 329 93 343 91 C 357 89 372 88 387 88 Z" unicode="Ø" />
<glyph horiz-adv-x="666" d="M 293 711 L 188 843 L 298 843 L 389 711 L 293 711 Z M 334 -12 C 250 -12 183 12 134 62 C 84 111 60 177 60 261 L 60 658 L 172 658 L 172 261 C 172 210 186 169 216 139 C 246 109 285 94 335 94 C 385 94 424 109 453 139 C 482 169 497 210 497 261 L 497 658 L 606 658 L 606 261 C 606 177 581 111 532 62 C 482 12 416 -12 334 -12 Z" unicode="Ù" />
<glyph horiz-adv-x="666" d="M 383 711 L 286 711 L 377 843 L 487 843 L 383 711 Z M 334 -12 C 250 -12 183 12 134 62 C 84 111 60 177 60 261 L 60 658 L 172 658 L 172 261 C 172 210 186 169 216 139 C 246 109 285 94 335 94 C 385 94 424 109 453 139 C 482 169 497 210 497 261 L 497 658 L 606 658 L 606 261 C 606 177 581 111 532 62 C 482 12 416 -12 334 -12 Z" unicode="Ú" />
<glyph horiz-adv-x="666" d="M 290 711 L 206 711 L 296 842 L 379 842 L 469 711 L 385 711 L 337 777 L 290 711 Z M 334 -12 C 250 -12 183 12 134 62 C 84 111 60 177 60 261 L 60 658 L 172 658 L 172 261 C 172 210 186 169 216 139 C 246 109 285 94 335 94 C 385 94 424 109 453 139 C 482 169 497 210 497 261 L 497 658 L 606 658 L 606 261 C 606 177 581 111 532 62 C 482 12 416 -12 334 -12 Z" unicode="Û" />
<glyph horiz-adv-x="666" d="M 209 711 L 209 804 L 303 804 L 303 711 L 209 711 Z M 370 711 L 370 804 L 463 804 L 463 711 L 370 711 Z M 334 -12 C 250 -12 183 12 134 62 C 84 111 60 177 60 261 L 60 658 L 172 658 L 172 261 C 172 210 186 169 216 139 C 246 109 285 94 335 94 C 385 94 424 109 453 139 C 482 169 497 210 497 261 L 497 658 L 606 658 L 606 261 C 606 177 581 111 532 62 C 482 12 416 -12 334 -12 Z" unicode="Ü" />
<glyph horiz-adv-x="616" d="M 355 711 L 258 711 L 349 843 L 459 843 L 355 711 Z M 253 0 L 253 268 L 12 658 L 141 658 L 274 439 L 312 370 L 351 439 L 483 658 L 605 658 L 365 270 L 365 0 L 253 0 Z" unicode="Ý" />
<glyph horiz-adv-x="512" d="M 69 0 L 69 658 L 181 658 L 181 551 L 230 551 C 304 551 362 531 406 492 C 450 453 472 400 472 334 C 472 266 450 213 406 174 C 362 135 304 116 230 116 L 181 116 L 181 0 L 69 0 Z M 181 220 L 231 220 C 269 220 299 230 323 251 C 347 271 359 299 359 334 C 359 368 347 395 323 416 C 299 436 268 447 230 447 L 181 447 L 181 220 Z" unicode="Þ" />
<glyph horiz-adv-x="587" d="M 59 0 L 59 474 C 59 557 81 620 125 664 C 169 707 227 729 297 729 C 366 729 423 707 467 664 C 511 621 533 562 533 487 C 533 467 531 447 529 425 C 527 403 524 384 522 367 C 508 371 490 376 469 381 C 447 386 427 389 408 389 C 384 389 366 385 355 377 C 344 369 339 359 339 345 C 339 331 344 320 356 312 C 367 303 384 295 407 289 L 417 286 C 459 274 491 257 514 233 C 537 209 549 178 549 142 C 549 94 534 56 504 30 C 474 3 434 -10 384 -10 C 361 -10 337 -7 313 -3 C 288 0 263 7 239 16 L 239 113 C 261 101 283 93 306 87 C 329 81 352 78 376 78 C 397 78 414 82 426 91 C 438 99 444 111 444 127 C 444 141 437 153 425 163 C 413 172 395 180 372 187 L 362 190 C 320 201 288 219 266 243 C 244 267 233 298 233 337 C 233 378 246 412 273 438 C 299 464 334 478 376 478 C 386 478 396 477 404 476 C 412 475 422 474 433 472 C 439 519 431 558 409 588 C 386 618 349 634 299 634 C 259 634 227 620 203 592 C 179 564 168 526 168 480 L 168 0 L 59 0 Z" unicode="ß" />
<glyph horiz-adv-x="473" d="M 189 524 L 76 668 L 198 668 L 296 524 L 189 524 Z M 181 -10 C 137 -10 103 2 77 27 C 51 51 38 84 38 125 C 38 169 53 204 83 231 C 113 258 157 276 216 285 L 309 300 L 309 318 C 309 340 300 357 284 368 C 267 378 243 384 212 384 C 185 384 158 380 132 372 C 106 364 81 354 59 341 L 59 445 C 85 455 113 463 143 471 C 173 478 201 482 228 482 C 290 482 337 468 369 440 C 401 412 418 373 418 321 L 418 0 L 318 0 L 310 63 C 296 40 278 22 255 9 C 232 -3 207 -10 181 -10 Z M 215 77 C 236 77 255 82 273 94 C 290 105 302 120 309 139 L 309 224 L 230 212 C 203 208 182 199 168 187 C 153 174 146 157 146 137 C 146 118 152 103 164 93 C 176 82 193 77 215 77 Z" unicode="à" />
<glyph horiz-adv-x="473" d="M 278 524 L 171 524 L 270 668 L 391 668 L 278 524 Z M 181 -10 C 137 -10 103 2 77 27 C 51 51 38 84 38 125 C 38 169 53 204 83 231 C 113 258 157 276 216 285 L 309 300 L 309 318 C 309 340 300 357 284 368 C 267 378 243 384 212 384 C 185 384 158 380 132 372 C 106 364 81 354 59 341 L 59 445 C 85 455 113 463 143 471 C 173 478 201 482 228 482 C 290 482 337 468 369 440 C 401 412 418 373 418 321 L 418 0 L 318 0 L 310 63 C 296 40 278 22 255 9 C 232 -3 207 -10 181 -10 Z M 215 77 C 236 77 255 82 273 94 C 290 105 302 120 309 139 L 309 224 L 230 212 C 203 208 182 199 168 187 C 153 174 146 157 146 137 C 146 118 152 103 164 93 C 176 82 193 77 215 77 Z" unicode="á" />
<glyph horiz-adv-x="473" d="M 183 524 L 91 524 L 188 666 L 279 666 L 376 524 L 284 524 L 234 595 L 183 524 Z M 181 -10 C 137 -10 103 2 77 27 C 51 51 38 84 38 125 C 38 169 53 204 83 231 C 113 258 157 276 216 285 L 309 300 L 309 318 C 309 340 300 357 284 368 C 267 378 243 384 212 384 C 185 384 158 380 132 372 C 106 364 81 354 59 341 L 59 445 C 85 455 113 463 143 471 C 173 478 201 482 228 482 C 290 482 337 468 369 440 C 401 412 418 373 418 321 L 418 0 L 318 0 L 310 63 C 296 40 278 22 255 9 C 232 -3 207 -10 181 -10 Z M 215 77 C 236 77 255 82 273 94 C 290 105 302 120 309 139 L 309 224 L 230 212 C 203 208 182 199 168 187 C 153 174 146 157 146 137 C 146 118 152 103 164 93 C 176 82 193 77 215 77 Z" unicode="â" />
<glyph horiz-adv-x="473" d="M 146 524 L 80 524 C 80 561 89 591 106 613 C 123 635 146 646 174 646 C 185 646 196 644 207 640 C 217 636 229 629 243 621 C 253 614 261 609 268 605 C 275 601 282 599 289 599 C 299 599 307 602 313 610 C 319 617 322 627 323 640 L 389 640 C 388 602 379 572 361 551 C 343 529 321 519 295 519 C 283 519 271 520 261 524 C 250 528 238 534 226 544 C 216 550 208 555 201 559 C 193 563 186 565 180 565 C 170 565 162 561 156 554 C 150 546 146 536 146 524 Z M 181 -10 C 137 -10 103 2 77 27 C 51 51 38 84 38 125 C 38 169 53 204 83 231 C 113 258 157 276 216 285 L 309 300 L 309 318 C 309 340 300 357 284 368 C 267 378 243 384 212 384 C 185 384 158 380 132 372 C 106 364 81 354 59 341 L 59 445 C 85 455 113 463 143 471 C 173 478 201 482 228 482 C 290 482 337 468 369 440 C 401 412 418 373 418 321 L 418 0 L 318 0 L 310 63 C 296 40 278 22 255 9 C 232 -3 207 -10 181 -10 Z M 215 77 C 236 77 255 82 273 94 C 290 105 302 120 309 139 L 309 224 L 230 212 C 203 208 182 199 168 187 C 153 174 146 157 146 137 C 146 118 152 103 164 93 C 176 82 193 77 215 77 Z" unicode="ã" />
<glyph horiz-adv-x="473" d="M 94 529 L 94 632 L 197 632 L 197 529 L 94 529 Z M 269 529 L 269 632 L 372 632 L 372 529 L 269 529 Z M 181 -10 C 137 -10 103 2 77 27 C 51 51 38 84 38 125 C 38 169 53 204 83 231 C 113 258 157 276 216 285 L 309 300 L 309 318 C 309 340 300 357 284 368 C 267 378 243 384 212 384 C 185 384 158 380 132 372 C 106 364 81 354 59 341 L 59 445 C 85 455 113 463 143 471 C 173 478 201 482 228 482 C 290 482 337 468 369 440 C 401 412 418 373 418 321 L 418 0 L 318 0 L 310 63 C 296 40 278 22 255 9 C 232 -3 207 -10 181 -10 Z M 215 77 C 236 77 255 82 273 94 C 290 105 302 120 309 139 L 309 224 L 230 212 C 203 208 182 199 168 187 C 153 174 146 157 146 137 C 146 118 152 103 164 93 C 176 82 193 77 215 77 Z" unicode="ä" />
<glyph horiz-adv-x="473" d="M 181 -10 C 137 -10 103 2 77 27 C 51 51 38 84 38 125 C 38 169 53 204 83 231 C 113 258 157 276 216 285 L 309 300 L 309 318 C 309 340 300 357 284 368 C 267 378 243 384 212 384 C 185 384 158 380 132 372 C 106 364 81 354 59 341 L 59 445 C 73 450 89 455 105 461 C 121 466 138 470 155 474 C 149 482 144 491 141 502 C 137 512 136 523 136 535 C 136 562 144 585 162 605 C 180 625 204 635 235 635 C 265 635 290 625 308 605 C 326 585 335 562 335 535 C 335 522 333 510 329 499 C 325 488 319 478 313 470 C 347 459 373 441 391 416 C 409 390 418 359 418 321 L 418 0 L 318 0 L 310 63 C 296 40 278 22 255 9 C 232 -3 207 -10 181 -10 Z M 235 495 C 245 495 254 498 262 505 C 270 512 274 522 274 535 C 274 547 270 556 262 564 C 254 571 245 575 235 575 C 224 575 215 571 207 564 C 199 556 196 547 196 535 C 196 522 199 512 207 505 C 215 498 224 495 235 495 Z M 215 77 C 236 77 255 82 273 94 C 290 105 302 120 309 139 L 309 224 L 230 212 C 203 208 182 199 168 187 C 153 174 146 157 146 137 C 146 118 152 103 164 93 C 176 82 193 77 215 77 Z" unicode="å" />
<glyph horiz-adv-x="768" d="M 195 -10 C 147 -10 110 2 82 27 C 54 51 41 84 41 125 C 41 169 56 204 86 232 C 116 260 161 278 219 288 L 311 303 L 311 321 C 311 344 302 361 284 372 C 266 383 242 389 210 389 C 184 389 158 385 132 379 C 106 372 82 362 60 350 L 60 445 C 86 455 114 463 145 469 C 175 475 205 478 234 478 C 267 478 296 472 321 462 C 346 451 366 436 380 418 C 398 437 419 452 443 462 C 467 472 494 478 524 478 C 588 478 638 457 676 415 C 714 373 733 312 733 231 L 733 199 L 422 199 C 422 163 435 135 459 115 C 483 94 516 84 559 84 C 583 84 610 88 639 96 C 667 104 694 115 720 130 L 720 32 C 692 18 662 8 631 1 C 599 -6 570 -10 544 -10 C 500 -10 462 -2 431 14 C 399 30 374 52 356 81 C 338 50 316 27 289 12 C 262 -2 231 -10 195 -10 Z M 523 387 C 492 387 468 377 451 358 C 433 339 424 314 422 282 L 624 282 C 624 314 614 340 596 359 C 578 377 553 387 523 387 Z M 222 79 C 244 79 264 85 280 99 C 296 113 306 130 311 150 L 311 223 L 234 211 C 208 206 187 198 173 186 C 158 174 151 158 151 140 C 151 120 157 105 170 95 C 182 84 200 79 222 79 Z" unicode="æ" />
<glyph horiz-adv-x="463" d="M 279 -10 C 204 -10 145 11 101 55 C 57 98 36 157 36 233 C 36 309 57 368 101 412 C 145 456 204 478 278 478 C 302 478 326 475 350 469 C 374 463 397 454 419 443 L 419 333 C 398 347 376 358 354 366 C 332 373 308 377 284 377 C 241 377 207 364 182 340 C 157 315 145 280 145 234 C 145 188 157 153 183 128 C 209 103 243 91 286 91 C 310 91 334 95 358 105 C 381 114 402 126 421 141 L 421 31 C 401 18 378 8 353 1 C 328 -6 303 -10 279 -10 Z M 264 -227 C 253 -227 241 -225 229 -223 C 217 -221 205 -217 195 -213 L 195 -150 C 204 -155 213 -159 223 -161 C 232 -163 241 -165 250 -165 C 260 -165 268 -162 274 -156 C 280 -150 283 -143 283 -134 C 283 -124 279 -117 273 -111 C 266 -105 258 -102 248 -102 L 238 -102 L 238 -42 L 248 -42 C 282 -42 309 -50 330 -67 C 350 -84 361 -107 361 -135 C 361 -162 352 -184 334 -201 C 316 -218 292 -227 264 -227 Z" unicode="ç" />
<glyph horiz-adv-x="496" d="M 212 524 L 99 668 L 221 668 L 319 524 L 212 524 Z M 272 -10 C 198 -10 140 12 98 56 C 56 100 36 159 36 235 C 36 307 55 366 95 411 C 134 455 187 478 254 478 C 318 478 368 457 405 415 C 441 373 460 312 460 231 L 460 199 L 147 199 C 147 163 160 134 185 113 C 209 92 243 82 287 82 C 312 82 338 86 366 94 C 393 102 420 115 447 132 L 447 32 C 418 18 389 7 359 0 C 329 -6 300 -10 272 -10 Z M 254 389 C 222 389 197 379 178 359 C 159 339 149 312 147 280 L 351 280 C 351 313 342 339 325 359 C 308 379 284 389 254 389 Z" unicode="è" />
<glyph horiz-adv-x="496" d="M 301 524 L 194 524 L 293 668 L 414 668 L 301 524 Z M 272 -10 C 198 -10 140 12 98 56 C 56 100 36 159 36 235 C 36 307 55 366 95 411 C 134 455 187 478 254 478 C 318 478 368 457 405 415 C 441 373 460 312 460 231 L 460 199 L 147 199 C 147 163 160 134 185 113 C 209 92 243 82 287 82 C 312 82 338 86 366 94 C 393 102 420 115 447 132 L 447 32 C 418 18 389 7 359 0 C 329 -6 300 -10 272 -10 Z M 254 389 C 222 389 197 379 178 359 C 159 339 149 312 147 280 L 351 280 C 351 313 342 339 325 359 C 308 379 284 389 254 389 Z" unicode="é" />
<glyph horiz-adv-x="496" d="M 206 524 L 114 524 L 211 666 L 302 666 L 399 524 L 307 524 L 257 595 L 206 524 Z M 272 -10 C 198 -10 140 12 98 56 C 56 100 36 159 36 235 C 36 307 55 366 95 411 C 134 455 187 478 254 478 C 318 478 368 457 405 415 C 441 373 460 312 460 231 L 460 199 L 147 199 C 147 163 160 134 185 113 C 209 92 243 82 287 82 C 312 82 338 86 366 94 C 393 102 420 115 447 132 L 447 32 C 418 18 389 7 359 0 C 329 -6 300 -10 272 -10 Z M 254 389 C 222 389 197 379 178 359 C 159 339 149 312 147 280 L 351 280 C 351 313 342 339 325 359 C 308 379 284 389 254 389 Z" unicode="ê" />
<glyph horiz-adv-x="496" d="M 117 529 L 117 632 L 220 632 L 220 529 L 117 529 Z M 292 529 L 292 632 L 395 632 L 395 529 L 292 529 Z M 272 -10 C 198 -10 140 12 98 56 C 56 100 36 159 36 235 C 36 307 55 366 95 411 C 134 455 187 478 254 478 C 318 478 368 457 405 415 C 441 373 460 312 460 231 L 460 199 L 147 199 C 147 163 160 134 185 113 C 209 92 243 82 287 82 C 312 82 338 86 366 94 C 393 102 420 115 447 132 L 447 32 C 418 18 389 7 359 0 C 329 -6 300 -10 272 -10 Z M 254 389 C 222 389 197 379 178 359 C 159 339 149 312 147 280 L 351 280 C 351 313 342 339 325 359 C 308 379 284 389 254 389 Z" unicode="ë" />
<glyph horiz-adv-x="230" d="M 73 524 L -40 668 L 82 668 L 180 524 L 73 524 Z M 60 0 L 60 468 L 169 468 L 169 0 L 60 0 Z" unicode="ì" />
<glyph horiz-adv-x="230" d="M 162 524 L 55 524 L 154 668 L 275 668 L 162 524 Z M 60 0 L 60 468 L 169 468 L 169 0 L 60 0 Z" unicode="í" />
<glyph horiz-adv-x="230" d="M 67 524 L -25 524 L 72 666 L 163 666 L 260 524 L 168 524 L 118 595 L 67 524 Z M 60 0 L 60 468 L 169 468 L 169 0 L 60 0 Z" unicode="î" />
<glyph horiz-adv-x="230" d="M -22 529 L -22 632 L 81 632 L 81 529 L -22 529 Z M 153 529 L 153 632 L 256 632 L 256 529 L 153 529 Z M 60 0 L 60 468 L 169 468 L 169 0 L 60 0 Z" unicode="ï" />
<glyph horiz-adv-x="558" d="M 279 -11 C 207 -11 148 10 103 54 C 58 98 36 158 36 234 C 36 308 58 367 102 412 C 146 456 201 479 268 479 C 298 479 326 473 350 463 C 374 453 395 437 412 417 C 403 443 392 469 378 495 C 364 521 347 545 329 569 L 224 536 L 199 623 L 258 642 C 245 652 231 663 217 674 C 202 684 186 694 170 704 L 279 747 C 294 737 309 726 323 714 C 337 702 351 690 365 676 L 465 708 L 491 621 L 425 600 C 455 554 478 503 496 447 C 513 391 522 335 522 277 C 522 183 499 112 454 63 C 408 13 350 -11 279 -11 Z M 278 89 C 317 89 349 102 373 130 C 397 158 410 194 410 238 C 407 281 393 315 369 341 C 345 367 314 380 277 380 C 238 380 206 366 182 339 C 158 312 146 278 146 236 C 146 192 158 157 182 130 C 206 102 238 89 278 89 Z" unicode="ð" />
<glyph horiz-adv-x="512" d="M 173 524 L 107 524 C 107 561 116 591 133 613 C 150 635 173 646 201 646 C 212 646 223 644 234 640 C 244 636 256 629 270 621 C 280 614 288 609 295 605 C 302 601 309 599 316 599 C 326 599 334 602 340 610 C 346 617 349 627 350 640 L 416 640 C 415 602 406 572 388 551 C 370 529 348 519 322 519 C 310 519 298 520 288 524 C 277 528 265 534 253 544 C 243 550 235 555 228 559 C 220 563 213 565 207 565 C 197 565 189 561 183 554 C 177 546 173 536 173 524 Z M 57 0 L 57 468 L 166 468 L 166 405 C 182 429 202 447 226 459 C 250 471 275 478 303 478 C 352 478 390 462 418 432 C 446 401 460 358 460 303 L 460 0 L 352 0 L 352 283 C 352 315 344 339 330 355 C 315 371 294 379 268 379 C 247 379 228 373 211 363 C 193 352 178 337 166 319 L 166 0 L 57 0 Z" unicode="ñ" />
<glyph horiz-adv-x="552" d="M 233 524 L 120 668 L 242 668 L 340 524 L 233 524 Z M 276 -11 C 204 -11 146 11 102 56 C 58 100 36 159 36 233 C 36 306 58 365 102 411 C 146 456 204 479 276 479 C 347 479 405 456 449 412 C 493 367 516 308 516 235 C 516 161 493 102 449 57 C 405 11 347 -11 276 -11 Z M 276 88 C 314 88 346 101 370 128 C 394 154 406 189 406 233 C 406 277 394 312 370 339 C 346 366 314 380 276 380 C 237 380 206 366 182 340 C 158 313 146 278 146 235 C 146 191 158 155 182 128 C 206 101 237 88 276 88 Z" unicode="ò" />
<glyph horiz-adv-x="552" d="M 322 524 L 215 524 L 314 668 L 435 668 L 322 524 Z M 276 -11 C 204 -11 146 11 102 56 C 58 100 36 159 36 233 C 36 306 58 365 102 411 C 146 456 204 479 276 479 C 347 479 405 456 449 412 C 493 367 516 308 516 235 C 516 161 493 102 449 57 C 405 11 347 -11 276 -11 Z M 276 88 C 314 88 346 101 370 128 C 394 154 406 189 406 233 C 406 277 394 312 370 339 C 346 366 314 380 276 380 C 237 380 206 366 182 340 C 158 313 146 278 146 235 C 146 191 158 155 182 128 C 206 101 237 88 276 88 Z" unicode="ó" />
<glyph horiz-adv-x="552" d="M 227 524 L 135 524 L 232 666 L 323 666 L 420 524 L 328 524 L 278 595 L 227 524 Z M 276 -11 C 204 -11 146 11 102 56 C 58 100 36 159 36 233 C 36 306 58 365 102 411 C 146 456 204 479 276 479 C 347 479 405 456 449 412 C 493 367 516 308 516 235 C 516 161 493 102 449 57 C 405 11 347 -11 276 -11 Z M 276 88 C 314 88 346 101 370 128 C 394 154 406 189 406 233 C 406 277 394 312 370 339 C 346 366 314 380 276 380 C 237 380 206 366 182 340 C 158 313 146 278 146 235 C 146 191 158 155 182 128 C 206 101 237 88 276 88 Z" unicode="ô" />
<glyph horiz-adv-x="552" d="M 190 524 L 124 524 C 124 561 133 591 150 613 C 167 635 190 646 218 646 C 229 646 240 644 251 640 C 261 636 273 629 287 621 C 297 614 305 609 312 605 C 319 601 326 599 333 599 C 343 599 351 602 357 610 C 363 617 366 627 367 640 L 433 640 C 432 602 423 572 405 551 C 387 529 365 519 339 519 C 327 519 315 520 305 524 C 294 528 282 534 270 544 C 260 550 252 555 245 559 C 237 563 230 565 224 565 C 214 565 206 561 200 554 C 194 546 190 536 190 524 Z M 276 -11 C 204 -11 146 11 102 56 C 58 100 36 159 36 233 C 36 306 58 365 102 411 C 146 456 204 479 276 479 C 347 479 405 456 449 412 C 493 367 516 308 516 235 C 516 161 493 102 449 57 C 405 11 347 -11 276 -11 Z M 276 88 C 314 88 346 101 370 128 C 394 154 406 189 406 233 C 406 277 394 312 370 339 C 346 366 314 380 276 380 C 237 380 206 366 182 340 C 158 313 146 278 146 235 C 146 191 158 155 182 128 C 206 101 237 88 276 88 Z" unicode="õ" />
<glyph horiz-adv-x="552" d="M 138 529 L 138 632 L 241 632 L 241 529 L 138 529 Z M 313 529 L 313 632 L 416 632 L 416 529 L 313 529 Z M 276 -11 C 204 -11 146 11 102 56 C 58 100 36 159 36 233 C 36 306 58 365 102 411 C 146 456 204 479 276 479 C 347 479 405 456 449 412 C 493 367 516 308 516 235 C 516 161 493 102 449 57 C 405 11 347 -11 276 -11 Z M 276 88 C 314 88 346 101 370 128 C 394 154 406 189 406 233 C 406 277 394 312 370 339 C 346 366 314 380 276 380 C 237 380 206 366 182 340 C 158 313 146 278 146 235 C 146 191 158 155 182 128 C 206 101 237 88 276 88 Z" unicode="ö" />
<glyph horiz-adv-x="504" d="M 200 424 L 200 522 L 297 522 L 297 424 L 200 424 Z M 47 245 L 47 340 L 457 340 L 457 245 L 47 245 Z M 200 63 L 200 161 L 297 161 L 297 63 L 200 63 Z" unicode="÷" />
<glyph horiz-adv-x="552" d="M 59 -48 L 114 44 C 89 65 70 92 56 124 C 42 156 36 193 36 233 C 36 306 58 365 102 411 C 146 456 204 479 276 479 C 292 479 308 477 324 475 C 339 472 353 468 367 464 L 398 516 L 491 516 L 436 425 C 461 403 481 376 495 344 C 509 311 516 275 516 235 C 516 161 493 102 449 57 C 405 11 347 -11 276 -11 C 259 -11 243 -9 227 -7 C 211 -4 197 0 183 4 L 152 -48 L 59 -48 Z M 146 235 C 146 216 148 199 152 183 C 156 167 163 153 172 141 L 313 375 C 307 376 301 377 295 378 C 289 379 282 380 276 380 C 237 380 206 366 182 340 C 158 313 146 278 146 235 Z M 276 88 C 314 88 346 101 370 128 C 394 154 406 189 406 233 C 406 251 403 269 399 285 C 394 301 387 316 379 329 L 237 93 C 243 91 249 90 256 89 C 262 88 269 88 276 88 Z" unicode="ø" />
<glyph horiz-adv-x="513" d="M 212 524 L 99 668 L 221 668 L 319 524 L 212 524 Z M 209 -11 C 160 -11 122 5 94 37 C 66 69 53 112 53 166 L 53 468 L 162 468 L 162 184 C 162 154 169 131 185 114 C 200 96 221 88 247 88 C 269 88 289 93 306 104 C 322 115 336 130 347 148 L 347 468 L 456 468 L 456 0 L 356 0 L 347 63 C 330 39 310 20 288 8 C 266 -4 239 -11 209 -11 Z" unicode="ù" />
<glyph horiz-adv-x="513" d="M 301 524 L 194 524 L 293 668 L 414 668 L 301 524 Z M 209 -11 C 160 -11 122 5 94 37 C 66 69 53 112 53 166 L 53 468 L 162 468 L 162 184 C 162 154 169 131 185 114 C 200 96 221 88 247 88 C 269 88 289 93 306 104 C 322 115 336 130 347 148 L 347 468 L 456 468 L 456 0 L 356 0 L 347 63 C 330 39 310 20 288 8 C 266 -4 239 -11 209 -11 Z" unicode="ú" />
<glyph horiz-adv-x="513" d="M 206 524 L 114 524 L 211 666 L 302 666 L 399 524 L 307 524 L 257 595 L 206 524 Z M 209 -11 C 160 -11 122 5 94 37 C 66 69 53 112 53 166 L 53 468 L 162 468 L 162 184 C 162 154 169 131 185 114 C 200 96 221 88 247 88 C 269 88 289 93 306 104 C 322 115 336 130 347 148 L 347 468 L 456 468 L 456 0 L 356 0 L 347 63 C 330 39 310 20 288 8 C 266 -4 239 -11 209 -11 Z" unicode="û" />
<glyph horiz-adv-x="513" d="M 117 529 L 117 632 L 220 632 L 220 529 L 117 529 Z M 292 529 L 292 632 L 395 632 L 395 529 L 292 529 Z M 209 -11 C 160 -11 122 5 94 37 C 66 69 53 112 53 166 L 53 468 L 162 468 L 162 184 C 162 154 169 131 185 114 C 200 96 221 88 247 88 C 269 88 289 93 306 104 C 322 115 336 130 347 148 L 347 468 L 456 468 L 456 0 L 356 0 L 347 63 C 330 39 310 20 288 8 C 266 -4 239 -11 209 -11 Z" unicode="ü" />
<glyph horiz-adv-x="487" d="M 289 524 L 182 524 L 281 668 L 402 668 L 289 524 Z M 12 -213 L 4 -213 L 4 -113 L 12 -113 C 57 -113 93 -105 120 -91 C 147 -77 169 -51 186 -14 L 175 16 L 12 468 L 128 468 L 221 195 L 245 114 L 270 195 L 364 468 L 474 468 L 317 35 C 283 -60 244 -125 200 -160 C 156 -195 93 -213 12 -213 Z" unicode="ý" />
<glyph horiz-adv-x="522" d="M 57 -213 L 57 718 L 166 718 L 166 417 C 180 437 199 453 221 463 C 243 473 268 478 296 478 C 352 478 398 456 434 413 C 469 369 487 313 487 245 C 487 167 466 105 424 59 C 382 13 327 -10 259 -10 C 244 -10 228 -8 212 -5 C 196 -1 180 2 166 8 L 166 -213 L 57 -213 Z M 249 85 C 287 85 318 98 342 125 C 366 152 378 189 378 236 C 378 280 367 315 345 341 C 323 367 294 380 258 380 C 239 380 222 376 206 369 C 190 362 176 352 166 340 L 166 102 C 178 96 192 92 206 89 C 220 86 234 85 249 85 Z" unicode="þ" />
<glyph horiz-adv-x="487" d="M 105 529 L 105 632 L 208 632 L 208 529 L 105 529 Z M 280 529 L 280 632 L 383 632 L 383 529 L 280 529 Z M 12 -213 L 4 -213 L 4 -113 L 12 -113 C 57 -113 93 -105 120 -91 C 147 -77 169 -51 186 -14 L 175 16 L 12 468 L 128 468 L 221 195 L 245 114 L 270 195 L 364 468 L 474 468 L 317 35 C 283 -60 244 -125 200 -160 C 156 -195 93 -213 12 -213 Z" unicode="ÿ" />
<glyph horiz-adv-x="664" d="M 221 711 L 221 789 L 448 789 L 448 711 L 221 711 Z M 17 0 L 279 661 L 384 661 L 646 0 L 525 0 L 461 168 L 196 168 L 132 0 L 17 0 Z M 233 268 L 424 268 L 362 429 L 328 523 L 294 429 L 233 268 Z" unicode="Ā" />
<glyph horiz-adv-x="473" d="M 111 532 L 111 619 L 357 619 L 357 532 L 111 532 Z M 181 -10 C 137 -10 103 2 77 27 C 51 51 38 84 38 125 C 38 169 53 204 83 231 C 113 258 157 276 216 285 L 309 300 L 309 318 C 309 340 300 357 284 368 C 267 378 243 384 212 384 C 185 384 158 380 132 372 C 106 364 81 354 59 341 L 59 445 C 85 455 113 463 143 471 C 173 478 201 482 228 482 C 290 482 337 468 369 440 C 401 412 418 373 418 321 L 418 0 L 318 0 L 310 63 C 296 40 278 22 255 9 C 232 -3 207 -10 181 -10 Z M 215 77 C 236 77 255 82 273 94 C 290 105 302 120 309 139 L 309 224 L 230 212 C 203 208 182 199 168 187 C 153 174 146 157 146 137 C 146 118 152 103 164 93 C 176 82 193 77 215 77 Z" unicode="ā" />
<glyph horiz-adv-x="664" d="M 333 702 C 297 702 268 713 247 737 C 225 760 215 791 215 831 L 281 831 C 281 812 285 797 295 787 C 304 776 317 771 333 771 C 349 771 361 776 371 787 C 380 797 385 812 385 831 L 451 831 C 451 791 440 760 419 737 C 397 713 369 702 333 702 Z M 17 0 L 279 661 L 384 661 L 646 0 L 525 0 L 461 168 L 196 168 L 132 0 L 17 0 Z M 233 268 L 424 268 L 362 429 L 328 523 L 294 429 L 233 268 Z" unicode="Ă" />
<glyph horiz-adv-x="473" d="M 233 516 C 194 516 163 528 140 554 C 116 579 105 613 105 656 L 177 656 C 177 636 182 621 192 609 C 202 597 216 592 233 592 C 249 592 263 597 273 609 C 283 621 289 636 289 656 L 361 656 C 361 613 349 579 326 554 C 302 528 271 516 233 516 Z M 181 -10 C 137 -10 103 2 77 27 C 51 51 38 84 38 125 C 38 169 53 204 83 231 C 113 258 157 276 216 285 L 309 300 L 309 318 C 309 340 300 357 284 368 C 267 378 243 384 212 384 C 185 384 158 380 132 372 C 106 364 81 354 59 341 L 59 445 C 85 455 113 463 143 471 C 173 478 201 482 228 482 C 290 482 337 468 369 440 C 401 412 418 373 418 321 L 418 0 L 318 0 L 310 63 C 296 40 278 22 255 9 C 232 -3 207 -10 181 -10 Z M 215 77 C 236 77 255 82 273 94 C 290 105 302 120 309 139 L 309 224 L 230 212 C 203 208 182 199 168 187 C 153 174 146 157 146 137 C 146 118 152 103 164 93 C 176 82 193 77 215 77 Z" unicode="ă" />
<glyph horiz-adv-x="664" d="M 17 0 L 279 661 L 384 661 L 646 0 L 639 0 C 617 0 600 -6 586 -18 C 572 -30 565 -46 565 -68 C 565 -86 572 -102 587 -114 C 601 -126 620 -133 644 -133 L 644 -220 C 592 -220 551 -208 520 -184 C 489 -160 474 -129 474 -91 C 474 -70 478 -51 486 -34 C 494 -16 506 -2 521 9 L 461 168 L 196 168 L 132 0 L 17 0 Z M 233 268 L 424 268 L 362 429 L 328 523 L 294 429 L 233 268 Z" unicode="Ą" />
<glyph horiz-adv-x="473" d="M 181 -10 C 137 -10 103 2 77 27 C 51 51 38 84 38 125 C 38 169 53 204 83 231 C 113 258 157 276 216 285 L 309 300 L 309 318 C 309 340 300 357 284 368 C 267 378 243 384 212 384 C 185 384 158 380 132 372 C 106 364 81 354 59 341 L 59 445 C 85 455 113 463 143 471 C 173 478 201 482 228 482 C 290 482 337 468 369 440 C 401 412 418 373 418 321 L 418 0 C 396 -6 378 -15 366 -29 C 353 -43 347 -59 347 -78 C 347 -94 353 -108 366 -118 C 378 -128 395 -133 417 -133 L 417 -220 C 367 -220 328 -211 299 -194 C 269 -176 255 -149 255 -111 C 255 -88 260 -67 272 -49 C 283 -31 299 -14 320 0 L 318 0 L 310 63 C 296 40 278 22 255 9 C 232 -3 207 -10 181 -10 Z M 215 77 C 236 77 255 82 273 94 C 290 105 302 120 309 139 L 309 224 L 230 212 C 203 208 182 199 168 187 C 153 174 146 157 146 137 C 146 118 152 103 164 93 C 176 82 193 77 215 77 Z" unicode="ą" />
<glyph horiz-adv-x="657" d="M 435 719 L 338 719 L 429 851 L 539 851 L 435 719 Z M 401 -15 C 292 -15 205 16 141 79 C 76 141 44 225 44 329 C 44 432 76 515 141 578 C 205 641 292 673 401 673 C 437 673 472 669 505 661 C 538 653 571 641 603 625 L 603 512 C 571 531 538 545 506 555 C 473 564 438 569 401 569 C 327 569 268 547 224 503 C 180 459 158 401 158 329 C 158 256 180 198 225 154 C 270 110 329 89 401 89 C 441 89 477 94 511 105 C 544 115 577 131 610 152 L 610 39 C 577 20 543 6 509 -2 C 475 -10 439 -15 401 -15 Z" unicode="Ć" />
<glyph horiz-adv-x="463" d="M 313 524 L 206 524 L 305 668 L 426 668 L 313 524 Z M 279 -10 C 204 -10 145 11 101 55 C 57 98 36 157 36 233 C 36 309 57 368 101 412 C 145 456 204 478 278 478 C 302 478 326 475 350 469 C 374 463 397 454 419 443 L 419 333 C 398 347 376 358 354 366 C 332 373 308 377 284 377 C 241 377 207 364 182 340 C 157 315 145 280 145 234 C 145 188 157 153 183 128 C 209 103 243 91 286 91 C 310 91 334 95 358 105 C 381 114 402 126 421 141 L 421 31 C 401 18 378 8 353 1 C 328 -6 303 -10 279 -10 Z" unicode="ć" />
<glyph horiz-adv-x="657" d="M 342 719 L 258 719 L 348 850 L 431 850 L 521 719 L 437 719 L 389 785 L 342 719 Z M 401 -15 C 292 -15 205 16 141 79 C 76 141 44 225 44 329 C 44 432 76 515 141 578 C 205 641 292 673 401 673 C 437 673 472 669 505 661 C 538 653 571 641 603 625 L 603 512 C 571 531 538 545 506 555 C 473 564 438 569 401 569 C 327 569 268 547 224 503 C 180 459 158 401 158 329 C 158 256 180 198 225 154 C 270 110 329 89 401 89 C 441 89 477 94 511 105 C 544 115 577 131 610 152 L 610 39 C 577 20 543 6 509 -2 C 475 -10 439 -15 401 -15 Z" unicode="Ĉ" />
<glyph horiz-adv-x="463" d="M 218 524 L 126 524 L 223 666 L 314 666 L 411 524 L 319 524 L 269 595 L 218 524 Z M 279 -10 C 204 -10 145 11 101 55 C 57 98 36 157 36 233 C 36 309 57 368 101 412 C 145 456 204 478 278 478 C 302 478 326 475 350 469 C 374 463 397 454 419 443 L 419 333 C 398 347 376 358 354 366 C 332 373 308 377 284 377 C 241 377 207 364 182 340 C 157 315 145 280 145 234 C 145 188 157 153 183 128 C 209 103 243 91 286 91 C 310 91 334 95 358 105 C 381 114 402 126 421 141 L 421 31 C 401 18 378 8 353 1 C 328 -6 303 -10 279 -10 Z" unicode="ĉ" />
<glyph horiz-adv-x="657" d="M 341 719 L 341 819 L 440 819 L 440 719 L 341 719 Z M 401 -15 C 292 -15 205 16 141 79 C 76 141 44 225 44 329 C 44 432 76 515 141 578 C 205 641 292 673 401 673 C 437 673 472 669 505 661 C 538 653 571 641 603 625 L 603 512 C 571 531 538 545 506 555 C 473 564 438 569 401 569 C 327 569 268 547 224 503 C 180 459 158 401 158 329 C 158 256 180 198 225 154 C 270 110 329 89 401 89 C 441 89 477 94 511 105 C 544 115 577 131 610 152 L 610 39 C 577 20 543 6 509 -2 C 475 -10 439 -15 401 -15 Z" unicode="Ċ" />
<glyph horiz-adv-x="463" d="M 213 528 L 213 638 L 322 638 L 322 528 L 213 528 Z M 279 -10 C 204 -10 145 11 101 55 C 57 98 36 157 36 233 C 36 309 57 368 101 412 C 145 456 204 478 278 478 C 302 478 326 475 350 469 C 374 463 397 454 419 443 L 419 333 C 398 347 376 358 354 366 C 332 373 308 377 284 377 C 241 377 207 364 182 340 C 157 315 145 280 145 234 C 145 188 157 153 183 128 C 209 103 243 91 286 91 C 310 91 334 95 358 105 C 381 114 402 126 421 141 L 421 31 C 401 18 378 8 353 1 C 328 -6 303 -10 279 -10 Z" unicode="ċ" />
<glyph horiz-adv-x="657" d="M 348 716 L 258 847 L 342 847 L 389 781 L 437 847 L 521 847 L 431 716 L 348 716 Z M 401 -15 C 292 -15 205 16 141 79 C 76 141 44 225 44 329 C 44 432 76 515 141 578 C 205 641 292 673 401 673 C 437 673 472 669 505 661 C 538 653 571 641 603 625 L 603 512 C 571 531 538 545 506 555 C 473 564 438 569 401 569 C 327 569 268 547 224 503 C 180 459 158 401 158 329 C 158 256 180 198 225 154 C 270 110 329 89 401 89 C 441 89 477 94 511 105 C 544 115 577 131 610 152 L 610 39 C 577 20 543 6 509 -2 C 475 -10 439 -15 401 -15 Z" unicode="Č" />
<glyph horiz-adv-x="463" d="M 223 524 L 126 666 L 218 666 L 269 594 L 319 666 L 411 666 L 314 524 L 223 524 Z M 279 -10 C 204 -10 145 11 101 55 C 57 98 36 157 36 233 C 36 309 57 368 101 412 C 145 456 204 478 278 478 C 302 478 326 475 350 469 C 374 463 397 454 419 443 L 419 333 C 398 347 376 358 354 366 C 332 373 308 377 284 377 C 241 377 207 364 182 340 C 157 315 145 280 145 234 C 145 188 157 153 183 128 C 209 103 243 91 286 91 C 310 91 334 95 358 105 C 381 114 402 126 421 141 L 421 31 C 401 18 378 8 353 1 C 328 -6 303 -10 279 -10 Z" unicode="č" />
<glyph horiz-adv-x="686" d="M 251 708 L 161 839 L 245 839 L 292 773 L 340 839 L 424 839 L 334 708 L 251 708 Z M 69 0 L 69 658 L 286 658 C 394 658 480 628 545 570 C 609 512 642 434 642 337 C 642 235 609 153 543 92 C 477 30 388 0 278 0 L 69 0 Z M 181 105 L 284 105 C 358 105 418 126 463 168 C 507 210 530 267 530 337 C 530 402 508 454 465 494 C 421 533 364 553 292 553 L 181 553 L 181 105 Z" unicode="Ď" />
<glyph horiz-adv-x="711" d="M 237 -10 C 177 -10 128 11 91 53 C 54 95 36 153 36 227 C 36 304 56 365 97 410 C 138 455 191 478 257 478 C 275 478 293 475 312 471 C 331 466 348 459 363 451 L 363 718 L 471 718 L 471 0 L 372 0 L 363 63 C 350 40 332 22 309 9 C 286 -3 262 -10 237 -10 Z M 605 510 L 527 543 C 542 565 553 586 559 606 C 565 625 568 647 568 673 L 568 718 L 665 718 L 665 673 C 665 643 659 615 649 587 C 639 559 624 533 605 510 Z M 262 86 C 282 86 301 91 319 102 C 336 112 351 126 363 144 L 363 354 C 350 363 336 370 320 376 C 304 381 289 384 274 384 C 234 384 203 370 180 342 C 156 314 145 278 145 232 C 145 188 155 152 176 126 C 197 99 226 86 262 86 Z" unicode="ď" />
<glyph horiz-adv-x="708" d="M 72 0 L 72 279 L 23 279 L 23 375 L 72 375 L 72 658 L 289 658 C 397 658 483 628 548 570 C 612 512 645 434 645 337 C 645 235 612 153 546 92 C 480 30 391 0 281 0 L 72 0 Z M 184 105 L 287 105 C 361 105 421 126 466 168 C 510 210 533 267 533 337 C 533 402 511 454 468 494 C 424 533 367 553 295 553 L 184 553 L 184 375 L 293 375 L 293 279 L 184 279 L 184 105 Z" unicode="Đ" />
<glyph horiz-adv-x="528" d="M 237 -10 C 177 -10 128 11 91 53 C 54 95 36 153 36 227 C 36 304 56 365 97 410 C 138 455 191 478 257 478 C 275 478 293 475 312 471 C 331 466 348 459 363 451 L 363 544 L 299 544 L 299 634 L 363 634 L 363 718 L 471 718 L 471 634 L 527 634 L 527 544 L 471 544 L 471 0 L 372 0 L 363 63 C 350 40 332 22 309 9 C 286 -3 262 -10 237 -10 Z M 262 86 C 282 86 301 91 319 102 C 336 112 351 126 363 144 L 363 354 C 350 363 336 370 320 376 C 304 381 289 384 274 384 C 234 384 203 370 180 342 C 156 314 145 278 145 232 C 145 188 155 152 176 126 C 197 99 226 86 262 86 Z" unicode="đ" />
<glyph horiz-adv-x="520" d="M 158 711 L 158 789 L 385 789 L 385 711 L 158 711 Z M 69 0 L 69 658 L 452 658 L 452 553 L 181 553 L 181 386 L 442 386 L 442 280 L 181 280 L 181 105 L 461 105 L 461 0 L 69 0 Z" unicode="Ē" />
<glyph horiz-adv-x="496" d="M 134 532 L 134 619 L 380 619 L 380 532 L 134 532 Z M 272 -10 C 198 -10 140 12 98 56 C 56 100 36 159 36 235 C 36 307 55 366 95 411 C 134 455 187 478 254 478 C 318 478 368 457 405 415 C 441 373 460 312 460 231 L 460 199 L 147 199 C 147 163 160 134 185 113 C 209 92 243 82 287 82 C 312 82 338 86 366 94 C 393 102 420 115 447 132 L 447 32 C 418 18 389 7 359 0 C 329 -6 300 -10 272 -10 Z M 254 389 C 222 389 197 379 178 359 C 159 339 149 312 147 280 L 351 280 C 351 313 342 339 325 359 C 308 379 284 389 254 389 Z" unicode="ē" />
<glyph horiz-adv-x="520" d="M 270 702 C 234 702 205 713 184 737 C 162 760 152 791 152 831 L 218 831 C 218 812 222 797 232 787 C 241 776 254 771 270 771 C 286 771 298 776 308 787 C 317 797 322 812 322 831 L 388 831 C 388 791 377 760 356 737 C 334 713 306 702 270 702 Z M 69 0 L 69 658 L 452 658 L 452 553 L 181 553 L 181 386 L 442 386 L 442 280 L 181 280 L 181 105 L 461 105 L 461 0 L 69 0 Z" unicode="Ĕ" />
<glyph horiz-adv-x="496" d="M 256 516 C 217 516 186 528 163 554 C 139 579 128 613 128 656 L 200 656 C 200 636 205 621 215 609 C 225 597 239 592 256 592 C 272 592 286 597 296 609 C 306 621 312 636 312 656 L 384 656 C 384 613 372 579 349 554 C 325 528 294 516 256 516 Z M 272 -10 C 198 -10 140 12 98 56 C 56 100 36 159 36 235 C 36 307 55 366 95 411 C 134 455 187 478 254 478 C 318 478 368 457 405 415 C 441 373 460 312 460 231 L 460 199 L 147 199 C 147 163 160 134 185 113 C 209 92 243 82 287 82 C 312 82 338 86 366 94 C 393 102 420 115 447 132 L 447 32 C 418 18 389 7 359 0 C 329 -6 300 -10 272 -10 Z M 254 389 C 222 389 197 379 178 359 C 159 339 149 312 147 280 L 351 280 C 351 313 342 339 325 359 C 308 379 284 389 254 389 Z" unicode="ĕ" />
<glyph horiz-adv-x="520" d="M 221 711 L 221 811 L 320 811 L 320 711 L 221 711 Z M 69 0 L 69 658 L 452 658 L 452 553 L 181 553 L 181 386 L 442 386 L 442 280 L 181 280 L 181 105 L 461 105 L 461 0 L 69 0 Z" unicode="Ė" />
<glyph horiz-adv-x="496" d="M 201 528 L 201 638 L 310 638 L 310 528 L 201 528 Z M 272 -10 C 198 -10 140 12 98 56 C 56 100 36 159 36 235 C 36 307 55 366 95 411 C 134 455 187 478 254 478 C 318 478 368 457 405 415 C 441 373 460 312 460 231 L 460 199 L 147 199 C 147 163 160 134 185 113 C 209 92 243 82 287 82 C 312 82 338 86 366 94 C 393 102 420 115 447 132 L 447 32 C 418 18 389 7 359 0 C 329 -6 300 -10 272 -10 Z M 254 389 C 222 389 197 379 178 359 C 159 339 149 312 147 280 L 351 280 C 351 313 342 339 325 359 C 308 379 284 389 254 389 Z" unicode="ė" />
<glyph horiz-adv-x="520" d="M 69 0 L 69 658 L 452 658 L 452 553 L 181 553 L 181 386 L 442 386 L 442 280 L 181 280 L 181 105 L 461 105 L 461 0 L 458 0 C 436 0 419 -6 405 -18 C 391 -30 384 -46 384 -68 C 384 -86 391 -102 406 -114 C 420 -126 439 -133 463 -133 L 463 -220 C 411 -220 370 -208 339 -184 C 308 -160 293 -129 293 -91 C 293 -72 296 -55 302 -40 C 308 -24 318 -11 330 0 L 69 0 Z" unicode="Ę" />
<glyph horiz-adv-x="496" d="M 425 -213 C 370 -213 326 -200 293 -176 C 259 -151 243 -119 243 -81 C 243 -67 244 -55 248 -43 C 252 -31 257 -20 264 -10 C 192 -8 136 14 96 58 C 56 102 36 161 36 235 C 36 307 55 366 95 411 C 134 455 187 478 254 478 C 318 478 368 457 405 415 C 441 373 460 312 460 231 L 460 199 L 147 199 C 147 163 160 134 185 113 C 209 92 243 82 287 82 C 312 82 338 86 366 94 C 393 102 420 115 447 132 L 447 32 C 438 27 429 23 419 19 C 409 15 399 12 390 8 C 374 1 362 -7 353 -19 C 344 -30 340 -44 340 -61 C 340 -80 347 -96 363 -109 C 379 -122 399 -129 425 -129 L 425 -213 Z M 254 389 C 222 389 197 379 178 359 C 159 339 149 312 147 280 L 351 280 C 351 313 342 339 325 359 C 308 379 284 389 254 389 Z" unicode="ę" />
<glyph horiz-adv-x="520" d="M 228 708 L 138 839 L 222 839 L 269 773 L 317 839 L 401 839 L 311 708 L 228 708 Z M 69 0 L 69 658 L 452 658 L 452 553 L 181 553 L 181 386 L 442 386 L 442 280 L 181 280 L 181 105 L 461 105 L 461 0 L 69 0 Z" unicode="Ě" />
<glyph horiz-adv-x="496" d="M 211 524 L 114 666 L 206 666 L 257 594 L 307 666 L 399 666 L 302 524 L 211 524 Z M 272 -10 C 198 -10 140 12 98 56 C 56 100 36 159 36 235 C 36 307 55 366 95 411 C 134 455 187 478 254 478 C 318 478 368 457 405 415 C 441 373 460 312 460 231 L 460 199 L 147 199 C 147 163 160 134 185 113 C 209 92 243 82 287 82 C 312 82 338 86 366 94 C 393 102 420 115 447 132 L 447 32 C 418 18 389 7 359 0 C 329 -6 300 -10 272 -10 Z M 254 389 C 222 389 197 379 178 359 C 159 339 149 312 147 280 L 351 280 C 351 313 342 339 325 359 C 308 379 284 389 254 389 Z" unicode="ě" />
<glyph horiz-adv-x="687" d="M 334 719 L 250 719 L 340 850 L 423 850 L 513 719 L 429 719 L 381 785 L 334 719 Z M 387 -15 C 282 -15 199 16 137 80 C 75 143 44 227 44 332 C 44 435 75 518 138 580 C 200 642 284 673 389 673 C 425 673 463 669 501 661 C 539 653 573 643 604 629 L 604 520 C 573 536 540 548 505 556 C 469 564 432 569 393 569 C 321 569 264 547 222 504 C 179 461 158 404 158 332 C 158 258 178 199 219 155 C 260 111 314 89 380 89 C 406 89 431 91 455 95 C 478 99 500 105 522 113 L 522 248 L 385 248 L 385 353 L 634 353 L 634 39 C 596 21 557 8 515 -1 C 473 -10 430 -15 387 -15 Z" unicode="Ĝ" />
<glyph horiz-adv-x="525" d="M 211 524 L 119 524 L 216 666 L 307 666 L 404 524 L 312 524 L 262 595 L 211 524 Z M 244 -222 C 212 -222 180 -218 150 -212 C 120 -206 91 -196 65 -184 L 65 -76 C 91 -90 117 -102 144 -111 C 171 -120 199 -125 227 -125 C 267 -125 299 -114 324 -92 C 348 -70 361 -40 361 0 L 361 43 C 346 25 328 12 306 3 C 284 -5 262 -10 239 -10 C 176 -10 126 11 90 53 C 54 95 36 154 36 230 C 36 303 56 363 98 409 C 139 455 193 478 261 478 C 283 478 307 473 333 464 C 359 454 379 442 395 426 L 419 468 L 469 468 L 469 11 C 469 -59 448 -116 407 -158 C 366 -200 312 -222 244 -222 Z M 264 86 C 284 86 302 90 319 99 C 335 107 349 118 361 131 L 361 357 C 350 364 336 370 320 375 C 304 380 288 383 273 383 C 233 383 201 368 179 338 C 156 308 145 273 145 231 C 145 187 155 151 176 125 C 196 99 226 86 264 86 Z" unicode="ĝ" />
<glyph horiz-adv-x="687" d="M 382 710 C 346 710 317 721 296 745 C 274 768 264 799 264 839 L 330 839 C 330 820 334 805 344 795 C 353 784 366 779 382 779 C 398 779 410 784 420 795 C 429 805 434 820 434 839 L 500 839 C 500 799 489 768 468 745 C 446 721 418 710 382 710 Z M 387 -15 C 282 -15 199 16 137 80 C 75 143 44 227 44 332 C 44 435 75 518 138 580 C 200 642 284 673 389 673 C 425 673 463 669 501 661 C 539 653 573 643 604 629 L 604 520 C 573 536 540 548 505 556 C 469 564 432 569 393 569 C 321 569 264 547 222 504 C 179 461 158 404 158 332 C 158 258 178 199 219 155 C 260 111 314 89 380 89 C 406 89 431 91 455 95 C 478 99 500 105 522 113 L 522 248 L 385 248 L 385 353 L 634 353 L 634 39 C 596 21 557 8 515 -1 C 473 -10 430 -15 387 -15 Z" unicode="Ğ" />
<glyph horiz-adv-x="525" d="M 261 516 C 222 516 191 528 168 554 C 144 579 133 613 133 656 L 205 656 C 205 636 210 621 220 609 C 230 597 244 592 261 592 C 277 592 291 597 301 609 C 311 621 317 636 317 656 L 389 656 C 389 613 377 579 354 554 C 330 528 299 516 261 516 Z M 244 -222 C 212 -222 180 -218 150 -212 C 120 -206 91 -196 65 -184 L 65 -76 C 91 -90 117 -102 144 -111 C 171 -120 199 -125 227 -125 C 267 -125 299 -114 324 -92 C 348 -70 361 -40 361 0 L 361 43 C 346 25 328 12 306 3 C 284 -5 262 -10 239 -10 C 176 -10 126 11 90 53 C 54 95 36 154 36 230 C 36 303 56 363 98 409 C 139 455 193 478 261 478 C 283 478 307 473 333 464 C 359 454 379 442 395 426 L 419 468 L 469 468 L 469 11 C 469 -59 448 -116 407 -158 C 366 -200 312 -222 244 -222 Z M 264 86 C 284 86 302 90 319 99 C 335 107 349 118 361 131 L 361 357 C 350 364 336 370 320 375 C 304 380 288 383 273 383 C 233 383 201 368 179 338 C 156 308 145 273 145 231 C 145 187 155 151 176 125 C 196 99 226 86 264 86 Z" unicode="ğ" />
<glyph horiz-adv-x="687" d="M 333 719 L 333 819 L 432 819 L 432 719 L 333 719 Z M 387 -15 C 282 -15 199 16 137 80 C 75 143 44 227 44 332 C 44 435 75 518 138 580 C 200 642 284 673 389 673 C 425 673 463 669 501 661 C 539 653 573 643 604 629 L 604 520 C 573 536 540 548 505 556 C 469 564 432 569 393 569 C 321 569 264 547 222 504 C 179 461 158 404 158 332 C 158 258 178 199 219 155 C 260 111 314 89 380 89 C 406 89 431 91 455 95 C 478 99 500 105 522 113 L 522 248 L 385 248 L 385 353 L 634 353 L 634 39 C 596 21 557 8 515 -1 C 473 -10 430 -15 387 -15 Z" unicode="Ġ" />
<glyph horiz-adv-x="525" d="M 206 528 L 206 638 L 315 638 L 315 528 L 206 528 Z M 244 -222 C 212 -222 180 -218 150 -212 C 120 -206 91 -196 65 -184 L 65 -76 C 91 -90 117 -102 144 -111 C 171 -120 199 -125 227 -125 C 267 -125 299 -114 324 -92 C 348 -70 361 -40 361 0 L 361 43 C 346 25 328 12 306 3 C 284 -5 262 -10 239 -10 C 176 -10 126 11 90 53 C 54 95 36 154 36 230 C 36 303 56 363 98 409 C 139 455 193 478 261 478 C 283 478 307 473 333 464 C 359 454 379 442 395 426 L 419 468 L 469 468 L 469 11 C 469 -59 448 -116 407 -158 C 366 -200 312 -222 244 -222 Z M 264 86 C 284 86 302 90 319 99 C 335 107 349 118 361 131 L 361 357 C 350 364 336 370 320 375 C 304 380 288 383 273 383 C 233 383 201 368 179 338 C 156 308 145 273 145 231 C 145 187 155 151 176 125 C 196 99 226 86 264 86 Z" unicode="ġ" />
<glyph horiz-adv-x="687" d="M 387 -15 C 282 -15 199 16 137 80 C 75 143 44 227 44 332 C 44 435 75 518 138 580 C 200 642 284 673 389 673 C 425 673 463 669 501 661 C 539 653 573 643 604 629 L 604 520 C 573 536 540 548 505 556 C 469 564 432 569 393 569 C 321 569 264 547 222 504 C 179 461 158 404 158 332 C 158 258 178 199 219 155 C 260 111 314 89 380 89 C 406 89 431 91 455 95 C 478 99 500 105 522 113 L 522 248 L 385 248 L 385 353 L 634 353 L 634 39 C 596 21 557 8 515 -1 C 473 -10 430 -15 387 -15 Z M 376 -248 L 305 -218 C 319 -197 329 -178 335 -160 C 340 -142 343 -121 343 -98 L 343 -56 L 431 -56 L 431 -98 C 431 -124 426 -150 417 -176 C 407 -202 394 -226 376 -248 Z" unicode="Ģ" />
<glyph horiz-adv-x="525" d="M 275 730 L 353 697 C 337 674 327 653 321 634 C 315 614 312 592 312 567 L 312 522 L 215 522 L 215 567 C 215 596 220 625 230 653 C 240 681 255 706 275 730 Z M 244 -222 C 212 -222 180 -218 150 -212 C 120 -206 91 -196 65 -184 L 65 -76 C 91 -90 117 -102 144 -111 C 171 -120 199 -125 227 -125 C 267 -125 299 -114 324 -92 C 348 -70 361 -40 361 0 L 361 43 C 346 25 328 12 306 3 C 284 -5 262 -10 239 -10 C 176 -10 126 11 90 53 C 54 95 36 154 36 230 C 36 303 56 363 98 409 C 139 455 193 478 261 478 C 283 478 307 473 333 464 C 359 454 379 442 395 426 L 419 468 L 469 468 L 469 11 C 469 -59 448 -116 407 -158 C 366 -200 312 -222 244 -222 Z M 264 86 C 284 86 302 90 319 99 C 335 107 349 118 361 131 L 361 357 C 350 364 336 370 320 375 C 304 380 288 383 273 383 C 233 383 201 368 179 338 C 156 308 145 273 145 231 C 145 187 155 151 176 125 C 196 99 226 86 264 86 Z" unicode="ģ" />
<glyph horiz-adv-x="692" d="M 300 711 L 216 711 L 306 842 L 389 842 L 479 711 L 395 711 L 347 777 L 300 711 Z M 69 0 L 69 658 L 181 658 L 181 387 L 511 387 L 511 658 L 623 658 L 623 0 L 511 0 L 511 282 L 181 282 L 181 0 L 69 0 Z" unicode="Ĥ" />
<glyph horiz-adv-x="512" d="M 63 741 L -29 741 L 68 883 L 159 883 L 256 741 L 164 741 L 114 812 L 63 741 Z M 57 0 L 57 718 L 166 718 L 166 405 C 182 429 202 447 226 459 C 250 471 275 478 303 478 C 352 478 390 462 418 432 C 446 401 460 358 460 303 L 460 0 L 352 0 L 352 283 C 352 315 344 339 330 355 C 315 371 294 379 268 379 C 247 379 228 373 211 363 C 193 352 178 337 166 319 L 166 0 L 57 0 Z" unicode="ĥ" />
<glyph horiz-adv-x="725" d="M 85 0 L 85 467 L 32 467 L 32 564 L 85 564 L 85 658 L 197 658 L 197 564 L 527 564 L 527 658 L 639 658 L 639 564 L 693 564 L 693 467 L 639 467 L 639 0 L 527 0 L 527 276 L 197 276 L 197 0 L 85 0 Z M 197 381 L 527 381 L 527 467 L 197 467 L 197 381 Z" unicode="Ħ" />
<glyph horiz-adv-x="512" d="M 57 0 L 57 544 L 9 544 L 9 634 L 57 634 L 57 718 L 166 718 L 166 634 L 236 634 L 236 544 L 166 544 L 166 405 C 182 429 202 447 226 459 C 250 471 275 478 303 478 C 352 478 390 462 418 432 C 446 401 460 358 460 303 L 460 0 L 352 0 L 352 283 C 352 315 344 339 330 355 C 315 371 294 379 268 379 C 247 379 228 373 211 363 C 193 352 178 337 166 319 L 166 0 L 57 0 Z" unicode="ħ" />
<glyph horiz-adv-x="250" d="M 45 711 L -15 711 C -14 745 -6 772 9 792 C 25 812 45 822 71 822 C 81 822 91 820 101 816 C 111 812 122 806 135 798 C 144 792 152 788 159 784 C 165 780 172 779 179 779 C 187 779 194 782 200 789 C 206 795 209 805 210 818 L 270 818 C 269 782 261 755 245 735 C 229 715 208 705 184 705 C 172 705 162 706 152 710 C 142 714 131 720 120 729 C 111 735 103 740 96 744 C 89 747 83 749 77 749 C 67 749 60 745 54 739 C 48 732 45 723 45 711 Z M 69 0 L 69 658 L 181 658 L 181 0 L 69 0 Z" unicode="Ĩ" />
<glyph horiz-adv-x="230" d="M 30 524 L -36 524 C -35 561 -26 591 -9 613 C 7 635 30 646 58 646 C 69 646 80 644 91 640 C 101 636 113 629 127 621 C 137 614 145 609 152 605 C 159 601 166 599 173 599 C 183 599 191 602 197 610 C 203 617 206 627 207 640 L 273 640 C 272 602 263 572 245 551 C 227 529 205 519 179 519 C 167 519 155 520 145 524 C 134 528 122 534 110 544 C 100 550 92 555 85 559 C 77 563 70 565 64 565 C 54 565 46 561 40 554 C 34 546 30 536 30 524 Z M 60 0 L 60 468 L 169 468 L 169 0 L 60 0 Z" unicode="ĩ" />
<glyph horiz-adv-x="250" d="M 16 711 L 16 789 L 243 789 L 243 711 L 16 711 Z M 69 0 L 69 658 L 181 658 L 181 0 L 69 0 Z" unicode="Ī" />
<glyph horiz-adv-x="230" d="M -5 532 L -5 619 L 241 619 L 241 532 L -5 532 Z M 60 0 L 60 468 L 169 468 L 169 0 L 60 0 Z" unicode="ī" />
<glyph horiz-adv-x="250" d="M 128 702 C 92 702 63 713 42 737 C 20 760 10 791 10 831 L 76 831 C 76 812 80 797 90 787 C 99 776 112 771 128 771 C 144 771 156 776 166 787 C 175 797 180 812 180 831 L 246 831 C 246 791 235 760 214 737 C 192 713 164 702 128 702 Z M 69 0 L 69 658 L 181 658 L 181 0 L 69 0 Z" unicode="Ĭ" />
<glyph horiz-adv-x="230" d="M 117 516 C 78 516 47 528 24 554 C 0 579 -11 613 -11 656 L 61 656 C 61 636 66 621 76 609 C 86 597 100 592 117 592 C 133 592 147 597 157 609 C 167 621 173 636 173 656 L 245 656 C 245 613 233 579 210 554 C 186 528 155 516 117 516 Z M 60 0 L 60 468 L 169 468 L 169 0 L 60 0 Z" unicode="ĭ" />
<glyph horiz-adv-x="250" d="M 69 0 L 69 658 L 181 658 L 181 0 L 69 0 Z" unicode="Į" />
<glyph horiz-adv-x="231" d="M 60 597 L 60 705 L 171 705 L 171 597 L 60 597 Z M 61 0 L 61 468 L 170 468 L 170 0 L 161 0 C 139 -6 121 -15 109 -29 C 96 -43 90 -59 90 -78 C 90 -94 96 -108 109 -118 C 121 -128 138 -133 160 -133 L 160 -220 C 110 -220 71 -211 42 -194 C 12 -176 -2 -149 -2 -111 C -2 -88 3 -67 15 -49 C 26 -31 42 -14 63 0 L 61 0 Z" unicode="į" />
<glyph horiz-adv-x="250" d="M 79 711 L 79 811 L 178 811 L 178 711 L 79 711 Z M 69 0 L 69 658 L 181 658 L 181 0 L 69 0 Z" unicode="İ" />
<glyph horiz-adv-x="230" d="M 60 0 L 60 468 L 169 468 L 169 0 L 60 0 Z" unicode="ı" />
<glyph horiz-adv-x="249" d="M 78 711 L -6 711 L 84 842 L 167 842 L 257 711 L 173 711 L 125 777 L 78 711 Z M -19 -211 L -27 -211 L -27 -107 L -19 -107 C 7 -107 29 -98 45 -80 C 61 -62 69 -39 69 -10 L 69 658 L 181 658 L 181 -10 C 181 -71 162 -120 126 -156 C 90 -192 41 -211 -19 -211 Z" unicode="Ĵ" />
<glyph horiz-adv-x="223" d="M 66 524 L -26 524 L 71 666 L 162 666 L 259 524 L 167 524 L 117 595 L 66 524 Z M -23 -211 L -31 -211 L -31 -111 L -23 -111 C 1 -111 21 -103 36 -87 C 51 -71 59 -49 59 -22 L 59 468 L 168 468 L 168 -22 C 168 -80 150 -126 116 -160 C 81 -194 35 -211 -23 -211 Z" unicode="ĵ" />
<glyph horiz-adv-x="619" d="M 69 0 L 69 658 L 181 658 L 181 361 L 441 658 L 577 658 L 296 344 L 599 0 L 451 0 L 181 311 L 181 0 L 69 0 Z M 309 -240 L 238 -210 C 252 -189 262 -170 268 -152 C 273 -134 276 -113 276 -90 L 276 -48 L 364 -48 L 364 -90 C 364 -116 359 -142 350 -168 C 340 -194 327 -218 309 -240 Z" unicode="Ķ" />
<glyph horiz-adv-x="492" d="M 57 0 L 57 718 L 166 718 L 166 261 L 336 468 L 463 468 L 275 247 L 479 0 L 345 0 L 166 221 L 166 0 L 57 0 Z M 243 -258 L 164 -225 C 180 -202 191 -181 197 -162 C 203 -142 206 -120 206 -95 L 206 -50 L 303 -50 L 303 -95 C 303 -124 297 -153 287 -181 C 276 -209 261 -234 243 -258 Z" unicode="ķ" />
<glyph horiz-adv-x="486" d="M 175 711 L 78 711 L 169 843 L 279 843 L 175 711 Z M 69 0 L 69 658 L 181 658 L 181 105 L 462 105 L 462 0 L 69 0 Z" unicode="Ĺ" />
<glyph horiz-adv-x="222" d="M 158 774 L 51 774 L 150 918 L 271 918 L 158 774 Z M 57 0 L 57 718 L 166 718 L 166 0 L 57 0 Z" unicode="ĺ" />
<glyph horiz-adv-x="486" d="M 69 0 L 69 658 L 181 658 L 181 105 L 462 105 L 462 0 L 69 0 Z M 269 -240 L 198 -210 C 212 -189 222 -170 228 -152 C 233 -134 236 -113 236 -90 L 236 -48 L 324 -48 L 324 -90 C 324 -116 319 -142 310 -168 C 300 -194 287 -218 269 -240 Z" unicode="Ļ" />
<glyph horiz-adv-x="222" d="M 57 0 L 57 718 L 166 718 L 166 0 L 57 0 Z M 103 -258 L 24 -225 C 40 -202 51 -181 57 -162 C 63 -142 66 -120 66 -95 L 66 -50 L 163 -50 L 163 -95 C 163 -124 157 -153 147 -181 C 136 -209 121 -234 103 -258 Z" unicode="ļ" />
<glyph horiz-adv-x="486" d="M 69 0 L 69 658 L 181 658 L 181 105 L 462 105 L 462 0 L 69 0 Z M 351 450 L 273 483 C 288 505 299 526 305 546 C 311 565 314 587 314 613 L 314 658 L 411 658 L 411 613 C 411 583 405 555 395 527 C 385 499 370 473 351 450 Z" unicode="Ľ" />
<glyph horiz-adv-x="395" d="M 57 0 L 57 718 L 166 718 L 166 0 L 57 0 Z M 288 510 L 210 543 C 225 565 236 586 242 606 C 248 625 251 647 251 673 L 251 718 L 348 718 L 348 673 C 348 643 342 615 332 587 C 322 559 307 533 288 510 Z" unicode="ľ" />
<glyph horiz-adv-x="486" d="M 69 0 L 69 658 L 181 658 L 181 105 L 462 105 L 462 0 L 69 0 Z M 322 309 L 322 417 L 430 417 L 430 309 L 322 309 Z" unicode="Ŀ" />
<glyph horiz-adv-x="339" d="M 57 0 L 57 718 L 166 718 L 166 0 L 57 0 Z M 227 305 L 227 413 L 335 413 L 335 305 L 227 305 Z" unicode="ŀ" />
<glyph horiz-adv-x="486" d="M 69 0 L 69 291 L 8 275 L 8 374 L 69 390 L 69 658 L 181 658 L 181 420 L 273 445 L 273 346 L 181 321 L 181 105 L 462 105 L 462 0 L 69 0 Z" unicode="Ł" />
<glyph horiz-adv-x="222" d="M 57 0 L 57 308 L -7 291 L -7 385 L 57 401 L 57 718 L 166 718 L 166 429 L 228 445 L 228 352 L 166 336 L 166 0 L 57 0 Z" unicode="ł" />
<glyph horiz-adv-x="713" d="M 404 711 L 307 711 L 398 843 L 508 843 L 404 711 Z M 69 0 L 69 658 L 187 658 L 491 238 L 538 167 L 537 236 L 537 658 L 644 658 L 644 0 L 528 0 L 221 425 L 175 493 L 176 426 L 176 0 L 69 0 Z" unicode="Ń" />
<glyph horiz-adv-x="512" d="M 305 524 L 198 524 L 297 668 L 418 668 L 305 524 Z M 57 0 L 57 468 L 166 468 L 166 405 C 182 429 202 447 226 459 C 250 471 275 478 303 478 C 352 478 390 462 418 432 C 446 401 460 358 460 303 L 460 0 L 352 0 L 352 283 C 352 315 344 339 330 355 C 315 371 294 379 268 379 C 247 379 228 373 211 363 C 193 352 178 337 166 319 L 166 0 L 57 0 Z" unicode="ń" />
<glyph horiz-adv-x="713" d="M 69 0 L 69 658 L 187 658 L 491 238 L 538 167 L 537 236 L 537 658 L 644 658 L 644 0 L 528 0 L 221 425 L 175 493 L 176 426 L 176 0 L 69 0 Z M 355 -240 L 284 -210 C 298 -189 308 -170 314 -152 C 319 -134 322 -113 322 -90 L 322 -48 L 410 -48 L 410 -90 C 410 -116 405 -142 396 -168 C 386 -194 373 -218 355 -240 Z" unicode="Ņ" />
<glyph horiz-adv-x="512" d="M 57 0 L 57 468 L 166 468 L 166 405 C 182 429 202 447 226 459 C 250 471 275 478 303 478 C 352 478 390 462 418 432 C 446 401 460 358 460 303 L 460 0 L 352 0 L 352 283 C 352 315 344 339 330 355 C 315 371 294 379 268 379 C 247 379 228 373 211 363 C 193 352 178 337 166 319 L 166 0 L 57 0 Z M 250 -258 L 171 -225 C 187 -202 198 -181 204 -162 C 210 -142 213 -120 213 -95 L 213 -50 L 310 -50 L 310 -95 C 310 -124 304 -153 294 -181 C 283 -209 268 -234 250 -258 Z" unicode="ņ" />
<glyph horiz-adv-x="713" d="M 317 708 L 227 839 L 311 839 L 358 773 L 406 839 L 490 839 L 400 708 L 317 708 Z M 69 0 L 69 658 L 187 658 L 491 238 L 538 167 L 537 236 L 537 658 L 644 658 L 644 0 L 528 0 L 221 425 L 175 493 L 176 426 L 176 0 L 69 0 Z" unicode="Ň" />
<glyph horiz-adv-x="512" d="M 215 524 L 118 666 L 210 666 L 261 594 L 311 666 L 403 666 L 306 524 L 215 524 Z M 57 0 L 57 468 L 166 468 L 166 405 C 182 429 202 447 226 459 C 250 471 275 478 303 478 C 352 478 390 462 418 432 C 446 401 460 358 460 303 L 460 0 L 352 0 L 352 283 C 352 315 344 339 330 355 C 315 371 294 379 268 379 C 247 379 228 373 211 363 C 193 352 178 337 166 319 L 166 0 L 57 0 Z" unicode="ň" />
<glyph horiz-adv-x="713" d="M 69 0 L 69 658 L 175 658 L 498 239 L 538 182 L 537 239 L 537 658 L 644 658 L 644 -25 C 644 -83 626 -128 591 -162 C 555 -196 507 -213 447 -213 L 439 -213 L 439 -113 L 447 -113 C 475 -113 498 -105 515 -90 C 532 -75 541 -53 541 -25 L 541 0 L 215 425 L 175 483 L 176 426 L 176 0 L 69 0 Z" unicode="Ŋ" />
<glyph horiz-adv-x="512" d="M 273 -213 L 265 -213 L 265 -113 L 273 -113 C 297 -113 316 -105 330 -89 C 344 -73 352 -52 352 -26 L 352 281 C 352 310 344 333 328 349 C 312 365 289 374 261 374 C 239 374 221 369 205 359 C 189 349 176 335 166 319 L 166 0 L 57 0 L 57 468 L 166 468 L 166 405 C 182 429 202 447 225 459 C 248 471 275 478 305 478 C 353 478 391 462 419 432 C 446 401 460 358 460 303 L 460 -26 C 460 -83 443 -128 409 -162 C 375 -196 329 -213 273 -213 Z" unicode="ŋ" />
<glyph horiz-adv-x="774" d="M 277 719 L 277 797 L 504 797 L 504 719 L 277 719 Z M 387 -15 C 284 -15 201 17 138 81 C 75 145 44 227 44 329 C 44 430 76 513 140 577 C 204 641 287 673 387 673 C 487 673 569 641 633 579 C 697 516 729 433 729 329 C 729 225 697 141 635 79 C 572 16 489 -15 387 -15 Z M 387 88 C 455 88 510 110 552 154 C 594 198 616 256 616 329 C 616 401 594 460 552 504 C 510 548 455 570 387 570 C 319 570 263 548 221 504 C 179 460 158 401 158 329 C 158 256 179 198 221 154 C 263 110 319 88 387 88 Z" unicode="Ō" />
<glyph horiz-adv-x="552" d="M 155 532 L 155 619 L 401 619 L 401 532 L 155 532 Z M 276 -11 C 204 -11 146 11 102 56 C 58 100 36 159 36 233 C 36 306 58 365 102 411 C 146 456 204 479 276 479 C 347 479 405 456 449 412 C 493 367 516 308 516 235 C 516 161 493 102 449 57 C 405 11 347 -11 276 -11 Z M 276 88 C 314 88 346 101 370 128 C 394 154 406 189 406 233 C 406 277 394 312 370 339 C 346 366 314 380 276 380 C 237 380 206 366 182 340 C 158 313 146 278 146 235 C 146 191 158 155 182 128 C 206 101 237 88 276 88 Z" unicode="ō" />
<glyph horiz-adv-x="774" d="M 389 710 C 353 710 324 721 303 745 C 281 768 271 799 271 839 L 337 839 C 337 820 341 805 351 795 C 360 784 373 779 389 779 C 405 779 417 784 427 795 C 436 805 441 820 441 839 L 507 839 C 507 799 496 768 475 745 C 453 721 425 710 389 710 Z M 387 -15 C 284 -15 201 17 138 81 C 75 145 44 227 44 329 C 44 430 76 513 140 577 C 204 641 287 673 387 673 C 487 673 569 641 633 579 C 697 516 729 433 729 329 C 729 225 697 141 635 79 C 572 16 489 -15 387 -15 Z M 387 88 C 455 88 510 110 552 154 C 594 198 616 256 616 329 C 616 401 594 460 552 504 C 510 548 455 570 387 570 C 319 570 263 548 221 504 C 179 460 158 401 158 329 C 158 256 179 198 221 154 C 263 110 319 88 387 88 Z" unicode="Ŏ" />
<glyph horiz-adv-x="552" d="M 277 516 C 238 516 207 528 184 554 C 160 579 149 613 149 656 L 221 656 C 221 636 226 621 236 609 C 246 597 260 592 277 592 C 293 592 307 597 317 609 C 327 621 333 636 333 656 L 405 656 C 405 613 393 579 370 554 C 346 528 315 516 277 516 Z M 276 -11 C 204 -11 146 11 102 56 C 58 100 36 159 36 233 C 36 306 58 365 102 411 C 146 456 204 479 276 479 C 347 479 405 456 449 412 C 493 367 516 308 516 235 C 516 161 493 102 449 57 C 405 11 347 -11 276 -11 Z M 276 88 C 314 88 346 101 370 128 C 394 154 406 189 406 233 C 406 277 394 312 370 339 C 346 366 314 380 276 380 C 237 380 206 366 182 340 C 158 313 146 278 146 235 C 146 191 158 155 182 128 C 206 101 237 88 276 88 Z" unicode="ŏ" />
<glyph horiz-adv-x="774" d="M 271 719 L 355 853 L 448 853 L 356 719 L 271 719 Z M 417 719 L 509 853 L 603 853 L 502 719 L 417 719 Z M 387 -15 C 284 -15 201 17 138 81 C 75 145 44 227 44 329 C 44 430 76 513 140 577 C 204 641 287 673 387 673 C 487 673 569 641 633 579 C 697 516 729 433 729 329 C 729 225 697 141 635 79 C 572 16 489 -15 387 -15 Z M 387 88 C 455 88 510 110 552 154 C 594 198 616 256 616 329 C 616 401 594 460 552 504 C 510 548 455 570 387 570 C 319 570 263 548 221 504 C 179 460 158 401 158 329 C 158 256 179 198 221 154 C 263 110 319 88 387 88 Z" unicode="Ő" />
<glyph horiz-adv-x="552" d="M 149 523 L 239 669 L 342 669 L 242 523 L 149 523 Z M 308 523 L 407 669 L 510 669 L 401 523 L 308 523 Z M 276 -11 C 204 -11 146 11 102 56 C 58 100 36 159 36 233 C 36 306 58 365 102 411 C 146 456 204 479 276 479 C 347 479 405 456 449 412 C 493 367 516 308 516 235 C 516 161 493 102 449 57 C 405 11 347 -11 276 -11 Z M 276 88 C 314 88 346 101 370 128 C 394 154 406 189 406 233 C 406 277 394 312 370 339 C 346 366 314 380 276 380 C 237 380 206 366 182 340 C 158 313 146 278 146 235 C 146 191 158 155 182 128 C 206 101 237 88 276 88 Z" unicode="ő" />
<glyph horiz-adv-x="895" d="M 392 0 C 286 0 201 29 138 89 C 75 149 44 229 44 330 C 44 430 75 509 139 569 C 203 628 288 658 395 658 L 827 658 L 827 553 L 556 553 L 556 386 L 817 386 L 817 280 L 556 280 L 556 105 L 836 105 L 836 0 L 392 0 Z M 387 105 L 444 105 L 444 553 L 390 553 C 319 553 263 532 221 492 C 179 451 158 397 158 330 C 158 261 178 206 220 166 C 262 125 317 105 387 105 Z" unicode="Œ" />
<glyph horiz-adv-x="851" d="M 272 -10 C 200 -10 143 12 100 56 C 57 100 36 159 36 233 C 36 306 57 365 100 410 C 143 455 200 478 272 478 C 310 478 343 470 373 456 C 402 441 426 421 445 397 C 463 421 485 441 513 456 C 541 470 573 478 609 478 C 673 478 723 457 760 415 C 796 373 815 312 815 231 L 815 199 L 501 199 C 501 163 514 134 539 113 C 564 92 598 82 642 82 C 667 82 693 86 720 94 C 747 102 774 115 802 132 L 802 32 C 773 18 744 7 714 0 C 684 -6 655 -10 627 -10 C 587 -10 551 -2 520 12 C 489 26 464 46 446 72 C 427 47 403 27 373 12 C 343 -2 310 -10 272 -10 Z M 608 389 C 576 389 551 379 532 359 C 513 339 503 312 501 280 L 706 280 C 706 313 697 339 680 359 C 662 379 638 389 608 389 Z M 272 89 C 310 89 341 102 363 129 C 385 155 397 190 397 234 C 397 278 385 313 363 339 C 341 365 310 379 272 379 C 232 379 201 365 179 339 C 157 313 146 278 146 235 C 146 191 157 155 179 129 C 201 102 232 89 272 89 Z" unicode="œ" />
<glyph horiz-adv-x="550" d="M 295 711 L 198 711 L 289 843 L 399 843 L 295 711 Z M 407 0 L 338 194 C 329 220 316 239 300 252 C 284 264 264 271 240 271 L 181 271 L 181 0 L 69 0 L 69 658 L 262 658 C 327 658 378 641 416 609 C 453 576 472 533 472 481 C 472 442 461 408 441 378 C 420 348 390 327 350 315 C 372 308 392 297 408 281 C 424 265 438 244 448 218 L 529 0 L 407 0 Z M 181 366 L 260 366 C 290 366 314 375 332 393 C 350 411 359 434 359 463 C 359 491 349 514 331 531 C 313 548 288 557 258 557 L 181 557 L 181 366 Z" unicode="Ŕ" />
<glyph horiz-adv-x="331" d="M 233 524 L 126 524 L 225 668 L 346 668 L 233 524 Z M 57 0 L 57 468 L 166 468 L 166 399 C 176 425 191 444 210 458 C 229 471 249 478 271 478 C 279 478 287 477 295 476 C 302 475 309 474 316 472 L 316 353 C 306 356 295 359 285 361 C 274 363 263 364 252 364 C 234 364 217 360 202 352 C 186 344 174 333 166 321 L 166 0 L 57 0 Z" unicode="ŕ" />
<glyph horiz-adv-x="550" d="M 407 0 L 338 194 C 329 220 316 239 300 252 C 284 264 264 271 240 271 L 181 271 L 181 0 L 69 0 L 69 658 L 262 658 C 327 658 378 641 416 609 C 453 576 472 533 472 481 C 472 442 461 408 441 378 C 420 348 390 327 350 315 C 372 308 392 297 408 281 C 424 265 438 244 448 218 L 529 0 L 407 0 Z M 181 366 L 260 366 C 290 366 314 375 332 393 C 350 411 359 434 359 463 C 359 491 349 514 331 531 C 313 548 288 557 258 557 L 181 557 L 181 366 Z M 284 -240 L 213 -210 C 227 -189 237 -170 243 -152 C 248 -134 251 -113 251 -90 L 251 -48 L 339 -48 L 339 -90 C 339 -116 334 -142 325 -168 C 315 -194 302 -218 284 -240 Z" unicode="Ŗ" />
<glyph horiz-adv-x="331" d="M 57 0 L 57 468 L 166 468 L 166 399 C 176 425 191 444 210 458 C 229 471 249 478 271 478 C 279 478 287 477 295 476 C 302 475 309 474 316 472 L 316 353 C 306 356 295 359 285 361 C 274 363 263 364 252 364 C 234 364 217 360 202 352 C 186 344 174 333 166 321 L 166 0 L 57 0 Z M 104 -258 L 25 -225 C 41 -202 52 -181 58 -162 C 64 -142 67 -120 67 -95 L 67 -50 L 164 -50 L 164 -95 C 164 -124 158 -153 148 -181 C 137 -209 122 -234 104 -258 Z" unicode="ŗ" />
<glyph horiz-adv-x="550" d="M 208 708 L 118 839 L 202 839 L 249 773 L 297 839 L 381 839 L 291 708 L 208 708 Z M 407 0 L 338 194 C 329 220 316 239 300 252 C 284 264 264 271 240 271 L 181 271 L 181 0 L 69 0 L 69 658 L 262 658 C 327 658 378 641 416 609 C 453 576 472 533 472 481 C 472 442 461 408 441 378 C 420 348 390 327 350 315 C 372 308 392 297 408 281 C 424 265 438 244 448 218 L 529 0 L 407 0 Z M 181 366 L 260 366 C 290 366 314 375 332 393 C 350 411 359 434 359 463 C 359 491 349 514 331 531 C 313 548 288 557 258 557 L 181 557 L 181 366 Z" unicode="Ř" />
<glyph horiz-adv-x="331" d="M 143 524 L 46 666 L 138 666 L 189 594 L 239 666 L 331 666 L 234 524 L 143 524 Z M 57 0 L 57 468 L 166 468 L 166 399 C 176 425 191 444 210 458 C 229 471 249 478 271 478 C 279 478 287 477 295 476 C 302 475 309 474 316 472 L 316 353 C 306 356 295 359 285 361 C 274 363 263 364 252 364 C 234 364 217 360 202 352 C 186 344 174 333 166 321 L 166 0 L 57 0 Z" unicode="ř" />
<glyph horiz-adv-x="510" d="M 304 719 L 207 719 L 298 851 L 408 851 L 304 719 Z M 244 -15 C 210 -15 177 -11 145 -3 C 113 4 83 15 54 31 L 54 148 C 81 128 110 114 141 104 C 171 94 204 89 238 89 C 270 89 296 97 315 113 C 334 129 344 150 344 177 C 344 201 335 222 317 239 C 299 255 271 270 233 284 L 214 290 C 160 308 119 334 92 366 C 65 398 52 438 52 486 C 52 540 70 585 108 620 C 146 655 196 673 259 673 C 289 673 318 669 346 662 C 374 655 404 644 435 629 L 435 511 C 408 529 381 544 354 554 C 326 564 297 569 267 569 C 234 569 209 562 192 548 C 174 534 166 515 166 489 C 166 466 174 447 191 433 C 207 418 233 404 268 392 L 287 386 C 344 366 387 341 415 309 C 443 277 458 237 458 190 C 458 130 438 80 400 42 C 361 4 309 -15 244 -15 Z" unicode="Ś" />
<glyph horiz-adv-x="402" d="M 247 524 L 140 524 L 239 668 L 360 668 L 247 524 Z M 187 -10 C 163 -10 139 -7 113 -1 C 87 5 63 12 43 21 L 43 118 C 63 105 86 95 111 88 C 135 81 159 78 183 78 C 206 78 224 82 236 90 C 248 98 255 111 255 127 C 255 139 250 150 240 159 C 230 168 212 177 188 186 L 173 191 C 125 207 91 227 70 249 C 49 271 39 301 39 337 C 39 380 52 414 80 440 C 108 465 149 478 203 478 C 225 478 249 475 274 470 C 299 465 322 459 344 452 L 344 355 C 324 365 303 374 279 380 C 255 386 233 390 212 390 C 191 390 175 386 164 378 C 153 370 148 360 148 346 C 148 333 152 322 162 314 C 172 306 189 297 214 289 L 228 284 C 276 267 310 247 332 225 C 353 203 364 174 364 140 C 364 94 349 58 319 31 C 289 3 245 -10 187 -10 Z" unicode="ś" />
<glyph horiz-adv-x="510" d="M 211 719 L 127 719 L 217 850 L 300 850 L 390 719 L 306 719 L 258 785 L 211 719 Z M 244 -15 C 210 -15 177 -11 145 -3 C 113 4 83 15 54 31 L 54 148 C 81 128 110 114 141 104 C 171 94 204 89 238 89 C 270 89 296 97 315 113 C 334 129 344 150 344 177 C 344 201 335 222 317 239 C 299 255 271 270 233 284 L 214 290 C 160 308 119 334 92 366 C 65 398 52 438 52 486 C 52 540 70 585 108 620 C 146 655 196 673 259 673 C 289 673 318 669 346 662 C 374 655 404 644 435 629 L 435 511 C 408 529 381 544 354 554 C 326 564 297 569 267 569 C 234 569 209 562 192 548 C 174 534 166 515 166 489 C 166 466 174 447 191 433 C 207 418 233 404 268 392 L 287 386 C 344 366 387 341 415 309 C 443 277 458 237 458 190 C 458 130 438 80 400 42 C 361 4 309 -15 244 -15 Z" unicode="Ŝ" />
<glyph horiz-adv-x="402" d="M 152 524 L 60 524 L 157 666 L 248 666 L 345 524 L 253 524 L 203 595 L 152 524 Z M 187 -10 C 163 -10 139 -7 113 -1 C 87 5 63 12 43 21 L 43 118 C 63 105 86 95 111 88 C 135 81 159 78 183 78 C 206 78 224 82 236 90 C 248 98 255 111 255 127 C 255 139 250 150 240 159 C 230 168 212 177 188 186 L 173 191 C 125 207 91 227 70 249 C 49 271 39 301 39 337 C 39 380 52 414 80 440 C 108 465 149 478 203 478 C 225 478 249 475 274 470 C 299 465 322 459 344 452 L 344 355 C 324 365 303 374 279 380 C 255 386 233 390 212 390 C 191 390 175 386 164 378 C 153 370 148 360 148 346 C 148 333 152 322 162 314 C 172 306 189 297 214 289 L 228 284 C 276 267 310 247 332 225 C 353 203 364 174 364 140 C 364 94 349 58 319 31 C 289 3 245 -10 187 -10 Z" unicode="ŝ" />
<glyph horiz-adv-x="510" d="M 244 -15 C 210 -15 177 -11 145 -3 C 113 4 83 15 54 31 L 54 148 C 81 128 110 114 141 104 C 171 94 204 89 238 89 C 270 89 296 97 315 113 C 334 129 344 150 344 177 C 344 201 335 222 317 239 C 299 255 271 270 233 284 L 214 290 C 160 308 119 334 92 366 C 65 398 52 438 52 486 C 52 540 70 585 108 620 C 146 655 196 673 259 673 C 289 673 318 669 346 662 C 374 655 404 644 435 629 L 435 511 C 408 529 381 544 354 554 C 326 564 297 569 267 569 C 234 569 209 562 192 548 C 174 534 166 515 166 489 C 166 466 174 447 191 433 C 207 418 233 404 268 392 L 287 386 C 344 366 387 341 415 309 C 443 277 458 237 458 190 C 458 130 438 80 400 42 C 361 4 309 -15 244 -15 Z M 262 -218 C 251 -218 240 -217 229 -215 C 218 -213 208 -209 198 -205 L 198 -147 C 206 -151 215 -155 223 -158 C 231 -160 240 -162 248 -162 C 257 -162 264 -159 270 -154 C 276 -148 279 -141 279 -133 C 279 -123 276 -116 270 -110 C 264 -104 256 -102 246 -102 L 238 -102 L 238 -48 L 247 -48 C 277 -48 302 -55 321 -71 C 340 -87 350 -108 350 -134 C 350 -158 342 -178 326 -194 C 310 -210 288 -218 262 -218 Z" unicode="Ş" />
<glyph horiz-adv-x="402" d="M 187 -10 C 163 -10 139 -7 113 -1 C 87 5 63 12 43 21 L 43 118 C 63 105 86 95 111 88 C 135 81 159 78 183 78 C 206 78 224 82 236 90 C 248 98 255 111 255 127 C 255 139 250 150 240 159 C 230 168 212 177 188 186 L 173 191 C 125 207 91 227 70 249 C 49 271 39 301 39 337 C 39 380 52 414 80 440 C 108 465 149 478 203 478 C 225 478 249 475 274 470 C 299 465 322 459 344 452 L 344 355 C 324 365 303 374 279 380 C 255 386 233 390 212 390 C 191 390 175 386 164 378 C 153 370 148 360 148 346 C 148 333 152 322 162 314 C 172 306 189 297 214 289 L 228 284 C 276 267 310 247 332 225 C 353 203 364 174 364 140 C 364 94 349 58 319 31 C 289 3 245 -10 187 -10 Z M 218 -227 C 207 -227 195 -225 183 -223 C 171 -221 159 -217 149 -213 L 149 -150 C 158 -155 167 -159 177 -161 C 186 -163 195 -165 204 -165 C 214 -165 222 -162 228 -156 C 234 -150 237 -143 237 -134 C 237 -124 233 -117 227 -111 C 220 -105 212 -102 202 -102 L 192 -102 L 192 -42 L 202 -42 C 236 -42 263 -50 284 -67 C 304 -84 315 -107 315 -135 C 315 -162 306 -184 288 -201 C 270 -218 246 -227 218 -227 Z" unicode="ş" />
<glyph horiz-adv-x="510" d="M 217 716 L 127 847 L 211 847 L 258 781 L 306 847 L 390 847 L 300 716 L 217 716 Z M 244 -15 C 210 -15 177 -11 145 -3 C 113 4 83 15 54 31 L 54 148 C 81 128 110 114 141 104 C 171 94 204 89 238 89 C 270 89 296 97 315 113 C 334 129 344 150 344 177 C 344 201 335 222 317 239 C 299 255 271 270 233 284 L 214 290 C 160 308 119 334 92 366 C 65 398 52 438 52 486 C 52 540 70 585 108 620 C 146 655 196 673 259 673 C 289 673 318 669 346 662 C 374 655 404 644 435 629 L 435 511 C 408 529 381 544 354 554 C 326 564 297 569 267 569 C 234 569 209 562 192 548 C 174 534 166 515 166 489 C 166 466 174 447 191 433 C 207 418 233 404 268 392 L 287 386 C 344 366 387 341 415 309 C 443 277 458 237 458 190 C 458 130 438 80 400 42 C 361 4 309 -15 244 -15 Z" unicode="Š" />
<glyph horiz-adv-x="402" d="M 157 524 L 60 666 L 152 666 L 203 594 L 253 666 L 345 666 L 248 524 L 157 524 Z M 187 -10 C 163 -10 139 -7 113 -1 C 87 5 63 12 43 21 L 43 118 C 63 105 86 95 111 88 C 135 81 159 78 183 78 C 206 78 224 82 236 90 C 248 98 255 111 255 127 C 255 139 250 150 240 159 C 230 168 212 177 188 186 L 173 191 C 125 207 91 227 70 249 C 49 271 39 301 39 337 C 39 380 52 414 80 440 C 108 465 149 478 203 478 C 225 478 249 475 274 470 C 299 465 322 459 344 452 L 344 355 C 324 365 303 374 279 380 C 255 386 233 390 212 390 C 191 390 175 386 164 378 C 153 370 148 360 148 346 C 148 333 152 322 162 314 C 172 306 189 297 214 289 L 228 284 C 276 267 310 247 332 225 C 353 203 364 174 364 140 C 364 94 349 58 319 31 C 289 3 245 -10 187 -10 Z" unicode="š" />
<glyph horiz-adv-x="569" d="M 228 0 L 228 553 L 20 553 L 20 658 L 549 658 L 549 553 L 340 553 L 340 0 L 228 0 Z M 299 -212 C 288 -212 277 -211 266 -209 C 255 -207 245 -203 235 -199 L 235 -141 C 243 -145 252 -149 260 -152 C 268 -154 277 -156 285 -156 C 294 -156 301 -153 307 -148 C 313 -142 316 -135 316 -127 C 316 -117 313 -110 307 -104 C 301 -98 293 -96 283 -96 L 275 -96 L 275 -42 L 284 -42 C 314 -42 339 -49 358 -65 C 377 -81 387 -102 387 -128 C 387 -152 379 -172 363 -188 C 347 -204 325 -212 299 -212 Z" unicode="Ţ" />
<glyph horiz-adv-x="319" d="M 197 -10 C 161 -10 133 0 113 20 C 93 40 83 69 83 107 L 83 370 L 19 370 L 19 468 L 83 468 L 83 601 L 192 601 L 192 468 L 288 468 L 288 370 L 192 370 L 192 139 C 192 123 196 111 205 103 C 213 94 224 90 238 90 C 246 90 255 91 263 93 C 271 95 279 99 288 104 L 288 9 C 274 2 259 -2 243 -5 C 227 -8 211 -10 197 -10 Z M 212 -233 C 201 -233 189 -231 177 -229 C 165 -227 153 -223 143 -219 L 143 -156 C 152 -161 161 -165 171 -167 C 180 -169 189 -171 198 -171 C 208 -171 216 -168 222 -162 C 228 -156 231 -149 231 -140 C 231 -130 227 -123 221 -117 C 214 -111 206 -108 196 -108 L 186 -108 L 186 -48 L 196 -48 C 230 -48 257 -56 278 -73 C 298 -90 309 -113 309 -141 C 309 -168 300 -190 282 -207 C 264 -224 240 -233 212 -233 Z" unicode="ţ" />
<glyph horiz-adv-x="569" d="M 246 708 L 156 839 L 240 839 L 287 773 L 335 839 L 419 839 L 329 708 L 246 708 Z M 228 0 L 228 553 L 20 553 L 20 658 L 549 658 L 549 553 L 340 553 L 340 0 L 228 0 Z" unicode="Ť" />
<glyph horiz-adv-x="437" d="M 331 510 L 253 543 C 268 565 279 586 285 606 C 291 625 294 647 294 673 L 294 718 L 391 718 L 391 673 C 391 643 385 615 375 587 C 365 559 350 533 331 510 Z M 197 -10 C 161 -10 133 0 113 20 C 93 40 83 69 83 107 L 83 370 L 19 370 L 19 468 L 83 468 L 83 601 L 192 601 L 192 468 L 288 468 L 288 370 L 192 370 L 192 139 C 192 123 196 111 205 103 C 213 94 224 90 238 90 C 246 90 255 91 263 93 C 271 95 279 99 288 104 L 288 9 C 274 2 259 -2 243 -5 C 227 -8 211 -10 197 -10 Z" unicode="ť" />
<glyph horiz-adv-x="569" d="M 228 0 L 228 287 L 112 287 L 112 383 L 228 383 L 228 553 L 20 553 L 20 658 L 549 658 L 549 553 L 340 553 L 340 383 L 458 383 L 458 287 L 340 287 L 340 0 L 228 0 Z" unicode="Ŧ" />
<glyph horiz-adv-x="319" d="M 197 -10 C 161 -10 133 0 113 20 C 93 40 83 69 83 107 L 83 211 L 35 211 L 35 301 L 83 301 L 83 370 L 19 370 L 19 468 L 83 468 L 83 601 L 192 601 L 192 468 L 288 468 L 288 370 L 192 370 L 192 301 L 252 301 L 252 211 L 192 211 L 192 139 C 192 123 196 111 205 103 C 213 94 224 90 238 90 C 246 90 255 91 263 93 C 271 95 279 99 288 104 L 288 9 C 274 2 259 -2 243 -5 C 227 -8 211 -10 197 -10 Z" unicode="ŧ" />
<glyph horiz-adv-x="666" d="M 255 711 L 195 711 C 195 745 203 772 219 792 C 235 812 255 822 281 822 C 291 822 301 820 311 816 C 321 812 332 806 345 798 C 354 792 362 788 369 784 C 375 780 382 779 389 779 C 397 779 404 782 410 789 C 416 795 419 805 420 818 L 480 818 C 479 782 471 755 455 735 C 439 715 418 705 394 705 C 382 705 372 706 362 710 C 352 714 341 720 330 729 C 321 735 313 740 306 744 C 299 747 293 749 287 749 C 277 749 270 745 264 739 C 258 732 255 723 255 711 Z M 334 -12 C 250 -12 183 12 134 62 C 84 111 60 177 60 261 L 60 658 L 172 658 L 172 261 C 172 210 186 169 216 139 C 246 109 285 94 335 94 C 385 94 424 109 453 139 C 482 169 497 210 497 261 L 497 658 L 606 658 L 606 261 C 606 177 581 111 532 62 C 482 12 416 -12 334 -12 Z" unicode="Ũ" />
<glyph horiz-adv-x="513" d="M 169 524 L 103 524 C 103 561 112 591 129 613 C 146 635 169 646 197 646 C 208 646 219 644 230 640 C 240 636 252 629 266 621 C 276 614 284 609 291 605 C 298 601 305 599 312 599 C 322 599 330 602 336 610 C 342 617 345 627 346 640 L 412 640 C 411 602 402 572 384 551 C 366 529 344 519 318 519 C 306 519 294 520 284 524 C 273 528 261 534 249 544 C 239 550 231 555 224 559 C 216 563 209 565 203 565 C 193 565 185 561 179 554 C 173 546 169 536 169 524 Z M 209 -11 C 160 -11 122 5 94 37 C 66 69 53 112 53 166 L 53 468 L 162 468 L 162 184 C 162 154 169 131 185 114 C 200 96 221 88 247 88 C 269 88 289 93 306 104 C 322 115 336 130 347 148 L 347 468 L 456 468 L 456 0 L 356 0 L 347 63 C 330 39 310 20 288 8 C 266 -4 239 -11 209 -11 Z" unicode="ũ" />
<glyph horiz-adv-x="666" d="M 226 711 L 226 789 L 453 789 L 453 711 L 226 711 Z M 334 -12 C 250 -12 183 12 134 62 C 84 111 60 177 60 261 L 60 658 L 172 658 L 172 261 C 172 210 186 169 216 139 C 246 109 285 94 335 94 C 385 94 424 109 453 139 C 482 169 497 210 497 261 L 497 658 L 606 658 L 606 261 C 606 177 581 111 532 62 C 482 12 416 -12 334 -12 Z" unicode="Ū" />
<glyph horiz-adv-x="513" d="M 134 532 L 134 619 L 380 619 L 380 532 L 134 532 Z M 209 -11 C 160 -11 122 5 94 37 C 66 69 53 112 53 166 L 53 468 L 162 468 L 162 184 C 162 154 169 131 185 114 C 200 96 221 88 247 88 C 269 88 289 93 306 104 C 322 115 336 130 347 148 L 347 468 L 456 468 L 456 0 L 356 0 L 347 63 C 330 39 310 20 288 8 C 266 -4 239 -11 209 -11 Z" unicode="ū" />
<glyph horiz-adv-x="666" d="M 338 702 C 302 702 273 713 252 737 C 230 760 220 791 220 831 L 286 831 C 286 812 290 797 300 787 C 309 776 322 771 338 771 C 354 771 366 776 376 787 C 385 797 390 812 390 831 L 456 831 C 456 791 445 760 424 737 C 402 713 374 702 338 702 Z M 334 -12 C 250 -12 183 12 134 62 C 84 111 60 177 60 261 L 60 658 L 172 658 L 172 261 C 172 210 186 169 216 139 C 246 109 285 94 335 94 C 385 94 424 109 453 139 C 482 169 497 210 497 261 L 497 658 L 606 658 L 606 261 C 606 177 581 111 532 62 C 482 12 416 -12 334 -12 Z" unicode="Ŭ" />
<glyph horiz-adv-x="513" d="M 256 516 C 217 516 186 528 163 554 C 139 579 128 613 128 656 L 200 656 C 200 636 205 621 215 609 C 225 597 239 592 256 592 C 272 592 286 597 296 609 C 306 621 312 636 312 656 L 384 656 C 384 613 372 579 349 554 C 325 528 294 516 256 516 Z M 209 -11 C 160 -11 122 5 94 37 C 66 69 53 112 53 166 L 53 468 L 162 468 L 162 184 C 162 154 169 131 185 114 C 200 96 221 88 247 88 C 269 88 289 93 306 104 C 322 115 336 130 347 148 L 347 468 L 456 468 L 456 0 L 356 0 L 347 63 C 330 39 310 20 288 8 C 266 -4 239 -11 209 -11 Z" unicode="ŭ" />
<glyph horiz-adv-x="666" d="M 338 607 C 310 607 287 615 271 633 C 255 651 247 672 247 698 C 247 723 255 745 271 763 C 287 781 310 791 338 791 C 366 791 389 781 405 763 C 421 745 430 723 430 698 C 430 672 421 651 405 633 C 389 615 366 607 338 607 Z M 338 661 C 348 661 356 664 364 671 C 371 678 375 687 375 698 C 375 709 371 718 364 725 C 356 732 348 736 338 736 C 328 736 320 732 313 725 C 305 718 302 709 302 698 C 302 687 305 678 313 671 C 320 664 328 661 338 661 Z M 334 -12 C 250 -12 183 12 134 62 C 84 111 60 177 60 261 L 60 658 L 172 658 L 172 261 C 172 210 186 169 216 139 C 246 109 285 94 335 94 C 385 94 424 109 453 139 C 482 169 497 210 497 261 L 497 658 L 606 658 L 606 261 C 606 177 581 111 532 62 C 482 12 416 -12 334 -12 Z" unicode="Ů" />
<glyph horiz-adv-x="513" d="M 257 505 C 226 505 202 514 184 534 C 166 554 158 577 158 605 C 158 632 166 655 184 675 C 202 695 226 705 257 705 C 287 705 312 695 330 675 C 348 655 357 632 357 605 C 357 577 348 554 330 534 C 312 514 287 505 257 505 Z M 257 565 C 267 565 276 568 284 575 C 292 582 296 592 296 605 C 296 617 292 626 284 634 C 276 641 267 645 257 645 C 246 645 237 641 229 634 C 221 626 218 617 218 605 C 218 592 221 582 229 575 C 237 568 246 565 257 565 Z M 209 -11 C 160 -11 122 5 94 37 C 66 69 53 112 53 166 L 53 468 L 162 468 L 162 184 C 162 154 169 131 185 114 C 200 96 221 88 247 88 C 269 88 289 93 306 104 C 322 115 336 130 347 148 L 347 468 L 456 468 L 456 0 L 356 0 L 347 63 C 330 39 310 20 288 8 C 266 -4 239 -11 209 -11 Z" unicode="ů" />
<glyph horiz-adv-x="666" d="M 220 711 L 304 845 L 397 845 L 305 711 L 220 711 Z M 366 711 L 458 845 L 552 845 L 451 711 L 366 711 Z M 334 -12 C 250 -12 183 12 134 62 C 84 111 60 177 60 261 L 60 658 L 172 658 L 172 261 C 172 210 186 169 216 139 C 246 109 285 94 335 94 C 385 94 424 109 453 139 C 482 169 497 210 497 261 L 497 658 L 606 658 L 606 261 C 606 177 581 111 532 62 C 482 12 416 -12 334 -12 Z" unicode="Ű" />
<glyph horiz-adv-x="513" d="M 128 523 L 218 669 L 321 669 L 221 523 L 128 523 Z M 287 523 L 386 669 L 489 669 L 380 523 L 287 523 Z M 209 -11 C 160 -11 122 5 94 37 C 66 69 53 112 53 166 L 53 468 L 162 468 L 162 184 C 162 154 169 131 185 114 C 200 96 221 88 247 88 C 269 88 289 93 306 104 C 322 115 336 130 347 148 L 347 468 L 456 468 L 456 0 L 356 0 L 347 63 C 330 39 310 20 288 8 C 266 -4 239 -11 209 -11 Z" unicode="ű" />
<glyph horiz-adv-x="666" d="M 498 -220 C 442 -220 398 -207 364 -182 C 330 -156 314 -123 314 -81 C 314 -68 315 -56 318 -44 C 321 -32 326 -22 332 -12 C 248 -11 182 13 133 63 C 84 112 60 178 60 261 L 60 658 L 172 658 L 172 261 C 172 210 186 169 216 139 C 246 109 285 94 335 94 C 385 94 424 109 453 139 C 482 169 497 210 497 261 L 497 658 L 606 658 L 606 261 C 606 201 592 149 566 106 C 539 62 503 31 457 12 C 442 5 430 -3 422 -15 C 414 -27 410 -41 410 -58 C 410 -80 418 -98 434 -112 C 450 -126 471 -133 498 -133 L 498 -220 Z" unicode="Ų" />
<glyph horiz-adv-x="513" d="M 209 -11 C 160 -11 122 5 94 37 C 66 69 53 112 53 166 L 53 468 L 162 468 L 162 184 C 162 154 169 131 185 114 C 200 96 221 88 247 88 C 269 88 289 93 306 104 C 322 115 336 130 347 148 L 347 468 L 456 468 L 456 9 L 459 0 C 437 -6 419 -15 407 -29 C 394 -43 388 -59 388 -78 C 388 -94 394 -108 407 -118 C 419 -128 436 -133 458 -133 L 458 -220 C 408 -220 369 -211 340 -194 C 310 -176 296 -149 296 -111 C 296 -88 301 -67 313 -49 C 324 -31 340 -14 361 0 L 356 0 L 347 63 C 330 39 310 20 288 8 C 266 -4 239 -11 209 -11 Z" unicode="ų" />
<glyph horiz-adv-x="964" d="M 436 711 L 352 711 L 442 842 L 525 842 L 615 711 L 531 711 L 483 777 L 436 711 Z M 219 0 L 16 658 L 134 658 L 258 232 L 281 138 L 303 232 L 427 658 L 544 658 L 668 232 L 690 141 L 712 232 L 836 658 L 948 658 L 744 0 L 627 0 L 504 427 L 483 518 L 461 427 L 337 0 L 219 0 Z" unicode="Ŵ" />
<glyph horiz-adv-x="759" d="M 331 524 L 239 524 L 336 666 L 427 666 L 524 524 L 432 524 L 382 595 L 331 524 Z M 156 0 L 13 468 L 125 468 L 207 195 L 229 106 L 249 195 L 329 468 L 441 468 L 521 195 L 541 109 L 561 195 L 644 468 L 746 468 L 603 0 L 474 0 L 402 244 L 381 338 L 358 244 L 287 0 L 156 0 Z" unicode="ŵ" />
<glyph horiz-adv-x="616" d="M 262 711 L 178 711 L 268 842 L 351 842 L 441 711 L 357 711 L 309 777 L 262 711 Z M 253 0 L 253 268 L 12 658 L 141 658 L 274 439 L 312 370 L 351 439 L 483 658 L 605 658 L 365 270 L 365 0 L 253 0 Z" unicode="Ŷ" />
<glyph horiz-adv-x="487" d="M 194 524 L 102 524 L 199 666 L 290 666 L 387 524 L 295 524 L 245 595 L 194 524 Z M 12 -213 L 4 -213 L 4 -113 L 12 -113 C 57 -113 93 -105 120 -91 C 147 -77 169 -51 186 -14 L 175 16 L 12 468 L 128 468 L 221 195 L 245 114 L 270 195 L 364 468 L 474 468 L 317 35 C 283 -60 244 -125 200 -160 C 156 -195 93 -213 12 -213 Z" unicode="ŷ" />
<glyph horiz-adv-x="616" d="M 181 711 L 181 804 L 275 804 L 275 711 L 181 711 Z M 342 711 L 342 804 L 435 804 L 435 711 L 342 711 Z M 253 0 L 253 268 L 12 658 L 141 658 L 274 439 L 312 370 L 351 439 L 483 658 L 605 658 L 365 270 L 365 0 L 253 0 Z" unicode="Ÿ" />
<glyph horiz-adv-x="587" d="M 342 711 L 245 711 L 336 843 L 446 843 L 342 711 Z M 45 0 L 45 62 L 342 500 L 378 553 L 54 553 L 54 658 L 542 658 L 542 596 L 244 157 L 209 105 L 542 105 L 542 0 L 45 0 Z" unicode="Ź" />
<glyph horiz-adv-x="442" d="M 266 524 L 159 524 L 258 668 L 379 668 L 266 524 Z M 37 0 L 37 78 L 220 325 L 256 370 L 41 370 L 41 468 L 400 468 L 400 390 L 217 143 L 181 98 L 405 98 L 405 0 L 37 0 Z" unicode="ź" />
<glyph horiz-adv-x="587" d="M 248 711 L 248 811 L 347 811 L 347 711 L 248 711 Z M 45 0 L 45 62 L 342 500 L 378 553 L 54 553 L 54 658 L 542 658 L 542 596 L 244 157 L 209 105 L 542 105 L 542 0 L 45 0 Z" unicode="Ż" />
<glyph horiz-adv-x="442" d="M 166 528 L 166 638 L 275 638 L 275 528 L 166 528 Z M 37 0 L 37 78 L 220 325 L 256 370 L 41 370 L 41 468 L 400 468 L 400 390 L 217 143 L 181 98 L 405 98 L 405 0 L 37 0 Z" unicode="ż" />
<glyph horiz-adv-x="587" d="M 255 708 L 165 839 L 249 839 L 296 773 L 344 839 L 428 839 L 338 708 L 255 708 Z M 45 0 L 45 62 L 342 500 L 378 553 L 54 553 L 54 658 L 542 658 L 542 596 L 244 157 L 209 105 L 542 105 L 542 0 L 45 0 Z" unicode="Ž" />
<glyph horiz-adv-x="442" d="M 176 524 L 79 666 L 171 666 L 222 594 L 272 666 L 364 666 L 267 524 L 176 524 Z M 37 0 L 37 78 L 220 325 L 256 370 L 41 370 L 41 468 L 400 468 L 400 390 L 217 143 L 181 98 L 405 98 L 405 0 L 37 0 Z" unicode="ž" />
<glyph horiz-adv-x="496" d="M 77 -213 C 63 -213 50 -211 37 -209 C 24 -206 12 -202 0 -197 L 0 -98 C 12 -102 24 -106 38 -109 C 51 -111 65 -113 81 -113 C 101 -113 118 -106 131 -92 C 144 -78 152 -59 155 -35 L 201 369 L 122 369 L 122 468 L 213 468 L 221 542 C 227 602 247 646 280 676 C 313 706 353 721 401 721 C 415 721 429 720 443 718 C 456 716 470 713 484 709 L 484 605 C 471 611 458 615 445 618 C 431 620 418 622 404 622 C 382 622 364 615 351 601 C 338 587 330 568 328 543 L 319 468 L 411 468 L 411 369 L 308 369 L 262 -35 C 255 -95 235 -139 203 -169 C 170 -198 128 -213 77 -213 Z" unicode="ƒ" />
<glyph horiz-adv-x="687" d="M 340 716 L 250 847 L 334 847 L 381 781 L 429 847 L 513 847 L 423 716 L 340 716 Z M 387 -15 C 282 -15 199 16 137 80 C 75 143 44 227 44 332 C 44 435 75 518 138 580 C 200 642 284 673 389 673 C 425 673 463 669 501 661 C 539 653 573 643 604 629 L 604 520 C 573 536 540 548 505 556 C 469 564 432 569 393 569 C 321 569 264 547 222 504 C 179 461 158 404 158 332 C 158 258 178 199 219 155 C 260 111 314 89 380 89 C 406 89 431 91 455 95 C 478 99 500 105 522 113 L 522 248 L 385 248 L 385 353 L 634 353 L 634 39 C 596 21 557 8 515 -1 C 473 -10 430 -15 387 -15 Z" unicode="Ǧ" />
<glyph horiz-adv-x="525" d="M 216 524 L 119 666 L 211 666 L 262 594 L 312 666 L 404 666 L 307 524 L 216 524 Z M 244 -222 C 212 -222 180 -218 150 -212 C 120 -206 91 -196 65 -184 L 65 -76 C 91 -90 117 -102 144 -111 C 171 -120 199 -125 227 -125 C 267 -125 299 -114 324 -92 C 348 -70 361 -40 361 0 L 361 43 C 346 25 328 12 306 3 C 284 -5 262 -10 239 -10 C 176 -10 126 11 90 53 C 54 95 36 154 36 230 C 36 303 56 363 98 409 C 139 455 193 478 261 478 C 283 478 307 473 333 464 C 359 454 379 442 395 426 L 419 468 L 469 468 L 469 11 C 469 -59 448 -116 407 -158 C 366 -200 312 -222 244 -222 Z M 264 86 C 284 86 302 90 319 99 C 335 107 349 118 361 131 L 361 357 C 350 364 336 370 320 375 C 304 380 288 383 273 383 C 233 383 201 368 179 338 C 156 308 145 273 145 231 C 145 187 155 151 176 125 C 196 99 226 86 264 86 Z" unicode="ǧ" />
<glyph horiz-adv-x="664" d="M 295 810 L 353 890 L 430 890 L 369 810 L 295 810 Z M 17 0 L 268 633 C 259 641 252 650 248 662 C 244 673 242 685 242 698 C 242 722 250 743 267 761 C 283 779 305 788 333 788 C 360 788 382 779 399 761 C 415 743 424 722 424 698 C 424 684 421 672 416 660 C 411 648 404 639 396 631 L 646 0 L 525 0 L 461 168 L 196 168 L 132 0 L 17 0 Z M 333 661 C 343 661 351 664 358 671 C 365 677 369 686 369 698 C 369 708 365 717 358 724 C 351 730 343 734 333 734 C 323 734 314 730 307 724 C 300 717 297 708 297 698 C 297 686 300 677 307 671 C 314 664 323 661 333 661 Z M 233 268 L 424 268 L 362 429 L 328 523 L 294 429 L 233 268 Z" unicode="Ǻ" />
<glyph horiz-adv-x="473" d="M 193 646 L 255 732 L 340 732 L 273 646 L 193 646 Z M 181 -10 C 137 -10 103 2 77 27 C 51 51 38 84 38 125 C 38 169 53 204 83 231 C 113 258 157 276 216 285 L 309 300 L 309 318 C 309 340 300 357 284 368 C 267 378 243 384 212 384 C 185 384 158 380 132 372 C 106 364 81 354 59 341 L 59 445 C 73 450 87 455 103 460 C 118 464 133 468 149 472 C 145 479 141 487 139 496 C 137 504 136 513 136 523 C 136 550 145 573 163 593 C 181 612 205 622 235 622 C 265 622 289 612 307 593 C 325 573 334 550 334 523 C 334 513 332 503 330 494 C 327 484 323 476 319 469 C 351 457 376 439 393 414 C 409 389 418 358 418 321 L 418 0 L 318 0 L 310 63 C 296 40 278 22 255 9 C 232 -3 207 -10 181 -10 Z M 235 484 C 245 484 254 487 262 494 C 270 501 274 511 274 523 C 274 535 270 544 262 552 C 254 559 245 563 235 563 C 224 563 215 559 207 552 C 199 544 196 535 196 523 C 196 511 199 501 207 494 C 215 487 224 484 235 484 Z M 215 77 C 236 77 255 82 273 94 C 290 105 302 120 309 139 L 309 224 L 230 212 C 203 208 182 199 168 187 C 153 174 146 157 146 137 C 146 118 152 103 164 93 C 176 82 193 77 215 77 Z" unicode="ǻ" />
<glyph horiz-adv-x="860" d="M 532 711 L 435 711 L 526 843 L 636 843 L 532 711 Z M 7 0 L 352 658 L 792 658 L 792 553 L 521 553 L 521 386 L 781 386 L 781 280 L 521 280 L 521 105 L 801 105 L 801 0 L 409 0 L 409 181 L 221 181 L 125 0 L 7 0 Z M 274 286 L 409 286 L 409 543 L 367 457 L 274 286 Z" unicode="Ǽ" />
<glyph horiz-adv-x="768" d="M 430 524 L 323 524 L 422 668 L 543 668 L 430 524 Z M 195 -10 C 147 -10 110 2 82 27 C 54 51 41 84 41 125 C 41 169 56 204 86 232 C 116 260 161 278 219 288 L 311 303 L 311 321 C 311 344 302 361 284 372 C 266 383 242 389 210 389 C 184 389 158 385 132 379 C 106 372 82 362 60 350 L 60 445 C 86 455 114 463 145 469 C 175 475 205 478 234 478 C 267 478 296 472 321 462 C 346 451 366 436 380 418 C 398 437 419 452 443 462 C 467 472 494 478 524 478 C 588 478 638 457 676 415 C 714 373 733 312 733 231 L 733 199 L 422 199 C 422 163 435 135 459 115 C 483 94 516 84 559 84 C 583 84 610 88 639 96 C 667 104 694 115 720 130 L 720 32 C 692 18 662 8 631 1 C 599 -6 570 -10 544 -10 C 500 -10 462 -2 431 14 C 399 30 374 52 356 81 C 338 50 316 27 289 12 C 262 -2 231 -10 195 -10 Z M 523 387 C 492 387 468 377 451 358 C 433 339 424 314 422 282 L 624 282 C 624 314 614 340 596 359 C 578 377 553 387 523 387 Z M 222 79 C 244 79 264 85 280 99 C 296 113 306 130 311 150 L 311 223 L 234 211 C 208 206 187 198 173 186 C 158 174 151 158 151 140 C 151 120 157 105 170 95 C 182 84 200 79 222 79 Z" unicode="ǽ" />
<glyph horiz-adv-x="774" d="M 438 725 L 341 725 L 432 857 L 542 857 L 438 725 Z M 102 -48 L 166 56 C 128 86 98 124 76 171 C 54 218 44 271 44 329 C 44 430 76 513 140 577 C 204 641 287 673 387 673 C 413 673 437 670 461 666 C 485 662 507 655 529 647 L 565 706 L 674 706 L 609 601 C 646 571 675 532 697 486 C 718 440 729 387 729 329 C 729 225 697 141 635 79 C 572 16 489 -15 387 -15 C 361 -15 336 -12 313 -8 C 289 -4 267 2 247 10 L 211 -48 L 102 -48 Z M 158 329 C 158 291 163 257 175 227 C 187 197 203 171 224 151 L 473 556 C 460 560 446 564 432 566 C 417 568 402 570 387 570 C 319 570 263 548 221 504 C 179 460 158 401 158 329 Z M 387 88 C 455 88 510 110 552 154 C 594 198 616 256 616 329 C 616 365 610 399 599 429 C 587 459 571 485 551 506 L 303 102 C 315 97 329 93 343 91 C 357 89 372 88 387 88 Z" unicode="Ǿ" />
<glyph horiz-adv-x="552" d="M 326 523 L 219 523 L 318 667 L 439 667 L 326 523 Z M 59 -48 L 114 44 C 89 65 70 92 56 124 C 42 156 36 193 36 233 C 36 306 58 365 102 411 C 146 456 204 479 276 479 C 292 479 308 477 324 475 C 339 472 353 468 367 464 L 398 516 L 491 516 L 436 425 C 461 403 481 376 495 344 C 509 311 516 275 516 235 C 516 161 493 102 449 57 C 405 11 347 -11 276 -11 C 259 -11 243 -9 227 -7 C 211 -4 197 0 183 4 L 152 -48 L 59 -48 Z M 146 235 C 146 216 148 199 152 183 C 156 167 163 153 172 141 L 313 375 C 307 376 301 377 295 378 C 289 379 282 380 276 380 C 237 380 206 366 182 340 C 158 313 146 278 146 235 Z M 276 88 C 314 88 346 101 370 128 C 394 154 406 189 406 233 C 406 251 403 269 399 285 C 394 301 387 316 379 329 L 237 93 C 243 91 249 90 256 89 C 262 88 269 88 276 88 Z" unicode="ǿ" />
<glyph horiz-adv-x="510" d="M 244 -15 C 210 -15 177 -11 145 -3 C 113 4 83 15 54 31 L 54 148 C 81 128 110 114 141 104 C 171 94 204 89 238 89 C 270 89 296 97 315 113 C 334 129 344 150 344 177 C 344 201 335 222 317 239 C 299 255 271 270 233 284 L 214 290 C 160 308 119 334 92 366 C 65 398 52 438 52 486 C 52 540 70 585 108 620 C 146 655 196 673 259 673 C 289 673 318 669 346 662 C 374 655 404 644 435 629 L 435 511 C 408 529 381 544 354 554 C 326 564 297 569 267 569 C 234 569 209 562 192 548 C 174 534 166 515 166 489 C 166 466 174 447 191 433 C 207 418 233 404 268 392 L 287 386 C 344 366 387 341 415 309 C 443 277 458 237 458 190 C 458 130 438 80 400 42 C 361 4 309 -15 244 -15 Z M 239 -246 L 168 -216 C 182 -195 192 -176 198 -158 C 203 -140 206 -119 206 -96 L 206 -54 L 294 -54 L 294 -96 C 294 -122 289 -148 280 -174 C 270 -200 257 -224 239 -246 Z" unicode="Ș" />
<glyph horiz-adv-x="402" d="M 187 -10 C 163 -10 139 -7 113 -1 C 87 5 63 12 43 21 L 43 118 C 63 105 86 95 111 88 C 135 81 159 78 183 78 C 206 78 224 82 236 90 C 248 98 255 111 255 127 C 255 139 250 150 240 159 C 230 168 212 177 188 186 L 173 191 C 125 207 91 227 70 249 C 49 271 39 301 39 337 C 39 380 52 414 80 440 C 108 465 149 478 203 478 C 225 478 249 475 274 470 C 299 465 322 459 344 452 L 344 355 C 324 365 303 374 279 380 C 255 386 233 390 212 390 C 191 390 175 386 164 378 C 153 370 148 360 148 346 C 148 333 152 322 162 314 C 172 306 189 297 214 289 L 228 284 C 276 267 310 247 332 225 C 353 203 364 174 364 140 C 364 94 349 58 319 31 C 289 3 245 -10 187 -10 Z M 194 -258 L 115 -225 C 131 -202 142 -181 148 -162 C 154 -142 157 -120 157 -95 L 157 -50 L 254 -50 L 254 -95 C 254 -124 248 -153 238 -181 C 227 -209 212 -234 194 -258 Z" unicode="ș" />
<glyph horiz-adv-x="569" d="M 228 0 L 228 553 L 20 553 L 20 658 L 549 658 L 549 553 L 340 553 L 340 0 L 228 0 Z M 276 -240 L 205 -210 C 219 -189 229 -170 235 -152 C 240 -134 243 -113 243 -90 L 243 -48 L 331 -48 L 331 -90 C 331 -116 326 -142 317 -168 C 307 -194 294 -218 276 -240 Z" unicode="Ț" />
<glyph horiz-adv-x="319" d="M 197 -10 C 161 -10 133 0 113 20 C 93 40 83 69 83 107 L 83 370 L 19 370 L 19 468 L 83 468 L 83 601 L 192 601 L 192 468 L 288 468 L 288 370 L 192 370 L 192 139 C 192 123 196 111 205 103 C 213 94 224 90 238 90 C 246 90 255 91 263 93 C 271 95 279 99 288 104 L 288 9 C 274 2 259 -2 243 -5 C 227 -8 211 -10 197 -10 Z M 188 -264 L 109 -231 C 125 -208 136 -187 142 -168 C 148 -148 151 -126 151 -101 L 151 -56 L 248 -56 L 248 -101 C 248 -130 242 -159 232 -187 C 221 -215 206 -240 188 -264 Z" unicode="ț" />
<glyph horiz-adv-x="223" d="M -23 -211 L -31 -211 L -31 -111 L -23 -111 C 1 -111 21 -103 36 -87 C 51 -71 59 -49 59 -22 L 59 468 L 168 468 L 168 -22 C 168 -80 150 -126 116 -160 C 81 -194 35 -211 -23 -211 Z" unicode="ȷ" />
<glyph horiz-adv-x="494" d="M 243 -10 C 178 -10 127 11 90 55 C 52 99 34 157 34 229 L 34 274 L 349 274 C 347 308 334 336 309 356 C 284 376 250 387 208 387 C 183 387 156 383 127 375 C 97 367 70 355 46 341 L 46 437 C 74 450 103 460 135 467 C 166 474 195 478 222 478 C 296 478 355 456 397 412 C 439 368 460 308 460 233 C 460 159 440 100 401 56 C 362 12 309 -10 243 -10 Z M 246 80 C 276 80 300 90 318 111 C 336 131 347 158 349 191 L 142 191 C 142 157 151 130 170 110 C 188 90 214 80 246 80 Z" unicode="ə" />
<glyph horiz-adv-x="312" d="M 107 524 L 15 524 L 112 666 L 203 666 L 300 524 L 208 524 L 158 595 L 107 524 Z" unicode="ˆ" />
<glyph horiz-adv-x="312" d="M 112 524 L 15 666 L 107 666 L 158 594 L 208 666 L 300 666 L 203 524 L 112 524 Z" unicode="ˇ" />
<glyph horiz-adv-x="351" d="M 177 516 C 138 516 107 528 84 554 C 60 579 49 613 49 656 L 121 656 C 121 636 126 621 136 609 C 146 597 160 592 177 592 C 193 592 207 597 217 609 C 227 621 233 636 233 656 L 305 656 C 305 613 293 579 270 554 C 246 528 215 516 177 516 Z" unicode="˘" />
<glyph horiz-adv-x="174" d="M 34 528 L 34 638 L 143 638 L 143 528 L 34 528 Z" unicode="˙" />
<glyph horiz-adv-x="220" d="M 110 435 C 79 435 55 444 37 464 C 19 484 11 507 11 535 C 11 562 19 585 37 605 C 55 625 79 635 110 635 C 140 635 165 625 183 605 C 201 585 210 562 210 535 C 210 507 201 484 183 464 C 165 444 140 435 110 435 Z M 110 495 C 120 495 129 498 137 505 C 145 512 149 522 149 535 C 149 547 145 556 137 564 C 129 571 120 575 110 575 C 99 575 90 571 82 564 C 74 556 71 547 71 535 C 71 522 74 512 82 505 C 90 498 99 495 110 495 Z" unicode="˚" />
<glyph horiz-adv-x="240" d="M 194 -220 C 142 -220 101 -208 70 -184 C 39 -160 24 -129 24 -91 C 24 -51 38 -18 67 5 C 95 29 132 42 177 42 L 189 0 C 167 0 150 -6 136 -18 C 122 -30 115 -46 115 -68 C 115 -86 122 -102 137 -114 C 151 -126 170 -133 194 -133 L 194 -220 Z" unicode="˛" />
<glyph horiz-adv-x="321" d="M 71 524 L 5 524 C 5 561 14 591 31 613 C 48 635 71 646 99 646 C 110 646 121 644 132 640 C 142 636 154 629 168 621 C 178 614 186 609 193 605 C 200 601 207 599 214 599 C 224 599 232 602 238 610 C 244 617 247 627 248 640 L 314 640 C 313 602 304 572 286 551 C 268 529 246 519 220 519 C 208 519 196 520 186 524 C 175 528 163 534 151 544 C 141 550 133 555 126 559 C 118 563 111 565 105 565 C 95 565 87 561 81 554 C 75 546 71 536 71 524 Z" unicode="˜" />
<glyph horiz-adv-x="402" d="M 28 523 L 118 669 L 221 669 L 121 523 L 28 523 Z M 187 523 L 286 669 L 389 669 L 280 523 L 187 523 Z" unicode="˝" />
<glyph horiz-adv-x="0" d="M -43 524 L -156 668 L -34 668 L 64 524 L -43 524 Z" unicode="̀" />
<glyph horiz-adv-x="0" d="M 46 524 L -61 524 L 38 668 L 159 668 L 46 524 Z" unicode="́" />
<glyph horiz-adv-x="0" d="M -49 524 L -141 524 L -44 666 L 47 666 L 144 524 L 52 524 L 2 595 L -49 524 Z" unicode="̂" />
<glyph horiz-adv-x="0" d="M -86 524 L -152 524 C -151 561 -142 591 -125 613 C -108 635 -86 646 -58 646 C -46 646 -35 644 -25 640 C -14 636 -2 629 11 621 C 21 614 29 609 36 605 C 43 601 50 599 57 599 C 67 599 75 602 81 610 C 87 617 90 627 91 640 L 157 640 C 156 602 147 572 129 551 C 111 529 89 519 63 519 C 51 519 39 520 29 524 C 18 528 6 534 -6 544 C -15 550 -23 555 -31 559 C -38 563 -45 565 -52 565 C -62 565 -70 561 -76 554 C -82 546 -85 536 -86 524 Z" unicode="̃" />
<glyph horiz-adv-x="0" d="M -121 532 L -121 619 L 125 619 L 125 532 L -121 532 Z" unicode="̄" />
<glyph horiz-adv-x="0" d="M 1 516 C -37 516 -68 528 -92 554 C -115 579 -127 613 -127 656 L -55 656 C -55 636 -49 621 -39 609 C -29 597 -15 592 1 592 C 17 592 31 597 41 609 C 51 621 57 636 57 656 L 129 656 C 129 613 117 579 94 554 C 70 528 39 516 1 516 Z" unicode="̆" />
<glyph horiz-adv-x="0" d="M -54 528 L -54 638 L 55 638 L 55 528 L -54 528 Z" unicode="̇" />
<glyph horiz-adv-x="0" d="M -138 529 L -138 632 L -35 632 L -35 529 L -138 529 Z M 37 529 L 37 632 L 140 632 L 140 529 L 37 529 Z" unicode="̈" />
<glyph horiz-adv-x="0" d="M 3 435 C -27 435 -51 444 -69 464 C -87 484 -96 507 -96 535 C -96 562 -87 585 -69 605 C -51 625 -27 635 3 635 C 33 635 58 625 76 605 C 94 585 103 562 103 535 C 103 507 94 484 76 464 C 58 444 33 435 3 435 Z M 3 495 C 13 495 22 498 30 505 C 38 512 42 522 42 535 C 42 547 38 556 30 564 C 22 571 13 575 3 575 C -7 575 -16 571 -24 564 C -32 556 -36 547 -36 535 C -36 522 -32 512 -24 505 C -16 498 -7 495 3 495 Z" unicode="̊" />
<glyph horiz-adv-x="0" d="M -127 523 L -37 669 L 66 669 L -34 523 L -127 523 Z M 32 523 L 131 669 L 234 669 L 125 523 L 32 523 Z" unicode="̋" />
<glyph horiz-adv-x="0" d="M -44 524 L -141 666 L -49 666 L 2 594 L 52 666 L 144 666 L 47 524 L -44 524 Z" unicode="̌" />
<glyph horiz-adv-x="0" d="M 15 730 L 93 697 C 77 674 67 653 61 634 C 55 614 52 592 52 567 L 52 522 L -45 522 L -45 567 C -45 596 -39 625 -29 653 C -19 681 -4 706 15 730 Z" unicode="̒" />
<glyph horiz-adv-x="3" d="M -8 -248 L -87 -215 C -71 -192 -60 -171 -54 -152 C -48 -132 -45 -110 -45 -85 L -45 -40 L 52 -40 L 52 -85 C 52 -114 46 -143 36 -171 C 25 -199 10 -224 -8 -248 Z" unicode="̦" />
<glyph horiz-adv-x="0" d="M 16 -227 C 5 -227 -6 -225 -18 -223 C -30 -221 -42 -217 -53 -213 L -53 -150 C -43 -155 -34 -159 -25 -161 C -15 -163 -6 -165 2 -165 C 12 -165 20 -162 26 -156 C 32 -150 35 -143 35 -134 C 35 -124 31 -117 25 -111 C 18 -105 10 -102 0 -102 L -10 -102 L -10 -42 L 0 -42 C 34 -42 61 -50 82 -67 C 102 -84 113 -107 113 -135 C 113 -162 104 -184 86 -201 C 68 -218 44 -227 16 -227 Z" unicode="̧" />
<glyph horiz-adv-x="0" d="M 5 -220 C -46 -220 -87 -208 -118 -184 C -149 -160 -165 -129 -165 -91 C -165 -51 -150 -18 -122 5 C -93 29 -56 42 -12 42 L 0 0 C -21 0 -39 -6 -53 -18 C -67 -30 -74 -46 -74 -68 C -74 -86 -66 -102 -52 -114 C -37 -126 -18 -133 5 -133 L 5 -220 Z" unicode="̨" />
<glyph horiz-adv-x="636" d="M 16 0 L 250 664 L 386 664 L 618 0 L 16 0 Z M 157 102 L 464 102 L 311 539 L 157 102 Z" unicode="Δ" />
<glyph horiz-adv-x="513" d="M 148 -207 L 53 -207 L 53 468 L 162 468 L 162 184 C 162 154 169 131 185 114 C 200 96 221 88 247 88 C 269 88 289 93 306 104 C 322 115 336 130 347 148 L 347 468 L 456 468 L 456 0 L 356 0 L 347 63 C 330 39 310 20 288 8 C 266 -4 239 -11 209 -11 C 192 -11 177 -8 164 -4 C 150 0 139 7 130 15 L 148 -207 Z" unicode="μ" />
<glyph horiz-adv-x="534" d="M 99 0 L 99 368 L 33 368 L 33 468 L 502 468 L 502 368 L 436 368 L 436 0 L 328 0 L 328 368 L 207 368 L 207 0 L 99 0 Z" unicode="π" />
<glyph horiz-adv-x="964" d="M 439 711 L 334 843 L 444 843 L 535 711 L 439 711 Z M 219 0 L 16 658 L 134 658 L 258 232 L 281 138 L 303 232 L 427 658 L 544 658 L 668 232 L 690 141 L 712 232 L 836 658 L 948 658 L 744 0 L 627 0 L 504 427 L 483 518 L 461 427 L 337 0 L 219 0 Z" unicode="Ẁ" />
<glyph horiz-adv-x="759" d="M 337 524 L 224 668 L 346 668 L 444 524 L 337 524 Z M 156 0 L 13 468 L 125 468 L 207 195 L 229 106 L 249 195 L 329 468 L 441 468 L 521 195 L 541 109 L 561 195 L 644 468 L 746 468 L 603 0 L 474 0 L 402 244 L 381 338 L 358 244 L 287 0 L 156 0 Z" unicode="ẁ" />
<glyph horiz-adv-x="964" d="M 529 711 L 432 711 L 523 843 L 633 843 L 529 711 Z M 219 0 L 16 658 L 134 658 L 258 232 L 281 138 L 303 232 L 427 658 L 544 658 L 668 232 L 690 141 L 712 232 L 836 658 L 948 658 L 744 0 L 627 0 L 504 427 L 483 518 L 461 427 L 337 0 L 219 0 Z" unicode="Ẃ" />
<glyph horiz-adv-x="759" d="M 426 524 L 319 524 L 418 668 L 539 668 L 426 524 Z M 156 0 L 13 468 L 125 468 L 207 195 L 229 106 L 249 195 L 329 468 L 441 468 L 521 195 L 541 109 L 561 195 L 644 468 L 746 468 L 603 0 L 474 0 L 402 244 L 381 338 L 358 244 L 287 0 L 156 0 Z" unicode="ẃ" />
<glyph horiz-adv-x="964" d="M 355 711 L 355 804 L 449 804 L 449 711 L 355 711 Z M 516 711 L 516 804 L 609 804 L 609 711 L 516 711 Z M 219 0 L 16 658 L 134 658 L 258 232 L 281 138 L 303 232 L 427 658 L 544 658 L 668 232 L 690 141 L 712 232 L 836 658 L 948 658 L 744 0 L 627 0 L 504 427 L 483 518 L 461 427 L 337 0 L 219 0 Z" unicode="Ẅ" />
<glyph horiz-adv-x="759" d="M 242 529 L 242 632 L 345 632 L 345 529 L 242 529 Z M 417 529 L 417 632 L 520 632 L 520 529 L 417 529 Z M 156 0 L 13 468 L 125 468 L 207 195 L 229 106 L 249 195 L 329 468 L 441 468 L 521 195 L 541 109 L 561 195 L 644 468 L 746 468 L 603 0 L 474 0 L 402 244 L 381 338 L 358 244 L 287 0 L 156 0 Z" unicode="ẅ" />
<glyph horiz-adv-x="616" d="M 265 711 L 160 843 L 270 843 L 361 711 L 265 711 Z M 253 0 L 253 268 L 12 658 L 141 658 L 274 439 L 312 370 L 351 439 L 483 658 L 605 658 L 365 270 L 365 0 L 253 0 Z" unicode="Ỳ" />
<glyph horiz-adv-x="487" d="M 200 524 L 87 668 L 209 668 L 307 524 L 200 524 Z M 12 -213 L 4 -213 L 4 -113 L 12 -113 C 57 -113 93 -105 120 -91 C 147 -77 169 -51 186 -14 L 175 16 L 12 468 L 128 468 L 221 195 L 245 114 L 270 195 L 364 468 L 474 468 L 317 35 C 283 -60 244 -125 200 -160 C 156 -195 93 -213 12 -213 Z" unicode="ỳ" />
<glyph horiz-adv-x="500" d="" unicode=" " />
<glyph horiz-adv-x="1000" d="" unicode=" " />
<glyph horiz-adv-x="650" d="" unicode=" " />
<glyph horiz-adv-x="148" d="" unicode=" " />
<glyph horiz-adv-x="650" d="M 119 250 L 119 345 L 531 345 L 531 250 L 119 250 Z" unicode="‒" />
<glyph horiz-adv-x="512" d="M 50 194 L 50 289 L 462 289 L 462 194 L 50 194 Z" unicode="–" />
<glyph horiz-adv-x="1012" d="M 50 194 L 50 289 L 962 289 L 962 194 L 50 194 Z" unicode="—" />
<glyph horiz-adv-x="382" d="M 50 194 L 50 289 L 326 289 L 326 194 L 50 194 Z" unicode="―" />
<glyph horiz-adv-x="239" d="M 60 449 L 60 536 C 60 576 67 614 83 649 C 99 684 117 712 138 733 L 212 705 C 198 681 187 656 179 632 C 170 607 166 577 166 542 L 166 449 L 60 449 Z" unicode="‘" />
<glyph horiz-adv-x="217" d="M 92 434 L 19 463 C 32 487 43 511 52 536 C 60 560 65 590 65 625 L 65 718 L 170 718 L 170 632 C 170 590 162 552 146 517 C 130 482 112 454 92 434 Z" unicode="’" />
<glyph horiz-adv-x="217" d="M 170 114 L 170 27 C 170 -13 162 -51 146 -87 C 130 -122 112 -150 92 -171 L 19 -142 C 32 -118 43 -93 52 -69 C 60 -44 65 -14 65 21 L 65 114 L 170 114 Z" unicode="‚" />
<glyph horiz-adv-x="403" d="M 60 452 L 60 537 C 60 578 67 616 83 651 C 99 686 117 714 138 735 L 212 706 C 198 682 187 657 179 633 C 170 608 166 578 166 544 L 166 452 L 60 452 Z M 224 452 L 224 537 C 224 578 231 616 247 651 C 263 686 281 714 302 735 L 376 706 C 362 682 351 657 343 633 C 334 608 330 578 330 544 L 330 452 L 224 452 Z" unicode="“" />
<glyph horiz-adv-x="378" d="M 92 434 L 19 463 C 32 487 43 511 52 536 C 60 560 65 590 65 625 L 65 718 L 170 718 L 170 632 C 170 590 162 552 146 517 C 130 482 112 454 92 434 Z M 253 434 L 179 463 C 193 487 204 511 212 536 C 220 560 225 590 225 625 L 225 718 L 331 718 L 331 632 C 331 590 323 552 307 517 C 291 482 273 454 253 434 Z" unicode="”" />
<glyph horiz-adv-x="374" d="M 170 114 L 170 27 C 170 -13 162 -51 146 -87 C 130 -122 112 -150 92 -171 L 19 -142 C 32 -118 43 -93 52 -69 C 60 -44 65 -14 65 21 L 65 114 L 170 114 Z M 328 114 L 328 27 C 328 -13 320 -51 304 -87 C 288 -122 270 -150 250 -171 L 176 -142 C 189 -118 200 -93 209 -69 C 217 -44 222 -14 222 21 L 222 114 L 328 114 Z" unicode="„" />
<glyph horiz-adv-x="450" d="M 169 0 L 175 452 L 31 446 L 31 545 L 175 539 L 169 718 L 281 718 L 275 539 L 419 545 L 419 446 L 275 452 L 281 0 L 169 0 Z" unicode="†" />
<glyph horiz-adv-x="450" d="M 169 0 L 175 185 L 31 180 L 31 279 L 175 273 L 175 452 L 31 446 L 31 545 L 175 539 L 169 718 L 281 718 L 275 539 L 419 545 L 419 446 L 275 452 L 275 273 L 419 279 L 419 180 L 275 185 L 281 0 L 169 0 Z" unicode="‡" />
<glyph horiz-adv-x="294" d="M 60 158 L 60 331 L 235 331 L 235 158 L 60 158 Z" unicode="•" />
<glyph horiz-adv-x="611" d="M 48 0 L 48 108 L 156 108 L 156 0 L 48 0 Z M 252 0 L 252 108 L 360 108 L 360 0 L 252 0 Z M 455 0 L 455 108 L 563 108 L 563 0 L 455 0 Z" unicode="…" />
<glyph horiz-adv-x="1242" d="M 205 352 C 154 352 113 369 82 403 C 51 437 36 483 36 539 C 36 595 51 641 82 676 C 113 710 154 728 205 728 C 256 728 297 710 328 676 C 359 642 375 597 375 541 C 375 483 359 437 328 403 C 297 369 256 352 205 352 Z M 229 0 L 529 718 L 620 718 L 320 0 L 229 0 Z M 205 434 C 228 434 247 443 262 463 C 276 482 284 507 284 539 C 284 571 276 597 262 617 C 247 636 228 646 205 646 C 181 646 162 636 148 617 C 133 597 126 572 126 541 C 126 508 133 482 148 463 C 162 443 181 434 205 434 Z M 1036 -8 C 985 -8 944 9 913 43 C 882 77 867 123 867 179 C 867 235 882 281 913 316 C 944 350 985 368 1036 368 C 1087 368 1128 350 1159 316 C 1190 282 1206 237 1206 181 C 1206 123 1190 77 1159 43 C 1128 9 1087 -8 1036 -8 Z M 652 -9 C 601 -9 560 8 529 42 C 498 76 483 122 483 178 C 483 234 498 280 529 315 C 560 349 601 367 652 367 C 703 367 744 349 775 315 C 806 281 822 236 822 180 C 822 122 806 76 775 42 C 744 8 703 -9 652 -9 Z M 1036 74 C 1059 74 1078 83 1093 103 C 1107 122 1115 147 1115 179 C 1115 211 1107 237 1093 257 C 1078 276 1059 286 1036 286 C 1012 286 993 276 979 257 C 964 237 957 212 957 181 C 957 148 964 122 979 103 C 993 83 1012 74 1036 74 Z M 652 73 C 675 73 694 82 709 102 C 723 121 731 146 731 178 C 731 210 723 236 709 256 C 694 275 675 285 652 285 C 628 285 609 275 595 256 C 580 236 573 211 573 180 C 573 147 580 121 595 102 C 609 82 628 73 652 73 Z" unicode="‰" />
<glyph horiz-adv-x="211" d="M 60 491 L 60 728 L 151 728 L 151 491 L 60 491 Z" unicode="′" />
<glyph horiz-adv-x="357" d="M 60 492 L 60 728 L 151 728 L 151 492 L 60 492 Z M 206 492 L 206 728 L 297 728 L 297 492 L 206 492 Z" unicode="″" />
<glyph horiz-adv-x="364" d="M 195 65 L 40 226 L 195 388 L 324 388 L 169 226 L 324 65 L 195 65 Z" unicode="‹" />
<glyph horiz-adv-x="364" d="M 40 65 L 195 226 L 40 388 L 169 388 L 324 226 L 169 65 L 40 65 Z" unicode="›" />
<glyph horiz-adv-x="163" d="M -114 0 L 186 718 L 277 718 L -23 0 L -114 0 Z" unicode="⁄" />
<glyph horiz-adv-x="396" d="M 198 432 C 147 432 106 449 75 483 C 44 517 29 563 29 619 C 29 675 44 721 75 756 C 106 790 147 808 198 808 C 249 808 290 790 321 756 C 352 722 368 677 368 621 C 368 563 352 517 321 483 C 290 449 249 432 198 432 Z M 198 514 C 221 514 240 523 255 543 C 269 562 277 587 277 619 C 277 651 269 677 255 697 C 240 716 221 726 198 726 C 174 726 155 716 141 697 C 126 677 119 652 119 621 C 119 588 126 562 141 543 C 155 523 174 514 198 514 Z" unicode="⁰" />
<glyph horiz-adv-x="349" d="M 186 440 L 186 516 L 21 516 L 21 578 L 150 801 L 274 801 L 274 590 L 323 590 L 323 516 L 274 516 L 274 440 L 186 440 Z M 186 590 L 186 729 L 105 590 L 186 590 Z" unicode="⁴" />
<glyph horiz-adv-x="311" d="M 146 432 C 125 432 105 434 86 438 C 67 442 48 448 28 457 L 28 540 C 44 529 61 521 78 516 C 94 510 112 508 131 508 C 149 508 164 512 174 520 C 184 528 190 539 190 554 C 190 566 184 576 172 584 C 160 592 143 596 121 596 C 106 596 90 595 74 593 C 57 591 42 588 30 586 L 43 800 L 264 800 L 264 719 L 105 719 L 102 660 C 110 661 119 662 127 663 C 135 664 142 665 149 665 C 193 665 226 655 249 635 C 271 615 283 588 283 556 C 283 518 270 488 245 466 C 220 443 187 432 146 432 Z" unicode="⁵" />
<glyph horiz-adv-x="348" d="M 176 432 C 136 432 102 447 72 477 C 42 507 28 548 28 599 C 28 664 43 715 75 752 C 107 789 149 808 201 808 C 217 808 233 806 249 804 C 265 802 280 798 296 793 L 296 712 C 281 718 266 722 251 726 C 236 729 221 731 207 731 C 178 731 156 722 141 705 C 125 688 116 664 114 634 C 123 648 135 658 151 665 C 166 671 183 675 202 675 C 238 675 266 664 288 644 C 309 623 320 596 320 564 C 320 524 306 492 279 468 C 252 444 218 432 176 432 Z M 178 507 C 196 507 209 511 218 521 C 227 531 232 544 232 560 C 232 574 227 585 217 595 C 207 605 195 610 179 610 C 165 610 153 606 142 600 C 131 594 123 586 119 576 C 119 556 124 539 135 526 C 145 513 160 507 178 507 Z" unicode="⁶" />
<glyph horiz-adv-x="314" d="M 63 440 L 190 716 L 24 716 L 24 800 L 290 800 L 290 731 L 164 440 L 63 440 Z" unicode="⁷" />
<glyph horiz-adv-x="339" d="M 170 432 C 124 432 89 440 65 458 C 41 476 29 500 29 530 C 29 548 34 565 45 579 C 56 593 73 606 95 616 C 75 626 60 639 49 653 C 37 667 32 684 32 702 C 32 733 44 758 70 778 C 95 798 128 808 169 808 C 209 808 241 798 267 780 C 292 762 305 738 305 709 C 305 691 299 676 289 664 C 279 651 264 640 245 630 C 265 620 280 607 292 593 C 304 579 310 561 310 539 C 310 505 298 478 274 460 C 250 441 215 432 170 432 Z M 173 656 L 180 654 C 190 658 198 665 205 675 C 212 684 216 694 216 705 C 216 716 211 726 203 734 C 194 742 183 746 170 746 C 156 746 145 741 136 733 C 127 725 123 715 123 704 C 123 692 128 682 138 674 C 148 666 159 660 173 656 Z M 120 539 C 120 525 124 514 134 506 C 144 498 156 494 170 494 C 184 494 195 498 205 506 C 214 514 219 526 219 540 C 219 553 214 564 204 572 C 194 580 182 585 168 589 L 161 591 C 149 587 140 580 132 571 C 124 562 120 551 120 539 Z" unicode="⁸" />
<glyph horiz-adv-x="348" d="M 149 432 C 131 432 115 433 99 435 C 83 437 67 441 52 447 L 52 528 C 66 522 81 517 96 514 C 111 510 127 509 143 509 C 171 509 192 517 207 533 C 221 549 230 572 234 602 C 224 588 212 577 197 571 C 181 564 165 561 147 561 C 110 561 81 571 60 593 C 38 614 28 642 28 676 C 28 716 41 748 68 772 C 95 796 130 808 172 808 C 211 808 245 793 275 763 C 305 733 320 692 320 641 C 320 575 304 524 273 487 C 241 450 200 432 149 432 Z M 169 625 C 182 625 194 628 206 634 C 217 640 225 649 230 659 C 230 681 224 698 213 712 C 202 726 188 733 170 733 C 152 733 138 728 129 718 C 120 708 116 695 116 680 C 116 664 120 650 130 640 C 140 630 153 625 169 625 Z" unicode="⁹" />
<glyph horiz-adv-x="390" d="M 39 440 L 39 800 L 135 800 L 135 755 C 149 773 164 786 182 795 C 199 803 218 808 239 808 C 275 808 304 796 325 773 C 346 749 357 717 357 676 L 357 440 L 262 440 L 262 656 C 262 676 256 692 245 703 C 233 714 218 720 200 720 C 185 720 172 716 162 709 C 151 702 142 693 135 682 L 135 440 L 39 440 Z" unicode="ⁿ" />
<glyph horiz-adv-x="396" d="M 198 -178 C 147 -178 106 -160 75 -126 C 44 -92 29 -47 29 9 C 29 65 44 111 75 146 C 106 180 147 198 198 198 C 249 198 290 180 321 146 C 352 112 368 67 368 11 C 368 -46 352 -92 321 -126 C 290 -160 249 -178 198 -178 Z M 198 -96 C 221 -96 240 -86 255 -67 C 269 -47 277 -22 277 9 C 277 41 269 67 255 87 C 240 106 221 116 198 116 C 174 116 155 106 141 87 C 126 67 119 42 119 11 C 119 -21 126 -47 141 -67 C 155 -86 174 -96 198 -96 Z" unicode="₀" />
<glyph horiz-adv-x="306" d="M 37 -170 L 37 -93 L 113 -93 L 113 110 L 28 100 L 28 178 L 204 200 L 204 -93 L 280 -93 L 280 -170 L 37 -170 Z" unicode="₁" />
<glyph horiz-adv-x="313" d="M 28 -170 L 28 -71 C 81 -45 121 -21 149 0 C 177 22 191 43 191 65 C 191 82 184 95 172 104 C 159 113 143 118 124 118 C 109 118 94 115 79 110 C 63 105 48 98 34 88 L 34 177 C 52 183 71 188 89 192 C 107 196 127 198 150 198 C 190 198 223 187 248 167 C 272 147 285 119 285 85 C 285 47 270 14 241 -14 C 211 -42 168 -67 111 -89 L 285 -89 L 285 -170 L 28 -170 Z" unicode="₂" />
<glyph horiz-adv-x="312" d="M 151 -178 C 130 -178 110 -176 90 -172 C 70 -168 49 -162 28 -154 L 28 -69 C 45 -79 62 -86 79 -91 C 96 -96 114 -99 134 -99 C 152 -99 166 -96 176 -90 C 185 -84 190 -75 190 -63 C 190 -51 184 -42 172 -36 C 160 -29 141 -26 115 -26 L 92 -26 L 92 48 L 112 48 C 136 48 154 51 166 58 C 177 64 183 74 183 86 C 183 96 178 104 169 110 C 160 116 147 119 129 119 C 112 119 96 117 82 113 C 68 109 53 103 39 95 L 39 176 C 57 182 76 188 94 192 C 112 196 130 198 149 198 C 187 198 218 189 242 172 C 266 155 278 132 278 104 C 278 81 271 62 258 46 C 244 30 226 19 204 13 C 228 8 248 -1 262 -17 C 276 -33 284 -51 284 -73 C 284 -104 272 -129 249 -149 C 225 -168 193 -178 151 -178 Z" unicode="₃" />
<glyph horiz-adv-x="349" d="M 186 -170 L 186 -94 L 21 -94 L 21 -32 L 150 191 L 274 191 L 274 -20 L 323 -20 L 323 -94 L 274 -94 L 274 -170 L 186 -170 Z M 186 -20 L 186 119 L 105 -20 L 186 -20 Z" unicode="₄" />
<glyph horiz-adv-x="311" d="M 146 -178 C 125 -178 105 -176 86 -172 C 67 -168 48 -161 28 -153 L 28 -70 C 44 -80 61 -88 78 -94 C 94 -99 112 -102 131 -102 C 149 -102 164 -98 174 -90 C 184 -82 190 -70 190 -56 C 190 -43 184 -33 172 -25 C 160 -17 143 -14 121 -14 C 106 -14 90 -15 74 -17 C 57 -19 42 -21 30 -24 L 43 190 L 264 190 L 264 109 L 105 109 L 102 50 C 110 51 119 52 127 53 C 135 54 142 55 149 55 C 193 55 226 45 249 25 C 271 5 283 -21 283 -54 C 283 -91 270 -121 245 -144 C 220 -166 187 -178 146 -178 Z" unicode="₅" />
<glyph horiz-adv-x="348" d="M 176 -178 C 136 -178 102 -162 72 -132 C 42 -102 28 -61 28 -11 C 28 54 43 105 75 142 C 107 179 149 198 201 198 C 217 198 233 196 249 194 C 265 192 280 188 296 183 L 296 102 C 281 108 266 112 251 116 C 236 119 221 121 207 121 C 178 121 156 112 141 95 C 125 78 116 54 114 24 C 123 38 135 48 151 55 C 166 61 183 65 202 65 C 238 65 266 54 288 34 C 309 13 320 -13 320 -46 C 320 -85 306 -117 279 -141 C 252 -165 218 -178 176 -178 Z M 178 -103 C 196 -103 209 -98 218 -88 C 227 -78 232 -66 232 -50 C 232 -36 227 -24 217 -14 C 207 -4 195 0 179 0 C 165 0 153 -3 142 -9 C 131 -15 123 -24 119 -34 C 119 -54 124 -70 135 -83 C 145 -96 160 -103 178 -103 Z" unicode="₆" />
<glyph horiz-adv-x="314" d="M 63 -170 L 190 106 L 24 106 L 24 190 L 290 190 L 290 121 L 164 -170 L 63 -170 Z" unicode="₇" />
<glyph horiz-adv-x="339" d="M 170 -178 C 124 -178 89 -169 65 -151 C 41 -133 29 -110 29 -80 C 29 -61 34 -44 45 -30 C 56 -16 73 -4 95 6 C 75 16 60 29 49 43 C 37 57 32 74 32 92 C 32 123 44 148 70 168 C 95 188 128 198 169 198 C 209 198 241 188 267 170 C 292 152 305 128 305 99 C 305 81 299 66 289 54 C 279 41 264 30 245 20 C 265 10 280 -2 292 -16 C 304 -30 310 -49 310 -71 C 310 -105 298 -131 274 -150 C 250 -168 215 -178 170 -178 Z M 173 46 L 180 44 C 190 48 198 55 205 65 C 212 74 216 84 216 95 C 216 106 211 116 203 124 C 194 132 183 136 170 136 C 156 136 145 131 136 123 C 127 115 123 105 123 94 C 123 82 128 72 138 64 C 148 56 159 50 173 46 Z M 120 -71 C 120 -84 124 -95 134 -103 C 144 -111 156 -116 170 -116 C 184 -116 195 -111 205 -103 C 214 -95 219 -84 219 -70 C 219 -56 214 -46 204 -38 C 194 -30 182 -24 168 -21 L 161 -19 C 149 -23 140 -29 132 -38 C 124 -47 120 -58 120 -71 Z" unicode="₈" />
<glyph horiz-adv-x="348" d="M 149 -178 C 131 -178 115 -176 99 -174 C 83 -172 67 -168 52 -163 L 52 -82 C 66 -88 81 -92 96 -96 C 111 -99 127 -101 143 -101 C 171 -101 192 -92 207 -76 C 221 -60 230 -37 234 -8 C 224 -22 212 -32 197 -39 C 181 -45 165 -49 147 -49 C 110 -49 81 -38 60 -17 C 38 4 28 32 28 66 C 28 106 41 138 68 162 C 95 186 130 198 172 198 C 211 198 245 183 275 153 C 305 123 320 82 320 31 C 320 -34 304 -85 273 -122 C 241 -159 200 -178 149 -178 Z M 169 15 C 182 15 194 18 206 24 C 217 30 225 39 230 49 C 230 71 224 88 213 102 C 202 116 188 123 170 123 C 152 123 138 118 129 108 C 120 98 116 85 116 70 C 116 54 120 40 130 30 C 140 20 153 15 169 15 Z" unicode="₉" />
<glyph horiz-adv-x="701" d="M 32 227 L 32 302 L 91 302 C 90 306 90 311 90 315 C 90 319 90 324 90 329 C 90 333 90 337 90 341 C 90 345 90 350 91 354 L 32 354 L 32 430 L 102 430 C 120 504 160 563 221 607 C 281 651 357 673 447 673 C 483 673 518 669 551 661 C 584 653 617 641 649 625 L 649 512 C 617 531 584 545 552 555 C 519 564 484 569 447 569 C 393 569 346 556 307 532 C 267 507 239 473 222 430 L 377 430 L 377 354 L 205 354 C 204 350 204 346 204 342 C 204 338 204 333 204 329 C 204 324 204 319 204 315 C 204 311 204 306 205 302 L 377 302 L 377 227 L 223 227 C 240 184 268 150 307 126 C 346 101 393 89 447 89 C 487 89 523 94 557 105 C 590 115 623 131 656 152 L 656 39 C 623 20 589 6 555 -2 C 521 -10 485 -15 447 -15 C 357 -15 282 6 222 50 C 161 93 121 152 102 227 L 32 227 Z" unicode="€" />
<glyph horiz-adv-x="537" d="M 69 0 L 69 658 L 144 658 L 144 786 L 221 786 L 221 658 L 251 658 C 255 658 260 658 264 658 C 268 658 273 657 278 657 L 278 786 L 356 786 L 356 645 C 393 633 421 615 440 589 C 458 563 468 532 468 494 C 468 456 459 423 441 396 C 423 369 398 349 364 337 C 404 327 435 308 457 281 C 479 254 490 221 490 181 C 490 135 478 98 456 69 C 433 40 400 20 356 10 L 356 -124 L 278 -124 L 278 0 C 276 0 273 0 271 0 C 269 0 267 0 265 0 L 221 0 L 221 -124 L 144 -124 L 144 0 L 69 0 Z M 181 378 L 250 378 C 282 378 308 386 328 402 C 347 418 357 441 357 473 C 357 503 347 525 328 539 C 308 553 283 561 251 561 L 181 561 L 181 378 Z M 181 97 L 269 97 C 302 97 329 104 349 120 C 369 136 379 160 379 192 C 379 222 368 246 348 262 C 327 278 299 286 265 286 L 181 286 L 181 97 Z" unicode="₿" />
<glyph horiz-adv-x="701" d="M 351 93 C 260 93 186 123 129 185 C 71 247 43 319 43 402 C 43 485 71 557 129 619 C 186 681 260 712 351 712 C 440 712 514 681 572 619 C 630 557 660 485 660 402 C 660 318 630 246 572 185 C 514 123 440 93 351 93 Z M 351 154 C 415 154 473 177 524 224 C 574 271 600 330 600 402 C 600 475 574 535 524 581 C 473 627 415 651 351 651 C 283 651 225 627 177 581 C 128 535 104 475 104 402 C 104 330 128 270 177 224 C 225 177 283 154 351 154 Z M 261 234 L 261 573 L 364 573 C 398 573 426 563 450 543 C 474 523 486 496 486 462 C 486 426 474 398 450 378 C 426 357 397 347 362 347 L 328 347 L 328 234 L 261 234 Z M 328 404 L 357 404 C 375 404 390 409 401 420 C 412 430 418 444 418 460 C 418 476 412 489 401 500 C 390 510 375 516 357 516 L 328 516 L 328 404 Z" unicode="℗" />
<glyph horiz-adv-x="642" d="M 106 455 L 106 659 L 34 659 L 34 718 L 248 718 L 248 659 L 176 659 L 176 455 L 106 455 Z M 277 455 L 277 718 L 381 718 L 434 599 L 487 718 L 587 718 L 587 455 L 517 455 L 517 649 L 447 496 L 406 496 L 336 649 L 336 455 L 277 455 Z" unicode="™" />
<glyph horiz-adv-x="554" d="M 281 -11 C 209 -11 151 8 107 47 C 62 85 40 143 40 219 C 40 293 59 351 99 395 C 138 438 188 460 248 460 C 274 460 299 455 321 445 C 343 435 363 421 379 402 C 362 452 330 495 284 532 C 238 569 167 588 73 588 L 73 703 C 251 703 369 650 427 544 C 485 438 514 351 514 283 C 514 185 492 111 448 62 C 404 13 348 -11 281 -11 Z M 278 94 C 316 94 345 107 367 133 C 388 159 399 195 399 240 C 397 274 386 303 364 325 C 342 347 313 358 275 358 C 238 358 209 345 188 320 C 166 295 156 264 156 226 C 156 186 166 154 187 130 C 208 106 238 94 278 94 Z" unicode="∂" />
<glyph horiz-adv-x="569" d="M 65 0 L 65 658 L 503 658 L 503 0 L 391 0 L 391 553 L 177 553 L 177 0 L 65 0 Z" unicode="∏" />
<glyph horiz-adv-x="498" d="M 44 0 L 44 102 L 261 336 L 44 556 L 44 658 L 452 658 L 452 553 L 199 553 L 408 344 L 186 106 L 458 106 L 458 0 L 44 0 Z" unicode="∑" />
<glyph horiz-adv-x="504" d="M 47 245 L 47 340 L 457 340 L 457 245 L 47 245 Z" unicode="−" />
<glyph horiz-adv-x="616" d="M 216 -3 L 8 505 L 126 505 L 272 146 L 501 708 L 608 708 L 318 -3 L 216 -3 Z" unicode="√" />
<glyph horiz-adv-x="833" d="M 223 24 C 163 24 115 42 80 80 C 45 118 28 168 28 232 C 28 296 46 346 83 384 C 120 422 167 441 225 441 C 268 441 307 430 343 409 C 378 388 407 358 430 318 C 456 360 486 391 520 411 C 553 430 585 440 616 440 C 674 440 720 421 754 384 C 788 346 805 296 805 233 C 805 169 786 118 749 80 C 712 42 663 24 601 24 C 563 24 526 34 491 54 C 456 74 427 104 404 145 C 379 103 351 73 320 53 C 289 33 257 24 223 24 Z M 596 341 C 576 341 555 332 533 315 C 511 298 490 272 470 236 C 489 198 509 170 531 152 C 552 133 575 124 600 124 C 628 124 651 133 671 153 C 690 172 700 198 700 232 C 700 265 690 291 670 311 C 650 331 626 341 596 341 Z M 134 233 C 134 199 143 173 163 153 C 183 133 208 124 240 124 C 258 124 279 132 301 149 C 323 166 343 194 362 232 C 340 275 320 304 300 319 C 280 333 259 341 239 341 C 208 341 183 331 163 312 C 143 292 134 266 134 233 Z" unicode="∞" />
<glyph horiz-adv-x="475" d="M 65 -221 C 52 -221 39 -219 26 -217 C 13 -214 1 -210 -11 -205 L -11 -106 C 1 -110 13 -114 27 -117 C 40 -119 54 -121 70 -121 C 90 -121 107 -114 120 -100 C 133 -86 141 -67 144 -43 L 211 542 C 217 602 237 646 270 676 C 303 706 343 721 391 721 C 405 721 418 720 432 718 C 446 716 460 713 474 709 L 474 605 C 461 611 448 615 434 618 C 420 620 407 622 394 622 C 372 622 354 615 341 601 C 328 587 320 568 318 543 L 251 -43 C 244 -103 224 -147 192 -177 C 159 -206 117 -221 65 -221 Z" unicode="∫" />
<glyph horiz-adv-x="415" d="M 73 307 L 58 392 C 64 404 75 414 91 422 C 106 429 122 433 138 433 C 150 433 163 431 176 428 C 188 425 200 421 211 415 C 221 408 232 403 244 399 C 256 395 268 394 282 394 C 294 394 306 396 317 401 C 327 406 337 412 346 420 L 360 335 C 353 322 342 312 327 305 C 311 298 296 295 281 295 C 269 295 256 296 244 299 C 231 301 219 306 209 313 C 198 319 187 324 175 328 C 163 332 150 334 137 334 C 125 334 113 331 102 327 C 90 322 81 315 73 307 Z M 73 128 L 58 213 C 64 225 75 235 91 243 C 106 250 122 254 138 254 C 150 254 163 252 176 249 C 188 246 200 242 211 236 C 221 229 232 224 244 220 C 256 216 268 215 282 215 C 294 215 306 217 317 222 C 327 227 337 234 346 242 L 360 156 C 353 144 342 134 327 127 C 311 119 296 116 281 116 C 269 116 256 117 244 120 C 231 122 219 127 209 134 C 198 140 187 145 175 149 C 163 153 150 155 137 155 C 125 155 113 152 102 148 C 90 143 81 136 73 128 Z" unicode="≈" />
<glyph horiz-adv-x="525" d="M 107 33 L 154 152 L 58 152 L 58 247 L 191 247 L 227 337 L 58 337 L 58 431 L 264 431 L 308 544 L 401 544 L 356 431 L 468 431 L 468 337 L 319 337 L 284 247 L 468 247 L 468 152 L 246 152 L 199 33 L 107 33 Z" unicode="≠" />
<glyph horiz-adv-x="485" d="M 275 83 L 60 294 L 275 505 L 425 505 L 209 294 L 425 83 L 275 83 Z M 68 -95 L 68 0 L 417 0 L 417 -95 L 68 -95 Z" unicode="≤" />
<glyph horiz-adv-x="485" d="M 60 83 L 275 294 L 60 505 L 209 505 L 425 294 L 209 83 L 60 83 Z M 68 -95 L 68 0 L 417 0 L 417 -95 L 68 -95 Z" unicode="≥" />
<glyph horiz-adv-x="608" d="M 307 -35 L 48 302 L 307 640 L 560 302 L 307 -35 Z M 309 120 L 446 302 L 308 485 L 171 302 L 309 120 Z" unicode="◊" />
<glyph horiz-adv-x="621" d="M 215 -3 L 18 471 L 136 471 L 271 145 L 500 719 L 607 719 L 317 -3 L 215 -3 Z" unicode="✓" />
<glyph horiz-adv-x="668" d="M 52 0 L 52 106 L 219 106 L 219 137 C 165 151 121 181 87 226 C 53 270 36 324 36 388 C 36 476 63 545 119 596 C 174 647 246 673 334 673 C 422 673 494 647 549 597 C 604 546 632 477 632 390 C 632 325 614 270 580 224 C 545 178 500 149 446 135 L 446 106 L 612 106 L 612 0 L 365 0 L 365 208 C 411 211 448 229 476 262 C 504 295 518 336 518 386 C 518 440 501 483 468 517 C 434 551 390 568 334 568 C 278 568 233 551 200 518 C 166 484 150 441 150 388 C 150 339 163 298 191 265 C 219 231 255 212 300 208 L 300 0 L 52 0 Z" unicode="Ꞷ" />
<glyph horiz-adv-x="144" d="M 65 -248 L -14 -215 C 2 -192 13 -171 19 -152 C 25 -132 28 -110 28 -85 L 28 -40 L 125 -40 L 125 -85 C 125 -114 119 -143 109 -171 C 98 -199 83 -224 65 -248 Z" unicode="" />
<glyph horiz-adv-x="752" d="M 44 0 L 44 658 L 708 658 L 708 0 L 44 0 Z M 227 78 L 307 78 L 307 514 L 381 514 L 381 78 L 461 78 L 461 309 L 482 309 C 532 309 570 321 597 346 C 624 371 638 404 638 445 C 638 486 624 519 598 544 C 571 569 532 582 482 582 L 125 582 L 125 514 L 227 514 L 227 78 Z" unicode="" />
<glyph horiz-adv-x="508" d="M 85 0 L 85 370 L 20 370 L 20 468 L 85 468 L 85 529 C 85 589 101 638 135 674 C 168 710 213 728 269 728 C 287 728 305 726 323 723 C 341 719 358 714 375 708 L 375 602 C 362 610 347 616 330 621 C 313 625 297 628 281 628 C 253 628 231 619 216 603 C 201 586 194 562 194 532 L 194 468 L 272 468 L 272 370 L 194 370 L 194 0 L 85 0 Z M 339 0 L 339 468 L 448 468 L 448 0 L 339 0 Z" unicode="ﬁ" />
<glyph horiz-adv-x="517" d="M 85 0 L 85 370 L 20 370 L 20 468 L 85 468 L 85 529 C 85 589 101 638 135 674 C 168 710 213 728 269 728 C 281 728 294 727 307 725 C 319 723 332 720 345 718 L 345 718 L 454 718 L 454 0 L 345 0 L 345 616 C 335 620 324 623 313 625 C 302 627 291 628 281 628 C 253 628 231 619 216 603 C 201 586 194 562 194 532 L 194 468 L 272 468 L 272 370 L 194 370 L 194 0 L 85 0 Z" unicode="ﬂ" />
</font>
</defs>
</svg>
